<?xml version="1.0" encoding="UTF-8"?><!DOCTYPE svg PUBLIC "-//W3C//DTD SVG 1.1//EN" "http://www.w3.org/Graphics/SVG/1.1/DTD/svg11.dtd"><svg xmlns="http://www.w3.org/2000/svg" xmlns:xlink="http://www.w3.org/1999/xlink" version="1.1" width="512" height="512" viewBox="0 0 512 512">    <path fill="#ffffff" transform="scale(1, -1) translate(0, -448)" glyph-name="rss-box" unicode="&#xF46C;" horiz-adv-x="512" d=" M106.6666666666667 384H405.3333333333333C428.8 384 448 364.8 448 341.3333333333334V42.6666666666667C448 19.2 428.8 0 405.3333333333333 0H106.6666666666667C83.2 0 64 19.2 64 42.6666666666667V341.3333333333334C64 364.8 83.2 384 106.6666666666667 384M160 128C142.2933333333333 128 128 113.7066666666667 128 96S142.2933333333333 64 160 64S192 78.2933333333334 192 96S177.7066666666667 128 160 128M128 234.6666666666667V192C198.6133333333334 192 256 134.6133333333334 256 64H298.6666666666667C298.6666666666667 158.2933333333334 222.2933333333333 234.6666666666667 128 234.6666666666667M128 320V277.3333333333334C245.76 277.3333333333334 341.3333333333333 181.76 341.3333333333333 64H384C384 205.44 269.44 320 128 320z" /></svg>