<?xml version="1.0" encoding="UTF-8"?><!DOCTYPE svg PUBLIC "-//W3C//DTD SVG 1.1//EN" "http://www.w3.org/Graphics/SVG/1.1/DTD/svg11.dtd"><svg xmlns="http://www.w3.org/2000/svg" xmlns:xlink="http://www.w3.org/1999/xlink" version="1.1" width="512" height="512" viewBox="0 0 512 512">    <path fill="#ffffff" transform="scale(1, -1) translate(0, -448)" glyph-name="humble-bundle" unicode="&#xF743;" horiz-adv-x="512" d=" M360.7466666666667 61.44C300.5866666666667 61.44 393.1733333333333 402.56 393.1733333333333 402.56H331.3066666666666S305.92 322.3466666666667 289.0666666666666 233.1733333333334H235.7333333333333C237.0133333333333 251.52 237.8666666666666 270.0800000000001 237.44 288C234.6666666666667 435.4133333333334 149.3333333333333 408.1066666666667 110.5066666666667 374.4C74.0266666666667 342.4 43.3066666666667 281.6 42.6666666666667 234.6666666666667H71.4666666666667S90.6666666666667 322.56 150.8266666666667 322.56C210.9866666666667 322.56 118.1866666666667 -18.56 118.1866666666667 -18.56H180.2666666666667S212.2666666666667 72.7466666666667 228.2666666666667 174.72L279.2533333333334 174.9333333333333C276.2666666666667 148.48 275.4133333333333 119.4666666666667 275.84 92.3733333333333C278.1866666666666 -54.6133333333333 363.9466666666666 -23.04 402.3466666666667 10.6666666666667C440.9600000000001 44.3733333333333 469.3333333333333 115.6266666666667 469.3333333333333 149.3333333333334H439.68C439.8933333333333 146.7733333333334 420.9066666666667 61.44 360.7466666666667 61.44z" /></svg>