<?xml version="1.0" encoding="UTF-8"?><!DOCTYPE svg PUBLIC "-//W3C//DTD SVG 1.1//EN" "http://www.w3.org/Graphics/SVG/1.1/DTD/svg11.dtd"><svg xmlns="http://www.w3.org/2000/svg" xmlns:xlink="http://www.w3.org/1999/xlink" version="1.1" width="512" height="512" viewBox="0 0 512 512">    <path fill="#ffffff" transform="scale(1, -1) translate(0, -448)" glyph-name="credit-card-off" unicode="&#xF5E4;" horiz-adv-x="512" d=" M19.84 358.4L47.1466666666667 385.4933333333334L426.6666666666667 5.9733333333334L399.5733333333333 -21.3333333333333L356.9066666666667 21.3333333333334H85.3333333333333C61.6533333333333 21.3333333333334 42.6666666666667 40.5333333333333 42.6666666666667 64V320C42.6666666666667 324.6933333333334 43.52 329.1733333333334 45.0133333333333 333.2266666666667L19.84 358.4M426.6666666666667 277.3333333333334V320H166.8266666666667L124.16 362.6666666666667H426.6666666666667C450.1333333333334 362.6666666666667 469.3333333333333 343.4666666666667 469.3333333333333 320V64C469.3333333333333 51.2 463.7866666666666 39.8933333333334 454.8266666666667 32L422.8266666666667 64H426.6666666666667V192H294.8266666666667L209.4933333333334 277.3333333333334H426.6666666666667M85.3333333333333 277.3333333333334H100.9066666666667L85.3333333333333 292.9066666666667V277.3333333333334M85.3333333333333 192V64H314.24L186.24 192H85.3333333333333z" /></svg>