<?xml version="1.0" encoding="UTF-8"?><!DOCTYPE svg PUBLIC "-//W3C//DTD SVG 1.1//EN" "http://www.w3.org/Graphics/SVG/1.1/DTD/svg11.dtd"><svg xmlns="http://www.w3.org/2000/svg" xmlns:xlink="http://www.w3.org/1999/xlink" version="1.1" width="512" height="512" viewBox="0 0 512 512">    <path fill="#ffffff" transform="scale(1, -1) translate(0, -448)" glyph-name="pen-remove" unicode="&#xFDC2;" horiz-adv-x="512" d=" M441.6 298.6666666666667C435.2 290.1333333333334 426.6666666666667 283.7333333333334 426.6666666666667 277.3333333333334C426.6666666666667 270.9333333333334 433.0666666666667 264.5333333333334 439.4666666666667 256C450.1333333333334 245.3333333333334 460.8 236.8 458.6666666666666 226.1333333333334C458.6666666666666 215.4666666666667 448 204.8 437.3333333333333 194.1333333333333L349.8666666666666 106.6666666666667L320 134.4L409.6 224L388.2666666666667 245.3333333333334L358.4 215.4666666666667L277.3333333333333 296.5333333333334L362.6666666666667 377.6C371.2 386.1333333333334 384 386.1333333333334 392.5333333333333 377.6L441.6 328.5333333333334C450.1333333333333 320 450.1333333333333 305.0666666666667 441.6 298.6666666666667M64 81.0666666666667L268.8 285.8666666666667L347.7333333333334 204.8000000000001L145.0666666666667 0H64V81.0666666666667M82.7733333333333 395.5200000000001L128 350.0800000000001L173.2266666666667 395.52L203.52 365.2266666666667L158.08 320L203.52 274.7733333333333L173.2266666666666 244.48L128 289.92L82.7733333333333 244.48L52.48 274.7733333333334L97.92 320L52.48 365.2266666666667L82.7733333333333 395.52z" /></svg>