<?xml version="1.0" encoding="UTF-8"?><!DOCTYPE svg PUBLIC "-//W3C//DTD SVG 1.1//EN" "http://www.w3.org/Graphics/SVG/1.1/DTD/svg11.dtd"><svg xmlns="http://www.w3.org/2000/svg" xmlns:xlink="http://www.w3.org/1999/xlink" version="1.1" width="512" height="512" viewBox="0 0 512 512">    <path fill="#ffffff" transform="scale(1, -1) translate(0, -448)" glyph-name="nas" unicode="&#xF8F2;" horiz-adv-x="512" d=" M85.3333333333333 341.3333333333334C61.6533333333333 341.3333333333334 42.6666666666667 322.3466666666667 42.6666666666667 298.6666666666667V85.3333333333334C42.6666666666667 61.6533333333334 61.6533333333333 42.6666666666667 85.3333333333333 42.6666666666667H426.6666666666667C450.3466666666667 42.6666666666667 469.3333333333333 61.6533333333334 469.3333333333333 85.3333333333334V298.6666666666667C469.3333333333333 322.3466666666667 450.3466666666667 341.3333333333334 426.6666666666667 341.3333333333334H85.3333333333333M96 298.6666666666667C107.7333333333333 298.6666666666667 117.3333333333333 289.0666666666667 117.3333333333333 277.3333333333334S107.7333333333333 256 96 256S74.6666666666667 265.6 74.6666666666667 277.3333333333334S84.2666666666667 298.6666666666667 96 298.6666666666667M149.3333333333333 298.6666666666667H426.6666666666667V85.3333333333334H149.3333333333333V298.6666666666667M170.6666666666667 277.3333333333334V106.6666666666667H234.6666666666667V277.3333333333334H170.6666666666667M256 277.3333333333334V106.6666666666667H320V277.3333333333334H256M341.3333333333333 277.3333333333334V106.6666666666667H405.3333333333333V277.3333333333334H341.3333333333333M192 256H213.3333333333333V234.6666666666667H192V256M277.3333333333333 256H298.6666666666667V234.6666666666667H277.3333333333333V256M362.6666666666667 256H384V234.6666666666667H362.6666666666667V256z" /></svg>