<?xml version="1.0" encoding="UTF-8"?><!DOCTYPE svg PUBLIC "-//W3C//DTD SVG 1.1//EN" "http://www.w3.org/Graphics/SVG/1.1/DTD/svg11.dtd"><svg xmlns="http://www.w3.org/2000/svg" xmlns:xlink="http://www.w3.org/1999/xlink" version="1.1" width="512" height="512" viewBox="0 0 512 512">    <path fill="#ffffff" transform="scale(1, -1) translate(0, -448)" glyph-name="multiplication-box" unicode="&#xF383;" horiz-adv-x="512" d=" M405.3333333333333 384C428.8 384 448 364.8 448 341.3333333333334V42.6666666666667C448 19.2 428.8 0 405.3333333333333 0H106.6666666666667C82.9866666666667 0 64 19.2 64 42.6666666666667V341.3333333333334C64 365.0133333333333 82.9866666666667 384 106.6666666666667 384H405.3333333333333M234.6666666666667 85.3333333333334H277.3333333333333V155.0933333333334L337.7066666666667 120.3200000000001L359.04 157.2266666666667L298.6666666666667 192L359.04 226.9866666666667L337.7066666666666 263.8933333333334L277.3333333333333 228.9066666666667V298.6666666666667H234.6666666666667V228.9066666666667L174.2933333333333 263.8933333333333L152.96 226.9866666666667L213.3333333333333 192L152.96 157.2266666666667L174.2933333333333 120.3200000000001L234.6666666666667 155.0933333333334V85.3333333333334z" /></svg>