<?xml version="1.0" encoding="UTF-8"?><!DOCTYPE svg PUBLIC "-//W3C//DTD SVG 1.1//EN" "http://www.w3.org/Graphics/SVG/1.1/DTD/svg11.dtd"><svg xmlns="http://www.w3.org/2000/svg" xmlns:xlink="http://www.w3.org/1999/xlink" version="1.1" width="512" height="512" viewBox="0 0 512 512">    <path fill="#ffffff" transform="scale(1, -1) translate(0, -448)" glyph-name="account-heart" unicode="&#xF898;" horiz-adv-x="512" d=" M320 149.3333333333334C262.4 149.3333333333334 149.3333333333333 121.6 149.3333333333333 64V21.3333333333334H490.6666666666666V64C490.6666666666666 121.6 377.6 149.3333333333334 320 149.3333333333334M320 192C367.1466666666667 192 405.3333333333333 230.1866666666667 405.3333333333333 277.3333333333334S367.1466666666667 362.6666666666667 320 362.6666666666667S234.6666666666667 324.48 234.6666666666667 277.3333333333334S272.8533333333333 192 320 192M106.6666666666667 128L93.8666666666667 138.6666666666667C51.2 179.2000000000001 21.3333333333333 204.8 21.3333333333333 236.8C21.3333333333333 262.4 42.6666666666667 283.7333333333334 68.2666666666667 283.7333333333334C83.2 283.7333333333334 98.1333333333333 277.3333333333334 106.6666666666667 266.6666666666667C115.2 277.3333333333334 130.1333333333333 283.7333333333334 145.0666666666667 283.7333333333334C170.6666666666667 283.7333333333334 192 264.5333333333334 192 236.8C192 204.8 162.1333333333333 179.2 119.4666666666667 138.6666666666667L106.6666666666667 128z" /></svg>