<?xml version="1.0" encoding="UTF-8"?><!DOCTYPE svg PUBLIC "-//W3C//DTD SVG 1.1//EN" "http://www.w3.org/Graphics/SVG/1.1/DTD/svg11.dtd"><svg xmlns="http://www.w3.org/2000/svg" xmlns:xlink="http://www.w3.org/1999/xlink" version="1.1" width="512" height="512" viewBox="0 0 512 512">    <path fill="#ffffff" transform="scale(1, -1) translate(0, -448)" glyph-name="file-find-outline" unicode="&#xFB73;" horiz-adv-x="512" d=" M298.6666666666667 405.3333333333333H128C104.5333333333333 405.3333333333333 85.3333333333333 386.1333333333334 85.3333333333333 362.6666666666667V21.3333333333334C85.3333333333333 -2.1333333333333 104.5333333333333 -21.3333333333333 128 -21.3333333333333H384C407.4666666666667 -21.3333333333333 426.6666666666667 -2.1333333333333 426.6666666666667 21.3333333333334V277.3333333333334L298.6666666666667 405.3333333333333M128 362.6666666666667H277.3333333333333L384 256V72.96L344.7466666666667 112.2133333333334C372.0533333333334 153.6 367.5733333333333 209.7066666666667 330.6666666666667 246.1866666666667C310.4 266.6666666666667 283.3066666666666 277.3333333333334 256 277.3333333333334C228.6933333333334 277.3333333333334 201.6 266.6666666666667 180.6933333333333 246.1866666666667C138.6666666666667 204.5866666666667 138.6666666666667 137.1733333333334 180.6933333333333 96C201.3866666666667 74.6666666666667 228.6933333333334 64.64 256 64.64C276.48 64.64 296.96 70.6133333333334 314.6666666666667 82.3466666666667L375.4666666666667 21.3333333333334H128V362.6666666666667M301.0133333333333 125.8666666666667C289.0666666666666 113.92 273.0666666666666 106.6666666666667 256 106.6666666666667C238.9333333333333 106.6666666666667 222.9333333333333 113.7066666666667 210.9866666666667 125.8666666666667C199.04 137.8133333333334 192 153.8133333333334 192 170.6666666666667C192 187.9466666666667 198.8266666666667 203.9466666666667 210.9866666666667 215.8933333333334C222.9333333333333 228.0533333333334 238.9333333333334 234.6666666666667 256 234.6666666666667C273.0666666666667 234.6666666666667 289.0666666666667 228.0533333333334 301.0133333333333 215.8933333333334C312.96 203.9466666666667 320 187.9466666666667 320 170.6666666666667C320 153.8133333333334 313.1733333333333 137.8133333333334 301.0133333333333 125.8666666666667z" /></svg>