<?xml version="1.0" encoding="UTF-8"?><!DOCTYPE svg PUBLIC "-//W3C//DTD SVG 1.1//EN" "http://www.w3.org/Graphics/SVG/1.1/DTD/svg11.dtd"><svg xmlns="http://www.w3.org/2000/svg" xmlns:xlink="http://www.w3.org/1999/xlink" version="1.1" width="512" height="512" viewBox="0 0 512 512">    <path fill="#ffffff" transform="scale(1, -1) translate(0, -448)" glyph-name="flash-red-eye" unicode="&#xF67A;" horiz-adv-x="512" d=" M341.3333333333333 341.3333333333334C329.3866666666667 341.3333333333334 320 331.9466666666667 320 320S329.3866666666667 298.6666666666667 341.3333333333333 298.6666666666667S362.6666666666667 308.0533333333334 362.6666666666667 320S353.28 341.3333333333334 341.3333333333333 341.3333333333334M341.3333333333333 405.3333333333333C283.0933333333333 405.3333333333333 233.3866666666667 369.92 213.3333333333333 320C233.3866666666667 270.0800000000001 283.0933333333333 234.6666666666667 341.3333333333333 234.6666666666667S449.28 270.0800000000001 469.3333333333333 320C449.28 369.92 399.5733333333333 405.3333333333333 341.3333333333333 405.3333333333333M341.3333333333333 373.3333333333334C370.7733333333333 373.3333333333334 394.6666666666667 349.44 394.6666666666667 320S370.7733333333333 266.6666666666667 341.3333333333333 266.6666666666667S288 290.56 288 320S311.8933333333333 373.3333333333334 341.3333333333333 373.3333333333334M64 405.3333333333333V149.3333333333334H128V-42.6666666666666L277.3333333333333 213.3333333333334H192L215.8933333333334 266.6666666666667C201.3866666666667 282.4533333333334 189.44 300.1600000000001 181.3333333333333 320C196.0533333333333 356.48 224 386.56 258.3466666666667 405.3333333333333H64z" /></svg>