<?xml version="1.0" encoding="UTF-8"?><!DOCTYPE svg PUBLIC "-//W3C//DTD SVG 1.1//EN" "http://www.w3.org/Graphics/SVG/1.1/DTD/svg11.dtd"><svg xmlns="http://www.w3.org/2000/svg" xmlns:xlink="http://www.w3.org/1999/xlink" version="1.1" width="512" height="512" viewBox="0 0 512 512">    <path fill="#ffffff" transform="scale(1, -1) translate(0, -448)" glyph-name="loop" unicode="&#xF6EA;" horiz-adv-x="512" d=" M192 149.3333333333334V0H42.6666666666667V42.6666666666667H118.8266666666667C85.3333333333333 78.9333333333333 64 128 64 181.3333333333334C64 293.3333333333334 154.6666666666667 384 266.6666666666667 384S469.3333333333333 293.3333333333334 469.3333333333333 181.3333333333334S378.6666666666667 -21.3333333333333 266.6666666666667 -21.3333333333333H256V21.3333333333334H266.6666666666667C354.9866666666667 21.3333333333334 426.6666666666667 93.0133333333333 426.6666666666667 181.3333333333334C426.6666666666667 269.6533333333334 354.9866666666667 341.3333333333334 266.6666666666667 341.3333333333334C178.3466666666666 341.3333333333334 106.6666666666667 269.6533333333334 106.6666666666667 181.3333333333334C106.6666666666667 139.3066666666667 122.88 101.1200000000001 149.3333333333333 72.5333333333333V149.3333333333334H192z" /></svg>