<?xml version="1.0" encoding="UTF-8"?><!DOCTYPE svg PUBLIC "-//W3C//DTD SVG 1.1//EN" "http://www.w3.org/Graphics/SVG/1.1/DTD/svg11.dtd"><svg xmlns="http://www.w3.org/2000/svg" xmlns:xlink="http://www.w3.org/1999/xlink" version="1.1" width="512" height="512" viewBox="0 0 512 512">    <path fill="#ffffff" transform="scale(1, -1) translate(0, -448)" glyph-name="update" unicode="&#xF6AF;" horiz-adv-x="512" d=" M448 232.1066666666667H303.36L361.8133333333334 292.2666666666667C303.5733333333333 349.8666666666667 209.28 352 151.04 294.4000000000001C92.8 236.5866666666667 92.8 143.36 151.04 85.3333333333334C209.28 27.7333333333334 303.5733333333333 27.7333333333334 361.8133333333334 85.3333333333334C390.8266666666667 114.1333333333333 405.3333333333333 147.6266666666667 405.3333333333333 189.8666666666667H448C448 147.6266666666667 429.2266666666667 92.8000000000001 391.68 55.68C316.8 -18.56 195.2 -18.56 120.32 55.68C45.6533333333333 129.7066666666667 45.0133333333333 250.0266666666667 119.8933333333333 324.0533333333334C194.7733333333333 398.08 314.88 398.08 389.76 324.0533333333334L448 384V232.1066666666667M266.6666666666667 277.3333333333334V186.6666666666667L341.3333333333333 142.2933333333334L325.9733333333333 116.48L234.6666666666667 170.6666666666667V277.3333333333334H266.6666666666667z" /></svg>