<?xml version="1.0" encoding="UTF-8"?><!DOCTYPE svg PUBLIC "-//W3C//DTD SVG 1.1//EN" "http://www.w3.org/Graphics/SVG/1.1/DTD/svg11.dtd"><svg xmlns="http://www.w3.org/2000/svg" xmlns:xlink="http://www.w3.org/1999/xlink" version="1.1" width="512" height="512" viewBox="0 0 512 512">    <path fill="#ffffff" transform="scale(1, -1) translate(0, -448)" glyph-name="dribbble" unicode="&#xF1E0;" horiz-adv-x="512" d=" M350.2933333333334 55.04C341.3333333333333 96 330.6666666666667 133.76 320 167.04C330.6666666666667 168.5333333333334 341.3333333333333 169.3866666666667 353.7066666666666 169.3866666666667H354.1333333333333C373.9733333333333 169.3866666666667 395.7333333333333 166.8266666666667 419.4133333333333 161.4933333333334C411.3066666666666 117.3333333333334 385.7066666666666 79.5733333333334 350.2933333333332 55.04M256 25.6C218.88 25.6 184.7466666666667 37.76 157.0133333333333 58.4533333333333C162.9866666666667 68.0533333333333 175.5733333333333 86.6133333333334 195.84 105.8133333333333C216.32 125.6533333333333 245.3333333333333 146.1333333333333 282.24 158.2933333333333C294.8266666666667 122.6666666666666 306.3466666666667 82.1333333333333 315.0933333333333 36.48C296.7466666666667 29.44 277.3333333333333 25.5999999999999 256 25.5999999999999M89.6 192V194.3466666666667C94.2933333333333 194.1333333333333 100.48 194.1333333333333 107.7333333333333 194.1333333333333H107.9466666666667C141.2266666666666 194.3466666666667 199.68 197.12 258.9866666666667 215.68C262.1866666666667 208.64 265.3866666666667 201.3866666666667 268.5866666666667 193.7066666666667C228.9066666666667 180.48 197.76 159.36 174.72 138.6666666666667C152.7466666666667 118.1866666666667 137.6 98.3466666666667 128.8533333333333 85.3333333333334C104.5333333333333 113.92 89.6 151.2533333333333 89.6 192M182.4 341.3333333333334C194.1333333333333 327.4666666666667 217.1733333333333 297.3866666666667 241.92 250.6666666666667C192 235.52 141.0133333333333 232.1066666666667 110.5066666666667 232.1066666666667H107.7333333333333C102.6133333333333 232.1066666666667 98.1333333333333 232.1066666666667 94.5066666666667 232.32C106.6666666666667 280.1066666666667 138.6666666666667 320 182.4 341.3333333333334M256 358.4C295.2533333333334 358.4 331.3066666666666 344.7466666666667 359.68 321.92C337.92 295.68 309.3333333333333 277.3333333333334 277.9733333333333 263.4666666666667C256 305.7066666666667 234.6666666666667 336 220.5866666666667 354.56C232.1066666666667 356.9066666666667 243.84 358.4 256 358.4M386.7733333333333 294.8266666666667C407.4666666666666 268.3733333333334 420.48 235.5200000000001 422.1866666666666 199.8933333333334C398.08 205.0133333333334 375.4666666666666 207.36 354.1333333333333 207.36H353.9199999999999C336.8533333333333 207.36 320.8533333333333 205.8666666666667 305.7066666666666 203.3066666666667C302.08 212.2666666666667 298.6666666666666 220.8000000000001 294.6133333333333 229.1200000000001C328.32 243.8400000000001 360.5333333333333 264.9600000000001 386.7733333333332 294.8266666666667M256 405.3333333333333C138.24 405.3333333333333 42.6666666666667 309.76 42.6666666666667 192S138.24 -21.3333333333333 256 -21.3333333333333S469.3333333333333 74.24 469.3333333333333 192S373.76 405.3333333333333 256 405.3333333333333z" /></svg>