<?xml version="1.0" encoding="UTF-8"?><!DOCTYPE svg PUBLIC "-//W3C//DTD SVG 1.1//EN" "http://www.w3.org/Graphics/SVG/1.1/DTD/svg11.dtd"><svg xmlns="http://www.w3.org/2000/svg" xmlns:xlink="http://www.w3.org/1999/xlink" version="1.1" width="512" height="512" viewBox="0 0 512 512">    <path fill="#ffffff" transform="scale(1, -1) translate(0, -448)" glyph-name="paypal" unicode="&#xF882;" horiz-adv-x="512" d=" M177.4933333333334 -20.6933333333333C175.1466666666667 -19.6266666666666 172.3733333333333 -16.2133333333333 171.9466666666667 -13.8666666666666C171.3066666666667 -10.6666666666666 170.6666666666667 -16.2133333333333 184.7466666666667 73.3866666666667C197.5466666666667 154.4533333333334 197.3333333333333 153.1733333333334 199.04 155.5200000000001C201.8133333333333 159.1466666666667 201.3866666666667 159.1466666666667 233.3866666666667 159.36C261.5466666666666 160 267.52 160 280.1066666666667 161.92C349.44 171.52 392.32 212.2666666666667 407.2533333333334 282.6666666666667C408.1066666666667 287.36 408.9599999999999 291.4133333333334 409.1733333333333 291.4133333333334C409.1733333333333 291.6266666666667 410.6666666666667 290.56 412.3733333333333 289.2800000000001C434.3466666666667 272.6400000000001 441.8133333333333 241.92 433.4933333333333 200.96C423.6799999999999 152.1066666666668 397.6533333333333 119.6800000000001 357.1199999999999 105.8133333333334C339.8399999999999 99.84 325.3333333333332 97.4933333333333 299.7333333333333 96.8533333333334C282.6666666666665 96 282.2399999999999 96 277.3333333333332 92.8C273.7066666666666 89.1733333333333 273.9199999999999 89.8133333333333 265.5999999999999 38.4C259.8399999999999 2.1333333333333 257.7066666666666 -9.6 256.8533333333332 -11.7333333333334C255.3599999999999 -15.1466666666668 252.3733333333332 -18.1333333333334 248.9599999999999 -19.84L246.6133333333333 -21.3333333333334H213.3333333333333C185.8133333333333 -21.3333333333334 178.7733333333333 -21.3333333333334 177.4933333333334 -20.6933333333334M81.4933333333333 26.88C77.44 29.0133333333333 74.6666666666667 32.64 74.6666666666667 36.9066666666666C74.6666666666667 42.6666666666667 130.3466666666667 390.8266666666667 131.84 394.6666666666667C133.76 398.5066666666667 138.6666666666667 402.56 142.5066666666667 404.0533333333334L145.7066666666667 405.3333333333333H221.0133333333333C304.4266666666666 405.3333333333333 301.2266666666667 405.3333333333333 320 401.0666666666667C375.8933333333333 389.3333333333333 401.4933333333334 352 391.8933333333333 295.8933333333333C381.2266666666667 233.3866666666667 349.6533333333333 196.2666666666667 295.8933333333333 182.8266666666667C277.3333333333334 178.3466666666667 264.32 177.0666666666667 228.9066666666667 177.0666666666667C200.96 177.0666666666667 198.8266666666667 176.8533333333334 193.28 173.8666666666667C187.7333333333334 170.6666666666667 183.2533333333333 164.9066666666667 181.3333333333333 157.8666666666667C180.48 156.3733333333333 175.5733333333333 126.5066666666667 170.0266666666667 91.7333333333334C164.48 56.96 160 27.9466666666667 160 27.3066666666667L159.36 26.0266666666668H121.3866666666667C87.68 26.0266666666668 82.9866666666667 26.0266666666668 81.4933333333333 26.8800000000001z" /></svg>