<?xml version="1.0" encoding="UTF-8"?><!DOCTYPE svg PUBLIC "-//W3C//DTD SVG 1.1//EN" "http://www.w3.org/Graphics/SVG/1.1/DTD/svg11.dtd"><svg xmlns="http://www.w3.org/2000/svg" xmlns:xlink="http://www.w3.org/1999/xlink" version="1.1" width="512" height="512" viewBox="0 0 512 512">    <path fill="#ffffff" transform="scale(1, -1) translate(0, -448)" glyph-name="outlook" unicode="&#xFCFE;" horiz-adv-x="512" d=" M469.3333333333333 277.3333333333334V106.6666666666667C469.3333333333333 93.8666666666667 460.8 85.3333333333334 448 85.3333333333334H298.6666666666667V0L42.6666666666667 38.4V345.6L298.6666666666667 384V298.6666666666667H448C460.8 298.6666666666667 469.3333333333333 290.1333333333334 469.3333333333333 277.3333333333334M448 275.2000000000001L362.6666666666667 226.1333333333334L298.6666666666667 262.4000000000001V228.2666666666667L362.6666666666667 192.0000000000001L448 241.0666666666667V275.2000000000001M168.96 274.9866666666667C124.16 276.48 102.1866666666667 237.0133333333334 102.1866666666667 190.0800000000001S125.0133333333333 105.3866666666667 168.96 104.96C208.8533333333333 104.7466666666667 234.6666666666667 141.0133333333334 234.6666666666667 187.9466666666667C234.6666666666667 234.6666666666667 216.1066666666667 273.2800000000001 168.96 274.9866666666668M162.3466666666667 241.0666666666667C180.2666666666667 241.0666666666667 196.2666666666667 225.2800000000001 196.2666666666667 193.0666666666667C196.2666666666667 160.6400000000001 180.2666666666667 142.72 162.3466666666667 142.72C144.64 142.72 130.1333333333334 166.4 130.1333333333334 193.0666666666667C130.1333333333334 219.5200000000001 144.64 241.0666666666667 162.3466666666667 241.0666666666667z" /></svg>