<?xml version="1.0" encoding="UTF-8"?><!DOCTYPE svg PUBLIC "-//W3C//DTD SVG 1.1//EN" "http://www.w3.org/Graphics/SVG/1.1/DTD/svg11.dtd"><svg xmlns="http://www.w3.org/2000/svg" xmlns:xlink="http://www.w3.org/1999/xlink" version="1.1" width="512" height="512" viewBox="0 0 512 512">    <path fill="#ffffff" transform="scale(1, -1) translate(0, -448)" glyph-name="brightness-percent" unicode="&#xFCCE;" horiz-adv-x="512" d=" M427.52 262.1866666666667V362.6666666666667H327.2533333333334L256 433.28L185.8133333333333 362.6666666666667H85.3333333333333V262.1866666666667L14.72 192L85.3333333333333 120.7466666666667V20.48H185.8133333333333L256 -50.1333333333333L327.2533333333334 20.48H427.52V120.7466666666666L498.1333333333333 192L427.5200000000001 262.1866666666667M188.3733333333333 297.6C209.28 297.6 226.1333333333334 280.7466666666667 226.1333333333334 259.6266666666667C226.1333333333334 238.72 209.28 221.8666666666667 188.3733333333333 221.8666666666667C167.2533333333333 221.8666666666667 150.4 238.7200000000001 150.4 259.6266666666667C150.4 280.7466666666667 167.2533333333333 297.6 188.3733333333333 297.6M324.6933333333334 85.3333333333334C303.7866666666667 85.3333333333334 286.9333333333334 102.4 286.9333333333334 123.3066666666667S303.7866666666667 161.0666666666667 324.6933333333334 161.0666666666667S362.6666666666667 144.2133333333333 362.6666666666667 123.3066666666667S345.6 85.3333333333334 324.6933333333334 85.3333333333334M181.3333333333333 84.6933333333333L149.3333333333333 116.6933333333334L331.3066666666666 298.6666666666667L363.3066666666667 266.6666666666667L181.3333333333334 84.6933333333333z" /></svg>