<?xml version="1.0" encoding="UTF-8"?><!DOCTYPE svg PUBLIC "-//W3C//DTD SVG 1.1//EN" "http://www.w3.org/Graphics/SVG/1.1/DTD/svg11.dtd"><svg xmlns="http://www.w3.org/2000/svg" xmlns:xlink="http://www.w3.org/1999/xlink" version="1.1" width="512" height="512" viewBox="0 0 512 512">    <path fill="#ffffff" transform="scale(1, -1) translate(0, -448)" glyph-name="high-definition-box" unicode="&#xF877;" horiz-adv-x="512" d=" M405.3333333333333 384H106.6666666666667C82.9866666666667 384 64 364.8 64 341.3333333333334V42.6666666666667C64 19.2 83.2 0 106.6666666666667 0H405.3333333333333C428.8 0 448 19.2 448 42.6666666666667V341.3333333333334C448 364.8 428.8 384 405.3333333333333 384M234.6666666666667 128H202.6666666666667V170.6666666666667H160V128H128V256H160V202.6666666666667H202.6666666666667V256H234.6666666666667V128M277.3333333333333 256H362.6666666666667C374.4 256 384 246.4000000000001 384 234.6666666666667V149.3333333333334C384 137.6 374.4 128 362.6666666666667 128H277.3333333333333V256M309.3333333333333 160H352V224H309.3333333333333V160z" /></svg>