<?xml version="1.0" encoding="UTF-8"?><!DOCTYPE svg PUBLIC "-//W3C//DTD SVG 1.1//EN" "http://www.w3.org/Graphics/SVG/1.1/DTD/svg11.dtd"><svg xmlns="http://www.w3.org/2000/svg" xmlns:xlink="http://www.w3.org/1999/xlink" version="1.1" width="512" height="512" viewBox="0 0 512 512">    <path fill="#ffffff" transform="scale(1, -1) translate(0, -448)" glyph-name="spray" unicode="&#xF665;" horiz-adv-x="512" d=" M213.3333333333333 362.6666666666667H256V320H213.3333333333333V362.6666666666667M149.3333333333333 384H192V341.3333333333334H149.3333333333333V384M149.3333333333333 320H192V277.3333333333334H149.3333333333333V320M128 277.3333333333334V234.6666666666667H85.3333333333333V277.3333333333334H128M128 341.3333333333334V298.6666666666667H85.3333333333333V341.3333333333334H128M128 405.3333333333333V362.6666666666667H85.3333333333333V405.3333333333333H128M277.3333333333333 -21.3333333333333C253.8666666666667 -21.3333333333333 234.6666666666667 -2.1333333333333 234.6666666666667 21.3333333333334V234.6666666666667C234.6666666666667 258.1333333333334 253.8666666666667 277.3333333333334 277.3333333333333 277.3333333333334V298.6666666666667H298.6666666666667V362.6666666666667H362.6666666666667V298.6666666666667H384V277.3333333333334C407.4666666666667 277.3333333333334 426.6666666666667 258.1333333333334 426.6666666666667 234.6666666666667V21.3333333333334C426.6666666666667 -2.1333333333333 407.4666666666667 -21.3333333333333 384 -21.3333333333333H277.3333333333333M277.3333333333333 234.6666666666667V21.3333333333334H384V234.6666666666667H277.3333333333333z" /></svg>