<?xml version="1.0" encoding="UTF-8"?><!DOCTYPE svg PUBLIC "-//W3C//DTD SVG 1.1//EN" "http://www.w3.org/Graphics/SVG/1.1/DTD/svg11.dtd"><svg xmlns="http://www.w3.org/2000/svg" xmlns:xlink="http://www.w3.org/1999/xlink" version="1.1" width="512" height="512" viewBox="0 0 512 512">    <path fill="#ffffff" transform="scale(1, -1) translate(0, -448)" glyph-name="gamepad-circle-left" unicode="&#xFE18;" horiz-adv-x="512" d=" M106.6666666666667 277.3333333333334C153.8133333333333 277.3333333333334 192 239.1466666666667 192 192S153.8133333333333 106.6666666666667 106.6666666666667 106.6666666666667S21.3333333333333 144.8533333333334 21.3333333333333 192S59.52 277.3333333333334 106.6666666666667 277.3333333333334M256 426.6666666666667C303.1466666666667 426.6666666666667 341.3333333333333 388.48 341.3333333333333 341.3333333333334S303.1466666666667 256 256 256S170.6666666666667 294.1866666666667 170.6666666666667 341.3333333333334S208.8533333333333 426.6666666666667 256 426.6666666666667M256 128C303.1466666666667 128 341.3333333333333 89.8133333333334 341.3333333333333 42.6666666666667S303.1466666666667 -42.6666666666666 256 -42.6666666666666S170.6666666666667 -4.48 170.6666666666667 42.6666666666667S208.8533333333333 128 256 128M405.3333333333333 277.3333333333334C452.48 277.3333333333334 490.6666666666666 239.1466666666667 490.6666666666666 192S452.48 106.6666666666667 405.3333333333333 106.6666666666667S320 144.8533333333334 320 192S358.1866666666666 277.3333333333334 405.3333333333333 277.3333333333334M405.3333333333333 234.6666666666667C381.8666666666666 234.6666666666667 362.6666666666667 215.4666666666667 362.6666666666667 192S381.8666666666666 149.3333333333334 405.3333333333333 149.3333333333334S448 168.5333333333334 448 192S428.8 234.6666666666667 405.3333333333333 234.6666666666667M256 85.3333333333334C232.5333333333334 85.3333333333334 213.3333333333333 66.1333333333334 213.3333333333333 42.6666666666667S232.5333333333334 0 256 0S298.6666666666667 19.2 298.6666666666667 42.6666666666667S279.4666666666667 85.3333333333334 256 85.3333333333334M256 384C232.5333333333334 384 213.3333333333333 364.8 213.3333333333333 341.3333333333334S232.5333333333334 298.6666666666667 256 298.6666666666667S298.6666666666667 317.8666666666667 298.6666666666667 341.3333333333334S279.4666666666667 384 256 384z" /></svg>