<?xml version="1.0" encoding="UTF-8"?><!DOCTYPE svg PUBLIC "-//W3C//DTD SVG 1.1//EN" "http://www.w3.org/Graphics/SVG/1.1/DTD/svg11.dtd"><svg xmlns="http://www.w3.org/2000/svg" xmlns:xlink="http://www.w3.org/1999/xlink" version="1.1" width="512" height="512" viewBox="0 0 512 512">    <path fill="#ffffff" transform="scale(1, -1) translate(0, -448)" glyph-name="eye-check" unicode="&#xFCE0;" horiz-adv-x="512" d=" M501.3333333333333 85.3333333333334L394.6666666666667 -21.3333333333333L320 53.3333333333334L352 85.3333333333334L394.6666666666667 42.6666666666667L469.3333333333333 117.3333333333334L501.3333333333333 85.3333333333334M256 256C291.4133333333333 256 320 227.4133333333334 320 192S291.4133333333333 128 256 128S192 156.5866666666667 192 192S220.5866666666667 256 256 256M256 85.3333333333334C266.6666666666667 85.3333333333334 276.6933333333334 86.8266666666667 286.2933333333333 89.8133333333334C280.5333333333333 74.6666666666667 277.3333333333333 59.3066666666667 277.3333333333333 42.6666666666667V33.0666666666667L256 32C149.3333333333333 32 58.24 98.3466666666667 21.3333333333333 192C58.24 285.6533333333333 149.3333333333333 352 256 352S453.76 285.6533333333334 490.6666666666666 192C485.3333333333333 178.3466666666667 478.72 165.12 471.04 152.5333333333334C451.84 164.0533333333334 429.2266666666666 170.6666666666667 405.3333333333333 170.6666666666667C388.6933333333333 170.6666666666667 373.3333333333333 167.4666666666667 358.1866666666666 161.7066666666667C361.1733333333333 171.3066666666667 362.6666666666667 181.3333333333334 362.6666666666667 192C362.6666666666667 250.88 314.88 298.6666666666667 256 298.6666666666667S149.3333333333333 250.88 149.3333333333333 192S197.12 85.3333333333334 256 85.3333333333334z" /></svg>