<?xml version="1.0" encoding="UTF-8"?><!DOCTYPE svg PUBLIC "-//W3C//DTD SVG 1.1//EN" "http://www.w3.org/Graphics/SVG/1.1/DTD/svg11.dtd"><svg xmlns="http://www.w3.org/2000/svg" xmlns:xlink="http://www.w3.org/1999/xlink" version="1.1" width="512" height="512" viewBox="0 0 512 512">    <path fill="#ffffff" transform="scale(1, -1) translate(0, -448)" glyph-name="contact-mail" unicode="&#xF18E;" horiz-adv-x="512" d=" M448 277.3333333333334V298.6666666666667L384 256L320 298.6666666666667V277.3333333333334L384 234.6666666666667M469.3333333333333 384H42.6666666666667C19.2 384 0 364.8 0 341.3333333333334V42.6666666666667C0 19.2 19.2 0 42.6666666666667 0H469.3333333333333C492.8 0 512 19.2 512 42.6666666666667V341.3333333333334C512 364.8 492.8 384 469.3333333333333 384M170.6666666666667 320C206.08 320 234.6666666666667 291.4133333333334 234.6666666666667 256S206.08 192 170.6666666666667 192S106.6666666666667 220.5866666666667 106.6666666666667 256S135.2533333333333 320 170.6666666666667 320M298.6666666666667 64H42.6666666666667V85.3333333333334C42.6666666666667 128 128 151.4666666666667 170.6666666666667 151.4666666666667S298.6666666666667 128 298.6666666666667 85.3333333333334M469.3333333333333 192H298.6666666666667V320H469.3333333333333" /></svg>