<?xml version="1.0" encoding="UTF-8"?><!DOCTYPE svg PUBLIC "-//W3C//DTD SVG 1.1//EN" "http://www.w3.org/Graphics/SVG/1.1/DTD/svg11.dtd"><svg xmlns="http://www.w3.org/2000/svg" xmlns:xlink="http://www.w3.org/1999/xlink" version="1.1" width="512" height="512" viewBox="0 0 512 512">    <path fill="#ffffff" transform="scale(1, -1) translate(0, -448)" glyph-name="sticker-emoji" unicode="&#xF784;" horiz-adv-x="512" d=" M117.3333333333333 405.3333333333333C75.9466666666667 405.3333333333333 42.6666666666667 372.0533333333334 42.6666666666667 330.6666666666667V53.3333333333334C42.6666666666667 11.9466666666667 75.9466666666667 -21.3333333333333 117.3333333333333 -21.3333333333333H341.3333333333333L469.3333333333333 106.6666666666667V330.6666666666667C469.3333333333333 372.0533333333334 436.0533333333334 405.3333333333333 394.6666666666667 405.3333333333333H117.3333333333333M122.6666666666667 362.6666666666667H389.3333333333333C410.0266666666667 362.6666666666667 426.6666666666667 346.0266666666667 426.6666666666667 325.3333333333334V128H394.6666666666667C353.28 128 320 94.72 320 53.3333333333334V21.3333333333334H122.6666666666667C101.9733333333333 21.3333333333334 85.3333333333333 37.9733333333334 85.3333333333333 58.6666666666667V325.3333333333334C85.3333333333333 346.0266666666667 101.9733333333333 362.6666666666667 122.6666666666667 362.6666666666667M308.0533333333333 303.5733333333334C304.64 303.5733333333334 301.2266666666667 303.1466666666667 298.0266666666667 302.2933333333334C277.9733333333333 296.7466666666667 266.6666666666667 276.2666666666667 271.7866666666667 256C272.8533333333333 252.8 274.3466666666666 249.6 276.2666666666667 246.6133333333334L345.1733333333333 265.3866666666667C345.1733333333333 269.0133333333334 344.7466666666667 272.6400000000001 343.8933333333333 276.2666666666667C339.4133333333333 292.2666666666667 324.6933333333334 303.5733333333334 308.0533333333334 303.5733333333334M174.2933333333333 266.6666666666667C170.6666666666667 266.6666666666667 167.4666666666667 266.6666666666667 164.2666666666667 265.6C144.4266666666667 260.0533333333334 132.6933333333333 239.5733333333333 138.0266666666667 219.7333333333333C138.6666666666667 216.32 140.5866666666667 213.3333333333333 142.5066666666667 209.92L211.4133333333333 228.6933333333334C211.4133333333333 232.32 210.9866666666667 235.9466666666667 210.1333333333333 239.36C205.6533333333333 256 190.9333333333333 266.6666666666667 174.2933333333333 266.6666666666667M356.6933333333333 207.7866666666667L161.92 154.24C190.08 121.6 234.6666666666667 107.9466666666667 276.2666666666667 119.2533333333333C317.8666666666666 130.7733333333333 349.0133333333333 165.3333333333334 356.6933333333333 207.7866666666667z" /></svg>