<?xml version="1.0" encoding="UTF-8"?><!DOCTYPE svg PUBLIC "-//W3C//DTD SVG 1.1//EN" "http://www.w3.org/Graphics/SVG/1.1/DTD/svg11.dtd"><svg xmlns="http://www.w3.org/2000/svg" xmlns:xlink="http://www.w3.org/1999/xlink" version="1.1" width="512" height="512" viewBox="0 0 512 512">    <path fill="#ffffff" transform="scale(1, -1) translate(0, -448)" glyph-name="nutrition" unicode="&#xF3C2;" horiz-adv-x="512" d=" M469.3333333333333 64C469.3333333333333 16.8533333333334 431.1466666666667 -21.3333333333333 384 -21.3333333333333H298.6666666666667C251.52 -21.3333333333333 213.3333333333333 16.8533333333334 213.3333333333333 64V106.6666666666667H469.3333333333333V64M85.3333333333333 384H298.6666666666667C322.1333333333334 384 341.3333333333333 364.8 341.3333333333333 341.3333333333334V149.3333333333334H170.6666666666667V42.6666666666667H85.3333333333333C61.8666666666667 42.6666666666667 42.6666666666667 61.8666666666667 42.6666666666667 85.3333333333334V341.3333333333334C42.6666666666667 364.8 61.8666666666667 384 85.3333333333333 384M85.3333333333333 320V277.3333333333334H128V320H85.3333333333333M298.6666666666667 277.3333333333334V320H170.6666666666667V277.3333333333334H298.6666666666667M85.3333333333333 234.6666666666667V192H128V234.6666666666667H85.3333333333333M170.6666666666667 234.6666666666667V192H298.6666666666667V234.6666666666667H170.6666666666667M85.3333333333333 149.3333333333334V106.6666666666667H128V149.3333333333334H85.3333333333333z" /></svg>