<?xml version="1.0" encoding="UTF-8"?><!DOCTYPE svg PUBLIC "-//W3C//DTD SVG 1.1//EN" "http://www.w3.org/Graphics/SVG/1.1/DTD/svg11.dtd"><svg xmlns="http://www.w3.org/2000/svg" xmlns:xlink="http://www.w3.org/1999/xlink" version="1.1" width="512" height="512" viewBox="0 0 512 512">    <path fill="#ffffff" transform="scale(1, -1) translate(0, -448)" glyph-name="camera-wireless-outline" unicode="&#xFD93;" horiz-adv-x="512" d=" M426.6666666666667 256V21.3333333333334H85.3333333333333V277.3333333333334H171.7333333333334L210.7733333333334 320H320V362.6666666666667H192L152.96 320H85.3333333333333C61.8666666666667 320 42.6666666666667 300.8 42.6666666666667 277.3333333333334V21.3333333333334C42.6666666666667 -2.1333333333333 61.8666666666667 -21.3333333333333 85.3333333333333 -21.3333333333333H426.6666666666667C450.1333333333334 -21.3333333333333 469.3333333333333 -2.1333333333333 469.3333333333333 21.3333333333334V256H426.6666666666667M440.9600000000001 277.3333333333334H469.3333333333333C469.3333333333333 348.1600000000001 411.9466666666666 405.3333333333333 341.3333333333333 405.3333333333333V376.9600000000001C396.3733333333333 376.9600000000001 440.7466666666667 332.5866666666667 440.9600000000001 277.3333333333334M384 277.3333333333334H412.3733333333333C412.1599999999999 316.8 380.5866666666667 348.3733333333334 341.3333333333333 348.3733333333334V320C365.0133333333333 320 384 301.0133333333333 384 277.3333333333334M149.3333333333333 149.3333333333334C149.3333333333333 90.4533333333334 197.12 42.6666666666667 256 42.6666666666667S362.6666666666667 90.4533333333334 362.6666666666667 149.3333333333334S314.88 256 256 256S149.3333333333333 208.2133333333334 149.3333333333333 149.3333333333334M320 149.3333333333334C320 113.92 291.4133333333333 85.3333333333334 256 85.3333333333334S192 113.92 192 149.3333333333334S220.5866666666667 213.3333333333334 256 213.3333333333334S320 184.7466666666667 320 149.3333333333334z" /></svg>