<?xml version="1.0" encoding="UTF-8"?><!DOCTYPE svg PUBLIC "-//W3C//DTD SVG 1.1//EN" "http://www.w3.org/Graphics/SVG/1.1/DTD/svg11.dtd"><svg xmlns="http://www.w3.org/2000/svg" xmlns:xlink="http://www.w3.org/1999/xlink" version="1.1" width="512" height="512" viewBox="0 0 512 512">    <path fill="#ffffff" transform="scale(1, -1) translate(0, -448)" glyph-name="audio-video" unicode="&#xF93C;" horiz-adv-x="512" d=" M426.6666666666667 298.6666666666667H85.3333333333333C61.8666666666667 298.6666666666667 42.6666666666667 279.4666666666667 42.6666666666667 256V128C42.6666666666667 104.5333333333333 61.8666666666667 85.3333333333334 85.3333333333333 85.3333333333334H106.6666666666667V64C106.6666666666667 51.2 115.2 42.6666666666667 128 42.6666666666667H170.6666666666667C183.4666666666667 42.6666666666667 192 51.2 192 64V85.3333333333334H320V64C320 51.2 328.5333333333333 42.6666666666667 341.3333333333333 42.6666666666667H384C396.8 42.6666666666667 405.3333333333333 51.2 405.3333333333333 64V85.3333333333334H426.6666666666667C450.1333333333334 85.3333333333334 469.3333333333333 104.5333333333333 469.3333333333333 128V256C469.3333333333333 279.4666666666667 450.1333333333334 298.6666666666667 426.6666666666667 298.6666666666667M298.6666666666667 192H85.3333333333333V234.6666666666667H298.6666666666667V192M384 170.6666666666667C360.5333333333333 170.6666666666667 341.3333333333333 189.8666666666667 341.3333333333333 213.3333333333334S360.5333333333333 256 384 256S426.6666666666667 236.8 426.6666666666667 213.3333333333334S407.4666666666667 170.6666666666667 384 170.6666666666667M128 128H85.3333333333333V149.3333333333334H128V128M213.3333333333333 128H170.6666666666667V149.3333333333334H213.3333333333333V128M298.6666666666667 128H256V149.3333333333334H298.6666666666667V128z" /></svg>