<?xml version="1.0" encoding="UTF-8"?><!DOCTYPE svg PUBLIC "-//W3C//DTD SVG 1.1//EN" "http://www.w3.org/Graphics/SVG/1.1/DTD/svg11.dtd"><svg xmlns="http://www.w3.org/2000/svg" xmlns:xlink="http://www.w3.org/1999/xlink" version="1.1" width="512" height="512" viewBox="0 0 512 512">    <path fill="#ffffff" transform="scale(1, -1) translate(0, -448)" glyph-name="comment-question-outline" unicode="&#xF186;" horiz-adv-x="512" d=" M85.3333333333333 405.3333333333333C61.8666666666667 405.3333333333333 42.6666666666667 386.1333333333334 42.6666666666667 362.6666666666667V106.6666666666667C42.6666666666667 83.2 61.8666666666667 64 85.3333333333333 64H170.6666666666667V0C170.6666666666667 -11.7333333333333 180.2666666666667 -21.3333333333333 192 -21.3333333333333H202.6666666666667C208 -21.3333333333333 213.3333333333333 -19.1999999999999 217.6 -15.1466666666666L296.5333333333333 64H426.6666666666667C450.1333333333334 64 469.3333333333333 83.2 469.3333333333333 106.6666666666667V362.6666666666667C469.3333333333333 386.3466666666667 450.1333333333334 405.3333333333333 426.6666666666667 405.3333333333333H85.3333333333333M85.3333333333333 362.6666666666667H426.6666666666667V106.6666666666667H279.04L213.3333333333333 40.96V106.6666666666667H85.3333333333333V362.6666666666667M260.0533333333333 330.6666666666667C241.0666666666667 330.6666666666667 225.92 326.8266666666667 214.4 319.1466666666667C202.6666666666666 311.4666666666667 196.6933333333333 298.6666666666667 197.76 283.9466666666667H239.7866666666667C239.7866666666667 289.92 241.92 294.4000000000001 245.3333333333333 297.3866666666667C249.6 300.3733333333334 254.2933333333333 301.8666666666667 260.0533333333333 301.8666666666667C266.6666666666667 301.8666666666667 272.4266666666666 300.1600000000001 276.2666666666667 296.3200000000001C280.1066666666667 292.6933333333334 282.0266666666667 288 282.0266666666667 281.6C282.0266666666667 275.6266666666667 280.32 270.2933333333334 277.3333333333333 265.8133333333334C273.7066666666666 261.12 269.2266666666666 257.2800000000001 263.68 254.2933333333334C252.5866666666666 247.4666666666667 245.3333333333333 241.4933333333334 240.8533333333333 236.3733333333334C236.8 231.2533333333334 234.6666666666667 224.0000000000001 234.6666666666667 213.3333333333334H277.3333333333333C277.3333333333333 219.3066666666667 278.4 224.0000000000001 280.32 227.8400000000001C282.24 231.4666666666667 285.8666666666666 234.6666666666667 291.4133333333333 237.8666666666668C301.2266666666667 242.3466666666668 309.3333333333333 248.3200000000001 315.52 256.0000000000001C321.7066666666666 263.8933333333334 324.9066666666667 272.2133333333334 324.9066666666667 281.6C324.9066666666667 296.5333333333334 319.1466666666667 308.48 307.6266666666666 317.4400000000001C296.1066666666667 326.1866666666667 280.1066666666667 330.6666666666668 260.0533333333333 330.6666666666668M234.6666666666667 192V149.3333333333334H277.3333333333333V192H234.6666666666667z" /></svg>