<?xml version="1.0" encoding="UTF-8"?><!DOCTYPE svg PUBLIC "-//W3C//DTD SVG 1.1//EN" "http://www.w3.org/Graphics/SVG/1.1/DTD/svg11.dtd"><svg xmlns="http://www.w3.org/2000/svg" xmlns:xlink="http://www.w3.org/1999/xlink" version="1.1" width="512" height="512" viewBox="0 0 512 512">    <path fill="#ffffff" transform="scale(1, -1) translate(0, -448)" glyph-name="bug" unicode="&#xF0E4;" horiz-adv-x="512" d=" M298.6666666666667 192H213.3333333333333V234.6666666666667H298.6666666666667M298.6666666666667 106.6666666666667H213.3333333333333V149.3333333333334H298.6666666666667M426.6666666666667 277.3333333333334H366.7200000000001C357.12 293.9733333333334 343.8933333333333 308.2666666666667 327.8933333333333 319.1466666666667L362.6666666666667 353.92L332.5866666666667 384L286.2933333333333 337.7066666666667C276.48 340.0533333333334 266.6666666666667 341.3333333333334 256 341.3333333333334C245.3333333333333 341.3333333333334 235.52 340.0533333333334 225.92 337.7066666666667L179.4133333333333 384L149.3333333333333 353.92L183.8933333333334 319.1466666666667C168.1066666666667 308.2666666666667 154.88 293.9733333333334 145.28 277.3333333333334H85.3333333333333V234.6666666666667H129.92C128.8533333333333 227.6266666666667 128 220.5866666666667 128 213.3333333333334V192H85.3333333333333V149.3333333333334H128V128C128 120.7466666666667 128.8533333333333 113.7066666666667 129.92 106.6666666666667H85.3333333333333V64H145.28C167.4666666666667 25.8133333333334 208.64 0 256 0S344.5333333333333 25.8133333333334 366.7200000000001 64H426.6666666666667V106.6666666666667H382.08C383.1466666666667 113.7066666666667 384 120.7466666666667 384 128V149.3333333333334H426.6666666666667V192H384V213.3333333333334C384 220.5866666666667 383.1466666666667 227.6266666666667 382.08 234.6666666666667H426.6666666666667V277.3333333333334z" /></svg>