<?xml version="1.0" encoding="UTF-8"?><!DOCTYPE svg PUBLIC "-//W3C//DTD SVG 1.1//EN" "http://www.w3.org/Graphics/SVG/1.1/DTD/svg11.dtd"><svg xmlns="http://www.w3.org/2000/svg" xmlns:xlink="http://www.w3.org/1999/xlink" version="1.1" width="512" height="512" viewBox="0 0 512 512">    <path fill="#ffffff" transform="scale(1, -1) translate(0, -448)" glyph-name="quora" unicode="&#xFD05;" horiz-adv-x="512" d=" M420.2666666666667 46.9333333333333C430.9333333333333 59.7333333333334 428.8 70.4 428.8 70.4H460.8S460.8 61.8666666666667 458.6666666666666 51.2C456.5333333333332 42.6666666666667 454.3999999999999 36.2666666666668 452.2666666666665 29.8666666666667C447.9999999999999 14.9333333333334 426.6666666666666 -2.1333333333333 426.6666666666666 -2.1333333333333C403.1999999999999 -21.3333333333333 377.5999999999999 -19.1999999999999 377.5999999999999 -19.1999999999999S347.7333333333333 -23.4666666666666 324.2666666666666 -8.5333333333333S281.5999999999999 38.4 281.5999999999999 38.4S187.7333333333332 12.8000000000001 115.1999999999999 74.6666666666667C42.6666666666666 136.5333333333334 46.9333333333332 211.2 46.9333333333332 217.6C46.9333333333332 232.5333333333333 55.4666666666666 398.9333333333334 230.3999999999999 405.3333333333333C332.7999999999999 409.6 388.2666666666666 345.6 409.5999999999999 294.4C424.5333333333332 258.1333333333334 424.5333333333332 230.4000000000001 424.5333333333332 226.1333333333334C424.5333333333332 221.8666666666667 424.5333333333332 202.6666666666667 420.2666666666666 183.4666666666667C418.1333333333332 164.2666666666667 409.5999999999999 142.9333333333333 403.1999999999999 132.2666666666667C396.7999999999999 121.6 388.2666666666666 106.6666666666667 377.5999999999999 96C366.9333333333332 83.2 354.1333333333332 72.5333333333333 351.9999999999999 70.4C351.9999999999999 70.4 373.3333333333333 44.8000000000001 386.1333333333333 40.5333333333334C390.3999999999999 40.5333333333334 409.6 34.1333333333334 420.2666666666667 46.9333333333334M270.9333333333333 78.9333333333334C273.0666666666666 81.0666666666668 264.5333333333333 91.7333333333335 260.2666666666667 98.1333333333334C256 104.5333333333334 262.4 96 245.3333333333333 119.4666666666667C238.9333333333333 130.1333333333334 230.4 134.4 217.6 136.5333333333334H202.6666666666667C192 136.5333333333334 185.6 134.4000000000001 183.4666666666667 134.4000000000001C183.4666666666667 136.5333333333334 179.2 140.8000000000001 177.0666666666666 145.0666666666667C174.9333333333333 149.3333333333334 174.9333333333333 155.7333333333334 174.9333333333333 155.7333333333334C174.9333333333333 160.0000000000001 206.9333333333333 174.9333333333334 243.2 174.9333333333334C273.0666666666666 174.9333333333334 294.4 157.8666666666667 302.9333333333333 149.3333333333334C311.4666666666667 142.9333333333334 313.6 134.4000000000001 322.1333333333334 128.0000000000001C322.1333333333334 128.0000000000001 324.2666666666667 128.0000000000001 324.2666666666667 125.8666666666668C332.8 119.4666666666668 343.4666666666666 189.8666666666668 341.3333333333333 236.8000000000002C339.2 283.7333333333335 337.0666666666667 307.2000000000001 320 330.6666666666668C305.0666666666667 352.0000000000001 273.0666666666667 369.0666666666668 243.2 369.0666666666668C228.2666666666667 369.0666666666668 179.2 366.9333333333335 157.8666666666667 330.6666666666668C132.2666666666667 288.0000000000001 136.5333333333333 211.2000000000001 136.5333333333333 211.2000000000001S130.1333333333333 142.9333333333335 166.4 106.6666666666668C202.6666666666667 70.4000000000001 238.9333333333334 76.8000000000001 256 76.8000000000001L270.9333333333333 78.9333333333335z" /></svg>