<?xml version="1.0" encoding="UTF-8"?><!DOCTYPE svg PUBLIC "-//W3C//DTD SVG 1.1//EN" "http://www.w3.org/Graphics/SVG/1.1/DTD/svg11.dtd"><svg xmlns="http://www.w3.org/2000/svg" xmlns:xlink="http://www.w3.org/1999/xlink" version="1.1" width="512" height="512" viewBox="0 0 512 512">    <path fill="#ffffff" transform="scale(1, -1) translate(0, -448)" glyph-name="jabber" unicode="&#xFDB1;" horiz-adv-x="512" d=" M111.5733333333333 325.9733333333334C98.3466666666667 329.6 106.6666666666667 379.9466666666667 106.6666666666667 380.3733333333334C106.6666666666667 379.9466666666667 268.3733333333334 463.1466666666666 356.2666666666667 325.76C443.7333333333333 188.8 338.3466666666667 130.9866666666667 298.0266666666667 105.3866666666667C257.7066666666666 79.5733333333333 271.5733333333333 27.3066666666666 271.5733333333333 18.5599999999999C271.5733333333333 10.0266666666666 259.4133333333333 0.64 256 12.5866666666666C253.44 24.7466666666666 240 94.9333333333333 284.3733333333333 124.5866666666666C365.44 178.9866666666666 381.8666666666666 232.5333333333333 341.3333333333333 311.04C302.9333333333333 384 176.64 375.2533333333334 149.9733333333333 360.9600000000001C123.3066666666667 346.6666666666667 125.0133333333333 322.3466666666667 111.5733333333333 325.9733333333334M199.04 178.5600000000001L194.3466666666666 188.5866666666667C196.9066666666667 228.6933333333334 162.7733333333333 226.3466666666667 172.3733333333333 163.6266666666667C175.1466666666667 145.9200000000001 159.36 153.6 158.9333333333333 155.0933333333334C146.9866666666667 203.9466666666667 158.2933333333333 229.9733333333334 182.4 225.0666666666667C205.2266666666667 220.16 203.3066666666667 195.6266666666667 203.3066666666667 195.6266666666667C203.9466666666667 196.6933333333334 234.6666666666667 231.0400000000001 245.3333333333334 215.0400000000001C268.3733333333334 181.3333333333334 224.64 139.3066666666667 222.0800000000001 135.8933333333334C219.3066666666667 132.6933333333334 216.3200000000001 126.9333333333334 211.6266666666667 131.4133333333334C206.9333333333333 135.68 207.3600000000001 138.6666666666667 210.9866666666667 143.5733333333334C272.4266666666668 234.6666666666667 204.5866666666667 187.3066666666667 199.04 178.5600000000001M138.6666666666667 120.96V121.3866666666667S170.6666666666667 61.2266666666667 226.3466666666667 83.6266666666667C234.6666666666668 87.0400000000001 238.2933333333334 82.3466666666668 238.9333333333334 79.5733333333334C240.4266666666668 74.0266666666666 237.4400000000001 71.68 231.6800000000001 69.76C167.6800000000001 48.64 125.6533333333334 93.2266666666667 120.1066666666667 103.8933333333334C114.9866666666667 113.4933333333334 117.3333333333334 119.8933333333334 122.6666666666667 123.3066666666667C128.0000000000001 126.72 138.6666666666667 120.96 138.6666666666667 120.96M128 74.6666666666667S163.6266666666667 32 230.4 42.6666666666667C236.5866666666667 43.9466666666667 238.9333333333334 39.8933333333334 240 34.5600000000001C241.0666666666667 29.2266666666667 239.36 24.7466666666667 232.96 22.6133333333334C226.7733333333334 20.6933333333334 151.04 10.6666666666667 109.44 69.9733333333334C106.6666666666667 73.3866666666667 113.0666666666667 77.6533333333334 116.6933333333333 77.6533333333334S128.64 74.6666666666667 128 74.6666666666667M126.9333333333333 34.3466666666667C160.64 -10.6666666666666 220.3733333333333 -11.7333333333333 240.64 2.5600000000001C245.3333333333334 5.76 249.6 -1.0666666666667 246.6133333333334 -4.0533333333333C205.6533333333333 -46.0799999999999 120.96 1e-13 112.4266666666667 14.2933333333334C108.5866666666667 20.2666666666668 109.44 28.5866666666668 113.28 33.0666666666667C117.3333333333334 37.3333333333334 126.5066666666667 34.5600000000001 126.9333333333333 34.3466666666667z" /></svg>