<?xml version="1.0" encoding="UTF-8"?><!DOCTYPE svg PUBLIC "-//W3C//DTD SVG 1.1//EN" "http://www.w3.org/Graphics/SVG/1.1/DTD/svg11.dtd"><svg xmlns="http://www.w3.org/2000/svg" xmlns:xlink="http://www.w3.org/1999/xlink" version="1.1" width="512" height="512" viewBox="0 0 512 512">    <path fill="#ffffff" transform="scale(1, -1) translate(0, -448)" glyph-name="radar" unicode="&#xF437;" horiz-adv-x="512" d=" M406.8266666666667 342.8266666666667L376.7466666666667 312.7466666666667C407.4666666666667 281.8133333333334 426.6666666666667 239.1466666666667 426.6666666666667 192C426.6666666666667 97.7066666666667 350.2933333333334 21.3333333333334 256 21.3333333333334S85.3333333333333 97.7066666666667 85.3333333333333 192C85.3333333333333 279.04 150.4 350.7200000000001 234.6666666666667 361.1733333333334V318.0800000000001C174.08 307.8400000000001 128 255.36 128 192C128 121.3866666666667 185.3866666666667 64 256 64S384 121.3866666666667 384 192C384 227.4133333333334 369.7066666666666 259.4133333333334 346.4533333333333 282.4533333333334L316.3733333333333 252.3733333333334C331.7333333333334 236.8 341.3333333333333 215.4666666666667 341.3333333333333 192C341.3333333333333 144.8533333333334 303.1466666666667 106.6666666666667 256 106.6666666666667S170.6666666666667 144.8533333333334 170.6666666666667 192C170.6666666666667 231.68 197.9733333333333 264.7466666666667 234.6666666666667 274.3466666666667V228.6933333333334C221.8666666666667 221.2266666666667 213.3333333333333 207.7866666666666 213.3333333333333 192C213.3333333333333 168.5333333333333 232.5333333333334 149.3333333333333 256 149.3333333333333S298.6666666666667 168.5333333333333 298.6666666666667 192C298.6666666666667 207.7866666666666 290.1333333333334 221.44 277.3333333333333 228.6933333333334V405.3333333333333H256C138.24 405.3333333333333 42.6666666666667 309.76 42.6666666666667 192S138.24 -21.3333333333333 256 -21.3333333333333S469.3333333333333 74.24 469.3333333333333 192C469.3333333333333 250.88 445.44 304.2133333333334 406.8266666666667 342.8266666666667z" /></svg>