<?xml version="1.0" encoding="UTF-8"?><!DOCTYPE svg PUBLIC "-//W3C//DTD SVG 1.1//EN" "http://www.w3.org/Graphics/SVG/1.1/DTD/svg11.dtd"><svg xmlns="http://www.w3.org/2000/svg" xmlns:xlink="http://www.w3.org/1999/xlink" version="1.1" width="512" height="512" viewBox="0 0 512 512">    <path fill="#ffffff" transform="scale(1, -1) translate(0, -448)" glyph-name="page-next-outline" unicode="&#xFB8D;" horiz-adv-x="512" d=" M469.3333333333333 384H106.6666666666667C83.2 384 64 364.8 64 341.3333333333334V256H106.6666666666667V341.3333333333334H469.3333333333333V42.6666666666667H106.6666666666667V128H64V42.6666666666667C64 19.2 83.2 0 106.6666666666667 0H469.3333333333333C492.8 0 512 19.2 512 42.6666666666667V341.3333333333334C512 364.8 492.8 384 469.3333333333333 384M149.3333333333333 128V170.6666666666667H0V213.3333333333334H149.3333333333333V256L234.6666666666667 192L149.3333333333333 128M426.6666666666667 170.6666666666667H277.3333333333333V213.3333333333334H426.6666666666667V170.6666666666667M426.6666666666667 256H277.3333333333333V298.6666666666667H426.6666666666667V256M362.6666666666667 85.3333333333334H277.3333333333333V128H362.6666666666667V85.3333333333334z" /></svg>