<?xml version="1.0" encoding="UTF-8"?><!DOCTYPE svg PUBLIC "-//W3C//DTD SVG 1.1//EN" "http://www.w3.org/Graphics/SVG/1.1/DTD/svg11.dtd"><svg xmlns="http://www.w3.org/2000/svg" xmlns:xlink="http://www.w3.org/1999/xlink" version="1.1" width="512" height="512" viewBox="0 0 512 512">    <path fill="#ffffff" transform="scale(1, -1) translate(0, -448)" glyph-name="book-remove" unicode="&#xFA96;" horiz-adv-x="512" d=" M384 -21.3333333333333H128C104.5333333333333 -21.3333333333333 85.3333333333333 -2.1333333333333 85.3333333333333 21.3333333333334V362.6666666666667C85.3333333333333 386.3466666666667 104.5333333333333 405.3333333333333 128 405.3333333333333H149.3333333333333V256L202.6666666666667 288L256 256V405.3333333333333H384C407.4666666666667 405.3333333333333 426.6666666666667 386.1333333333334 426.6666666666667 362.6666666666667V21.3333333333334C426.6666666666667 -2.1333333333333 407.4666666666667 -21.3333333333333 384 -21.3333333333333M350.08 24.96L380.3733333333333 55.2533333333334L350.08 85.3333333333334L380.3733333333333 115.4133333333334L350.08 145.7066666666667L320 115.4133333333334L289.92 145.7066666666667L259.6266666666667 115.4133333333334L289.92 85.3333333333334L259.6266666666667 55.2533333333333L289.92 24.96L320 55.2533333333333L350.08 24.96z" /></svg>