<?xml version="1.0" encoding="UTF-8"?><!DOCTYPE svg PUBLIC "-//W3C//DTD SVG 1.1//EN" "http://www.w3.org/Graphics/SVG/1.1/DTD/svg11.dtd"><svg xmlns="http://www.w3.org/2000/svg" xmlns:xlink="http://www.w3.org/1999/xlink" version="1.1" width="512" height="512" viewBox="0 0 512 512">    <path fill="#ffffff" transform="scale(1, -1) translate(0, -448)" glyph-name="truck-fast" unicode="&#xF787;" horiz-adv-x="512" d=" M64 160L48 192H160L147.2 224H42.6666666666667L26.6666666666667 256H193.0666666666667L180.2666666666667 288H23.68L5.3333333333333 320H85.3333333333333C85.3333333333333 343.4666666666667 104.5333333333333 362.6666666666667 128 362.6666666666667H384V277.3333333333334H448L512 192V85.3333333333334H469.3333333333333C469.3333333333333 49.92 440.7466666666667 21.3333333333334 405.3333333333333 21.3333333333334S341.3333333333333 49.92 341.3333333333333 85.3333333333334H256C256 49.92 227.4133333333334 21.3333333333334 192 21.3333333333334S128 49.92 128 85.3333333333334H85.3333333333333V160H64M405.3333333333333 53.3333333333334C423.04 53.3333333333334 437.3333333333333 67.6266666666667 437.3333333333333 85.3333333333334S423.04 117.3333333333334 405.3333333333333 117.3333333333334S373.3333333333333 103.04 373.3333333333333 85.3333333333334S387.6266666666667 53.3333333333334 405.3333333333333 53.3333333333334M437.3333333333333 245.3333333333334H384V192H479.1466666666666L437.3333333333333 245.3333333333334M192 53.3333333333334C209.7066666666667 53.3333333333334 224 67.6266666666667 224 85.3333333333334S209.7066666666667 117.3333333333334 192 117.3333333333334S160 103.04 160 85.3333333333334S174.2933333333333 53.3333333333334 192 53.3333333333334z" /></svg>