<?xml version="1.0" encoding="UTF-8"?><!DOCTYPE svg PUBLIC "-//W3C//DTD SVG 1.1//EN" "http://www.w3.org/Graphics/SVG/1.1/DTD/svg11.dtd"><svg xmlns="http://www.w3.org/2000/svg" xmlns:xlink="http://www.w3.org/1999/xlink" version="1.1" width="512" height="512" viewBox="0 0 512 512">    <path fill="#ffffff" transform="scale(1, -1) translate(0, -448)" glyph-name="cellphone-link-off" unicode="&#xF122;" horiz-adv-x="512" d=" M490.6666666666666 277.3333333333334H362.6666666666667C350.9333333333333 277.3333333333334 341.3333333333333 267.7333333333334 341.3333333333333 256V166.8266666666667L384 124.16V234.6666666666667H469.3333333333333V85.3333333333334H422.8266666666667L486.8266666666667 21.3333333333334H490.6666666666666C502.4 21.3333333333334 512 30.9333333333333 512 42.6666666666667V256C512 267.7333333333334 502.4 277.3333333333334 490.6666666666666 277.3333333333334M85.3333333333333 314.24L314.24 85.3333333333334H85.3333333333333V314.24M40.96 412.8L13.8666666666667 385.7066666666667L52.6933333333333 346.88C46.5066666666667 339.6266666666667 42.6666666666667 330.6666666666667 42.6666666666667 320V85.3333333333334H0V21.3333333333334H378.24L428.3733333333334 -28.8L455.4666666666667 -1.7066666666667L82.9866666666667 370.7733333333333L40.96 412.8M469.3333333333333 320V362.6666666666667H145.4933333333334L188.16 320H469.3333333333333z" /></svg>