<?xml version="1.0" encoding="UTF-8"?><!DOCTYPE svg PUBLIC "-//W3C//DTD SVG 1.1//EN" "http://www.w3.org/Graphics/SVG/1.1/DTD/svg11.dtd"><svg xmlns="http://www.w3.org/2000/svg" xmlns:xlink="http://www.w3.org/1999/xlink" version="1.1" width="512" height="512" viewBox="0 0 512 512">    <path fill="#ffffff" transform="scale(1, -1) translate(0, -448)" glyph-name="square-inc-cash" unicode="&#xF4CB;" horiz-adv-x="512" d=" M117.3333333333333 448H394.6666666666667C459.52 448 512 395.52 512 330.6666666666667V53.3333333333334C512 -11.52 459.52 -64 394.6666666666667 -64H117.3333333333333C52.48 -64 0 -11.52 0 53.3333333333334V330.6666666666667C0 395.52 52.48 448 117.3333333333333 448M328.32 124.16C328.32 90.4533333333334 309.3333333333333 68.0533333333334 274.1333333333334 65.0666666666667V178.9866666666667C310.4 167.8933333333334 328.32 156.5866666666667 328.32 124.16M248.5333333333334 320V215.8933333333334C220.5866666666667 224.0000000000001 192.64 236.1600000000001 192.64 268.1600000000001C192.64 299.9466666666667 217.1733333333334 317.4400000000001 248.5333333333334 320M330.6666666666667 285.8666666666667L352 302.9333333333334C333.2266666666667 327.2533333333334 307.2 343.04 274.1333333333334 346.24V366.9333333333334H248.5333333333334V346.6666666666667C202.6666666666667 343.68 163.84 316.3733333333334 163.84 266.6666666666667C163.84 213.3333333333334 207.7866666666667 196.6933333333334 248.5333333333334 185.8133333333334V64.8533333333334C224.8533333333334 67.4133333333334 198.1866666666667 78.72 179.84 106.0266666666666L155.7333333333333 90.0266666666666C174.9333333333333 61.44 208.2133333333333 42.6666666666667 248.5333333333333 39.68V17.0666666666667H274.1333333333333V39.2533333333333C327.4666666666666 42.6666666666667 356.2666666666667 78.08 356.2666666666667 125.0133333333333C356.2666666666667 179.6266666666667 315.9466666666666 197.12 274.1333333333334 209.28V318.9333333333334C298.6666666666667 315.3066666666667 316.8 303.7866666666667 330.6666666666667 285.8666666666667z" /></svg>