<?xml version="1.0" encoding="UTF-8"?><!DOCTYPE svg PUBLIC "-//W3C//DTD SVG 1.1//EN" "http://www.w3.org/Graphics/SVG/1.1/DTD/svg11.dtd"><svg xmlns="http://www.w3.org/2000/svg" xmlns:xlink="http://www.w3.org/1999/xlink" version="1.1" width="512" height="512" viewBox="0 0 512 512">    <path fill="#ffffff" transform="scale(1, -1) translate(0, -448)" glyph-name="linkedin-box" unicode="&#xF33C;" horiz-adv-x="512" d=" M405.3333333333333 384C428.8 384 448 364.8 448 341.3333333333334V42.6666666666667C448 19.2 428.8 0 405.3333333333333 0H106.6666666666667C83.2 0 64 19.2 64 42.6666666666667V341.3333333333334C64 364.8 83.2 384 106.6666666666667 384H405.3333333333333M394.6666666666667 53.3333333333334V166.4C394.6666666666667 204.8000000000001 363.52 235.9466666666667 325.12 235.9466666666667C306.9866666666667 235.9466666666667 285.8666666666667 224.8533333333334 275.6266666666667 208.2133333333334V231.8933333333333H216.1066666666666V53.3333333333334H275.6266666666666V158.5066666666667C275.6266666666666 174.9333333333333 288.8533333333333 188.3733333333333 305.28 188.3733333333333C321.7066666666666 188.3733333333333 335.1466666666667 174.9333333333333 335.1466666666667 158.5066666666667V53.3333333333334H394.6666666666667M146.7733333333333 265.3866666666667C166.6133333333333 265.3866666666667 182.6133333333334 281.3866666666667 182.6133333333334 301.2266666666667C182.6133333333334 321.0666666666667 166.6133333333334 337.28 146.7733333333334 337.28C126.9333333333334 337.28 110.72 321.0666666666667 110.72 301.2266666666667C110.72 281.3866666666667 126.9333333333334 265.3866666666667 146.7733333333334 265.3866666666667M176.4266666666667 53.3333333333334V231.8933333333333H117.3333333333333V53.3333333333334H176.4266666666667z" /></svg>