<?xml version="1.0" encoding="UTF-8"?><!DOCTYPE svg PUBLIC "-//W3C//DTD SVG 1.1//EN" "http://www.w3.org/Graphics/SVG/1.1/DTD/svg11.dtd"><svg xmlns="http://www.w3.org/2000/svg" xmlns:xlink="http://www.w3.org/1999/xlink" version="1.1" width="512" height="512" viewBox="0 0 512 512">    <path fill="#ffffff" transform="scale(1, -1) translate(0, -448)" glyph-name="bag-personal" unicode="&#xFDF3;" horiz-adv-x="512" d=" M341.3333333333333 341.3333333333334V362.6666666666667C341.3333333333333 386.1333333333334 322.1333333333334 405.3333333333333 298.6666666666667 405.3333333333333H213.3333333333333C189.8666666666667 405.3333333333333 170.6666666666667 386.1333333333334 170.6666666666667 362.6666666666667V341.3333333333334C123.52 341.3333333333334 85.3333333333333 303.1466666666667 85.3333333333333 256V21.3333333333334C85.3333333333333 -2.1333333333333 104.5333333333333 -21.3333333333333 128 -21.3333333333333H384C407.4666666666667 -21.3333333333333 426.6666666666667 -2.1333333333333 426.6666666666667 21.3333333333334V256C426.6666666666667 303.1466666666667 388.48 341.3333333333334 341.3333333333333 341.3333333333334M213.3333333333333 362.6666666666667H298.6666666666667V341.3333333333334H213.3333333333333V362.6666666666667M256 256L298.6666666666667 213.3333333333334L256 170.6666666666667L213.3333333333333 213.3333333333334L256 256M384 106.6666666666667H192V64H170.6666666666667V106.6666666666667H128V128H384V106.6666666666667z" /></svg>