<?xml version="1.0" encoding="UTF-8"?><!DOCTYPE svg PUBLIC "-//W3C//DTD SVG 1.1//EN" "http://www.w3.org/Graphics/SVG/1.1/DTD/svg11.dtd"><svg xmlns="http://www.w3.org/2000/svg" xmlns:xlink="http://www.w3.org/1999/xlink" version="1.1" width="512" height="512" viewBox="0 0 512 512">    <path fill="#ffffff" transform="scale(1, -1) translate(0, -448)" glyph-name="numeric-9-plus-circle-outline" unicode="&#xFC8F;" horiz-adv-x="512" d=" M405.3333333333333 213.3333333333334V170.6666666666667H362.6666666666667V128H320V170.6666666666667H277.3333333333333V213.3333333333334H320V256H362.6666666666667V213.3333333333334H405.3333333333333M213.3333333333333 298.6666666666667C236.8 298.6666666666667 256 279.4666666666667 256 256V128C256 104.3200000000001 236.8 85.3333333333334 213.3333333333333 85.3333333333334H128V128H213.3333333333333V170.6666666666667H170.6666666666667C147.2 170.6666666666667 128 189.8666666666667 128 213.3333333333334V256C128 279.68 147.2 298.6666666666667 170.6666666666667 298.6666666666667H213.3333333333333M170.6666666666667 256V213.3333333333334H213.3333333333333V256H170.6666666666667M256 405.3333333333333C373.76 405.3333333333333 469.3333333333333 309.76 469.3333333333333 192S373.76 -21.3333333333333 256 -21.3333333333333S42.6666666666667 74.24 42.6666666666667 192S138.24 405.3333333333333 256 405.3333333333333M256 362.6666666666667C161.7066666666667 362.6666666666667 85.3333333333333 286.2933333333334 85.3333333333333 192S161.7066666666667 21.3333333333334 256 21.3333333333334S426.6666666666667 97.7066666666667 426.6666666666667 192S350.2933333333334 362.6666666666667 256 362.6666666666667z" /></svg>