<?xml version="1.0" encoding="UTF-8"?><!DOCTYPE svg PUBLIC "-//W3C//DTD SVG 1.1//EN" "http://www.w3.org/Graphics/SVG/1.1/DTD/svg11.dtd"><svg xmlns="http://www.w3.org/2000/svg" xmlns:xlink="http://www.w3.org/1999/xlink" version="1.1" width="512" height="512" viewBox="0 0 512 512">    <path fill="#ffffff" transform="scale(1, -1) translate(0, -448)" glyph-name="radio-tower" unicode="&#xF43B;" horiz-adv-x="512" d=" M256 234.6666666666667C279.4666666666667 234.6666666666667 298.6666666666667 215.4666666666667 298.6666666666667 192C298.6666666666667 181.3333333333334 294.8266666666667 171.9466666666667 288.64 164.48L356.2666666666667 -21.3333333333333H310.8266666666667L256 129.4933333333334L201.1733333333333 -21.3333333333333H155.7333333333333L223.36 164.48C217.1733333333333 171.9466666666667 213.3333333333333 181.3333333333334 213.3333333333333 192C213.3333333333333 215.4666666666667 232.5333333333333 234.6666666666667 256 234.6666666666667M256 277.3333333333334C208.8533333333333 277.3333333333334 170.6666666666666 239.1466666666667 170.6666666666666 192C170.6666666666666 181.3333333333334 172.8 170.6666666666667 176.6399999999999 160.8533333333334L157.8666666666666 109.6533333333333C139.3066666666667 132.0533333333334 128 160.64 128 192C128 262.6133333333334 185.3866666666667 320 256 320S384 262.6133333333334 384 192C384 160.64 372.6933333333333 132.0533333333334 354.1333333333334 109.6533333333334L335.36 160.8533333333334C339.2 170.6666666666667 341.3333333333333 181.3333333333334 341.3333333333333 192C341.3333333333333 239.1466666666667 303.1466666666667 277.3333333333334 256 277.3333333333334M256 362.6666666666667C161.7066666666667 362.6666666666667 85.3333333333333 286.2933333333334 85.3333333333333 192C85.3333333333333 141.6533333333334 106.6666666666667 96 141.6533333333333 65.28L126.2933333333334 22.6133333333333C75.52 61.6533333333334 42.6666666666667 123.0933333333334 42.6666666666667 192C42.6666666666667 309.76 138.24 405.3333333333333 256 405.3333333333333S469.3333333333333 309.76 469.3333333333333 192C469.3333333333333 123.0933333333334 436.48 61.6533333333334 385.7066666666666 22.6133333333333L370.3466666666667 65.28C405.3333333333333 96 426.6666666666667 141.6533333333334 426.6666666666667 192C426.6666666666667 286.2933333333334 350.2933333333334 362.6666666666667 256 362.6666666666667z" /></svg>