<?xml version="1.0" encoding="UTF-8"?><!DOCTYPE svg PUBLIC "-//W3C//DTD SVG 1.1//EN" "http://www.w3.org/Graphics/SVG/1.1/DTD/svg11.dtd"><svg xmlns="http://www.w3.org/2000/svg" xmlns:xlink="http://www.w3.org/1999/xlink" version="1.1" width="512" height="512" viewBox="0 0 512 512">    <path fill="#ffffff" transform="scale(1, -1) translate(0, -448)" glyph-name="layers-off-outline" unicode="&#xF9FC;" horiz-adv-x="512" d=" M256 351.36L231.04 331.9466666666667L200.7466666666667 362.6666666666667L256 405.3333333333333L448 256L368.64 194.3466666666667L338.1333333333334 224.64L378.4533333333333 256L256 351.36M448 147.84L429.44 133.3333333333334L398.9333333333333 163.84L413.2266666666667 174.9333333333333L448 147.84M72.7466666666667 429.6533333333333L472.32 30.08L442.24 0L361.6 80.64L256 -1.4933333333333L64 147.84L98.56 174.72L256 52.48L330.6666666666667 111.1466666666667L300.8 141.4400000000001L256 106.6666666666667L64 256L132.6933333333333 309.3333333333334L42.6666666666667 399.5733333333333L72.7466666666667 429.6533333333333M256 160.64L270.2933333333333 171.9466666666667L163.2 279.04L133.5466666666667 256L256 160.64z" /></svg>