<?xml version="1.0" encoding="UTF-8"?><!DOCTYPE svg PUBLIC "-//W3C//DTD SVG 1.1//EN" "http://www.w3.org/Graphics/SVG/1.1/DTD/svg11.dtd"><svg xmlns="http://www.w3.org/2000/svg" xmlns:xlink="http://www.w3.org/1999/xlink" version="1.1" width="512" height="512" viewBox="0 0 512 512">    <path fill="#ffffff" transform="scale(1, -1) translate(0, -448)" glyph-name="whistle" unicode="&#xF9B5;" horiz-adv-x="512" d=" M181.3333333333333 256C104.7466666666667 256 42.6666666666667 193.92 42.6666666666667 117.3333333333334S104.7466666666667 -21.3333333333333 181.3333333333333 -21.3333333333333S320 40.7466666666667 320 117.3333333333334V151.2533333333333L469.3333333333333 192V256H234.6666666666667V213.3333333333334H192V256H181.3333333333333M234.6666666666667 405.3333333333333V298.6666666666667H192V405.3333333333333H234.6666666666667M135.4666666666667 292.6933333333334C121.1733333333333 289.28 107.52 284.16 94.5066666666667 277.3333333333334L45.6533333333333 343.8933333333333L80.2133333333333 369.0666666666667L135.4666666666667 292.6933333333334M381.0133333333333 343.8933333333333L348.16 298.6666666666667H295.4666666666667L346.4533333333333 369.0666666666667L381.0133333333333 343.8933333333333z" /></svg>