<?xml version="1.0" encoding="UTF-8"?><!DOCTYPE svg PUBLIC "-//W3C//DTD SVG 1.1//EN" "http://www.w3.org/Graphics/SVG/1.1/DTD/svg11.dtd"><svg xmlns="http://www.w3.org/2000/svg" xmlns:xlink="http://www.w3.org/1999/xlink" version="1.1" width="512" height="512" viewBox="0 0 512 512">    <path fill="#ffffff" transform="scale(1, -1) translate(0, -448)" glyph-name="search-web" unicode="&#xF70E;" horiz-adv-x="512" d=" M330.6666666666667 149.3333333333334L437.3333333333333 42.6666666666667L405.3333333333333 10.6666666666667L298.6666666666667 117.3333333333334V134.1866666666667L292.9066666666667 140.16C268.5866666666667 119.2533333333333 237.0133333333333 106.6666666666667 202.6666666666667 106.6666666666667C126.08 106.6666666666667 64 168.7466666666667 64 245.3333333333334S126.08 384 202.6666666666667 384S341.3333333333333 321.92 341.3333333333333 245.3333333333334C341.3333333333333 210.9866666666667 328.7466666666667 179.4133333333334 307.84 155.0933333333334L313.8133333333333 149.3333333333334H330.6666666666667M202.6666666666667 352L190.9333333333333 351.36C185.8133333333333 340.2666666666667 177.92 321.4933333333334 172.16 298.6666666666667H233.1733333333333C227.4133333333333 321.4933333333334 219.5199999999999 340.2666666666667 214.3999999999999 351.36C210.56 352 206.72 352 202.6666666666666 352M295.04 298.6666666666667C282.4533333333333 320.64 262.1866666666666 337.7066666666667 237.8666666666667 346.0266666666667C242.9866666666667 334.7200000000001 249.6 318.2933333333334 254.5066666666667 298.6666666666667H295.04M110.2933333333333 298.6666666666667H150.8266666666667C155.7333333333334 318.2933333333334 162.3466666666667 334.7200000000001 167.4666666666667 346.0266666666667C143.1466666666667 337.7066666666667 122.88 320.64 110.2933333333333 298.6666666666667M96 245.3333333333334C96 234.6666666666667 97.7066666666667 223.36 100.9066666666667 213.3333333333334H146.56L144 245.3333333333334L146.56 277.3333333333334H100.9066666666667C97.7066666666667 267.3066666666667 96 256 96 245.3333333333334M304.4266666666666 213.3333333333334C307.6266666666667 223.36 309.3333333333333 234.6666666666667 309.3333333333333 245.3333333333334S307.6266666666667 267.3066666666667 304.4266666666666 277.3333333333334H258.7733333333333C260.48 266.6666666666667 261.3333333333333 256 261.3333333333333 245.3333333333334S260.48 224 258.7733333333333 213.3333333333334H304.4266666666666M167.8933333333333 277.3333333333334L165.3333333333333 245.3333333333334L167.8933333333333 213.3333333333334H237.44C239.1466666666667 224 240 234.6666666666667 240 245.3333333333334S239.1466666666667 266.6666666666667 237.44 277.3333333333334H167.8933333333333M202.6666666666667 138.6666666666667C206.5066666666667 138.6666666666667 210.3466666666666 138.6666666666667 213.9733333333333 139.3066666666667C219.3066666666667 150.4 227.4133333333334 169.1733333333334 233.1733333333333 192H172.16C177.92 169.1733333333334 186.0266666666667 150.4 191.36 139.3066666666667L202.6666666666667 138.6666666666667M295.04 192H254.5066666666667C249.6 172.3733333333333 242.9866666666667 155.9466666666667 237.8666666666667 144.64C262.1866666666667 152.96 282.4533333333333 170.0266666666667 295.04 192M110.2933333333333 192C122.88 170.0266666666667 143.1466666666667 152.96 167.4666666666667 144.64C162.3466666666666 155.9466666666667 155.7333333333333 172.3733333333333 150.8266666666667 192H110.2933333333333z" /></svg>