<?xml version="1.0" encoding="UTF-8"?><!DOCTYPE svg PUBLIC "-//W3C//DTD SVG 1.1//EN" "http://www.w3.org/Graphics/SVG/1.1/DTD/svg11.dtd"><svg xmlns="http://www.w3.org/2000/svg" xmlns:xlink="http://www.w3.org/1999/xlink" version="1.1" width="512" height="512" viewBox="0 0 512 512">    <path fill="#ffffff" transform="scale(1, -1) translate(0, -448)" glyph-name="car-brake-alert" unicode="&#xFC24;" horiz-adv-x="512" d=" M234.6666666666667 128H277.3333333333333V85.3333333333334H234.6666666666667V128M234.6666666666667 298.6666666666667H277.3333333333333V170.6666666666667H234.6666666666667V298.6666666666667M256 384C149.9733333333333 384 64 298.0266666666667 64 192S149.9733333333333 0 256 0S448 85.9733333333334 448 192S362.0266666666667 384 256 384M256 42.6666666666667C173.6533333333333 42.6666666666667 106.6666666666667 109.6533333333334 106.6666666666667 192S173.6533333333333 341.3333333333334 256 341.3333333333334S405.3333333333333 274.3466666666667 405.3333333333333 192S338.3466666666667 42.6666666666667 256 42.6666666666667M437.3333333333333 10.6666666666667C483.4133333333333 57.3866666666667 512 121.3866666666667 512 192C512 262.6133333333334 483.4133333333333 326.6133333333334 437.3333333333333 373.3333333333334L414.2933333333334 350.2933333333334C454.8266666666667 309.3333333333334 480 253.6533333333334 480 192C480 130.1333333333333 454.8266666666667 74.6666666666667 414.2933333333334 33.7066666666667L437.3333333333333 10.6666666666667M97.7066666666667 33.7066666666667C57.1733333333333 74.6666666666667 32 130.1333333333333 32 192C32 253.6533333333334 57.1733333333333 309.3333333333334 97.7066666666667 350.2933333333334L74.6666666666667 373.3333333333334C28.5866666666667 326.6133333333334 0 262.6133333333334 0 192C0 121.3866666666667 28.5866666666667 57.3866666666667 74.6666666666667 10.6666666666667L97.7066666666667 33.7066666666667z" /></svg>