<?xml version="1.0" encoding="UTF-8"?><!DOCTYPE svg PUBLIC "-//W3C//DTD SVG 1.1//EN" "http://www.w3.org/Graphics/SVG/1.1/DTD/svg11.dtd"><svg xmlns="http://www.w3.org/2000/svg" xmlns:xlink="http://www.w3.org/1999/xlink" version="1.1" width="512" height="512" viewBox="0 0 512 512">    <path fill="#ffffff" transform="scale(1, -1) translate(0, -448)" glyph-name="rollupjs" unicode="&#xFB9C;" horiz-adv-x="512" d=" M415.1466666666667 263.68C415.1466666666667 210.9866666666667 386.3466666666667 165.12 343.8933333333333 140.8C341.3333333333333 138.6666666666667 339.8400000000001 135.2533333333333 341.3333333333333 132.0533333333334L414.08 -11.7333333333333C416 -16.2133333333334 413.0133333333333 -21.3333333333333 408.1066666666667 -21.3333333333333H130.1333333333333L131.6266666666667 -20.48C142.08 -14.5066666666667 214.6133333333334 128.64 285.44 196.48C356.2666666666667 264.32 365.2266666666666 241.7066666666667 326.1866666666666 315.52C326.1866666666666 315.52 356.2666666666667 256.8533333333334 330.6666666666667 252.3733333333333C310.6133333333334 248.7466666666667 264.5333333333333 293.3333333333333 281.6 333.44C298.6666666666667 372.6933333333333 365.8666666666666 365.2266666666667 396.8 333.2266666666667C408.5333333333334 312.7466666666667 415.1466666666667 289.0666666666667 415.1466666666667 263.68M152.7466666666667 167.8933333333333C124.5866666666667 116.0533333333334 106.6666666666667 78.2933333333333 96.8533333333333 51.84V398.7200000000001C96.8533333333333 402.3466666666667 99.84 405.3333333333333 103.4666666666667 405.3333333333333H275.6266666666667C325.5466666666666 404.48 369.28 378.0266666666667 393.8133333333334 338.1333333333334C375.8933333333333 360.5333333333334 347.7333333333334 373.3333333333334 320 373.3333333333334C267.3066666666666 373.3333333333334 254.08 354.1333333333334 152.7466666666667 167.8933333333333z" /></svg>