<?xml version="1.0" encoding="UTF-8"?><!DOCTYPE svg PUBLIC "-//W3C//DTD SVG 1.1//EN" "http://www.w3.org/Graphics/SVG/1.1/DTD/svg11.dtd"><svg xmlns="http://www.w3.org/2000/svg" xmlns:xlink="http://www.w3.org/1999/xlink" version="1.1" width="512" height="512" viewBox="0 0 512 512">    <path fill="#ffffff" transform="scale(1, -1) translate(0, -448)" glyph-name="ungroup" unicode="&#xF550;" horiz-adv-x="512" d=" M42.6666666666667 405.3333333333333H128V384H277.3333333333333V405.3333333333333H362.6666666666667V320H341.3333333333333V256H384V277.3333333333334H469.3333333333333V192H448V64H469.3333333333333V-21.3333333333333H384V0H256V-21.3333333333333H170.6666666666667V64H192V106.6666666666667H128V85.3333333333334H42.6666666666667V170.6666666666667H64V320H42.6666666666667V405.3333333333333M384 192V213.3333333333334H341.3333333333333V170.6666666666667H362.6666666666667V85.3333333333334H277.3333333333333V106.6666666666667H234.6666666666667V64H256V42.6666666666667H384V64H405.3333333333333V192H384M277.3333333333333 320V341.3333333333334H128V320H106.6666666666667V170.6666666666667H128V149.3333333333334H192V192H170.6666666666667V277.3333333333334H256V256H298.6666666666667V320H277.3333333333333M256 192H234.6666666666667V149.3333333333334H277.3333333333333V170.6666666666667H298.6666666666667V213.3333333333334H256V192z" /></svg>