<?xml version="1.0" encoding="UTF-8"?><!DOCTYPE svg PUBLIC "-//W3C//DTD SVG 1.1//EN" "http://www.w3.org/Graphics/SVG/1.1/DTD/svg11.dtd"><svg xmlns="http://www.w3.org/2000/svg" xmlns:xlink="http://www.w3.org/1999/xlink" version="1.1" width="512" height="512" viewBox="0 0 512 512">    <path fill="#ffffff" transform="scale(1, -1) translate(0, -448)" glyph-name="wifi-off" unicode="&#xF5AA;" horiz-adv-x="512" d=" M48.64 384L21.3333333333333 356.9066666666667L52.6933333333333 325.5466666666667C43.52 320 34.3466666666667 313.8133333333334 25.6 307.2000000000001L64 256C75.3066666666667 264.5333333333334 87.04 272 99.4133333333333 278.8266666666667L146.9866666666667 231.2533333333334C131.2 224 116.0533333333334 215.2533333333333 102.4 204.8L140.8 153.6C157.44 165.9733333333334 176.2133333333333 175.5733333333333 196.2666666666667 181.9733333333334L250.6666666666667 128C224 126.5066666666667 199.2533333333333 117.3333333333334 179.2 102.4L256 0L308.48 69.76L378.4533333333333 0L405.3333333333333 27.3066666666667M256 384C210.1333333333333 384 166.4 375.8933333333333 125.8666666666667 361.1733333333334L176.8533333333334 309.9733333333334C202.6666666666667 316.5866666666667 228.6933333333334 320 256 320C328.1066666666667 320 394.6666666666667 296.32 448 256L486.4 307.2000000000001C422.1866666666666 355.4133333333334 342.6133333333333 384 256 384M256 256C247.8933333333333 256 240 256 232.1066666666667 254.9333333333334L300.16 186.6666666666667C326.1866666666666 180.6933333333334 350.5066666666667 169.1733333333334 371.2 153.6L409.6 204.8C366.9333333333333 237.0133333333333 313.6 256 256 256z" /></svg>