<?xml version="1.0" encoding="UTF-8"?><!DOCTYPE svg PUBLIC "-//W3C//DTD SVG 1.1//EN" "http://www.w3.org/Graphics/SVG/1.1/DTD/svg11.dtd"><svg xmlns="http://www.w3.org/2000/svg" xmlns:xlink="http://www.w3.org/1999/xlink" version="1.1" width="512" height="512" viewBox="0 0 512 512">    <path fill="#ffffff" transform="scale(1, -1) translate(0, -448)" glyph-name="layers-off" unicode="&#xF329;" horiz-adv-x="512" d=" M69.76 426.6666666666667L42.6666666666667 399.5733333333333L132.6933333333333 309.3333333333334L64 256L98.7733333333333 228.9066666666667L256 106.6666666666667L300.8 141.44L331.3066666666666 110.9333333333333L256 52.48L98.7733333333333 174.72L64 147.84L256 -1.4933333333333L361.6 80.64L442.24 0L469.3333333333333 27.0933333333334L69.76 426.6666666666667M413.0133333333333 228.9066666666667L448 256L256 405.3333333333333L193.92 356.9066666666667L361.8133333333334 188.8000000000001L413.0133333333333 228.9066666666667M422.6133333333333 128L448 147.84L417.4933333333334 178.3466666666667L392.1066666666667 158.72L422.6133333333333 128z" /></svg>