<?xml version="1.0" encoding="UTF-8"?><!DOCTYPE svg PUBLIC "-//W3C//DTD SVG 1.1//EN" "http://www.w3.org/Graphics/SVG/1.1/DTD/svg11.dtd"><svg xmlns="http://www.w3.org/2000/svg" xmlns:xlink="http://www.w3.org/1999/xlink" version="1.1" width="512" height="512" viewBox="0 0 512 512">    <path fill="#ffffff" transform="scale(1, -1) translate(0, -448)" glyph-name="account-tie" unicode="&#xFCBF;" horiz-adv-x="512" d=" M256 384C303.1466666666667 384 341.3333333333333 345.8133333333334 341.3333333333333 298.6666666666667S303.1466666666667 213.3333333333334 256 213.3333333333334S170.6666666666667 251.52 170.6666666666667 298.6666666666667S208.8533333333333 384 256 384M341.3333333333333 159.1466666666667C341.3333333333333 136.5333333333334 335.36 83.84 294.6133333333334 24.96L277.3333333333333 128L297.3866666666667 168.1066666666667C284.16 169.6 270.2933333333333 170.6666666666666 256 170.6666666666666C241.7066666666667 170.6666666666666 227.84 169.6 214.6133333333334 168.1066666666667L234.6666666666667 128L217.3866666666667 24.96C176.64 83.84 170.6666666666667 136.5333333333334 170.6666666666667 159.1466666666667C119.68 144.2133333333334 85.3333333333333 117.3333333333334 85.3333333333333 85.3333333333334V0H426.6666666666667V85.3333333333334C426.6666666666667 117.3333333333334 392.5333333333333 144.2133333333334 341.3333333333333 159.1466666666667z" /></svg>