<?xml version="1.0" encoding="UTF-8"?><!DOCTYPE svg PUBLIC "-//W3C//DTD SVG 1.1//EN" "http://www.w3.org/Graphics/SVG/1.1/DTD/svg11.dtd"><svg xmlns="http://www.w3.org/2000/svg" xmlns:xlink="http://www.w3.org/1999/xlink" version="1.1" width="512" height="512" viewBox="0 0 512 512">    <path fill="#ffffff" transform="scale(1, -1) translate(0, -448)" glyph-name="plus-network" unicode="&#xF41A;" horiz-adv-x="512" d=" M341.3333333333333 213.3333333333334V256H277.3333333333333V320H234.6666666666667V256H170.6666666666667V213.3333333333334H234.6666666666667V149.3333333333334H277.3333333333333V213.3333333333334H341.3333333333333M362.6666666666667 384C386.1333333333334 384 405.3333333333333 364.8 405.3333333333333 341.3333333333334V128C405.3333333333333 104.5333333333333 386.1333333333334 85.3333333333334 362.6666666666667 85.3333333333334H277.3333333333333V42.6666666666667H298.6666666666667C310.4 42.6666666666667 320 33.0666666666667 320 21.3333333333334H469.3333333333333V-21.3333333333333H320C320 -33.0666666666667 310.4 -42.6666666666666 298.6666666666667 -42.6666666666666H213.3333333333333C201.6 -42.6666666666666 192 -33.0666666666667 192 -21.3333333333333H42.6666666666667V21.3333333333334H192C192 33.0666666666667 201.6 42.6666666666667 213.3333333333333 42.6666666666667H234.6666666666667V85.3333333333334H149.3333333333333C125.6533333333333 85.3333333333334 106.6666666666667 104.5333333333333 106.6666666666667 128V341.3333333333334C106.6666666666667 364.8 125.8666666666667 384 149.3333333333333 384H362.6666666666667z" /></svg>