<?xml version="1.0" encoding="UTF-8"?><!DOCTYPE svg PUBLIC "-//W3C//DTD SVG 1.1//EN" "http://www.w3.org/Graphics/SVG/1.1/DTD/svg11.dtd"><svg xmlns="http://www.w3.org/2000/svg" xmlns:xlink="http://www.w3.org/1999/xlink" version="1.1" width="512" height="512" viewBox="0 0 512 512">    <path fill="#ffffff" transform="scale(1, -1) translate(0, -448)" glyph-name="email-mark-as-unread" unicode="&#xFB6E;" horiz-adv-x="512" d=" M401.92 298.6666666666667H346.0266666666667L224 362.6666666666667L85.3333333333333 289.92V85.3333333333334C61.8666666666667 85.3333333333334 42.6666666666667 104.5333333333333 42.6666666666667 128V295.04C42.6666666666667 309.3333333333334 48.64 318.7200000000001 59.9466666666667 324.0533333333334L224 405.3333333333333L385.0666666666667 324.0533333333334C394.6666666666667 318.08 400.64 309.3333333333334 401.92 298.6666666666667M149.3333333333333 277.3333333333334H426.6666666666667C450.1333333333334 277.3333333333334 469.3333333333333 258.1333333333334 469.3333333333333 234.6666666666667V42.6666666666667C469.3333333333333 19.2 450.1333333333334 0 426.6666666666667 0H149.3333333333333C125.8666666666667 0 106.6666666666667 19.2 106.6666666666667 42.6666666666667V234.6666666666667C106.6666666666667 258.1333333333334 125.8666666666667 277.3333333333334 149.3333333333333 277.3333333333334M426.6666666666667 199.04V234.6666666666667L288 164.0533333333334L149.3333333333333 234.6666666666667V199.04L288 128L426.6666666666667 199.04z" /></svg>