<?xml version="1.0" encoding="UTF-8"?><!DOCTYPE svg PUBLIC "-//W3C//DTD SVG 1.1//EN" "http://www.w3.org/Graphics/SVG/1.1/DTD/svg11.dtd"><svg xmlns="http://www.w3.org/2000/svg" xmlns:xlink="http://www.w3.org/1999/xlink" version="1.1" width="512" height="512" viewBox="0 0 512 512">    <path fill="#ffffff" transform="scale(1, -1) translate(0, -448)" glyph-name="cake-layered" unicode="&#xF0EA;" horiz-adv-x="512" d=" M448 0V85.3333333333334C448 109.0133333333333 428.8 128 405.3333333333333 128H384V192C384 215.68 364.8 234.6666666666667 341.3333333333333 234.6666666666667H277.3333333333333V277.3333333333334H234.6666666666667V234.6666666666667H170.6666666666667C146.9866666666667 234.6666666666667 128 215.68 128 192V128H106.6666666666667C82.9866666666667 128 64 109.0133333333333 64 85.3333333333334V0H21.3333333333333V-42.6666666666666H490.6666666666666V0M256 298.6666666666667C279.4666666666667 298.6666666666667 298.6666666666667 317.8666666666667 298.6666666666667 341.3333333333334C298.6666666666667 349.44 296.5333333333333 356.9066666666667 292.48 363.3066666666667L256 426.6666666666667L219.3066666666667 363.3066666666667C215.4666666666667 356.9066666666667 213.3333333333333 349.44 213.3333333333333 341.3333333333334C213.3333333333333 317.8666666666667 232.5333333333334 298.6666666666667 256 298.6666666666667z" /></svg>