<?xml version="1.0" encoding="UTF-8"?><!DOCTYPE svg PUBLIC "-//W3C//DTD SVG 1.1//EN" "http://www.w3.org/Graphics/SVG/1.1/DTD/svg11.dtd"><svg xmlns="http://www.w3.org/2000/svg" xmlns:xlink="http://www.w3.org/1999/xlink" version="1.1" width="512" height="512" viewBox="0 0 512 512">    <path fill="#ffffff" transform="scale(1, -1) translate(0, -448)" glyph-name="database-minus" unicode="&#xF1B9;" horiz-adv-x="512" d=" M320 85.3333333333334H490.6666666666666V42.6666666666667H320V85.3333333333334M256 384C350.2933333333334 384 426.6666666666667 345.8133333333334 426.6666666666667 298.6666666666667S350.2933333333334 213.3333333333334 256 213.3333333333334S85.3333333333333 251.52 85.3333333333333 298.6666666666667S161.7066666666667 384 256 384M85.3333333333333 256C85.3333333333333 208.8533333333333 161.7066666666667 170.6666666666667 256 170.6666666666667S426.6666666666667 208.8533333333333 426.6666666666667 256V192C426.6666666666667 166.6133333333334 404.2666666666667 143.5733333333334 368.8533333333333 128H277.3333333333333V107.3066666666667L256 106.6666666666667C161.7066666666667 106.6666666666667 85.3333333333333 144.8533333333334 85.3333333333333 192V256M85.3333333333333 149.3333333333334C85.3333333333333 102.1866666666667 161.7066666666667 64 256 64L277.3333333333333 64.64V0.64L256 0C161.7066666666667 0 85.3333333333333 38.1866666666667 85.3333333333333 85.3333333333334V149.3333333333334M426.6666666666667 149.3333333333334V128H421.3333333333333C424.7466666666667 134.8266666666667 426.6666666666667 141.8666666666667 426.6666666666667 149.3333333333334z" /></svg>