<?xml version="1.0" encoding="UTF-8"?><!DOCTYPE svg PUBLIC "-//W3C//DTD SVG 1.1//EN" "http://www.w3.org/Graphics/SVG/1.1/DTD/svg11.dtd"><svg xmlns="http://www.w3.org/2000/svg" xmlns:xlink="http://www.w3.org/1999/xlink" version="1.1" width="512" height="512" viewBox="0 0 512 512">    <path fill="#ffffff" transform="scale(1, -1) translate(0, -448)" glyph-name="camera-front" unicode="&#xF102;" horiz-adv-x="512" d=" M149.3333333333333 405.3333333333333H362.6666666666667V181.3333333333334C362.6666666666667 216.96 291.6266666666667 234.6666666666667 256 234.6666666666667S149.3333333333333 216.96 149.3333333333333 181.3333333333334M362.6666666666667 448H149.3333333333333C125.8666666666667 448 106.6666666666667 428.8 106.6666666666667 405.3333333333333V106.6666666666667C106.6666666666667 83.2 125.8666666666667 64 149.3333333333333 64H362.6666666666667C386.1333333333334 64 405.3333333333333 83.2 405.3333333333333 106.6666666666667V405.3333333333333C405.3333333333333 428.8 386.1333333333334 448 362.6666666666667 448M256 277.3333333333334C279.4666666666667 277.3333333333334 298.6666666666667 296.5333333333334 298.6666666666667 320S279.4666666666667 362.6666666666667 256 362.6666666666667S213.3333333333333 343.4666666666667 213.3333333333333 320S232.5333333333334 277.3333333333334 256 277.3333333333334M298.6666666666667 21.3333333333334V-21.3333333333333H405.3333333333333V21.3333333333334M213.3333333333333 21.3333333333334H106.6666666666667V-21.3333333333333H213.3333333333333V-64L277.3333333333333 0L213.3333333333333 64V21.3333333333334z" /></svg>