<?xml version="1.0" encoding="UTF-8"?><!DOCTYPE svg PUBLIC "-//W3C//DTD SVG 1.1//EN" "http://www.w3.org/Graphics/SVG/1.1/DTD/svg11.dtd"><svg xmlns="http://www.w3.org/2000/svg" xmlns:xlink="http://www.w3.org/1999/xlink" version="1.1" width="512" height="512" viewBox="0 0 512 512">    <path fill="#ffffff" transform="scale(1, -1) translate(0, -448)" glyph-name="seat-flat-angled" unicode="&#xF47C;" horiz-adv-x="512" d=" M474.6666666666666 143.1466666666667L459.9466666666666 102.8266666666667L196.2666666666667 198.1866666666667L240.64 318.9333333333334L423.2533333333334 253.0133333333333C468.0533333333333 236.8 490.6666666666666 187.7333333333334 474.6666666666666 143.1466666666667M32 189.0133333333333L170.6666666666667 138.6666666666667V42.6666666666667H341.3333333333333V77.44L437.3333333333333 42.6666666666667L452.48 82.9866666666667L46.72 229.3333333333334M155.7333333333334 230.4000000000001C187.52 245.3333333333334 200.96 283.9466666666667 185.8133333333333 315.7333333333334C170.6666666666667 347.52 132.2666666666667 360.9600000000001 100.2666666666667 345.6C68.48 330.6666666666667 55.04 292.2666666666667 70.4 260.2666666666667C85.3333333333333 228.48 123.7333333333334 215.04 155.7333333333334 230.4z" /></svg>