<?xml version="1.0" encoding="UTF-8"?><!DOCTYPE svg PUBLIC "-//W3C//DTD SVG 1.1//EN" "http://www.w3.org/Graphics/SVG/1.1/DTD/svg11.dtd"><svg xmlns="http://www.w3.org/2000/svg" xmlns:xlink="http://www.w3.org/1999/xlink" version="1.1" width="512" height="512" viewBox="0 0 512 512">    <path fill="#ffffff" transform="scale(1, -1) translate(0, -448)" glyph-name="animation-play" unicode="&#xF939;" horiz-adv-x="512" d=" M85.3333333333333 405.3333333333333H298.6666666666667V362.6666666666667H85.3333333333333V149.3333333333334H42.6666666666667V362.6666666666667C42.6666666666667 386.3466666666667 61.6533333333333 405.3333333333333 85.3333333333333 405.3333333333333M170.6666666666667 320H384V277.3333333333334H170.6666666666667V64H128V277.3333333333334C128 301.0133333333333 146.9866666666667 320 170.6666666666667 320M256 234.6666666666667H426.6666666666667C450.3466666666667 234.6666666666667 469.3333333333333 215.68 469.3333333333333 192V21.3333333333334C469.3333333333333 -2.3466666666666 450.3466666666667 -21.3333333333333 426.6666666666667 -21.3333333333333H256C232.32 -21.3333333333333 213.3333333333333 -2.3466666666666 213.3333333333333 21.3333333333334V192C213.3333333333333 215.68 232.32 234.6666666666667 256 234.6666666666667M298.6666666666667 192V21.3333333333334L426.6666666666667 106.6666666666667L298.6666666666667 192z" /></svg>