<?xml version="1.0" encoding="UTF-8"?><!DOCTYPE svg PUBLIC "-//W3C//DTD SVG 1.1//EN" "http://www.w3.org/Graphics/SVG/1.1/DTD/svg11.dtd"><svg xmlns="http://www.w3.org/2000/svg" xmlns:xlink="http://www.w3.org/1999/xlink" version="1.1" width="512" height="512" viewBox="0 0 512 512">    <path fill="#ffffff" transform="scale(1, -1) translate(0, -448)" glyph-name="laptop-mac" unicode="&#xF324;" horiz-adv-x="512" d=" M256 42.6666666666667C244.2666666666667 42.6666666666667 234.6666666666667 52.2666666666667 234.6666666666667 64S244.2666666666667 85.3333333333334 256 85.3333333333334S277.3333333333333 75.7333333333334 277.3333333333333 64S267.7333333333334 42.6666666666667 256 42.6666666666667M85.3333333333333 341.3333333333334H426.6666666666667V106.6666666666667H85.3333333333333M426.6666666666667 64C450.1333333333334 64 469.3333333333333 83.2 469.3333333333333 106.6666666666667V341.3333333333334C469.3333333333333 365.0133333333333 450.1333333333334 384 426.6666666666667 384H85.3333333333333C61.6533333333333 384 42.6666666666667 365.0133333333333 42.6666666666667 341.3333333333334V106.6666666666667C42.6666666666667 83.2 61.8666666666667 64 85.3333333333333 64H0C0 40.5333333333333 19.2 21.3333333333334 42.6666666666667 21.3333333333334H469.3333333333333C492.8 21.3333333333334 512 40.5333333333333 512 64H426.6666666666667z" /></svg>