<?xml version="1.0" encoding="UTF-8"?><!DOCTYPE svg PUBLIC "-//W3C//DTD SVG 1.1//EN" "http://www.w3.org/Graphics/SVG/1.1/DTD/svg11.dtd"><svg xmlns="http://www.w3.org/2000/svg" xmlns:xlink="http://www.w3.org/1999/xlink" version="1.1" width="512" height="512" viewBox="0 0 512 512">    <path fill="#ffffff" transform="scale(1, -1) translate(0, -448)" glyph-name="facebook-box" unicode="&#xF20D;" horiz-adv-x="512" d=" M106.6666666666667 384H405.3333333333333C428.8 384 448 364.8 448 341.3333333333334V42.6666666666667C448 19.2 428.8 0 405.3333333333333 0H106.6666666666667C83.2 0 64 19.2 64 42.6666666666667V341.3333333333334C64 364.8 83.2 384 106.6666666666667 384M384 341.3333333333334H330.6666666666667C289.4933333333334 341.3333333333334 256 307.8400000000001 256 266.6666666666667V213.3333333333334H213.3333333333333V149.3333333333334H256V0H320V149.3333333333334H384V213.3333333333334H320V256C320 267.7333333333334 329.6 277.3333333333334 341.3333333333333 277.3333333333334H384V341.3333333333334z" /></svg>