<?xml version="1.0" encoding="UTF-8"?><!DOCTYPE svg PUBLIC "-//W3C//DTD SVG 1.1//EN" "http://www.w3.org/Graphics/SVG/1.1/DTD/svg11.dtd"><svg xmlns="http://www.w3.org/2000/svg" xmlns:xlink="http://www.w3.org/1999/xlink" version="1.1" width="512" height="512" viewBox="0 0 512 512">    <path fill="#ffffff" transform="scale(1, -1) translate(0, -448)" glyph-name="gantry-crane" unicode="&#xFDAD;" horiz-adv-x="512" d=" M448 320H469.3333333333333V362.6666666666667H448V384H384V362.6666666666667H128V384H64V362.6666666666667H42.6666666666667V320H64V21.3333333333334H42.6666666666667V-21.3333333333333H149.3333333333333V21.3333333333334H128V320H234.6666666666667V298.6666666666667H245.3333333333333V221.44C234.6666666666667 217.8133333333333 228.0533333333333 208 228.0533333333333 197.12C228.0533333333333 187.7333333333334 232.96 179.2 241.0666666666667 174.5066666666667V149.3333333333334H254.2933333333333C261.5466666666666 149.3333333333334 267.5199999999999 143.5733333333334 267.7333333333333 136.3200000000001C267.7333333333333 128.8533333333334 261.9733333333333 122.88 254.5066666666667 122.88C249.8133333333333 122.88 245.3333333333333 125.44 242.9866666666667 129.4933333333334C239.36 135.68 231.2533333333334 137.8133333333334 225.0666666666667 134.1866666666667C218.88 130.7733333333334 216.5333333333333 122.6666666666667 220.16 116.2666666666667C227.2 104.1066666666667 240.2133333333333 96.64 254.2933333333333 96.64C276.0533333333333 96.8533333333334 293.5466666666666 114.7733333333334 293.3333333333333 136.5333333333334C293.12 152.96 282.88 167.6800000000001 267.3066666666666 173.2266666666668V174.5066666666668C279.8933333333333 181.3333333333334 284.5866666666667 196.6933333333334 277.9733333333333 209.0666666666668C275.6266666666667 213.3333333333334 271.7866666666667 217.3866666666668 267.3066666666666 219.7333333333334V298.6666666666667H277.3333333333333V320H384V21.3333333333334H362.6666666666667V-21.3333333333333H469.3333333333333V21.3333333333334H448V320M106.6666666666667 121.8133333333334V91.52L85.3333333333333 70.1866666666667V100.48L106.6666666666667 121.8133333333334M85.3333333333333 21.3333333333334V37.5466666666667L106.6666666666667 58.8800000000001V28.5866666666668L99.4133333333333 21.3333333333334H85.3333333333333M85.3333333333333 292.48L106.6666666666667 313.8133333333334V283.52L85.3333333333333 262.1866666666667V292.48M85.3333333333333 228.48L106.6666666666667 249.8133333333334V219.5200000000001L85.3333333333333 198.1866666666667V228.48M85.3333333333333 164.48L106.6666666666667 185.8133333333334V155.5200000000001L85.3333333333333 134.1866666666667V165.5466666666668V164.48M426.6666666666667 121.8133333333334V91.52L405.3333333333333 70.1866666666667V100.48L426.6666666666667 121.8133333333334M405.3333333333333 21.3333333333334V37.5466666666667L426.6666666666667 58.8800000000001V28.5866666666668L419.4133333333333 21.3333333333334H405.3333333333333M405.3333333333333 292.4800000000002L426.6666666666667 313.8133333333335V283.5200000000001L405.3333333333333 262.1866666666668V292.48M405.3333333333333 228.48L426.6666666666667 249.8133333333334V219.5200000000001L405.3333333333333 198.1866666666667V228.48M405.3333333333333 164.48L426.6666666666667 185.8133333333334V155.5200000000001L405.3333333333333 134.1866666666667V165.5466666666668V164.48z" /></svg>