<?xml version="1.0" encoding="UTF-8"?><!DOCTYPE svg PUBLIC "-//W3C//DTD SVG 1.1//EN" "http://www.w3.org/Graphics/SVG/1.1/DTD/svg11.dtd"><svg xmlns="http://www.w3.org/2000/svg" xmlns:xlink="http://www.w3.org/1999/xlink" version="1.1" width="512" height="512" viewBox="0 0 512 512">    <path fill="#ffffff" transform="scale(1, -1) translate(0, -448)" glyph-name="baby" unicode="&#xF06C;" horiz-adv-x="512" d=" M394.6666666666667 362.6666666666667C424.1066666666667 362.6666666666667 448 338.7733333333333 448 309.3333333333334S424.1066666666667 256 394.6666666666667 256S341.3333333333333 279.8933333333333 341.3333333333333 309.3333333333334S365.2266666666667 362.6666666666667 394.6666666666667 362.6666666666667M96 21.3333333333334C78.2933333333333 21.3333333333334 64 35.6266666666667 64 53.3333333333334S78.2933333333333 85.3333333333334 96 85.3333333333334H245.3333333333333C263.04 85.3333333333334 277.3333333333333 71.04 277.3333333333333 53.3333333333334S263.04 21.3333333333334 245.3333333333333 21.3333333333334H96M343.2533333333334 42.6666666666667L313.3866666666667 128H234.6666666666667L144 218.6666666666667S192 272 266.6666666666667 272C330.6666666666667 272 338.1333333333334 250.6666666666667 342.6133333333333 237.44L403.6266666666667 64C409.6 47.36 400.64 29.0133333333333 384 23.04C367.36 17.28 349.0133333333333 26.0266666666666 343.2533333333334 42.6666666666667z" /></svg>