<?xml version="1.0" encoding="UTF-8"?><!DOCTYPE svg PUBLIC "-//W3C//DTD SVG 1.1//EN" "http://www.w3.org/Graphics/SVG/1.1/DTD/svg11.dtd"><svg xmlns="http://www.w3.org/2000/svg" xmlns:xlink="http://www.w3.org/1999/xlink" version="1.1" width="512" height="512" viewBox="0 0 512 512">    <path fill="#ffffff" transform="scale(1, -1) translate(0, -448)" glyph-name="google-allo" unicode="&#xF801;" horiz-adv-x="512" d=" M469.3333333333333 192V0C469.3333333333333 -10.6666666666666 464.2133333333334 -17.4933333333333 454.4 -20.48C444.8 -23.4666666666667 437.3333333333333 -20.6933333333334 430.9333333333333 -11.9466666666667L398.08 33.0666666666666C357.9733333333334 -2.9866666666667 310.6133333333334 -21.3333333333333 256 -21.3333333333333C197.3333333333333 -21.3333333333333 147.2 0 105.6 41.6C64 83.2 42.6666666666667 133.3333333333334 42.6666666666667 192S64 300.8 105.6 342.4C147.2 384 197.3333333333333 405.3333333333333 256 405.3333333333333S364.8 384 406.4 342.4C448 300.8 469.3333333333333 250.6666666666667 469.3333333333333 192z" /></svg>