<?xml version="1.0" encoding="UTF-8"?><!DOCTYPE svg PUBLIC "-//W3C//DTD SVG 1.1//EN" "http://www.w3.org/Graphics/SVG/1.1/DTD/svg11.dtd"><svg xmlns="http://www.w3.org/2000/svg" xmlns:xlink="http://www.w3.org/1999/xlink" version="1.1" width="512" height="512" viewBox="0 0 512 512">    <path fill="#ffffff" transform="scale(1, -1) translate(0, -448)" glyph-name="chess-knight" unicode="&#xF857;" horiz-adv-x="512" d=" M405.3333333333333 -21.3333333333333H106.6666666666667V21.3333333333334H405.3333333333333V-21.3333333333333M277.3333333333333 405.3333333333333C250.6666666666667 405.3333333333333 225.7066666666667 392.1066666666667 210.9866666666667 369.92L149.3333333333333 277.3333333333334L192 234.6666666666667L235.9466666666667 263.8933333333334C245.3333333333333 270.5066666666667 258.9866666666667 267.9466666666667 265.6 258.1333333333334C266.0266666666667 257.4933333333334 266.6666666666667 256.8533333333334 266.6666666666667 256.0000000000001C273.0666666666667 243.4133333333334 270.7200000000001 228.2666666666667 260.6933333333334 218.2400000000001L158.2933333333334 115.8400000000001C146.5600000000001 103.8933333333334 146.5600000000001 84.6933333333334 158.5066666666667 72.96C164.0533333333334 67.4133333333334 171.7333333333334 64 179.6266666666667 64H362.6666666666667V320C362.6666666666667 367.1466666666667 324.48 405.3333333333333 277.3333333333333 405.3333333333333z" /></svg>