<?xml version="1.0" encoding="UTF-8"?><!DOCTYPE svg PUBLIC "-//W3C//DTD SVG 1.1//EN" "http://www.w3.org/Graphics/SVG/1.1/DTD/svg11.dtd"><svg xmlns="http://www.w3.org/2000/svg" xmlns:xlink="http://www.w3.org/1999/xlink" version="1.1" width="512" height="512" viewBox="0 0 512 512">    <path fill="#ffffff" transform="scale(1, -1) translate(0, -448)" glyph-name="variable" unicode="&#xFAE6;" horiz-adv-x="512" d=" M435.4133333333333 384C465.0666666666667 326.1866666666667 476.8 259.4133333333334 469.3333333333333 192C465.0666666666667 124.5866666666667 441.6 57.8133333333334 401.7066666666666 0L369.0666666666666 21.3333333333334C403.4133333333333 73.1733333333334 423.4666666666666 132.2666666666667 426.6666666666666 192C433.9199999999999 251.7333333333334 424.32 310.8266666666667 398.9333333333332 362.6666666666667L435.4133333333333 384M110.2933333333333 384L142.9333333333333 362.6666666666667C108.5866666666667 310.8266666666667 88.5333333333333 251.7333333333334 85.3333333333333 192C78.08 132.2666666666667 87.8933333333333 73.1733333333334 113.0666666666667 21.3333333333334L77.0133333333333 0C47.1466666666667 57.8133333333334 35.2 124.3733333333333 42.6666666666667 192C46.9333333333333 259.4133333333334 70.4 326.1866666666667 110.2933333333333 384M257.7066666666667 220.16L307.2 289.0666666666667H361.1733333333333L280.5333333333333 182.4L327.4666666666667 77.4400000000001H279.2533333333334L249.8133333333334 149.3333333333334L197.9733333333334 78.2933333333334H144.2133333333333L227.4133333333334 187.5200000000001L181.9733333333334 289.0666666666667H230.4L257.7066666666667 220.1600000000001z" /></svg>