<?xml version="1.0" encoding="UTF-8"?><!DOCTYPE svg PUBLIC "-//W3C//DTD SVG 1.1//EN" "http://www.w3.org/Graphics/SVG/1.1/DTD/svg11.dtd"><svg xmlns="http://www.w3.org/2000/svg" xmlns:xlink="http://www.w3.org/1999/xlink" version="1.1" width="512" height="512" viewBox="0 0 512 512">    <path fill="#ffffff" transform="scale(1, -1) translate(0, -448)" glyph-name="sync-alert" unicode="&#xF4E7;" horiz-adv-x="512" d=" M234.6666666666667 170.6666666666667H277.3333333333333V298.6666666666667H234.6666666666667M448 362.6666666666667H320V234.6666666666667L367.7866666666667 282.4533333333334C390.8266666666667 259.2000000000001 405.3333333333333 227.4133333333334 405.3333333333333 192C405.3333333333333 136.3200000000001 369.7066666666666 88.96 320 71.4666666666667V26.8800000000001C393.6 45.8666666666667 448 112.4266666666667 448 192.0000000000001C448 239.1466666666667 428.5866666666667 281.6 397.6533333333333 312.3200000000001M234.6666666666667 85.3333333333334H277.3333333333333V128H234.6666666666667M64 192C64 144.8533333333334 83.4133333333333 102.4 114.3466666666667 71.68L64 21.3333333333334H192V149.3333333333334L144.2133333333333 101.5466666666666C121.1733333333333 124.8 106.6666666666667 156.5866666666667 106.6666666666667 192C106.6666666666667 247.68 142.2933333333333 295.04 192 312.5333333333334V357.12C118.4 338.1333333333334 64 271.5733333333334 64 192z" /></svg>