<?xml version="1.0" encoding="UTF-8"?><!DOCTYPE svg PUBLIC "-//W3C//DTD SVG 1.1//EN" "http://www.w3.org/Graphics/SVG/1.1/DTD/svg11.dtd"><svg xmlns="http://www.w3.org/2000/svg" xmlns:xlink="http://www.w3.org/1999/xlink" version="1.1" width="512" height="512" viewBox="0 0 512 512">    <path fill="#ffffff" transform="scale(1, -1) translate(0, -448)" glyph-name="google-maps" unicode="&#xF5F5;" horiz-adv-x="512" d=" M330.6666666666667 352C330.6666666666667 340.0533333333334 334.9333333333333 329.8133333333334 343.04 321.4933333333334C350.9333333333333 313.1733333333334 360.9599999999999 309.3333333333334 373.3333333333333 309.3333333333334C385.0666666666667 309.3333333333334 394.6666666666667 313.1733333333334 403.4133333333333 321.4933333333334C411.7333333333334 329.8133333333334 416 340.0533333333334 416 352C416 363.3066666666667 411.7333333333334 373.3333333333334 402.9866666666667 382.0800000000001C394.6666666666667 390.6133333333334 384 394.6666666666667 373.3333333333333 394.6666666666667C361.6 394.6666666666667 352 390.6133333333334 343.4666666666667 382.0800000000001C335.1466666666667 373.3333333333334 330.6666666666667 363.3066666666667 330.6666666666667 352M469.3333333333333 352C469.3333333333333 330.6666666666667 461.0133333333333 305.2800000000001 445.0133333333333 276.0533333333334C429.0133333333333 246.6133333333333 413.0133333333333 222.72 397.0133333333333 203.9466666666667L373.3333333333333 176C365.6533333333333 183.8933333333333 356.6933333333333 194.3466666666666 346.0266666666667 206.9333333333333C335.36 219.7333333333333 321.0666666666666 241.7066666666667 303.5733333333333 273.0666666666666C285.8666666666667 304.4266666666667 277.3333333333333 330.6666666666667 277.3333333333333 352C277.3333333333333 378.6666666666667 286.2933333333333 401.28 305.0666666666667 420.0533333333334C323.6266666666667 438.6133333333334 346.24 448 373.3333333333333 448C399.5733333333333 448 422.4 438.6133333333334 440.9600000000001 420.0533333333334C459.7333333333333 401.28 469.3333333333333 378.6666666666667 469.3333333333333 352M448 200.96V42.6666666666667C448 32 443.7333333333334 21.3333333333334 434.9866666666667 13.0133333333333C426.6666666666667 4.2666666666667 416 0 405.3333333333333 0H106.6666666666667C96 0 85.3333333333333 4.2666666666667 77.0133333333333 13.0133333333333C68.2666666666667 21.3333333333334 64 32 64 42.6666666666667V341.3333333333334C64 352 68.2666666666667 362.6666666666667 77.0133333333333 370.9866666666667C85.3333333333333 379.7333333333334 96 384 106.6666666666667 384H238.9333333333333C236.3733333333334 370.56 234.6666666666667 359.8933333333333 234.6666666666667 352C234.6666666666667 326.6133333333334 244.0533333333333 296.7466666666667 261.9733333333333 262.4000000000001C280.1066666666667 228.2666666666667 295.2533333333334 202.6666666666667 307.4133333333333 187.5200000000001C320 171.7333333333334 331.3066666666667 158.2933333333334 341.9733333333334 146.9866666666667L373.3333333333333 113.0666666666667L405.3333333333333 146.9866666666667C432.4266666666666 181.3333333333334 446.7200000000001 199.68 448 200.96M192 138.6666666666667V109.0133333333333H240C234.6666666666667 85.3333333333334 218.6666666666667 74.0266666666666 192 74.0266666666666C177.28 74.0266666666666 164.9066666666667 79.36 155.0933333333333 90.0266666666666C145.0666666666667 100.6933333333333 139.9466666666667 113.28 139.9466666666667 128S145.0666666666667 155.3066666666666 155.0933333333333 165.9733333333333C164.9066666666667 176.64 177.28 181.9733333333333 192 181.9733333333333C206.08 181.9733333333333 217.3866666666667 177.7066666666667 225.92 168.96L248.96 190.9333333333333C232.96 205.6533333333333 214.4 213.3333333333333 193.0666666666667 213.3333333333333H192C168.7466666666667 213.3333333333333 148.6933333333333 204.5866666666667 132.0533333333333 187.9466666666667C115.4133333333333 171.3066666666667 106.6666666666667 151.2533333333333 106.6666666666667 128S115.4133333333333 84.6933333333333 132.0533333333333 68.0533333333334C148.6933333333333 51.4133333333334 168.7466666666667 42.6666666666667 192 42.6666666666667C216.7466666666667 42.6666666666667 236.5866666666667 50.5600000000001 251.52 65.92C266.6666666666667 81.28 273.92 101.3333333333334 273.92 126.0800000000001C273.92 132.0533333333334 273.7066666666667 136.3200000000001 273.0666666666667 138.6666666666667H192z" /></svg>