<?xml version="1.0" encoding="UTF-8"?><!DOCTYPE svg PUBLIC "-//W3C//DTD SVG 1.1//EN" "http://www.w3.org/Graphics/SVG/1.1/DTD/svg11.dtd"><svg xmlns="http://www.w3.org/2000/svg" xmlns:xlink="http://www.w3.org/1999/xlink" version="1.1" width="512" height="512" viewBox="0 0 512 512">    <path fill="#ffffff" transform="scale(1, -1) translate(0, -448)" glyph-name="phone-rotate-landscape" unicode="&#xF884;" horiz-adv-x="512" d=" M192 426.6666666666667H64C40.5333333333333 426.6666666666667 21.3333333333333 407.4666666666667 21.3333333333333 384V106.6666666666667C21.3333333333333 83.2 40.5333333333333 64 64 64H192C215.4666666666667 64 234.6666666666667 83.2 234.6666666666667 106.6666666666667V384C234.6666666666667 407.4666666666667 215.4666666666667 426.6666666666667 192 426.6666666666667M192 128H64V384H192V128M448 170.6666666666667H277.3333333333333V128H448V0H192V21.3333333333334H128V0C128 -23.4666666666667 147.2 -42.6666666666666 170.6666666666667 -42.6666666666666H448C471.4666666666667 -42.6666666666666 490.6666666666666 -23.4666666666667 490.6666666666666 0V128C490.6666666666666 151.4666666666667 471.4666666666667 170.6666666666667 448 170.6666666666667M490.6666666666666 234.6666666666667L405.3333333333333 277.3333333333334L446.08 296.7466666666667C421.12 356.0533333333334 362.6666666666667 394.6666666666667 298.6666666666667 394.6666666666667V426.6666666666667C404.6933333333333 426.6666666666667 490.6666666666666 340.6933333333334 490.6666666666666 234.6666666666667z" /></svg>