<?xml version="1.0" encoding="UTF-8"?><!DOCTYPE svg PUBLIC "-//W3C//DTD SVG 1.1//EN" "http://www.w3.org/Graphics/SVG/1.1/DTD/svg11.dtd"><svg xmlns="http://www.w3.org/2000/svg" xmlns:xlink="http://www.w3.org/1999/xlink" version="1.1" width="512" height="512" viewBox="0 0 512 512">    <path fill="#ffffff" transform="scale(1, -1) translate(0, -448)" glyph-name="minidisc" unicode="&#xFA05;" horiz-adv-x="512" d=" M106.6666666666667 384C82.9866666666667 384 64 365.0133333333333 64 341.3333333333334V42.6666666666667C64 19.2 83.2 0 106.6666666666667 0H405.3333333333333C428.8 0 448 19.2 448 42.6666666666667V341.3333333333334C448 365.0133333333333 428.8 384 405.3333333333333 384H106.6666666666667M256 341.3333333333334C321.92 341.3333333333334 380.16 297.8133333333334 398.9333333333333 234.6666666666667H341.3333333333333C329.6 234.6666666666667 320 225.0666666666667 320 213.3333333333334V170.6666666666667C320 158.9333333333333 329.6 149.3333333333334 341.3333333333333 149.3333333333334H399.1466666666667C380.16 85.9733333333334 321.92 42.6666666666667 256 42.6666666666667C173.44 42.6666666666667 106.6666666666667 109.44 106.6666666666667 192S173.44 341.3333333333334 256 341.3333333333334M256 234.6666666666667C232.5333333333334 234.6666666666667 213.3333333333333 215.4666666666667 213.3333333333333 192S232.5333333333334 149.3333333333334 256 149.3333333333334S298.6666666666667 168.5333333333334 298.6666666666667 192S279.4666666666667 234.6666666666667 256 234.6666666666667z" /></svg>