<?xml version="1.0" encoding="UTF-8"?><!DOCTYPE svg PUBLIC "-//W3C//DTD SVG 1.1//EN" "http://www.w3.org/Graphics/SVG/1.1/DTD/svg11.dtd"><svg xmlns="http://www.w3.org/2000/svg" xmlns:xlink="http://www.w3.org/1999/xlink" version="1.1" width="512" height="512" viewBox="0 0 512 512">    <path fill="#ffffff" transform="scale(1, -1) translate(0, -448)" glyph-name="google-circles-group" unicode="&#xF2B3;" horiz-adv-x="512" d=" M106.6666666666667 234.6666666666667C83.2 234.6666666666667 64 215.4666666666667 64 192C64 168.3200000000001 83.2 149.3333333333334 106.6666666666667 149.3333333333334C130.3466666666667 149.3333333333334 149.3333333333333 168.3200000000001 149.3333333333333 192C149.3333333333333 215.4666666666667 130.1333333333333 234.6666666666667 106.6666666666667 234.6666666666667M106.6666666666667 106.6666666666667C59.52 106.6666666666667 21.3333333333333 144.8533333333334 21.3333333333333 192S59.52 277.3333333333334 106.6666666666667 277.3333333333334S192 239.1466666666667 192 192S153.8133333333333 106.6666666666667 106.6666666666667 106.6666666666667M224 213.3333333333334H298.6666666666667V277.3333333333334L384 192L298.6666666666667 106.6666666666667V170.6666666666667H224V213.3333333333334M106.6666666666667 320C97.0666666666667 320 87.68 318.9333333333334 78.72 317.0133333333333C120.1066666666667 382.9333333333334 193.7066666666667 426.6666666666667 277.3333333333333 426.6666666666667C407.04 426.6666666666667 512 321.7066666666667 512 192S407.04 -42.6666666666666 277.3333333333333 -42.6666666666666C193.7066666666667 -42.6666666666666 120.1066666666667 1.0666666666667 78.72 66.9866666666667C87.68 65.0666666666667 97.0666666666667 64 106.6666666666667 64C123.7333333333333 64 139.9466666666667 67.4133333333334 154.6666666666667 73.3866666666667C185.8133333333333 41.1733333333333 229.12 21.3333333333334 277.3333333333333 21.3333333333334C371.6266666666667 21.3333333333334 448 97.7066666666667 448 192S371.6266666666667 362.6666666666667 277.3333333333333 362.6666666666667C229.12 362.6666666666667 185.8133333333333 342.8266666666667 154.6666666666667 310.6133333333334C139.9466666666667 316.5866666666667 123.7333333333333 320 106.6666666666667 320z" /></svg>