<?xml version="1.0" encoding="UTF-8"?><!DOCTYPE svg PUBLIC "-//W3C//DTD SVG 1.1//EN" "http://www.w3.org/Graphics/SVG/1.1/DTD/svg11.dtd"><svg xmlns="http://www.w3.org/2000/svg" xmlns:xlink="http://www.w3.org/1999/xlink" version="1.1" width="512" height="512" viewBox="0 0 512 512">    <path fill="#ffffff" transform="scale(1, -1) translate(0, -448)" glyph-name="incognito" unicode="&#xF5F9;" horiz-adv-x="512" d=" M256 384C198.6133333333334 384 158.08 357.9733333333334 158.08 357.9733333333334L128 256H384L353.92 357.9733333333334S313.3866666666667 384 256 384M256 213.3333333333334C197.76 213.3333333333334 114.9866666666667 201.8133333333334 109.44 200.7466666666667C87.2533333333333 194.7733333333334 69.3333333333333 188.8 55.2533333333333 183.2533333333333C33.7066666666667 176 21.3333333333333 170.6666666666667 21.3333333333333 170.6666666666667H490.6666666666666S478.2933333333334 176 456.7466666666667 183.2533333333333C442.6666666666667 188.8 424.32 194.7733333333333 401.92 200.7466666666667C401.92 200.7466666666667 316.16 213.3333333333334 256 213.3333333333334M160 149.3333333333334C118.8266666666667 149.3333333333334 85.3333333333333 115.84 85.3333333333333 74.6666666666667S118.8266666666667 0 160 0S234.6666666666667 33.4933333333333 234.6666666666667 74.6666666666667C234.6666666666667 78.08 234.6666666666667 81.4933333333333 234.0266666666667 84.6933333333333C240.8533333333334 86.1866666666667 248.1066666666667 87.4666666666666 256 87.2533333333333C263.8933333333333 87.2533333333333 271.1466666666667 86.1866666666667 277.9733333333333 84.6933333333333C277.3333333333333 81.4933333333333 277.3333333333333 78.08 277.3333333333333 74.6666666666667C277.3333333333333 33.4933333333333 310.8266666666667 0 352 0S426.6666666666667 33.4933333333333 426.6666666666667 74.6666666666667S393.1733333333333 149.3333333333334 352 149.3333333333334C320.64 149.3333333333334 293.76 130.1333333333333 282.6666666666667 102.6133333333334C275.84 104.7466666666667 267.7333333333334 106.6666666666667 256 106.6666666666667S236.16 104.7466666666667 229.3333333333333 102.6133333333334C218.24 130.1333333333333 191.36 149.3333333333334 160 149.3333333333334M160 128C189.44 128 213.3333333333333 104.1066666666667 213.3333333333333 74.6666666666667S189.44 21.3333333333334 160 21.3333333333334S106.6666666666667 45.2266666666667 106.6666666666667 74.6666666666667S130.56 128 160 128M352 128C381.44 128 405.3333333333333 104.1066666666667 405.3333333333333 74.6666666666667S381.44 21.3333333333334 352 21.3333333333334S298.6666666666667 45.2266666666667 298.6666666666667 74.6666666666667S322.56 128 352 128z" /></svg>