<?xml version="1.0" encoding="UTF-8"?><!DOCTYPE svg PUBLIC "-//W3C//DTD SVG 1.1//EN" "http://www.w3.org/Graphics/SVG/1.1/DTD/svg11.dtd"><svg xmlns="http://www.w3.org/2000/svg" xmlns:xlink="http://www.w3.org/1999/xlink" version="1.1" width="512" height="512" viewBox="0 0 512 512">    <path fill="#ffffff" transform="scale(1, -1) translate(0, -448)" glyph-name="format-strikethrough-variant" unicode="&#xF281;" horiz-adv-x="512" d=" M490.6666666666666 192V149.3333333333334H397.0133333333333C418.3466666666667 103.68 417.28 -21.3333333333333 264.1066666666667 -21.3333333333333C86.4 -22.4 93.2266666666667 117.3333333333334 93.2266666666667 117.3333333333334L177.92 116.2666666666667C178.56 44.3733333333333 245.3333333333333 44.3733333333333 258.56 45.2266666666666C272.2133333333333 46.2933333333333 323.2 46.0799999999999 327.2533333333334 95.9999999999999C328.96 119.2533333333333 305.4933333333334 136.9599999999999 279.8933333333333 149.3333333333333H21.3333333333333V192H490.6666666666666M414.08 279.68L329.1733333333333 280.32S332.8 339.4133333333333 259.2 339.6266666666666C185.6 340.0533333333334 192 292.6933333333334 192 286.7200000000001C192.8533333333333 280.7466666666667 199.2533333333333 251.3066666666667 256 237.2266666666667H121.8133333333333S47.36 380.8 229.12 405.3333333333333C414.9333333333334 430.9333333333334 414.5066666666667 279.2533333333334 414.08 279.68z" /></svg>