<?xml version="1.0" encoding="UTF-8"?><!DOCTYPE svg PUBLIC "-//W3C//DTD SVG 1.1//EN" "http://www.w3.org/Graphics/SVG/1.1/DTD/svg11.dtd"><svg xmlns="http://www.w3.org/2000/svg" xmlns:xlink="http://www.w3.org/1999/xlink" version="1.1" width="512" height="512" viewBox="0 0 512 512">    <path fill="#ffffff" transform="scale(1, -1) translate(0, -448)" glyph-name="desk-lamp" unicode="&#xF95E;" horiz-adv-x="512" d=" M231.4666666666667 405.3333333333333L195.84 352L220.16 336L152.32 234.6666666666667H149.3333333333333C125.8666666666667 234.6666666666667 106.6666666666667 215.4666666666667 106.6666666666667 192C106.6666666666667 171.9466666666667 120.7466666666667 154.6666666666667 140.3733333333333 150.4L226.56 21.3333333333334H149.3333333333333V-21.3333333333333H362.6666666666667V21.3333333333334H277.3333333333333L181.9733333333334 164.6933333333333C188.3733333333334 172.3733333333333 192 181.9733333333334 192 192C192 198.4 190.5066666666667 204.8 187.7333333333334 210.56L256 312.1066666666667C251.3066666666667 276.2666666666667 272 237.0133333333333 308.2666666666667 213.3333333333334L402.9866666666667 354.7733333333333C366.9333333333333 378.88 322.56 383.1466666666667 291.2 365.44L231.4666666666667 405.3333333333333M391.04 298.6666666666667L355.6266666666666 245.3333333333334C370.1333333333333 235.7333333333334 390.1866666666666 239.5733333333334 400 254.2933333333334C409.8133333333334 269.0133333333333 405.3333333333333 288.8533333333334 391.04 298.6666666666667z" /></svg>