<?xml version="1.0" encoding="UTF-8"?><!DOCTYPE svg PUBLIC "-//W3C//DTD SVG 1.1//EN" "http://www.w3.org/Graphics/SVG/1.1/DTD/svg11.dtd"><svg xmlns="http://www.w3.org/2000/svg" xmlns:xlink="http://www.w3.org/1999/xlink" version="1.1" width="512" height="512" viewBox="0 0 512 512">    <path fill="#ffffff" transform="scale(1, -1) translate(0, -448)" glyph-name="silverware-variant" unicode="&#xF4A6;" horiz-adv-x="512" d=" M172.8 163.4133333333334L83.4133333333333 252.5866666666667C50.1333333333333 286.0800000000001 50.1333333333333 340.0533333333334 83.4133333333333 373.3333333333334L233.1733333333333 224L172.8 163.4133333333334M286.08 170.6666666666667L432.8533333333333 23.8933333333334L402.7733333333333 -6.1866666666666L256 140.5866666666667L109.2266666666667 -6.1866666666666L79.1466666666667 23.8933333333334L285.0133333333333 229.9733333333334L280.7466666666667 234.6666666666667C264.1066666666667 251.0933333333334 264.1066666666667 277.9733333333334 280.7466666666667 294.6133333333334L373.3333333333333 387.8400000000001L393.1733333333333 368.2133333333334L324.0533333333333 298.6666666666667L344.5333333333333 278.6133333333334L413.6533333333333 347.9466666666667L433.2800000000001 328.3200000000001L363.9466666666667 259.2000000000001L384.0000000000001 238.7200000000001L453.5466666666667 308.0533333333334L473.1733333333335 288.0000000000001L379.9466666666668 195.4133333333334C363.3066666666668 178.7733333333334 336.4266666666668 178.7733333333334 320.0000000000001 195.4133333333334L315.3066666666668 199.68L286.08 170.6666666666667z" /></svg>