<?xml version="1.0" encoding="UTF-8"?><!DOCTYPE svg PUBLIC "-//W3C//DTD SVG 1.1//EN" "http://www.w3.org/Graphics/SVG/1.1/DTD/svg11.dtd"><svg xmlns="http://www.w3.org/2000/svg" xmlns:xlink="http://www.w3.org/1999/xlink" version="1.1" width="512" height="512" viewBox="0 0 512 512">    <path fill="#ffffff" transform="scale(1, -1) translate(0, -448)" glyph-name="cloud-upload-outline" unicode="&#xFB5A;" horiz-adv-x="512" d=" M412.8 233.8133333333334C398.2933333333334 307.4133333333334 333.6533333333333 362.6666666666667 256 362.6666666666667C194.3466666666666 362.6666666666667 140.8 327.68 114.1333333333333 276.48C49.92 269.6533333333334 0 215.2533333333333 0 149.3333333333334C0 78.72 57.3866666666667 21.3333333333334 128 21.3333333333334H405.3333333333333C464.2133333333333 21.3333333333334 512 69.1200000000001 512 128C512 184.3200000000001 468.2666666666667 229.9733333333334 412.8 233.8133333333334M405.3333333333333 64H128C80.8533333333333 64 42.6666666666667 102.1866666666667 42.6666666666667 149.3333333333334C42.6666666666667 193.0666666666667 75.3066666666667 229.5466666666667 118.6133333333334 234.0266666666667L141.44 236.3733333333334L152.1066666666667 256.64C172.3733333333333 295.68 212.0533333333333 320 256 320C311.8933333333333 320 360.1066666666667 280.32 370.9866666666667 225.4933333333334L377.3866666666667 193.4933333333334L410.0266666666667 191.1466666666667C443.3066666666667 189.0133333333334 469.3333333333334 161.0666666666667 469.3333333333334 128C469.3333333333334 92.5866666666667 440.7466666666668 64 405.3333333333334 64M170.6666666666667 170.6666666666667H225.0666666666667V106.6666666666667H286.9333333333334V170.6666666666667H341.3333333333333L256 256L170.6666666666667 170.6666666666667z" /></svg>