<?xml version="1.0" encoding="UTF-8"?><!DOCTYPE svg PUBLIC "-//W3C//DTD SVG 1.1//EN" "http://www.w3.org/Graphics/SVG/1.1/DTD/svg11.dtd"><svg xmlns="http://www.w3.org/2000/svg" xmlns:xlink="http://www.w3.org/1999/xlink" version="1.1" width="512" height="512" viewBox="0 0 512 512">    <path fill="#ffffff" transform="scale(1, -1) translate(0, -448)" glyph-name="bullseye-arrow" unicode="&#xF8C8;" horiz-adv-x="512" d=" M256 405.3333333333333C138.24 405.3333333333333 42.6666666666667 309.76 42.6666666666667 192S138.24 -21.3333333333333 256 -21.3333333333333S469.3333333333333 74.24 469.3333333333333 192C469.3333333333333 216.7466666666667 464.8533333333333 241.2800000000001 456.32 264.3200000000001L422.1866666666666 230.1866666666667C425.1733333333333 217.6 426.6666666666667 204.8000000000001 426.6666666666667 192C426.6666666666667 97.7066666666667 350.2933333333334 21.3333333333334 256 21.3333333333334S85.3333333333333 97.7066666666667 85.3333333333333 192S161.7066666666667 362.6666666666667 256 362.6666666666667C268.8 362.6666666666667 281.6 361.1733333333334 294.1866666666666 358.1866666666667L328.5333333333333 392.5333333333333C305.28 400.8533333333334 280.7466666666667 405.3333333333333 256 405.3333333333333M405.3333333333333 405.3333333333333L320 320V288L265.6 233.6C262.4 234.6666666666667 259.2 234.6666666666667 256 234.6666666666667C232.5333333333334 234.6666666666667 213.3333333333333 215.4666666666667 213.3333333333333 192S232.5333333333334 149.3333333333334 256 149.3333333333334S298.6666666666667 168.5333333333334 298.6666666666667 192C298.6666666666667 195.2 298.6666666666667 198.4 297.6 201.6L352 256H384L469.3333333333333 341.3333333333334H405.3333333333333V405.3333333333333M256 320C185.3866666666667 320 128 262.6133333333334 128 192S185.3866666666667 64 256 64S384 121.3866666666667 384 192H341.3333333333333C341.3333333333333 144.8533333333334 303.1466666666667 106.6666666666667 256 106.6666666666667S170.6666666666667 144.8533333333334 170.6666666666667 192S208.8533333333333 277.3333333333334 256 277.3333333333334V320z" /></svg>