<?xml version="1.0" encoding="UTF-8"?><!DOCTYPE svg PUBLIC "-//W3C//DTD SVG 1.1//EN" "http://www.w3.org/Graphics/SVG/1.1/DTD/svg11.dtd"><svg xmlns="http://www.w3.org/2000/svg" xmlns:xlink="http://www.w3.org/1999/xlink" version="1.1" width="512" height="512" viewBox="0 0 512 512">    <path fill="#ffffff" transform="scale(1, -1) translate(0, -448)" glyph-name="file-powerpoint-box" unicode="&#xF228;" horiz-adv-x="512" d=" M209.0666666666667 162.1333333333333H262.4C294.4 162.1333333333333 308.48 168.1066666666667 322.1333333333334 179.6266666666667C335.7866666666667 191.36 341.3333333333333 208 341.3333333333333 229.76C341.3333333333333 250.4533333333334 336 266.6666666666667 322.1333333333334 279.8933333333333C308.2666666666667 292.48 295.04 298.6666666666667 262.4 298.6666666666667H170.6666666666667V85.3333333333334H209.0666666666667V162.1333333333333M405.3333333333333 384C428.8 384 448 364.8 448 341.3333333333334V42.6666666666667C448 19.2 428.8 0 405.3333333333333 0H106.6666666666667C83.2 0 64 19.2 64 42.6666666666667V341.3333333333334C64 365.0133333333333 83.2 384 106.6666666666667 384H405.3333333333333M209.0666666666667 192V268.8H258.1333333333334C272.2133333333334 268.8 283.0933333333334 263.4666666666667 290.1333333333334 256C297.1733333333334 248.5333333333334 300.8 240.64 300.8 229.5466666666667C300.8 217.6 296.9600000000001 209.28 290.1333333333334 202.6666666666667C283.3066666666667 196.0533333333334 275.2000000000001 192 260.6933333333334 192H209.0666666666667z" /></svg>