<?xml version="1.0" encoding="UTF-8"?><!DOCTYPE svg PUBLIC "-//W3C//DTD SVG 1.1//EN" "http://www.w3.org/Graphics/SVG/1.1/DTD/svg11.dtd"><svg xmlns="http://www.w3.org/2000/svg" xmlns:xlink="http://www.w3.org/1999/xlink" version="1.1" width="512" height="512" viewBox="0 0 512 512">    <path fill="#ffffff" transform="scale(1, -1) translate(0, -448)" glyph-name="home-circle" unicode="&#xF7D1;" horiz-adv-x="512" d=" M406.8266666666667 342.8266666666667C367.36 384 312.7466666666667 406.1866666666667 256 405.3333333333333C199.2533333333333 406.1866666666667 144.8533333333333 384 105.3866666666667 342.8266666666667C64 303.36 41.8133333333333 248.7466666666667 42.6666666666667 192C41.8133333333333 135.2533333333333 64 80.8533333333334 105.1733333333333 41.3866666666667C144.64 0 199.2533333333333 -22.1866666666666 256 -21.3333333333333C312.7466666666667 -22.1866666666666 367.1466666666667 0 406.6133333333333 41.1733333333333C448 80.64 470.1866666666666 135.2533333333333 469.3333333333333 192C470.1866666666666 248.7466666666667 448 303.36 406.8266666666667 342.8266666666667M362.6666666666667 192V64H288V170.6666666666667H224V64H149.3333333333333V192H106.6666666666667L256 341.3333333333334L416 192H362.6666666666667z" /></svg>