<?xml version="1.0" encoding="UTF-8"?><!DOCTYPE svg PUBLIC "-//W3C//DTD SVG 1.1//EN" "http://www.w3.org/Graphics/SVG/1.1/DTD/svg11.dtd"><svg xmlns="http://www.w3.org/2000/svg" xmlns:xlink="http://www.w3.org/1999/xlink" version="1.1" width="512" height="512" viewBox="0 0 512 512">    <path fill="#ffffff" transform="scale(1, -1) translate(0, -448)" glyph-name="domain" unicode="&#xF1D7;" horiz-adv-x="512" d=" M384 128H341.3333333333333V85.3333333333334H384M384 213.3333333333334H341.3333333333333V170.6666666666667H384M426.6666666666667 42.6666666666667H256V85.3333333333334H298.6666666666667V128H256V170.6666666666667H298.6666666666667V213.3333333333334H256V256H426.6666666666667M213.3333333333333 298.6666666666667H170.6666666666667V341.3333333333334H213.3333333333333M213.3333333333333 213.3333333333334H170.6666666666667V256H213.3333333333333M213.3333333333333 128H170.6666666666667V170.6666666666667H213.3333333333333M213.3333333333333 42.6666666666667H170.6666666666667V85.3333333333334H213.3333333333333M128 298.6666666666667H85.3333333333333V341.3333333333334H128M128 213.3333333333334H85.3333333333333V256H128M128 128H85.3333333333333V170.6666666666667H128M128 42.6666666666667H85.3333333333333V85.3333333333334H128M256 298.6666666666667V384H42.6666666666667V0H469.3333333333333V298.6666666666667H256z" /></svg>