<?xml version="1.0" encoding="UTF-8"?><!DOCTYPE svg PUBLIC "-//W3C//DTD SVG 1.1//EN" "http://www.w3.org/Graphics/SVG/1.1/DTD/svg11.dtd"><svg xmlns="http://www.w3.org/2000/svg" xmlns:xlink="http://www.w3.org/1999/xlink" version="1.1" width="512" height="512" viewBox="0 0 512 512">    <path fill="#ffffff" transform="scale(1, -1) translate(0, -448)" glyph-name="water-outline" unicode="&#xFE6A;" horiz-adv-x="512" d=" M256 367.5733333333333L240 349.6533333333333S212.6933333333333 318.7200000000001 185.1733333333333 278.6133333333334C157.6533333333333 238.5066666666667 128 190.5066666666667 128 144.4266666666667C128 73.8133333333334 185.3866666666667 16.4266666666667 256 16.4266666666667S384 73.8133333333334 384 144.4266666666667C384 190.5066666666667 354.3466666666667 238.5066666666667 326.8266666666667 278.6133333333334C299.3066666666667 318.7200000000001 272 349.6533333333333 272 349.6533333333333L256 367.5733333333333M256 300.8C265.3866666666667 289.7066666666667 273.92 280.5333333333333 291.84 254.5066666666667C317.6533333333333 216.96 341.3333333333333 169.1733333333334 341.3333333333333 144.4266666666667C341.3333333333333 97.0666666666667 303.36 59.0933333333334 256 59.0933333333334C208.64 59.0933333333334 170.6666666666667 97.0666666666667 170.6666666666667 144.4266666666667C170.6666666666667 169.1733333333334 194.3466666666666 216.96 220.16 254.5066666666667C238.08 280.5333333333333 246.6133333333334 289.7066666666667 256 300.8z" /></svg>