<?xml version="1.0" encoding="UTF-8"?><!DOCTYPE svg PUBLIC "-//W3C//DTD SVG 1.1//EN" "http://www.w3.org/Graphics/SVG/1.1/DTD/svg11.dtd"><svg xmlns="http://www.w3.org/2000/svg" xmlns:xlink="http://www.w3.org/1999/xlink" version="1.1" width="512" height="512" viewBox="0 0 512 512">    <path fill="#ffffff" transform="scale(1, -1) translate(0, -448)" glyph-name="emoticon-poop-outline" unicode="&#xFC51;" horiz-adv-x="512" d=" M456.96 152.1066666666667C452.2666666666667 161.9200000000001 444.5866666666667 171.9466666666667 432 178.3466666666667C423.4666666666667 183.6800000000001 416 186.4533333333334 410.4533333333333 187.7333333333334C416 208 408.1066666666667 224 397.2266666666666 235.9466666666667C380.8 253.4400000000001 363.9466666666666 256 363.9466666666666 256C369.4933333333334 266.6666666666667 371.6266666666666 279.4666666666667 368.64 291.8400000000001C365.2266666666666 306.9866666666667 356.9066666666666 316.5866666666667 346.0266666666667 322.9866666666667C334.9333333333333 329.6 321.28 332.8 307.2 335.36C300.3733333333333 336.64 272 340.6933333333334 260.2666666666667 356.9066666666667C250.6666666666667 370.1333333333334 250.4533333333333 394.0266666666667 247.8933333333333 401.0666666666667C246.8266666666667 403.84 245.3333333333333 405.3333333333333 242.3466666666667 405.3333333333333C237.8666666666666 405.3333333333333 231.8933333333333 402.7733333333333 225.4933333333334 398.5066666666667C213.3333333333333 390.4 188.8 364.8 179.2 339.2000000000001C171.9466666666667 320 171.7333333333334 302.5066666666667 174.72 289.4933333333334C162.7733333333333 287.36 154.0266666666667 283.52 150.6133333333333 282.0266666666667C139.7333333333333 277.3333333333334 116.6933333333333 256.8533333333334 114.56 225.0666666666667C113.92 215.68 115.4133333333333 206.08 117.3333333333333 196.6933333333334V191.36C104.1066666666666 187.3066666666667 96.64 182.8266666666667 96 182.6133333333334C89.1733333333333 180.0533333333334 77.8666666666667 172.16 74.6666666666666 167.8933333333334C67.2 159.36 62.2933333333333 149.3333333333334 59.52 138.6666666666667C53.3333333333333 115.4133333333334 55.4666666666667 88.96 66.7733333333333 67.6266666666667C72.96 55.6800000000001 81.4933333333333 42.6666666666667 90.88 33.4933333333333C121.6 1.92 174.5066666666667 -10.0266666666666 216.32 -16.8533333333333C233.8133333333333 -19.84 251.7333333333333 -21.3333333333333 269.44 -21.3333333333333C303.36 -21.3333333333333 337.0666666666666 -15.5733333333333 368.2133333333333 -2.7733333333333C439.68 26.8800000000001 458.6666666666666 74.6666666666667 461.6533333333333 87.68C467.8399999999999 117.3333333333334 460.1599999999999 145.28 456.9599999999999 152.1066666666667M342.3999999999999 206.2933333333333C354.3466666666666 205.6533333333333 363.5199999999999 195.4133333333333 362.6666666666666 183.4666666666667C361.8133333333333 171.7333333333333 351.9999999999999 162.56 339.4133333333333 163.4133333333333C327.4666666666666 164.0533333333333 318.2933333333333 174.2933333333333 319.1466666666666 186.0266666666667C319.9999999999999 197.3333333333333 328.9599999999999 205.8666666666667 340.0533333333333 206.2933333333333H342.3999999999999M430.5066666666666 94.9333333333333C430.2933333333332 94.5066666666667 420.2666666666666 53.3333333333334 356.0533333333333 26.88C330.0266666666666 15.9999999999999 300.8 10.6666666666666 269.44 10.6666666666666C253.8666666666666 10.6666666666666 237.6533333333333 11.9466666666666 221.44 14.72C186.88 20.2666666666667 138.6666666666666 30.72 113.28 56.3199999999999C107.52 62.0799999999999 100.6933333333333 71.8933333333333 95.1466666666667 82.56C87.8933333333333 95.9999999999999 86.1866666666666 114.1333333333333 90.4533333333333 130.56C92.16 136.96 94.9333333333333 142.5066666666667 98.7733333333333 146.7733333333333L99.2 147.4133333333333C101.12 149.3333333333333 105.6 151.8933333333333 107.3066666666666 152.7466666666666L109.6533333333333 153.5999999999999L112.2133333333333 154.88C113.4933333333333 155.7333333333332 116.48 157.2266666666666 120.96 158.9333333333333C130.7733333333333 132.0533333333333 155.3066666666667 113.0666666666666 183.2533333333333 113.0666666666666C184.96 113.0666666666666 186.4533333333333 113.2799999999999 188.16 113.2799999999999C205.8666666666667 114.56 222.08 123.3066666666666 233.3866666666667 137.5999999999999C244.6933333333334 151.68 250.24 169.8133333333333 248.7466666666667 188.3733333333332C246.1866666666667 223.9999999999999 218.0266666666667 252.5866666666666 184.3200000000001 253.6533333333333H183.8933333333334C181.3333333333334 253.6533333333333 179.2000000000001 253.6533333333333 177.28 253.4399999999999C170.6666666666667 252.8 164.9066666666667 251.0933333333333 159.1466666666667 248.7466666666666C161.0666666666667 250.8799999999999 162.7733333333334 252.3733333333332 163.4133333333334 252.7999999999999C166.1866666666667 253.8666666666666 172.16 255.9999999999999 180.2666666666667 257.9199999999999L213.3333333333333 263.8933333333333L205.8666666666667 296.7466666666667C205.0133333333334 300.8 203.3066666666667 312.5333333333333 209.28 327.8933333333333C212.48 337.0666666666667 219.0933333333334 346.4533333333333 225.7066666666667 354.56C227.84 348.8 230.6133333333334 343.2533333333334 234.6666666666667 338.1333333333334C251.0933333333333 315.0933333333334 279.8933333333333 307.6266666666667 299.9466666666667 304.2133333333334L301.44 303.7866666666667C311.4666666666667 302.0800000000001 322.7733333333333 299.7333333333334 329.8133333333334 295.4666666666667C334.2933333333334 292.6933333333334 336.2133333333334 289.92 337.4933333333334 284.3733333333334C338.56 280.1066666666667 337.92 275.2000000000001 335.5733333333333 270.7200000000001L324.48 251.7333333333333C297.6 245.3333333333333 276.2666666666667 221.0133333333333 272.8533333333334 190.72C268.5866666666667 152.1066666666667 293.9733333333334 118.1866666666667 330.6666666666667 113.4933333333334C333.2266666666667 113.28 335.7866666666667 113.0666666666667 338.1333333333334 113.0666666666667C353.28 113.0666666666667 368 118.6133333333334 380.16 129.0666666666667C388.9066666666667 136.7466666666667 395.52 146.5600000000001 399.7866666666667 157.4400000000001L403.2000000000001 156.5866666666667C405.3333333333334 156.1600000000001 408.9600000000001 154.8800000000001 414.9333333333334 151.2533333333334L416.0000000000001 150.4000000000001L417.4933333333334 149.3333333333334C421.9733333333334 147.6266666666667 425.3866666666668 143.7866666666668 427.7333333333334 138.6666666666668C429.4400000000001 135.0400000000001 434.7733333333334 115.2000000000001 430.5066666666667 94.9333333333334M162.9866666666667 182.4000000000001C161.4933333333334 194.1333333333334 170.0266666666668 205.0133333333334 181.9733333333334 206.5066666666668C182.8266666666668 206.7200000000001 183.4666666666668 206.7200000000001 184.3200000000001 206.7200000000001C195.2000000000001 206.9333333333334 205.0133333333334 199.0400000000001 206.2933333333334 187.9466666666667C207.5733333333334 176.2133333333334 199.0400000000001 165.3333333333334 187.0933333333334 163.8400000000001C175.1466666666667 162.3466666666668 164.2666666666667 170.6666666666668 162.9866666666667 182.4000000000001M185.8133333333334 103.4666666666667C192 103.6800000000001 197.5466666666668 101.7600000000001 202.6666666666668 100.6933333333334C227.8400000000001 96.0000000000001 249.6000000000001 95.3600000000001 260.0533333333334 95.3600000000001C270.5066666666667 95.3600000000001 292.0533333333334 96.0000000000001 317.0133333333334 100.6933333333334C325.7600000000001 102.4 335.7866666666668 106.0266666666668 343.6800000000001 100.6933333333334C353.9200000000001 93.8666666666667 346.4533333333334 69.3333333333334 330.6666666666668 52.6933333333334C320.8533333333334 42.6666666666667 298.0266666666668 23.2533333333334 260.0533333333334 23.2533333333334S199.04 42.6666666666667 189.44 52.6933333333333C173.6533333333333 69.3333333333334 166.1866666666667 93.8666666666667 176.2133333333334 100.6933333333333C179.2000000000001 102.6133333333334 182.4 103.4666666666666 185.8133333333333 103.4666666666666z" /></svg>