<?xml version="1.0" encoding="UTF-8"?><!DOCTYPE svg PUBLIC "-//W3C//DTD SVG 1.1//EN" "http://www.w3.org/Graphics/SVG/1.1/DTD/svg11.dtd"><svg xmlns="http://www.w3.org/2000/svg" xmlns:xlink="http://www.w3.org/1999/xlink" version="1.1" width="512" height="512" viewBox="0 0 512 512">    <path fill="#ffffff" transform="scale(1, -1) translate(0, -448)" glyph-name="heart-multiple" unicode="&#xFA55;" horiz-adv-x="512" d=" M288 21.3333333333334C147.2 151.4666666666667 74.6666666666667 217.6 74.6666666666667 296.5333333333334C74.6666666666667 362.6666666666667 125.8666666666667 413.8666666666667 192 413.8666666666667C228.2666666666667 413.8666666666667 264.5333333333333 396.8 288 369.0666666666667C311.4666666666667 396.8 347.7333333333334 413.8666666666667 384 413.8666666666667C450.1333333333334 413.8666666666667 501.3333333333333 362.6666666666667 501.3333333333333 296.5333333333334C501.3333333333333 215.4666666666667 428.8 149.3333333333334 288 21.3333333333334M256 -2.1333333333333C115.2 123.7333333333334 32 198.4 32 298.6666666666667V311.4666666666667C19.2 292.2666666666667 10.6666666666667 268.8 10.6666666666667 243.2C10.6666666666667 162.1333333333333 83.2 96 224 -29.8666666666667L256 -2.1333333333333z" /></svg>