<?xml version="1.0" encoding="UTF-8"?><!DOCTYPE svg PUBLIC "-//W3C//DTD SVG 1.1//EN" "http://www.w3.org/Graphics/SVG/1.1/DTD/svg11.dtd"><svg xmlns="http://www.w3.org/2000/svg" xmlns:xlink="http://www.w3.org/1999/xlink" version="1.1" width="512" height="512" viewBox="0 0 512 512">    <path fill="#ffffff" transform="scale(1, -1) translate(0, -448)" glyph-name="format-list-numbered" unicode="&#xF27B;" horiz-adv-x="512" d=" M149.3333333333333 170.6666666666667V213.3333333333334H448V170.6666666666667H149.3333333333333M149.3333333333333 42.6666666666667V85.3333333333334H448V42.6666666666667H149.3333333333333M149.3333333333333 298.6666666666667V341.3333333333334H448V298.6666666666667H149.3333333333333M64 277.3333333333334V341.3333333333334H42.6666666666667V362.6666666666667H85.3333333333333V277.3333333333334H64M42.6666666666667 85.3333333333334V106.6666666666667H106.6666666666667V21.3333333333334H42.6666666666667V42.6666666666667H85.3333333333333V53.3333333333334H64V74.6666666666667H85.3333333333333V85.3333333333334H42.6666666666667M90.6666666666667 234.6666666666667C99.4133333333333 234.6666666666667 106.6666666666667 227.4133333333334 106.6666666666667 218.6666666666667C106.6666666666667 214.4 104.96 210.3466666666667 102.1866666666667 207.5733333333334L66.56 170.6666666666667H106.6666666666667V149.3333333333334H42.6666666666667V168.96L85.3333333333333 213.3333333333334H42.6666666666667V234.6666666666667H90.6666666666667z" /></svg>