<?xml version="1.0" encoding="UTF-8"?><!DOCTYPE svg PUBLIC "-//W3C//DTD SVG 1.1//EN" "http://www.w3.org/Graphics/SVG/1.1/DTD/svg11.dtd"><svg xmlns="http://www.w3.org/2000/svg" xmlns:xlink="http://www.w3.org/1999/xlink" version="1.1" width="512" height="512" viewBox="0 0 512 512">    <path fill="#ffffff" transform="scale(1, -1) translate(0, -448)" glyph-name="brightness-4" unicode="&#xF0DD;" horiz-adv-x="512" d=" M256 64C237.0133333333333 64 218.88 68.2666666666667 202.6666666666667 75.7333333333334C246.6133333333334 96 277.3333333333333 140.3733333333333 277.3333333333333 192C277.3333333333333 243.6266666666667 246.6133333333334 288 202.6666666666667 308.2666666666667C218.88 315.7333333333334 237.0133333333333 320 256 320C326.6133333333334 320 384 262.6133333333334 384 192S326.6133333333334 64 256 64M426.6666666666667 262.6133333333334V362.6666666666667H326.6133333333333L256 433.28L185.3866666666667 362.6666666666667H85.3333333333333V262.6133333333334L14.72 192L85.3333333333333 121.3866666666667V21.3333333333334H185.3866666666667L256 -49.28L326.6133333333334 21.3333333333334H426.6666666666667V121.3866666666667L497.28 192L426.6666666666667 262.6133333333334z" /></svg>