<?xml version="1.0" encoding="UTF-8"?><!DOCTYPE svg PUBLIC "-//W3C//DTD SVG 1.1//EN" "http://www.w3.org/Graphics/SVG/1.1/DTD/svg11.dtd"><svg xmlns="http://www.w3.org/2000/svg" xmlns:xlink="http://www.w3.org/1999/xlink" version="1.1" width="512" height="512" viewBox="0 0 512 512">    <path fill="#ffffff" transform="scale(1, -1) translate(0, -448)" glyph-name="google-controller" unicode="&#xF2B4;" horiz-adv-x="512" d=" M170.0266666666667 106.6666666666667L106.6666666666667 42.6666666666667C99.6266666666667 36.2666666666667 90.24 32 80 32C59.3066666666667 32 42.6666666666667 48.64 42.6666666666667 69.3333333333334V74.6666666666667L64 232.1066666666667C68.48 281.3866666666667 109.6533333333333 320 160 320H352C402.3466666666667 320 443.52 281.3866666666667 448 232.1066666666667L469.3333333333333 74.6666666666667V69.3333333333334C469.3333333333333 48.64 452.6933333333333 32 432 32C421.76 32 412.3733333333333 36.2666666666667 405.3333333333333 42.6666666666667L341.9733333333334 106.6666666666667H170.0266666666667M149.3333333333333 277.3333333333334V234.6666666666667H106.6666666666667V213.3333333333334H149.3333333333333V170.6666666666667H170.6666666666667V213.3333333333334H213.3333333333333V234.6666666666667H170.6666666666667V277.3333333333334H149.3333333333333M352 277.3333333333334C343.2533333333334 277.3333333333334 336 270.0800000000001 336 261.3333333333334S343.2533333333334 245.3333333333334 352 245.3333333333334S368 252.5866666666667 368 261.3333333333334S360.7466666666667 277.3333333333334 352 277.3333333333334M314.6666666666667 240C305.92 240 298.6666666666667 232.7466666666667 298.6666666666667 224S305.92 208 314.6666666666667 208S330.6666666666667 215.2533333333333 330.6666666666667 224S323.4133333333333 240 314.6666666666667 240M389.3333333333333 240C380.5866666666667 240 373.3333333333333 232.7466666666667 373.3333333333333 224S380.5866666666667 208 389.3333333333333 208S405.3333333333333 215.2533333333333 405.3333333333333 224S398.08 240 389.3333333333333 240M352 202.6666666666667C343.2533333333334 202.6666666666667 336 195.4133333333334 336 186.6666666666667S343.2533333333334 170.6666666666667 352 170.6666666666667S368 177.92 368 186.6666666666667S360.7466666666667 202.6666666666667 352 202.6666666666667z" /></svg>