<?xml version="1.0" encoding="UTF-8"?><!DOCTYPE svg PUBLIC "-//W3C//DTD SVG 1.1//EN" "http://www.w3.org/Graphics/SVG/1.1/DTD/svg11.dtd"><svg xmlns="http://www.w3.org/2000/svg" xmlns:xlink="http://www.w3.org/1999/xlink" version="1.1" width="512" height="512" viewBox="0 0 512 512">    <path fill="#ffffff" transform="scale(1, -1) translate(0, -448)" glyph-name="cash-marker" unicode="&#xFD94;" horiz-adv-x="512" d=" M394.6666666666667 89.6C379.7333333333334 89.6 369.0666666666667 102.4 369.0666666666667 115.2C369.0666666666667 130.1333333333333 381.8666666666667 140.8 394.6666666666667 140.8S420.2666666666667 128 420.2666666666667 115.2C422.4 102.4 409.6 89.6 394.6666666666667 89.6M394.6666666666667 192C354.1333333333334 192 320 157.8666666666667 320 117.3333333333334C320 61.8666666666667 394.6666666666667 -21.3333333333333 394.6666666666667 -21.3333333333333S469.3333333333333 61.8666666666667 469.3333333333333 117.3333333333334C469.3333333333333 157.8666666666667 435.2 192 394.6666666666667 192M317.8666666666667 206.9333333333333C311.4666666666667 234.6666666666667 285.8666666666667 256 256 256C219.7333333333334 256 192 228.2666666666667 192 192S219.7333333333334 128 256 128C264.5333333333333 128 270.9333333333333 130.1333333333333 277.3333333333333 132.2666666666667C281.6 162.1333333333333 296.5333333333333 187.7333333333334 317.8666666666667 206.9333333333333M277.3333333333333 106.6666666666667H149.3333333333333C149.3333333333333 130.1333333333333 130.1333333333333 149.3333333333334 106.6666666666667 149.3333333333334V234.6666666666667C130.1333333333333 234.6666666666667 149.3333333333333 253.8666666666667 149.3333333333333 277.3333333333334H362.6666666666667C362.6666666666667 253.8666666666667 381.8666666666666 234.6666666666667 405.3333333333333 234.6666666666667C405.3333333333333 234.6666666666667 426.6666666666667 234.6666666666667 448 221.8666666666667V320H64V64H288C283.7333333333334 78.9333333333333 279.4666666666667 91.7333333333334 277.3333333333333 106.6666666666667z" /></svg>