<?xml version="1.0" encoding="UTF-8"?><!DOCTYPE svg PUBLIC "-//W3C//DTD SVG 1.1//EN" "http://www.w3.org/Graphics/SVG/1.1/DTD/svg11.dtd"><svg xmlns="http://www.w3.org/2000/svg" xmlns:xlink="http://www.w3.org/1999/xlink" version="1.1" width="512" height="512" viewBox="0 0 512 512">    <path fill="#ffffff" transform="scale(1, -1) translate(0, -448)" glyph-name="symfony" unicode="&#xFAE5;" horiz-adv-x="512" d=" M256 405.3333333333333C138.24 405.3333333333333 42.6666666666667 309.76 42.6666666666667 192S138.24 -21.3333333333333 256 -21.3333333333333S469.3333333333333 74.24 469.3333333333333 192S373.76 405.3333333333333 256 405.3333333333333M349.2266666666667 326.4C370.9866666666667 327.04 387.2000000000001 317.2266666666667 388.48 302.0800000000001C388.6933333333334 295.4666666666667 384.8533333333333 282.6666666666667 371.6266666666667 282.24C361.6 281.8133333333334 354.7733333333334 288 354.56 296.7466666666667C354.3466666666667 300.1600000000001 360.1066666666667 311.04 360.1066666666667 312.9600000000001C359.8933333333333 318.7200000000001 351.36 318.9333333333334 349.0133333333334 318.7200000000001C317.0133333333334 317.6533333333333 308.48 274.56 301.6533333333334 239.36L298.6666666666667 220.8C316.5866666666667 218.0266666666667 329.8133333333334 221.44 337.0666666666667 226.1333333333334C347.3066666666667 232.7466666666667 334.0800000000001 239.5733333333334 335.7866666666667 247.2533333333334C337.4933333333334 255.1466666666667 344.5333333333334 258.7733333333333 350.0800000000001 258.9866666666667C357.9733333333334 259.2000000000001 363.5200000000001 251.0933333333334 363.3066666666668 242.7733333333334C362.6666666666668 229.12 344.9600000000001 210.3466666666667 309.3333333333335 211.2C304.6400000000001 211.2 300.5866666666668 211.6266666666667 296.7466666666668 212.0533333333334C283.7333333333335 145.92 275.6266666666668 106.6666666666667 246.6133333333335 72.96C221.6533333333335 43.3066666666667 196.2666666666668 38.8266666666667 184.9600000000001 38.4C163.6266666666668 37.5466666666667 149.3333333333334 48.8533333333334 149.3333333333334 64C148.6933333333335 78.5066666666667 161.4933333333335 86.6133333333334 170.0266666666668 86.8266666666667C181.3333333333334 87.2533333333333 189.2266666666668 78.9333333333333 189.4400000000001 69.5466666666667C189.8666666666667 61.6533333333334 185.6000000000001 59.0933333333334 182.8266666666668 57.6000000000001C181.3333333333334 56.1066666666667 178.1333333333334 54.4000000000001 178.3466666666667 51.2C178.3466666666667 49.7066666666667 179.8400000000001 46.5066666666668 184.5333333333334 46.72C193.4933333333334 46.9333333333334 199.2533333333334 51.4133333333334 203.5200000000001 54.4C224.0000000000001 71.4666666666667 232.1066666666667 101.5466666666667 242.5600000000001 156.16C248.1066666666667 187.0933333333334 252.1600000000001 206.9333333333333 258.1333333333334 226.5600000000001C243.6266666666667 237.4400000000001 234.6666666666668 251.0933333333334 215.2533333333334 256C201.8133333333334 260.0533333333334 193.7066666666667 256.8533333333334 187.9466666666668 249.6C181.3333333333334 240.8533333333333 183.4666666666667 229.76 189.8666666666667 223.1466666666667C214.4000000000001 195.84 221.6533333333334 183.8933333333333 218.8800000000001 167.68C214.6133333333334 141.8666666666667 183.8933333333334 122.24 147.6266666666667 133.3333333333334C116.6933333333334 142.9333333333333 110.9333333333334 164.6933333333334 114.5600000000001 176.8533333333334C117.9733333333334 187.3066666666667 126.2933333333334 189.44 134.6133333333334 186.88C143.5733333333334 184.1066666666667 146.9866666666667 173.44 144.4266666666667 165.12C144.0000000000001 164.2666666666667 139.7333333333334 156.3733333333333 138.6666666666668 153.8133333333334C136.7466666666667 147.2000000000001 145.7066666666667 142.72 151.8933333333334 140.8000000000001C165.7600000000001 136.5333333333334 179.2000000000001 143.7866666666668 182.4000000000001 155.0933333333334C185.6000000000001 165.3333333333334 179.2000000000001 172.5866666666667 176.4266666666668 175.36C157.4400000000001 196.2666666666667 144.2133333333334 214.8266666666667 150.6133333333334 235.7333333333334C153.1733333333334 243.6266666666667 158.2933333333334 252.1600000000001 165.9733333333334 257.92C181.9733333333334 269.6533333333334 199.4666666666668 271.7866666666667 215.8933333333334 266.6666666666667C237.4400000000001 260.9066666666667 247.6800000000001 246.6133333333334 261.1200000000001 235.7333333333334C268.5866666666668 257.4933333333334 279.0400000000001 279.04 294.6133333333335 297.1733333333334C308.6933333333335 313.6 327.4666666666668 325.5466666666667 349.2266666666668 326.4000000000001z" /></svg>