<?xml version="1.0" encoding="UTF-8"?><!DOCTYPE svg PUBLIC "-//W3C//DTD SVG 1.1//EN" "http://www.w3.org/Graphics/SVG/1.1/DTD/svg11.dtd"><svg xmlns="http://www.w3.org/2000/svg" xmlns:xlink="http://www.w3.org/1999/xlink" version="1.1" width="512" height="512" viewBox="0 0 512 512">    <path fill="#ffffff" transform="scale(1, -1) translate(0, -448)" glyph-name="voicemail" unicode="&#xF57D;" horiz-adv-x="512" d=" M394.6666666666667 128C353.4933333333334 128 320 161.4933333333334 320 202.6666666666667S353.4933333333334 277.3333333333334 394.6666666666667 277.3333333333334S469.3333333333333 243.84 469.3333333333333 202.6666666666667S435.84 128 394.6666666666667 128M117.3333333333333 128C76.16 128 42.6666666666667 161.4933333333334 42.6666666666667 202.6666666666667S76.16 277.3333333333334 117.3333333333333 277.3333333333334S192 243.84 192 202.6666666666667S158.5066666666667 128 117.3333333333333 128M394.6666666666667 320C329.8133333333334 320 277.3333333333333 267.52 277.3333333333333 202.6666666666667C277.3333333333333 174.2933333333334 287.36 148.2666666666667 304.2133333333333 128H207.7866666666667C224.64 148.2666666666667 234.6666666666667 174.2933333333334 234.6666666666667 202.6666666666667C234.6666666666667 267.52 182.1866666666667 320 117.3333333333333 320S0 267.52 0 202.6666666666667S52.48 85.3333333333334 117.3333333333333 85.3333333333334H394.6666666666667C459.52 85.3333333333334 512 137.8133333333334 512 202.6666666666667S459.52 320 394.6666666666667 320z" /></svg>