<?xml version="1.0" encoding="UTF-8"?><!DOCTYPE svg PUBLIC "-//W3C//DTD SVG 1.1//EN" "http://www.w3.org/Graphics/SVG/1.1/DTD/svg11.dtd"><svg xmlns="http://www.w3.org/2000/svg" xmlns:xlink="http://www.w3.org/1999/xlink" version="1.1" width="512" height="512" viewBox="0 0 512 512">    <path fill="#ffffff" transform="scale(1, -1) translate(0, -448)" glyph-name="ring" unicode="&#xF7EA;" horiz-adv-x="512" d=" M256 234.6666666666667L170.6666666666667 354.1333333333334L204.8 405.3333333333333H307.2L341.3333333333333 354.1333333333334L256 234.6666666666667M330.6666666666667 302.9333333333334L305.0666666666667 266.6666666666667C352 247.4666666666667 384 202.6666666666667 384 149.3333333333334C384 78.72 326.6133333333334 21.3333333333334 256 21.3333333333334S128 78.72 128 149.3333333333334C128 202.6666666666667 160 247.4666666666667 206.9333333333333 266.6666666666667L181.3333333333333 302.9333333333334C123.7333333333333 275.2000000000001 85.3333333333333 217.6 85.3333333333333 149.3333333333334C85.3333333333333 55.04 161.7066666666667 -21.3333333333333 256 -21.3333333333333S426.6666666666667 55.04 426.6666666666667 149.3333333333334C426.6666666666667 217.6 388.2666666666667 275.2000000000001 330.6666666666667 302.9333333333334z" /></svg>