<?xml version="1.0" encoding="UTF-8"?><!DOCTYPE svg PUBLIC "-//W3C//DTD SVG 1.1//EN" "http://www.w3.org/Graphics/SVG/1.1/DTD/svg11.dtd"><svg xmlns="http://www.w3.org/2000/svg" xmlns:xlink="http://www.w3.org/1999/xlink" version="1.1" width="512" height="512" viewBox="0 0 512 512">    <path fill="#ffffff" transform="scale(1, -1) translate(0, -448)" glyph-name="texture" unicode="&#xF50C;" horiz-adv-x="512" d=" M198.1866666666667 0H258.56L448 189.4400000000001V249.8133333333334M405.3333333333333 0C417.0666666666667 0 427.7333333333334 4.6933333333333 435.4133333333333 12.5866666666667C443.3066666666667 20.2666666666667 448 30.9333333333333 448 42.6666666666667V85.3333333333334L362.6666666666667 0M106.6666666666667 384C83.2 384 64 364.8 64 341.3333333333334V298.6666666666667L149.3333333333333 384M253.44 384L64 194.56V134.1866666666667L313.8133333333334 384M416 382.2933333333334L65.7066666666667 32C67.6266666666667 24.5333333333333 71.4666666666667 17.92 76.5866666666667 12.5866666666667C81.92 7.4666666666667 88.5333333333333 3.6266666666667 96 1.7066666666666L446.5066666666667 352C442.4533333333333 366.9333333333334 430.9333333333333 378.4533333333334 416 382.2933333333334z" /></svg>