<?xml version="1.0" encoding="UTF-8"?><!DOCTYPE svg PUBLIC "-//W3C//DTD SVG 1.1//EN" "http://www.w3.org/Graphics/SVG/1.1/DTD/svg11.dtd"><svg xmlns="http://www.w3.org/2000/svg" xmlns:xlink="http://www.w3.org/1999/xlink" version="1.1" width="512" height="512" viewBox="0 0 512 512">    <path fill="#ffffff" transform="scale(1, -1) translate(0, -448)" glyph-name="rocket" unicode="&#xF463;" horiz-adv-x="512" d=" M59.9466666666667 146.7733333333334L120.32 207.1466666666667L174.2933333333333 217.8133333333334C242.9866666666667 311.2533333333334 374.4 357.9733333333334 421.9733333333334 357.9733333333334C421.9733333333334 310.4000000000001 375.2533333333334 178.9866666666667 281.8133333333334 110.2933333333334L271.1466666666667 56.3200000000001L210.7733333333334 -4.0533333333333L195.6266666666667 71.2533333333335C165.5466666666667 71.2533333333335 165.5466666666667 71.2533333333335 150.4 86.4000000000001C135.2533333333334 101.5466666666668 135.2533333333334 101.5466666666668 135.2533333333334 131.6266666666668L59.9466666666667 146.7733333333335M120.3200000000001 86.4000000000001L150.4 56.3200000000001L93.6533333333334 -0.6399999999999H63.36V29.6533333333335L120.32 86.4000000000002M90.0266666666667 116.4800000000002L116.48 112.8533333333335L64 60.5866666666667V90.88L90.0266666666667 116.48M176.8533333333333 52.48L180.48 26.0266666666666L154.88 0H124.5866666666667L176.8533333333333 52.48M277.3333333333333 245.3333333333334C259.6266666666667 245.3333333333334 245.3333333333333 231.04 245.3333333333333 213.3333333333334S259.6266666666667 181.3333333333334 277.3333333333333 181.3333333333334S309.3333333333333 195.6266666666667 309.3333333333333 213.3333333333334S295.04 245.3333333333334 277.3333333333333 245.3333333333334z" /></svg>