<?xml version="1.0" encoding="UTF-8"?><!DOCTYPE svg PUBLIC "-//W3C//DTD SVG 1.1//EN" "http://www.w3.org/Graphics/SVG/1.1/DTD/svg11.dtd"><svg xmlns="http://www.w3.org/2000/svg" xmlns:xlink="http://www.w3.org/1999/xlink" version="1.1" width="512" height="512" viewBox="0 0 512 512">    <path fill="#ffffff" transform="scale(1, -1) translate(0, -448)" glyph-name="google-photos" unicode="&#xF6DC;" horiz-adv-x="512" d=" M213.3333333333333 170.6666666666667C225.0666666666667 170.6666666666667 234.6666666666667 166.8266666666667 243.4133333333334 158.5066666666667C251.7333333333334 150.1866666666667 256 139.9466666666667 256 128V-21.3333333333333C256 -24.96 254.08 -27.0933333333333 250.0266666666667 -27.0933333333333C248.7466666666667 -27.0933333333333 247.04 -26.0266666666666 245.3333333333333 -24.1066666666666L149.3333333333333 71.04V170.6666666666667H213.3333333333333M266.6666666666667 407.8933333333333L362.6666666666667 312.9600000000001V213.3333333333334H298.6666666666667C286.9333333333333 213.3333333333334 277.3333333333333 217.1733333333334 268.5866666666667 225.4933333333334C260.2666666666667 233.8133333333334 256 244.0533333333334 256 256V405.3333333333333C256 408.96 257.92 411.0933333333334 261.9733333333333 411.0933333333334C263.2533333333334 411.0933333333334 264.96 410.0266666666667 266.6666666666667 407.8933333333333M469.3333333333333 192C472.96 192 475.0933333333333 190.0800000000001 475.0933333333333 186.0266666666667C475.0933333333333 184.7466666666667 474.0266666666666 183.04 472.1066666666666 181.3333333333334L376.9600000000001 85.3333333333334H277.3333333333333V149.3333333333334C277.3333333333333 161.0666666666667 281.1733333333333 170.6666666666667 289.4933333333334 179.4133333333334C297.8133333333334 187.7333333333334 308.0533333333333 192 320 192H469.3333333333333M135.04 298.6666666666667H234.6666666666667V234.6666666666667C234.6666666666667 222.9333333333333 230.8266666666667 213.3333333333334 222.5066666666667 204.5866666666667C214.1866666666667 196.2666666666667 203.9466666666667 192 192 192H42.6666666666667C39.04 192 36.9066666666667 193.92 36.9066666666667 197.9733333333333C36.9066666666667 199.2533333333333 37.9733333333333 200.96 40.1066666666667 202.6666666666667L135.04 298.6666666666667z" /></svg>