<?xml version="1.0" encoding="UTF-8"?><!DOCTYPE svg PUBLIC "-//W3C//DTD SVG 1.1//EN" "http://www.w3.org/Graphics/SVG/1.1/DTD/svg11.dtd"><svg xmlns="http://www.w3.org/2000/svg" xmlns:xlink="http://www.w3.org/1999/xlink" version="1.1" width="512" height="512" viewBox="0 0 512 512">    <path fill="#ffffff" transform="scale(1, -1) translate(0, -448)" glyph-name="email-search" unicode="&#xF960;" horiz-adv-x="512" d=" M64 362.6666666666667H405.3333333333333C428.8 362.6666666666667 448 343.4666666666667 448 320V217.1733333333334C426.6666666666667 237.8666666666667 398.9333333333333 251.0933333333334 369.28 254.72L405.3333333333333 277.3333333333334V320L234.6666666666667 213.3333333333334L64 320V277.3333333333334L226.56 175.7866666666667C217.8133333333333 157.4400000000001 213.3333333333334 137.6 213.3333333333334 117.3333333333334C213.3333333333334 81.4933333333333 227.2000000000001 47.1466666666667 251.9466666666667 21.3333333333334H64C40.5333333333333 21.3333333333334 21.3333333333333 40.5333333333333 21.3333333333333 64V320C21.3333333333333 343.68 40.32 362.6666666666667 64 362.6666666666667M352 213.3333333333334C405.3333333333333 213.3333333333334 448 170.6666666666667 448 117.3333333333334C448 98.5600000000001 442.6666666666667 80.8533333333334 433.28 66.1333333333334L498.9866666666667 0L469.3333333333333 -29.6533333333333L402.7733333333333 35.84C388.0533333333333 26.6666666666667 370.56 21.3333333333334 352 21.3333333333334C298.6666666666667 21.3333333333334 256 64 256 117.3333333333334S298.6666666666667 213.3333333333334 352 213.3333333333334M352 170.6666666666667C322.56 170.6666666666667 298.6666666666667 146.7733333333333 298.6666666666667 117.3333333333334S322.56 64 352 64S405.3333333333333 87.8933333333334 405.3333333333333 117.3333333333334S381.44 170.6666666666667 352 170.6666666666667z" /></svg>