<?xml version="1.0" encoding="UTF-8"?><!DOCTYPE svg PUBLIC "-//W3C//DTD SVG 1.1//EN" "http://www.w3.org/Graphics/SVG/1.1/DTD/svg11.dtd"><svg xmlns="http://www.w3.org/2000/svg" xmlns:xlink="http://www.w3.org/1999/xlink" version="1.1" width="512" height="512" viewBox="0 0 512 512">    <path fill="#ffffff" transform="scale(1, -1) translate(0, -448)" glyph-name="playlist-music-outline" unicode="&#xFC95;" horiz-adv-x="512" d=" M320 320V277.3333333333334H64V320H320M320 234.6666666666667V192H64V234.6666666666667H320M64 106.6666666666667V149.3333333333334H234.6666666666667V106.6666666666667H64M362.6666666666667 320H469.3333333333333V277.3333333333334H405.3333333333333V85.3333333333334C405.3333333333333 49.92 376.7466666666667 21.3333333333334 341.3333333333333 21.3333333333334S277.3333333333333 49.92 277.3333333333333 85.3333333333334S305.92 149.3333333333334 341.3333333333333 149.3333333333334C348.8 149.3333333333334 356.0533333333334 147.84 362.6666666666667 145.4933333333334V320M341.3333333333333 106.6666666666667C329.6 106.6666666666667 320 97.0666666666667 320 85.3333333333334S329.6 64 341.3333333333333 64S362.6666666666667 73.6 362.6666666666667 85.3333333333334S353.0666666666667 106.6666666666667 341.3333333333333 106.6666666666667z" /></svg>