<?xml version="1.0" encoding="UTF-8"?><!DOCTYPE svg PUBLIC "-//W3C//DTD SVG 1.1//EN" "http://www.w3.org/Graphics/SVG/1.1/DTD/svg11.dtd"><svg xmlns="http://www.w3.org/2000/svg" xmlns:xlink="http://www.w3.org/1999/xlink" version="1.1" width="512" height="512" viewBox="0 0 512 512">    <path fill="#ffffff" transform="scale(1, -1) translate(0, -448)" glyph-name="zodiac-pisces" unicode="&#xFA83;" horiz-adv-x="512" d=" M426.6666666666667 213.3333333333334H384C386.3466666666667 273.2800000000001 399.5733333333333 332.3733333333334 422.6133333333333 387.84L384 404.0533333333334C358.6133333333333 343.4666666666667 344.1066666666667 279.04 341.3333333333333 213.3333333333334H170.6666666666667C167.8933333333333 279.04 153.3866666666667 343.4666666666667 128 404.0533333333334L88.32 387.84C111.7866666666667 332.5866666666667 125.2266666666667 273.4933333333334 128 213.3333333333334H85.3333333333333V170.6666666666667H128C125.6533333333333 110.72 112.4266666666667 51.6266666666667 89.3866666666667 -3.84L128 -20.0533333333333C153.3866666666667 40.5333333333333 167.8933333333333 104.96 170.6666666666667 170.6666666666667H341.3333333333333C344.1066666666667 104.96 358.6133333333333 40.5333333333333 384 -20.0533333333333L423.68 -3.8399999999999C400.2133333333333 51.4133333333334 386.7733333333333 110.5066666666668 384 170.6666666666668H426.6666666666667V213.3333333333334z" /></svg>