<?xml version="1.0" encoding="UTF-8"?><!DOCTYPE svg PUBLIC "-//W3C//DTD SVG 1.1//EN" "http://www.w3.org/Graphics/SVG/1.1/DTD/svg11.dtd"><svg xmlns="http://www.w3.org/2000/svg" xmlns:xlink="http://www.w3.org/1999/xlink" version="1.1" width="512" height="512" viewBox="0 0 512 512">    <path fill="#ffffff" transform="scale(1, -1) translate(0, -448)" glyph-name="language-python" unicode="&#xF320;" horiz-adv-x="512" d=" M408.32 288C442.0266666666667 288 469.3333333333333 260.6933333333334 469.3333333333333 226.9866666666667V146.3466666666667C469.3333333333333 112.6400000000001 442.0266666666667 85.3333333333334 408.32 85.3333333333334H256C256 77.0133333333333 262.8266666666667 64.8533333333334 271.1466666666667 64.8533333333334H362.6666666666667V29.0133333333333C362.6666666666667 -4.6933333333333 335.36 -32 301.6533333333333 -32H210.3466666666666C176.64 -32 149.3333333333333 -4.6933333333333 149.3333333333333 29.0133333333333V109.0133333333333C149.3333333333333 142.72 176.64 169.8133333333333 210.3466666666666 169.8133333333333H322.3466666666667C356.0533333333333 169.8133333333333 383.1466666666667 197.12 383.1466666666667 230.8266666666667V288H408.32M317.0133333333333 36.48C308.48 36.48 301.6533333333333 30.08 301.6533333333333 17.4933333333333C301.6533333333333 4.9066666666667 308.48 2.3466666666667 317.0133333333333 2.3466666666667C325.3333333333333 2.3466666666667 332.16 9.1733333333333 332.16 17.4933333333333C332.16 30.08 325.3333333333333 36.48 317.0133333333333 36.48M103.68 74.6666666666667C69.9733333333333 74.6666666666667 42.6666666666667 101.9733333333334 42.6666666666667 135.68V216.32C42.6666666666667 250.0266666666667 69.9733333333333 277.3333333333334 103.68 277.3333333333334H256C256 285.6533333333333 249.1733333333333 297.8133333333334 240.8533333333333 297.8133333333334H149.3333333333333V333.6533333333333C149.3333333333333 367.36 176.64 394.6666666666667 210.3466666666666 394.6666666666667H301.6533333333333C335.36 394.6666666666667 362.6666666666667 367.36 362.6666666666667 333.6533333333333V253.6533333333334C362.6666666666667 219.9466666666667 335.36 192.8533333333334 301.6533333333333 192.8533333333334H189.6533333333333C155.9466666666667 192.8533333333334 128.8533333333334 165.5466666666668 128.8533333333334 131.84V74.6666666666667H103.68M194.9866666666667 326.1866666666667C203.52 326.1866666666667 210.3466666666667 332.5866666666667 210.3466666666667 345.1733333333334C210.3466666666667 357.76 203.52 360.32 194.9866666666667 360.32C186.6666666666667 360.32 179.84 357.76 179.84 345.1733333333334S186.6666666666667 326.1866666666667 194.9866666666667 326.1866666666667z" /></svg>