<?xml version="1.0" encoding="UTF-8"?><!DOCTYPE svg PUBLIC "-//W3C//DTD SVG 1.1//EN" "http://www.w3.org/Graphics/SVG/1.1/DTD/svg11.dtd"><svg xmlns="http://www.w3.org/2000/svg" xmlns:xlink="http://www.w3.org/1999/xlink" version="1.1" width="512" height="512" viewBox="0 0 512 512">    <path fill="#ffffff" transform="scale(1, -1) translate(0, -448)" glyph-name="monitor-multiple" unicode="&#xF37A;" horiz-adv-x="512" d=" M469.3333333333333 85.3333333333334V298.6666666666667H128V85.3333333333334H469.3333333333333M469.3333333333333 341.3333333333334C492.8 341.3333333333334 512 322.1333333333334 512 298.6666666666667V85.3333333333334C512 61.6533333333334 492.8 42.6666666666667 469.3333333333333 42.6666666666667H341.3333333333333V0H384V-42.6666666666666H213.3333333333333V0H256V42.6666666666667H128C104.32 42.6666666666667 85.3333333333333 61.6533333333334 85.3333333333333 85.3333333333334V298.6666666666667C85.3333333333333 322.1333333333334 104.5333333333333 341.3333333333334 128 341.3333333333334H469.3333333333333M42.6666666666667 384V128H0V384C0 407.4666666666667 19.2 426.6666666666667 42.6666666666667 426.6666666666667H426.6666666666667V384H42.6666666666667z" /></svg>