<?xml version="1.0" encoding="UTF-8"?><!DOCTYPE svg PUBLIC "-//W3C//DTD SVG 1.1//EN" "http://www.w3.org/Graphics/SVG/1.1/DTD/svg11.dtd"><svg xmlns="http://www.w3.org/2000/svg" xmlns:xlink="http://www.w3.org/1999/xlink" version="1.1" width="512" height="512" viewBox="0 0 512 512">    <path fill="#ffffff" transform="scale(1, -1) translate(0, -448)" glyph-name="chart-multiline" unicode="&#xF8D3;" horiz-adv-x="512" d=" M469.3333333333333 300.3733333333334L439.2533333333334 330.6666666666667L378.4533333333333 261.9733333333334C334.5066666666667 311.4666666666667 273.7066666666667 341.3333333333334 205.0133333333333 341.3333333333334C143.36 341.3333333333334 86.8266666666667 316.5866666666667 42.6666666666667 277.3333333333334L72.96 247.04C109.2266666666667 278.8266666666667 155.0933333333333 298.6666666666667 205.0133333333333 298.6666666666667C263.4666666666667 298.6666666666667 313.6 271.7866666666667 349.44 229.5466666666667L288 160L202.6666666666667 245.3333333333334L42.6666666666667 85.3333333333334L74.6666666666667 53.3333333333334L202.6666666666667 181.3333333333334L288 96L374.4 193.4933333333334C390.4 164.6933333333334 401.0666666666667 131.6266666666667 405.3333333333333 96H448C443.3066666666667 145.4933333333334 427.7333333333334 190.0800000000001 404.48 227.4133333333334L469.3333333333333 300.3733333333334z" /></svg>