<?xml version="1.0" encoding="UTF-8"?><!DOCTYPE svg PUBLIC "-//W3C//DTD SVG 1.1//EN" "http://www.w3.org/Graphics/SVG/1.1/DTD/svg11.dtd"><svg xmlns="http://www.w3.org/2000/svg" xmlns:xlink="http://www.w3.org/1999/xlink" version="1.1" width="512" height="512" viewBox="0 0 512 512">    <path fill="#ffffff" transform="scale(1, -1) translate(0, -448)" glyph-name="account-key-outline" unicode="&#xFBC0;" horiz-adv-x="512" d=" M124.3733333333333 234.6666666666667C115.6266666666667 259.6266666666667 91.9466666666667 277.3333333333334 64 277.3333333333334C28.5866666666667 277.3333333333334 0 248.7466666666667 0 213.3333333333334S28.5866666666667 149.3333333333334 64 149.3333333333334C91.9466666666667 149.3333333333334 115.6266666666667 167.04 124.3733333333333 192H170.6666666666667V149.3333333333334H213.3333333333333V192H234.6666666666667V234.6666666666667H124.3733333333333M64 192C52.2666666666667 192 42.6666666666667 201.6 42.6666666666667 213.3333333333334S52.2666666666667 234.6666666666667 64 234.6666666666667S85.3333333333333 225.0666666666667 85.3333333333333 213.3333333333334S75.7333333333333 192 64 192M341.3333333333333 362.6666666666667C294.1866666666666 362.6666666666667 256 324.48 256 277.3333333333334S294.1866666666666 192 341.3333333333333 192S426.6666666666667 230.1866666666667 426.6666666666667 277.3333333333334S388.48 362.6666666666667 341.3333333333333 362.6666666666667M341.3333333333333 232.5333333333334C316.5866666666667 232.5333333333334 296.5333333333333 252.5866666666667 296.5333333333333 277.3333333333334C296.5333333333333 302.0800000000001 316.5866666666667 322.1333333333334 341.3333333333333 322.1333333333334C366.08 322.1333333333334 386.1333333333334 302.0800000000001 386.1333333333334 277.3333333333334C386.1333333333334 252.5866666666667 366.08 232.5333333333334 341.3333333333333 232.5333333333334M341.3333333333333 170.6666666666667C284.3733333333334 170.6666666666667 170.6666666666667 142.2933333333334 170.6666666666667 85.3333333333334V21.3333333333334H512V85.3333333333334C512 142.2933333333334 398.2933333333334 170.6666666666667 341.3333333333333 170.6666666666667M471.4666666666667 61.8666666666667H211.2V85.3333333333334C211.2 98.9866666666667 277.3333333333333 130.1333333333333 341.3333333333333 130.1333333333333C404.6933333333333 130.1333333333333 471.4666666666667 98.9866666666667 471.4666666666667 85.3333333333334V61.8666666666667z" /></svg>