<?xml version="1.0" encoding="UTF-8"?><!DOCTYPE svg PUBLIC "-//W3C//DTD SVG 1.1//EN" "http://www.w3.org/Graphics/SVG/1.1/DTD/svg11.dtd"><svg xmlns="http://www.w3.org/2000/svg" xmlns:xlink="http://www.w3.org/1999/xlink" version="1.1" width="512" height="512" viewBox="0 0 512 512">    <path fill="#ffffff" transform="scale(1, -1) translate(0, -448)" glyph-name="emoticon-cry-outline" unicode="&#xFC49;" horiz-adv-x="512" d=" M161.4933333333334 21.3333333333334C132.9066666666667 21.3333333333334 109.6533333333333 44.5866666666667 109.6533333333333 73.1733333333334C109.6533333333333 96 134.8266666666667 138.6666666666667 161.4933333333334 174.72C188.16 138.6666666666667 213.3333333333333 96 213.3333333333333 73.1733333333334C213.3333333333333 44.5866666666667 190.08 21.3333333333334 161.4933333333334 21.3333333333334M256 405.3333333333333C138.24 405.3333333333333 42.6666666666667 309.76 42.6666666666667 192C42.6666666666667 154.6666666666667 52.2666666666667 119.8933333333334 69.12 89.3866666666667C72.5333333333333 106.6666666666667 81.28 126.5066666666667 91.9466666666667 145.7066666666667C87.68 160 85.3333333333333 176 85.3333333333333 192C85.3333333333333 286.2933333333334 161.7066666666667 362.6666666666667 256 362.6666666666667S426.6666666666667 286.2933333333334 426.6666666666667 192S350.2933333333334 21.3333333333334 256 21.3333333333334C250.88 21.3333333333334 245.9733333333333 21.3333333333334 240.8533333333333 22.1866666666667C230.8266666666667 6.4 216.32 -5.9733333333334 199.2533333333333 -13.4400000000001C217.3866666666667 -18.56 236.3733333333334 -21.3333333333334 256 -21.3333333333334C373.76 -21.3333333333334 469.3333333333333 74.24 469.3333333333333 192S373.76 405.3333333333333 256 405.3333333333333M256 149.3333333333334C247.2533333333334 149.3333333333334 238.72 148.48 230.6133333333334 146.7733333333334C238.08 133.3333333333334 244.6933333333334 119.4666666666667 249.3866666666667 106.6666666666667H256C282.6666666666667 106.6666666666667 305.4933333333334 96 315.0933333333333 80.4266666666667L345.3866666666666 110.72C326.1866666666666 133.9733333333334 293.3333333333333 149.3333333333334 256 149.3333333333334M330.6666666666667 277.3333333333334C313.6 277.3333333333334 298.6666666666667 262.4000000000001 298.6666666666667 245.3333333333334S313.6 213.3333333333334 330.6666666666667 213.3333333333334S362.6666666666667 228.2666666666667 362.6666666666667 245.3333333333334S347.7333333333334 277.3333333333334 330.6666666666667 277.3333333333334M213.3333333333333 245.3333333333334C213.3333333333333 262.4000000000001 198.4 277.3333333333334 181.3333333333333 277.3333333333334S149.3333333333333 262.4000000000001 149.3333333333333 245.3333333333334S164.2666666666667 213.3333333333334 181.3333333333333 213.3333333333334S213.3333333333333 228.2666666666667 213.3333333333333 245.3333333333334" /></svg>