<?xml version="1.0" encoding="UTF-8"?><!DOCTYPE svg PUBLIC "-//W3C//DTD SVG 1.1//EN" "http://www.w3.org/Graphics/SVG/1.1/DTD/svg11.dtd"><svg xmlns="http://www.w3.org/2000/svg" xmlns:xlink="http://www.w3.org/1999/xlink" version="1.1" width="512" height="512" viewBox="0 0 512 512">    <path fill="#ffffff" transform="scale(1, -1) translate(0, -448)" glyph-name="printer-alert" unicode="&#xF42C;" horiz-adv-x="512" d=" M298.6666666666667 362.6666666666667V277.3333333333334H128V362.6666666666667H298.6666666666667M320 170.6666666666667C331.7333333333334 170.6666666666667 341.3333333333333 180.2666666666667 341.3333333333333 192S331.7333333333334 213.3333333333334 320 213.3333333333334S298.6666666666667 203.7333333333334 298.6666666666667 192S308.2666666666667 170.6666666666667 320 170.6666666666667M277.3333333333333 42.6666666666667V128H149.3333333333333V42.6666666666667H277.3333333333333M320 256C355.4133333333333 256 384 227.4133333333334 384 192V85.3333333333334H320V0H106.6666666666667V85.3333333333334H42.6666666666667V192C42.6666666666667 227.4133333333334 71.2533333333333 256 106.6666666666667 256H320M469.3333333333333 298.6666666666667V192H426.6666666666667V298.6666666666667H469.3333333333333M469.3333333333333 149.3333333333334V106.6666666666667H426.6666666666667V149.3333333333334H469.3333333333333z" /></svg>