<?xml version="1.0" encoding="UTF-8"?><!DOCTYPE svg PUBLIC "-//W3C//DTD SVG 1.1//EN" "http://www.w3.org/Graphics/SVG/1.1/DTD/svg11.dtd"><svg xmlns="http://www.w3.org/2000/svg" xmlns:xlink="http://www.w3.org/1999/xlink" version="1.1" width="512" height="512" viewBox="0 0 512 512">    <path fill="#ffffff" transform="scale(1, -1) translate(0, -448)" glyph-name="image-filter-vintage" unicode="&#xF2F8;" horiz-adv-x="512" d=" M256 106.6666666666667C208.8533333333333 106.6666666666667 170.6666666666667 144.8533333333334 170.6666666666667 192S208.8533333333333 277.3333333333334 256 277.3333333333334S341.3333333333333 239.1466666666667 341.3333333333333 192S303.1466666666667 106.6666666666667 256 106.6666666666667M398.9333333333333 183.4666666666667C392.9599999999999 186.88 386.7733333333333 189.6533333333333 380.5866666666667 192C386.7733333333333 194.3466666666667 392.9599999999999 197.12 398.9333333333333 200.5333333333334C439.8933333333333 224 462.7199999999999 266.6666666666667 462.9333333333333 311.2533333333334C424.7466666666667 333.2266666666667 376.1066666666667 334.9333333333334 334.9333333333333 311.2533333333334C328.96 307.8400000000001 323.4133333333333 303.7866666666667 318.2933333333333 299.7333333333334C319.36 306.3466666666667 320 313.1733333333334 320 320C320 367.36 294.1866666666666 408.5333333333334 256 430.7200000000001C217.8133333333333 408.5333333333333 192 367.36 192 320C192 313.1733333333334 192.64 306.3466666666667 193.7066666666667 299.7333333333334C188.5866666666667 304 183.04 308.0533333333334 177.0666666666667 311.4666666666667C136.1066666666667 335.1466666666667 87.4666666666667 333.44 49.0666666666667 311.4666666666667C49.0666666666667 267.3066666666667 71.8933333333334 224 113.0666666666667 200.7466666666667C119.04 197.3333333333334 125.2266666666667 194.56 131.4133333333334 192C125.2266666666667 189.8666666666667 119.04 187.0933333333334 113.0666666666667 183.68C72.1066666666667 160 49.28 117.3333333333334 49.0666666666667 72.96C87.2533333333334 50.9866666666666 135.8933333333334 49.28 177.0666666666667 72.96C183.04 76.3733333333333 188.5866666666667 80.4266666666667 193.7066666666667 84.48C192.64 77.6533333333333 192 70.8266666666666 192 63.9999999999999C192 16.64 217.8133333333333 -24.5333333333334 256 -46.7200000000001C294.1866666666666 -24.5333333333334 320 16.6399999999999 320 63.9999999999999C320 70.8266666666666 319.36 77.6533333333333 318.2933333333333 84.2666666666666C323.4133333333333 79.9999999999999 328.96 76.16 334.9333333333333 72.7466666666666C375.8933333333333 49.0666666666666 424.5333333333333 50.7733333333333 462.9333333333333 72.7466666666666C462.7199999999999 117.3333333333333 439.8933333333333 160 398.9333333333333 183.4666666666667z" /></svg>