<?xml version="1.0" encoding="UTF-8"?><!DOCTYPE svg PUBLIC "-//W3C//DTD SVG 1.1//EN" "http://www.w3.org/Graphics/SVG/1.1/DTD/svg11.dtd"><svg xmlns="http://www.w3.org/2000/svg" xmlns:xlink="http://www.w3.org/1999/xlink" version="1.1" width="512" height="512" viewBox="0 0 512 512">    <path fill="#ffffff" transform="scale(1, -1) translate(0, -448)" glyph-name="bell-outline" unicode="&#xF09C;" horiz-adv-x="512" d=" M341.3333333333333 85.3333333333334H149.3333333333333V224C149.3333333333333 277.3333333333334 192 320 245.3333333333333 320S341.3333333333333 277.3333333333334 341.3333333333333 224M384 106.6666666666667V224C384 289.4933333333334 338.3466666666667 344.32 277.3333333333333 358.8266666666667V373.3333333333334C277.3333333333333 391.04 263.04 405.3333333333333 245.3333333333333 405.3333333333333S213.3333333333333 391.04 213.3333333333333 373.3333333333334V358.8266666666667C152.1066666666667 344.3200000000001 106.6666666666667 289.4933333333334 106.6666666666667 224V106.6666666666667L64 64V42.6666666666667H426.6666666666667V64M245.3333333333333 -21.3333333333333C268.8 -21.3333333333333 288 -2.1333333333333 288 21.3333333333334H202.6666666666667C202.6666666666667 -2.1333333333333 221.8666666666667 -21.3333333333333 245.3333333333333 -21.3333333333333z" /></svg>