<?xml version="1.0" encoding="UTF-8"?><!DOCTYPE svg PUBLIC "-//W3C//DTD SVG 1.1//EN" "http://www.w3.org/Graphics/SVG/1.1/DTD/svg11.dtd"><svg xmlns="http://www.w3.org/2000/svg" xmlns:xlink="http://www.w3.org/1999/xlink" version="1.1" width="512" height="512" viewBox="0 0 512 512">    <path fill="#ffffff" transform="scale(1, -1) translate(0, -448)" glyph-name="speaker-off" unicode="&#xF4C4;" horiz-adv-x="512" d=" M42.6666666666667 335.5733333333334L69.9733333333333 362.6666666666667L448 -15.36L420.9066666666667 -42.6666666666666L389.76 -11.52C382.5066666666667 -17.7066666666666 373.3333333333333 -21.3333333333333 362.6666666666667 -21.3333333333333H149.3333333333333C125.6533333333333 -21.3333333333333 106.6666666666667 -2.1333333333333 106.6666666666667 21.3333333333334V271.5733333333334L42.6666666666667 335.5733333333334M256 64C220.5866666666667 64 192 92.5866666666667 192 128C192 144.2133333333334 197.9733333333333 159.1466666666667 208 170.6666666666667L177.7066666666667 200.5333333333334C160 181.3333333333334 149.3333333333333 155.9466666666667 149.3333333333333 128C149.3333333333333 69.1200000000001 197.12 21.3333333333334 256 21.3333333333334C283.9466666666667 21.3333333333334 309.3333333333333 32 328.5333333333333 49.7066666666667L298.6666666666667 80C286.9333333333333 69.9733333333334 272.2133333333333 64 256 64M362.6666666666667 128C362.6666666666667 186.88 314.88 234.6666666666667 256 234.6666666666667H252.16L109.2266666666667 377.6C115.4133333333333 393.8133333333334 130.9866666666667 405.3333333333333 149.3333333333333 405.3333333333333H362.6666666666667C386.1333333333334 405.3333333333333 405.3333333333333 386.1333333333334 405.3333333333333 362.6666666666667V81.4933333333333L362.6666666666667 124.3733333333333V128M256 362.6666666666667C232.32 362.6666666666667 213.3333333333333 343.68 213.3333333333333 320C213.3333333333333 296.5333333333334 232.5333333333334 277.3333333333334 256 277.3333333333334S298.6666666666667 296.5333333333334 298.6666666666667 320C298.6666666666667 343.68 279.4666666666667 362.6666666666667 256 362.6666666666667z" /></svg>