<?xml version="1.0" encoding="UTF-8"?><!DOCTYPE svg PUBLIC "-//W3C//DTD SVG 1.1//EN" "http://www.w3.org/Graphics/SVG/1.1/DTD/svg11.dtd"><svg xmlns="http://www.w3.org/2000/svg" xmlns:xlink="http://www.w3.org/1999/xlink" version="1.1" width="512" height="512" viewBox="0 0 512 512">    <path fill="#ffffff" transform="scale(1, -1) translate(0, -448)" glyph-name="material-ui" unicode="&#xF357;" horiz-adv-x="512" d=" M170.6666666666667 93.6533333333334V120.1066666666667L298.6666666666667 193.92V293.76L192 232.1066666666667L85.3333333333333 293.76V170.6666666666667L64 158.2933333333334L42.6666666666667 170.6666666666667V341.3333333333334L65.4933333333333 354.56L192 281.3866666666667L275.84 329.8133333333334L318.5066666666667 354.5600000000001L341.3333333333333 341.3333333333334V169.3866666666667L232.96 106.6666666666667L319.36 56.96L426.6666666666667 118.8266666666667V213.3333333333334L448 225.7066666666667L469.3333333333333 213.3333333333334V94.2933333333334L319.36 7.6800000000001L170.6666666666667 93.6533333333334M469.3333333333333 240L448 227.6266666666667L426.6666666666667 240V264.9600000000001L448 277.3333333333334L469.3333333333333 264.9600000000001V240z" /></svg>