<?xml version="1.0" encoding="UTF-8"?><!DOCTYPE svg PUBLIC "-//W3C//DTD SVG 1.1//EN" "http://www.w3.org/Graphics/SVG/1.1/DTD/svg11.dtd"><svg xmlns="http://www.w3.org/2000/svg" xmlns:xlink="http://www.w3.org/1999/xlink" version="1.1" width="512" height="512" viewBox="0 0 512 512">    <path fill="#ffffff" transform="scale(1, -1) translate(0, -448)" glyph-name="hospital-building" unicode="&#xF2E1;" horiz-adv-x="512" d=" M42.6666666666667 -21.3333333333333V298.6666666666667C42.6666666666667 310.4 52.2666666666667 320 64 320H149.3333333333333V405.3333333333333H362.6666666666667V320H448C459.7333333333333 320 469.3333333333333 310.4 469.3333333333333 298.6666666666667V-21.3333333333333H298.6666666666667V85.3333333333334H213.3333333333333V-21.3333333333333H42.6666666666667M192 362.6666666666667V234.6666666666667H234.6666666666667V277.3333333333334H277.3333333333333V234.6666666666667H320V362.6666666666667H277.3333333333333V320H234.6666666666667V362.6666666666667H192M85.3333333333333 21.3333333333334H170.6666666666667V85.3333333333334H85.3333333333333V21.3333333333334M85.3333333333333 128H170.6666666666667V192H85.3333333333333V128M341.3333333333333 21.3333333333334H426.6666666666667V85.3333333333334H341.3333333333333V21.3333333333334M341.3333333333333 128H426.6666666666667V192H341.3333333333333V128M213.3333333333333 128H298.6666666666667V192H213.3333333333333V128z" /></svg>