<?xml version="1.0" encoding="UTF-8"?><!DOCTYPE svg PUBLIC "-//W3C//DTD SVG 1.1//EN" "http://www.w3.org/Graphics/SVG/1.1/DTD/svg11.dtd"><svg xmlns="http://www.w3.org/2000/svg" xmlns:xlink="http://www.w3.org/1999/xlink" version="1.1" width="512" height="512" viewBox="0 0 512 512">    <path fill="#ffffff" transform="scale(1, -1) translate(0, -448)" glyph-name="diving-helmet" unicode="&#xFD9C;" horiz-adv-x="512" d=" M341.3333333333333 192C341.3333333333333 144.8533333333334 303.1466666666667 106.6666666666667 256 106.6666666666667S170.6666666666667 144.8533333333334 170.6666666666667 192S208.8533333333333 277.3333333333334 256 277.3333333333334S341.3333333333333 239.1466666666667 341.3333333333333 192M414.9333333333333 279.68L385.4933333333334 264.9600000000001L390.8266666666667 256H426.6666666666667V128H391.04C380.5866666666667 106.0266666666666 365.0133333333333 87.04 345.8133333333333 72.5333333333333C380.8 61.6533333333333 407.4666666666666 44.5866666666667 419.6266666666666 24.3200000000001C398.7200000000001 -2.1333333333333 333.2266666666667 -21.3333333333333 256 -21.3333333333333S113.28 -2.1333333333333 92.3733333333333 24.3200000000001C104.5333333333333 44.5866666666667 131.2 61.6533333333334 166.1866666666667 72.5333333333333C146.9866666666667 87.04 131.4133333333333 106.0266666666666 120.96 128H85.3333333333333V256H121.1733333333333C135.8933333333333 287.1466666666667 160.8533333333333 312.1066666666667 192 326.8266666666667V362.6666666666667H320V326.8266666666667C334.5066666666667 320 347.52 310.1866666666667 358.8266666666667 298.6666666666667L395.7333333333334 317.0133333333333C425.1733333333333 332.3733333333334 426.6666666666667 360.5333333333334 426.6666666666667 405.3333333333333H469.3333333333333C469.3333333333333 361.3866666666667 469.3333333333333 306.7733333333333 414.9333333333333 279.68M362.6666666666667 192C362.6666666666667 250.88 314.88 298.6666666666667 256 298.6666666666667S149.3333333333333 250.88 149.3333333333333 192S197.12 85.3333333333334 256 85.3333333333334S362.6666666666667 133.12 362.6666666666667 192z" /></svg>