<?xml version="1.0" encoding="UTF-8"?><!DOCTYPE svg PUBLIC "-//W3C//DTD SVG 1.1//EN" "http://www.w3.org/Graphics/SVG/1.1/DTD/svg11.dtd"><svg xmlns="http://www.w3.org/2000/svg" xmlns:xlink="http://www.w3.org/1999/xlink" version="1.1" width="512" height="512" viewBox="0 0 512 512">    <path fill="#ffffff" transform="scale(1, -1) translate(0, -448)" glyph-name="vote" unicode="&#xFA1E;" horiz-adv-x="512" d=" M384 170.6666666666667H369.4933333333334L326.8266666666667 128H367.5733333333333L405.3333333333333 85.3333333333334H106.6666666666667L144.64 128H188.3733333333333L145.7066666666667 170.6666666666667H128L64 106.6666666666667V21.3333333333334C64 -2.1333333333333 83.2 -21.3333333333333 106.6666666666667 -21.3333333333333H405.3333333333333C428.8 -21.3333333333333 448 -2.1333333333333 448 21.3333333333334V106.6666666666667L384 170.6666666666667M362.6666666666667 278.4L257.0666666666667 172.8L181.3333333333333 248.32L287.1466666666667 353.92L362.6666666666667 278.4M272.2133333333333 399.1466666666667L136.32 263.2533333333334C128 254.9333333333334 128 241.4933333333334 136.32 233.1733333333334L241.92 128C250.24 119.2533333333333 263.68 119.2533333333333 272 128L407.68 263.2533333333334C416 271.5733333333334 416 285.0133333333333 407.68 293.3333333333334L302.08 398.9333333333334C293.9733333333333 407.4666666666667 280.5333333333333 407.4666666666667 272.2133333333333 399.1466666666667z" /></svg>