<?xml version="1.0" encoding="UTF-8"?><!DOCTYPE svg PUBLIC "-//W3C//DTD SVG 1.1//EN" "http://www.w3.org/Graphics/SVG/1.1/DTD/svg11.dtd"><svg xmlns="http://www.w3.org/2000/svg" xmlns:xlink="http://www.w3.org/1999/xlink" version="1.1" width="512" height="512" viewBox="0 0 512 512">    <path fill="#ffffff" transform="scale(1, -1) translate(0, -448)" glyph-name="palette-outline" unicode="&#xFE6C;" horiz-adv-x="512" d=" M256 -21.3333333333333C138.24 -21.3333333333333 42.6666666666667 74.24 42.6666666666667 192S138.24 405.3333333333333 256 405.3333333333333C373.3333333333333 405.3333333333333 469.3333333333333 320 469.3333333333333 213.3333333333334C469.3333333333333 142.72 411.9466666666666 85.3333333333334 341.3333333333333 85.3333333333334H302.9333333333333C296.5333333333333 85.3333333333334 292.2666666666667 81.0666666666667 292.2666666666667 74.6666666666667C292.2666666666667 72.5333333333333 294.4 70.4 294.4 68.2666666666667C302.9333333333333 57.6 307.2 44.8 307.2 32C309.3333333333333 2.1333333333334 285.8666666666666 -21.3333333333333 256 -21.3333333333333M256 362.6666666666667C161.7066666666666 362.6666666666667 85.3333333333333 286.2933333333334 85.3333333333333 192S161.7066666666666 21.3333333333334 256 21.3333333333334C262.4 21.3333333333334 266.6666666666667 25.6 266.6666666666667 32C266.6666666666667 36.2666666666667 264.5333333333333 38.4 264.5333333333333 40.5333333333333C256 51.2 251.7333333333333 61.8666666666667 251.7333333333333 74.6666666666667C251.7333333333333 104.5333333333333 275.2 128 305.0666666666666 128H341.3333333333333C388.48 128 426.6666666666667 166.1866666666667 426.6666666666667 213.3333333333334C426.6666666666667 296.5333333333334 349.8666666666666 362.6666666666667 256 362.6666666666667M138.6666666666667 234.6666666666667C155.7333333333333 234.6666666666667 170.6666666666667 219.7333333333334 170.6666666666667 202.6666666666667S155.7333333333333 170.6666666666667 138.6666666666667 170.6666666666667S106.6666666666667 185.6 106.6666666666667 202.6666666666667S121.6 234.6666666666667 138.6666666666667 234.6666666666667M202.6666666666667 320C219.7333333333334 320 234.6666666666667 305.0666666666667 234.6666666666667 288S219.7333333333334 256 202.6666666666667 256S170.6666666666667 270.9333333333334 170.6666666666667 288S185.6 320 202.6666666666667 320M309.3333333333333 320C326.4 320 341.3333333333333 305.0666666666667 341.3333333333333 288S326.4 256 309.3333333333333 256S277.3333333333333 270.9333333333334 277.3333333333333 288S292.2666666666667 320 309.3333333333333 320M373.3333333333333 234.6666666666667C390.4 234.6666666666667 405.3333333333333 219.7333333333334 405.3333333333333 202.6666666666667S390.4 170.6666666666667 373.3333333333333 170.6666666666667S341.3333333333333 185.6 341.3333333333333 202.6666666666667S356.2666666666667 234.6666666666667 373.3333333333333 234.6666666666667z" /></svg>