<?xml version="1.0" encoding="UTF-8"?><!DOCTYPE svg PUBLIC "-//W3C//DTD SVG 1.1//EN" "http://www.w3.org/Graphics/SVG/1.1/DTD/svg11.dtd"><svg xmlns="http://www.w3.org/2000/svg" xmlns:xlink="http://www.w3.org/1999/xlink" version="1.1" width="512" height="512" viewBox="0 0 512 512">    <path fill="#ffffff" transform="scale(1, -1) translate(0, -448)" glyph-name="gamepad-round" unicode="&#xFE1F;" horiz-adv-x="512" d=" M85.3333333333333 277.3333333333334H170.6666666666667V362.6666666666667C170.6666666666667 386.1333333333334 189.8666666666667 405.3333333333333 213.3333333333333 405.3333333333333H298.6666666666667C322.1333333333334 405.3333333333333 341.3333333333333 386.1333333333334 341.3333333333333 362.6666666666667V277.3333333333334H426.6666666666667C450.1333333333334 277.3333333333334 469.3333333333333 258.1333333333334 469.3333333333333 234.6666666666667V149.3333333333334C469.3333333333333 125.8666666666667 450.1333333333334 106.6666666666667 426.6666666666667 106.6666666666667H341.3333333333333V21.3333333333334C341.3333333333333 -2.1333333333333 322.1333333333334 -21.3333333333333 298.6666666666667 -21.3333333333333H213.3333333333333C189.8666666666667 -21.3333333333333 170.6666666666667 -2.1333333333333 170.6666666666667 21.3333333333334V106.6666666666667H85.3333333333333C61.8666666666667 106.6666666666667 42.6666666666667 125.8666666666667 42.6666666666667 149.3333333333334V234.6666666666667C42.6666666666667 258.1333333333334 61.8666666666667 277.3333333333334 85.3333333333333 277.3333333333334z" /></svg>