<?xml version="1.0" encoding="UTF-8"?><!DOCTYPE svg PUBLIC "-//W3C//DTD SVG 1.1//EN" "http://www.w3.org/Graphics/SVG/1.1/DTD/svg11.dtd"><svg xmlns="http://www.w3.org/2000/svg" xmlns:xlink="http://www.w3.org/1999/xlink" version="1.1" width="512" height="512" viewBox="0 0 512 512">    <path fill="#ffffff" transform="scale(1, -1) translate(0, -448)" glyph-name="file-percent" unicode="&#xF81D;" horiz-adv-x="512" d=" M298.6666666666667 405.3333333333333L426.6666666666667 277.3333333333334V21.3333333333334C426.6666666666667 -2.1333333333333 407.4666666666667 -21.3333333333333 384 -21.3333333333333H128C104.5333333333333 -21.3333333333333 85.3333333333333 -2.1333333333333 85.3333333333333 21.3333333333334V362.6666666666667C85.3333333333333 386.1333333333334 104.5333333333333 405.3333333333333 128 405.3333333333333H298.6666666666667M157.2266666666667 21.3333333333334L320 184.5333333333334L291.2 213.3333333333334L128 50.1333333333334L157.2266666666667 21.3333333333334M277.3333333333333 256H394.6666666666667L277.3333333333333 373.3333333333334V256M160 213.3333333333334C142.2933333333333 213.3333333333334 128 199.04 128 181.3333333333334S142.2933333333333 149.3333333333334 160 149.3333333333334S192 163.6266666666667 192 181.3333333333334S177.7066666666667 213.3333333333334 160 213.3333333333334M288 85.3333333333334C270.2933333333333 85.3333333333334 256 71.04 256 53.3333333333334S270.2933333333333 21.3333333333334 288 21.3333333333334S320 35.6266666666667 320 53.3333333333334S305.7066666666667 85.3333333333334 288 85.3333333333334z" /></svg>