<?xml version="1.0" encoding="UTF-8"?><!DOCTYPE svg PUBLIC "-//W3C//DTD SVG 1.1//EN" "http://www.w3.org/Graphics/SVG/1.1/DTD/svg11.dtd"><svg xmlns="http://www.w3.org/2000/svg" xmlns:xlink="http://www.w3.org/1999/xlink" version="1.1" width="512" height="512" viewBox="0 0 512 512">    <path fill="#ffffff" transform="scale(1, -1) translate(0, -448)" glyph-name="tab-remove" unicode="&#xFB27;" horiz-adv-x="512" d=" M159.1466666666667 194.56L189.44 224.8533333333333L234.6666666666667 179.4133333333334L279.8933333333333 224.8533333333333L310.1866666666667 194.56L264.7466666666667 149.3333333333334L310.1866666666666 104.1066666666667L279.8933333333333 73.8133333333334L234.6666666666667 119.2533333333333L189.44 73.8133333333334L159.1466666666667 104.1066666666667L204.5866666666667 149.3333333333334L159.1466666666667 194.56M64 384H448C471.4666666666667 384 490.6666666666666 364.8 490.6666666666666 341.3333333333334V42.6666666666667C490.6666666666666 19.2 471.4666666666667 0 448 0H64C40.5333333333333 0 21.3333333333333 19.2 21.3333333333333 42.6666666666667V341.3333333333334C21.3333333333333 364.8 40.5333333333333 384 64 384M64 341.3333333333334V42.6666666666667H448V256H277.3333333333333V341.3333333333334H64z" /></svg>