<?xml version="1.0" encoding="UTF-8"?><!DOCTYPE svg PUBLIC "-//W3C//DTD SVG 1.1//EN" "http://www.w3.org/Graphics/SVG/1.1/DTD/svg11.dtd"><svg xmlns="http://www.w3.org/2000/svg" xmlns:xlink="http://www.w3.org/1999/xlink" version="1.1" width="512" height="512" viewBox="0 0 512 512">    <path fill="#ffffff" transform="scale(1, -1) translate(0, -448)" glyph-name="light-switch" unicode="&#xF97D;" horiz-adv-x="512" d=" M149.3333333333333 426.6666666666667C125.8666666666667 426.6666666666667 106.6666666666667 407.4666666666667 106.6666666666667 384V0C106.6666666666667 -23.4666666666667 125.8666666666667 -42.6666666666666 149.3333333333333 -42.6666666666666H362.6666666666667C386.1333333333334 -42.6666666666666 405.3333333333333 -23.4666666666667 405.3333333333333 0V384C405.3333333333333 407.4666666666667 386.1333333333334 426.6666666666667 362.6666666666667 426.6666666666667H149.3333333333333M149.3333333333333 384H362.6666666666667V0H149.3333333333333V384M192 320V64H320V320H192M213.3333333333333 298.6666666666667H298.6666666666667V213.3333333333334H213.3333333333333V298.6666666666667M213.3333333333333 170.6666666666667H298.6666666666667V85.3333333333334H213.3333333333333V170.6666666666667z" /></svg>