<?xml version="1.0" encoding="UTF-8"?><!DOCTYPE svg PUBLIC "-//W3C//DTD SVG 1.1//EN" "http://www.w3.org/Graphics/SVG/1.1/DTD/svg11.dtd"><svg xmlns="http://www.w3.org/2000/svg" xmlns:xlink="http://www.w3.org/1999/xlink" version="1.1" width="512" height="512" viewBox="0 0 512 512">    <path fill="#ffffff" transform="scale(1, -1) translate(0, -448)" glyph-name="settings-box" unicode="&#xF494;" horiz-adv-x="512" d=" M368 192C368 187.0933333333334 367.5733333333333 182.1866666666667 366.9333333333333 177.4933333333334L398.5066666666667 152.7466666666667C401.28 150.4 402.1333333333334 146.5600000000001 400.2133333333333 143.1466666666667L370.3466666666667 91.52C368.4266666666666 88.3200000000001 364.5866666666667 87.04 361.1733333333333 88.3200000000001L324.0533333333333 103.2533333333333C316.3733333333334 97.28 307.84 92.3733333333333 298.6666666666667 88.5333333333333L293.3333333333333 49.0666666666666C292.6933333333334 45.4399999999999 289.4933333333334 42.6666666666666 285.8666666666667 42.6666666666666H226.1333333333334C222.5066666666667 42.6666666666666 219.3066666666667 45.4399999999999 218.6666666666667 49.0666666666666L213.3333333333333 88.5333333333333C203.9466666666667 92.3733333333333 195.6266666666667 97.28 187.9466666666667 103.2533333333333L150.8266666666667 88.3200000000001C147.4133333333333 87.0400000000001 143.5733333333333 88.3200000000001 141.6533333333333 91.52L111.7866666666667 143.1466666666667C109.8666666666667 146.56 110.72 150.4 113.4933333333334 152.7466666666667L145.0666666666667 177.4933333333334C144.4266666666667 182.1866666666667 144 187.0933333333333 144 192C144 196.9066666666667 144.4266666666667 201.8133333333333 145.0666666666667 206.5066666666666L113.4933333333334 231.2533333333333C110.72 233.6 109.8666666666667 237.6533333333333 111.7866666666667 240.8533333333333L141.6533333333333 292.48C143.5733333333333 295.8933333333333 147.4133333333333 297.1733333333333 150.8266666666667 295.8933333333333L187.9466666666667 280.7466666666666C195.6266666666667 286.72 203.9466666666667 291.84 213.3333333333333 295.4666666666667L218.6666666666667 335.1466666666667C219.3066666666667 338.56 222.5066666666667 341.3333333333333 226.1333333333334 341.3333333333333H285.8666666666666C289.4933333333333 341.3333333333333 292.6933333333333 338.56 293.3333333333333 335.1466666666667L298.6666666666667 295.4666666666667C307.84 291.8400000000001 316.3733333333334 286.7200000000001 324.0533333333333 280.7466666666667L361.1733333333333 295.8933333333333C364.5866666666667 297.1733333333334 368.4266666666666 295.8933333333333 370.3466666666667 292.48L400.2133333333333 240.8533333333333C402.1333333333333 237.6533333333333 401.28 233.6 398.5066666666667 231.2533333333334L366.9333333333333 206.5066666666667C367.5733333333333 201.8133333333333 368 196.9066666666667 368 192M405.3333333333333 384H106.6666666666667C82.9866666666667 384 64 365.0133333333333 64 341.3333333333334V42.6666666666667C64 19.2 83.2 0 106.6666666666667 0H405.3333333333333C428.8 0 448 19.2 448 42.6666666666667V341.3333333333334C448 365.0133333333333 428.8 384 405.3333333333333 384M256 234.6666666666667C232.32 234.6666666666667 213.3333333333333 215.68 213.3333333333333 192C213.3333333333333 168.5333333333334 232.5333333333334 149.3333333333334 256 149.3333333333334S298.6666666666667 168.5333333333334 298.6666666666667 192C298.6666666666667 215.68 279.4666666666667 234.6666666666667 256 234.6666666666667z" /></svg>