<?xml version="1.0" encoding="UTF-8"?><!DOCTYPE svg PUBLIC "-//W3C//DTD SVG 1.1//EN" "http://www.w3.org/Graphics/SVG/1.1/DTD/svg11.dtd"><svg xmlns="http://www.w3.org/2000/svg" xmlns:xlink="http://www.w3.org/1999/xlink" version="1.1" width="512" height="512" viewBox="0 0 512 512">    <path fill="#ffffff" transform="scale(1, -1) translate(0, -448)" glyph-name="credit-card-wireless" unicode="&#xFD48;" horiz-adv-x="512" d=" M384 213.3333333333334H128C104.5333333333333 213.3333333333334 85.3333333333333 194.1333333333333 85.3333333333333 170.6666666666667V0C85.3333333333333 -23.4666666666667 104.5333333333333 -42.6666666666666 128 -42.6666666666666H384C407.4666666666667 -42.6666666666666 426.6666666666667 -23.4666666666667 426.6666666666667 0V170.6666666666667C426.6666666666667 194.1333333333333 407.4666666666667 213.3333333333334 384 213.3333333333334M384 0H128V85.3333333333334H384V0M384 128H128V170.6666666666667H384V128M105.1733333333333 343.04L135.2533333333333 312.9600000000001C201.8133333333333 379.7333333333334 309.9733333333333 379.7333333333334 376.7466666666667 312.9600000000001L406.8266666666667 343.04C323.6266666666667 426.6666666666667 188.5866666666667 426.6666666666667 105.1733333333333 343.04M165.5466666666667 282.6666666666667L195.6266666666667 252.5866666666667C228.9066666666667 285.8666666666667 282.88 285.8666666666667 316.3733333333334 252.5866666666667L346.4533333333333 282.6666666666667C296.5333333333333 332.5866666666667 215.4666666666666 332.5866666666667 165.5466666666666 282.6666666666667z" /></svg>