<?xml version="1.0" encoding="UTF-8"?><!DOCTYPE svg PUBLIC "-//W3C//DTD SVG 1.1//EN" "http://www.w3.org/Graphics/SVG/1.1/DTD/svg11.dtd"><svg xmlns="http://www.w3.org/2000/svg" xmlns:xlink="http://www.w3.org/1999/xlink" version="1.1" width="512" height="512" viewBox="0 0 512 512">    <path fill="#ffffff" transform="scale(1, -1) translate(0, -448)" glyph-name="select-off" unicode="&#xF488;" horiz-adv-x="512" d=" M21.3333333333333 356.9066666666667L48.64 384L448 -15.36L420.9066666666667 -42.6666666666666L362.6666666666667 15.5733333333334V0H320V42.6666666666667H335.5733333333333L106.6666666666667 271.5733333333334V256H64V298.6666666666667H79.5733333333333L21.3333333333333 356.9066666666667M426.6666666666667 384C438.4 384 448 374.4 448 362.6666666666667V341.3333333333334H405.3333333333333V384H426.6666666666667M320 341.3333333333334V384H362.6666666666667V341.3333333333334H320M234.6666666666667 341.3333333333334V384H277.3333333333333V341.3333333333334H234.6666666666667M149.3333333333333 341.3333333333334V384H192V341.3333333333334H149.3333333333333M234.6666666666667 0V42.6666666666667H277.3333333333333V0H234.6666666666667M149.3333333333333 0V42.6666666666667H192V0H149.3333333333333M85.3333333333333 0C73.6 0 64 9.6 64 21.3333333333334V42.6666666666667H106.6666666666667V0H85.3333333333333M64 128H106.6666666666667V85.3333333333334H64V128M448 128V85.3333333333334H405.3333333333333V128H448M64 213.3333333333334H106.6666666666667V170.6666666666667H64V213.3333333333334M448 213.3333333333334V170.6666666666667H405.3333333333333V213.3333333333334H448M448 298.6666666666667V256H405.3333333333333V298.6666666666667H448z" /></svg>