<?xml version="1.0" encoding="UTF-8"?><!DOCTYPE svg PUBLIC "-//W3C//DTD SVG 1.1//EN" "http://www.w3.org/Graphics/SVG/1.1/DTD/svg11.dtd"><svg xmlns="http://www.w3.org/2000/svg" xmlns:xlink="http://www.w3.org/1999/xlink" version="1.1" width="512" height="512" viewBox="0 0 512 512">    <path fill="#ffffff" transform="scale(1, -1) translate(0, -448)" glyph-name="buffer" unicode="&#xF619;" horiz-adv-x="512" d=" M268.8 386.9866666666667C325.76 360.5333333333334 384 333.0133333333333 440.7466666666667 306.56C443.9466666666666 305.0666666666667 448 304 448 299.7333333333334S443.9466666666666 294.6133333333334 440.7466666666667 293.12C384 266.6666666666667 326.4 239.5733333333334 269.2266666666667 213.3333333333334C260.48 208.8533333333333 251.52 208.8533333333333 242.7733333333333 213.3333333333334C185.3866666666667 239.7866666666667 128 266.6666666666667 70.8266666666667 293.3333333333334C67.84 294.6133333333334 64 295.68 64 299.9466666666667C64 303.7866666666667 67.84 304.8533333333334 70.6133333333333 306.1333333333334C128 333.0133333333333 186.4533333333333 360.5333333333334 244.0533333333333 387.2C250.24 389.9733333333334 262.4 389.76 268.8 386.9866666666667M256 -3.1999999999999C251.7333333333334 -3.1999999999999 248.7466666666667 -1.4933333333333 242.7733333333334 0.64C185.3866666666667 27.0933333333334 128 53.9733333333334 71.04 80.64C68.0533333333333 82.1333333333334 64 82.9866666666667 64 87.4666666666667C64 91.7333333333334 68.0533333333333 92.5866666666667 71.2533333333333 94.08C80.64 98.5600000000001 90.24 103.0400000000001 99.6266666666667 107.52C109.2266666666667 111.7866666666667 118.6133333333333 111.7866666666667 128 107.3066666666667C166.1866666666667 89.6000000000001 204.16 71.8933333333334 242.1333333333334 54.1866666666667C251.52 49.7066666666667 260.9066666666667 49.92 270.2933333333333 54.1866666666667C308.2666666666667 72.1066666666667 346.24 89.8133333333334 384 107.52C393.3866666666667 111.7866666666666 402.56 112 411.52 107.7333333333334C421.76 103.2533333333333 431.7866666666667 98.3466666666667 441.8133333333334 93.6533333333334C443.3066666666667 93.0133333333333 444.8 92.16 446.08 91.0933333333334C448.8533333333333 88.96 448.8533333333333 85.3333333333334 446.08 83.6266666666667C444.3733333333334 82.3466666666667 442.4533333333333 81.28 440.5333333333333 80.4266666666667C384 53.3333333333334 327.04 27.3066666666667 270.08 1.0666666666667C265.8133333333333 -1.0666666666667 260.0533333333333 -3.1999999999999 256 -3.1999999999999M256 103.0400000000001C253.8666666666666 103.0400000000001 246.4 105.1733333333334 242.3466666666666 106.6666666666667C185.1733333333333 133.5466666666668 128 160.0000000000001 71.2533333333333 186.8800000000001C68.2666666666666 188.1600000000001 64 189.2266666666667 64 193.4933333333334C64 197.9733333333334 68.2666666666666 198.8266666666667 71.4666666666666 200.3200000000001C81.0666666666666 205.0133333333334 90.6666666666666 209.4933333333334 100.2666666666666 213.9733333333334C109.44 218.0266666666667 118.6133333333333 218.0266666666667 128 213.3333333333334C165.9733333333333 195.8400000000001 204.3733333333333 177.9200000000001 242.7733333333333 160.0000000000001C251.52 155.9466666666668 260.48 155.9466666666668 269.44 160.0000000000001C307.84 178.1333333333335 346.24 196.0533333333334 384.8533333333333 213.9733333333334C393.6 218.0266666666667 402.56 218.0266666666667 411.52 213.9733333333334C421.5466666666666 209.2800000000001 431.7866666666667 204.5866666666668 441.8133333333334 199.8933333333334C443.0933333333333 199.2533333333334 444.5866666666667 198.6133333333334 445.8666666666667 197.5466666666668C448.8533333333334 195.2000000000001 448.8533333333334 192.0000000000001 445.6533333333333 189.4400000000001C444.5866666666667 188.5866666666668 443.0933333333333 187.9466666666667 441.8133333333334 187.3066666666667C384 160.0000000000001 326.6133333333334 133.3333333333334 269.0133333333333 106.6666666666667C264.9600000000001 104.7466666666668 257.7066666666667 103.0400000000001 256 103.0400000000001z" /></svg>