<?xml version="1.0" encoding="UTF-8"?><!DOCTYPE svg PUBLIC "-//W3C//DTD SVG 1.1//EN" "http://www.w3.org/Graphics/SVG/1.1/DTD/svg11.dtd"><svg xmlns="http://www.w3.org/2000/svg" xmlns:xlink="http://www.w3.org/1999/xlink" version="1.1" width="512" height="512" viewBox="0 0 512 512">    <path fill="#ffffff" transform="scale(1, -1) translate(0, -448)" glyph-name="vanish" unicode="&#xF7FB;" horiz-adv-x="512" d=" M341.3333333333333 170.6666666666667V213.3333333333334H448V170.6666666666667H341.3333333333333M316.3733333333334 282.4533333333334L376.7466666666667 342.8266666666667L406.8266666666667 312.7466666666667L346.4533333333334 252.3733333333334L316.3733333333334 282.4533333333334M234.6666666666667 106.6666666666667H277.3333333333333V0H234.6666666666667V106.6666666666667M234.6666666666667 384H277.3333333333333V277.3333333333334H234.6666666666667V384M105.1733333333333 71.2533333333333L165.5466666666667 131.6266666666667L195.6266666666667 101.5466666666667L135.2533333333333 41.1733333333333L105.1733333333333 71.2533333333333M105.1733333333333 312.7466666666667L135.2533333333333 342.8266666666667L195.6266666666667 282.4533333333334L165.5466666666667 252.3733333333334L105.1733333333333 312.7466666666667M170.6666666666667 170.6666666666667H64V213.3333333333334H170.6666666666667V170.6666666666667M406.8266666666667 71.2533333333333L376.7466666666667 41.1733333333333L316.3733333333334 101.5466666666666L346.4533333333333 131.6266666666667L406.8266666666667 71.2533333333333z" /></svg>