<?xml version="1.0" encoding="UTF-8"?><!DOCTYPE svg PUBLIC "-//W3C//DTD SVG 1.1//EN" "http://www.w3.org/Graphics/SVG/1.1/DTD/svg11.dtd"><svg xmlns="http://www.w3.org/2000/svg" xmlns:xlink="http://www.w3.org/1999/xlink" version="1.1" width="512" height="512" viewBox="0 0 512 512">    <path fill="#ffffff" transform="scale(1, -1) translate(0, -448)" glyph-name="vector-arrange-below" unicode="&#xF555;" horiz-adv-x="512" d=" M426.6666666666667 -21.3333333333333C450.3466666666667 -21.3333333333333 469.3333333333333 -2.3466666666666 469.3333333333333 21.3333333333334V256C469.3333333333333 279.68 450.3466666666667 298.6666666666667 426.6666666666667 298.6666666666667H192C168.32 298.6666666666667 149.3333333333333 279.68 149.3333333333333 256V21.3333333333334C149.3333333333333 -2.3466666666666 168.32 -21.3333333333333 192 -21.3333333333333H426.6666666666667M426.6666666666667 21.3333333333334H192V256H426.6666666666667V21.3333333333334M106.6666666666667 106.6666666666667V149.3333333333334H64V384H298.6666666666667V341.3333333333334H341.3333333333333V384C341.3333333333333 407.68 322.3466666666667 426.6666666666667 298.6666666666667 426.6666666666667H64C40.32 426.6666666666667 21.3333333333333 407.68 21.3333333333333 384V149.3333333333334C21.3333333333333 125.6533333333334 40.32 106.6666666666667 64 106.6666666666667H106.6666666666667z" /></svg>