<?xml version="1.0" encoding="UTF-8"?><!DOCTYPE svg PUBLIC "-//W3C//DTD SVG 1.1//EN" "http://www.w3.org/Graphics/SVG/1.1/DTD/svg11.dtd"><svg xmlns="http://www.w3.org/2000/svg" xmlns:xlink="http://www.w3.org/1999/xlink" version="1.1" width="512" height="512" viewBox="0 0 512 512">    <path fill="#ffffff" transform="scale(1, -1) translate(0, -448)" glyph-name="bat" unicode="&#xFB3B;" horiz-adv-x="512" d=" M16 277.3333333333334S106.6666666666667 298.6666666666667 170.6666666666667 256C170.6666666666667 256 181.3333333333333 176 224 176V213.3333333333334S234.6666666666667 192 256 192S288 213.3333333333334 288 213.3333333333334V176C330.6666666666667 176 341.3333333333333 256 341.3333333333333 256C405.3333333333333 298.6666666666667 496 277.3333333333334 496 277.3333333333334C453.3333333333333 256 448 181.3333333333334 448 181.3333333333334C362.6666666666667 181.3333333333334 362.6666666666667 112 362.6666666666667 112C256 133.3333333333334 256 53.3333333333334 256 53.3333333333334S256 133.3333333333334 149.3333333333333 112C149.3333333333333 112 149.3333333333333 181.3333333333334 64 181.3333333333334C64 181.3333333333334 58.6666666666667 256 16 277.3333333333334z" /></svg>