<?xml version="1.0" encoding="UTF-8"?><!DOCTYPE svg PUBLIC "-//W3C//DTD SVG 1.1//EN" "http://www.w3.org/Graphics/SVG/1.1/DTD/svg11.dtd"><svg xmlns="http://www.w3.org/2000/svg" xmlns:xlink="http://www.w3.org/1999/xlink" version="1.1" width="512" height="512" viewBox="0 0 512 512">    <path fill="#ffffff" transform="scale(1, -1) translate(0, -448)" glyph-name="foursquare" unicode="&#xF28E;" horiz-adv-x="512" d=" M362.6666666666667 341.3333333333334L353.4933333333334 288C352 283.0933333333334 345.6 277.3333333333334 339.4133333333333 277.3333333333334H256C245.9733333333333 277.3333333333334 233.6 270.5066666666667 233.6 260.48V251.7333333333334C233.6 241.7066666666667 245.9733333333333 234.6666666666667 256 234.6666666666667H325.9733333333333C333.0133333333333 234.6666666666667 339.84 226.9866666666667 338.3466666666667 219.52C336.8533333333333 211.84 318.72 164.6933333333333 317.8666666666666 160C317.0133333333333 156.3733333333333 312.32 149.3333333333334 304 149.3333333333334H242.56C231.4666666666666 149.3333333333334 228.0533333333333 147.84 220.5866666666666 138.6666666666667C213.3333333333333 129.28 155.0933333333333 61.8666666666667 155.0933333333333 61.8666666666667C154.4533333333333 61.2266666666666 149.3333333333333 63.1466666666667 149.3333333333333 64V341.3333333333334C149.3333333333333 347.7333333333334 162.3466666666666 362.6666666666667 170.6666666666666 362.6666666666667H352C358.8266666666667 362.6666666666667 364.3733333333333 349.6533333333333 362.6666666666667 341.3333333333334M362.6666666666667 139.7333333333334C365.0133333333333 149.9733333333334 400.64 304.6400000000001 410.0266666666667 350.9333333333334M375.04 405.3333333333333H147.4133333333333C115.84 405.3333333333333 106.6666666666667 381.6533333333333 106.6666666666667 366.9333333333334V5.12C106.6666666666667 -11.52 115.6266666666667 -17.9200000000001 120.7466666666667 -19.84C125.8666666666667 -21.9733333333334 139.7333333333333 -23.6799999999999 148.0533333333334 -14.08C148.0533333333334 -14.08 248.5333333333334 101.9733333333334 250.4533333333333 103.8933333333334C253.2266666666667 106.6666666666667 253.2266666666667 106.6666666666667 256 106.6666666666667H325.5466666666666C354.7733333333333 106.6666666666667 359.4666666666667 128.0000000000001 362.6666666666667 139.7333333333334C365.0133333333333 149.9733333333334 400.64 304.6400000000001 410.0266666666667 350.9333333333334C417.28 386.3466666666668 408.32 405.3333333333334 375.04 405.3333333333334z" /></svg>