<?xml version="1.0" encoding="UTF-8"?><!DOCTYPE svg PUBLIC "-//W3C//DTD SVG 1.1//EN" "http://www.w3.org/Graphics/SVG/1.1/DTD/svg11.dtd"><svg xmlns="http://www.w3.org/2000/svg" xmlns:xlink="http://www.w3.org/1999/xlink" version="1.1" width="512" height="512" viewBox="0 0 512 512">    <path fill="#ffffff" transform="scale(1, -1) translate(0, -448)" glyph-name="dialpad" unicode="&#xF61C;" horiz-adv-x="512" d=" M256 42.6666666666667C232.5333333333334 42.6666666666667 213.3333333333333 23.4666666666667 213.3333333333333 0S232.5333333333334 -42.6666666666666 256 -42.6666666666666S298.6666666666667 -23.4666666666667 298.6666666666667 0S279.4666666666667 42.6666666666667 256 42.6666666666667M128 426.6666666666667C104.5333333333333 426.6666666666667 85.3333333333333 407.4666666666667 85.3333333333333 384S104.5333333333333 341.3333333333334 128 341.3333333333334S170.6666666666667 360.5333333333334 170.6666666666667 384S151.4666666666667 426.6666666666667 128 426.6666666666667M128 298.6666666666667C104.5333333333333 298.6666666666667 85.3333333333333 279.4666666666667 85.3333333333333 256S104.5333333333333 213.3333333333334 128 213.3333333333334S170.6666666666667 232.5333333333334 170.6666666666667 256S151.4666666666667 298.6666666666667 128 298.6666666666667M128 170.6666666666667C104.5333333333333 170.6666666666667 85.3333333333333 151.4666666666667 85.3333333333333 128S104.5333333333333 85.3333333333334 128 85.3333333333334S170.6666666666667 104.5333333333333 170.6666666666667 128S151.4666666666667 170.6666666666667 128 170.6666666666667M384 341.3333333333334C407.4666666666667 341.3333333333334 426.6666666666667 360.5333333333334 426.6666666666667 384S407.4666666666667 426.6666666666667 384 426.6666666666667S341.3333333333333 407.4666666666667 341.3333333333333 384S360.5333333333333 341.3333333333334 384 341.3333333333334M256 170.6666666666667C232.5333333333334 170.6666666666667 213.3333333333333 151.4666666666667 213.3333333333333 128S232.5333333333334 85.3333333333334 256 85.3333333333334S298.6666666666667 104.5333333333333 298.6666666666667 128S279.4666666666667 170.6666666666667 256 170.6666666666667M384 170.6666666666667C360.5333333333333 170.6666666666667 341.3333333333333 151.4666666666667 341.3333333333333 128S360.5333333333333 85.3333333333334 384 85.3333333333334S426.6666666666667 104.5333333333333 426.6666666666667 128S407.4666666666667 170.6666666666667 384 170.6666666666667M384 298.6666666666667C360.5333333333333 298.6666666666667 341.3333333333333 279.4666666666667 341.3333333333333 256S360.5333333333333 213.3333333333334 384 213.3333333333334S426.6666666666667 232.5333333333334 426.6666666666667 256S407.4666666666667 298.6666666666667 384 298.6666666666667M256 298.6666666666667C232.5333333333334 298.6666666666667 213.3333333333333 279.4666666666667 213.3333333333333 256S232.5333333333334 213.3333333333334 256 213.3333333333334S298.6666666666667 232.5333333333334 298.6666666666667 256S279.4666666666667 298.6666666666667 256 298.6666666666667M256 426.6666666666667C232.5333333333334 426.6666666666667 213.3333333333333 407.4666666666667 213.3333333333333 384S232.5333333333334 341.3333333333334 256 341.3333333333334S298.6666666666667 360.5333333333334 298.6666666666667 384S279.4666666666667 426.6666666666667 256 426.6666666666667z" /></svg>