<?xml version="1.0" encoding="UTF-8"?><!DOCTYPE svg PUBLIC "-//W3C//DTD SVG 1.1//EN" "http://www.w3.org/Graphics/SVG/1.1/DTD/svg11.dtd"><svg xmlns="http://www.w3.org/2000/svg" xmlns:xlink="http://www.w3.org/1999/xlink" version="1.1" width="512" height="512" viewBox="0 0 512 512">    <path fill="#ffffff" transform="scale(1, -1) translate(0, -448)" glyph-name="pickaxe" unicode="&#xF8B6;" horiz-adv-x="512" d=" M315.52 221.44L74.6666666666667 -19.1999999999999L44.8 10.6666666666667L285.44 251.52L315.52 221.44M411.0933333333334 283.0933333333334L423.6800000000001 295.68L406.8266666666667 312.5333333333333L420.4800000000001 326.1866666666667L390.1866666666668 356.48L376.5333333333334 342.8266666666667L359.6800000000001 359.68L347.0933333333335 347.0933333333334C309.9733333333335 377.3866666666667 268.1600000000002 401.7066666666667 223.3600000000001 418.7733333333333L205.6533333333335 380.5866666666667C242.9866666666668 360.96 277.3333333333335 337.28 309.3333333333335 309.3333333333334L298.6666666666667 298.6666666666667L362.6666666666667 234.6666666666667L373.3333333333333 245.3333333333334C401.28 213.3333333333334 424.9600000000001 178.9866666666667 444.5866666666667 141.6533333333334L482.7733333333333 159.36C465.7066666666666 204.16 441.3866666666666 245.9733333333334 411.0933333333333 283.0933333333334z" /></svg>