<?xml version="1.0" encoding="UTF-8"?><!DOCTYPE svg PUBLIC "-//W3C//DTD SVG 1.1//EN" "http://www.w3.org/Graphics/SVG/1.1/DTD/svg11.dtd"><svg xmlns="http://www.w3.org/2000/svg" xmlns:xlink="http://www.w3.org/1999/xlink" version="1.1" width="512" height="512" viewBox="0 0 512 512">    <path fill="#ffffff" transform="scale(1, -1) translate(0, -448)" glyph-name="web" unicode="&#xF59F;" horiz-adv-x="512" d=" M349.0133333333333 149.3333333333334C350.7199999999999 163.4133333333334 352 177.4933333333334 352 192C352 206.5066666666667 350.7200000000001 220.5866666666667 349.0133333333333 234.6666666666667H421.12C424.5333333333333 221.0133333333333 426.6666666666667 206.72 426.6666666666667 192S424.5333333333333 162.9866666666667 421.12 149.3333333333334M311.2533333333333 30.72C324.0533333333333 54.4 333.8666666666666 80 340.6933333333333 106.6666666666667H403.6266666666666C383.1466666666666 71.4666666666667 350.5066666666667 44.16 311.2533333333333 30.72M305.92 149.3333333333334H206.08C203.9466666666667 163.4133333333334 202.6666666666667 177.4933333333334 202.6666666666667 192C202.6666666666667 206.5066666666667 203.9466666666667 220.8 206.08 234.6666666666667H305.92C307.84 220.8 309.3333333333333 206.5066666666667 309.3333333333333 192C309.3333333333333 177.4933333333334 307.84 163.4133333333334 305.92 149.3333333333334M256 22.1866666666667C238.2933333333333 47.7866666666666 224 76.16 215.2533333333333 106.6666666666667H296.7466666666667C288 76.16 273.7066666666667 47.7866666666668 256 22.1866666666667M170.6666666666667 277.3333333333334H108.3733333333333C128.64 312.7466666666667 161.4933333333334 340.0533333333334 200.5333333333333 353.2800000000001C187.7333333333334 329.6 178.1333333333333 304 170.6666666666667 277.3333333333334M108.3733333333333 106.6666666666667H170.6666666666667C178.1333333333333 80 187.7333333333334 54.4 200.5333333333333 30.72C161.4933333333334 44.16 128.64 71.4666666666667 108.3733333333333 106.6666666666667M90.88 149.3333333333334C87.4666666666667 162.9866666666667 85.3333333333333 177.28 85.3333333333333 192S87.4666666666667 221.0133333333333 90.88 234.6666666666667H162.9866666666667C161.28 220.5866666666667 160 206.5066666666667 160 192C160 177.4933333333334 161.28 163.4133333333334 162.9866666666667 149.3333333333334M256 362.0266666666667C273.7066666666667 336.4266666666667 288 307.8400000000001 296.7466666666667 277.3333333333334H215.2533333333333C224 307.8400000000001 238.2933333333333 336.4266666666667 256 362.0266666666667M403.6266666666667 277.3333333333334H340.6933333333334C333.8666666666667 304 324.0533333333334 329.6 311.2533333333334 353.2800000000001C350.5066666666667 339.8400000000001 383.1466666666668 312.7466666666667 403.6266666666667 277.3333333333334M256 405.3333333333333C138.0266666666667 405.3333333333333 42.6666666666667 309.3333333333334 42.6666666666667 192C42.6666666666667 74.24 138.24 -21.3333333333333 256 -21.3333333333333S469.3333333333333 74.24 469.3333333333333 192S373.76 405.3333333333333 256 405.3333333333333z" /></svg>