<?xml version="1.0" encoding="UTF-8"?><!DOCTYPE svg PUBLIC "-//W3C//DTD SVG 1.1//EN" "http://www.w3.org/Graphics/SVG/1.1/DTD/svg11.dtd"><svg xmlns="http://www.w3.org/2000/svg" xmlns:xlink="http://www.w3.org/1999/xlink" version="1.1" width="512" height="512" viewBox="0 0 512 512">    <path fill="#ffffff" transform="scale(1, -1) translate(0, -448)" glyph-name="hand-pointing-up" unicode="&#xFA54;" horiz-adv-x="512" d=" M298.6666666666667 384V170.6666666666667L366.9333333333333 206.72L371.6266666666666 207.36C377.8133333333333 207.36 383.36 204.8 387.4133333333333 200.5333333333333L403.1999999999999 184.1066666666667L298.6666666666665 94.5066666666667C293.1199999999999 88.7466666666667 285.6533333333332 85.3333333333334 277.3333333333332 85.3333333333334H138.6666666666667C122.24 85.3333333333334 106.6666666666667 100.2666666666667 106.6666666666667 117.3333333333334V210.3466666666667C106.6666666666667 223.36 114.1333333333333 234.6666666666667 124.8 238.9333333333334L230.1866666666667 285.8666666666667L256 288.64V384C256 395.7333333333334 265.6 405.3333333333333 277.3333333333333 405.3333333333333S298.6666666666667 395.7333333333334 298.6666666666667 384M106.6666666666667 42.6666666666667H277.3333333333333V-21.3333333333333H106.6666666666667V42.6666666666667z" /></svg>