<?xml version="1.0" encoding="UTF-8"?><!DOCTYPE svg PUBLIC "-//W3C//DTD SVG 1.1//EN" "http://www.w3.org/Graphics/SVG/1.1/DTD/svg11.dtd"><svg xmlns="http://www.w3.org/2000/svg" xmlns:xlink="http://www.w3.org/1999/xlink" version="1.1" width="512" height="512" viewBox="0 0 512 512">    <path fill="#ffffff" transform="scale(1, -1) translate(0, -448)" glyph-name="margin" unicode="&#xF353;" horiz-adv-x="512" d=" M426.6666666666667 362.6666666666667V256L394.6666666666667 288L117.3333333333333 10.6666666666667L74.6666666666667 53.3333333333334L352 330.6666666666667L320 362.6666666666667H426.6666666666667M362.6666666666667 21.3333333333334C327.2533333333334 21.3333333333334 298.6666666666667 49.92 298.6666666666667 85.3333333333334V128C298.6666666666667 163.4133333333334 327.2533333333334 192 362.6666666666667 192S426.6666666666667 163.4133333333334 426.6666666666667 128V85.3333333333334C426.6666666666667 49.92 398.08 21.3333333333334 362.6666666666667 21.3333333333334M362.6666666666667 149.3333333333334C350.9333333333333 149.3333333333334 341.3333333333333 139.7333333333334 341.3333333333333 128V85.3333333333334C341.3333333333333 73.6 350.9333333333333 64 362.6666666666667 64S384 73.6 384 85.3333333333334V128C384 139.7333333333334 374.4 149.3333333333334 362.6666666666667 149.3333333333334M149.3333333333333 192C113.92 192 85.3333333333333 220.5866666666667 85.3333333333333 256V298.6666666666667C85.3333333333333 334.0800000000001 113.92 362.6666666666667 149.3333333333333 362.6666666666667S213.3333333333333 334.0800000000001 213.3333333333333 298.6666666666667V256C213.3333333333333 220.5866666666667 184.7466666666667 192 149.3333333333333 192M149.3333333333333 320C137.6 320 128 310.4 128 298.6666666666667V256C128 244.2666666666667 137.6 234.6666666666667 149.3333333333333 234.6666666666667S170.6666666666667 244.2666666666667 170.6666666666667 256V298.6666666666667C170.6666666666667 310.4 161.0666666666667 320 149.3333333333333 320z" /></svg>