<?xml version="1.0" encoding="UTF-8"?><!DOCTYPE svg PUBLIC "-//W3C//DTD SVG 1.1//EN" "http://www.w3.org/Graphics/SVG/1.1/DTD/svg11.dtd"><svg xmlns="http://www.w3.org/2000/svg" xmlns:xlink="http://www.w3.org/1999/xlink" version="1.1" width="512" height="512" viewBox="0 0 512 512">    <path fill="#ffffff" transform="scale(1, -1) translate(0, -448)" glyph-name="white-balance-auto" unicode="&#xF5A5;" horiz-adv-x="512" d=" M219.7333333333334 106.6666666666667L204.8 149.3333333333334H136.5333333333333L121.6 106.6666666666667H81.0666666666667L149.3333333333333 298.6666666666667H192L260.2666666666667 106.6666666666667M469.3333333333333 298.6666666666667L443.7333333333334 164.48L411.7333333333334 298.6666666666667H377.6L345.8133333333334 164.48L320 298.6666666666667H303.7866666666667C272.4266666666666 337.7066666666667 224 362.6666666666667 170.6666666666667 362.6666666666667C76.3733333333333 362.6666666666667 0 286.2933333333334 0 192S76.3733333333333 21.3333333333334 170.6666666666667 21.3333333333334C237.44 21.3333333333334 295.2533333333334 59.9466666666667 323.2 115.84L325.3333333333333 106.6666666666667H362.6666666666667L394.6666666666667 236.8L426.6666666666667 106.6666666666667H464L507.7333333333333 298.6666666666667M146.1333333333333 178.1333333333333H195.2L170.6666666666667 256L146.1333333333333 178.1333333333333z" /></svg>