<?xml version="1.0" encoding="UTF-8"?><!DOCTYPE svg PUBLIC "-//W3C//DTD SVG 1.1//EN" "http://www.w3.org/Graphics/SVG/1.1/DTD/svg11.dtd"><svg xmlns="http://www.w3.org/2000/svg" xmlns:xlink="http://www.w3.org/1999/xlink" version="1.1" width="512" height="512" viewBox="0 0 512 512">    <path fill="#ffffff" transform="scale(1, -1) translate(0, -448)" glyph-name="van-passenger" unicode="&#xF7F9;" horiz-adv-x="512" d=" M64 298.6666666666667C40.32 298.6666666666667 21.3333333333333 279.68 21.3333333333333 256V85.3333333333334H64C64 49.92 92.5866666666667 21.3333333333334 128 21.3333333333334S192 49.92 192 85.3333333333334H320C320 49.92 348.5866666666667 21.3333333333334 384 21.3333333333334S448 49.92 448 85.3333333333334H490.6666666666666V170.6666666666667C490.6666666666666 194.3466666666667 471.6799999999999 213.3333333333334 448 213.3333333333334L384 298.6666666666667H64M64 266.6666666666667H149.3333333333333V213.3333333333334H64V266.6666666666667M192 266.6666666666667H277.3333333333333V213.3333333333334H192V266.6666666666667M320 266.6666666666667H373.3333333333333L415.1466666666667 213.3333333333334H320V266.6666666666667M128 117.3333333333334C145.7066666666667 117.3333333333334 160 103.04 160 85.3333333333334S145.7066666666667 53.3333333333334 128 53.3333333333334S96 67.6266666666667 96 85.3333333333334S110.2933333333333 117.3333333333334 128 117.3333333333334M384 117.3333333333334C401.7066666666666 117.3333333333334 416 103.04 416 85.3333333333334S401.7066666666666 53.3333333333334 384 53.3333333333334S352 67.6266666666667 352 85.3333333333334S366.2933333333334 117.3333333333334 384 117.3333333333334z" /></svg>