<?xml version="1.0" encoding="UTF-8"?><!DOCTYPE svg PUBLIC "-//W3C//DTD SVG 1.1//EN" "http://www.w3.org/Graphics/SVG/1.1/DTD/svg11.dtd"><svg xmlns="http://www.w3.org/2000/svg" xmlns:xlink="http://www.w3.org/1999/xlink" version="1.1" width="512" height="512" viewBox="0 0 512 512">    <path fill="#ffffff" transform="scale(1, -1) translate(0, -448)" glyph-name="omega" unicode="&#xF3C9;" horiz-adv-x="512" d=" M408.5333333333333 42.6666666666667H285.6533333333333V88.1066666666667C330.6666666666667 122.6666666666667 353.92 165.5466666666666 353.92 216.7466666666667C353.92 248.7466666666667 344.7466666666667 273.92 326.8266666666667 292.48C308.6933333333334 311.04 285.2266666666667 320 256.64 320C227.84 320 204.16 311.04 185.8133333333333 292.2666666666667C167.2533333333333 273.7066666666667 158.08 248.1066666666667 158.08 215.8933333333334C158.08 165.1200000000001 181.3333333333333 122.4533333333334 226.3466666666667 88.1066666666667V42.6666666666667H103.4666666666667V88.1066666666667H179.4133333333333C128.8533333333333 121.1733333333334 103.4666666666667 165.76 103.4666666666667 221.8666666666667C103.4666666666667 266.6666666666667 117.3333333333333 301.6533333333333 145.28 327.2533333333334C173.2266666666666 353.0666666666667 209.92 365.8666666666667 255.36 365.8666666666667C301.8666666666666 365.8666666666667 338.9866666666666 353.0666666666667 366.7199999999999 327.68C394.6666666666666 302.2933333333334 408.5333333333333 266.6666666666667 408.5333333333333 222.2933333333333C408.5333333333333 166.1866666666667 382.9333333333333 121.3866666666667 331.7333333333333 88.1066666666667H408.5333333333333V42.6666666666667z" /></svg>