<?xml version="1.0" encoding="UTF-8"?><!DOCTYPE svg PUBLIC "-//W3C//DTD SVG 1.1//EN" "http://www.w3.org/Graphics/SVG/1.1/DTD/svg11.dtd"><svg xmlns="http://www.w3.org/2000/svg" xmlns:xlink="http://www.w3.org/1999/xlink" version="1.1" width="512" height="512" viewBox="0 0 512 512">    <path fill="#ffffff" transform="scale(1, -1) translate(0, -448)" glyph-name="crop-rotate" unicode="&#xF695;" horiz-adv-x="512" d=" M159.36 -10.6666666666666C89.6 22.8266666666667 39.68 90.4533333333333 32 170.6666666666667H0C10.6666666666667 39.2533333333333 120.7466666666667 -64 254.9333333333333 -64C259.84 -64 264.32 -64 269.0133333333333 -63.36L187.7333333333334 18.1333333333334L159.36 -10.6666666666666M257.0666666666667 448C252.16 448 247.68 448 242.9866666666667 447.1466666666667L324.2666666666667 365.8666666666667L352.64 394.6666666666667C422.4 361.1733333333334 472.32 293.5466666666667 480 213.3333333333334H512C501.3333333333333 344.7466666666667 391.2533333333334 448 257.0666666666667 448M341.3333333333333 149.3333333333334H384V277.3333333333334C384 301.0133333333333 364.8 320 341.3333333333333 320H213.3333333333333V277.3333333333334H341.3333333333333V149.3333333333334M170.6666666666667 106.6666666666667V362.6666666666667H128V320H85.3333333333333V277.3333333333334H128V106.6666666666667C128 83.2 147.2 64 170.6666666666667 64H341.3333333333333V21.3333333333334H384V64H426.6666666666667V106.6666666666667H170.6666666666667z" /></svg>