<?xml version="1.0" encoding="UTF-8"?><!DOCTYPE svg PUBLIC "-//W3C//DTD SVG 1.1//EN" "http://www.w3.org/Graphics/SVG/1.1/DTD/svg11.dtd"><svg xmlns="http://www.w3.org/2000/svg" xmlns:xlink="http://www.w3.org/1999/xlink" version="1.1" width="512" height="512" viewBox="0 0 512 512">    <path fill="#ffffff" transform="scale(1, -1) translate(0, -448)" glyph-name="microscope" unicode="&#xF654;" horiz-adv-x="512" d=" M201.8133333333333 314.0266666666667L235.7333333333334 256C180.6933333333333 250.4533333333334 138.6666666666667 204.5866666666667 138.6666666666667 149.3333333333334C138.6666666666667 90.4533333333334 186.4533333333334 42.6666666666667 245.3333333333333 42.6666666666667C289.0666666666667 42.6666666666667 326.6133333333334 68.9066666666667 343.04 106.6666666666667H288V149.3333333333334H458.6666666666666V106.6666666666667H410.6666666666667C401.92 73.1733333333334 383.36 43.52 358.1866666666666 21.3333333333334H416V-21.3333333333333H74.6666666666667V21.3333333333334H132.48C97.0666666666667 52.6933333333333 74.6666666666667 98.3466666666667 74.6666666666667 149.3333333333334C74.6666666666667 226.7733333333333 127.1466666666667 294.4 201.8133333333333 314.0266666666667M271.7866666666667 403.84L288 376.1066666666667L306.3466666666667 386.7733333333333L381.0133333333333 257.4933333333334L306.9866666666666 214.8266666666667L232.32 344.1066666666667L250.88 354.7733333333333L234.6666666666667 382.5066666666667L271.7866666666667 403.84z" /></svg>