<?xml version="1.0" encoding="UTF-8"?><!DOCTYPE svg PUBLIC "-//W3C//DTD SVG 1.1//EN" "http://www.w3.org/Graphics/SVG/1.1/DTD/svg11.dtd"><svg xmlns="http://www.w3.org/2000/svg" xmlns:xlink="http://www.w3.org/1999/xlink" version="1.1" width="512" height="512" viewBox="0 0 512 512">    <path fill="#ffffff" transform="scale(1, -1) translate(0, -448)" glyph-name="silverware" unicode="&#xF4A3;" horiz-adv-x="512" d=" M172.8 163.4133333333334L83.4133333333333 252.5866666666667C50.1333333333333 286.0800000000001 50.1333333333333 340.0533333333334 83.4133333333333 373.3333333333334L233.1733333333333 224L172.8 163.4133333333334M317.44 202.0266666666667L286.08 170.6666666666667L432.8533333333333 23.8933333333334L402.7733333333333 -6.1866666666666L256 140.5866666666667L109.2266666666667 -6.1866666666666L79.1466666666667 23.8933333333334L287.36 232.1066666666667C272.2133333333333 264.7466666666667 282.88 310.6133333333334 316.8 344.5333333333334C357.5466666666666 385.4933333333334 416 393.1733333333334 447.1466666666666 362.0266666666667C478.5066666666665 330.6666666666667 470.8266666666666 272.2133333333334 429.8666666666666 231.4666666666667C395.9466666666666 197.5466666666667 350.08 186.8800000000001 317.44 202.0266666666667z" /></svg>