<?xml version="1.0" encoding="UTF-8"?><!DOCTYPE svg PUBLIC "-//W3C//DTD SVG 1.1//EN" "http://www.w3.org/Graphics/SVG/1.1/DTD/svg11.dtd"><svg xmlns="http://www.w3.org/2000/svg" xmlns:xlink="http://www.w3.org/1999/xlink" version="1.1" width="512" height="512" viewBox="0 0 512 512">    <path fill="#ffffff" transform="scale(1, -1) translate(0, -448)" glyph-name="cake-variant" unicode="&#xF0EB;" horiz-adv-x="512" d=" M256 320C279.68 320 298.6666666666667 339.2000000000001 298.6666666666667 362.6666666666667C298.6666666666667 370.7733333333333 296.5333333333333 378.24 292.48 384.64L256 448L219.52 384.64C215.4666666666667 378.24 213.3333333333333 370.7733333333333 213.3333333333333 362.6666666666667C213.3333333333333 339.2000000000001 232.5333333333334 320 256 320M354.1333333333334 106.6666666666667L331.3066666666667 129.7066666666667L308.2666666666667 106.6666666666667C280.5333333333333 79.1466666666667 231.8933333333333 78.9333333333333 203.9466666666666 106.6666666666667L181.3333333333333 129.7066666666667L157.8666666666667 106.6666666666667C144 93.0133333333333 125.44 85.3333333333334 105.8133333333334 85.3333333333334C90.24 85.3333333333334 75.9466666666667 90.24 64 98.3466666666667V0C64 -11.7333333333333 73.6 -21.3333333333333 85.3333333333333 -21.3333333333333H426.6666666666667C438.4 -21.3333333333333 448 -11.7333333333333 448 0V98.3466666666667C436.0533333333334 90.24 421.76 85.3333333333334 406.1866666666666 85.3333333333334C386.56 85.3333333333334 368 93.0133333333333 354.1333333333333 106.6666666666667M384 256H277.3333333333333V298.6666666666667H234.6666666666667V256H128C92.5866666666667 256 64 227.4133333333334 64 192V159.1466666666667C64 136.1066666666667 82.7733333333333 117.3333333333334 105.8133333333333 117.3333333333334C117.3333333333333 117.3333333333334 128 121.6 135.2533333333333 129.4933333333334L181.3333333333333 174.9333333333333L226.3466666666667 129.4933333333334C242.1333333333334 113.7066666666667 269.6533333333333 113.7066666666667 285.44 129.4933333333334L330.6666666666667 174.9333333333333L376.5333333333333 129.4933333333334C384 121.6 394.6666666666667 117.3333333333334 405.9733333333333 117.3333333333334C429.0133333333333 117.3333333333334 447.9999999999999 136.1066666666667 447.9999999999999 159.1466666666667V192C447.9999999999999 227.4133333333334 419.4133333333333 256 383.9999999999999 256z" /></svg>