<?xml version="1.0" encoding="UTF-8"?><!DOCTYPE svg PUBLIC "-//W3C//DTD SVG 1.1//EN" "http://www.w3.org/Graphics/SVG/1.1/DTD/svg11.dtd"><svg xmlns="http://www.w3.org/2000/svg" xmlns:xlink="http://www.w3.org/1999/xlink" version="1.1" width="512" height="512" viewBox="0 0 512 512">    <path fill="#ffffff" transform="scale(1, -1) translate(0, -448)" glyph-name="hand-pointing-down" unicode="&#xFA52;" horiz-adv-x="512" d=" M211.2 0V213.3333333333334L142.9333333333333 177.28L138.6666666666667 176.6400000000001C132.0533333333334 176.6400000000001 126.5066666666667 179.2000000000001 122.4533333333333 183.4666666666667L106.6666666666667 199.8933333333333L211.2 289.4933333333334C216.7466666666667 295.2533333333334 224 298.6666666666667 232.5333333333334 298.6666666666667H371.2C387.6266666666666 298.6666666666667 403.2 283.7333333333334 403.2 266.6666666666667V173.6533333333334C403.2 160.6400000000001 395.7333333333333 149.3333333333334 385.0666666666666 145.0666666666667L279.6799999999999 98.1333333333334L253.8666666666666 95.3600000000001V0C253.8666666666666 -11.7333333333333 244.2666666666666 -21.3333333333333 232.5333333333332 -21.3333333333333S211.1999999999999 -11.7333333333333 211.1999999999999 0M403.1999999999999 341.3333333333334H232.5333333333332V405.3333333333333H403.1999999999999V341.3333333333334z" /></svg>