<?xml version="1.0" encoding="UTF-8"?><!DOCTYPE svg PUBLIC "-//W3C//DTD SVG 1.1//EN" "http://www.w3.org/Graphics/SVG/1.1/DTD/svg11.dtd"><svg xmlns="http://www.w3.org/2000/svg" xmlns:xlink="http://www.w3.org/1999/xlink" version="1.1" width="512" height="512" viewBox="0 0 512 512">    <path fill="#ffffff" transform="scale(1, -1) translate(0, -448)" glyph-name="youtube-gaming" unicode="&#xF847;" horiz-adv-x="512" d=" M128 372.48C123.9466666666667 372.48 120.1066666666667 370.7733333333333 116.48 368.8533333333334L11.7333333333333 309.3333333333334C4.48 305.0666666666667 0 297.3866666666667 0 289.0666666666667V156.16C0 147.84 4.48 140.16 11.7333333333333 135.8933333333334L244.48 3.6266666666667C248.1066666666667 1.7066666666667 251.9466666666667 0 256 0C260.0533333333333 0 263.8933333333333 1.7066666666666 267.52 3.6266666666667L500.2666666666667 135.8933333333334C507.52 139.9466666666667 512 147.6266666666667 512 155.9466666666667V289.0666666666667C512 297.3866666666667 507.52 305.0666666666667 500.2666666666667 309.3333333333334L395.52 368.8533333333334C391.8933333333333 370.7733333333333 388.0533333333333 372.48 384 372.48C379.9466666666666 372.48 376.1066666666667 370.7733333333333 372.48 368.8533333333334L267.52 309.3333333333334C260.48 305.0666666666667 251.7333333333333 305.0666666666667 244.48 309.3333333333334L139.52 368.8533333333334C135.8933333333333 370.7733333333333 132.0533333333334 372.48 128 372.48M386.9866666666667 360.7466666666667L500.48 296.7466666666667L386.9866666666667 229.76V360.7466666666667z" /></svg>