<?xml version="1.0" encoding="UTF-8"?><!DOCTYPE svg PUBLIC "-//W3C//DTD SVG 1.1//EN" "http://www.w3.org/Graphics/SVG/1.1/DTD/svg11.dtd"><svg xmlns="http://www.w3.org/2000/svg" xmlns:xlink="http://www.w3.org/1999/xlink" version="1.1" width="512" height="512" viewBox="0 0 512 512">    <path fill="#ffffff" transform="scale(1, -1) translate(0, -448)" glyph-name="pencil-box" unicode="&#xF3EC;" horiz-adv-x="512" d=" M405.3333333333333 384C428.8 384 448 364.8 448 341.3333333333334V42.6666666666667C448 18.9866666666667 428.8 0 405.3333333333333 0H106.6666666666667C83.2 0 64 19.2 64 42.6666666666667V341.3333333333334C64 364.8 83.2 384 106.6666666666667 384H405.3333333333333M356.2666666666667 248.5333333333334C360.9599999999999 253.0133333333334 360.9599999999999 260.48 356.2666666666667 264.9600000000001L328.96 292.2666666666667C324.48 296.9600000000001 317.0133333333333 296.9600000000001 312.5333333333333 292.2666666666667L291.2 270.9333333333334L334.9333333333333 227.2L356.2666666666667 248.5333333333333M149.3333333333333 129.28V85.3333333333334H193.28L322.56 214.6133333333333L278.6133333333334 258.56L149.3333333333333 129.28z" /></svg>