<?xml version="1.0" encoding="UTF-8"?><!DOCTYPE svg PUBLIC "-//W3C//DTD SVG 1.1//EN" "http://www.w3.org/Graphics/SVG/1.1/DTD/svg11.dtd"><svg xmlns="http://www.w3.org/2000/svg" xmlns:xlink="http://www.w3.org/1999/xlink" version="1.1" width="512" height="512" viewBox="0 0 512 512">    <path fill="#ffffff" transform="scale(1, -1) translate(0, -448)" glyph-name="podcast" unicode="&#xF993;" horiz-adv-x="512" d=" M362.6666666666667 58.6666666666667V-10.6666666666666H149.3333333333333V58.6666666666667C149.3333333333333 88.1066666666667 197.12 112 256 112S362.6666666666667 88.1066666666667 362.6666666666667 58.6666666666667M256 330.6666666666667C332.5866666666667 330.6666666666667 394.6666666666667 268.5866666666667 394.6666666666667 192C394.6666666666667 165.3333333333334 387.2 140.3733333333333 374.1866666666666 119.2533333333333L341.3333333333333 148.48C348.16 161.4933333333334 352 176.4266666666667 352 192C352 245.3333333333334 309.3333333333333 288 256 288S160 245.3333333333334 160 192C160 176.4266666666667 163.84 161.4933333333334 170.6666666666667 148.48L137.8133333333333 119.2533333333333C124.8 140.3733333333333 117.3333333333333 165.3333333333334 117.3333333333333 192C117.3333333333333 268.5866666666667 179.4133333333333 330.6666666666667 256 330.6666666666667M256 416C379.7333333333334 416 480 315.7333333333334 480 192C480 143.36 464.4266666666666 98.3466666666667 438.1866666666666 61.6533333333334L406.1866666666666 90.4533333333334C425.8133333333334 119.4666666666667 437.3333333333333 154.4533333333334 437.3333333333333 192.0000000000001C437.3333333333333 292.0533333333334 356.0533333333334 373.3333333333334 256 373.3333333333334C155.9466666666667 373.3333333333334 74.6666666666667 292.0533333333334 74.6666666666667 192.0000000000001C74.6666666666667 154.4533333333334 86.1866666666667 119.4666666666667 105.8133333333333 90.4533333333334L73.8133333333333 61.6533333333334C47.5733333333333 98.3466666666667 32 143.36 32 192C32 315.7333333333334 132.2666666666667 416 256 416M256 245.3333333333334C285.44 245.3333333333334 309.3333333333333 221.44 309.3333333333333 192S285.44 138.6666666666667 256 138.6666666666667S202.6666666666667 162.5600000000001 202.6666666666667 192S226.56 245.3333333333334 256 245.3333333333334z" /></svg>