<?xml version="1.0" encoding="UTF-8"?><!DOCTYPE svg PUBLIC "-//W3C//DTD SVG 1.1//EN" "http://www.w3.org/Graphics/SVG/1.1/DTD/svg11.dtd"><svg xmlns="http://www.w3.org/2000/svg" xmlns:xlink="http://www.w3.org/1999/xlink" version="1.1" width="512" height="512" viewBox="0 0 512 512">    <path fill="#ffffff" transform="scale(1, -1) translate(0, -448)" glyph-name="halloween" unicode="&#xFB7F;" horiz-adv-x="512" d=" M138.6666666666667 320C159.36 320 178.56 309.3333333333334 194.3466666666666 290.56C206.08 303.1466666666667 219.9466666666666 312.3200000000001 234.6666666666667 316.8V362.6666666666667C234.6666666666667 386.1333333333334 253.8666666666667 405.3333333333333 277.3333333333333 405.3333333333333H320V362.6666666666667H277.3333333333333V316.8C292.0533333333333 312.32 305.92 303.1466666666667 317.6533333333333 290.56C333.44 309.3333333333334 352.64 320 373.3333333333333 320C426.6666666666667 320 469.3333333333333 248.32 469.3333333333333 160C469.3333333333333 71.68 426.6666666666667 0 373.3333333333333 0C352.64 0 333.44 10.6666666666667 317.6533333333333 29.44C300.3733333333334 10.6666666666667 279.04 0 256 0S211.6266666666667 10.6666666666667 194.3466666666666 29.44C178.56 10.6666666666667 159.36 0 138.6666666666667 0C85.3333333333333 0 42.6666666666667 71.68 42.6666666666667 160C42.6666666666667 248.32 85.3333333333333 320 138.6666666666667 320M192 234.6666666666667L165.3333333333333 186.6666666666667H218.6666666666667L192 234.6666666666667M320 234.6666666666667L293.3333333333333 186.6666666666667H346.6666666666667L320 234.6666666666667M170.6666666666667 85.3333333333334H213.3333333333333L234.6666666666667 106.6666666666667L256 85.3333333333334H298.6666666666667L320 106.6666666666667L341.3333333333333 85.3333333333334L373.3333333333333 149.3333333333334L296.96 136.1066666666667L277.3333333333333 106.6666666666667L256 128H213.3333333333333L192 106.6666666666667L170.6666666666667 128L128 149.3333333333334L170.6666666666667 85.3333333333334z" /></svg>