<?xml version="1.0" encoding="UTF-8"?><!DOCTYPE svg PUBLIC "-//W3C//DTD SVG 1.1//EN" "http://www.w3.org/Graphics/SVG/1.1/DTD/svg11.dtd"><svg xmlns="http://www.w3.org/2000/svg" xmlns:xlink="http://www.w3.org/1999/xlink" version="1.1" width="512" height="512" viewBox="0 0 512 512">    <path fill="#ffffff" transform="scale(1, -1) translate(0, -448)" glyph-name="alien" unicode="&#xF899;" horiz-adv-x="512" d=" M256 384C362.0266666666667 384 448 307.6266666666667 448 213.3333333333334S320 0 256 0S64 119.04 64 213.3333333333334S149.9733333333333 384 256 384M219.9466666666667 214.8266666666667C198.1866666666667 249.8133333333334 159.36 264.9600000000001 133.3333333333333 248.7466666666667C107.3066666666667 232.5333333333334 103.8933333333333 190.9333333333333 125.6533333333333 155.9466666666667C147.6266666666667 120.96 186.4533333333333 105.8133333333334 212.48 122.0266666666667C238.5066666666667 138.6666666666667 241.7066666666667 179.84 219.9466666666667 214.8266666666667M292.0533333333334 214.8266666666667C270.2933333333334 179.84 273.4933333333334 138.6666666666667 299.52 122.0266666666667C325.5466666666667 105.8133333333334 364.3733333333334 120.96 386.3466666666667 155.9466666666667C408.1066666666667 190.9333333333334 404.6933333333333 232.5333333333334 378.6666666666667 248.7466666666667C352.64 264.9600000000001 313.8133333333334 249.8133333333334 292.0533333333334 214.8266666666667M256 69.3333333333334C213.3333333333333 69.3333333333334 202.6666666666667 85.3333333333334 202.6666666666667 85.3333333333334C202.6666666666667 84.6933333333333 213.3333333333333 42.6666666666667 256 42.6666666666667S309.3333333333333 85.3333333333334 309.3333333333333 85.3333333333334S298.6666666666667 69.3333333333334 256 69.3333333333334z" /></svg>