<?xml version="1.0" encoding="UTF-8"?><!DOCTYPE svg PUBLIC "-//W3C//DTD SVG 1.1//EN" "http://www.w3.org/Graphics/SVG/1.1/DTD/svg11.dtd"><svg xmlns="http://www.w3.org/2000/svg" xmlns:xlink="http://www.w3.org/1999/xlink" version="1.1" width="512" height="512" viewBox="0 0 512 512">    <path fill="#ffffff" transform="scale(1, -1) translate(0, -448)" glyph-name="drag-variant" unicode="&#xFB6C;" horiz-adv-x="512" d=" M483.6266666666667 192L387.84 96L334.2933333333333 149.3333333333334L376.5333333333333 192L334.2933333333333 233.8133333333334L387.84 287.36L483.6266666666667 192M256 419.6266666666667L351.36 323.8400000000001L297.8133333333333 270.2933333333334L256 312.5333333333334L213.3333333333333 270.2933333333334L160 323.8400000000001L256 419.6266666666667M256 -35.6266666666667L160.64 60.16L214.1866666666667 113.7066666666667L256 71.4666666666667L298.6666666666667 113.7066666666667L352 60.16L256 -35.6266666666667M28.3733333333333 192L124.16 288L177.7066666666667 234.6666666666667L135.4666666666667 192L177.7066666666667 150.1866666666667L124.16 96.64L28.3733333333333 192M256 234.6666666666667C279.4666666666667 234.6666666666667 298.6666666666667 215.4666666666667 298.6666666666667 192S279.4666666666667 149.3333333333334 256 149.3333333333334S213.3333333333333 168.5333333333334 213.3333333333333 192S232.5333333333334 234.6666666666667 256 234.6666666666667z" /></svg>