<?xml version="1.0" encoding="UTF-8"?><!DOCTYPE svg PUBLIC "-//W3C//DTD SVG 1.1//EN" "http://www.w3.org/Graphics/SVG/1.1/DTD/svg11.dtd"><svg xmlns="http://www.w3.org/2000/svg" xmlns:xlink="http://www.w3.org/1999/xlink" version="1.1" width="512" height="512" viewBox="0 0 512 512">    <path fill="#ffffff" transform="scale(1, -1) translate(0, -448)" glyph-name="harddisk" unicode="&#xF2CA;" horiz-adv-x="512" d=" M128 405.3333333333333H384C407.4666666666667 405.3333333333333 426.6666666666667 386.1333333333334 426.6666666666667 362.6666666666667V21.3333333333334C426.6666666666667 -2.1333333333333 407.4666666666667 -21.3333333333333 384 -21.3333333333333H128C104.5333333333333 -21.3333333333333 85.3333333333333 -2.1333333333333 85.3333333333333 21.3333333333334V362.6666666666667C85.3333333333333 386.1333333333334 104.5333333333333 405.3333333333333 128 405.3333333333333M256 362.6666666666667C185.3866666666667 362.6666666666667 128 305.2800000000001 128 234.6666666666667S185.3866666666667 106.6666666666667 258.1333333333334 106.6666666666667L239.36 154.24C233.6 164.48 237.0133333333333 177.4933333333334 247.2533333333333 183.4666666666667L265.5999999999999 194.1333333333334C275.8399999999999 199.8933333333334 288.8533333333333 196.48 294.8266666666666 186.2400000000001L335.7866666666666 134.6133333333334C365.2266666666667 158.0800000000001 384 194.1333333333333 384 234.6666666666667C384 305.2800000000001 326.6133333333334 362.6666666666667 256 362.6666666666667M256 256C267.7333333333334 256 277.3333333333333 246.4000000000001 277.3333333333333 234.6666666666667S267.7333333333334 213.3333333333334 256 213.3333333333334S234.6666666666667 222.9333333333333 234.6666666666667 234.6666666666667S244.2666666666667 256 256 256M149.3333333333333 64C137.6 64 128 54.4 128 42.6666666666667S137.6 21.3333333333334 149.3333333333333 21.3333333333334S170.6666666666667 30.9333333333333 170.6666666666667 42.6666666666667S161.0666666666667 64 149.3333333333333 64M257.92 164.9066666666667L311.04 30.2933333333334L366.2933333333334 62.2933333333334L276.2666666666667 175.5733333333334L257.9200000000001 164.9066666666667z" /></svg>