<?xml version="1.0" encoding="UTF-8"?><!DOCTYPE svg PUBLIC "-//W3C//DTD SVG 1.1//EN" "http://www.w3.org/Graphics/SVG/1.1/DTD/svg11.dtd"><svg xmlns="http://www.w3.org/2000/svg" xmlns:xlink="http://www.w3.org/1999/xlink" version="1.1" width="512" height="512" viewBox="0 0 512 512">    <path fill="#ffffff" transform="scale(1, -1) translate(0, -448)" glyph-name="seat-recline-extra" unicode="&#xF481;" horiz-adv-x="512" d=" M114.1333333333333 327.68C94.9333333333333 341.3333333333334 90.24 367.7866666666667 103.68 387.2C117.3333333333333 406.4 143.7866666666666 411.0933333333334 163.2 397.6533333333334C182.4 384 187.0933333333333 357.5466666666667 173.6533333333333 338.1333333333334C160 318.9333333333334 133.5466666666666 314.24 114.1333333333333 327.68M341.3333333333333 42.6666666666667H190.5066666666667C158.9333333333333 42.6666666666667 132.0533333333333 65.7066666666667 127.36 96.8533333333334L85.3333333333333 298.6666666666667H42.6666666666667L85.3333333333333 90.4533333333334C93.2266666666667 38.4 138.0266666666667 0 190.72 0H341.3333333333333M346.24 128H242.1333333333334L220.16 215.4666666666667C253.8666666666667 196.48 290.1333333333334 182.6133333333334 330.0266666666667 189.44V234.6666666666667C295.2533333333334 228.2666666666667 256.6400000000001 240.64 229.9733333333334 261.5466666666667L194.9866666666667 288.64C190.08 292.48 184.5333333333333 295.04 178.7733333333334 296.7466666666667C171.9466666666667 298.6666666666667 164.6933333333333 299.3066666666667 157.6533333333333 298.0266666666667H157.2266666666667C130.9866666666667 293.3333333333334 113.4933333333334 268.3733333333334 117.9733333333334 242.3466666666667L146.7733333333334 116.0533333333334C152.7466666666667 85.3333333333334 178.9866666666667 64 209.7066666666667 64H355.84L437.3333333333333 0L469.3333333333333 32" /></svg>