<?xml version="1.0" encoding="UTF-8"?><!DOCTYPE svg PUBLIC "-//W3C//DTD SVG 1.1//EN" "http://www.w3.org/Graphics/SVG/1.1/DTD/svg11.dtd"><svg xmlns="http://www.w3.org/2000/svg" xmlns:xlink="http://www.w3.org/1999/xlink" version="1.1" width="512" height="512" viewBox="0 0 512 512">    <path fill="#ffffff" transform="scale(1, -1) translate(0, -448)" glyph-name="firework" unicode="&#xFE13;" horiz-adv-x="512" d=" M123.7333333333333 94.08L96 122.0266666666667L261.5466666666666 288L352 197.5466666666667L186.0266666666667 32L155.52 62.08C150.1866666666667 60.5866666666667 145.0666666666666 58.0266666666666 141.44 53.3333333333334C140.16 51.84 138.6666666666666 50.1333333333334 138.6666666666666 48.2133333333334C136.96 45.2266666666667 136.1066666666666 42.6666666666667 134.8266666666667 39.4666666666667C132.48 33.7066666666667 129.92 27.9466666666667 126.5066666666667 22.8266666666667C123.9466666666667 19.2 121.1733333333333 15.7866666666667 117.9733333333333 13.0133333333333C115.6266666666666 10.6666666666667 112.8533333333333 8.7466666666667 110.08 7.2533333333333C108.3733333333333 6.1866666666667 106.6666666666666 5.12 104.5333333333333 4.48C91.7333333333333 -0.8533333333333 77.44 0 64 0V42.6666666666667H83.2C85.3333333333333 42.6666666666667 87.04 42.6666666666667 88.7466666666666 43.9466666666667L89.8133333333333 45.0133333333333C91.3066666666666 46.72 92.5866666666667 49.0666666666667 93.6533333333333 51.2C95.36 55.04 96.64 58.88 98.1333333333333 62.72L98.9866666666666 64.8533333333334C101.5466666666666 70.6133333333334 104.5333333333333 75.7333333333334 108.3733333333333 80.4266666666667C110.5066666666666 83.2 113.0666666666666 85.3333333333334 115.6266666666666 88.1066666666667C118.1866666666667 90.24 120.7466666666667 92.3733333333333 123.7333333333333 94.08M448 384L424.1066666666667 209.28L273.28 360.1066666666667L448 384z" /></svg>