<?xml version="1.0" encoding="UTF-8"?><!DOCTYPE svg PUBLIC "-//W3C//DTD SVG 1.1//EN" "http://www.w3.org/Graphics/SVG/1.1/DTD/svg11.dtd"><svg xmlns="http://www.w3.org/2000/svg" xmlns:xlink="http://www.w3.org/1999/xlink" version="1.1" width="512" height="512" viewBox="0 0 512 512">    <path fill="#ffffff" transform="scale(1, -1) translate(0, -448)" glyph-name="ship-wheel" unicode="&#xF832;" horiz-adv-x="512" d=" M42.6666666666667 213.3333333333334L86.4 211.2C91.7333333333333 259.6266666666667 117.3333333333333 301.8666666666667 154.6666666666667 329.3866666666667L130.7733333333333 366.0800000000001C125.0133333333333 376.32 128 389.3333333333333 138.6666666666667 395.3066666666667C149.3333333333333 401.0666666666667 161.92 397.6533333333333 167.8933333333333 387.4133333333334L187.7333333333334 348.5866666666667C208.64 357.5466666666667 231.68 362.6666666666667 256 362.6666666666667C280.32 362.6666666666667 303.36 357.5466666666667 324.2666666666667 348.5866666666667L344.1066666666667 387.4133333333334C350.08 397.6533333333333 362.6666666666667 401.0666666666667 373.3333333333333 395.3066666666667C384 389.3333333333333 386.9866666666667 376.32 381.2266666666667 366.0800000000001L357.3333333333333 329.3866666666667C394.6666666666667 301.8666666666667 420.2666666666667 259.6266666666667 425.6 211.2L469.3333333333333 213.3333333333334C481.0666666666667 213.3333333333334 490.6666666666666 203.7333333333334 490.6666666666666 192S481.0666666666667 170.6666666666667 469.3333333333333 170.6666666666667L425.6 172.8C420.2666666666667 124.3733333333333 394.6666666666667 82.1333333333334 357.3333333333333 54.6133333333333L381.2266666666667 17.92C386.9866666666667 7.68 384 -5.3333333333333 373.3333333333333 -11.3066666666667C362.6666666666667 -17.0666666666667 350.08 -13.6533333333333 344.1066666666667 -3.4133333333333L324.2666666666667 35.4133333333334C303.36 26.4533333333333 280.32 21.3333333333334 256 21.3333333333334C231.68 21.3333333333334 208.64 26.4533333333333 187.7333333333334 35.4133333333334L167.8933333333334 -3.4133333333333C161.92 -13.6533333333333 149.3333333333334 -17.0666666666667 138.6666666666667 -11.3066666666667C128 -5.3333333333333 125.0133333333334 7.68 130.7733333333334 17.92L154.6666666666667 54.6133333333333C117.3333333333334 82.1333333333333 91.7333333333334 124.3733333333333 86.4 172.8L42.6666666666667 170.6666666666667C30.9333333333333 170.6666666666667 21.3333333333333 180.2666666666667 21.3333333333333 192S30.9333333333333 213.3333333333334 42.6666666666667 213.3333333333334M193.4933333333334 205.8666666666667C196.2666666666667 218.88 203.3066666666667 230.4000000000001 213.3333333333333 239.1466666666667L177.92 293.3333333333334C151.68 273.2800000000001 133.76 243.2 129.0666666666667 209.0666666666667L193.4933333333334 205.8666666666667M256 256C262.8266666666667 256 269.2266666666667 254.9333333333334 275.2 253.0133333333333L304.64 310.4C289.7066666666667 316.5866666666667 273.28 320 256 320C238.72 320 222.2933333333333 316.5866666666667 207.36 310.4L236.8 253.0133333333333C242.7733333333334 254.9333333333334 249.1733333333334 256 256 256M318.5066666666667 205.8666666666667L382.9333333333334 209.0666666666667C378.2400000000001 243.2 360.3200000000001 273.2800000000001 334.0800000000001 293.3333333333334L298.6666666666667 239.1466666666667C308.6933333333334 230.4000000000001 315.7333333333334 218.8800000000001 318.5066666666667 205.8666666666667M318.5066666666667 178.1333333333333C315.7333333333333 165.12 308.6933333333333 153.6 298.6666666666667 144.8533333333334L334.08 90.6666666666667C360.32 110.72 378.24 140.8 382.9333333333333 174.9333333333333L318.5066666666667 178.1333333333333M256 128C249.1733333333333 128 242.7733333333334 129.0666666666667 236.5866666666667 130.9866666666667L207.36 73.6C222.2933333333333 67.4133333333334 238.72 64 256 64C273.28 64 289.7066666666666 67.4133333333334 304.64 73.6L275.4133333333333 130.9866666666667C269.2266666666666 129.0666666666667 262.8266666666666 128 255.9999999999999 128M193.4933333333333 178.1333333333333L129.0666666666666 174.9333333333333C133.7599999999999 140.8 151.68 110.72 177.9199999999999 90.6666666666666L213.3333333333333 144.8533333333334C203.3066666666667 153.6 196.2666666666667 165.12 193.4933333333334 178.1333333333333z" /></svg>