<?xml version="1.0" encoding="UTF-8"?><!DOCTYPE svg PUBLIC "-//W3C//DTD SVG 1.1//EN" "http://www.w3.org/Graphics/SVG/1.1/DTD/svg11.dtd"><svg xmlns="http://www.w3.org/2000/svg" xmlns:xlink="http://www.w3.org/1999/xlink" version="1.1" width="512" height="512" viewBox="0 0 512 512">    <path fill="#ffffff" transform="scale(1, -1) translate(0, -448)" glyph-name="find-replace" unicode="&#xF6D3;" horiz-adv-x="512" d=" M234.6666666666667 320C264.1066666666667 320 290.7733333333333 308.0533333333334 310.1866666666666 288.8533333333334L256 234.6666666666667H384V362.6666666666667L340.2666666666667 318.9333333333334C313.1733333333333 346.0266666666667 275.84 362.6666666666667 234.6666666666667 362.6666666666667C159.36 362.6666666666667 97.4933333333333 306.9866666666667 87.04 234.6666666666667H130.1333333333333C139.9466666666667 283.3066666666667 183.04 320 234.6666666666667 320M354.9866666666667 125.0133333333333C369.0666666666667 144.2133333333334 378.88 167.04 382.2933333333334 192H339.2C329.3866666666667 143.36 286.2933333333333 106.6666666666667 234.6666666666667 106.6666666666667C205.2266666666667 106.6666666666667 178.56 118.6133333333334 159.1466666666667 137.8133333333334L213.3333333333333 192H85.3333333333333V64L129.0666666666667 107.7333333333334C156.16 80.64 193.4933333333334 64 234.6666666666667 64C267.7333333333334 64 298.6666666666667 74.6666666666667 322.9866666666667 93.0133333333333L426.6666666666667 -10.6666666666666L458.6666666666666 21.3333333333334L354.9866666666667 125.0133333333333z" /></svg>