<?xml version="1.0" encoding="UTF-8"?><!DOCTYPE svg PUBLIC "-//W3C//DTD SVG 1.1//EN" "http://www.w3.org/Graphics/SVG/1.1/DTD/svg11.dtd"><svg xmlns="http://www.w3.org/2000/svg" xmlns:xlink="http://www.w3.org/1999/xlink" version="1.1" width="512" height="512" viewBox="0 0 512 512">    <path fill="#ffffff" transform="scale(1, -1) translate(0, -448)" glyph-name="fax" unicode="&#xF212;" horiz-adv-x="512" d=" M234.6666666666667 320H341.3333333333333V277.3333333333334H234.6666666666667V320M170.6666666666667 256V384H405.3333333333333V256C440.7466666666667 256 469.3333333333333 227.4133333333334 469.3333333333333 192V64H405.3333333333333V0H170.6666666666667V64H149.3333333333333V256H170.6666666666667M213.3333333333333 341.3333333333334V256H362.6666666666667V341.3333333333334H213.3333333333333M213.3333333333333 128V42.6666666666667H362.6666666666667V128H213.3333333333333M405.3333333333333 213.3333333333334C393.6 213.3333333333334 384 203.7333333333334 384 192S393.6 170.6666666666667 405.3333333333333 170.6666666666667S426.6666666666667 180.2666666666667 426.6666666666667 192S417.0666666666667 213.3333333333334 405.3333333333333 213.3333333333334M85.3333333333333 256H106.6666666666667C118.4 256 128 246.4000000000001 128 234.6666666666667V85.3333333333334C128 73.6 118.4 64 106.6666666666667 64H85.3333333333333C61.8666666666667 64 42.6666666666667 83.2 42.6666666666667 106.6666666666667V213.3333333333334C42.6666666666667 236.8 61.8666666666667 256 85.3333333333333 256z" /></svg>