<?xml version="1.0" encoding="UTF-8"?><!DOCTYPE svg PUBLIC "-//W3C//DTD SVG 1.1//EN" "http://www.w3.org/Graphics/SVG/1.1/DTD/svg11.dtd"><svg xmlns="http://www.w3.org/2000/svg" xmlns:xlink="http://www.w3.org/1999/xlink" version="1.1" width="512" height="512" viewBox="0 0 512 512">    <path fill="#ffffff" transform="scale(1, -1) translate(0, -448)" glyph-name="rewind-10" unicode="&#xFD06;" horiz-adv-x="512" d=" M266.6666666666667 384C365.8666666666666 384 449.7066666666666 319.36 479.36 229.9733333333334L428.8 213.3333333333334C406.4 281.3866666666667 342.1866666666667 330.6666666666667 266.6666666666667 330.6666666666667C224.8533333333334 330.6666666666667 187.0933333333334 315.3066666666667 157.44 290.56L213.3333333333333 234.6666666666667H64V384L119.4666666666667 328.5333333333334C158.9333333333333 362.6666666666667 210.1333333333333 384 266.6666666666667 384M213.3333333333333 192V-21.3333333333333H170.6666666666667V149.3333333333334H128V192H213.3333333333333M384 149.3333333333334V21.3333333333334C384 -2.3466666666666 365.0133333333333 -21.3333333333333 341.3333333333333 -21.3333333333333H298.6666666666667C275.2 -21.3333333333333 256 -2.1333333333333 256 21.3333333333334V149.3333333333334C256 172.8 275.2 192 298.6666666666667 192H341.3333333333333C365.0133333333333 192 384 172.8 384 149.3333333333334M298.6666666666667 149.3333333333334V21.3333333333334H341.3333333333333V149.3333333333334H298.6666666666667z" /></svg>