<?xml version="1.0" encoding="UTF-8"?><!DOCTYPE svg PUBLIC "-//W3C//DTD SVG 1.1//EN" "http://www.w3.org/Graphics/SVG/1.1/DTD/svg11.dtd"><svg xmlns="http://www.w3.org/2000/svg" xmlns:xlink="http://www.w3.org/1999/xlink" version="1.1" width="512" height="512" viewBox="0 0 512 512">    <path fill="#ffffff" transform="scale(1, -1) translate(0, -448)" glyph-name="hand-peace-variant" unicode="&#xFA51;" horiz-adv-x="512" d=" M149.3333333333333 42.6666666666667H320V-21.3333333333333H149.3333333333333V42.6666666666667M361.3866666666666 426.6666666666667C349.8666666666666 428.5866666666667 338.56 421.3333333333333 336.2133333333333 409.6L314.6666666666667 286.5066666666667C309.9733333333333 287.1466666666667 304.8533333333333 288 298.6666666666667 288.64L289.4933333333333 288L264.7466666666666 409.6C262.6133333333333 421.12 251.3066666666666 428.5866666666667 239.7866666666667 426.6666666666667C228.2666666666667 423.8933333333333 220.8 412.5866666666667 222.9333333333333 401.0666666666667L248.5333333333333 274.9866666666667L167.4666666666667 238.9333333333334C156.8 234.6666666666667 149.3333333333333 223.36 149.3333333333333 210.3466666666667V117.3333333333334C149.3333333333333 100.2666666666667 164.9066666666667 85.3333333333334 181.3333333333333 85.3333333333334H320C328.32 85.3333333333334 335.7866666666667 88.7466666666667 341.3333333333333 94.5066666666667L352 103.2533333333333S362.6666666666667 111.36 362.6666666666667 120.3200000000001V170.6666666666667S362.6666666666667 194.9866666666667 344.1066666666667 206.9333333333333L377.8133333333334 401.0666666666667C380.3733333333334 412.5866666666667 373.3333333333333 423.8933333333333 361.3866666666667 426.6666666666667z" /></svg>