<?xml version="1.0" encoding="UTF-8"?><!DOCTYPE svg PUBLIC "-//W3C//DTD SVG 1.1//EN" "http://www.w3.org/Graphics/SVG/1.1/DTD/svg11.dtd"><svg xmlns="http://www.w3.org/2000/svg" xmlns:xlink="http://www.w3.org/1999/xlink" version="1.1" width="512" height="512" viewBox="0 0 512 512">    <path fill="#ffffff" transform="scale(1, -1) translate(0, -448)" glyph-name="timetable" unicode="&#xF520;" horiz-adv-x="512" d=" M298.6666666666667 192H330.6666666666667V131.84L382.7200000000001 101.76L366.7200000000001 74.0266666666666L298.6666666666667 113.28V192M85.3333333333333 405.3333333333333H384C407.4666666666667 405.3333333333333 426.6666666666667 386.1333333333334 426.6666666666667 362.6666666666667V232.5333333333334C453.1199999999999 205.6533333333334 469.3333333333333 168.7466666666667 469.3333333333333 128C469.3333333333333 45.44 402.56 -21.3333333333333 320 -21.3333333333333C279.2533333333334 -21.3333333333333 242.3466666666667 -5.1199999999999 215.4666666666667 21.3333333333334H85.3333333333333C61.8666666666667 21.3333333333334 42.6666666666667 40.5333333333333 42.6666666666667 64V362.6666666666667C42.6666666666667 386.1333333333334 61.8666666666667 405.3333333333333 85.3333333333333 405.3333333333333M85.3333333333333 128V64H184.96C175.7866666666667 83.4133333333334 170.6666666666667 105.1733333333334 170.6666666666667 128H85.3333333333333M85.3333333333333 277.3333333333334H213.3333333333333V341.3333333333334H85.3333333333333V277.3333333333334M384 277.3333333333334V341.3333333333334H256V277.3333333333334H384M85.3333333333333 170.6666666666667H176.8533333333333C184.1066666666666 195.2 197.5466666666667 217.1733333333334 215.4666666666667 234.6666666666667H85.3333333333333V170.6666666666667M320 231.4666666666667C262.8266666666667 231.4666666666667 216.5333333333333 185.1733333333334 216.5333333333333 128C216.5333333333333 70.8266666666667 262.8266666666667 24.5333333333333 320 24.5333333333333C377.1733333333333 24.5333333333333 423.4666666666667 70.8266666666667 423.4666666666667 128C423.4666666666667 185.1733333333333 377.1733333333333 231.4666666666667 320 231.4666666666667z" /></svg>