<?xml version="1.0" encoding="UTF-8"?><!DOCTYPE svg PUBLIC "-//W3C//DTD SVG 1.1//EN" "http://www.w3.org/Graphics/SVG/1.1/DTD/svg11.dtd"><svg xmlns="http://www.w3.org/2000/svg" xmlns:xlink="http://www.w3.org/1999/xlink" version="1.1" width="512" height="512" viewBox="0 0 512 512">    <path fill="#ffffff" transform="scale(1, -1) translate(0, -448)" glyph-name="account-multiple-plus-outline" unicode="&#xF7FF;" horiz-adv-x="512" d=" M277.3333333333333 149.3333333333334C320 149.3333333333334 405.3333333333333 128 405.3333333333333 85.3333333333334V42.6666666666667H149.3333333333333V85.3333333333334C149.3333333333333 128 234.6666666666667 149.3333333333334 277.3333333333333 149.3333333333334M418.56 145.92C461.4399999999999 138.6666666666667 512 118.1866666666667 512 85.3333333333334V42.6666666666667H448V85.3333333333334C448 110.5066666666667 436.2666666666667 130.3466666666667 418.56 145.92M277.3333333333333 192C241.92 192 213.3333333333333 220.5866666666667 213.3333333333333 256S241.92 320 277.3333333333333 320S341.3333333333333 291.4133333333334 341.3333333333333 256S312.7466666666667 192 277.3333333333333 192M384 192C377.1733333333333 192 370.56 193.0666666666667 364.5866666666667 194.9866666666667C376.5333333333333 212.2666666666667 384 233.3866666666667 384 256C384 278.6133333333334 376.5333333333333 299.52 364.5866666666667 317.0133333333333C370.56 318.9333333333334 377.1733333333333 320 384 320C419.4133333333333 320 448 291.4133333333333 448 256S419.4133333333333 192 384 192M170.6666666666667 213.3333333333334V170.6666666666667H106.6666666666667V106.6666666666667H64V170.6666666666667H0V213.3333333333334H64V277.3333333333334H106.6666666666667V213.3333333333334H170.6666666666667M277.3333333333333 288C259.6266666666667 288 245.3333333333333 273.7066666666667 245.3333333333333 256S259.6266666666667 224 277.3333333333333 224S309.3333333333333 238.2933333333334 309.3333333333333 256S295.04 288 277.3333333333333 288M181.3333333333333 74.6666666666667H373.3333333333333V85.3333333333334C373.3333333333333 103.04 330.6666666666667 117.3333333333334 277.3333333333333 117.3333333333334S181.3333333333333 103.04 181.3333333333333 85.3333333333334V74.6666666666667z" /></svg>