<?xml version="1.0" encoding="UTF-8"?><!DOCTYPE svg PUBLIC "-//W3C//DTD SVG 1.1//EN" "http://www.w3.org/Graphics/SVG/1.1/DTD/svg11.dtd"><svg xmlns="http://www.w3.org/2000/svg" xmlns:xlink="http://www.w3.org/1999/xlink" version="1.1" width="512" height="512" viewBox="0 0 512 512">    <path fill="#ffffff" transform="scale(1, -1) translate(0, -448)" glyph-name="piano" unicode="&#xF67C;" horiz-adv-x="512" d=" M85.3333333333333 384H426.6666666666667C450.1333333333334 384 469.3333333333333 364.8 469.3333333333333 341.3333333333334V42.6666666666667C469.3333333333333 19.2 450.1333333333334 0 426.6666666666667 0H85.3333333333333C61.8666666666667 0 42.6666666666667 19.2 42.6666666666667 42.6666666666667V341.3333333333334C42.6666666666667 364.8 61.8666666666667 384 85.3333333333333 384M85.3333333333333 341.3333333333334V42.6666666666667H170.6666666666667V170.6666666666667H144V341.3333333333334H85.3333333333333M192 42.6666666666667H320V170.6666666666667H293.3333333333333V341.3333333333334H218.6666666666667V170.6666666666667H192V42.6666666666667M341.3333333333333 42.6666666666667H426.6666666666667V341.3333333333334H368V170.6666666666667H341.3333333333333V42.6666666666667z" /></svg>