<?xml version="1.0" encoding="UTF-8"?><!DOCTYPE svg PUBLIC "-//W3C//DTD SVG 1.1//EN" "http://www.w3.org/Graphics/SVG/1.1/DTD/svg11.dtd"><svg xmlns="http://www.w3.org/2000/svg" xmlns:xlink="http://www.w3.org/1999/xlink" version="1.1" width="512" height="512" viewBox="0 0 512 512">    <path fill="#ffffff" transform="scale(1, -1) translate(0, -448)" glyph-name="chat-processing" unicode="&#xFB57;" horiz-adv-x="512" d=" M256 384C373.3333333333333 384 469.3333333333333 307.6266666666667 469.3333333333333 213.3333333333334S373.3333333333333 42.6666666666667 256 42.6666666666667C229.5466666666667 42.6666666666667 204.16 46.5066666666667 180.6933333333333 53.3333333333334C118.4 0 42.6666666666667 0 42.6666666666667 0C92.3733333333333 49.7066666666667 100.2666666666667 83.2 101.3333333333333 96C65.0666666666667 126.5066666666667 42.6666666666667 167.8933333333333 42.6666666666667 213.3333333333334C42.6666666666667 307.6266666666667 138.6666666666667 384 256 384M362.6666666666667 192V234.6666666666667H320V192H362.6666666666667M277.3333333333333 192V234.6666666666667H234.6666666666667V192H277.3333333333333M192 192V234.6666666666667H149.3333333333333V192H192z" /></svg>