<?xml version="1.0" encoding="UTF-8"?><!DOCTYPE svg PUBLIC "-//W3C//DTD SVG 1.1//EN" "http://www.w3.org/Graphics/SVG/1.1/DTD/svg11.dtd"><svg xmlns="http://www.w3.org/2000/svg" xmlns:xlink="http://www.w3.org/1999/xlink" version="1.1" width="512" height="512" viewBox="0 0 512 512">    <path fill="#ffffff" transform="scale(1, -1) translate(0, -448)" glyph-name="ubisoft" unicode="&#xFBB6;" horiz-adv-x="512" d=" M243.4133333333334 405.3333333333333C111.1466666666667 405.3333333333333 53.9733333333333 287.36 53.9733333333333 287.36L70.8266666666667 275.4133333333334S49.7066666666667 234.6666666666667 50.1333333333333 183.4666666666667C50.1333333333333 78.08 134.1866666666667 -21.3333333333333 257.4933333333334 -21.3333333333333C369.7066666666666 -21.3333333333333 462.2933333333334 70.1866666666667 462.2933333333334 183.2533333333333C462.2933333333334 330.6666666666667 347.9466666666666 405.3333333333333 243.4133333333334 405.3333333333333M244.6933333333334 369.28C347.9466666666667 369.28 428.16 285.8666666666667 428.16 189.0133333333334C428.16 86.4 350.9333333333333 14.9333333333334 260.9066666666667 14.9333333333334C194.7733333333334 14.9333333333334 135.04 65.2800000000001 135.04 134.4000000000001C135.04 174.5066666666668 156.16 202.6666666666668 180.0533333333333 217.1733333333334L183.4666666666667 213.3333333333334C177.0666666666666 208.2133333333334 158.5066666666667 178.3466666666668 158.5066666666667 149.3333333333334C158.5066666666667 94.7200000000001 201.1733333333333 56.96 254.9333333333333 56.96C323.4133333333333 56.96 369.0666666666666 115.4133333333334 369.0666666666666 183.2533333333334C369.0666666666666 262.1866666666667 299.3066666666666 329.1733333333334 215.4666666666666 329.1733333333334C169.1733333333333 329.1733333333334 129.92 309.3333333333334 107.3066666666666 291.6266666666667L103.68 294.8266666666667C133.3333333333333 340.4800000000001 184.5333333333333 369.2800000000001 244.6933333333333 369.2800000000001M213.3333333333333 293.76C267.3066666666666 293.76 319.36 258.3466666666667 332.5866666666667 208L327.68 206.2933333333334C304.4266666666666 237.2266666666667 266.0266666666667 262.8266666666667 220.8 262.8266666666667C137.3866666666667 262.8266666666667 93.6533333333333 187.0933333333334 100.0533333333333 123.9466666666667L95.1466666666667 122.0266666666667S85.9733333333333 142.2933333333334 85.9733333333333 166.4C85.9733333333333 236.1600000000001 143.1466666666667 293.76 213.3333333333333 293.76M249.1733333333333 206.2933333333334C274.3466666666667 206.2933333333334 294.6133333333333 185.6 294.6133333333333 161.2800000000001C294.6133333333333 141.2266666666668 281.8133333333333 129.2800000000001 281.8133333333333 129.2800000000001L296.9599999999999 118.4000000000001S281.8133333333333 94.5066666666668 250.88 94.5066666666668C221.2266666666666 94.5066666666668 194.7733333333333 118.6133333333334 194.7733333333333 150.8266666666668C194.7733333333333 183.8933333333334 223.36 206.2933333333334 249.1733333333333 206.2933333333334z" /></svg>