<?xml version="1.0" encoding="UTF-8"?><!DOCTYPE svg PUBLIC "-//W3C//DTD SVG 1.1//EN" "http://www.w3.org/Graphics/SVG/1.1/DTD/svg11.dtd"><svg xmlns="http://www.w3.org/2000/svg" xmlns:xlink="http://www.w3.org/1999/xlink" version="1.1" width="512" height="512" viewBox="0 0 512 512">    <path fill="#ffffff" transform="scale(1, -1) translate(0, -448)" glyph-name="feature-search-outline" unicode="&#xFA49;" horiz-adv-x="512" d=" M330.6666666666667 405.3333333333333C277.3333333333333 405.3333333333333 234.6666666666667 362.6666666666667 234.6666666666667 309.3333333333334S277.3333333333333 213.3333333333334 330.6666666666667 213.3333333333334C349.8666666666666 213.3333333333334 366.9333333333333 219.7333333333334 381.8666666666666 228.2666666666667L448 162.1333333333333L477.8666666666666 192L411.7333333333333 258.1333333333334C420.2666666666666 273.0666666666667 426.6666666666666 290.1333333333334 426.6666666666666 309.3333333333334C426.6666666666667 362.6666666666667 384 405.3333333333333 330.6666666666667 405.3333333333333M85.3333333333333 362.6666666666667C61.8666666666667 362.6666666666667 42.6666666666667 343.4666666666667 42.6666666666667 320V21.3333333333334C42.6666666666667 -2.1333333333333 61.8666666666667 -21.3333333333333 85.3333333333333 -21.3333333333333H384C407.4666666666667 -21.3333333333333 426.6666666666667 -2.1333333333333 426.6666666666667 21.3333333333334V128L384 170.6666666666667V21.3333333333334H85.3333333333333V320H192.64C193.92 334.9333333333334 197.5466666666667 348.8 202.6666666666667 362.6666666666667H85.3333333333333M330.6666666666667 362.6666666666667C360.5333333333333 362.6666666666667 384 339.2000000000001 384 309.3333333333334S360.5333333333333 256 330.6666666666667 256S277.3333333333333 279.4666666666667 277.3333333333333 309.3333333333334S300.8 362.6666666666667 330.6666666666667 362.6666666666667z" /></svg>