<?xml version="1.0" encoding="UTF-8"?><!DOCTYPE svg PUBLIC "-//W3C//DTD SVG 1.1//EN" "http://www.w3.org/Graphics/SVG/1.1/DTD/svg11.dtd"><svg xmlns="http://www.w3.org/2000/svg" xmlns:xlink="http://www.w3.org/1999/xlink" version="1.1" width="512" height="512" viewBox="0 0 512 512">    <path fill="#ffffff" transform="scale(1, -1) translate(0, -448)" glyph-name="celtic-cross" unicode="&#xFCD1;" horiz-adv-x="512" d=" M379.7333333333334 277.3333333333334C368.2133333333334 322.3466666666667 333.0133333333333 357.5466666666667 288 369.0666666666667V405.3333333333333H224V369.0666666666667C178.9866666666667 357.5466666666667 143.7866666666667 322.3466666666667 132.2666666666667 277.3333333333334H85.3333333333333V213.3333333333334H132.2666666666667C143.7866666666667 168.3200000000001 178.9866666666667 133.12 224 121.6V-21.3333333333333H288V121.6C333.0133333333333 133.12 368.2133333333333 168.32 379.7333333333334 213.3333333333334H426.0266666666667V277.3333333333334H379.7333333333334M256.8533333333334 244.6933333333334L309.3333333333333 213.3333333333334H336.2133333333333C327.4666666666667 191.36 309.9733333333333 174.0800000000001 288 165.12V192L257.28 244.0533333333334L256 245.3333333333334L254.72 244.0533333333334L224 192V165.12C202.0266666666667 174.0800000000001 184.7466666666667 191.36 175.7866666666667 213.3333333333334H202.6666666666667L255.1466666666667 244.6933333333334L256 245.3333333333334H255.1466666666667L202.6666666666667 277.3333333333334H175.7866666666667C184.5333333333333 299.3066666666667 202.0266666666667 316.5866666666667 224 325.5466666666667V298.6666666666667L254.72 246.6133333333334L256 245.3333333333334L257.28 246.6133333333334L288 298.6666666666667V325.5466666666667C309.9733333333333 316.5866666666667 327.4666666666667 299.3066666666667 336.2133333333333 277.3333333333334H309.3333333333333L256.8533333333333 245.3333333333334H256L256.8533333333333 244.6933333333334z" /></svg>