<?xml version="1.0" encoding="UTF-8"?><!DOCTYPE svg PUBLIC "-//W3C//DTD SVG 1.1//EN" "http://www.w3.org/Graphics/SVG/1.1/DTD/svg11.dtd"><svg xmlns="http://www.w3.org/2000/svg" xmlns:xlink="http://www.w3.org/1999/xlink" version="1.1" width="512" height="512" viewBox="0 0 512 512">    <path fill="#ffffff" transform="scale(1, -1) translate(0, -448)" glyph-name="bone" unicode="&#xF0B9;" horiz-adv-x="512" d=" M170.6666666666667 149.3333333333334C170.6666666666667 113.92 142.08 85.3333333333334 106.6666666666667 85.3333333333334S42.6666666666667 113.92 42.6666666666667 149.3333333333334C42.6666666666667 165.76 48.8533333333333 180.6933333333334 58.88 192C48.8533333333333 203.3066666666667 42.6666666666667 218.24 42.6666666666667 234.6666666666667C42.6666666666667 270.0800000000001 71.2533333333333 298.6666666666667 106.6666666666667 298.6666666666667S170.6666666666667 270.0800000000001 170.6666666666667 234.6666666666667C199.04 232.96 227.6266666666667 231.04 256 231.04S312.96 232.96 341.3333333333333 234.6666666666667C341.3333333333333 270.0800000000001 369.92 298.6666666666667 405.3333333333333 298.6666666666667S469.3333333333333 270.0800000000001 469.3333333333333 234.6666666666667C469.3333333333333 218.24 463.1466666666666 203.3066666666667 453.1199999999999 192C463.1466666666666 180.6933333333334 469.3333333333333 165.76 469.3333333333333 149.3333333333334C469.3333333333333 113.92 440.7466666666667 85.3333333333334 405.3333333333333 85.3333333333334S341.3333333333333 113.92 341.3333333333333 149.3333333333334C312.96 151.04 284.3733333333334 152.96 256 152.96S199.04 151.04 170.6666666666667 149.3333333333334z" /></svg>