<?xml version="1.0" encoding="UTF-8"?><!DOCTYPE svg PUBLIC "-//W3C//DTD SVG 1.1//EN" "http://www.w3.org/Graphics/SVG/1.1/DTD/svg11.dtd"><svg xmlns="http://www.w3.org/2000/svg" xmlns:xlink="http://www.w3.org/1999/xlink" version="1.1" width="512" height="512" viewBox="0 0 512 512">    <path fill="#ffffff" transform="scale(1, -1) translate(0, -448)" glyph-name="basketball" unicode="&#xF805;" horiz-adv-x="512" d=" M49.92 135.8933333333333C62.72 140.5866666666667 75.9466666666667 142.9333333333333 90.0266666666667 142.9333333333333C118.6133333333333 142.9333333333333 143.5733333333333 133.9733333333334 164.9066666666667 116.0533333333334L97.92 49.0666666666667C75.3066666666667 74.6666666666667 59.3066666666667 103.8933333333334 49.92 135.8933333333334M331.9466666666667 238.9333333333334C373.9733333333334 207.5733333333333 419.4133333333333 199.8933333333333 468.0533333333333 215.8933333333333C468.6933333333334 211.4133333333333 469.3333333333333 203.3066666666667 469.3333333333333 192C469.3333333333333 170.0266666666667 464 145.4933333333334 453.9733333333334 118.4C443.9466666666667 91.52 431.5733333333333 69.76 417.0666666666667 53.3333333333334L282.0266666666667 187.9466666666667L331.9466666666667 238.9333333333334M187.0933333333333 93.0133333333333C209.7066666666667 60.3733333333333 214.4 24.7466666666667 200.96 -14.08C170.6666666666667 -5.3333333333333 143.5733333333333 8.3200000000001 120.96 27.0933333333334L187.0933333333333 93.0133333333333M260.0533333333333 165.9733333333334L394.6666666666667 30.9333333333333C348.3733333333333 -9.6 293.9733333333334 -26.6666666666666 232.1066666666667 -20.0533333333333C236.5866666666667 -5.9733333333334 238.9333333333333 9.3866666666667 238.9333333333333 26.0266666666666C238.9333333333333 39.2533333333333 235.9466666666667 54.8266666666667 229.9733333333333 72.5333333333333C224 90.24 216.96 104.7466666666667 209.0666666666666 116.0533333333333L260.0533333333333 165.9733333333333M187.9466666666667 138.6666666666667C168.1066666666667 156.3733333333333 145.0666666666667 167.4666666666667 119.04 172.5866666666667C93.0133333333333 177.4933333333334 68.0533333333333 176 43.9466666666667 167.8933333333333C43.3066666666667 172.5866666666667 42.6666666666667 180.6933333333333 42.6666666666667 192C42.6666666666667 213.9733333333333 48 238.5066666666667 58.0266666666667 265.6C68.0533333333333 292.48 80.4266666666667 314.24 94.9333333333333 330.6666666666667L237.0133333333333 187.9466666666667L187.9466666666666 138.6666666666666M331.9466666666666 283.0933333333333C303.36 318.2933333333333 296.7466666666666 356.6933333333333 312.1066666666667 398.08C325.3333333333333 394.6666666666667 340.48 388.2666666666666 357.5466666666666 378.4533333333333C374.3999999999999 368.8533333333333 388.2666666666667 359.2533333333333 398.9333333333333 350.08L331.9466666666666 283.0933333333333M462.0799999999999 247.8933333333333C449.2799999999999 243.4133333333333 436.0533333333333 241.0666666666666 421.9733333333333 241.0666666666666C398.7199999999999 241.0666666666666 376.32 247.8933333333333 354.9866666666666 261.9733333333333L420.9066666666666 327.04C439.6799999999999 303.5733333333333 453.3333333333333 277.3333333333333 462.0799999999999 247.8933333333333M260.0533333333333 210.9866666666666L117.3333333333333 353.0666666666667C163.6266666666667 393.6 218.0266666666667 410.6666666666667 280.1066666666667 404.0533333333334C275.4133333333333 389.9733333333334 273.0666666666666 374.6133333333334 273.0666666666666 357.9733333333334C273.0666666666666 342.6133333333334 276.48 325.3333333333333 283.52 305.92C290.56 286.7200000000001 298.6666666666667 271.36 309.3333333333333 260.0533333333334L260.0533333333333 210.9866666666667z" /></svg>