<?xml version="1.0" encoding="UTF-8"?><!DOCTYPE svg PUBLIC "-//W3C//DTD SVG 1.1//EN" "http://www.w3.org/Graphics/SVG/1.1/DTD/svg11.dtd"><svg xmlns="http://www.w3.org/2000/svg" xmlns:xlink="http://www.w3.org/1999/xlink" version="1.1" width="512" height="512" viewBox="0 0 512 512">    <path fill="#ffffff" transform="scale(1, -1) translate(0, -448)" glyph-name="responsive" unicode="&#xF45E;" horiz-adv-x="512" d=" M85.3333333333333 320V106.6666666666667H192V192C192 215.4666666666667 211.2 234.6666666666667 234.6666666666667 234.6666666666667H341.3333333333333C364.8 234.6666666666667 384 215.4666666666667 384 192V106.6666666666667H426.6666666666667V320H85.3333333333333M0 21.3333333333334V64H85.3333333333333C61.8666666666667 64 42.6666666666667 83.2 42.6666666666667 106.6666666666667V320C42.6666666666667 343.4666666666667 61.8666666666667 362.6666666666667 85.3333333333333 362.6666666666667H426.6666666666667C450.1333333333334 362.6666666666667 469.3333333333333 343.4666666666667 469.3333333333333 320V106.6666666666667C469.3333333333333 83.2 450.1333333333334 64 426.6666666666667 64H512V21.3333333333334H384C384 -2.3466666666666 364.8 -21.3333333333333 341.3333333333333 -21.3333333333333H234.6666666666667C211.2 -21.3333333333333 192 -2.1333333333333 192 21.3333333333334H0M245.3333333333333 21.3333333333334C239.36 21.3333333333334 234.6666666666667 16.64 234.6666666666667 10.6666666666667S239.36 0 245.3333333333333 0S256 4.6933333333333 256 10.6666666666667S251.3066666666667 21.3333333333334 245.3333333333333 21.3333333333334M330.6666666666667 21.3333333333334C324.6933333333334 21.3333333333334 320 16.64 320 10.6666666666667S324.6933333333334 0 330.6666666666667 0S341.3333333333333 4.6933333333333 341.3333333333333 10.6666666666667S336.64 21.3333333333334 330.6666666666667 21.3333333333334M277.3333333333333 21.3333333333334V0H298.6666666666667V21.3333333333334H277.3333333333333M234.6666666666667 192V42.6666666666667H341.3333333333333V192H234.6666666666667z" /></svg>