<?xml version="1.0" encoding="UTF-8"?><!DOCTYPE svg PUBLIC "-//W3C//DTD SVG 1.1//EN" "http://www.w3.org/Graphics/SVG/1.1/DTD/svg11.dtd"><svg xmlns="http://www.w3.org/2000/svg" xmlns:xlink="http://www.w3.org/1999/xlink" version="1.1" width="512" height="512" viewBox="0 0 512 512">    <path fill="#ffffff" transform="scale(1, -1) translate(0, -448)" glyph-name="server-network" unicode="&#xF48D;" horiz-adv-x="512" d=" M277.3333333333333 42.6666666666667H298.6666666666667C310.4 42.6666666666667 320 33.0666666666667 320 21.3333333333334H469.3333333333333V-21.3333333333333H320C320 -33.0666666666667 310.4 -42.6666666666666 298.6666666666667 -42.6666666666666H213.3333333333333C201.6 -42.6666666666666 192 -33.0666666666667 192 -21.3333333333333H42.6666666666667V21.3333333333334H192C192 33.0666666666667 201.6 42.6666666666667 213.3333333333333 42.6666666666667H234.6666666666667V85.3333333333334H85.3333333333333C73.6 85.3333333333334 64 94.9333333333333 64 106.6666666666667V192C64 203.7333333333334 73.6 213.3333333333334 85.3333333333333 213.3333333333334H426.6666666666667C438.4 213.3333333333334 448 203.7333333333334 448 192V106.6666666666667C448 94.9333333333333 438.4 85.3333333333334 426.6666666666667 85.3333333333334H277.3333333333333V42.6666666666667M85.3333333333333 384H426.6666666666667C438.4 384 448 374.4 448 362.6666666666667V277.3333333333334C448 265.6 438.4 256 426.6666666666667 256H85.3333333333333C73.6 256 64 265.6 64 277.3333333333334V362.6666666666667C64 374.4 73.6 384 85.3333333333333 384M192 298.6666666666667H213.3333333333333V341.3333333333334H192V298.6666666666667M192 128H213.3333333333333V170.6666666666667H192V128M106.6666666666667 341.3333333333334V298.6666666666667H149.3333333333333V341.3333333333334H106.6666666666667M106.6666666666667 170.6666666666667V128H149.3333333333333V170.6666666666667H106.6666666666667z" /></svg>