<?xml version="1.0" encoding="UTF-8"?><!DOCTYPE svg PUBLIC "-//W3C//DTD SVG 1.1//EN" "http://www.w3.org/Graphics/SVG/1.1/DTD/svg11.dtd"><svg xmlns="http://www.w3.org/2000/svg" xmlns:xlink="http://www.w3.org/1999/xlink" version="1.1" width="512" height="512" viewBox="0 0 512 512">    <path fill="#ffffff" transform="scale(1, -1) translate(0, -448)" glyph-name="format-list-bulleted" unicode="&#xF279;" horiz-adv-x="512" d=" M149.3333333333333 341.3333333333334H448V298.6666666666667H149.3333333333333V341.3333333333334M149.3333333333333 170.6666666666667V213.3333333333334H448V170.6666666666667H149.3333333333333M85.3333333333333 352C103.04 352 117.3333333333333 337.7066666666667 117.3333333333333 320S103.04 288 85.3333333333333 288S53.3333333333333 302.2933333333334 53.3333333333333 320S67.6266666666667 352 85.3333333333333 352M85.3333333333333 224C103.04 224 117.3333333333333 209.7066666666667 117.3333333333333 192S103.04 160 85.3333333333333 160S53.3333333333333 174.2933333333334 53.3333333333333 192S67.6266666666667 224 85.3333333333333 224M149.3333333333333 42.6666666666667V85.3333333333334H448V42.6666666666667H149.3333333333333M85.3333333333333 96C103.04 96 117.3333333333333 81.7066666666667 117.3333333333333 64S103.04 32 85.3333333333333 32S53.3333333333333 46.2933333333334 53.3333333333333 64S67.6266666666667 96 85.3333333333333 96z" /></svg>