<?xml version="1.0" encoding="UTF-8"?><!DOCTYPE svg PUBLIC "-//W3C//DTD SVG 1.1//EN" "http://www.w3.org/Graphics/SVG/1.1/DTD/svg11.dtd"><svg xmlns="http://www.w3.org/2000/svg" xmlns:xlink="http://www.w3.org/1999/xlink" version="1.1" width="512" height="512" viewBox="0 0 512 512">    <path fill="#ffffff" transform="scale(1, -1) translate(0, -448)" glyph-name="fireplace" unicode="&#xFE11;" horiz-adv-x="512" d=" M469.3333333333333 -21.3333333333333H42.6666666666667V21.3333333333334H469.3333333333333V-21.3333333333333M469.3333333333333 320H42.6666666666667V384H469.3333333333333V320M426.6666666666667 298.6666666666667V42.6666666666667H362.6666666666667V213.3333333333334S309.3333333333333 234.6666666666667 256 234.6666666666667S149.3333333333333 213.3333333333334 149.3333333333333 213.3333333333334V42.6666666666667H85.3333333333333V298.6666666666667H426.6666666666667M309.3333333333333 135.04H308.6933333333334L315.9466666666667 123.3066666666667L317.2266666666667 120.7466666666667C326.1866666666667 99.2 320 74.6666666666667 303.1466666666667 58.8800000000001C288 44.8000000000001 266.6666666666667 41.1733333333334 247.04 43.7333333333334C228.4800000000001 46.08 211.2000000000001 57.8133333333334 201.6000000000001 74.0266666666666C198.4 78.9333333333333 196.0533333333334 84.6933333333333 194.7733333333334 90.24L192 104.3200000000001C191.1466666666667 124.8000000000001 199.2533333333333 146.3466666666667 214.6133333333334 159.1466666666667C207.5733333333333 143.7866666666667 209.28 124.5866666666667 219.7333333333334 111.1466666666667L221.0133333333334 109.4400000000001C222.72 107.9466666666667 225.0666666666667 107.3066666666667 226.9866666666667 108.3733333333333C228.9066666666667 109.0133333333333 230.4 110.9333333333333 230.4 113.0666666666667L229.5466666666667 116.0533333333334C218.2400000000001 145.7066666666667 227.8400000000001 180.2666666666667 251.52 199.8933333333334C258.1333333333334 205.2266666666667 266.6666666666667 210.1333333333334 274.56 212.2666666666667C265.8133333333334 194.7733333333334 269.0133333333333 172.16 282.6666666666667 158.5066666666667L301.6533333333334 142.9333333333334L309.3333333333334 135.0400000000001M279.68 75.9466666666667C285.2266666666667 81.0666666666667 288.64 89.6000000000001 288 97.2800000000001V101.3333333333334C285.4400000000001 114.1333333333335 274.1333333333334 118.1866666666667 266.6666666666667 128.0000000000001L261.5466666666667 137.6000000000001C258.7733333333333 131.2000000000001 258.56 125.2266666666668 259.6266666666667 118.1866666666667C260.9066666666667 110.9333333333334 263.8933333333333 104.7466666666668 262.1866666666667 97.2800000000001C260.2666666666667 88.96 253.8666666666667 80.64 242.56 77.8666666666667C248.9600000000001 71.6800000000001 259.2 66.7733333333334 269.6533333333333 70.1866666666667L279.68 75.9466666666667z" /></svg>