<?xml version="1.0" encoding="UTF-8"?><!DOCTYPE svg PUBLIC "-//W3C//DTD SVG 1.1//EN" "http://www.w3.org/Graphics/SVG/1.1/DTD/svg11.dtd"><svg xmlns="http://www.w3.org/2000/svg" xmlns:xlink="http://www.w3.org/1999/xlink" version="1.1" width="512" height="512" viewBox="0 0 512 512">    <path fill="#ffffff" transform="scale(1, -1) translate(0, -448)" glyph-name="image-plus" unicode="&#xF87B;" horiz-adv-x="512" d=" M106.6666666666667 384C83.2 384 64 364.8 64 341.3333333333334V42.6666666666667C64 19.2 83.2 0 106.6666666666667 0H300.5866666666667C299.3066666666666 7.04 298.6666666666667 14.08 298.6666666666667 21.3333333333334C298.6666666666667 35.84 301.2266666666667 50.3466666666667 306.1333333333334 64H106.6666666666667L181.3333333333333 160L234.6666666666667 96L309.3333333333333 192L356.9066666666667 128.64C377.6 142.0800000000001 401.92 149.3333333333334 426.6666666666667 149.3333333333334C433.92 149.3333333333334 440.9600000000001 148.6933333333334 448 147.4133333333334V341.3333333333334C448 365.0133333333333 428.8 384 405.3333333333333 384H106.6666666666667M405.3333333333333 106.6666666666667V42.6666666666667H341.3333333333333V0H405.3333333333333V-64H448V0H512V42.6666666666667H448V106.6666666666667H405.3333333333333z" /></svg>