<?xml version="1.0" encoding="UTF-8"?><!DOCTYPE svg PUBLIC "-//W3C//DTD SVG 1.1//EN" "http://www.w3.org/Graphics/SVG/1.1/DTD/svg11.dtd"><svg xmlns="http://www.w3.org/2000/svg" xmlns:xlink="http://www.w3.org/1999/xlink" version="1.1" width="512" height="512" viewBox="0 0 512 512">    <path fill="#ffffff" transform="scale(1, -1) translate(0, -448)" glyph-name="diving-scuba-tank-multiple" unicode="&#xFDA0;" horiz-adv-x="512" d=" M469.3333333333333 53.3333333333334C469.3333333333333 23.8933333333334 445.44 0 416 0S362.6666666666667 23.8933333333334 362.6666666666667 53.3333333333334C362.6666666666667 75.3066666666667 375.8933333333333 94.08 394.6666666666667 102.1866666666667V320H298.6666666666667V291.2000000000001C324.6933333333334 278.8266666666667 341.3333333333333 252.8 341.3333333333333 224V-21.3333333333333H42.6666666666667V224C42.6666666666667 252.8 59.3066666666667 278.8266666666667 85.3333333333333 291.2000000000001V320H42.6666666666667V362.6666666666667H85.3333333333333V373.3333333333334C85.3333333333333 391.04 99.6266666666667 405.3333333333333 117.3333333333333 405.3333333333333S149.3333333333333 391.04 149.3333333333333 373.3333333333334V362.6666666666667H234.6666666666667V373.3333333333334C234.6666666666667 391.04 248.96 405.3333333333333 266.6666666666667 405.3333333333333S298.6666666666667 391.04 298.6666666666667 373.3333333333334V362.6666666666667H394.6666666666667C418.1333333333334 362.6666666666667 437.3333333333333 343.4666666666667 437.3333333333333 320V102.1866666666667C456.1066666666666 94.08 469.3333333333333 75.3066666666666 469.3333333333333 53.3333333333334M234.6666666666667 291.2000000000001V320H149.3333333333333V291.2000000000001C175.36 278.8266666666667 192 252.8 192 224C192 252.8 208.64 278.8266666666667 234.6666666666667 291.2000000000001z" /></svg>