<?xml version="1.0" encoding="UTF-8"?><!DOCTYPE svg PUBLIC "-//W3C//DTD SVG 1.1//EN" "http://www.w3.org/Graphics/SVG/1.1/DTD/svg11.dtd"><svg xmlns="http://www.w3.org/2000/svg" xmlns:xlink="http://www.w3.org/1999/xlink" version="1.1" width="512" height="512" viewBox="0 0 512 512">    <path fill="#ffffff" transform="scale(1, -1) translate(0, -448)" glyph-name="application-export" unicode="&#xFD89;" horiz-adv-x="512" d=" M170.6666666666667 192H378.88L325.5466666666666 245.3333333333334L355.6266666666666 275.6266666666667L460.5866666666666 170.6666666666667L355.6266666666667 65.7066666666667L325.5466666666667 96L378.88 149.3333333333334H170.6666666666667V192M405.3333333333333 384C429.0133333333333 384 448 364.8 448 341.3333333333334V241.7066666666667L405.3333333333333 284.3733333333334V298.6666666666667H106.6666666666667V42.6666666666667H405.3333333333333V56.96L448 99.6266666666667V42.6666666666667C448 19.2 428.8 0 405.3333333333333 0H106.6666666666667C82.9866666666667 0 64 19.2 64 42.6666666666667V341.3333333333334C64 364.8 83.2 384 106.6666666666667 384H405.3333333333333z" /></svg>