<?xml version="1.0" encoding="UTF-8"?><!DOCTYPE svg PUBLIC "-//W3C//DTD SVG 1.1//EN" "http://www.w3.org/Graphics/SVG/1.1/DTD/svg11.dtd"><svg xmlns="http://www.w3.org/2000/svg" xmlns:xlink="http://www.w3.org/1999/xlink" version="1.1" width="512" height="512" viewBox="0 0 512 512">    <path fill="#ffffff" transform="scale(1, -1) translate(0, -448)" glyph-name="google-translate" unicode="&#xF2BF;" horiz-adv-x="512" d=" M426.6666666666667 341.3333333333334H232.1066666666667L213.3333333333333 405.3333333333333H85.3333333333333C61.8666666666667 405.3333333333333 42.6666666666667 386.1333333333334 42.6666666666667 362.6666666666667V85.3333333333334C42.6666666666667 61.8666666666667 61.8666666666667 42.6666666666667 85.3333333333333 42.6666666666667H234.6666666666667L256 -21.3333333333333H426.6666666666667C450.1333333333334 -21.3333333333333 469.3333333333333 -2.1333333333333 469.3333333333333 21.3333333333334V298.6666666666667C469.3333333333333 322.1333333333334 450.1333333333334 341.3333333333334 426.6666666666667 341.3333333333334M152.96 136.7466666666667C104.7466666666667 136.7466666666667 65.7066666666667 175.7866666666667 65.7066666666667 224S104.7466666666667 311.2533333333334 152.96 311.2533333333334C175.1466666666667 311.2533333333334 195.4133333333333 303.36 211.4133333333333 288L213.3333333333333 287.1466666666667L186.6666666666667 261.9733333333334L185.3866666666667 263.04C179.2 268.8 168.7466666666667 275.6266666666667 152.96 275.6266666666667C125.0133333333333 275.6266666666667 102.1866666666667 252.3733333333334 102.1866666666667 224C102.1866666666667 195.6266666666667 125.0133333333333 172.3733333333333 152.96 172.3733333333333C182.1866666666667 172.3733333333333 194.7733333333333 190.9333333333333 198.1866666666667 203.52H151.04V236.5866666666667H235.3066666666667L235.52 234.6666666666667C236.3733333333334 230.6133333333334 236.5866666666667 226.56 236.5866666666667 222.08C236.5866666666667 171.9466666666667 202.6666666666667 136.7466666666667 152.96 136.7466666666667M281.6 173.2266666666667C288.6400000000001 160.0000000000001 297.3866666666667 148.0533333333334 306.9866666666667 136.96L295.4666666666667 125.6533333333334L281.6 173.2266666666668M298.0266666666667 189.4400000000001H277.3333333333333L270.2933333333333 211.6266666666667H355.4133333333333S348.16 183.6800000000001 322.1333333333334 153.1733333333334C311.04 166.4 303.1466666666667 179.4133333333334 298.0266666666667 189.4400000000001M448 21.3333333333334C448 9.6 438.4 0 426.6666666666667 0H277.3333333333333L320 42.6666666666667L302.72 101.76L322.3466666666667 121.3866666666667L379.52 64L394.6666666666667 79.5733333333334L337.28 136.7466666666667C356.48 158.72 371.4133333333333 184.7466666666667 378.24 211.6266666666667H405.3333333333333V233.8133333333334H327.68V256H305.4933333333334V233.8133333333334H263.68L238.5066666666667 320H426.6666666666667C438.4 320 448 310.4 448 298.6666666666667V21.3333333333334z" /></svg>