<?xml version="1.0" encoding="UTF-8"?><!DOCTYPE svg PUBLIC "-//W3C//DTD SVG 1.1//EN" "http://www.w3.org/Graphics/SVG/1.1/DTD/svg11.dtd"><svg xmlns="http://www.w3.org/2000/svg" xmlns:xlink="http://www.w3.org/1999/xlink" version="1.1" width="512" height="512" viewBox="0 0 512 512">    <path fill="#ffffff" transform="scale(1, -1) translate(0, -448)" glyph-name="hook" unicode="&#xF6E1;" horiz-adv-x="512" d=" M384 320C384 281.1733333333334 357.5466666666667 247.2533333333334 320 237.6533333333334V85.3333333333334C320 26.4533333333334 272.2133333333333 -21.3333333333333 213.3333333333333 -21.3333333333333S106.6666666666667 26.4533333333334 106.6666666666667 85.3333333333334V192L213.3333333333333 85.3333333333334H149.3333333333333C149.3333333333333 49.92 177.92 21.3333333333334 213.3333333333333 21.3333333333334S277.3333333333333 49.92 277.3333333333333 85.3333333333334V237.6533333333334C239.5733333333333 247.4666666666667 213.3333333333333 281.6 213.3333333333333 320.6400000000001C213.3333333333333 367.7866666666667 251.7333333333334 405.3333333333333 298.6666666666667 405.3333333333333C346.0266666666667 405.3333333333333 384 367.1466666666667 384 320M298.6666666666667 277.3333333333334C322.1333333333334 277.3333333333334 341.3333333333333 296.5333333333334 341.3333333333333 320S322.1333333333334 362.6666666666667 298.6666666666667 362.6666666666667S256 343.4666666666667 256 320S275.2 277.3333333333334 298.6666666666667 277.3333333333334z" /></svg>