<?xml version="1.0" encoding="UTF-8"?><!DOCTYPE svg PUBLIC "-//W3C//DTD SVG 1.1//EN" "http://www.w3.org/Graphics/SVG/1.1/DTD/svg11.dtd"><svg xmlns="http://www.w3.org/2000/svg" xmlns:xlink="http://www.w3.org/1999/xlink" version="1.1" width="512" height="512" viewBox="0 0 512 512">    <path fill="#ffffff" transform="scale(1, -1) translate(0, -448)" glyph-name="eye-settings" unicode="&#xF86C;" horiz-adv-x="512" d=" M256 256C220.5866666666667 256 192 227.4133333333334 192 192S220.5866666666667 128 256 128S320 156.5866666666667 320 192S291.4133333333333 256 256 256M256 85.3333333333334C197.12 85.3333333333334 149.3333333333333 133.12 149.3333333333333 192S197.12 298.6666666666667 256 298.6666666666667S362.6666666666667 250.88 362.6666666666667 192S314.88 85.3333333333334 256 85.3333333333334M256 352C152.32 352 59.3066666666667 288 21.3333333333333 192C72.32 62.2933333333334 218.6666666666667 -1.28 348.3733333333333 49.7066666666667C413.44 75.3066666666666 465.0666666666666 126.72 490.6666666666666 192C452.6933333333333 288 359.68 352 256 352M149.3333333333333 -21.3333333333333H192V-64H149.3333333333333V-21.3333333333333M234.6666666666667 -21.3333333333333H277.3333333333333V-64H234.6666666666667V-21.3333333333333M320 -21.3333333333333H362.6666666666667V-64H320V-21.3333333333333z" /></svg>