<?xml version="1.0" encoding="UTF-8"?><!DOCTYPE svg PUBLIC "-//W3C//DTD SVG 1.1//EN" "http://www.w3.org/Graphics/SVG/1.1/DTD/svg11.dtd"><svg xmlns="http://www.w3.org/2000/svg" xmlns:xlink="http://www.w3.org/1999/xlink" version="1.1" width="512" height="512" viewBox="0 0 512 512">    <path fill="#ffffff" transform="scale(1, -1) translate(0, -448)" glyph-name="animation-outline" unicode="&#xFA8E;" horiz-adv-x="512" d=" M85.3333333333333 405.3333333333333C61.8666666666667 405.3333333333333 42.6666666666667 386.1333333333334 42.6666666666667 362.6666666666667V149.3333333333334H85.3333333333333V362.6666666666667H298.6666666666667V405.3333333333333H85.3333333333333M170.6666666666667 320C147.2 320 128 300.8 128 277.3333333333334V64H170.6666666666667V277.3333333333334H384V320H170.6666666666667M426.6666666666667 192V21.3333333333334H256V192H426.6666666666667M426.6666666666667 234.6666666666667H256C232.5333333333334 234.6666666666667 213.3333333333333 215.4666666666667 213.3333333333333 192V21.3333333333334C213.3333333333333 -2.1333333333333 232.5333333333334 -21.3333333333333 256 -21.3333333333333H426.6666666666667C450.1333333333334 -21.3333333333333 469.3333333333333 -2.1333333333333 469.3333333333333 21.3333333333334V192C469.3333333333333 215.4666666666667 450.1333333333334 234.6666666666667 426.6666666666667 234.6666666666667z" /></svg>