<?xml version="1.0" encoding="UTF-8"?><!DOCTYPE svg PUBLIC "-//W3C//DTD SVG 1.1//EN" "http://www.w3.org/Graphics/SVG/1.1/DTD/svg11.dtd"><svg xmlns="http://www.w3.org/2000/svg" xmlns:xlink="http://www.w3.org/1999/xlink" version="1.1" width="512" height="512" viewBox="0 0 512 512">    <path fill="#ffffff" transform="scale(1, -1) translate(0, -448)" glyph-name="emoticon-kiss-outline" unicode="&#xFC4F;" horiz-adv-x="512" d=" M192 245.3333333333334C192 228.2666666666667 177.0666666666667 213.3333333333334 160 213.3333333333334S128 228.2666666666667 128 245.3333333333334S142.9333333333333 277.3333333333334 160 277.3333333333334S192 262.4000000000001 192 245.3333333333334M341.3333333333333 245.3333333333334C341.3333333333333 228.2666666666667 326.4 213.3333333333334 309.3333333333333 213.3333333333334S277.3333333333333 228.2666666666667 277.3333333333333 245.3333333333334S292.2666666666667 277.3333333333334 309.3333333333333 277.3333333333334S341.3333333333333 262.4000000000001 341.3333333333333 245.3333333333334M298.6666666666667 146.7733333333333L253.44 192L230.8266666666667 169.3866666666667L253.44 146.7733333333333L230.8266666666667 124.16L253.44 101.5466666666666L230.8266666666667 78.9333333333333L253.44 56.3200000000001L298.6666666666667 101.5466666666667L276.0533333333333 124.1600000000001L298.6666666666667 146.7733333333334M359.4666666666667 170.6666666666667C335.36 170.6666666666667 315.7333333333334 151.04 315.7333333333334 126.9333333333333C315.7333333333334 114.7733333333333 320.64 104.1066666666667 328.5333333333333 96L403.2 21.3333333333334L477.8666666666666 96C485.76 103.8933333333334 490.6666666666666 114.9866666666667 490.6666666666666 126.9333333333333C490.6666666666666 151.04 471.04 170.6666666666667 446.9333333333333 170.6666666666667C435.2 170.6666666666667 423.8933333333333 165.76 416 157.8666666666667L403.2 145.0666666666667L390.3999999999999 157.6533333333334C382.5066666666666 165.7600000000001 371.2 170.6666666666667 359.4666666666666 170.6666666666667M320 44.3733333333333C294.8266666666667 29.8666666666667 265.8133333333334 21.3333333333334 234.6666666666667 21.3333333333334C140.3733333333333 21.3333333333334 64 97.7066666666667 64 192S140.3733333333333 362.6666666666667 234.6666666666667 362.6666666666667C325.5466666666666 362.6666666666667 399.5733333333333 291.6266666666667 405.3333333333333 202.6666666666667C417.7066666666666 209.28 432.2133333333334 213.3333333333334 446.9333333333333 213.3333333333334C436.2666666666667 321.0666666666667 345.1733333333333 405.3333333333333 234.6666666666667 405.3333333333333C116.9066666666667 405.3333333333333 21.3333333333333 309.76 21.3333333333333 192S116.9066666666667 -21.3333333333333 234.6666666666667 -21.3333333333333C277.3333333333333 -21.3333333333333 317.44 -8.5333333333333 350.9333333333333 13.2266666666667L320 44.3733333333333z" /></svg>