<?xml version="1.0" encoding="UTF-8"?><!DOCTYPE svg PUBLIC "-//W3C//DTD SVG 1.1//EN" "http://www.w3.org/Graphics/SVG/1.1/DTD/svg11.dtd"><svg xmlns="http://www.w3.org/2000/svg" xmlns:xlink="http://www.w3.org/1999/xlink" version="1.1" width="512" height="512" viewBox="0 0 512 512">    <path fill="#ffffff" transform="scale(1, -1) translate(0, -448)" glyph-name="mouse-off" unicode="&#xF37E;" horiz-adv-x="512" d=" M42.6666666666667 335.5733333333334L69.9733333333333 362.6666666666667L426.6666666666667 5.9733333333334L399.5733333333333 -21.3333333333333L373.3333333333333 4.48C343.04 -24.7466666666667 301.6533333333333 -42.6666666666666 256 -42.6666666666666C161.7066666666667 -42.6666666666666 85.3333333333333 33.7066666666667 85.3333333333333 128V213.3333333333334H164.9066666666667L122.24 256H85.3333333333333C85.3333333333333 267.52 86.4 278.8266666666667 88.5333333333333 289.7066666666667L42.6666666666667 335.5733333333334M234.6666666666667 425.1733333333334V256H230.8266666666667L123.52 363.52C150.4 396.8 189.8666666666667 419.6266666666667 234.6666666666667 425.1733333333334M426.6666666666667 213.3333333333334V128C426.6666666666667 107.7333333333334 423.04 88.3200000000001 416.64 70.1866666666667L273.4933333333334 213.3333333333334H426.6666666666667M277.3333333333333 425.1733333333334C361.3866666666667 414.7200000000001 426.6666666666667 343.04 426.6666666666667 256H277.3333333333333V425.1733333333334z" /></svg>