<?xml version="1.0" encoding="UTF-8"?><!DOCTYPE svg PUBLIC "-//W3C//DTD SVG 1.1//EN" "http://www.w3.org/Graphics/SVG/1.1/DTD/svg11.dtd"><svg xmlns="http://www.w3.org/2000/svg" xmlns:xlink="http://www.w3.org/1999/xlink" version="1.1" width="512" height="512" viewBox="0 0 512 512">    <path fill="#ffffff" transform="scale(1, -1) translate(0, -448)" glyph-name="tag-outline" unicode="&#xF4FC;" horiz-adv-x="512" d=" M117.3333333333333 298.6666666666667C135.04 298.6666666666667 149.3333333333333 312.9600000000001 149.3333333333333 330.6666666666667S135.04 362.6666666666667 117.3333333333333 362.6666666666667S85.3333333333333 348.3733333333334 85.3333333333333 330.6666666666667S99.6266666666667 298.6666666666667 117.3333333333333 298.6666666666667M456.7466666666667 200.96C464.4266666666666 193.28 469.3333333333333 182.6133333333334 469.3333333333333 170.6666666666667C469.3333333333333 158.9333333333333 464.64 148.2666666666667 456.7466666666667 140.5866666666667L307.4133333333333 -8.7466666666667C299.7333333333334 -16.4266666666666 289.0666666666667 -21.3333333333333 277.3333333333333 -21.3333333333333C265.6 -21.3333333333333 254.9333333333333 -16.4266666666666 247.04 -8.7466666666667L55.2533333333333 183.2533333333333C47.36 190.9333333333333 42.6666666666667 201.6 42.6666666666667 213.3333333333334V362.6666666666667C42.6666666666667 386.3466666666667 61.6533333333333 405.3333333333333 85.3333333333333 405.3333333333333H234.6666666666667C246.4 405.3333333333333 257.0666666666667 400.64 264.7466666666667 392.96L456.7466666666667 200.96M277.3333333333333 21.3333333333334L426.6666666666667 170.6666666666667L245.3333333333333 352L96 202.6666666666667L277.3333333333333 21.3333333333334z" /></svg>