<?xml version="1.0" encoding="UTF-8"?><!DOCTYPE svg PUBLIC "-//W3C//DTD SVG 1.1//EN" "http://www.w3.org/Graphics/SVG/1.1/DTD/svg11.dtd"><svg xmlns="http://www.w3.org/2000/svg" xmlns:xlink="http://www.w3.org/1999/xlink" version="1.1" width="512" height="512" viewBox="0 0 512 512">    <path fill="#ffffff" transform="scale(1, -1) translate(0, -448)" glyph-name="bell-off" unicode="&#xF09B;" horiz-adv-x="512" d=" M444.5866666666667 -36.9066666666666L386.3466666666667 21.3333333333334H64V42.6666666666667L106.6666666666667 85.3333333333334V213.3333333333334C106.6666666666667 237.6533333333334 112.8533333333333 261.76 124.3733333333333 283.3066666666667L23.68 384L50.9866666666667 411.0933333333334L471.6799999999999 -9.8133333333333L444.5866666666667 -36.9066666666666M405.3333333333333 110.9333333333333V213.3333333333334C405.3333333333333 279.4666666666667 362.0266666666667 337.7066666666667 298.6666666666667 356.48V362.6666666666667C298.6666666666667 386.1333333333334 279.4666666666667 405.3333333333333 256 405.3333333333333S213.3333333333333 386.1333333333334 213.3333333333333 362.6666666666667V356.48C200.32 352.64 187.7333333333334 346.88 176.2133333333333 339.4133333333334L405.3333333333333 110.9333333333333M256 -42.6666666666666C279.4666666666667 -42.6666666666666 298.6666666666667 -23.4666666666667 298.6666666666667 0H213.3333333333333C213.3333333333333 -23.4666666666667 232.5333333333334 -42.6666666666666 256 -42.6666666666666z" /></svg>