<?xml version="1.0" encoding="UTF-8"?><!DOCTYPE svg PUBLIC "-//W3C//DTD SVG 1.1//EN" "http://www.w3.org/Graphics/SVG/1.1/DTD/svg11.dtd"><svg xmlns="http://www.w3.org/2000/svg" xmlns:xlink="http://www.w3.org/1999/xlink" version="1.1" width="512" height="512" viewBox="0 0 512 512">    <path fill="#ffffff" transform="scale(1, -1) translate(0, -448)" glyph-name="pinterest-box" unicode="&#xF408;" horiz-adv-x="512" d=" M106.6666666666667 384H405.3333333333333C428.8 384 448 364.8 448 341.3333333333334V42.6666666666667C448 19.2 428.8 0 405.3333333333333 0H198.1866666666667C206.72 14.2933333333334 217.3866666666667 34.5600000000001 221.6533333333333 50.3466666666667L235.7333333333333 99.4133333333334C242.3466666666667 86.4 261.9733333333333 75.7333333333334 282.0266666666667 75.7333333333334C344.9599999999999 75.7333333333334 388.6933333333333 132.6933333333334 388.6933333333333 203.7333333333334C388.6933333333333 271.36 333.6533333333333 322.3466666666667 262.4 322.3466666666667C173.6533333333333 322.3466666666667 127.36 263.04 127.36 197.9733333333334C127.36 167.6800000000001 142.72 130.3466666666667 168.7466666666666 118.4C172.3733333333333 116.0533333333334 174.72 117.3333333333334 174.72 120.7466666666667L180.6933333333333 143.36C181.3333333333333 146.3466666666667 181.3333333333333 148.0533333333334 179.4133333333333 149.3333333333334C170.0266666666666 161.0666666666667 164.0533333333333 178.9866666666667 164.0533333333333 196.6933333333334C164.0533333333333 242.3466666666667 198.3999999999999 285.6533333333334 256.64 285.6533333333334C307.6266666666666 285.6533333333334 343.04 251.9466666666667 343.04 202.6666666666667C343.04 146.9866666666667 314.6666666666667 107.7333333333334 277.9733333333333 107.7333333333334C257.0666666666666 107.7333333333334 242.9866666666666 125.6533333333334 246.3999999999999 145.7066666666667C252.3733333333333 170.0266666666667 264.32 195.6266666666667 264.32 213.3333333333334C264.32 229.9733333333334 255.9999999999999 242.9866666666667 238.08 242.9866666666667C218.0266666666666 242.9866666666667 200.3199999999999 221.6533333333334 200.3199999999999 193.0666666666667C200.3199999999999 174.2933333333334 206.0799999999999 162.3466666666667 206.0799999999999 162.3466666666667L182.3999999999999 60.3733333333334C178.9866666666666 42.6666666666667 180.6933333333333 16 182.3999999999999 0H106.6666666666667C83.2 0 64 19.2 64 42.6666666666667V341.3333333333334C64 364.8 83.2 384 106.6666666666667 384z" /></svg>