<?xml version="1.0" encoding="UTF-8"?><!DOCTYPE svg PUBLIC "-//W3C//DTD SVG 1.1//EN" "http://www.w3.org/Graphics/SVG/1.1/DTD/svg11.dtd"><svg xmlns="http://www.w3.org/2000/svg" xmlns:xlink="http://www.w3.org/1999/xlink" version="1.1" width="512" height="512" viewBox="0 0 512 512">    <path fill="#ffffff" transform="scale(1, -1) translate(0, -448)" glyph-name="view-week" unicode="&#xF576;" horiz-adv-x="512" d=" M277.3333333333333 341.3333333333334H213.3333333333333C201.6 341.3333333333334 192 331.7333333333334 192 320V64C192 52.2666666666667 201.6 42.6666666666667 213.3333333333333 42.6666666666667H277.3333333333333C289.0666666666667 42.6666666666667 298.6666666666667 52.2666666666667 298.6666666666667 64V320C298.6666666666667 331.7333333333334 289.0666666666667 341.3333333333334 277.3333333333333 341.3333333333334M426.6666666666667 341.3333333333334H362.6666666666667C350.9333333333333 341.3333333333334 341.3333333333333 331.7333333333334 341.3333333333333 320V64C341.3333333333333 52.2666666666667 350.9333333333333 42.6666666666667 362.6666666666667 42.6666666666667H426.6666666666667C438.4 42.6666666666667 448 52.2666666666667 448 64V320C448 331.7333333333334 438.4 341.3333333333334 426.6666666666667 341.3333333333334M128 341.3333333333334H64C52.2666666666667 341.3333333333334 42.6666666666667 331.7333333333334 42.6666666666667 320V64C42.6666666666667 52.2666666666667 52.2666666666667 42.6666666666667 64 42.6666666666667H128C139.7333333333333 42.6666666666667 149.3333333333333 52.2666666666667 149.3333333333333 64V320C149.3333333333333 331.7333333333334 139.7333333333333 341.3333333333334 128 341.3333333333334z" /></svg>