<?xml version="1.0" encoding="UTF-8"?><!DOCTYPE svg PUBLIC "-//W3C//DTD SVG 1.1//EN" "http://www.w3.org/Graphics/SVG/1.1/DTD/svg11.dtd"><svg xmlns="http://www.w3.org/2000/svg" xmlns:xlink="http://www.w3.org/1999/xlink" version="1.1" width="512" height="512" viewBox="0 0 512 512">    <path fill="#ffffff" transform="scale(1, -1) translate(0, -448)" glyph-name="pencil-circle" unicode="&#xF6FE;" horiz-adv-x="512" d=" M256 405.3333333333333C138.0266666666667 405.3333333333333 42.6666666666667 309.9733333333334 42.6666666666667 192S138.0266666666667 -21.3333333333333 256 -21.3333333333333S469.3333333333333 74.0266666666666 469.3333333333333 192S373.9733333333334 405.3333333333333 256 405.3333333333333M322.1333333333334 297.1733333333334C325.12 297.1733333333334 328.1066666666667 296.1066666666667 330.6666666666667 293.76L357.76 266.6666666666667C362.6666666666667 261.9733333333334 362.6666666666667 254.5066666666667 357.76 250.0266666666667L336.4266666666666 228.6933333333334L292.6933333333333 272.4266666666667L314.0266666666667 293.76C316.16 296.1066666666667 319.1466666666667 297.1733333333334 322.1333333333334 297.1733333333334M280.1066666666667 260.0533333333334L324.0533333333333 216.1066666666667L194.7733333333333 86.8266666666667H150.8266666666667V130.7733333333334L280.1066666666667 260.0533333333334z" /></svg>