<?xml version="1.0" encoding="UTF-8"?><!DOCTYPE svg PUBLIC "-//W3C//DTD SVG 1.1//EN" "http://www.w3.org/Graphics/SVG/1.1/DTD/svg11.dtd"><svg xmlns="http://www.w3.org/2000/svg" xmlns:xlink="http://www.w3.org/1999/xlink" version="1.1" width="512" height="512" viewBox="0 0 512 512">    <path fill="#ffffff" transform="scale(1, -1) translate(0, -448)" glyph-name="account-check-outline" unicode="&#xFBBE;" horiz-adv-x="512" d=" M450.1333333333334 181.3333333333334L480 151.2533333333333L340.6933333333333 10.6666666666667L266.6666666666667 85.3333333333334L296.5333333333333 115.4133333333334L340.6933333333334 71.04L450.1333333333334 181.3333333333333M234.6666666666667 362.6666666666667C281.8133333333334 362.6666666666667 320 324.48 320 277.3333333333334S281.8133333333334 192 234.6666666666667 192S149.3333333333333 230.1866666666667 149.3333333333333 277.3333333333334S187.52 362.6666666666667 234.6666666666667 362.6666666666667M234.6666666666667 320C211.2 320 192 300.8 192 277.3333333333334S211.2 234.6666666666667 234.6666666666667 234.6666666666667S277.3333333333333 253.8666666666667 277.3333333333333 277.3333333333334S258.1333333333334 320 234.6666666666667 320M234.6666666666667 170.6666666666667C249.1733333333333 170.6666666666667 266.6666666666667 168.7466666666667 286.08 165.12L250.4533333333333 129.4933333333334L234.6666666666667 130.1333333333333C171.3066666666667 130.1333333333333 104.5333333333333 98.9866666666667 104.5333333333333 85.3333333333334V61.8666666666667H236.8L277.3333333333333 21.3333333333334H64V85.3333333333334C64 142.0800000000001 177.7066666666667 170.6666666666667 234.6666666666667 170.6666666666667z" /></svg>