<?xml version="1.0" encoding="UTF-8"?><!DOCTYPE svg PUBLIC "-//W3C//DTD SVG 1.1//EN" "http://www.w3.org/Graphics/SVG/1.1/DTD/svg11.dtd"><svg xmlns="http://www.w3.org/2000/svg" xmlns:xlink="http://www.w3.org/1999/xlink" version="1.1" width="512" height="512" viewBox="0 0 512 512">    <path fill="#ffffff" transform="scale(1, -1) translate(0, -448)" glyph-name="buddhism" unicode="&#xF94A;" horiz-adv-x="512" d=" M234.6666666666667 405.3333333333333V384C197.76 379.7333333333334 164.0533333333333 364.8 136.5333333333333 342.6133333333334L120.32 358.8266666666667L90.0266666666667 328.5333333333334L106.6666666666667 312.5333333333334C83.2 284.1600000000001 68.48 249.6 64 213.3333333333334H42.6666666666667V170.6666666666667H64C68.48 134.8266666666667 83.2 101.1200000000001 106.6666666666667 73.3866666666667L90.0266666666667 57.1733333333334L120.32 26.88L136.32 42.6666666666666C164.48 19.8399999999999 198.4 4.9066666666666 234.6666666666667 -1e-13V-21.3333333333334H277.3333333333333V-1e-13C313.3866666666667 4.9066666666666 347.52 19.8399999999999 375.4666666666667 42.6666666666666L391.6800000000001 26.88L421.9733333333334 57.1733333333334L405.3333333333333 73.1733333333334C428.8 100.9066666666667 443.52 134.8266666666667 448 170.6666666666667H469.3333333333333V213.3333333333334H448C443.52 249.6 428.8 283.9466666666667 405.3333333333333 312.32L421.9733333333334 328.5333333333333L391.68 358.8266666666667L375.68 342.6133333333334C347.52 365.44 313.3866666666667 379.7333333333334 277.3333333333333 384V405.3333333333333H234.6666666666667M234.6666666666667 341.3333333333334V277.3333333333334L213.3333333333333 266.6666666666667L166.6133333333334 312.5333333333334C186.0266666666667 327.04 209.28 337.7066666666667 234.6666666666667 341.3333333333334M277.3333333333333 341.3333333333334C302.08 337.4933333333334 325.5466666666666 327.68 345.6 312.5333333333334L298.6666666666667 266.6666666666667L277.3333333333333 277.3333333333334V341.3333333333334M136.5333333333333 282.4533333333334L181.3333333333333 234.6666666666667L170.6666666666667 213.3333333333334H106.6666666666667C110.08 238.08 121.6 262.4000000000001 136.32 282.6666666666667L136.5333333333333 282.4533333333334M375.4666666666666 282.4533333333334C391.04 262.1866666666667 401.28 238.5066666666667 405.3333333333333 213.3333333333334H341.3333333333333L330.6666666666666 234.6666666666667L375.6799999999999 282.4533333333334H375.4666666666666M256 234.6666666666667C279.8933333333333 234.6666666666667 298.6666666666667 215.8933333333333 298.6666666666667 192S279.8933333333333 149.3333333333334 256 149.3333333333334S213.3333333333333 168.1066666666667 213.3333333333333 192S232.1066666666667 234.6666666666667 256 234.6666666666667M106.6666666666667 170.6666666666667H170.6666666666667L182.8266666666667 149.3333333333334L136.32 103.4666666666667C120.96 122.88 110.72 145.92 106.6666666666667 170.6666666666667M341.3333333333333 170.6666666666667H405.3333333333333C401.28 146.1333333333333 391.04 122.88 375.68 103.2533333333333L330.6666666666667 149.3333333333334L341.3333333333333 170.6666666666667M213.3333333333333 117.3333333333334L234.6666666666667 106.6666666666667V42.6666666666667C209.7066666666667 46.9333333333333 186.24 57.3866666666667 166.4 73.1733333333334L213.3333333333333 117.3333333333334M298.6666666666667 117.3333333333334L345.3866666666667 73.1733333333334C325.9733333333334 58.6666666666667 302.7200000000001 46.2933333333333 277.3333333333334 42.6666666666667V106.6666666666667L298.6666666666667 117.3333333333334z" /></svg>