<?xml version="1.0" encoding="UTF-8"?><!DOCTYPE svg PUBLIC "-//W3C//DTD SVG 1.1//EN" "http://www.w3.org/Graphics/SVG/1.1/DTD/svg11.dtd"><svg xmlns="http://www.w3.org/2000/svg" xmlns:xlink="http://www.w3.org/1999/xlink" version="1.1" width="512" height="512" viewBox="0 0 512 512">    <path fill="#ffffff" transform="scale(1, -1) translate(0, -448)" glyph-name="bio" unicode="&#xF0A6;" horiz-adv-x="512" d=" M362.6666666666667 192H426.6666666666667C450.1333333333334 192 469.3333333333333 172.8 469.3333333333333 149.3333333333334V85.3333333333334C469.3333333333333 61.8666666666667 450.1333333333334 42.6666666666667 426.6666666666667 42.6666666666667H362.6666666666667C339.2 42.6666666666667 320 61.8666666666667 320 85.3333333333334V149.3333333333334C320 172.8 339.2 192 362.6666666666667 192M362.6666666666667 149.3333333333334V85.3333333333334H426.6666666666667V149.3333333333334H362.6666666666667M42.6666666666667 298.6666666666667H149.3333333333333C172.8 298.6666666666667 192 279.4666666666667 192 256V213.3333333333334C192 189.8666666666667 172.8 170.6666666666667 149.3333333333333 170.6666666666667C172.8 170.6666666666667 192 151.4666666666667 192 128V85.3333333333334C192 61.8666666666667 172.8 42.6666666666667 149.3333333333333 42.6666666666667H42.6666666666667V298.6666666666667M85.3333333333333 256V192H149.3333333333333V256H85.3333333333333M85.3333333333333 85.3333333333334H149.3333333333333V149.3333333333334H85.3333333333333V85.3333333333334M234.6666666666667 170.6666666666667H277.3333333333333V42.6666666666667H234.6666666666667V170.6666666666667M234.6666666666667 256H277.3333333333333V213.3333333333334H234.6666666666667V256z" /></svg>