<?xml version="1.0" encoding="UTF-8"?><!DOCTYPE svg PUBLIC "-//W3C//DTD SVG 1.1//EN" "http://www.w3.org/Graphics/SVG/1.1/DTD/svg11.dtd"><svg xmlns="http://www.w3.org/2000/svg" xmlns:xlink="http://www.w3.org/1999/xlink" version="1.1" width="512" height="512" viewBox="0 0 512 512">    <path fill="#ffffff" transform="scale(1, -1) translate(0, -448)" glyph-name="blogger" unicode="&#xF0AE;" horiz-adv-x="512" d=" M298.6666666666667 170.6666666666667H212.2666666666667C200.5333333333333 170.6666666666667 190.9333333333333 161.0666666666667 190.9333333333333 149.3333333333334S200.5333333333333 128 212.2666666666667 128H298.6666666666667C310.4 128 320 137.6 320 149.3333333333334S310.4 170.6666666666667 298.6666666666667 170.6666666666667M212.2666666666667 234.6666666666667H267.7333333333333C279.4666666666667 234.6666666666667 289.0666666666666 244.2666666666667 289.0666666666666 256S279.4666666666667 277.3333333333334 267.7333333333333 277.3333333333334H212.2666666666667C200.5333333333333 277.3333333333334 190.9333333333333 267.7333333333334 190.9333333333333 256S200.5333333333333 234.6666666666667 212.2666666666667 234.6666666666667M341.3333333333333 256V234.6666666666667C341.3333333333333 222.9333333333333 350.9333333333333 213.3333333333334 362.6666666666667 213.3333333333334S384 203.7333333333334 384 192V128C384 92.5866666666667 355.4133333333333 64 320 64H192C156.5866666666667 64 128 92.5866666666667 128 128V277.3333333333334C128 312.7466666666667 156.5866666666667 341.3333333333334 192 341.3333333333334H277.3333333333333C312.7466666666667 341.3333333333334 341.3333333333333 312.7466666666667 341.3333333333333 277.3333333333334M426.6666666666667 405.3333333333333H85.3333333333333C61.6533333333333 405.3333333333333 42.6666666666667 386.3466666666667 42.6666666666667 362.6666666666667V21.3333333333334C42.6666666666667 -2.1333333333333 61.8666666666667 -21.3333333333333 85.3333333333333 -21.3333333333333H426.6666666666667C450.1333333333334 -21.3333333333333 469.3333333333333 -2.1333333333333 469.3333333333333 21.3333333333334V362.6666666666667C469.3333333333333 386.3466666666667 450.1333333333334 405.3333333333333 426.6666666666667 405.3333333333333z" /></svg>