<?xml version="1.0" encoding="UTF-8"?><!DOCTYPE svg PUBLIC "-//W3C//DTD SVG 1.1//EN" "http://www.w3.org/Graphics/SVG/1.1/DTD/svg11.dtd"><svg xmlns="http://www.w3.org/2000/svg" xmlns:xlink="http://www.w3.org/1999/xlink" version="1.1" width="512" height="512" viewBox="0 0 512 512">    <path fill="#ffffff" transform="scale(1, -1) translate(0, -448)" glyph-name="satellite" unicode="&#xF470;" horiz-adv-x="512" d=" M106.6666666666667 64L181.3333333333333 160L234.6666666666667 96L309.3333333333333 192L405.3333333333333 64M106.6666666666667 192V234.6666666666667C165.5466666666667 234.6666666666667 213.3333333333333 282.4533333333334 213.3333333333333 341.3333333333334H256C256 258.7733333333333 189.2266666666667 192 106.6666666666667 192M106.6666666666667 341.3333333333334H170.6666666666667C170.6666666666667 305.92 142.08 277.3333333333334 106.6666666666667 277.3333333333334M405.3333333333333 384H106.6666666666667C83.2 384 64 364.8 64 341.3333333333334V42.6666666666667C64 19.2 83.2 0 106.6666666666667 0H405.3333333333333C428.8 0 448 19.2 448 42.6666666666667V341.3333333333334C448 365.0133333333333 428.8 384 405.3333333333333 384z" /></svg>