<?xml version="1.0" encoding="UTF-8"?><!DOCTYPE svg PUBLIC "-//W3C//DTD SVG 1.1//EN" "http://www.w3.org/Graphics/SVG/1.1/DTD/svg11.dtd"><svg xmlns="http://www.w3.org/2000/svg" xmlns:xlink="http://www.w3.org/1999/xlink" version="1.1" width="512" height="512" viewBox="0 0 512 512">    <path fill="#ffffff" transform="scale(1, -1) translate(0, -448)" glyph-name="arrow-expand-all" unicode="&#xF04C;" horiz-adv-x="512" d=" M202.6666666666667 168.7466666666667L232.7466666666667 138.6666666666667L136.7466666666667 42.6666666666667H213.3333333333333V0H64V149.3333333333334H106.6666666666667V72.7466666666667L202.6666666666667 168.7466666666667M232.7466666666667 245.3333333333334L202.6666666666667 215.2533333333333L106.6666666666667 311.2533333333334V234.6666666666667H64V384H213.3333333333333V341.3333333333334H136.7466666666667L232.7466666666667 245.3333333333334M309.3333333333333 168.7466666666667L405.3333333333333 72.7466666666667V149.3333333333334H448V0H298.6666666666667V42.6666666666667H375.2533333333334L279.2533333333334 138.6666666666667L309.3333333333333 168.7466666666667M279.2533333333334 245.3333333333334L375.2533333333334 341.3333333333334H298.6666666666667V384H448V234.6666666666667H405.3333333333333V311.2533333333334L309.3333333333333 215.2533333333333L279.2533333333334 245.3333333333334z" /></svg>