<?xml version="1.0" encoding="UTF-8"?><!DOCTYPE svg PUBLIC "-//W3C//DTD SVG 1.1//EN" "http://www.w3.org/Graphics/SVG/1.1/DTD/svg11.dtd"><svg xmlns="http://www.w3.org/2000/svg" xmlns:xlink="http://www.w3.org/1999/xlink" version="1.1" width="512" height="512" viewBox="0 0 512 512">    <path fill="#ffffff" transform="scale(1, -1) translate(0, -448)" glyph-name="desktop-mac-dashboard" unicode="&#xF9E7;" horiz-adv-x="512" d=" M448 149.3333333333334V362.6666666666667H64V149.3333333333334H448M448 405.3333333333333C471.4666666666667 405.3333333333333 490.6666666666666 386.1333333333334 490.6666666666666 362.6666666666667V106.6666666666667C490.6666666666666 83.2 471.4666666666667 64 448 64H298.6666666666667L341.3333333333333 0V-21.3333333333333H170.6666666666667V0L213.3333333333333 64H64C40.32 64 21.3333333333333 83.2 21.3333333333333 106.6666666666667V362.6666666666667C21.3333333333333 386.3466666666667 40.32 405.3333333333333 64 405.3333333333333H448M85.3333333333333 341.3333333333334H320V234.6666666666667H85.3333333333333V341.3333333333334M341.3333333333333 341.3333333333334H426.6666666666667V298.6666666666667H341.3333333333333V341.3333333333334M426.6666666666667 277.3333333333334V170.6666666666667H341.3333333333333V277.3333333333334H426.6666666666667M85.3333333333333 213.3333333333334H192V170.6666666666667H85.3333333333333V213.3333333333334M213.3333333333333 213.3333333333334H320V170.6666666666667H213.3333333333333V213.3333333333334z" /></svg>