<?xml version="1.0" encoding="UTF-8"?><!DOCTYPE svg PUBLIC "-//W3C//DTD SVG 1.1//EN" "http://www.w3.org/Graphics/SVG/1.1/DTD/svg11.dtd"><svg xmlns="http://www.w3.org/2000/svg" xmlns:xlink="http://www.w3.org/1999/xlink" version="1.1" width="512" height="512" viewBox="0 0 512 512">    <path fill="#ffffff" transform="scale(1, -1) translate(0, -448)" glyph-name="atm" unicode="&#xFD23;" horiz-adv-x="512" d=" M170.6666666666667 256V224H218.6666666666667V128H250.6666666666667V224H298.6666666666667V256H170.6666666666667M128 256H64C52.2666666666667 256 42.6666666666667 246.4000000000001 42.6666666666667 234.6666666666667V128H74.6666666666667V160H117.3333333333333V128H149.3333333333333V234.6666666666667C149.3333333333333 246.4000000000001 139.7333333333333 256 128 256M117.3333333333333 192H74.6666666666667V224H117.3333333333333V192M448 256H352C340.2666666666667 256 330.6666666666667 246.4000000000001 330.6666666666667 234.6666666666667V128H362.6666666666667V224H384V149.3333333333334H416V224H437.3333333333333V128H469.3333333333333V234.6666666666667C469.3333333333333 246.4000000000001 459.7333333333333 256 448 256z" /></svg>