<?xml version="1.0" encoding="UTF-8"?><!DOCTYPE svg PUBLIC "-//W3C//DTD SVG 1.1//EN" "http://www.w3.org/Graphics/SVG/1.1/DTD/svg11.dtd"><svg xmlns="http://www.w3.org/2000/svg" xmlns:xlink="http://www.w3.org/1999/xlink" version="1.1" width="512" height="512" viewBox="0 0 512 512">    <path fill="#ffffff" transform="scale(1, -1) translate(0, -448)" glyph-name="wechat" unicode="&#xF611;" horiz-adv-x="512" d=" M202.6666666666667 362.6666666666667C114.3466666666667 362.6666666666667 42.6666666666667 305.28 42.6666666666667 234.6666666666667C42.6666666666667 194.3466666666667 65.7066666666667 158.72 101.9733333333333 135.2533333333333L85.3333333333333 85.3333333333334L138.6666666666667 117.3333333333334C157.6533333333333 110.72 178.56 106.6666666666667 200.7466666666667 106.6666666666667C195.2 120.1066666666667 192 134.4 192 149.3333333333334C192 219.9466666666667 258.7733333333333 277.3333333333334 341.3333333333333 277.3333333333334C345.3866666666667 277.3333333333334 349.44 277.3333333333334 353.28 276.6933333333334C331.52 326.6133333333334 272.64 362.6666666666667 202.6666666666667 362.6666666666667M138.6666666666667 309.3333333333334C150.4 309.3333333333334 160 299.7333333333334 160 288S150.4 266.6666666666667 138.6666666666667 266.6666666666667S117.3333333333333 276.2666666666667 117.3333333333333 288S126.9333333333333 309.3333333333334 138.6666666666667 309.3333333333334M245.3333333333333 309.3333333333334C257.0666666666667 309.3333333333334 266.6666666666667 299.7333333333334 266.6666666666667 288S257.0666666666667 266.6666666666667 245.3333333333333 266.6666666666667S224 276.2666666666667 224 288S233.6 309.3333333333334 245.3333333333333 309.3333333333334M341.3333333333333 256C270.72 256 213.3333333333333 208.2133333333334 213.3333333333333 149.3333333333334S270.72 42.6666666666667 341.3333333333333 42.6666666666667C355.6266666666667 42.6666666666667 369.28 44.3733333333333 382.08 48L426.6666666666667 21.3333333333334L413.44 61.2266666666667C446.9333333333333 80.64 469.3333333333333 112.8533333333334 469.3333333333333 149.3333333333334C469.3333333333333 208.2133333333334 411.9466666666666 256 341.3333333333333 256M298.6666666666667 202.6666666666667C310.4 202.6666666666667 320 193.0666666666667 320 181.3333333333334S310.4 160 298.6666666666667 160S277.3333333333333 169.6 277.3333333333333 181.3333333333334S286.9333333333333 202.6666666666667 298.6666666666667 202.6666666666667M384 202.6666666666667C395.7333333333334 202.6666666666667 405.3333333333333 193.0666666666667 405.3333333333333 181.3333333333334S395.7333333333334 160 384 160S362.6666666666667 169.6 362.6666666666667 181.3333333333334S372.2666666666667 202.6666666666667 384 202.6666666666667z" /></svg>