<?xml version="1.0" encoding="UTF-8"?><!DOCTYPE svg PUBLIC "-//W3C//DTD SVG 1.1//EN" "http://www.w3.org/Graphics/SVG/1.1/DTD/svg11.dtd"><svg xmlns="http://www.w3.org/2000/svg" xmlns:xlink="http://www.w3.org/1999/xlink" version="1.1" width="512" height="512" viewBox="0 0 512 512">    <path fill="#ffffff" transform="scale(1, -1) translate(0, -448)" glyph-name="format-subscript" unicode="&#xF282;" horiz-adv-x="512" d=" M341.3333333333333 289.92L243.4133333333334 192L341.3333333333333 94.08L311.2533333333334 64L213.3333333333333 161.92L115.4133333333333 64L85.3333333333333 94.08L183.2533333333333 192L85.3333333333333 289.92L115.4133333333333 320L213.3333333333333 222.08L311.2533333333334 320L341.3333333333333 289.92M466.1333333333333 -0.64H362.0266666666667V20.6933333333333L381.0133333333334 37.76C397.2266666666668 51.6266666666667 409.1733333333334 63.1466666666667 417.2800000000001 72.5333333333333C425.1733333333334 81.92 429.2266666666667 90.6666666666667 429.4400000000001 98.9866666666666C429.6533333333334 104.96 427.7333333333334 109.8666666666666 423.6800000000001 113.92C419.8400000000001 117.3333333333333 413.6533333333334 119.8933333333333 405.3333333333334 119.8933333333333C398.7200000000001 119.8933333333333 392.9600000000001 118.6133333333332 387.4133333333334 116.0533333333333L373.3333333333334 107.9466666666666L363.7333333333334 132.9066666666666C369.4933333333334 137.3866666666666 376.3200000000001 141.2266666666666 384.6400000000001 144.2133333333333S402.1333333333335 149.3333333333333 412.1600000000001 149.3333333333333C428.8000000000001 148.4799999999999 441.6 143.9999999999999 450.1333333333335 135.2533333333332C458.6666666666667 126.5066666666666 463.3600000000001 115.4133333333333 463.3600000000001 101.7599999999999C463.1466666666668 89.8133333333333 459.3066666666667 78.72 451.8400000000001 68.6933333333333C444.5866666666668 58.6666666666666 435.6266666666668 49.0666666666666 424.7466666666668 39.68L411.0933333333335 28.5866666666666V28.16H466.1333333333335V-0.6400000000001z" /></svg>