<?xml version="1.0" encoding="UTF-8"?><!DOCTYPE svg PUBLIC "-//W3C//DTD SVG 1.1//EN" "http://www.w3.org/Graphics/SVG/1.1/DTD/svg11.dtd"><svg xmlns="http://www.w3.org/2000/svg" xmlns:xlink="http://www.w3.org/1999/xlink" version="1.1" width="512" height="512" viewBox="0 0 512 512">    <path fill="#ffffff" transform="scale(1, -1) translate(0, -448)" glyph-name="blinds" unicode="&#xF0AC;" horiz-adv-x="512" d=" M64 405.3333333333333H448C459.7333333333333 405.3333333333333 469.3333333333333 395.7333333333334 469.3333333333333 384V341.3333333333334C469.3333333333333 329.6 459.7333333333333 320 448 320H426.6666666666667V170.6666666666667C426.6666666666667 158.9333333333333 417.0666666666667 149.3333333333334 405.3333333333333 149.3333333333334H277.3333333333333V103.04C302.2933333333333 94.2933333333333 320 70.6133333333334 320 42.6666666666667C320 7.2533333333333 291.4133333333333 -21.3333333333333 256 -21.3333333333333S192 7.2533333333333 192 42.6666666666667C192 70.6133333333334 209.7066666666667 94.2933333333334 234.6666666666667 103.04V149.3333333333334H106.6666666666667C94.9333333333333 149.3333333333334 85.3333333333333 158.9333333333333 85.3333333333333 170.6666666666667V320H64C52.2666666666667 320 42.6666666666667 329.6 42.6666666666667 341.3333333333334V384C42.6666666666667 395.7333333333334 52.2666666666667 405.3333333333333 64 405.3333333333333M256 64C244.2666666666667 64 234.6666666666667 54.4 234.6666666666667 42.6666666666667S244.2666666666667 21.3333333333334 256 21.3333333333334S277.3333333333333 30.9333333333333 277.3333333333333 42.6666666666667S267.7333333333334 64 256 64z" /></svg>