<?xml version="1.0" encoding="UTF-8"?><!DOCTYPE svg PUBLIC "-//W3C//DTD SVG 1.1//EN" "http://www.w3.org/Graphics/SVG/1.1/DTD/svg11.dtd"><svg xmlns="http://www.w3.org/2000/svg" xmlns:xlink="http://www.w3.org/1999/xlink" version="1.1" width="512" height="512" viewBox="0 0 512 512">    <path fill="#ffffff" transform="scale(1, -1) translate(0, -448)" glyph-name="sign-text" unicode="&#xF781;" horiz-adv-x="512" d=" M234.6666666666667 384L256 405.3333333333333L277.3333333333333 384V341.3333333333334H426.6666666666667C438.4 341.3333333333334 448 331.7333333333334 448 320V106.6666666666667C448 94.9333333333333 438.4 85.3333333333334 426.6666666666667 85.3333333333334H277.3333333333333V21.3333333333334C300.8 21.3333333333334 320 2.1333333333334 320 -21.3333333333333H192C192 2.1333333333334 211.2 21.3333333333334 234.6666666666667 21.3333333333334V85.3333333333334H85.3333333333333C73.6 85.3333333333334 64 94.9333333333333 64 106.6666666666667V320C64 331.7333333333334 73.6 341.3333333333334 85.3333333333333 341.3333333333334H234.6666666666667V384M128 277.3333333333334V234.6666666666667H384V277.3333333333334H128M128 192V149.3333333333334H277.3333333333333V192H128z" /></svg>