<?xml version="1.0" encoding="UTF-8"?><!DOCTYPE svg PUBLIC "-//W3C//DTD SVG 1.1//EN" "http://www.w3.org/Graphics/SVG/1.1/DTD/svg11.dtd"><svg xmlns="http://www.w3.org/2000/svg" xmlns:xlink="http://www.w3.org/1999/xlink" version="1.1" width="512" height="512" viewBox="0 0 512 512">    <path fill="#ffffff" transform="scale(1, -1) translate(0, -448)" glyph-name="flower-poppy" unicode="&#xFCE4;" horiz-adv-x="512" d=" M394.6666666666667 192C435.84 192 469.3333333333333 225.4933333333334 469.3333333333333 266.6666666666667C469.3333333333333 343.2533333333334 407.2533333333334 405.3333333333333 330.6666666666667 405.3333333333333C289.4933333333334 405.3333333333333 256 371.8400000000001 256 330.6666666666667C256 371.8400000000001 222.5066666666667 405.3333333333333 181.3333333333333 405.3333333333333C104.7466666666667 405.3333333333333 42.6666666666667 343.2533333333334 42.6666666666667 266.6666666666667C42.6666666666667 225.4933333333334 76.16 192 117.3333333333333 192C76.16 192 42.6666666666667 158.5066666666667 42.6666666666667 117.3333333333334C42.6666666666667 40.7466666666667 104.7466666666667 -21.3333333333333 181.3333333333333 -21.3333333333333C222.5066666666667 -21.3333333333333 256 12.16 256 53.3333333333334C256 12.16 289.4933333333334 -21.3333333333333 330.6666666666667 -21.3333333333333C407.2533333333334 -21.3333333333333 469.3333333333333 40.7466666666667 469.3333333333333 117.3333333333334C469.3333333333333 158.5066666666667 435.84 192 394.6666666666667 192M256 106.6666666666667C208.8533333333333 106.6666666666667 170.6666666666667 144.8533333333334 170.6666666666667 192S208.8533333333333 277.3333333333334 256 277.3333333333334S341.3333333333333 239.1466666666667 341.3333333333333 192S303.1466666666667 106.6666666666667 256 106.6666666666667M309.3333333333333 192C309.3333333333333 162.5600000000001 285.44 138.6666666666667 256 138.6666666666667S202.6666666666667 162.56 202.6666666666667 192S226.56 245.3333333333334 256 245.3333333333334S309.3333333333333 221.44 309.3333333333333 192z" /></svg>