<?xml version="1.0" encoding="UTF-8"?><!DOCTYPE svg PUBLIC "-//W3C//DTD SVG 1.1//EN" "http://www.w3.org/Graphics/SVG/1.1/DTD/svg11.dtd"><svg xmlns="http://www.w3.org/2000/svg" xmlns:xlink="http://www.w3.org/1999/xlink" version="1.1" width="512" height="512" viewBox="0 0 512 512">    <path fill="#ffffff" transform="scale(1, -1) translate(0, -448)" glyph-name="screen-rotation-lock" unicode="&#xF476;" horiz-adv-x="512" d=" M358.4 394.6666666666667C358.4 414.7200000000001 374.6133333333334 430.9333333333334 394.6666666666667 430.9333333333334S430.9333333333333 414.7200000000001 430.9333333333333 394.6666666666667V384H358.4V394.6666666666667M341.3333333333333 256H448C459.7333333333333 256 469.3333333333333 265.6 469.3333333333333 277.3333333333334V362.6666666666667C469.3333333333333 374.4 459.7333333333333 384 448 384V394.6666666666667C448 424.1066666666667 424.1066666666667 448 394.6666666666667 448S341.3333333333333 424.1066666666667 341.3333333333333 394.6666666666667V384C329.6 384 320 374.4 320 362.6666666666667V277.3333333333334C320 265.6 329.6 256 341.3333333333333 256M180.6933333333333 10.6666666666667C110.9333333333333 43.9466666666667 61.0133333333333 111.7866666666667 53.3333333333333 192H21.3333333333333C32 60.5866666666667 142.08 -42.6666666666666 276.2666666666667 -42.6666666666666L290.3466666666667 -42.0266666666666L209.0666666666666 39.4666666666667L180.6933333333333 10.6666666666667M496 175.5733333333334L441.1733333333333 230.4000000000001L411.0933333333333 200.32L458.6666666666666 152.96L337.7066666666667 32L96 273.7066666666667L216.96 394.6666666666667L261.76 349.6533333333334L291.84 379.7333333333334L239.5733333333333 432C226.9866666666667 444.5866666666667 206.72 444.5866666666667 194.3466666666666 432L58.6666666666667 296.32C46.08 283.7333333333334 46.08 263.4666666666667 58.6666666666667 251.0933333333334L315.0933333333333 -5.3333333333333C327.68 -17.92 347.9466666666666 -17.92 360.32 -5.3333333333333L496 130.3466666666667C508.5866666666666 142.9333333333333 508.5866666666666 163.2 496 175.5733333333334z" /></svg>