<?xml version="1.0" encoding="UTF-8"?><!DOCTYPE svg PUBLIC "-//W3C//DTD SVG 1.1//EN" "http://www.w3.org/Graphics/SVG/1.1/DTD/svg11.dtd"><svg xmlns="http://www.w3.org/2000/svg" xmlns:xlink="http://www.w3.org/1999/xlink" version="1.1" width="512" height="512" viewBox="0 0 512 512">    <path fill="#ffffff" transform="scale(1, -1) translate(0, -448)" glyph-name="pinterest" unicode="&#xF407;" horiz-adv-x="512" d=" M192.8533333333333 -11.52C213.3333333333333 -17.7066666666666 234.0266666666667 -21.3333333333333 256 -21.3333333333333C373.76 -21.3333333333333 469.3333333333333 74.24 469.3333333333333 192S373.76 405.3333333333333 256 405.3333333333333S42.6666666666667 309.76 42.6666666666667 192C42.6666666666667 101.3333333333334 99.6266666666667 23.4666666666667 180.0533333333334 -7.2533333333333C178.1333333333334 9.3866666666667 176.2133333333334 36.9066666666667 180.0533333333334 55.8933333333334L204.5866666666667 161.2800000000001S198.4 173.6533333333334 198.4 193.2800000000001C198.4 222.72 216.7466666666667 244.6933333333334 237.6533333333334 244.6933333333334C256 244.6933333333334 264.5333333333334 231.2533333333334 264.5333333333334 213.9733333333334C264.5333333333334 195.6266666666668 252.3733333333334 169.3866666666668 246.1866666666667 144.2133333333334C242.5600000000001 123.3066666666667 257.2800000000001 104.96 278.6133333333334 104.96C316.5866666666667 104.96 346.0266666666667 145.4933333333334 346.0266666666667 202.6666666666667C346.0266666666667 253.8666666666668 309.3333333333334 288.8533333333334 256.64 288.8533333333334C196.48 288.8533333333334 161.0666666666667 244.0533333333334 161.0666666666667 196.9066666666667C161.0666666666667 178.5600000000001 167.04 160.0000000000001 176.8533333333334 147.8400000000001C178.7733333333334 146.5600000000001 178.7733333333334 144.8533333333334 178.1333333333334 141.6533333333334L171.9466666666667 118.4000000000001C171.9466666666667 114.7733333333334 169.6 113.4933333333335 165.9733333333334 116.0533333333335C138.6666666666667 128.0000000000001 122.88 166.8266666666668 122.88 198.1866666666668C122.88 265.6000000000002 170.6666666666667 326.8266666666668 262.8266666666667 326.8266666666668C336.2133333333333 326.8266666666668 393.3866666666667 274.1333333333335 393.3866666666667 204.1600000000001C393.3866666666667 130.7733333333334 347.9466666666667 71.8933333333334 282.88 71.8933333333334C262.1866666666667 71.8933333333334 241.92 82.9866666666668 234.6666666666667 96.0000000000001L220.3733333333334 45.4400000000001C215.4666666666667 27.0933333333334 202.0266666666667 2.5600000000001 192.8533333333334 -12.1599999999999V-11.5199999999999z" /></svg>