<?xml version="1.0" encoding="UTF-8"?><!DOCTYPE svg PUBLIC "-//W3C//DTD SVG 1.1//EN" "http://www.w3.org/Graphics/SVG/1.1/DTD/svg11.dtd"><svg xmlns="http://www.w3.org/2000/svg" xmlns:xlink="http://www.w3.org/1999/xlink" version="1.1" width="512" height="512" viewBox="0 0 512 512">    <path fill="#ffffff" transform="scale(1, -1) translate(0, -448)" glyph-name="speaker" unicode="&#xF4C3;" horiz-adv-x="512" d=" M256 192C220.5866666666667 192 192 163.4133333333334 192 128S220.5866666666667 64 256 64S320 92.5866666666667 320 128S291.4133333333333 192 256 192M256 21.3333333333334C197.12 21.3333333333334 149.3333333333333 69.1200000000001 149.3333333333333 128S197.12 234.6666666666667 256 234.6666666666667S362.6666666666667 186.88 362.6666666666667 128S314.88 21.3333333333334 256 21.3333333333334M256 362.6666666666667C279.4666666666667 362.6666666666667 298.6666666666667 343.4666666666667 298.6666666666667 320S279.4666666666667 277.3333333333334 256 277.3333333333334C232.32 277.3333333333334 213.3333333333333 296.5333333333334 213.3333333333333 320C213.3333333333333 343.68 232.32 362.6666666666667 256 362.6666666666667M362.6666666666667 405.3333333333333H149.3333333333333C125.6533333333333 405.3333333333333 106.6666666666667 386.3466666666667 106.6666666666667 362.6666666666667V21.3333333333334C106.6666666666667 -2.1333333333333 125.8666666666667 -21.3333333333333 149.3333333333333 -21.3333333333333H362.6666666666667C386.1333333333334 -21.3333333333333 405.3333333333333 -2.1333333333333 405.3333333333333 21.3333333333334V362.6666666666667C405.3333333333333 386.3466666666667 386.1333333333334 405.3333333333333 362.6666666666667 405.3333333333333z" /></svg>