<?xml version="1.0" encoding="UTF-8"?><!DOCTYPE svg PUBLIC "-//W3C//DTD SVG 1.1//EN" "http://www.w3.org/Graphics/SVG/1.1/DTD/svg11.dtd"><svg xmlns="http://www.w3.org/2000/svg" xmlns:xlink="http://www.w3.org/1999/xlink" version="1.1" width="512" height="512" viewBox="0 0 512 512">    <path fill="#ffffff" transform="scale(1, -1) translate(0, -448)" glyph-name="copyright" unicode="&#xF5E6;" horiz-adv-x="512" d=" M215.04 216.32C216.1066666666667 223.36 218.4533333333333 229.5466666666667 221.44 234.6666666666667C224 240.2133333333334 228.6933333333334 244.6933333333334 234.0266666666667 248.1066666666667C239.1466666666667 251.3066666666667 245.3333333333333 252.8000000000001 253.44 253.0133333333334C258.3466666666667 252.8000000000001 262.8266666666667 251.9466666666667 266.6666666666667 250.24C271.1466666666667 248.32 274.9866666666667 245.3333333333334 277.9733333333333 242.5600000000001C280.96 239.36 283.3066666666666 235.5200000000001 285.2266666666667 231.2533333333334C287.1466666666667 226.9866666666668 288 222.2933333333334 288 217.6H326.4C325.9733333333334 227.6266666666667 324.0533333333334 236.8000000000001 320 245.3333333333334C316.8 253.4400000000001 311.8933333333333 260.6933333333334 305.4933333333334 266.6666666666668C298.6666666666667 272.6400000000001 291.4133333333333 277.3333333333334 282.4533333333333 280.7466666666668C273.4933333333334 284.1600000000001 263.68 285.6533333333334 252.8 285.6533333333334C238.9333333333333 285.6533333333334 226.7733333333333 283.3066666666668 216.5333333333333 278.4000000000001C206.2933333333333 273.4933333333334 197.76 266.6666666666668 190.9333333333333 258.7733333333335C184.1066666666667 250.4533333333334 178.9866666666667 240.8533333333334 175.7866666666667 229.7600000000001C172.5866666666667 218.6666666666668 170.6666666666667 207.1466666666667 170.6666666666667 194.7733333333334V189.0133333333334C170.6666666666667 176.6400000000001 172.3733333333334 165.1200000000001 175.5733333333334 154.0266666666668C178.7733333333334 142.9333333333334 183.8933333333334 133.3333333333334 190.72 125.2266666666668C197.5466666666667 117.3333333333334 206.0800000000001 110.5066666666668 216.32 105.8133333333335C226.56 101.1200000000001 238.7200000000001 98.5600000000001 252.5866666666667 98.5600000000001C262.6133333333334 98.5600000000001 272 100.2666666666668 280.7466666666667 103.4666666666668C289.4933333333334 106.6666666666668 297.1733333333333 111.1466666666668 303.7866666666667 117.3333333333335C310.4 122.6666666666668 315.7333333333334 129.2800000000002 320 136.9600000000002C323.4133333333333 144.6400000000001 325.76 152.7466666666668 325.9733333333333 161.4933333333335H288C288 157.0133333333334 286.5066666666667 152.9600000000002 284.5866666666667 149.3333333333335C282.6666666666667 145.2800000000002 280.1066666666667 142.0800000000002 277.3333333333333 139.3066666666668C273.7066666666667 136.5333333333334 270.08 134.4000000000001 265.8133333333334 132.9066666666668C261.76 131.4133333333334 257.4933333333334 130.9866666666668 253.0133333333334 130.7733333333334C245.3333333333334 130.9866666666668 238.9333333333334 132.4800000000001 234.0266666666667 135.6800000000001C228.6933333333334 138.6666666666668 224 143.5733333333334 221.44 149.3333333333335C218.4533333333333 154.2400000000001 216.1066666666667 160.6400000000001 215.04 167.6800000000001C213.9733333333333 174.7200000000002 213.3333333333333 181.9733333333335 213.3333333333333 189.0133333333334V194.7733333333334C213.3333333333333 202.6666666666668 213.9733333333333 209.2800000000001 215.04 216.3200000000001M256 405.3333333333333C138.24 405.3333333333333 42.6666666666667 309.76 42.6666666666667 192S138.24 -21.3333333333333 256 -21.3333333333333S469.3333333333333 74.24 469.3333333333333 192S373.76 405.3333333333333 256 405.3333333333333M256 21.3333333333334C161.92 21.3333333333334 85.3333333333333 97.92 85.3333333333333 192S161.92 362.6666666666667 256 362.6666666666667S426.6666666666667 286.0800000000001 426.6666666666667 192S350.08 21.3333333333334 256 21.3333333333334z" /></svg>