<?xml version="1.0" encoding="UTF-8"?><!DOCTYPE svg PUBLIC "-//W3C//DTD SVG 1.1//EN" "http://www.w3.org/Graphics/SVG/1.1/DTD/svg11.dtd"><svg xmlns="http://www.w3.org/2000/svg" xmlns:xlink="http://www.w3.org/1999/xlink" version="1.1" width="512" height="512" viewBox="0 0 512 512">    <path fill="#ffffff" transform="scale(1, -1) translate(0, -448)" glyph-name="language-ruby-on-rails" unicode="&#xFACE;" horiz-adv-x="512" d=" M422.4 91.7333333333334S460.8 96 460.8 142.9333333333334C460.8 189.8666666666667 416 196.2666666666667 416 196.2666666666667H334.9333333333333V42.6666666666667H375.4666666666666V78.9333333333333L411.7333333333333 42.6666666666667H469.3333333333333L422.4 91.7333333333334M405.3333333333333 121.6H373.3333333333333V155.7333333333334H405.3333333333333S413.8666666666666 151.4666666666667 413.8666666666666 138.6666666666667C416 125.8666666666667 405.3333333333333 121.6 405.3333333333333 121.6M454.4 273.0666666666667V268.8C281.6 317.8666666666667 213.3333333333333 166.4 226.1333333333334 49.0666666666667H91.7333333333333C106.6666666666667 164.2666666666667 251.7333333333334 392.5333333333334 454.4 273.0666666666667M437.3333333333333 300.8C422.4 307.2000000000001 407.4666666666667 313.6 392.5333333333333 317.8666666666667L394.6666666666667 345.6L439.4666666666667 328.5333333333334L437.3333333333333 300.8M394.6666666666667 262.4000000000001C409.6 262.4000000000001 424.5333333333333 260.2666666666667 439.4666666666667 256L437.3333333333333 230.4000000000001L398.9333333333333 234.6666666666667L394.6666666666667 262.4000000000001M296.5333333333333 324.2666666666667L288 349.8666666666667L332.8 354.1333333333334L341.3333333333333 326.4000000000001C337.0666666666667 326.4000000000001 300.8 324.2666666666667 296.5333333333333 324.2666666666667M324.2666666666667 245.3333333333334C332.8 249.6 347.7333333333334 256.0000000000001 366.9333333333334 260.2666666666667L375.4666666666667 234.6666666666667L337.0666666666667 219.7333333333334L324.2666666666667 245.3333333333334M251.7333333333334 309.3333333333334C238.9333333333334 302.9333333333334 226.1333333333334 296.5333333333334 213.3333333333333 288.0000000000001L196.2666666666667 315.7333333333334L234.6666666666667 337.0666666666667L251.7333333333334 309.3333333333334M305.0666666666667 232.5333333333334L322.1333333333334 206.9333333333334L298.6666666666667 179.2000000000001L275.2000000000001 200.5333333333334C281.6 213.3333333333334 292.2666666666667 224.0000000000001 305.0666666666667 232.5333333333334M247.4666666666667 128C249.6 145.0666666666667 253.8666666666667 160 260.2666666666667 177.0666666666667L285.8666666666666 155.7333333333334L279.4666666666666 115.2000000000001L247.4666666666666 128M168.5333333333333 249.6C157.8666666666667 238.9333333333334 147.2 226.1333333333334 138.6666666666667 215.4666666666667L110.9333333333333 238.9333333333334L142.9333333333333 273.0666666666667L168.5333333333333 249.6M102.4 155.7333333333334C93.8666666666667 138.6666666666666 87.4666666666667 121.6 81.0666666666667 106.6666666666667L42.6666666666667 121.6L61.8666666666667 170.6666666666667L102.4 155.7333333333334M245.3333333333333 100.2666666666667L283.7333333333334 87.4666666666666L290.1333333333334 44.8L247.4666666666667 55.4666666666666C247.4666666666667 59.7333333333333 245.3333333333334 74.6666666666666 245.3333333333334 100.2666666666667z" /></svg>