<?xml version="1.0" encoding="UTF-8"?><!DOCTYPE svg PUBLIC "-//W3C//DTD SVG 1.1//EN" "http://www.w3.org/Graphics/SVG/1.1/DTD/svg11.dtd"><svg xmlns="http://www.w3.org/2000/svg" xmlns:xlink="http://www.w3.org/1999/xlink" version="1.1" width="512" height="512" viewBox="0 0 512 512">    <path fill="#ffffff" transform="scale(1, -1) translate(0, -448)" glyph-name="disc-player" unicode="&#xF95F;" horiz-adv-x="512" d=" M309.3333333333333 226.7733333333334C331.52 226.7733333333334 349.44 244.6933333333334 349.44 266.6666666666667C349.44 288.8533333333334 331.52 306.56 309.3333333333333 306.56S269.44 288.8533333333334 269.44 266.6666666666667C269.44 244.6933333333334 287.36 226.7733333333333 309.3333333333333 226.7733333333333M309.3333333333333 426.6666666666667C397.6533333333333 426.6666666666667 469.3333333333333 354.9866666666667 469.3333333333333 266.6666666666667C469.3333333333333 220.3733333333333 449.7066666666666 178.5600000000001 418.1333333333334 149.3333333333334H200.5333333333333C169.1733333333333 178.56 149.3333333333333 220.3733333333333 149.3333333333333 266.6666666666667C149.3333333333333 355.2000000000001 221.0133333333333 426.6666666666667 309.3333333333333 426.6666666666667M128 0V-21.3333333333333H85.3333333333333V0H42.6666666666667V128H469.3333333333333V0H426.6666666666667V-21.3333333333333H384V0H128M85.3333333333333 64V42.6666666666667H277.3333333333333V64H85.3333333333333M320 85.3333333333334V42.6666666666667H362.6666666666667V85.3333333333334H320M405.3333333333333 85.3333333333334C393.6 85.3333333333334 384 75.7333333333334 384 64S393.6 42.6666666666667 405.3333333333333 42.6666666666667S426.6666666666667 52.2666666666667 426.6666666666667 64S417.0666666666667 85.3333333333334 405.3333333333333 85.3333333333334z" /></svg>