<?xml version="1.0" encoding="UTF-8"?><!DOCTYPE svg PUBLIC "-//W3C//DTD SVG 1.1//EN" "http://www.w3.org/Graphics/SVG/1.1/DTD/svg11.dtd"><svg xmlns="http://www.w3.org/2000/svg" xmlns:xlink="http://www.w3.org/1999/xlink" version="1.1" width="512" height="512" viewBox="0 0 512 512">    <path fill="#ffffff" transform="scale(1, -1) translate(0, -448)" glyph-name="file-lock" unicode="&#xF221;" horiz-adv-x="512" d=" M128 405.3333333333333C104.32 405.3333333333333 85.3333333333333 386.1333333333334 85.3333333333333 362.6666666666667V21.3333333333334C85.3333333333333 -2.1333333333333 104.5333333333333 -21.3333333333333 128 -21.3333333333333H384C407.4666666666667 -21.3333333333333 426.6666666666667 -2.1333333333333 426.6666666666667 21.3333333333334V277.3333333333334L298.6666666666667 405.3333333333333H128M277.3333333333333 373.3333333333334L394.6666666666667 256H277.3333333333333V373.3333333333334M256 213.3333333333334C291.4133333333333 213.3333333333334 320 184.7466666666667 320 149.3333333333334V128H341.3333333333333V42.6666666666667H170.6666666666667V128H192V149.3333333333334C192 184.3200000000001 220.5866666666667 213.3333333333334 256 213.3333333333334M256 170.6666666666667C244.2666666666667 170.6666666666667 234.6666666666667 161.0666666666667 234.6666666666667 149.3333333333334V128H277.3333333333333V149.3333333333334C277.3333333333333 160.64 267.7333333333334 170.6666666666667 256 170.6666666666667z" /></svg>