<?xml version="1.0" encoding="UTF-8"?><!DOCTYPE svg PUBLIC "-//W3C//DTD SVG 1.1//EN" "http://www.w3.org/Graphics/SVG/1.1/DTD/svg11.dtd"><svg xmlns="http://www.w3.org/2000/svg" xmlns:xlink="http://www.w3.org/1999/xlink" version="1.1" width="512" height="512" viewBox="0 0 512 512">    <path fill="#ffffff" transform="scale(1, -1) translate(0, -448)" glyph-name="account-multiple-minus" unicode="&#xF5D3;" horiz-adv-x="512" d=" M277.3333333333333 170.6666666666667C234.6666666666667 170.6666666666667 149.3333333333333 149.3333333333334 149.3333333333333 106.6666666666667V64H405.3333333333333V106.6666666666667C405.3333333333333 149.3333333333334 320 170.6666666666667 277.3333333333333 170.6666666666667M418.56 167.2533333333333C436.2666666666667 151.8933333333333 448 131.84 448 106.6666666666667V64H512V106.6666666666667C512 139.52 461.4399999999999 160 418.56 167.2533333333333M277.3333333333333 213.3333333333334C312.7466666666667 213.3333333333334 341.3333333333333 241.92 341.3333333333333 277.3333333333334S312.7466666666667 341.3333333333334 277.3333333333333 341.3333333333334S213.3333333333333 312.7466666666667 213.3333333333333 277.3333333333334S241.92 213.3333333333334 277.3333333333333 213.3333333333334M384 213.3333333333334C419.4133333333333 213.3333333333334 448 241.92 448 277.3333333333334S419.4133333333333 341.3333333333334 384 341.3333333333334C377.1733333333333 341.3333333333334 370.56 340.2666666666667 364.3733333333333 338.3466666666667C376.5333333333333 321.0666666666667 384 299.9466666666667 384 277.3333333333334C384 254.72 376.5333333333333 233.8133333333334 364.3733333333333 216.5333333333334C370.56 214.4 377.1733333333333 213.3333333333334 384 213.3333333333334M170.6666666666667 234.6666666666667H0V192H170.6666666666667V234.6666666666667z" /></svg>