<?xml version="1.0" encoding="UTF-8"?><!DOCTYPE svg PUBLIC "-//W3C//DTD SVG 1.1//EN" "http://www.w3.org/Graphics/SVG/1.1/DTD/svg11.dtd"><svg xmlns="http://www.w3.org/2000/svg" xmlns:xlink="http://www.w3.org/1999/xlink" version="1.1" width="512" height="512" viewBox="0 0 512 512">    <path fill="#ffffff" transform="scale(1, -1) translate(0, -448)" glyph-name="kodi" unicode="&#xF314;" horiz-adv-x="512" d=" M256.64 426.6666666666667C252.16 426.6666666666667 247.4666666666667 424.32 243.4133333333334 420.0533333333334L189.44 366.0800000000001C184.7466666666667 361.3866666666667 183.4666666666667 358.8266666666667 178.7733333333334 354.56C172.5866666666667 349.44 169.8133333333333 343.2533333333334 170.0266666666667 335.36C170.6666666666667 307.8400000000001 170.6666666666667 280.7466666666667 170.6666666666667 253.2266666666667V167.2533333333333C170.6666666666667 165.12 170.6666666666667 163.4133333333334 171.3066666666667 161.28C173.0133333333333 154.6666666666667 177.28 153.1733333333334 181.9733333333333 158.0800000000001C207.5733333333333 183.68 230.4 206.9333333333333 256 232.7466666666667C285.0133333333333 261.76 314.24 290.7733333333334 343.2533333333334 320C352 328.5333333333334 352 338.1333333333334 343.2533333333334 346.6666666666667C318.72 371.2 293.76 395.3066666666667 269.44 420.0533333333334C265.1733333333333 424.32 261.12 426.6666666666667 256.64 426.6666666666667M398.08 284.5866666666667C393.6 284.5866666666667 389.3333333333333 282.6666666666667 385.28 278.6133333333334C360.7466666666667 253.8666666666667 336 229.5466666666667 311.2533333333333 204.5866666666667C302.9333333333333 196.2666666666667 302.9333333333333 187.0933333333334 311.2533333333333 178.56C335.7866666666667 154.0266666666667 360.1066666666667 129.28 384.64 104.7466666666667C393.1733333333333 96 402.1333333333333 96 410.6666666666666 104.7466666666667C434.3466666666666 128 458.6666666666666 152.1066666666667 481.9199999999999 176C485.5466666666666 179.6266666666667 489.1733333333332 183.04 490.6666666666666 187.9466666666667V194.56C489.1733333333332 199.68 485.5466666666666 202.6666666666667 481.9199999999999 206.72C458.0266666666665 230.6133333333334 434.56 254.7200000000001 410.6666666666666 278.6133333333334C406.6133333333333 282.6666666666668 402.3466666666666 284.5866666666667 398.08 284.5866666666667M101.9733333333333 275.4133333333334C99.1999999999999 276.4800000000001 97.7066666666666 274.3466666666667 95.9999999999999 272.6400000000001C71.4666666666666 247.6800000000001 49.9199999999999 225.4933333333334 25.3866666666666 200.7466666666667C19.8399999999999 194.9866666666667 19.8399999999999 186.88 25.3866666666666 181.3333333333334C38.6133333333332 167.8933333333333 52.0533333333332 154.6666666666667 65.2799999999999 141.2266666666667C76.7999999999999 129.7066666666667 85.3333333333332 120.96 97.2799999999999 109.2266666666667C100.6933333333332 106.0266666666668 103.6799999999999 106.6666666666667 105.3866666666666 110.72C106.6666666666665 112.8533333333334 106.6666666666665 115.6266666666667 106.6666666666665 117.9733333333334V187.9466666666667V263.8933333333334C106.6666666666665 265.6 106.6666666666665 267.7333333333334 106.0266666666665 269.2266666666667C105.5999999999999 272.0000000000001 104.5333333333332 274.3466666666667 101.9733333333332 275.4133333333334M257.9199999999999 144C253.6533333333332 144 248.7466666666665 142.0800000000001 244.6933333333332 138.0266666666667C220.1599999999999 113.28 195.8399999999998 88.1066666666667 171.3066666666665 63.36C162.7733333333332 54.8266666666667 162.7733333333332 45.8666666666667 171.3066666666665 37.3333333333334C194.9866666666665 13.44 218.8799999999999 -10.0266666666666 242.7733333333332 -33.92C246.1866666666666 -37.5466666666667 249.8133333333332 -41.1733333333333 254.7199999999999 -42.6666666666666H260.6933333333332C265.3866666666666 -41.3866666666667 269.2266666666665 -38.1866666666666 272.6399999999999 -34.7733333333333C296.5333333333332 -10.6666666666666 320.6399999999999 13.2266666666667 344.7466666666665 37.3333333333334C353.0666666666665 45.8666666666667 351.9999999999999 55.4666666666667 344.1066666666665 64C319.3599999999998 88.7466666666667 295.2533333333332 113.28 270.7199999999998 138.0266666666667C266.6666666666665 142.0800000000001 262.3999999999998 144 257.9199999999999 144z" /></svg>