<?xml version="1.0" encoding="UTF-8"?><!DOCTYPE svg PUBLIC "-//W3C//DTD SVG 1.1//EN" "http://www.w3.org/Graphics/SVG/1.1/DTD/svg11.dtd"><svg xmlns="http://www.w3.org/2000/svg" xmlns:xlink="http://www.w3.org/1999/xlink" version="1.1" width="512" height="512" viewBox="0 0 512 512">    <path fill="#ffffff" transform="scale(1, -1) translate(0, -448)" glyph-name="shopify" unicode="&#xFADD;" horiz-adv-x="512" d=" M397.0133333333333 322.3466666666667C396.8 324.48 394.6666666666667 325.76 393.3866666666666 325.76C391.8933333333333 325.9733333333334 359.04 328.3200000000001 359.04 328.3200000000001S336.2133333333333 350.9333333333334 333.8666666666666 353.4933333333334C331.3066666666666 356.0533333333334 326.4 355.2000000000001 324.48 354.7733333333333C324.2666666666667 354.7733333333333 320 353.28 311.68 350.9333333333334C304 373.3333333333334 290.56 392.96 265.1733333333333 392.96C258.3466666666667 401.4933333333334 250.0266666666667 405.3333333333333 242.7733333333333 405.3333333333333C187.7333333333333 405.3333333333333 161.4933333333333 336.64 153.1733333333333 301.6533333333333L114.56 289.7066666666667C102.8266666666667 285.8666666666667 102.4 285.44 100.9066666666667 274.3466666666667C99.6266666666667 265.8133333333334 68.48 24.3200000000001 68.48 24.3200000000001L311.68 -21.3333333333333L443.52 7.2533333333333S397.2266666666667 320 397.0133333333333 322.3466666666667M298.6666666666667 346.4533333333334C292.0533333333333 344.5333333333334 285.2266666666667 342.4 277.3333333333333 340.0533333333334V344.5333333333334C277.3333333333333 358.1866666666667 275.84 369.0666666666667 272.8533333333333 377.8133333333334C284.8 376.3200000000001 292.9066666666667 362.6666666666667 298.6666666666667 346.4533333333334M257.7066666666667 375.04C261.12 366.5066666666667 263.2533333333334 354.3466666666667 263.2533333333334 337.92V335.5733333333333C249.8133333333333 331.52 235.3066666666667 326.8266666666667 220.8 322.3466666666667C228.9066666666667 354.1333333333334 244.2666666666667 369.28 257.7066666666667 375.04M241.28 390.6133333333334C243.6266666666667 390.6133333333334 245.9733333333334 389.76 248.32 388.2666666666667C230.6133333333334 379.9466666666667 211.84 359.04 203.7333333333334 317.44C192 313.6 180.6933333333333 310.1866666666667 170.6666666666667 306.7733333333333C179.6266666666667 338.7733333333333 201.8133333333333 390.6133333333334 241.28 390.6133333333334M266.6666666666667 252.8L250.88 204.3733333333333S236.5866666666667 212.0533333333334 219.0933333333333 212.0533333333334C193.4933333333334 212.0533333333334 192 196.0533333333334 192 192C192 169.8133333333334 249.8133333333334 161.4933333333334 249.8133333333334 109.6533333333334C249.8133333333334 68.9066666666667 224 42.6666666666667 189.2266666666667 42.6666666666667C147.4133333333334 42.6666666666667 126.08 68.6933333333333 126.08 68.6933333333333L137.1733333333334 105.6S159.1466666666667 86.8266666666667 177.7066666666667 86.8266666666667C189.8666666666667 86.8266666666667 194.7733333333334 96 194.7733333333334 103.2533333333333C194.7733333333334 132.0533333333334 147.6266666666667 133.3333333333334 147.6266666666667 180.6933333333333C147.6266666666667 220.5866666666667 176.2133333333334 259.2 234.0266666666667 259.2C256 259.2 266.6666666666667 252.8 266.6666666666667 252.8M329.1733333333334 335.1466666666667L357.3333333333333 307.2L377.8133333333334 305.4933333333333C385.0666666666667 256 409.3866666666667 91.0933333333333 419.4133333333333 23.8933333333333L312.7466666666667 0.64L329.1733333333333 335.1466666666667z" /></svg>