<?xml version="1.0" encoding="UTF-8"?><!DOCTYPE svg PUBLIC "-//W3C//DTD SVG 1.1//EN" "http://www.w3.org/Graphics/SVG/1.1/DTD/svg11.dtd"><svg xmlns="http://www.w3.org/2000/svg" xmlns:xlink="http://www.w3.org/1999/xlink" version="1.1" width="512" height="512" viewBox="0 0 512 512">    <path fill="#ffffff" transform="scale(1, -1) translate(0, -448)" glyph-name="windows-classic" unicode="&#xFA20;" horiz-adv-x="512" d=" M56.96 334.9333333333334V321.92L41.8133333333333 315.52V328.5333333333334L56.96 334.9333333333334M56.96 208.2133333333334V194.9866666666667L41.8133333333333 188.8000000000001V201.3866666666667L56.96 208.2133333333334M56.96 79.5733333333334V66.3466666666667L41.8133333333333 60.16V72.7466666666667L56.96 79.5733333333334M55.4666666666667 292.48V280.7466666666667L43.3066666666667 275.2000000000001V286.7200000000001L55.4666666666667 292.48M55.4666666666667 250.0266666666667V238.5066666666667L43.3066666666667 232.96V244.48L55.4666666666667 250.0266666666667M55.4666666666667 164.0533333333334V152.7466666666667L43.3066666666667 147.2000000000001V158.72L55.4666666666667 164.0533333333334M55.4666666666667 120.96V109.4400000000001L43.3066666666667 103.8933333333334V115.2000000000001L55.4666666666667 120.96M96 327.68V312.32L74.6666666666667 304.4266666666667V320L96 327.68M96 199.2533333333333V184.1066666666667L74.6666666666667 176.2133333333334V191.36L96 199.2533333333333M96 70.4V55.2533333333333L74.6666666666667 46.72V61.8666666666667L96 70.4M94.5066666666667 283.3066666666666V269.2266666666667L77.6533333333333 262.8266666666666V277.3333333333334L94.5066666666667 283.3066666666667M94.5066666666667 240.4266666666667V226.7733333333333L77.8666666666667 220.3733333333333V234.6666666666667L94.5066666666667 240.4266666666667M94.5066666666667 154.88V141.2266666666667L77.8666666666667 134.6133333333334V148.6933333333333L94.5066666666667 154.88M94.5066666666667 111.7866666666666V97.92L77.8666666666667 91.3066666666667V105.3866666666667L94.5066666666667 111.7866666666668M134.6133333333333 318.0800000000001V299.9466666666667L107.7333333333333 289.4933333333334V307.4133333333334L134.6133333333333 318.0800000000001M134.6133333333333 189.6533333333334V171.5200000000001L107.7333333333333 161.0666666666667V178.9866666666667L134.6133333333333 189.6533333333334M134.6133333333333 62.2933333333334V44.16L107.7333333333333 33.4933333333333V51.6266666666667L134.6133333333333 62.2933333333334M133.3333333333333 273.4933333333334V257.2800000000001L110.72 248.7466666666668V264.3200000000001L133.3333333333333 273.4933333333334M133.3333333333333 230.8266666666667V214.8266666666667L110.72 205.8666666666667V221.8666666666667L133.3333333333333 230.8266666666667M133.3333333333333 145.2800000000001V129.2800000000001L110.72 120.1066666666668V136.1066666666668L133.3333333333333 145.2800000000001M133.3333333333333 103.6800000000001V87.4666666666667L110.72 78.5066666666667V94.5066666666667L133.3333333333333 103.68M176.8533333333333 319.1466666666667V295.2533333333334L143.36 282.0266666666667V305.7066666666667L176.8533333333333 319.1466666666667M176.8533333333333 190.72V166.6133333333334L143.36 153.6000000000001V177.4933333333335L176.8533333333333 190.7200000000001M176.8533333333333 63.3600000000001V39.4666666666667L143.36 26.24V49.92L176.8533333333333 63.36M174.9333333333333 274.56V252.5866666666667L146.9866666666666 241.2800000000001V263.2533333333334L174.9333333333333 274.56M174.9333333333333 231.8933333333333V210.1333333333333L146.9866666666666 198.8266666666667V220.8L174.9333333333333 231.8933333333333M174.9333333333333 146.1333333333333V124.16L146.9866666666666 113.0666666666667V135.04L174.9333333333333 146.1333333333333M174.9333333333333 104.5333333333333V82.7733333333333L146.9866666666666 71.68V93.2266666666667L174.9333333333333 104.5333333333334M220.5866666666667 323.2000000000001V291.8400000000001L183.68 277.3333333333334V308.0533333333334L220.5866666666667 323.2000000000001M220.5866666666667 194.7733333333334V163.6266666666667L183.68 148.6933333333334V180.0533333333334L220.5866666666667 194.7733333333334M220.5866666666667 67.4133333333334V36.2666666666668L183.68 21.3333333333334V52.4800000000001L220.5866666666667 67.4133333333334M218.88 276.2666666666668V250.0266666666668L187.3066666666667 237.4400000000001V263.68L218.88 276.2666666666667M218.88 235.3066666666667V209.0666666666667L187.3066666666667 196.6933333333333V222.72L218.88 235.3066666666667M218.88 148.0533333333334V121.3866666666667L187.3066666666667 109.2266666666667V135.4666666666667L218.88 148.0533333333334M218.88 106.6666666666667V80L187.3066666666667 67.4133333333334V93.8666666666667L218.88 106.6666666666667M265.6 338.7733333333334V296.1066666666667L225.92 279.6800000000001V320C239.5733333333333 327.4666666666667 252.8 333.8666666666667 265.6 338.7733333333333M265.6 291.6266666666667V254.72L225.92 238.08V275.2000000000001L265.6 291.6266666666667M265.6 250.0266666666667V212.48L225.92 195.84V233.3866666666667L265.6 250.0266666666667M265.6 208V170.6666666666667L225.92 154.24V192L265.6 208M265.6 166.1866666666667V128L225.92 111.36V149.3333333333334L265.6 166.1866666666667M265.6 123.52V86.1866666666667L225.92 69.12V106.6666666666667L265.6 123.52M265.6 81.7066666666667V41.8133333333333C250.0266666666667 35.8399999999999 236.8 30.0799999999999 225.92 24.7466666666666V64.8533333333332L265.6 81.7066666666666M470.1866666666666 337.4933333333333V37.7599999999999C444.8 54.6133333333332 413.2266666666666 62.9333333333333 375.2533333333334 62.9333333333333C343.8933333333333 62.9333333333333 308.6933333333333 56.5333333333333 269.8666666666666 43.5199999999999V84.0533333333332C290.56 91.9466666666666 313.1733333333333 97.7066666666666 337.92 101.1199999999999V198.6133333333332C317.0133333333333 196.0533333333333 294.3999999999999 188.7999999999999 269.8666666666666 176.8533333333333V204.8C290.9866666666666 214.6133333333334 313.8133333333333 221.2266666666667 337.92 224.8533333333333V320C316.16 316.1600000000001 293.5466666666666 308.6933333333334 269.8666666666666 298.6666666666667V340.6933333333334C304.4266666666666 355.4133333333334 338.3466666666667 362.6666666666667 371.4133333333333 362.6666666666667C407.2533333333334 362.6666666666667 440.1066666666667 354.3466666666667 470.1866666666666 337.4933333333334M429.8666666666666 311.2533333333334C413.6533333333333 320 394.6666666666667 323.8400000000001 371.6266666666666 323.8400000000001C368.8533333333333 323.8400000000001 366.2933333333333 323.6266666666667 363.7333333333333 323.4133333333334V226.5600000000001L372.4799999999999 226.7733333333334C391.8933333333333 226.7733333333334 411.0933333333333 224 429.8666666666666 217.6V311.2533333333334M429.8666666666666 189.8666666666667C412.5866666666667 197.5466666666666 393.1733333333333 201.3866666666666 372.0533333333333 201.3866666666666C369.28 201.3866666666666 366.5066666666666 201.1733333333333 363.7333333333333 200.96V103.2533333333333H372.4799999999999C393.5999999999999 103.2533333333333 412.8 100.6933333333333 429.8666666666666 95.3599999999999V189.8666666666667z" /></svg>