<?xml version="1.0" encoding="UTF-8"?><!DOCTYPE svg PUBLIC "-//W3C//DTD SVG 1.1//EN" "http://www.w3.org/Graphics/SVG/1.1/DTD/svg11.dtd"><svg xmlns="http://www.w3.org/2000/svg" xmlns:xlink="http://www.w3.org/1999/xlink" version="1.1" width="512" height="512" viewBox="0 0 512 512">    <path fill="#ffffff" transform="scale(1, -1) translate(0, -448)" glyph-name="xing-box" unicode="&#xF5BE;" horiz-adv-x="512" d=" M102.4 384C81.0666666666667 384 64 366.9333333333334 64 345.6V38.4C64 17.0666666666667 81.0666666666667 0 102.4 0H409.6C430.9333333333333 0 448 17.0666666666667 448 38.4V345.6C448 366.9333333333334 430.9333333333333 384 409.6 384M342.8266666666667 341.3333333333334H386.3466666666667C388.9066666666667 341.3333333333334 391.04 340.48 391.8933333333333 338.56C393.1733333333333 336.64 393.1733333333333 334.2933333333334 391.8933333333333 331.9466666666667L296.5333333333334 162.9866666666667L357.3333333333334 52.0533333333334C358.6133333333334 49.7066666666667 358.6133333333334 47.3600000000001 357.3333333333334 45.4400000000001C356.2666666666667 43.7333333333335 354.3466666666667 42.6666666666667 352.0000000000001 42.6666666666667H308.6933333333334C302.0800000000001 42.6666666666667 298.6666666666668 47.1466666666668 296.7466666666668 50.9866666666668L235.5200000000001 163.2000000000001L331.3066666666668 333.0133333333335C333.6533333333334 337.2800000000001 336.4266666666668 341.3333333333335 342.8266666666667 341.3333333333335M151.2533333333333 282.4533333333334H194.1333333333333C200.7466666666667 282.4533333333334 204.16 278.1866666666667 206.2933333333333 274.1333333333334L235.9466666666667 222.5066666666667C234.0266666666667 219.52 189.44 140.3733333333333 189.44 140.3733333333333C187.0933333333334 136.3200000000001 184.1066666666667 132.0533333333334 177.4933333333334 132.0533333333334H134.4C131.84 132.0533333333334 129.92 133.12 128.8533333333333 135.04C128 136.7466666666667 128 139.3066666666667 128.8533333333333 141.6533333333334L174.5066666666667 222.5066666666667L145.4933333333334 273.0666666666667C144.4266666666667 275.4133333333334 144 277.3333333333334 145.28 279.68C146.3466666666667 281.3866666666667 148.48 282.4533333333334 151.2533333333333 282.4533333333334z" /></svg>