<?xml version="1.0" encoding="UTF-8"?><!DOCTYPE svg PUBLIC "-//W3C//DTD SVG 1.1//EN" "http://www.w3.org/Graphics/SVG/1.1/DTD/svg11.dtd"><svg xmlns="http://www.w3.org/2000/svg" xmlns:xlink="http://www.w3.org/1999/xlink" version="1.1" width="512" height="512" viewBox="0 0 512 512">    <path fill="#ffffff" transform="scale(1, -1) translate(0, -448)" glyph-name="language-python-text" unicode="&#xF321;" horiz-adv-x="512" d=" M42.6666666666667 326.6133333333334C190.2933333333333 425.1733333333334 236.8 298.6666666666667 240.64 228.9066666666667C244.48 159.36 176.8533333333333 71.68 91.9466666666667 129.7066666666667V14.9333333333333L42.6666666666667 47.5733333333334V326.6133333333334M90.0266666666667 290.1333333333334V175.36C167.2533333333333 129.0666666666667 193.7066666666667 167.04 193.7066666666667 232.7466666666667C193.7066666666667 325.5466666666666 140.16 328.7466666666667 90.0266666666667 290.1333333333334M321.7066666666666 359.4666666666667S317.8666666666666 285.0133333333333 321.7066666666666 211.84C329.3866666666666 138.6666666666666 420.0533333333333 195.4133333333333 420.0533333333333 195.4133333333333V343.04L469.3333333333333 337.0666666666667V139.9466666666667C469.3333333333333 8.5333333333333 338.1333333333334 14.9333333333333 338.1333333333334 14.9333333333333L321.7066666666667 64C436.48 64 421.9733333333334 140.16 421.9733333333334 140.16C283.0933333333334 85.9733333333334 272.4266666666667 178.9866666666667 272.4266666666667 178.9866666666667V326.6133333333334L321.7066666666667 359.4666666666667z" /></svg>