<?xml version="1.0" encoding="UTF-8"?><!DOCTYPE svg PUBLIC "-//W3C//DTD SVG 1.1//EN" "http://www.w3.org/Graphics/SVG/1.1/DTD/svg11.dtd"><svg xmlns="http://www.w3.org/2000/svg" xmlns:xlink="http://www.w3.org/1999/xlink" version="1.1" width="512" height="512" viewBox="0 0 512 512">    <path fill="#ffffff" transform="scale(1, -1) translate(0, -448)" glyph-name="account-key" unicode="&#xF00B;" horiz-adv-x="512" d=" M234.6666666666667 234.6666666666667V192H213.3333333333333V149.3333333333334H170.6666666666667V192H124.3733333333333C115.6266666666667 167.04 91.9466666666667 149.3333333333334 64 149.3333333333334C28.5866666666667 149.3333333333334 0 177.92 0 213.3333333333334S28.5866666666667 277.3333333333334 64 277.3333333333334C91.9466666666667 277.3333333333334 115.6266666666667 259.6266666666667 124.3733333333333 234.6666666666667H234.6666666666667M64 234.6666666666667C52.2666666666667 234.6666666666667 42.6666666666667 225.0666666666667 42.6666666666667 213.3333333333334S52.2666666666667 192 64 192S85.3333333333333 201.6 85.3333333333333 213.3333333333334S75.7333333333333 234.6666666666667 64 234.6666666666667M341.3333333333333 149.3333333333334C398.2933333333334 149.3333333333334 512 120.7466666666667 512 64V21.3333333333334H170.6666666666667V64C170.6666666666667 120.7466666666667 284.3733333333334 149.3333333333334 341.3333333333333 149.3333333333334M341.3333333333333 192C294.1866666666666 192 256 230.1866666666667 256 277.3333333333334S294.1866666666666 362.6666666666667 341.3333333333333 362.6666666666667S426.6666666666667 324.48 426.6666666666667 277.3333333333334S388.48 192 341.3333333333333 192z" /></svg>