<?xml version="1.0" encoding="UTF-8"?><!DOCTYPE svg PUBLIC "-//W3C//DTD SVG 1.1//EN" "http://www.w3.org/Graphics/SVG/1.1/DTD/svg11.dtd"><svg xmlns="http://www.w3.org/2000/svg" xmlns:xlink="http://www.w3.org/1999/xlink" version="1.1" width="512" height="512" viewBox="0 0 512 512">    <path fill="#ffffff" transform="scale(1, -1) translate(0, -448)" glyph-name="clock-fast" unicode="&#xF152;" horiz-adv-x="512" d=" M320 362.6666666666667C414.2933333333334 362.6666666666667 490.6666666666666 286.2933333333334 490.6666666666666 192S414.2933333333334 21.3333333333334 320 21.3333333333334S149.3333333333333 97.7066666666667 149.3333333333333 192S225.7066666666667 362.6666666666667 320 362.6666666666667M320 320C249.3866666666667 320 192 262.6133333333334 192 192S249.3866666666667 64 320 64S448 121.3866666666667 448 192S390.6133333333333 320 320 320M298.6666666666667 277.3333333333334H330.6666666666667V196.6933333333334L380.3733333333333 146.9866666666667L357.76 124.3733333333333L298.6666666666667 183.4666666666667V277.3333333333334M42.6666666666667 64C30.9333333333333 64 21.3333333333333 73.6 21.3333333333333 85.3333333333334S30.9333333333333 106.6666666666667 42.6666666666667 106.6666666666667H124.3733333333333C130.9866666666667 91.52 139.52 77.2266666666667 149.3333333333333 64H42.6666666666667M64 170.6666666666667C52.2666666666667 170.6666666666667 42.6666666666667 180.2666666666667 42.6666666666667 192S52.2666666666667 213.3333333333334 64 213.3333333333334H107.7333333333333L106.6666666666667 192L107.7333333333333 170.6666666666667H64M85.3333333333333 277.3333333333334C73.6 277.3333333333334 64 286.9333333333334 64 298.6666666666667S73.6 320 85.3333333333333 320H149.3333333333333C139.52 306.7733333333333 130.9866666666667 292.48 124.3733333333333 277.3333333333334H85.3333333333333z" /></svg>