<?xml version="1.0" encoding="UTF-8"?><!DOCTYPE svg PUBLIC "-//W3C//DTD SVG 1.1//EN" "http://www.w3.org/Graphics/SVG/1.1/DTD/svg11.dtd"><svg xmlns="http://www.w3.org/2000/svg" xmlns:xlink="http://www.w3.org/1999/xlink" version="1.1" width="512" height="512" viewBox="0 0 512 512">    <path fill="#ffffff" transform="scale(1, -1) translate(0, -448)" glyph-name="map-legend" unicode="&#xFA00;" horiz-adv-x="512" d=" M192 384L71.68 343.4666666666667C67.2 341.9733333333334 64 338.1333333333334 64 333.2266666666667V10.6666666666667C64 4.6933333333333 68.6933333333333 0 74.6666666666667 0L78.08 0.64L192 44.8000000000001L320 0L440.32 40.5333333333333C444.8 42.0266666666666 448 45.8666666666667 448 50.7733333333333V373.3333333333334C448 379.3066666666667 443.3066666666667 384 437.3333333333333 384L433.92 383.36L320 339.2000000000001L192 384M170.6666666666667 331.7333333333334V82.1333333333334L106.6666666666667 57.3866666666667V310.1866666666667L170.6666666666667 331.7333333333334M213.3333333333333 331.3066666666667L298.6666666666667 301.4400000000001V52.6933333333333L213.3333333333333 82.56V331.3066666666667M405.3333333333333 326.4V73.8133333333334L341.3333333333333 52.2666666666667V301.6533333333333L405.3333333333333 326.4M159.1466666666667 313.6L118.8266666666667 299.3066666666667V253.4400000000001L159.1466666666667 267.7333333333334V313.6M159.1466666666667 254.9333333333334L118.8266666666667 240.64V194.7733333333333L159.1466666666667 209.0666666666667V254.9333333333334M159.1466666666667 196.2666666666667L118.8266666666667 181.9733333333334V136.1066666666667L159.1466666666667 150.4V196.2666666666667M159.1466666666667 137.6L118.8266666666667 123.3066666666667V77.44L159.1466666666667 91.7333333333334V137.6z" /></svg>