<?xml version="1.0" encoding="UTF-8"?><!DOCTYPE svg PUBLIC "-//W3C//DTD SVG 1.1//EN" "http://www.w3.org/Graphics/SVG/1.1/DTD/svg11.dtd"><svg xmlns="http://www.w3.org/2000/svg" xmlns:xlink="http://www.w3.org/1999/xlink" version="1.1" width="512" height="512" viewBox="0 0 512 512">    <path fill="#ffffff" transform="scale(1, -1) translate(0, -448)" glyph-name="apple-keyboard-command" unicode="&#xF633;" horiz-adv-x="512" d=" M128 405.3333333333333C175.1466666666667 405.3333333333333 213.3333333333333 367.1466666666667 213.3333333333333 320V277.3333333333334H298.6666666666667V320C298.6666666666667 367.1466666666667 336.8533333333333 405.3333333333333 384 405.3333333333333S469.3333333333333 367.1466666666667 469.3333333333333 320S431.1466666666667 234.6666666666667 384 234.6666666666667H341.3333333333333V149.3333333333334H384C431.1466666666667 149.3333333333334 469.3333333333333 111.1466666666667 469.3333333333333 64S431.1466666666667 -21.3333333333333 384 -21.3333333333333S298.6666666666667 16.8533333333334 298.6666666666667 64V106.6666666666667H213.3333333333333V64C213.3333333333333 16.8533333333334 175.1466666666667 -21.3333333333333 128 -21.3333333333333S42.6666666666667 16.8533333333334 42.6666666666667 64S80.8533333333333 149.3333333333334 128 149.3333333333334H170.6666666666667V234.6666666666667H128C80.8533333333333 234.6666666666667 42.6666666666667 272.8533333333334 42.6666666666667 320S80.8533333333333 405.3333333333333 128 405.3333333333333M341.3333333333333 64C341.3333333333333 40.5333333333333 360.5333333333333 21.3333333333334 384 21.3333333333334S426.6666666666667 40.5333333333333 426.6666666666667 64S407.4666666666667 106.6666666666667 384 106.6666666666667H341.3333333333333V64M298.6666666666667 234.6666666666667H213.3333333333333V149.3333333333334H298.6666666666667V234.6666666666667M128 106.6666666666667C104.5333333333333 106.6666666666667 85.3333333333333 87.4666666666667 85.3333333333333 64S104.5333333333333 21.3333333333334 128 21.3333333333334S170.6666666666667 40.5333333333333 170.6666666666667 64V106.6666666666667H128M170.6666666666667 320C170.6666666666667 343.4666666666667 151.4666666666667 362.6666666666667 128 362.6666666666667S85.3333333333333 343.4666666666667 85.3333333333333 320S104.5333333333333 277.3333333333334 128 277.3333333333334H170.6666666666667V320M384 277.3333333333334C407.4666666666667 277.3333333333334 426.6666666666667 296.5333333333334 426.6666666666667 320S407.4666666666667 362.6666666666667 384 362.6666666666667S341.3333333333333 343.4666666666667 341.3333333333333 320V277.3333333333334H384z" /></svg>