<?xml version="1.0" encoding="UTF-8"?><!DOCTYPE svg PUBLIC "-//W3C//DTD SVG 1.1//EN" "http://www.w3.org/Graphics/SVG/1.1/DTD/svg11.dtd"><svg xmlns="http://www.w3.org/2000/svg" xmlns:xlink="http://www.w3.org/1999/xlink" version="1.1" width="512" height="512" viewBox="0 0 512 512">    <path fill="#ffffff" transform="scale(1, -1) translate(0, -448)" glyph-name="screw-machine-round-top" unicode="&#xFE56;" horiz-adv-x="512" d=" M309.3333333333333 292.2666666666667L288 277.3333333333334V298.6666666666667H224V234.6666666666667L202.6666666666667 219.7333333333334V198.4L309.3333333333333 268.8000000000001V292.2666666666667M309.3333333333333 206.9333333333333L288 192V234.6666666666667L224 192V149.3333333333334L202.6666666666667 134.4V113.0666666666667L309.3333333333333 183.4666666666667V206.9333333333334M309.3333333333333 121.6L288 106.6666666666667V149.3333333333334L224 106.6666666666667V64L202.6666666666667 49.0666666666667V27.7333333333334L309.3333333333333 98.1333333333334V121.6M149.3333333333333 320H362.6666666666667S341.3333333333333 384 256 384S149.3333333333333 320 149.3333333333333 320M288 64V0H224V21.3333333333334L288 64z" /></svg>