<?xml version="1.0" encoding="UTF-8"?><!DOCTYPE svg PUBLIC "-//W3C//DTD SVG 1.1//EN" "http://www.w3.org/Graphics/SVG/1.1/DTD/svg11.dtd"><svg xmlns="http://www.w3.org/2000/svg" xmlns:xlink="http://www.w3.org/1999/xlink" version="1.1" width="512" height="512" viewBox="0 0 512 512">    <path fill="#ffffff" transform="scale(1, -1) translate(0, -448)" glyph-name="folder-google-drive" unicode="&#xF24E;" horiz-adv-x="512" d=" M293.3333333333333 256H344.32L405.3333333333333 149.3333333333334H342.4L288 246.1866666666667M390.4 85.3333333333334H272L301.8666666666667 138.6666666666667H411.0933333333333L416.64 128.8533333333334M245.3333333333333 85.3333333333334L221.8666666666667 130.9866666666667L282.4533333333333 236.8000000000001L314.4533333333333 180.0533333333334L261.3333333333333 85.3333333333334M426.6666666666667 320H256L213.3333333333333 362.6666666666667H85.3333333333333C61.6533333333333 362.6666666666667 42.6666666666667 343.68 42.6666666666667 320V64C42.6666666666667 40.5333333333333 61.8666666666667 21.3333333333334 85.3333333333333 21.3333333333334H426.6666666666667C450.1333333333334 21.3333333333334 469.3333333333333 40.5333333333333 469.3333333333333 64V277.3333333333334C469.3333333333333 301.0133333333333 450.1333333333334 320 426.6666666666667 320z" /></svg>