<?xml version="1.0" encoding="UTF-8"?><!DOCTYPE svg PUBLIC "-//W3C//DTD SVG 1.1//EN" "http://www.w3.org/Graphics/SVG/1.1/DTD/svg11.dtd"><svg xmlns="http://www.w3.org/2000/svg" xmlns:xlink="http://www.w3.org/1999/xlink" version="1.1" width="512" height="512" viewBox="0 0 512 512">    <path fill="#ffffff" transform="scale(1, -1) translate(0, -448)" glyph-name="contacts" unicode="&#xF6CA;" horiz-adv-x="512" d=" M426.6666666666667 448H85.3333333333333V405.3333333333333H426.6666666666667V448M85.3333333333333 -64H426.6666666666667V-21.3333333333333H85.3333333333333V-64M426.6666666666667 362.6666666666667H85.3333333333333C61.8666666666667 362.6666666666667 42.6666666666667 343.4666666666667 42.6666666666667 320V64C42.6666666666667 40.5333333333333 61.8666666666667 21.3333333333334 85.3333333333333 21.3333333333334H426.6666666666667C450.1333333333334 21.3333333333334 469.3333333333333 40.5333333333333 469.3333333333333 64V320C469.3333333333333 343.4666666666667 450.1333333333334 362.6666666666667 426.6666666666667 362.6666666666667M256 304C282.4533333333333 304 304 282.4533333333334 304 256S282.4533333333333 208 256 208S208 229.5466666666667 208 256S229.5466666666667 304 256 304M362.6666666666667 85.3333333333334H149.3333333333333V117.3333333333334C149.3333333333333 152.96 220.3733333333333 170.6666666666667 256 170.6666666666667S362.6666666666667 152.96 362.6666666666667 117.3333333333334V85.3333333333334z" /></svg>