<?xml version="1.0" encoding="UTF-8"?><!DOCTYPE svg PUBLIC "-//W3C//DTD SVG 1.1//EN" "http://www.w3.org/Graphics/SVG/1.1/DTD/svg11.dtd"><svg xmlns="http://www.w3.org/2000/svg" xmlns:xlink="http://www.w3.org/1999/xlink" version="1.1" width="512" height="512" viewBox="0 0 512 512">    <path fill="#ffffff" transform="scale(1, -1) translate(0, -448)" glyph-name="cellphone-message" unicode="&#xF8D2;" horiz-adv-x="512" d=" M234.6666666666667 85.3333333333334V298.6666666666667H85.3333333333333V85.3333333333334H234.6666666666667M234.6666666666667 384C258.1333333333334 384 277.3333333333333 364.8 277.3333333333333 341.3333333333334V42.6666666666667C277.3333333333333 19.2 258.1333333333334 0 234.6666666666667 0H85.3333333333333C61.6533333333333 0 42.6666666666667 19.2 42.6666666666667 42.6666666666667V341.3333333333334C42.6666666666667 364.8 61.8666666666667 384 85.3333333333333 384H234.6666666666667M352 384H458.6666666666666C476.3733333333333 384 490.6666666666666 369.7066666666667 490.6666666666666 352V288C490.6666666666666 270.2933333333334 476.3733333333333 256 458.6666666666666 256H384L320 192V352C320 369.7066666666667 334.2933333333333 384 352 384z" /></svg>