<?xml version="1.0" encoding="UTF-8"?><!DOCTYPE svg PUBLIC "-//W3C//DTD SVG 1.1//EN" "http://www.w3.org/Graphics/SVG/1.1/DTD/svg11.dtd"><svg xmlns="http://www.w3.org/2000/svg" xmlns:xlink="http://www.w3.org/1999/xlink" version="1.1" width="512" height="512" viewBox="0 0 512 512">    <path fill="#ffffff" transform="scale(1, -1) translate(0, -448)" glyph-name="email-check" unicode="&#xFAB0;" horiz-adv-x="512" d=" M448 163.4133333333334C434.56 168.1066666666667 420.2666666666667 170.6666666666667 405.3333333333333 170.6666666666667C334.72 170.6666666666667 277.3333333333333 113.28 277.3333333333333 42.6666666666667C277.3333333333333 35.4133333333334 277.9733333333333 28.3733333333333 279.04 21.3333333333334H64C40.5333333333333 21.3333333333334 21.3333333333333 40.5333333333333 21.3333333333333 64V320C21.3333333333333 343.68 40.32 362.6666666666667 64 362.6666666666667H405.3333333333333C428.8 362.6666666666667 448 343.4666666666667 448 320V163.4133333333334M501.3333333333333 85.3333333333334L394.6666666666667 -21.3333333333333L320 53.3333333333334L352 85.3333333333334L394.6666666666667 42.6666666666667L469.3333333333333 117.3333333333334L501.3333333333333 85.3333333333334M64 320V277.3333333333334L234.6666666666667 170.6666666666667L405.3333333333333 277.3333333333334V320L234.6666666666667 213.3333333333334L64 320z" /></svg>