<?xml version="1.0" encoding="UTF-8"?><!DOCTYPE svg PUBLIC "-//W3C//DTD SVG 1.1//EN" "http://www.w3.org/Graphics/SVG/1.1/DTD/svg11.dtd"><svg xmlns="http://www.w3.org/2000/svg" xmlns:xlink="http://www.w3.org/1999/xlink" version="1.1" width="512" height="512" viewBox="0 0 512 512">    <path fill="#ffffff" transform="scale(1, -1) translate(0, -448)" glyph-name="briefcase-account" unicode="&#xFCCC;" horiz-adv-x="512" d=" M426.6666666666667 320H341.3333333333333V362.6666666666667C341.3333333333333 386.1333333333334 322.1333333333334 405.3333333333333 298.6666666666667 405.3333333333333H213.3333333333333C189.6533333333333 405.3333333333333 170.6666666666667 386.3466666666667 170.6666666666667 362.6666666666667V320H85.3333333333333C61.6533333333333 320 42.6666666666667 301.0133333333333 42.6666666666667 277.3333333333334V42.6666666666667C42.6666666666667 19.2 61.8666666666667 0 85.3333333333333 0H426.6666666666667C450.1333333333334 0 469.3333333333333 19.2 469.3333333333333 42.6666666666667V277.3333333333334C469.3333333333333 300.8 450.1333333333334 320 426.6666666666667 320M213.3333333333333 362.6666666666667H298.6666666666667V320H213.3333333333333V362.6666666666667M256 256C285.44 256 309.3333333333333 232.1066666666667 309.3333333333333 202.6666666666667S285.44 149.3333333333334 256 149.3333333333334S202.6666666666667 173.2266666666667 202.6666666666667 202.6666666666667S226.56 256 256 256M362.6666666666667 42.6666666666667H149.3333333333333V69.3333333333334C149.3333333333333 98.7733333333333 197.12 122.6666666666667 256 122.6666666666667S362.6666666666667 98.7733333333333 362.6666666666667 69.3333333333334V42.6666666666667z" /></svg>