<?xml version="1.0" encoding="UTF-8"?><!DOCTYPE svg PUBLIC "-//W3C//DTD SVG 1.1//EN" "http://www.w3.org/Graphics/SVG/1.1/DTD/svg11.dtd"><svg xmlns="http://www.w3.org/2000/svg" xmlns:xlink="http://www.w3.org/1999/xlink" version="1.1" width="512" height="512" viewBox="0 0 512 512">    <path fill="#ffffff" transform="scale(1, -1) translate(0, -448)" glyph-name="folder-pound" unicode="&#xFCE5;" horiz-adv-x="512" d=" M325.3333333333333 170.6666666666667H368L357.3333333333333 128H314.6666666666667L325.3333333333333 170.6666666666667M469.3333333333333 277.3333333333334V64C469.3333333333333 40.5333333333333 450.1333333333334 21.3333333333334 426.6666666666667 21.3333333333334H85.3333333333333C61.8666666666667 21.3333333333334 42.6666666666667 40.5333333333333 42.6666666666667 64V320C42.6666666666667 343.68 61.6533333333333 362.6666666666667 85.3333333333333 362.6666666666667H213.3333333333333L256 320H426.6666666666667C450.1333333333334 320 469.3333333333333 300.8 469.3333333333333 277.3333333333334M426.6666666666667 192H394.6666666666667L405.3333333333333 234.6666666666667H384L373.3333333333333 192H330.6666666666667L341.3333333333333 234.6666666666667H320L309.3333333333333 192H277.3333333333333V170.6666666666667H304L293.3333333333333 128H256V106.6666666666667H288L277.3333333333333 64H298.6666666666667L309.3333333333333 106.6666666666667H352L341.3333333333333 64H362.6666666666667L373.3333333333333 106.6666666666667H405.3333333333333V128H378.6666666666667L389.3333333333333 170.6666666666667H426.6666666666667V192z" /></svg>