<?xml version="1.0" encoding="UTF-8"?><!DOCTYPE svg PUBLIC "-//W3C//DTD SVG 1.1//EN" "http://www.w3.org/Graphics/SVG/1.1/DTD/svg11.dtd"><svg xmlns="http://www.w3.org/2000/svg" xmlns:xlink="http://www.w3.org/1999/xlink" version="1.1" width="512" height="512" viewBox="0 0 512 512">    <path fill="#ffffff" transform="scale(1, -1) translate(0, -448)" glyph-name="alert-decagram" unicode="&#xF6BC;" horiz-adv-x="512" d=" M490.6666666666666 192L438.6133333333333 251.3066666666667L445.8666666666666 329.8133333333334L368.8533333333333 347.3066666666667L328.5333333333333 415.1466666666667L256 384L183.4666666666667 415.1466666666667L143.1466666666667 347.3066666666667L66.1333333333333 330.0266666666667L73.3866666666667 251.5200000000001L21.3333333333333 192L73.3866666666667 132.6933333333334L66.1333333333333 53.9733333333334L143.1466666666667 36.48L183.4666666666667 -31.36L256 0L328.5333333333333 -31.1466666666666L368.8533333333333 36.6933333333333L445.8666666666666 54.1866666666667L438.6133333333333 132.6933333333333L490.6666666666666 192M277.3333333333333 85.3333333333334H234.6666666666667V128H277.3333333333333V85.3333333333334M277.3333333333333 170.6666666666667H234.6666666666667V298.6666666666667H277.3333333333333V170.6666666666667z" /></svg>