<?xml version="1.0" encoding="UTF-8"?><!DOCTYPE svg PUBLIC "-//W3C//DTD SVG 1.1//EN" "http://www.w3.org/Graphics/SVG/1.1/DTD/svg11.dtd"><svg xmlns="http://www.w3.org/2000/svg" xmlns:xlink="http://www.w3.org/1999/xlink" version="1.1" width="512" height="512" viewBox="0 0 512 512">    <path fill="#ffffff" transform="scale(1, -1) translate(0, -448)" glyph-name="cow" unicode="&#xF19A;" horiz-adv-x="512" d=" M224 64C229.9733333333333 64 234.6666666666667 59.3066666666667 234.6666666666667 53.3333333333334S229.9733333333333 42.6666666666667 224 42.6666666666667S213.3333333333333 47.36 213.3333333333333 53.3333333333334S218.0266666666667 64 224 64M288 64C293.9733333333333 64 298.6666666666667 59.3066666666667 298.6666666666667 53.3333333333334S293.9733333333333 42.6666666666667 288 42.6666666666667S277.3333333333333 47.36 277.3333333333333 53.3333333333334S282.0266666666667 64 288 64M213.3333333333333 213.3333333333334C225.0666666666667 213.3333333333334 234.6666666666667 203.7333333333334 234.6666666666667 192S225.0666666666667 170.6666666666667 213.3333333333333 170.6666666666667S192 180.2666666666667 192 192S201.6 213.3333333333334 213.3333333333333 213.3333333333334M298.6666666666667 213.3333333333334C310.4 213.3333333333334 320 203.7333333333334 320 192S310.4 170.6666666666667 298.6666666666667 170.6666666666667S277.3333333333333 180.2666666666667 277.3333333333333 192S286.9333333333333 213.3333333333334 298.6666666666667 213.3333333333334M384 64C384 16.8533333333334 326.6133333333334 -21.3333333333333 256 -21.3333333333333S128 16.8533333333334 128 64C128 83.2 137.6 100.9066666666667 153.6 115.2000000000001C137.6 136.5333333333334 128 163.2000000000001 128 192L130.56 218.0266666666667C119.04 214.8266666666667 105.1733333333333 214.8266666666667 93.8666666666667 218.0266666666667C72.1066666666667 224 39.2533333333333 248.5333333333334 44.16 265.6C49.0666666666667 282.6666666666667 89.8133333333334 285.8666666666667 111.5733333333333 279.4666666666667C124.16 275.8400000000001 137.6 266.6666666666668 145.4933333333334 256.8533333333334L157.6533333333333 274.1333333333334C144.8533333333333 297.6 149.3333333333333 362.6666666666667 213.3333333333333 384L211.4133333333333 381.0133333333333C205.44 371.6266666666667 190.08 341.9733333333334 206.2933333333333 309.9733333333334C221.6533333333333 316.3733333333334 238.2933333333333 320 256 320C273.7066666666667 320 290.3466666666667 316.3733333333334 305.7066666666667 309.9733333333334C321.92 341.9733333333334 306.56 371.6266666666667 300.5866666666667 381.0133333333333L298.6666666666667 384C362.6666666666667 362.6666666666667 367.1466666666667 297.6 354.3466666666667 274.1333333333334L366.5066666666667 256.8533333333334C374.4 266.6666666666667 387.84 275.8400000000001 400.4266666666666 279.4666666666667C422.1866666666666 285.8666666666667 462.9333333333333 282.6666666666667 467.84 265.6C472.7466666666667 248.5333333333333 439.8933333333333 224 418.1333333333334 218.0266666666667C406.8266666666667 214.8266666666667 392.9600000000001 214.8266666666667 381.4400000000001 218.0266666666667L384 192C384 163.2000000000001 374.4 136.5333333333334 358.4 115.2000000000001C374.4 100.9066666666667 384 83.2 384 64M256 106.6666666666667C208.8533333333333 106.6666666666667 170.6666666666667 87.4666666666667 170.6666666666667 64S208.8533333333333 21.3333333333334 256 21.3333333333334S341.3333333333333 40.5333333333333 341.3333333333333 64S303.1466666666667 106.6666666666667 256 106.6666666666667M256 149.3333333333334C279.8933333333333 149.3333333333334 302.2933333333333 144.8533333333334 321.4933333333334 137.3866666666667C333.8666666666667 152.1066666666667 341.3333333333333 170.6666666666667 341.3333333333333 192C341.3333333333333 239.1466666666667 303.1466666666667 277.3333333333334 256 277.3333333333334S170.6666666666667 239.1466666666667 170.6666666666667 192C170.6666666666667 170.6666666666667 178.1333333333333 152.1066666666667 190.5066666666667 137.3866666666667C209.7066666666667 144.8533333333334 232.1066666666667 149.3333333333334 256 149.3333333333334M300.5866666666667 381.0133333333333z" /></svg>