<?xml version="1.0" encoding="UTF-8"?><!DOCTYPE svg PUBLIC "-//W3C//DTD SVG 1.1//EN" "http://www.w3.org/Graphics/SVG/1.1/DTD/svg11.dtd"><svg xmlns="http://www.w3.org/2000/svg" xmlns:xlink="http://www.w3.org/1999/xlink" version="1.1" width="512" height="512" viewBox="0 0 512 512">    <path fill="#ffffff" transform="scale(1, -1) translate(0, -448)" glyph-name="earth-box-off" unicode="&#xF6CD;" horiz-adv-x="512" d=" M490.6666666666666 356.9066666666667L448 314.24V42.6666666666667C448 19.2 428.8 0 405.3333333333333 0H133.76L91.0933333333333 -42.6666666666666L64 -15.36L463.36 384L490.6666666666666 356.9066666666667M106.6666666666667 384H409.1733333333333L366.5066666666667 341.3333333333334H336.64C334.2933333333333 320 316.3733333333334 303.1466666666667 294.4 303.1466666666667H251.7333333333333V260.48C251.7333333333333 248.5333333333334 242.1333333333334 239.1466666666667 230.4 239.1466666666667H187.7333333333333V196.48H221.44L182.4 157.4400000000001L106.6666666666667 228.48V81.4933333333333L64 38.8266666666667V341.3333333333334C64 365.0133333333333 82.9866666666667 384 106.6666666666667 384M251.7333333333334 42.6666666666667V68.48C238.2933333333333 68.48 226.1333333333334 74.6666666666667 218.24 84.48L176.4266666666667 42.6666666666667H251.7333333333333M337.0666666666666 175.1466666666667V111.1466666666667H358.3999999999999C377.3866666666666 111.1466666666667 399.7866666666667 98.5600000000001 405.3333333333333 81.4933333333333V271.5733333333334L327.0399999999999 193.28C333.0133333333332 189.4400000000001 337.0666666666666 182.8266666666667 337.0666666666666 175.1466666666667z" /></svg>