<?xml version="1.0" encoding="UTF-8"?><!DOCTYPE svg PUBLIC "-//W3C//DTD SVG 1.1//EN" "http://www.w3.org/Graphics/SVG/1.1/DTD/svg11.dtd"><svg xmlns="http://www.w3.org/2000/svg" xmlns:xlink="http://www.w3.org/1999/xlink" version="1.1" width="512" height="512" viewBox="0 0 512 512">    <path fill="#ffffff" transform="scale(1, -1) translate(0, -448)" glyph-name="teamviewer" unicode="&#xF500;" horiz-adv-x="512" d=" M405.3333333333333 384C428.8 384 448 364.8 448 341.3333333333334V42.6666666666667C448 18.9866666666667 428.8 0 405.3333333333333 0H106.6666666666667C83.2 0 64 19.2 64 42.6666666666667V341.3333333333334C64 364.8 83.2 384 106.6666666666667 384H405.3333333333333M256 341.3333333333334C173.44 341.3333333333334 106.6666666666667 274.5600000000001 106.6666666666667 192S173.44 42.6666666666667 256 42.6666666666667S405.3333333333333 109.44 405.3333333333333 192S338.56 341.3333333333334 256 341.3333333333334M149.3333333333333 192L213.3333333333333 256V213.3333333333334H298.6666666666667V256L362.6666666666667 192L298.6666666666667 128V170.6666666666667H213.3333333333333V128L149.3333333333333 192z" /></svg>