<?xml version="1.0" encoding="UTF-8"?><!DOCTYPE svg PUBLIC "-//W3C//DTD SVG 1.1//EN" "http://www.w3.org/Graphics/SVG/1.1/DTD/svg11.dtd"><svg xmlns="http://www.w3.org/2000/svg" xmlns:xlink="http://www.w3.org/1999/xlink" version="1.1" width="512" height="512" viewBox="0 0 512 512">    <path fill="#ffffff" transform="scale(1, -1) translate(0, -448)" glyph-name="domain-off" unicode="&#xFD4B;" horiz-adv-x="512" d=" M256 42.6666666666667H341.3333333333333L298.6666666666667 85.3333333333334H256V42.6666666666667M213.3333333333333 128V170.6666666666667H170.6666666666667V128H213.3333333333333M213.3333333333333 42.6666666666667V85.3333333333334H170.6666666666667V42.6666666666667H213.3333333333333M128 213.3333333333334V256H85.3333333333333V213.3333333333334H128M128 128V170.6666666666667H85.3333333333333V128H128M128 42.6666666666667V85.3333333333334H85.3333333333333V42.6666666666667H128M27.9466666666667 410.0266666666667L475.9466666666666 -36.0533333333333L448 -64L384 0H42.6666666666667V341.3333333333334L1.92 382.0800000000001L27.9466666666667 410.0266666666667M341.3333333333333 213.3333333333334H384V170.6666666666667H341.3333333333333V213.3333333333334M170.6666666666667 341.3333333333334V321.92L109.0133333333333 384H256V298.6666666666667H469.3333333333333V23.04L426.6666666666667 65.92V256H256V237.0133333333333L193.92 298.6666666666667H213.3333333333333V341.3333333333334H170.6666666666667z" /></svg>