<?xml version="1.0" encoding="UTF-8"?><!DOCTYPE svg PUBLIC "-//W3C//DTD SVG 1.1//EN" "http://www.w3.org/Graphics/SVG/1.1/DTD/svg11.dtd"><svg xmlns="http://www.w3.org/2000/svg" xmlns:xlink="http://www.w3.org/1999/xlink" version="1.1" width="512" height="512" viewBox="0 0 512 512">    <path fill="#ffffff" transform="scale(1, -1) translate(0, -448)" glyph-name="parachute-outline" unicode="&#xFC91;" horiz-adv-x="512" d=" M452.2666666666667 214.4L256 -42.6666666666666L59.3066666666667 214.1866666666667L61.2266666666667 215.8933333333333C65.7066666666667 220.3733333333333 71.04 224 76.3733333333333 226.9866666666667L228.9066666666667 27.9466666666667L183.04 170.6666666666667L197.12 196.0533333333334L256 13.2266666666667L314.24 196.2666666666667L328.5333333333333 170.6666666666668L283.0933333333333 27.9466666666667L435.4133333333333 227.2000000000001C440.7466666666667 224.0000000000001 445.8666666666666 221.0133333333334 450.1333333333334 216.5333333333334L452.2666666666667 214.4000000000001M256 362.6666666666667C309.3333333333333 362.6666666666667 357.76 337.7066666666667 389.3333333333333 298.0266666666667C367.7866666666667 295.4666666666667 347.3066666666667 287.1466666666667 330.0266666666667 274.5600000000001C308.6933333333334 289.92 282.88 298.6666666666667 256 298.6666666666667C228.48 298.6666666666667 202.6666666666667 289.92 181.3333333333333 274.3466666666667C163.84 286.9333333333334 143.36 295.04 121.8133333333333 297.8133333333334C153.3866666666667 337.7066666666667 202.0266666666667 362.6666666666667 256 362.6666666666667M256 405.3333333333333C151.2533333333333 405.3333333333333 64.64 330.6666666666667 46.08 231.04C61.6533333333333 246.4000000000001 82.9866666666667 256 106.6666666666667 256C138.6666666666667 256 166.6133333333334 237.6533333333334 181.3333333333333 211.2C195.6266666666667 237.6533333333334 223.36 256 256 256C288 256 315.7333333333334 237.8666666666667 330.6666666666667 211.4133333333334C344.7466666666667 238.08 372.6933333333333 256 405.3333333333333 256C428.5866666666667 256 449.92 247.04 465.28 231.68C446.7200000000001 330.6666666666667 360.1066666666667 405.3333333333333 256 405.3333333333333z" /></svg>