<?xml version="1.0" encoding="UTF-8"?><!DOCTYPE svg PUBLIC "-//W3C//DTD SVG 1.1//EN" "http://www.w3.org/Graphics/SVG/1.1/DTD/svg11.dtd"><svg xmlns="http://www.w3.org/2000/svg" xmlns:xlink="http://www.w3.org/1999/xlink" version="1.1" width="512" height="512" viewBox="0 0 512 512">    <path fill="#ffffff" transform="scale(1, -1) translate(0, -448)" glyph-name="json" unicode="&#xF626;" horiz-adv-x="512" d=" M106.6666666666667 384H149.3333333333333V341.3333333333334H106.6666666666667V234.6666666666667C106.6666666666667 211.2 87.4666666666667 192 64 192C87.4666666666667 192 106.6666666666667 172.8 106.6666666666667 149.3333333333334V42.6666666666667H149.3333333333333V0H106.6666666666667C83.84 5.76 64 19.2 64 42.6666666666667V128C64 151.4666666666667 44.8 170.6666666666667 21.3333333333333 170.6666666666667H0V213.3333333333334H21.3333333333333C44.8 213.3333333333334 64 232.5333333333334 64 256V341.3333333333334C64 364.8 83.2 384 106.6666666666667 384M405.3333333333333 384C428.8 384 448 364.8 448 341.3333333333334V256C448 232.5333333333334 467.1999999999999 213.3333333333334 490.6666666666666 213.3333333333334H512V170.6666666666667H490.6666666666666C467.1999999999999 170.6666666666667 448 151.4666666666667 448 128V42.6666666666667C448 19.2 428.8 0 405.3333333333333 0H362.6666666666667V42.6666666666667H405.3333333333333V149.3333333333334C405.3333333333333 172.8 424.5333333333333 192 448 192C424.5333333333333 192 405.3333333333333 211.2 405.3333333333333 234.6666666666667V341.3333333333334H362.6666666666667V384H405.3333333333333M256 128C267.7333333333334 128 277.3333333333333 118.4 277.3333333333333 106.6666666666667S267.7333333333334 85.3333333333334 256 85.3333333333334S234.6666666666667 94.9333333333333 234.6666666666667 106.6666666666667S244.2666666666667 128 256 128M170.6666666666667 128C182.4 128 192 118.4 192 106.6666666666667S182.4 85.3333333333334 170.6666666666667 85.3333333333334S149.3333333333333 94.9333333333333 149.3333333333333 106.6666666666667S158.9333333333333 128 170.6666666666667 128M341.3333333333333 128C353.0666666666667 128 362.6666666666667 118.4 362.6666666666667 106.6666666666667S353.0666666666667 85.3333333333334 341.3333333333333 85.3333333333334S320 94.9333333333333 320 106.6666666666667S329.6 128 341.3333333333333 128z" /></svg>