<?xml version="1.0" encoding="UTF-8"?><!DOCTYPE svg PUBLIC "-//W3C//DTD SVG 1.1//EN" "http://www.w3.org/Graphics/SVG/1.1/DTD/svg11.dtd"><svg xmlns="http://www.w3.org/2000/svg" xmlns:xlink="http://www.w3.org/1999/xlink" version="1.1" width="512" height="512" viewBox="0 0 512 512">    <path fill="#ffffff" transform="scale(1, -1) translate(0, -448)" glyph-name="skull-outline" unicode="&#xFBA4;" horiz-adv-x="512" d=" M170.6666666666667 128C147.2 128 128 147.2000000000001 128 170.6666666666667S147.2 213.3333333333334 170.6666666666667 213.3333333333334S213.3333333333333 194.1333333333333 213.3333333333333 170.6666666666667S194.1333333333333 128 170.6666666666667 128M224 85.3333333333334L256 149.3333333333334L288 85.3333333333334H224M341.3333333333333 128C317.8666666666667 128 298.6666666666667 147.2000000000001 298.6666666666667 170.6666666666667S317.8666666666667 213.3333333333334 341.3333333333333 213.3333333333334S384 194.1333333333333 384 170.6666666666667S364.8 128 341.3333333333333 128M469.3333333333333 213.3333333333334C469.3333333333333 331.0933333333334 373.76 426.6666666666667 256 426.6666666666667S42.6666666666667 331.0933333333334 42.6666666666667 213.3333333333334C42.6666666666667 153.6 68.2666666666667 100.2666666666667 106.6666666666667 61.8666666666667V-21.3333333333333H405.3333333333333V61.8666666666667C443.7333333333334 100.2666666666667 469.3333333333333 153.6 469.3333333333333 213.3333333333333M362.6666666666667 21.3333333333334H320V64H277.3333333333333V21.3333333333334H234.6666666666667V64H192V21.3333333333334H149.3333333333333V81.0666666666667C110.9333333333333 113.0666666666667 85.3333333333333 160 85.3333333333333 213.3333333333334C85.3333333333333 307.6266666666667 161.7066666666667 384 256 384S426.6666666666667 307.6266666666667 426.6666666666667 213.3333333333334C426.6666666666667 160 401.0666666666667 110.9333333333333 362.6666666666667 81.0666666666667V21.3333333333334z" /></svg>