<?xml version="1.0" encoding="UTF-8"?><!DOCTYPE svg PUBLIC "-//W3C//DTD SVG 1.1//EN" "http://www.w3.org/Graphics/SVG/1.1/DTD/svg11.dtd"><svg xmlns="http://www.w3.org/2000/svg" xmlns:xlink="http://www.w3.org/1999/xlink" version="1.1" width="512" height="512" viewBox="0 0 512 512">    <path fill="#ffffff" transform="scale(1, -1) translate(0, -448)" glyph-name="file-document-box-outline" unicode="&#xF9EC;" horiz-adv-x="512" d=" M106.6666666666667 384C82.9866666666667 384 64 365.0133333333333 64 341.3333333333334V42.6666666666667C64 18.9866666666667 82.9866666666667 0 106.6666666666667 0H405.3333333333333C429.0133333333333 0 448 18.9866666666667 448 42.6666666666667V341.3333333333334C448 365.0133333333333 429.0133333333333 384 405.3333333333333 384H106.6666666666667M106.6666666666667 341.3333333333334H405.3333333333333V42.6666666666667H106.6666666666667V341.3333333333334M149.3333333333333 298.6666666666667V256H362.6666666666667V298.6666666666667H149.3333333333333M149.3333333333333 213.3333333333334V170.6666666666667H362.6666666666667V213.3333333333334H149.3333333333333M149.3333333333333 128V85.3333333333334H298.6666666666667V128H149.3333333333333z" /></svg>