<?xml version="1.0" encoding="UTF-8"?><!DOCTYPE svg PUBLIC "-//W3C//DTD SVG 1.1//EN" "http://www.w3.org/Graphics/SVG/1.1/DTD/svg11.dtd"><svg xmlns="http://www.w3.org/2000/svg" xmlns:xlink="http://www.w3.org/1999/xlink" version="1.1" width="512" height="512" viewBox="0 0 512 512">    <path fill="#ffffff" transform="scale(1, -1) translate(0, -448)" glyph-name="pi-hole" unicode="&#xFDCD;" horiz-adv-x="512" d=" M119.8933333333333 405.3333333333333C202.6666666666667 405.3333333333333 246.8266666666667 356.48 251.0933333333333 278.8266666666667C266.6666666666667 371.8400000000001 339.84 360.9600000000001 339.84 360.9600000000001C343.4666666666667 308.2666666666667 300.16 276.2666666666667 251.0933333333333 273.7066666666667C237.2266666666667 302.7200000000001 154.6666666666667 373.9733333333334 154.6666666666667 373.9733333333334C154.24 373.3333333333334 234.0266666666667 304.2133333333334 231.04 274.1333333333334C177.7066666666667 279.8933333333333 124.16 320 119.8933333333333 405.3333333333333M129.28 168.3200000000001L211.6266666666667 250.6666666666667C236.5866666666667 275.6266666666667 277.3333333333333 275.6266666666667 302.08 250.6666666666667L384 168.3200000000001C409.3866666666667 143.36 409.3866666666667 102.8266666666667 384 77.8666666666667L302.08 -4.48C277.3333333333333 -29.4400000000001 236.5866666666667 -29.4400000000001 211.6266666666667 -4.48L129.28 77.8666666666667C104.32 102.8266666666667 104.32 143.36 129.28 168.32M200.32 30.0799999999999C200.32 56.3199999999999 216.5333333333333 88.5333333333333 257.92 88.5333333333333C285.8666666666667 88.5333333333333 317.2266666666667 61.8666666666667 347.9466666666666 64.8533333333334C317.2266666666667 65.7066666666667 289.92 88.5333333333333 289.92 123.9466666666667C289.92 152.32 313.3866666666666 172.8 313.3866666666666 206.08C312.1066666666666 184.96 294.8266666666666 154.24 256 154.24C225.92 154.24 203.7333333333333 178.56 167.8933333333333 178.56C183.04 177.7066666666667 224 164.2666666666667 224 120.5333333333333C224 85.3333333333334 200.32 74.6666666666667 200.32 30.0799999999999z" /></svg>