<?xml version="1.0" encoding="UTF-8"?><!DOCTYPE svg PUBLIC "-//W3C//DTD SVG 1.1//EN" "http://www.w3.org/Graphics/SVG/1.1/DTD/svg11.dtd"><svg xmlns="http://www.w3.org/2000/svg" xmlns:xlink="http://www.w3.org/1999/xlink" version="1.1" width="512" height="512" viewBox="0 0 512 512">    <path fill="#ffffff" transform="scale(1, -1) translate(0, -448)" glyph-name="lock-pattern" unicode="&#xF6E9;" horiz-adv-x="512" d=" M149.3333333333333 384C196.48 384 234.6666666666667 345.8133333333334 234.6666666666667 298.6666666666667C234.6666666666667 258.9866666666667 207.5733333333333 225.4933333333334 170.6666666666667 216.1066666666667V167.8933333333333C178.56 165.9733333333334 186.0266666666667 162.7733333333333 192.8533333333333 158.72L289.28 255.1466666666667C281.6 267.9466666666667 277.3333333333333 282.6666666666667 277.3333333333333 298.6666666666667C277.3333333333333 345.8133333333334 315.52 384 362.6666666666667 384S448 345.8133333333334 448 298.6666666666667S409.8133333333334 213.3333333333334 362.6666666666667 213.3333333333334C346.88 213.3333333333334 332.16 217.6 320 225.0666666666667L222.9333333333333 128C230.4 115.84 234.6666666666667 101.12 234.6666666666667 85.3333333333334C234.6666666666667 38.1866666666667 196.48 0 149.3333333333333 0S64 38.1866666666667 64 85.3333333333334C64 125.0133333333333 91.0933333333333 158.5066666666667 128 167.8933333333334V216.1066666666667C91.0933333333333 225.4933333333334 64 258.9866666666667 64 298.6666666666667C64 345.8133333333334 102.1866666666667 384 149.3333333333333 384M362.6666666666667 170.6666666666667C409.8133333333334 170.6666666666667 448 132.48 448 85.3333333333334S409.8133333333334 0 362.6666666666667 0S277.3333333333333 38.1866666666667 277.3333333333333 85.3333333333334S315.52 170.6666666666667 362.6666666666667 170.6666666666667M362.6666666666667 128C339.2 128 320 108.8 320 85.3333333333334S339.2 42.6666666666667 362.6666666666667 42.6666666666667S405.3333333333333 61.8666666666667 405.3333333333333 85.3333333333334S386.1333333333334 128 362.6666666666667 128z" /></svg>