<?xml version="1.0" encoding="UTF-8"?><!DOCTYPE svg PUBLIC "-//W3C//DTD SVG 1.1//EN" "http://www.w3.org/Graphics/SVG/1.1/DTD/svg11.dtd"><svg xmlns="http://www.w3.org/2000/svg" xmlns:xlink="http://www.w3.org/1999/xlink" version="1.1" width="512" height="512" viewBox="0 0 512 512">    <path fill="#ffffff" transform="scale(1, -1) translate(0, -448)" glyph-name="signal-3g" unicode="&#xF712;" horiz-adv-x="512" d=" M234.6666666666667 96V144C234.6666666666667 170.6666666666667 213.3333333333333 192 186.6666666666667 192C213.3333333333333 192 234.6666666666667 213.3333333333334 234.6666666666667 240V288C234.6666666666667 323.4133333333334 206.08 352 170.6666666666667 352H42.6666666666667V288H170.6666666666667V224H106.6666666666667V160H170.6666666666667V96H42.6666666666667V32H170.6666666666667C206.08 32 234.6666666666667 60.5866666666667 234.6666666666667 96M469.3333333333333 96V224H373.3333333333333V160H405.3333333333333V96H341.3333333333333V288H469.3333333333333V352H341.3333333333333C305.92 352 277.3333333333333 323.4133333333334 277.3333333333333 288V96C277.3333333333333 60.5866666666667 305.92 32 341.3333333333333 32H405.3333333333333C440.7466666666667 32 469.3333333333333 60.5866666666667 469.3333333333333 96z" /></svg>