<?xml version="1.0" encoding="UTF-8"?><!DOCTYPE svg PUBLIC "-//W3C//DTD SVG 1.1//EN" "http://www.w3.org/Graphics/SVG/1.1/DTD/svg11.dtd"><svg xmlns="http://www.w3.org/2000/svg" xmlns:xlink="http://www.w3.org/1999/xlink" version="1.1" width="512" height="512" viewBox="0 0 512 512">    <path fill="#ffffff" transform="scale(1, -1) translate(0, -448)" glyph-name="motion-sensor" unicode="&#xFD6D;" horiz-adv-x="512" d=" M213.3333333333333 443.7333333333334C192 443.7333333333334 174.9333333333333 426.6666666666667 174.9333333333333 405.3333333333333S192 366.9333333333334 213.3333333333333 366.9333333333334S251.7333333333334 384 251.7333333333334 405.3333333333333S234.6666666666667 443.7333333333334 213.3333333333333 443.7333333333334M334.2933333333333 426.6666666666667C334.2933333333333 340.2666666666667 404.2666666666667 270.2933333333334 490.6666666666666 270.2933333333334V298.6666666666667C420.0533333333334 298.6666666666667 362.6666666666667 356.0533333333334 362.6666666666667 426.6666666666667H334.2933333333333M391.04 426.6666666666667C391.04 371.6266666666667 435.6266666666666 327.04 490.6666666666666 327.04V355.6266666666667C451.4133333333333 355.6266666666667 419.6266666666667 387.4133333333334 419.6266666666667 426.6666666666667H391.04M448 426.6666666666667C448 403.2 467.1999999999999 384 490.6666666666666 384V426.6666666666667H448M168.96 362.0266666666667C165.3333333333333 362.0266666666667 161.7066666666667 361.3866666666667 158.2933333333333 360.32L42.6666666666667 324.2666666666667V213.3333333333334H81.0666666666667V291.6266666666667L126.08 305.7066666666667L42.6666666666667 -21.3333333333333H81.0666666666667L142.2933333333333 151.68L192 85.3333333333334V-21.3333333333333H230.4V115.4133333333334L177.28 212.2666666666667L192.8533333333334 273.4933333333334L215.8933333333333 234.6666666666667H320V273.0666666666667H242.7733333333333L200.1066666666666 344.1066666666667C193.7066666666666 354.7733333333334 182.1866666666667 362.0266666666667 168.96 362.0266666666667z" /></svg>