<?xml version="1.0" encoding="UTF-8"?><!DOCTYPE svg PUBLIC "-//W3C//DTD SVG 1.1//EN" "http://www.w3.org/Graphics/SVG/1.1/DTD/svg11.dtd"><svg xmlns="http://www.w3.org/2000/svg" xmlns:xlink="http://www.w3.org/1999/xlink" version="1.1" width="512" height="512" viewBox="0 0 512 512">    <path fill="#ffffff" transform="scale(1, -1) translate(0, -448)" glyph-name="emoticon-wink" unicode="&#xFC54;" horiz-adv-x="512" d=" M256 405.3333333333333C138.24 405.3333333333333 42.6666666666667 309.76 42.6666666666667 192S138.24 -21.3333333333333 256 -21.3333333333333S469.3333333333333 74.24 469.3333333333333 192S373.76 405.3333333333333 256 405.3333333333333M149.3333333333333 245.3333333333334C149.3333333333333 262.4000000000001 164.2666666666667 277.3333333333334 181.3333333333333 277.3333333333334S213.3333333333333 262.4000000000001 213.3333333333333 245.3333333333334S198.4 213.3333333333334 181.3333333333333 213.3333333333334S149.3333333333333 228.2666666666667 149.3333333333333 245.3333333333334M256 80.4266666666667C218.6666666666667 80.4266666666667 185.8133333333333 96 166.6133333333333 119.04L196.9066666666667 149.3333333333334C206.5066666666667 133.9733333333334 229.3333333333333 123.0933333333334 256 123.0933333333334S305.4933333333334 133.9733333333334 315.0933333333333 149.3333333333334L345.3866666666666 119.04C326.1866666666666 96 293.3333333333333 80.4266666666667 255.9999999999999 80.4266666666667M362.6666666666667 234.6666666666667H277.3333333333333V256H362.6666666666667V234.6666666666667z" /></svg>