<?xml version="1.0" encoding="UTF-8"?><!DOCTYPE svg PUBLIC "-//W3C//DTD SVG 1.1//EN" "http://www.w3.org/Graphics/SVG/1.1/DTD/svg11.dtd"><svg xmlns="http://www.w3.org/2000/svg" xmlns:xlink="http://www.w3.org/1999/xlink" version="1.1" width="512" height="512" viewBox="0 0 512 512">    <path fill="#ffffff" transform="scale(1, -1) translate(0, -448)" glyph-name="resistor-nodes" unicode="&#xFB20;" horiz-adv-x="512" d=" M42.6666666666667 213.3333333333334H78.2933333333333C87.04 238.2933333333334 110.72 256 138.6666666666667 256C174.08 256 202.6666666666667 227.4133333333334 202.6666666666667 192C202.6666666666667 178.1333333333333 198.1866666666667 165.3333333333334 190.72 154.88L214.8266666666667 120.5333333333334L279.68 362.6666666666667L311.68 317.2266666666667L356.2666666666667 253.6533333333334L373.3333333333333 256C401.28 256 424.9600000000001 238.2933333333334 433.7066666666666 213.3333333333334H469.3333333333333V170.6666666666667H433.7066666666666C424.9599999999999 145.7066666666667 401.28 128 373.3333333333333 128C337.92 128 309.3333333333333 156.5866666666667 309.3333333333333 192C309.3333333333333 205.8666666666667 313.8133333333334 218.6666666666667 321.28 229.12L297.1733333333333 263.4666666666667L232.32 21.3333333333334L155.7333333333333 130.3466666666667C150.4 128.8533333333334 144.64 128 138.6666666666667 128C110.72 128 87.04 145.7066666666667 78.2933333333333 170.6666666666667H42.6666666666667V213.3333333333334M373.3333333333333 224C355.6266666666667 224 341.3333333333333 209.7066666666667 341.3333333333333 192S355.6266666666667 160 373.3333333333333 160S405.3333333333333 174.2933333333334 405.3333333333333 192S391.04 224 373.3333333333333 224M138.6666666666667 224C120.96 224 106.6666666666667 209.7066666666667 106.6666666666667 192S120.96 160 138.6666666666667 160S170.6666666666667 174.2933333333334 170.6666666666667 192S156.3733333333333 224 138.6666666666667 224z" /></svg>