<?xml version="1.0" encoding="UTF-8"?><!DOCTYPE svg PUBLIC "-//W3C//DTD SVG 1.1//EN" "http://www.w3.org/Graphics/SVG/1.1/DTD/svg11.dtd"><svg xmlns="http://www.w3.org/2000/svg" xmlns:xlink="http://www.w3.org/1999/xlink" version="1.1" width="512" height="512" viewBox="0 0 512 512">    <path fill="#ffffff" transform="scale(1, -1) translate(0, -448)" glyph-name="mailbox-open-up-outline" unicode="&#xFD67;" horiz-adv-x="512" d=" M298.6666666666667 173.8666666666667V301.8666666666667H384V259.2000000000001H341.3333333333333V173.8666666666667H298.6666666666667M384 365.8666666666667H170.6666666666667C111.7866666666667 365.8666666666667 64 318.0800000000001 64 259.2000000000001V67.2H21.3333333333333V24.5333333333333H448C471.4666666666667 24.5333333333333 490.6666666666666 43.7333333333333 490.6666666666666 67.2V259.2C490.6666666666666 318.08 442.88 365.8666666666667 384 365.8666666666667M234.6666666666667 67.2H106.6666666666667V259.2C106.6666666666667 294.6133333333334 135.2533333333333 323.2 170.6666666666667 323.2S234.6666666666667 294.6133333333334 234.6666666666667 259.2V67.2M448 67.2H277.3333333333333V259.2C277.3333333333333 282.4533333333333 269.8666666666667 304.8533333333334 256 323.2H384C419.4133333333333 323.2 448 294.6133333333334 448 259.2V67.2z" /></svg>