<?xml version="1.0" encoding="UTF-8"?><!DOCTYPE svg PUBLIC "-//W3C//DTD SVG 1.1//EN" "http://www.w3.org/Graphics/SVG/1.1/DTD/svg11.dtd"><svg xmlns="http://www.w3.org/2000/svg" xmlns:xlink="http://www.w3.org/1999/xlink" version="1.1" width="512" height="512" viewBox="0 0 512 512">    <path fill="#ffffff" transform="scale(1, -1) translate(0, -448)" glyph-name="television-off" unicode="&#xF83A;" horiz-adv-x="512" d=" M10.6666666666667 388.9066666666667L37.9733333333333 416L448 5.9733333333334L420.9066666666667 -21.3333333333333L356.9066666666667 42.6666666666667H341.3333333333333V0H170.6666666666667V42.6666666666667H64C40.5333333333333 42.6666666666667 21.3333333333333 61.8666666666667 21.3333333333333 85.3333333333334V341.3333333333334C21.3333333333333 352 24.96 361.1733333333334 31.1466666666667 368.4266666666667L10.6666666666667 388.9066666666667M448 85.3333333333334V341.3333333333334H166.8266666666667L124.16 384H448C471.4666666666667 384 490.6666666666666 364.8 490.6666666666666 341.3333333333334V85.3333333333334C490.6666666666666 67.2 478.9333333333333 51.4133333333334 462.9333333333333 45.44L422.8266666666667 85.3333333333334H448M64 85.3333333333334H314.24L64 335.5733333333334V85.3333333333334z" /></svg>