<?xml version="1.0" encoding="UTF-8"?><!DOCTYPE svg PUBLIC "-//W3C//DTD SVG 1.1//EN" "http://www.w3.org/Graphics/SVG/1.1/DTD/svg11.dtd"><svg xmlns="http://www.w3.org/2000/svg" xmlns:xlink="http://www.w3.org/1999/xlink" version="1.1" width="512" height="512" viewBox="0 0 512 512">    <path fill="#ffffff" transform="scale(1, -1) translate(0, -448)" glyph-name="motorbike" unicode="&#xF37C;" horiz-adv-x="512" d=" M371.6266666666667 234.6666666666667L286.0800000000001 320H192V277.3333333333334H268.5866666666667L311.2533333333334 234.6666666666667H138.6666666666667C85.3333333333333 234.6666666666667 42.6666666666667 192 42.6666666666667 138.6666666666667S85.3333333333333 42.6666666666667 138.6666666666667 42.6666666666667C186.0266666666667 42.6666666666667 225.28 77.2266666666667 232.96 122.24L278.1866666666666 149.3333333333334C277.3333333333333 145.7066666666667 277.3333333333333 142.2933333333334 277.3333333333333 138.6666666666667C277.3333333333333 85.3333333333334 320 42.6666666666667 373.3333333333333 42.6666666666667S469.3333333333333 85.3333333333334 469.3333333333333 138.6666666666667S426.6666666666667 234.6666666666667 373.3333333333333 234.6666666666667M188.5866666666667 122.4533333333334C181.3333333333333 100.9066666666667 161.7066666666667 85.3333333333334 138.0266666666667 85.3333333333334C108.5866666666667 85.3333333333334 84.6933333333333 109.2266666666667 84.6933333333333 138.6666666666667S108.5866666666667 192 138.0266666666667 192C161.92 192 181.3333333333333 176.2133333333334 188.5866666666667 154.6666666666667H128V122.6666666666667L188.5866666666667 122.4533333333334M372.6933333333333 85.3333333333334C343.2533333333334 85.3333333333334 319.36 109.2266666666667 319.36 138.6666666666667S343.2533333333334 192 372.6933333333333 192S426.0266666666667 168.1066666666667 426.0266666666667 138.6666666666667S402.1333333333333 85.3333333333334 372.6933333333333 85.3333333333334z" /></svg>