<?xml version="1.0" encoding="UTF-8"?><!DOCTYPE svg PUBLIC "-//W3C//DTD SVG 1.1//EN" "http://www.w3.org/Graphics/SVG/1.1/DTD/svg11.dtd"><svg xmlns="http://www.w3.org/2000/svg" xmlns:xlink="http://www.w3.org/1999/xlink" version="1.1" width="512" height="512" viewBox="0 0 512 512">    <path fill="#ffffff" transform="scale(1, -1) translate(0, -448)" glyph-name="bus-clock" unicode="&#xF8C9;" horiz-adv-x="512" d=" M352 362.6666666666667V272L413.0133333333333 235.9466666666667L397.0133333333333 209.92L320 256V362.6666666666667H352M341.3333333333333 170.6666666666667C370.3466666666667 170.6666666666667 395.52 181.3333333333334 416 202.0266666666667C437.3333333333333 222.72 448 247.6800000000001 448 277.3333333333334C448 306.3466666666667 437.3333333333333 331.52 416 352C395.52 373.3333333333334 370.3466666666667 384 341.3333333333333 384C311.68 384 286.72 373.3333333333334 266.0266666666667 352C245.3333333333333 331.52 234.6666666666667 306.3466666666667 234.6666666666667 277.3333333333334C234.6666666666667 247.68 245.3333333333333 222.72 266.0266666666667 202.0266666666667C286.7200000000001 181.3333333333334 311.68 170.6666666666667 341.3333333333333 170.6666666666667M288 42.6666666666667C297.3866666666667 42.6666666666667 305.0666666666667 46.08 311.04 52.48C317.0133333333333 58.8800000000001 320 66.3466666666667 320 74.6666666666667C320 83.6266666666667 317.0133333333333 91.0933333333334 311.04 97.4933333333333C305.0666666666667 103.8933333333334 297.3866666666667 106.6666666666667 288 106.6666666666667C278.6133333333334 106.6666666666667 270.9333333333333 103.8933333333334 264.96 97.4933333333333S256 83.6266666666667 256 74.6666666666667C256 66.3466666666667 258.9866666666667 58.8800000000001 264.96 52.48C270.9333333333333 46.08 278.6133333333334 42.6666666666667 288 42.6666666666667M64 170.6666666666667H237.0133333333333C206.9333333333333 199.68 192 234.6666666666667 192 277.3333333333334H64V170.6666666666667M96 42.6666666666667C105.3866666666667 42.6666666666667 113.0666666666667 46.08 119.04 52.48C125.0133333333333 58.8800000000001 128 66.3466666666667 128 74.6666666666667C128 83.6266666666667 125.0133333333333 91.0933333333334 119.04 97.4933333333333C113.0666666666667 103.8933333333334 105.3866666666667 106.6666666666667 96 106.6666666666667C86.6133333333333 106.6666666666667 78.9333333333333 103.8933333333334 72.96 97.4933333333333S64 83.6266666666667 64 74.6666666666667C64 66.3466666666667 66.9866666666667 58.8800000000001 72.96 52.48C78.9333333333333 46.08 86.6133333333333 42.6666666666667 96 42.6666666666667M341.3333333333333 426.6666666666667C382.2933333333334 426.6666666666667 417.7066666666666 412.3733333333334 446.9333333333333 382.9333333333334C476.3733333333333 353.7066666666667 490.6666666666666 318.2933333333334 490.6666666666666 277.3333333333334C490.6666666666666 239.5733333333334 478.72 207.1466666666667 453.9733333333334 179.4133333333334C429.4400000000001 151.8933333333334 398.9333333333334 135.2533333333333 362.6666666666667 129.92V64C362.6666666666667 46.08 355.6266666666667 30.2933333333334 341.3333333333333 17.0666666666667V-21.3333333333333C341.3333333333333 -27.0933333333333 338.9866666666667 -32 334.9333333333333 -36.48C330.6666666666667 -40.7466666666667 325.9733333333333 -42.6666666666666 320 -42.6666666666666H298.6666666666667C292.9066666666667 -42.6666666666666 288 -40.7466666666667 283.52 -36.48C279.2533333333334 -32 277.3333333333333 -27.0933333333333 277.3333333333333 -21.3333333333333V0H106.6666666666667V-21.3333333333333C106.6666666666667 -27.0933333333333 104.7466666666667 -32 100.48 -36.48C96 -40.7466666666667 91.0933333333333 -42.6666666666666 85.3333333333333 -42.6666666666666H64C58.0266666666667 -42.6666666666666 53.3333333333333 -40.7466666666667 49.0666666666667 -36.48C45.0133333333333 -32 42.6666666666667 -27.0933333333333 42.6666666666667 -21.3333333333333V17.0666666666667C28.3733333333333 30.2933333333334 21.3333333333333 46.08 21.3333333333333 64V277.3333333333334C21.3333333333333 311.04 35.6266666666667 333.8666666666667 65.0666666666667 345.6C94.2933333333333 357.12 136.7466666666667 362.6666666666667 192 362.6666666666667H205.0133333333333C210.9866666666666 362.6666666666667 215.2533333333333 362.0266666666667 218.0266666666667 362.0266666666667C248.1066666666667 405.3333333333333 289.0666666666667 426.6666666666667 341.3333333333333 426.6666666666667z" /></svg>