<?xml version="1.0" encoding="UTF-8"?><!DOCTYPE svg PUBLIC "-//W3C//DTD SVG 1.1//EN" "http://www.w3.org/Graphics/SVG/1.1/DTD/svg11.dtd"><svg xmlns="http://www.w3.org/2000/svg" xmlns:xlink="http://www.w3.org/1999/xlink" version="1.1" width="512" height="512" viewBox="0 0 512 512">    <path fill="#ffffff" transform="scale(1, -1) translate(0, -448)" glyph-name="fire-truck" unicode="&#xF8AA;" horiz-adv-x="512" d=" M363.52 405.3333333333333C359.4666666666666 405.3333333333333 355.4133333333333 404.48 352 402.3466666666667L119.2533333333333 266.6666666666667H203.7333333333334L373.3333333333333 365.6533333333333C384 371.6266666666667 386.7733333333333 384.64 380.8 394.6666666666667C377.1733333333333 401.0666666666667 370.7733333333334 405.3333333333333 363.5200000000001 405.3333333333333M341.3333333333333 277.3333333333334V234.6666666666667H64C40.5333333333333 234.6666666666667 21.3333333333333 215.4666666666667 21.3333333333333 192H42.6666666666667V128H21.3333333333333V42.6666666666667H64C64 7.2533333333333 92.5866666666667 -21.3333333333333 128 -21.3333333333333S192 7.2533333333333 192 42.6666666666667H320C320 7.2533333333333 348.5866666666667 -21.3333333333333 384 -21.3333333333333S448 7.2533333333333 448 42.6666666666667H490.6666666666666V181.3333333333334L416 277.3333333333334H341.3333333333333M384 245.3333333333334H405.3333333333333L458.6666666666666 181.3333333333334V160H384V245.3333333333334M85.3333333333333 192H149.3333333333333V128H85.3333333333333V192M192 192H256V128H192V192M298.6666666666667 192H341.3333333333333V128H298.6666666666667V192M128 74.6666666666667C145.7066666666667 74.6666666666667 160 60.3733333333333 160 42.6666666666667S145.7066666666667 10.6666666666667 128 10.6666666666667S96 24.96 96 42.6666666666667S110.2933333333333 74.6666666666667 128 74.6666666666667M384 74.6666666666667C401.7066666666666 74.6666666666667 416 60.3733333333333 416 42.6666666666667S401.7066666666666 10.6666666666667 384 10.6666666666667S352 24.96 352 42.6666666666667S366.2933333333334 74.6666666666667 384 74.6666666666667z" /></svg>