<?xml version="1.0" encoding="UTF-8"?><!DOCTYPE svg PUBLIC "-//W3C//DTD SVG 1.1//EN" "http://www.w3.org/Graphics/SVG/1.1/DTD/svg11.dtd"><svg xmlns="http://www.w3.org/2000/svg" xmlns:xlink="http://www.w3.org/1999/xlink" version="1.1" width="512" height="512" viewBox="0 0 512 512">    <path fill="#ffffff" transform="scale(1, -1) translate(0, -448)" glyph-name="gift" unicode="&#xFE27;" horiz-adv-x="512" d=" M193.28 406.8266666666667C152.96 407.04 113.7066666666667 368.2133333333334 131.6266666666667 320H64C40.5333333333333 320 21.3333333333333 300.8 21.3333333333333 277.3333333333334V234.6666666666667C21.3333333333333 222.9333333333333 30.9333333333333 213.3333333333334 42.6666666666667 213.3333333333334H234.6666666666667V277.3333333333334H277.3333333333333V213.3333333333334H469.3333333333333C481.0666666666667 213.3333333333334 490.6666666666666 222.9333333333333 490.6666666666666 234.6666666666667V277.3333333333334C490.6666666666666 300.8 471.4666666666667 320 448 320H380.3733333333333C405.3333333333333 389.76 311.4666666666667 439.04 268.16 378.88L256 362.6666666666667L243.84 379.3066666666667C230.4 398.2933333333334 211.84 406.6133333333334 193.28 406.8266666666667M192 362.6666666666667C210.9866666666667 362.6666666666667 220.5866666666667 339.6266666666667 207.1466666666667 326.1866666666667C193.7066666666667 312.7466666666667 170.6666666666667 322.3466666666667 170.6666666666667 341.3333333333334C170.6666666666667 353.0666666666667 180.2666666666667 362.6666666666667 192 362.6666666666667M320 362.6666666666667C338.9866666666667 362.6666666666667 348.5866666666667 339.6266666666667 335.1466666666667 326.1866666666667C321.7066666666667 312.7466666666667 298.6666666666667 322.3466666666667 298.6666666666667 341.3333333333334C298.6666666666667 353.0666666666667 308.2666666666667 362.6666666666667 320 362.6666666666667M42.6666666666667 192V21.3333333333334C42.6666666666667 -2.1333333333333 61.8666666666667 -21.3333333333333 85.3333333333333 -21.3333333333333H426.6666666666667C450.1333333333334 -21.3333333333333 469.3333333333333 -2.1333333333333 469.3333333333333 21.3333333333334V192H277.3333333333333V21.3333333333334H234.6666666666667V192H42.6666666666667z" /></svg>