<?xml version="1.0" encoding="UTF-8"?><!DOCTYPE svg PUBLIC "-//W3C//DTD SVG 1.1//EN" "http://www.w3.org/Graphics/SVG/1.1/DTD/svg11.dtd"><svg xmlns="http://www.w3.org/2000/svg" xmlns:xlink="http://www.w3.org/1999/xlink" version="1.1" width="512" height="512" viewBox="0 0 512 512">    <path fill="#ffffff" transform="scale(1, -1) translate(0, -448)" glyph-name="subway-variant" unicode="&#xF4DF;" horiz-adv-x="512" d=" M384 213.3333333333334H277.3333333333333V320H384M352 85.3333333333334C334.2933333333333 85.3333333333334 320 99.6266666666667 320 117.3333333333334S334.2933333333333 149.3333333333334 352 149.3333333333334S384 135.04 384 117.3333333333334S369.7066666666666 85.3333333333334 352 85.3333333333334M234.6666666666667 213.3333333333334H128V320H234.6666666666667M160 85.3333333333334C142.2933333333333 85.3333333333334 128 99.6266666666667 128 117.3333333333334S142.2933333333333 149.3333333333334 160 149.3333333333334S192 135.04 192 117.3333333333334S177.7066666666667 85.3333333333334 160 85.3333333333334M256 405.3333333333333C161.7066666666667 405.3333333333333 85.3333333333333 394.6666666666667 85.3333333333333 320V117.3333333333334C85.3333333333333 76.16 118.8266666666667 42.6666666666667 160 42.6666666666667L128 10.6666666666667V0H384V10.6666666666667L352 42.6666666666667C393.1733333333333 42.6666666666667 426.6666666666667 76.16 426.6666666666667 117.3333333333334V320C426.6666666666667 394.6666666666667 350.2933333333334 405.3333333333333 256 405.3333333333333z" /></svg>