<?xml version="1.0" encoding="UTF-8"?><!DOCTYPE svg PUBLIC "-//W3C//DTD SVG 1.1//EN" "http://www.w3.org/Graphics/SVG/1.1/DTD/svg11.dtd"><svg xmlns="http://www.w3.org/2000/svg" xmlns:xlink="http://www.w3.org/1999/xlink" version="1.1" width="512" height="512" viewBox="0 0 512 512">    <path fill="#ffffff" transform="scale(1, -1) translate(0, -448)" glyph-name="eye-check-outline" unicode="&#xFCE1;" horiz-adv-x="512" d=" M501.3333333333333 85.3333333333334L394.6666666666667 -21.3333333333333L320 53.3333333333334L352 85.3333333333334L394.6666666666667 42.6666666666667L469.3333333333333 117.3333333333334L501.3333333333333 85.3333333333334M256 256C291.4133333333333 256 320 227.4133333333334 320 192S291.4133333333333 128 256 128S192 156.5866666666667 192 192S220.5866666666667 256 256 256M256 352C362.6666666666667 352 453.76 285.6533333333334 490.6666666666666 192C485.3333333333333 178.1333333333333 478.72 165.12 471.04 152.5333333333334C458.6666666666666 160 445.0133333333333 165.3333333333334 430.5066666666667 168.1066666666667L444.16 192C408.9600000000001 263.68 336.2133333333333 309.3333333333334 256 309.3333333333334C175.7866666666667 309.3333333333334 103.04 263.68 67.84 192C103.04 120.3200000000001 175.7866666666666 74.6666666666667 256 74.6666666666667L281.8133333333334 76.16C278.8266666666667 65.4933333333333 277.3333333333333 54.1866666666667 277.3333333333333 42.6666666666667V32.8533333333334L256 32C149.3333333333333 32 58.24 98.3466666666667 21.3333333333333 192C58.24 285.6533333333333 149.3333333333333 352 256 352z" /></svg>