<?xml version="1.0" encoding="UTF-8"?><!DOCTYPE svg PUBLIC "-//W3C//DTD SVG 1.1//EN" "http://www.w3.org/Graphics/SVG/1.1/DTD/svg11.dtd"><svg xmlns="http://www.w3.org/2000/svg" xmlns:xlink="http://www.w3.org/1999/xlink" version="1.1" width="512" height="512" viewBox="0 0 512 512">    <path fill="#ffffff" transform="scale(1, -1) translate(0, -448)" glyph-name="scale" unicode="&#xF472;" horiz-adv-x="512" d=" M180.48 126.72L150.4 96.64L121.1733333333334 125.8666666666667C102.8266666666667 102.1866666666667 90.4533333333333 73.8133333333334 86.6133333333334 42.6666666666667H128V1e-13H42.6666666666667V21.3333333333334C42.6666666666667 124.5866666666668 116.0533333333333 210.5600000000001 213.3333333333333 230.4000000000001V273.0666666666668L42.6666666666667 341.3333333333334V384H469.3333333333333V341.3333333333334L298.6666666666667 273.0666666666667V230.4000000000001C395.9466666666666 210.56 469.3333333333333 124.5866666666667 469.3333333333333 21.3333333333334V0H384V42.6666666666667H425.3866666666667C421.5466666666667 73.8133333333334 409.1733333333333 102.1866666666667 390.8266666666667 125.8666666666667L361.6 96.64L331.52 126.72L360.7466666666667 156.16C337.0666666666667 174.5066666666667 308.48 186.88 277.3333333333333 190.72V149.3333333333334H234.6666666666667V190.72C203.52 186.88 174.9333333333333 174.5066666666667 151.2533333333333 156.16L180.48 126.72M256 64C279.4666666666667 64 298.6666666666667 44.8000000000001 298.6666666666667 21.3333333333334S279.4666666666667 -21.3333333333333 256 -21.3333333333333C249.1733333333333 -21.3333333333333 242.7733333333334 -19.84 237.2266666666667 -16.8533333333333L155.0933333333333 21.3333333333334L237.2266666666667 59.52C242.7733333333333 62.5066666666667 249.1733333333333 64 256 64z" /></svg>