<?xml version="1.0" encoding="UTF-8"?><!DOCTYPE svg PUBLIC "-//W3C//DTD SVG 1.1//EN" "http://www.w3.org/Graphics/SVG/1.1/DTD/svg11.dtd"><svg xmlns="http://www.w3.org/2000/svg" xmlns:xlink="http://www.w3.org/1999/xlink" version="1.1" width="512" height="512" viewBox="0 0 512 512">    <path fill="#ffffff" transform="scale(1, -1) translate(0, -448)" glyph-name="camera-metering-spot" unicode="&#xF7A4;" horiz-adv-x="512" d=" M85.3333333333333 362.6666666666667H426.6666666666667C450.1333333333334 362.6666666666667 469.3333333333333 343.4666666666667 469.3333333333333 320V64C469.3333333333333 40.5333333333333 450.1333333333334 21.3333333333334 426.6666666666667 21.3333333333334H85.3333333333333C61.8666666666667 21.3333333333334 42.6666666666667 40.5333333333333 42.6666666666667 64V320C42.6666666666667 343.4666666666667 61.8666666666667 362.6666666666667 85.3333333333333 362.6666666666667M85.3333333333333 320V64H426.6666666666667V320H85.3333333333333M256 224C273.7066666666667 224 288 209.7066666666667 288 192S273.7066666666667 160 256 160S224 174.2933333333334 224 192S238.2933333333333 224 256 224z" /></svg>