<?xml version="1.0" encoding="UTF-8"?><!DOCTYPE svg PUBLIC "-//W3C//DTD SVG 1.1//EN" "http://www.w3.org/Graphics/SVG/1.1/DTD/svg11.dtd"><svg xmlns="http://www.w3.org/2000/svg" xmlns:xlink="http://www.w3.org/1999/xlink" version="1.1" width="512" height="512" viewBox="0 0 512 512">    <path fill="#ffffff" transform="scale(1, -1) translate(0, -448)" glyph-name="emoticon-cry" unicode="&#xFC48;" horiz-adv-x="512" d=" M109.6533333333333 73.1733333333334C109.6533333333333 96 134.8266666666667 138.6666666666667 161.4933333333334 174.72C188.16 138.6666666666667 213.3333333333333 96 213.3333333333333 73.1733333333334C213.3333333333333 44.5866666666667 190.08 21.3333333333334 161.4933333333334 21.3333333333334S109.6533333333333 44.5866666666667 109.6533333333333 73.1733333333334M469.3333333333333 192C469.3333333333333 74.24 373.76 -21.3333333333333 256 -21.3333333333333C236.3733333333334 -21.3333333333333 217.1733333333333 -18.3466666666666 199.04 -13.4399999999999C232.5333333333334 1.0666666666667 256 34.3466666666667 256 73.1733333333334C256 82.7733333333333 253.6533333333334 93.8666666666667 249.3866666666667 106.6666666666667H256C282.6666666666667 106.6666666666667 305.4933333333334 96 315.0933333333333 80.4266666666667L345.3866666666666 110.72C326.1866666666666 133.9733333333334 293.3333333333333 149.3333333333334 256 149.3333333333334C247.2533333333334 149.3333333333334 238.72 148.48 230.6133333333334 146.7733333333334C221.44 162.9866666666667 210.1333333333334 180.6933333333334 196.0533333333334 199.8933333333334L185.8133333333333 213.3333333333334C200.96 216.1066666666667 213.3333333333333 229.76 213.3333333333333 245.3333333333334C213.3333333333333 262.4000000000001 198.4 277.3333333333334 181.3333333333333 277.3333333333334S149.3333333333333 262.4000000000001 149.3333333333333 245.3333333333334C149.3333333333333 241.2800000000001 150.1866666666667 237.4400000000001 151.68 233.8133333333334L127.1466666666667 199.8933333333334C93.8666666666667 154.6666666666667 74.6666666666667 117.3333333333334 68.9066666666667 89.3866666666667C52.2666666666667 119.8933333333333 42.6666666666667 154.88 42.6666666666667 192C42.6666666666667 309.76 138.24 405.3333333333333 256 405.3333333333333S469.3333333333333 309.76 469.3333333333333 192M362.6666666666667 245.3333333333334C362.6666666666667 262.4000000000001 347.7333333333334 277.3333333333334 330.6666666666667 277.3333333333334S298.6666666666667 262.4000000000001 298.6666666666667 245.3333333333334S313.6 213.3333333333334 330.6666666666667 213.3333333333334S362.6666666666667 228.2666666666667 362.6666666666667 245.3333333333334z" /></svg>