<?xml version="1.0" encoding="UTF-8"?><!DOCTYPE svg PUBLIC "-//W3C//DTD SVG 1.1//EN" "http://www.w3.org/Graphics/SVG/1.1/DTD/svg11.dtd"><svg xmlns="http://www.w3.org/2000/svg" xmlns:xlink="http://www.w3.org/1999/xlink" version="1.1" width="512" height="512" viewBox="0 0 512 512">    <path fill="#ffffff" transform="scale(1, -1) translate(0, -448)" glyph-name="layers-remove" unicode="&#xFE31;" horiz-adv-x="512" d=" M308.48 109.2266666666667L338.7733333333333 139.52L384 94.08L429.2266666666667 139.52L459.52 109.2266666666667L414.08 64L459.52 18.7733333333333L429.2266666666666 -11.52L384 33.92L338.7733333333333 -11.52L308.48 18.7733333333334L353.92 64L308.48 109.2266666666667M234.6666666666667 106.6666666666667L42.6666666666667 256L234.6666666666667 405.3333333333333L426.6666666666667 256L234.6666666666667 106.6666666666667M234.6666666666667 52.48L256 69.3333333333334V64C256 48.8533333333334 258.56 34.3466666666667 263.4666666666667 21.3333333333334L234.6666666666667 -1.4933333333333L42.6666666666667 147.84L77.2266666666667 174.72L234.6666666666667 52.48z" /></svg>