<?xml version="1.0" encoding="UTF-8"?><!DOCTYPE svg PUBLIC "-//W3C//DTD SVG 1.1//EN" "http://www.w3.org/Graphics/SVG/1.1/DTD/svg11.dtd"><svg xmlns="http://www.w3.org/2000/svg" xmlns:xlink="http://www.w3.org/1999/xlink" version="1.1" width="512" height="512" viewBox="0 0 512 512">    <path fill="#ffffff" transform="scale(1, -1) translate(0, -448)" glyph-name="bell-circle" unicode="&#xFD36;" horiz-adv-x="512" d=" M256 405.3333333333333C373.76 405.3333333333333 469.3333333333333 309.76 469.3333333333333 192S373.76 -21.3333333333333 256 -21.3333333333333S42.6666666666667 74.24 42.6666666666667 192S138.24 405.3333333333333 256 405.3333333333333M362.6666666666667 106.6666666666667V128L341.3333333333333 149.3333333333334V205.0133333333333C341.3333333333333 228.2666666666667 335.5733333333333 248.7466666666667 324.48 266.0266666666667C313.6 283.3066666666667 297.8133333333334 294.1866666666667 277.3333333333333 298.6666666666667V309.3333333333334C277.3333333333333 321.0666666666667 267.7333333333334 330.6666666666667 256 330.6666666666667S234.6666666666667 321.0666666666667 234.6666666666667 309.3333333333334V298.6666666666667C214.1866666666667 294.1866666666667 198.4 283.3066666666667 187.52 266.0266666666667C176.4266666666667 248.7466666666667 170.6666666666666 228.2666666666667 170.6666666666666 205.0133333333334V149.3333333333334L149.3333333333333 128V106.6666666666667H362.6666666666667M288 85.3333333333334H224C224 67.6266666666667 238.2933333333333 53.3333333333334 256 53.3333333333334S288 67.6266666666667 288 85.3333333333334z" /></svg>