<?xml version="1.0" encoding="UTF-8"?><!DOCTYPE svg PUBLIC "-//W3C//DTD SVG 1.1//EN" "http://www.w3.org/Graphics/SVG/1.1/DTD/svg11.dtd"><svg xmlns="http://www.w3.org/2000/svg" xmlns:xlink="http://www.w3.org/1999/xlink" version="1.1" width="512" height="512" viewBox="0 0 512 512">    <path fill="#ffffff" transform="scale(1, -1) translate(0, -448)" glyph-name="currency-usd" unicode="&#xF1B3;" horiz-adv-x="512" d=" M149.3333333333333 128H192C192 104.96 221.2266666666667 85.3333333333334 256 85.3333333333334S320 104.96 320 128C320 151.4666666666667 297.8133333333334 160 250.88 171.3066666666667C205.6533333333333 182.6133333333334 149.3333333333333 196.6933333333334 149.3333333333333 256C149.3333333333333 294.1866666666667 180.6933333333333 326.6133333333334 224 337.4933333333334V384H288V337.4933333333334C331.3066666666666 326.6133333333334 362.6666666666667 294.1866666666667 362.6666666666667 256H320C320 279.04 290.7733333333333 298.6666666666667 256 298.6666666666667S192 279.04 192 256C192 232.5333333333334 214.1866666666667 224 261.12 212.6933333333334C306.3466666666667 201.3866666666667 362.6666666666667 187.3066666666667 362.6666666666667 128C362.6666666666667 89.8133333333334 331.3066666666666 57.3866666666667 288 46.5066666666667V0H224V46.5066666666667C180.6933333333333 57.3866666666667 149.3333333333333 89.8133333333334 149.3333333333333 128z" /></svg>