<?xml version="1.0" encoding="UTF-8"?><!DOCTYPE svg PUBLIC "-//W3C//DTD SVG 1.1//EN" "http://www.w3.org/Graphics/SVG/1.1/DTD/svg11.dtd"><svg xmlns="http://www.w3.org/2000/svg" xmlns:xlink="http://www.w3.org/1999/xlink" version="1.1" width="512" height="512" viewBox="0 0 512 512">    <path fill="#ffffff" transform="scale(1, -1) translate(0, -448)" glyph-name="book-open-outline" unicode="&#xFB3F;" horiz-adv-x="512" d=" M448 362.6666666666667H64C40.5333333333333 362.6666666666667 21.3333333333333 343.4666666666667 21.3333333333333 320V42.6666666666667C21.3333333333333 19.2 40.5333333333333 0 64 0H448C471.4666666666667 0 490.6666666666666 19.2 490.6666666666666 42.6666666666667V320C490.6666666666666 343.4666666666667 471.4666666666667 362.6666666666667 448 362.6666666666667M64 42.6666666666667V320H234.6666666666667V42.6666666666667H64M448 42.6666666666667H277.3333333333333V320H448V42.6666666666667M298.6666666666667 245.3333333333334H426.6666666666667V213.3333333333334H298.6666666666667V245.3333333333334M298.6666666666667 192H426.6666666666667V160H298.6666666666667V192M298.6666666666667 138.6666666666667H426.6666666666667V106.6666666666667H298.6666666666667V138.6666666666667z" /></svg>