<?xml version="1.0" encoding="UTF-8"?><!DOCTYPE svg PUBLIC "-//W3C//DTD SVG 1.1//EN" "http://www.w3.org/Graphics/SVG/1.1/DTD/svg11.dtd"><svg xmlns="http://www.w3.org/2000/svg" xmlns:xlink="http://www.w3.org/1999/xlink" version="1.1" width="512" height="512" viewBox="0 0 512 512">    <path fill="#ffffff" transform="scale(1, -1) translate(0, -448)" glyph-name="calendar-remove" unicode="&#xF0F4;" horiz-adv-x="512" d=" M405.3333333333333 42.6666666666667H106.6666666666667V277.3333333333334H405.3333333333333M405.3333333333333 384H384V426.6666666666667H341.3333333333333V384H170.6666666666667V426.6666666666667H128V384H106.6666666666667C82.9866666666667 384 64 364.8 64 341.3333333333334V42.6666666666667C64 19.2 83.2 0 106.6666666666667 0H405.3333333333333C428.8 0 448 19.2 448 42.6666666666667V341.3333333333334C448 364.8 428.8 384 405.3333333333333 384M198.6133333333334 85.3333333333334L250.6666666666667 137.3866666666667L302.72 85.3333333333334L325.3333333333333 107.9466666666667L273.28 160L325.3333333333333 212.0533333333334L302.72 234.6666666666667L250.6666666666667 182.6133333333334L198.6133333333334 234.6666666666667L176 212.0533333333334L228.0533333333333 160L176 107.9466666666667L198.6133333333334 85.3333333333334z" /></svg>