<?xml version="1.0" encoding="UTF-8"?><!DOCTYPE svg PUBLIC "-//W3C//DTD SVG 1.1//EN" "http://www.w3.org/Graphics/SVG/1.1/DTD/svg11.dtd"><svg xmlns="http://www.w3.org/2000/svg" xmlns:xlink="http://www.w3.org/1999/xlink" version="1.1" width="512" height="512" viewBox="0 0 512 512">    <path fill="#ffffff" transform="scale(1, -1) translate(0, -448)" glyph-name="waze" unicode="&#xFBBA;" horiz-adv-x="512" d=" M438.1866666666666 306.56C452.9066666666666 286.5066666666667 462.7199999999999 263.04 466.9866666666667 238.5066666666667C471.4666666666667 211.84 469.3333333333333 184.7466666666667 460.3733333333333 159.1466666666667C451.84 134.1866666666667 437.3333333333333 111.7866666666666 417.7066666666667 93.8666666666667C403.4133333333333 80.2133333333333 387.2000000000001 68.9066666666666 369.4933333333334 60.16C378.24 37.3333333333334 366.7200000000001 11.7333333333333 343.8933333333333 2.9866666666667C338.7733333333333 1.0666666666667 333.44 0 328.1066666666667 0C304.4266666666667 0 284.8 18.9866666666667 283.9466666666667 42.6666666666667H218.4533333333333C216.1066666666667 18.3466666666667 194.3466666666666 0 170.0266666666667 2.7733333333333C147.4133333333333 4.9066666666667 130.3466666666667 23.68 129.92 46.2933333333333C130.1333333333333 50.3466666666667 130.7733333333334 54.6133333333333 132.0533333333334 58.4533333333333C98.1333333333333 69.76 68.48 90.88 46.72 119.2533333333333C39.68 128.64 41.8133333333333 142.08 51.6266666666667 149.3333333333333C55.4666666666667 152.32 60.16 154.0266666666667 65.0666666666667 154.0266666666667C80.4266666666667 154.0266666666667 86.4 159.36 90.0266666666667 167.4666666666667C95.1466666666667 182.8266666666667 98.1333333333333 198.8266666666667 98.3466666666667 215.04C98.9866666666667 226.3466666666667 100.2666666666667 237.4400000000001 101.9733333333333 248.5333333333334C109.44 285.44 130.1333333333333 318.5066666666667 160 341.3333333333334C195.4133333333333 369.0666666666667 238.72 384 283.52 384C314.0266666666667 384 344.1066666666667 376.5333333333333 371.2 362.6666666666667C397.6533333333333 349.44 420.4799999999999 330.6666666666667 438.1866666666666 306.56M356.6933333333333 78.72C394.6666666666667 96 424.5333333333333 127.1466666666667 439.2533333333334 166.1866666666667C473.8133333333333 271.5733333333334 384 361.6 283.52 361.6C276.0533333333333 361.6 268.3733333333333 361.1733333333334 260.9066666666667 360.1066666666667C199.68 352 136.5333333333333 309.3333333333334 123.9466666666667 245.3333333333334C115.84 202.6666666666667 128 132.48 65.0666666666667 132.48C85.3333333333333 106.6666666666667 113.4933333333334 86.8266666666667 145.28 77.44C163.4133333333333 93.6533333333334 191.36 91.9466666666667 207.7866666666667 73.6C210.1333333333333 71.04 212.0533333333333 68.2666666666667 213.3333333333333 65.28H289.0666666666667C300.16 87.04 327.04 96 348.8 84.48C352 82.7733333333333 354.1333333333334 80.8533333333332 356.6933333333334 78.72M234.0266666666667 228.0533333333333C221.6533333333334 227.4133333333333 210.7733333333334 236.8 210.1333333333334 249.3866666666667C209.4933333333334 261.76 219.0933333333334 272.4266666666666 231.4666666666667 273.28C243.8400000000001 273.92 254.7200000000001 264.32 255.3600000000001 250.6666666666667C256 238.9333333333333 246.6133333333334 228.9066666666667 234.6666666666667 228.48L234.0266666666667 228.0533333333333M334.0800000000001 228.0533333333333C321.7066666666667 227.4133333333333 310.8266666666667 236.8 310.1866666666667 249.3866666666667C309.3333333333334 261.76 319.1466666666667 272.4266666666666 331.5200000000001 273.28C343.8933333333333 273.92 354.7733333333334 264.32 355.4133333333334 250.6666666666667C355.8400000000001 238.9333333333333 346.6666666666668 228.9066666666667 334.0800000000001 228.48V228.0533333333333M207.1466666666668 190.5066666666667C205.8666666666667 196.48 209.9200000000001 202.6666666666666 215.8933333333334 203.7333333333333C221.8666666666667 204.8 227.8400000000001 200.9599999999999 229.1200000000001 194.9866666666666C236.5866666666668 171.3066666666666 259.4133333333334 155.9466666666666 284.1600000000001 157.8666666666666C308.4800000000001 156.5866666666666 330.6666666666668 171.52 338.9866666666668 194.56C341.9733333333334 200.1066666666666 348.8000000000001 202.6666666666666 354.1333333333335 199.4666666666667C357.9733333333334 197.3333333333333 360.3200000000001 193.7066666666667 360.3200000000001 189.44C356.2666666666667 174.2933333333333 346.8800000000001 161.0666666666666 334.0800000000001 151.8933333333333C319.3600000000001 141.6533333333333 302.0800000000001 135.8933333333333 284.1600000000001 135.68H281.8133333333334C247.0400000000001 134.1866666666666 215.6800000000001 157.0133333333333 206.5066666666668 190.72L207.1466666666668 190.5066666666667z" /></svg>