<?xml version="1.0" encoding="UTF-8"?><!DOCTYPE svg PUBLIC "-//W3C//DTD SVG 1.1//EN" "http://www.w3.org/Graphics/SVG/1.1/DTD/svg11.dtd"><svg xmlns="http://www.w3.org/2000/svg" xmlns:xlink="http://www.w3.org/1999/xlink" version="1.1" width="512" height="512" viewBox="0 0 512 512">    <path fill="#ffffff" transform="scale(1, -1) translate(0, -448)" glyph-name="numeric-8-box-outline" unicode="&#xF3BB;" horiz-adv-x="512" d=" M234.6666666666667 170.6666666666667H277.3333333333333V128H234.6666666666667M234.6666666666667 256H277.3333333333333V213.3333333333334H234.6666666666667M234.6666666666667 85.3333333333334H277.3333333333333C300.8 85.3333333333334 320 104.5333333333333 320 128V160C320 177.7066666666667 305.7066666666667 192 288 192C305.7066666666667 192 320 206.2933333333334 320 224V256C320 279.68 300.8 298.6666666666667 277.3333333333333 298.6666666666667H234.6666666666667C211.2 298.6666666666667 192 279.4666666666667 192 256V224C192 206.2933333333334 206.2933333333333 192 224 192C206.2933333333333 192 192 177.7066666666667 192 160V128C192 104.3200000000001 211.2 85.3333333333334 234.6666666666667 85.3333333333334M405.3333333333333 42.6666666666667H106.6666666666667V341.3333333333334H405.3333333333333M405.3333333333333 384H106.6666666666667C83.2 384 64 364.8 64 341.3333333333334V42.6666666666667C64 19.2 83.2 0 106.6666666666667 0H405.3333333333333C428.8 0 448 19.2 448 42.6666666666667V341.3333333333334C448 364.8 428.8 384 405.3333333333333 384z" /></svg>