<?xml version="1.0" encoding="UTF-8"?><!DOCTYPE svg PUBLIC "-//W3C//DTD SVG 1.1//EN" "http://www.w3.org/Graphics/SVG/1.1/DTD/svg11.dtd"><svg xmlns="http://www.w3.org/2000/svg" xmlns:xlink="http://www.w3.org/1999/xlink" version="1.1" width="512" height="512" viewBox="0 0 512 512">    <path fill="#ffffff" transform="scale(1, -1) translate(0, -448)" glyph-name="robot-industrial" unicode="&#xFB21;" horiz-adv-x="512" d=" M392.7466666666667 362.6666666666667L341.3333333333333 311.2533333333334V307.4133333333334L392.7466666666667 256H469.3333333333333V213.3333333333334H375.2533333333334L341.3333333333333 247.2533333333334V192H320C296.5333333333333 192 277.3333333333333 211.2 277.3333333333333 234.6666666666667V288H210.3466666666666C208.4266666666667 280.1066666666667 205.2266666666666 272.64 200.96 265.6L323.84 42.6666666666667H426.6666666666667C450.1333333333334 42.6666666666667 469.3333333333333 23.4666666666667 469.3333333333333 0V-21.3333333333333H42.6666666666667V0C42.6666666666667 23.4666666666667 61.8666666666667 42.6666666666667 85.3333333333333 42.6666666666667H226.3466666666667L126.2933333333333 224C87.8933333333333 224.64 54.6133333333333 250.88 45.0133333333333 288C33.28 333.6533333333334 60.8 380.1600000000001 106.6666666666666 391.8933333333333C152.1066666666666 403.6266666666667 198.6133333333333 376.32 210.3466666666666 330.6666666666667H277.3333333333333V384C277.3333333333333 407.4666666666667 296.5333333333333 426.6666666666667 320 426.6666666666667H341.3333333333333V371.4133333333334L375.2533333333334 405.3333333333333H469.3333333333333V362.6666666666667H392.7466666666667M128 352C104.5333333333333 352 85.3333333333333 332.8 85.3333333333333 309.3333333333334S104.5333333333333 266.6666666666667 128 266.6666666666667S170.6666666666667 285.8666666666667 170.6666666666667 309.3333333333334S151.4666666666667 352 128 352z" /></svg>