<?xml version="1.0" encoding="UTF-8"?><!DOCTYPE svg PUBLIC "-//W3C//DTD SVG 1.1//EN" "http://www.w3.org/Graphics/SVG/1.1/DTD/svg11.dtd"><svg xmlns="http://www.w3.org/2000/svg" xmlns:xlink="http://www.w3.org/1999/xlink" version="1.1" width="512" height="512" viewBox="0 0 512 512">    <path fill="#ffffff" transform="scale(1, -1) translate(0, -448)" glyph-name="account-off-outline" unicode="&#xFBC3;" horiz-adv-x="512" d=" M58.6666666666667 298.6666666666667L85.9733333333333 325.3333333333334L282.88 128L426.6666666666667 -15.36L399.5733333333333 -42.6666666666666L335.5733333333333 21.3333333333334H85.3333333333333V85.3333333333334C85.3333333333333 125.0133333333333 141.0133333333333 151.04 193.92 162.9866666666667L58.6666666666667 298.6666666666667M426.6666666666667 85.3333333333334V38.8266666666667L386.1333333333334 79.36V85.3333333333334C386.1333333333334 90.8800000000001 375.4666666666667 99.2 358.4 106.6666666666667L298.6666666666667 166.8266666666667C356.48 157.2266666666667 426.6666666666667 129.92 426.6666666666667 85.3333333333334M125.8666666666667 85.3333333333334V61.8666666666667H295.04L228.6933333333334 128C174.72 121.6 125.8666666666667 97.0666666666667 125.8666666666667 85.3333333333334M256 362.6666666666667C303.1466666666667 362.6666666666667 341.3333333333333 324.48 341.3333333333333 277.3333333333334C341.3333333333333 235.7333333333334 311.4666666666667 200.96 272 193.4933333333334L172.16 293.3333333333334C179.6266666666667 332.8 214.4 362.6666666666667 256 362.6666666666667M256 320C232.5333333333334 320 213.3333333333333 300.8 213.3333333333333 277.3333333333334S232.5333333333334 234.6666666666667 256 234.6666666666667S298.6666666666667 253.8666666666667 298.6666666666667 277.3333333333334S279.4666666666667 320 256 320z" /></svg>