<?xml version="1.0" encoding="UTF-8"?><!DOCTYPE svg PUBLIC "-//W3C//DTD SVG 1.1//EN" "http://www.w3.org/Graphics/SVG/1.1/DTD/svg11.dtd"><svg xmlns="http://www.w3.org/2000/svg" xmlns:xlink="http://www.w3.org/1999/xlink" version="1.1" width="512" height="512" viewBox="0 0 512 512">    <path fill="#ffffff" transform="scale(1, -1) translate(0, -448)" glyph-name="egg-easter" unicode="&#xFAAF;" horiz-adv-x="512" d=" M146.9866666666667 312.32C175.5733333333333 364.5866666666667 213.3333333333333 405.3333333333333 256 405.3333333333333C298.6666666666667 405.3333333333333 336.4266666666666 364.5866666666667 365.0133333333333 312.32C346.88 307.8400000000001 330.6666666666667 297.1733333333334 320 282.24C294.1866666666666 317.6533333333333 244.48 325.3333333333334 209.0666666666667 299.3066666666667C202.6666666666667 294.6133333333334 196.6933333333333 288.8533333333334 192 282.24C181.3333333333333 297.1733333333334 165.12 307.8400000000001 146.9866666666667 312.32M320 62.72L256 126.72L192 62.72L128 126.72L100.9066666666667 99.6266666666667C122.6666666666667 13.8666666666667 209.7066666666667 -37.76 295.2533333333334 -16.2133333333333C352 -1.7066666666666 396.5866666666667 42.6666666666667 411.0933333333333 99.6266666666667L384 126.72L320 62.72M192 107.9466666666667L256 171.9466666666667L320 107.9466666666667L384 171.9466666666667L416 139.9466666666667C413.2266666666667 189.2266666666667 401.0666666666667 237.6533333333333 379.9466666666666 282.4533333333333C355.2 280.32 336 259.6266666666667 336 234.6666666666667H304C304 261.12 282.4533333333333 282.6666666666667 256 282.6666666666667S208 261.12 208 234.6666666666667H176C176 259.6266666666667 156.8 280.3200000000001 132.0533333333333 282.4533333333334C110.9333333333333 237.6533333333334 98.7733333333333 189.2266666666667 96 139.9466666666667L128 171.9466666666667L192 107.9466666666667z" /></svg>