<?xml version="1.0" encoding="UTF-8"?><!DOCTYPE svg PUBLIC "-//W3C//DTD SVG 1.1//EN" "http://www.w3.org/Graphics/SVG/1.1/DTD/svg11.dtd"><svg xmlns="http://www.w3.org/2000/svg" xmlns:xlink="http://www.w3.org/1999/xlink" version="1.1" width="512" height="512" viewBox="0 0 512 512">    <path fill="#ffffff" transform="scale(1, -1) translate(0, -448)" glyph-name="dice-4" unicode="&#xF1CD;" horiz-adv-x="512" d=" M106.6666666666667 384H405.3333333333333C428.8 384 448 364.8 448 341.3333333333334V42.6666666666667C448 19.2 428.8 0 405.3333333333333 0H106.6666666666667C83.2 0 64 19.2 64 42.6666666666667V341.3333333333334C64 364.8 83.2 384 106.6666666666667 384M149.3333333333333 341.3333333333334C125.8666666666667 341.3333333333334 106.6666666666667 322.1333333333334 106.6666666666667 298.6666666666667S125.8666666666667 256 149.3333333333333 256S192 275.2000000000001 192 298.6666666666667S172.8 341.3333333333334 149.3333333333333 341.3333333333334M362.6666666666667 128C339.2 128 320 108.8 320 85.3333333333334S339.2 42.6666666666667 362.6666666666667 42.6666666666667S405.3333333333333 61.8666666666667 405.3333333333333 85.3333333333334S386.1333333333334 128 362.6666666666667 128M362.6666666666667 341.3333333333334C339.2 341.3333333333334 320 322.1333333333334 320 298.6666666666667S339.2 256 362.6666666666667 256S405.3333333333333 275.2000000000001 405.3333333333333 298.6666666666667S386.1333333333334 341.3333333333334 362.6666666666667 341.3333333333334M149.3333333333333 128C125.8666666666667 128 106.6666666666667 108.8 106.6666666666667 85.3333333333334S125.8666666666667 42.6666666666667 149.3333333333333 42.6666666666667S192 61.8666666666667 192 85.3333333333334S172.8 128 149.3333333333333 128z" /></svg>