<?xml version="1.0" encoding="UTF-8"?><!DOCTYPE svg PUBLIC "-//W3C//DTD SVG 1.1//EN" "http://www.w3.org/Graphics/SVG/1.1/DTD/svg11.dtd"><svg xmlns="http://www.w3.org/2000/svg" xmlns:xlink="http://www.w3.org/1999/xlink" version="1.1" width="512" height="512" viewBox="0 0 512 512">    <path fill="#ffffff" transform="scale(1, -1) translate(0, -448)" glyph-name="ruby" unicode="&#xFD09;" horiz-adv-x="512" d=" M401.0666666666667 403.8400000000001C454.8266666666667 394.6666666666667 470.1866666666666 357.76 469.3333333333333 319.1466666666667V320L445.0133333333333 1.4933333333333L129.7066666666667 -20.0533333333333H129.92C103.68 -18.9866666666667 45.44 -16.4266666666666 42.6666666666667 65.0666666666666L71.8933333333333 118.4L130.9866666666667 -19.4133333333334L181.3333333333333 143.1466666666667L180.2666666666667 142.9333333333333L180.6933333333333 143.36L345.1733333333333 90.88L302.72 256.8533333333334L459.52 266.6666666666667L336 367.7866666666667L401.0666666666667 404.0533333333334V403.8400000000001M42.6666666666667 65.92V65.4933333333333V65.92M133.9733333333333 315.0933333333334C197.12 378.0266666666667 278.8266666666667 415.1466666666667 310.1866666666666 383.36C341.3333333333333 352 308.48 274.7733333333333 245.3333333333333 212.0533333333334C181.3333333333333 149.3333333333334 100.9066666666667 110.08 69.5466666666667 141.6533333333334C38.1866666666667 173.4400000000001 70.4 252.3733333333334 133.76 315.0933333333334H133.9733333333333z" /></svg>