<?xml version="1.0" encoding="UTF-8"?><!DOCTYPE svg PUBLIC "-//W3C//DTD SVG 1.1//EN" "http://www.w3.org/Graphics/SVG/1.1/DTD/svg11.dtd"><svg xmlns="http://www.w3.org/2000/svg" xmlns:xlink="http://www.w3.org/1999/xlink" version="1.1" width="512" height="512" viewBox="0 0 512 512">    <path fill="#ffffff" transform="scale(1, -1) translate(0, -448)" glyph-name="cash-multiple" unicode="&#xF116;" horiz-adv-x="512" d=" M106.6666666666667 320H490.6666666666666V64H106.6666666666667V320M298.6666666666667 256C334.08 256 362.6666666666667 227.4133333333334 362.6666666666667 192S334.08 128 298.6666666666667 128S234.6666666666667 156.5866666666667 234.6666666666667 192S263.2533333333334 256 298.6666666666667 256M192 277.3333333333334C192 253.8666666666667 172.8 234.6666666666667 149.3333333333333 234.6666666666667V149.3333333333334C172.8 149.3333333333334 192 130.1333333333333 192 106.6666666666667H405.3333333333333C405.3333333333333 130.1333333333333 424.5333333333333 149.3333333333334 448 149.3333333333334V234.6666666666667C424.5333333333333 234.6666666666667 405.3333333333333 253.8666666666667 405.3333333333333 277.3333333333334H192M21.3333333333333 234.6666666666667H64V21.3333333333334H405.3333333333333V-21.3333333333333H21.3333333333333V234.6666666666667z" /></svg>