<?xml version="1.0" encoding="UTF-8"?><!DOCTYPE svg PUBLIC "-//W3C//DTD SVG 1.1//EN" "http://www.w3.org/Graphics/SVG/1.1/DTD/svg11.dtd"><svg xmlns="http://www.w3.org/2000/svg" xmlns:xlink="http://www.w3.org/1999/xlink" version="1.1" width="512" height="512" viewBox="0 0 512 512">    <path fill="#ffffff" transform="scale(1, -1) translate(0, -448)" glyph-name="map-plus" unicode="&#xF982;" horiz-adv-x="512" d=" M192 384L71.68 343.4666666666667C67.4133333333333 341.9733333333334 64 338.1333333333334 64 333.2266666666667V10.6666666666667C64 4.6933333333333 68.6933333333333 0 74.6666666666667 0C75.7333333333333 0 76.8 0 78.08 0.64L192 44.8000000000001L280.7466666666667 13.6533333333334C278.6133333333334 23.0400000000001 277.3333333333333 32.8533333333334 277.3333333333333 42.6666666666667C277.3333333333333 47.5733333333334 277.3333333333333 52.48 278.1866666666666 57.6L192 87.4666666666667V341.3333333333334L320 296.5333333333334V137.3866666666667C342.8266666666667 157.8666666666667 372.6933333333333 170.6666666666668 405.3333333333333 170.6666666666668C420.2666666666667 170.6666666666668 434.56 167.8933333333334 448 162.9866666666667V373.3333333333334C448 379.3066666666667 443.3066666666667 384 437.3333333333333 384H433.92L320 339.2000000000001L192 384M384 128V64H320V21.3333333333334H384V-42.6666666666666H426.6666666666667V21.3333333333334H490.6666666666666V64H426.6666666666667V128H384z" /></svg>