<?xml version="1.0" encoding="UTF-8"?><!DOCTYPE svg PUBLIC "-//W3C//DTD SVG 1.1//EN" "http://www.w3.org/Graphics/SVG/1.1/DTD/svg11.dtd"><svg xmlns="http://www.w3.org/2000/svg" xmlns:xlink="http://www.w3.org/1999/xlink" version="1.1" width="512" height="512" viewBox="0 0 512 512">    <path fill="#ffffff" transform="scale(1, -1) translate(0, -448)" glyph-name="table-row-plus-before" unicode="&#xF4F4;" horiz-adv-x="512" d=" M469.3333333333333 149.3333333333334C469.3333333333333 172.8 450.1333333333334 192 426.6666666666667 192H85.3333333333333C61.8666666666667 192 42.6666666666667 172.8 42.6666666666667 149.3333333333334V0H85.3333333333333V42.6666666666667H170.6666666666667V0H213.3333333333333V42.6666666666667H298.6666666666667V0H341.3333333333333V42.6666666666667H426.6666666666667V0H469.3333333333333V149.3333333333334M85.3333333333333 149.3333333333334H170.6666666666667V85.3333333333334H85.3333333333333V149.3333333333334M213.3333333333333 149.3333333333334H298.6666666666667V85.3333333333334H213.3333333333333V149.3333333333334M426.6666666666667 149.3333333333334V85.3333333333334H341.3333333333333V149.3333333333334H426.6666666666667M234.6666666666667 234.6666666666667H277.3333333333333V298.6666666666667H341.3333333333333V341.3333333333334H277.3333333333333V405.3333333333333H234.6666666666667V341.3333333333334H170.6666666666667V298.6666666666667H234.6666666666667V234.6666666666667z" /></svg>