<?xml version="1.0" encoding="UTF-8"?><!DOCTYPE svg PUBLIC "-//W3C//DTD SVG 1.1//EN" "http://www.w3.org/Graphics/SVG/1.1/DTD/svg11.dtd"><svg xmlns="http://www.w3.org/2000/svg" xmlns:xlink="http://www.w3.org/1999/xlink" version="1.1" width="512" height="512" viewBox="0 0 512 512">    <path fill="#ffffff" transform="scale(1, -1) translate(0, -448)" glyph-name="cellphone-key" unicode="&#xF94D;" horiz-adv-x="512" d=" M149.3333333333333 426.6666666666667C125.8666666666667 426.6666666666667 106.6666666666667 407.4666666666667 106.6666666666667 384V298.6666666666667H149.3333333333333V362.6666666666667H362.6666666666667V21.3333333333334H149.3333333333333V85.3333333333334H106.6666666666667V0C106.6666666666667 -23.4666666666667 125.8666666666667 -42.6666666666666 149.3333333333333 -42.6666666666666H362.6666666666667C386.1333333333334 -42.6666666666666 405.3333333333333 -23.4666666666667 405.3333333333333 0V384C405.3333333333333 407.4666666666667 386.1333333333334 426.6666666666667 362.6666666666667 426.6666666666667H149.3333333333333M128 256C92.5866666666667 256 64 227.4133333333334 64 192S92.5866666666667 128 128 128C155.9466666666667 128 179.6266666666667 145.7066666666667 188.3733333333333 170.6666666666667H234.6666666666667V128H277.3333333333333V170.6666666666667H298.6666666666667V213.3333333333334H188.3733333333333C179.6266666666667 238.2933333333334 155.9466666666667 256 128 256M128 213.3333333333334C139.7333333333333 213.3333333333334 149.3333333333333 203.7333333333334 149.3333333333333 192S139.7333333333333 170.6666666666667 128 170.6666666666667S106.6666666666667 180.2666666666667 106.6666666666667 192S116.2666666666667 213.3333333333334 128 213.3333333333334z" /></svg>