<?xml version="1.0" encoding="UTF-8"?><!DOCTYPE svg PUBLIC "-//W3C//DTD SVG 1.1//EN" "http://www.w3.org/Graphics/SVG/1.1/DTD/svg11.dtd"><svg xmlns="http://www.w3.org/2000/svg" xmlns:xlink="http://www.w3.org/1999/xlink" version="1.1" width="512" height="512" viewBox="0 0 512 512">    <path fill="#ffffff" transform="scale(1, -1) translate(0, -448)" glyph-name="flower-tulip-outline" unicode="&#xF9F1;" horiz-adv-x="512" d=" M64 170.6666666666667C64 64.64 149.9733333333333 -21.3333333333333 256 -21.3333333333333C256 84.6933333333333 170.0266666666667 170.6666666666667 64 170.6666666666667M116.0533333333333 118.6133333333334C156.8 103.4666666666667 188.8 71.4666666666667 203.9466666666666 30.72C163.2 45.8666666666667 131.2 77.8666666666667 116.0533333333333 118.6133333333334M256 -21.3333333333333C362.0266666666667 -21.3333333333333 448 64.64 448 170.6666666666667C341.9733333333334 170.6666666666667 256 84.6933333333333 256 -21.3333333333333M307.6266666666667 30.5066666666667C322.3466666666667 71.68 354.9866666666667 104.3200000000001 396.16 119.04C381.0133333333333 78.08 348.5866666666667 45.6533333333334 307.6266666666667 30.5066666666667M256 149.3333333333334C326.6133333333334 149.3333333333334 384 206.72 384 277.3333333333334V384C368.2133333333334 384 352.64 381.44 337.92 375.68C326.1866666666666 370.7733333333333 315.7333333333334 363.52 306.9866666666667 354.3466666666667L256 405.3333333333333L205.0133333333333 354.3466666666667C196.2666666666667 363.52 185.8133333333333 370.7733333333333 174.08 375.68C159.36 381.44 143.7866666666667 384 128 384V277.3333333333334C128 206.72 185.3866666666667 149.3333333333334 256 149.3333333333334M170.6666666666667 328.32L204.16 293.12L256 344.9600000000001L307.84 293.12L341.3333333333333 328.32V277.3333333333334C341.3333333333333 230.1866666666667 303.1466666666667 192 256 192S170.6666666666667 230.1866666666667 170.6666666666667 277.3333333333334V328.32z" /></svg>