<?xml version="1.0" encoding="UTF-8"?><!DOCTYPE svg PUBLIC "-//W3C//DTD SVG 1.1//EN" "http://www.w3.org/Graphics/SVG/1.1/DTD/svg11.dtd"><svg xmlns="http://www.w3.org/2000/svg" xmlns:xlink="http://www.w3.org/1999/xlink" version="1.1" width="512" height="512" viewBox="0 0 512 512">    <path fill="#ffffff" transform="scale(1, -1) translate(0, -448)" glyph-name="pencil-lock" unicode="&#xF3EE;" horiz-adv-x="512" d=" M117.3333333333333 405.3333333333333C87.8933333333333 405.3333333333333 64 381.44 64 352V341.3333333333334C52.2666666666667 341.3333333333334 42.6666666666667 331.7333333333334 42.6666666666667 320V234.6666666666667C42.6666666666667 222.9333333333333 52.2666666666667 213.3333333333334 64 213.3333333333334H170.6666666666667C182.4 213.3333333333334 192 222.9333333333333 192 234.6666666666667V320C192 331.7333333333334 182.4 341.3333333333334 170.6666666666667 341.3333333333334V352C170.6666666666667 381.44 146.7733333333333 405.3333333333333 117.3333333333333 405.3333333333333M117.3333333333333 384C135.04 384 149.3333333333333 369.7066666666667 149.3333333333333 352V341.3333333333334H85.3333333333333V352C85.3333333333333 369.7066666666667 99.6266666666667 384 117.3333333333333 384M419.4133333333333 384C413.8666666666666 384 408.7466666666667 382.0800000000001 404.6933333333333 378.0266666666667L365.44 338.56L445.44 258.56L484.6933333333333 298.0266666666667C493.0133333333333 306.3466666666667 493.0133333333333 320 484.6933333333333 327.8933333333333L434.7733333333333 378.0266666666667C430.5066666666667 382.08 424.7466666666667 384 419.4133333333333 384M342.6133333333333 315.9466666666667L106.6666666666667 80V0H186.6666666666667L422.6133333333333 235.9466666666667L342.6133333333333 315.9466666666667z" /></svg>