<?xml version="1.0" encoding="UTF-8"?><!DOCTYPE svg PUBLIC "-//W3C//DTD SVG 1.1//EN" "http://www.w3.org/Graphics/SVG/1.1/DTD/svg11.dtd"><svg xmlns="http://www.w3.org/2000/svg" xmlns:xlink="http://www.w3.org/1999/xlink" version="1.1" width="512" height="512" viewBox="0 0 512 512">    <path fill="#ffffff" transform="scale(1, -1) translate(0, -448)" glyph-name="filmstrip-off" unicode="&#xF231;" horiz-adv-x="512" d=" M21.3333333333333 356.9066666666667L48.64 384L448 -15.36L420.9066666666667 -42.6666666666666L341.3333333333333 36.9066666666667V0H170.6666666666667V42.6666666666667H128V0H85.3333333333333V292.9066666666667L21.3333333333333 356.9066666666667M384 256V298.6666666666667H341.3333333333333V256H384M384 170.6666666666667V213.3333333333334H341.3333333333333V170.6666666666667H384M384 128H358.8266666666667L145.4933333333334 341.3333333333334H170.6666666666667V384H341.3333333333333V341.3333333333334H384V384H426.6666666666667V60.16L384 102.8266666666667V128M170.6666666666667 170.6666666666667V207.5733333333334L164.9066666666667 213.3333333333334H128V170.6666666666667H170.6666666666667M170.6666666666667 85.3333333333334V128H128V85.3333333333334H170.6666666666667M128 384V358.8266666666667L102.8266666666667 384H128z" /></svg>