<?xml version="1.0" encoding="UTF-8"?><!DOCTYPE svg PUBLIC "-//W3C//DTD SVG 1.1//EN" "http://www.w3.org/Graphics/SVG/1.1/DTD/svg11.dtd"><svg xmlns="http://www.w3.org/2000/svg" xmlns:xlink="http://www.w3.org/1999/xlink" version="1.1" width="512" height="512" viewBox="0 0 512 512">    <path fill="#ffffff" transform="scale(1, -1) translate(0, -448)" glyph-name="hat-fedora" unicode="&#xFB80;" horiz-adv-x="512" d=" M407.68 193.7066666666667C408.1066666666667 198.1866666666667 408.32 202.6666666666667 408.32 207.1466666666667C408.32 280.3200000000001 377.8133333333334 359.6800000000001 347.3066666666667 359.6800000000001S286.2933333333333 329.1733333333334 256 329.1733333333334C225.4933333333334 329.1733333333334 194.9866666666667 359.68 164.48 359.68C133.9733333333333 359.68 103.68 281.8133333333334 103.68 207.1466666666667C103.68 202.6666666666666 103.68 198.1866666666667 104.1066666666666 193.7066666666667C154.0266666666667 182.4 204.8 176.64 256 176.8533333333334C308.2666666666667 176.8533333333334 359.04 182.6133333333334 407.68 193.7066666666667M73.6 60.16C192 24.5333333333333 319.1466666666667 24.3200000000001 438.1866666666666 60.16C447.1466666666667 63.1466666666667 455.04 68.9066666666667 460.5866666666666 76.5866666666667C466.1333333333333 84.2666666666667 469.3333333333333 93.6533333333334 469.3333333333333 103.04C469.3333333333333 112.64 466.3466666666666 121.8133333333333 461.0133333333333 129.7066666666667C455.4666666666666 137.3866666666667 448 143.1466666666667 438.6133333333333 146.3466666666666C381.0133333333333 128 320 118.4 256 118.4C192 118.4 130.7733333333333 128 73.1733333333333 146.3466666666666C64 143.1466666666667 56.5333333333333 137.1733333333333 50.9866666666666 129.4933333333333C45.6533333333333 121.8133333333333 42.6666666666666 112.64 42.6666666666666 103.04C42.6666666666666 82.9866666666666 55.68 66.1333333333333 73.5999999999999 60.16z" /></svg>