<?xml version="1.0" encoding="UTF-8"?><!DOCTYPE svg PUBLIC "-//W3C//DTD SVG 1.1//EN" "http://www.w3.org/Graphics/SVG/1.1/DTD/svg11.dtd"><svg xmlns="http://www.w3.org/2000/svg" xmlns:xlink="http://www.w3.org/1999/xlink" version="1.1" width="512" height="512" viewBox="0 0 512 512">    <path fill="#ffffff" transform="scale(1, -1) translate(0, -448)" glyph-name="diving-snorkel" unicode="&#xFDA1;" horiz-adv-x="512" d=" M341.3333333333333 384H85.3333333333333C61.8666666666667 384 42.6666666666667 364.8 42.6666666666667 341.3333333333334V234.6666666666667C42.6666666666667 211.2 61.8666666666667 192 85.3333333333333 192H152.5333333333333C161.4933333333334 192 169.6 186.88 172.8 178.56C180.0533333333333 156.16 204.3733333333333 144 226.56 151.2533333333333C239.5733333333333 155.52 249.6 165.76 253.8666666666666 178.56C257.0666666666666 186.88 265.1733333333333 192 274.1333333333333 192H341.3333333333333C364.8 192 384 211.2 384 234.6666666666667V341.3333333333334C384 364.8 364.8 384 341.3333333333333 384M341.3333333333333 234.6666666666667H242.1333333333334C236.8 246.1866666666667 225.92 254.08 213.3333333333333 256C200.7466666666667 254.08 189.8666666666667 246.1866666666667 184.5333333333333 234.6666666666667H85.3333333333333V341.3333333333334H341.3333333333333V234.6666666666667M469.3333333333333 405.3333333333333V117.3333333333334C469.3333333333333 40.7466666666667 407.2533333333334 -21.3333333333333 330.6666666666667 -21.3333333333333C294.1866666666666 -21.3333333333333 259.2 -6.8266666666667 233.1733333333333 18.7733333333333C190.9333333333333 8.96 146.7733333333333 25.8133333333333 121.8133333333333 61.44L162.56 79.1466666666667C181.3333333333333 59.3066666666666 209.92 53.3333333333333 234.6666666666667 63.9999999999999C238.9333333333333 65.92 242.9866666666667 68.2666666666666 246.6133333333334 71.0399999999999C264.5333333333333 84.2666666666666 274.56 105.8133333333332 272.64 127.9999999999999L313.3866666666667 145.7066666666666C322.1333333333334 105.8133333333332 307.4133333333334 63.9999999999999 275.2000000000001 39.0399999999999C291.4133333333334 27.5199999999999 310.8266666666667 21.3333333333333 330.6666666666667 21.3333333333333C384 21.3333333333333 426.6666666666667 63.9999999999999 426.6666666666667 117.3333333333333V405.3333333333333H469.3333333333333z" /></svg>