<?xml version="1.0" encoding="UTF-8"?><!DOCTYPE svg PUBLIC "-//W3C//DTD SVG 1.1//EN" "http://www.w3.org/Graphics/SVG/1.1/DTD/svg11.dtd"><svg xmlns="http://www.w3.org/2000/svg" xmlns:xlink="http://www.w3.org/1999/xlink" version="1.1" width="512" height="512" viewBox="0 0 512 512">    <path fill="#ffffff" transform="scale(1, -1) translate(0, -448)" glyph-name="magnify-close" unicode="&#xF97F;" horiz-adv-x="512" d=" M192 405.3333333333333C274.56 405.3333333333333 341.3333333333333 338.56 341.3333333333333 256C341.3333333333333 224 330.6666666666667 192 311.68 166.6133333333334L328.7466666666667 149.3333333333333H341.3333333333333L469.3333333333333 21.3333333333334L426.6666666666667 -21.3333333333333L298.6666666666667 106.6666666666667V119.2533333333333L281.3866666666667 136.3200000000001C256 117.3333333333334 224 106.6666666666667 192 106.6666666666667C109.44 106.6666666666667 42.6666666666667 173.44 42.6666666666667 256S109.44 405.3333333333333 192 405.3333333333333M237.2266666666667 331.52L192 286.0800000000001L146.7733333333333 331.52L116.48 301.2266666666667L161.92 256L116.48 210.7733333333333L146.7733333333333 180.48L192 225.92L237.2266666666667 180.48L267.52 210.7733333333334L222.08 256L267.52 301.2266666666667L237.2266666666667 331.52z" /></svg>