<?xml version="1.0" encoding="UTF-8"?><!DOCTYPE svg PUBLIC "-//W3C//DTD SVG 1.1//EN" "http://www.w3.org/Graphics/SVG/1.1/DTD/svg11.dtd"><svg xmlns="http://www.w3.org/2000/svg" xmlns:xlink="http://www.w3.org/1999/xlink" version="1.1" width="512" height="512" viewBox="0 0 512 512">    <path fill="#ffffff" transform="scale(1, -1) translate(0, -448)" glyph-name="file-undo" unicode="&#xF8DB;" horiz-adv-x="512" d=" M277.3333333333333 256H394.6666666666667L277.3333333333333 373.3333333333334V256M128 405.3333333333333H298.6666666666667L426.6666666666667 277.3333333333334V21.3333333333334C426.6666666666667 -2.1333333333333 407.4666666666667 -21.3333333333333 384 -21.3333333333333H128C104.32 -21.3333333333333 85.3333333333333 -2.1333333333333 85.3333333333333 21.3333333333334V362.6666666666667C85.3333333333333 386.3466666666667 104.32 405.3333333333333 128 405.3333333333333M259.4133333333333 142.72C226.1333333333334 142.72 196.0533333333333 130.3466666666667 173.0133333333333 110.2933333333334L128 155.3066666666667V42.6666666666667H240.64L195.2000000000001 87.8933333333334C212.6933333333334 102.4 234.6666666666667 111.36 259.4133333333334 111.36C303.5733333333334 111.36 341.3333333333333 82.5600000000001 354.3466666666667 42.6666666666667L384.0000000000001 52.48C366.7200000000001 104.7466666666667 317.4400000000001 142.72 259.4133333333334 142.72z" /></svg>