<?xml version="1.0" encoding="UTF-8"?><!DOCTYPE svg PUBLIC "-//W3C//DTD SVG 1.1//EN" "http://www.w3.org/Graphics/SVG/1.1/DTD/svg11.dtd"><svg xmlns="http://www.w3.org/2000/svg" xmlns:xlink="http://www.w3.org/1999/xlink" version="1.1" width="512" height="512" viewBox="0 0 512 512">    <path fill="#ffffff" transform="scale(1, -1) translate(0, -448)" glyph-name="dice-d6" unicode="&#xF5EC;" horiz-adv-x="512" d=" M106.6666666666667 384H405.3333333333333C428.8 384 448 364.8 448 341.3333333333334V42.6666666666667C448 19.2 428.8 0 405.3333333333333 0H106.6666666666667C83.2 0 64 19.2 64 42.6666666666667V341.3333333333334C64 364.8 83.2 384 106.6666666666667 384M106.6666666666667 341.3333333333334V42.6666666666667H405.3333333333333V341.3333333333334H106.6666666666667M285.6533333333333 244.6933333333334C232.32 245.3333333333333 231.68 202.0266666666667 231.68 202.0266666666667S243.4133333333334 216.1066666666667 267.3066666666667 216.1066666666667C281.3866666666667 216.1066666666667 309.3333333333334 203.7333333333333 310.4 161.92C311.68 117.9733333333334 272.4266666666667 106.6666666666667 272.4266666666667 106.6666666666667S197.76 88.3200000000001 198.4 177.92C199.04 278.6133333333334 285.6533333333333 270.2933333333334 285.6533333333333 270.2933333333334V244.6933333333334M254.9333333333334 189.8666666666667C239.1466666666667 192 231.04 175.36 231.04 175.36L231.4666666666667 160C231.4666666666667 143.5733333333334 242.9866666666667 131.6266666666667 256 131.6266666666667C269.0133333333333 131.6266666666667 278.4000000000001 143.5733333333334 278.4000000000001 160S267.9466666666667 189.8666666666667 254.9333333333334 189.8666666666667z" /></svg>