<?xml version="1.0" encoding="UTF-8"?><!DOCTYPE svg PUBLIC "-//W3C//DTD SVG 1.1//EN" "http://www.w3.org/Graphics/SVG/1.1/DTD/svg11.dtd"><svg xmlns="http://www.w3.org/2000/svg" xmlns:xlink="http://www.w3.org/1999/xlink" version="1.1" width="512" height="512" viewBox="0 0 512 512">    <path fill="#ffffff" transform="scale(1, -1) translate(0, -448)" glyph-name="space-invaders" unicode="&#xFBA5;" horiz-adv-x="512" d=" M149.3333333333333 320H106.6666666666667V362.6666666666667H149.3333333333333V320M362.6666666666667 320H405.3333333333333V362.6666666666667H362.6666666666667V320M490.6666666666666 192V64H448V149.3333333333334H405.3333333333333V64H362.6666666666667V106.6666666666667H149.3333333333333V64H106.6666666666667V149.3333333333334H64V64H21.3333333333333V192H64V234.6666666666667H106.6666666666667V277.3333333333334H149.3333333333333V320H192V277.3333333333334H320V320H362.6666666666667V277.3333333333334H405.3333333333333V234.6666666666667H448V192H490.6666666666666M320 234.6666666666667V192H362.6666666666667V234.6666666666667H320M149.3333333333333 192H192V234.6666666666667H149.3333333333333V192M234.6666666666667 64H149.3333333333333V21.3333333333334H234.6666666666667V64M362.6666666666667 64H277.3333333333333V21.3333333333334H362.6666666666667V64z" /></svg>