<?xml version="1.0" encoding="UTF-8"?><!DOCTYPE svg PUBLIC "-//W3C//DTD SVG 1.1//EN" "http://www.w3.org/Graphics/SVG/1.1/DTD/svg11.dtd"><svg xmlns="http://www.w3.org/2000/svg" xmlns:xlink="http://www.w3.org/1999/xlink" version="1.1" width="512" height="512" viewBox="0 0 512 512">    <path fill="#ffffff" transform="scale(1, -1) translate(0, -448)" glyph-name="car-sports" unicode="&#xF7AB;" horiz-adv-x="512" d=" M256 266.6666666666667H149.3333333333333L85.3333333333333 213.3333333333334H64C40.32 213.3333333333334 21.3333333333333 194.3466666666667 21.3333333333333 170.6666666666667V106.6666666666667H67.6266666666667C76.8 81.0666666666667 100.9066666666667 64 128 64S179.2 81.0666666666667 188.16 106.6666666666667H323.6266666666667C332.8 81.0666666666667 356.9066666666667 64 384 64S435.2 81.0666666666667 444.16 106.6666666666667H490.6666666666666V128C490.6666666666666 151.68 468.6933333333333 159.36 448 170.6666666666667L256 266.6666666666667M112 192L160 234.6666666666667H245.3333333333333L330.6666666666667 192H112M128 160C145.7066666666667 160 160 145.7066666666667 160 128S145.7066666666667 96 128 96S96 110.2933333333334 96 128S110.2933333333333 160 128 160M384 160C401.7066666666666 160 416 145.7066666666667 416 128S401.7066666666666 96 384 96S352 110.2933333333334 352 128S366.2933333333334 160 384 160z" /></svg>