<?xml version="1.0" encoding="UTF-8"?><!DOCTYPE svg PUBLIC "-//W3C//DTD SVG 1.1//EN" "http://www.w3.org/Graphics/SVG/1.1/DTD/svg11.dtd"><svg xmlns="http://www.w3.org/2000/svg" xmlns:xlink="http://www.w3.org/1999/xlink" version="1.1" width="512" height="512" viewBox="0 0 512 512">    <path fill="#ffffff" transform="scale(1, -1) translate(0, -448)" glyph-name="speaker-wireless" unicode="&#xF71E;" horiz-adv-x="512" d=" M428.16 41.1733333333333L398.08 71.2533333333333C429.0133333333333 101.9733333333334 448 144.8533333333334 448 192C448 239.36 429.0133333333333 282.0266666666667 398.08 312.7466666666667L428.16 342.8266666666667C466.7733333333333 304.2133333333334 490.6666666666666 250.88 490.6666666666666 192C490.6666666666666 133.12 466.7733333333333 79.7866666666668 428.16 41.1733333333333M367.7866666666667 101.5466666666666L337.7066666666667 131.6266666666667C353.0666666666667 146.9866666666667 362.6666666666667 168.3200000000001 362.6666666666667 192S353.0666666666667 237.0133333333333 337.7066666666667 252.3733333333334L367.7866666666667 282.4533333333334C391.04 259.2000000000001 405.3333333333333 227.2 405.3333333333333 192C405.3333333333333 156.8 391.04 124.8 367.7866666666667 101.5466666666666M85.3333333333333 384H256C279.4666666666667 384 298.6666666666667 364.8 298.6666666666667 341.3333333333334V42.6666666666667C298.6666666666667 19.2 279.4666666666667 0 256 0H85.3333333333333C61.8666666666667 0 42.6666666666667 19.2 42.6666666666667 42.6666666666667V341.3333333333334C42.6666666666667 364.8 61.8666666666667 384 85.3333333333333 384M170.6666666666667 341.3333333333334C147.2 341.3333333333334 128 322.1333333333334 128 298.6666666666667S147.2 256 170.6666666666667 256S213.3333333333333 275.2000000000001 213.3333333333333 298.6666666666667S194.1333333333333 341.3333333333334 170.6666666666667 341.3333333333334M170.6666666666667 213.3333333333334C123.52 213.3333333333334 85.3333333333333 175.1466666666667 85.3333333333333 128S123.52 42.6666666666667 170.6666666666667 42.6666666666667S256 80.8533333333334 256 128S217.8133333333333 213.3333333333334 170.6666666666667 213.3333333333334M170.6666666666667 170.6666666666667C194.1333333333333 170.6666666666667 213.3333333333333 151.4666666666667 213.3333333333333 128S194.1333333333333 85.3333333333334 170.6666666666667 85.3333333333334S128 104.5333333333333 128 128S147.2 170.6666666666667 170.6666666666667 170.6666666666667z" /></svg>