<?xml version="1.0" encoding="UTF-8"?><!DOCTYPE svg PUBLIC "-//W3C//DTD SVG 1.1//EN" "http://www.w3.org/Graphics/SVG/1.1/DTD/svg11.dtd"><svg xmlns="http://www.w3.org/2000/svg" xmlns:xlink="http://www.w3.org/1999/xlink" version="1.1" width="512" height="512" viewBox="0 0 512 512">    <path fill="#ffffff" transform="scale(1, -1) translate(0, -448)" glyph-name="cards-club" unicode="&#xF8CD;" horiz-adv-x="512" d=" M256 405.3333333333333C305.0666666666667 405.3333333333333 347.7333333333334 362.6666666666667 347.7333333333334 315.7333333333334C345.8133333333334 260.9066666666667 305.92 238.2933333333334 299.52 234.6666666666667C320.8533333333334 245.3333333333334 352 245.3333333333334 352 245.3333333333334C405.3333333333333 245.3333333333334 448 206.9333333333333 448 153.6S405.3333333333333 64 352 64C352 64 320 64 277.3333333333333 85.3333333333334C277.3333333333333 85.3333333333334 270.9333333333333 42.6666666666667 320 -21.3333333333333H192C241.0666666666667 42.6666666666667 234.6666666666667 85.3333333333334 234.6666666666667 85.3333333333334C192 64 160 64 160 64C106.6666666666667 64 64 100.2666666666667 64 153.6S106.6666666666667 245.3333333333334 160 245.3333333333334C160 245.3333333333334 191.1466666666667 245.3333333333334 212.48 234.6666666666667C206.08 238.2933333333334 166.1866666666667 260.9066666666667 164.2666666666667 315.7333333333334C164.2666666666667 362.6666666666667 206.9333333333333 405.3333333333333 256 405.3333333333333z" /></svg>