<?xml version="1.0" encoding="UTF-8"?><!DOCTYPE svg PUBLIC "-//W3C//DTD SVG 1.1//EN" "http://www.w3.org/Graphics/SVG/1.1/DTD/svg11.dtd"><svg xmlns="http://www.w3.org/2000/svg" xmlns:xlink="http://www.w3.org/1999/xlink" version="1.1" width="512" height="512" viewBox="0 0 512 512">    <path fill="#ffffff" transform="scale(1, -1) translate(0, -448)" glyph-name="chess-queen" unicode="&#xF859;" horiz-adv-x="512" d=" M384 384C407.4666666666667 384 426.6666666666667 364.8 426.6666666666667 341.3333333333334C426.6666666666667 324.0533333333334 416 309.3333333333334 401.7066666666666 302.5066666666667L362.6666666666667 167.4666666666667V64H149.3333333333333V167.4666666666667L110.2933333333333 302.5066666666667C96 309.3333333333334 85.3333333333333 324.0533333333334 85.3333333333333 341.3333333333334C85.3333333333333 364.8 104.5333333333333 384 128 384S170.6666666666667 364.8 170.6666666666667 341.3333333333334C170.6666666666667 330.6666666666667 166.8266666666667 321.0666666666667 160 313.6L219.7333333333334 248.5333333333334L231.04 328.1066666666667C220.3733333333333 335.7866666666667 213.3333333333333 348.3733333333334 213.3333333333333 362.6666666666667C213.3333333333333 386.1333333333334 232.5333333333334 405.3333333333333 256 405.3333333333333S298.6666666666667 386.1333333333334 298.6666666666667 362.6666666666667C298.6666666666667 348.3733333333334 291.6266666666667 335.7866666666667 280.96 328.1066666666667L292.2666666666667 248.5333333333334L351.36 313.8133333333334C345.1733333333333 321.28 341.3333333333333 330.6666666666667 341.3333333333333 341.3333333333334C341.3333333333333 364.8 360.5333333333333 384 384 384M106.6666666666667 21.3333333333334H405.3333333333333V-21.3333333333333H106.6666666666667V21.3333333333334z" /></svg>