<?xml version="1.0" encoding="UTF-8"?><!DOCTYPE svg PUBLIC "-//W3C//DTD SVG 1.1//EN" "http://www.w3.org/Graphics/SVG/1.1/DTD/svg11.dtd"><svg xmlns="http://www.w3.org/2000/svg" xmlns:xlink="http://www.w3.org/1999/xlink" version="1.1" width="512" height="512" viewBox="0 0 512 512">    <path fill="#ffffff" transform="scale(1, -1) translate(0, -448)" glyph-name="hexagon-slice-2" unicode="&#xFAC3;" horiz-adv-x="512" d=" M384 119.8933333333333L256 192V334.5066666666667L384 262.6133333333334V119.8933333333333M448 95.9999999999999C448 87.8933333333333 443.52 80.8533333333332 436.6933333333333 77.2266666666666L268.16 -17.4933333333334C264.7466666666666 -20.0533333333334 260.48 -21.3333333333334 256 -21.3333333333334C251.5199999999999 -21.3333333333334 247.2533333333333 -20.0533333333334 243.84 -17.4933333333334L75.3066666666666 77.2266666666666C68.48 80.8533333333334 63.9999999999999 87.8933333333333 63.9999999999999 95.9999999999999V288C63.9999999999999 296.1066666666666 68.4799999999999 303.1466666666666 75.3066666666666 306.7733333333333L243.84 401.4933333333333C247.2533333333333 404.0533333333333 251.5199999999999 405.3333333333333 256 405.3333333333333C260.48 405.3333333333333 264.7466666666666 404.0533333333333 268.16 401.4933333333333L436.6933333333333 306.7733333333333C443.52 303.1466666666666 448 296.1066666666666 448 288V95.9999999999999M256 359.4666666666667L106.6666666666667 275.4133333333334V108.5866666666667L256 24.5333333333333L405.3333333333333 108.5866666666667V275.4133333333334L256 359.4666666666667z" /></svg>