<?xml version="1.0" encoding="UTF-8"?><!DOCTYPE svg PUBLIC "-//W3C//DTD SVG 1.1//EN" "http://www.w3.org/Graphics/SVG/1.1/DTD/svg11.dtd"><svg xmlns="http://www.w3.org/2000/svg" xmlns:xlink="http://www.w3.org/1999/xlink" version="1.1" width="512" height="512" viewBox="0 0 512 512">    <path fill="#ffffff" transform="scale(1, -1) translate(0, -448)" glyph-name="tag-multiple" unicode="&#xF4FB;" horiz-adv-x="512" d=" M117.3333333333333 256C135.04 256 149.3333333333333 270.2933333333334 149.3333333333333 288S135.04 320 117.3333333333333 320S85.3333333333333 305.7066666666667 85.3333333333333 288S99.6266666666667 256 117.3333333333333 256M371.4133333333333 200.96C379.0933333333333 193.28 384 182.6133333333334 384 170.6666666666667C384 158.9333333333333 379.3066666666667 148.2666666666667 371.4133333333333 140.5866666666667L264.7466666666667 33.92C257.0666666666667 26.24 246.4 21.3333333333334 234.6666666666667 21.3333333333334C222.9333333333333 21.3333333333334 212.2666666666667 26.0266666666666 204.3733333333333 33.92L55.2533333333333 183.04C47.36 190.9333333333333 42.6666666666667 201.6 42.6666666666667 213.3333333333334V320C42.6666666666667 343.68 61.6533333333333 362.6666666666667 85.3333333333333 362.6666666666667H192C203.7333333333334 362.6666666666667 214.4 357.9733333333334 222.08 350.2933333333334L371.4133333333333 200.96M288.8533333333333 326.1866666666667L310.1866666666666 347.52L456.7466666666667 200.96C464.64 193.28 469.3333333333333 182.4 469.3333333333333 170.6666666666667C469.3333333333333 158.9333333333333 464.64 148.2666666666667 456.96 140.5866666666667L342.1866666666667 25.8133333333334L320.8533333333334 47.1466666666667L442.6666666666667 170.6666666666667L288.8533333333333 326.1866666666667z" /></svg>