<?xml version="1.0" encoding="UTF-8"?><!DOCTYPE svg PUBLIC "-//W3C//DTD SVG 1.1//EN" "http://www.w3.org/Graphics/SVG/1.1/DTD/svg11.dtd"><svg xmlns="http://www.w3.org/2000/svg" xmlns:xlink="http://www.w3.org/1999/xlink" version="1.1" width="512" height="512" viewBox="0 0 512 512">    <path fill="#ffffff" transform="scale(1, -1) translate(0, -448)" glyph-name="jeepney" unicode="&#xF302;" horiz-adv-x="512" d=" M405.3333333333333 170.6666666666667V298.6666666666667H426.6666666666667V362.6666666666667H85.3333333333333V298.6666666666667H106.6666666666667V170.6666666666667H42.6666666666667C42.6666666666667 150.8266666666667 53.3333333333333 134.1866666666667 74.6666666666667 129.4933333333334V21.3333333333334C74.6666666666667 9.6 84.2666666666667 0 96 0H117.3333333333333C129.0666666666667 0 138.6666666666667 9.6 138.6666666666667 21.3333333333334V42.6666666666667H373.3333333333333V21.3333333333334C373.3333333333333 9.6 382.9333333333333 0 394.6666666666667 0H416C427.7333333333334 0 437.3333333333333 9.6 437.3333333333333 21.3333333333334V129.4933333333334C458.6666666666666 134.4 469.3333333333333 150.8266666666667 469.3333333333333 170.6666666666667H405.3333333333333M170.6666666666667 128C152.96 128 138.6666666666667 142.2933333333334 138.6666666666667 160S152.96 192 170.6666666666667 192S202.6666666666667 177.7066666666667 202.6666666666667 160S188.3733333333333 128 170.6666666666667 128M341.3333333333333 128C323.6266666666667 128 309.3333333333333 142.2933333333334 309.3333333333333 160S323.6266666666667 192 341.3333333333333 192S373.3333333333333 177.7066666666667 373.3333333333333 160S359.04 128 341.3333333333333 128M373.3333333333333 224C339.6266666666667 230.8266666666667 299.3066666666666 234.6666666666667 256 234.6666666666667S170.6666666666667 230.8266666666667 138.6666666666667 224V298.6666666666667H373.3333333333333V224z" /></svg>