<?xml version="1.0" encoding="UTF-8"?><!DOCTYPE svg PUBLIC "-//W3C//DTD SVG 1.1//EN" "http://www.w3.org/Graphics/SVG/1.1/DTD/svg11.dtd"><svg xmlns="http://www.w3.org/2000/svg" xmlns:xlink="http://www.w3.org/1999/xlink" version="1.1" width="512" height="512" viewBox="0 0 512 512">    <path fill="#ffffff" transform="scale(1, -1) translate(0, -448)" glyph-name="car-electric" unicode="&#xFB48;" horiz-adv-x="512" d=" M106.6666666666667 170.6666666666667L138.6666666666667 266.6666666666667H373.3333333333333L405.3333333333333 170.6666666666667M373.3333333333333 64C355.6266666666667 64 341.3333333333333 78.2933333333334 341.3333333333333 96S355.6266666666667 128 373.3333333333333 128S405.3333333333333 113.7066666666667 405.3333333333333 96S391.04 64 373.3333333333333 64M138.6666666666667 64C120.96 64 106.6666666666667 78.2933333333334 106.6666666666667 96S120.96 128 138.6666666666667 128S170.6666666666667 113.7066666666667 170.6666666666667 96S156.3733333333333 64 138.6666666666667 64M403.6266666666667 277.3333333333334C399.1466666666667 290.1333333333334 386.9866666666667 298.6666666666667 373.3333333333333 298.6666666666667H138.6666666666667C125.0133333333333 298.6666666666667 112.8533333333333 290.1333333333334 108.3733333333333 277.3333333333334L64 149.3333333333334V-21.3333333333333C64 -33.0666666666667 73.6 -42.6666666666666 85.3333333333333 -42.6666666666666H106.6666666666667C118.4 -42.6666666666666 128 -33.0666666666667 128 -21.3333333333333V0H384V-21.3333333333333C384 -33.0666666666667 393.6 -42.6666666666666 405.3333333333333 -42.6666666666666H426.6666666666667C438.4 -42.6666666666666 448 -33.0666666666667 448 -21.3333333333333V149.3333333333334M234.6666666666667 320V362.6666666666667H149.3333333333333L277.3333333333333 426.6666666666667V384H362.6666666666667L234.6666666666667 320z" /></svg>