<?xml version="1.0" encoding="UTF-8"?><!DOCTYPE svg PUBLIC "-//W3C//DTD SVG 1.1//EN" "http://www.w3.org/Graphics/SVG/1.1/DTD/svg11.dtd"><svg xmlns="http://www.w3.org/2000/svg" xmlns:xlink="http://www.w3.org/1999/xlink" version="1.1" width="512" height="512" viewBox="0 0 512 512">    <path fill="#ffffff" transform="scale(1, -1) translate(0, -448)" glyph-name="record-player" unicode="&#xF999;" horiz-adv-x="512" d=" M106.6666666666667 74.6666666666667C106.6666666666667 68.6933333333333 101.9733333333333 64 96 64H74.6666666666667C68.6933333333333 64 64 68.6933333333333 64 74.6666666666667V85.3333333333334H42.6666666666667C30.9333333333333 85.3333333333334 21.3333333333333 94.9333333333333 21.3333333333333 106.6666666666667V170.6666666666667C21.3333333333333 182.4 30.9333333333333 192 42.6666666666667 192H405.3333333333333V234.6666666666667H149.3333333333333L128 213.3333333333334V256C128 267.7333333333334 137.6 277.3333333333334 149.3333333333333 277.3333333333334H405.3333333333333V298.6666666666667H448V277.3333333333334C459.7333333333333 277.3333333333334 469.3333333333333 267.7333333333334 469.3333333333333 256V234.6666666666667H448V192H469.3333333333333C481.0666666666667 192 490.6666666666666 182.4 490.6666666666666 170.6666666666667V106.6666666666667C490.6666666666666 94.9333333333333 481.0666666666667 85.3333333333334 469.3333333333333 85.3333333333334H448V74.6666666666667C448 68.6933333333333 443.3066666666667 64 437.3333333333333 64H416C410.0266666666667 64 405.3333333333333 68.6933333333333 405.3333333333333 74.6666666666667V85.3333333333334H106.6666666666667V74.6666666666667M64 149.3333333333334V128H106.6666666666667V149.3333333333334H64M128 149.3333333333334V128H170.6666666666667V149.3333333333334H128M437.3333333333333 160C425.6 160 416 150.4 416 138.6666666666667S425.6 117.3333333333334 437.3333333333333 117.3333333333334S458.6666666666666 126.9333333333333 458.6666666666666 138.6666666666667S449.0666666666667 160 437.3333333333333 160z" /></svg>