<?xml version="1.0" encoding="UTF-8"?><!DOCTYPE svg PUBLIC "-//W3C//DTD SVG 1.1//EN" "http://www.w3.org/Graphics/SVG/1.1/DTD/svg11.dtd"><svg xmlns="http://www.w3.org/2000/svg" xmlns:xlink="http://www.w3.org/1999/xlink" version="1.1" width="512" height="512" viewBox="0 0 512 512">    <path fill="#ffffff" transform="scale(1, -1) translate(0, -448)" glyph-name="google" unicode="&#xF2AD;" horiz-adv-x="512" d=" M455.4666666666667 211.2H259.8400000000001V152.96H398.7200000000001C391.6800000000001 71.68 324.0533333333334 36.9066666666667 260.0533333333334 36.9066666666667C178.3466666666666 36.9066666666667 106.6666666666667 101.3333333333334 106.6666666666667 192C106.6666666666667 279.4666666666667 174.9333333333333 347.0933333333334 260.2666666666667 347.0933333333334C326.1866666666666 347.0933333333334 364.8 305.0666666666667 364.8 305.0666666666667L405.3333333333333 347.3066666666667S353.28 405.3333333333333 258.1333333333334 405.3333333333333C136.96 405.3333333333333 43.3066666666667 302.9333333333334 43.3066666666667 192C43.3066666666667 84.2666666666667 131.4133333333333 -21.3333333333333 261.3333333333333 -21.3333333333333C375.4666666666667 -21.3333333333333 458.6666666666666 56.96 458.6666666666666 172.5866666666667C458.6666666666666 197.12 455.4666666666667 211.2 455.4666666666667 211.2z" /></svg>