<?xml version="1.0" encoding="UTF-8"?><!DOCTYPE svg PUBLIC "-//W3C//DTD SVG 1.1//EN" "http://www.w3.org/Graphics/SVG/1.1/DTD/svg11.dtd"><svg xmlns="http://www.w3.org/2000/svg" xmlns:xlink="http://www.w3.org/1999/xlink" version="1.1" width="512" height="512" viewBox="0 0 512 512">    <path fill="#ffffff" transform="scale(1, -1) translate(0, -448)" glyph-name="television-classic-off" unicode="&#xF839;" horiz-adv-x="512" d=" M42.6666666666667 335.5733333333334L69.9733333333333 362.6666666666667L448 -15.36L420.9066666666667 -42.6666666666666L378.24 0H85.3333333333333C61.6533333333333 0 42.6666666666667 18.9866666666667 42.6666666666667 42.6666666666667V256C42.6666666666667 277.3333333333334 58.88 295.68 80 298.6666666666667L42.6666666666667 335.5733333333334M174.08 384L256 302.0800000000001L337.92 384L368 353.92L312.7466666666667 298.6666666666667H426.6666666666667C450.3466666666667 298.6666666666667 469.3333333333333 279.68 469.3333333333333 256V42.6666666666667C469.3333333333333 35.4133333333334 467.6266666666667 28.5866666666667 464.4266666666666 22.6133333333333L362.6666666666667 124.16V256H230.8266666666667L188.16 298.6666666666667H199.2533333333333L144 353.92L174.08 384M85.3333333333333 256V42.6666666666667H335.5733333333333L122.24 256H85.3333333333333M416 256C404.2666666666667 256 394.6666666666667 246.4000000000001 394.6666666666667 234.6666666666667S404.2666666666667 213.3333333333334 416 213.3333333333334S437.3333333333333 222.9333333333333 437.3333333333333 234.6666666666667S427.7333333333334 256 416 256M416 192C404.2666666666667 192 394.6666666666667 182.4 394.6666666666667 170.6666666666667S404.2666666666667 149.3333333333334 416 149.3333333333334S437.3333333333333 158.9333333333333 437.3333333333333 170.6666666666667S427.7333333333334 192 416 192z" /></svg>