<?xml version="1.0" encoding="UTF-8"?><!DOCTYPE svg PUBLIC "-//W3C//DTD SVG 1.1//EN" "http://www.w3.org/Graphics/SVG/1.1/DTD/svg11.dtd"><svg xmlns="http://www.w3.org/2000/svg" xmlns:xlink="http://www.w3.org/1999/xlink" version="1.1" width="512" height="512" viewBox="0 0 512 512">    <path fill="#ffffff" transform="scale(1, -1) translate(0, -448)" glyph-name="thumb-up-outline" unicode="&#xF514;" horiz-adv-x="512" d=" M106.6666666666667 256V0H21.3333333333333V256H106.6666666666667M192 0C168.5333333333333 0 149.3333333333333 19.2 149.3333333333333 42.6666666666667V256C149.3333333333333 267.7333333333334 154.0266666666667 278.4 161.92 286.0800000000001L302.2933333333333 426.6666666666667L324.9066666666667 404.0533333333334C330.6666666666667 398.2933333333334 334.2933333333333 390.4 334.2933333333333 381.6533333333333L333.6533333333333 374.8266666666667L313.3866666666667 277.3333333333334H448C471.6799999999999 277.3333333333334 490.6666666666666 258.1333333333334 490.6666666666666 234.6666666666667V192C490.6666666666666 186.4533333333334 489.6 181.3333333333334 487.6799999999999 176.4266666666667L423.2533333333334 26.0266666666666C416.8533333333333 10.6666666666667 401.7066666666666 0 384 0H192M192 42.6666666666667H384.64L448 192V234.6666666666667H260.48L284.5866666666667 348.1600000000001L192 255.36V42.6666666666667z" /></svg>