<?xml version="1.0" encoding="UTF-8"?><!DOCTYPE svg PUBLIC "-//W3C//DTD SVG 1.1//EN" "http://www.w3.org/Graphics/SVG/1.1/DTD/svg11.dtd"><svg xmlns="http://www.w3.org/2000/svg" xmlns:xlink="http://www.w3.org/1999/xlink" version="1.1" width="512" height="512" viewBox="0 0 512 512">    <path fill="#ffffff" transform="scale(1, -1) translate(0, -448)" glyph-name="database-search" unicode="&#xF865;" horiz-adv-x="512" d=" M398.5066666666667 185.1733333333334C360.9599999999999 222.72 300.16 222.5066666666667 262.8266666666667 184.96C225.28 147.4133333333334 225.28 86.6133333333334 262.8266666666667 49.28C294.6133333333334 17.7066666666667 343.68 12.16 381.6533333333333 35.84L448 -29.6533333333333L477.6533333333333 0L411.7333333333334 66.3466666666667C435.84 104.1066666666667 430.2933333333334 153.6 398.5066666666667 185.1733333333334M368.4266666666666 79.5733333333334C347.52 58.6666666666667 313.8133333333333 58.8800000000001 292.9066666666667 79.5733333333334C272.2133333333333 100.48 272.2133333333333 134.1866666666667 293.12 155.0933333333334C313.8133333333334 175.7866666666667 347.52 175.7866666666667 368.4266666666666 155.0933333333334C389.12 134.1866666666667 389.12 100.48 368.4266666666666 79.5733333333334M232.5333333333334 19.2C218.6666666666667 33.28 207.7866666666667 50.1333333333333 200.96 68.6933333333333C133.76 80 85.3333333333333 111.7866666666667 85.3333333333333 149.3333333333334V85.3333333333334C85.3333333333333 38.1866666666667 161.7066666666667 0 256 0C247.4666666666667 5.5466666666667 239.5733333333333 11.9466666666667 232.5333333333334 19.2M85.3333333333333 256V192C85.3333333333333 156.16 129.4933333333334 125.44 192 113.0666666666667V117.3333333333334C192 137.1733333333334 196.2666666666667 156.8 204.3733333333333 174.72C135.2533333333333 185.6 85.3333333333333 217.8133333333334 85.3333333333333 256M256 384C161.7066666666667 384 85.3333333333333 345.8133333333334 85.3333333333333 298.6666666666667C85.3333333333333 256 149.3333333333333 220.16 231.4666666666667 213.3333333333334H232.5333333333334C258.1333333333334 240.2133333333334 293.5466666666666 256 330.6666666666667 256C350.08 256 369.28 251.9466666666667 386.9866666666667 244.0533333333334C408.9600000000001 254.08 423.8933333333333 274.7733333333334 426.6666666666667 298.6666666666667C426.6666666666667 345.8133333333334 350.2933333333334 384 256 384z" /></svg>