<?xml version="1.0" encoding="UTF-8"?><!DOCTYPE svg PUBLIC "-//W3C//DTD SVG 1.1//EN" "http://www.w3.org/Graphics/SVG/1.1/DTD/svg11.dtd"><svg xmlns="http://www.w3.org/2000/svg" xmlns:xlink="http://www.w3.org/1999/xlink" version="1.1" width="512" height="512" viewBox="0 0 512 512">    <path fill="#ffffff" transform="scale(1, -1) translate(0, -448)" glyph-name="diving-scuba-tank" unicode="&#xFD9F;" horiz-adv-x="512" d=" M405.3333333333333 53.3333333333334C405.3333333333333 23.8933333333334 381.44 0 352 0S298.6666666666667 23.8933333333334 298.6666666666667 53.3333333333334C298.6666666666667 75.3066666666667 311.8933333333333 94.08 330.6666666666667 102.1866666666667V320H234.6666666666667V291.2000000000001C260.6933333333334 278.8266666666667 277.3333333333333 252.8 277.3333333333333 224V-21.3333333333333H128V224C128 252.8 144.64 278.8266666666667 170.6666666666667 291.2000000000001V320H128V362.6666666666667H170.6666666666667V373.3333333333334C170.6666666666667 391.04 184.96 405.3333333333333 202.6666666666667 405.3333333333333S234.6666666666667 391.04 234.6666666666667 373.3333333333334V362.6666666666667H330.6666666666667C354.1333333333334 362.6666666666667 373.3333333333333 343.4666666666667 373.3333333333333 320V102.1866666666667C392.1066666666667 94.08 405.3333333333333 75.3066666666666 405.3333333333333 53.3333333333334z" /></svg>