<?xml version="1.0" encoding="UTF-8"?><!DOCTYPE svg PUBLIC "-//W3C//DTD SVG 1.1//EN" "http://www.w3.org/Graphics/SVG/1.1/DTD/svg11.dtd"><svg xmlns="http://www.w3.org/2000/svg" xmlns:xlink="http://www.w3.org/1999/xlink" version="1.1" width="512" height="512" viewBox="0 0 512 512">    <path fill="#ffffff" transform="scale(1, -1) translate(0, -448)" glyph-name="emoticon-tongue" unicode="&#xF1F9;" horiz-adv-x="512" d=" M256 405.3333333333333C138.24 405.3333333333333 42.6666666666667 309.76 42.6666666666667 192S138.24 -21.3333333333333 256 -21.3333333333333S469.3333333333333 74.24 469.3333333333333 192S373.76 405.3333333333333 256 405.3333333333333M155.0933333333333 213.3333333333334C151.4666666666667 219.52 149.3333333333333 226.9866666666667 149.3333333333333 234.6666666666667C149.3333333333333 258.3466666666667 168.32 277.3333333333334 192 277.3333333333334C215.4666666666667 277.3333333333334 234.6666666666667 258.1333333333334 234.6666666666667 234.6666666666667C234.6666666666667 226.9866666666667 232.5333333333334 219.52 228.9066666666667 213.3333333333334C221.6533333333333 226.1333333333334 207.7866666666667 234.6666666666667 192 234.6666666666667S162.3466666666667 226.1333333333334 155.0933333333333 213.3333333333334M341.3333333333333 128H320C320 85.3333333333334 300.8 64 277.3333333333333 64S234.6666666666667 85.3333333333334 234.6666666666667 128H170.6666666666667V170.6666666666667H341.3333333333333V128M356.9066666666667 213.3333333333334C349.6533333333333 226.1333333333334 335.7866666666667 234.6666666666667 320 234.6666666666667S290.3466666666667 226.1333333333334 283.0933333333333 213.3333333333334C279.4666666666667 219.52 277.3333333333333 226.9866666666667 277.3333333333333 234.6666666666667C277.3333333333333 258.3466666666667 296.32 277.3333333333334 320 277.3333333333334C343.4666666666667 277.3333333333334 362.6666666666667 258.1333333333334 362.6666666666667 234.6666666666667C362.6666666666667 226.9866666666667 360.5333333333333 219.52 356.9066666666667 213.3333333333334z" /></svg>