<?xml version="1.0" encoding="UTF-8"?><!DOCTYPE svg PUBLIC "-//W3C//DTD SVG 1.1//EN" "http://www.w3.org/Graphics/SVG/1.1/DTD/svg11.dtd"><svg xmlns="http://www.w3.org/2000/svg" xmlns:xlink="http://www.w3.org/1999/xlink" version="1.1" width="512" height="512" viewBox="0 0 512 512">    <path fill="#ffffff" transform="scale(1, -1) translate(0, -448)" glyph-name="meetup" unicode="&#xFAD2;" horiz-adv-x="512" d=" M418.3466666666667 130.9866666666667C418.3466666666667 92.16 390.4 58.6666666666667 352 52.2666666666667C347.52 51.4133333333334 342.8266666666667 50.7733333333333 337.92 50.9866666666667C336.2133333333333 50.9866666666667 335.5733333333333 50.3466666666667 335.1466666666667 48.8533333333334C327.4666666666667 26.88 312.32 13.8666666666667 289.4933333333333 10.6666666666667C274.3466666666667 8.5333333333333 260.6933333333333 12.5866666666667 248.5333333333333 21.9733333333334C246.8266666666667 23.4666666666667 245.3333333333333 23.4666666666667 244.0533333333333 22.1866666666667C229.9733333333333 12.1600000000001 214.1866666666666 7.6800000000001 196.9066666666666 8.7466666666668C163.4133333333333 10.6666666666667 135.0399999999999 36.4800000000001 129.7066666666666 69.5466666666668C129.2799999999999 71.8933333333334 128.8533333333333 74.6666666666667 128.8533333333333 76.5866666666668C128.8533333333333 78.5066666666668 127.9999999999999 79.1466666666668 126.2933333333333 79.5733333333334C116.0533333333333 81.4933333333335 106.6666666666666 85.3333333333334 98.7733333333333 92.1600000000001C83.6266666666666 103.8933333333334 74.6666666666666 119.2533333333335 72.5333333333333 138.6666666666668C70.1866666666666 160.0000000000001 77.0133333333333 178.7733333333334 92.1599999999999 194.3466666666668C93.4399999999999 195.6266666666668 93.4399999999999 196.4800000000001 92.5866666666666 197.9733333333334C86.8266666666666 208.2133333333334 84.0533333333333 219.3066666666667 84.4799999999999 231.0400000000001C85.3333333333333 260.4800000000002 106.0266666666666 284.8000000000001 134.6133333333333 290.7733333333335C137.8133333333333 291.6266666666668 139.5199999999999 292.9066666666668 141.0133333333333 295.8933333333335C155.0933333333333 326.1866666666667 178.56 344.5333333333334 211.4133333333333 350.7200000000001C234.6666666666666 354.9866666666668 255.9999999999999 350.2933333333334 276.0533333333333 338.5600000000001C277.3333333333333 337.4933333333334 279.0399999999999 337.4933333333334 280.9599999999999 337.9200000000001C312.9599999999999 347.3066666666668 341.3333333333333 340.4800000000001 365.2266666666666 317.6533333333334C379.3066666666666 304.2133333333334 387.2 287.1466666666668 389.5466666666666 267.5200000000001C389.9733333333333 263.2533333333335 390.1866666666666 258.9866666666668 389.9733333333333 254.7200000000001C389.7599999999999 253.0133333333334 390.1866666666666 252.3733333333334 391.8933333333333 251.9466666666667C406.1866666666666 246.6133333333334 415.9999999999999 236.5866666666667 420.4799999999999 221.8666666666667C425.8133333333333 203.7333333333334 421.3333333333333 187.5200000000001 407.6799999999999 174.2933333333334C406.3999999999999 173.0133333333334 406.8266666666666 172.3733333333334 407.4666666666666 171.3066666666667C414.7199999999999 158.72 418.3466666666666 145.4933333333334 418.3466666666666 130.9866666666667M275.8399999999999 137.1733333333334C275.8399999999999 120.7466666666667 286.5066666666666 106.6666666666667 301.6533333333333 101.12C309.3333333333333 98.7733333333333 316.8 97.4933333333333 324.6933333333333 97.0666666666666C330.6666666666666 96.8533333333332 335.9999999999999 97.28 341.3333333333333 99.8399999999999C345.3866666666666 101.9733333333333 347.3066666666666 105.3866666666667 347.0933333333333 109.8666666666666C346.8799999999999 114.3466666666666 344.7466666666666 117.3333333333333 340.4799999999999 119.4666666666666C338.9866666666666 120.1066666666666 337.4933333333333 120.7466666666666 335.7866666666665 120.9599999999999C330.6666666666665 121.8133333333333 326.3999999999999 122.4533333333333 321.4933333333333 123.5199999999999C313.8133333333332 125.0133333333333 310.3999999999999 129.0666666666666 310.3999999999999 137.1733333333333C310.1866666666666 144.2133333333333 312.1066666666666 150.8266666666666 314.2399999999999 157.2266666666666C318.2933333333332 169.1733333333333 323.6266666666666 180.6933333333333 328.7466666666666 192C333.6533333333332 203.3066666666666 338.7733333333332 214.4 342.1866666666666 226.1333333333333C344.1066666666666 232.5333333333333 345.1733333333333 238.9333333333333 343.2533333333332 245.3333333333333C340.6933333333333 256 334.7199999999999 262.4 324.2666666666666 264.32C314.6666666666666 266.6666666666667 305.0666666666666 266.6666666666667 296.5333333333332 260.6933333333333C293.5466666666665 258.7733333333333 290.7733333333332 259.2 287.9999999999999 261.5466666666666L282.8799999999999 266.6666666666667C273.9199999999999 274.7733333333333 262.3999999999999 275.2 252.7999999999999 267.7333333333333C248.9599999999999 264.7466666666666 245.3333333333332 261.12 241.7066666666666 258.3466666666667C238.0799999999999 256 234.6666666666666 255.36 230.1866666666666 257.7066666666667C226.1333333333333 259.6266666666667 222.2933333333332 261.5466666666666 218.2399999999999 263.4666666666667C213.9733333333333 265.1733333333333 210.1333333333332 267.52 205.4399999999999 267.9466666666667C190.9333333333332 269.2266666666667 175.7866666666666 260.48 169.3866666666666 247.2533333333333C166.3999999999999 241.4933333333333 164.0533333333332 235.52 161.9199999999999 229.3333333333333C151.6799999999999 201.1733333333333 143.3599999999999 172.5866666666667 134.8266666666666 143.7866666666666C130.9866666666666 130.9866666666667 135.4666666666666 118.4 146.3466666666666 111.5733333333333C154.88 106.6666666666667 164.0533333333333 104.7466666666667 173.6533333333333 107.7333333333334C181.3333333333333 110.08 185.8133333333333 116.2666666666667 188.8 123.3066666666667C198.6133333333333 146.56 207.5733333333333 170.6666666666667 216.96 193.92C219.5199999999999 200.32 222.08 206.9333333333333 224.8533333333333 213.3333333333334C227.6266666666666 219.7333333333334 235.5199999999999 221.8666666666667 240.2133333333333 217.6C243.2 215.04 244.0533333333333 211.4133333333334 243.6266666666666 207.7866666666666C243.4133333333333 203.7333333333333 241.92 200.1066666666667 240.4266666666666 196.48C234.6666666666667 181.3333333333334 228.0533333333333 165.5466666666667 221.8666666666666 149.9733333333334C220.5866666666666 146.9866666666667 219.3066666666667 143.7866666666667 218.6666666666666 140.3733333333333C217.8133333333333 134.6133333333334 219.9466666666666 129.4933333333334 224.8533333333333 128C229.5466666666666 125.4400000000001 234.6666666666667 125.0133333333333 239.5733333333333 126.9333333333333C245.3333333333333 129.0666666666667 248.9599999999999 133.5466666666667 251.5199999999999 138.6666666666667L279.04 193.0666666666667C283.3066666666666 201.3866666666667 288 209.7066666666667 291.8399999999999 218.0266666666667C293.5466666666666 221.0133333333334 295.4666666666666 224 298.6666666666667 225.92C301.2266666666666 227.6266666666667 304 227.6266666666667 306.7733333333333 226.1333333333334C309.3333333333333 224.64 309.3333333333333 221.8666666666667 309.3333333333333 219.0933333333333C309.3333333333333 217.6 309.3333333333333 216.1066666666667 308.6933333333333 214.8266666666667C307.4133333333333 211.84 306.3466666666667 209.0666666666667 305.0666666666666 206.2933333333334C297.3866666666667 190.0800000000001 289.4933333333333 174.0800000000001 282.0266666666667 158.0800000000001C278.8266666666666 151.2533333333333 275.4133333333333 144.4266666666667 275.84 137.1733333333334M383.1466666666667 18.7733333333333C383.1466666666667 29.44 374.1866666666666 38.4 363.52 38.4C352 38.4 343.4666666666666 29.6533333333334 343.4666666666666 18.7733333333333S352.4266666666666 -1.0666666666667 363.3066666666666 -1.0666666666667S383.1466666666666 7.8933333333334 383.1466666666666 18.7733333333333M50.7733333333333 182.1866666666667C61.0133333333333 182.1866666666667 69.76 190.9333333333333 69.76 201.1733333333334C69.76 211.4133333333334 61.2266666666667 219.9466666666667 50.9866666666667 219.9466666666667C40.32 219.9466666666667 32 211.6266666666667 32 201.1733333333334S40.32 182.1866666666667 50.7733333333333 182.1866666666667M282.88 393.6C272.4266666666667 393.6 263.8933333333333 385.28 263.8933333333333 375.04C263.8933333333333 364.5866666666667 272.4266666666667 356.2666666666667 282.6666666666667 356.2666666666667C293.12 356.2666666666667 301.4400000000001 364.3733333333334 301.4400000000001 374.8266666666667C301.4400000000001 385.0666666666667 293.12 393.6 282.8800000000001 393.6M436.2666666666667 276.6933333333334C436.2666666666667 285.2266666666667 429.0133333333334 292.48 420.4800000000001 292.48C411.7333333333334 292.6933333333334 404.2666666666667 285.2266666666667 404.2666666666667 276.48S411.3066666666667 260.6933333333334 420.2666666666667 260.6933333333334S436.4800000000001 267.7333333333334 436.2666666666667 276.6933333333334M107.52 322.3466666666667C107.52 314.24 113.92 308.0533333333334 121.8133333333333 308.0533333333334C129.92 308.0533333333334 136.32 314.4533333333334 136.1066666666667 322.56C136.1066666666667 330.6666666666667 129.92 336.64 122.0266666666667 336.64C113.7066666666667 336.64 107.52 330.6666666666667 107.52 322.3466666666667M257.28 -9.3866666666667C257.28 -2.56 251.9466666666667 2.9866666666666 245.3333333333333 2.9866666666666C238.08 2.9866666666666 232.7466666666666 -2.3466666666667 232.7466666666666 -9.3866666666667C232.7466666666666 -16 238.08 -21.3333333333333 245.3333333333333 -21.3333333333333C251.7333333333333 -21.3333333333333 257.28 -16 257.28 -9.3866666666667M448 181.3333333333334C441.8133333333334 181.3333333333334 436.2666666666667 175.36 436.2666666666667 168.96C436.2666666666667 162.56 441.6 157.2266666666667 448 157.2266666666667C455.04 157.2266666666667 460.16 162.1333333333333 460.16 168.96C460.16 175.5733333333334 455.04 181.3333333333334 448 181.3333333333334M162.56 405.3333333333333C156.8 405.3333333333333 152.32 401.0666666666667 152.32 395.3066666666667C152.32 389.76 156.8 385.2800000000001 162.56 385.2800000000001C168.1066666666667 385.2800000000001 172.5866666666667 389.76 172.5866666666667 395.3066666666667C172.5866666666667 401.0666666666667 168.32 405.3333333333334 162.56 405.3333333333334M471.04 234.6666666666667C466.3466666666667 234.6666666666667 462.2933333333334 231.04 462.08 226.1333333333334C462.08 221.2266666666667 466.1333333333333 217.1733333333334 471.04 217.1733333333334C476.16 217.1733333333334 480.0000000000001 221.0133333333333 480.0000000000001 225.92C480.0000000000001 231.04 476.1600000000001 234.6666666666667 471.04 234.6666666666667M117.3333333333333 58.4533333333333C117.3333333333333 63.1466666666667 112.8533333333333 67.2 107.9466666666667 67.4133333333334C103.2533333333333 67.4133333333334 99.2 63.36 99.2 58.24C99.2 53.3333333333334 103.2533333333333 49.4933333333333 108.16 49.4933333333333C113.0666666666667 49.4933333333333 117.3333333333333 53.3333333333334 117.3333333333333 58.4533333333334z" /></svg>