<?xml version="1.0" encoding="UTF-8"?><!DOCTYPE svg PUBLIC "-//W3C//DTD SVG 1.1//EN" "http://www.w3.org/Graphics/SVG/1.1/DTD/svg11.dtd"><svg xmlns="http://www.w3.org/2000/svg" xmlns:xlink="http://www.w3.org/1999/xlink" version="1.1" width="512" height="512" viewBox="0 0 512 512">    <path fill="#ffffff" transform="scale(1, -1) translate(0, -448)" glyph-name="account-network-outline" unicode="&#xFBC2;" horiz-adv-x="512" d=" M256 234.6666666666667C297.1733333333333 234.6666666666667 330.6666666666667 268.1600000000001 330.6666666666667 309.3333333333334S297.1733333333333 384 256 384S181.3333333333333 350.5066666666667 181.3333333333333 309.3333333333334S214.8266666666667 234.6666666666667 256 234.6666666666667M256 341.3333333333334C273.7066666666667 341.3333333333334 288 327.04 288 309.3333333333334S273.7066666666667 277.3333333333334 256 277.3333333333334S224 291.6266666666667 224 309.3333333333334S238.2933333333333 341.3333333333334 256 341.3333333333334M320 21.3333333333334C320 33.0666666666667 310.4 42.6666666666667 298.6666666666667 42.6666666666667H277.3333333333333V85.3333333333334H405.3333333333333V117.3333333333334C405.3333333333333 158.5066666666667 338.56 192 256 192S106.6666666666667 158.5066666666667 106.6666666666667 117.3333333333334V85.3333333333334H234.6666666666667V42.6666666666667H213.3333333333333C201.6 42.6666666666667 192 33.0666666666667 192 21.3333333333334H42.6666666666667V-21.3333333333333H192C192 -33.0666666666667 201.6 -42.6666666666666 213.3333333333333 -42.6666666666666H298.6666666666667C310.4 -42.6666666666666 320 -33.0666666666667 320 -21.3333333333333H469.3333333333333V21.3333333333334H320M162.3466666666667 128C178.9866666666667 138.0266666666667 210.9866666666667 149.3333333333334 256 149.3333333333334S333.0133333333333 138.0266666666667 349.6533333333333 128H162.3466666666667z" /></svg>