<?xml version="1.0" encoding="UTF-8"?><!DOCTYPE svg PUBLIC "-//W3C//DTD SVG 1.1//EN" "http://www.w3.org/Graphics/SVG/1.1/DTD/svg11.dtd"><svg xmlns="http://www.w3.org/2000/svg" xmlns:xlink="http://www.w3.org/1999/xlink" version="1.1" width="512" height="512" viewBox="0 0 512 512">    <path fill="#ffffff" transform="scale(1, -1) translate(0, -448)" glyph-name="globe-model" unicode="&#xF8E8;" horiz-adv-x="512" d=" M370.3466666666667 391.68L340.2666666666667 361.3866666666667C368.2133333333334 333.44 384 295.68 384 256C384 173.44 317.2266666666667 106.6666666666667 234.6666666666667 106.6666666666667C195.2 106.6666666666667 157.2266666666667 122.4533333333334 129.28 150.4L98.9866666666667 120.3200000000001C129.7066666666667 89.6 170.0266666666667 70.1866666666667 213.3333333333333 65.4933333333333V21.3333333333334H128V-21.3333333333333H341.3333333333333V21.3333333333334H256V65.28C353.0666666666667 76.16 426.6666666666667 158.2933333333333 426.6666666666667 256C426.6666666666667 306.7733333333333 406.4 355.6266666666667 370.3466666666667 391.68M234.6666666666667 373.3333333333334C169.8133333333333 373.3333333333334 117.3333333333333 320.8533333333334 117.3333333333333 256S169.8133333333333 138.6666666666667 234.6666666666667 138.6666666666667S352 191.1466666666667 352 256S299.52 373.3333333333334 234.6666666666667 373.3333333333334M234.6666666666667 330.6666666666667C276.0533333333333 330.6666666666667 309.3333333333333 297.1733333333334 309.3333333333333 256S275.84 181.3333333333334 234.6666666666667 181.3333333333334S160 214.8266666666667 160 256S193.4933333333334 330.6666666666667 234.6666666666667 330.6666666666667z" /></svg>