<?xml version="1.0" encoding="UTF-8"?><!DOCTYPE svg PUBLIC "-//W3C//DTD SVG 1.1//EN" "http://www.w3.org/Graphics/SVG/1.1/DTD/svg11.dtd"><svg xmlns="http://www.w3.org/2000/svg" xmlns:xlink="http://www.w3.org/1999/xlink" version="1.1" width="512" height="512" viewBox="0 0 512 512">    <path fill="#ffffff" transform="scale(1, -1) translate(0, -448)" glyph-name="rowing" unicode="&#xF608;" horiz-adv-x="512" d=" M181.3333333333333 138.6666666666667L85.3333333333333 42.6666666666667L117.3333333333333 10.6666666666667L192 85.3333333333334H234.6666666666667L181.3333333333333 138.6666666666667M320 426.6666666666667C296.5333333333333 426.6666666666667 277.3333333333333 407.4666666666667 277.3333333333333 384S296.5333333333333 341.3333333333334 320 341.3333333333334S362.6666666666667 360.5333333333334 362.6666666666667 384S343.4666666666667 426.6666666666667 320 426.6666666666667M448 0L384 -64L320 0V32L168.7466666666667 183.2533333333333C162.1333333333333 182.1866666666667 155.7333333333333 181.3333333333334 149.3333333333333 181.3333333333334V227.84C184.7466666666667 227.2 226.3466666666667 246.4 248.96 271.36L278.8266666666667 304.4266666666666C282.88 309.3333333333333 288 312.5333333333333 293.5466666666666 315.0933333333333C299.7333333333333 318.08 306.7733333333333 320 314.0266666666667 320H314.6666666666667C341.3333333333333 320 362.6666666666667 298.6666666666667 362.6666666666667 271.7866666666667V149.3333333333334C362.6666666666667 131.2000000000001 355.2 114.7733333333333 343.04 103.04L266.6666666666667 179.4133333333333V227.84C253.2266666666666 216.7466666666667 236.16 206.08 217.8133333333333 198.1866666666666L352 64H384L448 0z" /></svg>