<?xml version="1.0" encoding="UTF-8"?><!DOCTYPE svg PUBLIC "-//W3C//DTD SVG 1.1//EN" "http://www.w3.org/Graphics/SVG/1.1/DTD/svg11.dtd"><svg xmlns="http://www.w3.org/2000/svg" xmlns:xlink="http://www.w3.org/1999/xlink" version="1.1" width="512" height="512" viewBox="0 0 512 512">    <path fill="#ffffff" transform="scale(1, -1) translate(0, -448)" glyph-name="ammunition" unicode="&#xFCC4;" horiz-adv-x="512" d=" M298.6666666666667 -21.3333333333333H213.3333333333333V0H298.6666666666667V-21.3333333333333M277.3333333333333 234.6666666666667V298.6666666666667H234.6666666666667V234.6666666666667L213.3333333333333 202.6666666666667V21.3333333333334H298.6666666666667V202.6666666666667L277.3333333333333 234.6666666666667M256 405.3333333333333S234.6666666666667 384 234.6666666666667 341.3333333333334V320H277.3333333333333V341.3333333333334S277.3333333333333 384 256 405.3333333333333M170.6666666666667 -21.3333333333333H85.3333333333333V0H170.6666666666667V-21.3333333333333M149.3333333333333 234.6666666666667V298.6666666666667H106.6666666666667V234.6666666666667L85.3333333333333 202.6666666666667V21.3333333333334H170.6666666666667V202.6666666666667L149.3333333333333 234.6666666666667M128 405.3333333333333S106.6666666666667 384 106.6666666666667 341.3333333333334V320H149.3333333333333V341.3333333333334S149.3333333333333 384 128 405.3333333333333M426.6666666666667 -21.3333333333333H341.3333333333333V0H426.6666666666667V-21.3333333333333M405.3333333333333 234.6666666666667V298.6666666666667H362.6666666666667V234.6666666666667L341.3333333333333 202.6666666666667V21.3333333333334H426.6666666666667V202.6666666666667L405.3333333333333 234.6666666666667M384 405.3333333333333S362.6666666666667 384 362.6666666666667 341.3333333333334V320H405.3333333333333V341.3333333333334S405.3333333333333 384 384 405.3333333333333z" /></svg>