<?xml version="1.0" encoding="UTF-8"?><!DOCTYPE svg PUBLIC "-//W3C//DTD SVG 1.1//EN" "http://www.w3.org/Graphics/SVG/1.1/DTD/svg11.dtd"><svg xmlns="http://www.w3.org/2000/svg" xmlns:xlink="http://www.w3.org/1999/xlink" version="1.1" width="512" height="512" viewBox="0 0 512 512">    <path fill="#ffffff" transform="scale(1, -1) translate(0, -448)" glyph-name="calendar-heart" unicode="&#xF9D1;" horiz-adv-x="512" d=" M405.3333333333333 21.3333333333334V256H106.6666666666667V21.3333333333334H405.3333333333333M341.3333333333333 405.3333333333333H384V362.6666666666667H405.3333333333333C428.8 362.6666666666667 448 343.4666666666667 448 320V21.3333333333334C448 -2.1333333333333 428.8 -21.3333333333333 405.3333333333333 -21.3333333333333H106.6666666666667C83.2 -21.3333333333333 64 -2.1333333333333 64 21.3333333333334V320C64 343.4666666666667 83.2 362.6666666666667 106.6666666666667 362.6666666666667H128V405.3333333333333H170.6666666666667V362.6666666666667H341.3333333333333V405.3333333333333M256 60.3733333333333L243.6266666666667 71.68C199.68 111.5733333333334 170.6666666666667 137.8133333333334 170.6666666666667 170.0266666666667C170.6666666666667 196.2666666666667 191.36 216.96 217.6 216.96C232.5333333333333 216.96 246.6133333333333 210.1333333333334 256 199.2533333333334C265.3866666666667 210.1333333333334 279.4666666666667 216.96 294.4 216.96C320.64 216.96 341.3333333333333 196.2666666666667 341.3333333333333 170.0266666666668C341.3333333333333 137.8133333333334 312.32 111.5733333333334 268.3733333333334 71.6800000000001L256 60.3733333333334z" /></svg>