<?xml version="1.0" encoding="UTF-8"?><!DOCTYPE svg PUBLIC "-//W3C//DTD SVG 1.1//EN" "http://www.w3.org/Graphics/SVG/1.1/DTD/svg11.dtd"><svg xmlns="http://www.w3.org/2000/svg" xmlns:xlink="http://www.w3.org/1999/xlink" version="1.1" width="512" height="512" viewBox="0 0 512 512">    <path fill="#ffffff" transform="scale(1, -1) translate(0, -448)" glyph-name="dna" unicode="&#xF683;" horiz-adv-x="512" d=" M85.3333333333333 405.3333333333333H128V362.6666666666667C128 331.9466666666667 142.5066666666667 306.9866666666667 168.1066666666667 282.0266666666667C186.4533333333333 264.3200000000001 210.9866666666667 247.2533333333334 236.5866666666667 230.4000000000001L197.5466666666667 205.0133333333334C176.4266666666667 219.3066666666667 155.9466666666667 234.6666666666667 138.6666666666667 251.52C108.16 281.1733333333334 85.3333333333333 317.8666666666667 85.3333333333333 362.6666666666667V405.3333333333333M384 405.3333333333333H426.6666666666667V362.6666666666667C426.6666666666667 317.8666666666667 403.84 281.1733333333334 373.3333333333333 251.52C343.2533333333334 222.08 304.8533333333333 197.76 267.52 174.0800000000001C230.1866666666667 150.1866666666667 193.92 126.9333333333333 168.1066666666666 101.9733333333334C142.5066666666667 77.0133333333333 128 52.0533333333334 128 21.3333333333334V-21.3333333333333H85.3333333333333V21.3333333333334C85.3333333333333 66.1333333333334 108.16 102.8266666666667 138.6666666666667 132.48C168.7466666666667 161.92 207.1466666666667 186.24 244.48 209.92C281.8133333333334 233.8133333333334 318.08 257.0666666666667 343.8933333333333 282.0266666666667C369.4933333333334 306.9866666666667 384 331.9466666666667 384 362.6666666666667V405.3333333333333M314.4533333333333 178.9866666666667C335.5733333333333 164.6933333333334 356.0533333333334 149.3333333333334 373.3333333333333 132.48C403.84 102.8266666666667 426.6666666666667 66.1333333333334 426.6666666666667 21.3333333333334V-21.3333333333333H384V21.3333333333334C384 52.0533333333334 369.4933333333334 77.0133333333333 343.8933333333333 101.9733333333334C325.5466666666667 119.6800000000001 301.0133333333333 136.7466666666667 275.4133333333333 153.6L314.4533333333333 178.9866666666667M149.3333333333333 384H362.6666666666667V362.6666666666667L361.3866666666667 352H150.6133333333333L149.3333333333333 362.6666666666667V384M163.84 320H348.16C343.04 312.7466666666667 337.0666666666667 305.2800000000001 328.96 297.3866666666667L318.08 288H193.4933333333334L183.04 297.3866666666667C174.9333333333333 305.28 168.96 312.7466666666667 163.84 320M193.92 96H318.5066666666667L328.96 86.6133333333334C337.0666666666667 78.72 343.04 71.2533333333333 348.16 64H163.84C168.96 71.2533333333333 174.9333333333333 78.72 183.04 86.6133333333334L193.92 96M150.6133333333334 32H361.3866666666667L362.6666666666667 21.3333333333334V0H149.3333333333333V21.3333333333334L150.6133333333333 32z" /></svg>