<?xml version="1.0" encoding="UTF-8"?><!DOCTYPE svg PUBLIC "-//W3C//DTD SVG 1.1//EN" "http://www.w3.org/Graphics/SVG/1.1/DTD/svg11.dtd"><svg xmlns="http://www.w3.org/2000/svg" xmlns:xlink="http://www.w3.org/1999/xlink" version="1.1" width="512" height="512" viewBox="0 0 512 512">    <path fill="#ffffff" transform="scale(1, -1) translate(0, -448)" glyph-name="auto-fix" unicode="&#xF068;" horiz-adv-x="512" d=" M160 328.5333333333334L106.6666666666667 298.6666666666667L136.5333333333333 352L106.6666666666667 405.3333333333333L160 375.4666666666667L213.3333333333333 405.3333333333333L183.4666666666667 352L213.3333333333333 298.6666666666667L160 328.5333333333334M416 119.4666666666667L469.3333333333333 149.3333333333334L439.4666666666667 96L469.3333333333333 42.6666666666667L416 72.5333333333333L362.6666666666667 42.6666666666667L392.5333333333333 96L362.6666666666667 149.3333333333334L416 119.4666666666667M469.3333333333333 405.3333333333333L439.4666666666667 352L469.3333333333333 298.6666666666667L416 328.5333333333334L362.6666666666667 298.6666666666667L392.5333333333333 352L362.6666666666667 405.3333333333333L416 375.4666666666667L469.3333333333333 405.3333333333333M284.5866666666667 175.36L336.64 227.4133333333334L291.4133333333333 272.6400000000001L239.36 220.5866666666667L284.5866666666667 175.3600000000001M306.56 292.4800000000001L356.48 242.5600000000001C364.8 234.6666666666668 364.8 220.8000000000001 356.48 212.4800000000001L107.52 -36.48C99.2 -44.8 85.3333333333333 -44.8 77.44 -36.48L27.52 13.44C19.2 21.3333333333334 19.2 35.2 27.52 43.52L276.48 292.48C284.8 300.8 298.6666666666667 300.8 306.56 292.48z" /></svg>