<?xml version="1.0" encoding="UTF-8"?><!DOCTYPE svg PUBLIC "-//W3C//DTD SVG 1.1//EN" "http://www.w3.org/Graphics/SVG/1.1/DTD/svg11.dtd"><svg xmlns="http://www.w3.org/2000/svg" xmlns:xlink="http://www.w3.org/1999/xlink" version="1.1" width="512" height="512" viewBox="0 0 512 512">    <path fill="#ffffff" transform="scale(1, -1) translate(0, -448)" glyph-name="pencil-lock-outline" unicode="&#xFDC3;" horiz-adv-x="512" d=" M343.4666666666667 256L362.6666666666667 236.8L168.5333333333333 42.6666666666667H149.3333333333333V61.8666666666667L343.4666666666667 256M420.2666666666667 384C416.0000000000001 384 409.6 381.8666666666667 405.3333333333334 377.6L366.9333333333334 339.2000000000001L445.8666666666667 258.1333333333334L484.2666666666667 298.6666666666667C492.8 307.2000000000001 492.8 320 484.2666666666667 328.5333333333334L435.2 377.6C430.9333333333333 381.8666666666667 424.5333333333333 384 420.2666666666667 384M343.4666666666666 315.7333333333334L106.6666666666667 81.0666666666667V0H187.7333333333334L422.4 236.8L343.4666666666667 315.7333333333334M170.6666666666667 341.3333333333334V352C170.6666666666667 381.8666666666667 147.2 405.3333333333333 117.3333333333333 405.3333333333333S64 381.8666666666667 64 352V341.3333333333334C51.2 341.3333333333334 42.6666666666667 332.8 42.6666666666667 320V234.6666666666667C42.6666666666667 221.8666666666667 51.2 213.3333333333334 64 213.3333333333334H170.6666666666667C183.4666666666667 213.3333333333334 192 221.8666666666667 192 234.6666666666667V320C192 332.8 183.4666666666667 341.3333333333334 170.6666666666667 341.3333333333334M149.3333333333333 341.3333333333334H85.3333333333333V352C85.3333333333333 369.0666666666667 100.2666666666667 384 117.3333333333333 384S149.3333333333333 369.0666666666667 149.3333333333333 352V341.3333333333334z" /></svg>