<?xml version="1.0" encoding="UTF-8"?><!DOCTYPE svg PUBLIC "-//W3C//DTD SVG 1.1//EN" "http://www.w3.org/Graphics/SVG/1.1/DTD/svg11.dtd"><svg xmlns="http://www.w3.org/2000/svg" xmlns:xlink="http://www.w3.org/1999/xlink" version="1.1" width="512" height="512" viewBox="0 0 512 512">    <path fill="#ffffff" transform="scale(1, -1) translate(0, -448)" glyph-name="eye-off-outline" unicode="&#xF6D0;" horiz-adv-x="512" d=" M42.6666666666667 335.5733333333334L69.9733333333333 362.6666666666667L426.6666666666667 5.9733333333334L399.5733333333333 -21.3333333333333L333.8666666666667 44.3733333333333C309.3333333333333 36.2666666666667 283.3066666666667 32 256 32C149.3333333333333 32 58.24 98.3466666666667 21.3333333333333 192C36.0533333333333 229.5466666666667 59.52 262.6133333333334 89.3866666666667 288.8533333333334L42.6666666666667 335.5733333333334M256 256C291.4133333333333 256 320 227.4133333333334 320 192C320 184.5333333333334 318.72 177.28 316.3733333333334 170.6666666666667L234.6666666666667 252.3733333333334C241.28 254.72 248.5333333333334 256 256 256M256 352C362.6666666666667 352 453.76 285.6533333333334 490.6666666666666 192C473.1733333333333 147.6266666666667 443.52 109.2266666666667 405.3333333333333 81.28L375.04 111.7866666666666C404.0533333333333 131.84 427.9466666666666 159.1466666666667 444.16 192C408.9600000000001 263.68 336.2133333333334 309.3333333333333 256 309.3333333333333C232.7466666666667 309.3333333333333 209.92 305.4933333333334 188.5866666666667 298.6666666666667L155.7333333333333 331.3066666666667C186.4533333333333 344.5333333333334 220.3733333333333 352 256 352M67.84 192C103.04 120.3200000000001 175.7866666666667 74.6666666666667 256 74.6666666666667C270.72 74.6666666666667 285.2266666666667 76.16 298.6666666666667 79.1466666666667L250.0266666666667 128C219.52 131.2000000000001 195.2 155.52 192 186.0266666666667L119.4666666666667 258.7733333333334C98.3466666666667 240.6400000000001 80.64 218.0266666666667 67.84 192z" /></svg>