<?xml version="1.0" encoding="UTF-8"?><!DOCTYPE svg PUBLIC "-//W3C//DTD SVG 1.1//EN" "http://www.w3.org/Graphics/SVG/1.1/DTD/svg11.dtd"><svg xmlns="http://www.w3.org/2000/svg" xmlns:xlink="http://www.w3.org/1999/xlink" version="1.1" width="512" height="512" viewBox="0 0 512 512">    <path fill="#ffffff" transform="scale(1, -1) translate(0, -448)" glyph-name="telescope" unicode="&#xFB29;" horiz-adv-x="512" d=" M467.1999999999999 258.1333333333334L430.9333333333333 236.8L345.6 384L381.8666666666666 405.3333333333333L467.1999999999999 258.1333333333334M209.0666666666666 279.4666666666667L273.0666666666666 168.5333333333333L403.2 243.2L339.2 354.1333333333334L209.0666666666666 279.4666666666667M243.2 177.0666666666667L200.5333333333333 251.7333333333333L108.8 198.4L151.4666666666667 123.7333333333334L243.2 177.0666666666667M44.8 136.5333333333333L66.1333333333333 100.2666666666667L121.5999999999999 132.2666666666667L100.2666666666666 168.5333333333333L44.7999999999999 136.5333333333333M258.1333333333333 149.3333333333333L251.7333333333333 157.8666666666667L160 104.5333333333333L166.3999999999999 96C170.6666666666666 89.6 177.0666666666666 83.2 183.4666666666666 78.9333333333333L149.3333333333333 -21.3333333333333H192L221.8666666666667 70.4H224L256 -21.3333333333333H298.6666666666667L258.1333333333334 98.1333333333334C268.8 113.0666666666667 268.8 132.2666666666667 258.1333333333334 149.3333333333334z" /></svg>