<?xml version="1.0" encoding="UTF-8"?><!DOCTYPE svg PUBLIC "-//W3C//DTD SVG 1.1//EN" "http://www.w3.org/Graphics/SVG/1.1/DTD/svg11.dtd"><svg xmlns="http://www.w3.org/2000/svg" xmlns:xlink="http://www.w3.org/1999/xlink" version="1.1" width="512" height="512" viewBox="0 0 512 512">    <path fill="#ffffff" transform="scale(1, -1) translate(0, -448)" glyph-name="twitter-circle" unicode="&#xF546;" horiz-adv-x="512" d=" M377.8133333333334 248.96C388.0533333333334 257.4933333333334 400 267.7333333333334 405.3333333333333 279.04C396.5866666666667 274.56 386.1333333333334 271.7866666666667 374.6133333333333 270.2933333333334C385.28 277.9733333333334 394.0266666666667 288 398.5066666666667 301.6533333333333C387.4133333333333 295.68 376.1066666666667 290.56 362.0266666666667 288C328.9599999999999 327.8933333333333 249.8133333333333 295.4666666666667 263.8933333333333 235.7333333333334C208.2133333333333 239.1466666666667 174.2933333333333 264.3200000000001 146.1333333333333 295.2533333333334C130.1333333333333 269.2266666666667 144 229.7600000000001 162.9866666666667 218.8800000000001C153.1733333333333 219.5200000000001 145.7066666666667 222.5066666666667 138.6666666666667 225.9200000000001C139.52 193.0666666666667 157.6533333333333 177.2800000000001 183.04 168.7466666666667C175.36 167.2533333333334 166.8266666666667 166.8266666666667 158.72 168.1066666666668C166.6133333333334 145.2800000000001 183.04 130.9866666666667 211.2 128.0000000000001C192 111.7866666666668 156.5866666666667 100.4800000000001 128 104.96C152.5333333333333 89.3866666666667 180.48 77.0133333333334 219.3066666666667 78.72C313.3866666666667 82.9866666666667 376.32 150.4 377.8133333333334 248.9600000000001M256 405.3333333333333C373.76 405.3333333333333 469.3333333333333 309.76 469.3333333333333 192S373.76 -21.3333333333333 256 -21.3333333333333S42.6666666666667 74.24 42.6666666666667 192S138.24 405.3333333333333 256 405.3333333333333z" /></svg>