<?xml version="1.0" encoding="UTF-8"?><!DOCTYPE svg PUBLIC "-//W3C//DTD SVG 1.1//EN" "http://www.w3.org/Graphics/SVG/1.1/DTD/svg11.dtd"><svg xmlns="http://www.w3.org/2000/svg" xmlns:xlink="http://www.w3.org/1999/xlink" version="1.1" width="512" height="512" viewBox="0 0 512 512">    <path fill="#ffffff" transform="scale(1, -1) translate(0, -448)" glyph-name="sofa" unicode="&#xF4B9;" horiz-adv-x="512" d=" M149.3333333333333 320H192C215.4666666666667 320 234.6666666666667 300.8 234.6666666666667 277.3333333333334V192H106.6666666666667V277.3333333333334C106.6666666666667 300.8 125.8666666666667 320 149.3333333333333 320M320 320H362.6666666666667C386.1333333333334 320 405.3333333333333 300.8 405.3333333333333 277.3333333333334V192H277.3333333333333V277.3333333333334C277.3333333333333 300.8 296.5333333333333 320 320 320M21.3333333333333 256H42.6666666666667C54.4 256 64 246.4000000000001 64 234.6666666666667V192C64 168.5333333333334 83.2 149.3333333333334 106.6666666666667 149.3333333333334H405.3333333333333C428.8 149.3333333333334 448 168.5333333333334 448 192V234.6666666666667C448 246.4000000000001 457.6 256 469.3333333333333 256H490.6666666666666C502.4 256 512 246.4000000000001 512 234.6666666666667V42.6666666666667H448V85.3333333333334H64V42.6666666666667H0V234.6666666666667C0 246.4000000000001 9.6 256 21.3333333333333 256z" /></svg>