<?xml version="1.0" encoding="UTF-8"?><!DOCTYPE svg PUBLIC "-//W3C//DTD SVG 1.1//EN" "http://www.w3.org/Graphics/SVG/1.1/DTD/svg11.dtd"><svg xmlns="http://www.w3.org/2000/svg" xmlns:xlink="http://www.w3.org/1999/xlink" version="1.1" width="512" height="512" viewBox="0 0 512 512">    <path fill="#ffffff" transform="scale(1, -1) translate(0, -448)" glyph-name="camera-account" unicode="&#xF8CA;" horiz-adv-x="512" d=" M85.3333333333333 341.3333333333334H149.3333333333333L192 384H320L362.6666666666667 341.3333333333334H426.6666666666667C450.1333333333334 341.3333333333334 469.3333333333333 322.1333333333334 469.3333333333333 298.6666666666667V42.6666666666667C469.3333333333333 19.2 450.1333333333334 0 426.6666666666667 0H85.3333333333333C61.8666666666667 0 42.6666666666667 19.2 42.6666666666667 42.6666666666667V298.6666666666667C42.6666666666667 322.1333333333334 61.8666666666667 341.3333333333334 85.3333333333333 341.3333333333334M341.3333333333333 85.3333333333334V106.6666666666667C341.3333333333333 135.04 284.3733333333334 149.3333333333334 256 149.3333333333334S170.6666666666667 135.04 170.6666666666667 106.6666666666667V85.3333333333334H341.3333333333333M256 256C232.5333333333334 256 213.3333333333333 236.8 213.3333333333333 213.3333333333334S232.5333333333334 170.6666666666667 256 170.6666666666667S298.6666666666667 189.8666666666667 298.6666666666667 213.3333333333334S279.4666666666667 256 256 256z" /></svg>