<?xml version="1.0" encoding="UTF-8"?><!DOCTYPE svg PUBLIC "-//W3C//DTD SVG 1.1//EN" "http://www.w3.org/Graphics/SVG/1.1/DTD/svg11.dtd"><svg xmlns="http://www.w3.org/2000/svg" xmlns:xlink="http://www.w3.org/1999/xlink" version="1.1" width="512" height="512" viewBox="0 0 512 512">    <path fill="#ffffff" transform="scale(1, -1) translate(0, -448)" glyph-name="filter-remove" unicode="&#xF234;" horiz-adv-x="512" d=" M314.88 3.6266666666667L375.4666666666667 64L314.88 124.3733333333333L344.9600000000001 154.4533333333334L405.3333333333333 94.5066666666667L465.7066666666666 154.4533333333334L495.7866666666666 124.3733333333333L435.84 64L495.7866666666666 3.6266666666667L465.7066666666666 -26.4533333333333L405.3333333333333 34.1333333333334L344.9600000000001 -26.4533333333333L314.88 3.6266666666667M256 192V23.8933333333334C256.8533333333333 17.4933333333333 254.72 10.6666666666667 249.8133333333334 6.1866666666667C241.4933333333334 -2.1333333333333 228.0533333333334 -2.1333333333333 219.7333333333334 6.1866666666667L176.8533333333333 49.0666666666667C171.9466666666666 53.9733333333334 169.8133333333333 60.5866666666667 170.6666666666666 66.7733333333333V192H170.0266666666667L47.1466666666667 349.44C39.8933333333333 358.6133333333334 41.6 372.0533333333334 50.7733333333333 379.3066666666667C54.8266666666667 382.2933333333334 59.3066666666667 384 64 384H362.6666666666667C367.36 384 371.84 382.2933333333334 375.8933333333333 379.3066666666667C385.0666666666667 372.0533333333334 386.7733333333334 358.6133333333334 379.5200000000001 349.44L256.64 192H256z" /></svg>