<?xml version="1.0" encoding="UTF-8"?><!DOCTYPE svg PUBLIC "-//W3C//DTD SVG 1.1//EN" "http://www.w3.org/Graphics/SVG/1.1/DTD/svg11.dtd"><svg xmlns="http://www.w3.org/2000/svg" xmlns:xlink="http://www.w3.org/1999/xlink" version="1.1" width="512" height="512" viewBox="0 0 512 512">    <path fill="#ffffff" transform="scale(1, -1) translate(0, -448)" glyph-name="file-cancel-outline" unicode="&#xFDA3;" horiz-adv-x="512" d=" M298.6666666666667 405.3333333333333L426.6666666666667 277.3333333333334V21.3333333333334C426.6666666666667 -2.1333333333333 407.4666666666667 -21.3333333333333 384 -21.3333333333333H128C104.5333333333333 -21.3333333333333 85.3333333333333 -2.1333333333333 85.3333333333333 21.3333333333334V362.6666666666667C85.3333333333333 386.1333333333334 104.5333333333333 405.3333333333333 128 405.3333333333333H298.6666666666667M384 21.3333333333334V256H277.3333333333333V362.6666666666667H128V21.3333333333334H384M245.3333333333333 234.6666666666667C298.6666666666667 234.6666666666667 341.3333333333333 192 341.3333333333333 138.6666666666667S298.6666666666667 42.6666666666667 245.3333333333333 42.6666666666667S149.3333333333333 85.3333333333334 149.3333333333333 138.6666666666667S192 234.6666666666667 245.3333333333333 234.6666666666667M245.3333333333333 202.6666666666667C233.3866666666667 202.6666666666667 222.2933333333333 199.4666666666667 213.3333333333333 193.7066666666667L300.3733333333334 106.6666666666667C306.1333333333334 115.6266666666667 309.3333333333333 126.72 309.3333333333333 138.6666666666667C309.3333333333333 174.0800000000001 280.7466666666667 202.6666666666667 245.3333333333333 202.6666666666667M181.3333333333333 138.6666666666667C181.3333333333333 103.2533333333333 209.92 74.6666666666667 245.3333333333333 74.6666666666667C257.28 74.6666666666667 268.3733333333334 77.8666666666667 277.3333333333333 83.6266666666667L190.2933333333333 170.6666666666667C184.5333333333333 161.7066666666667 181.3333333333333 150.6133333333334 181.3333333333333 138.6666666666667z" /></svg>