<?xml version="1.0" encoding="UTF-8"?><!DOCTYPE svg PUBLIC "-//W3C//DTD SVG 1.1//EN" "http://www.w3.org/Graphics/SVG/1.1/DTD/svg11.dtd"><svg xmlns="http://www.w3.org/2000/svg" xmlns:xlink="http://www.w3.org/1999/xlink" version="1.1" width="512" height="512" viewBox="0 0 512 512">    <path fill="#ffffff" transform="scale(1, -1) translate(0, -448)" glyph-name="gitlab" unicode="&#xFB7C;" horiz-adv-x="512" d=" M67.4133333333333 234.6666666666667L256 -10.6666666666666L49.4933333333333 142.9333333333333C43.7333333333333 147.4133333333334 41.3866666666667 154.6666666666667 43.52 161.28L67.4133333333333 234.6666666666667M130.3466666666667 380.3733333333334C128 387.6266666666667 117.3333333333333 387.6266666666667 114.56 380.3733333333334L67.4133333333333 234.6666666666667H177.4933333333334L130.3466666666667 380.3733333333334M177.4933333333334 234.6666666666667L256 -10.6666666666666L334.5066666666667 234.6666666666667H177.4933333333334M468.48 161.28L444.5866666666667 234.6666666666667L256 -10.6666666666666L462.5066666666667 142.9333333333333C468.2666666666667 147.4133333333334 470.6133333333333 154.6666666666667 468.48 161.28M397.44 380.3733333333334C394.6666666666667 387.6266666666667 384 387.6266666666667 381.6533333333333 380.3733333333334L334.5066666666667 234.6666666666667H444.5866666666667L397.44 380.3733333333334z" /></svg>