<?xml version="1.0" encoding="UTF-8"?><!DOCTYPE svg PUBLIC "-//W3C//DTD SVG 1.1//EN" "http://www.w3.org/Graphics/SVG/1.1/DTD/svg11.dtd"><svg xmlns="http://www.w3.org/2000/svg" xmlns:xlink="http://www.w3.org/1999/xlink" version="1.1" width="512" height="512" viewBox="0 0 512 512">    <path fill="#ffffff" transform="scale(1, -1) translate(0, -448)" glyph-name="record-rec" unicode="&#xF44B;" horiz-adv-x="512" d=" M266.6666666666667 341.3333333333334C178.3466666666666 341.3333333333334 106.6666666666667 269.6533333333334 106.6666666666667 181.3333333333334C106.6666666666667 93.0133333333333 178.3466666666666 21.3333333333334 266.6666666666667 21.3333333333334C354.9866666666667 21.3333333333334 426.6666666666667 93.0133333333333 426.6666666666667 181.3333333333334C426.6666666666667 269.6533333333334 354.9866666666667 341.3333333333334 266.6666666666667 341.3333333333334M149.3333333333333 234.6666666666667H192C203.7333333333334 234.6666666666667 213.3333333333333 225.0666666666667 213.3333333333333 213.3333333333334V192C213.3333333333333 181.3333333333334 205.2266666666666 172.8 194.9866666666667 171.3066666666667L219.9466666666667 128H195.2L170.6666666666667 170.6666666666667V128H149.3333333333333M256 234.6666666666667H298.6666666666667V213.3333333333334H256V192H298.6666666666667V170.6666666666667H256V149.3333333333334H298.6666666666667V128H256C244.2666666666667 128 234.6666666666667 137.6 234.6666666666667 149.3333333333334V213.3333333333334C234.6666666666667 225.0666666666667 244.2666666666667 234.6666666666667 256 234.6666666666667M341.3333333333333 234.6666666666667H384V213.3333333333334H341.3333333333333V149.3333333333334H384V128H341.3333333333333C329.6 128 320 137.6 320 149.3333333333334V213.3333333333334C320 225.0666666666667 329.6 234.6666666666667 341.3333333333333 234.6666666666667M170.6666666666667 213.3333333333334V192H192V213.3333333333334" /></svg>