<?xml version="1.0" encoding="UTF-8"?><!DOCTYPE svg PUBLIC "-//W3C//DTD SVG 1.1//EN" "http://www.w3.org/Graphics/SVG/1.1/DTD/svg11.dtd"><svg xmlns="http://www.w3.org/2000/svg" xmlns:xlink="http://www.w3.org/1999/xlink" version="1.1" width="512" height="512" viewBox="0 0 512 512">    <path fill="#ffffff" transform="scale(1, -1) translate(0, -448)" glyph-name="cast-connected" unicode="&#xF119;" horiz-adv-x="512" d=" M448 384H64C40.32 384 21.3333333333333 365.0133333333333 21.3333333333333 341.3333333333334V277.3333333333334H64V341.3333333333334H448V42.6666666666667H298.6666666666667V0H448C471.4666666666667 0 490.6666666666666 19.2 490.6666666666666 42.6666666666667V341.3333333333334C490.6666666666666 365.0133333333333 471.4666666666667 384 448 384M21.3333333333333 234.6666666666667V192C127.36 192 213.3333333333333 106.0266666666666 213.3333333333333 0H256C256 129.7066666666667 150.8266666666667 234.6666666666667 21.3333333333333 234.6666666666667M405.3333333333333 298.6666666666667H106.6666666666667V263.8933333333334C191.1466666666667 236.5866666666667 257.92 169.8133333333334 285.2266666666667 85.3333333333334H405.3333333333333M21.3333333333333 149.3333333333334V106.6666666666667C80.2133333333333 106.6666666666667 128 58.88 128 0H170.6666666666667C170.6666666666667 82.5600000000001 103.8933333333333 149.3333333333334 21.3333333333333 149.3333333333334M21.3333333333333 64V0H85.3333333333333C85.3333333333333 35.4133333333334 56.7466666666667 64 21.3333333333333 64z" /></svg>