<?xml version="1.0" encoding="UTF-8"?><!DOCTYPE svg PUBLIC "-//W3C//DTD SVG 1.1//EN" "http://www.w3.org/Graphics/SVG/1.1/DTD/svg11.dtd"><svg xmlns="http://www.w3.org/2000/svg" xmlns:xlink="http://www.w3.org/1999/xlink" version="1.1" width="512" height="512" viewBox="0 0 512 512">    <path fill="#ffffff" transform="scale(1, -1) translate(0, -448)" glyph-name="google-keep" unicode="&#xF6DB;" horiz-adv-x="512" d=" M85.3333333333333 405.3333333333333H426.6666666666667C450.1333333333334 405.3333333333333 469.3333333333333 386.1333333333334 469.3333333333333 362.6666666666667V78.2933333333334L369.7066666666666 -21.3333333333333H85.3333333333333C61.8666666666667 -21.3333333333333 42.6666666666667 -2.1333333333333 42.6666666666667 21.3333333333334V362.6666666666667C42.6666666666667 386.1333333333334 61.8666666666667 405.3333333333333 85.3333333333333 405.3333333333333M362.6666666666667 85.3333333333334V16L432 85.3333333333334H362.6666666666667M213.3333333333333 42.6666666666667H298.6666666666667V64H320V170.6666666666667C345.8133333333334 190.0800000000001 362.6666666666667 221.0133333333333 362.6666666666667 256C362.6666666666667 314.88 314.88 362.6666666666667 256 362.6666666666667S149.3333333333333 314.88 149.3333333333333 256C149.3333333333333 221.0133333333333 166.1866666666667 190.0800000000001 192 170.6666666666667V64H213.3333333333333V42.6666666666667M298.6666666666667 85.3333333333334H213.3333333333333V106.6666666666667H298.6666666666667V85.3333333333334M298.6666666666667 128H213.3333333333333V149.3333333333334H298.6666666666667V128M256 341.3333333333334C303.1466666666667 341.3333333333334 341.3333333333333 303.1466666666667 341.3333333333333 256C341.3333333333333 224 324.2666666666667 196.9066666666667 298.6666666666667 182.1866666666667V170.6666666666667H213.3333333333333V182.1866666666667C187.7333333333334 196.9066666666667 170.6666666666667 224 170.6666666666667 256C170.6666666666667 303.1466666666667 208.8533333333333 341.3333333333334 256 341.3333333333334z" /></svg>