<?xml version="1.0" encoding="UTF-8"?><!DOCTYPE svg PUBLIC "-//W3C//DTD SVG 1.1//EN" "http://www.w3.org/Graphics/SVG/1.1/DTD/svg11.dtd"><svg xmlns="http://www.w3.org/2000/svg" xmlns:xlink="http://www.w3.org/1999/xlink" version="1.1" width="512" height="512" viewBox="0 0 512 512">    <path fill="#ffffff" transform="scale(1, -1) translate(0, -448)" glyph-name="hand-right" unicode="&#xFE2A;" horiz-adv-x="512" d=" M448 307.6266666666667V49.7066666666667C448 10.4533333333333 416.2133333333334 -21.3333333333333 376.9600000000001 -21.3333333333333H247.04C227.8400000000001 -21.3333333333333 209.7066666666667 -13.6533333333333 196.48 0L56.96 141.6533333333334S79.36 163.6266666666667 80 163.84C83.84 167.2533333333333 88.7466666666667 169.1733333333334 94.08 169.1733333333334C97.92 169.1733333333334 101.5466666666667 168.1066666666667 104.7466666666667 166.1866666666667C105.3866666666667 165.9733333333334 181.3333333333333 122.4533333333333 181.3333333333333 122.4533333333333V334.2933333333334C181.3333333333333 349.0133333333333 193.28 360.9600000000001 208 360.9600000000001S234.6666666666667 349.0133333333333 234.6666666666667 334.2933333333334V209.7066666666667H252.3733333333334V378.6666666666667C252.3733333333334 393.3866666666667 264.32 405.3333333333333 279.04 405.3333333333333C293.9733333333333 405.3333333333333 305.7066666666667 393.3866666666667 305.7066666666667 378.6666666666667V209.7066666666667H323.6266666666667V360.9600000000001C323.6266666666667 375.68 335.36 387.6266666666667 350.2933333333334 387.6266666666667C365.0133333333334 387.6266666666667 376.9600000000001 375.68 376.9600000000001 360.9600000000001V209.7066666666667H394.6666666666667V307.6266666666667C394.6666666666667 322.3466666666667 406.6133333333333 334.2933333333334 421.3333333333333 334.2933333333334S448 322.3466666666667 448 307.6266666666667z" /></svg>