<?xml version="1.0" encoding="UTF-8"?><!DOCTYPE svg PUBLIC "-//W3C//DTD SVG 1.1//EN" "http://www.w3.org/Graphics/SVG/1.1/DTD/svg11.dtd"><svg xmlns="http://www.w3.org/2000/svg" xmlns:xlink="http://www.w3.org/1999/xlink" version="1.1" width="512" height="512" viewBox="0 0 512 512">    <path fill="#ffffff" transform="scale(1, -1) translate(0, -448)" glyph-name="power-plug-off" unicode="&#xF6A5;" horiz-adv-x="512" d=" M170.6666666666667 384V316.1600000000001C236.8 251.0933333333334 300.8 185.6 366.9333333333333 121.6C371.2 128.0000000000001 379.7333333333334 132.2666666666667 384 140.8000000000001V260.2666666666667C384 284.16 356.2666666666667 295.2533333333334 341.3333333333333 302.08V384H298.6666666666667V298.6666666666667H213.3333333333333V384H170.6666666666667M69.9733333333333 362.6666666666667C60.8 353.7066666666667 51.84 344.5333333333334 42.6666666666667 335.5733333333334L128 250.24V138.6666666666667C152.96 114.1333333333333 177.7066666666667 88.96 202.6666666666667 64V0H309.3333333333333V64C314.0266666666667 69.76 318.9333333333333 56.96 323.6266666666667 54.6133333333333C349.2266666666667 29.0133333333333 372.6933333333333 3.4133333333334 398.2933333333334 -22.1866666666667C408.9600000000001 -13.6533333333334 417.4933333333334 -2.9866666666667 426.0266666666667 5.5466666666666C306.5600000000001 125.0133333333333 187.0933333333334 242.3466666666667 69.7600000000001 361.8133333333333L69.9733333333333 362.6666666666667z" /></svg>