<?xml version="1.0" encoding="UTF-8"?><!DOCTYPE svg PUBLIC "-//W3C//DTD SVG 1.1//EN" "http://www.w3.org/Graphics/SVG/1.1/DTD/svg11.dtd"><svg xmlns="http://www.w3.org/2000/svg" xmlns:xlink="http://www.w3.org/1999/xlink" version="1.1" width="512" height="512" viewBox="0 0 512 512">    <path fill="#ffffff" transform="scale(1, -1) translate(0, -448)" glyph-name="folder-remove-outline" unicode="&#xFB7A;" horiz-adv-x="512" d=" M244.48 215.8933333333333L274.7733333333333 246.1866666666667L320 200.7466666666667L365.2266666666667 246.1866666666667L395.52 215.8933333333333L350.08 170.6666666666667L395.52 125.44L365.2266666666666 95.1466666666667L320 140.5866666666667L274.7733333333333 95.1466666666667L244.48 125.4400000000001L289.92 170.6666666666667L244.48 215.8933333333334M426.6666666666667 320C450.1333333333334 320 469.3333333333333 300.8 469.3333333333333 277.3333333333334V64C469.3333333333333 40.5333333333333 450.1333333333334 21.3333333333334 426.6666666666667 21.3333333333334H85.3333333333333C61.8666666666667 21.3333333333334 42.6666666666667 40.5333333333333 42.6666666666667 64V320C42.6666666666667 343.4666666666667 61.8666666666667 362.6666666666667 85.3333333333333 362.6666666666667H213.3333333333333L256 320H426.6666666666667M426.6666666666667 64V277.3333333333334H238.2933333333333L195.6266666666667 320H85.3333333333333V64H426.6666666666667z" /></svg>