<?xml version="1.0" encoding="UTF-8"?><!DOCTYPE svg PUBLIC "-//W3C//DTD SVG 1.1//EN" "http://www.w3.org/Graphics/SVG/1.1/DTD/svg11.dtd"><svg xmlns="http://www.w3.org/2000/svg" xmlns:xlink="http://www.w3.org/1999/xlink" version="1.1" width="512" height="512" viewBox="0 0 512 512">    <path fill="#ffffff" transform="scale(1, -1) translate(0, -448)" glyph-name="blood-bag" unicode="&#xFCC8;" horiz-adv-x="512" d=" M448 298.6666666666667C426.6666666666667 298.6666666666667 426.6666666666667 320 426.6666666666667 320V341.3333333333334H384V298.6666666666667H341.3333333333333V320C341.3333333333333 356.9066666666667 314.6666666666667 426.6666666666667 213.3333333333333 426.6666666666667S85.3333333333333 356.9066666666667 85.3333333333333 320V42.6666666666667C85.3333333333333 35.6266666666667 83.2 0 42.6666666666667 0V-42.6666666666666C105.1733333333333 -42.6666666666666 128 8.3200000000001 128 42.6666666666667V320C128 322.56 129.0666666666667 384 213.3333333333333 384C295.04 384 298.6666666666667 326.4 298.6666666666667 320V298.6666666666667H256V341.3333333333334H213.3333333333333V320S213.3333333333333 298.6666666666667 192 298.6666666666667S170.6666666666667 277.3333333333334 170.6666666666667 277.3333333333334V21.3333333333334S170.6666666666667 -21.3333333333333 277.3333333333333 -21.3333333333333H362.6666666666667C469.3333333333333 -21.3333333333333 469.3333333333333 21.3333333333334 469.3333333333333 21.3333333333334V277.3333333333334S469.3333333333333 298.6666666666667 448 298.6666666666667M320 34.1333333333334C284.5866666666667 34.1333333333334 256 62.72 256 98.1333333333334C256 140.8000000000001 320 213.3333333333334 320 213.3333333333334S384 140.8000000000001 384 98.1333333333334C384 62.72 355.4133333333333 34.1333333333334 320 34.1333333333334z" /></svg>