<?xml version="1.0" encoding="UTF-8"?><!DOCTYPE svg PUBLIC "-//W3C//DTD SVG 1.1//EN" "http://www.w3.org/Graphics/SVG/1.1/DTD/svg11.dtd"><svg xmlns="http://www.w3.org/2000/svg" xmlns:xlink="http://www.w3.org/1999/xlink" version="1.1" width="512" height="512" viewBox="0 0 512 512">    <path fill="#ffffff" transform="scale(1, -1) translate(0, -448)" glyph-name="barcode-scan" unicode="&#xF072;" horiz-adv-x="512" d=" M85.3333333333333 320H128V64H85.3333333333333V320M149.3333333333333 320H170.6666666666667V64H149.3333333333333V320M192 320H256V64H192V320M277.3333333333333 320H298.6666666666667V64H277.3333333333333V320M341.3333333333333 320H384V64H341.3333333333333V320M405.3333333333333 320H426.6666666666667V64H405.3333333333333V320M42.6666666666667 362.6666666666667V277.3333333333334H0V362.6666666666667C0 386.1333333333334 19.2 405.3333333333333 42.6666666666667 405.3333333333333H128V362.6666666666667H42.6666666666667M469.3333333333333 405.3333333333333C492.8 405.3333333333333 512 386.1333333333334 512 362.6666666666667V277.3333333333334H469.3333333333333V362.6666666666667H384V405.3333333333333H469.3333333333333M42.6666666666667 106.6666666666667V21.3333333333334H128V-21.3333333333333H42.6666666666667C19.2 -21.3333333333333 0 -2.1333333333333 0 21.3333333333334V106.6666666666667H42.6666666666667M469.3333333333333 21.3333333333334V106.6666666666667H512V21.3333333333334C512 -2.1333333333333 492.8 -21.3333333333333 469.3333333333333 -21.3333333333333H384V21.3333333333334H469.3333333333333z" /></svg>