<?xml version="1.0" encoding="UTF-8"?><!DOCTYPE svg PUBLIC "-//W3C//DTD SVG 1.1//EN" "http://www.w3.org/Graphics/SVG/1.1/DTD/svg11.dtd"><svg xmlns="http://www.w3.org/2000/svg" xmlns:xlink="http://www.w3.org/1999/xlink" version="1.1" width="512" height="512" viewBox="0 0 512 512">    <path fill="#ffffff" transform="scale(1, -1) translate(0, -448)" glyph-name="diving-flippers" unicode="&#xFD9B;" horiz-adv-x="512" d=" M432.64 369.92C411.3066666666667 374.6133333333334 395.5200000000001 400 374.8266666666667 404.48C354.1333333333334 408.96 328.5333333333333 392.7466666666667 307.6266666666667 397.44C285.44 405.3333333333333 260.6933333333333 402.56 240.64 390.1866666666667L239.1466666666667 85.3333333333334L234.6666666666667 64C226.9866666666667 29.44 248.96 -4.6933333333333 283.52 -12.3733333333333C317.8666666666666 -19.84 352 1.9200000000001 359.68 36.48L364.16 57.8133333333334L490.6666666666666 335.36C477.6533333333333 355.2 456.32 367.7866666666667 432.64 369.92M318.08 45.6533333333334C315.52 33.92 304 26.4533333333334 292.2666666666667 28.8000000000001C280.32 31.3600000000001 272.8533333333333 42.6666666666667 275.4133333333333 54.8266666666667L293.76 138.6666666666667C295.68 149.9733333333334 306.56 157.8666666666667 318.2933333333333 155.9466666666667C329.8133333333334 154.0266666666667 337.7066666666667 142.9333333333334 335.7866666666667 131.4133333333334C335.7866666666667 130.5600000000001 335.5733333333333 129.92 335.36 129.0666666666667L318.08 45.6533333333334M207.36 -7.2533333333333C199.04 5.76 193.7066666666666 20.2666666666667 192 35.4133333333334L175.7866666666667 106.6666666666667C172.8 117.9733333333334 179.4133333333333 129.7066666666667 192 133.12C193.4933333333334 133.3333333333334 195.2 133.3333333333334 196.6933333333333 133.12V374.8266666666667C177.28 374.8266666666667 154.0266666666667 386.9866666666667 136.1066666666667 382.7200000000001C118.1866666666667 378.4533333333333 100.0533333333334 353.2800000000001 79.36 348.5866666666667C55.68 346.4533333333334 34.3466666666667 333.8666666666667 21.3333333333333 314.0266666666667L147.84 36.6933333333333L152.32 15.36C160 -19.2 193.92 -40.96 228.48 -33.4933333333333H230.6133333333333C221.44 -26.0266666666666 213.3333333333333 -17.28 207.36 -7.2533333333333z" /></svg>