<?xml version="1.0" encoding="UTF-8"?><!DOCTYPE svg PUBLIC "-//W3C//DTD SVG 1.1//EN" "http://www.w3.org/Graphics/SVG/1.1/DTD/svg11.dtd"><svg xmlns="http://www.w3.org/2000/svg" xmlns:xlink="http://www.w3.org/1999/xlink" version="1.1" width="512" height="512" viewBox="0 0 512 512">    <path fill="#ffffff" transform="scale(1, -1) translate(0, -448)" glyph-name="hammer" unicode="&#xF8E9;" horiz-adv-x="512" d=" M341.3333333333333 341.3333333333334L405.3333333333333 277.3333333333334L394.6666666666667 266.6666666666667C416 245.3333333333334 426.6666666666667 234.6666666666667 437.3333333333333 245.3333333333334L469.3333333333333 213.3333333333334C469.3333333333333 192 437.3333333333333 160 416 160L384 192C394.6666666666667 202.6666666666667 384 213.3333333333334 362.6666666666667 234.6666666666667L341.3333333333333 213.3333333333334L277.3333333333333 277.3333333333334C309.3333333333333 320 277.3333333333333 362.6666666666667 192 341.3333333333334C213.3333333333333 362.6666666666667 234.6666666666667 384 256 384C266.6666666666667 384 298.6666666666667 384 341.3333333333333 341.3333333333334M42.6666666666667 21.3333333333334L85.3333333333333 -21.3333333333333L298.6666666666667 192L256 234.6666666666667L42.6666666666667 21.3333333333334z" /></svg>