<?xml version="1.0" encoding="UTF-8"?><!DOCTYPE svg PUBLIC "-//W3C//DTD SVG 1.1//EN" "http://www.w3.org/Graphics/SVG/1.1/DTD/svg11.dtd"><svg xmlns="http://www.w3.org/2000/svg" xmlns:xlink="http://www.w3.org/1999/xlink" version="1.1" width="512" height="512" viewBox="0 0 512 512">    <path fill="#ffffff" transform="scale(1, -1) translate(0, -448)" glyph-name="basket-unfill" unicode="&#xF078;" horiz-adv-x="512" d=" M64 234.6666666666667H128V298.6666666666667H64V234.6666666666667M106.6666666666667 341.3333333333334H170.6666666666667V405.3333333333333H106.6666666666667V341.3333333333334M170.6666666666667 234.6666666666667H234.6666666666667V298.6666666666667H170.6666666666667V234.6666666666667M362.6666666666667 426.6666666666667L256 320H320V234.6666666666667H405.3333333333333V320H469.3333333333333L362.6666666666667 426.6666666666667M160 -21.3333333333333C143.36 -21.3333333333333 128.8533333333333 -11.7333333333333 121.8133333333333 2.1333333333334L66.1333333333333 161.28L64 170.6666666666667C64 182.4 73.6 192 85.3333333333333 192H426.6666666666667C438.4 192 448 182.4 448 170.6666666666667L447.1466666666667 164.48L390.1866666666666 2.1333333333334C383.1466666666667 -11.7333333333332 368.64 -21.3333333333333 352 -21.3333333333333H160M162.3466666666667 21.3333333333334H349.6533333333333L396.16 149.3333333333334H115.6266666666667L162.3466666666666 21.3333333333334z" /></svg>