<?xml version="1.0" encoding="UTF-8"?><!DOCTYPE svg PUBLIC "-//W3C//DTD SVG 1.1//EN" "http://www.w3.org/Graphics/SVG/1.1/DTD/svg11.dtd"><svg xmlns="http://www.w3.org/2000/svg" xmlns:xlink="http://www.w3.org/1999/xlink" version="1.1" width="512" height="512" viewBox="0 0 512 512">    <path fill="#ffffff" transform="scale(1, -1) translate(0, -448)" glyph-name="database-lock" unicode="&#xFAA9;" horiz-adv-x="512" d=" M234.6666666666667 384C328.96 384 405.3333333333333 345.8133333333334 405.3333333333333 298.6666666666667S328.96 213.3333333333334 234.6666666666667 213.3333333333334S64 251.52 64 298.6666666666667S140.3733333333333 384 234.6666666666667 384M405.3333333333333 191.36C365.0133333333333 186.88 332.16 157.4400000000001 322.7733333333333 118.8266666666667C296.9599999999999 111.1466666666667 266.6666666666667 106.6666666666667 234.6666666666667 106.6666666666667C140.3733333333333 106.6666666666667 64 144.8533333333334 64 192V256C64 208.8533333333333 140.3733333333333 170.6666666666667 234.6666666666667 170.6666666666667S405.3333333333333 208.8533333333333 405.3333333333333 256V191.36M298.6666666666667 70.1866666666667V6.1866666666667C278.8266666666667 2.1333333333333 257.28 0 234.6666666666667 0C140.3733333333333 0 64 38.1866666666667 64 85.3333333333334V149.3333333333334C64 102.1866666666667 140.3733333333333 64 234.6666666666667 64C257.28 64 278.8266666666667 66.1333333333334 298.6666666666667 70.1866666666667M416 149.3333333333334C445.44 149.3333333333334 469.3333333333333 125.44 469.3333333333333 96V85.3333333333334C481.0666666666667 85.3333333333334 490.6666666666666 75.7333333333334 490.6666666666666 64V-21.3333333333333C490.6666666666666 -33.0666666666667 481.0666666666667 -42.6666666666666 469.3333333333333 -42.6666666666666H362.6666666666667C350.9333333333333 -42.6666666666666 341.3333333333333 -33.0666666666667 341.3333333333333 -21.3333333333333V64C341.3333333333333 75.7333333333334 350.9333333333333 85.3333333333334 362.6666666666667 85.3333333333334V96C362.6666666666667 125.44 386.56 149.3333333333334 416 149.3333333333334M416 128C398.2933333333334 128 384 113.7066666666667 384 96V85.3333333333334H448V96C448 113.7066666666667 433.7066666666666 128 416 128z" /></svg>