<?xml version="1.0" encoding="UTF-8"?><!DOCTYPE svg PUBLIC "-//W3C//DTD SVG 1.1//EN" "http://www.w3.org/Graphics/SVG/1.1/DTD/svg11.dtd"><svg xmlns="http://www.w3.org/2000/svg" xmlns:xlink="http://www.w3.org/1999/xlink" version="1.1" width="512" height="512" viewBox="0 0 512 512">    <path fill="#ffffff" transform="scale(1, -1) translate(0, -448)" glyph-name="textbox-password" unicode="&#xF7F4;" horiz-adv-x="512" d=" M362.6666666666667 298.6666666666667H469.3333333333333V85.3333333333334H362.6666666666667V42.6666666666667C362.6666666666667 30.9333333333333 372.2666666666667 21.3333333333334 384 21.3333333333334H426.6666666666667V-21.3333333333333H373.3333333333333C361.6 -21.3333333333333 341.3333333333333 -11.7333333333333 341.3333333333333 0C341.3333333333333 -11.7333333333333 321.0666666666667 -21.3333333333333 309.3333333333333 -21.3333333333333H256V21.3333333333334H298.6666666666667C310.4 21.3333333333334 320 30.9333333333333 320 42.6666666666667V341.3333333333334C320 353.0666666666667 310.4 362.6666666666667 298.6666666666667 362.6666666666667H256V405.3333333333333H309.3333333333333C321.0666666666667 405.3333333333333 341.3333333333333 395.7333333333334 341.3333333333333 384C341.3333333333333 395.7333333333334 361.6 405.3333333333333 373.3333333333333 405.3333333333333H426.6666666666667V362.6666666666667H384C372.2666666666667 362.6666666666667 362.6666666666667 353.0666666666667 362.6666666666667 341.3333333333334V298.6666666666667M42.6666666666667 298.6666666666667H277.3333333333333V256H85.3333333333333V128H277.3333333333333V85.3333333333334H42.6666666666667V298.6666666666667M426.6666666666667 128V256H362.6666666666667V128H426.6666666666667M181.3333333333333 192C181.3333333333333 209.7066666666667 167.04 224 149.3333333333333 224S117.3333333333333 209.7066666666667 117.3333333333333 192S131.6266666666667 160 149.3333333333333 160S181.3333333333333 174.2933333333334 181.3333333333333 192M277.3333333333333 215.68C264.32 227.6266666666667 244.0533333333333 226.56 232.1066666666667 213.3333333333334C220.16 200.5333333333334 221.2266666666666 180.2666666666667 234.6666666666667 168.3200000000001C246.4 157.2266666666667 265.1733333333333 157.2266666666667 277.3333333333333 168.3200000000001V215.68z" /></svg>