<?xml version="1.0" encoding="UTF-8"?><!DOCTYPE svg PUBLIC "-//W3C//DTD SVG 1.1//EN" "http://www.w3.org/Graphics/SVG/1.1/DTD/svg11.dtd"><svg xmlns="http://www.w3.org/2000/svg" xmlns:xlink="http://www.w3.org/1999/xlink" version="1.1" width="512" height="512" viewBox="0 0 512 512">    <path fill="#ffffff" transform="scale(1, -1) translate(0, -448)" glyph-name="content-cut" unicode="&#xF190;" horiz-adv-x="512" d=" M405.3333333333333 384L277.3333333333333 256L320 213.3333333333334L469.3333333333333 362.6666666666667V384M256 181.3333333333334C250.0266666666667 181.3333333333334 245.3333333333333 186.0266666666667 245.3333333333333 192S250.0266666666667 202.6666666666667 256 202.6666666666667S266.6666666666667 197.9733333333333 266.6666666666667 192S261.9733333333333 181.3333333333334 256 181.3333333333334M128 21.3333333333334C104.5333333333333 21.3333333333334 85.3333333333333 40.5333333333333 85.3333333333333 64C85.3333333333333 87.68 104.5333333333333 106.6666666666667 128 106.6666666666667S170.6666666666667 87.4666666666667 170.6666666666667 64C170.6666666666667 40.3200000000001 151.4666666666667 21.3333333333334 128 21.3333333333334M128 277.3333333333334C104.5333333333333 277.3333333333334 85.3333333333333 296.5333333333334 85.3333333333333 320C85.3333333333333 343.68 104.5333333333333 362.6666666666667 128 362.6666666666667S170.6666666666667 343.4666666666667 170.6666666666667 320C170.6666666666667 296.32 151.4666666666667 277.3333333333334 128 277.3333333333334M205.6533333333333 285.0133333333333C210.56 295.68 213.3333333333333 307.4133333333334 213.3333333333333 320C213.3333333333333 367.1466666666667 175.1466666666667 405.3333333333333 128 405.3333333333333S42.6666666666667 367.1466666666667 42.6666666666667 320S80.8533333333333 234.6666666666667 128 234.6666666666667C140.5866666666667 234.6666666666667 152.32 237.4400000000001 162.9866666666667 242.3466666666667L213.3333333333333 192L162.9866666666667 141.6533333333334C152.32 146.56 140.5866666666667 149.3333333333334 128 149.3333333333334C80.8533333333333 149.3333333333334 42.6666666666667 111.1466666666667 42.6666666666667 64S80.8533333333333 -21.3333333333333 128 -21.3333333333333S213.3333333333333 16.8533333333334 213.3333333333333 64C213.3333333333333 76.5866666666667 210.56 88.3200000000001 205.6533333333333 98.9866666666667L256 149.3333333333334L405.3333333333333 0H469.3333333333333V21.3333333333334L205.6533333333333 285.0133333333333z" /></svg>