<?xml version="1.0" encoding="UTF-8"?><!DOCTYPE svg PUBLIC "-//W3C//DTD SVG 1.1//EN" "http://www.w3.org/Graphics/SVG/1.1/DTD/svg11.dtd"><svg xmlns="http://www.w3.org/2000/svg" xmlns:xlink="http://www.w3.org/1999/xlink" version="1.1" width="512" height="512" viewBox="0 0 512 512">    <path fill="#ffffff" transform="scale(1, -1) translate(0, -448)" glyph-name="google-glass" unicode="&#xF2B8;" horiz-adv-x="512" d=" M277.3333333333333 213.3333333333334V160H402.56C389.5466666666667 85.3333333333334 330.6666666666667 32 256 32C167.68 32 96 103.68 96 192C96 280.32 167.68 352 256 352C300.5866666666667 352 339.2 333.0133333333333 366.08 302.0800000000001L403.84 340.0533333333334C367.7866666666667 380.16 316.3733333333334 405.3333333333333 256 405.3333333333333C138.24 405.3333333333333 42.6666666666667 309.76 42.6666666666667 192S138.24 -21.3333333333333 256 -21.3333333333333C373.3333333333333 -21.3333333333333 458.6666666666666 74.6666666666667 458.6666666666666 192V213.3333333333334H277.3333333333333z" /></svg>