<?xml version="1.0" encoding="UTF-8"?><!DOCTYPE svg PUBLIC "-//W3C//DTD SVG 1.1//EN" "http://www.w3.org/Graphics/SVG/1.1/DTD/svg11.dtd"><svg xmlns="http://www.w3.org/2000/svg" xmlns:xlink="http://www.w3.org/1999/xlink" version="1.1" width="512" height="512" viewBox="0 0 512 512">    <path fill="#ffffff" transform="scale(1, -1) translate(0, -448)" glyph-name="pier" unicode="&#xF886;" horiz-adv-x="512" d=" M426.6666666666667 64C396.8 64 366.9333333333333 74.6666666666667 341.3333333333333 91.7333333333334C290.1333333333334 55.4666666666667 221.8666666666667 55.4666666666667 170.6666666666667 91.7333333333334C145.0666666666667 74.6666666666667 115.2 64 85.3333333333333 64H42.6666666666667V21.3333333333334H85.3333333333333C115.2 21.3333333333334 142.9333333333333 29.8666666666667 170.6666666666667 42.6666666666667C224 14.9333333333333 288 14.9333333333333 341.3333333333333 42.6666666666667C369.0666666666667 29.8666666666667 396.8 21.3333333333334 426.6666666666667 21.3333333333334H469.3333333333333V64H426.6666666666667M426.6666666666667 170.6666666666667H405.3333333333333V87.4666666666667C390.4 89.6000000000001 375.4666666666667 93.8666666666667 362.6666666666667 102.4V170.6666666666667H256V85.3333333333334C241.0666666666667 85.3333333333334 228.2666666666667 87.4666666666667 213.3333333333333 91.7333333333334V170.6666666666667H106.6666666666667V87.4666666666667C100.2666666666667 85.3333333333334 91.7333333333333 85.3333333333334 85.3333333333333 85.3333333333334H64V170.6666666666667H42.6666666666667V213.3333333333334H64V256H106.6666666666667V213.3333333333334H213.3333333333333V256H256V213.3333333333334H362.6666666666667V256H405.3333333333333V213.3333333333334H426.6666666666667V170.6666666666667z" /></svg>