<?xml version="1.0" encoding="UTF-8"?><!DOCTYPE svg PUBLIC "-//W3C//DTD SVG 1.1//EN" "http://www.w3.org/Graphics/SVG/1.1/DTD/svg11.dtd"><svg xmlns="http://www.w3.org/2000/svg" xmlns:xlink="http://www.w3.org/1999/xlink" version="1.1" width="512" height="512" viewBox="0 0 512 512">    <path fill="#ffffff" transform="scale(1, -1) translate(0, -448)" glyph-name="billiards" unicode="&#xFB3D;" horiz-adv-x="512" d=" M234.6666666666667 170.6666666666667H277.3333333333333V128H234.6666666666667M234.6666666666667 256H277.3333333333333V213.3333333333334H234.6666666666667M234.6666666666667 85.3333333333334H277.3333333333333C300.8 85.3333333333334 320 104.5333333333333 320 128V160C320 177.7066666666667 305.7066666666667 192 288 192C305.7066666666667 192 320 206.2933333333334 320 224V256C320 279.4666666666667 300.8 298.6666666666667 277.3333333333333 298.6666666666667H234.6666666666667C211.2 298.6666666666667 192 279.4666666666667 192 256V224C192 206.2933333333334 206.2933333333333 192 224 192C206.2933333333333 192 192 177.7066666666667 192 160V128C192 104.5333333333333 211.2 85.3333333333334 234.6666666666667 85.3333333333334M256 426.6666666666667C126.2933333333333 426.6666666666667 21.3333333333333 321.7066666666667 21.3333333333333 192S126.2933333333333 -42.6666666666666 256 -42.6666666666666S490.6666666666666 62.2933333333334 490.6666666666666 192S385.7066666666666 426.6666666666667 256 426.6666666666667M256 42.6666666666667C173.44 42.6666666666667 106.6666666666667 109.44 106.6666666666667 192S173.44 341.3333333333334 256 341.3333333333334S405.3333333333333 274.5600000000001 405.3333333333333 192S338.56 42.6666666666667 256 42.6666666666667z" /></svg>