<?xml version="1.0" encoding="UTF-8"?><!DOCTYPE svg PUBLIC "-//W3C//DTD SVG 1.1//EN" "http://www.w3.org/Graphics/SVG/1.1/DTD/svg11.dtd"><svg xmlns="http://www.w3.org/2000/svg" xmlns:xlink="http://www.w3.org/1999/xlink" version="1.1" width="512" height="512" viewBox="0 0 512 512">    <path fill="#ffffff" transform="scale(1, -1) translate(0, -448)" glyph-name="litecoin" unicode="&#xFA60;" horiz-adv-x="512" d=" M267.7333333333334 108.3733333333333L280.7466666666667 154.0266666666667L315.9466666666667 166.6133333333334L346.6666666666667 285.2266666666667L310.6133333333334 270.7200000000001L346.6666666666667 405.3333333333333H170.6666666666667L114.7733333333333 196.9066666666667L79.36 184.7466666666667L47.36 65.92L85.3333333333333 79.5733333333334L56.7466666666667 -21.3333333333333H430.08L464.64 108.3733333333333H267.7333333333334M413.6533333333333 0H85.3333333333333L116.48 114.1333333333333L79.36 100.2666666666667L97.7066666666667 168.32L133.12 180.48L186.4533333333333 384H320L280.1066666666667 234.6666666666667L316.3733333333333 249.6L298.6666666666667 183.04L263.04 170.6666666666666L239.36 87.2533333333333H437.3333333333333L413.6533333333333 0z" /></svg>