<?xml version="1.0" encoding="UTF-8"?><!DOCTYPE svg PUBLIC "-//W3C//DTD SVG 1.1//EN" "http://www.w3.org/Graphics/SVG/1.1/DTD/svg11.dtd"><svg xmlns="http://www.w3.org/2000/svg" xmlns:xlink="http://www.w3.org/1999/xlink" version="1.1" width="512" height="512" viewBox="0 0 512 512">    <path fill="#ffffff" transform="scale(1, -1) translate(0, -448)" glyph-name="monitor-screenshot" unicode="&#xFE34;" horiz-adv-x="512" d=" M192 320H106.6666666666667V234.6666666666667H149.3333333333333V277.3333333333334H192M405.3333333333333 234.6666666666667H362.6666666666667V192H320V149.3333333333334H405.3333333333333M448 106.6666666666667H64V362.6666666666667H448M448 405.3333333333333H64C40.32 405.3333333333333 21.3333333333333 386.3466666666667 21.3333333333333 362.6666666666667V106.6666666666667C21.3333333333333 83.2 40.5333333333333 64 64 64H213.3333333333333V21.3333333333334H170.6666666666667V-21.3333333333333H341.3333333333333V21.3333333333334H298.6666666666667V64H448C471.4666666666667 64 490.6666666666666 83.2 490.6666666666666 106.6666666666667V362.6666666666667C490.6666666666666 386.3466666666667 471.4666666666667 405.3333333333333 448 405.3333333333333" /></svg>