<?xml version="1.0" encoding="UTF-8"?><!DOCTYPE svg PUBLIC "-//W3C//DTD SVG 1.1//EN" "http://www.w3.org/Graphics/SVG/1.1/DTD/svg11.dtd"><svg xmlns="http://www.w3.org/2000/svg" xmlns:xlink="http://www.w3.org/1999/xlink" version="1.1" width="512" height="512" viewBox="0 0 512 512">    <path fill="#ffffff" transform="scale(1, -1) translate(0, -448)" glyph-name="selection-off" unicode="&#xF776;" horiz-adv-x="512" d=" M10.6666666666667 367.5733333333333L37.9733333333333 394.6666666666667L458.6666666666666 -26.0266666666666L431.5733333333333 -53.3333333333333L399.5733333333333 -21.3333333333333H362.6666666666667V15.5733333333334L79.5733333333333 298.6666666666667H42.6666666666667V335.5733333333334L10.6666666666667 367.5733333333333M85.3333333333333 405.3333333333333H149.3333333333333V362.6666666666667H124.16L81.7066666666667 405.3333333333333H85.3333333333333M469.3333333333333 362.6666666666667V298.6666666666667H426.6666666666667V362.6666666666667H362.6666666666667V405.3333333333333H426.6666666666667C450.1333333333334 405.3333333333333 469.3333333333333 386.1333333333334 469.3333333333333 362.6666666666667M426.6666666666667 85.3333333333334H469.3333333333333V17.7066666666667L426.6666666666667 60.16V85.3333333333334M42.6666666666667 21.3333333333334V85.3333333333334H85.3333333333333V21.3333333333334H149.3333333333333V-21.3333333333333H85.3333333333333C61.8666666666667 -21.3333333333333 42.6666666666667 -2.1333333333333 42.6666666666667 21.3333333333334M213.3333333333333 405.3333333333333H298.6666666666667V362.6666666666667H213.3333333333333V405.3333333333333M213.3333333333333 21.3333333333334H298.6666666666667V-21.3333333333333H213.3333333333333V21.3333333333334M426.6666666666667 234.6666666666667H469.3333333333333V149.3333333333334H426.6666666666667V234.6666666666667M42.6666666666667 234.6666666666667H85.3333333333333V149.3333333333334H42.6666666666667V234.6666666666667z" /></svg>