<?xml version="1.0" encoding="UTF-8"?><!DOCTYPE svg PUBLIC "-//W3C//DTD SVG 1.1//EN" "http://www.w3.org/Graphics/SVG/1.1/DTD/svg11.dtd"><svg xmlns="http://www.w3.org/2000/svg" xmlns:xlink="http://www.w3.org/1999/xlink" version="1.1" width="512" height="512" viewBox="0 0 512 512">    <path fill="#ffffff" transform="scale(1, -1) translate(0, -448)" glyph-name="untappd" unicode="&#xF551;" horiz-adv-x="512" d=" M307.4133333333333 362.6666666666667S318.72 354.3466666666667 319.36 347.52C319.36 345.3866666666667 314.24 344.5333333333334 313.1733333333334 342.8266666666667C311.8933333333333 341.3333333333334 313.6 338.1333333333334 312.5333333333334 336.8533333333334C311.2533333333334 335.7866666666667 309.3333333333334 335.7866666666667 307.4133333333334 332.5866666666667C305.7066666666667 329.3866666666667 257.4933333333334 232.7466666666667 250.2400000000001 221.2266666666667C247.2533333333334 212.6933333333334 244.6933333333334 182.1866666666667 242.5600000000001 177.9200000000001C240.2133333333334 173.8666666666667 135.2533333333334 24.7466666666668 131.4133333333334 20.2666666666668C120.9600000000001 7.8933333333334 91.9466666666667 14.9333333333334 69.9733333333334 30.72C49.0666666666667 45.6533333333334 37.1200000000001 70.4 45.0133333333334 81.92C48.4266666666667 86.8266666666667 152.5333333333334 236.3733333333334 155.5200000000001 240C158.7200000000001 243.6266666666667 186.6666666666668 256 193.4933333333334 262.1866666666667C202.0266666666667 272.64 276.48 351.1466666666667 278.8266666666667 353.7066666666667C281.1733333333334 356.2666666666667 280.5333333333334 358.4 281.1733333333334 359.8933333333333C282.0266666666667 361.3866666666667 285.44 360.96 286.5066666666667 362.6666666666667C288 364.16 285.6533333333334 368.8533333333334 288 369.4933333333334C289.92 370.3466666666667 297.8133333333334 369.7066666666667 307.4133333333334 362.6666666666667M231.4666666666667 353.28L250.4533333333334 333.44L218.88 299.9466666666667L201.8133333333333 333.44C200.1066666666667 336.64 197.9733333333334 336.64 196.6933333333333 337.7066666666667C195.6266666666667 338.9866666666667 197.12 341.9733333333334 196.0533333333334 343.68C194.7733333333334 345.3866666666667 189.8666666666667 344.96 189.8666666666667 347.0933333333334C189.8666666666667 349.44 193.0666666666667 356.6933333333334 202.6666666666667 363.52C202.6666666666667 363.52 214.6133333333334 371.2 221.2266666666667 369.4933333333334C223.36 368.8533333333334 222.5066666666667 363.7333333333334 224 362.6666666666667C224.8533333333334 360.5333333333333 228.2666666666667 360.96 228.9066666666667 359.4666666666667C229.76 358.1866666666667 228.9066666666667 355.84 231.4666666666667 353.28M467.6266666666667 82.1333333333333C475.52 68.0533333333333 459.3066666666667 42.6666666666666 437.3333333333333 27.7333333333333C416 13.0133333333333 388.48 9.8133333333333 380.3733333333333 21.3333333333333C376.7466666666666 26.0266666666666 270.2933333333333 174.5066666666666 267.9466666666666 178.7733333333333C265.6 182.8266666666666 262.8266666666666 213.3333333333333 259.8399999999999 222.0799999999999L259.2 222.9333333333332C265.6 234.6666666666666 278.8266666666666 260.9066666666665 292.9066666666667 288.6399999999999C305.0666666666666 276.0533333333333 314.6666666666667 265.3866666666666 317.44 261.9733333333333C324.48 255.9999999999999 352.64 243.6266666666666 355.84 239.9999999999999C358.8266666666667 236.3733333333332 464.64 87.2533333333333 467.6266666666667 82.1333333333332z" /></svg>