<?xml version="1.0" encoding="UTF-8"?><!DOCTYPE svg PUBLIC "-//W3C//DTD SVG 1.1//EN" "http://www.w3.org/Graphics/SVG/1.1/DTD/svg11.dtd"><svg xmlns="http://www.w3.org/2000/svg" xmlns:xlink="http://www.w3.org/1999/xlink" version="1.1" width="512" height="512" viewBox="0 0 512 512">    <path fill="#ffffff" transform="scale(1, -1) translate(0, -448)" glyph-name="monitor-cellphone-star" unicode="&#xF989;" horiz-adv-x="512" d=" M490.6666666666666 213.3333333333334H384C372.2666666666667 213.3333333333334 362.6666666666667 203.7333333333334 362.6666666666667 192V0C362.6666666666667 -11.7333333333333 372.2666666666667 -21.3333333333333 384 -21.3333333333333H490.6666666666666C502.4 -21.3333333333333 512 -11.7333333333333 512 0V192C512 203.7333333333334 502.4 213.3333333333334 490.6666666666666 213.3333333333334M490.6666666666666 21.3333333333334H384V170.6666666666667H490.6666666666666V21.3333333333334M426.6666666666667 405.3333333333333H42.6666666666667C18.9866666666667 405.3333333333333 0 386.3466666666667 0 362.6666666666667V106.6666666666667C0 83.2 19.2 64 42.6666666666667 64H192V21.3333333333334H149.3333333333333V-21.3333333333333H320V21.3333333333334H277.3333333333333V64H320V106.6666666666667H42.6666666666667V362.6666666666667H426.6666666666667V256H469.3333333333333V362.6666666666667C469.3333333333333 386.3466666666667 450.1333333333334 405.3333333333333 426.6666666666667 405.3333333333333M255.36 256L234.6666666666667 320L213.9733333333333 256H149.3333333333333L202.0266666666667 218.4533333333334L181.9733333333334 156.3733333333333L234.6666666666667 194.7733333333334L287.36 156.3733333333333L267.3066666666668 218.4533333333334L320 256H255.36z" /></svg>