<?xml version="1.0" encoding="UTF-8"?><!DOCTYPE svg PUBLIC "-//W3C//DTD SVG 1.1//EN" "http://www.w3.org/Graphics/SVG/1.1/DTD/svg11.dtd"><svg xmlns="http://www.w3.org/2000/svg" xmlns:xlink="http://www.w3.org/1999/xlink" version="1.1" width="512" height="512" viewBox="0 0 512 512">    <path fill="#ffffff" transform="scale(1, -1) translate(0, -448)" glyph-name="table-tennis" unicode="&#xFE4B;" horiz-adv-x="512" d=" M394.6666666666667 149.3333333333334C424.5333333333333 149.3333333333334 448 125.8666666666667 448 96S424.5333333333333 42.6666666666667 394.6666666666667 42.6666666666667S341.3333333333333 66.1333333333334 341.3333333333333 96S364.8 149.3333333333334 394.6666666666667 149.3333333333334M149.3333333333333 128S170.6666666666667 106.6666666666667 170.6666666666667 85.3333333333334V10.6666666666667C170.6666666666667 -6.4 185.6 -21.3333333333333 202.6666666666667 -21.3333333333333S234.6666666666667 -6.4 234.6666666666667 10.6666666666667V85.3333333333334C234.6666666666667 106.6666666666667 256 128 256 128H149.3333333333333M170.6666666666667 149.3333333333334H234.6666666666667S341.3333333333333 149.3333333333334 341.3333333333333 256S256 405.3333333333333 202.6666666666667 405.3333333333333S64 362.6666666666667 64 256S170.6666666666667 149.3333333333334 170.6666666666667 149.3333333333334z" /></svg>