<?xml version="1.0" encoding="UTF-8"?><!DOCTYPE svg PUBLIC "-//W3C//DTD SVG 1.1//EN" "http://www.w3.org/Graphics/SVG/1.1/DTD/svg11.dtd"><svg xmlns="http://www.w3.org/2000/svg" xmlns:xlink="http://www.w3.org/1999/xlink" version="1.1" width="512" height="512" viewBox="0 0 512 512">    <path fill="#ffffff" transform="scale(1, -1) translate(0, -448)" glyph-name="radiator-disabled" unicode="&#xFAD6;" horiz-adv-x="512" d=" M426.6666666666667 192H85.3333333333333C61.8666666666667 192 42.6666666666667 172.8 42.6666666666667 149.3333333333334V-21.3333333333333H85.3333333333333V21.3333333333334H426.6666666666667V-21.3333333333333H469.3333333333333V149.3333333333334C469.3333333333333 172.8 450.1333333333334 192 426.6666666666667 192M149.3333333333333 85.3333333333334C149.3333333333333 73.6 139.7333333333333 64 128 64S106.6666666666667 73.6 106.6666666666667 85.3333333333334V128C106.6666666666667 139.7333333333334 116.2666666666667 149.3333333333334 128 149.3333333333334S149.3333333333333 139.7333333333334 149.3333333333333 128V85.3333333333334M234.6666666666667 85.3333333333334C234.6666666666667 73.6 225.0666666666667 64 213.3333333333333 64S192 73.6 192 85.3333333333334V128C192 139.7333333333334 201.6 149.3333333333334 213.3333333333333 149.3333333333334S234.6666666666667 139.7333333333334 234.6666666666667 128V85.3333333333334M320 85.3333333333334C320 73.6 310.4 64 298.6666666666667 64S277.3333333333333 73.6 277.3333333333333 85.3333333333334V128C277.3333333333333 139.7333333333334 286.9333333333333 149.3333333333334 298.6666666666667 149.3333333333334S320 139.7333333333334 320 128V85.3333333333334M405.3333333333333 85.3333333333334C405.3333333333333 73.6 395.7333333333334 64 384 64S362.6666666666667 73.6 362.6666666666667 85.3333333333334V128C362.6666666666667 139.7333333333334 372.2666666666667 149.3333333333334 384 149.3333333333334S405.3333333333333 139.7333333333334 405.3333333333333 128V85.3333333333334z" /></svg>