<?xml version="1.0" encoding="UTF-8"?><!DOCTYPE svg PUBLIC "-//W3C//DTD SVG 1.1//EN" "http://www.w3.org/Graphics/SVG/1.1/DTD/svg11.dtd"><svg xmlns="http://www.w3.org/2000/svg" xmlns:xlink="http://www.w3.org/1999/xlink" version="1.1" width="512" height="512" viewBox="0 0 512 512">    <path fill="#ffffff" transform="scale(1, -1) translate(0, -448)" glyph-name="stadium" unicode="&#xF71F;" horiz-adv-x="512" d=" M106.6666666666667 384H149.3333333333333L213.3333333333333 341.3333333333334L149.3333333333333 298.6666666666667V270.2933333333334C180.6933333333333 274.7733333333334 217.1733333333333 277.3333333333334 256 277.3333333333334C294.8266666666667 277.3333333333334 331.3066666666666 274.7733333333334 362.6666666666667 270.2933333333334V384H405.3333333333333L469.3333333333333 341.3333333333334L405.3333333333333 298.6666666666667V262.1866666666667C444.8 252.3733333333333 469.3333333333333 238.9333333333334 469.3333333333333 224C469.3333333333333 194.56 373.3333333333333 170.6666666666667 256 170.6666666666667S42.6666666666667 194.56 42.6666666666667 224C42.6666666666667 238.9333333333334 67.2 252.3733333333334 106.6666666666667 262.1866666666667V384M256 245.3333333333334C185.3866666666667 245.3333333333334 149.3333333333333 241.7066666666667 149.3333333333333 224S185.3866666666667 202.6666666666667 256 202.6666666666667S362.6666666666667 206.2933333333334 362.6666666666667 224S326.6133333333334 245.3333333333334 256 245.3333333333334M256 133.3333333333334C337.28 133.3333333333334 409.6 147.6266666666667 456.5333333333333 169.6L426.6666666666667 0H320V42.6666666666667C320 66.1333333333334 300.8 85.3333333333334 277.3333333333333 85.3333333333334H234.6666666666667C211.2 85.3333333333334 192 66.1333333333334 192 42.6666666666667V0H85.3333333333333L55.4666666666667 169.6C102.4 147.6266666666667 174.72 133.3333333333334 256 133.3333333333334z" /></svg>