<?xml version="1.0" encoding="UTF-8"?><!DOCTYPE svg PUBLIC "-//W3C//DTD SVG 1.1//EN" "http://www.w3.org/Graphics/SVG/1.1/DTD/svg11.dtd"><svg xmlns="http://www.w3.org/2000/svg" xmlns:xlink="http://www.w3.org/1999/xlink" version="1.1" width="512" height="512" viewBox="0 0 512 512">    <path fill="#ffffff" transform="scale(1, -1) translate(0, -448)" glyph-name="caps-lock" unicode="&#xFA9A;" horiz-adv-x="512" d=" M212.48 155.52L256 271.1466666666667L299.3066666666666 155.3066666666667M237.6533333333334 320L137.1733333333333 64H178.3466666666666L198.8266666666667 118.8266666666667H313.1733333333333L333.6533333333333 64H374.8266666666667L274.3466666666667 320H237.6533333333333M426.6666666666667 405.3333333333333H85.3333333333333C61.6533333333333 405.3333333333333 42.6666666666667 386.3466666666667 42.6666666666667 362.6666666666667V21.3333333333334C42.6666666666667 -2.3466666666666 61.8666666666667 -21.3333333333333 85.3333333333333 -21.3333333333333H426.6666666666667C450.3466666666667 -21.3333333333333 469.3333333333333 -2.3466666666666 469.3333333333333 21.3333333333334V362.6666666666667C469.3333333333333 386.3466666666667 450.1333333333334 405.3333333333333 426.6666666666667 405.3333333333333M426.6666666666667 21.3333333333334H85.3333333333333V362.6666666666667H426.6666666666667V21.3333333333334z" /></svg>