<?xml version="1.0" encoding="UTF-8"?><!DOCTYPE svg PUBLIC "-//W3C//DTD SVG 1.1//EN" "http://www.w3.org/Graphics/SVG/1.1/DTD/svg11.dtd"><svg xmlns="http://www.w3.org/2000/svg" xmlns:xlink="http://www.w3.org/1999/xlink" version="1.1" width="512" height="512" viewBox="0 0 512 512">    <path fill="#ffffff" transform="scale(1, -1) translate(0, -448)" glyph-name="brain" unicode="&#xF9D0;" horiz-adv-x="512" d=" M455.04 172.5866666666667C456.9599999999999 139.52 441.8133333333333 107.7333333333334 414.7199999999999 88.3200000000001L431.1466666666666 56.5333333333334C436.0533333333333 46.9333333333334 436.6933333333333 35.6266666666667 432.4266666666666 25.6000000000001C428.3733333333332 15.5733333333334 420.0533333333333 7.6800000000001 409.8133333333333 4.2666666666668L392.9599999999999 -1.0666666666666C389.3333333333333 -2.3466666666666 385.28 -2.9866666666666 381.44 -2.9866666666666C370.56 -2.9866666666666 360.32 1.9200000000001 353.28 10.6666666666667L308.0533333333333 64C289.0666666666666 67.2 271.1466666666667 75.3066666666667 256 87.4666666666667C245.3333333333333 84.2666666666668 234.6666666666667 82.5600000000001 224 82.5600000000001C205.2266666666666 82.5600000000001 186.4533333333333 88.3200000000001 170.6666666666667 99.4133333333334C159.36 96 147.84 94.5066666666667 136.1066666666667 94.72C119.2533333333333 94.5066666666667 102.6133333333333 97.92 87.04 104.3200000000001C56.5333333333333 117.9733333333334 36.2666666666667 147.84 35.2 181.3333333333334C33.4933333333333 196.6933333333334 36.0533333333333 212.2666666666667 42.6666666666667 226.3466666666667C36.48 242.3466666666667 35.84 259.8400000000001 41.1733333333333 276.0533333333334C49.0666666666667 296.32 64 313.1733333333334 82.56 323.8400000000001C94.9333333333333 359.8933333333333 129.7066666666667 384 167.8933333333333 381.44C202.0266666666667 413.44 254.2933333333333 416.8533333333334 292.2666666666667 389.3333333333333C301.2266666666667 391.68 310.6133333333333 392.96 320 392.96C349.0133333333333 393.6 376.5333333333333 380.8 394.6666666666667 357.9733333333334C438.1866666666666 346.6666666666667 469.3333333333333 307.8400000000001 471.04 262.6133333333334C472.1066666666666 238.9333333333334 465.7066666666666 215.68 452.6933333333333 195.84C454.1866666666666 188.16 455.04 180.48 455.04 172.5866666666667M348.3733333333333 202.6666666666667C360.5333333333333 201.1733333333334 370.1333333333333 192 370.1333333333333 179.84C370.1333333333333 168.1066666666667 360.5333333333333 158.5066666666667 348.8 158.5066666666667H335.3599999999999C328.5333333333333 139.3066666666667 316.5866666666666 122.4533333333334 300.8 109.6533333333334C306.1333333333333 107.7333333333334 311.68 106.6666666666667 317.2266666666666 105.1733333333334C426.6666666666666 106.6666666666667 413.8666666666666 173.44 413.8666666666666 174.5066666666667C412.5866666666667 205.0133333333333 386.9866666666666 228.9066666666667 356.4799999999999 227.6266666666667C344.7466666666666 227.6266666666667 335.1466666666666 237.2266666666667 335.1466666666666 248.96S344.7466666666666 270.2933333333334 356.4799999999999 270.2933333333334C382.7199999999999 269.6533333333334 407.8933333333333 259.8400000000001 427.52 242.56C428.5866666666667 248.7466666666667 429.2266666666666 255.1466666666667 429.2266666666666 261.5466666666667C427.9466666666666 288 415.9999999999999 311.04 367.9999999999999 315.52C341.3333333333333 378.6666666666667 274.1333333333332 343.68 274.1333333333332 324.0533333333334C273.4933333333333 319.1466666666667 278.6133333333333 308.6933333333334 279.4666666666666 308.0533333333334C291.2 308.0533333333334 300.7999999999999 298.4533333333333 300.7999999999999 286.7200000000001S291.2 265.3866666666667 279.4666666666666 265.3866666666667C268.1599999999999 265.8133333333334 257.4933333333333 270.0800000000001 248.9599999999999 277.3333333333334C238.7199999999999 270.7200000000001 226.9866666666666 266.6666666666667 214.8266666666666 265.3866666666667C202.6666666666666 264.32 192.6399999999999 272.8533333333334 191.9999999999999 284.5866666666667C190.2933333333332 296.5333333333334 199.0399999999999 306.9866666666667 210.7733333333333 308.0533333333334C214.1866666666666 308.48 230.8266666666666 311.04 230.8266666666666 324.48C230.8266666666666 338.56 236.1599999999999 352 245.3333333333333 362.6666666666667C225.7066666666666 368 204.5866666666666 360.96 183.2533333333333 335.1466666666667C144 341.3333333333334 128 336 116.2666666666667 294.4C96 284.3733333333334 85.3333333333333 277.3333333333334 80.64 256C103.68 260.6933333333334 127.36 258.7733333333334 149.3333333333333 250.6666666666667C160 246.6133333333334 165.9733333333333 234.6666666666667 161.92 223.1466666666667C157.8666666666667 212.0533333333334 145.4933333333334 206.5066666666667 134.4 210.56C118.8266666666667 217.3866666666667 101.3333333333333 217.8133333333334 85.3333333333333 211.84C78.5066666666667 206.0800000000001 78.5066666666667 194.1333333333334 78.5066666666667 184.7466666666667C78.5066666666667 168.96 86.4 154.2400000000001 99.84 145.7066666666667C111.1466666666667 139.9466666666667 123.7333333333333 136.96 136.32 137.1733333333334C133.12 142.72 130.3466666666666 148.48 128 154.4533333333334C123.9466666666667 165.9733333333334 130.1333333333333 178.5600000000001 141.6533333333333 182.6133333333334C153.1733333333333 186.6666666666668 165.76 180.4800000000001 169.8133333333333 168.96C178.3466666666666 144.6400000000001 200.1066666666666 128.0000000000001 225.7066666666667 125.2266666666667C254.9333333333333 126.72 280.96 144.0000000000001 293.76 170.6666666666667C298.6666666666667 200.1066666666667 322.3466666666667 202.6666666666667 348.3733333333333 202.6666666666667M391.04 43.3066666666667L377.8133333333333 71.0400000000001L362.6666666666666 67.6266666666667L383.9999999999999 40.96L391.0399999999999 43.3066666666667M291.8399999999999 226.9866666666667C292.2666666666666 238.2933333333334 283.7333333333332 247.8933333333334 272.4266666666665 248.96C257.2799999999999 249.8133333333334 242.5599999999999 244.6933333333334 231.2533333333332 234.6666666666667C219.0933333333332 222.2933333333334 212.6933333333332 205.2266666666667 213.3333333333332 187.9466666666667C213.3333333333332 176.2133333333334 222.9333333333332 166.6133333333334 234.6666666666666 166.6133333333334C246.8266666666666 166.6133333333334 255.9999999999999 176.2133333333334 255.9999999999999 187.9466666666667C255.9999999999999 193.7066666666667 257.4933333333333 199.4666666666667 260.9066666666665 204.16C263.4666666666666 206.2933333333334 266.6666666666665 207.36 270.0799999999999 207.36C281.8133333333332 206.72 291.8399999999999 215.4666666666667 291.8399999999999 226.9866666666667z" /></svg>