<?xml version="1.0" encoding="UTF-8"?><!DOCTYPE svg PUBLIC "-//W3C//DTD SVG 1.1//EN" "http://www.w3.org/Graphics/SVG/1.1/DTD/svg11.dtd"><svg xmlns="http://www.w3.org/2000/svg" xmlns:xlink="http://www.w3.org/1999/xlink" version="1.1" width="512" height="512" viewBox="0 0 512 512">    <path fill="#ffffff" transform="scale(1, -1) translate(0, -448)" glyph-name="lan-disconnect" unicode="&#xF319;" horiz-adv-x="512" d=" M85.3333333333333 426.6666666666667C61.6533333333333 426.6666666666667 42.6666666666667 407.68 42.6666666666667 384V298.6666666666667C42.6666666666667 274.9866666666667 61.6533333333333 256 85.3333333333333 256H21.3333333333333V213.3333333333334H277.3333333333333V256H213.3333333333333C237.0133333333333 256 256 274.9866666666667 256 298.6666666666667V384C256 407.68 237.0133333333333 426.6666666666667 213.3333333333333 426.6666666666667H85.3333333333333M85.3333333333333 384H213.3333333333333V298.6666666666667H85.3333333333333V384M298.6666666666667 170.6666666666667C274.9866666666667 170.6666666666667 256 151.68 256 128V42.6666666666667C256 18.9866666666667 274.9866666666667 0 298.6666666666667 0H234.6666666666667V-42.6666666666666H490.6666666666666V0H426.6666666666667C450.3466666666667 0 469.3333333333333 18.9866666666667 469.3333333333333 42.6666666666667V128C469.3333333333333 151.68 450.3466666666667 170.6666666666667 426.6666666666667 170.6666666666667H298.6666666666667M82.7733333333333 160.8533333333334L52.48 130.56L97.92 85.3333333333334L52.48 40.1066666666667L82.7733333333333 9.8133333333334L128 55.2533333333333L173.2266666666667 9.8133333333334L203.52 40.1066666666667L158.08 85.3333333333334L203.52 130.5600000000001L173.2266666666666 160.8533333333334L128 115.4133333333334L82.7733333333333 160.8533333333334M298.6666666666667 128H426.6666666666667V42.6666666666667H298.6666666666667V128z" /></svg>