<?xml version="1.0" encoding="UTF-8"?><!DOCTYPE svg PUBLIC "-//W3C//DTD SVG 1.1//EN" "http://www.w3.org/Graphics/SVG/1.1/DTD/svg11.dtd"><svg xmlns="http://www.w3.org/2000/svg" xmlns:xlink="http://www.w3.org/1999/xlink" version="1.1" width="512" height="512" viewBox="0 0 512 512">    <path fill="#ffffff" transform="scale(1, -1) translate(0, -448)" glyph-name="crane" unicode="&#xF861;" horiz-adv-x="512" d=" M426.6666666666667 320V341.3333333333334C426.6666666666667 353.0666666666667 417.0666666666667 362.6666666666667 405.3333333333333 362.6666666666667H192V384H128V362.6666666666667H106.6666666666667V320H128V128H106.6666666666667V170.6666666666667H64V128H42.6666666666667V85.3333333333334H64V0H106.6666666666667V85.3333333333334H213.3333333333333V0H256V85.3333333333334H277.3333333333333V128H256V170.6666666666667H213.3333333333333V128H192V320H362.6666666666667V221.44C352.64 217.8133333333333 345.3866666666667 208.4266666666667 345.3866666666667 197.12C345.3866666666667 187.7333333333334 350.5066666666667 179.2 358.4 174.5066666666667V149.3333333333334H371.6266666666667C378.88 149.3333333333334 384.64 143.36 384.64 136.1066666666667C384.64 128.8533333333334 378.88 122.8800000000001 371.6266666666667 122.8800000000001C366.9333333333334 122.8800000000001 362.6666666666667 125.4400000000001 360.32 129.4933333333334C356.48 135.6800000000001 348.5866666666667 137.8133333333334 342.4 134.1866666666667C336 130.7733333333334 333.8666666666667 122.6666666666668 337.4933333333334 116.2666666666668C344.5333333333333 104.3200000000001 357.5466666666667 96.64 371.6266666666667 96.64C393.1733333333334 96.64 410.88 114.3466666666667 410.88 136.1066666666667C410.88 152.7466666666667 400.2133333333334 167.6800000000001 384.64 173.2266666666667V174.5066666666667C392.7466666666667 179.2000000000001 397.8666666666667 187.7333333333334 397.8666666666667 197.1200000000001C397.8666666666667 206.9333333333334 392.1066666666667 215.2533333333334 384.0000000000001 219.7333333333334V320H426.6666666666668M170.6666666666667 156.5866666666667L149.3333333333333 135.2533333333333V165.5466666666667L170.6666666666667 186.88V156.5866666666667M170.6666666666667 219.52L149.3333333333333 198.1866666666667V228.48L170.6666666666667 249.8133333333334V219.52M149.3333333333333 262.1866666666667V292.48L170.6666666666667 313.8133333333334V283.52L149.3333333333333 262.1866666666667z" /></svg>