<?xml version="1.0" encoding="UTF-8"?><!DOCTYPE svg PUBLIC "-//W3C//DTD SVG 1.1//EN" "http://www.w3.org/Graphics/SVG/1.1/DTD/svg11.dtd"><svg xmlns="http://www.w3.org/2000/svg" xmlns:xlink="http://www.w3.org/1999/xlink" version="1.1" width="512" height="512" viewBox="0 0 512 512">    <path fill="#ffffff" transform="scale(1, -1) translate(0, -448)" glyph-name="charity" unicode="&#xFC2B;" horiz-adv-x="512" d=" M272 363.9466666666667C293.3333333333333 379.3066666666667 318.08 386.9866666666667 346.0266666666667 386.9866666666667C361.3866666666666 386.9866666666667 378.24 382.9333333333334 396.5866666666667 374.4C414.9333333333333 366.0800000000001 429.44 356.2666666666667 440.1066666666667 344.9600000000001C462.08 317.6533333333333 471.2533333333333 285.8666666666667 468.0533333333333 249.6C464.6399999999999 213.3333333333334 452.6933333333333 184.96 431.9999999999999 164.9066666666667L270.08 2.9866666666667C266.0266666666666 -1.0666666666667 260.9066666666666 -2.9866666666667 254.9333333333332 -2.9866666666667C248.9599999999999 -2.9866666666667 244.0533333333333 -1.0666666666667 239.9999999999999 2.9866666666667C235.9466666666666 7.0400000000001 234.0266666666666 11.9466666666667 234.0266666666666 17.92C234.0266666666666 23.8933333333334 235.9466666666666 29.0133333333333 239.9999999999999 33.0666666666667L337.9199999999999 130.9866666666667C343.2533333333332 135.6800000000001 343.2533333333332 140.5866666666667 337.9199999999999 145.92C332.5866666666666 151.2533333333333 327.6799999999999 151.2533333333333 322.9866666666666 145.92L225.0666666666666 48C221.0133333333333 43.9466666666667 216.1066666666666 42.0266666666666 209.9199999999999 42.0266666666666C203.9466666666666 42.0266666666666 199.0399999999999 43.9466666666667 194.9866666666666 48C190.9333333333333 52.0533333333334 189.0133333333333 56.96 189.0133333333333 62.9333333333333C189.0133333333333 68.9066666666667 190.9333333333333 74.0266666666666 194.9866666666666 78.08L292.9066666666666 176C298.6666666666666 181.3333333333334 298.6666666666666 186.6666666666667 292.9066666666666 192C287.9999999999999 197.3333333333334 283.3066666666666 197.3333333333334 277.9733333333333 192L180.0533333333333 93.0133333333333C176 88.96 170.6666666666666 87.04 164.9066666666666 87.04C158.9333333333333 87.04 153.8133333333333 88.96 149.3333333333333 93.0133333333333C145.0666666666666 97.0666666666667 142.9333333333333 101.9733333333334 142.9333333333333 107.9466666666667C142.9333333333333 113.92 145.28 119.2533333333333 149.9733333333333 123.9466666666667L248.1066666666667 222.08C253.44 227.4133333333333 253.44 232.32 248.1066666666667 237.0133333333333C242.7733333333333 241.7066666666667 237.6533333333333 241.7066666666667 232.96 237.0133333333333L133.9733333333333 138.6666666666667C129.28 134.4 124.3733333333333 132.0533333333334 119.04 132.0533333333334C113.0666666666667 132.0533333333334 107.9466666666667 134.1866666666667 104.1066666666667 138.6666666666667C100.0533333333333 142.9333333333333 97.92 148.0533333333334 97.92 154.0266666666667C97.92 160 100.0533333333333 164.9066666666667 104.1066666666667 168.96C169.3866666666667 234.6666666666667 209.7066666666667 274.3466666666667 225.0666666666667 289.0666666666667L301.0133333333333 213.9733333333333C309.3333333333334 206.08 318.9333333333334 202.0266666666667 330.6666666666667 202.0266666666667C345.6 202.0266666666667 357.3333333333333 208 366.08 219.9466666666667C372.0533333333334 228.6933333333334 374.1866666666666 238.2933333333333 372.48 248.96C370.7733333333334 259.6266666666667 366.2933333333334 268.5866666666667 359.04 276.0533333333333L272 363.9466666666666M315.9466666666667 228.9066666666666L225.0666666666667 320L74.0266666666667 168.96C56.1066666666667 187.0933333333334 45.8666666666667 214.8266666666667 43.52 252.5866666666667C41.1733333333333 290.1333333333334 51.4133333333334 322.7733333333333 74.0266666666667 350.0800000000001C99.4133333333333 375.2533333333334 129.7066666666667 388.0533333333334 164.9066666666667 388.0533333333334C200.32 388.0533333333334 230.4 375.2533333333334 254.9333333333333 350.0800000000001L346.0266666666667 258.9866666666667C350.08 254.9333333333334 352 250.0266666666667 352 244.0533333333334C352 238.0800000000001 350.08 232.9600000000001 346.0266666666667 228.9066666666667C341.9733333333333 225.0666666666667 337.0666666666666 222.9333333333334 330.6666666666667 222.9333333333334C324.9066666666667 222.9333333333334 320 225.0666666666667 315.9466666666666 228.9066666666667z" /></svg>