<?xml version="1.0" encoding="UTF-8"?><!DOCTYPE svg PUBLIC "-//W3C//DTD SVG 1.1//EN" "http://www.w3.org/Graphics/SVG/1.1/DTD/svg11.dtd"><svg xmlns="http://www.w3.org/2000/svg" xmlns:xlink="http://www.w3.org/1999/xlink" version="1.1" width="512" height="512" viewBox="0 0 512 512">    <path fill="#ffffff" transform="scale(1, -1) translate(0, -448)" glyph-name="hand-okay" unicode="&#xFA4F;" horiz-adv-x="512" d=" M283.7333333333334 37.12L404.48 157.6533333333333L449.7066666666667 112.4266666666667L328.9600000000001 -8.1066666666667L283.7333333333334 37.12M352 210.56L285.8666666666667 276.2666666666667C283.0933333333333 279.04 280.1066666666667 280.96 277.3333333333333 282.4533333333333L253.44 373.9733333333334C250.4533333333333 385.4933333333334 238.9333333333333 392.32 227.4133333333333 389.3333333333333C216.1066666666666 386.56 209.28 374.8266666666667 212.0533333333333 363.52L234.6666666666667 276.6933333333334L184.96 379.9466666666667C180.0533333333333 390.6133333333334 167.2533333333333 394.6666666666667 156.5866666666667 390.1866666666667C145.92 385.0666666666667 141.44 372.2666666666667 146.56 361.6L182.6133333333334 286.0800000000001L110.72 357.3333333333334C102.4 365.6533333333333 88.7466666666667 365.6533333333333 80.4266666666667 357.3333333333334C72.1066666666667 348.8 72.32 335.36 80.64 327.04L160 248.1066666666667L145.0666666666667 242.3466666666667L122.0266666666667 233.1733333333334L81.28 205.0133333333333S64 182.6133333333334 62.5066666666667 173.0133333333333C60.8 163.4133333333334 79.36 115.2 79.36 115.2H79.5733333333333C82.9866666666667 107.9466666666667 90.24 102.8266666666667 98.7733333333333 102.8266666666667C110.5066666666667 102.8266666666667 120.1066666666667 112.4266666666667 120.1066666666667 124.16C120.1066666666667 126.2933333333334 119.4666666666667 128 118.8266666666667 129.92L119.2533333333333 130.1333333333333L106.6666666666667 167.04L132.9066666666667 187.9466666666667C142.9333333333333 187.5200000000001 164.48 185.8133333333334 174.9333333333333 185.1733333333334C233.1733333333334 132.9066666666667 178.1333333333334 112.4266666666667 178.1333333333334 112.4266666666667L104.32 89.8133333333334L100.6933333333334 86.8266666666667C96 82.5600000000001 94.08 76.8000000000001 94.2933333333334 70.8266666666667L94.72 48L231.8933333333334 58.6666666666667C240.0000000000001 58.4533333333333 247.68 61.44 253.6533333333334 67.2L352 165.3333333333333C363.3066666666667 176.8533333333334 363.7333333333334 198.4 352 210.56z" /></svg>