<?xml version="1.0" encoding="UTF-8"?><!DOCTYPE svg PUBLIC "-//W3C//DTD SVG 1.1//EN" "http://www.w3.org/Graphics/SVG/1.1/DTD/svg11.dtd"><svg xmlns="http://www.w3.org/2000/svg" xmlns:xlink="http://www.w3.org/1999/xlink" version="1.1" width="512" height="512" viewBox="0 0 512 512">    <path fill="#ffffff" transform="scale(1, -1) translate(0, -448)" glyph-name="image-frame" unicode="&#xFE2C;" horiz-adv-x="512" d=" M213.3333333333333 143.1466666666667L138.6666666666667 42.6666666666667H372.48L314.6666666666667 118.1866666666667L272.64 68.2666666666667L213.3333333333333 143.1466666666667M106.6666666666667 0V298.6666666666667H404.48V0H106.6666666666667M256 396.8L311.68 340.6933333333334H199.8933333333333L256 396.8M106.6666666666667 340.6933333333334C96 340.6933333333334 85.3333333333333 336.64 77.0133333333333 328.32C68.2666666666667 320 64 310.1866666666667 64 298.6666666666667V0C64 -10.6666666666666 68.2666666666667 -21.3333333333333 77.0133333333333 -29.6533333333333C85.3333333333333 -38.4 96 -42.6666666666666 106.6666666666667 -42.6666666666666H404.48C416 -42.6666666666666 425.8133333333334 -38.4 434.56 -29.6533333333333C443.0933333333333 -21.3333333333333 448 -10.6666666666666 448 0V298.6666666666667C448 310.1866666666667 443.0933333333333 320 434.56 328.32C425.8133333333334 336.64 416 340.6933333333334 404.48 340.6933333333334H341.3333333333333L256 426.6666666666667L169.8133333333333 340.6933333333334H106.6666666666667z" /></svg>