<?xml version="1.0" encoding="UTF-8"?><!DOCTYPE svg PUBLIC "-//W3C//DTD SVG 1.1//EN" "http://www.w3.org/Graphics/SVG/1.1/DTD/svg11.dtd"><svg xmlns="http://www.w3.org/2000/svg" xmlns:xlink="http://www.w3.org/1999/xlink" version="1.1" width="512" height="512" viewBox="0 0 512 512">    <path fill="#ffffff" transform="scale(1, -1) translate(0, -448)" glyph-name="cart-remove" unicode="&#xFD45;" horiz-adv-x="512" d=" M301.2266666666667 266.0266666666667L256 311.2533333333334L210.7733333333334 265.8133333333334L180.48 296.1066666666667L225.92 341.3333333333334L180.6933333333333 386.56L210.7733333333334 416.64L256 371.4133333333334L301.2266666666667 416.8533333333334L331.52 386.56L286.08 341.3333333333334L331.3066666666667 296.1066666666667L301.2266666666667 266.0266666666667M149.3333333333333 64C172.8 64 192 44.8000000000001 192 21.3333333333334S172.8 -21.3333333333333 149.3333333333333 -21.3333333333333S106.6666666666667 -2.1333333333333 106.6666666666667 21.3333333333334S125.8666666666667 64 149.3333333333333 64M362.6666666666667 64C386.1333333333334 64 405.3333333333333 44.8000000000001 405.3333333333333 21.3333333333334S386.1333333333334 -21.3333333333333 362.6666666666667 -21.3333333333333S320 -2.1333333333333 320 21.3333333333334S339.2 64 362.6666666666667 64M152.96 133.3333333333334C152.96 130.3466666666667 155.3066666666667 128 158.2933333333333 128H405.3333333333333V85.3333333333334H149.3333333333333C125.8666666666667 85.3333333333334 106.6666666666667 104.5333333333333 106.6666666666667 128C106.6666666666667 135.4666666666667 108.5866666666667 142.5066666666667 112 148.48L140.8 200.7466666666667L64 362.6666666666667H21.3333333333333V405.3333333333333H91.0933333333333L111.1466666666667 362.6666666666667L131.4133333333333 320L179.2 219.0933333333333L181.9733333333333 213.3333333333334H331.7333333333333L390.6133333333333 320L414.08 362.6666666666667H414.2933333333334L451.4133333333333 342.1866666666667L369.0666666666667 192.6400000000001C361.8133333333334 179.4133333333334 347.7333333333334 170.6666666666668 331.7333333333334 170.6666666666668H172.8L153.6 135.8933333333334L152.96 133.3333333333334z" /></svg>