<?xml version="1.0" encoding="UTF-8"?><!DOCTYPE svg PUBLIC "-//W3C//DTD SVG 1.1//EN" "http://www.w3.org/Graphics/SVG/1.1/DTD/svg11.dtd"><svg xmlns="http://www.w3.org/2000/svg" xmlns:xlink="http://www.w3.org/1999/xlink" version="1.1" width="512" height="512" viewBox="0 0 512 512">    <path fill="#ffffff" transform="scale(1, -1) translate(0, -448)" glyph-name="hockey-puck" unicode="&#xF878;" horiz-adv-x="512" d=" M256 341.3333333333334C138.6666666666667 341.3333333333334 42.6666666666667 307.8400000000001 42.6666666666667 266.6666666666667S138.6666666666667 192 256 192S469.3333333333333 225.4933333333334 469.3333333333333 266.6666666666667S373.3333333333333 341.3333333333334 256 341.3333333333334M42.6666666666667 197.12V96C42.6666666666667 54.8266666666667 138.6666666666667 21.3333333333334 256 21.3333333333334S469.3333333333333 54.8266666666667 469.3333333333333 96V197.12C455.04 187.3066666666667 439.04 179.84 420.9066666666667 173.6533333333334C375.8933333333333 157.8666666666667 318.9333333333333 149.3333333333334 256 149.3333333333334S136.1066666666667 157.8666666666667 91.0933333333333 173.6533333333334C72.96 179.84 56.96 187.3066666666667 42.6666666666667 197.12z" /></svg>