<?xml version="1.0" encoding="UTF-8"?><!DOCTYPE svg PUBLIC "-//W3C//DTD SVG 1.1//EN" "http://www.w3.org/Graphics/SVG/1.1/DTD/svg11.dtd"><svg xmlns="http://www.w3.org/2000/svg" xmlns:xlink="http://www.w3.org/1999/xlink" version="1.1" width="512" height="512" viewBox="0 0 512 512">    <path fill="#ffffff" transform="scale(1, -1) translate(0, -448)" glyph-name="teach" unicode="&#xF88F;" horiz-adv-x="512" d=" M426.6666666666667 85.3333333333334C450.1333333333334 85.3333333333334 469.3333333333333 104.5333333333333 469.3333333333333 128V362.6666666666667C469.3333333333333 386.1333333333334 450.1333333333334 405.3333333333333 426.6666666666667 405.3333333333333H201.8133333333333C209.28 392.32 213.3333333333333 377.6 213.3333333333333 362.6666666666667H426.6666666666667V128H234.6666666666667V85.3333333333334M320 298.6666666666667V256H192V-21.3333333333333H149.3333333333333V106.6666666666667H106.6666666666667V-21.3333333333333H64V149.3333333333334H32V256C32 279.4666666666667 51.2 298.6666666666667 74.6666666666667 298.6666666666667H320M170.6666666666667 362.6666666666667C170.6666666666667 339.2000000000001 151.4666666666667 320 128 320S85.3333333333333 339.2000000000001 85.3333333333333 362.6666666666667S104.5333333333333 405.3333333333333 128 405.3333333333333S170.6666666666667 386.1333333333334 170.6666666666667 362.6666666666667z" /></svg>