<?xml version="1.0" encoding="UTF-8"?><!DOCTYPE svg PUBLIC "-//W3C//DTD SVG 1.1//EN" "http://www.w3.org/Graphics/SVG/1.1/DTD/svg11.dtd"><svg xmlns="http://www.w3.org/2000/svg" xmlns:xlink="http://www.w3.org/1999/xlink" version="1.1" width="512" height="512" viewBox="0 0 512 512">    <path fill="#ffffff" transform="scale(1, -1) translate(0, -448)" glyph-name="folder-plus-outline" unicode="&#xFB79;" horiz-adv-x="512" d=" M426.6666666666667 320H256L213.3333333333333 362.6666666666667H85.3333333333333C61.6533333333333 362.6666666666667 42.6666666666667 343.68 42.6666666666667 320V64C42.6666666666667 40.3200000000001 61.6533333333333 21.3333333333334 85.3333333333333 21.3333333333334H426.6666666666667C450.3466666666667 21.3333333333334 469.3333333333333 40.3200000000001 469.3333333333333 64V277.3333333333334C469.3333333333333 301.0133333333333 450.3466666666667 320 426.6666666666667 320M426.6666666666667 64H85.3333333333333V320H195.6266666666667L238.2933333333333 277.3333333333334H426.6666666666667V64M256 149.3333333333334H298.6666666666667V106.6666666666667H341.3333333333333V149.3333333333334H384V192H341.3333333333333V234.6666666666667H298.6666666666667V192H256V149.3333333333334z" /></svg>