<?xml version="1.0" encoding="UTF-8"?><!DOCTYPE svg PUBLIC "-//W3C//DTD SVG 1.1//EN" "http://www.w3.org/Graphics/SVG/1.1/DTD/svg11.dtd"><svg xmlns="http://www.w3.org/2000/svg" xmlns:xlink="http://www.w3.org/1999/xlink" version="1.1" width="512" height="512" viewBox="0 0 512 512">    <path fill="#ffffff" transform="scale(1, -1) translate(0, -448)" glyph-name="clipboard-text-play-outline" unicode="&#xFC38;" horiz-adv-x="512" d=" M405.3333333333333 384H316.16C304 417.28 267.3066666666666 434.3466666666667 234.6666666666667 422.4C216.32 416 202.6666666666667 401.92 195.84 384H106.6666666666667C83.2 384 64 364.8 64 341.3333333333334V42.6666666666667C64 19.2 83.2 0 106.6666666666667 0H320V42.6666666666667H106.6666666666667V341.3333333333334H149.3333333333333V298.6666666666667H362.6666666666667V341.3333333333334H405.3333333333333V149.3333333333334H448V341.3333333333334C448 364.8 428.8 384 405.3333333333333 384M256 341.3333333333334C244.2666666666667 341.3333333333334 234.6666666666667 350.9333333333334 234.6666666666667 362.6666666666667S244.2666666666667 384 256 384S277.3333333333333 374.4 277.3333333333333 362.6666666666667S267.7333333333334 341.3333333333334 256 341.3333333333334M362.6666666666667 106.6666666666667V-21.3333333333333L469.3333333333333 42.6666666666667L362.6666666666667 106.6666666666667M362.6666666666667 213.3333333333334H149.3333333333333V256H362.6666666666667V213.3333333333334M320 128H149.3333333333333V170.6666666666667H320V128z" /></svg>