<?xml version="1.0" encoding="UTF-8"?><!DOCTYPE svg PUBLIC "-//W3C//DTD SVG 1.1//EN" "http://www.w3.org/Graphics/SVG/1.1/DTD/svg11.dtd"><svg xmlns="http://www.w3.org/2000/svg" xmlns:xlink="http://www.w3.org/1999/xlink" version="1.1" width="512" height="512" viewBox="0 0 512 512">    <path fill="#ffffff" transform="scale(1, -1) translate(0, -448)" glyph-name="arrow-decision" unicode="&#xF9BA;" horiz-adv-x="512" d=" M234.6666666666667 341.3333333333334H170.6666666666667L256 426.6666666666667L341.3333333333333 341.3333333333334H277.3333333333333V246.8266666666667C261.3333333333333 237.0133333333333 247.04 224.8533333333334 234.6666666666667 210.7733333333334V341.3333333333334M469.3333333333333 213.3333333333334L384 298.6666666666667V234.6666666666667C306.9866666666667 237.8666666666667 241.28 179.84 234.6666666666667 103.04C201.3866666666667 91.3066666666666 183.8933333333334 54.6133333333333 195.6266666666667 21.3333333333334C207.36 -11.9466666666666 244.0533333333333 -29.4399999999999 277.3333333333333 -17.7066666666666C310.6133333333334 -5.76 328.1066666666667 30.72 316.3733333333334 64C309.9733333333333 82.3466666666667 295.4666666666667 96.64 277.3333333333333 103.04C287.36 188.3733333333333 372.6933333333333 192.64 382.9333333333333 192.64V128.64L469.3333333333333 213.3333333333334M226.7733333333334 200.7466666666667C198.4 222.5066666666667 163.6266666666667 234.6666666666667 128 234.6666666666667V298.6666666666667L42.6666666666667 213.3333333333334L128 128V192C156.5866666666667 191.36 184.1066666666666 181.3333333333334 205.6533333333333 162.1333333333333C210.9866666666667 175.7866666666667 218.0266666666667 188.8 226.7733333333334 200.7466666666667z" /></svg>