<?xml version="1.0" encoding="UTF-8"?><!DOCTYPE svg PUBLIC "-//W3C//DTD SVG 1.1//EN" "http://www.w3.org/Graphics/SVG/1.1/DTD/svg11.dtd"><svg xmlns="http://www.w3.org/2000/svg" xmlns:xlink="http://www.w3.org/1999/xlink" version="1.1" width="512" height="512" viewBox="0 0 512 512">    <path fill="#ffffff" transform="scale(1, -1) translate(0, -448)" glyph-name="key-remove" unicode="&#xF30A;" horiz-adv-x="512" d=" M138.6666666666667 384C180.48 384 216.1066666666666 357.3333333333334 229.12 320H469.3333333333333V256H384V192H320V256H229.12C216.1066666666667 218.6666666666667 180.48 192 138.6666666666667 192C85.3333333333333 192 42.6666666666667 234.6666666666667 42.6666666666667 288S85.3333333333333 384 138.6666666666667 384M138.6666666666667 320C120.96 320 106.6666666666667 305.7066666666667 106.6666666666667 288S120.96 256 138.6666666666667 256S170.6666666666667 270.2933333333334 170.6666666666667 288S156.3733333333333 320 138.6666666666667 320M311.2533333333334 149.3333333333334L341.3333333333333 119.2533333333333L286.08 64L341.3333333333333 8.7466666666667L311.2533333333334 -21.3333333333333L256 33.92L200.7466666666667 -21.3333333333333L170.6666666666667 8.7466666666667L225.92 64L170.6666666666667 119.2533333333333L200.7466666666667 149.3333333333334L256 94.08L311.2533333333334 149.3333333333334z" /></svg>