<?xml version="1.0" encoding="UTF-8"?><!DOCTYPE svg PUBLIC "-//W3C//DTD SVG 1.1//EN" "http://www.w3.org/Graphics/SVG/1.1/DTD/svg11.dtd"><svg xmlns="http://www.w3.org/2000/svg" xmlns:xlink="http://www.w3.org/1999/xlink" version="1.1" width="512" height="512" viewBox="0 0 512 512">    <path fill="#ffffff" transform="scale(1, -1) translate(0, -448)" glyph-name="speaker-multiple" unicode="&#xFD14;" horiz-adv-x="512" d=" M298.6666666666667 234.6666666666667C263.2533333333334 234.6666666666667 234.6666666666667 206.08 234.6666666666667 170.6666666666667S263.2533333333334 106.6666666666667 298.6666666666667 106.6666666666667S362.6666666666667 135.2533333333333 362.6666666666667 170.6666666666667S334.08 234.6666666666667 298.6666666666667 234.6666666666667M298.6666666666667 64C239.7866666666667 64 192 111.7866666666667 192 170.6666666666667S239.7866666666667 277.3333333333334 298.6666666666667 277.3333333333334S405.3333333333333 229.5466666666667 405.3333333333333 170.6666666666667S357.5466666666666 64 298.6666666666667 64M298.6666666666667 405.3333333333333C322.1333333333334 405.3333333333333 341.3333333333333 386.1333333333334 341.3333333333333 362.6666666666667S322.1333333333334 320 298.6666666666667 320S256 339.2000000000001 256 362.6666666666667S275.2 405.3333333333333 298.6666666666667 405.3333333333333M405.3333333333333 448H192C168.5333333333333 448 149.3333333333333 428.8 149.3333333333333 405.3333333333333V64C149.3333333333333 40.5333333333333 168.5333333333333 21.3333333333334 192 21.3333333333334H405.3333333333333C428.8 21.3333333333334 448 40.5333333333333 448 64V405.3333333333333C448 428.8 428.8 448 405.3333333333333 448M106.6666666666667 -21.3333333333333H362.6666666666667V-64H106.6666666666667C83.2 -64 64 -44.8 64 -21.3333333333333V362.6666666666667H106.6666666666667" /></svg>