<?xml version="1.0" encoding="UTF-8"?><!DOCTYPE svg PUBLIC "-//W3C//DTD SVG 1.1//EN" "http://www.w3.org/Graphics/SVG/1.1/DTD/svg11.dtd"><svg xmlns="http://www.w3.org/2000/svg" xmlns:xlink="http://www.w3.org/1999/xlink" version="1.1" width="512" height="512" viewBox="0 0 512 512">    <path fill="#ffffff" transform="scale(1, -1) translate(0, -448)" glyph-name="lumx" unicode="&#xF346;" horiz-adv-x="512" d=" M263.4666666666667 410.6666666666667L429.44 244.6933333333334L293.76 109.0133333333333L263.4666666666667 139.3066666666667L369.0666666666667 244.6933333333334L233.3866666666667 380.5866666666667L263.4666666666667 410.6666666666667M338.9866666666667 244.6933333333334L308.6933333333334 214.6133333333333L218.24 305.0666666666667L112.64 199.4666666666667L82.56 229.76L218.24 365.44L338.9866666666667 244.6933333333334M218.24 274.9866666666667L248.5333333333334 244.6933333333334L142.9333333333333 139.3066666666666L278.6133333333334 3.4133333333333L248.5333333333334 -26.6666666666667L82.56 139.3066666666666L218.24 274.9866666666666M173.0133333333333 139.3066666666666L203.3066666666667 169.3866666666667L293.76 78.9333333333333L399.36 184.5333333333333L429.44 154.2399999999999L293.76 18.5599999999999L173.0133333333333 139.3066666666666z" /></svg>