<?xml version="1.0" encoding="UTF-8"?><!DOCTYPE svg PUBLIC "-//W3C//DTD SVG 1.1//EN" "http://www.w3.org/Graphics/SVG/1.1/DTD/svg11.dtd"><svg xmlns="http://www.w3.org/2000/svg" xmlns:xlink="http://www.w3.org/1999/xlink" version="1.1" width="512" height="512" viewBox="0 0 512 512">    <path fill="#ffffff" transform="scale(1, -1) translate(0, -448)" glyph-name="human-female-girl" unicode="&#xFA5A;" horiz-adv-x="512" d=" M160 405.3333333333333C183.4666666666667 405.3333333333333 202.6666666666667 386.1333333333334 202.6666666666667 362.6666666666667S183.4666666666667 320 160 320S117.3333333333333 339.2000000000001 117.3333333333333 362.6666666666667S136.5333333333333 405.3333333333333 160 405.3333333333333M128 -21.3333333333333V106.6666666666667H64L119.4666666666667 268.8C125.8666666666667 285.8666666666667 140.8 298.6666666666667 160 298.6666666666667C179.2 298.6666666666667 196.2666666666667 285.8666666666667 200.5333333333333 268.8L256 106.6666666666667H192V-21.3333333333333H128M309.3333333333333 192C309.3333333333333 215.4666666666667 328.5333333333333 234.6666666666667 352 234.6666666666667S394.6666666666667 215.4666666666667 394.6666666666667 192S375.4666666666667 149.3333333333334 352 149.3333333333334S309.3333333333333 168.5333333333334 309.3333333333333 192M320 128H384L416 42.6666666666667H384V-21.3333333333333H320V42.6666666666667H288L320 128z" /></svg>