<?xml version="1.0" encoding="UTF-8"?><!DOCTYPE svg PUBLIC "-//W3C//DTD SVG 1.1//EN" "http://www.w3.org/Graphics/SVG/1.1/DTD/svg11.dtd"><svg xmlns="http://www.w3.org/2000/svg" xmlns:xlink="http://www.w3.org/1999/xlink" version="1.1" width="512" height="512" viewBox="0 0 512 512">    <path fill="#ffffff" transform="scale(1, -1) translate(0, -448)" glyph-name="help-box" unicode="&#xF78A;" horiz-adv-x="512" d=" M234.6666666666667 64H277.3333333333333V106.6666666666667H234.6666666666667V64M256 320C208.8533333333333 320 170.6666666666667 281.8133333333334 170.6666666666667 234.6666666666667H213.3333333333333C213.3333333333333 258.1333333333334 232.5333333333334 277.3333333333334 256 277.3333333333334S298.6666666666667 258.1333333333334 298.6666666666667 234.6666666666667C298.6666666666667 192 234.6666666666667 197.3333333333334 234.6666666666667 128H277.3333333333333C277.3333333333333 176 341.3333333333333 181.3333333333334 341.3333333333333 234.6666666666667C341.3333333333333 281.8133333333334 303.1466666666667 320 256 320M106.6666666666667 384H405.3333333333333C428.8 384 448 364.8 448 341.3333333333334V42.6666666666667C448 19.2 428.8 0 405.3333333333333 0H106.6666666666667C83.2 0 64 19.2 64 42.6666666666667V341.3333333333334C64 364.8 83.2 384 106.6666666666667 384z" /></svg>