<?xml version="1.0" encoding="UTF-8"?><!DOCTYPE svg PUBLIC "-//W3C//DTD SVG 1.1//EN" "http://www.w3.org/Graphics/SVG/1.1/DTD/svg11.dtd"><svg xmlns="http://www.w3.org/2000/svg" xmlns:xlink="http://www.w3.org/1999/xlink" version="1.1" width="512" height="512" viewBox="0 0 512 512">    <path fill="#ffffff" transform="scale(1, -1) translate(0, -448)" glyph-name="mushroom-outline" unicode="&#xF7DF;" horiz-adv-x="512" d=" M85.3333333333333 192H426.6666666666667C426.6666666666667 271.5733333333334 372.0533333333334 338.56 298.6666666666667 357.3333333333334C295.68 336.2133333333334 277.3333333333333 320 256 320S216.32 336.2133333333334 213.3333333333333 357.3333333333334C139.9466666666667 338.56 85.3333333333333 271.5733333333334 85.3333333333333 192M256 405.3333333333333C373.76 405.3333333333333 469.3333333333333 309.76 469.3333333333333 192C469.3333333333333 168.5333333333334 450.1333333333334 149.3333333333334 426.6666666666667 149.3333333333334H85.3333333333333C61.8666666666667 149.3333333333334 42.6666666666667 168.5333333333334 42.6666666666667 192C42.6666666666667 309.76 138.24 405.3333333333333 256 405.3333333333333M288 85.3333333333334H224L211.6266666666667 42.6666666666667L205.8666666666667 21.3333333333334H306.1333333333334L300.3733333333334 42.6666666666667L288 85.3333333333334M320 128L341.3333333333333 53.3333333333334L347.0933333333333 33.0666666666667L348.8 21.3333333333334C348.8 -2.1333333333333 329.5999999999999 -21.3333333333333 306.1333333333333 -21.3333333333333H205.8666666666666L195.6266666666666 -20.0533333333333C172.8 -14.08 158.9333333333333 9.1733333333333 164.9066666666667 32L170.6666666666666 53.3333333333334L192 128H320M341.3333333333333 298.6666666666667C364.8 298.6666666666667 384 279.4666666666667 384 256S364.8 213.3333333333334 341.3333333333333 213.3333333333334S298.6666666666667 232.5333333333334 298.6666666666667 256S317.8666666666667 298.6666666666667 341.3333333333333 298.6666666666667M170.6666666666667 298.6666666666667C194.1333333333333 298.6666666666667 213.3333333333333 279.4666666666667 213.3333333333333 256S194.1333333333333 213.3333333333334 170.6666666666667 213.3333333333334S128 232.5333333333334 128 256S147.2 298.6666666666667 170.6666666666667 298.6666666666667z" /></svg>