<?xml version="1.0" encoding="UTF-8"?><!DOCTYPE svg PUBLIC "-//W3C//DTD SVG 1.1//EN" "http://www.w3.org/Graphics/SVG/1.1/DTD/svg11.dtd"><svg xmlns="http://www.w3.org/2000/svg" xmlns:xlink="http://www.w3.org/1999/xlink" version="1.1" width="512" height="512" viewBox="0 0 512 512">    <path fill="#ffffff" transform="scale(1, -1) translate(0, -448)" glyph-name="transcribe-close" unicode="&#xF52F;" horiz-adv-x="512" d=" M256 -42.6666666666666L170.6666666666667 42.6666666666667H341.3333333333333L256 -42.6666666666666M426.6666666666667 384C450.1333333333334 384 469.3333333333333 364.8 469.3333333333333 341.3333333333334V128C469.3333333333333 104.5333333333333 450.1333333333334 85.3333333333334 426.6666666666667 85.3333333333334H85.3333333333333C61.8666666666667 85.3333333333334 42.6666666666667 104.5333333333333 42.6666666666667 128V341.3333333333334C42.6666666666667 364.8 61.8666666666667 384 85.3333333333333 384H426.6666666666667M384 128V170.6666666666667H266.6666666666667L224 128H384M128 128H181.3333333333333L327.4666666666667 274.7733333333333C331.7333333333333 278.8266666666667 331.7333333333333 285.6533333333333 327.4666666666667 289.7066666666667L289.92 327.4666666666667C285.6533333333333 331.7333333333334 278.8266666666667 331.7333333333334 274.7733333333333 327.4666666666667L128 180.6933333333334V128z" /></svg>