<?xml version="1.0" encoding="UTF-8"?><!DOCTYPE svg PUBLIC "-//W3C//DTD SVG 1.1//EN" "http://www.w3.org/Graphics/SVG/1.1/DTD/svg11.dtd"><svg xmlns="http://www.w3.org/2000/svg" xmlns:xlink="http://www.w3.org/1999/xlink" version="1.1" width="512" height="512" viewBox="0 0 512 512">    <path fill="#ffffff" transform="scale(1, -1) translate(0, -448)" glyph-name="camera-timer" unicode="&#xF109;" horiz-adv-x="512" d=" M105.3866666666667 312.5333333333334C97.0666666666667 320.8533333333334 97.0666666666667 334.5066666666667 105.3866666666667 342.8266666666667C113.7066666666667 351.1466666666667 127.1466666666667 351.1466666666667 135.4666666666667 342.8266666666667L278.8266666666667 228.0533333333334L286.2933333333333 222.0800000000001C302.9333333333333 205.4400000000001 302.9333333333333 178.3466666666668 286.2933333333333 161.7066666666667C269.6533333333333 145.0666666666667 242.56 145.0666666666667 225.92 161.7066666666667L219.9466666666667 169.1733333333334L105.3866666666667 312.5333333333334M256 21.3333333333334C350.2933333333334 21.3333333333334 426.6666666666667 97.7066666666667 426.6666666666667 192C426.6666666666667 239.1466666666667 407.4666666666667 281.8133333333334 376.7466666666667 312.7466666666667L406.8266666666667 342.8266666666667C445.44 304.2133333333334 469.3333333333333 250.88 469.3333333333333 192C469.3333333333333 74.24 373.76 -21.3333333333333 256 -21.3333333333333S42.6666666666667 74.24 42.6666666666667 192H85.3333333333333C85.3333333333333 97.7066666666667 161.7066666666667 21.3333333333334 256 21.3333333333334M256 426.6666666666667C279.4666666666667 426.6666666666667 298.6666666666667 407.4666666666667 298.6666666666667 384S279.4666666666667 341.3333333333334 256 341.3333333333334S213.3333333333333 360.5333333333334 213.3333333333333 384S232.5333333333334 426.6666666666667 256 426.6666666666667z" /></svg>