<?xml version="1.0" encoding="UTF-8"?><!DOCTYPE svg PUBLIC "-//W3C//DTD SVG 1.1//EN" "http://www.w3.org/Graphics/SVG/1.1/DTD/svg11.dtd"><svg xmlns="http://www.w3.org/2000/svg" xmlns:xlink="http://www.w3.org/1999/xlink" version="1.1" width="512" height="512" viewBox="0 0 512 512">    <path fill="#ffffff" transform="scale(1, -1) translate(0, -448)" glyph-name="hamburger" unicode="&#xF684;" horiz-adv-x="512" d=" M42.6666666666667 106.6666666666667H469.3333333333333V64C469.3333333333333 40.3200000000001 450.3466666666667 21.3333333333334 426.6666666666667 21.3333333333334H85.3333333333333C61.6533333333333 21.3333333333334 42.6666666666667 40.3200000000001 42.6666666666667 64V106.6666666666667M128 362.6666666666667H384C431.36 362.6666666666667 469.3333333333333 324.6933333333334 469.3333333333333 277.3333333333334V234.6666666666667H42.6666666666667V277.3333333333334C42.6666666666667 324.6933333333334 80.64 362.6666666666667 128 362.6666666666667M85.3333333333333 213.3333333333334H320L362.6666666666667 170.6666666666667L405.3333333333333 213.3333333333334H426.6666666666667C450.3466666666667 213.3333333333334 469.3333333333333 194.3466666666667 469.3333333333333 170.6666666666667C469.3333333333333 146.9866666666667 450.3466666666667 128 426.6666666666667 128H85.3333333333333C61.6533333333333 128 42.6666666666667 146.9866666666667 42.6666666666667 170.6666666666667C42.6666666666667 194.3466666666667 61.6533333333333 213.3333333333334 85.3333333333333 213.3333333333334z" /></svg>