<?xml version="1.0" encoding="UTF-8"?><!DOCTYPE svg PUBLIC "-//W3C//DTD SVG 1.1//EN" "http://www.w3.org/Graphics/SVG/1.1/DTD/svg11.dtd"><svg xmlns="http://www.w3.org/2000/svg" xmlns:xlink="http://www.w3.org/1999/xlink" version="1.1" width="512" height="512" viewBox="0 0 512 512">    <path fill="#ffffff" transform="scale(1, -1) translate(0, -448)" glyph-name="content-save-settings-outline" unicode="&#xFB13;" horiz-adv-x="512" d=" M320 362.6666666666667V277.3333333333334H106.6666666666667V64H199.4666666666667C181.3333333333333 79.5733333333334 170.6666666666667 102.6133333333334 170.6666666666667 128C170.6666666666667 175.1466666666667 208.8533333333333 213.3333333333334 256 213.3333333333334S341.3333333333333 175.1466666666667 341.3333333333333 128C341.3333333333333 102.6133333333334 330.6666666666667 79.5733333333334 312.5333333333333 64H405.3333333333333V302.2933333333334L344.9600000000001 362.6666666666667H320M106.6666666666667 320H277.3333333333333V362.6666666666667H106.6666666666667V320M362.6666666666667 405.3333333333333L448 320V64C448 40.5333333333333 428.8 21.3333333333334 405.3333333333333 21.3333333333334H106.6666666666667C82.9866666666667 21.3333333333334 64 40.5333333333333 64 64V362.6666666666667C64 386.1333333333334 83.2 405.3333333333333 106.6666666666667 405.3333333333333H362.6666666666667M256 170.6666666666667C232.5333333333334 170.6666666666667 213.3333333333333 151.4666666666667 213.3333333333333 128S232.5333333333334 85.3333333333334 256 85.3333333333334S298.6666666666667 104.5333333333333 298.6666666666667 128S279.4666666666667 170.6666666666667 256 170.6666666666667M149.3333333333333 -21.3333333333333H192V-64H149.3333333333333V-21.3333333333333M234.6666666666667 -21.3333333333333H277.3333333333333V-64H234.6666666666667V-21.3333333333333M320 -21.3333333333333H362.6666666666667V-64H320V-21.3333333333333z" /></svg>