<?xml version="1.0" encoding="UTF-8"?><!DOCTYPE svg PUBLIC "-//W3C//DTD SVG 1.1//EN" "http://www.w3.org/Graphics/SVG/1.1/DTD/svg11.dtd"><svg xmlns="http://www.w3.org/2000/svg" xmlns:xlink="http://www.w3.org/1999/xlink" version="1.1" width="512" height="512" viewBox="0 0 512 512">    <path fill="#ffffff" transform="scale(1, -1) translate(0, -448)" glyph-name="account-remove" unicode="&#xF015;" horiz-adv-x="512" d=" M320 149.3333333333334C376.9600000000001 149.3333333333334 490.6666666666666 120.96 490.6666666666666 64V21.3333333333334H149.3333333333333V64C149.3333333333333 120.96 263.04 149.3333333333334 320 149.3333333333334M320 192C272.8533333333333 192 234.6666666666667 230.1866666666667 234.6666666666667 277.3333333333334S272.8533333333333 362.6666666666667 320 362.6666666666667S405.3333333333333 324.48 405.3333333333333 277.3333333333334S367.1466666666667 192 320 192M106.6666666666667 243.4133333333334L151.8933333333333 288.8533333333334L182.1866666666667 258.5600000000001L136.7466666666667 213.3333333333334L182.1866666666667 168.1066666666667L151.8933333333333 137.8133333333333L106.6666666666667 183.2533333333333L61.44 137.8133333333334L31.1466666666667 168.1066666666667L76.5866666666667 213.3333333333334L31.1466666666667 258.56L61.44 288.8533333333334L106.6666666666667 243.4133333333334z" /></svg>