<?xml version="1.0" encoding="UTF-8"?><!DOCTYPE svg PUBLIC "-//W3C//DTD SVG 1.1//EN" "http://www.w3.org/Graphics/SVG/1.1/DTD/svg11.dtd"><svg xmlns="http://www.w3.org/2000/svg" xmlns:xlink="http://www.w3.org/1999/xlink" version="1.1" width="512" height="512" viewBox="0 0 512 512">    <path fill="#ffffff" transform="scale(1, -1) translate(0, -448)" glyph-name="cloud-question" unicode="&#xFA38;" horiz-adv-x="512" d=" M412.8 234.0266666666667C398.2933333333334 307.4133333333334 333.6533333333333 362.6666666666667 256 362.6666666666667C194.3466666666666 362.6666666666667 140.8 327.68 114.1333333333333 276.6933333333334C49.92 269.6533333333334 0 215.4666666666667 0 149.3333333333334C0 78.72 57.3866666666667 21.3333333333334 128 21.3333333333334H405.3333333333333C464.2133333333333 21.3333333333334 512 69.1200000000001 512 128C512 184.3200000000001 468.2666666666667 229.9733333333334 412.8 234.0266666666667M277.3333333333333 85.3333333333334H234.6666666666667V128H277.3333333333333V85.3333333333334M315.7333333333334 195.84C309.3333333333333 187.52 301.44 181.3333333333334 291.6266666666667 176C286.0800000000001 172.5866666666667 282.4533333333334 169.1733333333334 280.5333333333334 165.12C278.6133333333334 161.0666666666667 277.3333333333334 155.9466666666667 277.3333333333334 149.3333333333334H234.6666666666667C234.6666666666667 161.0666666666667 237.0133333333334 168.96 241.0666666666667 174.5066666666667C245.3333333333334 180.0533333333334 252.8000000000001 186.6666666666667 263.8933333333334 193.92C269.4400000000001 197.3333333333334 273.9200000000001 201.3866666666667 277.3333333333334 206.5066666666667C280.5333333333334 211.4133333333334 282.2400000000001 217.3866666666667 282.2400000000001 224C282.2400000000001 230.8266666666667 280.3200000000001 235.9466666666667 276.4800000000001 239.7866666666667C272.6400000000001 244.0533333333334 266.6666666666668 245.9733333333334 260.2666666666668 245.9733333333334C254.5066666666668 245.9733333333334 249.8133333333334 244.2666666666667 245.3333333333335 241.0666666666667C242.1333333333335 237.8666666666667 240.0000000000001 232.96 240.0000000000001 226.3466666666667H197.9733333333333C196.9066666666667 242.3466666666667 202.6666666666667 256 214.6133333333333 264.7466666666667C226.1333333333334 273.0666666666667 241.28 277.3333333333334 260.2666666666667 277.3333333333334C280.32 277.3333333333334 296.32 272.4266666666667 307.84 262.8266666666667C319.36 253.2266666666667 325.12 240 325.12 224C325.12 213.3333333333334 321.92 204.5866666666667 315.7333333333334 195.84z" /></svg>