<?xml version="1.0" encoding="UTF-8"?><!DOCTYPE svg PUBLIC "-//W3C//DTD SVG 1.1//EN" "http://www.w3.org/Graphics/SVG/1.1/DTD/svg11.dtd"><svg xmlns="http://www.w3.org/2000/svg" xmlns:xlink="http://www.w3.org/1999/xlink" version="1.1" width="512" height="512" viewBox="0 0 512 512">    <path fill="#ffffff" transform="scale(1, -1) translate(0, -448)" glyph-name="language-lua" unicode="&#xF8B0;" horiz-adv-x="512" d=" M224 341.3333333333334C123.9466666666667 341.3333333333334 42.6666666666667 260.0533333333334 42.6666666666667 160C42.6666666666667 59.9466666666667 123.9466666666667 -21.3333333333333 224 -21.3333333333333C324.0533333333334 -21.3333333333333 405.3333333333333 59.9466666666667 405.3333333333333 160C405.3333333333333 260.0533333333334 324.0533333333333 341.3333333333334 224 341.3333333333334M288 170.6666666666667C258.56 170.6666666666667 234.6666666666667 194.56 234.6666666666667 224S258.56 277.3333333333334 288 277.3333333333334S341.3333333333333 253.4400000000001 341.3333333333333 224S317.44 170.6666666666667 288 170.6666666666667M416 405.3333333333333C386.56 405.3333333333333 362.6666666666667 381.44 362.6666666666667 352S386.56 298.6666666666667 416 298.6666666666667S469.3333333333333 322.56 469.3333333333333 352S445.44 405.3333333333333 416 405.3333333333333" /></svg>