<?xml version="1.0" encoding="UTF-8"?><!DOCTYPE svg PUBLIC "-//W3C//DTD SVG 1.1//EN" "http://www.w3.org/Graphics/SVG/1.1/DTD/svg11.dtd"><svg xmlns="http://www.w3.org/2000/svg" xmlns:xlink="http://www.w3.org/1999/xlink" version="1.1" width="512" height="512" viewBox="0 0 512 512">    <path fill="#ffffff" transform="scale(1, -1) translate(0, -448)" glyph-name="google-plus" unicode="&#xF2BD;" horiz-adv-x="512" d=" M490.6666666666666 213.3333333333334H448V256H405.3333333333333V213.3333333333334H362.6666666666667V170.6666666666667H405.3333333333333V128H448V170.6666666666667H490.6666666666666M170.6666666666667 213.3333333333334V162.1333333333333H256C251.7333333333334 140.8 230.4 98.1333333333334 170.6666666666667 98.1333333333334C119.4666666666667 98.1333333333334 78.9333333333333 140.8000000000001 78.9333333333333 192.0000000000001C78.9333333333333 243.2000000000001 119.4666666666667 285.8666666666668 170.6666666666667 285.8666666666668C200.5333333333333 285.8666666666668 219.7333333333334 273.0666666666667 230.4 262.4000000000001L270.9333333333334 300.8000000000001C245.3333333333333 326.4 211.2 341.3333333333334 170.6666666666667 341.3333333333334C87.4666666666667 341.3333333333334 21.3333333333333 275.2000000000001 21.3333333333333 192S87.4666666666667 42.6666666666667 170.6666666666667 42.6666666666667C256 42.6666666666667 313.6 102.4 313.6 187.7333333333334C313.6 198.4 313.6 204.8000000000001 311.4666666666667 213.3333333333334H170.6666666666667z" /></svg>