<?xml version="1.0" encoding="UTF-8"?><!DOCTYPE svg PUBLIC "-//W3C//DTD SVG 1.1//EN" "http://www.w3.org/Graphics/SVG/1.1/DTD/svg11.dtd"><svg xmlns="http://www.w3.org/2000/svg" xmlns:xlink="http://www.w3.org/1999/xlink" version="1.1" width="512" height="512" viewBox="0 0 512 512">    <path fill="#ffffff" transform="scale(1, -1) translate(0, -448)" glyph-name="yammer" unicode="&#xF788;" horiz-adv-x="512" d=" M288.8533333333333 321.4933333333334L195.84 82.9866666666667C195.4133333333333 81.2800000000001 176.2133333333333 28.8000000000001 111.5733333333333 28.8000000000001C99.84 28.8000000000001 90.24 38.4 90.24 50.1333333333334C90.24 62.08 99.84 71.4666666666667 111.5733333333333 71.4666666666667C144.8533333333333 71.4666666666667 154.88 95.3600000000001 155.9466666666667 97.92L163.84 119.4666666666667L81.4933333333333 321.2800000000001C77.2266666666667 332.1600000000001 82.3466666666667 344.7466666666667 93.2266666666667 349.0133333333333C104.1066666666667 353.4933333333334 116.6933333333334 348.3733333333334 121.1733333333333 337.2800000000001L186.6666666666667 176.6400000000001L249.1733333333333 337.0666666666667C253.44 348.1600000000001 265.8133333333333 353.4933333333334 277.3333333333333 349.2266666666667C288 344.9600000000001 293.3333333333333 332.5866666666667 288.8533333333333 321.4933333333334M394.6666666666667 311.8933333333334C390.8266666666667 311.8933333333334 386.7733333333333 310.4000000000001 384 307.8400000000001C384 307.8400000000001 294.4 244.0533333333334 298.6666666666667 237.2266666666667C302.72 230.4000000000001 401.7066666666666 276.6933333333334 401.92 277.3333333333334C408.5333333333333 279.4666666666667 413.44 286.0800000000001 413.44 293.7600000000001C413.44 303.7866666666667 405.3333333333333 311.8933333333334 394.6666666666667 311.8933333333334M411.0933333333333 88.7466666666667C408.9599999999999 92.3733333333334 405.3333333333333 95.1466666666667 401.7066666666666 96.8533333333334C401.7066666666666 96.8533333333334 302.2933333333333 143.1466666666667 298.6666666666667 136.32C294.6133333333333 129.28 384 65.7066666666667 384 65.7066666666667C389.3333333333333 61.0133333333333 397.44 60.16 404.0533333333334 64C412.8 68.9066666666667 416 80 411.0933333333333 88.7466666666667M447.36 204.3733333333333C443.52 206.5066666666667 439.4666666666666 207.1466666666667 435.2 206.5066666666667C435.2 206.5066666666667 326.1866666666666 195.2 326.4 187.3066666666667C326.6133333333333 179.4133333333334 435.4133333333333 170.6666666666667 435.6266666666666 170.6666666666667C442.88 169.6 450.3466666666667 172.8 454.1866666666666 179.6266666666667C458.6666666666666 188.3733333333333 456.1066666666666 199.4666666666667 447.36 204.3733333333333z" /></svg>