<?xml version="1.0" encoding="UTF-8"?><!DOCTYPE svg PUBLIC "-//W3C//DTD SVG 1.1//EN" "http://www.w3.org/Graphics/SVG/1.1/DTD/svg11.dtd"><svg xmlns="http://www.w3.org/2000/svg" xmlns:xlink="http://www.w3.org/1999/xlink" version="1.1" width="512" height="512" viewBox="0 0 512 512">    <path fill="#ffffff" transform="scale(1, -1) translate(0, -448)" glyph-name="comment-eye-outline" unicode="&#xFA3A;" horiz-adv-x="512" d=" M341.3333333333333 320C353.28 320 362.6666666666667 310.6133333333334 362.6666666666667 298.6666666666667S353.28 277.3333333333334 341.3333333333333 277.3333333333334S320 286.7200000000001 320 298.6666666666667S329.3866666666667 320 341.3333333333333 320M341.3333333333333 384C399.5733333333333 384 449.28 348.5866666666667 469.3333333333333 298.6666666666667C449.28 248.7466666666667 399.5733333333333 213.3333333333334 341.3333333333333 213.3333333333334S233.3866666666667 248.7466666666667 213.3333333333333 298.6666666666667C233.3866666666667 348.5866666666667 283.0933333333333 384 341.3333333333333 384M341.3333333333333 352C311.8933333333333 352 288 328.1066666666667 288 298.6666666666667S311.8933333333333 245.3333333333334 341.3333333333333 245.3333333333334S394.6666666666667 269.2266666666667 394.6666666666667 298.6666666666667S370.7733333333333 352 341.3333333333333 352M384 176V106.6666666666667H279.04L213.3333333333333 40.96V106.6666666666667H85.3333333333333V320H176.4266666666667C183.2533333333333 335.5733333333334 192 349.8666666666667 202.6666666666667 362.6666666666667H85.3333333333333C61.8666666666667 362.6666666666667 42.6666666666667 343.4666666666667 42.6666666666667 320V106.6666666666667C42.6666666666667 82.9866666666667 61.8666666666667 64 85.3333333333333 64H170.6666666666667V0C170.6666666666667 -11.7333333333333 180.2666666666667 -21.3333333333333 192 -21.3333333333333H202.6666666666667C208 -21.3333333333333 213.3333333333333 -19.1999999999999 217.6 -15.1466666666666L296.5333333333333 64H384C407.68 64 426.6666666666667 82.9866666666667 426.6666666666667 106.6666666666667V192C413.2266666666667 184.96 398.9333333333333 179.6266666666667 384 176z" /></svg>