<?xml version="1.0" encoding="UTF-8"?><!DOCTYPE svg PUBLIC "-//W3C//DTD SVG 1.1//EN" "http://www.w3.org/Graphics/SVG/1.1/DTD/svg11.dtd"><svg xmlns="http://www.w3.org/2000/svg" xmlns:xlink="http://www.w3.org/1999/xlink" version="1.1" width="512" height="512" viewBox="0 0 512 512">    <path fill="#ffffff" transform="scale(1, -1) translate(0, -448)" glyph-name="soccer" unicode="&#xF4B8;" horiz-adv-x="512" d=" M256 405.3333333333333C138.24 405.3333333333333 42.6666666666667 309.76 42.6666666666667 192S138.24 -21.3333333333333 256 -21.3333333333333S469.3333333333333 74.24 469.3333333333333 192S373.76 405.3333333333333 256 405.3333333333333M256 384C293.5466666666666 384 328.5333333333333 372.6933333333334 357.9733333333334 353.92L352 341.3333333333334H256L219.3066666666667 359.2533333333334L226.7733333333333 381.2266666666667C236.3733333333333 382.9333333333334 245.9733333333333 384 256 384M203.3066666666667 375.8933333333333L196.0533333333333 353.92L141.44 326.6133333333334L114.7733333333333 321.28C138.6666666666666 347.0933333333334 168.96 366.08 203.3066666666667 375.8933333333333M277.3333333333333 320H341.3333333333333L398.7200000000001 243.4133333333334L372.0533333333334 188.5866666666667L315.9466666666667 175.36L245.9733333333334 257.2800000000001L277.3333333333333 320M131.4133333333333 305.92L149.3333333333333 234.6666666666667L123.3066666666667 169.3866666666667L68.6933333333333 150.6133333333334C65.7066666666667 164.0533333333334 64 177.7066666666667 64 192C64 232.5333333333334 76.5866666666667 269.6533333333334 97.92 300.5866666666667L131.4133333333333 305.92M438.6133333333334 251.3066666666667C444.8 232.7466666666667 448.0000000000001 212.6933333333333 448.0000000000001 192C448.0000000000001 161.28 440.1066666666667 132.48 427.3066666666668 106.6666666666667H405.3333333333333L387.4133333333333 177.92L419.4133333333333 241.92L438.6133333333333 251.3066666666667M170.6666666666667 234.6666666666667H234.6666666666667L294.6133333333334 164.6933333333334L256 106.6666666666667L188.5866666666667 90.0266666666666L139.3066666666667 155.9466666666667L170.6666666666667 234.6666666666667M256 85.3333333333334L320 42.6666666666667L301.44 5.9733333333334C286.7200000000001 2.5600000000001 271.5733333333333 0 256 0C218.6666666666667 0 184.1066666666666 10.6666666666667 154.6666666666667 29.2266666666667L179.4133333333333 65.92L256 85.3333333333334M405.3333333333333 85.3333333333334H416C394.6666666666667 53.3333333333334 362.6666666666667 28.3733333333333 326.6133333333333 14.08L341.3333333333333 42.6666666666667L405.3333333333333 85.3333333333334z" /></svg>