<?xml version="1.0" encoding="UTF-8"?><!DOCTYPE svg PUBLIC "-//W3C//DTD SVG 1.1//EN" "http://www.w3.org/Graphics/SVG/1.1/DTD/svg11.dtd"><svg xmlns="http://www.w3.org/2000/svg" xmlns:xlink="http://www.w3.org/1999/xlink" version="1.1" width="512" height="512" viewBox="0 0 512 512">    <path fill="#ffffff" transform="scale(1, -1) translate(0, -448)" glyph-name="language-c" unicode="&#xF671;" horiz-adv-x="512" d=" M329.6 107.3066666666667L338.56 55.2533333333333C333.0133333333333 52.2666666666667 324.0533333333333 49.4933333333333 312.1066666666667 46.9333333333333C299.9466666666666 44.16 285.6533333333333 42.6666666666667 269.2266666666667 42.6666666666667C222.08 43.52 186.6666666666667 57.6 162.9866666666666 84.48C138.6666666666666 111.5733333333334 127.1466666666667 145.92 127.1466666666667 187.5200000000001C128 236.8 142.5066666666667 274.56 170.6666666666667 301.0133333333333C197.9733333333333 327.68 232.96 341.3333333333334 275.2 341.3333333333334C291.2 341.3333333333334 305.0666666666667 339.8400000000001 316.5866666666667 337.28S336.64 331.9466666666667 342.1866666666666 328.7466666666667L329.3866666666667 275.6266666666667L307.2 282.88C298.6666666666667 285.0133333333333 288.64 286.08 277.3333333333333 286.08C252.8 286.2933333333333 232.32 278.4 216.32 262.6133333333334C200.1066666666666 247.04 192 223.1466666666667 191.1466666666667 191.36C191.36 162.3466666666667 199.04 139.7333333333334 214.1866666666667 123.0933333333334C229.3333333333333 106.6666666666667 250.4533333333333 98.1333333333334 277.9733333333333 97.92L306.3466666666667 100.48C315.52 102.1866666666667 323.2 104.5333333333334 329.6 107.3066666666667z" /></svg>