<?xml version="1.0" encoding="UTF-8"?><!DOCTYPE svg PUBLIC "-//W3C//DTD SVG 1.1//EN" "http://www.w3.org/Graphics/SVG/1.1/DTD/svg11.dtd"><svg xmlns="http://www.w3.org/2000/svg" xmlns:xlink="http://www.w3.org/1999/xlink" version="1.1" width="512" height="512" viewBox="0 0 512 512">    <path fill="#ffffff" transform="scale(1, -1) translate(0, -448)" glyph-name="disqus-outline" unicode="&#xF1D3;" horiz-adv-x="512" d=" M253.8666666666667 138.6666666666667H230.4V245.3333333333334H253.8666666666667C288 245.3333333333334 311.4666666666667 226.1333333333334 311.4666666666667 192S288 138.6666666666667 253.8666666666667 138.6666666666667M253.8666666666667 298.6666666666667H172.8V85.3333333333334H251.7333333333334C326.4 85.3333333333334 371.2 130.1333333333333 371.2 192S328.5333333333333 298.6666666666667 253.8666666666666 298.6666666666667M256 21.3333333333334C215.4666666666666 21.3333333333334 177.0666666666666 36.2666666666667 147.2 61.8666666666667L132.2666666666666 74.6666666666667L96 70.4L110.9333333333333 104.5333333333334L104.5333333333333 121.6000000000001C93.8666666666666 145.0666666666667 89.6 168.5333333333334 89.6 194.1333333333334C89.6 288.0000000000001 166.4 364.8000000000001 258.1333333333333 364.8000000000001C349.8666666666666 364.8000000000001 424.5333333333333 285.8666666666668 424.5333333333333 192.0000000000001C424.5333333333333 98.1333333333334 347.7333333333333 21.3333333333334 256 21.3333333333334M256 405.3333333333335C138.6666666666667 405.3333333333333 44.8 309.3333333333334 44.8 192C44.8 160 51.2 130.1333333333333 64 102.4L29.8666666666667 14.9333333333334L121.6 27.7333333333335C157.8666666666667 -4.2666666666665 206.9333333333333 -23.4666666666665 258.1333333333334 -23.4666666666665C375.4666666666667 -23.4666666666665 469.3333333333333 72.5333333333335 469.3333333333333 189.8666666666668S373.3333333333333 405.3333333333333 256 405.3333333333333z" /></svg>