<?xml version="1.0" encoding="UTF-8"?><!DOCTYPE svg PUBLIC "-//W3C//DTD SVG 1.1//EN" "http://www.w3.org/Graphics/SVG/1.1/DTD/svg11.dtd"><svg xmlns="http://www.w3.org/2000/svg" xmlns:xlink="http://www.w3.org/1999/xlink" version="1.1" width="512" height="512" viewBox="0 0 512 512">    <path fill="#ffffff" transform="scale(1, -1) translate(0, -448)" glyph-name="link-plus" unicode="&#xFC70;" horiz-adv-x="512" d=" M149.3333333333333 298.6666666666667H234.6666666666667V256H149.3333333333333C113.92 256 85.3333333333333 227.4133333333334 85.3333333333333 192S113.92 128 149.3333333333333 128H234.6666666666667V85.3333333333334H149.3333333333333C90.4533333333333 85.3333333333334 42.6666666666667 133.12 42.6666666666667 192S90.4533333333333 298.6666666666667 149.3333333333333 298.6666666666667M362.6666666666667 298.6666666666667C421.5466666666666 298.6666666666667 469.3333333333333 250.88 469.3333333333333 192H426.6666666666667C426.6666666666667 227.4133333333334 398.08 256 362.6666666666667 256H277.3333333333333V298.6666666666667H362.6666666666667M170.6666666666667 213.3333333333334H341.3333333333333V170.6666666666667H170.6666666666667V213.3333333333334M362.6666666666667 192H405.3333333333333V128H469.3333333333333V85.3333333333334H405.3333333333333V21.3333333333334H362.6666666666667V85.3333333333334H298.6666666666667V128H362.6666666666667V192z" /></svg>