<?xml version="1.0" encoding="UTF-8"?><!DOCTYPE svg PUBLIC "-//W3C//DTD SVG 1.1//EN" "http://www.w3.org/Graphics/SVG/1.1/DTD/svg11.dtd"><svg xmlns="http://www.w3.org/2000/svg" xmlns:xlink="http://www.w3.org/1999/xlink" version="1.1" width="512" height="512" viewBox="0 0 512 512">    <path fill="#ffffff" transform="scale(1, -1) translate(0, -448)" glyph-name="file-account" unicode="&#xF73A;" horiz-adv-x="512" d=" M277.3333333333333 256H394.6666666666667L277.3333333333333 373.3333333333334V256M128 405.3333333333333H298.6666666666667L426.6666666666667 277.3333333333334V21.3333333333334C426.6666666666667 -2.1333333333333 407.4666666666667 -21.3333333333333 384 -21.3333333333333H128C104.32 -21.3333333333333 85.3333333333333 -2.1333333333333 85.3333333333333 21.3333333333334V362.6666666666667C85.3333333333333 386.3466666666667 104.32 405.3333333333333 128 405.3333333333333M298.6666666666667 21.3333333333334V42.6666666666667C298.6666666666667 71.04 241.7066666666667 85.3333333333334 213.3333333333333 85.3333333333334S128 71.04 128 42.6666666666667V21.3333333333334H298.6666666666667M213.3333333333333 192C189.8666666666667 192 170.6666666666667 172.8 170.6666666666667 149.3333333333334S189.8666666666667 106.6666666666667 213.3333333333333 106.6666666666667S256 125.8666666666667 256 149.3333333333334S236.8 192 213.3333333333333 192z" /></svg>