<?xml version="1.0" encoding="UTF-8"?><!DOCTYPE svg PUBLIC "-//W3C//DTD SVG 1.1//EN" "http://www.w3.org/Graphics/SVG/1.1/DTD/svg11.dtd"><svg xmlns="http://www.w3.org/2000/svg" xmlns:xlink="http://www.w3.org/1999/xlink" version="1.1" width="512" height="512" viewBox="0 0 512 512">    <path fill="#ffffff" transform="scale(1, -1) translate(0, -448)" glyph-name="lock-smart" unicode="&#xF8B1;" horiz-adv-x="512" d=" M256 405.3333333333333C185.3866666666667 405.3333333333333 128 347.9466666666667 128 277.3333333333334V106.6666666666667C128 36.0533333333334 185.3866666666667 -21.3333333333333 256 -21.3333333333333S384 36.0533333333334 384 106.6666666666667V277.3333333333334C384 347.9466666666667 326.6133333333334 405.3333333333333 256 405.3333333333333M170.6666666666667 320H213.3333333333333V277.3333333333334H170.6666666666667V320M234.6666666666667 320H277.3333333333333V277.3333333333334H234.6666666666667V320M298.6666666666667 320H341.3333333333333V277.3333333333334H298.6666666666667V320M170.6666666666667 256H213.3333333333333V213.3333333333334H170.6666666666667V256M234.6666666666667 256H277.3333333333333V213.3333333333334H234.6666666666667V256M298.6666666666667 256H341.3333333333333V213.3333333333334H298.6666666666667V256M170.6666666666667 192H213.3333333333333V149.3333333333334H170.6666666666667V192M234.6666666666667 192H277.3333333333333V149.3333333333334H234.6666666666667V192M298.6666666666667 192H341.3333333333333V149.3333333333334H298.6666666666667V192M256 106.6666666666667C279.4666666666667 106.6666666666667 298.6666666666667 87.4666666666667 298.6666666666667 64S279.4666666666667 21.3333333333334 256 21.3333333333334S213.3333333333333 40.5333333333333 213.3333333333333 64S232.5333333333334 106.6666666666667 256 106.6666666666667z" /></svg>