<?xml version="1.0" encoding="UTF-8"?><!DOCTYPE svg PUBLIC "-//W3C//DTD SVG 1.1//EN" "http://www.w3.org/Graphics/SVG/1.1/DTD/svg11.dtd"><svg xmlns="http://www.w3.org/2000/svg" xmlns:xlink="http://www.w3.org/1999/xlink" version="1.1" width="512" height="512" viewBox="0 0 512 512">    <path fill="#ffffff" transform="scale(1, -1) translate(0, -448)" glyph-name="network-off-outline" unicode="&#xFC78;" horiz-adv-x="512" d=" M22.1866666666667 335.5733333333334L106.6666666666667 251.0933333333334V128C106.6666666666667 104.5333333333333 125.8666666666667 85.3333333333334 149.3333333333333 85.3333333333334H234.6666666666667V42.6666666666667H213.3333333333333C201.6 42.6666666666667 192 33.0666666666667 192 21.3333333333334H42.6666666666667V-21.3333333333333H192C192 -33.0666666666667 201.6 -42.6666666666666 213.3333333333333 -42.6666666666666H298.6666666666667C310.4 -42.6666666666666 320 -33.0666666666667 320 -21.3333333333333H379.0933333333333L421.76 -64L448.8533333333333 -36.6933333333333L49.4933333333333 362.6666666666667L22.1866666666667 335.5733333333334M149.3333333333333 208.4266666666667L229.76 128H149.3333333333333V208.4266666666667M320 21.3333333333334C320 33.0666666666667 310.4 42.6666666666667 298.6666666666667 42.6666666666667H277.3333333333333V80.4266666666667L336.4266666666666 21.3333333333334H320M469.3333333333333 21.3333333333334V-2.9866666666667L445.0133333333333 21.3333333333334H469.3333333333333M149.3333333333333 317.0133333333333L109.6533333333333 356.6933333333334C115.84 372.6933333333334 131.4133333333333 384 149.3333333333333 384H362.6666666666667C386.1333333333334 384 405.3333333333333 364.8 405.3333333333333 341.3333333333334V128C405.3333333333333 109.8666666666667 394.0266666666667 94.5066666666667 378.0266666666667 88.3200000000001L338.3466666666667 128H362.6666666666667V341.3333333333334H149.3333333333333V317.0133333333333z" /></svg>