<?xml version="1.0" encoding="UTF-8"?><!DOCTYPE svg PUBLIC "-//W3C//DTD SVG 1.1//EN" "http://www.w3.org/Graphics/SVG/1.1/DTD/svg11.dtd"><svg xmlns="http://www.w3.org/2000/svg" xmlns:xlink="http://www.w3.org/1999/xlink" version="1.1" width="512" height="512" viewBox="0 0 512 512">    <path fill="#ffffff" transform="scale(1, -1) translate(0, -448)" glyph-name="set-left-right" unicode="&#xF77C;" horiz-adv-x="512" d=" M192 341.3333333333334C214.1866666666667 341.3333333333334 235.9466666666667 336.2133333333334 256 326.8266666666667C276.0533333333333 336.2133333333334 297.8133333333334 341.3333333333334 320 341.3333333333334C402.56 341.3333333333334 469.3333333333333 274.5600000000001 469.3333333333333 192S402.56 42.6666666666667 320 42.6666666666667C297.8133333333334 42.6666666666667 276.0533333333333 47.7866666666666 256 57.1733333333334C235.9466666666667 47.7866666666666 214.1866666666667 42.6666666666667 192 42.6666666666667C109.44 42.6666666666667 42.6666666666667 109.44 42.6666666666667 192S109.44 341.3333333333334 192 341.3333333333334M192 192C192 144.64 217.8133333333333 103.2533333333333 256 81.0666666666667C294.1866666666666 103.2533333333333 320 144.6400000000001 320 192S294.1866666666666 280.7466666666667 256 302.9333333333334C217.8133333333333 280.7466666666667 192 239.36 192 192z" /></svg>