<?xml version="1.0" encoding="UTF-8"?><!DOCTYPE svg PUBLIC "-//W3C//DTD SVG 1.1//EN" "http://www.w3.org/Graphics/SVG/1.1/DTD/svg11.dtd"><svg xmlns="http://www.w3.org/2000/svg" xmlns:xlink="http://www.w3.org/1999/xlink" version="1.1" width="512" height="512" viewBox="0 0 512 512">    <path fill="#ffffff" transform="scale(1, -1) translate(0, -448)" glyph-name="package-variant-closed" unicode="&#xF3D7;" horiz-adv-x="512" d=" M448 96C448 87.8933333333334 443.52 80.8533333333334 436.6933333333333 77.2266666666667L268.16 -17.4933333333333C264.7466666666666 -20.0533333333333 260.48 -21.3333333333333 256 -21.3333333333333C251.5199999999999 -21.3333333333333 247.2533333333333 -20.0533333333333 243.84 -17.4933333333333L75.3066666666666 77.2266666666667C68.48 80.8533333333334 63.9999999999999 87.8933333333334 63.9999999999999 96V288C63.9999999999999 296.1066666666667 68.4799999999999 303.1466666666667 75.3066666666666 306.7733333333333L243.84 401.4933333333334C247.2533333333333 404.0533333333334 251.5199999999999 405.3333333333334 256 405.3333333333334C260.48 405.3333333333334 264.7466666666666 404.0533333333334 268.16 401.4933333333334L436.6933333333333 306.7733333333333C443.52 303.1466666666667 448 296.1066666666667 448 288V96M256 359.4666666666667L215.68 336.64L341.3333333333333 264.3200000000001L383.1466666666667 288L256 359.4666666666667M128.8533333333333 288L256 216.5333333333334L297.8133333333334 240L172.3733333333334 312.5333333333334L128.8533333333333 288M106.6666666666667 108.5866666666667L234.6666666666667 36.48V179.6266666666667L106.6666666666667 251.52V108.5866666666667M405.3333333333333 108.5866666666667V251.52L277.3333333333333 179.6266666666667V36.48L405.3333333333333 108.5866666666666z" /></svg>