<?xml version="1.0" encoding="UTF-8"?><!DOCTYPE svg PUBLIC "-//W3C//DTD SVG 1.1//EN" "http://www.w3.org/Graphics/SVG/1.1/DTD/svg11.dtd"><svg xmlns="http://www.w3.org/2000/svg" xmlns:xlink="http://www.w3.org/1999/xlink" version="1.1" width="512" height="512" viewBox="0 0 512 512">    <path fill="#ffffff" transform="scale(1, -1) translate(0, -448)" glyph-name="numeric-2-box" unicode="&#xF3A7;" horiz-adv-x="512" d=" M320 213.3333333333334C320 189.6533333333334 300.8 170.6666666666667 277.3333333333333 170.6666666666667H234.6666666666667V128H320V85.3333333333334H192V170.6666666666667C192 194.3466666666667 211.2 213.3333333333334 234.6666666666667 213.3333333333334H277.3333333333333V256H192V298.6666666666667H277.3333333333333C300.8 298.6666666666667 320 279.4666666666667 320 256M405.3333333333333 384H106.6666666666667C83.2 384 64 364.8 64 341.3333333333334V42.6666666666667C64 19.2 83.2 0 106.6666666666667 0H405.3333333333333C428.8 0 448 19.2 448 42.6666666666667V341.3333333333334C448 364.8 428.8 384 405.3333333333333 384z" /></svg>