<?xml version="1.0" encoding="UTF-8"?><!DOCTYPE svg PUBLIC "-//W3C//DTD SVG 1.1//EN" "http://www.w3.org/Graphics/SVG/1.1/DTD/svg11.dtd"><svg xmlns="http://www.w3.org/2000/svg" xmlns:xlink="http://www.w3.org/1999/xlink" version="1.1" width="512" height="512" viewBox="0 0 512 512">    <path fill="#ffffff" transform="scale(1, -1) translate(0, -448)" glyph-name="emoticon-poop" unicode="&#xF1F7;" horiz-adv-x="512" d=" M242.3466666666667 405.3333333333333C237.8666666666666 405.3333333333333 231.8933333333333 402.7733333333333 225.4933333333334 398.5066666666667C213.3333333333333 390.4 188.8 364.8 179.2 339.2000000000001C171.9466666666667 320 171.7333333333334 302.5066666666667 174.72 289.4933333333334C162.7733333333333 287.36 154.0266666666667 283.52 150.6133333333333 282.0266666666667C139.7333333333333 277.3333333333334 116.6933333333333 256.8533333333334 114.56 225.0666666666667C113.92 213.9733333333334 115.4133333333333 202.6666666666667 118.8266666666667 192C104.7466666666666 187.9466666666667 96.64 182.8266666666667 96 182.6133333333334C89.1733333333333 180.0533333333334 77.8666666666667 172.16 74.6666666666666 167.8933333333334C67.2 159.36 62.2933333333333 149.3333333333334 59.52 138.6666666666667C53.3333333333333 115.4133333333334 55.4666666666667 88.96 66.7733333333333 67.6266666666667C72.96 55.6800000000001 81.4933333333333 42.6666666666667 90.88 33.4933333333333C121.6 1.92 174.5066666666667 -10.0266666666666 216.32 -16.8533333333333C267.3066666666666 -25.3866666666666 320.64 -22.4 368.2133333333333 -2.7733333333333C439.68 26.8800000000001 458.6666666666666 74.6666666666667 461.6533333333333 87.68C467.8399999999999 117.3333333333334 460.1599999999999 145.28 456.9599999999999 152.1066666666667C452.2666666666667 161.92 444.5866666666667 171.9466666666667 432 178.3466666666667C423.4666666666667 183.68 416 186.4533333333334 410.4533333333333 187.7333333333334C416 208 408.1066666666667 224 397.2266666666666 235.9466666666667C380.8 253.44 363.9466666666666 256 363.9466666666666 256C369.4933333333334 266.6666666666667 371.6266666666666 279.4666666666667 368.64 291.84C365.2266666666666 306.9866666666666 356.9066666666666 316.5866666666667 346.0266666666667 322.9866666666666C334.9333333333333 329.6 321.28 332.8 307.2 335.36C300.3733333333333 336.64 272 340.6933333333333 260.2666666666667 356.9066666666667C250.6666666666667 370.1333333333334 250.4533333333333 394.0266666666667 247.8933333333333 401.0666666666666C246.8266666666667 403.8399999999999 245.3333333333333 405.3333333333333 242.3466666666667 405.3333333333333M341.3333333333333 242.9866666666667C342.8266666666667 242.9866666666667 344.1066666666667 242.7733333333334 345.3866666666667 242.7733333333334C375.8933333333333 239.36 397.6533333333333 209.92 394.0266666666667 177.28C390.4 144.6400000000001 362.6666666666668 120.7466666666667 332.1600000000001 124.16C301.6533333333334 128 279.8933333333333 156.8 283.5200000000001 189.6533333333334C286.9333333333334 220.5866666666667 312.3200000000001 244.0533333333334 341.3333333333334 242.9866666666667M183.8933333333334 242.9866666666667C212.2666666666668 242.1333333333334 235.9466666666668 218.0266666666667 238.0800000000001 187.5200000000001C240.6400000000001 154.6666666666667 217.8133333333334 126.2933333333334 187.3066666666668 123.9466666666667H187.0933333333334C156.5866666666668 121.6 129.7066666666668 146.3466666666667 127.1466666666668 179.2000000000001C124.8000000000001 212.0533333333334 147.6266666666668 240.4266666666667 178.1333333333335 242.7733333333334C180.0533333333334 242.9866666666667 181.9733333333334 242.9866666666667 183.8933333333334 242.9866666666667M184.3200000000001 206.72C183.4666666666668 206.72 182.8266666666668 206.72 181.9733333333334 206.5066666666667C170.0266666666668 205.0133333333334 161.4933333333334 194.1333333333334 162.9866666666668 182.4C164.2666666666668 170.6666666666667 175.1466666666668 162.3466666666667 187.0933333333334 163.84C199.0400000000001 165.3333333333334 207.5733333333334 176.2133333333334 206.2933333333334 187.9466666666667C205.0133333333334 199.0400000000001 195.2000000000001 206.9333333333334 184.3200000000001 206.7200000000001M340.0533333333334 206.2933333333334C328.9600000000001 205.8666666666668 320.0000000000001 197.3333333333334 319.1466666666668 186.0266666666668C318.2933333333334 174.2933333333334 327.4666666666668 164.0533333333335 339.4133333333334 163.4133333333334C352.0000000000001 162.5600000000001 361.8133333333334 171.7333333333335 362.6666666666668 183.4666666666668C363.5200000000001 195.4133333333334 354.3466666666667 205.6533333333334 342.4000000000001 206.2933333333334H340.0533333333334M185.8133333333334 103.4666666666667C192.0000000000001 103.6800000000001 197.5466666666668 101.7600000000001 202.6666666666668 100.6933333333334C227.8400000000001 96.0000000000001 249.6000000000001 95.3600000000001 260.0533333333334 95.3600000000001C270.5066666666667 95.3600000000001 292.0533333333334 96.0000000000001 317.0133333333334 100.6933333333334C325.7600000000001 102.4 335.7866666666668 106.0266666666668 343.6800000000001 100.6933333333334C353.9200000000001 93.8666666666667 346.4533333333334 69.3333333333334 330.6666666666668 52.6933333333334C320.8533333333334 42.6666666666667 298.0266666666668 23.2533333333334 260.0533333333334 23.2533333333334S199.04 42.6666666666667 189.44 52.6933333333333C173.6533333333333 69.3333333333334 166.1866666666667 93.8666666666667 176.2133333333334 100.6933333333333C179.2000000000001 102.6133333333334 182.4 103.4666666666666 185.8133333333333 103.4666666666666z" /></svg>