<?xml version="1.0" encoding="UTF-8"?><!DOCTYPE svg PUBLIC "-//W3C//DTD SVG 1.1//EN" "http://www.w3.org/Graphics/SVG/1.1/DTD/svg11.dtd"><svg xmlns="http://www.w3.org/2000/svg" xmlns:xlink="http://www.w3.org/1999/xlink" version="1.1" width="512" height="512" viewBox="0 0 512 512">    <path fill="#ffffff" transform="scale(1, -1) translate(0, -448)" glyph-name="blender-software" unicode="&#xF0AB;" horiz-adv-x="512" d=" M268.3733333333334 381.44V381.2266666666667C261.76 381.2266666666667 255.1466666666667 379.3066666666667 249.8133333333334 375.68C239.1466666666667 368.2133333333334 237.8666666666667 355.8400000000001 247.4666666666667 347.9466666666667L308.48 298.6666666666667L122.24 298.0266666666667H122.0266666666667C106.6666666666667 298.0266666666667 91.7333333333333 288 88.7466666666667 275.2000000000001C85.3333333333333 262.1866666666667 96 251.3066666666667 112.2133333333333 251.3066666666667L206.72 251.5200000000001L37.5466666666667 121.6C21.3333333333333 109.4400000000001 16.4266666666667 89.1733333333334 26.4533333333333 76.3733333333334C36.6933333333333 63.3600000000001 58.24 63.3600000000001 74.6666666666667 76.3733333333334L166.4 151.6800000000001S164.9066666666667 141.4400000000001 165.12 135.4666666666667C165.12 129.2800000000001 167.2533333333333 117.3333333333334 170.0266666666667 108.1600000000001C176.2133333333333 88.3200000000001 186.6666666666667 70.1866666666667 201.1733333333333 54.1866666666667C216.1066666666666 37.7600000000001 234.6666666666667 24.5333333333334 256 15.1466666666667C277.9733333333333 5.1200000000001 302.2933333333333 0 327.2533333333334 0C352 0 376.5333333333333 5.3333333333334 398.7200000000001 15.36C420.0533333333334 24.7466666666667 438.4 38.1866666666667 453.3333333333333 54.6133333333333C467.84 70.6133333333334 478.2933333333334 88.96 484.48 108.5866666666667C487.4666666666667 118.6133333333334 489.3866666666667 128.64 490.6666666666666 138.6666666666666C490.6666666666666 148.6933333333333 490.6666666666666 158.72 489.3866666666667 168.7466666666667C486.6133333333333 188.16 480 206.5066666666666 469.3333333333333 223.1466666666666C459.9466666666666 238.2933333333333 448 251.7333333333333 433.28 263.04L286.2933333333333 375.8933333333333C281.3866666666666 379.52 274.9866666666666 381.44 268.3733333333333 381.44M327.2533333333333 251.52C351.9999999999999 251.52 375.2533333333332 243.4133333333333 393.8133333333333 228.48C403.2 220.8 410.6666666666666 211.84 415.9999999999999 201.8133333333333C421.7599999999999 192 425.3866666666666 180.2666666666667 426.6666666666666 168.32C427.5199999999999 156.3733333333333 425.8133333333333 144.4266666666667 421.7599999999999 132.9066666666667C417.4933333333333 121.3866666666667 410.6666666666666 110.72 401.4933333333333 101.12C382.5066666666666 81.92 356.0533333333333 70.8266666666667 327.2533333333332 70.8266666666667C298.6666666666666 70.8266666666667 271.9999999999999 81.7066666666667 253.0133333333333 100.9066666666667C243.8399999999999 110.2933333333334 237.0133333333333 121.1733333333334 232.7466666666666 132.6933333333334C228.6933333333333 144 226.9866666666666 155.9466666666667 228.0533333333333 168.1066666666667C229.1199999999999 180.0533333333334 232.7466666666666 191.36 238.2933333333333 201.6C243.8399999999999 211.6266666666667 251.5199999999999 220.5866666666667 260.9066666666666 228.2666666666667C279.2533333333332 243.4133333333334 302.7199999999999 251.5200000000001 327.2533333333332 251.5200000000001M329.3866666666666 221.6533333333334C312.7466666666666 221.6533333333334 297.3866666666666 215.68 286.08 206.08C274.56 196.2666666666667 266.6666666666666 182.6133333333334 266.0266666666666 166.8266666666667C265.1733333333333 150.8266666666667 271.5733333333333 135.8933333333334 282.88 124.8C294.3999999999999 113.4933333333334 311.04 106.6666666666667 329.3866666666666 106.6666666666667C347.7333333333333 106.6666666666667 364.1599999999999 113.4933333333334 375.8933333333333 124.8C387.2 135.8933333333333 393.5999999999999 150.8266666666667 392.7466666666666 166.8266666666667C391.8933333333333 182.6133333333334 383.9999999999999 196.2666666666667 372.6933333333332 206.08C361.3866666666666 215.68 346.0266666666666 221.6533333333334 329.3866666666666 221.6533333333334z" /></svg>