<?xml version="1.0" encoding="UTF-8"?><!DOCTYPE svg PUBLIC "-//W3C//DTD SVG 1.1//EN" "http://www.w3.org/Graphics/SVG/1.1/DTD/svg11.dtd"><svg xmlns="http://www.w3.org/2000/svg" xmlns:xlink="http://www.w3.org/1999/xlink" version="1.1" width="512" height="512" viewBox="0 0 512 512">    <path fill="#ffffff" transform="scale(1, -1) translate(0, -448)" glyph-name="monitor-off" unicode="&#xFD6C;" horiz-adv-x="512" d=" M298.6666666666667 64V21.3333333333334H341.3333333333333V-21.3333333333333H170.6666666666667V21.3333333333334H213.3333333333333V64H64C40.5333333333333 64 21.3333333333333 83.2 21.3333333333333 106.6666666666667V362.6666666666667L0 384L30.08 414.2933333333334L472.7466666666667 -28.5866666666667L442.6666666666667 -58.6666666666667L320 64H298.6666666666667M64 106.6666666666667H277.3333333333333L64 320V106.6666666666667M448 405.3333333333333C471.4666666666667 405.3333333333333 490.6666666666666 386.1333333333334 490.6666666666666 362.6666666666667V106.6666666666667C490.6666666666666 83.2 471.4666666666667 64 448 64H440.7466666666667L398.08 106.6666666666667H448V362.6666666666667H142.08L99.4133333333333 405.3333333333333H448z" /></svg>