<?xml version="1.0" encoding="UTF-8"?><!DOCTYPE svg PUBLIC "-//W3C//DTD SVG 1.1//EN" "http://www.w3.org/Graphics/SVG/1.1/DTD/svg11.dtd"><svg xmlns="http://www.w3.org/2000/svg" xmlns:xlink="http://www.w3.org/1999/xlink" version="1.1" width="512" height="512" viewBox="0 0 512 512">    <path fill="#ffffff" transform="scale(1, -1) translate(0, -448)" glyph-name="go-kart" unicode="&#xFD55;" horiz-adv-x="512" d=" M384 234.6666666666667H331.3066666666666L306.7733333333333 271.36L337.0666666666666 291.6266666666667L313.6 327.04L217.6 263.0400000000001L241.0666666666667 227.6266666666667L271.5733333333333 247.8933333333334L296.1066666666667 210.7733333333334L277.3333333333333 192H217.6L124.3733333333333 331.7333333333334L88.96 308.2666666666667L125.2266666666667 253.6533333333333C64.8533333333333 242.1333333333334 21.3333333333333 189.4400000000001 21.3333333333333 128V85.3333333333334H64C64 49.92 92.5866666666667 21.3333333333334 128 21.3333333333334S192 49.92 192 85.3333333333334H320C320 49.92 348.5866666666667 21.3333333333334 384 21.3333333333334S448 49.92 448 85.3333333333334H490.6666666666666V128C490.6666666666666 186.88 442.88 234.6666666666667 384 234.6666666666667M128 53.3333333333334C110.2933333333333 53.3333333333334 96 67.6266666666667 96 85.3333333333334S110.2933333333333 117.3333333333334 128 117.3333333333334S160 103.04 160 85.3333333333334S145.7066666666667 53.3333333333334 128 53.3333333333334M384 53.3333333333334C366.2933333333334 53.3333333333334 352 67.6266666666667 352 85.3333333333334S366.2933333333334 117.3333333333334 384 117.3333333333334S416 103.04 416 85.3333333333334S401.7066666666666 53.3333333333334 384 53.3333333333334z" /></svg>