<?xml version="1.0" encoding="UTF-8"?><!DOCTYPE svg PUBLIC "-//W3C//DTD SVG 1.1//EN" "http://www.w3.org/Graphics/SVG/1.1/DTD/svg11.dtd"><svg xmlns="http://www.w3.org/2000/svg" xmlns:xlink="http://www.w3.org/1999/xlink" version="1.1" width="512" height="512" viewBox="0 0 512 512">    <path fill="#ffffff" transform="scale(1, -1) translate(0, -448)" glyph-name="matrix" unicode="&#xF628;" horiz-adv-x="512" d=" M42.6666666666667 405.3333333333333H128V362.6666666666667H85.3333333333333V21.3333333333334H128V-21.3333333333333H42.6666666666667V405.3333333333333M426.6666666666667 362.6666666666667H384V405.3333333333333H469.3333333333333V-21.3333333333333H384V21.3333333333334H426.6666666666667V362.6666666666667M192 341.3333333333334H213.3333333333333V234.6666666666667H234.6666666666667V213.3333333333334H170.6666666666667V234.6666666666667H192V320L170.6666666666667 309.3333333333334V330.6666666666667L192 341.3333333333334M320 170.6666666666667H341.3333333333333V64H362.6666666666667V42.6666666666667H298.6666666666667V64H320V149.3333333333334L298.6666666666667 138.6666666666667V160L320 170.6666666666667M192 170.6666666666667C215.4666666666667 170.6666666666667 234.6666666666667 142.0800000000001 234.6666666666667 106.6666666666667S215.4666666666667 42.6666666666667 192 42.6666666666667S149.3333333333333 71.2533333333333 149.3333333333333 106.6666666666667S168.5333333333333 170.6666666666667 192 170.6666666666667M192 149.3333333333334C180.2666666666667 149.3333333333334 170.6666666666667 130.1333333333333 170.6666666666667 106.6666666666667S180.2666666666667 64 192 64S213.3333333333333 83.2 213.3333333333333 106.6666666666667S203.7333333333334 149.3333333333334 192 149.3333333333334M320 341.3333333333334C343.4666666666667 341.3333333333334 362.6666666666667 312.7466666666667 362.6666666666667 277.3333333333334S343.4666666666667 213.3333333333334 320 213.3333333333334S277.3333333333333 241.92 277.3333333333333 277.3333333333334S296.5333333333333 341.3333333333334 320 341.3333333333334M320 320C308.2666666666667 320 298.6666666666667 300.8 298.6666666666667 277.3333333333334S308.2666666666667 234.6666666666667 320 234.6666666666667S341.3333333333333 253.8666666666667 341.3333333333333 277.3333333333334S331.7333333333334 320 320 320z" /></svg>