<?xml version="1.0" encoding="UTF-8"?><!DOCTYPE svg PUBLIC "-//W3C//DTD SVG 1.1//EN" "http://www.w3.org/Graphics/SVG/1.1/DTD/svg11.dtd"><svg xmlns="http://www.w3.org/2000/svg" xmlns:xlink="http://www.w3.org/1999/xlink" version="1.1" width="512" height="512" viewBox="0 0 512 512">    <path fill="#ffffff" transform="scale(1, -1) translate(0, -448)" glyph-name="amplifier" unicode="&#xF030;" horiz-adv-x="512" d=" M213.3333333333333 405.3333333333333H298.6666666666667C310.4 405.3333333333333 320 395.7333333333334 320 384H448V0H405.3333333333333C405.3333333333333 -11.7333333333333 395.7333333333334 -21.3333333333333 384 -21.3333333333333S362.6666666666667 -11.7333333333333 362.6666666666667 0H149.3333333333333C149.3333333333333 -11.7333333333333 139.7333333333333 -21.3333333333333 128 -21.3333333333333S106.6666666666667 -11.7333333333333 106.6666666666667 0H64V384H192C192 395.7333333333334 201.6 405.3333333333333 213.3333333333333 405.3333333333333M106.6666666666667 341.3333333333334V256H405.3333333333333V341.3333333333334H106.6666666666667M149.3333333333333 320C161.0666666666667 320 170.6666666666667 310.4 170.6666666666667 298.6666666666667S161.0666666666667 277.3333333333334 149.3333333333333 277.3333333333334S128 286.9333333333334 128 298.6666666666667S137.6 320 149.3333333333333 320M256 320H298.6666666666667V298.6666666666667H256V320M320 320H341.3333333333333V277.3333333333334H320V320M362.6666666666667 320H384V277.3333333333334H362.6666666666667V320M256 213.3333333333334C208.8533333333333 213.3333333333334 170.6666666666667 175.1466666666667 170.6666666666667 128S208.8533333333333 42.6666666666667 256 42.6666666666667S341.3333333333333 80.8533333333334 341.3333333333333 128S303.1466666666667 213.3333333333334 256 213.3333333333334M213.3333333333333 320C225.0666666666667 320 234.6666666666667 310.4 234.6666666666667 298.6666666666667S225.0666666666667 277.3333333333334 213.3333333333333 277.3333333333334S192 286.9333333333334 192 298.6666666666667S201.6 320 213.3333333333333 320z" /></svg>