<?xml version="1.0" encoding="UTF-8"?><!DOCTYPE svg PUBLIC "-//W3C//DTD SVG 1.1//EN" "http://www.w3.org/Graphics/SVG/1.1/DTD/svg11.dtd"><svg xmlns="http://www.w3.org/2000/svg" xmlns:xlink="http://www.w3.org/1999/xlink" version="1.1" width="512" height="512" viewBox="0 0 512 512">    <path fill="#ffffff" transform="scale(1, -1) translate(0, -448)" glyph-name="robot" unicode="&#xF6A8;" horiz-adv-x="512" d=" M256 405.3333333333333C279.4666666666667 405.3333333333333 298.6666666666667 386.1333333333334 298.6666666666667 362.6666666666667C298.6666666666667 346.88 290.1333333333334 333.0133333333333 277.3333333333333 325.76V298.6666666666667H298.6666666666667C381.2266666666667 298.6666666666667 448 231.8933333333334 448 149.3333333333334H469.3333333333333C481.0666666666667 149.3333333333334 490.6666666666666 139.7333333333334 490.6666666666666 128V64C490.6666666666666 52.2666666666667 481.0666666666667 42.6666666666667 469.3333333333333 42.6666666666667H448V21.3333333333334C448 -2.1333333333333 428.8 -21.3333333333333 405.3333333333333 -21.3333333333333H106.6666666666667C83.2 -21.3333333333333 64 -2.1333333333333 64 21.3333333333334V42.6666666666667H42.6666666666667C30.9333333333333 42.6666666666667 21.3333333333333 52.2666666666667 21.3333333333333 64V128C21.3333333333333 139.7333333333334 30.9333333333333 149.3333333333334 42.6666666666667 149.3333333333334H64C64 231.8933333333334 130.7733333333333 298.6666666666667 213.3333333333333 298.6666666666667H234.6666666666667V325.76C221.8666666666667 333.0133333333333 213.3333333333333 346.88 213.3333333333333 362.6666666666667C213.3333333333333 386.1333333333334 232.5333333333334 405.3333333333333 256 405.3333333333333M160 170.6666666666667C130.56 170.6666666666667 106.6666666666667 146.7733333333334 106.6666666666667 117.3333333333334S130.56 64 160 64S213.3333333333333 87.8933333333334 213.3333333333333 117.3333333333334S189.44 170.6666666666667 160 170.6666666666667M352 170.6666666666667C322.56 170.6666666666667 298.6666666666667 146.7733333333333 298.6666666666667 117.3333333333334S322.56 64 352 64S405.3333333333333 87.8933333333334 405.3333333333333 117.3333333333334S381.44 170.6666666666667 352 170.6666666666667z" /></svg>