<?xml version="1.0" encoding="UTF-8"?><!DOCTYPE svg PUBLIC "-//W3C//DTD SVG 1.1//EN" "http://www.w3.org/Graphics/SVG/1.1/DTD/svg11.dtd"><svg xmlns="http://www.w3.org/2000/svg" xmlns:xlink="http://www.w3.org/1999/xlink" version="1.1" width="512" height="512" viewBox="0 0 512 512">    <path fill="#ffffff" transform="scale(1, -1) translate(0, -448)" glyph-name="run" unicode="&#xF70D;" horiz-adv-x="512" d=" M288 330.6666666666667C311.2533333333334 330.6666666666667 330.6666666666667 350.2933333333334 330.6666666666667 373.3333333333334C330.6666666666667 397.2266666666667 311.2533333333334 416 288 416C264.32 416 245.3333333333333 397.2266666666667 245.3333333333333 373.3333333333334C245.3333333333333 350.2933333333334 264.32 330.6666666666667 288 330.6666666666667M210.9866666666667 34.5600000000001L232.32 128L277.3333333333333 85.3333333333334V-42.6666666666666H320V117.3333333333334L274.9866666666667 160L288 224C315.52 192 358.1866666666666 170.6666666666667 405.3333333333333 170.6666666666667V213.3333333333334C364.5866666666667 213.3333333333334 330.6666666666667 234.6666666666667 313.3866666666667 264.9600000000001L292.0533333333334 298.6666666666667C283.52 311.8933333333333 270.7200000000001 320 256 320C249.3866666666667 320 245.3333333333334 318.2933333333334 238.7200000000001 318.2933333333334L128 271.36V170.6666666666667H170.6666666666667V243.6266666666667L208.8533333333333 258.56L174.72 85.3333333333334L70.1866666666666 106.6666666666667L61.6533333333333 64L210.9866666666666 34.5600000000001z" /></svg>