<?xml version="1.0" encoding="UTF-8"?><!DOCTYPE svg PUBLIC "-//W3C//DTD SVG 1.1//EN" "http://www.w3.org/Graphics/SVG/1.1/DTD/svg11.dtd"><svg xmlns="http://www.w3.org/2000/svg" xmlns:xlink="http://www.w3.org/1999/xlink" version="1.1" width="512" height="512" viewBox="0 0 512 512">    <path fill="#ffffff" transform="scale(1, -1) translate(0, -448)" glyph-name="page-previous-outline" unicode="&#xFB8F;" horiz-adv-x="512" d=" M42.6666666666667 384H405.3333333333333C428.8 384 448 364.8 448 341.3333333333334V256H405.3333333333333V341.3333333333334H42.6666666666667V42.6666666666667H405.3333333333333V128H448V42.6666666666667C448 19.2 428.8 0 405.3333333333333 0H42.6666666666667C19.2 0 0 19.2 0 42.6666666666667V341.3333333333334C0 364.8 19.2 384 42.6666666666667 384M362.6666666666667 128V170.6666666666667H512V213.3333333333334H362.6666666666667V256L277.3333333333333 192L362.6666666666667 128M85.3333333333333 170.6666666666667H234.6666666666667V213.3333333333334H85.3333333333333V170.6666666666667M85.3333333333333 256H234.6666666666667V298.6666666666667H85.3333333333333V256M85.3333333333333 85.3333333333334H170.6666666666667V128H85.3333333333333V85.3333333333334z" /></svg>