<?xml version="1.0" encoding="UTF-8"?><!DOCTYPE svg PUBLIC "-//W3C//DTD SVG 1.1//EN" "http://www.w3.org/Graphics/SVG/1.1/DTD/svg11.dtd"><svg xmlns="http://www.w3.org/2000/svg" xmlns:xlink="http://www.w3.org/1999/xlink" version="1.1" width="512" height="512" viewBox="0 0 512 512">    <path fill="#ffffff" transform="scale(1, -1) translate(0, -448)" glyph-name="account-multiple" unicode="&#xF00E;" horiz-adv-x="512" d=" M341.3333333333333 170.6666666666667C335.1466666666667 170.6666666666667 328.1066666666667 170.6666666666667 320.64 169.6C345.3866666666667 151.68 362.6666666666667 128 362.6666666666667 96V42.6666666666667H490.6666666666666V96C490.6666666666666 145.7066666666667 391.04 170.6666666666667 341.3333333333333 170.6666666666667M170.6666666666667 170.6666666666667C120.96 170.6666666666667 21.3333333333333 145.7066666666667 21.3333333333333 96V42.6666666666667H320V96C320 145.7066666666667 220.3733333333333 170.6666666666667 170.6666666666667 170.6666666666667M170.6666666666667 213.3333333333334C206.08 213.3333333333334 234.6666666666667 241.92 234.6666666666667 277.3333333333334S206.08 341.3333333333334 170.6666666666667 341.3333333333334S106.6666666666667 312.7466666666667 106.6666666666667 277.3333333333334S135.2533333333333 213.3333333333334 170.6666666666667 213.3333333333334M341.3333333333333 213.3333333333334C376.7466666666667 213.3333333333334 405.3333333333333 241.92 405.3333333333333 277.3333333333334S376.7466666666667 341.3333333333334 341.3333333333333 341.3333333333334S277.3333333333333 312.7466666666667 277.3333333333333 277.3333333333334S305.92 213.3333333333334 341.3333333333333 213.3333333333334z" /></svg>