<?xml version="1.0" encoding="UTF-8"?><!DOCTYPE svg PUBLIC "-//W3C//DTD SVG 1.1//EN" "http://www.w3.org/Graphics/SVG/1.1/DTD/svg11.dtd"><svg xmlns="http://www.w3.org/2000/svg" xmlns:xlink="http://www.w3.org/1999/xlink" version="1.1" width="512" height="512" viewBox="0 0 512 512">    <path fill="#ffffff" transform="scale(1, -1) translate(0, -448)" glyph-name="credit-card-multiple" unicode="&#xF19C;" horiz-adv-x="512" d=" M448 277.3333333333334V320H149.3333333333333V277.3333333333334H448M448 106.6666666666667V213.3333333333334H149.3333333333333V106.6666666666667H448M448 362.6666666666667C471.4666666666667 362.6666666666667 490.6666666666666 343.4666666666667 490.6666666666666 320V106.6666666666667C490.6666666666666 83.2 471.4666666666667 64 448 64H149.3333333333333C125.6533333333333 64 106.6666666666667 83.2 106.6666666666667 106.6666666666667V320C106.6666666666667 343.68 125.6533333333333 362.6666666666667 149.3333333333333 362.6666666666667H448M64 21.3333333333334H384V-21.3333333333333H64C40.5333333333333 -21.3333333333333 21.3333333333333 -2.1333333333333 21.3333333333333 21.3333333333334V256H64V21.3333333333334z" /></svg>