<?xml version="1.0" encoding="UTF-8"?><!DOCTYPE svg PUBLIC "-//W3C//DTD SVG 1.1//EN" "http://www.w3.org/Graphics/SVG/1.1/DTD/svg11.dtd"><svg xmlns="http://www.w3.org/2000/svg" xmlns:xlink="http://www.w3.org/1999/xlink" version="1.1" width="512" height="512" viewBox="0 0 512 512">    <path fill="#ffffff" transform="scale(1, -1) translate(0, -448)" glyph-name="white-balance-sunny" unicode="&#xF5A8;" horiz-adv-x="512" d=" M75.7333333333333 52.48L105.8133333333333 22.4L144.2133333333333 60.5866666666667L113.92 90.88M234.6666666666667 -30.9333333333333H277.3333333333333V32H234.6666666666667M256 330.6666666666667C185.3866666666667 330.6666666666667 128 273.2800000000001 128 202.6666666666667S185.3866666666667 74.6666666666667 256 74.6666666666667S384 132.0533333333334 384 202.6666666666667C384 273.4933333333334 326.6133333333334 330.6666666666667 256 330.6666666666667M426.6666666666667 181.3333333333334H490.6666666666666V224H426.6666666666667M367.7866666666667 60.5866666666667L406.1866666666667 22.4L436.2666666666667 52.48L398.0800000000001 90.8800000000001M436.2666666666667 352.8533333333334L406.1866666666667 382.9333333333334L367.7866666666667 344.7466666666667L398.0800000000001 314.4533333333334M277.3333333333333 436.2666666666667H234.6666666666667V373.3333333333334H277.3333333333333M85.3333333333333 224H21.3333333333333V181.3333333333334H85.3333333333333M144.2133333333333 344.7466666666667L105.8133333333333 382.9333333333334L75.7333333333333 352.8533333333334L113.92 314.4533333333334L144.2133333333333 344.7466666666667z" /></svg>