<?xml version="1.0" encoding="UTF-8"?><!DOCTYPE svg PUBLIC "-//W3C//DTD SVG 1.1//EN" "http://www.w3.org/Graphics/SVG/1.1/DTD/svg11.dtd"><svg xmlns="http://www.w3.org/2000/svg" xmlns:xlink="http://www.w3.org/1999/xlink" version="1.1" width="512" height="512" viewBox="0 0 512 512">    <path fill="#ffffff" transform="scale(1, -1) translate(0, -448)" glyph-name="worker" unicode="&#xF5B5;" horiz-adv-x="512" d=" M256 128C161.7066666666667 128 85.3333333333333 89.8133333333334 85.3333333333333 42.6666666666667V0H426.6666666666667V42.6666666666667C426.6666666666667 89.8133333333334 350.2933333333334 128 256 128M170.6666666666667 256C170.6666666666667 208.8533333333333 208.8533333333333 170.6666666666667 256 170.6666666666667S341.3333333333333 208.8533333333333 341.3333333333333 256M245.3333333333333 405.3333333333333C238.9333333333333 405.3333333333333 234.6666666666667 400.8533333333334 234.6666666666667 394.6666666666667V330.6666666666667H213.3333333333333V384S165.3333333333333 365.6533333333333 165.3333333333333 304C165.3333333333333 304 149.3333333333333 301.0133333333333 149.3333333333333 277.3333333333334H362.6666666666667C361.6 301.0133333333333 346.6666666666667 304 346.6666666666667 304C346.6666666666667 365.6533333333333 298.6666666666667 384 298.6666666666667 384V330.6666666666667H277.3333333333333V394.6666666666667C277.3333333333333 400.8533333333334 273.28 405.3333333333333 266.6666666666667 405.3333333333333H245.3333333333333z" /></svg>