<?xml version="1.0" encoding="UTF-8"?><!DOCTYPE svg PUBLIC "-//W3C//DTD SVG 1.1//EN" "http://www.w3.org/Graphics/SVG/1.1/DTD/svg11.dtd"><svg xmlns="http://www.w3.org/2000/svg" xmlns:xlink="http://www.w3.org/1999/xlink" version="1.1" width="512" height="512" viewBox="0 0 512 512">    <path fill="#ffffff" transform="scale(1, -1) translate(0, -448)" glyph-name="google-street-view" unicode="&#xFC64;" horiz-adv-x="512" d=" M254.9333333333333 250.24C297.8133333333333 250.24 332.5866666666667 285.0133333333333 332.5866666666667 327.8933333333334C332.5866666666667 370.5600000000001 297.8133333333334 405.3333333333334 254.9333333333333 405.3333333333334C212.0533333333333 405.3333333333334 177.4933333333334 370.5600000000001 177.4933333333334 327.8933333333334C177.4933333333334 285.0133333333334 212.0533333333334 250.24 254.9333333333333 250.24M199.68 171.3066666666667S176.4266666666667 107.9466666666667 169.8133333333333 96C167.4666666666667 91.52 167.8933333333333 90.24 162.1333333333333 90.24S147.4133333333333 96 147.4133333333333 96S143.1466666666666 98.7733333333333 144.8533333333333 103.68C149.9733333333333 119.4666666666667 173.2266666666666 211.6266666666666 178.1333333333333 229.3333333333334C183.4666666666666 248.32 197.9733333333333 247.68 197.9733333333333 247.68H211.84L256.64 169.8133333333333L301.6533333333333 247.68H318.2933333333333S324.9066666666666 246.8266666666667 329.8133333333333 241.0666666666667C334.9333333333333 235.3066666666667 335.9999999999999 225.28 335.9999999999999 225.28L365.6533333333333 110.08S367.7866666666667 101.9733333333333 367.1466666666666 99.6266666666667C366.2933333333333 95.9999999999999 364.3733333333333 95.9999999999999 364.3733333333333 95.9999999999999S356.0533333333333 93.4399999999999 351.36 91.9466666666666C342.8266666666667 89.1733333333333 341.3333333333333 97.2799999999999 341.3333333333333 97.2799999999999L313.5999999999999 169.8133333333333L310.3999999999999 -21.3333333333335H268.8L261.76 87.6799999999998S260.48 90.4533333333332 256.64 90.4533333333332C253.0133333333333 90.4533333333332 251.7333333333333 87.6799999999998 251.7333333333333 87.6799999999998L244.2666666666667 -21.3333333333333H202.6666666666667L199.8933333333333 171.3066666666667H199.68z" /></svg>