<?xml version="1.0" encoding="UTF-8"?><!DOCTYPE svg PUBLIC "-//W3C//DTD SVG 1.1//EN" "http://www.w3.org/Graphics/SVG/1.1/DTD/svg11.dtd"><svg xmlns="http://www.w3.org/2000/svg" xmlns:xlink="http://www.w3.org/1999/xlink" version="1.1" width="512" height="512" viewBox="0 0 512 512">    <path fill="#ffffff" transform="scale(1, -1) translate(0, -448)" glyph-name="shovel" unicode="&#xF70F;" horiz-adv-x="512" d=" M322.1333333333334 409.3866666666667L261.76 349.0133333333333C245.3333333333333 332.3733333333334 245.3333333333333 305.28 261.76 288.64L291.84 258.56L194.7733333333333 161.4933333333334L134.6133333333333 221.8666666666667L104.32 192C-1.28 85.3333333333334 74.6666666666667 10.6666666666667 74.6666666666667 10.6666666666667S149.3333333333333 -64 256 40.7466666666667L286.08 70.8266666666667L226.3466666666667 130.5600000000001L323.2 227.4133333333334L352.8533333333333 197.76C369.4933333333334 181.3333333333334 396.5866666666667 181.3333333333334 413.2266666666666 197.76L473.6 258.1333333333334L322.1333333333334 409.3866666666667M382.5066666666667 228.6933333333334L353.0666666666667 258.1333333333334L322.3466666666667 288.8533333333334L292.48 318.7200000000001L322.56 348.8L412.8 258.56L382.5066666666667 228.6933333333334z" /></svg>