<?xml version="1.0" encoding="UTF-8"?><!DOCTYPE svg PUBLIC "-//W3C//DTD SVG 1.1//EN" "http://www.w3.org/Graphics/SVG/1.1/DTD/svg11.dtd"><svg xmlns="http://www.w3.org/2000/svg" xmlns:xlink="http://www.w3.org/1999/xlink" version="1.1" width="512" height="512" viewBox="0 0 512 512">    <path fill="#ffffff" transform="scale(1, -1) translate(0, -448)" glyph-name="translate-off" unicode="&#xFE66;" horiz-adv-x="512" d=" M259.6266666666667 324.0533333333334C253.2266666666667 305.2800000000001 244.6933333333334 286.9333333333334 234.6666666666667 269.0133333333333L263.4666666666667 240.2133333333334C279.68 266.6666666666667 292.48 294.8266666666667 301.44 324.0533333333334H366.08V368H212.0533333333333V411.9466666666667H167.8933333333333V368H135.8933333333333L179.84 324.0533333333334H259.6266666666667M331.3066666666666 172.5866666666667L363.3066666666667 140.5866666666667L376.9600000000001 177.28L407.04 96.64L477.6533333333333 26.24L398.9333333333333 235.9466666666667H354.9866666666667L331.3066666666667 172.5866666666667M27.9466666666667 420.0533333333334L0 392.1066666666667L24.1066666666667 368H13.8666666666667V324.0533333333334H68.0533333333333L112.2133333333333 279.8933333333333H95.1466666666667C111.1466666666667 244.0533333333334 133.12 210.1333333333333 160.64 179.6266666666667L48.64 69.12L80 37.9733333333333L190.08 147.84L258.3466666666667 79.5733333333333L273.0666666666666 118.8266666666666L300.8 91.3066666666666L256 -27.9466666666667H299.9466666666667L324.6933333333334 37.9733333333333H354.1333333333334L456.1066666666666 -64L484.0533333333333 -36.0533333333333L27.9466666666667 420.0533333333334z" /></svg>