<?xml version="1.0" encoding="UTF-8"?><!DOCTYPE svg PUBLIC "-//W3C//DTD SVG 1.1//EN" "http://www.w3.org/Graphics/SVG/1.1/DTD/svg11.dtd"><svg xmlns="http://www.w3.org/2000/svg" xmlns:xlink="http://www.w3.org/1999/xlink" version="1.1" width="512" height="512" viewBox="0 0 512 512">    <path fill="#ffffff" transform="scale(1, -1) translate(0, -448)" glyph-name="discord" unicode="&#xF66F;" horiz-adv-x="512" d=" M469.3333333333333 -64L357.3333333333333 42.6666666666667L370.7733333333333 0H96C66.56 0 42.6666666666667 23.8933333333334 42.6666666666667 53.3333333333334V373.3333333333334C42.6666666666667 402.7733333333333 66.56 426.6666666666667 96 426.6666666666667H416C445.44 426.6666666666667 469.3333333333333 402.7733333333333 469.3333333333333 373.3333333333334V-64M256 302.9333333333334C198.8266666666667 302.9333333333334 158.72 278.4000000000001 158.72 278.4000000000001C180.6933333333333 298.0266666666667 219.0933333333333 309.3333333333334 219.0933333333333 309.3333333333334L215.4666666666667 312.9600000000001C179.4133333333333 312.3200000000001 146.7733333333333 287.36 146.7733333333333 287.36C110.08 210.7733333333334 112.4266666666666 144.6400000000001 112.4266666666666 144.6400000000001C142.2933333333333 106.0266666666668 186.6666666666666 108.8000000000001 186.6666666666666 108.8000000000001L201.8133333333333 128.0000000000001C175.1466666666666 133.7600000000001 158.2933333333333 157.4400000000001 158.2933333333333 157.4400000000001S198.4 130.1333333333333 256 130.1333333333333S353.7066666666666 157.44 353.7066666666666 157.44S336.8533333333333 133.76 310.1866666666666 128L325.3333333333333 108.8S369.7066666666666 106.0266666666666 399.5733333333333 144.64C399.5733333333333 144.64 401.92 210.7733333333333 365.2266666666667 287.36C365.2266666666667 287.36 332.5866666666667 312.32 296.5333333333333 312.9600000000001L292.9066666666667 309.3333333333334S331.3066666666667 298.0266666666667 353.2800000000001 278.4C353.2800000000001 278.4 313.1733333333334 302.9333333333334 256.0000000000001 302.9333333333334M211.8400000000001 222.08C225.7066666666668 222.08 237.0133333333334 209.92 236.8000000000001 194.9866666666667C236.8000000000001 180.2666666666667 225.7066666666668 167.8933333333334 211.8400000000001 167.8933333333334C198.1866666666667 167.8933333333334 187.0933333333334 180.2666666666667 187.0933333333334 194.9866666666667C187.0933333333334 209.92 197.9733333333334 222.08 211.8400000000001 222.08M300.8000000000001 222.08C314.6666666666668 222.08 325.7600000000001 209.92 325.7600000000001 194.9866666666667C325.7600000000001 180.2666666666667 314.6666666666668 167.8933333333334 300.8000000000001 167.8933333333334C287.1466666666667 167.8933333333334 276.0533333333334 180.2666666666667 276.0533333333334 194.9866666666667C276.0533333333334 209.92 286.9333333333334 222.08 300.8000000000001 222.08z" /></svg>