<?xml version="1.0" encoding="UTF-8"?><!DOCTYPE svg PUBLIC "-//W3C//DTD SVG 1.1//EN" "http://www.w3.org/Graphics/SVG/1.1/DTD/svg11.dtd"><svg xmlns="http://www.w3.org/2000/svg" xmlns:xlink="http://www.w3.org/1999/xlink" version="1.1" width="512" height="512" viewBox="0 0 512 512">    <path fill="#ffffff" transform="scale(1, -1) translate(0, -448)" glyph-name="panorama-wide-angle" unicode="&#xF3E0;" horiz-adv-x="512" d=" M256 362.6666666666667C197.76 362.6666666666667 144.64 357.5466666666667 86.4 347.3066666666667L66.56 343.8933333333333L61.2266666666667 324.6933333333334C48.8533333333333 280.5333333333334 42.6666666666667 236.1600000000001 42.6666666666667 192C42.6666666666667 147.84 48.8533333333333 103.4666666666667 61.2266666666667 59.3066666666667L66.56 40.3200000000001L86.4 36.9066666666667C144.64 26.4533333333334 197.76 21.3333333333334 256 21.3333333333334C314.24 21.3333333333334 367.36 26.4533333333333 425.6 36.6933333333333L445.44 40.1066666666667L450.7733333333333 59.0933333333334C463.1466666666666 103.4666666666667 469.3333333333333 147.84 469.3333333333333 192C469.3333333333333 236.1600000000001 463.1466666666666 280.5333333333334 450.7733333333333 324.6933333333334L445.44 343.68L425.6 347.0933333333334C367.36 357.5466666666667 314.24 362.6666666666667 256 362.6666666666667M256 320C308.2666666666667 320 356.48 315.7333333333334 411.52 306.3466666666667C421.5466666666666 268.3733333333334 426.6666666666667 229.9733333333334 426.6666666666667 192C426.6666666666667 154.0266666666667 421.5466666666667 115.6266666666667 411.52 77.6533333333334C356.48 68.2666666666667 308.2666666666667 64 256 64S155.52 68.2666666666667 100.48 77.6533333333334C90.4533333333333 115.6266666666667 85.3333333333333 154.0266666666667 85.3333333333333 192C85.3333333333333 229.9733333333334 90.4533333333333 268.3733333333334 100.48 306.3466666666667C155.52 315.7333333333334 203.7333333333334 320 256 320z" /></svg>