<?xml version="1.0" encoding="UTF-8"?><!DOCTYPE svg PUBLIC "-//W3C//DTD SVG 1.1//EN" "http://www.w3.org/Graphics/SVG/1.1/DTD/svg11.dtd"><svg xmlns="http://www.w3.org/2000/svg" xmlns:xlink="http://www.w3.org/1999/xlink" version="1.1" width="512" height="512" viewBox="0 0 512 512">    <path fill="#ffffff" transform="scale(1, -1) translate(0, -448)" glyph-name="traffic-light" unicode="&#xF52B;" horiz-adv-x="512" d=" M256 256C232.5333333333334 256 213.3333333333333 275.2000000000001 213.3333333333333 298.6666666666667C213.3333333333333 322.3466666666667 232.5333333333334 341.3333333333334 256 341.3333333333334C279.68 341.3333333333334 298.6666666666667 322.3466666666667 298.6666666666667 298.6666666666667C298.6666666666667 275.2000000000001 279.4666666666667 256 256 256M256 149.3333333333334C232.5333333333334 149.3333333333334 213.3333333333333 168.5333333333334 213.3333333333333 192C213.3333333333333 215.68 232.5333333333334 234.6666666666667 256 234.6666666666667C279.68 234.6666666666667 298.6666666666667 215.68 298.6666666666667 192C298.6666666666667 168.5333333333334 279.4666666666667 149.3333333333334 256 149.3333333333334M256 42.6666666666667C232.5333333333334 42.6666666666667 213.3333333333333 61.8666666666667 213.3333333333333 85.3333333333334C213.3333333333333 109.0133333333333 232.5333333333334 128 256 128C279.68 128 298.6666666666667 109.0133333333333 298.6666666666667 85.3333333333334C298.6666666666667 61.8666666666667 279.4666666666667 42.6666666666667 256 42.6666666666667M426.6666666666667 234.6666666666667H362.6666666666667V258.9866666666667C399.36 268.5866666666667 426.6666666666667 301.6533333333334 426.6666666666667 341.3333333333334H362.6666666666667V362.6666666666667C362.6666666666667 374.4 353.0666666666667 384 341.3333333333333 384H170.6666666666667C158.9333333333333 384 149.3333333333333 374.4 149.3333333333333 362.6666666666667V341.3333333333334H85.3333333333333C85.3333333333333 301.6533333333333 112.64 268.5866666666667 149.3333333333333 258.9866666666667V234.6666666666667H85.3333333333333C85.3333333333333 194.9866666666667 112.64 161.92 149.3333333333333 152.3200000000001V128H85.3333333333333C85.3333333333333 88.3200000000001 112.64 55.2533333333333 149.3333333333333 45.6533333333334V21.3333333333334C149.3333333333333 9.6 158.9333333333333 0 170.6666666666667 0H341.3333333333333C353.0666666666667 0 362.6666666666667 9.6 362.6666666666667 21.3333333333334V45.6533333333334C399.36 55.2533333333333 426.6666666666667 88.3200000000001 426.6666666666667 128H362.6666666666667V152.3200000000001C399.36 161.92 426.6666666666667 194.9866666666667 426.6666666666667 234.6666666666667z" /></svg>