<?xml version="1.0" encoding="UTF-8"?><!DOCTYPE svg PUBLIC "-//W3C//DTD SVG 1.1//EN" "http://www.w3.org/Graphics/SVG/1.1/DTD/svg11.dtd"><svg xmlns="http://www.w3.org/2000/svg" xmlns:xlink="http://www.w3.org/1999/xlink" version="1.1" width="512" height="512" viewBox="0 0 512 512">    <path fill="#ffffff" transform="scale(1, -1) translate(0, -448)" glyph-name="microphone-plus" unicode="&#xF8B3;" horiz-adv-x="512" d=" M192 405.3333333333333C227.4133333333334 405.3333333333333 256 376.7466666666667 256 341.3333333333334V213.3333333333334C256 177.92 227.4133333333334 149.3333333333334 192 149.3333333333334S128 177.92 128 213.3333333333334V341.3333333333334C128 376.7466666666667 156.5866666666667 405.3333333333333 192 405.3333333333333M341.3333333333333 213.3333333333334C341.3333333333333 138.6666666666667 286.72 76.16 213.3333333333333 65.4933333333333V0H170.6666666666667V65.4933333333333C97.28 76.16 42.6666666666667 138.6666666666667 42.6666666666667 213.3333333333334H85.3333333333333C85.3333333333333 154.4533333333334 133.12 106.6666666666667 192 106.6666666666667S298.6666666666667 154.4533333333334 298.6666666666667 213.3333333333334H341.3333333333333M320 341.3333333333334H384V405.3333333333333H426.6666666666667V341.3333333333334H490.6666666666666V298.6666666666667H426.6666666666667V234.6666666666667H384V298.6666666666667H320V341.3333333333334z" /></svg>