<?xml version="1.0" encoding="UTF-8"?><!DOCTYPE svg PUBLIC "-//W3C//DTD SVG 1.1//EN" "http://www.w3.org/Graphics/SVG/1.1/DTD/svg11.dtd"><svg xmlns="http://www.w3.org/2000/svg" xmlns:xlink="http://www.w3.org/1999/xlink" version="1.1" width="512" height="512" viewBox="0 0 512 512">    <path fill="#ffffff" transform="scale(1, -1) translate(0, -448)" glyph-name="comment-arrow-left" unicode="&#xF9E0;" horiz-adv-x="512" d=" M192 -21.3333333333333C180.2666666666667 -21.3333333333333 170.6666666666667 -11.7333333333333 170.6666666666667 0V64H85.3333333333333C61.8666666666667 64 42.6666666666667 83.2 42.6666666666667 106.6666666666667V362.6666666666667C42.6666666666667 386.3466666666667 61.8666666666667 405.3333333333333 85.3333333333333 405.3333333333333H426.6666666666667C450.3466666666667 405.3333333333333 469.3333333333333 386.1333333333334 469.3333333333333 362.6666666666667V106.6666666666667C469.3333333333333 82.9866666666667 450.3466666666667 64 426.6666666666667 64H296.5333333333333L217.6 -15.1466666666666C213.3333333333333 -19.2 208 -21.3333333333333 202.6666666666667 -21.3333333333333H192M344.9600000000001 210.7733333333334V254.9333333333334H245.9733333333334L284.3733333333334 293.3333333333333L257.92 320L170.6666666666667 232.7466666666667L257.92 145.7066666666667L284.3733333333334 172.3733333333333L245.9733333333333 210.7733333333334H344.9599999999999z" /></svg>