<?xml version="1.0" encoding="UTF-8"?><!DOCTYPE svg PUBLIC "-//W3C//DTD SVG 1.1//EN" "http://www.w3.org/Graphics/SVG/1.1/DTD/svg11.dtd"><svg xmlns="http://www.w3.org/2000/svg" xmlns:xlink="http://www.w3.org/1999/xlink" version="1.1" width="512" height="512" viewBox="0 0 512 512">    <path fill="#ffffff" transform="scale(1, -1) translate(0, -448)" glyph-name="ruler" unicode="&#xF46D;" horiz-adv-x="512" d=" M29.6533333333333 56.3200000000001L67.4133333333333 93.8666666666667L97.7066666666667 64L120.32 86.4L90.0266666666667 116.48L120.32 146.7733333333334L173.0133333333334 93.8666666666667L195.6266666666667 116.4800000000001L142.9333333333333 169.3866666666668L173.0133333333334 199.4666666666668L203.3066666666667 169.3866666666668L225.92 192L195.6266666666667 222.08L225.92 252.3733333333334L278.6133333333334 199.4666666666667L301.2266666666667 222.08L248.5333333333334 274.9866666666667L278.6133333333334 305.0666666666667L308.6933333333334 274.9866666666667L331.52 297.6L301.2266666666667 327.6800000000001L331.52 357.9733333333334L384 305.0666666666667L406.8266666666667 327.68L354.1333333333334 380.5866666666667L391.6800000000001 418.3466666666667L482.3466666666667 327.68L120.32 -34.3466666666666L29.6533333333333 56.3200000000001z" /></svg>