<?xml version="1.0" encoding="UTF-8"?><!DOCTYPE svg PUBLIC "-//W3C//DTD SVG 1.1//EN" "http://www.w3.org/Graphics/SVG/1.1/DTD/svg11.dtd"><svg xmlns="http://www.w3.org/2000/svg" xmlns:xlink="http://www.w3.org/1999/xlink" version="1.1" width="512" height="512" viewBox="0 0 512 512">    <path fill="#ffffff" transform="scale(1, -1) translate(0, -448)" glyph-name="poker-chip" unicode="&#xF82F;" horiz-adv-x="512" d=" M490.6666666666666 192C490.6666666666666 62.2933333333334 385.7066666666666 -42.6666666666666 256 -42.6666666666666S21.3333333333333 62.2933333333334 21.3333333333333 192S126.2933333333333 426.6666666666667 256 426.6666666666667S490.6666666666666 321.7066666666667 490.6666666666666 192M277.3333333333333 361.3866666666667C322.7733333333333 355.6266666666667 364.16 331.7333333333334 391.8933333333333 295.2533333333334L429.0133333333333 316.5866666666667C393.6 366.5066666666667 338.3466666666667 398.9333333333334 277.3333333333333 405.3333333333333V361.3866666666667M82.9866666666667 316.5866666666667L120.1066666666667 295.2533333333334C147.84 331.7333333333334 189.2266666666667 355.6266666666667 234.6666666666667 361.3866666666667V405.3333333333333C173.6533333333333 398.9333333333334 118.4 366.5066666666667 82.9866666666667 316.5866666666667M61.6533333333333 104.5333333333333L98.56 125.8666666666667C80.8533333333333 168.1066666666667 80.8533333333333 215.8933333333333 98.56 258.1333333333334L61.6533333333333 279.4666666666667C36.2666666666667 224 36.2666666666667 160 61.6533333333333 104.5333333333333M234.6666666666667 22.6133333333333C189.2266666666667 28.3733333333333 147.84 52.2666666666667 120.1066666666667 88.7466666666667L82.9866666666667 67.4133333333334C118.4 17.4933333333333 173.6533333333333 -14.9333333333333 234.6666666666667 -21.3333333333333V22.6133333333333M429.0133333333333 67.4133333333334L391.8933333333333 88.7466666666667C364.16 52.2666666666667 322.7733333333333 28.3733333333333 277.3333333333333 22.6133333333333V-20.0533333333333C338.1333333333334 -13.8666666666667 393.3866666666667 17.92 429.0133333333333 67.4133333333333M450.3466666666667 104.5333333333333C475.7333333333333 159.9999999999999 475.7333333333333 223.9999999999999 450.3466666666667 279.4666666666666L413.44 258.1333333333332C431.1466666666666 215.8933333333332 431.1466666666666 168.1066666666666 413.44 125.8666666666666L450.3466666666667 104.5333333333333M320 192L256 298.6666666666667L192 192L256 85.3333333333334L320 192z" /></svg>