<?xml version="1.0" encoding="UTF-8"?><!DOCTYPE svg PUBLIC "-//W3C//DTD SVG 1.1//EN" "http://www.w3.org/Graphics/SVG/1.1/DTD/svg11.dtd"><svg xmlns="http://www.w3.org/2000/svg" xmlns:xlink="http://www.w3.org/1999/xlink" version="1.1" width="512" height="512" viewBox="0 0 512 512">    <path fill="#ffffff" transform="scale(1, -1) translate(0, -448)" glyph-name="duck" unicode="&#xF1E5;" horiz-adv-x="512" d=" M181.3333333333333 341.3333333333334C163.6266666666667 341.3333333333334 149.3333333333333 327.04 149.3333333333333 309.3333333333334S163.6266666666667 277.3333333333334 181.3333333333333 277.3333333333334S213.3333333333333 291.6266666666667 213.3333333333333 309.3333333333334S199.04 341.3333333333334 181.3333333333333 341.3333333333334M213.3333333333333 405.3333333333333C272.2133333333333 405.3333333333333 320 357.5466666666667 320 298.6666666666667C320 262.4000000000001 301.8666666666667 230.4000000000001 274.3466666666667 211.2C308.0533333333333 208 346.0266666666667 200.32 384 181.3333333333334C448 149.3333333333334 469.3333333333333 192 469.3333333333333 192S448 0 320 0H192S85.3333333333333 0 85.3333333333333 106.6666666666667C85.3333333333333 170.6666666666667 149.3333333333333 192 128 234.6666666666667C42.6666666666667 234.6666666666667 42.6666666666667 309.3333333333334 42.6666666666667 309.3333333333334C64 298.6666666666667 90.4533333333333 298.6666666666667 106.6666666666667 306.1333333333334C110.72 361.6 157.0133333333333 405.3333333333333 213.3333333333333 405.3333333333333z" /></svg>