<?xml version="1.0" encoding="UTF-8"?><!DOCTYPE svg PUBLIC "-//W3C//DTD SVG 1.1//EN" "http://www.w3.org/Graphics/SVG/1.1/DTD/svg11.dtd"><svg xmlns="http://www.w3.org/2000/svg" xmlns:xlink="http://www.w3.org/1999/xlink" version="1.1" width="512" height="512" viewBox="0 0 512 512">    <path fill="#ffffff" transform="scale(1, -1) translate(0, -448)" glyph-name="signal-5g" unicode="&#xFA6E;" horiz-adv-x="512" d=" M469.3333333333333 96V224H373.3333333333333V160H405.3333333333333V96H341.3333333333333V288H469.3333333333333V352H341.3333333333333C305.92 352 277.3333333333333 323.4133333333334 277.3333333333333 288V96C277.3333333333333 60.5866666666667 305.92 32 341.3333333333333 32H405.3333333333333C440.7466666666667 32 469.3333333333333 60.5866666666667 469.3333333333333 96M213.3333333333333 352H64V160H149.3333333333333V96H64V32H181.3333333333333C199.04 32 213.3333333333333 46.2933333333334 213.3333333333333 64V192C213.3333333333333 209.7066666666667 199.04 224 181.3333333333333 224H128V288H213.3333333333333V352z" /></svg>