<?xml version="1.0" encoding="UTF-8"?><!DOCTYPE svg PUBLIC "-//W3C//DTD SVG 1.1//EN" "http://www.w3.org/Graphics/SVG/1.1/DTD/svg11.dtd"><svg xmlns="http://www.w3.org/2000/svg" xmlns:xlink="http://www.w3.org/1999/xlink" version="1.1" width="512" height="512" viewBox="0 0 512 512">    <path fill="#ffffff" transform="scale(1, -1) translate(0, -448)" glyph-name="ipod" unicode="&#xFC6D;" horiz-adv-x="512" d=" M149.3333333333333 405.3333333333333C125.8666666666667 405.3333333333333 106.6666666666667 386.1333333333334 106.6666666666667 362.6666666666667V21.3333333333334C106.6666666666667 -2.1333333333333 125.8666666666667 -21.3333333333333 149.3333333333333 -21.3333333333333H362.6666666666667C386.1333333333334 -21.3333333333333 405.3333333333333 -2.1333333333333 405.3333333333333 21.3333333333334V362.6666666666667C405.3333333333333 386.1333333333334 386.1333333333334 405.3333333333333 362.6666666666667 405.3333333333333H149.3333333333333M149.3333333333333 362.6666666666667H362.6666666666667V234.6666666666667H149.3333333333333V362.6666666666667M256 192C303.1466666666667 192 341.3333333333333 153.8133333333334 341.3333333333333 106.6666666666667S303.1466666666667 21.3333333333334 256 21.3333333333334S170.6666666666667 59.52 170.6666666666667 106.6666666666667S208.8533333333333 192 256 192M256 149.3333333333334C232.5333333333334 149.3333333333334 213.3333333333333 130.1333333333333 213.3333333333333 106.6666666666667S232.5333333333334 64 256 64S298.6666666666667 83.2 298.6666666666667 106.6666666666667S279.4666666666667 149.3333333333334 256 149.3333333333334z" /></svg>