<?xml version="1.0" encoding="UTF-8"?><!DOCTYPE svg PUBLIC "-//W3C//DTD SVG 1.1//EN" "http://www.w3.org/Graphics/SVG/1.1/DTD/svg11.dtd"><svg xmlns="http://www.w3.org/2000/svg" xmlns:xlink="http://www.w3.org/1999/xlink" version="1.1" width="512" height="512" viewBox="0 0 512 512">    <path fill="#ffffff" transform="scale(1, -1) translate(0, -448)" glyph-name="shredder" unicode="&#xF49C;" horiz-adv-x="512" d=" M128 384V298.6666666666667H170.6666666666667V341.3333333333334H341.3333333333333V298.6666666666667H384V384H128M106.6666666666667 277.3333333333334C71.2533333333333 277.3333333333334 42.6666666666667 248.7466666666667 42.6666666666667 213.3333333333334V85.3333333333334H106.6666666666667V149.3333333333334H405.3333333333333V85.3333333333334H469.3333333333333V213.3333333333334C469.3333333333333 248.7466666666667 440.7466666666667 277.3333333333334 405.3333333333333 277.3333333333334H106.6666666666667M384 234.6666666666667C395.7333333333334 234.6666666666667 405.3333333333333 225.0666666666667 405.3333333333333 213.3333333333334S395.7333333333334 192 384 192S362.6666666666667 201.6 362.6666666666667 213.3333333333334S372.2666666666667 234.6666666666667 384 234.6666666666667M149.3333333333333 106.6666666666667V0H192V106.6666666666667H149.3333333333333M234.6666666666667 106.6666666666667V21.3333333333334H277.3333333333333V106.6666666666667H234.6666666666667M320 106.6666666666667V0H362.6666666666667V106.6666666666667H320z" /></svg>