<?xml version="1.0" encoding="UTF-8"?><!DOCTYPE svg PUBLIC "-//W3C//DTD SVG 1.1//EN" "http://www.w3.org/Graphics/SVG/1.1/DTD/svg11.dtd"><svg xmlns="http://www.w3.org/2000/svg" xmlns:xlink="http://www.w3.org/1999/xlink" version="1.1" width="512" height="512" viewBox="0 0 512 512">    <path fill="#ffffff" transform="scale(1, -1) translate(0, -448)" glyph-name="gate-xor" unicode="&#xF8E6;" horiz-adv-x="512" d=" M42.6666666666667 362.6666666666667C106.6666666666667 234.6666666666667 106.6666666666667 149.3333333333334 42.6666666666667 21.3333333333334H85.3333333333333C149.3333333333333 149.3333333333334 149.3333333333333 234.6666666666667 87.4666666666667 362.6666666666667H42.6666666666667M128 362.6666666666667C192 234.6666666666667 192 149.3333333333334 128 21.3333333333334H192C298.6666666666667 21.3333333333334 384 85.3333333333334 469.3333333333333 192C384 298.6666666666667 298.6666666666667 362.6666666666667 192 362.6666666666667H128M192 320C273.0666666666667 320 341.3333333333333 275.2000000000001 411.7333333333334 192C339.2 108.8 273.0666666666667 64 192 64C224 149.3333333333334 224 234.6666666666667 192 320z" /></svg>