<?xml version="1.0" encoding="UTF-8"?><!DOCTYPE svg PUBLIC "-//W3C//DTD SVG 1.1//EN" "http://www.w3.org/Graphics/SVG/1.1/DTD/svg11.dtd"><svg xmlns="http://www.w3.org/2000/svg" xmlns:xlink="http://www.w3.org/1999/xlink" version="1.1" width="512" height="512" viewBox="0 0 512 512">    <path fill="#ffffff" transform="scale(1, -1) translate(0, -448)" glyph-name="salesforce" unicode="&#xF88D;" horiz-adv-x="512" d=" M392.1066666666667 312.1066666666667C377.1733333333333 312.1066666666667 364.16 307.6266666666667 351.36 303.36C336.4266666666666 329.1733333333334 308.48 346.24 278.4 346.24C254.9333333333333 346.24 233.6 335.5733333333333 218.4533333333333 320.64C201.3866666666666 341.9733333333334 175.5733333333333 357.12 145.7066666666666 357.12C96 357.12 53.3333333333333 316.3733333333334 53.3333333333333 266.6666666666667C53.3333333333333 254.08 57.8133333333333 241.2800000000001 62.08 228.48C38.4 215.4666666666667 21.3333333333333 189.8666666666667 21.3333333333333 160C21.3333333333333 117.3333333333334 55.68 80.64 98.56 80.64C104.96 80.64 111.36 80.64 115.6266666666667 82.7733333333334C124.16 50.5600000000001 156.3733333333333 26.8800000000001 194.9866666666667 26.8800000000001C231.2533333333334 26.8800000000001 261.3333333333333 48.4266666666667 272 78.5066666666667C282.88 74.0266666666666 293.5466666666666 69.76 304.2133333333333 69.76C332.16 69.76 357.76 85.3333333333334 370.56 108.3733333333333C377.1733333333333 106.6666666666667 384 106.6666666666667 389.9733333333334 106.6666666666667C445.6533333333333 106.6666666666667 490.6666666666666 151.2533333333333 490.6666666666666 209.0666666666667C492.8 266.6666666666667 448 312.1066666666667 392.1066666666667 312.1066666666667z" /></svg>