<?xml version="1.0" encoding="UTF-8"?><!DOCTYPE svg PUBLIC "-//W3C//DTD SVG 1.1//EN" "http://www.w3.org/Graphics/SVG/1.1/DTD/svg11.dtd"><svg xmlns="http://www.w3.org/2000/svg" xmlns:xlink="http://www.w3.org/1999/xlink" version="1.1" width="512" height="512" viewBox="0 0 512 512">    <path fill="#ffffff" transform="scale(1, -1) translate(0, -448)" glyph-name="selection-ellipse" unicode="&#xFD0E;" horiz-adv-x="512" d=" M135.4666666666667 16L161.28 49.92C179.6266666666667 37.76 200.32 29.0133333333333 222.5066666666667 24.5333333333333L216.7466666666667 -17.7066666666667C187.0933333333333 -12.16 160 -1e-13 135.4666666666667 16M350.5066666666667 49.92L376.32 15.7866666666666C352 -0.64 324.9066666666667 -12.16 295.2533333333334 -17.7066666666667L289.4933333333334 24.5333333333333C311.68 29.0133333333333 332.16 37.76 350.5066666666667 49.92M423.2533333333334 158.0800000000001L465.7066666666666 152.3200000000001C460.1599999999999 122.6666666666667 448 95.1466666666667 431.7866666666667 71.2533333333333L397.8666666666666 97.0666666666667C410.0266666666667 115.2000000000001 418.7733333333333 135.8933333333334 423.2533333333334 158.0800000000001M46.2933333333333 152.7466666666667L88.5333333333333 158.5066666666667C93.0133333333333 136.3200000000001 101.76 115.6266666666667 113.92 97.28L80 71.4666666666666C64 96 51.84 123.0933333333334 46.2933333333333 152.7466666666667M398.08 286.7200000000001L431.9999999999999 312.5333333333334C448.64 288 460.3733333333333 260.6933333333334 465.7066666666666 230.8266666666667L423.4666666666666 225.0666666666667C418.9866666666666 247.4666666666667 410.2399999999999 268.3733333333334 398.08 286.7200000000001M289.4933333333333 359.4666666666667L295.2533333333332 401.7066666666667C324.9066666666666 396.1600000000001 351.9999999999999 384 376.5333333333332 368L350.7199999999999 334.0800000000001C332.3733333333332 346.24 311.6799999999999 354.9866666666667 289.4933333333332 359.4666666666667M161.28 334.0800000000001L135.4666666666667 368C160 384 187.0933333333333 396.16 216.7466666666667 401.7066666666667L222.5066666666667 359.4666666666667C200.32 354.9866666666667 179.6266666666667 346.24 161.28 334.0800000000001M88.5333333333333 225.4933333333334L46.2933333333333 231.2533333333334C51.84 260.9066666666667 64 288 80 312.5333333333334L113.92 286.7200000000001C101.76 268.3733333333334 93.0133333333333 247.68 88.5333333333333 225.4933333333334z" /></svg>