<?xml version="1.0" encoding="UTF-8"?><!DOCTYPE svg PUBLIC "-//W3C//DTD SVG 1.1//EN" "http://www.w3.org/Graphics/SVG/1.1/DTD/svg11.dtd"><svg xmlns="http://www.w3.org/2000/svg" xmlns:xlink="http://www.w3.org/1999/xlink" version="1.1" width="512" height="512" viewBox="0 0 512 512">    <path fill="#ffffff" transform="scale(1, -1) translate(0, -448)" glyph-name="format-textbox" unicode="&#xFCED;" horiz-adv-x="512" d=" M448 298.6666666666667V384H362.6666666666667V362.6666666666667H149.3333333333333V384H64V298.6666666666667H85.3333333333333V85.3333333333334H64V0H149.3333333333333V21.3333333333334H362.6666666666667V0H448V85.3333333333334H426.6666666666667V298.6666666666667H448M384 362.6666666666667H426.6666666666667V320H384V362.6666666666667M85.3333333333333 362.6666666666667H128V320H85.3333333333333V362.6666666666667M128 21.3333333333334H85.3333333333333V64H128V21.3333333333334M426.6666666666667 21.3333333333334H384V64H426.6666666666667V21.3333333333334M384 85.3333333333334H362.6666666666667V64H149.3333333333333V85.3333333333334H128V298.6666666666667H149.3333333333333V320H362.6666666666667V298.6666666666667H384V85.3333333333334M341.3333333333333 277.3333333333334V234.6666666666667H277.3333333333333V106.6666666666667H234.6666666666667V234.6666666666667H170.6666666666667V277.3333333333334H341.3333333333333z" /></svg>