<?xml version="1.0" encoding="UTF-8"?><!DOCTYPE svg PUBLIC "-//W3C//DTD SVG 1.1//EN" "http://www.w3.org/Graphics/SVG/1.1/DTD/svg11.dtd"><svg xmlns="http://www.w3.org/2000/svg" xmlns:xlink="http://www.w3.org/1999/xlink" version="1.1" width="512" height="512" viewBox="0 0 512 512">    <path fill="#ffffff" transform="scale(1, -1) translate(0, -448)" glyph-name="soundcloud" unicode="&#xF4C0;" horiz-adv-x="512" d=" M246.6133333333334 258.7733333333334V85.3333333333334H433.4933333333334C472.96 88.1066666666667 490.6666666666666 112.4266666666667 490.6666666666666 142.2933333333334C490.6666666666666 173.8666666666667 466.7733333333333 199.2533333333333 434.7733333333333 199.2533333333333C426.6666666666667 199.2533333333333 419.84 197.5466666666667 412.8 194.56C407.68 244.48 365.2266666666666 283.52 312.9599999999999 283.52C288 283.52 264.32 274.1333333333334 246.6133333333333 258.7733333333333M227.84 237.0133333333333C221.44 240.8533333333333 214.6133333333333 243.84 207.1466666666666 245.3333333333334V85.3333333333334H236.8V248.7466666666667C233.6 245.3333333333334 230.6133333333333 241.0666666666667 227.84 237.0133333333333M177.7066666666666 248.5333333333333V85.3333333333334H197.3333333333333V247.8933333333333C193.28 248.5333333333333 189.2266666666666 248.7466666666667 184.96 248.7466666666667C182.4 248.7466666666667 180.0533333333333 248.7466666666667 177.7066666666666 248.5333333333333M138.6666666666667 234.6666666666667V85.3333333333334H158.08V244.48C151.04 242.1333333333334 144.4266666666667 238.7200000000001 138.6666666666667 234.6666666666667M103.04 181.3333333333334C101.76 181.3333333333334 100.48 182.6133333333334 98.9866666666667 183.2533333333333V85.3333333333334H118.6133333333333V216.32C110.72 206.08 105.3866666666667 193.92 103.04 181.3333333333334M59.52 187.3066666666667V87.2533333333333C64 85.9733333333334 69.12 85.3333333333334 74.6666666666667 85.3333333333334H79.36V189.0133333333333C77.6533333333333 189.2266666666667 75.9466666666667 189.44 74.6666666666667 189.44C69.12 189.44 64 188.5866666666667 59.52 187.3066666666667M21.3333333333333 137.3866666666667C21.3333333333333 121.3866666666667 28.5866666666667 107.3066666666667 39.8933333333333 97.7066666666667V176.8533333333334C28.5866666666667 167.4666666666667 21.3333333333333 153.1733333333334 21.3333333333333 137.3866666666667z" /></svg>