<?xml version="1.0" encoding="UTF-8"?><!DOCTYPE svg PUBLIC "-//W3C//DTD SVG 1.1//EN" "http://www.w3.org/Graphics/SVG/1.1/DTD/svg11.dtd"><svg xmlns="http://www.w3.org/2000/svg" xmlns:xlink="http://www.w3.org/1999/xlink" version="1.1" width="512" height="512" viewBox="0 0 512 512">    <path fill="#ffffff" transform="scale(1, -1) translate(0, -448)" glyph-name="calculator" unicode="&#xF0EC;" horiz-adv-x="512" d=" M149.3333333333333 405.3333333333333H362.6666666666667C386.1333333333334 405.3333333333333 405.3333333333333 386.1333333333334 405.3333333333333 362.6666666666667V21.3333333333334C405.3333333333333 -2.1333333333333 386.1333333333334 -21.3333333333333 362.6666666666667 -21.3333333333333H149.3333333333333C125.8666666666667 -21.3333333333333 106.6666666666667 -2.1333333333333 106.6666666666667 21.3333333333334V362.6666666666667C106.6666666666667 386.1333333333334 125.8666666666667 405.3333333333333 149.3333333333333 405.3333333333333M149.3333333333333 362.6666666666667V277.3333333333334H362.6666666666667V362.6666666666667H149.3333333333333M149.3333333333333 234.6666666666667V192H192V234.6666666666667H149.3333333333333M234.6666666666667 234.6666666666667V192H277.3333333333333V234.6666666666667H234.6666666666667M320 234.6666666666667V192H362.6666666666667V234.6666666666667H320M149.3333333333333 149.3333333333334V106.6666666666667H192V149.3333333333334H149.3333333333333M234.6666666666667 149.3333333333334V106.6666666666667H277.3333333333333V149.3333333333334H234.6666666666667M320 149.3333333333334V106.6666666666667H362.6666666666667V149.3333333333334H320M149.3333333333333 64V21.3333333333334H192V64H149.3333333333333M234.6666666666667 64V21.3333333333334H277.3333333333333V64H234.6666666666667M320 64V21.3333333333334H362.6666666666667V64H320z" /></svg>