<?xml version="1.0" encoding="UTF-8"?><!DOCTYPE svg PUBLIC "-//W3C//DTD SVG 1.1//EN" "http://www.w3.org/Graphics/SVG/1.1/DTD/svg11.dtd"><svg xmlns="http://www.w3.org/2000/svg" xmlns:xlink="http://www.w3.org/1999/xlink" version="1.1" width="512" height="512" viewBox="0 0 512 512">    <path fill="#ffffff" transform="scale(1, -1) translate(0, -448)" glyph-name="keyboard-settings" unicode="&#xF9F8;" horiz-adv-x="512" d=" M405.3333333333333 234.6666666666667H362.6666666666667V277.3333333333334H405.3333333333333M405.3333333333333 170.6666666666667H362.6666666666667V213.3333333333334H405.3333333333333M341.3333333333333 234.6666666666667H298.6666666666667V277.3333333333334H341.3333333333333M341.3333333333333 170.6666666666667H298.6666666666667V213.3333333333334H341.3333333333333M341.3333333333333 85.3333333333334H170.6666666666667V128H341.3333333333333M149.3333333333333 234.6666666666667H106.6666666666667V277.3333333333334H149.3333333333333M149.3333333333333 170.6666666666667H106.6666666666667V213.3333333333334H149.3333333333333M170.6666666666667 213.3333333333334H213.3333333333333V170.6666666666667H170.6666666666667M170.6666666666667 277.3333333333334H213.3333333333333V234.6666666666667H170.6666666666667M234.6666666666667 213.3333333333334H277.3333333333333V170.6666666666667H234.6666666666667M234.6666666666667 277.3333333333334H277.3333333333333V234.6666666666667H234.6666666666667M426.6666666666667 341.3333333333334H85.3333333333333C61.8666666666667 341.3333333333334 42.6666666666667 322.1333333333334 42.6666666666667 298.6666666666667V85.3333333333334C42.6666666666667 61.8666666666667 61.8666666666667 42.6666666666667 85.3333333333333 42.6666666666667H426.6666666666667C450.1333333333334 42.6666666666667 469.3333333333333 61.8666666666667 469.3333333333333 85.3333333333334V298.6666666666667C469.3333333333333 322.1333333333334 450.1333333333334 341.3333333333334 426.6666666666667 341.3333333333334M149.3333333333333 -21.3333333333333H192V-64H149.3333333333333V-21.3333333333333M234.6666666666667 -21.3333333333333H277.3333333333333V-64H234.6666666666667V-21.3333333333333M320 -21.3333333333333H362.6666666666667V-64H320V-21.3333333333333z" /></svg>