<?xml version="1.0" encoding="UTF-8"?><!DOCTYPE svg PUBLIC "-//W3C//DTD SVG 1.1//EN" "http://www.w3.org/Graphics/SVG/1.1/DTD/svg11.dtd"><svg xmlns="http://www.w3.org/2000/svg" xmlns:xlink="http://www.w3.org/1999/xlink" version="1.1" width="512" height="512" viewBox="0 0 512 512">    <path fill="#ffffff" transform="scale(1, -1) translate(0, -448)" glyph-name="thermometer-plus" unicode="&#xFE65;" horiz-adv-x="512" d=" M277.3333333333333 85.3333333333334C277.3333333333333 26.4533333333334 229.5466666666667 -21.3333333333333 170.6666666666667 -21.3333333333333S64 26.4533333333334 64 85.3333333333334C64 118.8266666666667 79.7866666666667 150.6133333333334 106.6666666666667 170.6666666666667V341.3333333333334C106.6666666666667 376.7466666666667 135.2533333333333 405.3333333333333 170.6666666666667 405.3333333333333S234.6666666666667 376.7466666666667 234.6666666666667 341.3333333333334V170.6666666666667C261.5466666666666 150.6133333333334 277.3333333333333 118.8266666666667 277.3333333333333 85.3333333333334M149.3333333333333 277.3333333333334V145.7066666666667C116.0533333333333 133.9733333333334 98.56 97.28 110.2933333333333 64C122.0266666666667 30.72 158.72 13.2266666666667 192 24.96C225.28 36.9066666666667 242.7733333333333 73.3866666666667 231.04 106.6666666666667C224.64 125.0133333333334 210.1333333333333 139.3066666666667 192 145.7066666666667V277.3333333333334H149.3333333333333M405.3333333333333 213.3333333333334V277.3333333333334H362.6666666666667V213.3333333333334H298.6666666666667V170.6666666666667H362.6666666666667V106.6666666666667H405.3333333333333V170.6666666666667H469.3333333333333V213.3333333333334" /></svg>