<?xml version="1.0" encoding="UTF-8"?><!DOCTYPE svg PUBLIC "-//W3C//DTD SVG 1.1//EN" "http://www.w3.org/Graphics/SVG/1.1/DTD/svg11.dtd"><svg xmlns="http://www.w3.org/2000/svg" xmlns:xlink="http://www.w3.org/1999/xlink" version="1.1" width="512" height="512" viewBox="0 0 512 512">    <path fill="#ffffff" transform="scale(1, -1) translate(0, -448)" glyph-name="circle-slice-8" unicode="&#xFAA4;" horiz-adv-x="512" d=" M256 405.3333333333333C373.76 405.3333333333333 469.3333333333333 309.76 469.3333333333333 192S373.76 -21.3333333333333 256 -21.3333333333333S42.6666666666667 74.24 42.6666666666667 192S138.24 405.3333333333333 256 405.3333333333333M256 362.6666666666667C161.7066666666667 362.6666666666667 85.3333333333333 286.2933333333334 85.3333333333333 192S161.7066666666667 21.3333333333334 256 21.3333333333334S426.6666666666667 97.7066666666667 426.6666666666667 192S350.2933333333334 362.6666666666667 256 362.6666666666667M256 42.6666666666667C215.4666666666667 42.6666666666667 177.0666666666667 59.7333333333334 151.4666666666667 87.4666666666667C125.8666666666667 115.2000000000001 106.6666666666667 151.4666666666667 106.6666666666667 192C106.6666666666667 232.5333333333334 123.7333333333333 270.9333333333334 151.4666666666667 296.5333333333334C179.2 322.1333333333334 215.4666666666667 341.3333333333334 256 341.3333333333334C296.5333333333333 341.3333333333334 334.9333333333333 324.2666666666667 360.5333333333333 296.5333333333334C386.1333333333333 268.8 405.3333333333333 232.5333333333334 405.3333333333333 192C405.3333333333333 151.4666666666667 388.2666666666667 113.0666666666667 360.5333333333333 87.4666666666667C332.8 61.8666666666667 296.5333333333333 42.6666666666667 256 42.6666666666667z" /></svg>