<?xml version="1.0" encoding="UTF-8"?><!DOCTYPE svg PUBLIC "-//W3C//DTD SVG 1.1//EN" "http://www.w3.org/Graphics/SVG/1.1/DTD/svg11.dtd"><svg xmlns="http://www.w3.org/2000/svg" xmlns:xlink="http://www.w3.org/1999/xlink" version="1.1" width="512" height="512" viewBox="0 0 512 512">    <path fill="#ffffff" transform="scale(1, -1) translate(0, -448)" glyph-name="close-network-outline" unicode="&#xFC3B;" horiz-adv-x="512" d=" M320 21.3333333333334C320 33.0666666666667 310.4 42.6666666666667 298.6666666666667 42.6666666666667H277.3333333333333V85.3333333333334H362.6666666666667C386.1333333333334 85.3333333333334 405.3333333333333 104.5333333333333 405.3333333333333 128V341.3333333333334C405.3333333333333 364.8 386.1333333333334 384 362.6666666666667 384H149.3333333333333C125.8666666666667 384 106.6666666666667 364.8 106.6666666666667 341.3333333333334V128C106.6666666666667 104.5333333333333 125.8666666666667 85.3333333333334 149.3333333333333 85.3333333333334H234.6666666666667V42.6666666666667H213.3333333333333C201.6 42.6666666666667 192 33.0666666666667 192 21.3333333333334H42.6666666666667V-21.3333333333333H192C192 -33.0666666666667 201.6 -42.6666666666666 213.3333333333333 -42.6666666666666H298.6666666666667C310.4 -42.6666666666666 320 -33.0666666666667 320 -21.3333333333333H469.3333333333333V21.3333333333334H320M149.3333333333333 128V341.3333333333334H362.6666666666667V128H149.3333333333333M331.52 189.44L286.08 234.6666666666667L331.3066666666667 280.1066666666667L301.2266666666667 310.1866666666667L256 264.7466666666667L210.7733333333334 310.1866666666667L180.6933333333333 280.1066666666667L225.92 234.6666666666667L180.6933333333333 189.2266666666667L210.7733333333333 159.1466666666667L256 204.5866666666667L301.2266666666667 159.1466666666667L331.52 189.4400000000001z" /></svg>