<?xml version="1.0" encoding="UTF-8"?><!DOCTYPE svg PUBLIC "-//W3C//DTD SVG 1.1//EN" "http://www.w3.org/Graphics/SVG/1.1/DTD/svg11.dtd"><svg xmlns="http://www.w3.org/2000/svg" xmlns:xlink="http://www.w3.org/1999/xlink" version="1.1" width="512" height="512" viewBox="0 0 512 512">    <path fill="#ffffff" transform="scale(1, -1) translate(0, -448)" glyph-name="eye-off" unicode="&#xF209;" horiz-adv-x="512" d=" M252.3733333333334 256L320 188.5866666666667V192C320 227.4133333333334 291.4133333333333 256 256 256H252.3733333333334M160.64 238.9333333333334L193.7066666666667 205.8666666666667C192.64 201.3866666666666 192 196.9066666666667 192 192C192 156.5866666666667 220.5866666666667 128 256 128C260.6933333333334 128 265.3866666666667 128.64 269.8666666666667 129.7066666666667L302.9333333333334 96.64C288.64 89.6 272.8533333333334 85.3333333333333 256 85.3333333333333C197.12 85.3333333333333 149.3333333333333 133.12 149.3333333333333 192C149.3333333333333 208.8533333333333 153.6 224.6399999999999 160.64 238.9333333333333M42.6666666666667 356.9066666666667L91.3066666666666 308.2666666666667L100.9066666666667 298.6666666666667C65.7066666666667 270.9333333333334 37.9733333333333 234.6666666666667 21.3333333333333 192C58.24 98.3466666666667 149.3333333333333 32 256 32C289.0666666666667 32 320.64 38.4 349.44 49.92L358.6133333333333 40.96L420.9066666666667 -21.3333333333333L448 5.76L69.76 384M256 298.6666666666667C314.88 298.6666666666667 362.6666666666667 250.88 362.6666666666667 192C362.6666666666667 178.3466666666667 359.8933333333333 165.12 354.9866666666667 153.1733333333334L417.4933333333334 90.6666666666667C449.4933333333334 117.3333333333334 475.0933333333333 152.3200000000001 490.6666666666666 192C453.76 285.6533333333333 362.6666666666667 352 256 352C226.1333333333334 352 197.5466666666667 346.6666666666667 170.6666666666667 337.0666666666667L216.96 291.2000000000001C229.12 295.8933333333333 242.1333333333334 298.6666666666667 256 298.6666666666667z" /></svg>