<?xml version="1.0" encoding="UTF-8"?><!DOCTYPE svg PUBLIC "-//W3C//DTD SVG 1.1//EN" "http://www.w3.org/Graphics/SVG/1.1/DTD/svg11.dtd"><svg xmlns="http://www.w3.org/2000/svg" xmlns:xlink="http://www.w3.org/1999/xlink" version="1.1" width="512" height="512" viewBox="0 0 512 512">    <path fill="#ffffff" transform="scale(1, -1) translate(0, -448)" glyph-name="temperature-celsius" unicode="&#xF504;" horiz-adv-x="512" d=" M352 341.3333333333334C385.0666666666667 341.3333333333334 416 331.3066666666667 441.3866666666667 314.0266666666667L416.64 252.3733333333334C399.5733333333333 267.9466666666667 376.9600000000001 277.3333333333334 352 277.3333333333334C298.6666666666667 277.3333333333334 256 234.6666666666667 256 181.3333333333334S298.6666666666667 85.3333333333334 352 85.3333333333334C373.9733333333334 85.3333333333334 394.0266666666667 92.5866666666667 410.24 104.96L434.56 44.16C410.4533333333334 29.6533333333334 382.2933333333334 21.3333333333334 352 21.3333333333334C263.68 21.3333333333334 192 93.0133333333333 192 181.3333333333334C192 269.6533333333334 263.68 341.3333333333334 352 341.3333333333334M128 384C163.4133333333333 384 192 355.4133333333334 192 320S163.4133333333333 256 128 256S64 284.5866666666667 64 320S92.5866666666667 384 128 384M128 341.3333333333334C116.2666666666667 341.3333333333334 106.6666666666667 331.7333333333334 106.6666666666667 320S116.2666666666667 298.6666666666667 128 298.6666666666667S149.3333333333333 308.2666666666667 149.3333333333333 320S139.7333333333333 341.3333333333334 128 341.3333333333334z" /></svg>