<?xml version="1.0" encoding="UTF-8"?><!DOCTYPE svg PUBLIC "-//W3C//DTD SVG 1.1//EN" "http://www.w3.org/Graphics/SVG/1.1/DTD/svg11.dtd"><svg xmlns="http://www.w3.org/2000/svg" xmlns:xlink="http://www.w3.org/1999/xlink" version="1.1" width="512" height="512" viewBox="0 0 512 512">    <path fill="#ffffff" transform="scale(1, -1) translate(0, -448)" glyph-name="chart-donut" unicode="&#xF7AE;" horiz-adv-x="512" d=" M277.3333333333333 404.2666666666667V339.6266666666667C349.6533333333333 329.1733333333334 405.3333333333333 267.3066666666667 405.3333333333333 192C405.3333333333333 172.8 401.4933333333334 154.6666666666667 394.6666666666667 137.8133333333334L450.56 105.1733333333334C462.5066666666667 131.6266666666667 469.3333333333333 161.0666666666667 469.3333333333333 192C469.3333333333333 302.5066666666667 385.0666666666667 393.6 277.3333333333333 404.2666666666667M256 42.6666666666667C173.44 42.6666666666667 106.6666666666667 109.44 106.6666666666667 192C106.6666666666667 267.3066666666667 162.3466666666666 329.1733333333334 234.6666666666667 339.6266666666667V404.2666666666667C126.72 393.6 42.6666666666667 302.7200000000001 42.6666666666667 192C42.6666666666667 74.24 138.24 -21.3333333333333 256 -21.3333333333333C326.4 -21.3333333333333 388.9066666666667 13.0133333333333 427.7333333333334 65.92L372.2666666666667 98.5600000000001C344.9600000000001 64 303.1466666666667 42.6666666666667 256 42.6666666666667z" /></svg>