<?xml version="1.0" encoding="UTF-8"?><!DOCTYPE svg PUBLIC "-//W3C//DTD SVG 1.1//EN" "http://www.w3.org/Graphics/SVG/1.1/DTD/svg11.dtd"><svg xmlns="http://www.w3.org/2000/svg" xmlns:xlink="http://www.w3.org/1999/xlink" version="1.1" width="512" height="512" viewBox="0 0 512 512">    <path fill="#ffffff" transform="scale(1, -1) translate(0, -448)" glyph-name="restart-off" unicode="&#xFD71;" horiz-adv-x="512" d=" M443.7333333333334 -36.2666666666666L354.1333333333334 53.3333333333334C317.8666666666667 27.7333333333334 275.2000000000001 17.0666666666667 232.5333333333334 23.4666666666667L243.2000000000001 66.1333333333334C270.9333333333334 64 298.6666666666667 70.4 322.1333333333334 85.3333333333334L23.4666666666667 384L51.2 411.7333333333334L352 110.9333333333334L381.8666666666666 81.0666666666667L471.4666666666666 -8.5333333333333L443.7333333333333 -36.2666666666666M256 320C288 320 322.1333333333334 307.2000000000001 345.6 281.6C384 243.2 392.5333333333333 187.7333333333334 373.3333333333333 140.8000000000001L405.3333333333333 108.8000000000001C441.6 172.8000000000001 430.9333333333333 256.0000000000001 375.4666666666667 311.4666666666667C343.4666666666667 345.6 298.6666666666667 362.6666666666667 256 362.6666666666667V433.0666666666667L168.5333333333333 347.7333333333334L256 260.2666666666667V320M140.8 247.4666666666667L108.8 279.4666666666667C70.4 213.3333333333334 78.9333333333333 128 134.4 70.4C151.4666666666667 55.4666666666667 170.6666666666667 42.6666666666667 192 34.1333333333334L202.6666666666667 76.8000000000001C189.8666666666667 83.2000000000001 177.0666666666667 91.7333333333334 164.2666666666667 102.4C125.8666666666667 140.8000000000001 117.3333333333333 200.5333333333334 140.8 247.4666666666667z" /></svg>