<?xml version="1.0" encoding="UTF-8"?><!DOCTYPE svg PUBLIC "-//W3C//DTD SVG 1.1//EN" "http://www.w3.org/Graphics/SVG/1.1/DTD/svg11.dtd"><svg xmlns="http://www.w3.org/2000/svg" xmlns:xlink="http://www.w3.org/1999/xlink" version="1.1" width="512" height="512" viewBox="0 0 512 512">    <path fill="#ffffff" transform="scale(1, -1) translate(0, -448)" glyph-name="power-socket-us" unicode="&#xF7E8;" horiz-adv-x="512" d=" M170.6666666666667 298.6666666666667H213.3333333333333V192H170.6666666666667V298.6666666666667M90.0266666666667 405.3333333333333H421.9733333333334C448 405.3333333333333 469.3333333333333 384 469.3333333333333 357.9733333333334V26.0266666666666C469.3333333333333 -0.2133333333334 448.2133333333334 -21.3333333333333 421.9733333333334 -21.3333333333333H90.0266666666667C64 -21.3333333333333 42.6666666666667 0 42.6666666666667 26.0266666666666V357.9733333333334C42.6666666666667 384.2133333333333 63.7866666666667 405.3333333333333 90.0266666666667 405.3333333333333M256 362.6666666666667C161.7066666666667 362.6666666666667 85.3333333333333 286.2933333333334 85.3333333333333 192S161.7066666666667 21.3333333333334 256 21.3333333333334S426.6666666666667 97.7066666666667 426.6666666666667 192S350.2933333333334 362.6666666666667 256 362.6666666666667M298.6666666666667 288H341.3333333333333V202.6666666666667H298.6666666666667V288M224 101.3333333333334C224 119.04 238.2933333333333 133.3333333333334 256 133.3333333333334S288 119.04 288 101.3333333333334V85.3333333333334H224V101.3333333333334z" /></svg>