<?xml version="1.0" encoding="UTF-8"?><!DOCTYPE svg PUBLIC "-//W3C//DTD SVG 1.1//EN" "http://www.w3.org/Graphics/SVG/1.1/DTD/svg11.dtd"><svg xmlns="http://www.w3.org/2000/svg" xmlns:xlink="http://www.w3.org/1999/xlink" version="1.1" width="512" height="512" viewBox="0 0 512 512">    <path fill="#ffffff" transform="scale(1, -1) translate(0, -448)" glyph-name="access-point-network-off" unicode="&#xFBBD;" horiz-adv-x="512" d=" M316.3733333333334 152.96C331.7333333333334 168.3200000000001 341.3333333333333 189.6533333333334 341.3333333333333 213.3333333333334S331.7333333333334 258.3466666666667 316.3733333333334 273.7066666666667L346.4533333333333 303.7866666666667C369.7066666666666 280.5333333333334 384 248.5333333333334 384 213.3333333333334C384 178.1333333333333 369.7066666666666 146.1333333333333 346.4533333333333 122.88L316.3733333333333 152.96M298.6666666666667 213.3333333333334C298.6666666666667 236.8 279.4666666666667 256 256 256C243.2 256 231.8933333333334 250.24 224 241.4933333333334L284.16 181.3333333333334C292.9066666666667 189.2266666666667 298.6666666666667 200.5333333333334 298.6666666666667 213.3333333333334M376.7466666666667 92.5866666666667L406.8266666666667 62.5066666666667C445.44 101.12 469.3333333333333 154.4533333333334 469.3333333333333 213.3333333333334C469.3333333333333 272.2133333333334 445.44 325.5466666666667 406.8266666666667 364.1600000000001L376.7466666666667 334.0800000000001C407.68 303.36 426.6666666666667 260.48 426.6666666666667 213.3333333333334C426.6666666666667 165.9733333333334 407.68 123.3066666666667 376.7466666666667 92.5866666666667M469.3333333333333 -3.84V21.3333333333334H444.16L469.3333333333333 -3.84M432.4266666666666 -21.3333333333333L448 -36.9066666666666L420.9066666666667 -64L378.24 -21.3333333333333H320C320 -33.0666666666667 310.4 -42.6666666666666 298.6666666666667 -42.6666666666666H213.3333333333333C201.6 -42.6666666666666 192 -33.0666666666667 192 -21.3333333333333H42.6666666666667V21.3333333333334H192C192 33.0666666666667 201.6 42.6666666666667 213.3333333333333 42.6666666666667H234.6666666666667V122.24L177.92 178.9866666666667C182.1866666666667 169.1733333333334 188.16 160 195.6266666666667 152.96L165.5466666666667 122.88C142.2933333333333 146.1333333333333 128 178.1333333333333 128 213.3333333333334C128 218.24 128 223.1466666666667 128.8533333333333 228.0533333333334L93.2266666666667 263.68C88.32 247.68 85.3333333333333 230.8266666666667 85.3333333333333 213.3333333333334C85.3333333333333 165.9733333333334 104.32 123.3066666666667 135.2533333333333 92.5866666666667L105.1733333333333 62.5066666666667C66.56 101.12 42.6666666666667 154.4533333333334 42.6666666666667 213.3333333333334C42.6666666666667 242.9866666666667 48.8533333333333 271.36 59.9466666666667 296.9600000000001L21.3333333333333 335.5733333333334L48.64 362.6666666666667L78.9333333333333 332.3733333333334L109.8666666666667 301.44L141.44 269.8666666666667L174.2933333333333 236.8L219.3066666666667 192L234.6666666666667 176.8533333333334L389.76 21.3333333333334H389.9733333333334L432.64 -21.3333333333333H432.4266666666666M335.5733333333333 21.3333333333334L277.3333333333333 79.5733333333334V42.6666666666667H298.6666666666667C310.4 42.6666666666667 320 33.0666666666667 320 21.3333333333334H335.5733333333333z" /></svg>