<?xml version="1.0" encoding="UTF-8"?><!DOCTYPE svg PUBLIC "-//W3C//DTD SVG 1.1//EN" "http://www.w3.org/Graphics/SVG/1.1/DTD/svg11.dtd"><svg xmlns="http://www.w3.org/2000/svg" xmlns:xlink="http://www.w3.org/1999/xlink" version="1.1" width="512" height="512" viewBox="0 0 512 512">    <path fill="#ffffff" transform="scale(1, -1) translate(0, -448)" glyph-name="castle" unicode="&#xF11A;" horiz-adv-x="512" d=" M42.6666666666667 170.6666666666667H85.3333333333333V128H128V170.6666666666667H170.6666666666667V128H213.3333333333333V170.6666666666667H256V128H298.6666666666667V234.6666666666667L362.6666666666667 298.6666666666667V426.6666666666667H405.3333333333333L490.6666666666666 384L405.3333333333333 341.3333333333334V298.6666666666667L469.3333333333333 234.6666666666667V-21.3333333333333H234.6666666666667V42.6666666666667C234.6666666666667 66.1333333333334 215.4666666666667 85.3333333333334 192 85.3333333333334S149.3333333333333 66.1333333333334 149.3333333333333 42.6666666666667V-21.3333333333333H42.6666666666667V170.6666666666667M384 234.6666666666667C372.2666666666667 234.6666666666667 362.6666666666667 223.1466666666667 362.6666666666667 209.0666666666667V170.6666666666667H405.3333333333333V209.0666666666667C405.3333333333333 223.1466666666667 395.7333333333334 234.6666666666667 384 234.6666666666667z" /></svg>