<?xml version="1.0" encoding="UTF-8"?><!DOCTYPE svg PUBLIC "-//W3C//DTD SVG 1.1//EN" "http://www.w3.org/Graphics/SVG/1.1/DTD/svg11.dtd"><svg xmlns="http://www.w3.org/2000/svg" xmlns:xlink="http://www.w3.org/1999/xlink" version="1.1" width="512" height="512" viewBox="0 0 512 512">    <path fill="#ffffff" transform="scale(1, -1) translate(0, -448)" glyph-name="close-box" unicode="&#xF157;" horiz-adv-x="512" d=" M405.3333333333333 384H106.6666666666667C83.2 384 64 364.8 64 341.3333333333334V42.6666666666667C64 19.2 83.2 0 106.6666666666667 0H405.3333333333333C428.8 0 448 19.2 448 42.6666666666667V341.3333333333334C448 364.8 428.8 384 405.3333333333333 384M332.8 85.3333333333334L256 162.1333333333333L179.2 85.3333333333334L149.3333333333333 115.2000000000001L226.1333333333334 192L149.3333333333333 268.8L179.2 298.6666666666667L256 221.8666666666667L332.8 298.6666666666667L362.6666666666667 268.8L285.8666666666667 192L362.6666666666667 115.2000000000001L332.8 85.3333333333334z" /></svg>