<?xml version="1.0" encoding="UTF-8"?><!DOCTYPE svg PUBLIC "-//W3C//DTD SVG 1.1//EN" "http://www.w3.org/Graphics/SVG/1.1/DTD/svg11.dtd"><svg xmlns="http://www.w3.org/2000/svg" xmlns:xlink="http://www.w3.org/1999/xlink" version="1.1" width="512" height="512" viewBox="0 0 512 512">    <path fill="#ffffff" transform="scale(1, -1) translate(0, -448)" glyph-name="access-point" unicode="&#xF002;" horiz-adv-x="512" d=" M105.1733333333333 342.8266666666667C66.56 304.2133333333334 42.6666666666667 250.88 42.6666666666667 192C42.6666666666667 133.12 66.56 79.7866666666668 105.1733333333333 41.1733333333333L135.2533333333333 71.2533333333333C104.32 101.9733333333334 85.3333333333333 144.64 85.3333333333333 192C85.3333333333333 239.1466666666667 104.32 282.0266666666667 135.2533333333333 312.7466666666667L105.1733333333333 342.8266666666667M406.8266666666667 342.8266666666667L376.7466666666667 312.7466666666667C407.68 282.0266666666667 426.6666666666667 239.1466666666667 426.6666666666667 192C426.6666666666667 144.64 407.68 101.9733333333334 376.7466666666667 71.2533333333333L406.8266666666667 41.1733333333333C445.44 79.7866666666666 469.3333333333333 133.12 469.3333333333333 192C469.3333333333333 250.88 445.44 304.2133333333334 406.8266666666667 342.8266666666667M165.5466666666667 282.4533333333334C142.2933333333333 259.2000000000001 128 227.2 128 192C128 156.8 142.2933333333333 124.8 165.5466666666667 101.5466666666666L195.6266666666667 131.6266666666667C180.2666666666667 146.9866666666667 170.6666666666667 168.3200000000001 170.6666666666667 192S180.2666666666667 237.0133333333333 195.6266666666667 252.3733333333334L165.5466666666667 282.4533333333334M346.4533333333334 282.4533333333334L316.3733333333334 252.3733333333334C331.7333333333334 237.0133333333333 341.3333333333333 215.68 341.3333333333333 192S331.7333333333334 146.9866666666667 316.3733333333334 131.6266666666667L346.4533333333333 101.5466666666667C369.7066666666666 124.8 384 156.8 384 192C384 227.2 369.7066666666666 259.2000000000001 346.4533333333333 282.4533333333334M256 234.6666666666667C232.5333333333334 234.6666666666667 213.3333333333333 215.4666666666667 213.3333333333333 192S232.5333333333334 149.3333333333334 256 149.3333333333334S298.6666666666667 168.5333333333334 298.6666666666667 192S279.4666666666667 234.6666666666667 256 234.6666666666667z" /></svg>