<?xml version="1.0" encoding="UTF-8"?><!DOCTYPE svg PUBLIC "-//W3C//DTD SVG 1.1//EN" "http://www.w3.org/Graphics/SVG/1.1/DTD/svg11.dtd"><svg xmlns="http://www.w3.org/2000/svg" xmlns:xlink="http://www.w3.org/1999/xlink" version="1.1" width="512" height="512" viewBox="0 0 512 512">    <path fill="#ffffff" transform="scale(1, -1) translate(0, -448)" glyph-name="qqchat" unicode="&#xF605;" horiz-adv-x="512" d=" M67.84 159.1466666666667C80.2133333333333 188.5866666666667 97.4933333333333 210.3466666666667 110.2933333333333 215.0400000000001C110.08 232.1066666666668 113.28 242.7733333333334 118.6133333333333 251.3066666666667C118.6133333333333 251.9466666666667 117.3333333333333 258.9866666666667 122.0266666666667 267.7333333333334C125.2266666666667 344.5333333333334 175.1466666666667 405.3333333333333 256 405.3333333333333S386.7733333333333 344.5333333333334 389.9733333333334 267.7333333333334C394.6666666666667 258.9866666666667 393.3866666666667 251.9466666666667 393.3866666666667 251.3066666666667C398.7200000000001 242.7733333333334 401.92 232.1066666666667 401.7066666666667 215.0400000000001C414.5066666666667 210.3466666666667 431.7866666666667 188.5866666666667 444.16 158.9333333333334C460.16 121.3866666666668 462.72 85.3333333333334 449.92 78.9333333333334C441.1733333333333 74.6666666666667 427.3066666666667 85.3333333333334 414.2933333333334 104.1066666666667C409.1733333333334 83.2000000000001 396.3733333333334 64.0000000000001 378.24 48.8533333333334C397.44 41.8133333333334 409.8133333333334 30.2933333333334 409.8133333333334 17.2800000000001C409.8133333333334 -4.0533333333333 376.1066666666667 -21.3333333333333 334.7200000000001 -21.3333333333333C297.1733333333334 -21.3333333333333 266.6666666666667 -7.2533333333332 260.48 10.6666666666667H251.52C245.3333333333334 -7.2533333333332 214.8266666666667 -21.3333333333333 177.28 -21.3333333333333C135.8933333333334 -21.3333333333333 102.1866666666667 -4.0533333333333 102.1866666666667 17.2800000000001C102.1866666666667 30.2933333333334 114.56 41.8133333333334 133.76 48.8533333333334C115.6266666666667 64.0000000000001 102.8266666666667 83.2000000000001 97.7066666666667 104.1066666666667C84.6933333333334 85.3333333333334 70.8266666666667 74.6666666666667 62.08 78.9333333333334C49.28 85.3333333333334 51.84 121.3866666666668 67.84 159.1466666666668z" /></svg>