<?xml version="1.0" encoding="UTF-8"?><!DOCTYPE svg PUBLIC "-//W3C//DTD SVG 1.1//EN" "http://www.w3.org/Graphics/SVG/1.1/DTD/svg11.dtd"><svg xmlns="http://www.w3.org/2000/svg" xmlns:xlink="http://www.w3.org/1999/xlink" version="1.1" width="512" height="512" viewBox="0 0 512 512">    <path fill="#ffffff" transform="scale(1, -1) translate(0, -448)" glyph-name="youtube-tv" unicode="&#xF448;" horiz-adv-x="512" d=" M53.3333333333333 352H458.6666666666666C476.5866666666666 352 490.6666666666666 338.1333333333334 490.6666666666666 320V74.6666666666667C490.6666666666666 56.5333333333333 476.5866666666666 42.6666666666667 458.6666666666666 42.6666666666667H53.3333333333333C35.2 42.6666666666667 21.3333333333333 56.5333333333333 21.3333333333333 74.6666666666667V320C21.3333333333333 338.1333333333334 35.2 352 53.3333333333333 352M207.1466666666667 266.6666666666667V128L328.9600000000001 198.4L207.1466666666667 266.6666666666667M368 0H141.8666666666667C135.4666666666667 0 131.2 4.2666666666667 131.2 10.6666666666667S135.4666666666667 21.3333333333334 141.8666666666667 21.3333333333334H370.1333333333334C376.5333333333334 21.3333333333334 380.8 17.0666666666667 380.8 10.6666666666667S374.4 0 368 0z" /></svg>