<?xml version="1.0" encoding="UTF-8"?><!DOCTYPE svg PUBLIC "-//W3C//DTD SVG 1.1//EN" "http://www.w3.org/Graphics/SVG/1.1/DTD/svg11.dtd"><svg xmlns="http://www.w3.org/2000/svg" xmlns:xlink="http://www.w3.org/1999/xlink" version="1.1" width="512" height="512" viewBox="0 0 512 512">    <path fill="#ffffff" transform="scale(1, -1) translate(0, -448)" glyph-name="hexagon-multiple" unicode="&#xF6E0;" horiz-adv-x="512" d=" M218.6666666666667 405.3333333333333C222.72 405.3333333333333 226.3466666666667 402.9866666666667 228.0533333333333 399.7866666666667L275.4133333333333 315.3066666666667L277.3333333333333 309.3333333333334L275.4133333333333 303.36L228.0533333333333 218.88C226.3466666666667 215.68 222.72 213.3333333333334 218.6666666666667 213.3333333333334H122.6666666666667C118.6133333333333 213.3333333333334 114.9866666666667 215.68 113.28 218.88L65.92 303.36L64 309.3333333333334L65.92 315.3066666666667L113.28 399.7866666666667C114.9866666666667 402.9866666666667 118.6133333333334 405.3333333333334 122.6666666666667 405.3333333333334H218.6666666666667M218.6666666666667 170.6666666666667C222.72 170.6666666666667 226.3466666666667 168.3200000000001 228.0533333333333 165.12L275.4133333333333 80.64L277.3333333333333 74.6666666666667L275.4133333333333 68.6933333333333L228.0533333333333 -15.7866666666667C226.3466666666667 -18.9866666666667 222.72 -21.3333333333334 218.6666666666667 -21.3333333333334H122.6666666666667C118.6133333333333 -21.3333333333334 114.9866666666667 -18.9866666666667 113.28 -15.7866666666667L65.92 68.6933333333333L64 74.6666666666667L65.92 80.64L113.28 165.1200000000001C114.9866666666667 168.3200000000001 118.6133333333334 170.6666666666668 122.6666666666667 170.6666666666668H218.6666666666667M416 288.0000000000001C420.0533333333334 288.0000000000001 423.68 285.6533333333334 425.3866666666667 282.4533333333334L472.7466666666667 197.9733333333334L474.6666666666666 192.0000000000001L472.7466666666667 186.0266666666668L425.3866666666667 101.5466666666667C423.6800000000001 98.3466666666668 420.0533333333334 96 416 96H320C315.9466666666667 96 312.32 98.3466666666667 310.6133333333334 101.5466666666667L263.2533333333334 186.0266666666668L261.3333333333333 192.0000000000001L263.2533333333334 197.9733333333334L310.6133333333334 282.4533333333334C312.32 285.6533333333334 315.9466666666667 288 320 288H416z" /></svg>