<?xml version="1.0" encoding="UTF-8"?><!DOCTYPE svg PUBLIC "-//W3C//DTD SVG 1.1//EN" "http://www.w3.org/Graphics/SVG/1.1/DTD/svg11.dtd"><svg xmlns="http://www.w3.org/2000/svg" xmlns:xlink="http://www.w3.org/1999/xlink" version="1.1" width="512" height="512" viewBox="0 0 512 512">    <path fill="#ffffff" transform="scale(1, -1) translate(0, -448)" glyph-name="folder-clock" unicode="&#xFAB9;" horiz-adv-x="512" d=" M64 362.6666666666667C40.32 362.6666666666667 21.3333333333333 343.68 21.3333333333333 320V64C21.3333333333333 40.5333333333333 40.5333333333333 21.3333333333334 64 21.3333333333334H218.88C246.8266666666667 -18.7733333333333 292.48 -42.6666666666666 341.3333333333333 -42.6666666666666C423.8933333333333 -42.6666666666666 490.6666666666666 24.1066666666667 490.6666666666666 106.6666666666667C490.6666666666666 145.7066666666667 475.3066666666667 183.04 448 210.9866666666667V277.3333333333334C448 301.0133333333333 428.8 320 405.3333333333333 320H234.6666666666667L192 362.6666666666667H64M341.3333333333333 213.3333333333334C400.2133333333333 213.3333333333334 448 165.5466666666667 448 106.6666666666667S400.2133333333333 0 341.3333333333333 0S234.6666666666667 47.7866666666668 234.6666666666667 106.6666666666667S282.4533333333333 213.3333333333334 341.3333333333333 213.3333333333334M320 192V85.3333333333334L397.0133333333333 39.2533333333333L413.0133333333333 65.28L352 101.3333333333334V192H320z" /></svg>