<?xml version="1.0" encoding="UTF-8"?><!DOCTYPE svg PUBLIC "-//W3C//DTD SVG 1.1//EN" "http://www.w3.org/Graphics/SVG/1.1/DTD/svg11.dtd"><svg xmlns="http://www.w3.org/2000/svg" xmlns:xlink="http://www.w3.org/1999/xlink" version="1.1" width="512" height="512" viewBox="0 0 512 512">    <path fill="#ffffff" transform="scale(1, -1) translate(0, -448)" glyph-name="zodiac-aquarius" unicode="&#xFA7C;" horiz-adv-x="512" d=" M320 183.2533333333333L256 247.2533333333334L192 183.2533333333333L128 247.2533333333334L79.1466666666667 198.1866666666667L48.8533333333333 228.48L128 307.4133333333334L192 243.4133333333334L256 307.4133333333334L320 243.4133333333334L384 307.4133333333334L463.1466666666666 228.48L432.8533333333333 198.1866666666667L384 247.2533333333334L320 183.2533333333333M384 119.2533333333333L432.8533333333333 70.1866666666667L463.1466666666666 100.48L384 179.4133333333334L320 115.4133333333334L256 179.4133333333334L192 115.4133333333334L128 179.4133333333334L48.8533333333333 100.48L79.1466666666667 70.1866666666667L128 119.2533333333333L192 55.2533333333333L256 119.2533333333333L320 55.2533333333333L384 119.2533333333333z" /></svg>