<?xml version="1.0" encoding="UTF-8"?><!DOCTYPE svg PUBLIC "-//W3C//DTD SVG 1.1//EN" "http://www.w3.org/Graphics/SVG/1.1/DTD/svg11.dtd"><svg xmlns="http://www.w3.org/2000/svg" xmlns:xlink="http://www.w3.org/1999/xlink" version="1.1" width="512" height="512" viewBox="0 0 512 512">    <path fill="#ffffff" transform="scale(1, -1) translate(0, -448)" glyph-name="account-star" unicode="&#xF017;" horiz-adv-x="512" d=" M320 149.3333333333334C263.04 149.3333333333334 149.3333333333333 120.96 149.3333333333333 64V21.3333333333334H490.6666666666666V64C490.6666666666666 120.96 376.9600000000001 149.3333333333334 320 149.3333333333334M320 192C367.1466666666667 192 405.3333333333333 230.1866666666667 405.3333333333333 277.3333333333334S367.1466666666667 362.6666666666667 320 362.6666666666667S234.6666666666667 324.48 234.6666666666667 277.3333333333334S272.8533333333333 192 320 192M106.6666666666667 164.6933333333334L158.9333333333333 132.9066666666667L145.0666666666667 192.8533333333334L192 232.96L130.3466666666666 238.2933333333334L106.6666666666667 294.6133333333334L82.56 238.2933333333334L21.3333333333333 232.96L67.84 192.8533333333333L53.3333333333333 132.9066666666667L106.6666666666667 164.6933333333334z" /></svg>