<?xml version="1.0" encoding="UTF-8"?><!DOCTYPE svg PUBLIC "-//W3C//DTD SVG 1.1//EN" "http://www.w3.org/Graphics/SVG/1.1/DTD/svg11.dtd"><svg xmlns="http://www.w3.org/2000/svg" xmlns:xlink="http://www.w3.org/1999/xlink" version="1.1" width="512" height="512" viewBox="0 0 512 512">    <path fill="#ffffff" transform="scale(1, -1) translate(0, -448)" glyph-name="passport-biometric" unicode="&#xFDBD;" horiz-adv-x="512" d=" M85.3333333333333 362.6666666666667C61.8666666666667 362.6666666666667 42.6666666666667 343.4666666666667 42.6666666666667 320V213.3333333333334H173.44C183.2533333333333 250.88 217.1733333333333 277.3333333333334 256 277.3333333333334C294.8266666666667 277.3333333333334 328.7466666666667 250.88 338.56 213.3333333333334H469.3333333333333V320C469.3333333333333 343.4666666666667 450.1333333333334 362.6666666666667 426.6666666666667 362.6666666666667H85.3333333333333M256 234.6666666666667C232.5333333333334 234.6666666666667 213.3333333333333 215.4666666666667 213.3333333333333 192S232.5333333333334 149.3333333333334 256 149.3333333333334S298.6666666666667 168.5333333333334 298.6666666666667 192S279.4666666666667 234.6666666666667 256 234.6666666666667M42.6666666666667 170.6666666666667V64C42.6666666666667 40.5333333333333 61.8666666666667 21.3333333333334 85.3333333333333 21.3333333333334H426.6666666666667C450.1333333333334 21.3333333333334 469.3333333333333 40.5333333333333 469.3333333333333 64V170.6666666666667H338.56C328.7466666666667 133.12 294.8266666666667 106.6666666666667 256 106.6666666666667C217.1733333333333 106.6666666666667 183.2533333333333 133.12 173.44 170.6666666666667H42.6666666666667z" /></svg>