<?xml version="1.0" encoding="UTF-8"?><!DOCTYPE svg PUBLIC "-//W3C//DTD SVG 1.1//EN" "http://www.w3.org/Graphics/SVG/1.1/DTD/svg11.dtd"><svg xmlns="http://www.w3.org/2000/svg" xmlns:xlink="http://www.w3.org/1999/xlink" version="1.1" width="512" height="512" viewBox="0 0 512 512">    <path fill="#ffffff" transform="scale(1, -1) translate(0, -448)" glyph-name="muffin" unicode="&#xF98B;" horiz-adv-x="512" d=" M341.3333333333333 341.3333333333334S320 405.3333333333333 256 405.3333333333333S170.6666666666667 341.3333333333334 170.6666666666667 341.3333333333334C128 341.3333333333334 85.3333333333333 298.6666666666667 85.3333333333333 256C27.7333333333333 256 27.7333333333333 170.6666666666667 85.3333333333333 170.6666666666667H426.6666666666667C484.2666666666667 170.6666666666667 484.2666666666667 256 426.6666666666667 256C426.6666666666667 298.6666666666667 384 341.3333333333334 341.3333333333333 341.3333333333334M106.6666666666667 128L149.3333333333333 -21.3333333333333H192L170.6666666666667 128H106.6666666666667M213.3333333333333 128L234.6666666666667 -21.3333333333333H277.3333333333333L298.6666666666667 128H213.3333333333333M341.3333333333333 128L320 -21.3333333333333H362.6666666666667L405.3333333333333 128H341.3333333333333z" /></svg>