<?xml version="1.0" encoding="UTF-8"?><!DOCTYPE svg PUBLIC "-//W3C//DTD SVG 1.1//EN" "http://www.w3.org/Graphics/SVG/1.1/DTD/svg11.dtd"><svg xmlns="http://www.w3.org/2000/svg" xmlns:xlink="http://www.w3.org/1999/xlink" version="1.1" width="512" height="512" viewBox="0 0 512 512">    <path fill="#ffffff" transform="scale(1, -1) translate(0, -448)" glyph-name="fountain" unicode="&#xF96A;" horiz-adv-x="512" d=" M160 405.3333333333333C95.36 405.3333333333333 42.6666666666667 352.8533333333334 42.6666666666667 288V277.3333333333334H85.3333333333333V288C85.3333333333333 329.1733333333334 118.8266666666667 362.6666666666667 160 362.6666666666667C192 362.6666666666667 218.88 342.8266666666667 229.5466666666667 314.88C221.2266666666666 318.2933333333334 212.2666666666667 320 202.6666666666667 320C173.0133333333333 320 147.2 302.5066666666667 135.2533333333333 277.3333333333334L172.3733333333333 256C176.8533333333334 268.3733333333334 188.8 277.3333333333334 202.6666666666667 277.3333333333334C220.3733333333333 277.3333333333334 234.6666666666667 263.04 234.6666666666667 245.3333333333334V213.3333333333334H277.3333333333333V245.3333333333334C277.3333333333333 263.04 291.6266666666667 277.3333333333334 309.3333333333333 277.3333333333334C323.4133333333333 277.3333333333334 335.1466666666667 268.3733333333334 339.6266666666667 256L376.7466666666667 277.3333333333334C364.8 302.5066666666667 339.2 320 309.3333333333333 320C299.7333333333334 320 290.7733333333333 318.2933333333334 282.4533333333333 314.88C293.12 342.8266666666667 320 362.6666666666667 352 362.6666666666667C393.1733333333333 362.6666666666667 426.6666666666667 329.1733333333334 426.6666666666667 288V277.3333333333334H469.3333333333333V288C469.3333333333333 352.8533333333334 416.8533333333333 405.3333333333333 352 405.3333333333333C312.32 405.3333333333333 277.3333333333333 385.4933333333334 256 355.4133333333334C234.6666666666667 385.4933333333334 199.68 405.3333333333333 160 405.3333333333333M128 192V149.3333333333334H158.2933333333333C168.96 124.8 188.8 105.1733333333334 213.3333333333333 94.5066666666667V42.6666666666667H42.6666666666667S60.16 16.4266666666667 72.7466666666667 -2.3466666666666C80.64 -14.2933333333333 93.8666666666667 -21.3333333333333 108.16 -21.3333333333333H403.84C418.1333333333334 -21.3333333333333 431.36 -14.2933333333333 439.2533333333334 -2.3466666666666L469.3333333333333 42.6666666666667H298.6666666666667V94.5066666666667C323.2 105.1733333333334 343.04 124.8 353.7066666666666 149.3333333333334H384V192H128z" /></svg>