<?xml version="1.0" encoding="UTF-8"?><!DOCTYPE svg PUBLIC "-//W3C//DTD SVG 1.1//EN" "http://www.w3.org/Graphics/SVG/1.1/DTD/svg11.dtd"><svg xmlns="http://www.w3.org/2000/svg" xmlns:xlink="http://www.w3.org/1999/xlink" version="1.1" width="512" height="512" viewBox="0 0 512 512">    <path fill="#ffffff" transform="scale(1, -1) translate(0, -448)" glyph-name="pencil-remove" unicode="&#xFDC9;" horiz-adv-x="512" d=" M441.6 298.6666666666667C450.1333333333333 307.2000000000001 450.1333333333333 320 441.6 328.5333333333334L392.5333333333333 377.6C384 386.1333333333334 371.2 386.1333333333334 362.6666666666667 377.6L324.2666666666667 339.2000000000001L405.3333333333333 258.1333333333334M64 81.0666666666667V0H145.0666666666667L379.7333333333334 236.8L300.8 317.8666666666667L64 81.0666666666667M83.2 396.8L128 352L172.8 396.8L202.6666666666667 366.9333333333334L157.8666666666667 322.1333333333334L202.6666666666667 277.3333333333334L172.8 245.3333333333334L128 290.1333333333334L83.2 245.3333333333334L53.3333333333333 275.2000000000001L98.1333333333333 320L53.3333333333333 366.9333333333334L83.2 396.8z" /></svg>