<?xml version="1.0" encoding="UTF-8"?><!DOCTYPE svg PUBLIC "-//W3C//DTD SVG 1.1//EN" "http://www.w3.org/Graphics/SVG/1.1/DTD/svg11.dtd"><svg xmlns="http://www.w3.org/2000/svg" xmlns:xlink="http://www.w3.org/1999/xlink" version="1.1" width="512" height="512" viewBox="0 0 512 512">    <path fill="#ffffff" transform="scale(1, -1) translate(0, -448)" glyph-name="axis-y-rotate-clockwise" unicode="&#xFD2F;" horiz-adv-x="512" d=" M256 234.6666666666667L341.3333333333333 149.3333333333334L426.6666666666667 234.6666666666667H360.5333333333333C350.7199999999999 331.9466666666667 307.6266666666666 405.3333333333333 256 405.3333333333333C215.8933333333333 405.3333333333333 180.6933333333333 360.9600000000001 162.56 295.2533333333334L199.8933333333333 273.7066666666667C210.56 326.6133333333334 231.68 362.6666666666667 256 362.6666666666667C285.8666666666667 362.6666666666667 310.8266666666667 308.2666666666667 318.08 234.6666666666667H256M23.68 301.44L296.32 144L297.8133333333333 160.8533333333334L224 234.6666666666667H224.8533333333333L45.0133333333333 338.56L23.68 301.44M466.9866666666667 45.44L488.32 82.56L381.4400000000001 144.2133333333333C379.5200000000001 128.64 376.9600000000001 113.7066666666667 373.3333333333334 99.4133333333333L466.9866666666667 45.4399999999999M256 -21.3333333333333C305.0666666666667 -21.3333333333333 346.24 44.8000000000001 358.8266666666667 134.8266666666667L341.3333333333333 117.3333333333334L317.2266666666667 141.44C309.3333333333333 71.8933333333334 284.8 21.3333333333334 256 21.3333333333334C222.2933333333333 21.3333333333334 194.56 91.0933333333334 192 179.6266666666667L149.3333333333333 204.16V192C149.3333333333333 74.6666666666667 197.12 -21.3333333333333 256 -21.3333333333333z" /></svg>