<?xml version="1.0" encoding="UTF-8"?><!DOCTYPE svg PUBLIC "-//W3C//DTD SVG 1.1//EN" "http://www.w3.org/Graphics/SVG/1.1/DTD/svg11.dtd"><svg xmlns="http://www.w3.org/2000/svg" xmlns:xlink="http://www.w3.org/1999/xlink" version="1.1" width="512" height="512" viewBox="0 0 512 512">    <path fill="#ffffff" transform="scale(1, -1) translate(0, -448)" glyph-name="signature-text" unicode="&#xFE5E;" horiz-adv-x="512" d=" M469.3333333333333 -21.3333333333333H42.6666666666667V21.3333333333334H469.3333333333333V-21.3333333333333M132.2666666666667 78.9333333333333L102.4 108.8L132.2666666666667 138.6666666666667L117.3333333333334 153.6L87.4666666666667 123.7333333333334L57.6 153.6L42.6666666666667 138.6666666666667L72.5333333333334 108.8L42.6666666666667 78.9333333333333L57.6 64L87.4666666666667 93.8666666666667L117.3333333333333 64L132.2666666666667 78.9333333333333M437.3333333333333 384L462.9333333333333 290.1333333333334L441.6 283.7333333333334C430.9333333333333 302.9333333333334 422.4 320 411.7333333333334 330.6666666666667C398.9333333333333 341.3333333333334 386.1333333333334 341.3333333333334 373.3333333333333 341.3333333333334H320V117.3333333333334C320 106.6666666666667 320 96 326.4 91.7333333333334C332.8 87.4666666666667 347.7333333333334 87.4666666666667 362.6666666666667 87.4666666666667V66.1333333333334H234.6666666666667V87.4666666666667C249.6 87.4666666666667 262.4 87.4666666666667 270.9333333333333 91.7333333333334C277.3333333333333 96 277.3333333333333 106.6666666666667 277.3333333333333 117.3333333333334V341.3333333333334H224C211.2 341.3333333333334 198.4 341.3333333333334 185.6 332.8C174.9333333333333 324.2666666666667 164.2666666666667 305.0666666666667 155.7333333333333 285.8666666666667L134.4 292.2666666666667L160 384H437.3333333333333z" /></svg>