<?xml version="1.0" encoding="UTF-8"?><!DOCTYPE svg PUBLIC "-//W3C//DTD SVG 1.1//EN" "http://www.w3.org/Graphics/SVG/1.1/DTD/svg11.dtd"><svg xmlns="http://www.w3.org/2000/svg" xmlns:xlink="http://www.w3.org/1999/xlink" version="1.1" width="512" height="512" viewBox="0 0 512 512">    <path fill="#ffffff" transform="scale(1, -1) translate(0, -448)" glyph-name="google-fit" unicode="&#xF96B;" horiz-adv-x="512" d=" M362.6666666666667 362.6666666666667C421.5466666666666 362.6666666666667 469.3333333333333 314.88 469.3333333333333 256C469.3333333333333 226.5600000000001 457.3866666666667 199.8933333333334 438.1866666666666 180.48L256 -1.4933333333333L73.8133333333334 180.48C54.6133333333333 199.8933333333333 42.6666666666667 226.56 42.6666666666667 256C42.6666666666667 314.88 90.4533333333333 362.6666666666667 149.3333333333333 362.6666666666667C178.7733333333333 362.6666666666667 205.44 350.7200000000001 224.8533333333333 331.52L256 300.1600000000001L287.1466666666667 331.52C306.56 350.7200000000001 333.2266666666667 362.6666666666667 362.6666666666667 362.6666666666667M332.5866666666667 286.0800000000001L195.6266666666667 149.3333333333334L256 88.96L392.7466666666667 225.9200000000001C400.64 233.6 405.3333333333333 244.2666666666667 405.3333333333333 256.0000000000001C405.3333333333333 279.4666666666667 386.1333333333334 298.6666666666668 362.6666666666667 298.6666666666668C350.9333333333333 298.6666666666668 340.2666666666667 293.9733333333334 332.5866666666667 286.0800000000001M179.4133333333333 286.0800000000001C171.7333333333334 293.9733333333334 161.0666666666667 298.6666666666667 149.3333333333333 298.6666666666667C125.8666666666667 298.6666666666667 106.6666666666667 279.4666666666667 106.6666666666667 256C106.6666666666667 244.2666666666667 111.36 233.6 119.2533333333333 225.92L150.4 194.56L210.7733333333333 254.9333333333334L179.4133333333333 286.08z" /></svg>