<?xml version="1.0" encoding="UTF-8"?><!DOCTYPE svg PUBLIC "-//W3C//DTD SVG 1.1//EN" "http://www.w3.org/Graphics/SVG/1.1/DTD/svg11.dtd"><svg xmlns="http://www.w3.org/2000/svg" xmlns:xlink="http://www.w3.org/1999/xlink" version="1.1" width="512" height="512" viewBox="0 0 512 512">    <path fill="#ffffff" transform="scale(1, -1) translate(0, -448)" glyph-name="webhook" unicode="&#xF62F;" horiz-adv-x="512" d=" M223.1466666666667 42.6666666666667C192 -1.4933333333333 131.2 -12.5866666666666 87.2533333333333 18.1333333333334C43.52 48.8533333333334 33.28 110.08 64 154.6666666666668C82.56 181.3333333333334 111.1466666666667 195.6266666666667 140.3733333333333 196.9066666666667L141.44 166.4000000000001C122.0266666666667 164.9066666666668 103.2533333333333 154.8800000000001 91.0933333333333 137.3866666666668C69.76 106.6666666666667 76.3733333333333 65.2800000000001 105.6 44.5866666666668C135.04 24.1066666666667 176.2133333333333 32.0000000000001 197.5466666666666 62.5066666666668C204.16 72.1066666666667 208 82.5600000000001 209.4933333333333 93.2266666666668V114.7733333333334L328.5333333333333 115.6266666666668L330.0266666666667 117.9733333333334C341.3333333333333 137.6000000000001 365.8666666666666 144.4266666666667 385.0666666666666 133.3333333333334C404.2666666666666 122.2400000000001 410.88 97.4933333333335 399.5733333333333 77.8666666666667C388.2666666666666 58.4533333333334 363.5199999999999 51.6266666666667 344.32 62.72C335.5733333333333 67.6266666666667 329.3866666666666 75.5200000000001 326.6133333333333 84.48L239.7866666666666 84.0533333333334C237.44 69.76 231.8933333333333 55.8933333333334 223.1466666666666 42.6666666666667M378.4533333333333 194.9866666666667C432.4266666666666 188.3733333333333 470.8266666666667 139.9466666666667 464.2133333333333 86.8266666666667C457.6 33.4933333333333 408.5333333333333 -4.2666666666667 354.56 2.3466666666667C322.7733333333333 6.1866666666667 296.5333333333333 24.3200000000001 281.3866666666666 49.4933333333333L307.8399999999999 64.8533333333334C318.2933333333333 48.4266666666667 336 36.6933333333333 357.3333333333333 33.92C394.6666666666666 29.44 427.7333333333333 54.8266666666667 432.2133333333333 90.4533333333333C436.6933333333333 126.08 410.2399999999999 158.72 373.3333333333333 163.2C361.8133333333334 164.48 350.7200000000001 162.9866666666667 340.6933333333334 159.36L322.56 149.9733333333334L267.52 251.7333333333333H262.8266666666667C240.2133333333333 252.5866666666667 222.72 271.1466666666667 223.36 293.3333333333333C224 315.52 243.2 332.8 265.6 331.9466666666667C288 330.6666666666667 305.7066666666667 312.5333333333333 305.0666666666667 290.3466666666667C304.64 280.96 301.0133333333333 272.4266666666666 295.2533333333334 265.8133333333334L335.7866666666667 190.9333333333333C349.0133333333333 195.2 363.52 196.6933333333333 378.4533333333334 194.9866666666667M176 253.0133333333333C154.6666666666667 303.1466666666667 177.28 360.5333333333333 226.56 381.44C276.0533333333334 402.3466666666667 333.2266666666667 378.6666666666667 354.56 328.5333333333333C367.1466666666667 299.3066666666666 364.5866666666667 267.3066666666666 350.2933333333334 241.7066666666667L323.8400000000001 257.0666666666667C332.8 274.3466666666667 334.2933333333334 295.4666666666667 325.76 315.3066666666667C311.2533333333334 349.44 272.64 365.8666666666667 239.5733333333333 352C206.2933333333333 337.92 191.36 298.6666666666667 205.8666666666667 264.5333333333333C211.84 250.4533333333333 221.8666666666667 239.5733333333333 234.0266666666667 232.32L242.3466666666667 227.84L176.8533333333334 121.3866666666667C177.4933333333334 120.3199999999999 178.3466666666667 119.04 178.9866666666667 117.3333333333333C189.44 97.92 182.1866666666667 73.3866666666667 162.56 62.9333333333333C143.1466666666667 52.48 118.6133333333334 60.16 107.9466666666667 80.2133333333333C97.4933333333333 100.0533333333333 104.7466666666667 124.5866666666667 124.3733333333333 135.04C132.6933333333333 139.52 141.8666666666667 140.5866666666667 150.6133333333334 138.6666666666666L199.8933333333334 219.0933333333333C189.8666666666667 228.2666666666666 181.3333333333334 239.7866666666667 176 253.0133333333333z" /></svg>