<?xml version="1.0" encoding="UTF-8"?><!DOCTYPE svg PUBLIC "-//W3C//DTD SVG 1.1//EN" "http://www.w3.org/Graphics/SVG/1.1/DTD/svg11.dtd"><svg xmlns="http://www.w3.org/2000/svg" xmlns:xlink="http://www.w3.org/1999/xlink" version="1.1" width="512" height="512" viewBox="0 0 512 512">    <path fill="#ffffff" transform="scale(1, -1) translate(0, -448)" glyph-name="checkbox-multiple-marked-circle-outline" unicode="&#xF63E;" horiz-adv-x="512" d=" M298.6666666666667 405.3333333333333C204.3733333333333 405.3333333333333 128 328.9600000000001 128 234.6666666666667S204.3733333333333 64 298.6666666666667 64S469.3333333333333 140.3733333333333 469.3333333333333 234.6666666666667H426.6666666666667C426.6666666666667 163.84 369.4933333333334 106.6666666666667 298.6666666666667 106.6666666666667C228.0533333333333 106.6666666666667 170.6666666666667 164.0533333333334 170.6666666666667 234.6666666666667S228.0533333333333 362.6666666666667 298.6666666666667 362.6666666666667C307.84 362.6666666666667 317.0133333333333 361.6 325.76 359.68L360.1066666666667 393.8133333333334C340.48 401.4933333333334 320 405.3333333333333 298.6666666666667 405.3333333333333M439.2533333333334 371.6266666666667L298.6666666666667 231.04L247.8933333333334 281.8133333333334L217.8133333333333 251.52L298.6666666666667 170.6666666666667L469.3333333333333 341.3333333333334M105.1733333333333 323.8400000000001C65.7066666666667 291.4133333333334 42.6666666666667 242.9866666666667 42.6666666666667 192C42.6666666666667 97.7066666666667 119.04 21.3333333333334 213.3333333333333 21.3333333333334C226.9866666666667 21.3333333333334 240.4266666666667 23.04 253.44 26.24C215.8933333333333 34.5600000000001 181.3333333333333 53.3333333333334 152.96 79.1466666666667C111.36 101.3333333333334 85.3333333333333 144.8533333333334 85.3333333333333 192C85.3333333333333 198.4 85.9733333333333 204.5866666666667 86.8266666666667 210.9866666666667C85.9733333333333 218.88 85.3333333333333 226.7733333333334 85.3333333333333 234.6666666666667C85.3333333333333 265.3866666666667 92.16 295.8933333333333 105.1733333333333 323.8400000000001z" /></svg>