<?xml version="1.0" encoding="UTF-8"?><!DOCTYPE svg PUBLIC "-//W3C//DTD SVG 1.1//EN" "http://www.w3.org/Graphics/SVG/1.1/DTD/svg11.dtd"><svg xmlns="http://www.w3.org/2000/svg" xmlns:xlink="http://www.w3.org/1999/xlink" version="1.1" width="512" height="512" viewBox="0 0 512 512">    <path fill="#ffffff" transform="scale(1, -1) translate(0, -448)" glyph-name="gesture-two-tap" unicode="&#xF742;" horiz-adv-x="512" d=" M405.3333333333333 125.0133333333333V-10.6666666666666C404.6933333333333 -28.16 390.8266666666667 -42.0266666666666 373.3333333333333 -42.6666666666666H234.6666666666667C226.56 -42.6666666666666 218.88 -39.4666666666667 213.3333333333333 -33.4933333333333L108.8 56.1066666666667L124.5866666666667 72.5333333333333C128.64 77.0133333333333 134.4 79.36 140.3733333333333 79.36H145.0666666666667L213.3333333333333 42.6666666666667V256C213.3333333333333 267.7333333333334 222.9333333333333 277.3333333333334 234.6666666666667 277.3333333333334S256 267.7333333333334 256 256V298.6666666666667C256 310.4 265.6 320 277.3333333333333 320S298.6666666666667 310.4 298.6666666666667 298.6666666666667V192L387.2 152.7466666666667C398.08 147.84 405.3333333333333 136.96 405.3333333333333 125.0133333333333M320 225.0666666666667V251.0933333333334C324.9066666666667 255.36 328.96 260.48 332.16 265.8133333333334C337.92 275.4133333333333 341.3333333333333 286.7200000000001 341.3333333333333 298.6666666666667C341.3333333333333 334.08 312.7466666666667 362.6666666666667 277.3333333333333 362.6666666666667C260.48 362.6666666666667 245.3333333333333 356.0533333333334 233.6 345.3866666666667L230.6133333333333 342.4C227.84 339.4133333333334 225.28 336.2133333333334 223.1466666666667 332.8C221.0133333333333 329.3866666666667 219.0933333333333 325.5466666666667 217.6 321.7066666666667C216.96 320 216.5333333333333 318.7200000000001 216.1066666666666 317.2266666666667C189.8666666666667 309.3333333333334 170.6666666666667 284.8 170.6666666666667 256C170.6666666666667 241.0666666666667 175.7866666666667 227.4133333333334 184.32 216.5333333333334C186.4533333333333 213.3333333333334 189.2266666666667 210.9866666666667 192 208.4266666666667V182.1866666666667C166.4 196.9066666666667 149.3333333333333 224 149.3333333333333 256C149.3333333333333 290.56 170.0266666666667 320 199.4666666666667 333.8666666666667C213.3333333333333 363.3066666666667 242.7733333333334 384 277.3333333333333 384C324.48 384 362.6666666666667 345.8133333333334 362.6666666666667 298.6666666666667C362.6666666666667 266.6666666666667 345.6 239.5733333333334 320 224.8533333333333V225.0666666666667z" /></svg>