<?xml version="1.0" encoding="UTF-8"?><!DOCTYPE svg PUBLIC "-//W3C//DTD SVG 1.1//EN" "http://www.w3.org/Graphics/SVG/1.1/DTD/svg11.dtd"><svg xmlns="http://www.w3.org/2000/svg" xmlns:xlink="http://www.w3.org/1999/xlink" version="1.1" width="512" height="512" viewBox="0 0 512 512">    <path fill="#ffffff" transform="scale(1, -1) translate(0, -448)" glyph-name="diameter-variant" unicode="&#xFC41;" horiz-adv-x="512" d=" M88.5333333333333 -9.8133333333333L116.6933333333334 30.2933333333333C71.4666666666667 69.5466666666667 42.6666666666667 127.36 42.6666666666667 192C42.6666666666667 309.76 138.24 405.3333333333333 256 405.3333333333333C293.9733333333333 405.3333333333333 329.3866666666667 395.52 360.32 378.24L388.48 418.3466666666667L423.4666666666667 393.8133333333334L395.3066666666667 353.7066666666667C440.5333333333333 314.4533333333334 469.3333333333333 256.64 469.3333333333333 192C469.3333333333333 74.24 373.76 -21.3333333333333 256 -21.3333333333333C218.0266666666667 -21.3333333333333 182.6133333333334 -11.52 151.68 5.76L123.52 -34.3466666666666L88.5333333333333 -9.8133333333333M256 362.6666666666667C161.7066666666667 362.6666666666667 85.3333333333333 286.2933333333334 85.3333333333333 192C85.3333333333333 141.8666666666667 106.6666666666667 96.8533333333334 141.44 65.4933333333333L335.5733333333333 343.04C311.8933333333333 355.6266666666667 284.8 362.6666666666667 256 362.6666666666667M256 21.3333333333334C350.2933333333334 21.3333333333334 426.6666666666667 97.7066666666667 426.6666666666667 192C426.6666666666667 242.1333333333334 405.3333333333333 287.1466666666667 370.56 318.5066666666667L176.4266666666667 40.96C200.1066666666667 28.3733333333334 227.2000000000001 21.3333333333334 256 21.3333333333334z" /></svg>