<?xml version="1.0" encoding="UTF-8"?><!DOCTYPE svg PUBLIC "-//W3C//DTD SVG 1.1//EN" "http://www.w3.org/Graphics/SVG/1.1/DTD/svg11.dtd"><svg xmlns="http://www.w3.org/2000/svg" xmlns:xlink="http://www.w3.org/1999/xlink" version="1.1" width="512" height="512" viewBox="0 0 512 512">    <path fill="#ffffff" transform="scale(1, -1) translate(0, -448)" glyph-name="cellphone-iphone" unicode="&#xF120;" horiz-adv-x="512" d=" M341.3333333333333 64H149.3333333333333V362.6666666666667H341.3333333333333M245.3333333333333 -21.3333333333333C227.6266666666667 -21.3333333333333 213.3333333333333 -7.04 213.3333333333333 10.6666666666667S227.6266666666667 42.6666666666667 245.3333333333333 42.6666666666667S277.3333333333333 28.3733333333333 277.3333333333333 10.6666666666667S263.04 -21.3333333333333 245.3333333333333 -21.3333333333333M330.6666666666667 426.6666666666667H160C130.56 426.6666666666667 106.6666666666667 402.7733333333333 106.6666666666667 373.3333333333334V10.6666666666667C106.6666666666667 -18.7733333333333 130.56 -42.6666666666666 160 -42.6666666666666H330.6666666666667C360.1066666666667 -42.6666666666666 384 -18.7733333333333 384 10.6666666666667V373.3333333333334C384 402.7733333333333 360.1066666666667 426.6666666666667 330.6666666666667 426.6666666666667z" /></svg>