<?xml version="1.0" encoding="UTF-8"?><!DOCTYPE svg PUBLIC "-//W3C//DTD SVG 1.1//EN" "http://www.w3.org/Graphics/SVG/1.1/DTD/svg11.dtd"><svg xmlns="http://www.w3.org/2000/svg" xmlns:xlink="http://www.w3.org/1999/xlink" version="1.1" width="512" height="512" viewBox="0 0 512 512">    <path fill="#ffffff" transform="scale(1, -1) translate(0, -448)" glyph-name="shield-off-outline" unicode="&#xF99B;" horiz-adv-x="512" d=" M21.3333333333333 356.9066666666667L64 314.24V213.3333333333334C64 94.9333333333333 145.92 -15.7866666666667 256 -42.6666666666666C295.8933333333333 -32.8533333333333 332.16 -11.9466666666666 362.0266666666667 16.2133333333333L410.2399999999999 -32L437.3333333333333 -4.6933333333333L48.64 384L21.3333333333333 356.9066666666667M256 0C176 21.3333333333334 106.6666666666667 116.48 106.6666666666667 208.64V271.5733333333334L332.5866666666667 45.6533333333334C309.9733333333333 23.68 283.7333333333334 7.4666666666667 256 0M448 341.3333333333334V213.3333333333334C448 164.6933333333334 434.1333333333334 117.3333333333334 410.24 76.8000000000001L379.0933333333333 107.7333333333334C395.52 138.6666666666667 405.3333333333333 174.0800000000001 405.3333333333333 208.6400000000001V313.6L256 380.1600000000001L152.7466666666667 334.0800000000001L120.5333333333333 366.5066666666667L256 426.6666666666667L448 341.3333333333334z" /></svg>