<?xml version="1.0" encoding="UTF-8"?><!DOCTYPE svg PUBLIC "-//W3C//DTD SVG 1.1//EN" "http://www.w3.org/Graphics/SVG/1.1/DTD/svg11.dtd"><svg xmlns="http://www.w3.org/2000/svg" xmlns:xlink="http://www.w3.org/1999/xlink" version="1.1" width="512" height="512" viewBox="0 0 512 512">    <path fill="#ffffff" transform="scale(1, -1) translate(0, -448)" glyph-name="smog" unicode="&#xFA70;" horiz-adv-x="512" d=" M256 405.3333333333333C215.04 405.3333333333333 181.3333333333333 376.5333333333333 172.5866666666667 338.1333333333334C158.9333333333333 353.28 139.3066666666667 362.6666666666667 117.3333333333333 362.6666666666667C76.16 362.6666666666667 42.6666666666667 329.1733333333334 42.6666666666667 288S76.16 213.3333333333334 117.3333333333333 213.3333333333334H142.5066666666667V192H228.6933333333333V213.3333333333334H283.3066666666666V192H369.4933333333334V213.3333333333334H394.6666666666667C435.84 213.3333333333334 469.3333333333333 246.8266666666667 469.3333333333333 288S435.84 362.6666666666667 394.6666666666667 362.6666666666667C372.6933333333333 362.6666666666667 353.0666666666667 353.28 339.4133333333333 338.1333333333334C330.6666666666667 376.5333333333333 296.96 405.3333333333333 256 405.3333333333333M153.6 149.3333333333334L136.5333333333333 -21.3333333333333H234.6666666666667L217.6 149.3333333333334H153.6M294.4 149.3333333333334L277.3333333333333 -21.3333333333333H375.4666666666666L358.3999999999999 149.3333333333334H294.3999999999999z" /></svg>