<?xml version="1.0" encoding="UTF-8"?><!DOCTYPE svg PUBLIC "-//W3C//DTD SVG 1.1//EN" "http://www.w3.org/Graphics/SVG/1.1/DTD/svg11.dtd"><svg xmlns="http://www.w3.org/2000/svg" xmlns:xlink="http://www.w3.org/1999/xlink" version="1.1" width="512" height="512" viewBox="0 0 512 512">    <path fill="#ffffff" transform="scale(1, -1) translate(0, -448)" glyph-name="dump-truck" unicode="&#xFC43;" horiz-adv-x="512" d=" M426.6666666666667 277.3333333333334H320V149.3333333333334H42.6666666666667V85.3333333333334H64C64 49.92 92.5866666666667 21.3333333333334 128 21.3333333333334S192 49.92 192 85.3333333333334H320C320 49.92 348.5866666666667 21.3333333333334 384 21.3333333333334S448 49.92 448 85.3333333333334H490.6666666666666V192L426.6666666666667 277.3333333333334M128 53.3333333333334C110.2933333333333 53.3333333333334 96 67.6266666666667 96 85.3333333333334S110.2933333333333 117.3333333333334 128 117.3333333333334S160 103.04 160 85.3333333333334S145.7066666666667 53.3333333333334 128 53.3333333333334M384 53.3333333333334C366.2933333333334 53.3333333333334 352 67.6266666666667 352 85.3333333333334S366.2933333333334 117.3333333333334 384 117.3333333333334S416 103.04 416 85.3333333333334S401.7066666666666 53.3333333333334 384 53.3333333333334M362.6666666666667 192V245.3333333333334H416L457.8133333333333 192H362.6666666666667M384 298.6666666666667H298.6666666666667V170.6666666666667H64L33.4933333333333 277.3333333333334H21.3333333333333V320H277.3333333333333L298.6666666666667 341.3333333333334H384V298.6666666666667z" /></svg>