<?xml version="1.0" encoding="UTF-8"?><!DOCTYPE svg PUBLIC "-//W3C//DTD SVG 1.1//EN" "http://www.w3.org/Graphics/SVG/1.1/DTD/svg11.dtd"><svg xmlns="http://www.w3.org/2000/svg" xmlns:xlink="http://www.w3.org/1999/xlink" version="1.1" width="512" height="512" viewBox="0 0 512 512">    <path fill="#ffffff" transform="scale(1, -1) translate(0, -448)" glyph-name="dishwasher" unicode="&#xFAAB;" horiz-adv-x="512" d=" M384 405.3333333333333H128C104.5333333333333 405.3333333333333 85.3333333333333 386.1333333333334 85.3333333333333 362.6666666666667V21.3333333333334C85.3333333333333 -2.1333333333333 104.5333333333333 -21.3333333333333 128 -21.3333333333333H384C407.4666666666667 -21.3333333333333 426.6666666666667 -2.1333333333333 426.6666666666667 21.3333333333334V362.6666666666667C426.6666666666667 386.1333333333334 407.4666666666667 405.3333333333333 384 405.3333333333333M213.3333333333333 362.6666666666667C225.0666666666667 362.6666666666667 234.6666666666667 353.0666666666667 234.6666666666667 341.3333333333334S225.0666666666667 320 213.3333333333333 320S192 329.6 192 341.3333333333334S201.6 362.6666666666667 213.3333333333333 362.6666666666667M149.3333333333333 362.6666666666667C161.0666666666667 362.6666666666667 170.6666666666667 353.0666666666667 170.6666666666667 341.3333333333334S161.0666666666667 320 149.3333333333333 320S128 329.6 128 341.3333333333334S137.6 362.6666666666667 149.3333333333333 362.6666666666667M384 21.3333333333334H128V277.3333333333334H384V21.3333333333334M312.96 120.96C313.3866666666667 106.0266666666666 307.4133333333333 91.52 296.7466666666667 80.8533333333334C274.3466666666667 58.4533333333333 237.8666666666667 58.24 215.2533333333333 80.8533333333334C204.5866666666667 91.52 198.6133333333334 106.0266666666666 199.04 120.96C200.5333333333333 136.1066666666667 205.44 150.6133333333334 213.3333333333333 163.6266666666667C221.2266666666666 181.3333333333333 230.6133333333334 197.76 241.7066666666667 213.3333333333333L256 234.6666666666667C294.1866666666666 179.4133333333333 312.96 141.6533333333333 312.96 120.96" /></svg>