<?xml version="1.0" encoding="UTF-8"?><!DOCTYPE svg PUBLIC "-//W3C//DTD SVG 1.1//EN" "http://www.w3.org/Graphics/SVG/1.1/DTD/svg11.dtd"><svg xmlns="http://www.w3.org/2000/svg" xmlns:xlink="http://www.w3.org/1999/xlink" version="1.1" width="512" height="512" viewBox="0 0 512 512">    <path fill="#ffffff" transform="scale(1, -1) translate(0, -448)" glyph-name="heart-circle" unicode="&#xF970;" horiz-adv-x="512" d=" M256 405.3333333333333C138.0266666666667 405.3333333333333 42.6666666666667 309.3333333333334 42.6666666666667 192C42.6666666666667 74.24 138.24 -21.3333333333333 256 -21.3333333333333S469.3333333333333 74.24 469.3333333333333 192S373.76 405.3333333333333 256 405.3333333333333M208 281.1733333333334C226.56 281.1733333333334 244.2666666666667 272.4266666666667 256 258.7733333333333C267.7333333333334 272.4266666666667 285.44 281.1733333333333 304 281.1733333333333C336.8533333333333 281.1733333333333 362.6666666666667 255.36 362.6666666666667 222.5066666666667C362.6666666666667 182.1866666666667 326.4 149.3333333333334 271.36 99.4133333333334L256 85.3333333333334L240.64 99.4133333333334C185.6 149.3333333333334 149.3333333333333 182.1866666666667 149.3333333333333 222.5066666666667C149.3333333333333 255.36 175.1466666666667 281.1733333333334 208 281.1733333333334z" /></svg>