<?xml version="1.0" encoding="UTF-8"?><!DOCTYPE svg PUBLIC "-//W3C//DTD SVG 1.1//EN" "http://www.w3.org/Graphics/SVG/1.1/DTD/svg11.dtd"><svg xmlns="http://www.w3.org/2000/svg" xmlns:xlink="http://www.w3.org/1999/xlink" version="1.1" width="512" height="512" viewBox="0 0 512 512">    <path fill="#ffffff" transform="scale(1, -1) translate(0, -448)" glyph-name="link-off" unicode="&#xF338;" horiz-adv-x="512" d=" M362.6666666666667 298.6666666666667H277.3333333333333V258.1333333333334H362.6666666666667C399.1466666666667 258.1333333333334 428.8 228.48 428.8 192C428.8 161.4933333333334 407.8933333333333 135.8933333333334 379.5200000000001 128L410.6666666666668 97.28C445.44 114.9866666666667 469.3333333333333 150.4 469.3333333333333 192C469.3333333333333 250.88 421.5466666666666 298.6666666666667 362.6666666666667 298.6666666666667M341.3333333333333 213.3333333333334H294.6133333333334L337.28 170.6666666666667H341.3333333333333V213.3333333333334M42.6666666666667 356.9066666666667L109.0133333333333 290.5600000000001C70.1866666666667 274.7733333333334 42.6666666666667 236.5866666666667 42.6666666666667 192C42.6666666666667 133.12 90.4533333333333 85.3333333333334 149.3333333333333 85.3333333333334H234.6666666666667V125.8666666666667H149.3333333333333C112.8533333333333 125.8666666666667 83.2 155.5200000000001 83.2 192C83.2 225.92 109.0133333333333 253.8666666666667 142.08 257.4933333333334L186.24 213.3333333333334H170.6666666666667V170.6666666666667H228.9066666666667L277.3333333333333 122.24V85.3333333333334H314.24L399.7866666666667 0L426.6666666666667 26.8800000000001L69.76 384L42.6666666666667 356.9066666666667z" /></svg>