<?xml version="1.0" encoding="UTF-8"?><!DOCTYPE svg PUBLIC "-//W3C//DTD SVG 1.1//EN" "http://www.w3.org/Graphics/SVG/1.1/DTD/svg11.dtd"><svg xmlns="http://www.w3.org/2000/svg" xmlns:xlink="http://www.w3.org/1999/xlink" version="1.1" width="512" height="512" viewBox="0 0 512 512">    <path fill="#ffffff" transform="scale(1, -1) translate(0, -448)" glyph-name="thumb-down-outline" unicode="&#xF512;" horiz-adv-x="512" d=" M405.3333333333333 128V384H490.6666666666666V128H405.3333333333333M320 384C343.4666666666667 384 362.6666666666667 364.8 362.6666666666667 341.3333333333334V128C362.6666666666667 116.2666666666667 357.9733333333334 105.6 350.08 97.92L209.7066666666667 -42.6666666666666L187.0933333333333 -20.0533333333333C181.3333333333333 -14.2933333333333 177.7066666666667 -6.4 177.7066666666667 2.5599999999999L178.3466666666666 9.1733333333333L198.6133333333333 106.6666666666666H64C40.32 106.6666666666666 21.3333333333333 125.8666666666666 21.3333333333333 149.3333333333333V192C21.3333333333333 197.5466666666666 22.4 202.6666666666666 24.32 207.5733333333333L88.7466666666667 357.9733333333333C95.1466666666667 373.3333333333334 110.2933333333333 384 128 384H320M320 341.3333333333334H127.36L64 192V149.3333333333334H251.3066666666667L227.2 35.84L320 128.64V341.3333333333334z" /></svg>