<?xml version="1.0" encoding="UTF-8"?><!DOCTYPE svg PUBLIC "-//W3C//DTD SVG 1.1//EN" "http://www.w3.org/Graphics/SVG/1.1/DTD/svg11.dtd"><svg xmlns="http://www.w3.org/2000/svg" xmlns:xlink="http://www.w3.org/1999/xlink" version="1.1" width="512" height="512" viewBox="0 0 512 512">    <path fill="#ffffff" transform="scale(1, -1) translate(0, -448)" glyph-name="camera-rear" unicode="&#xF106;" horiz-adv-x="512" d=" M256 320C232.32 320 213.3333333333333 339.2000000000001 213.3333333333333 362.6666666666667S232.5333333333334 405.3333333333333 256 405.3333333333333C279.2533333333334 405.3333333333333 298.6666666666667 386.1333333333334 298.6666666666667 362.6666666666667S279.4666666666667 320 256 320M362.6666666666667 448H149.3333333333333C125.8666666666667 448 106.6666666666667 428.8 106.6666666666667 405.3333333333333V106.6666666666667C106.6666666666667 83.2 125.8666666666667 64 149.3333333333333 64H362.6666666666667C386.1333333333334 64 405.3333333333333 83.2 405.3333333333333 106.6666666666667V405.3333333333333C405.3333333333333 428.8 386.1333333333334 448 362.6666666666667 448M298.6666666666667 21.3333333333334V-21.3333333333333H405.3333333333333V21.3333333333334M213.3333333333333 21.3333333333334H106.6666666666667V-21.3333333333333H213.3333333333333V-64L277.3333333333333 0L213.3333333333333 64V21.3333333333334z" /></svg>