<?xml version="1.0" encoding="UTF-8"?><!DOCTYPE svg PUBLIC "-//W3C//DTD SVG 1.1//EN" "http://www.w3.org/Graphics/SVG/1.1/DTD/svg11.dtd"><svg xmlns="http://www.w3.org/2000/svg" xmlns:xlink="http://www.w3.org/1999/xlink" version="1.1" width="512" height="512" viewBox="0 0 512 512">    <path fill="#ffffff" transform="scale(1, -1) translate(0, -448)" glyph-name="format-header-3" unicode="&#xF26D;" horiz-adv-x="512" d=" M64 362.6666666666667H106.6666666666667V234.6666666666667H192V362.6666666666667H234.6666666666667V64H192V192H106.6666666666667V64H64V362.6666666666667M320 362.6666666666667H405.3333333333333C428.8 362.6666666666667 448 343.4666666666667 448 320V106.6666666666667C448 83.2 428.8 64 405.3333333333333 64H320C296.5333333333333 64 277.3333333333333 83.2 277.3333333333333 106.6666666666667V128H320V106.6666666666667H405.3333333333333V192H320V234.6666666666667H405.3333333333333V320H320V298.6666666666667H277.3333333333333V320C277.3333333333333 343.4666666666667 296.5333333333333 362.6666666666667 320 362.6666666666667z" /></svg>