<?xml version="1.0" encoding="UTF-8"?><!DOCTYPE svg PUBLIC "-//W3C//DTD SVG 1.1//EN" "http://www.w3.org/Graphics/SVG/1.1/DTD/svg11.dtd"><svg xmlns="http://www.w3.org/2000/svg" xmlns:xlink="http://www.w3.org/1999/xlink" version="1.1" width="512" height="512" viewBox="0 0 512 512">    <path fill="#ffffff" transform="scale(1, -1) translate(0, -448)" glyph-name="tower-beach" unicode="&#xF680;" horiz-adv-x="512" d=" M362.6666666666667 362.6666666666667V277.3333333333334H384V234.6666666666667H376.32L448 -42.6666666666666H403.84L391.8933333333333 3.6266666666667L256 82.1333333333334L120.1066666666667 3.6266666666667L108.16 -42.6666666666666H64L135.68 234.6666666666667H128V277.3333333333334H149.3333333333333V362.6666666666667H128V384L384 426.6666666666667V362.6666666666667H362.6666666666667M155.3066666666667 140.16L135.04 61.44L213.3333333333333 106.6666666666667L155.3066666666667 140.16M332.16 234.6666666666667H179.84L166.4 183.04L256 131.2000000000001L345.6 183.04L332.16 234.6666666666667M376.9599999999999 61.4400000000001L356.6933333333333 140.1600000000001L298.6666666666667 106.6666666666667L376.9600000000001 61.44z" /></svg>