<?xml version="1.0" encoding="UTF-8"?><!DOCTYPE svg PUBLIC "-//W3C//DTD SVG 1.1//EN" "http://www.w3.org/Graphics/SVG/1.1/DTD/svg11.dtd"><svg xmlns="http://www.w3.org/2000/svg" xmlns:xlink="http://www.w3.org/1999/xlink" version="1.1" width="512" height="512" viewBox="0 0 512 512">    <path fill="#ffffff" transform="scale(1, -1) translate(0, -448)" glyph-name="coins" unicode="&#xF694;" horiz-adv-x="512" d=" M320 362.6666666666667C414.2933333333334 362.6666666666667 490.6666666666666 286.2933333333334 490.6666666666666 192S414.2933333333334 21.3333333333334 320 21.3333333333334S149.3333333333333 97.7066666666667 149.3333333333333 192S225.7066666666667 362.6666666666667 320 362.6666666666667M320 64C390.6133333333333 64 448 121.3866666666667 448 192S390.6133333333333 320 320 320S192 262.6133333333334 192 192S249.3866666666667 64 320 64M64 192C64 136.3200000000001 99.6266666666667 88.96 149.3333333333333 71.4666666666667V26.8800000000001C75.7333333333333 45.8666666666667 21.3333333333333 112.4266666666667 21.3333333333333 192.0000000000001C21.3333333333333 271.5733333333334 75.7333333333333 338.1333333333334 149.3333333333333 357.1200000000001V312.5333333333334C99.6266666666667 295.04 64 247.68 64 192z" /></svg>