<?xml version="1.0" encoding="UTF-8"?><!DOCTYPE svg PUBLIC "-//W3C//DTD SVG 1.1//EN" "http://www.w3.org/Graphics/SVG/1.1/DTD/svg11.dtd"><svg xmlns="http://www.w3.org/2000/svg" xmlns:xlink="http://www.w3.org/1999/xlink" version="1.1" width="512" height="512" viewBox="0 0 512 512">    <path fill="#ffffff" transform="scale(1, -1) translate(0, -448)" glyph-name="satellite-variant" unicode="&#xF471;" horiz-adv-x="512" d=" M247.8933333333333 426.6666666666667L368.64 305.7066666666667L323.4133333333333 260.48L278.1866666666666 305.7066666666667L247.8933333333333 275.4133333333334L297.6 225.92L272.8533333333333 200.96L282.4533333333333 191.1466666666667C302.2933333333333 200.32 326.6133333333333 196.9066666666667 342.8266666666667 180.48L267.52 105.1733333333334C251.0933333333334 121.3866666666667 247.68 145.7066666666667 256.8533333333334 165.5466666666667L247.04 175.1466666666667L222.08 150.4L172.5866666666667 200.1066666666667L142.2933333333333 169.8133333333333L187.52 124.5866666666667L142.2933333333333 79.36L21.3333333333333 200.1066666666667L66.9866666666667 245.3333333333334L112.2133333333333 200.1066666666667L142.2933333333333 230.1866666666667L81.92 290.56C65.28 307.2 65.28 334.2933333333333 81.92 350.9333333333334L97.0666666666667 366.08C113.7066666666667 382.7200000000001 140.8 382.7200000000001 157.44 366.08L217.8133333333333 305.7066666666667L247.8933333333334 335.7866666666667L202.6666666666667 381.0133333333333L247.8933333333333 426.6666666666667M384 149.3333333333334C384 102.1866666666667 345.8133333333334 64 298.6666666666667 64V106.6666666666667C322.1333333333334 106.6666666666667 341.3333333333333 125.8666666666667 341.3333333333333 149.3333333333334H384M469.3333333333333 149.3333333333334C469.3333333333333 55.04 392.9600000000001 -21.3333333333333 298.6666666666667 -21.3333333333333V21.3333333333334C369.28 21.3333333333334 426.6666666666667 78.72 426.6666666666667 149.3333333333334H469.3333333333333z" /></svg>