<?xml version="1.0" encoding="UTF-8"?><!DOCTYPE svg PUBLIC "-//W3C//DTD SVG 1.1//EN" "http://www.w3.org/Graphics/SVG/1.1/DTD/svg11.dtd"><svg xmlns="http://www.w3.org/2000/svg" xmlns:xlink="http://www.w3.org/1999/xlink" version="1.1" width="512" height="512" viewBox="0 0 512 512">    <path fill="#ffffff" transform="scale(1, -1) translate(0, -448)" glyph-name="emoticon-excited" unicode="&#xFC4C;" horiz-adv-x="512" d=" M256 405.3333333333333C138.0266666666667 405.3333333333333 42.6666666666667 309.9733333333334 42.6666666666667 192S138.0266666666667 -21.3333333333333 256 -21.3333333333333C373.76 -21.3333333333333 469.3333333333333 74.24 469.3333333333333 192C469.3333333333333 309.9733333333334 373.3333333333333 405.3333333333333 256 405.3333333333333M189.44 281.1733333333334L234.6666666666667 235.9466666666667L212.0533333333333 213.3333333333334L189.44 235.9466666666667L166.8266666666667 213.3333333333334L144.2133333333333 235.9466666666667L189.44 281.1733333333334M256 74.6666666666667C206.2933333333333 74.6666666666667 164.0533333333334 105.8133333333334 146.9866666666667 149.3333333333334H365.0133333333333C347.9466666666666 105.8133333333334 305.7066666666667 74.6666666666667 256 74.6666666666667M345.1733333333333 213.3333333333334L322.56 235.9466666666667L299.9466666666667 213.3333333333334L277.3333333333333 235.9466666666667L322.56 281.1733333333334L367.7866666666667 235.9466666666667L345.1733333333333 213.3333333333334z" /></svg>