<?xml version="1.0" encoding="UTF-8"?><!DOCTYPE svg PUBLIC "-//W3C//DTD SVG 1.1//EN" "http://www.w3.org/Graphics/SVG/1.1/DTD/svg11.dtd"><svg xmlns="http://www.w3.org/2000/svg" xmlns:xlink="http://www.w3.org/1999/xlink" version="1.1" width="512" height="512" viewBox="0 0 512 512">    <path fill="#ffffff" transform="scale(1, -1) translate(0, -448)" glyph-name="svg" unicode="&#xF720;" horiz-adv-x="512" d=" M109.44 219.52H189.2266666666667L132.6933333333333 276.0533333333334C111.1466666666667 276.0533333333334 93.6533333333333 293.5466666666667 93.6533333333333 315.3066666666667C93.6533333333333 336.8533333333334 111.1466666666667 354.3466666666667 132.6933333333333 354.3466666666667C154.4533333333333 354.3466666666667 171.9466666666667 336.8533333333334 171.9466666666667 315.3066666666667L228.48 258.7733333333333V338.56C213.3333333333333 353.92 213.3333333333333 378.6666666666667 228.48 393.8133333333334C243.6266666666667 409.1733333333334 268.3733333333334 409.1733333333334 283.52 393.8133333333334C298.6666666666667 378.6666666666667 298.6666666666667 353.92 283.52 338.56V258.7733333333333L340.2666666666667 315.3066666666667C340.2666666666667 336.8533333333334 357.5466666666667 354.3466666666667 379.3066666666667 354.3466666666667C400.8533333333334 354.3466666666667 418.3466666666667 336.8533333333334 418.3466666666667 315.3066666666667C418.3466666666667 293.5466666666667 400.8533333333333 276.0533333333334 379.3066666666667 276.0533333333334L322.7733333333333 219.52H402.56C417.92 234.6666666666667 442.6666666666667 234.6666666666667 457.8133333333333 219.52C473.1733333333333 204.3733333333333 473.1733333333333 179.6266666666667 457.8133333333333 164.48C442.6666666666667 149.3333333333334 417.92 149.3333333333334 402.56 164.48H322.7733333333333L379.3066666666667 107.7333333333334C400.8533333333334 107.7333333333334 418.3466666666667 90.4533333333333 418.3466666666667 68.6933333333333C418.3466666666667 47.1466666666667 400.8533333333333 29.6533333333334 379.3066666666667 29.6533333333334C357.5466666666667 29.6533333333334 340.2666666666667 47.1466666666667 340.2666666666667 68.6933333333333L283.52 125.2266666666667V45.44C298.6666666666667 30.08 298.6666666666667 5.3333333333334 283.52 -9.8133333333333C268.3733333333334 -25.1733333333333 243.6266666666667 -25.1733333333333 228.48 -9.8133333333333C213.3333333333333 5.3333333333334 213.3333333333333 30.08 228.48 45.44V125.2266666666667L171.9466666666667 68.6933333333333C171.9466666666667 47.1466666666667 154.4533333333333 29.6533333333334 132.6933333333333 29.6533333333334C111.1466666666667 29.6533333333334 93.6533333333333 47.1466666666667 93.6533333333333 68.6933333333333C93.6533333333333 90.4533333333333 111.1466666666667 107.7333333333334 132.6933333333333 107.7333333333334L189.2266666666667 164.48H109.44C94.08 149.3333333333334 69.3333333333333 149.3333333333334 54.1866666666667 164.48C38.8266666666667 179.6266666666667 38.8266666666667 204.3733333333333 54.1866666666667 219.52C69.3333333333333 234.6666666666667 94.08 234.6666666666667 109.44 219.52z" /></svg>