<?xml version="1.0" encoding="UTF-8"?><!DOCTYPE svg PUBLIC "-//W3C//DTD SVG 1.1//EN" "http://www.w3.org/Graphics/SVG/1.1/DTD/svg11.dtd"><svg xmlns="http://www.w3.org/2000/svg" xmlns:xlink="http://www.w3.org/1999/xlink" version="1.1" width="512" height="512" viewBox="0 0 512 512">    <path fill="#ffffff" transform="scale(1, -1) translate(0, -448)" glyph-name="car-light-dimmed" unicode="&#xFC26;" horiz-adv-x="512" d=" M277.3333333333333 345.6C192 345.6 192 38.4 277.3333333333333 38.4S469.3333333333333 96 469.3333333333333 192S362.6666666666667 345.6 277.3333333333333 345.6M279.4666666666667 81.0666666666667C270.9333333333333 89.6 256 128 256 192S270.9333333333333 294.4 279.4666666666667 302.9333333333334C341.3333333333333 300.8 426.6666666666667 262.4000000000001 426.6666666666667 192C426.6666666666667 121.6 339.2 83.2 279.4666666666667 81.0666666666667M170.6666666666667 224C170.6666666666667 213.3333333333334 168.5333333333333 202.6666666666667 168.5333333333333 192V179.2000000000001L51.2 149.3333333333334L40.5333333333333 189.8666666666667L170.6666666666667 224M42.6666666666667 298.6666666666667L200.5333333333333 339.2000000000001C196.2666666666667 332.8 192 324.2666666666667 189.8666666666667 313.6C187.7333333333334 307.2000000000001 185.6 298.6666666666667 183.4666666666667 290.1333333333334L53.3333333333333 258.1333333333334L42.6666666666667 298.6666666666667M174.9333333333333 117.3333333333334C177.0666666666666 102.4 181.3333333333333 87.4666666666667 185.6 76.8000000000001L51.2 42.6666666666667L40.5333333333333 83.2L174.9333333333333 117.3333333333333z" /></svg>