<?xml version="1.0" encoding="UTF-8"?><!DOCTYPE svg PUBLIC "-//W3C//DTD SVG 1.1//EN" "http://www.w3.org/Graphics/SVG/1.1/DTD/svg11.dtd"><svg xmlns="http://www.w3.org/2000/svg" xmlns:xlink="http://www.w3.org/1999/xlink" version="1.1" width="512" height="512" viewBox="0 0 512 512">    <path fill="#ffffff" transform="scale(1, -1) translate(0, -448)" glyph-name="sort-alphabetical" unicode="&#xF4BB;" horiz-adv-x="512" d=" M197.3333333333333 341.3333333333334L266.6666666666667 410.6666666666667L336 341.3333333333334H197.3333333333333M336 42.6666666666667L266.6666666666667 -26.6666666666666L197.3333333333333 42.6666666666667H336M189.6533333333333 142.9333333333333H128L112.64 85.3333333333334H62.08L128 298.6666666666667H192L258.7733333333333 85.3333333333334H206.2933333333333L189.6533333333333 142.9333333333333M135.04 177.4933333333334H182.6133333333334L169.1733333333334 222.72L163.6266666666667 243.4133333333334L158.2933333333334 263.8933333333334H157.6533333333333L152.96 243.2L147.84 222.2933333333334L135.04 177.4933333333334M278.4 85.3333333333334V112.2133333333334L379.7333333333334 256.64V257.92H288V298.6666666666667H442.24V270.0800000000001L343.2533333333334 128V126.2933333333334H443.7333333333334V85.3333333333334H278.4z" /></svg>