<?xml version="1.0" encoding="UTF-8"?><!DOCTYPE svg PUBLIC "-//W3C//DTD SVG 1.1//EN" "http://www.w3.org/Graphics/SVG/1.1/DTD/svg11.dtd"><svg xmlns="http://www.w3.org/2000/svg" xmlns:xlink="http://www.w3.org/1999/xlink" version="1.1" width="512" height="512" viewBox="0 0 512 512">    <path fill="#ffffff" transform="scale(1, -1) translate(0, -448)" glyph-name="hololens" unicode="&#xF2DB;" horiz-adv-x="512" d=" M256 277.3333333333334S469.3333333333333 277.3333333333334 469.3333333333333 213.3333333333334C469.3333333333333 213.3333333333334 471.2533333333333 141.6533333333334 464 144C448 213.3333333333334 256 213.3333333333334 256 213.3333333333334S64 213.3333333333334 48 144C40.7466666666667 141.6533333333334 42.6666666666667 213.3333333333334 42.6666666666667 213.3333333333334C42.6666666666667 277.3333333333334 256 277.3333333333334 256 277.3333333333334M256 192C426.6666666666667 192 442.6666666666667 144 442.6666666666667 144C421.3333333333333 80 405.3333333333333 64 320 64C256 64 277.3333333333333 96 256 96S256 64 192 64C106.6666666666667 64 90.6666666666667 80 69.3333333333333 144C69.3333333333333 144 85.3333333333333 192 256 192z" /></svg>