<?xml version="1.0" encoding="UTF-8"?><!DOCTYPE svg PUBLIC "-//W3C//DTD SVG 1.1//EN" "http://www.w3.org/Graphics/SVG/1.1/DTD/svg11.dtd"><svg xmlns="http://www.w3.org/2000/svg" xmlns:xlink="http://www.w3.org/1999/xlink" version="1.1" width="512" height="512" viewBox="0 0 512 512">    <path fill="#ffffff" transform="scale(1, -1) translate(0, -448)" glyph-name="dictionary" unicode="&#xF61D;" horiz-adv-x="512" d=" M123.9466666666667 405.3333333333333C103.04 403.4133333333334 85.3333333333333 384 85.3333333333333 362.6666666666667V21.3333333333334C85.3333333333333 -1.0666666666667 105.6 -21.3333333333333 128 -21.3333333333333H384C406.4 -21.3333333333333 426.6666666666667 -1.0666666666667 426.6666666666667 21.3333333333334V362.6666666666667C426.6666666666667 386.3466666666667 407.4666666666667 405.3333333333333 384 405.3333333333333H256V256L202.6666666666667 288L149.3333333333333 256V405.3333333333333H123.9466666666667M256 170.6666666666667H277.3333333333333C289.0666666666667 170.6666666666667 298.6666666666667 161.0666666666667 298.6666666666667 149.3333333333334V64H277.3333333333333V106.6666666666667H256V64H234.6666666666667V149.3333333333334C234.6666666666667 161.0666666666667 244.2666666666667 170.6666666666667 256 170.6666666666667M256 149.3333333333334V128H277.3333333333333V149.3333333333334H256M320 128H384V106.6666666666667L341.3333333333333 42.6666666666667H384V21.3333333333334H320V42.6666666666667L362.6666666666667 106.6666666666667H320V128z" /></svg>