<?xml version="1.0" encoding="UTF-8"?><!DOCTYPE svg PUBLIC "-//W3C//DTD SVG 1.1//EN" "http://www.w3.org/Graphics/SVG/1.1/DTD/svg11.dtd"><svg xmlns="http://www.w3.org/2000/svg" xmlns:xlink="http://www.w3.org/1999/xlink" version="1.1" width="512" height="512" viewBox="0 0 512 512">    <path fill="#ffffff" transform="scale(1, -1) translate(0, -448)" glyph-name="wiper" unicode="&#xFAE8;" horiz-adv-x="512" d=" M256 362.6666666666667C106.6666666666667 362.6666666666667 42.6666666666667 256 42.6666666666667 256L192 106.6666666666667S202.6666666666667 125.8666666666667 221.8666666666667 138.6666666666667L228.2666666666667 96C219.7333333333334 89.6 213.3333333333334 76.8000000000001 213.3333333333334 64C213.3333333333334 40.5333333333333 232.5333333333334 21.3333333333334 256 21.3333333333334S298.6666666666667 40.5333333333333 298.6666666666667 64C298.6666666666667 83.2 288 98.1333333333334 270.9333333333334 104.5333333333333L262.4 149.3333333333333C300.8 145.0666666666667 320 106.6666666666667 320 106.6666666666667L469.3333333333333 256S405.3333333333333 362.6666666666667 256 362.6666666666667M322.1333333333334 168.5333333333334C305.0666666666666 181.3333333333334 283.7333333333333 192 256 192L234.6666666666667 317.8666666666667C241.0666666666667 320 249.6 320 256 320C334.9333333333333 320 386.1333333333334 283.7333333333334 411.7333333333334 258.1333333333334L322.1333333333334 168.5333333333333M189.8666666666667 168.5333333333333L100.2666666666667 258.1333333333334C117.3333333333333 277.3333333333334 149.3333333333333 298.6666666666667 192 311.4666666666667L213.3333333333333 183.4666666666667C204.8 179.2000000000001 196.2666666666667 174.9333333333333 189.8666666666667 168.5333333333334z" /></svg>