<?xml version="1.0" encoding="UTF-8"?><!DOCTYPE svg PUBLIC "-//W3C//DTD SVG 1.1//EN" "http://www.w3.org/Graphics/SVG/1.1/DTD/svg11.dtd"><svg xmlns="http://www.w3.org/2000/svg" xmlns:xlink="http://www.w3.org/1999/xlink" version="1.1" width="512" height="512" viewBox="0 0 512 512">    <path fill="#ffffff" transform="scale(1, -1) translate(0, -448)" glyph-name="text-to-speech" unicode="&#xF50A;" horiz-adv-x="512" d=" M170.6666666666667 298.6666666666667C194.1333333333333 298.6666666666667 213.3333333333333 279.4666666666667 213.3333333333333 256V149.3333333333334C213.3333333333333 125.8666666666667 194.1333333333333 106.6666666666667 170.6666666666667 106.6666666666667S128 125.8666666666667 128 149.3333333333334V256C128 279.4666666666667 147.2 298.6666666666667 170.6666666666667 298.6666666666667M298.6666666666667 149.3333333333334C298.6666666666667 85.9733333333334 252.5866666666667 33.28 192 23.04V-21.3333333333333H149.3333333333333V23.04C88.7466666666667 33.28 42.6666666666667 85.9733333333333 42.6666666666667 149.3333333333333H85.3333333333333C85.3333333333333 102.1866666666667 123.52 64 170.6666666666667 64S256 102.1866666666667 256 149.3333333333334H298.6666666666667M456.7466666666667 247.2533333333334L366.2933333333334 156.5866666666667L387.84 234.6666666666667H298.6666666666667C275.2 234.6666666666667 256 253.8666666666667 256 277.3333333333334V362.6666666666667C256 386.1333333333334 275.2 405.3333333333333 298.6666666666667 405.3333333333333H426.6666666666667C450.1333333333334 405.3333333333333 469.3333333333333 386.1333333333334 469.3333333333333 362.6666666666667V277.3333333333334C469.3333333333333 265.6 464.64 254.9333333333334 456.7466666666667 247.2533333333334z" /></svg>