<?xml version="1.0" encoding="UTF-8"?><!DOCTYPE svg PUBLIC "-//W3C//DTD SVG 1.1//EN" "http://www.w3.org/Graphics/SVG/1.1/DTD/svg11.dtd"><svg xmlns="http://www.w3.org/2000/svg" xmlns:xlink="http://www.w3.org/1999/xlink" version="1.1" width="512" height="512" viewBox="0 0 512 512">    <path fill="#ffffff" transform="scale(1, -1) translate(0, -448)" glyph-name="emoticon-neutral-outline" unicode="&#xF1F6;" horiz-adv-x="512" d=" M256 405.3333333333333C138.24 405.3333333333333 42.6666666666667 309.76 42.6666666666667 192S138.24 -21.3333333333333 256 -21.3333333333333S469.3333333333333 74.24 469.3333333333333 192S373.76 405.3333333333333 256 405.3333333333333M256 21.3333333333334C161.7066666666667 21.3333333333334 85.3333333333333 97.7066666666667 85.3333333333333 192S161.7066666666667 362.6666666666667 256 362.6666666666667S426.6666666666667 286.2933333333334 426.6666666666667 192S350.2933333333334 21.3333333333334 256 21.3333333333334M181.3333333333333 213.3333333333334C163.6266666666667 213.3333333333334 149.3333333333333 227.6266666666667 149.3333333333333 245.3333333333334S163.6266666666667 277.3333333333334 181.3333333333333 277.3333333333334S213.3333333333333 263.04 213.3333333333333 245.3333333333334S199.04 213.3333333333334 181.3333333333333 213.3333333333334M362.6666666666667 245.3333333333334C362.6666666666667 227.6266666666667 348.3733333333333 213.3333333333334 330.6666666666667 213.3333333333334S298.6666666666667 227.6266666666667 298.6666666666667 245.3333333333334S312.96 277.3333333333334 330.6666666666667 277.3333333333334S362.6666666666667 263.04 362.6666666666667 245.3333333333334M341.3333333333333 149.3333333333334V106.6666666666667H170.6666666666667V149.3333333333334H341.3333333333333z" /></svg>