<?xml version="1.0" encoding="UTF-8"?><!DOCTYPE svg PUBLIC "-//W3C//DTD SVG 1.1//EN" "http://www.w3.org/Graphics/SVG/1.1/DTD/svg11.dtd"><svg xmlns="http://www.w3.org/2000/svg" xmlns:xlink="http://www.w3.org/1999/xlink" version="1.1" width="512" height="512" viewBox="0 0 512 512">    <path fill="#ffffff" transform="scale(1, -1) translate(0, -448)" glyph-name="pool" unicode="&#xF606;" horiz-adv-x="512" d=" M42.6666666666667 128C78.2933333333333 144 113.7066666666667 160 149.3333333333333 167.04V341.3333333333334C149.3333333333333 376.7466666666667 177.92 405.3333333333333 213.3333333333333 405.3333333333333C241.28 405.3333333333333 264.96 387.6266666666667 273.7066666666667 362.6666666666667H213.3333333333333C201.6 362.6666666666667 192 353.0666666666667 192 341.3333333333334V320H298.6666666666667V341.3333333333334C298.6666666666667 376.7466666666667 327.2533333333334 405.3333333333333 362.6666666666667 405.3333333333333C390.6133333333333 405.3333333333333 414.2933333333334 387.6266666666667 423.04 362.6666666666667H362.6666666666667C350.9333333333333 362.6666666666667 341.3333333333333 353.0666666666667 341.3333333333333 341.3333333333334V129.28C384 136.1066666666667 426.6666666666667 170.6666666666667 469.3333333333333 170.6666666666667V128C421.9733333333334 128 374.6133333333333 85.3333333333334 327.04 85.3333333333334C279.68 85.3333333333334 232.32 128 184.96 128C137.3866666666667 128 90.0266666666667 106.6666666666667 42.6666666666667 85.3333333333334V128M298.6666666666667 277.3333333333334H192V234.6666666666667H298.6666666666667V277.3333333333334M298.6666666666667 192H192V170.6666666666667C227.6266666666667 167.2533333333333 263.04 142.72 298.6666666666667 132.48V192M42.6666666666667 42.6666666666667C90.0266666666667 64 137.3866666666667 85.3333333333334 184.96 85.3333333333334C232.32 85.3333333333334 279.68 42.6666666666667 327.04 42.6666666666667C374.6133333333333 42.6666666666667 421.9733333333334 85.3333333333334 469.3333333333333 85.3333333333334V42.6666666666667C421.9733333333334 42.6666666666667 374.6133333333333 0 327.04 0C279.68 0 232.32 42.6666666666667 184.96 42.6666666666667C137.3866666666667 42.6666666666667 90.0266666666667 21.3333333333334 42.6666666666667 0V42.6666666666667z" /></svg>