<?xml version="1.0" encoding="UTF-8"?><!DOCTYPE svg PUBLIC "-//W3C//DTD SVG 1.1//EN" "http://www.w3.org/Graphics/SVG/1.1/DTD/svg11.dtd"><svg xmlns="http://www.w3.org/2000/svg" xmlns:xlink="http://www.w3.org/1999/xlink" version="1.1" width="512" height="512" viewBox="0 0 512 512">    <path fill="#ffffff" transform="scale(1, -1) translate(0, -448)" glyph-name="wifi-strength-3" unicode="&#xF924;" horiz-adv-x="512" d=" M256 384C166.1866666666667 384 78.9333333333333 353.92 8.1066666666667 298.6666666666667C94.08 190.72 168.32 98.7733333333333 256 -10.6666666666666C343.04 97.7066666666667 431.7866666666667 208.2133333333334 504.5333333333333 298.6666666666667C433.4933333333334 353.92 346.0266666666667 384 256 384M256 341.3333333333334C321.4933333333334 341.3333333333334 385.92 322.9866666666667 441.8133333333334 289.0666666666667L400.4266666666666 237.2266666666667C368.2133333333334 256 317.44 277.3333333333334 256 277.3333333333334C192 277.3333333333334 142.5066666666667 256 111.1466666666667 238.08L69.76 289.2800000000001C126.08 323.2000000000001 190.5066666666667 341.3333333333334 256 341.3333333333334z" /></svg>