<?xml version="1.0" encoding="UTF-8"?><!DOCTYPE svg PUBLIC "-//W3C//DTD SVG 1.1//EN" "http://www.w3.org/Graphics/SVG/1.1/DTD/svg11.dtd"><svg xmlns="http://www.w3.org/2000/svg" xmlns:xlink="http://www.w3.org/1999/xlink" version="1.1" width="512" height="512" viewBox="0 0 512 512">    <path fill="#ffffff" transform="scale(1, -1) translate(0, -448)" glyph-name="slack" unicode="&#xF4B1;" horiz-adv-x="512" d=" M128 128C128 104.5333333333333 108.8 85.3333333333334 85.3333333333333 85.3333333333334S42.6666666666667 104.5333333333333 42.6666666666667 128S61.8666666666667 170.6666666666667 85.3333333333333 170.6666666666667H128V128M149.3333333333333 128C149.3333333333333 151.4666666666667 168.5333333333333 170.6666666666667 192 170.6666666666667S234.6666666666667 151.4666666666667 234.6666666666667 128V21.3333333333334C234.6666666666667 -2.1333333333333 215.4666666666667 -21.3333333333333 192 -21.3333333333333S149.3333333333333 -2.1333333333333 149.3333333333333 21.3333333333334V128M192 298.6666666666667C168.5333333333333 298.6666666666667 149.3333333333333 317.8666666666667 149.3333333333333 341.3333333333334S168.5333333333333 384 192 384S234.6666666666667 364.8 234.6666666666667 341.3333333333334V298.6666666666667H192M192 277.3333333333334C215.4666666666667 277.3333333333334 234.6666666666667 258.1333333333334 234.6666666666667 234.6666666666667S215.4666666666667 192 192 192H85.3333333333333C61.8666666666667 192 42.6666666666667 211.2 42.6666666666667 234.6666666666667S61.8666666666667 277.3333333333334 85.3333333333333 277.3333333333334H192M362.6666666666667 234.6666666666667C362.6666666666667 258.1333333333334 381.8666666666666 277.3333333333334 405.3333333333333 277.3333333333334S448 258.1333333333334 448 234.6666666666667S428.8 192 405.3333333333333 192H362.6666666666667V234.6666666666667M341.3333333333333 234.6666666666667C341.3333333333333 211.2 322.1333333333334 192 298.6666666666667 192S256 211.2 256 234.6666666666667V341.3333333333334C256 364.8 275.2 384 298.6666666666667 384S341.3333333333333 364.8 341.3333333333333 341.3333333333334V234.6666666666667M298.6666666666667 64C322.1333333333334 64 341.3333333333333 44.8000000000001 341.3333333333333 21.3333333333334S322.1333333333334 -21.3333333333333 298.6666666666667 -21.3333333333333S256 -2.1333333333333 256 21.3333333333334V64H298.6666666666667M298.6666666666667 85.3333333333334C275.2 85.3333333333334 256 104.5333333333333 256 128S275.2 170.6666666666667 298.6666666666667 170.6666666666667H405.3333333333333C428.8 170.6666666666667 448 151.4666666666667 448 128S428.8 85.3333333333334 405.3333333333333 85.3333333333334H298.6666666666667z" /></svg>