<?xml version="1.0" encoding="UTF-8"?><!DOCTYPE svg PUBLIC "-//W3C//DTD SVG 1.1//EN" "http://www.w3.org/Graphics/SVG/1.1/DTD/svg11.dtd"><svg xmlns="http://www.w3.org/2000/svg" xmlns:xlink="http://www.w3.org/1999/xlink" version="1.1" width="512" height="512" viewBox="0 0 512 512">    <path fill="#ffffff" transform="scale(1, -1) translate(0, -448)" glyph-name="box" unicode="&#xF0D4;" horiz-adv-x="512" d=" M328.32 148.48C328.32 178.7733333333334 303.7866666666667 203.3066666666667 273.4933333333334 203.3066666666667C243.4133333333334 203.3066666666667 218.88 178.7733333333334 218.88 148.48C218.88 118.4 243.4133333333334 93.8666666666667 273.4933333333334 93.8666666666667C303.7866666666667 93.8666666666667 328.32 118.4000000000001 328.32 148.4800000000001M364.8 148.4800000000001C364.8 98.1333333333334 323.8400000000001 57.3866666666668 273.4933333333334 57.3866666666668C238.7200000000001 57.3866666666668 208.4266666666667 77.0133333333335 193.0666666666667 105.8133333333335C177.7066666666667 77.0133333333334 147.4133333333333 57.3866666666668 112.64 57.3866666666668C62.72 57.3866666666668 22.1866666666667 97.4933333333335 21.3333333333334 146.9866666666668V298.6666666666667C21.3333333333334 308.0533333333334 29.6533333333334 316.1600000000001 39.68 316.1600000000001S57.6 308.0533333333334 57.8133333333334 298.6666666666667V221.44C73.1733333333334 232.96 92.16 239.7866666666667 112.64 239.7866666666667C147.4133333333334 239.7866666666667 177.7066666666667 220.16 193.0666666666667 191.36C208.4266666666667 220.16 238.7200000000001 239.7866666666667 273.4933333333334 239.7866666666667C323.84 239.7866666666667 364.8 198.8266666666667 364.8 148.48M167.2533333333334 148.48C167.2533333333334 178.7733333333333 142.72 203.3066666666666 112.64 203.3066666666666C82.3466666666667 203.3066666666666 57.8133333333334 178.7733333333333 57.8133333333334 148.48C57.8133333333334 118.4 82.3466666666667 93.8666666666667 112.64 93.8666666666667C142.72 93.8666666666667 167.2533333333334 118.4 167.2533333333334 148.48M487.2533333333334 86.1866666666667C489.6 82.7733333333333 490.6666666666667 78.9333333333333 490.6666666666667 75.3066666666666C490.6666666666667 69.7599999999999 488.1066666666667 63.9999999999999 483.4133333333334 60.8C480.0000000000001 58.4533333333333 476.3733333333334 57.1733333333333 472.5333333333334 57.1733333333333C467.2 57.1733333333333 461.8666666666667 59.5199999999999 458.6666666666667 63.9999999999999L417.9200000000001 117.9733333333333L377.6 64C373.9733333333333 59.52 368.64 57.1733333333334 363.3066666666666 57.1733333333334C359.4666666666666 57.1733333333334 355.6266666666666 58.4533333333333 351.9999999999999 60.8000000000001C347.5199999999999 64 344.9599999999999 69.9733333333334 344.9599999999999 75.5200000000001C344.9599999999999 79.1466666666668 346.2399999999999 82.9866666666668 348.3733333333333 86.1866666666667L394.6666666666667 148.4800000000001L348.3733333333333 210.9866666666667C346.0266666666667 214.1866666666667 344.9599999999999 217.8133333333334 344.9599999999999 221.6533333333334C344.9599999999999 227.2000000000001 347.52 232.5333333333334 351.9999999999999 236.1600000000001C360.32 242.1333333333334 371.4133333333333 240.6400000000001 377.5999999999999 232.7466666666668L417.9199999999999 178.9866666666667L458.6666666666666 232.7466666666668C464.2133333333333 240.6400000000001 475.5199999999999 242.1333333333334 483.4133333333332 236.1600000000001C488.3199999999999 232.5333333333334 490.6666666666666 226.9866666666668 490.6666666666666 221.2266666666668C490.6666666666666 217.6000000000001 489.5999999999999 213.9733333333334 487.2533333333332 210.9866666666667L440.7466666666666 148.4800000000001L487.2533333333332 86.1866666666667z" /></svg>