<?xml version="1.0" encoding="UTF-8"?><!DOCTYPE svg PUBLIC "-//W3C//DTD SVG 1.1//EN" "http://www.w3.org/Graphics/SVG/1.1/DTD/svg11.dtd"><svg xmlns="http://www.w3.org/2000/svg" xmlns:xlink="http://www.w3.org/1999/xlink" version="1.1" width="512" height="512" viewBox="0 0 512 512">    <path fill="#ffffff" transform="scale(1, -1) translate(0, -448)" glyph-name="dice-d10" unicode="&#xF76E;" horiz-adv-x="512" d=" M458.6666666666666 217.6C471.4666666666667 202.6666666666667 471.4666666666667 181.3333333333334 458.6666666666666 166.4L281.6 -10.6666666666666C266.6666666666667 -25.6 245.3333333333333 -25.6 230.4 -10.6666666666666L53.3333333333333 166.4C38.4 181.3333333333334 38.4 202.6666666666667 53.3333333333333 217.6L230.4 394.6666666666667C245.3333333333333 409.6 266.6666666666667 409.6 281.6 394.6666666666667L458.6666666666666 217.6M433.0666666666667 192L256 369.0666666666667L78.9333333333333 192L256 14.9333333333333L433.0666666666667 192M221.44 111.1466666666667H189.44V234.6666666666667L151.04 222.9333333333333V249.1733333333334L218.0266666666667 273.0666666666667H221.44V111.1466666666667M297.1733333333333 277.3333333333334C327.4666666666667 277.3333333333334 352 252.8 352 222.5066666666667V166.1866666666667C352 135.8933333333333 327.4666666666667 111.36 297.1733333333333 111.36C266.6666666666667 111.36 242.3466666666667 135.8933333333333 242.3466666666667 166.1866666666667V222.5066666666667C242.3466666666667 252.8 266.88 277.3333333333334 297.1733333333333 277.3333333333334M296.96 246.6133333333334C284.3733333333334 246.6133333333334 274.3466666666667 236.5866666666667 274.3466666666667 224V164.9066666666667C274.3466666666667 152.3200000000001 284.3733333333334 142.2933333333334 296.96 142.2933333333334C309.3333333333333 142.2933333333334 320 152.5333333333334 320 164.9066666666667V224C320 236.5866666666667 309.3333333333333 246.6133333333334 296.96 246.6133333333334z" /></svg>