<?xml version="1.0" encoding="UTF-8"?><!DOCTYPE svg PUBLIC "-//W3C//DTD SVG 1.1//EN" "http://www.w3.org/Graphics/SVG/1.1/DTD/svg11.dtd"><svg xmlns="http://www.w3.org/2000/svg" xmlns:xlink="http://www.w3.org/1999/xlink" version="1.1" width="512" height="512" viewBox="0 0 512 512">    <path fill="#ffffff" transform="scale(1, -1) translate(0, -448)" glyph-name="lock-plus" unicode="&#xF5FB;" horiz-adv-x="512" d=" M384 277.3333333333334H362.6666666666667V320C362.6666666666667 378.88 314.88 426.6666666666667 256 426.6666666666667S149.3333333333333 378.88 149.3333333333333 320V277.3333333333334H128C104.5333333333333 277.3333333333334 85.3333333333333 258.1333333333334 85.3333333333333 234.6666666666667V21.3333333333334C85.3333333333333 -2.1333333333333 104.5333333333333 -21.3333333333333 128 -21.3333333333333H384C407.4666666666667 -21.3333333333333 426.6666666666667 -2.1333333333333 426.6666666666667 21.3333333333334V234.6666666666667C426.6666666666667 258.1333333333334 407.4666666666667 277.3333333333334 384 277.3333333333334M189.8666666666667 320C189.8666666666667 356.48 219.52 386.1333333333334 256 386.1333333333334C292.48 386.1333333333334 322.1333333333334 356.48 322.1333333333334 320V277.3333333333334H189.8666666666667V320M341.3333333333333 106.6666666666667H277.3333333333333V42.6666666666667H234.6666666666667V106.6666666666667H170.6666666666667V149.3333333333334H234.6666666666667V213.3333333333334H277.3333333333333V149.3333333333334H341.3333333333333V106.6666666666667z" /></svg>