<?xml version="1.0" encoding="UTF-8"?><!DOCTYPE svg PUBLIC "-//W3C//DTD SVG 1.1//EN" "http://www.w3.org/Graphics/SVG/1.1/DTD/svg11.dtd"><svg xmlns="http://www.w3.org/2000/svg" xmlns:xlink="http://www.w3.org/1999/xlink" version="1.1" width="512" height="512" viewBox="0 0 512 512">    <path fill="#ffffff" transform="scale(1, -1) translate(0, -448)" glyph-name="dog-service" unicode="&#xFAAC;" horiz-adv-x="512" d=" M298.6666666666667 277.3333333333334L362.6666666666667 213.3333333333334V0H320V128H170.6666666666667L128 64V0H85.3333333333333V128L106.6666666666667 149.3333333333334V213.3333333333334L42.6666666666667 277.3333333333334L64 298.6666666666667L106.6666666666667 256H149.3333333333333V192C149.3333333333333 180.2666666666667 158.9333333333333 170.6666666666667 170.6666666666667 170.6666666666667H256C267.7333333333334 170.6666666666667 277.3333333333333 180.2666666666667 277.3333333333333 192V256L298.6666666666667 277.3333333333334M405.3333333333333 341.3333333333334V384L320 298.6666666666667L384 234.6666666666667L405.3333333333333 256L426.6666666666667 234.6666666666667L469.3333333333333 277.3333333333334L405.3333333333333 341.3333333333334M245.3333333333333 245.3333333333334L96 394.6666666666667C90.24 400.64 80.8533333333333 400.64 74.6666666666667 394.6666666666667C68.6933333333333 388.9066666666667 68.6933333333333 379.52 74.6666666666667 373.3333333333334L224 224C229.76 218.0266666666667 239.1466666666667 218.0266666666667 245.3333333333333 224C251.3066666666667 229.76 251.3066666666667 239.1466666666667 245.3333333333333 245.3333333333334z" /></svg>