<?xml version="1.0" encoding="UTF-8"?><!DOCTYPE svg PUBLIC "-//W3C//DTD SVG 1.1//EN" "http://www.w3.org/Graphics/SVG/1.1/DTD/svg11.dtd"><svg xmlns="http://www.w3.org/2000/svg" xmlns:xlink="http://www.w3.org/1999/xlink" version="1.1" width="512" height="512" viewBox="0 0 512 512">    <path fill="#ffffff" transform="scale(1, -1) translate(0, -448)" glyph-name="swap-horizontal-variant" unicode="&#xF8C0;" horiz-adv-x="512" d=" M85.3333333333333 320L170.6666666666667 234.6666666666667V298.6666666666667H341.3333333333333C364.8 298.6666666666667 384 279.4666666666667 384 256S364.8 213.3333333333334 341.3333333333333 213.3333333333334H170.6666666666667C123.52 213.3333333333334 85.3333333333333 175.1466666666667 85.3333333333333 128S123.52 42.6666666666667 170.6666666666667 42.6666666666667H341.3333333333333V-21.3333333333333L426.6666666666667 64L341.3333333333333 149.3333333333334V85.3333333333334H170.6666666666667C147.2 85.3333333333334 128 104.5333333333333 128 128S147.2 170.6666666666667 170.6666666666667 170.6666666666667H341.3333333333333C388.48 170.6666666666667 426.6666666666667 208.8533333333333 426.6666666666667 256S388.48 341.3333333333334 341.3333333333333 341.3333333333334H170.6666666666667V405.3333333333333L85.3333333333333 320z" /></svg>