<?xml version="1.0" encoding="UTF-8"?><!DOCTYPE svg PUBLIC "-//W3C//DTD SVG 1.1//EN" "http://www.w3.org/Graphics/SVG/1.1/DTD/svg11.dtd"><svg xmlns="http://www.w3.org/2000/svg" xmlns:xlink="http://www.w3.org/1999/xlink" version="1.1" width="512" height="512" viewBox="0 0 512 512">    <path fill="#ffffff" transform="scale(1, -1) translate(0, -448)" glyph-name="keg" unicode="&#xF305;" horiz-adv-x="512" d=" M106.6666666666667 -21.3333333333333V21.3333333333334H128V106.6666666666667H106.6666666666667V149.3333333333334H128V213.3333333333334H106.6666666666667V298.6666666666667H234.6666666666667V384H213.3333333333333V405.3333333333333H298.6666666666667V384H277.3333333333333V298.6666666666667H405.3333333333333V213.3333333333334H384V149.3333333333334H405.3333333333333V106.6666666666667H384V21.3333333333334H405.3333333333333V-21.3333333333333H106.6666666666667M362.6666666666667 256C362.6666666666667 267.7333333333334 353.0666666666667 277.3333333333334 341.3333333333333 277.3333333333334H298.6666666666667C286.9333333333333 277.3333333333334 277.3333333333333 267.7333333333334 277.3333333333333 256S286.9333333333333 234.6666666666667 298.6666666666667 234.6666666666667H341.3333333333333C353.0666666666667 234.6666666666667 362.6666666666667 244.2666666666667 362.6666666666667 256z" /></svg>