<?xml version="1.0" encoding="UTF-8"?><!DOCTYPE svg PUBLIC "-//W3C//DTD SVG 1.1//EN" "http://www.w3.org/Graphics/SVG/1.1/DTD/svg11.dtd"><svg xmlns="http://www.w3.org/2000/svg" xmlns:xlink="http://www.w3.org/1999/xlink" version="1.1" width="512" height="512" viewBox="0 0 512 512">    <path fill="#ffffff" transform="scale(1, -1) translate(0, -448)" glyph-name="car-defrost-rear" unicode="&#xFD3E;" horiz-adv-x="512" d=" M213.3333333333333 57.6C213.3333333333333 10.6666666666667 168.5333333333333 -32 164.2666666666667 -36.2666666666667C160 -40.5333333333334 153.6 -42.6666666666667 149.3333333333333 -42.6666666666667C142.9333333333333 -42.6666666666667 138.6666666666667 -40.5333333333334 132.2666666666667 -34.1333333333334C125.8666666666667 -25.6000000000001 125.8666666666667 -12.8000000000001 134.4 -4.2666666666668C145.0666666666667 4.2666666666665 170.6666666666667 34.1333333333332 170.6666666666667 57.5999999999999C170.6666666666667 70.3999999999999 162.1333333333333 83.1999999999998 153.6 98.1333333333332C140.8 115.1999999999998 128 136.5333333333332 128 162.1333333333332C128 211.1999999999998 155.7333333333333 230.3999999999998 160 232.5333333333332C168.5333333333333 236.7999999999998 183.4666666666667 234.6666666666665 187.7333333333334 226.1333333333332C194.1333333333334 215.4666666666665 192 202.6666666666665 181.3333333333333 196.2666666666665C181.3333333333333 196.2666666666665 170.6666666666667 187.7333333333331 170.6666666666667 162.1333333333332C170.6666666666667 147.1999999999998 179.2 134.3999999999998 187.7333333333334 121.5999999999998C200.5333333333333 104.5333333333332 213.3333333333333 83.1999999999998 213.3333333333333 57.5999999999998M256 162.1333333333331C256 187.7333333333331 266.6666666666667 196.2666666666664 266.6666666666667 196.2666666666664C277.3333333333333 202.6666666666665 279.4666666666667 215.4666666666665 273.0666666666667 226.1333333333331C266.6666666666667 236.7999999999998 253.8666666666667 238.9333333333331 243.2 232.5333333333332C238.9333333333334 230.3999999999998 211.2 211.1999999999998 211.2 162.1333333333332C211.2 136.5333333333332 224 115.1999999999998 236.8 98.1333333333332C245.3333333333333 83.1999999999998 253.8666666666667 70.3999999999998 253.8666666666667 57.5999999999999C253.8666666666667 34.1333333333332 228.2666666666667 4.2666666666665 217.6 -4.2666666666668C209.0666666666667 -12.8000000000001 209.0666666666667 -25.6000000000001 215.4666666666667 -34.1333333333334C219.7333333333334 -38.4000000000001 226.1333333333334 -40.5333333333334 230.4 -40.5333333333334C238.9333333333334 -42.6666666666668 245.3333333333333 -40.5333333333334 249.6 -36.2666666666668C253.8666666666667 -32.0000000000001 298.6666666666667 10.6666666666665 298.6666666666667 57.5999999999999C298.6666666666667 83.1999999999999 285.8666666666667 104.5333333333333 273.0666666666667 121.5999999999999C264.5333333333333 136.5333333333333 256 149.3333333333333 256 162.1333333333333M426.6666666666667 384H85.3333333333333C61.8666666666667 384 42.6666666666667 364.8 42.6666666666667 341.3333333333334V106.6666666666667C42.6666666666667 83.2 61.8666666666667 64 85.3333333333333 64H106.6666666666667V106.6666666666667H85.3333333333333V341.3333333333334H426.6666666666667V106.6666666666667H405.3333333333333V64H426.6666666666667C450.1333333333334 64 469.3333333333333 83.2 469.3333333333333 106.6666666666667V341.3333333333334C469.3333333333333 364.8 450.1333333333334 384 426.6666666666667 384M345.6 160C345.6 185.6 356.2666666666667 194.1333333333333 356.2666666666667 194.1333333333333C364.8 200.5333333333334 369.0666666666667 213.3333333333334 362.6666666666667 224C356.2666666666667 232.5333333333334 343.4666666666667 236.8 332.8 230.4000000000001C328.5333333333333 228.2666666666667 300.8 209.0666666666667 300.8 160C300.8 134.4 315.7333333333333 113.0666666666667 326.4 96C334.9333333333333 81.0666666666667 343.4666666666666 68.2666666666667 343.4666666666666 55.4666666666667C343.4666666666666 32 317.8666666666666 2.1333333333334 307.2 -6.3999999999999C298.6666666666667 -14.9333333333332 296.5333333333333 -27.7333333333332 305.0666666666666 -36.2666666666665C309.3333333333333 -40.5333333333332 313.6 -42.6666666666666 320 -42.6666666666666C324.2666666666666 -42.6666666666666 330.6666666666667 -40.5333333333332 339.2 -38.3999999999999C343.4666666666666 -34.1333333333333 388.2666666666667 8.5333333333334 388.2666666666667 55.4666666666667C388.2666666666667 81.0666666666667 373.3333333333333 102.4 362.6666666666667 119.4666666666667C354.1333333333334 134.4 345.6 147.2000000000001 345.6 160.0000000000001z" /></svg>