<?xml version="1.0" encoding="UTF-8"?><!DOCTYPE svg PUBLIC "-//W3C//DTD SVG 1.1//EN" "http://www.w3.org/Graphics/SVG/1.1/DTD/svg11.dtd"><svg xmlns="http://www.w3.org/2000/svg" xmlns:xlink="http://www.w3.org/1999/xlink" version="1.1" width="512" height="512" viewBox="0 0 512 512">    <path fill="#ffffff" transform="scale(1, -1) translate(0, -448)" glyph-name="xbox-controller-battery-unknown" unicode="&#xF74F;" horiz-adv-x="512" d=" M462.2933333333334 341.3333333333334C477.8666666666666 341.3333333333334 490.6666666666666 328.5333333333334 490.6666666666666 312.9600000000001V28.3733333333333C490.6666666666666 12.8 477.8666666666666 0 462.2933333333334 0H305.7066666666667C290.1333333333334 0 277.3333333333334 12.8000000000001 277.3333333333334 28.3733333333333V90.6666666666667H165.3333333333333C122.6666666666667 90.6666666666667 106.6666666666667 42.6666666666667 64 21.3333333333334C21.3333333333333 21.3333333333334 -10.6666666666667 85.3333333333334 74.6666666666667 266.6666666666667H80L89.3866666666667 284.3733333333334S149.3333333333333 320 177.7066666666667 293.76H277.3333333333333V312.9600000000001C277.3333333333333 328.5333333333334 290.1333333333334 341.3333333333334 305.7066666666667 341.3333333333334H341.3333333333333V384H426.6666666666667V341.3333333333334H462.2933333333334M234.6666666666667 277.3333333333334C222.9333333333333 277.3333333333334 213.3333333333333 267.7333333333334 213.3333333333333 256S222.9333333333333 234.6666666666667 234.6666666666667 234.6666666666667S256 244.2666666666667 256 256S246.4 277.3333333333334 234.6666666666667 277.3333333333334M388.0533333333334 277.3333333333334C369.4933333333334 277.3333333333334 354.56 273.0666666666667 343.04 264.7466666666667C331.9466666666667 256 326.4000000000001 243.84 326.6133333333334 226.9866666666667L326.8266666666667 226.3466666666667H368.0000000000001C368.2133333333334 232.7466666666668 370.1333333333335 237.6533333333334 373.9733333333334 241.0666666666667C377.8133333333334 244.2666666666667 382.5066666666667 245.9733333333334 388.0533333333334 245.9733333333334C394.6666666666668 245.9733333333334 400.2133333333334 243.8400000000001 404.0533333333334 240.0000000000001C407.8933333333335 235.9466666666667 409.6000000000002 230.4000000000001 409.6000000000002 224.0000000000001C409.6000000000002 217.1733333333334 408.1066666666668 211.4133333333334 404.6933333333335 206.5066666666667C401.7066666666668 201.6 397.2266666666668 197.3333333333334 391.6800000000001 193.9200000000001C380.8000000000001 186.6666666666668 373.3333333333335 180.2666666666667 369.2800000000001 174.5066666666667C365.0133333333335 168.96 362.6666666666668 160.0000000000001 362.6666666666668 149.3333333333334H405.3333333333335C405.3333333333335 155.9466666666667 406.1866666666668 161.2800000000001 408.1066666666668 165.1200000000001C410.0266666666668 168.96 413.6533333333335 172.8000000000001 418.9866666666668 176.2133333333334C428.5866666666668 181.3333333333334 436.4800000000002 187.5200000000001 442.6666666666668 196.0533333333334C448.8533333333335 204.5866666666667 452.0533333333335 213.3333333333334 452.0533333333335 224.0000000000001C452.0533333333335 240.2133333333334 446.2933333333335 253.2266666666667 434.7733333333336 262.8266666666667C423.4666666666668 272.4266666666668 407.8933333333335 277.3333333333334 388.0533333333335 277.3333333333334M362.6666666666667 128V85.3333333333334H405.3333333333333V128H362.6666666666667z" /></svg>