<?xml version="1.0" encoding="UTF-8"?><!DOCTYPE svg PUBLIC "-//W3C//DTD SVG 1.1//EN" "http://www.w3.org/Graphics/SVG/1.1/DTD/svg11.dtd"><svg xmlns="http://www.w3.org/2000/svg" xmlns:xlink="http://www.w3.org/1999/xlink" version="1.1" width="512" height="512" viewBox="0 0 512 512">    <path fill="#ffffff" transform="scale(1, -1) translate(0, -448)" glyph-name="mixed-martial-arts" unicode="&#xFD6B;" horiz-adv-x="512" d=" M320 234.6666666666667V298.6666666666667H149.3333333333333V234.6666666666667H320M384 298.6666666666667C389.9733333333334 298.6666666666667 394.6666666666667 296.7466666666667 398.9333333333333 292.48C402.9866666666667 288 405.3333333333333 283.0933333333334 405.3333333333333 277.3333333333334V218.0266666666667C405.3333333333333 213.9733333333334 404.6933333333333 210.9866666666667 404.0533333333334 209.0666666666667L386.9866666666667 123.9466666666667C384 112.6400000000001 377.6 106.6666666666667 366.9333333333333 106.6666666666667H145.0666666666667C133.76 106.6666666666667 126.9333333333333 112.64 125.0133333333333 123.9466666666667L107.9466666666667 209.0666666666667C107.3066666666666 210.9866666666667 106.6666666666667 213.9733333333334 106.6666666666667 218.0266666666667V341.3333333333334C106.6666666666667 352 111.1466666666667 362.6666666666667 119.4666666666667 370.9866666666667C128 379.7333333333334 137.6 384 149.3333333333333 384H320C331.3066666666666 384 341.3333333333333 379.7333333333334 350.08 370.9866666666667C358.6133333333333 362.6666666666667 362.6666666666667 352 362.6666666666667 341.3333333333334V277.3333333333334C362.6666666666667 283.0933333333334 365.0133333333333 288 369.0666666666667 292.48C373.3333333333333 296.7466666666667 378.0266666666667 298.6666666666667 384 298.6666666666667M149.3333333333333 21.3333333333334V85.3333333333334H362.6666666666667V21.3333333333334C362.6666666666667 14.9333333333333 360.7466666666667 10.0266666666666 356.48 5.9733333333334C352 1.92 347.0933333333333 0 341.3333333333333 0H170.6666666666667C164.9066666666667 0 160 1.92 155.52 5.9733333333334C151.2533333333333 10.0266666666668 149.3333333333333 14.9333333333334 149.3333333333333 21.3333333333334z" /></svg>