<?xml version="1.0" encoding="UTF-8"?><!DOCTYPE svg PUBLIC "-//W3C//DTD SVG 1.1//EN" "http://www.w3.org/Graphics/SVG/1.1/DTD/svg11.dtd"><svg xmlns="http://www.w3.org/2000/svg" xmlns:xlink="http://www.w3.org/1999/xlink" version="1.1" width="512" height="512" viewBox="0 0 512 512">    <path fill="#ffffff" transform="scale(1, -1) translate(0, -448)" glyph-name="spider-web" unicode="&#xFBA6;" horiz-adv-x="512" d=" M290.56 164.6933333333334L325.5466666666666 116.48C326.1866666666666 128 328.1066666666667 139.3066666666667 331.9466666666667 150.8266666666667C335.7866666666667 162.7733333333334 341.3333333333333 173.6533333333334 347.7333333333334 183.2533333333333L290.56 164.6933333333334M379.0933333333333 42.6666666666667C378.6666666666667 70.8266666666667 382.9333333333333 100.9066666666667 392.7466666666667 131.2000000000001C402.7733333333333 161.7066666666667 417.28 189.0133333333333 434.3466666666667 211.4133333333334L390.8266666666667 197.3333333333334C374.1866666666666 186.4533333333334 359.8933333333333 167.68 352 144.4266666666667C344.9600000000001 121.8133333333333 345.1733333333333 98.9866666666667 352 80.64L379.0933333333333 42.6666666666667M410.6666666666667 0C400 -9.8133333333333 388.48 -18.3466666666666 376.1066666666667 -25.6L369.28 -16.2133333333333C339.2 0 299.52 10.6666666666667 256 10.6666666666667C212.48 10.6666666666667 172.8 0 142.72 -16.2133333333334L135.8933333333333 -25.6C123.52 -18.3466666666667 112 -9.8133333333334 101.3333333333333 -1e-13L106.6666666666667 6.6133333333332C113.7066666666667 40.9599999999999 111.36 82.7733333333333 97.7066666666667 125.0133333333333C84.0533333333333 166.6133333333332 61.8666666666667 201.3866666666666 36.48 224.8533333333333L27.0933333333333 227.8399999999999C30.2933333333333 241.92 34.7733333333333 256 40.32 268.5866666666666L48.8533333333333 265.8133333333333C83.6266666666667 269.44 122.4533333333333 284.7999999999999 158.5066666666667 310.8266666666666C193.92 336.6399999999999 220.16 368.4266666666666 234.6666666666667 399.7866666666666V409.8133333333332L256 410.6666666666666L277.3333333333333 409.8133333333332V400.8533333333333C291.6266666666667 368.8533333333333 318.08 336.4266666666666 354.1333333333334 310.3999999999999C389.5466666666667 284.5866666666666 427.9466666666667 269.44 462.2933333333334 265.3866666666666L471.6800000000001 268.5866666666666C477.2266666666667 255.9999999999999 481.7066666666667 241.9199999999999 484.9066666666668 227.8399999999999L474.2400000000001 223.9999999999999C448.8533333333334 200.9599999999999 426.6666666666668 166.1866666666666 413.2266666666668 124.5866666666666C399.7866666666668 83.4133333333332 397.2266666666668 42.6666666666665 403.6266666666668 9.1733333333332L410.6666666666668 -1e-13M234.6666666666667 205.44V266.6666666666667C227.4133333333334 257.7066666666667 218.88 249.1733333333334 208.64 241.7066666666667C198.1866666666667 234.6666666666667 187.0933333333333 228.48 176 224L234.6666666666667 205.44M234.6666666666667 357.9733333333334C218.6666666666667 334.7200000000001 197.12 312.5333333333334 170.6666666666667 293.5466666666668C144.64 274.3466666666667 116.48 260.6933333333334 89.1733333333333 252.5866666666667L131.2 238.9333333333334C151.68 237.2266666666667 175.36 244.0533333333334 196.0533333333333 258.9866666666667C216.1066666666666 273.4933333333334 229.5466666666667 292.9066666666667 234.6666666666667 312.3200000000001V357.9733333333334M277.3333333333333 205.44L335.7866666666667 224C324.9066666666667 228.2666666666666 314.0266666666667 234.0266666666667 304 241.28C293.5466666666666 248.96 284.5866666666667 257.7066666666667 277.3333333333333 266.6666666666667V205.44M422.4 252.5866666666667C395.3066666666667 260.6933333333334 367.5733333333333 274.1333333333334 341.3333333333333 293.12C315.0933333333333 312.3200000000001 293.5466666666666 334.7200000000001 277.3333333333333 358.4000000000001V314.24C282.0266666666667 294.1866666666667 295.68 273.7066666666667 316.5866666666667 258.5600000000001C336.4266666666666 244.0533333333334 359.04 237.4400000000001 379.0933333333333 238.5066666666667L422.4 252.5866666666667M221.44 164.6933333333334L162.9866666666667 183.6800000000001C169.6 174.0800000000001 174.9333333333333 163.2000000000001 178.7733333333334 151.2533333333335C182.8266666666667 138.6666666666668 184.7466666666667 126.7200000000001 185.1733333333334 114.7733333333334L221.44 164.6933333333334M76.3733333333334 211.8400000000001C93.44 189.4400000000001 107.9466666666667 162.1333333333335 117.9733333333334 131.6266666666668C128 100.4800000000001 132.2666666666667 69.5466666666668 131.6266666666667 40.96L157.44 76.5866666666668C165.5466666666667 96.0000000000001 166.4 120.3200000000001 158.5066666666667 144.6400000000001C150.8266666666667 168.1066666666668 136.5333333333333 186.8800000000001 119.68 197.7600000000001L76.3733333333333 211.8400000000001M256 139.7333333333334L220.8 91.3066666666667C231.8933333333333 94.2933333333334 243.6266666666667 96 256 96C268.3733333333334 96 280.1066666666667 94.2933333333334 291.2 91.3066666666667L256 139.7333333333334M167.2533333333333 17.4933333333333C193.7066666666667 26.6666666666667 224 32 256 32S318.2933333333333 26.6666666666667 344.7466666666667 17.4933333333333L317.44 55.0400000000001C302.08 67.2000000000001 280.1066666666667 74.6666666666667 256 74.6666666666667S209.92 67.2000000000001 194.56 55.0400000000001L167.2533333333333 17.4933333333333z" /></svg>