<?xml version="1.0" encoding="UTF-8"?><!DOCTYPE svg PUBLIC "-//W3C//DTD SVG 1.1//EN" "http://www.w3.org/Graphics/SVG/1.1/DTD/svg11.dtd"><svg xmlns="http://www.w3.org/2000/svg" xmlns:xlink="http://www.w3.org/1999/xlink" version="1.1" width="512" height="512" viewBox="0 0 512 512">    <path fill="#ffffff" transform="scale(1, -1) translate(0, -448)" glyph-name="bus-articulated-end" unicode="&#xF79B;" horiz-adv-x="512" d=" M458.6666666666666 320L426.6666666666667 288L458.6666666666666 256L426.6666666666667 224L458.6666666666666 192L426.6666666666667 160L458.6666666666666 128H266.6666666666667C266.6666666666667 92.5866666666667 238.08 64 202.6666666666667 64S138.6666666666667 92.5866666666667 138.6666666666667 128H53.3333333333333V277.3333333333334C53.3333333333333 301.0133333333333 72.32 320 96 320H458.6666666666666M394.6666666666667 288H320V234.6666666666667H394.6666666666667V288M288 288H202.6666666666667V234.6666666666667H288V288M170.6666666666667 288H85.3333333333333V234.6666666666667H170.6666666666667V288M202.6666666666667 160C184.96 160 170.6666666666667 145.7066666666667 170.6666666666667 128S184.96 96 202.6666666666667 96S234.6666666666667 110.2933333333334 234.6666666666667 128S220.3733333333333 160 202.6666666666667 160z" /></svg>