<?xml version="1.0" encoding="UTF-8"?><!DOCTYPE svg PUBLIC "-//W3C//DTD SVG 1.1//EN" "http://www.w3.org/Graphics/SVG/1.1/DTD/svg11.dtd"><svg xmlns="http://www.w3.org/2000/svg" xmlns:xlink="http://www.w3.org/1999/xlink" version="1.1" width="512" height="512" viewBox="0 0 512 512">    <path fill="#ffffff" transform="scale(1, -1) translate(0, -448)" glyph-name="safety-goggles" unicode="&#xFD0C;" horiz-adv-x="512" d=" M384 256C407.68 256 426.6666666666667 237.0133333333333 426.6666666666667 213.3333333333334V149.3333333333334C426.6666666666667 125.6533333333334 407.68 106.6666666666667 384 106.6666666666667H336.4266666666666L309.9733333333333 132.9066666666667C293.9733333333333 149.3333333333334 272.4266666666666 157.8666666666667 249.6 157.8666666666667S205.44 149.3333333333334 189.2266666666666 132.9066666666667L162.9866666666667 106.6666666666667H128C104.32 106.6666666666667 85.3333333333333 125.6533333333334 85.3333333333333 149.3333333333334V213.3333333333334C85.3333333333333 237.0133333333333 104.32 256 128 256H384M384 298.6666666666667H128C80.8533333333333 298.6666666666667 42.6666666666667 260.48 42.6666666666667 213.3333333333334H21.3333333333333V149.3333333333334H42.6666666666667C42.6666666666667 102.1866666666667 80.8533333333333 64 128 64H181.3333333333333C182.1866666666667 65.28 183.2533333333333 66.5600000000001 219.52 102.8266666666667C227.84 111.1466666666667 238.72 115.2000000000001 249.6 115.2000000000001C260.6933333333333 115.2000000000001 271.5733333333333 111.1466666666667 279.8933333333333 102.8266666666667L318.08 64H384C431.1466666666667 64 469.3333333333333 102.1866666666667 469.3333333333333 149.3333333333334H490.6666666666666V213.3333333333334H469.3333333333333C469.3333333333333 260.48 431.1466666666667 298.6666666666667 384 298.6666666666667z" /></svg>