<?xml version="1.0" encoding="UTF-8"?><!DOCTYPE svg PUBLIC "-//W3C//DTD SVG 1.1//EN" "http://www.w3.org/Graphics/SVG/1.1/DTD/svg11.dtd"><svg xmlns="http://www.w3.org/2000/svg" xmlns:xlink="http://www.w3.org/1999/xlink" version="1.1" width="512" height="512" viewBox="0 0 512 512">    <path fill="#ffffff" transform="scale(1, -1) translate(0, -448)" glyph-name="camera-metering-matrix" unicode="&#xF7A2;" horiz-adv-x="512" d=" M85.3333333333333 362.6666666666667H426.6666666666667C450.1333333333334 362.6666666666667 469.3333333333333 343.4666666666667 469.3333333333333 320V64C469.3333333333333 40.5333333333333 450.1333333333334 21.3333333333334 426.6666666666667 21.3333333333334H85.3333333333333C61.8666666666667 21.3333333333334 42.6666666666667 40.5333333333333 42.6666666666667 64V320C42.6666666666667 343.4666666666667 61.8666666666667 362.6666666666667 85.3333333333333 362.6666666666667M85.3333333333333 320V64H426.6666666666667V320H85.3333333333333M117.3333333333333 288H234.6666666666667V252.3733333333334C216.5333333333333 245.9733333333334 202.0266666666667 231.4666666666667 195.6266666666667 213.3333333333334H117.3333333333333V288M394.6666666666667 288V213.3333333333334H316.3733333333334C309.9733333333333 231.4666666666667 295.4666666666667 245.9733333333334 277.3333333333333 252.3733333333334V288H394.6666666666667M394.6666666666667 96H277.3333333333333V131.6266666666667C295.4666666666667 138.0266666666667 309.9733333333333 152.5333333333334 316.3733333333334 170.6666666666667H394.6666666666667V96M117.3333333333333 96V170.6666666666667H195.6266666666667C202.0266666666667 152.5333333333334 216.5333333333333 138.0266666666667 234.6666666666667 131.6266666666667V96H117.3333333333333M256 224C273.7066666666667 224 288 209.7066666666667 288 192S273.7066666666667 160 256 160S224 174.2933333333334 224 192S238.2933333333333 224 256 224z" /></svg>