<?xml version="1.0" encoding="UTF-8"?><!DOCTYPE svg PUBLIC "-//W3C//DTD SVG 1.1//EN" "http://www.w3.org/Graphics/SVG/1.1/DTD/svg11.dtd"><svg xmlns="http://www.w3.org/2000/svg" xmlns:xlink="http://www.w3.org/1999/xlink" version="1.1" width="512" height="512" viewBox="0 0 512 512">    <path fill="#ffffff" transform="scale(1, -1) translate(0, -448)" glyph-name="wikipedia" unicode="&#xF5AC;" horiz-adv-x="512" d=" M319.36 43.7333333333334L264.7466666666667 172.3733333333334C242.9866666666667 129.9200000000001 219.0933333333333 85.3333333333334 198.6133333333334 43.7333333333334C198.4 43.52 188.5866666666667 43.7333333333334 188.5866666666667 43.7333333333334C157.2266666666667 117.3333333333334 124.8 189.8666666666667 93.2266666666667 262.8266666666667C85.9733333333333 280.7466666666667 60.3733333333333 309.3333333333334 42.6666666666667 309.3333333333334V318.9333333333334H150.6133333333333V309.3333333333334C137.8133333333333 309.3333333333334 116.0533333333333 300.8 121.6 286.9333333333334C136.96 254.08 190.72 126.72 205.44 94.2933333333334C215.4666666666667 114.3466666666667 243.84 167.2533333333334 256 189.6533333333334C246.4 208.4266666666667 216.1066666666666 278.8266666666667 207.1466666666667 296.3200000000001C200.32 307.8400000000001 183.04 309.3333333333334 169.8133333333333 309.3333333333334C169.8133333333333 312.5333333333334 170.0266666666667 314.6666666666667 169.8133333333333 318.7200000000001L264.9600000000001 318.5066666666667V309.9733333333334C251.9466666666667 309.3333333333334 239.7866666666667 304.8533333333334 245.3333333333334 292.48C258.1333333333334 266.0266666666667 265.6 247.0400000000001 277.3333333333334 222.5066666666667C280.9600000000001 229.7600000000001 300.1600000000001 269.2266666666667 309.3333333333334 289.9200000000001C314.88 303.7866666666668 306.56 309.3333333333334 283.5200000000001 309.3333333333334C283.7333333333334 311.8933333333334 283.7333333333334 316.3733333333334 283.7333333333334 318.5066666666667C313.3866666666667 318.7200000000001 357.9733333333334 318.7200000000001 365.8666666666667 318.9333333333334V309.9733333333334C350.7200000000001 309.3333333333334 335.1466666666667 301.2266666666667 327.04 288.8533333333334L288 206.9333333333333C291.84 196.0533333333334 329.8133333333334 111.7866666666666 333.8666666666667 102.4L416 290.7733333333333C409.6 306.1333333333333 391.2533333333334 309.3333333333333 384 309.3333333333333V318.9333333333333L469.3333333333333 318.2933333333333V309.3333333333334C450.56 309.3333333333334 438.8266666666667 298.6666666666667 432 282.6666666666667C414.9333333333333 244.48 362.6666666666667 122.88 328.5333333333333 43.7333333333334H319.36z" /></svg>