<?xml version="1.0" encoding="UTF-8"?><!DOCTYPE svg PUBLIC "-//W3C//DTD SVG 1.1//EN" "http://www.w3.org/Graphics/SVG/1.1/DTD/svg11.dtd"><svg xmlns="http://www.w3.org/2000/svg" xmlns:xlink="http://www.w3.org/1999/xlink" version="1.1" width="512" height="512" viewBox="0 0 512 512">    <path fill="#ffffff" transform="scale(1, -1) translate(0, -448)" glyph-name="screen-rotation" unicode="&#xF475;" horiz-adv-x="512" d=" M160 -10.6666666666666C90.6666666666667 22.6133333333333 40.7466666666667 90.4533333333334 33.0666666666667 170.6666666666667H1.0666666666667C11.9466666666667 39.2533333333333 121.8133333333333 -64 256 -64L270.08 -63.36L188.8 17.92M316.3733333333334 -4.0533333333333L59.9466666666667 252.3733333333334L195.6266666666667 388.0533333333334L452.0533333333333 131.6266666666667M218.24 410.6666666666667C205.6533333333333 423.2533333333334 185.3866666666667 423.2533333333334 173.0133333333333 410.6666666666667L37.3333333333333 274.9866666666667C24.7466666666667 262.4000000000001 24.7466666666667 242.1333333333334 37.3333333333333 229.76L293.76 -26.6666666666666C306.3466666666667 -39.2533333333333 326.6133333333333 -39.2533333333333 338.9866666666667 -26.6666666666666L474.6666666666666 109.0133333333333C487.2533333333333 121.6 487.2533333333333 141.8666666666667 474.6666666666666 154.24L218.24 410.6666666666667M352 394.6666666666667C421.3333333333333 361.1733333333334 471.2533333333333 293.5466666666667 478.9333333333333 213.3333333333334H510.9333333333333C500.0533333333333 344.7466666666667 390.1866666666666 448 256 448L241.92 447.36L323.2 366.0800000000001L352 394.6666666666667z" /></svg>