<?xml version="1.0" encoding="UTF-8"?><!DOCTYPE svg PUBLIC "-//W3C//DTD SVG 1.1//EN" "http://www.w3.org/Graphics/SVG/1.1/DTD/svg11.dtd"><svg xmlns="http://www.w3.org/2000/svg" xmlns:xlink="http://www.w3.org/1999/xlink" version="1.1" width="512" height="512" viewBox="0 0 512 512">    <path fill="#ffffff" transform="scale(1, -1) translate(0, -448)" glyph-name="needle" unicode="&#xF391;" horiz-adv-x="512" d=" M237.8666666666667 124.16L207.5733333333333 154.24L237.8666666666667 184.5333333333334L267.9466666666667 154.24L298.0266666666667 184.5333333333334L267.9466666666667 214.6133333333334L298.0266666666667 244.6933333333334L328.32 214.6133333333334L358.4 244.6933333333334L298.0266666666667 305.0666666666667L147.2 154.24L207.5733333333333 93.8666666666667L237.8666666666667 124.16M65.7066666666667 42.6666666666667L132.2666666666667 109.0133333333333L87.04 154.24L298.0266666666667 365.4400000000001L343.4666666666667 320L373.3333333333333 350.2933333333334L343.4666666666667 380.5866666666667L373.3333333333333 410.6666666666667L464 320L433.92 290.1333333333334L403.6266666666667 320L373.3333333333333 290.1333333333334L418.7733333333333 244.6933333333334L207.5733333333333 33.7066666666667L162.3466666666666 78.9333333333333L65.7066666666666 -17.92V42.6666666666667z" /></svg>