<?xml version="1.0" encoding="UTF-8"?><!DOCTYPE svg PUBLIC "-//W3C//DTD SVG 1.1//EN" "http://www.w3.org/Graphics/SVG/1.1/DTD/svg11.dtd"><svg xmlns="http://www.w3.org/2000/svg" xmlns:xlink="http://www.w3.org/1999/xlink" version="1.1" width="512" height="512" viewBox="0 0 512 512">    <path fill="#ffffff" transform="scale(1, -1) translate(0, -448)" glyph-name="church" unicode="&#xF144;" horiz-adv-x="512" d=" M234.6666666666667 405.3333333333333H277.3333333333333V362.6666666666667H320V320H277.3333333333333V247.4666666666667L469.3333333333333 170.6666666666667V128L426.6666666666667 145.0666666666667V-21.3333333333333H298.6666666666667V85.3333333333334C298.6666666666667 108.8 279.4666666666667 128 256 128S213.3333333333333 108.8 213.3333333333333 85.3333333333334V-21.3333333333333H85.3333333333333V145.0666666666667L42.6666666666667 128V170.6666666666667L234.6666666666667 247.4666666666667V320H192V362.6666666666667H234.6666666666667V405.3333333333333M128 21.3333333333334H170.6666666666667V128L149.3333333333333 149.3333333333334L128 128V21.3333333333334M341.3333333333333 21.3333333333334H384V128L362.6666666666667 149.3333333333334L341.3333333333333 128V21.3333333333334z" /></svg>