<?xml version="1.0" encoding="UTF-8"?><!DOCTYPE svg PUBLIC "-//W3C//DTD SVG 1.1//EN" "http://www.w3.org/Graphics/SVG/1.1/DTD/svg11.dtd"><svg xmlns="http://www.w3.org/2000/svg" xmlns:xlink="http://www.w3.org/1999/xlink" version="1.1" width="512" height="512" viewBox="0 0 512 512">    <path fill="#ffffff" transform="scale(1, -1) translate(0, -448)" glyph-name="keyboard-close" unicode="&#xF30F;" horiz-adv-x="512" d=" M256 -42.6666666666666L341.3333333333333 42.6666666666667H170.6666666666667M405.3333333333333 277.3333333333334H362.6666666666667V320H405.3333333333333M405.3333333333333 213.3333333333334H362.6666666666667V256H405.3333333333333M341.3333333333333 277.3333333333334H298.6666666666667V320H341.3333333333333M341.3333333333333 213.3333333333334H298.6666666666667V256H341.3333333333333M341.3333333333333 128H170.6666666666667V170.6666666666667H341.3333333333333M149.3333333333333 277.3333333333334H106.6666666666667V320H149.3333333333333M149.3333333333333 213.3333333333334H106.6666666666667V256H149.3333333333333M170.6666666666667 256H213.3333333333333V213.3333333333334H170.6666666666667M170.6666666666667 320H213.3333333333333V277.3333333333334H170.6666666666667M234.6666666666667 256H277.3333333333333V213.3333333333334H234.6666666666667M234.6666666666667 320H277.3333333333333V277.3333333333334H234.6666666666667M426.6666666666667 384H85.3333333333333C61.6533333333333 384 42.6666666666667 365.0133333333333 42.6666666666667 341.3333333333334V128C42.6666666666667 104.5333333333333 61.8666666666667 85.3333333333334 85.3333333333333 85.3333333333334H426.6666666666667C450.1333333333334 85.3333333333334 469.3333333333333 104.5333333333333 469.3333333333333 128V341.3333333333334C469.3333333333333 365.0133333333333 450.1333333333334 384 426.6666666666667 384z" /></svg>