<?xml version="1.0" encoding="UTF-8"?><!DOCTYPE svg PUBLIC "-//W3C//DTD SVG 1.1//EN" "http://www.w3.org/Graphics/SVG/1.1/DTD/svg11.dtd"><svg xmlns="http://www.w3.org/2000/svg" xmlns:xlink="http://www.w3.org/1999/xlink" version="1.1" width="512" height="512" viewBox="0 0 512 512">    <path fill="#ffffff" transform="scale(1, -1) translate(0, -448)" glyph-name="surround-sound-2-0" unicode="&#xF7EF;" horiz-adv-x="512" d=" M362.6666666666667 298.6666666666667H405.3333333333333C428.8 298.6666666666667 448 279.4666666666667 448 256V128C448 104.5333333333333 428.8 85.3333333333334 405.3333333333333 85.3333333333334H362.6666666666667C339.2 85.3333333333334 320 104.5333333333333 320 128V256C320 279.4666666666667 339.2 298.6666666666667 362.6666666666667 298.6666666666667M362.6666666666667 256V128H405.3333333333333V256H362.6666666666667M192 85.3333333333334H64V128L149.3333333333333 256H64V298.6666666666667H149.3333333333333C172.8 298.6666666666667 192 279.4666666666667 192 256C192 247.04 189.2266666666666 238.72 184.5333333333333 231.8933333333334L115.4133333333333 128H192V85.3333333333334M256 85.3333333333334C244.2666666666667 85.3333333333334 234.6666666666667 94.9333333333333 234.6666666666667 106.6666666666667S244.2666666666667 128 256 128S277.3333333333333 118.4 277.3333333333333 106.6666666666667S267.7333333333334 85.3333333333334 256 85.3333333333334z" /></svg>