<?xml version="1.0" encoding="UTF-8"?><!DOCTYPE svg PUBLIC "-//W3C//DTD SVG 1.1//EN" "http://www.w3.org/Graphics/SVG/1.1/DTD/svg11.dtd"><svg xmlns="http://www.w3.org/2000/svg" xmlns:xlink="http://www.w3.org/1999/xlink" version="1.1" width="512" height="512" viewBox="0 0 512 512">    <path fill="#ffffff" transform="scale(1, -1) translate(0, -448)" glyph-name="human-handsdown" unicode="&#xF64B;" horiz-adv-x="512" d=" M256 426.6666666666667C232.32 426.6666666666667 213.3333333333333 407.4666666666667 213.3333333333333 384C213.3333333333333 360.32 232.32 341.3333333333334 256 341.3333333333334C279.68 341.3333333333334 298.6666666666667 360.32 298.6666666666667 384C298.6666666666667 407.4666666666667 279.4666666666667 426.6666666666667 256 426.6666666666667M213.3333333333333 320C207.5733333333333 320 202.6666666666667 317.6533333333333 198.6133333333334 314.0266666666667H198.4L85.3333333333333 200.7466666666667L115.6266666666667 170.6666666666667L192 247.2533333333334V-21.3333333333333H234.6666666666667V128H277.3333333333333V-21.3333333333333H320V247.2533333333334L396.3733333333333 170.6666666666667L426.6666666666667 200.7466666666667L313.6 314.0266666666667C309.3333333333333 317.6533333333333 304.4266666666666 320 298.6666666666667 320" /></svg>