<?xml version="1.0" encoding="UTF-8"?><!DOCTYPE svg PUBLIC "-//W3C//DTD SVG 1.1//EN" "http://www.w3.org/Graphics/SVG/1.1/DTD/svg11.dtd"><svg xmlns="http://www.w3.org/2000/svg" xmlns:xlink="http://www.w3.org/1999/xlink" version="1.1" width="512" height="512" viewBox="0 0 512 512">    <path fill="#ffffff" transform="scale(1, -1) translate(0, -448)" glyph-name="package-up" unicode="&#xF3D5;" horiz-adv-x="512" d=" M438.1866666666666 336.4266666666667C444.3733333333333 329.1733333333334 448 320 448 309.3333333333334V42.6666666666667C448 19.2 428.8 0 405.3333333333333 0H106.6666666666667C83.2 0 64 19.2 64 42.6666666666667V309.3333333333334C64 320 67.6266666666667 329.1733333333334 73.8133333333333 336.4266666666667L103.2533333333333 372.2666666666667C109.2266666666667 379.52 117.9733333333333 384 128 384H384C394.0266666666667 384 402.7733333333333 379.52 408.5333333333333 372.2666666666667L438.1866666666666 336.4266666666667M109.2266666666667 341.3333333333334H402.56L382.5066666666667 362.6666666666667H126.5066666666667L109.2266666666667 341.3333333333334M256 245.3333333333334L138.6666666666667 128H213.3333333333333V85.3333333333334H298.6666666666667V128H373.3333333333333L256 245.3333333333334z" /></svg>