<?xml version="1.0" encoding="UTF-8"?><!DOCTYPE svg PUBLIC "-//W3C//DTD SVG 1.1//EN" "http://www.w3.org/Graphics/SVG/1.1/DTD/svg11.dtd"><svg xmlns="http://www.w3.org/2000/svg" xmlns:xlink="http://www.w3.org/1999/xlink" version="1.1" width="512" height="512" viewBox="0 0 512 512">    <path fill="#ffffff" transform="scale(1, -1) translate(0, -448)" glyph-name="candycane" unicode="&#xF10A;" horiz-adv-x="512" d=" M213.3333333333333 234.6666666666667C213.3333333333333 211.2 194.1333333333333 192 170.6666666666667 192S128 211.2 128 234.6666666666667V277.3333333333334C128 290.7733333333333 130.1333333333333 303.5733333333334 133.76 315.7333333333334L213.3333333333333 236.1600000000001V234.6666666666667M256 405.3333333333333C271.7866666666667 405.3333333333333 286.72 402.56 300.5866666666667 397.2266666666667L255.36 320C237.6533333333334 320 222.72 309.3333333333334 216.5333333333333 293.3333333333334L154.4533333333333 355.4133333333334C177.92 385.7066666666667 214.6133333333334 405.3333333333333 256 405.3333333333333M378.88 313.3866666666667L298.6666666666667 233.1733333333334V277.3333333333334C298.6666666666667 285.44 296.5333333333333 292.9066666666667 292.6933333333334 299.3066666666667L337.7066666666667 375.8933333333333C357.12 359.8933333333333 371.6266666666667 338.1333333333334 378.88 313.3866666666667M384 168.7466666666667L298.6666666666667 83.4133333333334V172.8L384 258.1333333333334V168.7466666666667M384 21.3333333333334C384 -2.1333333333333 364.8 -21.3333333333333 341.3333333333333 -21.3333333333333S298.6666666666667 -2.1333333333333 298.6666666666667 21.3333333333334V23.2533333333333L384 108.5866666666667V21.3333333333334z" /></svg>