<?xml version="1.0" encoding="UTF-8"?><!DOCTYPE svg PUBLIC "-//W3C//DTD SVG 1.1//EN" "http://www.w3.org/Graphics/SVG/1.1/DTD/svg11.dtd"><svg xmlns="http://www.w3.org/2000/svg" xmlns:xlink="http://www.w3.org/1999/xlink" version="1.1" width="512" height="512" viewBox="0 0 512 512">    <path fill="#ffffff" transform="scale(1, -1) translate(0, -448)" glyph-name="google-circles-communities" unicode="&#xF2B1;" horiz-adv-x="512" d=" M320 192C296.32 192 277.3333333333333 173.0133333333333 277.3333333333333 149.3333333333334C277.3333333333333 125.8666666666667 296.5333333333333 106.6666666666667 320 106.6666666666667S362.6666666666667 125.8666666666667 362.6666666666667 149.3333333333334C362.6666666666667 173.0133333333333 343.4666666666667 192 320 192M256 21.3333333333334C161.7066666666667 21.3333333333334 85.3333333333333 97.7066666666667 85.3333333333333 192S161.7066666666667 362.6666666666667 256 362.6666666666667S426.6666666666667 286.2933333333334 426.6666666666667 192S350.2933333333334 21.3333333333334 256 21.3333333333334M256 405.3333333333333C138.24 405.3333333333333 42.6666666666667 309.76 42.6666666666667 192S138.24 -21.3333333333333 256 -21.3333333333333S469.3333333333333 74.24 469.3333333333333 192S373.76 405.3333333333333 256 405.3333333333333M298.6666666666667 256C298.6666666666667 279.68 279.4666666666667 298.6666666666667 256 298.6666666666667C232.32 298.6666666666667 213.3333333333333 279.68 213.3333333333333 256C213.3333333333333 232.5333333333334 232.5333333333334 213.3333333333334 256 213.3333333333334S298.6666666666667 232.5333333333334 298.6666666666667 256M192 192C168.5333333333333 192 149.3333333333333 172.8 149.3333333333333 149.3333333333334S168.5333333333333 106.6666666666667 192 106.6666666666667S234.6666666666667 125.8666666666667 234.6666666666667 149.3333333333334C234.6666666666667 173.0133333333333 215.4666666666667 192 192 192z" /></svg>