<?xml version="1.0" encoding="UTF-8"?><!DOCTYPE svg PUBLIC "-//W3C//DTD SVG 1.1//EN" "http://www.w3.org/Graphics/SVG/1.1/DTD/svg11.dtd"><svg xmlns="http://www.w3.org/2000/svg" xmlns:xlink="http://www.w3.org/1999/xlink" version="1.1" width="512" height="512" viewBox="0 0 512 512">    <path fill="#ffffff" transform="scale(1, -1) translate(0, -448)" glyph-name="home-assistant" unicode="&#xF7CF;" horiz-adv-x="512" d=" M465.0666666666667 170.6666666666667H426.6666666666667V0H277.3333333333333V71.04L336.8533333333333 130.56L352 128C376.7466666666667 128 396.8 148.0533333333333 396.8 172.8C396.8 197.5466666666666 376.7466666666667 217.6 352 217.6C327.2533333333334 217.6 307.2 197.5466666666666 307.2 172.8L309.3333333333333 157.6533333333333L277.3333333333333 125.2266666666666V242.1333333333334C291.4133333333333 249.8133333333334 300.8 264.5333333333334 300.8 281.6C300.8 306.3466666666667 280.7466666666667 326.4 256 326.4C231.2533333333334 326.4 211.2 306.3466666666667 211.2 281.6C211.2 264.5333333333333 220.5866666666667 249.8133333333334 234.6666666666667 242.1333333333334V125.2266666666667L202.6666666666667 157.6533333333333L204.8 172.8C204.8 197.5466666666666 184.7466666666667 217.6 160 217.6C135.2533333333333 217.6 115.2 197.5466666666666 115.2 172.8C115.2 148.0533333333333 135.2533333333333 128 160 128L175.1466666666667 130.56L234.6666666666667 71.04V0H85.3333333333333V170.6666666666667H48C39.04 170.6666666666667 30.2933333333333 170.6666666666667 30.2933333333333 175.1466666666667C30.5066666666667 179.84 39.4666666666667 188.8000000000001 48.64 197.9733333333334L234.6666666666667 384C241.7066666666667 391.04 248.96 398.2933333333334 256 398.2933333333334C263.04 398.2933333333334 270.2933333333333 391.04 277.3333333333333 384L362.6666666666667 298.6666666666667V320H405.3333333333333V256L464.64 196.6933333333334C473.1733333333333 188.16 481.92 179.4133333333334 482.1333333333333 174.9333333333334C482.1333333333333 170.6666666666668 473.6 170.6666666666668 465.0666666666667 170.6666666666668M160 192C170.6666666666667 192 179.2 183.4666666666667 179.2 172.8S170.6666666666667 153.6 160 153.6S140.8 162.1333333333333 140.8 172.8S149.3333333333333 192 160 192M352 192C362.6666666666667 192 371.2 183.4666666666667 371.2 172.8S362.6666666666667 153.6 352 153.6S332.8 162.1333333333333 332.8 172.8S341.3333333333333 192 352 192M256 300.8C266.6666666666667 300.8 275.2 292.2666666666667 275.2 281.6S266.6666666666667 262.4 256 262.4S236.8 270.9333333333334 236.8 281.6S245.3333333333333 300.8 256 300.8z" /></svg>