<?xml version="1.0" encoding="UTF-8"?><!DOCTYPE svg PUBLIC "-//W3C//DTD SVG 1.1//EN" "http://www.w3.org/Graphics/SVG/1.1/DTD/svg11.dtd"><svg xmlns="http://www.w3.org/2000/svg" xmlns:xlink="http://www.w3.org/1999/xlink" version="1.1" width="512" height="512" viewBox="0 0 512 512">    <path fill="#ffffff" transform="scale(1, -1) translate(0, -448)" glyph-name="power-socket-eu" unicode="&#xF7E6;" horiz-adv-x="512" d=" M160 224C177.7066666666667 224 192 209.7066666666667 192 192S177.7066666666667 160 160 160C142.08 160 128 174.2933333333334 128 192S142.2933333333333 224 160 224M352 224C369.7066666666666 224 384 209.7066666666667 384 192S369.7066666666666 160 352 160S320 174.2933333333334 320 192S334.2933333333333 224 352 224M90.0266666666667 405.3333333333333H421.9733333333334C448 405.3333333333333 469.3333333333333 384 469.3333333333333 357.9733333333334V26.0266666666666C469.3333333333333 -0.2133333333334 448.2133333333334 -21.3333333333333 421.9733333333334 -21.3333333333333H90.0266666666667C64 -21.3333333333333 42.6666666666667 0 42.6666666666667 26.0266666666666V357.9733333333334C42.6666666666667 384.2133333333333 63.7866666666667 405.3333333333333 90.0266666666667 405.3333333333333M256 362.6666666666667C161.7066666666667 362.6666666666667 85.3333333333333 286.2933333333334 85.3333333333333 192S161.7066666666667 21.3333333333334 256 21.3333333333334S426.6666666666667 97.7066666666667 426.6666666666667 192S350.2933333333334 362.6666666666667 256 362.6666666666667z" /></svg>