<?xml version="1.0" encoding="UTF-8"?><!DOCTYPE svg PUBLIC "-//W3C//DTD SVG 1.1//EN" "http://www.w3.org/Graphics/SVG/1.1/DTD/svg11.dtd"><svg xmlns="http://www.w3.org/2000/svg" xmlns:xlink="http://www.w3.org/1999/xlink" version="1.1" width="512" height="512" viewBox="0 0 512 512">    <path fill="#ffffff" transform="scale(1, -1) translate(0, -448)" glyph-name="linkedin" unicode="&#xF33B;" horiz-adv-x="512" d=" M448 0H362.6666666666667V144C362.6666666666667 166.6133333333334 337.28 185.3866666666667 314.6666666666667 185.3866666666667S277.3333333333333 166.6133333333334 277.3333333333333 144V0H192V256H277.3333333333333V213.3333333333334C291.4133333333333 236.1600000000001 327.68 250.88 352 250.88C405.3333333333333 250.88 448 207.36 448 154.6666666666667V0M149.3333333333333 0H64V256H149.3333333333333V0M106.6666666666667 384C130.1333333333333 384 149.3333333333333 364.8 149.3333333333333 341.3333333333334S130.1333333333333 298.6666666666667 106.6666666666667 298.6666666666667S64 317.8666666666667 64 341.3333333333334S83.2 384 106.6666666666667 384z" /></svg>