<?xml version="1.0" encoding="UTF-8"?><!DOCTYPE svg PUBLIC "-//W3C//DTD SVG 1.1//EN" "http://www.w3.org/Graphics/SVG/1.1/DTD/svg11.dtd"><svg xmlns="http://www.w3.org/2000/svg" xmlns:xlink="http://www.w3.org/1999/xlink" version="1.1" width="512" height="512" viewBox="0 0 512 512">    <path fill="#ffffff" transform="scale(1, -1) translate(0, -448)" glyph-name="towing" unicode="&#xF83B;" horiz-adv-x="512" d=" M320 234.6666666666667H434.9866666666667L363.9466666666667 320H320V234.6666666666667M373.3333333333333 53.3333333333334C381.6533333333333 53.3333333333334 389.12 56.1066666666667 395.52 62.5066666666667C401.92 68.9066666666667 405.3333333333333 76.3733333333333 405.3333333333333 85.3333333333334C405.3333333333333 93.6533333333334 401.92 101.12 395.52 107.52C389.12 113.92 381.6533333333333 117.3333333333334 373.3333333333333 117.3333333333334C364.3733333333333 117.3333333333334 356.9066666666667 113.92 350.5066666666667 107.52C344.1066666666667 101.12 341.3333333333333 93.6533333333334 341.3333333333333 85.3333333333334C341.3333333333333 76.3733333333333 344.1066666666667 68.9066666666667 350.5066666666667 62.5066666666667C356.9066666666667 56.1066666666667 364.3733333333333 53.3333333333334 373.3333333333333 53.3333333333334M128 53.3333333333334C137.3866666666667 53.3333333333334 145.0666666666667 56.1066666666667 151.04 62.5066666666667S160 76.3733333333333 160 85.3333333333334C160 93.6533333333334 157.0133333333333 101.12 151.04 107.52C145.0666666666667 113.92 137.3866666666667 117.3333333333334 128 117.3333333333334C118.6133333333333 117.3333333333334 110.9333333333333 113.92 104.96 107.52C98.9866666666667 101.12 96 93.6533333333334 96 85.3333333333334C96 76.3733333333333 98.9866666666667 68.9066666666667 104.96 62.5066666666667C110.9333333333333 56.1066666666667 118.6133333333333 53.3333333333334 128 53.3333333333334M384 362.6666666666667L490.6666666666666 234.6666666666667V85.3333333333334H437.3333333333333C437.3333333333333 67.6266666666667 430.7200000000001 52.6933333333333 417.92 39.8933333333334C405.3333333333333 27.3066666666667 390.4 21.3333333333334 373.3333333333333 21.3333333333334C355.6266666666667 21.3333333333334 340.6933333333334 27.3066666666667 328.1066666666667 39.8933333333334C315.3066666666666 52.6933333333334 309.3333333333333 67.6266666666667 309.3333333333333 85.3333333333334H192C192 67.6266666666667 185.6 52.6933333333333 173.0133333333333 39.8933333333334C160 27.3066666666667 145.28 21.3333333333334 128 21.3333333333334C110.72 21.3333333333334 96 27.3066666666667 82.9866666666667 39.8933333333334C70.4 52.6933333333333 64 67.6266666666667 64 85.3333333333334H21.3333333333333V170.6666666666667H196.0533333333333L64 274.9866666666667V213.3333333333334H21.3333333333333V341.3333333333334H42.6666666666667L277.3333333333333 212.0533333333334V362.6666666666667H384z" /></svg>