<?xml version="1.0" encoding="UTF-8"?><!DOCTYPE svg PUBLIC "-//W3C//DTD SVG 1.1//EN" "http://www.w3.org/Graphics/SVG/1.1/DTD/svg11.dtd"><svg xmlns="http://www.w3.org/2000/svg" xmlns:xlink="http://www.w3.org/1999/xlink" version="1.1" width="512" height="512" viewBox="0 0 512 512">    <path fill="#ffffff" transform="scale(1, -1) translate(0, -448)" glyph-name="fast-forward-10" unicode="&#xFD4D;" horiz-adv-x="512" d=" M213.3333333333333 192V-21.3333333333333H170.6666666666667V149.3333333333334H128V192H213.3333333333333M384 149.3333333333334V21.3333333333334C384 -2.3466666666666 365.0133333333333 -21.3333333333333 341.3333333333333 -21.3333333333333H298.6666666666667C275.2 -21.3333333333333 256 -2.1333333333333 256 21.3333333333334V149.3333333333334C256 172.8 275.2 192 298.6666666666667 192H341.3333333333333C365.0133333333333 192 384 172.8 384 149.3333333333334M298.6666666666667 149.3333333333334V21.3333333333334H341.3333333333333V149.3333333333334H298.6666666666667M245.3333333333333 384C301.8666666666667 384 353.0666666666667 362.6666666666667 392.5333333333333 328.5333333333334L448 384V234.6666666666667H298.6666666666667L354.56 290.56C324.9066666666667 315.3066666666667 287.1466666666667 330.6666666666667 245.3333333333333 330.6666666666667C169.8133333333333 330.6666666666667 105.6 281.3866666666667 83.2 213.3333333333334L32.64 229.9733333333334C62.2933333333333 319.36 146.1333333333333 384 245.3333333333333 384z" /></svg>