<?xml version="1.0" encoding="UTF-8"?><!DOCTYPE svg PUBLIC "-//W3C//DTD SVG 1.1//EN" "http://www.w3.org/Graphics/SVG/1.1/DTD/svg11.dtd"><svg xmlns="http://www.w3.org/2000/svg" xmlns:xlink="http://www.w3.org/1999/xlink" version="1.1" width="512" height="512" viewBox="0 0 512 512">    <path fill="#ffffff" transform="scale(1, -1) translate(0, -448)" glyph-name="drama-masks" unicode="&#xFCDE;" horiz-adv-x="512" d=" M173.0133333333333 33.0666666666667C126.72 50.1333333333334 90.0266666666666 90.0266666666666 79.1466666666667 141.8666666666667L43.7333333333333 308.48C38.6133333333333 331.52 53.3333333333333 354.1333333333334 76.3733333333333 359.04L284.8 403.2L285.44 403.4133333333333C308.2666666666667 407.8933333333333 330.6666666666667 393.1733333333334 335.36 370.56L342.8266666666667 334.9333333333334L435.6266666666667 315.0933333333334H436.2666666666667C458.6666666666667 309.9733333333334 473.1733333333334 287.36 468.4800000000001 264.7466666666667L433.0666666666667 97.92C416.0000000000001 17.4933333333333 336.6400000000001 -34.1333333333333 256.0000000000001 -16.8533333333333C222.2933333333334 -9.8133333333333 193.7066666666667 8.3200000000001 173.0133333333334 33.0666666666667M426.6666666666667 273.4933333333334L218.24 317.8666666666667L182.8266666666667 151.04V150.4C170.6666666666667 93.2266666666667 207.5733333333333 36.9066666666667 264.96 24.7466666666667C322.3466666666667 12.5866666666667 379.0933333333333 49.28 391.2533333333334 106.6666666666667L426.6666666666667 273.4933333333334M341.3333333333333 96C327.8933333333333 73.1733333333334 301.0133333333333 60.5866666666667 273.7066666666667 66.3466666666667C246.6133333333334 72.1066666666667 227.2 94.5066666666667 224 120.7466666666667L341.3333333333333 96M180.6933333333333 337.7066666666667L85.3333333333333 317.2266666666667L120.7466666666667 150.6133333333334L120.96 149.9733333333334C124.16 134.8266666666667 130.56 121.1733333333334 139.3066666666667 109.4400000000001C137.1733333333334 125.8666666666667 137.6 142.9333333333334 141.2266666666667 160L150.4 202.6666666666667C140.8 204.3733333333333 132.48 209.7066666666667 128 217.3866666666667C129.28 230.4 139.9466666666667 241.92 154.6666666666667 245.3333333333334H160L176.64 326.6133333333334C177.4933333333333 330.6666666666667 178.7733333333333 334.2933333333334 180.6933333333333 337.7066666666667M320.64 187.0933333333334C327.4666666666666 198.4 341.9733333333333 204.3733333333333 356.6933333333333 201.1733333333334C371.4133333333333 198.1866666666667 382.08 186.88 384 173.6533333333334C376.9600000000001 162.5600000000001 362.6666666666667 156.5866666666667 347.7333333333334 160C333.0133333333333 162.7733333333334 322.3466666666667 174.0800000000001 320.64 187.0933333333334M216.5333333333334 209.28C223.3600000000001 220.5866666666667 237.6533333333334 226.56 252.3733333333334 223.36C266.6666666666667 220.3733333333333 277.9733333333334 208.8533333333333 279.68 195.84C272.64 184.7466666666667 258.3466666666667 178.56 243.6266666666667 181.3333333333334C228.9066666666667 184.96 218.2400000000001 196.2666666666667 216.5333333333334 209.28M255.3600000000001 353.4933333333334L297.1733333333334 344.5333333333334L293.7600000000001 361.6L255.3600000000001 353.4933333333334z" /></svg>