<?xml version="1.0" encoding="UTF-8"?><!DOCTYPE svg PUBLIC "-//W3C//DTD SVG 1.1//EN" "http://www.w3.org/Graphics/SVG/1.1/DTD/svg11.dtd"><svg xmlns="http://www.w3.org/2000/svg" xmlns:xlink="http://www.w3.org/1999/xlink" version="1.1" width="512" height="512" viewBox="0 0 512 512">    <path fill="#ffffff" transform="scale(1, -1) translate(0, -448)" glyph-name="jsfiddle" unicode="&#xF304;" horiz-adv-x="512" d=" M350.9333333333333 74.6666666666667C372.2666666666667 74.6666666666667 390.4 82.1333333333334 405.3333333333333 96C419.6266666666667 110.9333333333333 426.6666666666667 128 426.6666666666667 149.3333333333334C426.6666666666667 169.6 419.4133333333333 187.3066666666667 404.48 202.0266666666667C389.5466666666667 216.7466666666667 371.4133333333333 224 350.08 224C330.0266666666667 224 312.32 216.96 296.96 202.6666666666667L194.9866666666667 116.0533333333334C185.6 106.6666666666667 174.2933333333333 101.9733333333334 161.0666666666667 101.9733333333334C147.6266666666667 101.9733333333334 136.32 106.6666666666667 126.9333333333334 116.0533333333334C117.3333333333334 125.2266666666667 113.0666666666667 136.3200000000001 113.0666666666667 149.3333333333334C113.0666666666667 161.7066666666667 117.3333333333334 172.5866666666667 126.9333333333334 181.9733333333334C136.32 191.36 147.6266666666667 196.0533333333334 161.0666666666667 196.0533333333334C173.6533333333333 196.0533333333334 185.3866666666667 191.36 196.0533333333334 181.9733333333334L212.0533333333334 167.8933333333334L232.9600000000001 187.0933333333334L215.04 202.0266666666667C200.3200000000001 216.7466666666667 182.4 224 161.0666666666667 224C140.3733333333334 224 122.4533333333334 216.7466666666667 107.5200000000001 202.0266666666667C92.5866666666667 187.3066666666667 85.3333333333333 169.6 85.3333333333333 149.3333333333334C85.3333333333333 128 92.5866666666667 110.9333333333333 107.52 96C122.4533333333333 82.1333333333334 140.5866666666667 74.6666666666667 161.92 74.6666666666667C181.9733333333333 74.6666666666667 199.68 81.92 215.04 96L317.0133333333333 183.04C325.76 192 337.0666666666666 196.0533333333334 350.9333333333333 196.0533333333334C364.3733333333333 196.0533333333334 375.68 191.36 385.0666666666667 181.9733333333334C394.6666666666667 172.5866666666667 398.9333333333333 161.7066666666667 398.9333333333333 149.3333333333334C398.9333333333333 136.3200000000001 394.6666666666667 125.2266666666667 385.0666666666667 116.0533333333334C375.68 106.6666666666667 364.3733333333334 101.9733333333334 350.9333333333333 101.9733333333334C338.9866666666666 101.9733333333334 327.2533333333334 106.6666666666667 315.9466666666666 117.3333333333334L299.9466666666666 130.9866666666667L279.04 112.0000000000001L296.9599999999999 97.0666666666667C311.68 82.3466666666667 329.5999999999999 74.6666666666667 350.9333333333333 74.6666666666667M413.0133333333333 234.0266666666667C440.32 231.8933333333333 463.5733333333333 220.8 482.9866666666667 200.5333333333333C502.4 180.2666666666667 512 155.9466666666667 512 128C512 98.56 501.3333333333333 73.6 480 52.48C459.52 31.9999999999999 434.3466666666667 21.3333333333333 405.3333333333333 21.3333333333333H128C92.5866666666667 21.3333333333333 62.5066666666667 33.4933333333333 37.5466666666667 58.4533333333333C12.5866666666667 83.4133333333334 0 113.7066666666667 0 149.3333333333334C0 180.2666666666667 10.6666666666667 208.4266666666667 33.4933333333333 233.6C55.8933333333333 258.56 82.7733333333333 272.64 113.92 276.0533333333334C128 302.08 147.6266666666667 322.9866666666667 173.0133333333333 338.9866666666667S225.92 362.6666666666667 256 362.6666666666667C292.0533333333333 362.6666666666667 325.5466666666666 350.2933333333334 356.48 324.9066666666667C387.4133333333333 299.7333333333334 406.4 269.2266666666667 413.0133333333333 234.0266666666667z" /></svg>