<?xml version="1.0" encoding="UTF-8"?><!DOCTYPE svg PUBLIC "-//W3C//DTD SVG 1.1//EN" "http://www.w3.org/Graphics/SVG/1.1/DTD/svg11.dtd"><svg xmlns="http://www.w3.org/2000/svg" xmlns:xlink="http://www.w3.org/1999/xlink" version="1.1" width="512" height="512" viewBox="0 0 512 512">    <path fill="#ffffff" transform="scale(1, -1) translate(0, -448)" glyph-name="theater" unicode="&#xF50D;" horiz-adv-x="512" d=" M85.3333333333333 128H128C151.4666666666667 128 170.6666666666667 108.8 170.6666666666667 85.3333333333334V42.6666666666667H192V85.3333333333334C192 108.8 211.2 128 234.6666666666667 128H277.3333333333333C300.8 128 320 108.8 320 85.3333333333334V42.6666666666667H341.3333333333333V85.3333333333334C341.3333333333333 108.8 360.5333333333333 128 384 128H426.6666666666667C450.1333333333334 128 469.3333333333333 108.8 469.3333333333333 85.3333333333334V42.6666666666667H490.6666666666666V-21.3333333333333H21.3333333333333V42.6666666666667H42.6666666666667V85.3333333333334C42.6666666666667 108.8 61.8666666666667 128 85.3333333333333 128M234.6666666666667 298.6666666666667L320 234.6666666666667L234.6666666666667 170.6666666666667V298.6666666666667M85.3333333333333 405.3333333333333H426.6666666666667C450.1333333333334 405.3333333333333 469.3333333333333 386.1333333333334 469.3333333333333 362.6666666666667V159.1466666666667C456.7466666666667 166.6133333333334 442.24 170.6666666666667 426.6666666666667 170.6666666666667V362.6666666666667H85.3333333333333V170.6666666666667C69.76 170.6666666666667 55.2533333333333 166.6133333333334 42.6666666666667 159.1466666666667V362.6666666666667C42.6666666666667 386.1333333333334 61.8666666666667 405.3333333333333 85.3333333333333 405.3333333333333z" /></svg>