<?xml version="1.0" encoding="UTF-8"?><!DOCTYPE svg PUBLIC "-//W3C//DTD SVG 1.1//EN" "http://www.w3.org/Graphics/SVG/1.1/DTD/svg11.dtd"><svg xmlns="http://www.w3.org/2000/svg" xmlns:xlink="http://www.w3.org/1999/xlink" version="1.1" width="512" height="512" viewBox="0 0 512 512">    <path fill="#ffffff" transform="scale(1, -1) translate(0, -448)" glyph-name="language-java" unicode="&#xFB1C;" horiz-adv-x="512" d=" M352 318.2933333333334S206.08 281.8133333333334 276.0533333333333 201.3866666666667C296.7466666666667 177.7066666666667 270.72 156.3733333333333 270.72 156.3733333333333S322.9866666666667 183.04 298.6666666666667 217.1733333333334C276.0533333333333 248.5333333333334 258.9866666666667 264.1066666666667 352 318.2933333333334M256.64 292.6933333333334C343.04 360.9600000000001 298.6666666666667 405.3333333333333 298.6666666666667 405.3333333333333C316.5866666666667 334.9333333333334 235.52 313.6 206.2933333333333 269.6533333333334C186.24 239.7866666666667 216.1066666666667 207.5733333333334 256 170.6666666666667C240.8533333333333 206.9333333333333 187.3066666666667 238.08 256.64 292.6933333333334M199.8933333333333 75.3066666666667C134.1866666666667 56.96 240 19.2 323.4133333333333 54.8266666666667C315.3066666666666 58.0266666666666 307.4133333333333 61.8666666666667 299.9466666666667 66.3466666666667C270.9333333333334 59.7333333333334 241.0666666666667 58.4533333333333 211.6266666666667 62.5066666666667C183.68 65.92 199.8933333333334 75.3066666666667 199.8933333333334 75.3066666666667M313.3866666666667 111.1466666666667C276.0533333333334 103.0400000000001 237.44 101.1200000000001 199.4666666666667 105.6C171.52 108.3733333333333 189.8666666666667 122.0266666666667 189.8666666666667 122.0266666666667C117.3333333333334 97.92 229.9733333333334 70.8266666666667 330.6666666666667 100.2666666666667C324.48 102.6133333333334 318.5066666666667 106.6666666666667 313.3866666666667 111.1466666666667M386.3466666666667 40.7466666666667S398.5066666666667 30.72 373.3333333333333 23.0400000000001C324.6933333333334 8.5333333333334 172.16 4.0533333333334 129.92 22.4C114.7733333333333 29.0133333333333 143.36 38.1866666666667 152.32 40.1066666666667C157.2266666666667 41.3866666666667 162.1333333333333 41.8133333333333 167.04 41.8133333333333C150.1866666666667 53.3333333333333 57.6 18.3466666666666 120.32 8.5333333333333C290.3466666666667 -19.2 430.5066666666667 21.3333333333334 386.3466666666667 40.7466666666667M327.8933333333333 144.4266666666667C334.08 148.48 340.6933333333333 151.8933333333333 347.52 154.88C347.52 154.88 315.3066666666666 149.3333333333334 283.0933333333333 146.3466666666667C248.96 142.9333333333333 214.6133333333333 142.5066666666667 180.48 145.0666666666667C130.3466666666667 151.68 208 170.6666666666666 208 170.6666666666666C184.5333333333333 170.6666666666666 161.4933333333334 165.12 140.5866666666667 154.6666666666666C96.8533333333333 133.3333333333333 249.3866666666667 123.7333333333334 327.8933333333333 144.4266666666666M347.0933333333333 92.8C346.6666666666667 91.9466666666667 346.24 91.3066666666666 345.3866666666667 90.6666666666666C452.2666666666667 118.6133333333333 413.0133333333333 189.6533333333333 361.8133333333334 171.9466666666666C359.04 170.6666666666666 356.6933333333334 168.9599999999999 355.2000000000001 166.6133333333333C358.1866666666667 167.68 361.1733333333334 168.5333333333333 364.3733333333334 169.1733333333333C389.9733333333334 174.2933333333333 426.6666666666667 134.4 347.0933333333334 92.7999999999999M349.8666666666667 -5.5466666666667C285.6533333333334 -16.6400000000001 219.9466666666667 -17.4933333333334 155.3066666666667 -8.5333333333334C155.3066666666667 -8.5333333333334 165.1200000000001 -16.6400000000001 215.2533333333334 -19.8400000000001C292.0533333333334 -24.7466666666668 410.0266666666668 -17.0666666666668 412.8 19.1999999999998C413.4400000000001 18.9866666666665 407.8933333333333 5.3333333333332 349.8666666666667 -5.5466666666669z" /></svg>