<?xml version="1.0" encoding="UTF-8"?><!DOCTYPE svg PUBLIC "-//W3C//DTD SVG 1.1//EN" "http://www.w3.org/Graphics/SVG/1.1/DTD/svg11.dtd"><svg xmlns="http://www.w3.org/2000/svg" xmlns:xlink="http://www.w3.org/1999/xlink" version="1.1" width="512" height="512" viewBox="0 0 512 512">    <path fill="#ffffff" transform="scale(1, -1) translate(0, -448)" glyph-name="theme-light-dark" unicode="&#xF50E;" horiz-adv-x="512" d=" M160 405.3333333333333C121.8133333333333 380.8 96 337.4933333333334 96 288S121.8133333333333 195.2 160.64 170.6666666666667C95.1466666666667 170.6666666666667 42.6666666666667 223.1466666666667 42.6666666666667 288S95.1466666666667 405.3333333333333 160 405.3333333333333M406.8266666666667 373.3333333333334L437.3333333333333 342.8266666666667L105.1733333333333 10.6666666666667L74.6666666666667 41.1733333333333L406.8266666666667 373.3333333333334M274.9866666666667 321.4933333333334L243.4133333333334 341.3333333333334L212.6933333333333 320L221.6533333333333 356.2666666666667L192 378.88L229.3333333333333 381.44L241.7066666666667 416.64L256 381.8666666666667L292.9066666666667 381.2266666666667L264.1066666666667 357.12L274.9866666666667 321.4933333333334M204.5866666666667 244.48L179.84 260.0533333333334L155.9466666666667 243.4133333333334L163.2 271.5733333333334L139.9466666666667 289.2800000000001L168.96 291.2000000000001L178.56 318.7200000000001L189.44 291.6266666666667L218.4533333333333 290.9866666666667L196.0533333333333 272.4266666666668L204.5866666666666 244.48M405.3333333333333 160C405.3333333333333 95.1466666666667 352.8533333333333 42.6666666666667 288 42.6666666666667C261.9733333333333 42.6666666666667 237.8666666666667 51.2 218.4533333333333 65.4933333333333L382.5066666666667 229.5466666666667C396.8 210.1333333333334 405.3333333333333 186.0266666666668 405.3333333333333 160.0000000000001M311.4666666666667 19.6266666666667L370.56 44.16L365.4400000000001 -27.3066666666667L311.4666666666667 19.6266666666667M403.8400000000001 77.2266666666666L428.3733333333334 136.3199999999999L475.3066666666667 82.1333333333333L403.84 77.2266666666666M428.3733333333333 183.04L404.0533333333333 242.3466666666667L475.3066666666666 237.2266666666667L428.3733333333333 183.04M205.44 44.16L264.5333333333333 19.6266666666667L210.56 -27.0933333333333L205.44 44.16z" /></svg>