<?xml version="1.0" encoding="UTF-8"?><!DOCTYPE svg PUBLIC "-//W3C//DTD SVG 1.1//EN" "http://www.w3.org/Graphics/SVG/1.1/DTD/svg11.dtd"><svg xmlns="http://www.w3.org/2000/svg" xmlns:xlink="http://www.w3.org/1999/xlink" version="1.1" width="512" height="512" viewBox="0 0 512 512">    <path fill="#ffffff" transform="scale(1, -1) translate(0, -448)" glyph-name="cassette" unicode="&#xF9D3;" horiz-adv-x="512" d=" M85.3333333333333 341.3333333333334C61.8666666666667 341.3333333333334 42.6666666666667 322.1333333333334 42.6666666666667 298.6666666666667V85.3333333333334C42.6666666666667 61.8666666666667 61.8666666666667 42.6666666666667 85.3333333333333 42.6666666666667H128L149.3333333333333 85.3333333333334H362.6666666666667L384 42.6666666666667H426.6666666666667C450.1333333333334 42.6666666666667 469.3333333333333 61.8666666666667 469.3333333333333 85.3333333333334V298.6666666666667C469.3333333333333 322.1333333333334 450.1333333333334 341.3333333333334 426.6666666666667 341.3333333333334H85.3333333333333M138.6666666666667 234.6666666666667C156.3733333333333 234.6666666666667 170.6666666666667 220.3733333333333 170.6666666666667 202.6666666666667S156.3733333333333 170.6666666666667 138.6666666666667 170.6666666666667S106.6666666666667 184.96 106.6666666666667 202.6666666666667S120.96 234.6666666666667 138.6666666666667 234.6666666666667M192 234.6666666666667H320V170.6666666666667H192V234.6666666666667M373.3333333333333 234.6666666666667C391.04 234.6666666666667 405.3333333333333 220.3733333333333 405.3333333333333 202.6666666666667S391.04 170.6666666666667 373.3333333333333 170.6666666666667S341.3333333333333 184.96 341.3333333333333 202.6666666666667S355.6266666666667 234.6666666666667 373.3333333333333 234.6666666666667z" /></svg>