<?xml version="1.0" encoding="UTF-8"?><!DOCTYPE svg PUBLIC "-//W3C//DTD SVG 1.1//EN" "http://www.w3.org/Graphics/SVG/1.1/DTD/svg11.dtd"><svg xmlns="http://www.w3.org/2000/svg" xmlns:xlink="http://www.w3.org/1999/xlink" version="1.1" width="512" height="512" viewBox="0 0 512 512">    <path fill="#ffffff" transform="scale(1, -1) translate(0, -448)" glyph-name="thermometer-alert" unicode="&#xFE61;" horiz-adv-x="512" d=" M320 85.3333333333334C320 26.4533333333334 272.2133333333333 -21.3333333333333 213.3333333333333 -21.3333333333333S106.6666666666667 26.4533333333334 106.6666666666667 85.3333333333334C106.6666666666667 118.8266666666667 122.4533333333333 150.6133333333334 149.3333333333333 170.6666666666667V341.3333333333334C149.3333333333333 376.7466666666667 177.92 405.3333333333333 213.3333333333333 405.3333333333333S277.3333333333333 376.7466666666667 277.3333333333333 341.3333333333334V170.6666666666667C304.2133333333333 150.6133333333334 320 118.8266666666667 320 85.3333333333334M192 277.3333333333334V145.7066666666667C158.72 133.9733333333334 141.2266666666667 97.28 152.96 64C164.6933333333333 30.72 201.3866666666667 13.2266666666667 234.6666666666667 24.96C267.9466666666667 36.9066666666667 285.44 73.3866666666667 273.7066666666667 106.6666666666667C267.3066666666666 125.0133333333334 252.8 139.3066666666667 234.6666666666667 145.7066666666667V277.3333333333334H192M362.6666666666667 192V298.6666666666667H405.3333333333333V192H362.6666666666667M362.6666666666667 106.6666666666667V149.3333333333334H405.3333333333333V106.6666666666667H362.6666666666667z" /></svg>