<?xml version="1.0" encoding="UTF-8"?><!DOCTYPE svg PUBLIC "-//W3C//DTD SVG 1.1//EN" "http://www.w3.org/Graphics/SVG/1.1/DTD/svg11.dtd"><svg xmlns="http://www.w3.org/2000/svg" xmlns:xlink="http://www.w3.org/1999/xlink" version="1.1" width="512" height="512" viewBox="0 0 512 512">    <path fill="#ffffff" transform="scale(1, -1) translate(0, -448)" glyph-name="car-connected" unicode="&#xF10D;" horiz-adv-x="512" d=" M106.6666666666667 149.3333333333334H405.3333333333333L373.3333333333333 245.3333333333334H138.6666666666667L106.6666666666667 149.3333333333334M373.3333333333333 42.6666666666667C391.04 42.6666666666667 405.3333333333333 56.96 405.3333333333333 74.6666666666667S391.04 106.6666666666667 373.3333333333333 106.6666666666667S341.3333333333333 92.3733333333333 341.3333333333333 74.6666666666667S355.6266666666667 42.6666666666667 373.3333333333333 42.6666666666667M138.6666666666667 42.6666666666667C156.3733333333333 42.6666666666667 170.6666666666667 56.96 170.6666666666667 74.6666666666667S156.3733333333333 106.6666666666667 138.6666666666667 106.6666666666667S106.6666666666667 92.3733333333333 106.6666666666667 74.6666666666667S120.96 42.6666666666667 138.6666666666667 42.6666666666667M403.6266666666667 256L448 128V-42.6666666666666C448 -54.4 438.4 -64 426.6666666666667 -64H405.3333333333333C393.6 -64 384 -54.4 384 -42.6666666666666V-21.3333333333333H128V-42.6666666666666C128 -54.4 118.4 -64 106.6666666666667 -64H85.3333333333333C73.6 -64 64 -54.4 64 -42.6666666666666V128L108.3733333333333 256C112.64 268.3733333333334 124.8 277.3333333333334 138.6666666666667 277.3333333333334H373.3333333333333C387.2 277.3333333333334 399.36 268.3733333333334 403.6266666666667 256M256 448C301.2266666666667 448 344.5333333333333 429.6533333333333 376.5333333333333 397.8666666666667L346.2399999999999 367.5733333333333C322.3466666666667 391.4666666666667 289.7066666666667 405.3333333333333 256 405.3333333333333C222.2933333333333 405.3333333333333 189.6533333333333 391.4666666666667 165.76 367.5733333333333L135.68 397.8666666666667C167.4666666666667 429.6533333333333 210.7733333333334 448 256 448M256 362.6666666666667C278.6133333333334 362.6666666666667 300.16 353.28 316.16 337.4933333333334L285.8666666666667 307.2000000000001C277.9733333333334 315.0933333333334 267.3066666666667 320 256 320C245.3333333333333 320 234.0266666666667 315.0933333333334 226.1333333333334 307.2000000000001L195.84 337.4933333333334C211.84 353.28 233.3866666666667 362.6666666666667 256 362.6666666666667z" /></svg>