<?xml version="1.0" encoding="UTF-8"?><!DOCTYPE svg PUBLIC "-//W3C//DTD SVG 1.1//EN" "http://www.w3.org/Graphics/SVG/1.1/DTD/svg11.dtd"><svg xmlns="http://www.w3.org/2000/svg" xmlns:xlink="http://www.w3.org/1999/xlink" version="1.1" width="512" height="512" viewBox="0 0 512 512">    <path fill="#ffffff" transform="scale(1, -1) translate(0, -448)" glyph-name="subway-alert-variant" unicode="&#xFD79;" horiz-adv-x="512" d=" M341.3333333333333 213.3333333333334V320H234.6666666666667V213.3333333333334H341.3333333333333M309.3333333333333 85.3333333333334C327.04 85.3333333333334 341.3333333333333 99.6266666666667 341.3333333333333 117.3333333333334S327.04 149.3333333333334 309.3333333333333 149.3333333333334S277.3333333333333 135.04 277.3333333333333 117.3333333333334S291.6266666666667 85.3333333333334 309.3333333333333 85.3333333333334M192 213.3333333333334V320H85.3333333333333V213.3333333333334H192M117.3333333333333 85.3333333333334C135.04 85.3333333333334 149.3333333333333 99.6266666666667 149.3333333333333 117.3333333333334S135.04 149.3333333333334 117.3333333333333 149.3333333333334S85.3333333333333 135.04 85.3333333333333 117.3333333333334S99.6266666666667 85.3333333333334 117.3333333333333 85.3333333333334M213.3333333333333 405.3333333333333C307.6266666666667 405.3333333333333 384 394.6666666666667 384 320V117.3333333333334C384 76.16 350.5066666666667 42.6666666666667 309.3333333333333 42.6666666666667L341.3333333333333 10.6666666666667V0H85.3333333333333V10.6666666666667L117.3333333333333 42.6666666666667C76.16 42.6666666666667 42.6666666666667 76.16 42.6666666666667 117.3333333333334V320C42.6666666666667 394.6666666666667 119.04 405.3333333333333 213.3333333333333 405.3333333333333M426.6666666666667 192V298.6666666666667H469.3333333333333V192H426.6666666666667M426.6666666666667 106.6666666666667V149.3333333333334H469.3333333333333V106.6666666666667H426.6666666666667z" /></svg>