<?xml version="1.0" encoding="UTF-8"?><!DOCTYPE svg PUBLIC "-//W3C//DTD SVG 1.1//EN" "http://www.w3.org/Graphics/SVG/1.1/DTD/svg11.dtd"><svg xmlns="http://www.w3.org/2000/svg" xmlns:xlink="http://www.w3.org/1999/xlink" version="1.1" width="512" height="512" viewBox="0 0 512 512">    <path fill="#ffffff" transform="scale(1, -1) translate(0, -448)" glyph-name="table-plus" unicode="&#xFA74;" horiz-adv-x="512" d=" M384 149.3333333333334H426.6666666666667V85.3333333333334H490.6666666666666V42.6666666666667H426.6666666666667V-21.3333333333333H384V42.6666666666667H320V85.3333333333334H384V149.3333333333334M85.3333333333333 384H384C407.4666666666667 384 426.6666666666667 364.8 426.6666666666667 341.3333333333334V190.2933333333334C393.6 195.84 360.9600000000001 188.16 334.5066666666667 170.6666666666667H256V85.3333333333334H279.04C276.6933333333334 70.8266666666667 276.6933333333334 56.5333333333333 279.04 42.6666666666667H85.3333333333333C61.8666666666667 42.6666666666667 42.6666666666667 61.8666666666667 42.6666666666667 85.3333333333334V341.3333333333334C42.6666666666667 364.8 61.8666666666667 384 85.3333333333333 384M85.3333333333333 298.6666666666667V213.3333333333334H213.3333333333333V298.6666666666667H85.3333333333333M256 298.6666666666667V213.3333333333334H384V298.6666666666667H256M85.3333333333333 170.6666666666667V85.3333333333334H213.3333333333333V170.6666666666667H85.3333333333333z" /></svg>