<?xml version="1.0" encoding="UTF-8"?><!DOCTYPE svg PUBLIC "-//W3C//DTD SVG 1.1//EN" "http://www.w3.org/Graphics/SVG/1.1/DTD/svg11.dtd"><svg xmlns="http://www.w3.org/2000/svg" xmlns:xlink="http://www.w3.org/1999/xlink" version="1.1" width="512" height="512" viewBox="0 0 512 512">    <path fill="#ffffff" transform="scale(1, -1) translate(0, -448)" glyph-name="weather-windy" unicode="&#xF59D;" horiz-adv-x="512" d=" M85.3333333333333 234.6666666666667C73.6 234.6666666666667 64 244.2666666666667 64 256S73.6 277.3333333333334 85.3333333333333 277.3333333333334H256C279.4666666666667 277.3333333333334 298.6666666666667 296.5333333333334 298.6666666666667 320S279.4666666666667 362.6666666666667 256 362.6666666666667C244.2666666666667 362.6666666666667 233.6 357.9733333333334 225.92 350.0800000000001C217.6 341.3333333333334 203.9466666666667 341.3333333333334 195.6266666666667 350.0800000000001C187.3066666666667 358.4 187.3066666666667 372.0533333333334 195.6266666666667 380.3733333333334C211.2 395.7333333333334 232.5333333333334 405.3333333333333 256 405.3333333333333C303.1466666666667 405.3333333333333 341.3333333333333 367.1466666666667 341.3333333333333 320S303.1466666666667 234.6666666666667 256 234.6666666666667H85.3333333333333M405.3333333333333 192C417.0666666666667 192 426.6666666666667 201.6 426.6666666666667 213.3333333333334S417.0666666666667 234.6666666666667 405.3333333333333 234.6666666666667C399.36 234.6666666666667 394.0266666666667 232.32 390.1866666666666 228.48C381.8666666666666 220.16 368.4266666666666 220.16 360.1066666666667 228.48C352 236.8000000000001 352 250.24 360.1066666666667 258.5600000000001C371.6266666666667 270.0800000000001 387.6266666666667 277.3333333333334 405.3333333333333 277.3333333333334C440.7466666666667 277.3333333333334 469.3333333333333 248.7466666666667 469.3333333333333 213.3333333333334S440.7466666666667 149.3333333333334 405.3333333333333 149.3333333333334H106.6666666666667C94.9333333333333 149.3333333333334 85.3333333333333 158.9333333333333 85.3333333333333 170.6666666666667S94.9333333333333 192 106.6666666666667 192H405.3333333333333M384 64H85.3333333333333C73.6 64 64 73.6 64 85.3333333333334S73.6 106.6666666666667 85.3333333333333 106.6666666666667H384C419.4133333333333 106.6666666666667 448 78.08 448 42.6666666666667S419.4133333333333 -21.3333333333333 384 -21.3333333333333C366.2933333333334 -21.3333333333333 350.2933333333334 -14.08 338.7733333333333 -2.56C330.6666666666667 5.76 330.6666666666667 19.2 338.7733333333333 27.52C347.0933333333333 35.84 360.5333333333333 35.84 368.8533333333333 27.52C372.6933333333333 23.68 378.0266666666667 21.3333333333334 384 21.3333333333334C395.7333333333334 21.3333333333334 405.3333333333333 30.9333333333333 405.3333333333333 42.6666666666667S395.7333333333334 64 384 64z" /></svg>