<?xml version="1.0" encoding="UTF-8"?><!DOCTYPE svg PUBLIC "-//W3C//DTD SVG 1.1//EN" "http://www.w3.org/Graphics/SVG/1.1/DTD/svg11.dtd"><svg xmlns="http://www.w3.org/2000/svg" xmlns:xlink="http://www.w3.org/1999/xlink" version="1.1" width="512" height="512" viewBox="0 0 512 512">    <path fill="#ffffff" transform="scale(1, -1) translate(0, -448)" glyph-name="checkbox-marked-circle-outline" unicode="&#xF134;" horiz-adv-x="512" d=" M426.6666666666667 192C426.6666666666667 97.7066666666667 350.2933333333334 21.3333333333334 256 21.3333333333334S85.3333333333333 97.7066666666667 85.3333333333333 192S161.7066666666667 362.6666666666667 256 362.6666666666667C272.2133333333333 362.6666666666667 288 360.32 302.9333333333333 356.0533333333334L336.4266666666666 389.5466666666667C311.68 399.7866666666667 284.5866666666667 405.3333333333333 256 405.3333333333333C138.24 405.3333333333333 42.6666666666667 309.76 42.6666666666667 192S138.24 -21.3333333333333 256 -21.3333333333333S469.3333333333333 74.24 469.3333333333333 192M168.7466666666667 232.96L138.6666666666667 202.6666666666667L234.6666666666667 106.6666666666667L448 320L417.92 350.2933333333334L234.6666666666667 167.04L168.7466666666667 232.96z" /></svg>