<?xml version="1.0" encoding="UTF-8"?><!DOCTYPE svg PUBLIC "-//W3C//DTD SVG 1.1//EN" "http://www.w3.org/Graphics/SVG/1.1/DTD/svg11.dtd"><svg xmlns="http://www.w3.org/2000/svg" xmlns:xlink="http://www.w3.org/1999/xlink" version="1.1" width="512" height="512" viewBox="0 0 512 512">    <path fill="#ffffff" transform="scale(1, -1) translate(0, -448)" glyph-name="radioactive" unicode="&#xF43C;" horiz-adv-x="512" d=" M256 234.6666666666667C279.4666666666667 234.6666666666667 298.6666666666667 215.4666666666667 298.6666666666667 192S279.4666666666667 149.3333333333334 256 149.3333333333334S213.3333333333333 168.5333333333334 213.3333333333333 192S232.5333333333334 234.6666666666667 256 234.6666666666667M256 -21.3333333333333C214.4 -21.3333333333333 175.36 -9.3866666666667 142.72 11.3066666666667L213.3333333333333 117.9733333333334C226.1333333333334 110.72 240.64 106.6666666666667 256 106.6666666666667S285.8666666666667 110.72 298.6666666666667 117.9733333333334L369.28 11.3066666666667C336.64 -9.3866666666667 297.6 -21.3333333333333 256 -21.3333333333333M42.6666666666667 192C42.6666666666667 280.32 96 356.2666666666667 173.0133333333333 388.6933333333334L220.5866666666667 269.6533333333334C191.1466666666667 256 170.6666666666667 226.56 170.6666666666667 192H42.6666666666667M341.3333333333333 192C341.3333333333333 226.5600000000001 320.8533333333333 256 291.4133333333333 269.6533333333334L338.9866666666667 388.6933333333334C416 356.2666666666667 469.3333333333333 280.32 469.3333333333333 192H341.3333333333333z" /></svg>