<?xml version="1.0" encoding="UTF-8"?><!DOCTYPE svg PUBLIC "-//W3C//DTD SVG 1.1//EN" "http://www.w3.org/Graphics/SVG/1.1/DTD/svg11.dtd"><svg xmlns="http://www.w3.org/2000/svg" xmlns:xlink="http://www.w3.org/1999/xlink" version="1.1" width="512" height="512" viewBox="0 0 512 512">    <path fill="#ffffff" transform="scale(1, -1) translate(0, -448)" glyph-name="weather-night" unicode="&#xF594;" horiz-adv-x="512" d=" M378.6666666666667 360.7466666666667L324.6933333333334 319.36L344.1066666666667 254.08L288 292.6933333333334L231.8933333333334 254.08L251.3066666666667 319.36L197.3333333333334 360.7466666666667L265.3866666666667 362.6666666666667L288 426.6666666666667L310.6133333333334 362.6666666666667L378.6666666666667 360.7466666666667M453.3333333333333 213.3333333333334L418.3466666666667 186.6666666666667L430.9333333333333 144.4266666666667L394.6666666666667 169.3866666666667L358.4 144.4266666666667L370.9866666666667 186.6666666666667L336 213.3333333333334L379.9466666666666 214.4L394.6666666666667 256L409.3866666666667 214.4L453.3333333333333 213.3333333333334M404.6933333333333 107.7333333333334C422.3999999999999 109.4400000000001 441.3866666666666 84.2666666666667 430.08 68.2666666666667C423.2533333333334 58.6666666666667 416 49.7066666666667 407.04 41.1733333333333C323.6266666666667 -42.6666666666666 188.5866666666667 -42.6666666666666 105.3866666666667 41.1733333333333C21.9733333333333 124.3733333333333 21.9733333333333 259.6266666666667 105.3866666666667 342.8266666666667C113.92 351.36 122.88 359.04 132.48 365.8666666666667C148.48 377.1733333333334 173.6533333333333 358.1866666666667 171.9466666666667 340.48C166.1866666666667 279.4666666666667 186.6666666666667 216.1066666666667 233.6 169.3866666666667C280.32 122.4533333333334 343.4666666666667 101.9733333333334 404.6933333333333 107.7333333333334M369.7066666666666 64.64C309.3333333333333 68.0533333333334 249.6 93.0133333333333 203.3066666666666 138.6666666666668C157.0133333333333 185.3866666666667 132.2666666666666 245.3333333333334 128.8533333333333 305.4933333333334C68.9066666666666 238.5066666666667 71.2533333333333 135.6800000000001 135.4666666666666 71.2533333333335C199.8933333333333 7.0400000000001 302.7199999999999 4.6933333333334 369.7066666666666 64.6400000000001z" /></svg>