<?xml version="1.0" encoding="UTF-8"?><!DOCTYPE svg PUBLIC "-//W3C//DTD SVG 1.1//EN" "http://www.w3.org/Graphics/SVG/1.1/DTD/svg11.dtd"><svg xmlns="http://www.w3.org/2000/svg" xmlns:xlink="http://www.w3.org/1999/xlink" version="1.1" width="512" height="512" viewBox="0 0 512 512">    <path fill="#ffffff" transform="scale(1, -1) translate(0, -448)" glyph-name="city-variant" unicode="&#xFA35;" horiz-adv-x="512" d=" M405.3333333333333 256V298.6666666666667C405.3333333333333 322.1333333333334 386.1333333333334 341.3333333333334 362.6666666666667 341.3333333333334H341.3333333333333V405.3333333333333H298.6666666666667V341.3333333333334H277.3333333333333C253.8666666666667 341.3333333333334 234.6666666666667 322.1333333333334 234.6666666666667 298.6666666666667V256C211.2 256 192 236.8 192 213.3333333333334V192H106.6666666666667C83.2 192 64 172.8 64 149.3333333333334V-21.3333333333333H128V21.3333333333334H170.6666666666667V-21.3333333333333H256V21.3333333333334H298.6666666666667V-21.3333333333333H341.3333333333333V21.3333333333334H384V-21.3333333333333H448V213.3333333333334C448 236.8 428.8 256 405.3333333333333 256M170.6666666666667 64H128V106.6666666666667H170.6666666666667V64M298.6666666666667 64H256V106.6666666666667H298.6666666666667V64M298.6666666666667 149.3333333333334H256V192H298.6666666666667V149.3333333333334M277.3333333333333 256V298.6666666666667H362.6666666666667V256H277.3333333333333M384 64H341.3333333333333V106.6666666666667H384V64M384 149.3333333333334H341.3333333333333V192H384V149.3333333333334z" /></svg>