<?xml version="1.0" encoding="UTF-8"?><!DOCTYPE svg PUBLIC "-//W3C//DTD SVG 1.1//EN" "http://www.w3.org/Graphics/SVG/1.1/DTD/svg11.dtd"><svg xmlns="http://www.w3.org/2000/svg" xmlns:xlink="http://www.w3.org/1999/xlink" version="1.1" width="512" height="512" viewBox="0 0 512 512">    <path fill="#ffffff" transform="scale(1, -1) translate(0, -448)" glyph-name="leak" unicode="&#xFDB3;" horiz-adv-x="512" d=" M128 384H64V320C99.4133333333333 320 128 348.5866666666667 128 384M298.6666666666667 384H256C256 277.9733333333334 170.0266666666667 192 64 192V149.3333333333334C193.7066666666667 149.3333333333334 298.6666666666667 254.5066666666667 298.6666666666667 384M213.3333333333333 384H170.6666666666667C170.6666666666667 325.12 122.88 277.3333333333334 64 277.3333333333334V234.6666666666667C146.56 234.6666666666667 213.3333333333333 301.44 213.3333333333333 384M213.3333333333333 0H256C256 106.0266666666666 341.9733333333334 192 448 192V234.6666666666667C318.2933333333333 234.6666666666667 213.3333333333333 129.7066666666667 213.3333333333333 0M384 0H448V64C412.5866666666667 64 384 35.4133333333334 384 0M298.6666666666667 0H341.3333333333333C341.3333333333333 58.88 389.12 106.6666666666667 448 106.6666666666667V149.3333333333334C365.44 149.3333333333334 298.6666666666667 82.5600000000001 298.6666666666667 0z" /></svg>