<?xml version="1.0" encoding="UTF-8"?><!DOCTYPE svg PUBLIC "-//W3C//DTD SVG 1.1//EN" "http://www.w3.org/Graphics/SVG/1.1/DTD/svg11.dtd"><svg xmlns="http://www.w3.org/2000/svg" xmlns:xlink="http://www.w3.org/1999/xlink" version="1.1" width="512" height="512" viewBox="0 0 512 512">    <path fill="#ffffff" transform="scale(1, -1) translate(0, -448)" glyph-name="cached" unicode="&#xF0E8;" horiz-adv-x="512" d=" M405.3333333333333 277.3333333333334L320 192H384C384 121.3866666666667 326.6133333333334 64 256 64C234.6666666666667 64 213.9733333333333 69.3333333333334 196.2666666666667 78.9333333333333L165.12 47.7866666666666C191.36 31.1466666666667 222.5066666666667 21.3333333333334 256 21.3333333333334C350.2933333333334 21.3333333333334 426.6666666666667 97.7066666666667 426.6666666666667 192H490.6666666666666M128 192C128 262.6133333333334 185.3866666666667 320 256 320C277.3333333333333 320 298.0266666666667 314.6666666666667 315.7333333333334 305.0666666666667L346.88 336.2133333333334C320.64 352.8533333333334 289.4933333333334 362.6666666666667 256 362.6666666666667C161.7066666666667 362.6666666666667 85.3333333333333 286.2933333333334 85.3333333333333 192H21.3333333333333L106.6666666666667 106.6666666666667L192 192" /></svg>