<?xml version="1.0" encoding="UTF-8"?><!DOCTYPE svg PUBLIC "-//W3C//DTD SVG 1.1//EN" "http://www.w3.org/Graphics/SVG/1.1/DTD/svg11.dtd"><svg xmlns="http://www.w3.org/2000/svg" xmlns:xlink="http://www.w3.org/1999/xlink" version="1.1" width="512" height="512" viewBox="0 0 512 512">    <path fill="#ffffff" transform="scale(1, -1) translate(0, -448)" glyph-name="check-box-multiple-outline" unicode="&#xFC2D;" horiz-adv-x="512" d=" M426.6666666666667 405.3333333333333H170.6666666666667C147.2 405.3333333333333 128 386.1333333333334 128 362.6666666666667V106.6666666666667C128 83.2 147.2 64 170.6666666666667 64H426.6666666666667C450.1333333333334 64 469.3333333333333 83.2 469.3333333333333 106.6666666666667V362.6666666666667C469.3333333333333 386.1333333333334 450.1333333333334 405.3333333333333 426.6666666666667 405.3333333333333M426.6666666666667 106.6666666666667H170.6666666666667V362.6666666666667H426.6666666666667V106.6666666666667M341.3333333333333 21.3333333333334V-21.3333333333333H85.3333333333333C61.8666666666667 -21.3333333333333 42.6666666666667 -2.1333333333333 42.6666666666667 21.3333333333334V298.6666666666667H85.3333333333333V21.3333333333334H341.3333333333333M395.3066666666667 276.0533333333334L372.6933333333333 298.6666666666667L268.5866666666667 194.56L223.36 239.7866666666667L200.7466666666666 217.1733333333334L268.5866666666667 149.3333333333334L395.3066666666667 276.0533333333334z" /></svg>