<?xml version="1.0" encoding="UTF-8"?><!DOCTYPE svg PUBLIC "-//W3C//DTD SVG 1.1//EN" "http://www.w3.org/Graphics/SVG/1.1/DTD/svg11.dtd"><svg xmlns="http://www.w3.org/2000/svg" xmlns:xlink="http://www.w3.org/1999/xlink" version="1.1" width="512" height="512" viewBox="0 0 512 512">    <path fill="#ffffff" transform="scale(1, -1) translate(0, -448)" glyph-name="router-wireless" unicode="&#xF469;" horiz-adv-x="512" d=" M430.9333333333333 322.1333333333334L448 339.2C418.1333333333334 369.0666666666667 379.7333333333334 384 341.3333333333333 384C302.9333333333333 384 264.5333333333333 369.0666666666667 234.6666666666667 339.2000000000001L251.7333333333334 322.1333333333334C277.3333333333333 345.6 309.3333333333333 358.4 341.3333333333333 358.4S405.3333333333333 345.6 430.9333333333333 322.1333333333334M411.7333333333334 305.0666666666667C392.5333333333334 324.2666666666667 366.9333333333333 334.9333333333334 341.3333333333333 334.9333333333334C315.7333333333334 334.9333333333334 290.1333333333334 324.2666666666667 270.9333333333333 305.0666666666667L288 288C302.9333333333333 302.9333333333334 322.1333333333334 309.3333333333333 341.3333333333333 309.3333333333333C360.5333333333333 309.3333333333333 379.7333333333334 302.9333333333334 394.6666666666667 288L411.7333333333334 305.0666666666667M405.3333333333333 170.6666666666667H362.6666666666667V256H320V170.6666666666667H106.6666666666667C83.2 170.6666666666667 64 151.4666666666667 64 128V42.6666666666667C64 19.2 83.2 0 106.6666666666667 0H405.3333333333333C428.8 0 448 19.2 448 42.6666666666667V128C448 151.4666666666667 428.8 170.6666666666667 405.3333333333333 170.6666666666667M170.6666666666667 64H128V106.6666666666667H170.6666666666667V64M245.3333333333333 64H202.6666666666667V106.6666666666667H245.3333333333333V64M320 64H277.3333333333333V106.6666666666667H320V64z" /></svg>