<?xml version="1.0" encoding="UTF-8"?><!DOCTYPE svg PUBLIC "-//W3C//DTD SVG 1.1//EN" "http://www.w3.org/Graphics/SVG/1.1/DTD/svg11.dtd"><svg xmlns="http://www.w3.org/2000/svg" xmlns:xlink="http://www.w3.org/1999/xlink" version="1.1" width="512" height="512" viewBox="0 0 512 512">    <path fill="#ffffff" transform="scale(1, -1) translate(0, -448)" glyph-name="weather-partlycloudy" unicode="&#xF595;" horiz-adv-x="512" d=" M271.7866666666667 331.3066666666667C322.1333333333334 309.3333333333334 348.8 255.36 339.6266666666667 203.52C366.7200000000001 180.0533333333334 384 145.28 384 106.6666666666667V103.04C390.6133333333333 105.3866666666667 397.8666666666666 106.6666666666667 405.3333333333333 106.6666666666667C440.7466666666667 106.6666666666667 469.3333333333333 78.08 469.3333333333333 42.6666666666667S440.7466666666667 -21.3333333333333 405.3333333333333 -21.3333333333333H128C80.8533333333333 -21.3333333333333 42.6666666666667 16.8533333333334 42.6666666666667 64S80.8533333333333 149.3333333333334 128 149.3333333333334H133.76C106.6666666666667 182.4 98.1333333333333 229.5466666666667 117.3333333333333 271.7866666666667C143.36 330.6666666666667 212.6933333333333 357.5466666666667 271.7866666666667 331.3066666666667M254.5066666666667 292.2666666666667C216.7466666666667 309.3333333333334 172.5866666666667 292.0533333333334 155.9466666666667 254.5066666666667C146.1333333333333 232.7466666666667 147.84 208.64 158.08 189.2266666666667C181.3333333333333 216.96 216.7466666666667 234.6666666666667 256 234.6666666666667C270.9333333333333 234.6666666666667 285.44 232.1066666666667 298.6666666666667 227.4133333333334C297.3866666666667 254.72 281.1733333333333 280.3200000000001 254.5066666666667 292.2666666666667M289.0666666666667 370.3466666666667C277.3333333333333 375.4666666666667 265.6 379.0933333333334 253.44 381.44L306.56 409.1733333333334L325.76 347.52C314.88 356.48 302.7200000000001 364.1600000000001 289.0666666666667 370.3466666666667M129.92 353.2800000000001C119.4666666666667 345.8133333333334 110.2933333333334 337.2800000000001 102.4 327.8933333333334L104.7466666666667 387.8400000000001L167.8933333333334 373.3333333333334C154.6666666666667 368.8533333333334 141.8666666666667 362.0266666666667 129.92 353.2800000000001M384 240.8533333333333C382.08 253.44 379.3066666666667 265.6 375.2533333333334 277.3333333333334L426.0266666666667 245.3333333333334L382.2933333333333 197.76C384.64 211.6266666666667 385.0666666666666 226.1333333333334 383.9999999999999 240.8533333333333M64.8533333333333 206.9333333333333C66.3466666666667 194.1333333333333 69.12 181.9733333333334 73.1733333333333 170.6666666666667L22.6133333333333 202.6666666666667L66.1333333333333 250.0266666666667C64 236.1600000000001 63.36 221.6533333333334 64.8533333333333 206.9333333333334M405.3333333333333 64H341.3333333333333V106.6666666666667C341.3333333333333 153.8133333333334 303.1466666666667 192 256 192S170.6666666666667 153.8133333333334 170.6666666666667 106.6666666666667H128C104.5333333333333 106.6666666666667 85.3333333333333 87.4666666666667 85.3333333333333 64S104.5333333333333 21.3333333333334 128 21.3333333333334H405.3333333333333C417.0666666666667 21.3333333333334 426.6666666666667 30.9333333333333 426.6666666666667 42.6666666666667S417.0666666666667 64 405.3333333333333 64z" /></svg>