<?xml version="1.0" encoding="UTF-8"?><!DOCTYPE svg PUBLIC "-//W3C//DTD SVG 1.1//EN" "http://www.w3.org/Graphics/SVG/1.1/DTD/svg11.dtd"><svg xmlns="http://www.w3.org/2000/svg" xmlns:xlink="http://www.w3.org/1999/xlink" version="1.1" width="512" height="512" viewBox="0 0 512 512">    <path fill="#ffffff" transform="scale(1, -1) translate(0, -448)" glyph-name="transcribe" unicode="&#xF52E;" horiz-adv-x="512" d=" M426.6666666666667 341.3333333333334C450.1333333333334 341.3333333333334 469.3333333333333 322.1333333333334 469.3333333333333 298.6666666666667V85.3333333333334C469.3333333333333 61.8666666666667 450.1333333333334 42.6666666666667 426.6666666666667 42.6666666666667H85.3333333333333C61.6533333333333 42.6666666666667 42.6666666666667 61.8666666666667 42.6666666666667 85.3333333333334V298.6666666666667C42.6666666666667 322.3466666666667 61.6533333333333 341.3333333333334 85.3333333333333 341.3333333333334H426.6666666666667M384 85.3333333333334V128H266.6666666666667L224 85.3333333333334H384M128 85.3333333333334H181.3333333333333L327.4666666666667 232.1066666666667C331.7333333333333 236.16 331.7333333333333 242.9866666666667 327.4666666666667 247.2533333333334L289.92 284.8C285.6533333333333 289.0666666666667 278.8266666666667 289.0666666666667 274.7733333333333 284.8L128 138.0266666666667V85.3333333333334z" /></svg>