<?xml version="1.0" encoding="UTF-8"?><!DOCTYPE svg PUBLIC "-//W3C//DTD SVG 1.1//EN" "http://www.w3.org/Graphics/SVG/1.1/DTD/svg11.dtd"><svg xmlns="http://www.w3.org/2000/svg" xmlns:xlink="http://www.w3.org/1999/xlink" version="1.1" width="512" height="512" viewBox="0 0 512 512">    <path fill="#ffffff" transform="scale(1, -1) translate(0, -448)" glyph-name="weather-sunset-up" unicode="&#xF59C;" horiz-adv-x="512" d=" M64 192H149.3333333333333C149.3333333333333 250.88 197.12 298.6666666666667 256 298.6666666666667S362.6666666666667 250.88 362.6666666666667 192H448C459.7333333333333 192 469.3333333333333 182.4 469.3333333333333 170.6666666666667S459.7333333333333 149.3333333333334 448 149.3333333333334H64C52.2666666666667 149.3333333333334 42.6666666666667 158.9333333333333 42.6666666666667 170.6666666666667S52.2666666666667 192 64 192M320 192C320 227.4133333333334 291.4133333333333 256 256 256S192 227.4133333333334 192 192H320M256 405.3333333333333L306.9866666666667 332.3733333333334C291.2 338.1333333333334 273.92 341.3333333333334 256 341.3333333333334C238.08 341.3333333333334 220.8 338.1333333333334 205.0133333333333 332.3733333333334L256 405.3333333333333M71.2533333333333 298.6666666666667L160 306.1333333333334C147.2 295.2533333333334 135.68 282.0266666666667 126.72 266.6666666666667C117.3333333333333 250.88 112 234.6666666666667 109.0133333333333 217.8133333333334L71.2533333333333 298.6666666666667M440.5333333333333 298.6666666666667L402.7733333333333 217.8133333333334C399.7866666666667 234.6666666666667 394.0266666666667 251.0933333333334 385.0666666666667 266.6666666666667C376.1066666666667 282.0266666666667 364.8 295.4666666666667 352 306.3466666666667L440.5333333333333 298.6666666666667M271.1466666666666 100.2666666666667L337.4933333333333 33.92C345.8133333333333 25.6 345.8133333333333 12.16 337.4933333333333 3.84C329.1733333333333 -4.48 315.7333333333333 -4.48 307.4133333333333 3.84L256 55.2533333333333L204.5866666666667 3.84C196.2666666666667 -4.48 182.8266666666667 -4.48 174.5066666666667 3.84C166.1866666666667 12.16 166.1866666666667 25.6 174.5066666666667 33.92L240.8533333333333 100.2666666666667C245.3333333333333 104.5333333333333 250.4533333333333 106.6666666666667 256 106.6666666666667C261.5466666666666 106.6666666666667 266.6666666666667 104.5333333333333 271.1466666666667 100.2666666666667z" /></svg>