<?xml version="1.0" encoding="UTF-8"?><!DOCTYPE svg PUBLIC "-//W3C//DTD SVG 1.1//EN" "http://www.w3.org/Graphics/SVG/1.1/DTD/svg11.dtd"><svg xmlns="http://www.w3.org/2000/svg" xmlns:xlink="http://www.w3.org/1999/xlink" version="1.1" width="512" height="512" viewBox="0 0 512 512">    <path fill="#ffffff" transform="scale(1, -1) translate(0, -448)" glyph-name="pirate" unicode="&#xFA07;" horiz-adv-x="512" d=" M174.9333333333333 189.8666666666667C168.5333333333333 185.6 164.2666666666667 177.0666666666667 166.4 170.6666666666667C166.4 155.7333333333334 181.3333333333333 145.0666666666667 194.1333333333333 145.0666666666667C206.9333333333333 145.0666666666667 219.7333333333333 155.7333333333334 219.7333333333333 170.6666666666667C206.9333333333333 179.2000000000001 192 185.6 174.9333333333333 189.8666666666667M469.3333333333333 213.3333333333334L490.6666666666666 298.6666666666667S448 298.6666666666667 384 341.3333333333334S320 426.6666666666667 256 426.6666666666667S192 384 128 341.3333333333334S21.3333333333333 298.6666666666667 21.3333333333333 298.6666666666667L42.6666666666667 213.3333333333334H44.8C42.6666666666667 206.9333333333333 42.6666666666667 198.4 42.6666666666667 192C42.6666666666667 117.3333333333334 81.0666666666667 51.2 138.6666666666667 12.8000000000001L128 -6.3999999999999C264.5333333333333 -93.8666666666666 384 -6.3999999999999 384 -6.3999999999999L373.3333333333333 12.8000000000001C430.9333333333333 51.2 469.3333333333333 117.3333333333334 469.3333333333333 192.0000000000001V213.3333333333334M241.0666666666667 352L211.2 381.8666666666667L226.1333333333334 396.8L256 366.9333333333334L285.8666666666667 396.8L300.8 381.8666666666667L270.9333333333333 352L300.8 322.1333333333334L285.8666666666667 307.2L256 337.0666666666667L226.1333333333334 307.2000000000001L211.2 322.1333333333334L241.0666666666667 352M198.4 266.6666666666667C219.7333333333334 273.0666666666667 241.0666666666667 277.3333333333334 256 277.3333333333334C302.9333333333333 277.3333333333334 381.8666666666666 243.2 422.4 226.1333333333334C424.5333333333334 219.7333333333333 424.5333333333334 213.3333333333334 424.5333333333334 206.9333333333333L198.4 266.6666666666667M290.1333333333334 40.5333333333333C275.2000000000001 32 260.2666666666667 25.6 243.2000000000001 23.4666666666666C232.5333333333334 31.9999999999999 232.5333333333334 49.0666666666666 243.2000000000001 57.6C251.7333333333334 66.1333333333333 270.9333333333334 70.4 281.6 59.7333333333334C288.0000000000001 57.6 290.1333333333334 46.9333333333333 290.1333333333334 40.5333333333334M426.6666666666668 162.1333333333334C416.0000000000001 117.3333333333334 388.2666666666667 76.8000000000001 352.0000000000001 51.2L320 106.6666666666667H192L160 51.2C115.2 81.0666666666667 85.3333333333333 132.2666666666667 85.3333333333333 192C85.3333333333333 202.6666666666667 87.4666666666667 213.3333333333334 89.6 224C100.2666666666667 228.2666666666667 113.0666666666667 234.6666666666667 128 241.0666666666667L279.4666666666667 200.5333333333334V149.3333333333334C279.4666666666667 138.6666666666667 288 128 300.8 128H343.4666666666667C354.1333333333334 128 364.8 136.5333333333334 364.8 149.3333333333334V179.2000000000001L426.6666666666667 162.1333333333333z" /></svg>