<?xml version="1.0" encoding="UTF-8"?><!DOCTYPE svg PUBLIC "-//W3C//DTD SVG 1.1//EN" "http://www.w3.org/Graphics/SVG/1.1/DTD/svg11.dtd"><svg xmlns="http://www.w3.org/2000/svg" xmlns:xlink="http://www.w3.org/1999/xlink" version="1.1" width="512" height="512" viewBox="0 0 512 512">    <path fill="#ffffff" transform="scale(1, -1) translate(0, -448)" glyph-name="dice-multiple" unicode="&#xF76D;" horiz-adv-x="512" d=" M421.9733333333334 384H239.36C225.0666666666667 384 213.3333333333333 372.2666666666667 213.3333333333333 357.9733333333334V277.3333333333334H341.3333333333333V149.3333333333334H421.9733333333334C436.2666666666667 149.3333333333334 448 161.0666666666667 448 175.36V357.9733333333334C448 372.2666666666667 436.2666666666667 384 421.9733333333334 384M265.3866666666667 305.7066666666667C250.88 305.7066666666667 239.1466666666667 317.44 239.1466666666667 331.9466666666667C239.1466666666667 346.4533333333334 250.88 358.1866666666667 265.3866666666667 358.1866666666667C279.8933333333333 358.1866666666667 291.6266666666667 346.4533333333334 291.6266666666667 331.9466666666667C291.6266666666667 317.4400000000001 279.8933333333333 305.7066666666667 265.3866666666667 305.7066666666667M395.9466666666667 175.36C381.4400000000001 175.1466666666667 369.7066666666667 186.88 369.4933333333334 201.3866666666667C369.2800000000001 215.8933333333333 381.0133333333334 227.6266666666667 395.5200000000001 227.84C410.0266666666667 228.0533333333334 421.7600000000001 216.32 421.9733333333334 201.3866666666667C421.76 187.0933333333334 410.24 175.5733333333334 395.9466666666667 175.36M395.9466666666667 305.7066666666667C381.4400000000001 305.4933333333334 369.7066666666667 317.2266666666667 369.4933333333334 331.7333333333334C369.2800000000001 346.24 381.0133333333334 357.9733333333334 395.5200000000001 358.1866666666667C410.0266666666667 358.4 421.7600000000001 346.6666666666667 421.9733333333334 331.9466666666667C421.9733333333334 317.44 410.4533333333334 305.92 395.9466666666667 305.7066666666667M90.0266666666667 234.6666666666667H272.64C286.9333333333334 234.6666666666667 298.6666666666667 222.9333333333333 298.6666666666667 208.64V26.0266666666666C298.6666666666667 11.7333333333333 286.9333333333334 0 272.64 0H90.0266666666667C75.7333333333333 0 64 11.7333333333333 64 26.0266666666666V208.64C64 222.9333333333333 75.7333333333333 234.6666666666667 90.0266666666667 234.6666666666667M181.3333333333333 143.36C167.04 143.36 155.3066666666667 131.6266666666667 155.3066666666667 117.3333333333333C155.3066666666667 103.04 167.04 91.3066666666666 181.3333333333333 91.3066666666666C195.6266666666667 91.3066666666666 207.36 103.04 207.36 117.3333333333333C207.36 131.6266666666667 195.6266666666667 143.36 181.3333333333333 143.36M116.0533333333333 208.64C101.76 208.64 90.0266666666667 196.9066666666667 90.0266666666667 182.6133333333334C90.0266666666667 168.32 101.76 156.5866666666667 116.0533333333333 156.5866666666667C130.3466666666666 156.5866666666667 142.08 168.32 142.08 182.6133333333334C142.08 196.9066666666667 130.3466666666666 208.64 116.0533333333333 208.64M246.4 78.2933333333333C232.1066666666667 78.2933333333333 220.3733333333333 66.56 220.3733333333333 52.2666666666667C220.3733333333333 37.9733333333333 232.1066666666667 26.24 246.4 26.24C260.6933333333334 26.24 272.4266666666667 37.9733333333334 272.4266666666667 52.2666666666667C272.4266666666667 66.5600000000001 260.9066666666667 78.08 246.6133333333334 78.2933333333333H246.4000000000001z" /></svg>