<?xml version="1.0" encoding="UTF-8"?><!DOCTYPE svg PUBLIC "-//W3C//DTD SVG 1.1//EN" "http://www.w3.org/Graphics/SVG/1.1/DTD/svg11.dtd"><svg xmlns="http://www.w3.org/2000/svg" xmlns:xlink="http://www.w3.org/1999/xlink" version="1.1" width="512" height="512" viewBox="0 0 512 512">    <path fill="#ffffff" transform="scale(1, -1) translate(0, -448)" glyph-name="tournament" unicode="&#xF9AD;" horiz-adv-x="512" d=" M42.6666666666667 405.3333333333333V362.6666666666667H149.3333333333333V277.3333333333334H42.6666666666667V234.6666666666667H149.3333333333333C173.0133333333333 234.6666666666667 192 253.6533333333334 192 277.3333333333334V298.6666666666667H298.6666666666667V85.3333333333334H192V106.6666666666667C192 130.3466666666667 173.0133333333333 149.3333333333334 149.3333333333333 149.3333333333334H42.6666666666667V106.6666666666667H149.3333333333333V21.3333333333334H42.6666666666667V-21.3333333333333H149.3333333333333C173.0133333333333 -21.3333333333333 192 -2.3466666666666 192 21.3333333333334V42.6666666666667H298.6666666666667C322.3466666666667 42.6666666666667 341.3333333333333 61.6533333333334 341.3333333333333 85.3333333333334V170.6666666666667H469.3333333333333V213.3333333333334H341.3333333333333V298.6666666666667C341.3333333333333 322.3466666666667 322.3466666666667 341.3333333333334 298.6666666666667 341.3333333333334H192V362.6666666666667C192 386.3466666666667 173.0133333333333 405.3333333333333 149.3333333333333 405.3333333333333H42.6666666666667z" /></svg>