<?xml version="1.0" encoding="UTF-8"?><!DOCTYPE svg PUBLIC "-//W3C//DTD SVG 1.1//EN" "http://www.w3.org/Graphics/SVG/1.1/DTD/svg11.dtd"><svg xmlns="http://www.w3.org/2000/svg" xmlns:xlink="http://www.w3.org/1999/xlink" version="1.1" width="512" height="512" viewBox="0 0 512 512">    <path fill="#ffffff" transform="scale(1, -1) translate(0, -448)" glyph-name="dots-horizontal" unicode="&#xF1D8;" horiz-adv-x="512" d=" M341.3333333333333 192C341.3333333333333 215.4666666666667 360.5333333333333 234.6666666666667 384 234.6666666666667S426.6666666666667 215.4666666666667 426.6666666666667 192S407.4666666666667 149.3333333333334 384 149.3333333333334S341.3333333333333 168.5333333333334 341.3333333333333 192M213.3333333333333 192C213.3333333333333 215.4666666666667 232.5333333333334 234.6666666666667 256 234.6666666666667S298.6666666666667 215.4666666666667 298.6666666666667 192S279.4666666666667 149.3333333333334 256 149.3333333333334S213.3333333333333 168.5333333333334 213.3333333333333 192M85.3333333333333 192C85.3333333333333 215.4666666666667 104.5333333333333 234.6666666666667 128 234.6666666666667S170.6666666666667 215.4666666666667 170.6666666666667 192S151.4666666666667 149.3333333333334 128 149.3333333333334S85.3333333333333 168.5333333333334 85.3333333333333 192z" /></svg>