<?xml version="1.0" encoding="UTF-8"?><!DOCTYPE svg PUBLIC "-//W3C//DTD SVG 1.1//EN" "http://www.w3.org/Graphics/SVG/1.1/DTD/svg11.dtd"><svg xmlns="http://www.w3.org/2000/svg" xmlns:xlink="http://www.w3.org/1999/xlink" version="1.1" width="512" height="512" viewBox="0 0 512 512">    <path fill="#ffffff" transform="scale(1, -1) translate(0, -448)" glyph-name="white-balance-incandescent" unicode="&#xF5A6;" horiz-adv-x="512" d=" M367.7866666666667 60.8000000000001L406.1866666666666 22.4L436.2666666666667 52.6933333333333L398.08 90.88M426.6666666666667 181.3333333333334H490.6666666666666V224H426.6666666666667M320 313.3866666666667V416H192V313.3866666666667C153.8133333333333 291.2000000000001 128 250.0266666666667 128 202.6666666666667C128 132.0533333333334 185.3866666666667 74.6666666666667 256 74.6666666666667S384 132.0533333333334 384 202.6666666666667C384 250.0266666666667 358.1866666666666 291.2000000000001 320 313.3866666666667M85.3333333333333 224H21.3333333333333V181.3333333333334H85.3333333333333M234.6666666666667 -30.9333333333333H277.3333333333333V32H234.6666666666667M75.7333333333333 52.6933333333333L105.8133333333333 22.4L144.2133333333333 60.8L113.92 90.88L75.7333333333333 52.6933333333333z" /></svg>