<?xml version="1.0" encoding="UTF-8"?><!DOCTYPE svg PUBLIC "-//W3C//DTD SVG 1.1//EN" "http://www.w3.org/Graphics/SVG/1.1/DTD/svg11.dtd"><svg xmlns="http://www.w3.org/2000/svg" xmlns:xlink="http://www.w3.org/1999/xlink" version="1.1" width="512" height="512" viewBox="0 0 512 512">    <path fill="#ffffff" transform="scale(1, -1) translate(0, -448)" glyph-name="watch-export" unicode="&#xF58A;" horiz-adv-x="512" d=" M298.6666666666667 213.3333333333334H405.3333333333333L352 266.6666666666667L382.2933333333334 296.9600000000001L487.2533333333333 192L382.2933333333334 87.04L352 117.3333333333333L405.3333333333333 170.6666666666667H298.6666666666667V213.3333333333334M256 64C185.3866666666667 64 128 121.3866666666667 128 192S185.3866666666667 320 256 320C285.8666666666667 320 313.3866666666667 309.3333333333334 335.1466666666667 292.48L365.4400000000001 322.7733333333333L361.6 325.76L341.3333333333333 448H170.6666666666667L150.4 325.76C110.72 294.6133333333334 85.3333333333333 246.1866666666667 85.3333333333333 192C85.3333333333333 137.6 110.72 89.3866666666667 150.4 58.24L170.6666666666667 -64H341.3333333333333L361.6 58.24L365.44 61.2266666666667L335.1466666666667 91.52C313.3866666666667 74.6666666666667 285.8666666666667 64 256 64z" /></svg>