<?xml version="1.0" encoding="UTF-8"?><!DOCTYPE svg PUBLIC "-//W3C//DTD SVG 1.1//EN" "http://www.w3.org/Graphics/SVG/1.1/DTD/svg11.dtd"><svg xmlns="http://www.w3.org/2000/svg" xmlns:xlink="http://www.w3.org/1999/xlink" version="1.1" width="512" height="512" viewBox="0 0 512 512">    <path fill="#ffffff" transform="scale(1, -1) translate(0, -448)" glyph-name="camera-retake" unicode="&#xFDFC;" horiz-adv-x="512" d=" M426.6666666666667 341.3333333333334H362.6666666666667L320 384H192L149.3333333333333 341.3333333333334H85.3333333333333C61.8666666666667 341.3333333333334 42.6666666666667 322.1333333333334 42.6666666666667 298.6666666666667V42.6666666666667C42.6666666666667 19.2 61.8666666666667 0 85.3333333333333 0H426.6666666666667C450.1333333333334 0 469.3333333333333 19.2 469.3333333333333 42.6666666666667V298.6666666666667C469.3333333333333 322.1333333333334 450.1333333333334 341.3333333333334 426.6666666666667 341.3333333333334M256 64C232.96 64 210.3466666666666 71.4666666666667 192 85.3333333333334L222.72 116.0533333333334C232.7466666666667 109.8666666666667 244.2666666666667 106.6666666666667 256 106.6666666666667C291.4133333333333 106.6666666666667 320 135.2533333333333 320 170.6666666666667S291.4133333333333 234.6666666666667 256 234.6666666666667C229.12 234.6666666666667 204.8 217.6 195.84 192H234.6666666666667L170.6666666666667 128L106.6666666666667 192H151.4666666666667C163.2 249.8133333333334 219.52 286.9333333333334 277.3333333333333 275.2000000000001C334.9333333333333 263.4666666666667 372.2666666666667 207.1466666666667 360.5333333333333 149.3333333333334C350.2933333333333 99.6266666666667 306.7733333333333 64 256 64z" /></svg>