<?xml version="1.0" encoding="UTF-8"?><!DOCTYPE svg PUBLIC "-//W3C//DTD SVG 1.1//EN" "http://www.w3.org/Graphics/SVG/1.1/DTD/svg11.dtd"><svg xmlns="http://www.w3.org/2000/svg" xmlns:xlink="http://www.w3.org/1999/xlink" version="1.1" width="512" height="512" viewBox="0 0 512 512">    <path fill="#ffffff" transform="scale(1, -1) translate(0, -448)" glyph-name="battery-unknown-bluetooth" unicode="&#xF949;" horiz-adv-x="512" d=" M106.6666666666667 405.3333333333333V362.6666666666667H71.04C55.4666666666667 362.6666666666667 42.6666666666667 349.8666666666667 42.6666666666667 334.2933333333334V7.2533333333333C42.6666666666667 -8.5333333333333 55.4666666666667 -21.3333333333333 71.04 -21.3333333333333H270.2933333333333C285.8666666666667 -21.3333333333333 298.6666666666667 -8.5333333333333 298.6666666666667 7.2533333333333V334.2933333333334C298.6666666666667 350.0800000000001 285.8666666666667 362.6666666666667 270.2933333333333 362.6666666666667H234.6666666666667V405.3333333333333H106.6666666666667M170.6666666666667 320C217.8133333333333 320 256 281.8133333333334 256 234.6666666666667C256 215.8933333333333 248.32 198.8266666666667 236.16 186.6666666666667L216.96 167.04C205.44 155.52 197.3333333333333 145.4933333333334 193.92 128H150.4C152.7466666666667 147.2000000000001 161.28 164.6933333333334 174.2933333333333 177.7066666666667L200.7466666666667 204.5866666666667C208.64 212.2666666666667 213.3333333333333 222.9333333333333 213.3333333333333 234.6666666666667C213.3333333333333 258.3466666666667 194.1333333333333 277.3333333333334 170.6666666666667 277.3333333333334S128 258.1333333333334 128 234.6666666666667H85.3333333333333C85.3333333333333 281.8133333333334 123.52 320 170.6666666666667 320M405.3333333333333 277.3333333333334V196.48L356.48 245.3333333333334L341.3333333333333 230.1866666666667L400.8533333333333 170.6666666666667L341.3333333333333 111.1466666666667L356.48 96L405.3333333333333 144.8533333333334V64H416L476.8 125.0133333333333L431.1466666666667 170.6666666666667L476.8 216.5333333333334L416 277.3333333333334H405.3333333333333M426.6666666666667 236.5866666666667L446.7200000000001 216.5333333333334L426.6666666666667 196.48V236.5866666666667M426.6666666666667 144.8533333333334L446.7200000000001 125.0133333333333L426.6666666666667 104.96V144.8533333333334M149.3333333333333 85.3333333333334H192V42.6666666666667H149.3333333333333V85.3333333333334z" /></svg>