<?xml version="1.0" encoding="UTF-8"?><!DOCTYPE svg PUBLIC "-//W3C//DTD SVG 1.1//EN" "http://www.w3.org/Graphics/SVG/1.1/DTD/svg11.dtd"><svg xmlns="http://www.w3.org/2000/svg" xmlns:xlink="http://www.w3.org/1999/xlink" version="1.1" width="512" height="512" viewBox="0 0 512 512">    <path fill="#ffffff" transform="scale(1, -1) translate(0, -448)" glyph-name="tumble-dryer" unicode="&#xF916;" horiz-adv-x="512" d=" M128 405.3333333333333H384C407.4666666666667 405.3333333333333 426.6666666666667 386.1333333333334 426.6666666666667 362.6666666666667V21.3333333333334C426.6666666666667 -2.1333333333333 407.4666666666667 -21.3333333333333 384 -21.3333333333333H128C104.5333333333333 -21.3333333333333 85.3333333333333 -2.1333333333333 85.3333333333333 21.3333333333334V362.6666666666667C85.3333333333333 386.1333333333334 104.5333333333333 405.3333333333333 128 405.3333333333333M149.3333333333333 362.6666666666667C137.6 362.6666666666667 128 353.0666666666667 128 341.3333333333334S137.6 320 149.3333333333333 320S170.6666666666667 329.6 170.6666666666667 341.3333333333334S161.0666666666667 362.6666666666667 149.3333333333333 362.6666666666667M213.3333333333333 362.6666666666667C201.6 362.6666666666667 192 353.0666666666667 192 341.3333333333334S201.6 320 213.3333333333333 320S234.6666666666667 329.6 234.6666666666667 341.3333333333334S225.0666666666667 362.6666666666667 213.3333333333333 362.6666666666667M256 277.3333333333334C185.3866666666667 277.3333333333334 128 219.9466666666667 128 149.3333333333334S185.3866666666667 21.3333333333334 256 21.3333333333334S384 78.72 384 149.3333333333334S326.6133333333334 277.3333333333334 256 277.3333333333334M173.0133333333333 224H213.3333333333333C208.2133333333333 194.56 213.3333333333333 177.7066666666667 225.7066666666667 164.48C249.1733333333333 141.6533333333334 259.4133333333333 112.8533333333334 253.6533333333334 74.6666666666667H213.3333333333333C218.4533333333333 104.1066666666667 213.3333333333333 120.96 200.96 134.1866666666667C177.4933333333334 157.0133333333333 167.4666666666667 185.8133333333333 173.0133333333333 224M258.3466666666667 224H298.6666666666667C293.5466666666666 194.56 298.6666666666667 177.7066666666667 311.04 164.48C334.5066666666667 141.6533333333334 344.7466666666667 112.8533333333334 338.9866666666667 74.6666666666667H298.6666666666667C303.7866666666667 104.1066666666667 298.6666666666667 120.96 286.2933333333333 134.1866666666667C262.8266666666667 157.0133333333333 252.8 185.8133333333333 258.3466666666667 224z" /></svg>