<?xml version="1.0" encoding="UTF-8"?><!DOCTYPE svg PUBLIC "-//W3C//DTD SVG 1.1//EN" "http://www.w3.org/Graphics/SVG/1.1/DTD/svg11.dtd"><svg xmlns="http://www.w3.org/2000/svg" xmlns:xlink="http://www.w3.org/1999/xlink" version="1.1" width="512" height="512" viewBox="0 0 512 512">    <path fill="#ffffff" transform="scale(1, -1) translate(0, -448)" glyph-name="drag" unicode="&#xF1DB;" horiz-adv-x="512" d=" M149.3333333333333 42.6666666666667V85.3333333333334H192V42.6666666666667H149.3333333333333M234.6666666666667 42.6666666666667V85.3333333333334H277.3333333333333V42.6666666666667H234.6666666666667M320 42.6666666666667V85.3333333333334H362.6666666666667V42.6666666666667H320M149.3333333333333 128V170.6666666666667H192V128H149.3333333333333M234.6666666666667 128V170.6666666666667H277.3333333333333V128H234.6666666666667M320 128V170.6666666666667H362.6666666666667V128H320M149.3333333333333 213.3333333333334V256H192V213.3333333333334H149.3333333333333M234.6666666666667 213.3333333333334V256H277.3333333333333V213.3333333333334H234.6666666666667M320 213.3333333333334V256H362.6666666666667V213.3333333333334H320M149.3333333333333 298.6666666666667V341.3333333333334H192V298.6666666666667H149.3333333333333M234.6666666666667 298.6666666666667V341.3333333333334H277.3333333333333V298.6666666666667H234.6666666666667M320 298.6666666666667V341.3333333333334H362.6666666666667V298.6666666666667H320z" /></svg>