<?xml version="1.0" encoding="UTF-8"?><!DOCTYPE svg PUBLIC "-//W3C//DTD SVG 1.1//EN" "http://www.w3.org/Graphics/SVG/1.1/DTD/svg11.dtd"><svg xmlns="http://www.w3.org/2000/svg" xmlns:xlink="http://www.w3.org/1999/xlink" version="1.1" width="512" height="512" viewBox="0 0 512 512">    <path fill="#ffffff" transform="scale(1, -1) translate(0, -448)" glyph-name="tag-minus" unicode="&#xF90F;" horiz-adv-x="512" d=" M456.7466666666667 200.96L264.7466666666667 392.96C256.8533333333333 400.8533333333334 245.9733333333333 405.3333333333333 234.6666666666667 405.3333333333333H85.3333333333333C61.8666666666667 405.3333333333333 42.6666666666667 386.1333333333334 42.6666666666667 362.6666666666667V213.3333333333334C42.6666666666667 202.0266666666667 47.1466666666667 191.1466666666667 55.2533333333333 183.2533333333333L64 174.72C83.2 186.24 105.3866666666667 192 128 192C198.6133333333334 192 256 134.6133333333334 256 64C256 41.3866666666667 250.0266666666667 19.4133333333334 238.5066666666667 0L247.04 -8.5333333333333C254.9333333333333 -16.6399999999999 266.0266666666667 -21.3333333333333 277.3333333333333 -21.3333333333333C288.64 -21.3333333333333 299.52 -16.8533333333333 307.4133333333333 -8.7466666666667L456.7466666666667 140.5866666666667C464.8533333333333 148.48 469.3333333333333 159.36 469.3333333333333 170.6666666666667C469.3333333333333 181.9733333333334 464.8533333333333 192.8533333333333 456.7466666666667 200.96M117.3333333333333 298.6666666666667C99.6266666666667 298.6666666666667 85.3333333333333 312.9600000000001 85.3333333333333 330.6666666666667S99.6266666666667 362.6666666666667 117.3333333333333 362.6666666666667S149.3333333333333 348.3733333333334 149.3333333333333 330.6666666666667S135.04 298.6666666666667 117.3333333333333 298.6666666666667M213.3333333333333 42.6666666666667H42.6666666666667V85.3333333333334H213.3333333333333V42.6666666666667z" /></svg>