<?xml version="1.0" encoding="UTF-8"?><!DOCTYPE svg PUBLIC "-//W3C//DTD SVG 1.1//EN" "http://www.w3.org/Graphics/SVG/1.1/DTD/svg11.dtd"><svg xmlns="http://www.w3.org/2000/svg" xmlns:xlink="http://www.w3.org/1999/xlink" version="1.1" width="512" height="512" viewBox="0 0 512 512">    <path fill="#ffffff" transform="scale(1, -1) translate(0, -448)" glyph-name="football-australian" unicode="&#xF25E;" horiz-adv-x="512" d=" M160 288C195.6266666666667 322.7733333333333 240.8533333333333 347.9466666666667 285.2266666666667 358.8266666666667C384 384 448 320 422.8266666666667 221.2266666666667C411.9466666666666 176.8533333333334 386.7733333333333 131.6266666666667 352 96C316.3733333333334 61.2266666666667 271.1466666666667 36.0533333333334 226.7733333333333 25.1733333333333C128 0 64 64 89.1733333333333 162.7733333333334C100.0533333333333 207.1466666666667 125.2266666666667 252.3733333333334 160 288M226.56 207.7866666666667L218.88 200.1066666666668L264.1066666666667 154.8800000000001L271.7866666666667 162.5600000000001L226.56 207.7866666666667M247.8933333333334 229.1200000000001L240.2133333333334 221.4400000000001L285.4400000000001 176.2133333333334L293.12 183.8933333333334L247.8933333333334 229.1200000000001M205.2266666666667 186.4533333333334L197.5466666666667 178.7733333333334L242.7733333333334 133.5466666666668L250.4533333333334 141.2266666666667L205.2266666666667 186.4533333333334M269.44 250.0266666666668L261.9733333333334 242.5600000000001L307.2000000000001 197.3333333333334L314.6666666666667 204.8000000000001L269.4400000000001 250.0266666666668M184.1066666666667 164.6933333333334L176.6400000000001 157.2266666666668L221.8666666666667 112.0000000000001L229.3333333333334 119.4666666666668L184.1066666666667 164.6933333333334M290.7733333333334 271.3600000000001L283.3066666666668 263.8933333333335L328.5333333333334 218.6666666666668L336 226.1333333333334L290.7733333333334 271.3600000000001z" /></svg>