<?xml version="1.0" encoding="UTF-8"?><!DOCTYPE svg PUBLIC "-//W3C//DTD SVG 1.1//EN" "http://www.w3.org/Graphics/SVG/1.1/DTD/svg11.dtd"><svg xmlns="http://www.w3.org/2000/svg" xmlns:xlink="http://www.w3.org/1999/xlink" version="1.1" width="512" height="512" viewBox="0 0 512 512">    <path fill="#ffffff" transform="scale(1, -1) translate(0, -448)" glyph-name="briefcase-search-outline" unicode="&#xFC1E;" horiz-adv-x="512" d=" M213.3333333333333 405.3333333333333H298.6666666666667C322.1333333333334 405.3333333333333 341.3333333333333 386.1333333333334 341.3333333333333 362.6666666666667V320H426.6666666666667C450.1333333333334 320 469.3333333333333 300.8 469.3333333333333 277.3333333333334V170.0266666666667C458.6666666666666 187.0933333333334 443.7333333333334 201.8133333333333 426.6666666666667 213.3333333333333V277.3333333333334H85.3333333333333V42.6666666666667H224C230.6133333333334 26.6666666666667 240.2133333333333 12.3733333333333 251.9466666666667 0H85.3333333333333C61.6533333333333 0 42.6666666666667 19.2 42.6666666666667 42.6666666666667V277.3333333333334C42.6666666666667 301.0133333333333 61.6533333333333 320 85.3333333333333 320H170.6666666666667V362.6666666666667C170.6666666666667 386.3466666666667 189.6533333333333 405.3333333333333 213.3333333333333 405.3333333333333M298.6666666666667 320V362.6666666666667H213.3333333333333V320H298.6666666666667M433.28 44.8000000000001L498.9866666666667 -21.3333333333333L469.3333333333333 -50.9866666666667L402.7733333333333 14.5066666666667C388.0533333333333 5.3333333333334 370.56 0 352 0C298.6666666666667 0 256 42.6666666666667 256 96S298.6666666666667 192 352 192S448 149.3333333333334 448 96C448 77.2266666666667 442.6666666666667 59.52 433.28 44.8000000000001M352 42.6666666666667C381.44 42.6666666666667 405.3333333333333 66.5600000000001 405.3333333333333 96S381.44 149.3333333333334 352 149.3333333333334S298.6666666666667 125.4400000000001 298.6666666666667 96S322.56 42.6666666666667 352 42.6666666666667z" /></svg>