<?xml version="1.0" encoding="UTF-8"?><!DOCTYPE svg PUBLIC "-//W3C//DTD SVG 1.1//EN" "http://www.w3.org/Graphics/SVG/1.1/DTD/svg11.dtd"><svg xmlns="http://www.w3.org/2000/svg" xmlns:xlink="http://www.w3.org/1999/xlink" version="1.1" width="512" height="512" viewBox="0 0 512 512">    <path fill="#ffffff" transform="scale(1, -1) translate(0, -448)" glyph-name="axis-x-rotate-counterclockwise" unicode="&#xFD2B;" horiz-adv-x="512" d=" M256 149.3333333333334L341.3333333333333 234.6666666666667L426.6666666666667 149.3333333333334H360.5333333333333C350.7199999999999 52.0533333333334 307.6266666666666 -21.3333333333333 256 -21.3333333333333C215.8933333333333 -21.3333333333333 180.6933333333333 23.04 162.56 88.7466666666667L199.8933333333333 110.2933333333334C210.56 57.3866666666667 231.68 21.3333333333334 256 21.3333333333334C285.8666666666667 21.3333333333334 310.8266666666667 75.7333333333334 318.08 149.3333333333334H256M23.68 82.5600000000001L296.32 240L297.8133333333333 223.1466666666667L224 149.3333333333334H224.8533333333333L45.0133333333333 45.44L23.68 82.56M466.9866666666667 338.56L488.32 301.44L381.4400000000001 239.7866666666666C379.5200000000001 255.36 376.9600000000001 270.2933333333333 373.3333333333334 284.5866666666666L466.9866666666667 338.56M256 405.3333333333333C305.0666666666667 405.3333333333333 346.24 339.2000000000001 358.8266666666667 249.1733333333334L341.3333333333333 266.6666666666667L317.2266666666667 242.5600000000001C309.3333333333333 312.1066666666667 284.8 362.6666666666667 256 362.6666666666667C222.2933333333333 362.6666666666667 194.56 292.9066666666667 192 204.3733333333333L149.3333333333333 179.84V192C149.3333333333333 309.3333333333334 197.12 405.3333333333333 256 405.3333333333333z" /></svg>