<?xml version="1.0" encoding="UTF-8"?><!DOCTYPE svg PUBLIC "-//W3C//DTD SVG 1.1//EN" "http://www.w3.org/Graphics/SVG/1.1/DTD/svg11.dtd"><svg xmlns="http://www.w3.org/2000/svg" xmlns:xlink="http://www.w3.org/1999/xlink" version="1.1" width="512" height="512" viewBox="0 0 512 512">    <path fill="#ffffff" transform="scale(1, -1) translate(0, -448)" glyph-name="table-row-remove" unicode="&#xF4F5;" horiz-adv-x="512" d=" M200.7466666666667 170.6666666666667L256 115.4133333333334L311.2533333333334 170.6666666666667L341.3333333333333 140.5866666666667L286.08 85.3333333333334L341.3333333333333 30.08L311.2533333333334 0L256 55.2533333333333L200.7466666666667 0L170.6666666666667 30.08L225.92 85.3333333333334L170.6666666666667 140.5866666666667L200.7466666666667 170.6666666666667M469.3333333333333 256C469.3333333333333 232.5333333333334 450.1333333333334 213.3333333333334 426.6666666666667 213.3333333333334H85.3333333333333C61.8666666666667 213.3333333333334 42.6666666666667 232.5333333333334 42.6666666666667 256V320C42.6666666666667 343.4666666666667 61.8666666666667 362.6666666666667 85.3333333333333 362.6666666666667H426.6666666666667C450.1333333333334 362.6666666666667 469.3333333333333 343.4666666666667 469.3333333333333 320V256M85.3333333333333 256H170.6666666666667V320H85.3333333333333V256M213.3333333333333 256H298.6666666666667V320H213.3333333333333V256M341.3333333333333 256H426.6666666666667V320H341.3333333333333V256z" /></svg>