<?xml version="1.0" encoding="UTF-8"?><!DOCTYPE svg PUBLIC "-//W3C//DTD SVG 1.1//EN" "http://www.w3.org/Graphics/SVG/1.1/DTD/svg11.dtd"><svg xmlns="http://www.w3.org/2000/svg" xmlns:xlink="http://www.w3.org/1999/xlink" version="1.1" width="512" height="512" viewBox="0 0 512 512">    <path fill="#ffffff" transform="scale(1, -1) translate(0, -448)" glyph-name="radius-outline" unicode="&#xFC9D;" horiz-adv-x="512" d=" M256 405.3333333333333C138.24 405.3333333333333 42.6666666666667 309.76 42.6666666666667 192S138.24 -21.3333333333333 256 -21.3333333333333S469.3333333333333 74.24 469.3333333333333 192S373.76 405.3333333333333 256 405.3333333333333M256 21.3333333333334C161.7066666666667 21.3333333333334 85.3333333333333 97.7066666666667 85.3333333333333 192S161.7066666666667 362.6666666666667 256 362.6666666666667S426.6666666666667 286.2933333333334 426.6666666666667 192S350.2933333333334 21.3333333333334 256 21.3333333333334M341.3333333333333 128V170.6666666666667H292.6933333333334C285.0133333333333 157.4400000000001 271.1466666666667 149.3333333333334 256 149.3333333333334C232.5333333333334 149.3333333333334 213.3333333333333 168.5333333333334 213.3333333333333 192S232.5333333333334 234.6666666666667 256 234.6666666666667C271.1466666666667 234.6666666666667 285.0133333333333 226.56 292.6933333333334 213.3333333333334H341.3333333333333V256L405.3333333333333 192L341.3333333333333 128z" /></svg>