<?xml version="1.0" encoding="UTF-8"?><!DOCTYPE svg PUBLIC "-//W3C//DTD SVG 1.1//EN" "http://www.w3.org/Graphics/SVG/1.1/DTD/svg11.dtd"><svg xmlns="http://www.w3.org/2000/svg" xmlns:xlink="http://www.w3.org/1999/xlink" version="1.1" width="512" height="512" viewBox="0 0 512 512">    <path fill="#ffffff" transform="scale(1, -1) translate(0, -448)" glyph-name="tooltip-account" unicode="&#xF00C;" horiz-adv-x="512" d=" M426.6666666666667 405.3333333333333H85.3333333333333C61.8666666666667 405.3333333333333 42.6666666666667 386.1333333333334 42.6666666666667 362.6666666666667V106.6666666666667C42.6666666666667 83.2 61.8666666666667 64 85.3333333333333 64H170.6666666666667L256 -21.3333333333333L341.3333333333333 64H426.6666666666667C450.1333333333334 64 469.3333333333333 83.2 469.3333333333333 106.6666666666667V362.6666666666667C469.3333333333333 386.1333333333334 450.1333333333334 405.3333333333333 426.6666666666667 405.3333333333333M256 356.2666666666667C288 356.2666666666667 313.6 330.6666666666667 313.6 298.6666666666667C313.6 266.6666666666667 288 241.0666666666667 256 241.0666666666667C224 241.0666666666667 198.4 266.6666666666667 198.4 298.6666666666667C198.4 330.6666666666667 224 356.2666666666667 256 356.2666666666667M384 128H128V147.2000000000001C128 189.8666666666667 213.3333333333333 213.3333333333334 256 213.3333333333334S384 189.8666666666667 384 147.2000000000001V128z" /></svg>