<?xml version="1.0" encoding="UTF-8"?><!DOCTYPE svg PUBLIC "-//W3C//DTD SVG 1.1//EN" "http://www.w3.org/Graphics/SVG/1.1/DTD/svg11.dtd"><svg xmlns="http://www.w3.org/2000/svg" xmlns:xlink="http://www.w3.org/1999/xlink" version="1.1" width="512" height="512" viewBox="0 0 512 512">    <path fill="#ffffff" transform="scale(1, -1) translate(0, -448)" glyph-name="file-table-outline" unicode="&#xFC5B;" horiz-adv-x="512" d=" M298.6666666666667 405.3333333333333H128C104.5333333333333 405.3333333333333 85.3333333333333 386.1333333333334 85.3333333333333 362.6666666666667V21.3333333333334C85.3333333333333 -2.1333333333333 104.5333333333333 -21.3333333333333 128 -21.3333333333333H384C407.4666666666667 -21.3333333333333 426.6666666666667 -2.1333333333333 426.6666666666667 21.3333333333334V277.3333333333334L298.6666666666667 405.3333333333333M384 21.3333333333334H128V362.6666666666667H277.3333333333333V256H384V21.3333333333334M213.3333333333333 170.6666666666667H149.3333333333333V213.3333333333334H213.3333333333333V170.6666666666667M298.6666666666667 170.6666666666667H234.6666666666667V213.3333333333334H298.6666666666667V170.6666666666667M213.3333333333333 106.6666666666667H149.3333333333333V149.3333333333334H213.3333333333333V106.6666666666667M298.6666666666667 106.6666666666667H234.6666666666667V149.3333333333334H298.6666666666667V106.6666666666667M213.3333333333333 42.6666666666667H149.3333333333333V85.3333333333334H213.3333333333333V42.6666666666667M298.6666666666667 42.6666666666667H234.6666666666667V85.3333333333334H298.6666666666667V42.6666666666667z" /></svg>