<?xml version="1.0" encoding="UTF-8"?><!DOCTYPE svg PUBLIC "-//W3C//DTD SVG 1.1//EN" "http://www.w3.org/Graphics/SVG/1.1/DTD/svg11.dtd"><svg xmlns="http://www.w3.org/2000/svg" xmlns:xlink="http://www.w3.org/1999/xlink" version="1.1" width="512" height="512" viewBox="0 0 512 512">    <path fill="#ffffff" transform="scale(1, -1) translate(0, -448)" glyph-name="watch-vibrate" unicode="&#xF6B0;" horiz-adv-x="512" d=" M64 85.3333333333334V298.6666666666667H106.6666666666667V85.3333333333334H64M405.3333333333333 85.3333333333334V298.6666666666667H448V85.3333333333334H405.3333333333333M469.3333333333333 256H512V128H469.3333333333333V256M0 128V256H42.6666666666667V128H0M383.1466666666667 192.64C383.1466666666667 152.1066666666667 364.16 115.84 334.5066666666667 92.3733333333333L319.36 1.0666666666666H192L176.4266666666667 92.3733333333333C146.7733333333333 115.84 128 152.1066666666667 128 192.64C128 233.1733333333334 146.7733333333333 269.44 176.4266666666667 292.6933333333334L192 384H319.36L334.5066666666667 292.6933333333334C364.16 269.44 383.1466666666667 233.1733333333334 383.1466666666667 192.64M160 192.64C160 139.7333333333334 202.6666666666667 96.8533333333334 255.36 96.8533333333334C308.48 96.8533333333334 351.1466666666667 139.52 351.1466666666667 192.64C351.1466666666667 245.3333333333334 308.2666666666667 288 255.36 288C202.6666666666667 288 160 245.3333333333334 160 192.64z" /></svg>