<?xml version="1.0" encoding="UTF-8"?><!DOCTYPE svg PUBLIC "-//W3C//DTD SVG 1.1//EN" "http://www.w3.org/Graphics/SVG/1.1/DTD/svg11.dtd"><svg xmlns="http://www.w3.org/2000/svg" xmlns:xlink="http://www.w3.org/1999/xlink" version="1.1" width="512" height="512" viewBox="0 0 512 512">    <path fill="#ffffff" transform="scale(1, -1) translate(0, -448)" glyph-name="format-header-5" unicode="&#xF26F;" horiz-adv-x="512" d=" M64 362.6666666666667H106.6666666666667V234.6666666666667H192V362.6666666666667H234.6666666666667V64H192V192H106.6666666666667V64H64V362.6666666666667M320 362.6666666666667H426.6666666666667V320H320V234.6666666666667H362.6666666666667C409.8133333333334 234.6666666666667 448 196.48 448 149.3333333333334S409.8133333333334 64 362.6666666666667 64H320C296.5333333333333 64 277.3333333333333 83.2 277.3333333333333 106.6666666666667V128H320V106.6666666666667H362.6666666666667C386.1333333333334 106.6666666666667 405.3333333333333 125.8666666666667 405.3333333333333 149.3333333333334S386.1333333333334 192 362.6666666666667 192H320C296.5333333333333 192 277.3333333333333 211.2 277.3333333333333 234.6666666666667V320C277.3333333333333 343.4666666666667 296.5333333333333 362.6666666666667 320 362.6666666666667z" /></svg>