<?xml version="1.0" encoding="UTF-8"?><!DOCTYPE svg PUBLIC "-//W3C//DTD SVG 1.1//EN" "http://www.w3.org/Graphics/SVG/1.1/DTD/svg11.dtd"><svg xmlns="http://www.w3.org/2000/svg" xmlns:xlink="http://www.w3.org/1999/xlink" version="1.1" width="512" height="512" viewBox="0 0 512 512">    <path fill="#ffffff" transform="scale(1, -1) translate(0, -448)" glyph-name="skype-business" unicode="&#xF4B0;" horiz-adv-x="512" d=" M256.64 95.36C199.8933333333333 95.36 174.5066666666667 123.3066666666667 174.5066666666667 144.2133333333333C174.5066666666667 154.88 182.4 162.56 193.28 162.56C217.6 162.56 211.4133333333333 128 256.64 128C279.8933333333333 128 292.9066666666667 140.16 292.9066666666667 153.1733333333333C292.9066666666667 160.8533333333333 289.0666666666667 169.3866666666666 273.7066666666667 173.2266666666666L223.1466666666667 185.8133333333333C182.4 196.0533333333333 174.9333333333333 218.0266666666666 174.9333333333333 238.7199999999999C174.9333333333333 281.8133333333333 215.4666666666667 298.0266666666666 253.44 298.0266666666666C288 298.0266666666666 329.8133333333334 278.6133333333333 329.8133333333334 252.7999999999999C329.8133333333334 241.7066666666666 320 235.3066666666666 309.3333333333333 235.3066666666666C288 235.3066666666666 292.2666666666667 264.1066666666666 250.4533333333333 264.1066666666666C229.76 264.1066666666666 218.24 254.7199999999999 218.24 241.2799999999999C218.24 227.8399999999999 234.6666666666667 223.9999999999999 248.7466666666667 220.1599999999999L286.2933333333333 211.8399999999999C327.2533333333334 202.6666666666665 337.7066666666667 178.7733333333332 337.7066666666667 156.3733333333332C337.7066666666667 121.3866666666666 310.8266666666667 95.3599999999998 256.64 95.3599999999998M384 320C428.16 276.48 444.8 215.68 434.3466666666667 158.9333333333333C443.0933333333333 143.5733333333333 448 125.6533333333333 448 106.6666666666667C448 47.7866666666668 400.2133333333333 0 341.3333333333333 0C322.3466666666667 0 304.4266666666666 4.9066666666667 289.0666666666667 13.6533333333334C232.32 3.2 171.52 19.84 128 64C83.84 107.52 67.2 168.3200000000001 77.6533333333334 225.0666666666667C68.9066666666667 240.4266666666667 64 258.3466666666667 64 277.3333333333334C64 336.2133333333334 111.7866666666667 384 170.6666666666667 384C189.6533333333333 384 207.5733333333333 379.0933333333334 222.9333333333333 370.3466666666667C279.68 380.8 340.48 364.16 384 320M170.6666666666667 341.3333333333334C135.2533333333333 341.3333333333334 106.6666666666667 312.7466666666667 106.6666666666667 277.3333333333334C106.6666666666667 260.48 113.0666666666667 245.3333333333334 123.7333333333333 233.8133333333334C108.8 186.0266666666667 120.1066666666667 131.84 157.8666666666667 93.8666666666667C195.84 56.1066666666667 250.0266666666667 44.8000000000001 297.8133333333334 59.7333333333334C309.3333333333333 49.0666666666667 324.48 42.6666666666667 341.3333333333333 42.6666666666667C376.7466666666667 42.6666666666667 405.3333333333333 71.2533333333333 405.3333333333333 106.6666666666667C405.3333333333333 123.52 398.9333333333333 138.6666666666667 388.2666666666667 150.1866666666667C403.2 197.9733333333333 391.8933333333333 252.1600000000001 354.1333333333333 290.1333333333334C316.16 327.8933333333333 261.9733333333333 339.2 214.1866666666667 324.2666666666667C202.6666666666667 334.9333333333334 187.52 341.3333333333334 170.6666666666667 341.3333333333334z" /></svg>