<?xml version="1.0" encoding="UTF-8"?><!DOCTYPE svg PUBLIC "-//W3C//DTD SVG 1.1//EN" "http://www.w3.org/Graphics/SVG/1.1/DTD/svg11.dtd"><svg xmlns="http://www.w3.org/2000/svg" xmlns:xlink="http://www.w3.org/1999/xlink" version="1.1" width="512" height="512" viewBox="0 0 512 512">    <path fill="#ffffff" transform="scale(1, -1) translate(0, -448)" glyph-name="camera-rear-variant" unicode="&#xF107;" horiz-adv-x="512" d=" M128 448H384C407.4666666666667 448 426.6666666666667 428.8 426.6666666666667 405.3333333333333V-21.3333333333333C426.6666666666667 -44.8 407.4666666666667 -64 384 -64H128C104.5333333333333 -64 85.3333333333333 -44.8 85.3333333333333 -21.3333333333333V405.3333333333333C85.3333333333333 428.8 104.5333333333333 448 128 448M256 405.3333333333333C232.5333333333334 405.3333333333333 213.3333333333333 386.1333333333334 213.3333333333333 362.6666666666667S232.5333333333334 320 256 320S298.6666666666667 339.2000000000001 298.6666666666667 362.6666666666667S279.4666666666667 405.3333333333333 256 405.3333333333333M277.3333333333333 64H192V21.3333333333334H277.3333333333333V-21.3333333333333L341.3333333333333 42.6666666666667L277.3333333333333 106.6666666666667V64z" /></svg>