<?xml version="1.0" encoding="UTF-8"?><!DOCTYPE svg PUBLIC "-//W3C//DTD SVG 1.1//EN" "http://www.w3.org/Graphics/SVG/1.1/DTD/svg11.dtd"><svg xmlns="http://www.w3.org/2000/svg" xmlns:xlink="http://www.w3.org/1999/xlink" version="1.1" width="512" height="512" viewBox="0 0 512 512">    <path fill="#ffffff" transform="scale(1, -1) translate(0, -448)" glyph-name="code-parentheses" unicode="&#xF172;" horiz-adv-x="512" d=" M375.8933333333333 384C408.1066666666667 335.5733333333334 426.6666666666667 265.6 426.6666666666667 192C426.6666666666667 118.6133333333334 408.1066666666667 48.64 375.8933333333333 0L341.3333333333333 22.1866666666667C368.2133333333334 62.5066666666667 384 125.2266666666667 384 192S368.2133333333334 321.7066666666667 341.3333333333333 362.0266666666667L375.8933333333333 384M136.1066666666667 384L170.6666666666667 361.8133333333334C143.7866666666667 321.7066666666667 128 258.7733333333334 128 192S143.7866666666667 62.2933333333334 170.6666666666667 22.1866666666667L136.1066666666667 0C103.8933333333333 48.4266666666667 85.3333333333333 118.4 85.3333333333333 192S103.8933333333333 335.5733333333334 136.1066666666667 384z" /></svg>