<?xml version="1.0" encoding="UTF-8"?><!DOCTYPE svg PUBLIC "-//W3C//DTD SVG 1.1//EN" "http://www.w3.org/Graphics/SVG/1.1/DTD/svg11.dtd"><svg xmlns="http://www.w3.org/2000/svg" xmlns:xlink="http://www.w3.org/1999/xlink" version="1.1" width="512" height="512" viewBox="0 0 512 512">    <path fill="#ffffff" transform="scale(1, -1) translate(0, -448)" glyph-name="eye" unicode="&#xF208;" horiz-adv-x="512" d=" M256 256C220.5866666666667 256 192 227.4133333333334 192 192S220.5866666666667 128 256 128S320 156.5866666666667 320 192S291.4133333333333 256 256 256M256 85.3333333333334C197.12 85.3333333333334 149.3333333333333 133.12 149.3333333333333 192S197.12 298.6666666666667 256 298.6666666666667S362.6666666666667 250.88 362.6666666666667 192S314.88 85.3333333333334 256 85.3333333333334M256 352C149.3333333333333 352 58.24 285.6533333333333 21.3333333333333 192C58.24 98.3466666666667 149.3333333333333 32 256 32S453.76 98.3466666666667 490.6666666666666 192C453.76 285.6533333333333 362.6666666666667 352 256 352z" /></svg>