<?xml version="1.0" encoding="UTF-8"?><!DOCTYPE svg PUBLIC "-//W3C//DTD SVG 1.1//EN" "http://www.w3.org/Graphics/SVG/1.1/DTD/svg11.dtd"><svg xmlns="http://www.w3.org/2000/svg" xmlns:xlink="http://www.w3.org/1999/xlink" version="1.1" width="512" height="512" viewBox="0 0 512 512">    <path fill="#ffffff" transform="scale(1, -1) translate(0, -448)" glyph-name="table" unicode="&#xF4EB;" horiz-adv-x="512" d=" M106.6666666666667 362.6666666666667H405.3333333333333C428.8 362.6666666666667 448 343.4666666666667 448 320V64C448 40.5333333333333 428.8 21.3333333333334 405.3333333333333 21.3333333333334H106.6666666666667C83.2 21.3333333333334 64 40.5333333333333 64 64V320C64 343.4666666666667 83.2 362.6666666666667 106.6666666666667 362.6666666666667M106.6666666666667 277.3333333333334V192H234.6666666666667V277.3333333333334H106.6666666666667M277.3333333333333 277.3333333333334V192H405.3333333333333V277.3333333333334H277.3333333333333M106.6666666666667 149.3333333333334V64H234.6666666666667V149.3333333333334H106.6666666666667M277.3333333333333 149.3333333333334V64H405.3333333333333V149.3333333333334H277.3333333333333z" /></svg>