<?xml version="1.0" encoding="UTF-8"?><!DOCTYPE svg PUBLIC "-//W3C//DTD SVG 1.1//EN" "http://www.w3.org/Graphics/SVG/1.1/DTD/svg11.dtd"><svg xmlns="http://www.w3.org/2000/svg" xmlns:xlink="http://www.w3.org/1999/xlink" version="1.1" width="512" height="512" viewBox="0 0 512 512">    <path fill="#ffffff" transform="scale(1, -1) translate(0, -448)" glyph-name="scanner-off" unicode="&#xF909;" horiz-adv-x="512" d=" M42.6666666666667 335.5733333333334L69.9733333333333 362.6666666666667L426.6666666666667 5.9733333333334L399.5733333333333 -21.3333333333333L356.9066666666667 21.3333333333334H106.6666666666667C83.2 21.3333333333334 64 40.5333333333333 64 64V181.3333333333334C64 198.4 74.6666666666667 215.4666666666667 89.6 219.7333333333334L140.16 238.08L42.6666666666667 335.5733333333334M136.5333333333333 192H186.24L173.0133333333334 205.2266666666667L136.5333333333333 192M106.6666666666667 128V85.3333333333334H292.9066666666667L250.24 128H106.6666666666667M422.4 341.3333333333334L437.3333333333333 300.8L252.8 234.0266666666667L219.7333333333333 267.3066666666667L422.4 341.3333333333334M405.3333333333333 192C428.8 192 448 172.8 448 149.3333333333334V64C448 56.7466666666667 446.08 49.92 442.88 43.9466666666667L405.3333333333333 81.4933333333333V128H358.8266666666667L294.8266666666667 192H405.3333333333333z" /></svg>