<?xml version="1.0" encoding="UTF-8"?><!DOCTYPE svg PUBLIC "-//W3C//DTD SVG 1.1//EN" "http://www.w3.org/Graphics/SVG/1.1/DTD/svg11.dtd"><svg xmlns="http://www.w3.org/2000/svg" xmlns:xlink="http://www.w3.org/1999/xlink" version="1.1" width="512" height="512" viewBox="0 0 512 512">    <path fill="#ffffff" transform="scale(1, -1) translate(0, -448)" glyph-name="information-variant" unicode="&#xF64E;" horiz-adv-x="512" d=" M288 362.6666666666667C270.2933333333333 362.6666666666667 256 348.3733333333334 256 330.6666666666667S270.2933333333333 298.6666666666667 288 298.6666666666667S320 312.9600000000001 320 330.6666666666667S305.7066666666667 362.6666666666667 288 362.6666666666667M280.32 260.9066666666667C254.9333333333334 258.7733333333334 185.6 203.5200000000001 185.6 203.5200000000001C181.3333333333333 200.32 182.6133333333333 200.5333333333334 186.0266666666667 194.56C189.44 188.8000000000001 189.0133333333333 188.3733333333334 193.0666666666666 191.1466666666667C197.3333333333333 193.9200000000001 204.3733333333333 198.4 216.1066666666666 205.6533333333334C261.3333333333333 234.6666666666667 223.36 167.6800000000001 203.9466666666666 54.8266666666667C196.2666666666667 -1.0666666666667 246.6133333333333 27.7333333333334 259.6266666666666 36.2666666666667C272.4266666666666 44.5866666666667 306.7733333333333 68.2666666666667 310.1866666666666 70.6133333333334C314.88 73.8133333333333 311.4666666666667 76.3733333333333 307.84 81.7066666666667C305.28 85.3333333333334 302.72 82.7733333333333 302.72 82.7733333333333C288.8533333333333 73.6 263.4666666666667 54.4 260.0533333333333 66.56C256 78.72 282.0266666666667 162.1333333333333 296.32 219.52C298.6666666666667 233.1733333333333 305.0666666666666 263.04 280.32 260.9066666666667z" /></svg>