<?xml version="1.0" encoding="UTF-8"?><!DOCTYPE svg PUBLIC "-//W3C//DTD SVG 1.1//EN" "http://www.w3.org/Graphics/SVG/1.1/DTD/svg11.dtd"><svg xmlns="http://www.w3.org/2000/svg" xmlns:xlink="http://www.w3.org/1999/xlink" version="1.1" width="512" height="512" viewBox="0 0 512 512">    <path fill="#ffffff" transform="scale(1, -1) translate(0, -448)" glyph-name="wifi-strength-off-outline" unicode="&#xF92D;" horiz-adv-x="512" d=" M69.76 417.28L42.6666666666667 389.9733333333334L86.4 346.24C58.6666666666667 333.44 32 317.6533333333333 8.1066666666667 298.6666666666667C89.6 196.2666666666667 173.6533333333333 92.3733333333333 256 -10.6666666666666L339.4133333333333 93.2266666666667L410.24 22.4L437.3333333333333 49.4933333333333C317.2266666666667 169.8133333333334 69.76 417.28 69.76 417.28M256 384C226.1333333333334 384 196.48 380.3733333333334 167.68 373.3333333333334L203.9466666666667 337.2800000000001C221.2266666666666 339.8400000000001 238.5066666666667 341.3333333333334 256 341.3333333333334C321.4933333333334 341.3333333333334 385.92 322.9866666666667 441.8133333333334 289.0666666666667L357.5466666666667 183.8933333333334L387.84 153.6C428.3733333333333 204.16 469.3333333333333 256 504.5333333333333 298.6666666666667C433.4933333333334 353.92 346.0266666666667 384 256 384M118.8266666666667 313.8133333333334L309.3333333333333 123.52L256 57.6L69.76 289.28C85.3333333333333 298.6666666666667 101.9733333333333 306.9866666666667 118.8266666666667 313.8133333333334z" /></svg>