<?xml version="1.0" encoding="UTF-8"?><!DOCTYPE svg PUBLIC "-//W3C//DTD SVG 1.1//EN" "http://www.w3.org/Graphics/SVG/1.1/DTD/svg11.dtd"><svg xmlns="http://www.w3.org/2000/svg" xmlns:xlink="http://www.w3.org/1999/xlink" version="1.1" width="512" height="512" viewBox="0 0 512 512">    <path fill="#ffffff" transform="scale(1, -1) translate(0, -448)" glyph-name="key-outline" unicode="&#xFDB2;" horiz-adv-x="512" d=" M469.3333333333333 42.6666666666667H341.3333333333333V128H284.16C259.84 76.3733333333333 207.36 42.6666666666667 149.3333333333333 42.6666666666667C66.9866666666667 42.6666666666667 0 109.6533333333334 0 192S66.9866666666667 341.3333333333334 149.3333333333333 341.3333333333334C207.36 341.3333333333334 259.6266666666667 307.6266666666667 284.16 256H512V128H469.3333333333333V42.6666666666667M384 85.3333333333334H426.6666666666667V170.6666666666667H469.3333333333333V213.3333333333334H254.72L249.8133333333333 227.6266666666667C234.6666666666667 270.0800000000001 194.3466666666666 298.6666666666667 149.3333333333333 298.6666666666667C90.4533333333333 298.6666666666667 42.6666666666667 250.88 42.6666666666667 192S90.4533333333333 85.3333333333334 149.3333333333333 85.3333333333334C194.3466666666666 85.3333333333334 234.6666666666667 113.92 249.8133333333334 156.3733333333333L254.7200000000001 170.6666666666667H384V85.3333333333334M149.3333333333333 128C113.92 128 85.3333333333333 156.5866666666667 85.3333333333333 192S113.92 256 149.3333333333333 256S213.3333333333333 227.4133333333334 213.3333333333333 192S184.7466666666667 128 149.3333333333333 128M149.3333333333333 213.3333333333334C137.6 213.3333333333334 128 203.7333333333334 128 192S137.6 170.6666666666667 149.3333333333333 170.6666666666667S170.6666666666667 180.2666666666667 170.6666666666667 192S161.0666666666667 213.3333333333334 149.3333333333333 213.3333333333334z" /></svg>