<?xml version="1.0" encoding="UTF-8"?><!DOCTYPE svg PUBLIC "-//W3C//DTD SVG 1.1//EN" "http://www.w3.org/Graphics/SVG/1.1/DTD/svg11.dtd"><svg xmlns="http://www.w3.org/2000/svg" xmlns:xlink="http://www.w3.org/1999/xlink" version="1.1" width="512" height="512" viewBox="0 0 512 512">    <path fill="#ffffff" transform="scale(1, -1) translate(0, -448)" glyph-name="laravel" unicode="&#xFACF;" horiz-adv-x="512" d=" M469.3333333333333 194.7733333333334C469.9733333333334 199.2533333333334 468.48 204.16 465.28 207.5733333333334C464 209.0666666666667 454.1866666666666 221.2266666666667 443.9466666666666 234.0266666666667C433.4933333333334 247.04 422.3999999999999 260.9066666666667 418.9866666666667 264.7466666666667C415.1466666666667 269.4400000000001 409.6 274.7733333333334 401.2800000000001 274.7733333333334C399.7866666666667 274.7733333333334 398.5066666666667 274.5600000000001 396.3733333333334 274.3466666666667C393.8133333333334 274.1333333333334 373.9733333333334 270.7200000000001 358.4 268.1600000000001C349.0133333333333 266.6666666666668 341.3333333333333 265.3866666666667 339.2 264.9600000000001C331.7333333333334 263.8933333333334 326.8266666666667 260.6933333333334 324.6933333333334 256.0000000000001C323.6266666666667 253.0133333333334 322.3466666666667 247.4666666666667 327.04 241.2800000000001L359.04 195.8400000000001L257.7066666666666 171.7333333333335L162.7733333333333 330.6666666666667C160 335.1466666666667 155.52 341.3333333333334 144.2133333333333 341.3333333333334H141.0133333333333L119.2533333333333 339.2000000000001C99.84 337.7066666666667 64 334.7200000000001 60.16 334.7200000000001C53.3333333333333 334.7200000000001 48.4266666666667 332.1600000000001 45.44 327.4666666666667C41.8133333333333 322.1333333333334 41.8133333333333 315.0933333333334 45.44 306.5600000000001C50.56 294.6133333333334 128.8533333333333 125.4400000000001 129.28 124.5866666666667C133.3333333333334 114.3466666666667 143.1466666666667 107.7333333333334 154.0266666666667 107.7333333333334C157.0133333333333 107.7333333333334 160 108.16 161.92 109.0133333333334C174.08 112.0000000000001 213.3333333333333 122.24 239.7866666666667 129.0666666666667C253.2266666666667 104.7466666666667 277.3333333333333 61.4400000000001 282.4533333333333 54.4C285.8666666666667 49.4933333333333 291.6266666666667 42.6666666666667 301.6533333333333 42.6666666666667C306.1333333333334 42.6666666666667 310.4 44.16 315.52 45.8666666666667C322.9866666666667 48.2133333333333 442.4533333333334 90.88 448.64 93.44C452.9066666666666 95.36 458.6666666666666 97.7066666666667 460.8 104.3200000000001C462.08 108.5866666666667 461.2266666666667 113.0666666666667 458.0266666666667 117.3333333333334C455.6800000000001 121.1733333333334 433.2800000000001 151.04 416.64 173.2266666666667L458.0266666666667 184.3200000000001C465.4933333333334 186.6666666666667 468.0533333333333 191.36 469.3333333333334 194.7733333333334M277.3333333333334 138.6666666666667L381.6533333333334 165.5466666666667C399.5733333333334 141.0133333333333 409.1733333333334 128 414.2933333333334 120.96C338.7733333333335 95.36 315.5200000000001 87.4666666666667 308.6933333333335 85.3333333333334C303.7866666666668 92.8000000000001 289.2800000000001 117.9733333333334 277.3333333333335 138.6666666666667M369.0666666666667 237.44C378.8800000000001 239.1466666666667 391.4666666666668 241.4933333333333 398.2933333333334 242.7733333333333C402.7733333333335 237.0133333333333 414.7200000000001 221.8666666666667 423.0400000000001 211.2C413.8666666666668 208.8533333333333 401.0666666666667 205.6533333333333 393.3866666666668 203.7333333333333L369.0666666666667 237.4400000000001M136.1066666666667 309.3333333333334L220.8 162.5600000000001L162.1333333333333 148.48C149.3333333333333 175.1466666666667 101.9733333333333 272.64 86.6133333333333 304.64C92.16 305.0666666666667 130.7733333333333 308.48 136.1066666666666 309.3333333333334z" /></svg>