<?xml version="1.0" encoding="UTF-8"?><!DOCTYPE svg PUBLIC "-//W3C//DTD SVG 1.1//EN" "http://www.w3.org/Graphics/SVG/1.1/DTD/svg11.dtd"><svg xmlns="http://www.w3.org/2000/svg" xmlns:xlink="http://www.w3.org/1999/xlink" version="1.1" width="512" height="512" viewBox="0 0 512 512">    <path fill="#ffffff" transform="scale(1, -1) translate(0, -448)" glyph-name="basketball-hoop" unicode="&#xFC17;" horiz-adv-x="512" d=" M448 405.3333333333333H64C40.5333333333333 405.3333333333333 21.3333333333333 386.1333333333334 21.3333333333333 362.6666666666667V106.6666666666667C21.3333333333333 83.2 40.5333333333333 64 64 64H106.6666666666667V149.3333333333334H405.3333333333333V64H448C471.4666666666667 64 490.6666666666666 83.2 490.6666666666666 106.6666666666667V362.6666666666667C490.6666666666666 386.1333333333334 471.4666666666667 405.3333333333333 448 405.3333333333333M362.6666666666667 192H320V256H192V192H149.3333333333333V256C149.3333333333333 279.4666666666667 168.5333333333333 298.6666666666667 192 298.6666666666667H320C343.4666666666667 298.6666666666667 362.6666666666667 279.4666666666667 362.6666666666667 256V192M149.3333333333333 106.6666666666667V32L170.6666666666667 -42.6666666666666L213.3333333333333 0L256 -42.6666666666666L298.6666666666667 0L341.3333333333333 -42.6666666666666L362.6666666666667 32V106.6666666666667H149.3333333333333z" /></svg>