<?xml version="1.0" encoding="UTF-8"?><!DOCTYPE svg PUBLIC "-//W3C//DTD SVG 1.1//EN" "http://www.w3.org/Graphics/SVG/1.1/DTD/svg11.dtd"><svg xmlns="http://www.w3.org/2000/svg" xmlns:xlink="http://www.w3.org/1999/xlink" version="1.1" width="512" height="512" viewBox="0 0 512 512">    <path fill="#ffffff" transform="scale(1, -1) translate(0, -448)" glyph-name="metronome" unicode="&#xF7D9;" horiz-adv-x="512" d=" M256 410.6666666666667L182.8266666666667 391.04L86.6133333333334 31.36C85.9733333333333 28.16 85.3333333333333 24.7466666666667 85.3333333333333 21.3333333333334C85.3333333333333 -2.3466666666666 104.32 -21.3333333333333 128 -21.3333333333333H384C407.68 -21.3333333333333 426.6666666666667 -2.3466666666666 426.6666666666667 21.3333333333334C426.6666666666667 24.7466666666667 426.0266666666667 28.16 425.3866666666667 31.36L396.3733333333334 140.3733333333333L362.6666666666667 106.6666666666667L366.9333333333333 85.3333333333334H286.08L346.6666666666667 145.92L316.5866666666667 176L225.92 85.3333333333334H145.0666666666667L219.52 362.6666666666667H292.48L323.6266666666666 246.8266666666667L358.3999999999999 281.8133333333334L329.1733333333333 391.04L256 410.6666666666667M240 341.3333333333334V133.3333333333334L272 165.3333333333334V341.3333333333334H240M422.1866666666666 281.6L361.8133333333334 221.2266666666667L346.6666666666667 236.3733333333334L316.5866666666667 206.0800000000001L376.7466666666667 145.9200000000001L407.04 176.0000000000001L391.8933333333333 191.1466666666667L452.2666666666665 251.5200000000001L422.1866666666666 281.6z" /></svg>