<?xml version="1.0" encoding="UTF-8"?><!DOCTYPE svg PUBLIC "-//W3C//DTD SVG 1.1//EN" "http://www.w3.org/Graphics/SVG/1.1/DTD/svg11.dtd"><svg xmlns="http://www.w3.org/2000/svg" xmlns:xlink="http://www.w3.org/1999/xlink" version="1.1" width="512" height="512" viewBox="0 0 512 512">    <path fill="#ffffff" transform="scale(1, -1) translate(0, -448)" glyph-name="dice-d4" unicode="&#xF5EB;" horiz-adv-x="512" d=" M286.5066666666667 124.8H304.8533333333333V98.9866666666667H286.5066666666667V64H254.2933333333333V98.9866666666667H188.16L186.6666666666667 119.2533333333333L254.08 225.7066666666667H286.5066666666667V124.8M218.6666666666667 124.8H254.2933333333333V181.9733333333334L218.6666666666667 124.8M469.3333333333333 0H42.6666666666667C34.9866666666667 0 27.9466666666667 4.0533333333334 24.1066666666667 10.6666666666667C20.2666666666667 17.4933333333333 20.48 25.8133333333334 24.5333333333333 32L237.8666666666667 384C245.3333333333333 397.2266666666667 266.6666666666667 397.2266666666667 274.3466666666667 384L487.6799999999999 32C491.52 25.8133333333334 491.7333333333333 17.4933333333333 487.8933333333333 10.6666666666667C484.0533333333333 4.0533333333334 477.0133333333333 0 469.3333333333333 0M80.64 42.6666666666667H431.5733333333333L256 332.1600000000001L80.64 42.6666666666667z" /></svg>