<?xml version="1.0" encoding="UTF-8"?><!DOCTYPE svg PUBLIC "-//W3C//DTD SVG 1.1//EN" "http://www.w3.org/Graphics/SVG/1.1/DTD/svg11.dtd"><svg xmlns="http://www.w3.org/2000/svg" xmlns:xlink="http://www.w3.org/1999/xlink" version="1.1" width="512" height="512" viewBox="0 0 512 512">    <path fill="#ffffff" transform="scale(1, -1) translate(0, -448)" glyph-name="set-none" unicode="&#xF77D;" horiz-adv-x="512" d=" M192 341.3333333333334C109.44 341.3333333333334 42.6666666666667 274.5600000000001 42.6666666666667 192S109.44 42.6666666666667 192 42.6666666666667C214.1866666666667 42.6666666666667 235.9466666666667 47.7866666666666 256 57.1733333333334C276.0533333333333 47.7866666666666 297.8133333333334 42.6666666666667 320 42.6666666666667C402.56 42.6666666666667 469.3333333333333 109.44 469.3333333333333 192S402.56 341.3333333333334 320 341.3333333333334C297.8133333333334 341.3333333333334 276.0533333333333 336.2133333333334 256 326.8266666666667C235.9466666666667 336.2133333333334 214.1866666666667 341.3333333333334 192 341.3333333333334M192 298.6666666666667C199.2533333333333 298.6666666666667 206.2933333333333 298.0266666666667 213.3333333333333 296.5333333333334C186.0266666666667 268.5866666666667 170.6666666666667 231.04 170.6666666666667 192C170.6666666666667 152.96 186.0266666666667 115.4133333333334 213.3333333333333 87.68C206.2933333333333 86.1866666666667 199.2533333333333 85.3333333333334 192 85.3333333333334C133.12 85.3333333333334 85.3333333333333 133.12 85.3333333333333 192S133.12 298.6666666666667 192 298.6666666666667M320 298.6666666666667C378.88 298.6666666666667 426.6666666666667 250.88 426.6666666666667 192S378.88 85.3333333333334 320 85.3333333333334C312.7466666666667 85.3333333333334 305.7066666666667 85.9733333333334 298.6666666666667 87.4666666666667C325.9733333333333 115.4133333333334 341.3333333333333 152.96 341.3333333333333 192.0000000000001C341.3333333333333 231.0400000000001 325.9733333333333 268.5866666666667 298.6666666666667 296.3200000000001C305.7066666666667 297.8133333333334 312.7466666666667 298.6666666666668 320 298.6666666666668M256 277.3333333333334C282.88 257.0666666666667 298.6666666666667 225.4933333333334 298.6666666666667 192.0000000000001C298.6666666666667 158.5066666666667 282.88 126.9333333333334 256 106.6666666666667C229.12 126.9333333333334 213.3333333333333 158.5066666666667 213.3333333333333 192.0000000000001C213.3333333333333 225.4933333333334 229.12 257.0666666666667 256 277.3333333333334z" /></svg>