<?xml version="1.0" encoding="UTF-8"?><!DOCTYPE svg PUBLIC "-//W3C//DTD SVG 1.1//EN" "http://www.w3.org/Graphics/SVG/1.1/DTD/svg11.dtd"><svg xmlns="http://www.w3.org/2000/svg" xmlns:xlink="http://www.w3.org/1999/xlink" version="1.1" width="512" height="512" viewBox="0 0 512 512">    <path fill="#ffffff" transform="scale(1, -1) translate(0, -448)" glyph-name="mailbox-open-outline" unicode="&#xFD65;" horiz-adv-x="512" d=" M298.6666666666667 213.3333333333334H426.6666666666667V128H384V170.6666666666667H298.6666666666667V213.3333333333334M384 362.6666666666667H170.6666666666667C111.7866666666667 362.6666666666667 64 314.88 64 256V64H21.3333333333333V21.3333333333334H448C471.4666666666667 21.3333333333334 490.6666666666666 40.5333333333333 490.6666666666666 64V256C490.6666666666666 314.88 442.88 362.6666666666667 384 362.6666666666667M234.6666666666667 64H106.6666666666667V256C106.6666666666667 291.4133333333334 135.2533333333333 320 170.6666666666667 320S234.6666666666667 291.4133333333334 234.6666666666667 256V64M448 64H277.3333333333333V256C277.3333333333333 279.04 269.8666666666667 301.6533333333334 256 320H384C419.4133333333333 320 448 291.4133333333334 448 256V64z" /></svg>