<?xml version="1.0" encoding="UTF-8"?><!DOCTYPE svg PUBLIC "-//W3C//DTD SVG 1.1//EN" "http://www.w3.org/Graphics/SVG/1.1/DTD/svg11.dtd"><svg xmlns="http://www.w3.org/2000/svg" xmlns:xlink="http://www.w3.org/1999/xlink" version="1.1" width="512" height="512" viewBox="0 0 512 512">    <path fill="#ffffff" transform="scale(1, -1) translate(0, -448)" glyph-name="receipt" unicode="&#xF449;" horiz-adv-x="512" d=" M64 -21.3333333333333L96 10.6666666666667L128 -21.3333333333333L160 10.6666666666667L192 -21.3333333333333L224 10.6666666666667L256 -21.3333333333333L288 10.6666666666667L320 -21.3333333333333L352 10.6666666666667L384 -21.3333333333333L416 10.6666666666667L448 -21.3333333333333V405.3333333333333L416 373.3333333333334L384 405.3333333333333L352 373.3333333333334L320 405.3333333333333L288 373.3333333333334L256 405.3333333333333L224 373.3333333333334L192 405.3333333333333L160 373.3333333333334L128 405.3333333333333L96 373.3333333333334L64 405.3333333333333M384 256H128V298.6666666666667H384M384 170.6666666666667H128V213.3333333333334H384M384 85.3333333333334H128V128H384V85.3333333333334z" /></svg>