<?xml version="1.0" encoding="UTF-8"?><!DOCTYPE svg PUBLIC "-//W3C//DTD SVG 1.1//EN" "http://www.w3.org/Graphics/SVG/1.1/DTD/svg11.dtd"><svg xmlns="http://www.w3.org/2000/svg" xmlns:xlink="http://www.w3.org/1999/xlink" version="1.1" width="512" height="512" viewBox="0 0 512 512">    <path fill="#ffffff" transform="scale(1, -1) translate(0, -448)" glyph-name="dribbble-box" unicode="&#xF1E1;" horiz-adv-x="512" d=" M106.6666666666667 384H405.3333333333333C428.8 384 448 364.8 448 341.3333333333334V42.6666666666667C448 19.2 428.8 0 405.3333333333333 0H106.6666666666667C83.2 0 64 19.2 64 42.6666666666667V341.3333333333334C64 364.8 83.2 384 106.6666666666667 384M321.92 96C315.9466666666667 125.0133333333333 308.6933333333334 151.2533333333333 300.3733333333334 174.5066666666667L324.2666666666667 176.2133333333334H324.6933333333333C338.56 176.2133333333334 353.92 174.5066666666667 370.3466666666667 170.6666666666667C364.5866666666667 139.9466666666667 346.88 113.28 321.92 96M256 75.52C230.1866666666667 75.52 206.08 84.0533333333333 186.88 98.3466666666667C190.9333333333333 105.1733333333334 199.68 118.1866666666667 213.3333333333333 131.6266666666667C228.2666666666667 145.4933333333334 248.32 160 274.3466666666667 168.3200000000001C283.3066666666666 143.5733333333334 291.2 115.2000000000001 297.3866666666667 83.2C284.3733333333334 78.2933333333333 270.5066666666667 75.52 256 75.52M139.52 192V193.7066666666667L152.32 193.4933333333334C175.7866666666667 193.4933333333334 216.5333333333333 195.6266666666667 258.1333333333334 208.6400000000001L264.7466666666667 193.28C237.0133333333333 183.8933333333334 215.2533333333333 169.1733333333334 199.2533333333333 154.4533333333334C183.68 140.3733333333333 173.2266666666666 126.2933333333334 167.04 117.3333333333334C149.9733333333333 137.3866666666667 139.52 163.4133333333334 139.52 192M204.5866666666667 296.32C212.6933333333333 286.7200000000001 228.9066666666667 265.8133333333334 246.1866666666667 232.96C210.9866666666666 222.5066666666667 175.5733333333333 220.16 154.0266666666667 220.16H142.9333333333333C151.2533333333333 253.6533333333334 174.2933333333333 281.3866666666667 204.5866666666667 296.3200000000001M256 308.48C283.52 308.48 308.6933333333334 298.6666666666667 328.7466666666667 282.88C313.3866666666667 264.5333333333334 293.12 251.3066666666667 271.36 241.92C256 271.5733333333334 241.28 292.6933333333334 231.2533333333334 305.7066666666667C239.1466666666667 307.4133333333334 247.4666666666667 308.48 256 308.48M347.52 263.8933333333334C362.0266666666667 245.3333333333334 371.2 222.5066666666667 372.2666666666667 197.5466666666667C355.4133333333333 200.96 339.6266666666667 202.6666666666667 324.6933333333333 202.6666666666667C312.7466666666666 202.6666666666667 301.44 201.8133333333334 290.7733333333333 199.8933333333334L283.0933333333333 218.0266666666667C306.56 228.2666666666667 329.1733333333333 242.9866666666667 347.52 263.8933333333334M256 341.3333333333334C173.44 341.3333333333334 106.6666666666667 274.5600000000001 106.6666666666667 192S173.44 42.6666666666667 256 42.6666666666667S405.3333333333333 109.44 405.3333333333333 192S338.56 341.3333333333334 256 341.3333333333334z" /></svg>