<?xml version="1.0" encoding="UTF-8"?><!DOCTYPE svg PUBLIC "-//W3C//DTD SVG 1.1//EN" "http://www.w3.org/Graphics/SVG/1.1/DTD/svg11.dtd"><svg xmlns="http://www.w3.org/2000/svg" xmlns:xlink="http://www.w3.org/1999/xlink" version="1.1" width="512" height="512" viewBox="0 0 512 512">    <path fill="#ffffff" transform="scale(1, -1) translate(0, -448)" glyph-name="recycle" unicode="&#xF44C;" horiz-adv-x="512" d=" M465.4933333333333 119.04L412.16 26.6666666666667C401.7066666666667 8.3200000000001 382.2933333333334 -1.28 362.6666666666667 0H320V-42.6666666666666L266.6666666666667 53.3333333333334L320 149.3333333333334V106.6666666666667H380.16L332.8 188.8L425.1733333333333 242.1333333333334L463.5733333333333 175.5733333333334C474.6666666666666 159.1466666666667 476.16 137.1733333333334 465.4933333333333 119.04M196.48 382.7200000000001H303.1466666666667C324.0533333333334 382.7200000000001 342.1866666666666 370.56 350.9333333333334 353.0666666666667L372.2666666666667 315.9466666666667L409.1733333333334 337.28L352.8533333333334 243.2L242.9866666666667 241.28L279.8933333333334 262.6133333333334L249.8133333333334 314.88L202.6666666666668 232.7466666666667L110.0800000000001 286.08L148.4800000000001 352.64C157.2266666666668 370.3466666666667 175.3600000000001 382.72 196.4800000000001 382.72M107.7333333333334 26.4533333333333L54.4000000000001 118.8266666666667C43.9466666666668 136.96 45.4400000000001 158.72 56.3200000000001 175.1466666666667L77.6533333333334 212.0533333333334L40.7466666666668 233.3866666666667L150.4000000000001 231.68L206.9333333333334 137.3866666666667L170.0266666666668 158.72L139.9466666666667 106.6666666666667H234.6666666666667V0H157.8666666666667C138.0266666666667 -1.4933333333333 118.4 8.3200000000001 107.7333333333334 26.4533333333333z" /></svg>