<?xml version="1.0" encoding="UTF-8"?><!DOCTYPE svg PUBLIC "-//W3C//DTD SVG 1.1//EN" "http://www.w3.org/Graphics/SVG/1.1/DTD/svg11.dtd"><svg xmlns="http://www.w3.org/2000/svg" xmlns:xlink="http://www.w3.org/1999/xlink" version="1.1" width="512" height="512" viewBox="0 0 512 512">    <path fill="#ffffff" transform="scale(1, -1) translate(0, -448)" glyph-name="spa-outline" unicode="&#xFCAE;" horiz-adv-x="512" d=" M330.6666666666667 242.56C303.1466666666667 227.84 277.9733333333333 209.0666666666667 256 186.4533333333333C234.0266666666667 209.28 208.8533333333333 228.0533333333333 181.3333333333333 242.56C186.4533333333333 301.6533333333333 211.6266666666667 359.68 257.28 405.3333333333333C302.5066666666667 360.1066666666667 326.6133333333334 302.08 330.6666666666667 242.56M256 118.4C301.8666666666667 188.3733333333333 380.16 234.6666666666667 469.3333333333333 234.6666666666667C469.3333333333333 21.3333333333334 270.5066666666667 -18.7733333333334 256 -21.3333333333333C241.4933333333334 -18.9866666666667 42.6666666666667 21.3333333333334 42.6666666666667 234.6666666666667C131.84 234.6666666666667 210.1333333333333 188.3733333333333 256 118.4M257.0666666666667 337.2800000000001C242.9866666666667 315.0933333333334 233.1733333333333 290.5600000000001 227.84 264.9600000000001L256 244.2666666666667L284.8 265.1733333333334C279.8933333333333 290.7733333333333 270.5066666666667 315.3066666666667 257.0666666666666 337.28M256 21.9733333333334S384 42.6666666666667 421.12 186.6666666666667C298.6666666666667 149.3333333333334 256 40.5333333333333 256 40.5333333333333S192 170.6666666666667 90.88 186.4533333333334C128 42.6666666666667 256 21.9733333333334 256 21.9733333333334z" /></svg>