<?xml version="1.0" encoding="UTF-8"?><!DOCTYPE svg PUBLIC "-//W3C//DTD SVG 1.1//EN" "http://www.w3.org/Graphics/SVG/1.1/DTD/svg11.dtd"><svg xmlns="http://www.w3.org/2000/svg" xmlns:xlink="http://www.w3.org/1999/xlink" version="1.1" width="512" height="512" viewBox="0 0 512 512">    <path fill="#ffffff" transform="scale(1, -1) translate(0, -448)" glyph-name="onenote" unicode="&#xF746;" horiz-adv-x="512" d=" M41.8133333333333 345.6L298.6666666666667 382.2933333333334V341.3333333333334H448C459.7333333333333 341.3333333333334 469.3333333333333 331.7333333333334 469.3333333333333 320V234.6666666666667C469.3333333333333 222.9333333333333 459.7333333333333 213.3333333333334 448 213.3333333333334H426.6666666666667V42.6666666666667H298.6666666666667V0L41.8133333333333 38.1866666666667V345.6M234.6666666666667 90.6666666666667V272L192 266.6666666666667V176L149.3333333333333 261.3333333333334L106.6666666666667 256V106.6666666666667L138.6666666666667 101.3333333333334V218.6666666666667L192 96L234.6666666666667 90.6666666666667M298.6666666666667 149.3333333333334H384V170.6666666666667H298.6666666666667V149.3333333333334M298.6666666666667 213.3333333333334H384V234.6666666666667H298.6666666666667V213.3333333333334M298.6666666666667 277.3333333333334H384V298.6666666666667H298.6666666666667V277.3333333333334M298.6666666666667 106.6666666666667V85.3333333333334H384V106.6666666666667H298.6666666666667z" /></svg>