<?xml version="1.0" encoding="UTF-8"?><!DOCTYPE svg PUBLIC "-//W3C//DTD SVG 1.1//EN" "http://www.w3.org/Graphics/SVG/1.1/DTD/svg11.dtd"><svg xmlns="http://www.w3.org/2000/svg" xmlns:xlink="http://www.w3.org/1999/xlink" version="1.1" width="512" height="512" viewBox="0 0 512 512">    <path fill="#ffffff" transform="scale(1, -1) translate(0, -448)" glyph-name="account-supervisor-circle" unicode="&#xFA8B;" horiz-adv-x="512" d=" M256 405.3333333333333C138.0266666666667 405.3333333333333 42.6666666666667 309.3333333333334 42.6666666666667 192C42.6666666666667 74.24 138.24 -21.3333333333333 256 -21.3333333333333S469.3333333333333 74.24 469.3333333333333 192S373.76 405.3333333333333 256 405.3333333333333M332.8 270.0800000000001C355.6266666666666 270.0800000000001 373.9733333333334 251.7333333333334 373.9733333333334 228.9066666666667C373.9733333333334 206.08 355.6266666666667 187.7333333333334 332.8 187.7333333333334C309.9733333333334 187.7333333333334 291.6266666666667 206.08 291.6266666666667 228.9066666666667C291.4133333333334 251.7333333333334 309.9733333333334 270.0800000000001 332.8 270.0800000000001M204.8 303.7866666666667C232.5333333333334 303.7866666666667 255.1466666666667 281.1733333333334 255.1466666666667 253.4400000000001C255.1466666666667 225.7066666666667 232.5333333333334 202.6666666666667 204.8 202.6666666666667C177.0666666666667 202.6666666666667 154.4533333333334 225.7066666666667 154.4533333333334 253.44C154.4533333333334 281.3866666666667 176.8533333333334 303.7866666666667 204.8 303.7866666666667M204.8 109.0133333333333V29.0133333333333C153.6 45.0133333333333 113.0666666666667 84.48 95.1466666666667 134.8266666666667C117.3333333333333 158.72 173.44 170.6666666666667 204.8 170.6666666666667C216.1066666666666 170.6666666666667 230.4 169.1733333333334 245.3333333333333 166.1866666666667C210.3466666666666 147.6266666666667 204.8 123.0933333333334 204.8 109.0133333333333M256 21.3333333333334C250.0266666666667 21.3333333333334 244.48 21.3333333333334 238.9333333333333 22.1866666666667V109.0133333333333C238.9333333333333 139.3066666666667 301.6533333333333 154.4533333333333 332.8 154.4533333333333C355.6266666666666 154.4533333333333 394.6666666666667 146.1333333333333 414.7199999999999 129.92C389.76 66.5600000000001 328.1066666666667 21.3333333333334 256 21.3333333333334z" /></svg>