<?xml version="1.0" encoding="UTF-8"?><!DOCTYPE svg PUBLIC "-//W3C//DTD SVG 1.1//EN" "http://www.w3.org/Graphics/SVG/1.1/DTD/svg11.dtd"><svg xmlns="http://www.w3.org/2000/svg" xmlns:xlink="http://www.w3.org/1999/xlink" version="1.1" width="512" height="512" viewBox="0 0 512 512">    <path fill="#ffffff" transform="scale(1, -1) translate(0, -448)" glyph-name="car-light-fog" unicode="&#xFC27;" horiz-adv-x="512" d=" M277.3333333333333 345.6C192 345.6 192 38.4 277.3333333333333 38.4S469.3333333333333 96 469.3333333333333 192S362.6666666666667 345.6 277.3333333333333 345.6M279.4666666666667 81.0666666666667C270.9333333333333 89.6 256 128 256 192S270.9333333333333 294.4 279.4666666666667 302.9333333333334C341.3333333333333 300.8 426.6666666666667 262.4000000000001 426.6666666666667 192C426.6666666666667 121.6 341.3333333333333 83.2 279.4666666666667 81.0666666666667M128 277.3333333333334V213.3333333333334H170.6666666666667V170.6666666666667H128V106.6666666666667H179.2C183.4666666666667 91.7333333333334 187.7333333333334 76.8000000000001 192 64H128V0H85.3333333333333V64H42.6666666666667V106.6666666666667H85.3333333333333V170.6666666666667H42.6666666666667V213.3333333333334H85.3333333333333V277.3333333333334H42.6666666666667V320H85.3333333333333V384H128V320H192C192 317.8666666666667 189.8666666666667 315.7333333333334 189.8666666666667 311.4666666666667C185.6 300.8 181.3333333333333 290.1333333333334 179.2 277.3333333333334H128z" /></svg>