<?xml version="1.0" encoding="UTF-8"?><!DOCTYPE svg PUBLIC "-//W3C//DTD SVG 1.1//EN" "http://www.w3.org/Graphics/SVG/1.1/DTD/svg11.dtd"><svg xmlns="http://www.w3.org/2000/svg" xmlns:xlink="http://www.w3.org/1999/xlink" version="1.1" width="512" height="512" viewBox="0 0 512 512">    <path fill="#ffffff" transform="scale(1, -1) translate(0, -448)" glyph-name="gauge" unicode="&#xF29A;" horiz-adv-x="512" d=" M256 405.3333333333333C138.24 405.3333333333333 42.6666666666667 309.76 42.6666666666667 192S138.24 -21.3333333333333 256 -21.3333333333333S469.3333333333333 74.24 469.3333333333333 192S373.76 405.3333333333333 256 405.3333333333333M256 362.6666666666667C350.2933333333334 362.6666666666667 426.6666666666667 286.2933333333334 426.6666666666667 192C426.6666666666667 140.8 405.3333333333333 96 369.0666666666667 64C339.2 91.7333333333334 298.6666666666667 106.6666666666667 256 106.6666666666667S174.9333333333333 91.7333333333334 142.9333333333333 64C106.6666666666667 96 85.3333333333333 140.8 85.3333333333333 192C85.3333333333333 286.2933333333334 161.7066666666667 362.6666666666667 256 362.6666666666667M298.6666666666667 322.3466666666667C290.56 322.1333333333334 282.88 316.8 279.4666666666667 308.48L251.9466666666667 239.5733333333334L249.8133333333333 234.6666666666667C234.6666666666667 231.8933333333333 222.08 221.8666666666667 216.32 207.7866666666667C207.5733333333333 185.8133333333334 218.24 161.0666666666667 240.2133333333333 152.3200000000001C262.1866666666666 143.5733333333334 286.9333333333333 154.24 295.68 176.2133333333334C301.2266666666666 190.2933333333334 298.6666666666667 206.5066666666667 289.4933333333333 218.4533333333334L291.6266666666666 224.0000000000001L319.1466666666666 292.48L319.3599999999999 293.1200000000001C323.6266666666666 304.0000000000001 318.2933333333333 316.3733333333334 307.4133333333333 320.8533333333334C304.6399999999999 321.9200000000001 301.8666666666666 322.3466666666667 298.6666666666666 322.3466666666667M213.3333333333333 320C201.6 320 192 310.4 192 298.6666666666667S201.6 277.3333333333334 213.3333333333333 277.3333333333334S234.6666666666667 286.9333333333334 234.6666666666667 298.6666666666667S225.0666666666667 320 213.3333333333333 320M149.3333333333333 256C137.6 256 128 246.4000000000001 128 234.6666666666667S137.6 213.3333333333334 149.3333333333333 213.3333333333334S170.6666666666667 222.9333333333333 170.6666666666667 234.6666666666667S161.0666666666667 256 149.3333333333333 256M362.6666666666667 256C350.9333333333333 256 341.3333333333333 246.4000000000001 341.3333333333333 234.6666666666667S350.9333333333333 213.3333333333334 362.6666666666667 213.3333333333334S384 222.9333333333333 384 234.6666666666667S374.4 256 362.6666666666667 256z" /></svg>