<?xml version="1.0" encoding="UTF-8"?><!DOCTYPE svg PUBLIC "-//W3C//DTD SVG 1.1//EN" "http://www.w3.org/Graphics/SVG/1.1/DTD/svg11.dtd"><svg xmlns="http://www.w3.org/2000/svg" xmlns:xlink="http://www.w3.org/1999/xlink" version="1.1" width="512" height="512" viewBox="0 0 512 512">    <path fill="#ffffff" transform="scale(1, -1) translate(0, -448)" glyph-name="wifi-strength-1-lock" unicode="&#xF920;" horiz-adv-x="512" d=" M256 384C346.0266666666667 384 433.4933333333334 353.92 504.5333333333333 298.6666666666667L459.52 242.7733333333333L437.3333333333333 245.3333333333333C425.1733333333333 245.3333333333333 413.2266666666667 243.2 401.7066666666666 239.1466666666667L441.8133333333333 289.0666666666667C385.7066666666666 322.9866666666667 321.4933333333334 341.3333333333334 256 341.3333333333334C190.2933333333333 341.3333333333334 126.08 323.2000000000001 69.76 289.2800000000001L178.9866666666667 153.6C202.6666666666667 164.6933333333333 229.3333333333333 170.6666666666667 256 170.6666666666667C282.24 170.6666666666667 308.0533333333333 164.6933333333334 331.7333333333334 153.8133333333334L330.6666666666667 138.6666666666667V82.3466666666667L256 -10.6666666666666L8.1066666666667 298.6666666666667C78.9333333333333 353.7066666666667 166.1866666666667 384 256 384M490.6666666666666 106.6666666666667C501.3333333333333 106.6666666666667 512 96 512 85.3333333333334V0C512 -10.6666666666666 501.3333333333333 -21.3333333333333 490.6666666666666 -21.3333333333333H384C373.3333333333333 -21.3333333333333 362.6666666666667 -10.6666666666666 362.6666666666667 0V85.3333333333334C362.6666666666667 96 373.3333333333333 106.6666666666667 384 106.6666666666667V138.6666666666667C384 168.5333333333334 407.4666666666667 192 437.3333333333333 192S490.6666666666666 168.5333333333334 490.6666666666666 138.6666666666667V106.6666666666667M469.3333333333333 106.6666666666667V138.6666666666667C469.3333333333333 155.7333333333334 454.4 170.6666666666667 437.3333333333333 170.6666666666667S405.3333333333333 155.7333333333334 405.3333333333333 138.6666666666667V106.6666666666667H469.3333333333333z" /></svg>