<?xml version="1.0" encoding="UTF-8"?><!DOCTYPE svg PUBLIC "-//W3C//DTD SVG 1.1//EN" "http://www.w3.org/Graphics/SVG/1.1/DTD/svg11.dtd"><svg xmlns="http://www.w3.org/2000/svg" xmlns:xlink="http://www.w3.org/1999/xlink" version="1.1" width="512" height="512" viewBox="0 0 512 512">    <path fill="#ffffff" transform="scale(1, -1) translate(0, -448)" glyph-name="power-standby" unicode="&#xF905;" horiz-adv-x="512" d=" M277.3333333333333 384H234.6666666666667V170.6666666666667H277.3333333333333V384M380.3733333333333 337.7066666666667L350.08 307.4133333333334C385.0666666666667 279.2533333333334 405.3333333333333 236.8 405.3333333333333 192C405.3333333333333 109.44 338.56 42.6666666666667 256 42.6666666666667C173.6533333333333 42.6666666666667 106.6666666666667 109.2266666666667 106.6666666666667 192C106.6666666666667 236.5866666666667 126.9333333333333 279.2533333333334 161.7066666666667 307.6266666666667L131.6266666666667 337.7066666666667C50.7733333333333 269.0133333333333 40.96 147.84 109.6533333333333 66.9866666666667C178.3466666666666 -13.6533333333333 299.52 -23.4666666666667 380.3733333333333 45.2266666666667C423.4666666666667 81.7066666666667 448 135.4666666666667 448 192C448 248.1066666666667 423.2533333333334 301.44 380.3733333333333 337.7066666666667z" /></svg>