<?xml version="1.0" encoding="UTF-8"?><!DOCTYPE svg PUBLIC "-//W3C//DTD SVG 1.1//EN" "http://www.w3.org/Graphics/SVG/1.1/DTD/svg11.dtd"><svg xmlns="http://www.w3.org/2000/svg" xmlns:xlink="http://www.w3.org/1999/xlink" version="1.1" width="512" height="512" viewBox="0 0 512 512">    <path fill="#ffffff" transform="scale(1, -1) translate(0, -448)" glyph-name="ornament" unicode="&#xF3CF;" horiz-adv-x="512" d=" M256 426.6666666666667C291.4133333333333 426.6666666666667 320 398.08 320 362.6666666666667V341.3333333333334C331.7333333333334 341.3333333333334 341.3333333333333 331.7333333333334 341.3333333333333 320V297.1733333333334C392.32 267.7333333333334 426.6666666666667 212.48 426.6666666666667 149.3333333333334C426.6666666666667 55.04 350.2933333333334 -21.3333333333333 256 -21.3333333333333S85.3333333333333 55.04 85.3333333333333 149.3333333333334C85.3333333333333 212.48 119.68 267.7333333333334 170.6666666666667 297.1733333333334V320C170.6666666666667 331.7333333333334 180.2666666666667 341.3333333333334 192 341.3333333333334V362.6666666666667C192 398.08 220.5866666666667 426.6666666666667 256 426.6666666666667M256 384C244.2666666666667 384 234.6666666666667 374.4 234.6666666666667 362.6666666666667V341.3333333333334H277.3333333333333V362.6666666666667C277.3333333333333 374.4 267.7333333333334 384 256 384M256 277.3333333333334C218.0266666666667 277.3333333333334 184.1066666666666 260.9066666666667 160.64 234.6666666666667H351.36C327.8933333333333 260.9066666666667 293.9733333333333 277.3333333333334 256 277.3333333333334M135.2533333333333 106.6666666666667H161.92L128 140.16C129.0666666666667 128 131.6266666666667 117.3333333333334 135.2533333333333 106.6666666666667M268.5866666666667 106.6666666666667L183.2533333333333 192H136.7466666666667L222.08 106.6666666666667H268.5866666666667M376.7466666666667 192H350.08L384 158.5066666666667C382.9333333333333 170.6666666666667 380.3733333333333 181.3333333333334 376.7466666666667 192M243.4133333333334 192L328.7466666666667 106.6666666666667H375.2533333333334L289.92 192H243.4133333333334M256 21.3333333333334C293.9733333333333 21.3333333333334 327.8933333333333 37.76 351.36 64H160.64C184.1066666666667 37.76 218.0266666666667 21.3333333333334 256 21.3333333333334z" /></svg>