<?xml version="1.0" encoding="UTF-8"?><!DOCTYPE svg PUBLIC "-//W3C//DTD SVG 1.1//EN" "http://www.w3.org/Graphics/SVG/1.1/DTD/svg11.dtd"><svg xmlns="http://www.w3.org/2000/svg" xmlns:xlink="http://www.w3.org/1999/xlink" version="1.1" width="512" height="512" viewBox="0 0 512 512">    <path fill="#ffffff" transform="scale(1, -1) translate(0, -448)" glyph-name="cards" unicode="&#xF638;" horiz-adv-x="512" d=" M458.0266666666666 355.2000000000001L429.44 367.1466666666667V174.5066666666667L481.28 299.5200000000001C490.0266666666666 321.2800000000001 480 346.2400000000001 458.0266666666666 355.2000000000001M42.0266666666666 276.2666666666668L147.84 21.3333333333334C154.4533333333333 4.9066666666667 170.0266666666667 -5.1199999999999 186.4533333333333 -5.5466666666667C192 -5.5466666666667 197.76 -4.48 203.3066666666667 -2.1333333333333L360.5333333333334 62.9333333333333C376.5333333333334 69.5466666666666 386.3466666666667 85.3333333333334 386.7733333333334 101.12C386.9866666666668 106.6666666666667 385.9200000000001 112.8533333333334 384.0000000000001 118.4L277.3333333333333 373.3333333333334C271.1466666666667 389.76 255.36 399.7866666666667 238.72 400C233.1733333333333 400 227.6266666666667 398.7200000000001 222.2933333333333 396.8L65.28 331.7333333333334C43.52 322.7733333333333 33.0666666666667 297.8133333333334 42.0266666666667 276.2666666666667M386.56 357.3333333333333C386.56 380.8 367.36 400 343.8933333333333 400H312.9599999999999L386.56 222.08" /></svg>