<?xml version="1.0" encoding="UTF-8"?><!DOCTYPE svg PUBLIC "-//W3C//DTD SVG 1.1//EN" "http://www.w3.org/Graphics/SVG/1.1/DTD/svg11.dtd"><svg xmlns="http://www.w3.org/2000/svg" xmlns:xlink="http://www.w3.org/1999/xlink" version="1.1" width="512" height="512" viewBox="0 0 512 512">    <path fill="#ffffff" transform="scale(1, -1) translate(0, -448)" glyph-name="owl" unicode="&#xF3D2;" horiz-adv-x="512" d=" M256 106.6666666666667C267.9466666666667 88.7466666666667 283.9466666666667 74.0266666666666 302.9333333333333 64L256 17.0666666666667L209.0666666666667 64C228.0533333333334 74.0266666666666 244.2666666666667 88.7466666666667 256 106.6666666666667M362.6666666666667 209.0666666666667C339.2 209.0666666666667 320 189.8666666666667 320 166.4S339.2 123.7333333333334 362.6666666666667 123.7333333333334S405.3333333333333 142.9333333333334 405.3333333333333 166.4C405.3333333333333 190.0800000000001 386.1333333333334 209.0666666666667 362.6666666666667 209.0666666666667M149.3333333333333 209.0666666666667C125.8666666666667 209.0666666666667 106.6666666666667 189.8666666666667 106.6666666666667 166.4S125.8666666666667 123.7333333333334 149.3333333333333 123.7333333333334S192 142.9333333333334 192 166.4C192 190.0800000000001 172.8 209.0666666666667 149.3333333333333 209.0666666666667M362.6666666666667 262.4000000000001C409.8133333333334 262.4000000000001 448 224.2133333333334 448 177.0666666666667S409.8133333333334 91.7333333333334 362.6666666666667 91.7333333333334S277.3333333333333 129.92 277.3333333333333 177.0666666666667S315.52 262.4000000000001 362.6666666666667 262.4000000000001M149.3333333333333 262.4000000000001C196.48 262.4000000000001 234.6666666666667 224.2133333333334 234.6666666666667 177.0666666666667S196.48 91.7333333333334 149.3333333333333 91.7333333333334S64 129.92 64 177.0666666666667S102.1866666666667 262.4000000000001 149.3333333333333 262.4000000000001M47.7866666666667 426.6666666666667C85.3333333333333 347.7333333333334 58.24 288.8533333333334 33.0666666666667 230.4000000000001C25.3866666666667 213.3333333333334 21.3333333333333 195.6266666666667 21.3333333333333 177.0666666666667C21.3333333333333 106.4533333333334 78.72 49.0666666666667 149.3333333333333 49.0666666666667C153.8133333333333 49.2800000000001 158.2933333333333 49.4933333333333 162.7733333333333 50.1333333333334L225.92 -13.0133333333333L256 -42.6666666666666L286.08 -13.0133333333333L349.2266666666667 50.1333333333334C353.7066666666667 49.4933333333333 358.1866666666667 49.2800000000001 362.6666666666667 49.0666666666667C433.28 49.0666666666667 490.6666666666666 106.4533333333334 490.6666666666666 177.0666666666667C490.6666666666666 195.6266666666667 486.6133333333333 213.3333333333334 478.9333333333333 230.4000000000001C453.76 288.8533333333334 426.6666666666667 347.7333333333334 464.2133333333334 426.6666666666667C407.8933333333333 382.7200000000001 327.68 347.9466666666667 256 347.7333333333334C184.32 347.9466666666667 104.1066666666667 382.7200000000001 47.7866666666667 426.6666666666667z" /></svg>