<?xml version="1.0" encoding="UTF-8"?><!DOCTYPE svg PUBLIC "-//W3C//DTD SVG 1.1//EN" "http://www.w3.org/Graphics/SVG/1.1/DTD/svg11.dtd"><svg xmlns="http://www.w3.org/2000/svg" xmlns:xlink="http://www.w3.org/1999/xlink" version="1.1" width="512" height="512" viewBox="0 0 512 512">    <path fill="#ffffff" transform="scale(1, -1) translate(0, -448)" glyph-name="vector-intersection" unicode="&#xF55D;" horiz-adv-x="512" d=" M66.9866666666667 426.6666666666667C41.8133333333333 426.6666666666667 21.3333333333333 406.1866666666667 21.3333333333333 381.0133333333333V341.3333333333334H64V384H106.6666666666667V426.6666666666667H66.9866666666667M149.3333333333333 426.6666666666667V384H213.3333333333333V426.6666666666667H149.3333333333333M256 426.6666666666667V384H298.6666666666667V341.3333333333334H341.3333333333333V381.0133333333333C341.3333333333333 406.1866666666667 320.8533333333333 426.6666666666667 295.68 426.6666666666667H256M21.3333333333333 298.6666666666667V234.6666666666667H64V298.6666666666667H21.3333333333333M192 298.6666666666667C168.32 298.6666666666667 149.3333333333333 279.68 149.3333333333333 256V106.6666666666667H295.68C320.8533333333333 106.6666666666667 341.3333333333333 127.1466666666667 341.3333333333333 152.3200000000001V298.6666666666667H192M384 298.6666666666667V256H426.6666666666667V213.3333333333334H469.3333333333333V256C469.3333333333333 279.68 450.3466666666667 298.6666666666667 426.6666666666667 298.6666666666667H384M192 256H298.6666666666667V149.3333333333334H192V256M21.3333333333333 192V152.3200000000001C21.3333333333333 127.1466666666667 41.8133333333333 106.6666666666667 66.9866666666667 106.6666666666667H106.6666666666667V149.3333333333334H64V192H21.3333333333333M426.6666666666667 170.6666666666667V106.6666666666667H469.3333333333333V170.6666666666667H426.6666666666667M149.3333333333333 64V21.3333333333334C149.3333333333333 -2.3466666666666 168.32 -21.3333333333333 192 -21.3333333333333H234.6666666666667V21.3333333333334H192V64H149.3333333333333M426.6666666666667 64V21.3333333333334H384V-21.3333333333333H426.6666666666667C450.3466666666667 -21.3333333333333 469.3333333333333 -2.3466666666666 469.3333333333333 21.3333333333334V64H426.6666666666667M277.3333333333333 21.3333333333334V-21.3333333333333H341.3333333333333V21.3333333333334H277.3333333333333z" /></svg>