<?xml version="1.0" encoding="UTF-8"?><!DOCTYPE svg PUBLIC "-//W3C//DTD SVG 1.1//EN" "http://www.w3.org/Graphics/SVG/1.1/DTD/svg11.dtd"><svg xmlns="http://www.w3.org/2000/svg" xmlns:xlink="http://www.w3.org/1999/xlink" version="1.1" width="512" height="512" viewBox="0 0 512 512">    <path fill="#ffffff" transform="scale(1, -1) translate(0, -448)" glyph-name="face-profile" unicode="&#xF644;" horiz-adv-x="512" d=" M256 405.3333333333333C138.24 405.3333333333333 42.6666666666667 309.76 42.6666666666667 192S138.24 -21.3333333333333 256 -21.3333333333333S469.3333333333333 74.24 469.3333333333333 192S373.76 405.3333333333333 256 405.3333333333333M256 269.0133333333333C289.4933333333334 247.4666666666667 328.96 234.6666666666667 371.6266666666667 234.6666666666667C388.2666666666667 234.6666666666667 404.2666666666667 236.5866666666667 419.6266666666667 240.2133333333334C424.1066666666667 225.0666666666667 426.6666666666667 208.8533333333333 426.6666666666667 192C426.6666666666667 97.92 350.08 21.3333333333334 256 21.3333333333334C192 21.3333333333334 136.32 56.7466666666667 106.6666666666667 109.0133333333333L144 149.3333333333334V170.6666666666667C144 185.3866666666667 155.9466666666667 197.3333333333334 170.6666666666667 197.3333333333334S197.3333333333333 185.3866666666667 197.3333333333333 170.6666666666667V149.3333333333334H256M341.3333333333333 197.3333333333334C326.6133333333334 197.3333333333334 314.6666666666667 185.3866666666667 314.6666666666667 170.6666666666667S326.6133333333334 144 341.3333333333333 144S368 155.9466666666667 368 170.6666666666667S356.0533333333334 197.3333333333334 341.3333333333333 197.3333333333334z" /></svg>