<?xml version="1.0" encoding="UTF-8"?><!DOCTYPE svg PUBLIC "-//W3C//DTD SVG 1.1//EN" "http://www.w3.org/Graphics/SVG/1.1/DTD/svg11.dtd"><svg xmlns="http://www.w3.org/2000/svg" xmlns:xlink="http://www.w3.org/1999/xlink" version="1.1" width="512" height="512" viewBox="0 0 512 512">    <path fill="#ffffff" transform="scale(1, -1) translate(0, -448)" glyph-name="mushroom" unicode="&#xF7DE;" horiz-adv-x="512" d=" M256 405.3333333333333C373.76 405.3333333333333 469.3333333333333 309.76 469.3333333333333 192C469.3333333333333 168.5333333333334 450.1333333333334 149.3333333333334 426.6666666666667 149.3333333333334H85.3333333333333C61.8666666666667 149.3333333333334 42.6666666666667 168.5333333333334 42.6666666666667 192C42.6666666666667 309.76 138.24 405.3333333333333 256 405.3333333333333M256 277.3333333333334C279.4666666666667 277.3333333333334 298.6666666666667 296.5333333333334 298.6666666666667 320S279.4666666666667 362.6666666666667 256 362.6666666666667S213.3333333333333 343.4666666666667 213.3333333333333 320S232.5333333333334 277.3333333333334 256 277.3333333333334M362.6666666666667 192C386.1333333333334 192 405.3333333333333 211.2 405.3333333333333 234.6666666666667S386.1333333333334 277.3333333333334 362.6666666666667 277.3333333333334S320 258.1333333333334 320 234.6666666666667S339.2 192 362.6666666666667 192M149.3333333333333 192C172.8 192 192 211.2 192 234.6666666666667S172.8 277.3333333333334 149.3333333333333 277.3333333333334S106.6666666666667 258.1333333333334 106.6666666666667 234.6666666666667S125.8666666666667 192 149.3333333333333 192M320 128L347.0933333333333 33.0666666666667L348.8 21.3333333333334C348.8 -2.1333333333333 329.5999999999999 -21.3333333333333 306.1333333333333 -21.3333333333333H205.8666666666666C182.4 -21.3333333333333 163.2 -2.1333333333333 163.2 21.3333333333334L164.9066666666667 33.0666666666667L192 128H320z" /></svg>