<?xml version="1.0" encoding="UTF-8"?><!DOCTYPE svg PUBLIC "-//W3C//DTD SVG 1.1//EN" "http://www.w3.org/Graphics/SVG/1.1/DTD/svg11.dtd"><svg xmlns="http://www.w3.org/2000/svg" xmlns:xlink="http://www.w3.org/1999/xlink" version="1.1" width="512" height="512" viewBox="0 0 512 512">    <path fill="#ffffff" transform="scale(1, -1) translate(0, -448)" glyph-name="printer-settings" unicode="&#xF706;" horiz-adv-x="512" d=" M384 405.3333333333333V320H128V405.3333333333333H384M405.3333333333333 213.3333333333334C417.0666666666667 213.3333333333334 426.6666666666667 222.9333333333333 426.6666666666667 234.6666666666667S417.0666666666667 256 405.3333333333333 256S384 246.4000000000001 384 234.6666666666667S393.6 213.3333333333334 405.3333333333333 213.3333333333334M341.3333333333333 64V170.6666666666667H170.6666666666667V64H341.3333333333333M405.3333333333333 298.6666666666667C440.7466666666667 298.6666666666667 469.3333333333333 270.0800000000001 469.3333333333333 234.6666666666667V106.6666666666667H384V21.3333333333334H128V106.6666666666667H42.6666666666667V234.6666666666667C42.6666666666667 270.0800000000001 71.2533333333333 298.6666666666667 106.6666666666667 298.6666666666667H405.3333333333333M320 -64V-21.3333333333333H362.6666666666667V-64H320M234.6666666666667 -64V-21.3333333333333H277.3333333333333V-64H234.6666666666667M149.3333333333333 -64V-21.3333333333333H192V-64H149.3333333333333z" /></svg>