<?xml version="1.0" encoding="UTF-8"?><!DOCTYPE svg PUBLIC "-//W3C//DTD SVG 1.1//EN" "http://www.w3.org/Graphics/SVG/1.1/DTD/svg11.dtd"><svg xmlns="http://www.w3.org/2000/svg" xmlns:xlink="http://www.w3.org/1999/xlink" version="1.1" width="512" height="512" viewBox="0 0 512 512">    <path fill="#ffffff" transform="scale(1, -1) translate(0, -448)" glyph-name="flask-empty-outline" unicode="&#xF095;" horiz-adv-x="512" d=" M106.6666666666667 42.6666666666667C106.6666666666667 30.9333333333333 116.2666666666667 21.3333333333334 128 21.3333333333334H384C395.7333333333334 21.3333333333334 405.3333333333333 30.9333333333333 405.3333333333333 42.6666666666667C405.3333333333333 47.1466666666667 403.84 51.4133333333334 401.4933333333334 54.8266666666667L277.3333333333333 269.8666666666667V362.6666666666667H234.6666666666667V269.8666666666667L110.5066666666667 54.8266666666667C108.16 51.4133333333334 106.6666666666667 47.1466666666667 106.6666666666667 42.6666666666667M128 -21.3333333333333C92.5866666666667 -21.3333333333333 64 7.2533333333333 64 42.6666666666667C64 55.4666666666667 67.84 67.4133333333334 74.6666666666667 77.44L192 281.3866666666667V320C180.2666666666667 320 170.6666666666667 329.6 170.6666666666667 341.3333333333334V362.6666666666667C170.6666666666667 386.1333333333334 189.8666666666667 405.3333333333333 213.3333333333333 405.3333333333333H298.6666666666667C322.1333333333334 405.3333333333333 341.3333333333333 386.1333333333334 341.3333333333333 362.6666666666667V341.3333333333334C341.3333333333333 329.6 331.7333333333334 320 320 320V281.3866666666667L437.3333333333333 77.44C444.16 67.4133333333334 448 55.4666666666666 448 42.6666666666667C448 7.2533333333333 419.4133333333333 -21.3333333333333 384 -21.3333333333333H128z" /></svg>