<?xml version="1.0" encoding="UTF-8"?><!DOCTYPE svg PUBLIC "-//W3C//DTD SVG 1.1//EN" "http://www.w3.org/Graphics/SVG/1.1/DTD/svg11.dtd"><svg xmlns="http://www.w3.org/2000/svg" xmlns:xlink="http://www.w3.org/1999/xlink" version="1.1" width="512" height="512" viewBox="0 0 512 512">    <path fill="#ffffff" transform="scale(1, -1) translate(0, -448)" glyph-name="death-star-variant" unicode="&#xF8D8;" horiz-adv-x="512" d=" M43.7333333333333 170.6666666666667H468.0533333333333C466.7733333333334 155.9466666666667 463.7866666666667 141.6533333333334 459.52 128H298.6666666666667V85.3333333333334H362.6666666666667V42.6666666666667H320V0H266.6666666666667V-21.3333333333333H256C145.4933333333334 -21.3333333333333 54.4 62.9333333333333 43.7333333333334 170.6666666666667M468.0533333333333 213.3333333333334H43.7333333333333C54.4 321.0666666666667 145.4933333333333 405.3333333333333 256 405.3333333333333C290.56 405.3333333333333 323.2 397.0133333333333 352 382.2933333333334V341.3333333333334H394.6666666666667V298.6666666666667H426.6666666666667V256H459.52C463.7866666666666 242.3466666666667 466.7733333333333 228.0533333333334 468.0533333333333 213.3333333333334M256 304C256 333.44 232.1066666666667 357.3333333333334 202.6666666666667 357.3333333333334S149.3333333333333 333.44 149.3333333333333 304S173.2266666666667 250.6666666666667 202.6666666666667 250.6666666666667S256 274.56 256 304z" /></svg>