<?xml version="1.0" encoding="UTF-8"?><!DOCTYPE svg PUBLIC "-//W3C//DTD SVG 1.1//EN" "http://www.w3.org/Graphics/SVG/1.1/DTD/svg11.dtd"><svg xmlns="http://www.w3.org/2000/svg" xmlns:xlink="http://www.w3.org/1999/xlink" version="1.1" width="512" height="512" viewBox="0 0 512 512">    <path fill="#ffffff" transform="scale(1, -1) translate(0, -448)" glyph-name="truck-check" unicode="&#xFCB0;" horiz-adv-x="512" d=" M64 362.6666666666667H362.6666666666667V277.3333333333334H426.6666666666667L490.6666666666666 192V85.3333333333334H448C448 49.92 419.4133333333333 21.3333333333334 384 21.3333333333334S320 49.92 320 85.3333333333334H192C192 49.92 163.4133333333333 21.3333333333334 128 21.3333333333334S64 49.92 64 85.3333333333334H21.3333333333333V320C21.3333333333333 343.68 40.5333333333333 362.6666666666667 64 362.6666666666667M362.6666666666667 245.3333333333334V192H458.0266666666666L416 245.3333333333334H362.6666666666667M128 117.3333333333334C110.2933333333333 117.3333333333334 96 103.04 96 85.3333333333334S110.2933333333333 53.3333333333334 128 53.3333333333334S160 67.6266666666667 160 85.3333333333334S145.7066666666667 117.3333333333334 128 117.3333333333334M384 117.3333333333334C366.2933333333334 117.3333333333334 352 103.04 352 85.3333333333334S366.2933333333334 53.3333333333334 384 53.3333333333334S416 67.6266666666667 416 85.3333333333334S401.7066666666666 117.3333333333334 384 117.3333333333334M170.6666666666667 149.3333333333334L298.6666666666667 277.3333333333334L268.5866666666667 307.6266666666667L170.6666666666667 209.7066666666667L126.08 254.2933333333334L96 224L170.6666666666667 149.3333333333334z" /></svg>