<?xml version="1.0" encoding="UTF-8"?><!DOCTYPE svg PUBLIC "-//W3C//DTD SVG 1.1//EN" "http://www.w3.org/Graphics/SVG/1.1/DTD/svg11.dtd"><svg xmlns="http://www.w3.org/2000/svg" xmlns:xlink="http://www.w3.org/1999/xlink" version="1.1" width="512" height="512" viewBox="0 0 512 512">    <path fill="#ffffff" transform="scale(1, -1) translate(0, -448)" glyph-name="table-row-plus-after" unicode="&#xF4F3;" horiz-adv-x="512" d=" M469.3333333333333 234.6666666666667C469.3333333333333 211.2 450.1333333333334 192 426.6666666666667 192H85.3333333333333C61.8666666666667 192 42.6666666666667 211.2 42.6666666666667 234.6666666666667V384H85.3333333333333V341.3333333333334H170.6666666666667V384H213.3333333333333V341.3333333333334H298.6666666666667V384H341.3333333333333V341.3333333333334H426.6666666666667V384H469.3333333333333V234.6666666666667M85.3333333333333 234.6666666666667H170.6666666666667V298.6666666666667H85.3333333333333V234.6666666666667M213.3333333333333 234.6666666666667H298.6666666666667V298.6666666666667H213.3333333333333V234.6666666666667M426.6666666666667 234.6666666666667V298.6666666666667H341.3333333333333V234.6666666666667H426.6666666666667M234.6666666666667 149.3333333333334H277.3333333333333V85.3333333333334H341.3333333333333V42.6666666666667H277.3333333333333V-21.3333333333333H234.6666666666667V42.6666666666667H170.6666666666667V85.3333333333334H234.6666666666667V149.3333333333334z" /></svg>