<?xml version="1.0" encoding="UTF-8"?><!DOCTYPE svg PUBLIC "-//W3C//DTD SVG 1.1//EN" "http://www.w3.org/Graphics/SVG/1.1/DTD/svg11.dtd"><svg xmlns="http://www.w3.org/2000/svg" xmlns:xlink="http://www.w3.org/1999/xlink" version="1.1" width="512" height="512" viewBox="0 0 512 512">    <path fill="#ffffff" transform="scale(1, -1) translate(0, -448)" glyph-name="car-back" unicode="&#xFDFE;" horiz-adv-x="512" d=" M128 213.3333333333334L149.3333333333333 298.6666666666667H362.6666666666667L384 213.3333333333334M403.6266666666667 320C399.1466666666667 332.8 386.9866666666667 341.3333333333334 373.3333333333333 341.3333333333334H138.6666666666667C125.0133333333333 341.3333333333334 112.8533333333333 332.8 108.3733333333333 320L64 192V21.3333333333334C64 9.6 73.6 0 85.3333333333333 0H106.6666666666667C118.4 0 128 9.6 128 21.3333333333334V64H384V21.3333333333334C384 9.6 393.6 0 405.3333333333333 0H426.6666666666667C438.4 0 448 9.6 448 21.3333333333334V192L403.6266666666667 320M149.3333333333333 106.6666666666667H106.6666666666667V149.3333333333334H149.3333333333333V106.6666666666667M405.3333333333333 106.6666666666667H362.6666666666667V149.3333333333334H405.3333333333333V106.6666666666667M298.6666666666667 106.6666666666667H213.3333333333333V149.3333333333334H298.6666666666667V106.6666666666667z" /></svg>