<?xml version="1.0" encoding="UTF-8"?><!DOCTYPE svg PUBLIC "-//W3C//DTD SVG 1.1//EN" "http://www.w3.org/Graphics/SVG/1.1/DTD/svg11.dtd"><svg xmlns="http://www.w3.org/2000/svg" xmlns:xlink="http://www.w3.org/1999/xlink" version="1.1" width="512" height="512" viewBox="0 0 512 512">    <path fill="#ffffff" transform="scale(1, -1) translate(0, -448)" glyph-name="volleyball" unicode="&#xF9B3;" horiz-adv-x="512" d=" M256 405.3333333333333C373.76 405.3333333333333 469.3333333333333 309.76 469.3333333333333 192S373.76 -21.3333333333333 256 -21.3333333333333S42.6666666666667 74.24 42.6666666666667 192S138.24 405.3333333333333 256 405.3333333333333M290.1333333333334 13.8666666666667C340.48 63.1466666666667 377.3866666666666 126.2933333333333 394.6666666666667 197.12C380.5866666666667 200.1066666666667 366.5066666666667 201.8133333333333 352 202.6666666666666C331.9466666666667 125.6533333333333 286.08 59.3066666666666 224 13.44C234.6666666666667 11.7333333333333 245.3333333333333 10.6666666666667 256 10.6666666666667C267.7333333333334 10.6666666666667 279.04 11.7333333333333 290.1333333333334 13.8666666666667M196.9066666666667 20.48C260.9066666666667 62.5066666666666 309.3333333333333 126.9333333333333 329.8133333333334 202.6666666666666C313.8133333333334 201.5999999999999 298.0266666666667 199.4666666666666 283.0933333333334 196.0533333333333C259.8400000000001 130.3466666666666 212.6933333333334 75.9466666666666 152.1066666666667 43.3066666666666C165.76 33.7066666666666 181.3333333333334 26.0266666666666 196.9066666666667 20.4799999999999M437.3333333333333 184.1066666666666C430.08 187.0933333333333 422.6133333333333 189.6533333333332 415.1466666666667 191.9999999999999C400.2133333333334 130.1333333333332 370.9866666666667 74.0266666666665 331.52 27.0933333333332C391.68 54.6133333333332 434.1333333333334 114.3466666666665 437.3333333333333 184.1066666666665M75.9466666666667 212.48C74.6666666666667 205.8666666666667 74.6666666666667 198.8266666666667 74.6666666666667 192C74.6666666666667 138.6666666666667 97.4933333333333 91.0933333333334 133.76 58.0266666666666C146.3466666666666 64 158.08 71.2533333333333 169.3866666666667 79.1466666666667C129.7066666666667 116.48 97.7066666666667 161.92 75.9466666666667 212.48M113.7066666666667 304.2133333333333C100.9066666666667 288 90.88 269.8666666666666 84.2666666666667 250.0266666666666C104.96 189.2266666666666 140.3733333333333 135.2533333333333 186.4533333333333 92.3733333333333C197.3333333333333 101.5466666666666 207.36 111.5733333333333 216.5333333333333 122.4533333333333C165.12 170.0266666666667 128 232.96 113.7066666666667 304.2133333333334M171.52 352C157.0133333333333 344.5333333333334 143.5733333333333 334.9333333333334 131.84 323.8400000000001C143.1466666666667 251.52 178.56 187.0933333333334 229.76 139.3066666666667C238.2933333333333 151.2533333333333 245.3333333333333 163.84 252.16 177.0666666666667C206.5066666666667 222.72 176.64 283.9466666666667 171.52 352M425.8133333333334 255.36C398.9333333333333 262.8266666666667 370.56 266.6666666666667 341.3333333333333 266.6666666666667C300.8 266.6666666666667 261.9733333333333 259.2000000000001 226.3466666666667 245.3333333333334C233.8133333333333 232.5333333333334 242.1333333333334 220.3733333333333 251.7333333333333 209.0666666666667C279.8933333333333 218.6666666666667 309.9733333333333 224 341.3333333333333 224C374.8266666666667 224 407.04 218.0266666666667 436.6933333333333 207.1466666666667C435.2 224 431.5733333333333 240.2133333333334 425.8133333333333 255.36M374.1866666666666 329.1733333333334C363.3066666666667 330.6666666666667 352 330.6666666666667 341.3333333333333 330.6666666666667C292.0533333333333 330.6666666666667 244.6933333333333 321.28 201.3866666666667 304.4266666666667C205.2266666666667 290.56 210.3466666666667 277.3333333333334 216.32 264.3200000000001C255.1466666666667 279.68 297.1733333333333 288 341.3333333333333 288C366.5066666666667 288 390.8266666666667 285.2266666666667 414.2933333333334 280.1066666666667C403.8400000000001 298.6666666666667 390.1866666666667 315.52 374.1866666666667 329.1733333333334M341.3333333333333 352C315.52 365.44 286.72 373.3333333333334 256 373.3333333333334C233.6 373.3333333333334 212.0533333333333 369.0666666666667 192 361.6C192.8533333333333 349.2266666666667 194.3466666666666 337.0666666666667 196.48 325.3333333333334C241.28 342.4 290.1333333333334 352 341.3333333333333 352z" /></svg>