<?xml version="1.0" encoding="UTF-8"?><!DOCTYPE svg PUBLIC "-//W3C//DTD SVG 1.1//EN" "http://www.w3.org/Graphics/SVG/1.1/DTD/svg11.dtd"><svg xmlns="http://www.w3.org/2000/svg" xmlns:xlink="http://www.w3.org/1999/xlink" version="1.1" width="512" height="512" viewBox="0 0 512 512">    <path fill="#ffffff" transform="scale(1, -1) translate(0, -448)" glyph-name="cash-refund" unicode="&#xFA9B;" horiz-adv-x="512" d=" M64 213.3333333333334H448V-42.6666666666666H64V213.3333333333334M256 128C279.4666666666667 128 298.6666666666667 108.8 298.6666666666667 85.3333333333334S279.4666666666667 42.6666666666667 256 42.6666666666667S213.3333333333333 61.8666666666667 213.3333333333333 85.3333333333334S232.5333333333334 128 256 128M149.3333333333333 170.6666666666667C149.3333333333333 147.2000000000001 130.1333333333333 128 106.6666666666667 128V42.6666666666667C130.1333333333333 42.6666666666667 149.3333333333333 23.4666666666667 149.3333333333333 0H362.6666666666667C362.6666666666667 23.4666666666667 381.8666666666666 42.6666666666667 405.3333333333333 42.6666666666667V128C381.8666666666666 128 362.6666666666667 147.2000000000001 362.6666666666667 170.6666666666667H149.3333333333333M362.6666666666667 341.3333333333334V234.6666666666667H330.6666666666667V309.3333333333334H210.7733333333334L262.4 257.4933333333334L239.7866666666667 234.6666666666667L149.3333333333333 325.3333333333334L239.7866666666667 416L262.4 393.1733333333334L210.7733333333334 341.3333333333334H362.6666666666667z" /></svg>