<?xml version="1.0" encoding="UTF-8"?><!DOCTYPE svg PUBLIC "-//W3C//DTD SVG 1.1//EN" "http://www.w3.org/Graphics/SVG/1.1/DTD/svg11.dtd"><svg xmlns="http://www.w3.org/2000/svg" xmlns:xlink="http://www.w3.org/1999/xlink" version="1.1" width="512" height="512" viewBox="0 0 512 512">    <path fill="#ffffff" transform="scale(1, -1) translate(0, -448)" glyph-name="engine-off-outline" unicode="&#xFA46;" horiz-adv-x="512" d=" M53.3333333333333 367.5733333333333L146.56 274.3466666666667L106.6666666666667 234.6666666666667V170.6666666666667H64V234.6666666666667H21.3333333333333V64H64V128H106.6666666666667V64H170.6666666666667L213.3333333333333 21.3333333333334H384V36.9066666666667L452.9066666666666 -32L480 -4.6933333333333L80.64 394.6666666666667L53.3333333333333 367.5733333333333M341.3333333333333 64H234.6666666666667L192 106.6666666666667H149.3333333333333V213.3333333333334L170.6666666666667 234.6666666666667H186.24L341.3333333333333 79.5733333333334V64M490.6666666666666 256V42.6666666666667H486.8266666666667L341.3333333333333 188.16V234.6666666666667H294.8266666666667L166.8266666666667 362.6666666666667H320V320H256V277.3333333333334H384V192H426.6666666666667V256H490.6666666666666z" /></svg>