<?xml version="1.0" encoding="UTF-8"?><!DOCTYPE svg PUBLIC "-//W3C//DTD SVG 1.1//EN" "http://www.w3.org/Graphics/SVG/1.1/DTD/svg11.dtd"><svg xmlns="http://www.w3.org/2000/svg" xmlns:xlink="http://www.w3.org/1999/xlink" version="1.1" width="512" height="512" viewBox="0 0 512 512">    <path fill="#ffffff" transform="scale(1, -1) translate(0, -448)" glyph-name="rotate-right" unicode="&#xF467;" horiz-adv-x="512" d=" M360.32 117.3333333333334L390.6133333333334 87.68C409.8133333333334 112.4266666666667 421.5466666666667 141.0133333333333 425.1733333333334 170.6666666666667H382.0800000000001C379.0933333333334 152.1066666666667 371.8400000000001 133.9733333333334 360.3200000000001 117.3333333333334M277.3333333333333 66.1333333333334V23.0400000000001C306.9866666666667 26.6666666666667 335.7866666666667 38.1866666666667 360.5333333333333 57.3866666666667L329.8133333333333 88.1066666666667C313.8133333333333 76.5866666666668 295.8933333333333 69.1200000000001 277.3333333333333 66.1333333333334M425.1733333333333 213.3333333333334C421.5466666666666 242.9866666666668 409.8133333333334 271.5733333333334 390.6133333333333 296.3200000000001L360.32 266.0266666666668C371.84 250.0266666666668 379.0933333333333 231.8933333333334 382.08 213.3333333333334M331.7333333333334 329.6L234.6666666666667 426.6666666666667V361.1733333333334C150.6133333333333 350.7200000000001 85.3333333333333 279.04 85.3333333333333 192S150.4 33.28 234.6666666666667 22.8266666666667V65.92C174.08 76.16 128 128.64 128 192S174.08 307.8400000000001 234.6666666666667 318.0800000000001V234.6666666666667L331.7333333333334 329.6z" /></svg>