<?xml version="1.0" encoding="UTF-8"?><!DOCTYPE svg PUBLIC "-//W3C//DTD SVG 1.1//EN" "http://www.w3.org/Graphics/SVG/1.1/DTD/svg11.dtd"><svg xmlns="http://www.w3.org/2000/svg" xmlns:xlink="http://www.w3.org/1999/xlink" version="1.1" width="512" height="512" viewBox="0 0 512 512">    <path fill="#ffffff" transform="scale(1, -1) translate(0, -448)" glyph-name="circular-saw" unicode="&#xFE73;" horiz-adv-x="512" d=" M277.3333333333333 213.3333333333334C289.0666666666667 213.3333333333334 298.6666666666667 203.7333333333334 298.6666666666667 192S289.0666666666667 170.6666666666667 277.3333333333333 170.6666666666667S256 180.2666666666667 256 192S265.6 213.3333333333334 277.3333333333333 213.3333333333334M167.68 314.6666666666667C194.9866666666667 344.1066666666667 234.0266666666667 362.6666666666667 277.3333333333333 362.6666666666667C352 362.6666666666667 414.7200000000001 306.9866666666667 425.1733333333333 234.6666666666667H469.3333333333333V192H341.3333333333333C341.3333333333333 227.4133333333334 312.7466666666667 256 277.3333333333333 256S213.3333333333333 227.4133333333334 213.3333333333333 192H42.6666666666667V234.6666666666667H43.7333333333333C48 283.0933333333334 66.9866666666667 327.2533333333334 96 362.6666666666667L167.68 314.6666666666667M143.5733333333333 279.68L107.9466666666667 303.5733333333334C96.64 282.6666666666667 89.1733333333333 259.4133333333334 86.6133333333333 234.6666666666667H129.4933333333333C131.84 250.6666666666667 136.5333333333333 265.8133333333334 143.5733333333333 279.68M157.8666666666667 119.4666666666667L128 149.3333333333334H251.52C256.64 140.3733333333333 266.6666666666667 134.4 277.3333333333333 134.4S298.0266666666667 140.3733333333333 303.1466666666667 149.3333333333334H426.6666666666667V119.4666666666667C392.32 140.3733333333333 393.8133333333334 112 393.8133333333334 112V70.1866666666667L352 28.3733333333333C341.3333333333333 65.7066666666667 322.1333333333334 44.8 322.1333333333334 44.8L292.2666666666667 14.9333333333333H232.5333333333333C253.44 49.28 225.0666666666666 47.7866666666666 225.0666666666666 47.7866666666666H183.2533333333333L141.44 89.6C178.7733333333333 100.0533333333333 157.8666666666667 119.4666666666667 157.8666666666667 119.4666666666667z" /></svg>