<?xml version="1.0" encoding="UTF-8"?><!DOCTYPE svg PUBLIC "-//W3C//DTD SVG 1.1//EN" "http://www.w3.org/Graphics/SVG/1.1/DTD/svg11.dtd"><svg xmlns="http://www.w3.org/2000/svg" xmlns:xlink="http://www.w3.org/1999/xlink" version="1.1" width="512" height="512" viewBox="0 0 512 512">    <path fill="#ffffff" transform="scale(1, -1) translate(0, -448)" glyph-name="exponent" unicode="&#xF962;" horiz-adv-x="512" d=" M328.1066666666667 384L379.0933333333333 261.3333333333334C374.4 241.4933333333334 368.4266666666666 227.84 362.6666666666667 219.7333333333334C355.6266666666667 209.4933333333334 350.7200000000001 208 345.3866666666667 208V176C361.3866666666667 176 378.4533333333334 184.5333333333334 389.12 201.3866666666667C423.8933333333333 257.2800000000001 469.3333333333333 384 469.3333333333333 384H434.7733333333333L398.7199999999999 297.6L362.6666666666667 384H328.1066666666667M72.96 264.7466666666667L42.6666666666667 234.6666666666667L144.8533333333333 132.48L42.6666666666667 30.08L72.7466666666667 0L175.1466666666667 102.1866666666667L277.3333333333333 0L307.4133333333333 30.08L205.2266666666667 132.48L307.4133333333333 234.6666666666667L277.3333333333333 264.7466666666667L175.1466666666667 162.5600000000001L72.7466666666667 264.7466666666667H72.96z" /></svg>