<?xml version="1.0" encoding="UTF-8"?><!DOCTYPE svg PUBLIC "-//W3C//DTD SVG 1.1//EN" "http://www.w3.org/Graphics/SVG/1.1/DTD/svg11.dtd"><svg xmlns="http://www.w3.org/2000/svg" xmlns:xlink="http://www.w3.org/1999/xlink" version="1.1" width="512" height="512" viewBox="0 0 512 512">    <path fill="#ffffff" transform="scale(1, -1) translate(0, -448)" glyph-name="grain" unicode="&#xFD58;" horiz-adv-x="512" d=" M213.3333333333333 192C189.8666666666667 192 170.6666666666667 172.8 170.6666666666667 149.3333333333334S189.8666666666667 106.6666666666667 213.3333333333333 106.6666666666667S256 125.8666666666667 256 149.3333333333334S236.8 192 213.3333333333333 192M128 277.3333333333334C104.5333333333333 277.3333333333334 85.3333333333333 258.1333333333334 85.3333333333333 234.6666666666667S104.5333333333333 192 128 192S170.6666666666667 211.2 170.6666666666667 234.6666666666667S151.4666666666667 277.3333333333334 128 277.3333333333334M128 106.6666666666667C104.5333333333333 106.6666666666667 85.3333333333333 87.4666666666667 85.3333333333333 64S104.5333333333333 21.3333333333334 128 21.3333333333334S170.6666666666667 40.5333333333333 170.6666666666667 64S151.4666666666667 106.6666666666667 128 106.6666666666667M384 277.3333333333334C407.4666666666667 277.3333333333334 426.6666666666667 296.5333333333334 426.6666666666667 320S407.4666666666667 362.6666666666667 384 362.6666666666667S341.3333333333333 343.4666666666667 341.3333333333333 320S360.5333333333333 277.3333333333334 384 277.3333333333334M298.6666666666667 106.6666666666667C275.2 106.6666666666667 256 87.4666666666667 256 64S275.2 21.3333333333334 298.6666666666667 21.3333333333334S341.3333333333333 40.5333333333333 341.3333333333333 64S322.1333333333334 106.6666666666667 298.6666666666667 106.6666666666667M384 192C360.5333333333333 192 341.3333333333333 172.8 341.3333333333333 149.3333333333334S360.5333333333333 106.6666666666667 384 106.6666666666667S426.6666666666667 125.8666666666667 426.6666666666667 149.3333333333334S407.4666666666667 192 384 192M298.6666666666667 277.3333333333334C275.2 277.3333333333334 256 258.1333333333334 256 234.6666666666667S275.2 192 298.6666666666667 192S341.3333333333333 211.2 341.3333333333333 234.6666666666667S322.1333333333334 277.3333333333334 298.6666666666667 277.3333333333334M213.3333333333333 362.6666666666667C189.8666666666667 362.6666666666667 170.6666666666667 343.4666666666667 170.6666666666667 320S189.8666666666667 277.3333333333334 213.3333333333333 277.3333333333334S256 296.5333333333334 256 320S236.8 362.6666666666667 213.3333333333333 362.6666666666667z" /></svg>