<?xml version="1.0" encoding="UTF-8"?><!DOCTYPE svg PUBLIC "-//W3C//DTD SVG 1.1//EN" "http://www.w3.org/Graphics/SVG/1.1/DTD/svg11.dtd"><svg xmlns="http://www.w3.org/2000/svg" xmlns:xlink="http://www.w3.org/1999/xlink" version="1.1" width="512" height="512" viewBox="0 0 512 512">    <path fill="#ffffff" transform="scale(1, -1) translate(0, -448)" glyph-name="clippy" unicode="&#xF14F;" horiz-adv-x="512" d=" M320 117.3333333333334C320 87.8933333333334 296.1066666666667 64 266.6666666666667 64S213.3333333333333 87.8933333333334 213.3333333333333 117.3333333333334V154.6666666666667C213.3333333333333 163.4133333333334 220.5866666666667 170.6666666666667 229.3333333333333 170.6666666666667S245.3333333333333 163.4133333333334 245.3333333333333 154.6666666666667V117.3333333333334C245.3333333333333 105.6 254.9333333333333 96 266.6666666666667 96S288 105.6 288 117.3333333333334V194.3466666666667C269.44 200.32 256 216.1066666666667 256 234.6666666666667C256 258.1333333333334 277.3333333333333 277.3333333333334 304 277.3333333333334S352 258.1333333333334 352 234.6666666666667C352 216.1066666666667 338.56 200.32 320 194.3466666666667V117.3333333333334M176 277.3333333333334C202.6666666666667 277.3333333333334 224 258.1333333333334 224 234.6666666666667C224 216.1066666666667 210.56 200.32 192 194.3466666666667V80C192 41.8133333333334 223.1466666666667 10.6666666666667 261.3333333333333 10.6666666666667S330.6666666666667 41.8133333333334 330.6666666666667 80V154.6666666666667C330.6666666666667 163.4133333333334 337.92 170.6666666666667 346.6666666666667 170.6666666666667S362.6666666666667 163.4133333333334 362.6666666666667 154.6666666666667V80C362.6666666666667 24.1066666666667 317.2266666666667 -21.3333333333333 261.3333333333333 -21.3333333333333S160 24.1066666666667 160 80V194.3466666666667C141.44 200.32 128 216.1066666666667 128 234.6666666666667C128 258.1333333333334 149.3333333333333 277.3333333333334 176 277.3333333333334M214.6133333333334 317.2266666666667L205.44 286.0800000000001C196.6933333333333 290.7733333333333 186.6666666666667 293.3333333333334 176 293.3333333333334C156.5866666666667 293.3333333333334 139.3066666666667 284.8 128.64 271.5733333333334L103.04 290.7733333333334C116.48 307.8400000000001 136.7466666666667 320 160 324.0533333333334V325.3333333333334C160 369.4933333333334 195.84 405.3333333333333 240 405.3333333333333C284.16 405.3333333333333 320 369.4933333333334 320 325.3333333333334V324.0533333333334C343.2533333333334 320 363.52 307.8400000000001 376.9600000000001 290.7733333333334L351.36 271.5733333333334C340.6933333333334 284.8 323.4133333333334 293.3333333333334 304 293.3333333333334C293.3333333333334 293.3333333333334 283.3066666666667 290.7733333333333 274.56 286.0800000000001L265.3866666666667 317.2266666666667C272.4266666666667 320 280.1066666666667 322.7733333333333 288 324.0533333333334V325.3333333333334C288 352 266.6666666666667 373.3333333333334 240.0000000000001 373.3333333333334S192 352 192 325.3333333333334V324.0533333333334C199.8933333333333 322.7733333333334 207.5733333333333 320 214.6133333333334 317.2266666666667M304 250.6666666666667C292.2666666666667 250.6666666666667 282.6666666666667 243.4133333333334 282.6666666666667 234.6666666666667S292.2666666666667 218.6666666666667 304 218.6666666666667S325.3333333333333 225.92 325.3333333333333 234.6666666666667S315.7333333333334 250.6666666666667 304 250.6666666666667M176 250.6666666666667C164.2666666666667 250.6666666666667 154.6666666666667 243.4133333333334 154.6666666666667 234.6666666666667S164.2666666666667 218.6666666666667 176 218.6666666666667S197.3333333333333 225.92 197.3333333333333 234.6666666666667S187.7333333333334 250.6666666666667 176 250.6666666666667z" /></svg>