<?xml version="1.0" encoding="UTF-8"?><!DOCTYPE svg PUBLIC "-//W3C//DTD SVG 1.1//EN" "http://www.w3.org/Graphics/SVG/1.1/DTD/svg11.dtd"><svg xmlns="http://www.w3.org/2000/svg" xmlns:xlink="http://www.w3.org/1999/xlink" version="1.1" width="512" height="512" viewBox="0 0 512 512">    <path fill="#ffffff" transform="scale(1, -1) translate(0, -448)" glyph-name="folder-key-network" unicode="&#xF8AC;" horiz-adv-x="512" d=" M128 341.3333333333334C104.32 341.3333333333334 85.3333333333333 322.3466666666667 85.3333333333333 298.6666666666667V128C85.3333333333333 104.5333333333333 104.5333333333333 85.3333333333334 128 85.3333333333334H234.6666666666667V42.6666666666667H213.3333333333333C201.6 42.6666666666667 192 33.0666666666667 192 21.3333333333334H42.6666666666667V-21.3333333333333H192C192 -33.0666666666667 201.6 -42.6666666666666 213.3333333333333 -42.6666666666666H298.6666666666667C310.4 -42.6666666666666 320 -33.0666666666667 320 -21.3333333333333H469.3333333333333V21.3333333333334H320C320 33.0666666666667 310.4 42.6666666666667 298.6666666666667 42.6666666666667H277.3333333333333V85.3333333333334H384C407.4666666666667 85.3333333333334 426.6666666666667 104.5333333333333 426.6666666666667 128V256C426.6666666666667 279.4666666666667 407.4666666666667 298.6666666666667 384 298.6666666666667H256L213.3333333333333 341.3333333333334H128M192 256C219.9466666666667 256 243.6266666666667 238.2933333333334 252.3733333333334 213.3333333333334H362.6666666666667V170.6666666666667H341.3333333333333V128H298.6666666666667V170.6666666666667H252.3733333333334C243.6266666666667 145.7066666666667 219.9466666666667 128 192 128C156.5866666666667 128 128 156.5866666666667 128 192S156.5866666666667 256 192 256M192 213.3333333333334C180.2666666666667 213.3333333333334 170.6666666666667 203.7333333333334 170.6666666666667 192C170.6666666666667 180.0533333333334 180.2666666666667 170.6666666666667 192 170.6666666666667S213.3333333333333 180.2666666666667 213.3333333333333 192S203.7333333333334 213.3333333333334 192 213.3333333333334z" /></svg>