<?xml version="1.0" encoding="UTF-8"?><!DOCTYPE svg PUBLIC "-//W3C//DTD SVG 1.1//EN" "http://www.w3.org/Graphics/SVG/1.1/DTD/svg11.dtd"><svg xmlns="http://www.w3.org/2000/svg" xmlns:xlink="http://www.w3.org/1999/xlink" version="1.1" width="512" height="512" viewBox="0 0 512 512">    <path fill="#ffffff" transform="scale(1, -1) translate(0, -448)" glyph-name="account-edit" unicode="&#xF6BB;" horiz-adv-x="512" d=" M462.9333333333333 163.2000000000001L441.6 141.8666666666667L397.8666666666666 185.6L419.2 206.9333333333333C423.68 211.4133333333334 431.1466666666666 211.4133333333334 435.6266666666666 206.9333333333333L462.9333333333333 179.6266666666667C467.4133333333333 175.1466666666667 467.4133333333333 167.68 462.9333333333333 163.2000000000001M256 43.9466666666667L385.28 173.2266666666666L429.0133333333333 129.4933333333333L299.9466666666667 0H256V43.9466666666667M256 149.3333333333334C161.7066666666667 149.3333333333334 85.3333333333333 111.1466666666667 85.3333333333333 64V21.3333333333334H213.3333333333333V61.6533333333334L298.6666666666667 146.9866666666667C284.5866666666667 148.6933333333334 270.2933333333333 149.3333333333334 256 149.3333333333334M256 362.6666666666667C208.8533333333333 362.6666666666667 170.6666666666667 324.48 170.6666666666667 277.3333333333334S208.8533333333333 192 256 192S341.3333333333333 230.1866666666667 341.3333333333333 277.3333333333334S303.1466666666667 362.6666666666667 256 362.6666666666667z" /></svg>