<?xml version="1.0" encoding="UTF-8"?><!DOCTYPE svg PUBLIC "-//W3C//DTD SVG 1.1//EN" "http://www.w3.org/Graphics/SVG/1.1/DTD/svg11.dtd"><svg xmlns="http://www.w3.org/2000/svg" xmlns:xlink="http://www.w3.org/1999/xlink" version="1.1" width="512" height="512" viewBox="0 0 512 512">    <path fill="#ffffff" transform="scale(1, -1) translate(0, -448)" glyph-name="pencil-box-outline" unicode="&#xF3ED;" horiz-adv-x="512" d=" M405.3333333333333 42.6666666666667V341.3333333333334H106.6666666666667V42.6666666666667H405.3333333333333M405.3333333333333 384C428.8 384 448 364.8 448 341.3333333333334V42.6666666666667C448 18.9866666666667 428.8 0 405.3333333333333 0H106.6666666666667C83.2 0 64 19.2 64 42.6666666666667V341.3333333333334C64 364.8 83.2 384 106.6666666666667 384H405.3333333333333M356.2666666666667 248.5333333333334L334.9333333333333 227.2L291.2 270.9333333333334L312.5333333333333 292.2666666666667C317.0133333333333 296.96 324.48 296.96 328.9599999999999 292.2666666666667L356.2666666666667 264.9600000000001C360.9599999999999 260.48 360.9599999999999 253.0133333333333 356.2666666666667 248.5333333333334M149.3333333333333 129.28L278.6133333333333 258.5600000000001L322.56 214.6133333333334L193.28 85.3333333333334H149.3333333333333V129.28z" /></svg>