<?xml version="1.0" encoding="UTF-8"?><!DOCTYPE svg PUBLIC "-//W3C//DTD SVG 1.1//EN" "http://www.w3.org/Graphics/SVG/1.1/DTD/svg11.dtd"><svg xmlns="http://www.w3.org/2000/svg" xmlns:xlink="http://www.w3.org/1999/xlink" version="1.1" width="512" height="512" viewBox="0 0 512 512">    <path fill="#ffffff" transform="scale(1, -1) translate(0, -448)" glyph-name="tree" unicode="&#xF531;" horiz-adv-x="512" d=" M234.6666666666667 0V90.88C224.64 87.2533333333333 213.9733333333333 85.3333333333333 202.6666666666667 85.3333333333333C149.3333333333333 85.3333333333334 106.6666666666667 128 106.6666666666667 181.3333333333334C106.6666666666667 208.4266666666667 117.3333333333333 232.7466666666667 135.68 250.24C130.7733333333333 261.76 128 274.56 128 288C128 341.3333333333334 170.6666666666667 384 224 384C257.28 384 286.72 366.9333333333334 304 341.3333333333334H309.3333333333333C374.1866666666666 341.3333333333334 426.6666666666667 288.8533333333334 426.6666666666667 224S374.1866666666666 106.6666666666667 309.3333333333333 106.6666666666667C298.6666666666667 106.6666666666667 288 108.16 277.3333333333333 111.1466666666667V0H234.6666666666667z" /></svg>