<?xml version="1.0" encoding="UTF-8"?><!DOCTYPE svg PUBLIC "-//W3C//DTD SVG 1.1//EN" "http://www.w3.org/Graphics/SVG/1.1/DTD/svg11.dtd"><svg xmlns="http://www.w3.org/2000/svg" xmlns:xlink="http://www.w3.org/1999/xlink" version="1.1" width="512" height="512" viewBox="0 0 512 512">    <path fill="#ffffff" transform="scale(1, -1) translate(0, -448)" glyph-name="sack-percent" unicode="&#xFD0B;" horiz-adv-x="512" d=" M170.6666666666667 298.6666666666667L128 405.3333333333333L213.3333333333333 362.6666666666667L256 405.3333333333333L298.6666666666667 362.6666666666667L384 405.3333333333333L341.3333333333333 298.6666666666667H170.6666666666667M341.3333333333333 -21.3333333333333H170.6666666666667C42.6666666666667 -21.3333333333333 64 64 64 64S85.3333333333333 213.3333333333334 170.6666666666667 256H341.3333333333333C426.6666666666667 213.3333333333334 448 64 448 64S469.3333333333333 -21.3333333333333 341.3333333333333 -21.3333333333333M160 181.3333333333334C160 163.6266666666667 174.2933333333333 149.3333333333334 192 149.3333333333334S224 163.6266666666667 224 181.3333333333334S209.7066666666667 213.3333333333334 192 213.3333333333334S160 199.04 160 181.3333333333334M352 53.3333333333334C352 71.04 337.7066666666667 85.3333333333334 320 85.3333333333334S288 71.04 288 53.3333333333334S302.2933333333333 21.3333333333334 320 21.3333333333334S352 35.6266666666667 352 53.3333333333334M352 184.5333333333334L323.2 213.3333333333334L160 50.1333333333334L189.2266666666666 21.3333333333334L352 184.5333333333334z" /></svg>