<?xml version="1.0" encoding="UTF-8"?><!DOCTYPE svg PUBLIC "-//W3C//DTD SVG 1.1//EN" "http://www.w3.org/Graphics/SVG/1.1/DTD/svg11.dtd"><svg xmlns="http://www.w3.org/2000/svg" xmlns:xlink="http://www.w3.org/1999/xlink" version="1.1" width="512" height="512" viewBox="0 0 512 512">    <path fill="#ffffff" transform="scale(1, -1) translate(0, -448)" glyph-name="do-not-disturb-off" unicode="&#xF698;" horiz-adv-x="512" d=" M362.6666666666667 213.3333333333334V170.6666666666667H331.52L431.36 70.8266666666667C455.2533333333333 105.1733333333334 469.3333333333333 146.9866666666667 469.3333333333333 192C469.3333333333333 309.76 373.76 405.3333333333333 256 405.3333333333333C210.9866666666667 405.3333333333333 169.1733333333333 391.2533333333334 134.8266666666667 367.36L288.8533333333333 213.3333333333334H362.6666666666667M48.4266666666667 399.5733333333333L21.3333333333333 372.48L80.64 313.1733333333334C56.7466666666667 278.8266666666667 42.6666666666667 237.0133333333333 42.6666666666667 192C42.6666666666667 74.24 138.24 -21.3333333333333 256 -21.3333333333333C301.0133333333333 -21.3333333333333 342.8266666666667 -7.2533333333333 377.1733333333333 16.64L436.48 -42.6666666666666L463.5733333333333 -15.5733333333333L48.4266666666667 399.5733333333333M149.3333333333333 170.6666666666667V213.3333333333334H180.48L223.1466666666667 170.6666666666667H149.3333333333333z" /></svg>