<?xml version="1.0" encoding="UTF-8"?><!DOCTYPE svg PUBLIC "-//W3C//DTD SVG 1.1//EN" "http://www.w3.org/Graphics/SVG/1.1/DTD/svg11.dtd"><svg xmlns="http://www.w3.org/2000/svg" xmlns:xlink="http://www.w3.org/1999/xlink" version="1.1" width="512" height="512" viewBox="0 0 512 512">    <path fill="#ffffff" transform="scale(1, -1) translate(0, -448)" glyph-name="shield-link-variant-outline" unicode="&#xFD10;" horiz-adv-x="512" d=" M448 213.3333333333334C448 94.9333333333333 366.08 -15.7866666666667 256 -42.6666666666666C145.92 -15.7866666666666 64 94.9333333333333 64 213.3333333333334V341.3333333333334L256 426.6666666666667L448 341.3333333333334V213.3333333333334M256 0C336 21.3333333333334 405.3333333333333 116.48 405.3333333333333 208.64V313.6L256 380.1600000000001L106.6666666666667 313.6V208.6400000000001C106.6666666666667 116.48 176 21.3333333333334 256 0M304.64 240.4266666666667C317.0133333333333 228.0533333333334 323.84 211.6266666666667 323.84 194.1333333333333C323.84 176.4266666666667 317.0133333333333 160 304.64 147.6266666666667L261.5466666666666 104.5333333333333C248.7466666666667 91.7333333333333 231.8933333333333 85.3333333333334 215.04 85.3333333333334C198.1866666666667 85.3333333333334 181.3333333333333 91.7333333333334 168.5333333333333 104.5333333333333C142.9333333333333 130.1333333333333 142.9333333333333 171.7333333333334 168.5333333333333 197.5466666666666L195.2 224L194.9866666666667 212.0533333333333C194.9866666666667 202.6666666666666 196.48 193.0666666666666 199.68 184.3199999999999L200.5333333333333 181.3333333333333L192.8533333333334 173.44C186.6666666666667 167.4666666666667 183.4666666666667 160 183.4666666666667 151.04C183.4666666666667 142.7199999999999 186.6666666666667 134.8266666666666 192.64 128.8533333333333C204.8 116.6933333333333 225.4933333333334 116.6933333333333 237.44 128.6399999999999L280.32 171.7333333333332C286.5066666666667 177.7066666666666 289.7066666666667 185.5999999999999 289.7066666666667 193.9199999999999C289.7066666666667 202.6666666666666 286.5066666666667 210.3466666666666 280.32 216.3199999999999C277.3333333333333 219.52 275.2 224 275.2 228.48C275.2 232.96 277.3333333333333 237.44 280.32 240.64C286.9333333333334 247.04 298.6666666666667 247.04 304.64 240.4266666666666M384 254.2933333333334C384 236.8 377.1733333333333 220.16 364.8 207.7866666666667L338.1333333333334 181.3333333333334L338.3466666666667 193.28C338.3466666666667 202.6666666666667 336.8533333333334 212.0533333333334 333.6533333333333 221.0133333333334L332.5866666666667 224.0000000000001L340.48 231.8933333333334C346.6666666666667 237.8666666666667 349.8666666666666 245.3333333333334 349.8666666666666 254.2933333333334C349.8666666666666 262.6133333333334 346.6666666666667 270.5066666666667 340.48 276.48C328.5333333333333 288.6400000000001 307.84 288.6400000000001 295.8933333333333 276.6933333333334L253.0133333333333 233.6C246.8266666666667 227.6266666666667 243.6266666666667 219.7333333333334 243.6266666666667 211.2S246.8266666666667 194.9866666666667 252.8 189.0133333333333C256 185.8133333333333 258.1333333333334 181.3333333333334 258.1333333333334 176.8533333333334C258.1333333333334 172.16 256 167.8933333333333 252.8 164.6933333333333C249.6 161.4933333333334 245.3333333333333 160 240.8533333333333 160C236.5866666666667 160 232.1066666666667 161.4933333333334 228.6933333333333 164.6933333333333C202.6666666666666 190.5066666666667 202.6666666666666 232.1066666666667 228.6933333333333 257.7066666666667L271.7866666666667 300.8C297.6 326.4 339.2 326.4 364.8 300.8C377.1733333333333 288 383.9999999999999 271.7866666666667 383.9999999999999 254.2933333333333z" /></svg>