<?xml version="1.0" encoding="UTF-8"?><!DOCTYPE svg PUBLIC "-//W3C//DTD SVG 1.1//EN" "http://www.w3.org/Graphics/SVG/1.1/DTD/svg11.dtd"><svg xmlns="http://www.w3.org/2000/svg" xmlns:xlink="http://www.w3.org/1999/xlink" version="1.1" width="512" height="512" viewBox="0 0 512 512">    <path fill="#ffffff" transform="scale(1, -1) translate(0, -448)" glyph-name="raspberry-pi" unicode="&#xF43F;" horiz-adv-x="512" d=" M426.6666666666667 277.3333333333334H469.3333333333333V234.6666666666667H426.6666666666667V277.3333333333334M85.3333333333333 341.3333333333334H426.6666666666667C450.1333333333334 341.3333333333334 469.3333333333333 322.1333333333334 469.3333333333333 298.6666666666667H405.3333333333333V256H106.6666666666667V170.6666666666667H170.6666666666667V106.6666666666667H405.3333333333333V85.3333333333334H469.3333333333333C469.3333333333333 61.8666666666667 450.1333333333334 42.6666666666667 426.6666666666667 42.6666666666667H341.3333333333333V21.3333333333334H298.6666666666667V42.6666666666667H234.6666666666667V21.3333333333334H149.3333333333333V42.6666666666667H85.3333333333333C61.8666666666667 42.6666666666667 42.6666666666667 61.8666666666667 42.6666666666667 85.3333333333334V298.6666666666667C42.6666666666667 322.1333333333334 61.8666666666667 341.3333333333334 85.3333333333333 341.3333333333334M405.3333333333333 128H192V234.6666666666667H405.3333333333333V213.3333333333334H469.3333333333333V170.6666666666667H405.3333333333333V128M277.3333333333333 192V149.3333333333334H320V192H277.3333333333333M106.6666666666667 320V277.3333333333334H128V320H106.6666666666667M149.3333333333333 320V277.3333333333334H170.6666666666667V320H149.3333333333333M192 320V277.3333333333334H213.3333333333333V320H192M234.6666666666667 320V277.3333333333334H256V320H234.6666666666667M277.3333333333333 320V277.3333333333334H298.6666666666667V320H277.3333333333333M320 320V277.3333333333334H341.3333333333333V320H320M426.6666666666667 149.3333333333334H469.3333333333333V106.6666666666667H426.6666666666667V149.3333333333334z" /></svg>