<?xml version="1.0" encoding="UTF-8"?><!DOCTYPE svg PUBLIC "-//W3C//DTD SVG 1.1//EN" "http://www.w3.org/Graphics/SVG/1.1/DTD/svg11.dtd"><svg xmlns="http://www.w3.org/2000/svg" xmlns:xlink="http://www.w3.org/1999/xlink" version="1.1" width="512" height="512" viewBox="0 0 512 512">    <path fill="#ffffff" transform="scale(1, -1) translate(0, -448)" glyph-name="carry-on-bag-check" unicode="&#xFD41;" horiz-adv-x="512" d=" M325.9733333333333 91.9466666666667L386.9866666666667 151.8933333333333L401.92 136.96L325.9733333333333 61.0133333333333L280.96 106.6666666666667L296.1066666666667 122.0266666666667L325.9733333333333 91.9466666666667M170.6666666666667 0C147.2 0 128 19.2 128 42.6666666666667V256C128 279.4666666666667 147.2 298.6666666666667 170.6666666666667 298.6666666666667V0M192 298.6666666666667H298.6666666666667V362.6666666666667C275.2 362.6666666666667 256 381.8666666666667 256 405.3333333333333H341.3333333333333V234.6666666666667C411.9466666666666 234.6666666666667 469.3333333333333 177.28 469.3333333333333 106.6666666666667S411.9466666666666 -21.3333333333333 341.3333333333333 -21.3333333333333C315.0933333333333 -21.3333333333333 290.7733333333333 -13.4399999999999 270.5066666666667 0H192V298.6666666666667M341.3333333333333 192C294.1866666666666 192 256 153.8133333333334 256 106.6666666666667S294.1866666666666 21.3333333333334 341.3333333333333 21.3333333333334S426.6666666666667 59.52 426.6666666666667 106.6666666666667S388.48 192 341.3333333333333 192z" /></svg>