<?xml version="1.0" encoding="UTF-8"?><!DOCTYPE svg PUBLIC "-//W3C//DTD SVG 1.1//EN" "http://www.w3.org/Graphics/SVG/1.1/DTD/svg11.dtd"><svg xmlns="http://www.w3.org/2000/svg" xmlns:xlink="http://www.w3.org/1999/xlink" version="1.1" width="512" height="512" viewBox="0 0 512 512">    <path fill="#ffffff" transform="scale(1, -1) translate(0, -448)" glyph-name="periscope" unicode="&#xF747;" horiz-adv-x="512" d=" M256 298.6666666666667C256 275.2000000000001 236.8 256 213.3333333333333 256S170.6666666666667 275.2000000000001 170.6666666666667 298.6666666666667C157.2266666666667 280.7466666666667 149.3333333333333 258.7733333333333 149.3333333333333 234.6666666666667C149.3333333333333 175.7866666666667 197.12 128 256 128S362.6666666666667 175.7866666666667 362.6666666666667 234.6666666666667S314.88 341.3333333333334 256 341.3333333333334C246.8266666666667 341.3333333333334 238.08 340.2666666666667 229.76 338.1333333333334C245.3333333333333 331.7333333333334 256 316.3733333333334 256 298.6666666666667M256 405.3333333333333C350.2933333333334 405.3333333333333 426.6666666666667 328.9600000000001 426.6666666666667 234.6666666666667C426.6666666666667 212.2666666666667 422.4 191.1466666666667 414.5066666666667 171.52C381.6533333333333 77.2266666666667 290.7733333333333 -21.3333333333333 256 -21.3333333333333S130.3466666666667 77.2266666666667 97.4933333333333 171.52C89.6 191.1466666666667 85.3333333333333 212.2666666666667 85.3333333333333 234.6666666666667C85.3333333333333 328.9600000000001 161.7066666666667 405.3333333333333 256 405.3333333333333z" /></svg>