<?xml version="1.0" encoding="UTF-8"?><!DOCTYPE svg PUBLIC "-//W3C//DTD SVG 1.1//EN" "http://www.w3.org/Graphics/SVG/1.1/DTD/svg11.dtd"><svg xmlns="http://www.w3.org/2000/svg" xmlns:xlink="http://www.w3.org/1999/xlink" version="1.1" width="512" height="512" viewBox="0 0 512 512">    <path fill="#ffffff" transform="scale(1, -1) translate(0, -448)" glyph-name="gesture-swipe-left" unicode="&#xF73D;" horiz-adv-x="512" d=" M213.3333333333333 256C213.3333333333333 267.7333333333334 222.9333333333333 277.3333333333334 234.6666666666667 277.3333333333334S256 267.7333333333334 256 256V160.6400000000001L281.8133333333334 157.8666666666667L387.2000000000001 111.1466666666667C398.5066666666667 106.0266666666668 405.3333333333334 94.72 405.3333333333334 82.3466666666667V-10.6666666666666C404.6933333333334 -28.16 390.8266666666667 -42.0266666666666 373.3333333333334 -42.6666666666666H234.6666666666667C226.56 -42.6666666666666 218.88 -39.4666666666667 213.3333333333333 -33.4933333333333L108.8 56.1066666666667L124.5866666666667 72.5333333333333C128.64 77.0133333333333 134.4 79.36 140.3733333333333 79.36H145.0666666666667L213.3333333333333 42.6666666666667V256M64 362.6666666666667L128 298.6666666666667V341.3333333333334H256V384H128V426.6666666666667L64 362.6666666666667z" /></svg>