<?xml version="1.0" encoding="UTF-8"?><!DOCTYPE svg PUBLIC "-//W3C//DTD SVG 1.1//EN" "http://www.w3.org/Graphics/SVG/1.1/DTD/svg11.dtd"><svg xmlns="http://www.w3.org/2000/svg" xmlns:xlink="http://www.w3.org/1999/xlink" version="1.1" width="512" height="512" viewBox="0 0 512 512">    <path fill="#ffffff" transform="scale(1, -1) translate(0, -448)" glyph-name="evernote" unicode="&#xF204;" horiz-adv-x="512" d=" M321.92 199.8933333333333S325.9733333333333 227.2 341.3333333333333 227.2C357.5466666666667 227.2 379.3066666666667 190.72 379.3066666666667 190.72S329.8133333333334 199.8933333333333 321.92 199.8933333333333M405.3333333333333 347.9466666666667C397.6533333333333 360.7466666666667 359.04 375.2533333333334 338.9866666666667 375.2533333333334H288S270.9333333333333 405.3333333333333 232.1066666666667 405.3333333333333C193.0666666666667 405.3333333333333 195.6266666666667 388.0533333333334 195.6266666666667 373.3333333333334V313.1733333333334L177.92 294.6133333333334H96S73.3866666666667 279.2533333333334 73.3866666666667 246.6133333333333C73.3866666666667 213.3333333333333 83.6266666666667 99.2 152.1066666666667 88.5333333333333C233.1733333333333 76.16 247.04 113.7066666666667 247.04 118.1866666666667C247.04 137.3866666666667 247.4666666666667 166.1866666666667 247.4666666666667 166.1866666666667S271.1466666666667 120.96 306.9866666666667 120.96S363.52 100.2666666666667 363.52 79.1466666666667V39.8933333333333S362.6666666666667 15.36 341.3333333333333 15.36H296.32S281.6 26.88 281.6 42.6666666666667C281.6 58.6666666666667 288.64 62.9333333333333 297.1733333333334 62.9333333333333C305.4933333333334 62.9333333333333 312.5333333333334 62.08 312.5333333333334 62.08V95.36S244.6933333333334 96 244.6933333333334 43.9466666666667C244.6933333333334 -7.8933333333333 280.1066666666667 -21.3333333333333 308.48 -21.3333333333333H354.7733333333334S438.6133333333334 -10.6666666666666 438.6133333333334 154.6666666666667S412.3733333333333 335.36 405.3333333333333 347.9466666666667M160 313.3866666666667H90.88L177.4933333333334 400.64V330.6666666666667L160 313.3866666666667z" /></svg>