<?xml version="1.0" encoding="UTF-8"?><!DOCTYPE svg PUBLIC "-//W3C//DTD SVG 1.1//EN" "http://www.w3.org/Graphics/SVG/1.1/DTD/svg11.dtd"><svg xmlns="http://www.w3.org/2000/svg" xmlns:xlink="http://www.w3.org/1999/xlink" version="1.1" width="512" height="512" viewBox="0 0 512 512">    <path fill="#ffffff" transform="scale(1, -1) translate(0, -448)" glyph-name="weather-fog" unicode="&#xF591;" horiz-adv-x="512" d=" M64 128H277.3333333333333C289.0666666666667 128 298.6666666666667 118.4 298.6666666666667 106.6666666666667S289.0666666666667 85.3333333333334 277.3333333333333 85.3333333333334H64C52.2666666666667 85.3333333333334 42.6666666666667 94.9333333333333 42.6666666666667 106.6666666666667S52.2666666666667 128 64 128M341.3333333333333 128H448C459.7333333333333 128 469.3333333333333 118.4 469.3333333333333 106.6666666666667S459.7333333333333 85.3333333333334 448 85.3333333333334H341.3333333333333C329.6 85.3333333333334 320 94.9333333333333 320 106.6666666666667S329.6 128 341.3333333333333 128M21.3333333333333 192C21.3333333333333 250.88 69.12 298.6666666666667 128 298.6666666666667C149.3333333333333 348.8 198.4 384 256 384C329.1733333333333 384 389.12 327.2533333333334 394.6666666666667 255.36L405.3333333333333 256C452.0533333333333 256 490.0266666666666 218.4533333333334 490.6666666666666 170.6666666666667H448C448 194.1333333333333 428.8 213.3333333333334 405.3333333333333 213.3333333333334H362.6666666666667V234.6666666666667C362.6666666666667 293.5466666666667 314.88 341.3333333333334 256 341.3333333333334C202.6666666666667 341.3333333333334 158.9333333333333 302.5066666666667 150.6133333333333 251.9466666666667C143.5733333333333 254.5066666666667 135.8933333333333 256 128 256C92.5866666666667 256 64 227.4133333333334 64 192C64 184.5333333333334 65.28 177.28 67.6266666666667 170.6666666666667H23.4666666666667L21.3333333333333 192M64 42.6666666666667H106.6666666666667C118.4 42.6666666666667 128 33.0666666666667 128 21.3333333333334S118.4 0 106.6666666666667 0H64C52.2666666666667 0 42.6666666666667 9.6 42.6666666666667 21.3333333333334S52.2666666666667 42.6666666666667 64 42.6666666666667M170.6666666666667 42.6666666666667H448C459.7333333333333 42.6666666666667 469.3333333333333 33.0666666666667 469.3333333333333 21.3333333333334S459.7333333333333 0 448 0H170.6666666666667C158.9333333333333 0 149.3333333333333 9.6 149.3333333333333 21.3333333333334S158.9333333333333 42.6666666666667 170.6666666666667 42.6666666666667z" /></svg>