<?xml version="1.0" encoding="UTF-8"?><!DOCTYPE svg PUBLIC "-//W3C//DTD SVG 1.1//EN" "http://www.w3.org/Graphics/SVG/1.1/DTD/svg11.dtd"><svg xmlns="http://www.w3.org/2000/svg" xmlns:xlink="http://www.w3.org/1999/xlink" version="1.1" width="512" height="512" viewBox="0 0 512 512">    <path fill="#ffffff" transform="scale(1, -1) translate(0, -448)" glyph-name="camera-gopro" unicode="&#xF7A0;" horiz-adv-x="512" d=" M426.6666666666667 341.3333333333334H320C296.5333333333333 341.3333333333334 277.3333333333333 322.1333333333334 277.3333333333333 298.6666666666667V192C277.3333333333333 168.5333333333334 296.5333333333333 149.3333333333334 320 149.3333333333334H426.6666666666667C450.1333333333334 149.3333333333334 469.3333333333333 168.5333333333334 469.3333333333333 192V298.6666666666667C469.3333333333333 322.1333333333334 450.1333333333334 341.3333333333334 426.6666666666667 341.3333333333334M373.3333333333333 181.3333333333334C337.92 181.3333333333334 309.3333333333333 209.92 309.3333333333333 245.3333333333334S337.92 309.3333333333334 373.3333333333333 309.3333333333334S437.3333333333333 280.7466666666667 437.3333333333333 245.3333333333334S408.7466666666667 181.3333333333334 373.3333333333333 181.3333333333334M373.3333333333333 213.3333333333334C355.6266666666667 213.3333333333334 341.3333333333333 227.6266666666667 341.3333333333333 245.3333333333334S355.6266666666667 277.3333333333334 373.3333333333333 277.3333333333334S405.3333333333333 263.04 405.3333333333333 245.3333333333334S391.04 213.3333333333334 373.3333333333333 213.3333333333334M256 128V341.3333333333334H85.3333333333333C61.8666666666667 341.3333333333334 42.6666666666667 322.1333333333334 42.6666666666667 298.6666666666667V85.3333333333334C42.6666666666667 61.8666666666667 61.8666666666667 42.6666666666667 85.3333333333333 42.6666666666667H426.6666666666667C450.1333333333334 42.6666666666667 469.3333333333333 61.8666666666667 469.3333333333333 85.3333333333334V128H256M213.3333333333333 192H85.3333333333333V298.6666666666667H213.3333333333333V192z" /></svg>