<?xml version="1.0" encoding="UTF-8"?><!DOCTYPE svg PUBLIC "-//W3C//DTD SVG 1.1//EN" "http://www.w3.org/Graphics/SVG/1.1/DTD/svg11.dtd"><svg xmlns="http://www.w3.org/2000/svg" xmlns:xlink="http://www.w3.org/1999/xlink" version="1.1" width="512" height="512" viewBox="0 0 512 512">    <path fill="#ffffff" transform="scale(1, -1) translate(0, -448)" glyph-name="email-lock" unicode="&#xF1F1;" horiz-adv-x="512" d=" M437.3333333333333 448C466.7733333333333 448 490.6666666666666 424.1066666666667 490.6666666666666 394.6666666666667V384C502.4 384 512 374.4 512 362.6666666666667V277.3333333333334C512 265.6 502.4 256 490.6666666666666 256H384C372.2666666666667 256 362.6666666666667 265.6 362.6666666666667 277.3333333333334V362.6666666666667C362.6666666666667 374.4 372.2666666666667 384 384 384V394.6666666666667C384 424.1066666666667 407.8933333333333 448 437.3333333333333 448M256 213.3333333333334L85.3333333333333 320V277.3333333333334L256 170.6666666666667L345.1733333333333 226.3466666666667C356.0533333333334 218.24 369.4933333333334 213.3333333333334 384 213.3333333333334H469.3333333333333V64C469.3333333333333 40.5333333333333 450.1333333333334 21.3333333333334 426.6666666666667 21.3333333333334H85.3333333333333C61.8666666666667 21.3333333333334 42.6666666666667 40.5333333333333 42.6666666666667 64V320C42.6666666666667 343.4666666666667 61.8666666666667 362.6666666666667 85.3333333333333 362.6666666666667H320V277.3333333333334C320 269.6533333333334 321.28 262.4000000000001 323.84 256L256 213.3333333333334M437.3333333333333 426.6666666666667C419.6266666666667 426.6666666666667 405.3333333333333 412.3733333333334 405.3333333333333 394.6666666666667V384H469.3333333333333V394.6666666666667C469.3333333333333 412.3733333333334 455.04 426.6666666666667 437.3333333333333 426.6666666666667z" /></svg>