<?xml version="1.0" encoding="UTF-8"?><!DOCTYPE svg PUBLIC "-//W3C//DTD SVG 1.1//EN" "http://www.w3.org/Graphics/SVG/1.1/DTD/svg11.dtd"><svg xmlns="http://www.w3.org/2000/svg" xmlns:xlink="http://www.w3.org/1999/xlink" version="1.1" width="512" height="512" viewBox="0 0 512 512">    <path fill="#ffffff" transform="scale(1, -1) translate(0, -448)" glyph-name="iframe" unicode="&#xFC67;" horiz-adv-x="512" d=" M448 405.3333333333333H64C40.5333333333333 405.3333333333333 21.3333333333333 386.1333333333334 21.3333333333333 362.6666666666667V21.3333333333334C21.3333333333333 -2.1333333333333 40.5333333333333 -21.3333333333333 64 -21.3333333333333H448C471.4666666666667 -21.3333333333333 490.6666666666666 -2.1333333333333 490.6666666666666 21.3333333333334V362.6666666666667C490.6666666666666 386.1333333333334 471.4666666666667 405.3333333333333 448 405.3333333333333M234.6666666666667 74.6666666666667L202.6666666666667 42.6666666666667L106.6666666666667 138.6666666666667L202.6666666666667 234.6666666666667L234.6666666666667 202.6666666666667L170.6666666666667 138.6666666666667L234.6666666666667 74.6666666666667M309.3333333333333 42.6666666666667L277.3333333333333 74.6666666666667L341.3333333333333 138.6666666666667L277.3333333333333 202.6666666666667L309.3333333333333 234.6666666666667L405.3333333333333 138.6666666666667L309.3333333333333 42.6666666666667M448 298.6666666666667H64V362.6666666666667H448V298.6666666666667z" /></svg>