<?xml version="1.0" encoding="UTF-8"?><!DOCTYPE svg PUBLIC "-//W3C//DTD SVG 1.1//EN" "http://www.w3.org/Graphics/SVG/1.1/DTD/svg11.dtd"><svg xmlns="http://www.w3.org/2000/svg" xmlns:xlink="http://www.w3.org/1999/xlink" version="1.1" width="512" height="512" viewBox="0 0 512 512">    <path fill="#ffffff" transform="scale(1, -1) translate(0, -448)" glyph-name="seat-legroom-extra" unicode="&#xF47E;" horiz-adv-x="512" d=" M85.3333333333333 192V384H42.6666666666667V192C42.6666666666667 133.12 90.4533333333333 85.3333333333334 149.3333333333333 85.3333333333334H277.3333333333333V128H149.3333333333333C113.92 128 85.3333333333333 156.5866666666667 85.3333333333333 192M487.04 80.2133333333333C478.9333333333333 95.9999999999999 459.52 100.9066666666666 443.7333333333333 93.6533333333333L420.4799999999999 82.9866666666666L347.7333333333333 231.8933333333333C340.48 246.4000000000001 325.76 256 309.3333333333333 256H234.6666666666667V384H106.6666666666667V213.3333333333334C106.6666666666667 177.92 135.2533333333333 149.3333333333334 170.6666666666667 149.3333333333334H320L392.7466666666667 0L472.1066666666666 36.2666666666667C488.5333333333333 43.9466666666667 495.5733333333333 64 487.04 80.2133333333333z" /></svg>