<?xml version="1.0" encoding="UTF-8"?><!DOCTYPE svg PUBLIC "-//W3C//DTD SVG 1.1//EN" "http://www.w3.org/Graphics/SVG/1.1/DTD/svg11.dtd"><svg xmlns="http://www.w3.org/2000/svg" xmlns:xlink="http://www.w3.org/1999/xlink" version="1.1" width="512" height="512" viewBox="0 0 512 512">    <path fill="#ffffff" transform="scale(1, -1) translate(0, -448)" glyph-name="source-merge" unicode="&#xF62D;" horiz-adv-x="512" d=" M149.3333333333333 384C184.7466666666667 384 213.3333333333333 355.4133333333334 213.3333333333333 320C213.3333333333333 292.48 196.0533333333333 269.0133333333333 171.52 260.0533333333334C183.04 153.3866666666667 279.04 132.9066666666667 324.0533333333333 128.8533333333334C333.0133333333333 153.3866666666667 356.48 170.6666666666667 384 170.6666666666667C419.4133333333333 170.6666666666667 448 142.0800000000001 448 106.6666666666667S419.4133333333333 42.6666666666667 384 42.6666666666667C356.0533333333334 42.6666666666667 332.16 60.5866666666667 323.4133333333333 85.3333333333334C232.7466666666667 89.6 201.3866666666667 123.9466666666667 170.6666666666667 162.3466666666667V124.3733333333333C195.6266666666667 115.6266666666667 213.3333333333333 91.9466666666667 213.3333333333333 64C213.3333333333333 28.5866666666667 184.7466666666667 0 149.3333333333333 0S85.3333333333333 28.5866666666667 85.3333333333333 64C85.3333333333333 91.9466666666667 103.04 115.6266666666667 128 124.3733333333333V259.6266666666667C103.04 268.3733333333334 85.3333333333333 292.0533333333334 85.3333333333333 320C85.3333333333333 355.4133333333334 113.92 384 149.3333333333333 384M149.3333333333333 341.3333333333334C137.6 341.3333333333334 128 331.7333333333334 128 320S137.6 298.6666666666667 149.3333333333333 298.6666666666667S170.6666666666667 308.2666666666667 170.6666666666667 320S161.0666666666667 341.3333333333334 149.3333333333333 341.3333333333334M149.3333333333333 85.3333333333334C137.6 85.3333333333334 128 75.7333333333334 128 64S137.6 42.6666666666667 149.3333333333333 42.6666666666667S170.6666666666667 52.2666666666667 170.6666666666667 64S161.0666666666667 85.3333333333334 149.3333333333333 85.3333333333334M384 128C372.2666666666667 128 362.6666666666667 118.4 362.6666666666667 106.6666666666667S372.2666666666667 85.3333333333334 384 85.3333333333334S405.3333333333333 94.9333333333333 405.3333333333333 106.6666666666667S395.7333333333334 128 384 128z" /></svg>