<?xml version="1.0" encoding="UTF-8"?><!DOCTYPE svg PUBLIC "-//W3C//DTD SVG 1.1//EN" "http://www.w3.org/Graphics/SVG/1.1/DTD/svg11.dtd"><svg xmlns="http://www.w3.org/2000/svg" xmlns:xlink="http://www.w3.org/1999/xlink" version="1.1" width="512" height="512" viewBox="0 0 512 512">    <path fill="#ffffff" transform="scale(1, -1) translate(0, -448)" glyph-name="itunes" unicode="&#xF676;" horiz-adv-x="512" d=" M167.4666666666667 83.84C149.9733333333333 81.7066666666667 74.6666666666667 71.04 86.6133333333333 15.7866666666666C100.0533333333333 -49.0666666666667 210.56 -33.9200000000001 209.7066666666666 42.6666666666667C209.28 94.5066666666667 209.7066666666666 251.7333333333334 209.7066666666666 251.7333333333334S208.2133333333333 266.0266666666667 222.5066666666666 269.0133333333334L388.0533333333333 303.1466666666667S401.7066666666666 306.1333333333334 401.7066666666666 292.48V145.0666666666667S403.2 131.6266666666667 386.56 128C369.9199999999999 125.4400000000001 296.7466666666666 119.4666666666667 302.7199999999999 64C309.3333333333333 -1.4933333333333 426.6666666666666 7.4666666666667 426.6666666666666 83.84V392.32S427.5199999999999 413.44 403.1999999999999 408.1066666666667L202.6666666666667 367.36S184.7466666666667 363.52 184.7466666666667 346.24V104.3200000000001S184.7466666666667 86.1866666666667 167.4666666666667 83.84z" /></svg>