<?xml version="1.0" encoding="UTF-8"?><!DOCTYPE svg PUBLIC "-//W3C//DTD SVG 1.1//EN" "http://www.w3.org/Graphics/SVG/1.1/DTD/svg11.dtd"><svg xmlns="http://www.w3.org/2000/svg" xmlns:xlink="http://www.w3.org/1999/xlink" version="1.1" width="512" height="512" viewBox="0 0 512 512">    <path fill="#ffffff" transform="scale(1, -1) translate(0, -448)" glyph-name="heart-multiple-outline" unicode="&#xFA56;" horiz-adv-x="512" d=" M256 -2.1333333333333L224 -29.8666666666667C83.2 96 10.6666666666667 162.1333333333333 10.6666666666667 243.2C10.6666666666667 268.8 19.2 292.2666666666667 32 311.4666666666667V298.6666666666667C32 198.4 115.2 123.7333333333334 256 -2.1333333333333M290.1333333333334 85.3333333333334C390.4 177.0666666666667 458.6666666666666 236.8 460.8 298.6666666666667C460.8 341.3333333333334 428.8 373.3333333333334 386.1333333333334 373.3333333333334C352 373.3333333333334 320 352 309.3333333333334 322.1333333333334H268.8C256 352 224 373.3333333333334 192 373.3333333333334C149.3333333333333 373.3333333333334 117.3333333333333 341.3333333333334 117.3333333333333 298.6666666666667C117.3333333333333 236.8 183.4666666666667 177.0666666666667 285.8666666666667 85.3333333333334L288 83.2M384 416C450.1333333333334 416 501.3333333333333 364.8 501.3333333333333 298.6666666666667C501.3333333333333 219.7333333333334 428.8 153.6 288 25.6C147.2 151.4666666666667 74.6666666666667 217.6 74.6666666666667 298.6666666666667C74.6666666666667 364.8 125.8666666666667 416 192 416C228.2666666666667 416 264.5333333333333 398.9333333333334 288 371.2C311.4666666666667 398.9333333333334 347.7333333333334 416 384 416z" /></svg>