<?xml version="1.0" encoding="UTF-8"?><!DOCTYPE svg PUBLIC "-//W3C//DTD SVG 1.1//EN" "http://www.w3.org/Graphics/SVG/1.1/DTD/svg11.dtd"><svg xmlns="http://www.w3.org/2000/svg" xmlns:xlink="http://www.w3.org/1999/xlink" version="1.1" width="512" height="512" viewBox="0 0 512 512">    <path fill="#ffffff" transform="scale(1, -1) translate(0, -448)" glyph-name="wifi-strength-alert-outline" unicode="&#xF92A;" horiz-adv-x="512" d=" M256 384C166.1866666666667 384 78.9333333333333 353.92 8.1066666666667 298.6666666666667H7.68C90.4533333333333 195.6266666666667 173.44 92.5866666666667 256 -10.6666666666666C305.92 51.4133333333334 355.6266666666667 113.4933333333334 405.3333333333333 175.36V243.4133333333334L256 57.6L69.76 289.28C125.8666666666667 323.2000000000001 190.2933333333333 341.3333333333334 256 341.3333333333334C321.4933333333334 341.3333333333334 385.92 322.9866666666667 441.8133333333334 289.0666666666667L432.4266666666666 277.3333333333334H487.2533333333333C493.0133333333333 284.3733333333334 498.56 291.6266666666667 504.32 298.6666666666667H504.5333333333334C433.4933333333334 353.92 346.0266666666667 384 256 384M448 234.6666666666667V64H490.6666666666666V234.6666666666667M448 21.3333333333334V-21.3333333333333H490.6666666666666V21.3333333333334" /></svg>