<?xml version="1.0" encoding="UTF-8"?><!DOCTYPE svg PUBLIC "-//W3C//DTD SVG 1.1//EN" "http://www.w3.org/Graphics/SVG/1.1/DTD/svg11.dtd"><svg xmlns="http://www.w3.org/2000/svg" xmlns:xlink="http://www.w3.org/1999/xlink" version="1.1" width="512" height="512" viewBox="0 0 512 512">    <path fill="#ffffff" transform="scale(1, -1) translate(0, -448)" glyph-name="eyedropper" unicode="&#xF20A;" horiz-adv-x="512" d=" M412.8 197.9733333333333L367.36 152.5333333333333L337.2800000000001 182.8266666666667L172.8 18.3466666666667L74.6666666666667 -21.3333333333333L42.6666666666667 10.6666666666667L82.3466666666667 108.8L246.8266666666667 273.28L216.5333333333333 303.36L261.9733333333334 348.8L412.8 197.9733333333333M357.5466666666667 384C382.5066666666667 408.96 423.04 408.96 448 384C472.96 359.04 472.96 318.5066666666667 448 293.5466666666667L407.04 252.5866666666667L316.5866666666666 343.04L357.5466666666667 384M118.6133333333333 84.6933333333333L96 32L148.6933333333333 54.6133333333333L307.2 213.3333333333334L277.3333333333333 243.2L118.6133333333333 84.6933333333333z" /></svg>