<?xml version="1.0" encoding="UTF-8"?><!DOCTYPE svg PUBLIC "-//W3C//DTD SVG 1.1//EN" "http://www.w3.org/Graphics/SVG/1.1/DTD/svg11.dtd"><svg xmlns="http://www.w3.org/2000/svg" xmlns:xlink="http://www.w3.org/1999/xlink" version="1.1" width="512" height="512" viewBox="0 0 512 512">    <path fill="#ffffff" transform="scale(1, -1) translate(0, -448)" glyph-name="folder-search-outline" unicode="&#xF968;" horiz-adv-x="512" d=" M352 192C405.3333333333333 192 448 149.3333333333334 448 96C448 77.2266666666667 442.6666666666667 59.52 433.28 44.8000000000001L498.9866666666667 -21.3333333333333L469.3333333333333 -50.9866666666667L402.7733333333333 14.5066666666667C388.0533333333333 5.3333333333334 370.56 0 352 0C298.6666666666667 0 256 42.6666666666667 256 96S298.6666666666667 192 352 192M352 149.3333333333334C322.56 149.3333333333334 298.6666666666667 125.44 298.6666666666667 96S322.56 42.6666666666667 352 42.6666666666667S405.3333333333333 66.5600000000001 405.3333333333333 96S381.44 149.3333333333334 352 149.3333333333334M405.3333333333333 277.3333333333334H64V64H216.96C220.5866666666667 48.64 226.7733333333334 34.3466666666667 234.6666666666667 21.3333333333334H64C40.32 21.3333333333334 21.3333333333333 40.5333333333333 21.3333333333333 64V320C21.3333333333333 343.68 40.32 362.6666666666667 64 362.6666666666667H192L234.6666666666667 320H405.3333333333333C428.8 320 448 300.8 448 277.3333333333334V196.0533333333334C435.6266666666667 207.7866666666667 421.3333333333333 217.3866666666667 405.3333333333333 224V277.3333333333334z" /></svg>