<?xml version="1.0" encoding="UTF-8"?><!DOCTYPE svg PUBLIC "-//W3C//DTD SVG 1.1//EN" "http://www.w3.org/Graphics/SVG/1.1/DTD/svg11.dtd"><svg xmlns="http://www.w3.org/2000/svg" xmlns:xlink="http://www.w3.org/1999/xlink" version="1.1" width="512" height="512" viewBox="0 0 512 512">    <path fill="#ffffff" transform="scale(1, -1) translate(0, -448)" glyph-name="smoking-off" unicode="&#xF4B5;" horiz-adv-x="512" d=" M42.6666666666667 320L192 170.6666666666667H42.6666666666667V106.6666666666667H256L405.3333333333333 -42.6666666666666L432 -16L69.3333333333333 346.6666666666667L42.6666666666667 320M437.3333333333333 170.6666666666667H469.3333333333333V106.6666666666667H437.3333333333333V170.6666666666667M384 170.6666666666667H416V106.6666666666667H384V170.6666666666667M402.1333333333334 343.8933333333333C415.36 356.9066666666667 423.4666666666667 374.8266666666667 423.4666666666667 394.6666666666667H391.4666666666667C391.4666666666667 373.3333333333333 373.3333333333333 355.2 352 355.2V323.2C399.7866666666667 323.2 437.3333333333333 284.16 437.3333333333333 236.3733333333333V192H469.3333333333333V236.3733333333334C469.3333333333333 283.9466666666667 442.0266666666667 324.9066666666667 402.1333333333334 343.8933333333333M309.3333333333333 262.4000000000001H341.9733333333334C364.3733333333334 262.4000000000001 384 246.6133333333334 384 218.6666666666667V192H416V225.92C416 264.3200000000001 381.8666666666666 293.3333333333334 341.9733333333334 293.3333333333334H309.3333333333333C288 293.3333333333334 269.8666666666667 314.24 269.8666666666667 336S288 373.3333333333334 309.3333333333333 373.3333333333334V405.3333333333333C269.8666666666667 405.3333333333333 237.8666666666667 373.3333333333334 237.8666666666667 333.8666666666667S269.8666666666667 262.4000000000001 309.3333333333333 262.4000000000001M362.6666666666667 108.16V170.6666666666667H300.16L362.6666666666667 108.16z" /></svg>