<?xml version="1.0" encoding="UTF-8"?><!DOCTYPE svg PUBLIC "-//W3C//DTD SVG 1.1//EN" "http://www.w3.org/Graphics/SVG/1.1/DTD/svg11.dtd"><svg xmlns="http://www.w3.org/2000/svg" xmlns:xlink="http://www.w3.org/1999/xlink" version="1.1" width="512" height="512" viewBox="0 0 512 512">    <path fill="#ffffff" transform="scale(1, -1) translate(0, -448)" glyph-name="history" unicode="&#xF2DA;" horiz-adv-x="512" d=" M288 277.3333333333334H256V170.6666666666667L347.3066666666667 116.48L362.6666666666667 142.2933333333334L288 186.6666666666668V277.3333333333334M277.3333333333333 384C171.3066666666667 384 85.3333333333333 298.0266666666667 85.3333333333333 192H21.3333333333333L105.8133333333333 106.0266666666666L192 192H128C128 274.5600000000001 194.7733333333333 341.3333333333334 277.3333333333333 341.3333333333334S426.6666666666667 274.5600000000001 426.6666666666667 192S359.8933333333333 42.6666666666667 277.3333333333333 42.6666666666667C236.16 42.6666666666667 198.8266666666667 59.52 171.9466666666666 86.6133333333334L141.6533333333333 56.3200000000001C176.4266666666667 21.3333333333334 224 0 277.3333333333333 0C383.36 0 469.3333333333333 85.9733333333334 469.3333333333333 192S383.36 384 277.3333333333333 384" /></svg>