<?xml version="1.0" encoding="UTF-8"?><!DOCTYPE svg PUBLIC "-//W3C//DTD SVG 1.1//EN" "http://www.w3.org/Graphics/SVG/1.1/DTD/svg11.dtd"><svg xmlns="http://www.w3.org/2000/svg" xmlns:xlink="http://www.w3.org/1999/xlink" version="1.1" width="512" height="512" viewBox="0 0 512 512">    <path fill="#ffffff" transform="scale(1, -1) translate(0, -448)" glyph-name="radiator-off" unicode="&#xFAD7;" horiz-adv-x="512" d=" M69.9733333333333 405.3333333333333L42.6666666666667 378.24L101.76 319.1466666666667L120.32 290.3466666666667L90.0266666666667 243.2L126.9333333333333 224L154.24 266.6666666666667L228.9066666666667 192H85.3333333333333C61.8666666666667 192 42.6666666666667 172.8 42.6666666666667 149.3333333333334V-21.3333333333333H85.3333333333333V21.3333333333334H399.5733333333333L426.6666666666667 -5.76V-21.3333333333333H469.3333333333333V5.9733333333334L69.9733333333333 405.3333333333333M149.3333333333333 85.3333333333334C149.3333333333333 73.6 139.7333333333333 64 128 64S106.6666666666667 73.6 106.6666666666667 85.3333333333334V128C106.6666666666667 139.7333333333334 116.2666666666667 149.3333333333334 128 149.3333333333334S149.3333333333333 139.7333333333334 149.3333333333333 128V85.3333333333334M234.6666666666667 85.3333333333334C234.6666666666667 73.6 225.0666666666667 64 213.3333333333333 64S192 73.6 192 85.3333333333334V128C192 139.7333333333334 201.6 149.3333333333334 213.3333333333333 149.3333333333334S234.6666666666667 139.7333333333334 234.6666666666667 128V85.3333333333334M320 85.3333333333334C320 73.6 310.4 64 298.6666666666667 64S277.3333333333333 73.6 277.3333333333333 85.3333333333334V128C277.3333333333333 132.48 279.04 136.3200000000001 281.1733333333333 139.7333333333334L320 100.9066666666667V85.3333333333334M346.6666666666667 245.3333333333334L376.9600000000001 292.2666666666667L346.6666666666667 339.2000000000001L389.3333333333333 405.3333333333334L426.6666666666667 386.3466666666667L395.9466666666666 339.2000000000001L426.6666666666667 292.2666666666667V292.0533333333334L384 226.1333333333334L346.6666666666667 245.3333333333334M469.3333333333333 149.3333333333334V60.16L405.3333333333333 124.16V128C405.3333333333333 139.7333333333334 395.7333333333334 149.3333333333334 384 149.3333333333334C382.9333333333333 149.3333333333334 381.8666666666666 149.3333333333334 380.8 148.6933333333334L337.4933333333334 192H426.6666666666667C450.3466666666667 192 469.3333333333333 172.8 469.3333333333333 149.3333333333334M248.32 292.2666666666667L218.0266666666667 339.2000000000001L260.6933333333334 405.3333333333334L297.6 386.3466666666667L267.3066666666667 339.2000000000001L297.6 292.2666666666667L297.3866666666667 292.0533333333334L273.92 256L244.0533333333333 285.44L248.32 292.2666666666667M160 369.28L130.1333333333333 399.36L132.6933333333333 403.4133333333334L169.6 384L160 369.28z" /></svg>