<?xml version="1.0" encoding="UTF-8"?><!DOCTYPE svg PUBLIC "-//W3C//DTD SVG 1.1//EN" "http://www.w3.org/Graphics/SVG/1.1/DTD/svg11.dtd"><svg xmlns="http://www.w3.org/2000/svg" xmlns:xlink="http://www.w3.org/1999/xlink" version="1.1" width="512" height="512" viewBox="0 0 512 512">    <path fill="#ffffff" transform="scale(1, -1) translate(0, -448)" glyph-name="format-section" unicode="&#xF69E;" horiz-adv-x="512" d=" M334.2933333333333 353.7066666666667C313.6 366.0800000000001 289.7066666666667 372.48 265.6 372.0533333333334C231.8933333333333 372.0533333333334 206.08 355.4133333333334 206.08 329.3866666666667C206.08 299.52 234.6666666666667 288.64 277.3333333333333 274.3466666666667C330.6666666666667 257.0666666666667 371.2 235.3066666666667 371.2 183.8933333333333C370.3466666666667 155.9466666666667 356.0533333333333 130.3466666666667 332.8 114.9866666666667C346.6666666666666 101.9733333333333 354.3466666666667 83.6266666666667 354.1333333333333 64.64C354.1333333333333 4.48 298.6666666666667 -20.6933333333334 245.3333333333333 -20.6933333333334C214.1866666666667 -21.9733333333334 183.2533333333333 -13.6533333333334 156.8 2.7733333333333L170.6666666666667 35.4133333333334C192.8533333333333 20.2666666666667 219.0933333333333 12.16 245.9733333333333 11.9466666666667C282.6666666666667 11.9466666666667 309.9733333333333 28.5866666666667 309.9733333333333 58.88C309.9733333333333 85.3333333333333 293.3333333333333 100.0533333333333 240 118.4C181.3333333333333 138.6666666666667 140.8 160 140.8 208.8533333333333C142.2933333333333 237.0133333333333 158.5066666666667 262.6133333333334 183.4666666666667 275.8400000000001C170.0266666666667 288 162.3466666666666 305.7066666666667 162.1333333333333 324.0533333333334C162.1333333333333 374.4 208.4266666666667 405.3333333333333 267.3066666666666 405.3333333333333C294.8266666666667 405.3333333333333 321.92 399.1466666666667 346.24 386.3466666666667L334.2933333333333 353.7066666666667M242.1333333333334 161.7066666666667C264.7466666666667 154.6666666666667 286.72 145.4933333333334 307.4133333333333 134.1866666666667C321.28 144.64 329.1733333333333 161.0666666666667 328.7466666666667 178.3466666666667C328.7466666666667 199.68 315.0933333333333 218.4533333333333 277.3333333333333 231.68C253.6533333333334 239.5733333333333 229.9733333333333 249.3866666666667 207.36 260.9066666666667C191.36 251.3066666666667 181.3333333333333 234.0266666666667 181.3333333333333 215.2533333333333C181.3333333333333 194.56 196.9066666666667 177.4933333333334 242.1333333333334 161.7066666666667z" /></svg>