<?xml version="1.0" encoding="UTF-8"?><!DOCTYPE svg PUBLIC "-//W3C//DTD SVG 1.1//EN" "http://www.w3.org/Graphics/SVG/1.1/DTD/svg11.dtd"><svg xmlns="http://www.w3.org/2000/svg" xmlns:xlink="http://www.w3.org/1999/xlink" version="1.1" width="512" height="512" viewBox="0 0 512 512">    <path fill="#ffffff" transform="scale(1, -1) translate(0, -448)" glyph-name="bomb" unicode="&#xF690;" horiz-adv-x="512" d=" M240 320C240 358.1866666666667 271.1466666666667 389.3333333333333 309.3333333333333 389.3333333333333S378.6666666666667 358.1866666666667 378.6666666666667 320C378.6666666666667 311.04 385.7066666666666 304 394.6666666666667 304S410.6666666666667 311.04 410.6666666666667 320V336H442.6666666666667V320C442.6666666666667 293.5466666666667 421.12 272 394.6666666666667 272S346.6666666666667 293.5466666666667 346.6666666666667 320C346.6666666666667 340.6933333333334 330.0266666666667 357.3333333333334 309.3333333333333 357.3333333333334S272 340.6933333333334 272 320H298.6666666666667V292.48C360.32 274.1333333333334 405.3333333333333 216.96 405.3333333333333 149.3333333333334C405.3333333333333 66.7733333333333 338.56 0 256 0S106.6666666666667 66.7733333333333 106.6666666666667 149.3333333333334C106.6666666666667 216.96 151.68 274.1333333333334 213.3333333333333 292.48V320H240M469.3333333333333 320H512V298.6666666666667H469.3333333333333V320M405.3333333333333 362.6666666666667V405.3333333333333H426.6666666666667V362.6666666666667H405.3333333333333M446.08 354.56L476.3733333333333 384.8533333333334L491.52 369.7066666666667L461.2266666666666 339.4133333333334L446.08 354.56z" /></svg>