<?xml version="1.0" encoding="UTF-8"?><!DOCTYPE svg PUBLIC "-//W3C//DTD SVG 1.1//EN" "http://www.w3.org/Graphics/SVG/1.1/DTD/svg11.dtd"><svg xmlns="http://www.w3.org/2000/svg" xmlns:xlink="http://www.w3.org/1999/xlink" version="1.1" width="512" height="512" viewBox="0 0 512 512">    <path fill="#ffffff" transform="scale(1, -1) translate(0, -448)" glyph-name="codepen" unicode="&#xF175;" horiz-adv-x="512" d=" M321.92 192L256 147.6266666666667V147.4133333333334L190.08 192L256 236.3733333333334L321.92 192M256 405.3333333333333C252.5866666666667 405.3333333333333 249.1733333333333 404.0533333333334 245.9733333333333 402.1333333333334L53.3333333333333 274.9866666666667C48.4266666666667 272.6400000000001 44.5866666666667 268.1600000000001 42.6666666666667 263.04V129.7066666666667C42.6666666666667 120.96 42.6666666666667 120.96 45.8666666666667 116.6933333333334L245.9733333333334 -18.3466666666666C248.9600000000001 -20.48 252.5866666666667 -21.3333333333333 256 -21.3333333333333C259.4133333333334 -21.3333333333333 263.04 -20.2666666666666 266.0266666666667 -18.1333333333333L466.1333333333333 117.3333333333333C469.3333333333333 120.96 469.3333333333333 120.96 469.3333333333333 129.7066666666667V263.04C467.4133333333333 268.3733333333334 463.5733333333333 272.64 458.6666666666666 275.2000000000001L266.0266666666667 402.1333333333334C262.8266666666667 404.2666666666667 259.4133333333333 405.3333333333334 256 405.3333333333334M353.7066666666666 170.6666666666667L417.9199999999999 127.1466666666667L273.7066666666666 29.8666666666667V116.6933333333334L353.7066666666666 170.6666666666667M420.0533333333333 258.1333333333334L353.7066666666666 213.3333333333334L273.7066666666666 267.3066666666667V354.56L420.0533333333333 258.1333333333334M433.7066666666666 224.6400000000001V159.36L385.4933333333334 192L433.7066666666666 224.64M158.2933333333333 170.6666666666667L238.2933333333333 116.48V29.8666666666667L94.08 127.1466666666667L158.2933333333333 170.6666666666667M91.9466666666667 258.1333333333334L238.2933333333333 354.3466666666667V266.6666666666667L158.2933333333333 213.3333333333334L91.9466666666667 258.1333333333334M78.2933333333333 224L126.5066666666667 192L78.2933333333333 159.1466666666667V224z" /></svg>