<?xml version="1.0" encoding="UTF-8"?><!DOCTYPE svg PUBLIC "-//W3C//DTD SVG 1.1//EN" "http://www.w3.org/Graphics/SVG/1.1/DTD/svg11.dtd"><svg xmlns="http://www.w3.org/2000/svg" xmlns:xlink="http://www.w3.org/1999/xlink" version="1.1" width="512" height="512" viewBox="0 0 512 512">    <path fill="#ffffff" transform="scale(1, -1) translate(0, -448)" glyph-name="vpn" unicode="&#xF582;" horiz-adv-x="512" d=" M192 341.3333333333334H320L256 277.3333333333334L192 341.3333333333334M224 135.2533333333333C217.6 128 213.3333333333333 117.3333333333334 213.3333333333333 106.6666666666667C213.3333333333333 83.2 232.5333333333334 64 256 64S298.6666666666667 83.2 298.6666666666667 106.6666666666667C298.6666666666667 118.4 293.9733333333333 129.0666666666667 286.08 136.7466666666667L316.3733333333334 167.04C331.7333333333334 151.4666666666667 341.3333333333333 130.1333333333333 341.3333333333333 106.6666666666667C341.3333333333333 59.52 303.1466666666667 21.3333333333334 256 21.3333333333334S170.6666666666667 59.52 170.6666666666667 106.6666666666667C170.6666666666667 129.4933333333334 179.6266666666667 150.1866666666667 194.1333333333333 165.3333333333334L193.92 165.5466666666667L344.9600000000001 316.3733333333334C360.32 331.7333333333334 381.6533333333333 341.3333333333334 405.3333333333333 341.3333333333334C452.48 341.3333333333334 490.6666666666666 303.1466666666667 490.6666666666666 256S452.48 170.6666666666667 405.3333333333333 170.6666666666667C381.8666666666666 170.6666666666667 360.5333333333333 180.2666666666667 344.9600000000001 195.6266666666667L375.2533333333334 225.92C382.9333333333334 218.0266666666667 393.6 213.3333333333334 405.3333333333334 213.3333333333334C428.8000000000001 213.3333333333334 448.0000000000001 232.5333333333334 448.0000000000001 256S428.8000000000001 298.6666666666667 405.3333333333334 298.6666666666667C393.6 298.6666666666667 382.9333333333334 293.9733333333334 375.2533333333334 286.0800000000001L224.0000000000001 135.2533333333333M136.7466666666667 286.0800000000001C129.0666666666667 293.9733333333334 118.4 298.6666666666667 106.6666666666667 298.6666666666667C83.2 298.6666666666667 64 279.4666666666667 64 256S83.2 213.3333333333334 106.6666666666667 213.3333333333334C118.4 213.3333333333334 129.0666666666667 218.0266666666667 136.7466666666667 225.92L167.04 195.6266666666667C151.4666666666667 180.2666666666667 130.1333333333333 170.6666666666667 106.6666666666667 170.6666666666667C59.52 170.6666666666667 21.3333333333333 208.8533333333333 21.3333333333333 256S59.52 341.3333333333334 106.6666666666667 341.3333333333334C130.3466666666667 341.3333333333334 151.68 331.7333333333334 167.04 316.3733333333334L225.92 257.4933333333334L195.6266666666667 227.2L136.7466666666667 286.0800000000001z" /></svg>