<?xml version="1.0" encoding="UTF-8"?><!DOCTYPE svg PUBLIC "-//W3C//DTD SVG 1.1//EN" "http://www.w3.org/Graphics/SVG/1.1/DTD/svg11.dtd"><svg xmlns="http://www.w3.org/2000/svg" xmlns:xlink="http://www.w3.org/1999/xlink" version="1.1" width="512" height="512" viewBox="0 0 512 512">    <path fill="#ffffff" transform="scale(1, -1) translate(0, -448)" glyph-name="tea" unicode="&#xFD7A;" horiz-adv-x="512" d=" M85.3333333333333 42.6666666666667H426.6666666666667V0H85.3333333333333V42.6666666666667M426.6666666666667 277.3333333333334V341.3333333333334H384V277.3333333333334H426.6666666666667M426.6666666666667 384C439.4666666666667 384 448 379.7333333333334 456.5333333333333 371.2C465.0666666666666 362.6666666666667 469.3333333333333 352 469.3333333333333 341.3333333333334V277.3333333333334C469.3333333333333 264.5333333333334 465.0666666666667 256 456.5333333333333 247.4666666666667C448 238.9333333333334 439.4666666666666 234.6666666666667 426.6666666666667 234.6666666666667H384V170.6666666666667C384 147.2000000000001 375.4666666666667 128 358.4 110.9333333333333C341.3333333333333 93.8666666666667 322.1333333333334 85.3333333333334 298.6666666666667 85.3333333333334H170.6666666666667C147.2 85.3333333333334 128 93.8666666666667 110.9333333333333 110.9333333333333C93.8666666666667 128 85.3333333333333 147.2000000000001 85.3333333333333 170.6666666666667V384H192V332.8L153.6 302.9333333333334C151.4666666666667 300.8 149.3333333333333 296.5333333333334 149.3333333333333 294.4V202.6666666666667C149.3333333333333 196.2666666666667 153.6 192 160 192H245.3333333333333C251.7333333333334 192 256 196.2666666666667 256 202.6666666666667V294.4C256 298.6666666666667 253.8666666666667 300.8 251.7333333333334 302.9333333333334L213.3333333333333 332.8V384H426.6666666666667z" /></svg>