<?xml version="1.0" encoding="UTF-8"?><!DOCTYPE svg PUBLIC "-//W3C//DTD SVG 1.1//EN" "http://www.w3.org/Graphics/SVG/1.1/DTD/svg11.dtd"><svg xmlns="http://www.w3.org/2000/svg" xmlns:xlink="http://www.w3.org/1999/xlink" version="1.1" width="512" height="512" viewBox="0 0 512 512">    <path fill="#ffffff" transform="scale(1, -1) translate(0, -448)" glyph-name="two-factor-authentication" unicode="&#xF9AE;" horiz-adv-x="512" d=" M42.6666666666667 298.6666666666667V256H128V213.3333333333334H85.3333333333333C61.8666666666667 213.3333333333334 42.6666666666667 194.1333333333333 42.6666666666667 170.6666666666667V85.3333333333334H170.6666666666667V128H85.3333333333333V170.6666666666667H128C151.4666666666667 170.6666666666667 170.6666666666667 189.8666666666667 170.6666666666667 213.3333333333334V256C170.6666666666667 279.68 151.4666666666667 298.6666666666667 128 298.6666666666667H42.6666666666667M192 298.6666666666667V85.3333333333334H234.6666666666667V170.6666666666667H298.6666666666667V213.3333333333334H234.6666666666667V256H320V298.6666666666667H192M384 298.6666666666667C360.5333333333333 298.6666666666667 341.3333333333333 279.4666666666667 341.3333333333333 256V85.3333333333334H384V149.3333333333334H426.6666666666667V85.3333333333334H469.3333333333333V256C469.3333333333333 279.4666666666667 450.1333333333334 298.6666666666667 426.6666666666667 298.6666666666667H384M384 256H426.6666666666667V192H384V256z" /></svg>