<?xml version="1.0" encoding="UTF-8"?><!DOCTYPE svg PUBLIC "-//W3C//DTD SVG 1.1//EN" "http://www.w3.org/Graphics/SVG/1.1/DTD/svg11.dtd"><svg xmlns="http://www.w3.org/2000/svg" xmlns:xlink="http://www.w3.org/1999/xlink" version="1.1" width="512" height="512" viewBox="0 0 512 512">    <path fill="#ffffff" transform="scale(1, -1) translate(0, -448)" glyph-name="delete-sweep-outline" unicode="&#xFC3E;" horiz-adv-x="512" d=" M320 106.6666666666667H405.3333333333333V64H320V106.6666666666667M320 277.3333333333334H469.3333333333333V234.6666666666667H320V277.3333333333334M320 192H448V149.3333333333334H320V192M234.6666666666667 234.6666666666667V64H106.6666666666667V234.6666666666667H234.6666666666667M277.3333333333333 277.3333333333334H64V64C64 40.5333333333333 83.2 21.3333333333334 106.6666666666667 21.3333333333334H234.6666666666667C258.1333333333334 21.3333333333334 277.3333333333333 40.5333333333333 277.3333333333333 64V277.3333333333334M298.6666666666667 341.3333333333334H234.6666666666667L213.3333333333333 362.6666666666667H128L106.6666666666667 341.3333333333334H42.6666666666667V298.6666666666667H298.6666666666667V341.3333333333334z" /></svg>