<?xml version="1.0" encoding="UTF-8"?><!DOCTYPE svg PUBLIC "-//W3C//DTD SVG 1.1//EN" "http://www.w3.org/Graphics/SVG/1.1/DTD/svg11.dtd"><svg xmlns="http://www.w3.org/2000/svg" xmlns:xlink="http://www.w3.org/1999/xlink" version="1.1" width="512" height="512" viewBox="0 0 512 512">    <path fill="#ffffff" transform="scale(1, -1) translate(0, -448)" glyph-name="coffee-to-go" unicode="&#xF177;" horiz-adv-x="512" d=" M64 42.6666666666667V85.3333333333334H362.6666666666667L325.5466666666666 122.88L355.6266666666666 152.96L444.5866666666667 64L355.6266666666667 -24.96L325.5466666666667 5.12L362.6666666666667 42.6666666666667H64M362.6666666666667 277.3333333333334V341.3333333333334H320V277.3333333333334H362.6666666666667M362.6666666666667 384C386.3466666666667 384 405.3333333333333 364.8 405.3333333333333 341.3333333333334V277.3333333333334C405.3333333333333 253.6533333333334 386.3466666666667 234.6666666666667 362.6666666666667 234.6666666666667H320V213.3333333333334C320 166.1866666666667 281.8133333333334 128 234.6666666666667 128H149.3333333333333C102.1866666666667 128 64 166.1866666666667 64 213.3333333333334V384H362.6666666666667z" /></svg>