<?xml version="1.0" encoding="UTF-8"?><!DOCTYPE svg PUBLIC "-//W3C//DTD SVG 1.1//EN" "http://www.w3.org/Graphics/SVG/1.1/DTD/svg11.dtd"><svg xmlns="http://www.w3.org/2000/svg" xmlns:xlink="http://www.w3.org/1999/xlink" version="1.1" width="512" height="512" viewBox="0 0 512 512">    <path fill="#ffffff" transform="scale(1, -1) translate(0, -448)" glyph-name="car-traction-control" unicode="&#xFD40;" horiz-adv-x="512" d=" M202.6666666666667 213.3333333333334H224C230.4 213.3333333333334 234.6666666666667 217.6 234.6666666666667 224V256H405.3333333333333V224C405.3333333333333 217.6 409.6 213.3333333333334 416 213.3333333333334H437.3333333333333C443.7333333333334 213.3333333333334 448 217.6 448 224V320L418.1333333333334 411.7333333333334C416 420.2666666666667 407.4666666666667 426.6666666666667 398.9333333333334 426.6666666666667H243.2000000000001C234.6666666666667 426.6666666666667 226.1333333333334 420.2666666666667 224 411.7333333333334L192 320V224C192 217.6 196.2666666666667 213.3333333333334 202.6666666666667 213.3333333333334M241.0666666666667 405.3333333333333H396.8L416 341.3333333333334H221.8666666666667L241.0666666666667 405.3333333333333M256 -42.6666666666666H213.3333333333333C213.3333333333333 -25.6 172.8 -10.6666666666666 140.8 2.1333333333334C96 19.2 42.6666666666667 38.4 42.6666666666667 85.3333333333334C42.6666666666667 134.4 91.7333333333333 147.2000000000001 132.2666666666667 160C168.5333333333333 168.5333333333334 192 177.0666666666667 192 192H234.6666666666667C234.6666666666667 142.9333333333333 185.6 130.1333333333333 145.0666666666667 117.3333333333334C108.8 108.8 85.3333333333333 100.2666666666667 85.3333333333333 85.3333333333334C85.3333333333333 68.2666666666667 125.8666666666667 53.3333333333334 157.8666666666667 40.5333333333333C202.6666666666667 23.4666666666666 256 4.2666666666667 256 -42.6666666666666M469.3333333333333 -42.6666666666666H426.6666666666667C426.6666666666667 -25.6 386.1333333333334 -10.6666666666666 354.1333333333334 2.1333333333334C309.3333333333334 19.2 256 38.4 256 85.3333333333334C256 134.4 305.0666666666667 147.2000000000001 345.6 160C379.7333333333334 170.6666666666667 405.3333333333334 177.0666666666667 405.3333333333334 192H448.0000000000001C448.0000000000001 142.9333333333333 398.9333333333334 130.1333333333333 358.4000000000001 117.3333333333334C324.2666666666668 108.8 298.6666666666668 100.2666666666667 298.6666666666668 85.3333333333334C298.6666666666668 68.2666666666667 339.2000000000001 53.3333333333334 371.2000000000001 40.5333333333333C416.0000000000001 23.4666666666666 469.3333333333333 4.2666666666667 469.3333333333333 -42.6666666666666z" /></svg>