<?xml version="1.0" encoding="UTF-8"?><!DOCTYPE svg PUBLIC "-//W3C//DTD SVG 1.1//EN" "http://www.w3.org/Graphics/SVG/1.1/DTD/svg11.dtd"><svg xmlns="http://www.w3.org/2000/svg" xmlns:xlink="http://www.w3.org/1999/xlink" version="1.1" width="512" height="512" viewBox="0 0 512 512">    <path fill="#ffffff" transform="scale(1, -1) translate(0, -448)" glyph-name="bluetooth-settings" unicode="&#xF0B3;" horiz-adv-x="512" d=" M317.44 143.1466666666667L277.3333333333333 103.04V183.2533333333333L317.44 143.1466666666667M277.3333333333333 366.2933333333334L317.44 326.1866666666667L277.3333333333333 286.0800000000001M377.8133333333334 326.1866666666667L256 448H234.6666666666667V286.0800000000001L136.7466666666667 384L106.6666666666667 353.92L225.92 234.6666666666667L106.6666666666667 115.4133333333334L136.7466666666667 85.3333333333334L234.6666666666667 183.2533333333333V21.3333333333334H256L377.8133333333334 143.1466666666667L286.08 234.6666666666667L377.8133333333334 326.1866666666667M320 -64H362.6666666666667V-21.3333333333333H320M149.3333333333333 -64H192V-21.3333333333333H149.3333333333333M234.6666666666667 -64H277.3333333333333V-21.3333333333333H234.6666666666667V-64z" /></svg>