<?xml version="1.0" encoding="UTF-8"?><!DOCTYPE svg PUBLIC "-//W3C//DTD SVG 1.1//EN" "http://www.w3.org/Graphics/SVG/1.1/DTD/svg11.dtd"><svg xmlns="http://www.w3.org/2000/svg" xmlns:xlink="http://www.w3.org/1999/xlink" version="1.1" width="512" height="512" viewBox="0 0 512 512">    <path fill="#ffffff" transform="scale(1, -1) translate(0, -448)" glyph-name="cloud-tags" unicode="&#xF7B5;" horiz-adv-x="512" d=" M128 21.3333333333334C57.3866666666667 21.3333333333334 0 78.72 0 149.3333333333334C0 215.2533333333333 49.92 269.6533333333334 114.1333333333333 276.48C140.8 327.68 194.3466666666666 362.6666666666667 256 362.6666666666667C333.44 362.6666666666667 398.08 307.6266666666667 412.8 234.6666666666667C468.2666666666667 230.6133333333334 512 184.3200000000001 512 128C512 69.1200000000001 464.2133333333333 21.3333333333334 405.3333333333333 21.3333333333334H128M193.92 268.8L96 170.6666666666667L193.92 72.5333333333333L224 102.8266666666667L156.16 170.6666666666667L224 238.5066666666667L193.92 268.8M318.08 268.8L288 238.5066666666667L355.84 170.6666666666667L288 102.8266666666667L318.08 72.5333333333333L416 170.6666666666667L318.08 268.8z" /></svg>