<?xml version="1.0" encoding="UTF-8"?><!DOCTYPE svg PUBLIC "-//W3C//DTD SVG 1.1//EN" "http://www.w3.org/Graphics/SVG/1.1/DTD/svg11.dtd"><svg xmlns="http://www.w3.org/2000/svg" xmlns:xlink="http://www.w3.org/1999/xlink" version="1.1" width="512" height="512" viewBox="0 0 512 512">    <path fill="#ffffff" transform="scale(1, -1) translate(0, -448)" glyph-name="grid" unicode="&#xF2C1;" horiz-adv-x="512" d=" M213.3333333333333 362.6666666666667V277.3333333333334H298.6666666666667V362.6666666666667H213.3333333333333M341.3333333333333 362.6666666666667V277.3333333333334H426.6666666666667V362.6666666666667H341.3333333333333M341.3333333333333 234.6666666666667V149.3333333333334H426.6666666666667V234.6666666666667H341.3333333333333M341.3333333333333 106.6666666666667V21.3333333333334H426.6666666666667V106.6666666666667H341.3333333333333M298.6666666666667 21.3333333333334V106.6666666666667H213.3333333333333V21.3333333333334H298.6666666666667M170.6666666666667 21.3333333333334V106.6666666666667H85.3333333333333V21.3333333333334H170.6666666666667M170.6666666666667 149.3333333333334V234.6666666666667H85.3333333333333V149.3333333333334H170.6666666666667M170.6666666666667 277.3333333333334V362.6666666666667H85.3333333333333V277.3333333333334H170.6666666666667M213.3333333333333 149.3333333333334H298.6666666666667V234.6666666666667H213.3333333333333V149.3333333333334M85.3333333333333 405.3333333333333H426.6666666666667C450.1333333333334 405.3333333333333 469.3333333333333 386.1333333333334 469.3333333333333 362.6666666666667V21.3333333333334C469.3333333333333 -2.1333333333333 450.1333333333334 -21.3333333333333 426.6666666666667 -21.3333333333333H85.3333333333333C62.2933333333333 -21.3333333333333 42.6666666666667 -2.1333333333333 42.6666666666667 21.3333333333334V362.6666666666667C42.6666666666667 386.1333333333334 61.8666666666667 405.3333333333333 85.3333333333333 405.3333333333333z" /></svg>