<?xml version="1.0" encoding="UTF-8"?><!DOCTYPE svg PUBLIC "-//W3C//DTD SVG 1.1//EN" "http://www.w3.org/Graphics/SVG/1.1/DTD/svg11.dtd"><svg xmlns="http://www.w3.org/2000/svg" xmlns:xlink="http://www.w3.org/1999/xlink" version="1.1" width="512" height="512" viewBox="0 0 512 512">    <path fill="#ffffff" transform="scale(1, -1) translate(0, -448)" glyph-name="weather-pouring" unicode="&#xF596;" horiz-adv-x="512" d=" M192 192C203.3066666666667 189.0133333333333 210.1333333333333 177.28 207.1466666666667 165.9733333333334L179.4133333333333 62.9333333333333C176.4266666666667 51.4133333333334 164.6933333333333 44.8 153.3866666666667 47.7866666666666C141.8666666666667 50.7733333333333 135.2533333333333 62.5066666666667 138.6666666666667 73.8133333333333L165.9733333333333 176.8533333333333C168.96 188.3733333333333 180.6933333333333 194.9866666666666 192 192M277.3333333333333 192C288.64 189.0133333333333 295.4666666666667 177.28 292.48 165.9733333333333L248.32 1.0666666666666C245.3333333333333 -10.6666666666667 233.6 -17.0666666666667 222.08 -14.08C210.7733333333334 -10.6666666666667 203.9466666666667 0.64 206.9333333333333 12.16L251.3066666666667 176.8533333333333C254.2933333333333 188.3733333333332 266.0266666666667 194.9866666666666 277.3333333333333 192M362.6666666666667 192C373.9733333333334 189.0133333333333 380.8 177.28 377.8133333333334 165.9733333333333L350.08 62.9333333333333C347.0933333333333 51.4133333333333 335.36 44.7999999999999 324.0533333333333 47.7866666666666C312.5333333333333 50.7733333333333 305.92 62.5066666666666 309.3333333333333 73.8133333333332L336.64 176.8533333333333C339.6266666666667 188.3733333333332 351.36 194.9866666666665 362.6666666666667 191.9999999999999M362.6666666666667 234.6666666666665V256C362.6666666666667 314.88 314.88 362.6666666666667 256 362.6666666666667C202.6666666666667 362.6666666666667 158.9333333333333 323.8400000000001 150.6133333333333 273.28C143.5733333333333 275.8400000000001 135.8933333333333 277.3333333333334 128 277.3333333333334C92.5866666666667 277.3333333333334 64 248.7466666666667 64 213.3333333333334C64 189.6533333333334 76.8 168.96 96 157.8666666666667V158.0800000000001C106.6666666666667 152.1066666666667 109.6533333333333 138.6666666666667 103.8933333333333 128.8533333333334C97.92 118.8266666666667 85.3333333333333 115.2 74.6666666666667 121.1733333333334V120.96C42.6666666666667 139.3066666666667 21.3333333333333 173.8666666666667 21.3333333333333 213.3333333333334C21.3333333333333 272.2133333333334 69.12 320 128 320C149.3333333333333 370.1333333333334 198.4 405.3333333333333 256 405.3333333333333C329.1733333333333 405.3333333333333 389.12 348.5866666666667 394.6666666666667 276.6933333333334L405.3333333333333 277.3333333333334C452.48 277.3333333333334 490.6666666666666 239.1466666666667 490.6666666666666 192C490.6666666666666 160 473.6 132.9066666666667 448 118.1866666666667C437.3333333333333 112.4266666666667 424.7466666666667 115.84 418.7733333333333 126.08C413.0133333333333 136.32 416 149.3333333333333 426.6666666666667 155.3066666666666V155.0933333333333C439.4666666666667 162.3466666666666 448 176.2133333333333 448 192C448 215.4666666666667 428.8 234.6666666666667 405.3333333333333 234.6666666666667H362.6666666666667z" /></svg>