<?xml version="1.0" encoding="UTF-8"?><!DOCTYPE svg PUBLIC "-//W3C//DTD SVG 1.1//EN" "http://www.w3.org/Graphics/SVG/1.1/DTD/svg11.dtd"><svg xmlns="http://www.w3.org/2000/svg" xmlns:xlink="http://www.w3.org/1999/xlink" version="1.1" width="512" height="512" viewBox="0 0 512 512">    <path fill="#ffffff" transform="scale(1, -1) translate(0, -448)" glyph-name="flare" unicode="&#xFD4E;" horiz-adv-x="512" d=" M149.3333333333333 213.3333333333334H21.3333333333333V170.6666666666667H149.3333333333333V213.3333333333334M195.6266666666667 282.4533333333334L150.4 327.68L120.32 297.6L165.5466666666667 252.3733333333334L195.6266666666667 282.4533333333334M277.3333333333333 426.6666666666667H234.6666666666667V298.6666666666667H277.3333333333333V426.6666666666667M391.68 297.6L361.6 327.68L316.3733333333333 282.4533333333334L346.4533333333333 252.3733333333334L391.68 297.6M362.6666666666667 213.3333333333334V170.6666666666667H490.6666666666666V213.3333333333334H362.6666666666667M256 256C220.5866666666667 256 192 227.4133333333334 192 192S220.5866666666667 128 256 128S320 156.5866666666667 320 192S291.4133333333333 256 256 256M316.3733333333334 101.5466666666666L361.6 56.3199999999999L391.68 86.4L346.4533333333333 131.6266666666667L316.3733333333333 101.5466666666666M120.32 86.4L150.4 56.3199999999999L195.6266666666666 101.5466666666666L165.5466666666666 131.6266666666667L120.32 86.4M234.6666666666667 -42.6666666666666H277.3333333333333V85.3333333333334H234.6666666666667V-42.6666666666666z" /></svg>