<?xml version="1.0" encoding="UTF-8"?><!DOCTYPE svg PUBLIC "-//W3C//DTD SVG 1.1//EN" "http://www.w3.org/Graphics/SVG/1.1/DTD/svg11.dtd"><svg xmlns="http://www.w3.org/2000/svg" xmlns:xlink="http://www.w3.org/1999/xlink" version="1.1" width="512" height="512" viewBox="0 0 512 512">    <path fill="#ffffff" transform="scale(1, -1) translate(0, -448)" glyph-name="camera-front-variant" unicode="&#xF103;" horiz-adv-x="512" d=" M128 448H384C407.4666666666667 448 426.6666666666667 428.8 426.6666666666667 405.3333333333333V-21.3333333333333C426.6666666666667 -44.8 407.4666666666667 -64 384 -64H128C104.5333333333333 -64 85.3333333333333 -44.8 85.3333333333333 -21.3333333333333V405.3333333333333C85.3333333333333 428.8 104.5333333333333 448 128 448M256 320C291.4133333333333 320 320 291.4133333333334 320 256S291.4133333333333 192 256 192S192 220.5866666666667 192 256S220.5866666666667 320 256 320M234.6666666666667 426.6666666666667V384H277.3333333333333V426.6666666666667H234.6666666666667M128 362.6666666666667V96C128 125.44 185.3866666666667 149.3333333333334 256 149.3333333333334S384 125.44 384 96V362.6666666666667H128M277.3333333333333 64H192V21.3333333333334H277.3333333333333V-21.3333333333333L341.3333333333333 42.6666666666667L277.3333333333333 106.6666666666667V64z" /></svg>