<?xml version="1.0" encoding="UTF-8"?><!DOCTYPE svg PUBLIC "-//W3C//DTD SVG 1.1//EN" "http://www.w3.org/Graphics/SVG/1.1/DTD/svg11.dtd"><svg xmlns="http://www.w3.org/2000/svg" xmlns:xlink="http://www.w3.org/1999/xlink" version="1.1" width="512" height="512" viewBox="0 0 512 512">    <path fill="#ffffff" transform="scale(1, -1) translate(0, -448)" glyph-name="link-box-variant" unicode="&#xFCF8;" horiz-adv-x="512" d=" M405.3333333333333 384H106.6666666666667C83.2 384 64 364.8 64 341.3333333333334V42.6666666666667C64 19.2 83.2 0 106.6666666666667 0H405.3333333333333C428.8 0 448 19.2 448 42.6666666666667V341.3333333333334C448 364.8 428.8 384 405.3333333333333 384M297.3866666666667 132.0533333333334L250.24 85.3333333333334C236.3733333333334 71.04 218.0266666666667 64 199.68 64C181.3333333333333 64 162.9866666666667 71.04 149.3333333333333 85.3333333333334C120.96 112.8533333333334 120.96 158.2933333333334 149.3333333333333 186.4533333333334L178.1333333333333 215.4666666666667L177.92 202.6666666666667C177.7066666666667 192 179.4133333333333 181.3333333333334 182.8266666666667 171.9466666666667L183.8933333333334 168.7466666666667L175.36 160C168.7466666666667 153.6 165.12 144.8533333333334 165.12 135.68C165.12 126.5066666666667 168.7466666666667 117.9733333333334 175.36 111.36C188.3733333333333 98.1333333333333 210.9866666666667 98.1333333333333 224 111.36L270.9333333333333 158.08C277.3333333333333 164.6933333333333 281.1733333333333 173.44 281.1733333333333 182.6133333333334C281.1733333333333 192 277.3333333333333 200.32 270.9333333333333 206.9333333333333C267.3066666666666 210.3466666666667 265.3866666666667 215.04 265.3866666666667 220.16C265.3866666666667 225.0666666666667 267.3066666666666 229.76 270.9333333333333 233.3866666666667C277.9733333333333 240.4266666666666 290.3466666666667 240.2133333333333 297.3866666666667 233.3866666666667C310.8266666666667 219.7333333333333 318.2933333333333 201.8133333333333 318.2933333333333 182.6133333333334C318.2933333333333 163.4133333333333 310.8266666666667 145.4933333333334 297.3866666666667 132.0533333333333M362.6666666666667 197.5466666666667L334.08 168.5333333333334V181.3333333333334C334.2933333333333 192 332.5866666666667 202.6666666666667 329.1733333333333 212.0533333333334L328.1066666666667 215.04L336.64 224C343.2533333333334 230.4000000000001 346.88 239.1466666666667 346.88 248.32C346.88 257.4933333333334 343.2533333333332 266.0266666666667 336.64 272.6400000000001C323.6266666666666 285.8666666666667 300.8 285.6533333333334 288 272.6400000000001L241.0666666666666 225.7066666666667C234.6666666666666 219.3066666666667 230.8266666666666 210.56 230.8266666666666 201.3866666666667C230.8266666666666 192.0000000000001 234.6666666666666 183.6800000000001 241.0666666666666 177.0666666666667C244.6933333333333 173.6533333333334 246.6133333333333 168.96 246.6133333333333 163.84S244.6933333333333 154.0266666666667 241.0666666666666 150.6133333333334C237.44 146.9866666666667 232.7466666666666 145.2800000000001 227.84 145.2800000000001C223.1466666666666 145.2800000000001 218.24 146.9866666666667 214.6133333333333 150.6133333333334C186.6666666666666 178.5600000000001 186.6666666666666 224.0000000000001 214.6133333333333 251.9466666666667L261.76 298.6666666666667C289.7066666666667 327.04 335.1466666666667 326.8266666666667 362.6666666666667 298.6666666666667C376.5333333333333 285.44 384 267.52 384 248.32C384 229.12 376.5333333333333 211.2 362.6666666666667 197.5466666666667z" /></svg>