<?xml version="1.0" encoding="UTF-8"?><!DOCTYPE svg PUBLIC "-//W3C//DTD SVG 1.1//EN" "http://www.w3.org/Graphics/SVG/1.1/DTD/svg11.dtd"><svg xmlns="http://www.w3.org/2000/svg" xmlns:xlink="http://www.w3.org/1999/xlink" version="1.1" width="512" height="512" viewBox="0 0 512 512">    <path fill="#ffffff" transform="scale(1, -1) translate(0, -448)" glyph-name="cordova" unicode="&#xF957;" horiz-adv-x="512" d=" M430.5066666666667 -11.7333333333333H361.3866666666666L366.2933333333333 46.5066666666667H332.3733333333333L327.4666666666666 -11.7333333333333H184.5333333333333L179.6266666666666 46.5066666666667H145.7066666666667L150.6133333333334 -11.7333333333333H81.4933333333333L42.6666666666667 240.4266666666667L139.7333333333333 395.7333333333334H372.2666666666667L469.3333333333333 240.4266666666667L430.5066666666667 -11.7333333333333M353.0666666666667 318.0800000000001H290.56L294.8266666666667 289.0666666666667H217.1733333333333L221.44 318.0800000000001H158.9333333333333L120.32 240.4266666666667L139.7333333333333 85.3333333333334H372.2666666666667L391.68 240.4266666666667L353.0666666666667 318.0800000000001M318.9333333333334 136.7466666666667C313.6 136.7466666666667 309.3333333333334 152.96 309.3333333333334 172.8C309.3333333333334 192.8533333333333 313.6 209.0666666666667 318.9333333333334 209.0666666666667C324.48 209.0666666666667 328.7466666666667 192.8533333333333 328.7466666666667 172.8C328.7466666666667 152.96 324.48 136.7466666666667 318.9333333333334 136.7466666666667M196.6933333333333 133.76C191.1466666666667 133.76 186.88 149.9733333333334 186.88 169.8133333333333C186.88 189.8666666666667 191.1466666666667 205.8666666666667 196.6933333333333 205.8666666666667C202.0266666666667 205.8666666666667 206.2933333333333 189.8666666666667 206.2933333333333 169.8133333333333C206.2933333333333 149.9733333333334 202.0266666666667 133.76 196.6933333333333 133.76z" /></svg>