<?xml version="1.0" encoding="UTF-8"?><!DOCTYPE svg PUBLIC "-//W3C//DTD SVG 1.1//EN" "http://www.w3.org/Graphics/SVG/1.1/DTD/svg11.dtd"><svg xmlns="http://www.w3.org/2000/svg" xmlns:xlink="http://www.w3.org/1999/xlink" version="1.1" width="512" height="512" viewBox="0 0 512 512">    <path fill="#ffffff" transform="scale(1, -1) translate(0, -448)" glyph-name="roller-skate" unicode="&#xFD07;" horiz-adv-x="512" d=" M405.3333333333333 128S405.3333333333333 106.6666666666667 362.6666666666667 106.6666666666667H85.3333333333333V384H234.6666666666667L239.1466666666667 352H197.12V320H243.84L248.32 288H197.12V256H253.0133333333333L256 234.6666666666667H298.6666666666667S405.3333333333333 234.6666666666667 405.3333333333333 128M138.6666666666667 85.3333333333334C109.2266666666667 85.3333333333334 85.3333333333333 61.44 85.3333333333333 32S109.2266666666667 -21.3333333333333 138.6666666666667 -21.3333333333333S192 2.5600000000001 192 32S168.1066666666667 85.3333333333334 138.6666666666667 85.3333333333334M352 85.3333333333334C322.56 85.3333333333334 298.6666666666667 61.44 298.6666666666667 32S322.56 -21.3333333333333 352 -21.3333333333333S405.3333333333333 2.5600000000001 405.3333333333333 32S381.44 85.3333333333334 352 85.3333333333334z" /></svg>