<?xml version="1.0" encoding="UTF-8"?><!DOCTYPE svg PUBLIC "-//W3C//DTD SVG 1.1//EN" "http://www.w3.org/Graphics/SVG/1.1/DTD/svg11.dtd"><svg xmlns="http://www.w3.org/2000/svg" xmlns:xlink="http://www.w3.org/1999/xlink" version="1.1" width="512" height="512" viewBox="0 0 512 512">    <path fill="#ffffff" transform="scale(1, -1) translate(0, -448)" glyph-name="fedora" unicode="&#xF8DA;" horiz-adv-x="512" d=" M93.8666666666667 -21.3333333333333C65.4933333333333 -21.3333333333333 42.6666666666667 1.4933333333333 42.6666666666667 29.8666666666667V192C42.6666666666667 309.76 138.24 405.3333333333333 256 405.3333333333333S469.3333333333333 309.76 469.3333333333333 192S373.76 -21.3333333333333 256 -21.3333333333333H93.8666666666667M317.8666666666667 354.1333333333334C262.4 354.1333333333334 217.6 309.3333333333334 217.6 253.8666666666667V200.5333333333333H177.0666666666667C164.0533333333334 200.5333333333333 153.6 190.08 153.6 177.0666666666667C153.6 164.0533333333334 164.0533333333334 153.6 177.0666666666667 153.6H209.0666666666667C213.3333333333333 153.6 217.6 149.3333333333334 217.6 145.0666666666667V100.2666666666667C217.6 70.8266666666667 193.7066666666667 46.9333333333333 164.2666666666667 46.9333333333333C161.0666666666667 46.9333333333333 158.08 47.1466666666667 155.0933333333334 47.7866666666666C153.3866666666667 48.2133333333333 151.4666666666667 48.4266666666667 149.3333333333334 48.4266666666667C136.7466666666667 48.4266666666667 126.0800000000001 37.76 126.0800000000001 24.96C126.0800000000001 13.44 134.4 4.0533333333333 145.0666666666667 1.92C151.2533333333334 0.64 157.6533333333334 -1e-13 164.2666666666667 -1e-13C219.7333333333334 -1e-13 264.5333333333334 44.8 264.5333333333334 100.2666666666666V153.5999999999999H305.0666666666667C318.0800000000001 153.5999999999999 328.5333333333334 164.0533333333333 328.5333333333334 177.0666666666666C328.5333333333334 190.0799999999999 318.0800000000001 200.5333333333333 305.0666666666667 200.5333333333333H273.0666666666667C268.3733333333334 200.5333333333333 264.5333333333334 204.3733333333332 264.5333333333334 209.0666666666666V253.8666666666667C264.5333333333334 283.3066666666667 288.4266666666668 307.2000000000001 317.8666666666667 307.2000000000001C321.0666666666667 307.2000000000001 324.2666666666667 306.9866666666667 327.2533333333334 306.3466666666667C328.9600000000001 305.92 330.6666666666667 305.7066666666667 332.5866666666667 305.7066666666667C345.3866666666667 305.7066666666667 356.0533333333334 316.3733333333334 356.0533333333334 329.1733333333334C356.0533333333334 340.6933333333334 347.7333333333334 350.2933333333334 337.0666666666667 352C330.6666666666667 353.4933333333334 324.48 354.1333333333334 317.8666666666667 354.1333333333334M145.0666666666667 177.0666666666667C145.0666666666667 179.6266666666667 145.28 182.1866666666667 145.92 184.7466666666667L134.6133333333334 196.0533333333333C130.1333333333333 194.7733333333333 125.6533333333333 193.0666666666666 121.6 190.9333333333333L147.4133333333333 165.12C145.92 168.96 145.0666666666667 172.8 145.0666666666667 177.0666666666667M139.52 53.3333333333334H138.0266666666667H139.52M119.68 24.96C119.68 29.8666666666667 120.96 34.5600000000001 123.0933333333333 38.6133333333334L64 97.7066666666667C64 90.4533333333333 65.0666666666667 83.6266666666667 66.7733333333333 76.8L119.68 23.8933333333333V24.96M125.0133333333333 7.8933333333333C123.0933333333333 10.6666666666666 121.8133333333333 13.44 120.96 16.64L69.12 68.48C78.2933333333333 41.1733333333333 98.7733333333333 19.2 125.0133333333333 7.8933333333333M337.0666666666666 177.0666666666666C337.0666666666666 174.5066666666667 336.8533333333333 171.9466666666666 336.2133333333333 169.3866666666667L347.52 158.08C352 159.36 356.48 161.0666666666667 360.5333333333333 163.2L334.7199999999999 189.0133333333333C336.2133333333333 185.1733333333334 337.0666666666666 181.3333333333334 337.0666666666666 177.0666666666667M342.6133333333333 301.2266666666667L344.1066666666667 300.3733333333334L343.04 301.2266666666667H342.6133333333333M362.6666666666667 329.1733333333334C362.6666666666667 324.2666666666667 361.1733333333333 320 359.04 315.52L418.1333333333334 256C417.92 263.68 417.0666666666667 270.5066666666667 415.36 277.3333333333334L362.6666666666667 330.6666666666667V329.1733333333334M357.12 346.24C359.04 343.4666666666667 360.32 340.6933333333334 361.1733333333333 337.4933333333334L413.0133333333333 285.6533333333333C403.84 312.96 383.36 334.9333333333334 357.12 346.24M342.8266666666666 156.8L334.7199999999999 164.9066666666667C333.0133333333332 160.8533333333334 330.6666666666666 157.2266666666667 327.4666666666666 154.0266666666667C332.7999999999999 154.4533333333333 337.9199999999999 155.52 342.8266666666666 156.8M388.9066666666666 183.04L355.6266666666666 216.32C352.64 213.3333333333334 349.2266666666666 210.56 345.6 208.2133333333334L379.3066666666667 174.5066666666667C382.7200000000001 177.28 385.92 180.0533333333334 388.9066666666667 183.04M375.8933333333333 171.9466666666667L341.3333333333333 206.08C337.4933333333334 203.9466666666667 333.0133333333333 202.6666666666667 328.32 201.6L364.5866666666667 165.12C368.4266666666666 167.2533333333333 372.2666666666667 169.6 375.8933333333333 171.9466666666667M400 196.2666666666667L365.8666666666666 230.4C363.7333333333333 226.3466666666667 361.3866666666666 222.72 358.6133333333333 219.52L391.8933333333333 186.24C394.6666666666666 189.44 397.44 192.64 399.9999999999999 196.2666666666667M408.7466666666666 211.4133333333334L370.9866666666666 249.1733333333334C370.56 244.0533333333334 369.4933333333333 239.1466666666667 367.5733333333333 234.6666666666667L402.3466666666666 199.8933333333334C404.6933333333332 203.5200000000001 406.8266666666666 207.36 408.7466666666666 211.4133333333334M418.1333333333333 250.4533333333334L356.6933333333333 311.8933333333333C354.1333333333333 308.2666666666667 350.9333333333333 305.2800000000001 347.3066666666666 303.1466666666667L416 234.6666666666667C417.28 239.5733333333334 417.92 245.3333333333334 418.1333333333334 250.4533333333334M415.1466666666667 229.3333333333334L364.3733333333334 280.1066666666667C368.4266666666668 272.64 370.9866666666667 264.1066666666667 371.2000000000001 255.1466666666667L410.6666666666668 215.68C412.3733333333334 220.1600000000001 413.8666666666667 224.6400000000001 415.1466666666668 229.3333333333334M102.8266666666667 179.6266666666667C99.4133333333333 176.8533333333334 96 174.0800000000001 93.2266666666667 170.6666666666667L126.5066666666667 137.8133333333334C129.4933333333333 140.8000000000001 132.9066666666667 143.5733333333334 136.5333333333333 145.9200000000001L102.8266666666667 179.6266666666667M117.3333333333333 189.0133333333334C113.7066666666667 186.8800000000001 109.8666666666667 184.5333333333334 106.6666666666666 182.1866666666667L140.3733333333333 148.0533333333334C144.64 150.1866666666667 149.3333333333333 151.6800000000001 153.8133333333333 152.5333333333334L117.3333333333333 189.0133333333333M154.6666666666667 200.1066666666667C149.3333333333333 199.68 144.2133333333333 198.6133333333333 139.3066666666667 197.3333333333333L147.4133333333333 189.2266666666666C149.3333333333333 193.28 151.68 196.9066666666666 154.6666666666667 200.1066666666666M65.92 119.8933333333333C64.8533333333333 114.56 64 109.2266666666666 64 103.68L125.44 42.6666666666667C128 45.8666666666667 131.2 48.8533333333334 134.8266666666667 50.9866666666667L65.92 119.8933333333334M79.7866666666667 154.24C77.44 150.6133333333334 75.3066666666667 146.7733333333334 73.3866666666667 142.72L111.1466666666667 104.96C111.5733333333333 110.08 112.64 114.9866666666667 114.56 119.4666666666667L79.7866666666667 154.24M71.4666666666667 138.6666666666667C69.76 133.9733333333334 68.2666666666667 129.4933333333334 66.9866666666667 124.8L117.3333333333334 74.0266666666666C113.7066666666667 81.4933333333333 111.1466666666667 90.0266666666666 110.9333333333334 98.9866666666667L71.4666666666667 138.6666666666667M90.24 167.8933333333334C87.4666666666667 164.6933333333334 84.6933333333333 161.4933333333334 82.1333333333333 157.8666666666667L116.2666666666667 123.7333333333334C118.4 128 120.7466666666667 131.4133333333334 123.52 134.6133333333334L90.24 167.8933333333334z" /></svg>