<?xml version="1.0" encoding="UTF-8"?><!DOCTYPE svg PUBLIC "-//W3C//DTD SVG 1.1//EN" "http://www.w3.org/Graphics/SVG/1.1/DTD/svg11.dtd"><svg xmlns="http://www.w3.org/2000/svg" xmlns:xlink="http://www.w3.org/1999/xlink" version="1.1" width="512" height="512" viewBox="0 0 512 512">    <path fill="#ffffff" transform="scale(1, -1) translate(0, -448)" glyph-name="chef-hat" unicode="&#xFB58;" horiz-adv-x="512" d=" M266.6666666666667 416C228.9066666666667 416 195.6266666666667 391.04 184.96 354.7733333333333C173.6533333333333 359.8933333333333 161.7066666666667 362.6666666666667 149.3333333333333 362.6666666666667C102.1866666666667 362.6666666666667 64 324.48 64 277.3333333333334C64 238.5066666666667 90.4533333333333 204.5866666666667 128 194.7733333333333V42.6666666666667H405.3333333333333V194.7733333333333C442.88 204.5866666666667 469.3333333333333 238.5066666666667 469.3333333333333 277.3333333333334C469.3333333333333 324.48 431.1466666666667 362.6666666666667 384 362.6666666666667C371.6266666666667 362.6666666666667 359.68 359.8933333333333 348.3733333333333 354.7733333333333C337.7066666666666 391.04 304.4266666666666 416 266.6666666666667 416M256 224H277.3333333333333V74.6666666666667H256V224M192 181.3333333333334H213.3333333333333V74.6666666666667H192V181.3333333333334M320 181.3333333333334H341.3333333333333V74.6666666666667H320V181.3333333333334M128 21.3333333333334V0C128 -11.7333333333333 137.6 -21.3333333333333 149.3333333333333 -21.3333333333333H384C395.7333333333334 -21.3333333333333 405.3333333333333 -11.7333333333333 405.3333333333333 0V21.3333333333334H128z" /></svg>