<?xml version="1.0" encoding="UTF-8"?><!DOCTYPE svg PUBLIC "-//W3C//DTD SVG 1.1//EN" "http://www.w3.org/Graphics/SVG/1.1/DTD/svg11.dtd"><svg xmlns="http://www.w3.org/2000/svg" xmlns:xlink="http://www.w3.org/1999/xlink" version="1.1" width="512" height="512" viewBox="0 0 512 512">    <path fill="#ffffff" transform="scale(1, -1) translate(0, -448)" glyph-name="wallet" unicode="&#xF584;" horiz-adv-x="512" d=" M448 64V42.6666666666667C448 19.2 428.8 0 405.3333333333333 0H106.6666666666667C82.9866666666667 0 64 19.2 64 42.6666666666667V341.3333333333334C64 364.8 83.2 384 106.6666666666667 384H405.3333333333333C428.8 384 448 364.8 448 341.3333333333334V320H256C232.32 320 213.3333333333333 300.8 213.3333333333333 277.3333333333334V106.6666666666667C213.3333333333333 83.2 232.5333333333334 64 256 64M256 106.6666666666667H469.3333333333333V277.3333333333334H256M341.3333333333333 160C323.6266666666667 160 309.3333333333333 174.2933333333334 309.3333333333333 192S323.6266666666667 224 341.3333333333333 224S373.3333333333333 209.7066666666667 373.3333333333333 192S359.04 160 341.3333333333333 160z" /></svg>