<?xml version="1.0" encoding="UTF-8"?><!DOCTYPE svg PUBLIC "-//W3C//DTD SVG 1.1//EN" "http://www.w3.org/Graphics/SVG/1.1/DTD/svg11.dtd"><svg xmlns="http://www.w3.org/2000/svg" xmlns:xlink="http://www.w3.org/1999/xlink" version="1.1" width="512" height="512" viewBox="0 0 512 512">    <path fill="#ffffff" transform="scale(1, -1) translate(0, -448)" glyph-name="palette" unicode="&#xF3D8;" horiz-adv-x="512" d=" M373.3333333333333 192C355.6266666666667 192 341.3333333333333 206.2933333333334 341.3333333333333 224S355.6266666666667 256 373.3333333333333 256S405.3333333333333 241.7066666666667 405.3333333333333 224S391.04 192 373.3333333333333 192M309.3333333333333 277.3333333333334C291.6266666666667 277.3333333333334 277.3333333333333 291.6266666666667 277.3333333333333 309.3333333333334S291.6266666666667 341.3333333333334 309.3333333333333 341.3333333333334S341.3333333333333 327.04 341.3333333333333 309.3333333333334S327.04 277.3333333333334 309.3333333333333 277.3333333333334M202.6666666666667 277.3333333333334C184.96 277.3333333333334 170.6666666666667 291.6266666666667 170.6666666666667 309.3333333333334S184.96 341.3333333333334 202.6666666666667 341.3333333333334S234.6666666666667 327.04 234.6666666666667 309.3333333333334S220.3733333333333 277.3333333333334 202.6666666666667 277.3333333333334M138.6666666666667 192C120.96 192 106.6666666666667 206.2933333333334 106.6666666666667 224S120.96 256 138.6666666666667 256S170.6666666666667 241.7066666666667 170.6666666666667 224S156.3733333333333 192 138.6666666666667 192M256 384C149.9733333333333 384 64 298.0266666666667 64 192S149.9733333333333 0 256 0C273.7066666666667 0 288 14.2933333333334 288 32C288 40.3200000000001 284.8 47.7866666666666 279.68 53.3333333333334C274.7733333333333 59.0933333333334 271.5733333333333 66.5600000000001 271.5733333333333 74.6666666666667C271.5733333333333 92.3733333333333 285.8666666666666 106.6666666666667 303.5733333333333 106.6666666666667H341.3333333333333C400.2133333333333 106.6666666666667 448 154.4533333333334 448 213.3333333333334C448 307.6266666666667 362.0266666666667 384 256 384z" /></svg>