<?xml version="1.0" encoding="UTF-8"?><!DOCTYPE svg PUBLIC "-//W3C//DTD SVG 1.1//EN" "http://www.w3.org/Graphics/SVG/1.1/DTD/svg11.dtd"><svg xmlns="http://www.w3.org/2000/svg" xmlns:xlink="http://www.w3.org/1999/xlink" version="1.1" width="512" height="512" viewBox="0 0 512 512">    <path fill="#ffffff" transform="scale(1, -1) translate(0, -448)" glyph-name="artist-outline" unicode="&#xFCC5;" horiz-adv-x="512" d=" M234.6666666666667 362.6666666666667C281.8133333333334 362.6666666666667 320 324.48 320 277.3333333333334S281.8133333333334 192 234.6666666666667 192S149.3333333333333 230.1866666666667 149.3333333333333 277.3333333333334S187.52 362.6666666666667 234.6666666666667 362.6666666666667M234.6666666666667 320C211.2 320 192 300.8 192 277.3333333333334S211.2 234.6666666666667 234.6666666666667 234.6666666666667S277.3333333333333 253.8666666666667 277.3333333333333 277.3333333333334S258.1333333333334 320 234.6666666666667 320M234.6666666666667 170.6666666666667C258.1333333333334 170.6666666666667 291.4133333333333 165.76 322.3466666666667 155.9466666666667C309.3333333333333 147.84 298.6666666666667 136.5333333333334 290.3466666666667 123.0933333333334C272.8533333333333 127.36 253.6533333333333 130.1333333333333 234.6666666666667 130.1333333333333C171.3066666666667 130.1333333333333 104.5333333333333 98.9866666666667 104.5333333333333 85.3333333333334V61.8666666666667H278.1866666666667C280.1066666666667 46.9333333333333 285.44 33.28 293.5466666666667 21.3333333333334H64V85.3333333333334C64 142.0800000000001 177.7066666666667 170.6666666666667 234.6666666666667 170.6666666666667M394.6666666666667 234.6666666666667H469.3333333333333V192H426.6666666666667V74.6666666666667C426.6666666666667 45.2266666666667 402.7733333333333 21.3333333333334 373.3333333333333 21.3333333333334S320 45.2266666666667 320 74.6666666666667S343.8933333333333 128 373.3333333333333 128C381.0133333333333 128 388.0533333333334 126.5066666666667 394.6666666666667 123.52V234.6666666666667z" /></svg>