<?xml version="1.0" encoding="UTF-8"?><!DOCTYPE svg PUBLIC "-//W3C//DTD SVG 1.1//EN" "http://www.w3.org/Graphics/SVG/1.1/DTD/svg11.dtd"><svg xmlns="http://www.w3.org/2000/svg" xmlns:xlink="http://www.w3.org/1999/xlink" version="1.1" width="512" height="512" viewBox="0 0 512 512">    <path fill="#ffffff" transform="scale(1, -1) translate(0, -448)" glyph-name="key-change" unicode="&#xF307;" horiz-adv-x="512" d=" M138.6666666666667 405.3333333333333C180.48 405.3333333333333 216.1066666666666 378.6666666666667 229.12 341.3333333333334H469.3333333333333V277.3333333333334H384V213.3333333333334H320V277.3333333333334H229.12C216.1066666666667 240 180.48 213.3333333333334 138.6666666666667 213.3333333333334C85.3333333333333 213.3333333333334 42.6666666666667 256 42.6666666666667 309.3333333333334S85.3333333333333 405.3333333333333 138.6666666666667 405.3333333333333M138.6666666666667 341.3333333333334C120.96 341.3333333333334 106.6666666666667 327.04 106.6666666666667 309.3333333333334S120.96 277.3333333333334 138.6666666666667 277.3333333333334S170.6666666666667 291.6266666666667 170.6666666666667 309.3333333333334S156.3733333333333 341.3333333333334 138.6666666666667 341.3333333333334M138.6666666666667 170.6666666666667C180.48 170.6666666666667 216.1066666666666 144 229.12 106.6666666666667H469.3333333333333V42.6666666666667H426.6666666666667V-21.3333333333333H384V42.6666666666667H341.3333333333333V-21.3333333333333H277.3333333333333V42.6666666666667H229.12C216.1066666666667 5.3333333333334 180.48 -21.3333333333333 138.6666666666667 -21.3333333333333C85.3333333333333 -21.3333333333333 42.6666666666667 21.3333333333334 42.6666666666667 74.6666666666667S85.3333333333333 170.6666666666667 138.6666666666667 170.6666666666667M138.6666666666667 106.6666666666667C120.96 106.6666666666667 106.6666666666667 92.3733333333333 106.6666666666667 74.6666666666667S120.96 42.6666666666667 138.6666666666667 42.6666666666667S170.6666666666667 56.96 170.6666666666667 74.6666666666667S156.3733333333333 106.6666666666667 138.6666666666667 106.6666666666667z" /></svg>