<?xml version="1.0" encoding="UTF-8"?><!DOCTYPE svg PUBLIC "-//W3C//DTD SVG 1.1//EN" "http://www.w3.org/Graphics/SVG/1.1/DTD/svg11.dtd"><svg xmlns="http://www.w3.org/2000/svg" xmlns:xlink="http://www.w3.org/1999/xlink" version="1.1" width="512" height="512" viewBox="0 0 512 512">    <path fill="#ffffff" transform="scale(1, -1) translate(0, -448)" glyph-name="help-network-outline" unicode="&#xFC66;" horiz-adv-x="512" d=" M320 21.3333333333334C320 33.0666666666667 310.4 42.6666666666667 298.6666666666667 42.6666666666667H277.3333333333333V85.3333333333334H362.6666666666667C386.1333333333334 85.3333333333334 405.3333333333333 104.5333333333333 405.3333333333333 128V341.3333333333334C405.3333333333333 364.8 386.1333333333334 384 362.6666666666667 384H149.3333333333333C125.8666666666667 384 106.6666666666667 364.8 106.6666666666667 341.3333333333334V128C106.6666666666667 104.5333333333333 125.8666666666667 85.3333333333334 149.3333333333333 85.3333333333334H234.6666666666667V42.6666666666667H213.3333333333333C201.6 42.6666666666667 192 33.0666666666667 192 21.3333333333334H42.6666666666667V-21.3333333333333H192C192 -33.0666666666667 201.6 -42.6666666666666 213.3333333333333 -42.6666666666666H298.6666666666667C310.4 -42.6666666666666 320 -33.0666666666667 320 -21.3333333333333H469.3333333333333V21.3333333333334H320M149.3333333333333 128V341.3333333333334H362.6666666666667V128H149.3333333333333M254.9333333333333 320C238.2933333333333 320 225.0666666666666 316.1600000000001 214.8266666666667 309.3333333333334C205.0133333333333 301.0133333333333 200.1066666666667 290.1333333333334 200.32 275.2000000000001L200.5333333333333 274.5600000000001H237.0133333333333C237.2266666666667 280.3200000000001 238.9333333333333 284.8000000000001 242.3466666666667 288C245.3333333333333 290.5600000000001 250.0266666666667 292.0533333333334 254.9333333333333 292.0533333333334C260.6933333333333 292.0533333333334 265.6 290.1333333333334 269.0133333333333 286.7200000000001C272.4266666666666 283.0933333333334 274.1333333333334 278.1866666666667 274.1333333333334 272.6400000000001C274.1333333333334 266.6666666666668 272.64 261.3333333333334 269.6533333333333 257.0666666666667C266.6666666666667 252.5866666666667 263.04 248.96 258.1333333333333 245.3333333333334C248.5333333333333 239.36 241.92 233.6 238.2933333333333 228.48C234.6666666666667 224 232.32 215.68 232.32 206.2933333333334H270.2933333333333C270.2933333333333 212.0533333333334 270.9333333333333 216.7466666666667 272.64 220.1600000000001C274.3466666666666 224.0000000000001 277.3333333333333 226.9866666666668 282.4533333333333 230.1866666666667C290.9866666666666 234.6666666666668 298.0266666666667 240.2133333333334 303.36 247.6800000000001C309.3333333333333 255.3600000000001 311.8933333333333 263.0400000000001 311.8933333333333 272.6400000000001C311.8933333333333 286.9333333333334 306.7733333333333 298.6666666666668 296.5333333333333 306.9866666666668C286.2933333333333 315.7333333333334 272.4266666666666 320.0000000000001 254.9333333333333 320.0000000000001M232.32 187.3066666666668V149.3333333333334H270.2933333333333V187.3066666666667H232.32z" /></svg>