<?xml version="1.0" encoding="UTF-8"?><!DOCTYPE svg PUBLIC "-//W3C//DTD SVG 1.1//EN" "http://www.w3.org/Graphics/SVG/1.1/DTD/svg11.dtd"><svg xmlns="http://www.w3.org/2000/svg" xmlns:xlink="http://www.w3.org/1999/xlink" version="1.1" width="512" height="512" viewBox="0 0 512 512">    <path fill="#ffffff" transform="scale(1, -1) translate(0, -448)" glyph-name="opacity" unicode="&#xF5CC;" horiz-adv-x="512" d=" M376.7466666666667 277.3333333333334L256 397.8666666666667L135.2533333333333 277.3333333333334C101.9733333333333 244.0533333333334 85.3333333333333 199.68 85.3333333333333 157.0133333333333C85.3333333333333 114.3466666666667 101.9733333333333 69.3333333333334 135.2533333333333 36.0533333333333C168.5333333333333 2.7733333333333 212.2666666666667 -14.08 256 -14.08C299.7333333333334 -14.08 343.4666666666667 2.7733333333333 376.7466666666667 36.0533333333333C410.0266666666667 69.3333333333333 426.6666666666667 114.3466666666666 426.6666666666667 157.0133333333333S410.0266666666667 244.0533333333334 376.7466666666667 277.3333333333334M128 149.3333333333334C128 192 141.2266666666667 219.0933333333333 165.5466666666667 243.2L256 335.5733333333334L346.4533333333334 242.1333333333334C370.7733333333333 218.24 384 192 384 149.3333333333334H128z" /></svg>