<?xml version="1.0" encoding="UTF-8"?><!DOCTYPE svg PUBLIC "-//W3C//DTD SVG 1.1//EN" "http://www.w3.org/Graphics/SVG/1.1/DTD/svg11.dtd"><svg xmlns="http://www.w3.org/2000/svg" xmlns:xlink="http://www.w3.org/1999/xlink" version="1.1" width="512" height="512" viewBox="0 0 512 512">    <path fill="#ffffff" transform="scale(1, -1) translate(0, -448)" glyph-name="ticket-percent" unicode="&#xF723;" horiz-adv-x="512" d=" M85.3333333333333 362.6666666666667C61.8666666666667 362.6666666666667 42.6666666666667 343.4666666666667 42.6666666666667 320V234.6666666666667C66.3466666666667 234.6666666666667 85.3333333333333 215.4666666666667 85.3333333333333 192S66.1333333333333 149.3333333333334 42.6666666666667 149.3333333333334V64C42.6666666666667 40.5333333333333 61.8666666666667 21.3333333333334 85.3333333333333 21.3333333333334H426.6666666666667C450.1333333333334 21.3333333333334 469.3333333333333 40.5333333333333 469.3333333333333 64V149.3333333333334C445.8666666666666 149.3333333333334 426.6666666666667 168.5333333333334 426.6666666666667 192C426.6666666666667 215.68 445.8666666666666 234.6666666666667 469.3333333333333 234.6666666666667V320C469.3333333333333 343.68 450.1333333333334 362.6666666666667 426.6666666666667 362.6666666666667H85.3333333333333M330.6666666666667 298.6666666666667L362.6666666666667 266.6666666666667L181.3333333333333 85.3333333333334L149.3333333333333 117.3333333333334L330.6666666666667 298.6666666666667M187.9466666666666 297.8133333333334C208.8533333333333 297.8133333333334 225.7066666666666 280.9600000000001 225.7066666666666 260.0533333333334S208.8533333333333 222.2933333333334 187.9466666666666 222.2933333333334S150.1866666666667 239.1466666666667 150.1866666666667 260.0533333333334S167.04 297.8133333333334 187.9466666666666 297.8133333333334M324.0533333333333 161.7066666666667C344.9599999999999 161.7066666666667 361.8133333333333 144.8533333333334 361.8133333333333 123.9466666666667S344.9599999999999 86.1866666666667 324.0533333333333 86.1866666666667S286.2933333333333 103.04 286.2933333333333 123.9466666666667S303.1466666666666 161.7066666666667 324.0533333333333 161.7066666666667z" /></svg>