<?xml version="1.0" encoding="UTF-8"?><!DOCTYPE svg PUBLIC "-//W3C//DTD SVG 1.1//EN" "http://www.w3.org/Graphics/SVG/1.1/DTD/svg11.dtd"><svg xmlns="http://www.w3.org/2000/svg" xmlns:xlink="http://www.w3.org/1999/xlink" version="1.1" width="512" height="512" viewBox="0 0 512 512">    <path fill="#ffffff" transform="scale(1, -1) translate(0, -448)" glyph-name="calculator-variant" unicode="&#xFA99;" horiz-adv-x="512" d=" M192 405.3333333333333H85.3333333333333C61.8666666666667 405.3333333333333 42.6666666666667 386.1333333333334 42.6666666666667 362.6666666666667V256C42.6666666666667 232.5333333333334 61.8666666666667 213.3333333333334 85.3333333333333 213.3333333333334H192C215.4666666666667 213.3333333333334 234.6666666666667 232.5333333333334 234.6666666666667 256V362.6666666666667C234.6666666666667 386.1333333333334 215.4666666666667 405.3333333333333 192 405.3333333333333M192 298.6666666666667H85.3333333333333V320H192V298.6666666666667M426.6666666666667 170.6666666666667H320C296.5333333333333 170.6666666666667 277.3333333333333 151.4666666666667 277.3333333333333 128V21.3333333333334C277.3333333333333 -2.1333333333333 296.5333333333333 -21.3333333333333 320 -21.3333333333333H426.6666666666667C450.1333333333334 -21.3333333333333 469.3333333333333 -2.1333333333333 469.3333333333333 21.3333333333334V128C469.3333333333333 151.4666666666667 450.1333333333334 170.6666666666667 426.6666666666667 170.6666666666667M426.6666666666667 42.6666666666667H320V64H426.6666666666667V42.6666666666667M426.6666666666667 85.3333333333334H320V106.6666666666667H426.6666666666667V85.3333333333334M426.6666666666667 405.3333333333333H320C296.5333333333333 405.3333333333333 277.3333333333333 386.1333333333334 277.3333333333333 362.6666666666667V256C277.3333333333333 232.5333333333334 296.5333333333333 213.3333333333334 320 213.3333333333334H426.6666666666667C450.1333333333334 213.3333333333334 469.3333333333333 232.5333333333334 469.3333333333333 256V362.6666666666667C469.3333333333333 386.1333333333334 450.1333333333334 405.3333333333333 426.6666666666667 405.3333333333333M426.6666666666667 298.6666666666667H384V256H362.6666666666667V298.6666666666667H320V320H362.6666666666667V362.6666666666667H384V320H426.6666666666667V298.6666666666667M192 170.6666666666667H85.3333333333333C61.8666666666667 170.6666666666667 42.6666666666667 151.4666666666667 42.6666666666667 128V21.3333333333334C42.6666666666667 -2.1333333333333 61.8666666666667 -21.3333333333333 85.3333333333333 -21.3333333333333H192C215.4666666666667 -21.3333333333333 234.6666666666667 -2.1333333333333 234.6666666666667 21.3333333333334V128C234.6666666666667 151.4666666666667 215.4666666666667 170.6666666666667 192 170.6666666666667M183.8933333333333 44.5866666666667L168.7466666666667 29.44L138.6666666666666 59.52L108.5866666666667 29.44L93.44 44.5866666666667L123.52 74.6666666666667L93.44 104.7466666666667L108.5866666666667 119.8933333333334L138.6666666666666 89.8133333333334L168.7466666666667 119.8933333333334L183.8933333333333 104.7466666666667L153.8133333333333 74.6666666666667L183.8933333333333 44.5866666666667z" /></svg>