<?xml version="1.0" encoding="UTF-8"?><!DOCTYPE svg PUBLIC "-//W3C//DTD SVG 1.1//EN" "http://www.w3.org/Graphics/SVG/1.1/DTD/svg11.dtd"><svg xmlns="http://www.w3.org/2000/svg" xmlns:xlink="http://www.w3.org/1999/xlink" version="1.1" width="512" height="512" viewBox="0 0 512 512">    <path fill="#ffffff" transform="scale(1, -1) translate(0, -448)" glyph-name="guitar-pick" unicode="&#xF2C5;" horiz-adv-x="512" d=" M405.3333333333333 360.5333333333334C386.1333333333334 377.6 362.6666666666667 388.2666666666667 337.0666666666667 394.6666666666667C330.6666666666667 396.8 290.1333333333334 405.3333333333334 260.2666666666667 405.3333333333334H256H251.7333333333334C221.8666666666667 405.3333333333334 179.2 396.8 172.8 394.6666666666667C149.3333333333334 388.2666666666667 125.8666666666667 377.6 106.6666666666667 360.5333333333334C64 322.1333333333334 64 262.4000000000001 85.3333333333333 213.3333333333334C106.6666666666667 160 130.1333333333333 113.0666666666667 162.1333333333333 66.1333333333334C187.7333333333334 29.8666666666667 215.4666666666667 -21.3333333333333 256 -21.3333333333333C296.5333333333333 -21.3333333333333 324.2666666666667 29.8666666666667 352 66.1333333333334C384 110.9333333333334 407.4666666666667 160.0000000000001 428.8 213.3333333333334C448 262.4000000000001 448 322.1333333333334 405.3333333333333 360.5333333333334z" /></svg>