<?xml version="1.0" encoding="UTF-8"?><!DOCTYPE svg PUBLIC "-//W3C//DTD SVG 1.1//EN" "http://www.w3.org/Graphics/SVG/1.1/DTD/svg11.dtd"><svg xmlns="http://www.w3.org/2000/svg" xmlns:xlink="http://www.w3.org/1999/xlink" version="1.1" width="512" height="512" viewBox="0 0 512 512">    <path fill="#ffffff" transform="scale(1, -1) translate(0, -448)" glyph-name="timer" unicode="&#xF51B;" horiz-adv-x="512" d=" M256 21.3333333333334C173.44 21.3333333333334 106.6666666666667 88.1066666666667 106.6666666666667 170.6666666666667S173.44 320 256 320S405.3333333333333 253.2266666666667 405.3333333333333 170.6666666666667S338.56 21.3333333333334 256 21.3333333333334M405.9733333333334 290.3466666666667L436.2666666666667 320.64C426.6666666666668 331.52 417.0666666666667 341.3333333333333 406.1866666666667 350.7200000000001L375.8933333333333 320C342.8266666666667 346.88 301.2266666666667 362.6666666666667 256 362.6666666666667C149.9733333333333 362.6666666666667 64 276.6933333333334 64 170.6666666666667S149.9733333333333 -21.3333333333333 256 -21.3333333333333C362.6666666666667 -21.3333333333333 448 64.64 448 170.6666666666667C448 215.8933333333334 432.2133333333334 257.4933333333334 405.9733333333334 290.3466666666667M234.6666666666667 149.3333333333334H277.3333333333333V277.3333333333334H234.6666666666667M320 426.6666666666667H192V384H320V426.6666666666667z" /></svg>