<?xml version="1.0" encoding="UTF-8"?><!DOCTYPE svg PUBLIC "-//W3C//DTD SVG 1.1//EN" "http://www.w3.org/Graphics/SVG/1.1/DTD/svg11.dtd"><svg xmlns="http://www.w3.org/2000/svg" xmlns:xlink="http://www.w3.org/1999/xlink" version="1.1" width="512" height="512" viewBox="0 0 512 512">    <path fill="#ffffff" transform="scale(1, -1) translate(0, -448)" glyph-name="cctv" unicode="&#xF7AD;" horiz-adv-x="512" d=" M387.2 342.6133333333334C379.0933333333333 343.2533333333334 370.56 341.3333333333334 362.6666666666667 337.0666666666667L178.1333333333333 230.4000000000001C157.6533333333333 218.4533333333334 150.8266666666667 192 162.56 171.9466666666667L194.56 116.6933333333334C206.2933333333333 96 232.32 89.1733333333334 252.8 100.9066666666667L291.2 123.0933333333334C296.96 113.28 305.4933333333334 105.3866666666667 315.9466666666667 100.9066666666667V63.1466666666667C315.9466666666667 39.8933333333334 334.9333333333334 21.3333333333334 358.6133333333334 21.3333333333334H469.3333333333333V63.1466666666667H358.6133333333333V100.9066666666667C378.0266666666667 109.4400000000001 390.6133333333333 128.6400000000001 390.6133333333333 149.3333333333334C390.6133333333333 159.1466666666667 388.0533333333333 168.3200000000001 383.36 176.4266666666667L437.3333333333333 207.5733333333334C458.0266666666666 219.5200000000001 465.0666666666667 245.3333333333334 453.1199999999999 266.0266666666667L421.12 321.2800000000001C413.8666666666666 334.0800000000001 400.8533333333333 341.3333333333334 387.2 342.6133333333334M132.6933333333333 167.04L42.6666666666667 152.1066666666667L58.6666666666667 124.3733333333333L101.3333333333333 50.5600000000001L117.3333333333333 22.8266666666667L175.36 93.2266666666667L132.6933333333333 167.0400000000001z" /></svg>