<?xml version="1.0" encoding="UTF-8"?><!DOCTYPE svg PUBLIC "-//W3C//DTD SVG 1.1//EN" "http://www.w3.org/Graphics/SVG/1.1/DTD/svg11.dtd"><svg xmlns="http://www.w3.org/2000/svg" xmlns:xlink="http://www.w3.org/1999/xlink" version="1.1" width="512" height="512" viewBox="0 0 512 512">    <path fill="#ffffff" transform="scale(1, -1) translate(0, -448)" glyph-name="currency-btc" unicode="&#xF1AC;" horiz-adv-x="512" d=" M128 362.6666666666667H170.6666666666667V405.3333333333333H213.3333333333333V362.6666666666667H256V405.3333333333333H298.6666666666667V362.0266666666667C346.6666666666667 356.6933333333334 384 316.1600000000001 384 266.6666666666667C384 238.9333333333334 372.2666666666667 213.3333333333334 353.28 196.2666666666667C378.2399999999999 178.9866666666667 394.6666666666667 149.9733333333334 394.6666666666667 117.3333333333334C394.6666666666667 64 352 21.3333333333334 298.6666666666667 21.3333333333334V-21.3333333333333H256V21.3333333333334H213.3333333333333V-21.3333333333333H170.6666666666667V21.3333333333334H128L138.6666666666667 64H170.6666666666667V320H128V362.6666666666667M213.3333333333333 170.6666666666667V64H298.6666666666667C328.1066666666667 64 352 87.8933333333334 352 117.3333333333334S328.1066666666667 170.6666666666667 298.6666666666667 170.6666666666667H213.3333333333333M213.3333333333333 320V213.3333333333334H288C317.44 213.3333333333334 341.3333333333333 237.2266666666667 341.3333333333333 266.6666666666667S317.44 320 288 320H213.3333333333333z" /></svg>