<?xml version="1.0" encoding="UTF-8"?><!DOCTYPE svg PUBLIC "-//W3C//DTD SVG 1.1//EN" "http://www.w3.org/Graphics/SVG/1.1/DTD/svg11.dtd"><svg xmlns="http://www.w3.org/2000/svg" xmlns:xlink="http://www.w3.org/1999/xlink" version="1.1" width="512" height="512" viewBox="0 0 512 512">    <path fill="#ffffff" transform="scale(1, -1) translate(0, -448)" glyph-name="fountain-pen" unicode="&#xFCEE;" horiz-adv-x="512" d=" M148.2666666666667 129.4933333333334L238.7200000000001 250.24L419.84 401.0666666666667C428.16 409.3866666666667 442.0266666666667 409.3866666666667 449.92 401.0666666666667L465.0666666666667 385.92C473.3866666666667 378.0266666666667 473.3866666666667 364.1600000000001 465.0666666666667 355.8400000000001L314.24 174.72L193.4933333333334 84.2666666666668L148.2666666666667 129.4933333333335M178.3466666666666 69.1200000000001L133.12 114.3466666666668L72.7466666666666 84.2666666666668L42.6666666666667 -6.1866666666666L87.8933333333333 39.0400000000001C92.16 42.6666666666667 98.7733333333333 42.6666666666667 103.04 39.0400000000001C106.6666666666667 34.7733333333334 106.6666666666667 28.16 103.04 23.8933333333334L57.8133333333333 -21.3333333333333L148.2666666666667 8.7466666666667L178.3466666666666 69.1200000000001z" /></svg>