<?xml version="1.0" encoding="UTF-8"?><!DOCTYPE svg PUBLIC "-//W3C//DTD SVG 1.1//EN" "http://www.w3.org/Graphics/SVG/1.1/DTD/svg11.dtd"><svg xmlns="http://www.w3.org/2000/svg" xmlns:xlink="http://www.w3.org/1999/xlink" version="1.1" width="512" height="512" viewBox="0 0 512 512">    <path fill="#ffffff" transform="scale(1, -1) translate(0, -448)" glyph-name="ferry" unicode="&#xF213;" horiz-adv-x="512" d=" M128 320H384V235.52L256 277.3333333333334L128 235.52M84.0533333333333 42.6666666666667H85.3333333333333C119.4666666666667 42.6666666666667 149.3333333333333 61.44 170.6666666666667 85.3333333333334C192 61.44 221.8666666666667 42.6666666666667 256 42.6666666666667S320 61.44 341.3333333333333 85.3333333333334C362.6666666666667 61.44 392.5333333333333 42.6666666666667 426.6666666666667 42.6666666666667H427.7333333333334L468.2666666666667 185.3866666666667C469.9733333333332 190.72 469.3333333333333 196.6933333333334 466.9866666666667 201.8133333333334C464.2133333333334 206.9333333333334 459.7333333333333 210.7733333333334 454.1866666666666 212.48L426.6666666666667 221.44V320C426.6666666666667 343.68 407.4666666666667 362.6666666666667 384 362.6666666666667H320V426.6666666666667H192V362.6666666666667H128C104.5333333333333 362.6666666666667 85.3333333333333 343.4666666666667 85.3333333333333 320V221.44L57.8133333333333 212.48C52.2666666666667 210.7733333333333 47.7866666666667 206.9333333333333 45.0133333333333 201.8133333333333C42.6666666666667 196.6933333333333 42.0266666666667 190.72 43.7333333333333 185.3866666666667M426.6666666666667 0C397.0133333333333 0 367.36 10.0266666666666 341.3333333333333 28.3733333333333C289.28 -8.1066666666667 222.72 -8.1066666666667 170.6666666666667 28.3733333333333C144.64 10.0266666666666 114.9866666666667 0 85.3333333333333 0H42.6666666666667V-42.6666666666666H85.3333333333333C114.56 -42.6666666666666 143.7866666666667 -35.1999999999999 170.6666666666667 -21.3333333333333C224 -49.0666666666667 288 -49.0666666666667 341.3333333333333 -21.3333333333333C368.2133333333334 -35.1999999999999 397.2266666666667 -42.6666666666666 426.6666666666667 -42.6666666666666H469.3333333333333V0H426.6666666666667z" /></svg>