<?xml version="1.0" encoding="UTF-8"?><!DOCTYPE svg PUBLIC "-//W3C//DTD SVG 1.1//EN" "http://www.w3.org/Graphics/SVG/1.1/DTD/svg11.dtd"><svg xmlns="http://www.w3.org/2000/svg" xmlns:xlink="http://www.w3.org/1999/xlink" version="1.1" width="512" height="512" viewBox="0 0 512 512">    <path fill="#ffffff" transform="scale(1, -1) translate(0, -448)" glyph-name="origin" unicode="&#xFB2B;" horiz-adv-x="512" d=" M256 402.56C256 400.4266666666667 254.9333333333333 398.2933333333334 253.6533333333334 396.5866666666667C245.3333333333333 384 238.08 370.3466666666667 235.52 355.6266666666667L234.6666666666667 350.7200000000001L256 352C344.32 352 416 280.32 416 192C416 157.44 405.3333333333333 125.6533333333334 386.56 99.4133333333334C356.9066666666667 49.4933333333333 314.0266666666667 7.4666666666667 263.2533333333334 -20.6933333333333C261.3333333333333 -21.3333333333333 258.56 -21.3333333333333 257.28 -19.84C256 -17.7066666666666 256 -14.9333333333333 257.92 -13.0133333333333C266.0266666666667 -1.92 271.5733333333333 10.6666666666667 274.56 24.5333333333334L275.84 33.2800000000001L256 32.0000000000001C167.68 32.0000000000001 96 103.6800000000001 96 192.0000000000001C96 226.3466666666668 106.6666666666667 258.3466666666668 125.44 284.3733333333335C154.88 334.5066666666667 197.9733333333333 376.7466666666667 248.96 405.3333333333333C251.3066666666667 406.4 254.72 405.3333333333333 256 402.56M256 256C220.5866666666667 256 192 227.4133333333334 192 192S220.5866666666667 128 256 128S320 156.5866666666667 320 192S291.4133333333333 256 256 256z" /></svg>