<?xml version="1.0" encoding="UTF-8"?><!DOCTYPE svg PUBLIC "-//W3C//DTD SVG 1.1//EN" "http://www.w3.org/Graphics/SVG/1.1/DTD/svg11.dtd"><svg xmlns="http://www.w3.org/2000/svg" xmlns:xlink="http://www.w3.org/1999/xlink" version="1.1" width="512" height="512" viewBox="0 0 512 512">    <path fill="#ffffff" transform="scale(1, -1) translate(0, -448)" glyph-name="video-off-outline" unicode="&#xFBB7;" horiz-adv-x="512" d=" M72.7466666666667 408.32L42.6666666666667 378.24L100.9066666666667 320H85.3333333333333C73.6 320 64 310.4 64 298.6666666666667V85.3333333333334C64 73.6 73.6 64 85.3333333333333 64H341.3333333333333C345.8133333333334 64 349.6533333333333 65.7066666666667 353.0666666666667 67.84L420.9066666666667 0L450.9866666666667 30.08L261.9733333333334 219.0933333333333L72.7466666666667 408.32M106.6666666666667 106.6666666666667V277.3333333333334H143.5733333333333L314.24 106.6666666666667H106.6666666666667M320 277.3333333333334V221.6533333333334L448 93.6533333333334V309.3333333333334L362.6666666666667 224V298.6666666666667C362.6666666666667 310.4 353.0666666666667 320 341.3333333333333 320H221.6533333333333L264.32 277.3333333333334H320z" /></svg>