<?xml version="1.0" encoding="UTF-8"?><!DOCTYPE svg PUBLIC "-//W3C//DTD SVG 1.1//EN" "http://www.w3.org/Graphics/SVG/1.1/DTD/svg11.dtd"><svg xmlns="http://www.w3.org/2000/svg" xmlns:xlink="http://www.w3.org/1999/xlink" version="1.1" width="512" height="512" viewBox="0 0 512 512">    <path fill="#ffffff" transform="scale(1, -1) translate(0, -448)" glyph-name="bell-off-outline" unicode="&#xFA90;" horiz-adv-x="512" d=" M471.6799999999999 -9.8133333333333L50.9866666666667 411.0933333333334L23.68 384L124.3733333333333 283.3066666666667C112.8533333333333 261.76 106.6666666666667 237.6533333333334 106.6666666666667 213.3333333333334V85.3333333333334L64 42.6666666666667V21.3333333333334H386.3466666666667L444.5866666666667 -36.9066666666666L471.6799999999999 -9.8133333333333M149.3333333333333 64V213.3333333333334C149.3333333333333 226.3466666666667 151.68 239.1466666666667 156.5866666666667 251.0933333333334L343.68 64H149.3333333333333M213.3333333333333 0H298.6666666666667C298.6666666666667 -23.4666666666667 279.4666666666667 -42.6666666666666 256 -42.6666666666666S213.3333333333333 -23.4666666666667 213.3333333333333 0M176.8533333333333 339.4133333333334C188.16 346.6666666666667 200.5333333333333 352 213.3333333333333 356.48V362.6666666666667C213.3333333333333 386.1333333333334 232.5333333333334 405.3333333333333 256 405.3333333333333S298.6666666666667 386.1333333333334 298.6666666666667 362.6666666666667V356.48C362.0266666666667 337.7066666666667 405.3333333333333 279.4666666666667 405.3333333333333 213.3333333333334V110.9333333333333L362.6666666666667 153.6V213.3333333333334C362.6666666666667 272.2133333333334 314.88 320 256 320C239.36 320 222.9333333333333 315.7333333333334 208.2133333333333 308.0533333333334L176.8533333333333 339.4133333333334z" /></svg>