<?xml version="1.0" encoding="UTF-8"?><!DOCTYPE svg PUBLIC "-//W3C//DTD SVG 1.1//EN" "http://www.w3.org/Graphics/SVG/1.1/DTD/svg11.dtd"><svg xmlns="http://www.w3.org/2000/svg" xmlns:xlink="http://www.w3.org/1999/xlink" version="1.1" width="512" height="512" viewBox="0 0 512 512">    <path fill="#ffffff" transform="scale(1, -1) translate(0, -448)" glyph-name="puzzle" unicode="&#xF431;" horiz-adv-x="512" d=" M437.3333333333333 213.3333333333334H405.3333333333333V298.6666666666667C405.3333333333333 322.3466666666667 386.1333333333334 341.3333333333334 362.6666666666667 341.3333333333334H277.3333333333333V373.3333333333334C277.3333333333333 402.7733333333333 253.44 426.6666666666667 224 426.6666666666667S170.6666666666667 402.7733333333333 170.6666666666667 373.3333333333334V341.3333333333334H85.3333333333333C61.8666666666667 341.3333333333334 42.6666666666667 322.1333333333334 42.6666666666667 298.6666666666667V217.6H74.6666666666667C106.6666666666667 217.6 132.2666666666667 192 132.2666666666667 160C132.2666666666667 128 106.6666666666667 102.4 74.6666666666667 102.4H42.6666666666667V21.3333333333334C42.6666666666667 -2.1333333333333 61.8666666666667 -21.3333333333333 85.3333333333333 -21.3333333333333H166.4V10.6666666666667C166.4 42.6666666666667 192 68.2666666666667 224 68.2666666666667C256 68.2666666666667 281.6 42.6666666666667 281.6 10.6666666666667V-21.3333333333333H362.6666666666667C386.1333333333334 -21.3333333333333 405.3333333333333 -2.1333333333333 405.3333333333333 21.3333333333334V106.6666666666667H437.3333333333333C466.7733333333333 106.6666666666667 490.6666666666666 130.5600000000001 490.6666666666666 160S466.7733333333333 213.3333333333334 437.3333333333333 213.3333333333334z" /></svg>