<?xml version="1.0" encoding="UTF-8"?><!DOCTYPE svg PUBLIC "-//W3C//DTD SVG 1.1//EN" "http://www.w3.org/Graphics/SVG/1.1/DTD/svg11.dtd"><svg xmlns="http://www.w3.org/2000/svg" xmlns:xlink="http://www.w3.org/1999/xlink" version="1.1" width="512" height="512" viewBox="0 0 512 512">    <path fill="#ffffff" transform="scale(1, -1) translate(0, -448)" glyph-name="folder-pound-outline" unicode="&#xFCE6;" horiz-adv-x="512" d=" M426.6666666666667 64H85.3333333333333V277.3333333333334H426.6666666666667M426.6666666666667 320H256L213.3333333333333 362.6666666666667H85.3333333333333C61.6533333333333 362.6666666666667 42.6666666666667 343.68 42.6666666666667 320V64C42.6666666666667 40.5333333333333 61.8666666666667 21.3333333333334 85.3333333333333 21.3333333333334H426.6666666666667C450.1333333333334 21.3333333333334 469.3333333333333 40.5333333333333 469.3333333333333 64V277.3333333333334C469.3333333333333 301.0133333333333 450.1333333333334 320 426.6666666666667 320M405.3333333333333 192V213.3333333333334H373.3333333333333L384 256H362.6666666666667L352 213.3333333333334H309.3333333333333L320 256H298.6666666666667L288 213.3333333333334H256V192H282.6666666666667L272 149.3333333333334H234.6666666666667V128H266.6666666666667L256 85.3333333333334H277.3333333333333L288 128H330.6666666666667L320 85.3333333333334H341.3333333333333L352 128H384V149.3333333333334H357.3333333333333L368 192H405.3333333333333M336 149.3333333333334H293.3333333333333L304 192H346.6666666666667L336 149.3333333333334z" /></svg>