<?xml version="1.0" encoding="UTF-8"?><!DOCTYPE svg PUBLIC "-//W3C//DTD SVG 1.1//EN" "http://www.w3.org/Graphics/SVG/1.1/DTD/svg11.dtd"><svg xmlns="http://www.w3.org/2000/svg" xmlns:xlink="http://www.w3.org/1999/xlink" version="1.1" width="512" height="512" viewBox="0 0 512 512">    <path fill="#ffffff" transform="scale(1, -1) translate(0, -448)" glyph-name="face-recognition" unicode="&#xFC57;" horiz-adv-x="512" d=" M192 197.3333333333334C177.28 197.3333333333334 165.3333333333333 185.3866666666667 165.3333333333333 170.6666666666667S177.28 144 192 144S218.6666666666667 155.9466666666667 218.6666666666667 170.6666666666667S206.72 197.3333333333334 192 197.3333333333334M320 197.3333333333334C305.28 197.3333333333334 293.3333333333333 185.3866666666667 293.3333333333333 170.6666666666667S305.28 144 320 144S346.6666666666667 155.9466666666667 346.6666666666667 170.6666666666667S334.72 197.3333333333334 320 197.3333333333334M256 405.3333333333333C138.24 405.3333333333333 42.6666666666667 309.76 42.6666666666667 192S138.24 -21.3333333333333 256 -21.3333333333333S469.3333333333333 74.24 469.3333333333333 192S373.76 405.3333333333333 256 405.3333333333333M256 21.3333333333334C161.7066666666667 21.3333333333334 85.3333333333333 97.7066666666667 85.3333333333333 192C84.6933333333333 198.1866666666667 84.6933333333333 204.16 85.3333333333333 210.3466666666667C136.1066666666667 232.5333333333333 176.4266666666667 273.7066666666667 197.5466666666667 324.9066666666667C237.44 268.3733333333334 302.2933333333333 234.6666666666667 371.6266666666667 234.6666666666667C387.8400000000001 234.6666666666667 403.8400000000001 236.5866666666667 419.6266666666667 240.2133333333334C446.2933333333334 149.3333333333334 394.6666666666667 54.8266666666667 304.2133333333334 28.3733333333333C288 23.68 272.2133333333334 21.3333333333334 256 21.3333333333334M0 405.3333333333333C0 428.8 19.2 448 42.6666666666667 448H128V405.3333333333333H42.6666666666667V320H0V405.3333333333333M512 -21.3333333333333C512 -44.8 492.8 -64 469.3333333333333 -64H384V-21.3333333333333H469.3333333333333V64H512V-21.3333333333333M42.6666666666667 -64C19.2 -64 0 -44.8 0 -21.3333333333333V64H42.6666666666667V-21.3333333333333H128V-64H42.6666666666667M469.3333333333333 448C492.8 448 512 428.8 512 405.3333333333333V320H469.3333333333333V405.3333333333333H384V448H469.3333333333333z" /></svg>