<?xml version="1.0" encoding="UTF-8"?><!DOCTYPE svg PUBLIC "-//W3C//DTD SVG 1.1//EN" "http://www.w3.org/Graphics/SVG/1.1/DTD/svg11.dtd"><svg xmlns="http://www.w3.org/2000/svg" xmlns:xlink="http://www.w3.org/1999/xlink" version="1.1" width="512" height="512" viewBox="0 0 512 512">    <path fill="#ffffff" transform="scale(1, -1) translate(0, -448)" glyph-name="periodic-table" unicode="&#xF8B5;" horiz-adv-x="512" d=" M42.6666666666667 362.6666666666667V320H85.3333333333333V362.6666666666667H42.6666666666667M426.6666666666667 362.6666666666667V320H469.3333333333333V362.6666666666667H426.6666666666667M42.6666666666667 298.6666666666667V256H85.3333333333333V298.6666666666667H42.6666666666667M106.6666666666667 298.6666666666667V256H149.3333333333333V298.6666666666667H106.6666666666667M298.6666666666667 298.6666666666667V256H341.3333333333333V298.6666666666667H298.6666666666667M362.6666666666667 298.6666666666667V256H405.3333333333333V298.6666666666667H362.6666666666667M426.6666666666667 298.6666666666667V256H469.3333333333333V298.6666666666667H426.6666666666667M42.6666666666667 234.6666666666667V192H85.3333333333333V234.6666666666667H42.6666666666667M106.6666666666667 234.6666666666667V192H149.3333333333333V234.6666666666667H106.6666666666667M170.6666666666667 234.6666666666667V192H213.3333333333333V234.6666666666667H170.6666666666667M234.6666666666667 234.6666666666667V192H277.3333333333333V234.6666666666667H234.6666666666667M298.6666666666667 234.6666666666667V192H341.3333333333333V234.6666666666667H298.6666666666667M362.6666666666667 234.6666666666667V192H405.3333333333333V234.6666666666667H362.6666666666667M426.6666666666667 234.6666666666667V192H469.3333333333333V234.6666666666667H426.6666666666667M42.6666666666667 170.6666666666667V128H85.3333333333333V170.6666666666667H42.6666666666667M106.6666666666667 170.6666666666667V128H149.3333333333333V170.6666666666667H106.6666666666667M170.6666666666667 170.6666666666667V128H213.3333333333333V170.6666666666667H170.6666666666667M234.6666666666667 170.6666666666667V128H277.3333333333333V170.6666666666667H234.6666666666667M298.6666666666667 170.6666666666667V128H341.3333333333333V170.6666666666667H298.6666666666667M362.6666666666667 170.6666666666667V128H405.3333333333333V170.6666666666667H362.6666666666667M426.6666666666667 170.6666666666667V128H469.3333333333333V170.6666666666667H426.6666666666667M106.6666666666667 85.3333333333334V42.6666666666667H149.3333333333333V85.3333333333334H106.6666666666667M170.6666666666667 85.3333333333334V42.6666666666667H213.3333333333333V85.3333333333334H170.6666666666667M234.6666666666667 85.3333333333334V42.6666666666667H277.3333333333333V85.3333333333334H234.6666666666667M298.6666666666667 85.3333333333334V42.6666666666667H341.3333333333333V85.3333333333334H298.6666666666667M362.6666666666667 85.3333333333334V42.6666666666667H405.3333333333333V85.3333333333334H362.6666666666667z" /></svg>