<?xml version="1.0" encoding="UTF-8"?><!DOCTYPE svg PUBLIC "-//W3C//DTD SVG 1.1//EN" "http://www.w3.org/Graphics/SVG/1.1/DTD/svg11.dtd"><svg xmlns="http://www.w3.org/2000/svg" xmlns:xlink="http://www.w3.org/1999/xlink" version="1.1" width="512" height="512" viewBox="0 0 512 512">    <path fill="#ffffff" transform="scale(1, -1) translate(0, -448)" glyph-name="watch-import" unicode="&#xF58B;" horiz-adv-x="512" d=" M42.6666666666667 213.3333333333334H149.3333333333333L96 266.6666666666667L126.2933333333333 296.9600000000001L231.2533333333334 192L126.2933333333333 87.04L96 117.3333333333334L149.3333333333333 170.6666666666667H42.6666666666667V213.3333333333334M256 64C326.6133333333334 64 384 121.3866666666667 384 192S326.6133333333334 320 256 320C226.1333333333334 320 198.6133333333334 309.3333333333334 176.8533333333333 292.48L146.56 322.7733333333333L150.4 325.76L170.6666666666667 448H341.3333333333333L361.6 325.76C401.28 294.6133333333334 426.6666666666667 246.4000000000001 426.6666666666667 192C426.6666666666667 137.8133333333334 401.28 89.3866666666667 361.6 58.24L341.3333333333333 -64H170.6666666666667L150.4 58.24L146.56 61.2266666666667L176.8533333333333 91.52C198.6133333333334 74.6666666666667 226.1333333333334 64 256 64z" /></svg>