<?xml version="1.0" encoding="UTF-8"?><!DOCTYPE svg PUBLIC "-//W3C//DTD SVG 1.1//EN" "http://www.w3.org/Graphics/SVG/1.1/DTD/svg11.dtd"><svg xmlns="http://www.w3.org/2000/svg" xmlns:xlink="http://www.w3.org/1999/xlink" version="1.1" width="512" height="512" viewBox="0 0 512 512">    <path fill="#ffffff" transform="scale(1, -1) translate(0, -448)" glyph-name="phone-return" unicode="&#xF82E;" horiz-adv-x="512" d=" M448 320V213.3333333333334H416V288H295.8933333333333L347.7333333333334 236.1600000000001L325.12 213.3333333333334L234.6666666666667 304L325.12 394.6666666666667L347.7333333333334 371.8400000000001L295.8933333333333 320H448M188.16 264.9600000000001C193.7066666666667 270.5066666666667 195.6266666666667 278.8266666666667 193.28 286.2933333333334C185.3866666666667 311.04 181.3333333333333 336.64 181.3333333333333 362.6666666666667C181.3333333333333 374.4 171.7333333333334 384 160 384H85.3333333333333C73.6 384 64 374.4 64 362.6666666666667C64 162.3466666666667 226.3466666666667 0 426.6666666666667 0C438.4 0 448 9.6 448 21.3333333333334V96C448 107.7333333333334 438.4 117.3333333333334 426.6666666666667 117.3333333333334C400.8533333333333 117.3333333333334 375.04 121.3866666666667 350.5066666666667 129.4933333333334C343.04 131.84 334.72 129.92 329.1733333333333 124.3733333333333L282.24 77.44C221.6533333333333 108.3733333333333 172.5866666666667 157.44 141.6533333333333 218.0266666666667L188.16 264.96z" /></svg>