<?xml version="1.0" encoding="UTF-8"?><!DOCTYPE svg PUBLIC "-//W3C//DTD SVG 1.1//EN" "http://www.w3.org/Graphics/SVG/1.1/DTD/svg11.dtd"><svg xmlns="http://www.w3.org/2000/svg" xmlns:xlink="http://www.w3.org/1999/xlink" version="1.1" width="512" height="512" viewBox="0 0 512 512">    <path fill="#ffffff" transform="scale(1, -1) translate(0, -448)" glyph-name="odnoklassniki" unicode="&#xF3C5;" horiz-adv-x="512" d=" M380.3733333333333 176.2133333333334C374.3999999999999 188.3733333333333 357.5466666666666 198.6133333333334 335.1466666666666 181.3333333333334C304.64 157.0133333333333 255.9999999999999 157.0133333333333 255.9999999999999 157.0133333333333S207.3599999999999 157.0133333333333 176.8533333333333 181.3333333333334C154.4533333333332 198.6133333333334 137.5999999999999 188.3733333333333 131.6266666666666 176.2133333333334C120.9599999999999 154.88 132.9066666666666 144.4266666666667 159.9999999999999 127.1466666666667C183.2533333333333 112.2133333333334 215.0399999999999 106.6666666666667 235.5199999999999 104.5333333333334L218.4533333333332 87.4666666666667C194.1333333333333 63.36 170.6666666666667 40.1066666666667 154.6666666666667 23.8933333333334C145.0666666666667 14.08 145.0666666666667 -1.4933333333333 154.6666666666667 -10.6666666666666L157.6533333333333 -14.08C167.2533333333333 -23.6799999999999 183.04 -23.6799999999999 192.64 -14.08L256 49.4933333333333C280.5333333333333 25.3866666666667 303.7866666666667 2.1333333333334 320 -14.08C329.6 -23.6799999999999 345.1733333333333 -23.6799999999999 354.9866666666667 -14.08L357.76 -10.6666666666666C367.5733333333333 -1.4933333333333 367.5733333333333 14.08 357.76 23.8933333333334L294.1866666666666 87.4666666666667L277.3333333333333 104.7466666666667C297.6 106.6666666666667 328.96 112.4266666666667 352 127.1466666666667C379.0933333333333 144.4266666666667 391.04 154.8800000000001 380.3733333333333 176.2133333333334M256 350.5066666666667C285.44 350.5066666666667 309.3333333333333 326.6133333333334 309.3333333333333 297.3866666666667C309.3333333333333 267.9466666666667 285.44 244.2666666666667 256 244.2666666666667S202.6666666666667 267.9466666666667 202.6666666666667 297.3866666666667C202.6666666666667 326.6133333333334 226.56 350.5066666666667 256 350.5066666666667M256 189.4400000000001C315.7333333333334 189.4400000000001 363.9466666666666 237.6533333333334 363.9466666666666 297.3866666666667C363.9466666666666 356.9066666666667 315.7333333333334 405.3333333333333 256 405.3333333333333S148.0533333333334 356.9066666666667 148.0533333333334 297.3866666666667C148.0533333333334 237.6533333333334 196.2666666666667 189.4400000000001 256 189.4400000000001z" /></svg>