<?xml version="1.0" encoding="UTF-8"?><!DOCTYPE svg PUBLIC "-//W3C//DTD SVG 1.1//EN" "http://www.w3.org/Graphics/SVG/1.1/DTD/svg11.dtd"><svg xmlns="http://www.w3.org/2000/svg" xmlns:xlink="http://www.w3.org/1999/xlink" version="1.1" width="512" height="512" viewBox="0 0 512 512">    <path fill="#ffffff" transform="scale(1, -1) translate(0, -448)" glyph-name="movie-roll" unicode="&#xF7DD;" horiz-adv-x="512" d=" M256 405.3333333333333C373.76 405.3333333333333 469.3333333333333 309.76 469.3333333333333 192S373.76 -21.3333333333333 256 -21.3333333333333S42.6666666666667 74.24 42.6666666666667 192S138.24 405.3333333333333 256 405.3333333333333M256 362.6666666666667C226.56 362.6666666666667 202.6666666666667 338.7733333333333 202.6666666666667 309.3333333333334S226.56 256 256 256S309.3333333333333 279.8933333333333 309.3333333333333 309.3333333333334S285.44 362.6666666666667 256 362.6666666666667M93.8666666666667 244.6933333333334C84.6933333333333 216.7466666666667 100.0533333333333 186.6666666666667 128 177.4933333333334C156.16 168.5333333333334 186.24 183.68 195.2 211.84C204.3733333333333 239.7866666666667 189.0133333333334 269.8666666666667 161.0666666666667 279.04C133.12 288 102.8266666666667 272.8533333333334 93.8666666666667 244.6933333333334M418.3466666666667 245.3333333333334C409.1733333333333 272.8533333333334 379.0933333333333 288 351.1466666666667 279.04C322.9866666666667 270.0800000000001 307.6266666666667 240 316.8 211.84C325.9733333333334 183.8933333333333 356.0533333333334 168.5333333333334 384 177.7066666666667C411.9466666666666 186.6666666666667 427.3066666666667 216.96 418.3466666666667 245.3333333333334M155.9466666666666 54.1866666666667C179.6266666666666 36.6933333333333 213.3333333333333 42.0266666666666 230.4 65.92C247.68 89.8133333333334 242.3466666666667 123.0933333333334 218.4533333333333 140.3733333333333C194.7733333333333 157.6533333333334 161.28 152.3200000000001 144 128.64C126.72 104.7466666666667 132.0533333333333 71.4666666666666 155.9466666666666 54.1866666666667M356.2666666666667 54.1866666666667C380.16 71.4666666666666 385.4933333333334 104.7466666666667 368.2133333333333 128.64S317.44 157.8666666666667 293.76 140.3733333333333C269.8666666666666 123.0933333333334 264.5333333333333 89.8133333333334 281.8133333333333 65.92C298.6666666666666 42.0266666666666 332.5866666666666 36.9066666666667 356.2666666666666 54.1866666666667M256 224C238.2933333333333 224 224 209.7066666666667 224 192S238.2933333333333 160 256 160S288 174.2933333333334 288 192S273.7066666666667 224 256 224z" /></svg>