<?xml version="1.0" encoding="UTF-8"?><!DOCTYPE svg PUBLIC "-//W3C//DTD SVG 1.1//EN" "http://www.w3.org/Graphics/SVG/1.1/DTD/svg11.dtd"><svg xmlns="http://www.w3.org/2000/svg" xmlns:xlink="http://www.w3.org/1999/xlink" version="1.1" width="512" height="512" viewBox="0 0 512 512">    <path fill="#ffffff" transform="scale(1, -1) translate(0, -448)" glyph-name="weight-kilogram" unicode="&#xF5A2;" horiz-adv-x="512" d=" M256 384C303.1466666666667 384 341.3333333333333 345.8133333333334 341.3333333333333 298.6666666666667C341.3333333333333 283.0933333333334 337.28 268.5866666666667 329.8133333333334 256H384C404.2666666666667 256 421.3333333333333 241.7066666666667 425.6 222.72C468.48 51.84 469.3333333333333 47.36 469.3333333333333 42.6666666666667C469.3333333333333 19.2 450.1333333333334 0 426.6666666666667 0H85.3333333333333C61.8666666666667 0 42.6666666666667 19.2 42.6666666666667 42.6666666666667C42.6666666666667 47.36 43.52 51.84 86.4 222.72C90.6666666666667 241.7066666666667 107.7333333333333 256 128 256H182.1866666666667C174.72 268.5866666666667 170.6666666666667 283.0933333333334 170.6666666666667 298.6666666666667C170.6666666666667 345.8133333333334 208.8533333333333 384 256 384M256 341.3333333333334C232.5333333333334 341.3333333333334 213.3333333333333 322.1333333333334 213.3333333333333 298.6666666666667S232.5333333333334 256 256 256S298.6666666666667 275.2000000000001 298.6666666666667 298.6666666666667S279.4666666666667 341.3333333333334 256 341.3333333333334M128 213.3333333333334V42.6666666666667H170.6666666666667V96L192 74.6666666666667V42.6666666666667H234.6666666666667V85.3333333333334L192 128L234.6666666666667 170.6666666666667V213.3333333333334H192V181.3333333333334L170.6666666666667 160V213.3333333333334H128M320 213.3333333333334C296.32 213.3333333333334 277.3333333333333 194.3466666666667 277.3333333333333 170.6666666666667V85.3333333333334C277.3333333333333 61.6533333333334 296.32 42.6666666666667 320 42.6666666666667H384V149.3333333333334H341.3333333333333V85.3333333333334H320V170.6666666666667H384V213.3333333333334H320z" /></svg>