<?xml version="1.0" encoding="UTF-8"?><!DOCTYPE svg PUBLIC "-//W3C//DTD SVG 1.1//EN" "http://www.w3.org/Graphics/SVG/1.1/DTD/svg11.dtd"><svg xmlns="http://www.w3.org/2000/svg" xmlns:xlink="http://www.w3.org/1999/xlink" version="1.1" width="512" height="512" viewBox="0 0 512 512">    <path fill="#ffffff" transform="scale(1, -1) translate(0, -448)" glyph-name="wind-turbine" unicode="&#xFD81;" horiz-adv-x="512" d=" M284.3733333333334 199.04L345.8133333333334 136.96C375.8933333333333 167.2533333333333 345.8133333333334 197.3333333333334 345.8133333333334 197.3333333333334L314.0266666666667 229.5466666666667C317.8666666666667 237.6533333333334 320 246.6133333333334 320 256C320 278.4 308.48 298.0266666666667 290.9866666666667 309.3333333333334L320 402.9866666666667C279.2533333333334 415.36 266.6666666666667 374.6133333333334 266.6666666666667 374.6133333333334L249.3866666666667 319.36C223.1466666666667 316.5866666666667 201.8133333333333 298.6666666666667 194.7733333333333 273.4933333333334L99.6266666666667 242.56C113.28 202.0266666666667 153.6 215.4666666666667 153.6 215.4666666666667L197.76 229.76C205.0133333333333 213.9733333333333 218.24 201.8133333333333 234.6666666666667 195.84V42.6666666666667S192 42.6666666666667 192 0V-21.3333333333333H320V0S320 42.6666666666667 277.3333333333333 42.6666666666667V195.84C279.8933333333333 196.6933333333333 282.24 197.9733333333333 284.3733333333334 199.04M224 256C224 273.7066666666667 238.2933333333333 288 256 288S288 273.7066666666667 288 256S273.7066666666667 224 256 224S224 238.2933333333334 224 256z" /></svg>