<?xml version="1.0" encoding="UTF-8"?><!DOCTYPE svg PUBLIC "-//W3C//DTD SVG 1.1//EN" "http://www.w3.org/Graphics/SVG/1.1/DTD/svg11.dtd"><svg xmlns="http://www.w3.org/2000/svg" xmlns:xlink="http://www.w3.org/1999/xlink" version="1.1" width="512" height="512" viewBox="0 0 512 512">    <path fill="#ffffff" transform="scale(1, -1) translate(0, -448)" glyph-name="etsy" unicode="&#xF203;" horiz-adv-x="512" d=" M143.36 4.6933333333333C175.5733333333333 6.1866666666667 214.8266666666667 4.6933333333333 253.2266666666667 4.6933333333333C292.6933333333334 4.6933333333333 333.2266666666667 7.2533333333333 365.2266666666667 4.6933333333333C378.0266666666667 3.6266666666667 389.9733333333334 -4.0533333333333 400.4266666666666 2.7733333333333C408.7466666666667 13.2266666666666 402.56 27.52 404.48 41.6C407.8933333333333 68.6933333333333 432.64 100.9066666666667 396.5866666666667 107.7333333333334C381.2266666666667 93.6533333333334 391.4666666666667 80.4266666666667 382.9333333333333 62.9333333333333C372.2666666666667 42.0266666666666 334.5066666666667 34.7733333333333 298.6666666666667 32C267.52 29.44 213.3333333333333 26.4533333333333 202.6666666666667 47.5733333333334C192.8533333333333 65.28 198.1866666666667 92.8000000000001 198.1866666666667 115.6266666666667C198.1866666666667 141.2266666666667 195.4133333333333 165.9733333333334 202.6666666666667 185.6C241.4933333333334 182.8266666666667 292.2666666666667 198.6133333333333 320 181.3333333333334C338.56 170.6666666666667 327.8933333333333 148.0533333333334 349.44 140.8C364.16 144.8533333333334 356.2666666666667 163.84 355.4133333333333 181.3333333333334C354.7733333333333 193.28 354.7733333333333 209.28 355.4133333333333 222.5066666666667C356.0533333333334 240.4266666666667 362.6666666666667 261.12 343.4666666666667 261.5466666666667C328.32 249.6 339.8400000000001 229.76 323.8400000000001 218.6666666666667C318.9333333333334 215.04 307.8400000000001 213.3333333333334 300.3733333333334 213.3333333333334C270.9333333333334 209.7066666666667 224.8533333333334 212.2666666666667 200.1066666666667 216.7466666666667C196.9066666666667 252.5866666666667 197.12 301.4400000000001 200.1066666666667 337.2800000000001C213.3333333333334 350.5066666666667 244.2666666666667 351.1466666666667 264.9600000000001 350.9333333333334C301.4400000000001 350.9333333333334 358.1866666666667 347.7333333333334 369.0666666666667 329.6C375.04 320 370.3466666666667 298.6666666666667 380.8 296.5333333333334C402.1333333333334 291.6266666666667 391.6800000000001 329.6 392.7466666666667 347.0933333333334C393.3866666666667 360.3200000000001 399.1466666666667 368.64 396.5866666666667 378.24C389.76 387.6266666666667 379.52 382.9333333333334 373.3333333333333 382.0800000000001C306.1333333333334 373.3333333333334 204.8 378.24 133.5466666666667 378.24C125.0133333333333 378.24 110.08 382.5066666666667 104.1066666666667 372.48C99.84 349.8666666666667 130.56 359.2533333333334 141.2266666666667 347.0933333333334C144.8533333333333 343.2533333333334 149.9733333333333 325.76 151.04 314.0266666666667C154.24 282.88 151.04 235.3066666666667 151.04 189.4400000000001C151.04 141.2266666666667 154.88 92.3733333333334 151.04 62.9333333333334C149.3333333333333 52.6933333333334 143.5733333333333 36.2666666666668 141.2266666666667 33.9200000000001C128 20.4800000000001 92.5866666666667 35.2 96 6.6133333333334C108.5866666666667 -1.7066666666666 126.5066666666667 3.8400000000001 143.36 4.6933333333334z" /></svg>