<?xml version="1.0" encoding="UTF-8"?><!DOCTYPE svg PUBLIC "-//W3C//DTD SVG 1.1//EN" "http://www.w3.org/Graphics/SVG/1.1/DTD/svg11.dtd"><svg xmlns="http://www.w3.org/2000/svg" xmlns:xlink="http://www.w3.org/1999/xlink" version="1.1" width="512" height="512" viewBox="0 0 512 512">    <path fill="#ffffff" transform="scale(1, -1) translate(0, -448)" glyph-name="emoticon-devil-outline" unicode="&#xF1F4;" horiz-adv-x="512" d=" M32 403.4133333333334C51.2 384 82.56 368.4266666666667 121.3866666666667 357.3333333333334C158.08 387.4133333333334 205.0133333333333 405.3333333333333 256 405.3333333333333C306.9866666666667 405.3333333333333 353.92 387.4133333333334 390.6133333333333 357.3333333333334C429.44 368.4266666666667 460.8 384 480 403.4133333333334C479.36 368.64 461.8666666666666 336.8533333333334 432.64 311.4666666666667C455.8933333333333 277.3333333333334 469.3333333333333 236.3733333333334 469.3333333333333 192C469.3333333333333 74.24 373.76 -21.3333333333333 256 -21.3333333333333S42.6666666666667 74.24 42.6666666666667 192C42.6666666666667 236.3733333333334 56.1066666666667 277.3333333333334 79.36 311.4666666666667C50.1333333333333 336.8533333333334 32.64 368.64 32 403.4133333333334M426.6666666666667 192C426.6666666666667 286.2933333333334 350.2933333333334 362.6666666666667 256 362.6666666666667S85.3333333333333 286.2933333333334 85.3333333333333 192S161.7066666666667 21.3333333333334 256 21.3333333333334S426.6666666666667 97.7066666666667 426.6666666666667 192M224 234.6666666666667C224 217.6 209.0666666666667 202.6666666666667 192 202.6666666666667S160 217.6 160 234.6666666666667V266.6666666666667L224 234.6666666666667M352 234.6666666666667C352 217.6 337.0666666666667 202.6666666666667 320 202.6666666666667S288 217.6 288 234.6666666666667L352 266.6666666666667V234.6666666666667M256 80.4266666666667C218.6666666666667 80.4266666666667 185.8133333333333 96 166.6133333333333 119.04L196.9066666666667 149.3333333333334C206.5066666666667 133.9733333333334 229.3333333333333 123.0933333333334 256 123.0933333333334S305.4933333333334 133.9733333333334 315.0933333333333 149.3333333333334L345.3866666666666 119.04C326.1866666666666 96 293.3333333333333 80.4266666666667 255.9999999999999 80.4266666666667z" /></svg>