<?xml version="1.0" encoding="UTF-8"?><!DOCTYPE svg PUBLIC "-//W3C//DTD SVG 1.1//EN" "http://www.w3.org/Graphics/SVG/1.1/DTD/svg11.dtd"><svg xmlns="http://www.w3.org/2000/svg" xmlns:xlink="http://www.w3.org/1999/xlink" version="1.1" width="512" height="512" viewBox="0 0 512 512">    <path fill="#ffffff" transform="scale(1, -1) translate(0, -448)" glyph-name="phone-rotate-portrait" unicode="&#xF885;" horiz-adv-x="512" d=" M192 426.6666666666667H64C40.5333333333333 426.6666666666667 21.3333333333333 407.4666666666667 21.3333333333333 384V106.6666666666667C21.3333333333333 83.2 40.5333333333333 64 64 64H85.3333333333333V128H64V384H192V213.3333333333334H234.6666666666667V384C234.6666666666667 407.4666666666667 215.4666666666667 426.6666666666667 192 426.6666666666667M490.6666666666666 0V128C490.6666666666666 151.4666666666667 471.4666666666667 170.6666666666667 448 170.6666666666667H170.6666666666667C147.2 170.6666666666667 128 151.4666666666667 128 128V0C128 -23.4666666666667 147.2 -42.6666666666666 170.6666666666667 -42.6666666666666H448C471.4666666666667 -42.6666666666666 490.6666666666666 -23.4666666666667 490.6666666666666 0M192 0V128H448V0H192M490.6666666666666 234.6666666666667H458.6666666666666C458.6666666666666 298.6666666666667 420.0533333333334 356.9066666666667 360.9600000000001 382.0800000000001L341.3333333333333 341.3333333333334L298.6666666666667 426.6666666666667C404.6933333333333 426.6666666666667 490.6666666666666 340.6933333333334 490.6666666666666 234.6666666666667z" /></svg>