<?xml version="1.0" encoding="UTF-8"?><!DOCTYPE svg PUBLIC "-//W3C//DTD SVG 1.1//EN" "http://www.w3.org/Graphics/SVG/1.1/DTD/svg11.dtd"><svg xmlns="http://www.w3.org/2000/svg" xmlns:xlink="http://www.w3.org/1999/xlink" version="1.1" width="512" height="512" viewBox="0 0 512 512">    <path fill="#ffffff" transform="scale(1, -1) translate(0, -448)" glyph-name="carrot" unicode="&#xF10F;" horiz-adv-x="512" d=" M341.3333333333333 234.6666666666667L337.0666666666667 213.3333333333334H288C282.0266666666667 213.3333333333334 277.3333333333333 208.64 277.3333333333333 202.6666666666667S282.0266666666667 192 288 192H332.8L311.4666666666667 85.3333333333334H266.6666666666667C260.6933333333334 85.3333333333334 256 80.64 256 74.6666666666667S260.6933333333334 64 266.6666666666667 64H307.2L298.6666666666667 21.3333333333334C298.6666666666667 -2.1333333333333 279.4666666666667 -21.3333333333333 256 -21.3333333333333S213.3333333333333 -2.1333333333333 213.3333333333333 21.3333333333334L192 128H224C229.9733333333333 128 234.6666666666667 132.6933333333334 234.6666666666667 138.6666666666667S229.9733333333333 149.3333333333334 224 149.3333333333334H187.7333333333334L170.6666666666667 234.6666666666667C170.6666666666667 260.2666666666667 190.5066666666667 282.24 219.52 292.48L189.8666666666667 335.36C183.2533333333333 345.1733333333334 185.6 358.4 195.4133333333333 365.0133333333333C205.0133333333333 371.84 218.24 369.28 225.0666666666667 359.68L234.6666666666667 345.6V384C234.6666666666667 395.7333333333334 244.2666666666667 405.3333333333333 256 405.3333333333333S277.3333333333333 395.7333333333334 277.3333333333333 384V335.36L309.3333333333333 372.48C316.3733333333334 381.4400000000001 330.0266666666667 382.5066666666667 338.9866666666667 374.8266666666667C347.9466666666667 367.36 349.0133333333333 353.92 341.3333333333333 344.7466666666667L295.8933333333333 291.2000000000001C322.9866666666667 280.5333333333334 341.3333333333333 259.2000000000001 341.3333333333333 234.6666666666667z" /></svg>