<?xml version="1.0" encoding="UTF-8"?><!DOCTYPE svg PUBLIC "-//W3C//DTD SVG 1.1//EN" "http://www.w3.org/Graphics/SVG/1.1/DTD/svg11.dtd"><svg xmlns="http://www.w3.org/2000/svg" xmlns:xlink="http://www.w3.org/1999/xlink" version="1.1" width="512" height="512" viewBox="0 0 512 512">    <path fill="#ffffff" transform="scale(1, -1) translate(0, -448)" glyph-name="file-find" unicode="&#xF21E;" horiz-adv-x="512" d=" M192 170.6666666666667C192 135.2533333333333 220.5866666666667 106.6666666666667 256 106.6666666666667S320 135.2533333333333 320 170.6666666666667S291.4133333333333 234.6666666666667 256 234.6666666666667S192 206.08 192 170.6666666666667M426.6666666666667 30.08V277.3333333333334L298.6666666666667 405.3333333333333H128C104.5333333333333 405.3333333333333 85.3333333333333 386.1333333333334 85.3333333333333 362.6666666666667V21.3333333333334C85.3333333333333 -2.1333333333333 104.5333333333333 -21.3333333333333 128 -21.3333333333333H384C393.6 -21.3333333333333 402.1333333333334 -18.1333333333333 409.3866666666667 -12.8L314.88 81.7066666666667C297.8133333333334 70.6133333333334 277.3333333333334 64 256 64C197.12 64 149.3333333333334 111.7866666666667 149.3333333333334 170.6666666666667S197.12 277.3333333333334 256 277.3333333333334S362.6666666666667 229.5466666666667 362.6666666666667 170.6666666666667C362.6666666666667 149.3333333333334 356.0533333333334 128.8533333333334 344.9600000000001 112L426.6666666666667 30.08z" /></svg>