<?xml version="1.0" encoding="UTF-8"?><!DOCTYPE svg PUBLIC "-//W3C//DTD SVG 1.1//EN" "http://www.w3.org/Graphics/SVG/1.1/DTD/svg11.dtd"><svg xmlns="http://www.w3.org/2000/svg" xmlns:xlink="http://www.w3.org/1999/xlink" version="1.1" width="512" height="512" viewBox="0 0 512 512">    <path fill="#ffffff" transform="scale(1, -1) translate(0, -448)" glyph-name="pizza" unicode="&#xF409;" horiz-adv-x="512" d=" M256 128C232.5333333333334 128 213.3333333333333 147.2000000000001 213.3333333333333 170.6666666666667C213.3333333333333 194.3466666666667 232.5333333333334 213.3333333333334 256 213.3333333333334S298.6666666666667 194.1333333333333 298.6666666666667 170.6666666666667S279.4666666666667 128 256 128M149.3333333333333 298.6666666666667C149.3333333333333 322.3466666666667 168.32 341.3333333333334 192 341.3333333333334C215.4666666666667 341.3333333333334 234.6666666666667 322.1333333333334 234.6666666666667 298.6666666666667S215.4666666666667 256 192 256C168.32 256 149.3333333333333 275.2000000000001 149.3333333333333 298.6666666666667M256 405.3333333333333C179.84 405.3333333333333 111.5733333333333 372.48 64 320L256 -21.3333333333333L448 320C400.64 372.48 332.16 405.3333333333333 256 405.3333333333333z" /></svg>