<?xml version="1.0" encoding="UTF-8"?><!DOCTYPE svg PUBLIC "-//W3C//DTD SVG 1.1//EN" "http://www.w3.org/Graphics/SVG/1.1/DTD/svg11.dtd"><svg xmlns="http://www.w3.org/2000/svg" xmlns:xlink="http://www.w3.org/1999/xlink" version="1.1" width="512" height="512" viewBox="0 0 512 512">    <path fill="#ffffff" transform="scale(1, -1) translate(0, -448)" glyph-name="xing" unicode="&#xF5BD;" horiz-adv-x="512" d=" M376.9600000000001 405.3333333333333C367.7866666666667 405.3333333333333 363.7333333333334 399.5733333333333 360.5333333333334 393.6C360.5333333333334 393.6 227.8400000000001 158.5066666666667 224 150.8266666666667L311.04 -9.6C314.0266666666667 -15.1466666666666 318.7200000000001 -21.3333333333333 328.1066666666667 -21.3333333333333H389.5466666666667C393.3866666666667 -21.3333333333333 396.16 -19.84 397.6533333333333 -17.4933333333333C399.36 -14.72 399.36 -11.3066666666667 397.6533333333333 -7.8933333333333L310.8266666666667 151.04L447.1466666666667 391.8933333333333C448.8533333333333 395.3066666666666 448.8533333333333 398.7199999999999 447.36 401.4933333333333C445.6533333333334 403.8399999999999 442.88 405.3333333333333 439.04 405.3333333333333M118.4 321.0666666666667C114.7733333333333 321.0666666666667 111.5733333333333 320 110.08 317.2266666666667C108.3733333333333 314.4533333333334 108.5866666666667 311.2533333333334 110.5066666666667 307.8400000000001L151.8933333333333 235.3066666666667L86.6133333333333 120.1066666666667C85.3333333333333 116.6933333333333 85.3333333333333 113.28 86.6133333333333 110.5066666666667C88.1066666666666 107.9466666666667 90.88 106.6666666666667 94.5066666666666 106.6666666666667H156.16C165.3333333333333 106.6666666666667 169.8133333333333 112.64 173.0133333333333 118.4C173.0133333333333 118.4 236.8 231.2533333333334 239.36 235.7333333333334L197.12 309.3333333333334C194.1333333333333 314.88 189.44 321.0666666666667 179.84 321.0666666666667" /></svg>