<?xml version="1.0" encoding="UTF-8"?><!DOCTYPE svg PUBLIC "-//W3C//DTD SVG 1.1//EN" "http://www.w3.org/Graphics/SVG/1.1/DTD/svg11.dtd"><svg xmlns="http://www.w3.org/2000/svg" xmlns:xlink="http://www.w3.org/1999/xlink" version="1.1" width="512" height="512" viewBox="0 0 512 512">    <path fill="#ffffff" transform="scale(1, -1) translate(0, -448)" glyph-name="shield-link-variant" unicode="&#xFD0F;" horiz-adv-x="512" d=" M256 426.6666666666667L64 341.3333333333334V213.3333333333334C64 94.9333333333333 145.92 -15.7866666666667 256 -42.6666666666666C366.08 -15.7866666666666 448 94.9333333333333 448 213.3333333333334V341.3333333333334L256 426.6666666666667M304.64 147.6266666666667L261.5466666666666 104.5333333333333C248.7466666666667 91.7333333333333 231.8933333333333 85.3333333333334 215.04 85.3333333333334C198.1866666666667 85.3333333333334 181.3333333333333 91.7333333333334 168.5333333333333 104.5333333333333C142.9333333333333 130.1333333333333 142.9333333333333 171.7333333333334 168.5333333333333 197.5466666666666L195.2 224L194.9866666666667 212.0533333333333C194.9866666666667 202.6666666666666 196.48 193.0666666666666 199.68 184.1066666666666L200.7466666666667 181.3333333333333L192.8533333333334 173.44C186.8800000000001 167.4666666666667 183.4666666666667 159.36 183.4666666666667 151.04C183.4666666666667 142.5066666666666 186.8800000000001 134.6133333333333 192.8533333333334 128.6399999999999C204.8000000000001 116.6933333333333 225.4933333333334 116.6933333333333 237.4400000000001 128.6399999999999L280.3200000000001 171.5199999999999C286.5066666666667 177.7066666666666 289.7066666666667 185.5999999999999 289.7066666666667 193.9199999999999C289.7066666666667 202.6666666666666 286.5066666666667 210.3466666666666 280.5333333333334 216.3199999999999C277.3333333333334 219.52 275.2000000000001 224 275.2000000000001 228.48C275.2000000000001 232.96 277.3333333333334 237.2266666666667 280.5333333333334 240.4266666666666C286.9333333333334 247.04 298.6666666666667 246.8266666666667 304.64 240.4266666666666C317.0133333333333 228.0533333333333 323.8400000000001 211.6266666666666 323.8400000000001 194.1333333333333C323.8400000000001 176.4266666666666 317.0133333333333 160 304.64 147.6266666666667M364.8 207.7866666666666L338.1333333333334 181.3333333333333L338.3466666666667 193.28C338.3466666666667 202.6666666666666 336.8533333333334 212.0533333333334 333.6533333333333 221.0133333333333L332.8 224L340.48 231.8933333333333C346.6666666666667 237.8666666666667 349.8666666666667 245.3333333333334 349.8666666666667 254.2933333333334C349.8666666666667 262.6133333333334 346.6666666666668 270.5066666666667 340.6933333333334 276.48C328.5333333333334 288.6400000000001 307.8400000000001 288.6400000000001 295.8933333333334 276.48L253.0133333333334 233.6C247.0400000000001 227.6266666666667 243.6266666666667 219.7333333333334 243.6266666666667 211.2S246.8266666666668 194.9866666666667 253.0133333333334 189.0133333333333C256.0000000000001 185.8133333333333 258.1333333333334 181.3333333333334 258.1333333333334 176.8533333333334C258.1333333333334 172.16 256.0000000000001 167.8933333333333 252.8000000000001 164.6933333333333C249.6000000000001 161.28 245.3333333333334 160 240.8533333333334 160C236.5866666666668 160 232.1066666666667 161.4933333333334 228.6933333333334 164.6933333333333C202.6666666666667 190.2933333333333 202.6666666666667 232.1066666666667 228.6933333333334 257.7066666666667L271.7866666666667 300.8C297.6 326.4 339.2000000000001 326.4 364.8 300.8C377.1733333333333 288 384 271.7866666666667 384 254.2933333333333C384 236.8 377.1733333333333 220.16 364.8 207.7866666666666z" /></svg>