<?xml version="1.0" encoding="UTF-8"?><!DOCTYPE svg PUBLIC "-//W3C//DTD SVG 1.1//EN" "http://www.w3.org/Graphics/SVG/1.1/DTD/svg11.dtd"><svg xmlns="http://www.w3.org/2000/svg" xmlns:xlink="http://www.w3.org/1999/xlink" version="1.1" width="512" height="512" viewBox="0 0 512 512">    <path fill="#ffffff" transform="scale(1, -1) translate(0, -448)" glyph-name="android-studio" unicode="&#xF034;" horiz-adv-x="512" d=" M234.6666666666667 405.3333333333333H277.3333333333333V362.6666666666667H288C305.7066666666667 362.6666666666667 320 348.3733333333334 320 330.6666666666667V256L310.6133333333334 246.6133333333334L345.6 186.0266666666667C369.28 209.28 384 241.4933333333334 384 277.3333333333334H426.6666666666667C426.6666666666667 225.7066666666667 403.84 179.4133333333334 367.5733333333333 148.0533333333334L434.56 32L437.3333333333333 -15.36L397.44 10.6666666666667L331.9466666666666 124.3733333333333C309.3333333333333 113.0666666666667 283.3066666666666 106.6666666666667 256 106.6666666666667C228.6933333333333 106.6666666666667 202.6666666666666 113.0666666666667 180.0533333333333 124.3733333333333L114.56 10.6666666666667L74.6666666666667 -15.36L77.44 32L201.3866666666667 246.6133333333334L192 256V330.6666666666667C192 348.3733333333334 206.2933333333333 362.6666666666667 224 362.6666666666667H234.6666666666667V405.3333333333333M201.3866666666667 161.4933333333334C218.0266666666667 153.6 236.5866666666667 149.3333333333334 256 149.3333333333334C275.4133333333333 149.3333333333334 293.9733333333333 153.6 310.6133333333334 161.4933333333334L279.4666666666667 215.4666666666667H279.2533333333334C266.0266666666667 202.6666666666667 245.9733333333333 202.6666666666667 232.7466666666667 215.4666666666667H232.5333333333334L201.3866666666667 161.4933333333334M256 320C244.2666666666667 320 234.6666666666667 310.4 234.6666666666667 298.6666666666667S244.2666666666667 277.3333333333334 256 277.3333333333334S277.3333333333333 286.9333333333334 277.3333333333333 298.6666666666667S267.7333333333334 320 256 320z" /></svg>