<?xml version="1.0" encoding="UTF-8"?><!DOCTYPE svg PUBLIC "-//W3C//DTD SVG 1.1//EN" "http://www.w3.org/Graphics/SVG/1.1/DTD/svg11.dtd"><svg xmlns="http://www.w3.org/2000/svg" xmlns:xlink="http://www.w3.org/1999/xlink" version="1.1" width="512" height="512" viewBox="0 0 512 512">    <path fill="#ffffff" transform="scale(1, -1) translate(0, -448)" glyph-name="weather-cloudy" unicode="&#xF590;" horiz-adv-x="512" d=" M128 42.6666666666667C69.12 42.6666666666667 21.3333333333333 90.4533333333334 21.3333333333333 149.3333333333334S69.12 256 128 256C149.3333333333333 306.1333333333334 198.4 341.3333333333334 256 341.3333333333334C329.1733333333333 341.3333333333334 389.12 284.5866666666667 394.6666666666667 212.6933333333333L405.3333333333333 213.3333333333334C452.48 213.3333333333334 490.6666666666666 175.1466666666667 490.6666666666666 128S452.48 42.6666666666667 405.3333333333333 42.6666666666667H128M405.3333333333333 170.6666666666667H362.6666666666667V192C362.6666666666667 250.88 314.88 298.6666666666667 256 298.6666666666667C202.6666666666667 298.6666666666667 158.9333333333333 259.8400000000001 150.6133333333333 209.28C143.5733333333333 211.84 135.8933333333333 213.3333333333334 128 213.3333333333334C92.5866666666667 213.3333333333334 64 184.7466666666667 64 149.3333333333334S92.5866666666667 85.3333333333334 128 85.3333333333334H405.3333333333333C428.8 85.3333333333334 448 104.5333333333333 448 128S428.8 170.6666666666667 405.3333333333333 170.6666666666667z" /></svg>