<?xml version="1.0" encoding="UTF-8"?><!DOCTYPE svg PUBLIC "-//W3C//DTD SVG 1.1//EN" "http://www.w3.org/Graphics/SVG/1.1/DTD/svg11.dtd"><svg xmlns="http://www.w3.org/2000/svg" xmlns:xlink="http://www.w3.org/1999/xlink" version="1.1" width="512" height="512" viewBox="0 0 512 512">    <path fill="#ffffff" transform="scale(1, -1) translate(0, -448)" glyph-name="arrow-decision-auto-outline" unicode="&#xF9BC;" horiz-adv-x="512" d=" M405.3333333333333 128V192C394.6666666666667 192 309.3333333333333 188.5866666666667 299.7333333333334 102.4C333.0133333333333 90.6666666666667 350.5066666666667 53.9733333333334 338.7733333333333 20.6933333333333C327.04 -12.5866666666666 290.3466666666667 -30.08 257.0666666666667 -18.3466666666666C224 -6.4 206.2933333333334 30.08 218.0266666666667 63.36C224 81.7066666666667 238.9333333333334 96 257.0666666666667 102.4C263.2533333333334 178.9866666666666 328.5333333333333 237.2266666666667 405.3333333333333 234.6666666666666V298.6666666666667L490.6666666666666 213.3333333333334L405.3333333333333 128M298.6666666666667 42.6666666666667C298.6666666666667 54.4 289.0666666666667 64 277.3333333333333 64S256 54.4 256 42.6666666666667S265.6 21.3333333333334 277.3333333333333 21.3333333333334S298.6666666666667 30.9333333333333 298.6666666666667 42.6666666666667M256 210.7733333333333C268.3733333333334 224.8533333333333 282.6666666666667 237.0133333333333 298.6666666666667 246.8266666666667V341.3333333333334H362.6666666666667L277.3333333333333 426.6666666666667L192 341.3333333333334H256V210.7733333333333M153.6 320H110.9333333333333L42.6666666666667 128H83.2L98.1333333333333 170.6666666666667H166.4L181.3333333333333 128H221.8666666666667L153.6 320M107.7333333333334 199.4666666666667L132.2666666666667 277.3333333333334L156.8 199.4666666666667H107.7333333333333z" /></svg>