<?xml version="1.0" encoding="UTF-8"?><!DOCTYPE svg PUBLIC "-//W3C//DTD SVG 1.1//EN" "http://www.w3.org/Graphics/SVG/1.1/DTD/svg11.dtd"><svg xmlns="http://www.w3.org/2000/svg" xmlns:xlink="http://www.w3.org/1999/xlink" version="1.1" width="512" height="512" viewBox="0 0 512 512">    <path fill="#ffffff" transform="scale(1, -1) translate(0, -448)" glyph-name="alpha-w-box-outline" unicode="&#xFC09;" horiz-adv-x="512" d=" M192 85.3333333333334C168.5333333333333 85.3333333333334 149.3333333333333 104.5333333333333 149.3333333333333 128V298.6666666666667H192V128H234.6666666666667V277.3333333333334H277.3333333333333V128H320V298.6666666666667H362.6666666666667V128C362.6666666666667 104.5333333333333 343.4666666666667 85.3333333333334 320 85.3333333333334H192M106.6666666666667 384H405.3333333333333C428.8 384 448 364.8 448 341.3333333333334V42.6666666666667C448 19.2 428.8 0 405.3333333333333 0H106.6666666666667C83.2 0 64 19.2 64 42.6666666666667V341.3333333333334C64 364.8 83.2 384 106.6666666666667 384M106.6666666666667 341.3333333333334V42.6666666666667H405.3333333333333V341.3333333333334H106.6666666666667z" /></svg>