<?xml version="1.0" encoding="UTF-8"?><!DOCTYPE svg PUBLIC "-//W3C//DTD SVG 1.1//EN" "http://www.w3.org/Graphics/SVG/1.1/DTD/svg11.dtd"><svg xmlns="http://www.w3.org/2000/svg" xmlns:xlink="http://www.w3.org/1999/xlink" version="1.1" width="512" height="512" viewBox="0 0 512 512">    <path fill="#ffffff" transform="scale(1, -1) translate(0, -448)" glyph-name="language-cpp" unicode="&#xF672;" horiz-adv-x="512" d=" M224 107.3066666666667L232.7466666666667 55.2533333333333C227.2 52.2666666666667 218.24 49.4933333333333 206.2933333333333 46.9333333333333C194.1333333333333 44.16 179.84 42.6666666666667 163.4133333333333 42.6666666666667C116.2666666666667 43.52 80.8533333333333 57.6 57.1733333333333 84.48C33.28 111.5733333333334 21.3333333333333 145.92 21.3333333333333 187.52C22.4 236.8 36.6933333333333 274.56 64 301.0133333333333C92.16 327.68 127.1466666666667 341.3333333333334 169.3866666666667 341.3333333333334C185.3866666666667 341.3333333333334 199.2533333333333 339.8400000000001 210.7733333333334 337.28S230.8266666666667 331.9466666666667 236.3733333333334 328.7466666666667L224 275.6266666666667L201.3866666666667 282.88C192.8533333333333 285.0133333333333 183.04 286.08 171.7333333333333 286.08C146.9866666666666 286.2933333333333 126.5066666666666 278.4 110.5066666666666 262.6133333333334C94.2933333333333 247.04 85.9733333333333 223.1466666666667 85.3333333333333 191.36C85.3333333333333 162.3466666666667 93.2266666666667 139.7333333333334 108.3733333333333 123.0933333333334C123.52 106.6666666666667 144.8533333333333 98.1333333333334 172.16 97.92L200.5333333333333 100.48C209.7066666666667 102.1866666666667 217.3866666666667 104.5333333333334 224 107.3066666666667M234.6666666666667 213.3333333333334H277.3333333333333V256H320V213.3333333333334H362.6666666666667V170.6666666666667H320V128H277.3333333333333V170.6666666666667H234.6666666666667V213.3333333333334M384 213.3333333333334H426.6666666666667V256H469.3333333333333V213.3333333333334H512V170.6666666666667H469.3333333333333V128H426.6666666666667V170.6666666666667H384V213.3333333333334z" /></svg>