<?xml version="1.0" encoding="UTF-8"?><!DOCTYPE svg PUBLIC "-//W3C//DTD SVG 1.1//EN" "http://www.w3.org/Graphics/SVG/1.1/DTD/svg11.dtd"><svg xmlns="http://www.w3.org/2000/svg" xmlns:xlink="http://www.w3.org/1999/xlink" version="1.1" width="512" height="512" viewBox="0 0 512 512">    <path fill="#ffffff" transform="scale(1, -1) translate(0, -448)" glyph-name="professional-hexagon" unicode="&#xF42D;" horiz-adv-x="512" d=" M448 96C448 87.8933333333334 443.52 80.8533333333334 436.6933333333333 77.2266666666667L268.16 -17.4933333333333C264.7466666666666 -20.0533333333333 260.48 -21.3333333333333 256 -21.3333333333333C251.5199999999999 -21.3333333333333 247.2533333333333 -20.0533333333333 243.84 -17.4933333333333L75.3066666666666 77.2266666666667C68.48 80.8533333333334 63.9999999999999 87.8933333333334 63.9999999999999 96V288C63.9999999999999 296.1066666666667 68.4799999999999 303.1466666666667 75.3066666666666 306.7733333333333L243.84 401.4933333333334C247.2533333333333 404.0533333333334 251.5199999999999 405.3333333333334 256 405.3333333333334C260.48 405.3333333333334 264.7466666666666 404.0533333333334 268.16 401.4933333333334L436.6933333333333 306.7733333333333C443.52 303.1466666666667 448 296.1066666666667 448 288V96M106.6666666666667 256V128H133.3333333333333V170.6666666666667H149.3333333333333C172.8 170.6666666666667 192 189.8666666666667 192 213.3333333333334S172.8 256 149.3333333333333 256H106.6666666666667M133.3333333333333 192V234.6666666666667H144C155.7333333333333 234.6666666666667 165.3333333333333 225.0666666666667 165.3333333333333 213.3333333333334S155.7333333333333 192 144 192H133.3333333333333M208 256V128H234.6666666666667V170.6666666666667H250.6666666666667L264.7466666666667 128H292.9066666666667L276.0533333333334 178.9866666666667C286.5066666666667 186.6666666666667 293.3333333333334 199.2533333333333 293.3333333333334 213.3333333333334C293.3333333333334 236.8 274.1333333333334 256 250.6666666666667 256H208M234.6666666666667 192V234.6666666666667H245.3333333333333C257.0666666666667 234.6666666666667 266.6666666666667 225.0666666666667 266.6666666666667 213.3333333333334S257.0666666666667 192 245.3333333333333 192H234.6666666666667M362.6666666666667 256C333.2266666666667 256 309.3333333333333 227.4133333333334 309.3333333333333 192S333.2266666666667 128 362.6666666666667 128S416 156.5866666666667 416 192S392.1066666666667 256 362.6666666666667 256M362.6666666666667 229.3333333333334C378.88 229.3333333333334 392.1066666666667 212.6933333333334 392.1066666666667 192S378.88 154.6666666666667 362.6666666666667 154.6666666666667C346.4533333333333 154.6666666666667 333.44 171.3066666666667 333.44 192S346.4533333333333 229.3333333333334 362.6666666666667 229.3333333333334z" /></svg>