<?xml version="1.0" encoding="UTF-8"?><!DOCTYPE svg PUBLIC "-//W3C//DTD SVG 1.1//EN" "http://www.w3.org/Graphics/SVG/1.1/DTD/svg11.dtd"><svg xmlns="http://www.w3.org/2000/svg" xmlns:xlink="http://www.w3.org/1999/xlink" version="1.1" width="512" height="512" viewBox="0 0 512 512">    <path fill="#ffffff" transform="scale(1, -1) translate(0, -448)" glyph-name="format-bold" unicode="&#xF264;" horiz-adv-x="512" d=" M288 117.3333333333334H213.3333333333333V181.3333333333334H288C305.7066666666667 181.3333333333334 320 167.04 320 149.3333333333334S305.7066666666667 117.3333333333334 288 117.3333333333334M213.3333333333333 309.3333333333334H277.3333333333333C295.04 309.3333333333334 309.3333333333333 295.04 309.3333333333333 277.3333333333334S295.04 245.3333333333334 277.3333333333333 245.3333333333334H213.3333333333333M332.8 217.8133333333334C353.4933333333334 232.32 368 256 368 277.3333333333334C368 325.5466666666667 330.6666666666667 362.6666666666667 282.6666666666667 362.6666666666667H149.3333333333333V64H299.52C344.32 64 378.6666666666667 100.2666666666667 378.6666666666667 144.8533333333334C378.6666666666667 177.28 360.32 205.0133333333333 332.8 217.8133333333333z" /></svg>