<?xml version="1.0" encoding="UTF-8"?><!DOCTYPE svg PUBLIC "-//W3C//DTD SVG 1.1//EN" "http://www.w3.org/Graphics/SVG/1.1/DTD/svg11.dtd"><svg xmlns="http://www.w3.org/2000/svg" xmlns:xlink="http://www.w3.org/1999/xlink" version="1.1" width="512" height="512" viewBox="0 0 512 512">    <path fill="#ffffff" transform="scale(1, -1) translate(0, -448)" glyph-name="account-question-outline" unicode="&#xFB36;" horiz-adv-x="512" d=" M437.3333333333333 138.6666666666667V106.6666666666667H405.3333333333333V138.6666666666667H437.3333333333333M394.6666666666667 245.3333333333334H362.6666666666667V256C362.6666666666667 291.4133333333334 391.2533333333334 320 426.6666666666667 320S490.6666666666666 291.4133333333334 490.6666666666666 256C490.6666666666666 235.3066666666667 480 215.8933333333334 463.1466666666666 204.5866666666667L456.7466666666667 200.5333333333334C444.5866666666667 192 437.3333333333333 178.9866666666667 437.3333333333333 164.2666666666667V160.0000000000001H405.3333333333333V164.2666666666667C405.3333333333333 189.6533333333334 418.1333333333334 213.3333333333334 439.2533333333334 227.2000000000001L445.44 231.2533333333334C453.76 236.8000000000001 458.6666666666666 245.9733333333334 458.6666666666666 256.0000000000001C458.6666666666666 273.7066666666667 444.3733333333333 288.0000000000001 426.6666666666667 288.0000000000001S394.6666666666667 273.7066666666667 394.6666666666667 256.0000000000001V245.3333333333334M192 170.6666666666667C248.96 170.6666666666667 362.6666666666667 142.0800000000001 362.6666666666667 85.3333333333334V21.3333333333334H21.3333333333333V85.3333333333334C21.3333333333333 142.0800000000001 135.04 170.6666666666667 192 170.6666666666667M192 362.6666666666667C239.1466666666667 362.6666666666667 277.3333333333333 324.48 277.3333333333333 277.3333333333334S239.1466666666667 192 192 192S106.6666666666667 230.1866666666667 106.6666666666667 277.3333333333334S144.8533333333333 362.6666666666667 192 362.6666666666667M192 130.1333333333333C128.64 130.1333333333333 61.8666666666667 98.9866666666667 61.8666666666667 85.3333333333334V61.8666666666667H322.1333333333334V85.3333333333334C322.1333333333334 98.9866666666667 255.36 130.1333333333333 192 130.1333333333333M192 322.1333333333334C167.2533333333333 322.1333333333334 147.2 302.0800000000001 147.2 277.3333333333334C147.2 252.5866666666667 167.2533333333333 232.5333333333334 192 232.5333333333334C216.7466666666667 232.5333333333334 236.8 252.5866666666667 236.8 277.3333333333334C236.8 302.0800000000001 216.7466666666667 322.1333333333334 192 322.1333333333334z" /></svg>