<?xml version="1.0" encoding="UTF-8"?><!DOCTYPE svg PUBLIC "-//W3C//DTD SVG 1.1//EN" "http://www.w3.org/Graphics/SVG/1.1/DTD/svg11.dtd"><svg xmlns="http://www.w3.org/2000/svg" xmlns:xlink="http://www.w3.org/1999/xlink" version="1.1" width="512" height="512" viewBox="0 0 512 512">    <path fill="#ffffff" transform="scale(1, -1) translate(0, -448)" glyph-name="image-move" unicode="&#xF9F7;" horiz-adv-x="512" d=" M320 384H405.3333333333333V448L512 341.3333333333334L405.3333333333333 234.6666666666667V298.6666666666667H320V384M448 193.28V42.6666666666667C448 19.2 428.8 0 405.3333333333333 0H106.6666666666667C83.2 0 64 19.2 64 42.6666666666667V341.3333333333334C64 364.8 83.2 384 106.6666666666667 384H257.28C256 376.9600000000001 256 369.7066666666667 256 362.6666666666667C256 268.3733333333334 332.3733333333333 192 426.6666666666667 192C433.7066666666666 192 440.9600000000001 192 448 193.28M405.3333333333333 64L309.3333333333333 192L234.6666666666667 96L181.3333333333333 160L106.6666666666667 64H405.3333333333333z" /></svg>