<?xml version="1.0" encoding="UTF-8"?><!DOCTYPE svg PUBLIC "-//W3C//DTD SVG 1.1//EN" "http://www.w3.org/Graphics/SVG/1.1/DTD/svg11.dtd"><svg xmlns="http://www.w3.org/2000/svg" xmlns:xlink="http://www.w3.org/1999/xlink" version="1.1" width="512" height="512" viewBox="0 0 512 512">    <path fill="#ffffff" transform="scale(1, -1) translate(0, -448)" glyph-name="betamax" unicode="&#xF9CA;" horiz-adv-x="512" d=" M85.3333333333333 341.3333333333334C61.8666666666667 341.3333333333334 42.6666666666667 322.1333333333334 42.6666666666667 298.6666666666667V85.3333333333334C42.6666666666667 61.8666666666667 61.8666666666667 42.6666666666667 85.3333333333333 42.6666666666667H426.6666666666667C450.1333333333334 42.6666666666667 469.3333333333333 61.8666666666667 469.3333333333333 85.3333333333334V298.6666666666667C469.3333333333333 322.1333333333334 450.1333333333334 341.3333333333334 426.6666666666667 341.3333333333334H85.3333333333333M170.6666666666667 256C217.8133333333333 256 256 217.8133333333334 256 170.6666666666667S217.8133333333333 85.3333333333334 170.6666666666667 85.3333333333334S85.3333333333333 123.52 85.3333333333333 170.6666666666667S123.52 256 170.6666666666667 256M277.3333333333333 256H426.6666666666667V85.3333333333334H277.3333333333333V256M170.6666666666667 213.3333333333334C147.2 213.3333333333334 128 194.1333333333333 128 170.6666666666667S147.2 128 170.6666666666667 128S213.3333333333333 147.2000000000001 213.3333333333333 170.6666666666667S194.1333333333333 213.3333333333334 170.6666666666667 213.3333333333334z" /></svg>