<?xml version="1.0" encoding="UTF-8"?><!DOCTYPE svg PUBLIC "-//W3C//DTD SVG 1.1//EN" "http://www.w3.org/Graphics/SVG/1.1/DTD/svg11.dtd"><svg xmlns="http://www.w3.org/2000/svg" xmlns:xlink="http://www.w3.org/1999/xlink" version="1.1" width="512" height="512" viewBox="0 0 512 512">    <path fill="#ffffff" transform="scale(1, -1) translate(0, -448)" glyph-name="access-point-network" unicode="&#xF003;" horiz-adv-x="512" d=" M105.1733333333333 364.16C66.56 325.5466666666667 42.6666666666667 272.2133333333334 42.6666666666667 213.3333333333334C42.6666666666667 154.4533333333334 66.56 101.1200000000001 105.1733333333333 62.5066666666667L135.2533333333333 92.5866666666667C104.32 123.3066666666667 85.3333333333333 165.9733333333334 85.3333333333333 213.3333333333334C85.3333333333333 260.48 104.32 303.36 135.2533333333333 334.0800000000001L105.1733333333333 364.16M406.8266666666667 364.16L376.7466666666667 334.0800000000001C407.68 303.36 426.6666666666667 260.48 426.6666666666667 213.3333333333334C426.6666666666667 165.9733333333334 407.68 123.3066666666667 376.7466666666667 92.5866666666667L406.8266666666667 62.5066666666667C445.44 101.12 469.3333333333333 154.4533333333334 469.3333333333333 213.3333333333334C469.3333333333333 272.2133333333334 445.44 325.5466666666667 406.8266666666667 364.1600000000001M165.5466666666667 303.7866666666667C142.2933333333333 280.5333333333334 128 248.5333333333334 128 213.3333333333334C128 178.1333333333333 142.2933333333333 146.1333333333333 165.5466666666667 122.88L195.6266666666667 152.96C180.2666666666667 168.3200000000001 170.6666666666667 189.6533333333334 170.6666666666667 213.3333333333334S180.2666666666667 258.3466666666667 195.6266666666667 273.7066666666667L165.5466666666667 303.7866666666667M346.4533333333334 303.7866666666667L316.3733333333334 273.7066666666667C331.7333333333334 258.3466666666667 341.3333333333333 237.0133333333333 341.3333333333333 213.3333333333334S331.7333333333334 168.3200000000001 316.3733333333334 152.96L346.4533333333333 122.88C369.7066666666666 146.1333333333333 384 178.1333333333333 384 213.3333333333334C384 248.5333333333334 369.7066666666666 280.5333333333334 346.4533333333333 303.7866666666667M256 256C232.5333333333334 256 213.3333333333333 236.8 213.3333333333333 213.3333333333334S232.5333333333334 170.6666666666667 256 170.6666666666667S298.6666666666667 189.8666666666667 298.6666666666667 213.3333333333334S279.4666666666667 256 256 256M234.6666666666667 128V42.6666666666667H213.3333333333333C201.6 42.6666666666667 192 33.0666666666667 192 21.3333333333334H42.6666666666667V-21.3333333333333H192C192 -33.0666666666667 201.6 -42.6666666666666 213.3333333333333 -42.6666666666666H298.6666666666667C310.4 -42.6666666666666 320 -33.0666666666667 320 -21.3333333333333H469.3333333333333V21.3333333333334H320C320 33.0666666666667 310.4 42.6666666666667 298.6666666666667 42.6666666666667H277.3333333333333V128H234.6666666666667z" /></svg>