<?xml version="1.0" encoding="UTF-8"?><!DOCTYPE svg PUBLIC "-//W3C//DTD SVG 1.1//EN" "http://www.w3.org/Graphics/SVG/1.1/DTD/svg11.dtd"><svg xmlns="http://www.w3.org/2000/svg" xmlns:xlink="http://www.w3.org/1999/xlink" version="1.1" width="512" height="512" viewBox="0 0 512 512">    <path fill="#ffffff" transform="scale(1, -1) translate(0, -448)" glyph-name="face-outline" unicode="&#xFB72;" horiz-adv-x="512" d=" M218.6666666666667 170.6666666666667C218.6666666666667 155.9466666666667 206.72 144 192 144S165.3333333333333 155.9466666666667 165.3333333333333 170.6666666666667S177.28 197.3333333333334 192 197.3333333333334S218.6666666666667 185.3866666666667 218.6666666666667 170.6666666666667M320 197.3333333333334C305.28 197.3333333333334 293.3333333333333 185.3866666666667 293.3333333333333 170.6666666666667S305.28 144 320 144S346.6666666666667 155.9466666666667 346.6666666666667 170.6666666666667S334.72 197.3333333333334 320 197.3333333333334M469.3333333333333 192C469.3333333333333 74.24 373.76 -21.3333333333333 256 -21.3333333333333S42.6666666666667 74.24 42.6666666666667 192S138.24 405.3333333333333 256 405.3333333333333S469.3333333333333 309.76 469.3333333333333 192M227.4133333333334 360.1066666666667C257.28 310.6133333333334 311.4666666666667 277.3333333333334 373.3333333333333 277.3333333333334C383.1466666666667 277.3333333333334 392.7466666666667 278.4 401.92 279.8933333333333C372.0533333333334 329.3866666666667 317.8666666666667 362.6666666666667 256 362.6666666666667C246.1866666666667 362.6666666666667 236.5866666666667 361.6 227.4133333333334 360.1066666666667M94.2933333333333 245.9733333333334C130.7733333333333 266.6666666666667 158.9333333333333 300.3733333333334 172.3733333333333 340.6933333333334C135.8933333333333 320 107.7333333333333 286.2933333333334 94.2933333333333 245.9733333333334M426.6666666666667 192C426.6666666666667 208.64 424.1066666666667 224.64 419.6266666666667 239.7866666666667C404.6933333333334 236.5866666666667 389.3333333333333 234.6666666666667 373.3333333333333 234.6666666666667C306.56 234.6666666666667 247.04 265.3866666666667 207.7866666666667 313.3866666666667C185.3866666666667 258.7733333333334 140.8 215.8933333333333 85.3333333333333 194.9866666666667V192C85.3333333333333 97.92 161.92 21.3333333333334 256 21.3333333333334S426.6666666666667 97.92 426.6666666666667 192z" /></svg>