<?xml version="1.0" encoding="UTF-8"?><!DOCTYPE svg PUBLIC "-//W3C//DTD SVG 1.1//EN" "http://www.w3.org/Graphics/SVG/1.1/DTD/svg11.dtd"><svg xmlns="http://www.w3.org/2000/svg" xmlns:xlink="http://www.w3.org/1999/xlink" version="1.1" width="512" height="512" viewBox="0 0 512 512">    <path fill="#ffffff" transform="scale(1, -1) translate(0, -448)" glyph-name="cloud-search" unicode="&#xF955;" horiz-adv-x="512" d=" M330.6666666666667 192C384 192 426.6666666666667 149.3333333333334 426.6666666666667 96C426.6666666666667 77.2266666666667 421.3333333333333 59.52 411.9466666666666 44.8000000000001L477.6533333333333 -21.3333333333333L448 -50.9866666666667L381.44 14.5066666666667C366.7199999999999 5.3333333333334 349.2266666666666 0 330.6666666666667 0C277.3333333333333 0 234.6666666666667 42.6666666666667 234.6666666666667 96S277.3333333333333 192 330.6666666666667 192M330.6666666666667 149.3333333333334C301.2266666666667 149.3333333333334 277.3333333333333 125.44 277.3333333333333 96S301.2266666666667 42.6666666666667 330.6666666666667 42.6666666666667S384 66.5600000000001 384 96S360.1066666666667 149.3333333333334 330.6666666666667 149.3333333333334M412.8 276.6933333333334C468.2666666666667 272.64 512 226.9866666666667 512 170.6666666666667C512 135.68 495.1466666666666 104.5333333333333 469.3333333333333 85.3333333333334V96C469.3333333333333 172.5866666666667 407.2533333333334 234.6666666666667 330.6666666666667 234.6666666666667S192 172.5866666666667 192 96C192 85.3333333333334 193.28 74.6666666666667 195.6266666666667 64H128C57.3866666666667 64 0 121.3866666666667 0 192C0 258.1333333333334 49.92 312.32 114.1333333333333 319.36C140.8 370.3466666666667 194.3466666666666 405.3333333333333 256 405.3333333333333C333.6533333333333 405.3333333333333 398.2933333333334 350.0800000000001 412.8 276.6933333333334z" /></svg>