<?xml version="1.0" encoding="UTF-8"?><!DOCTYPE svg PUBLIC "-//W3C//DTD SVG 1.1//EN" "http://www.w3.org/Graphics/SVG/1.1/DTD/svg11.dtd"><svg xmlns="http://www.w3.org/2000/svg" xmlns:xlink="http://www.w3.org/1999/xlink" version="1.1" width="512" height="512" viewBox="0 0 512 512">    <path fill="#ffffff" transform="scale(1, -1) translate(0, -448)" glyph-name="microphone-variant-off" unicode="&#xF371;" horiz-adv-x="512" d=" M42.6666666666667 335.5733333333334L69.9733333333333 362.6666666666667L426.6666666666667 5.9733333333334L399.5733333333333 -21.3333333333333L341.3333333333333 37.12C338.3466666666667 -7.4666666666667 301.2266666666667 -42.6666666666666 256 -42.6666666666666C208.8533333333333 -42.6666666666666 170.6666666666667 -4.48 170.6666666666667 42.6666666666667V64H149.3333333333333L131.4133333333333 238.5066666666667C124.16 245.9733333333334 117.9733333333333 254.72 113.7066666666667 264.5333333333334L42.6666666666667 335.5733333333334M192 384C239.1466666666667 384 277.3333333333333 345.8133333333334 277.3333333333333 298.6666666666667H188.16L129.7066666666667 357.12C145.28 373.3333333333334 167.4666666666667 384 192 384M252.5866666666667 238.5066666666667L252.16 234.6666666666667L209.4933333333334 277.3333333333334H274.56C270.7200000000001 262.4000000000001 263.04 249.1733333333334 252.5866666666667 238.5066666666667M234.6666666666667 64H213.3333333333333V42.6666666666667C213.3333333333333 19.2 232.5333333333334 0 256 0S298.6666666666667 19.2 298.6666666666667 42.6666666666667V79.5733333333334L242.1333333333334 136.1066666666667L234.6666666666667 64M384 234.6666666666667H426.6666666666667L405.3333333333333 213.3333333333334L426.6666666666667 192H384C360.5333333333333 192 341.3333333333333 172.8 341.3333333333333 149.3333333333334V145.4933333333334L305.0666666666667 181.3333333333334C317.8666666666667 213.3333333333334 348.3733333333333 234.6666666666667 384 234.6666666666667M170.6666666666667 192C170.6666666666667 180.2666666666667 180.2666666666667 170.6666666666667 192 170.6666666666667C196.48 170.6666666666667 200.5333333333333 171.9466666666667 203.9466666666667 174.2933333333334L174.2933333333333 203.9466666666667C171.9466666666667 200.5333333333334 170.6666666666667 196.48 170.6666666666667 192z" /></svg>