<?xml version="1.0" encoding="UTF-8"?><!DOCTYPE svg PUBLIC "-//W3C//DTD SVG 1.1//EN" "http://www.w3.org/Graphics/SVG/1.1/DTD/svg11.dtd"><svg xmlns="http://www.w3.org/2000/svg" xmlns:xlink="http://www.w3.org/1999/xlink" version="1.1" width="512" height="512" viewBox="0 0 512 512">    <path fill="#ffffff" transform="scale(1, -1) translate(0, -448)" glyph-name="select" unicode="&#xF485;" horiz-adv-x="512" d=" M85.3333333333333 384H106.6666666666667V341.3333333333334H64V362.6666666666667C64 374.4 73.6 384 85.3333333333333 384M426.6666666666667 384C438.4 384 448 374.4 448 362.6666666666667V341.3333333333334H405.3333333333333V384H426.6666666666667M320 341.3333333333334V384H362.6666666666667V341.3333333333334H320M234.6666666666667 341.3333333333334V384H277.3333333333333V341.3333333333334H234.6666666666667M149.3333333333333 341.3333333333334V384H192V341.3333333333334H149.3333333333333M448 21.3333333333334C448 9.6 438.4 0 426.6666666666667 0H405.3333333333333V42.6666666666667H448V21.3333333333334M320 0V42.6666666666667H362.6666666666667V0H320M234.6666666666667 0V42.6666666666667H277.3333333333333V0H234.6666666666667M149.3333333333333 0V42.6666666666667H192V0H149.3333333333333M85.3333333333333 0C73.6 0 64 9.6 64 21.3333333333334V42.6666666666667H106.6666666666667V0H85.3333333333333M64 128H106.6666666666667V85.3333333333334H64V128M448 128V85.3333333333334H405.3333333333333V128H448M64 213.3333333333334H106.6666666666667V170.6666666666667H64V213.3333333333334M448 213.3333333333334V170.6666666666667H405.3333333333333V213.3333333333334H448M64 298.6666666666667H106.6666666666667V256H64V298.6666666666667M448 298.6666666666667V256H405.3333333333333V298.6666666666667H448z" /></svg>