<?xml version="1.0" encoding="UTF-8"?><!DOCTYPE svg PUBLIC "-//W3C//DTD SVG 1.1//EN" "http://www.w3.org/Graphics/SVG/1.1/DTD/svg11.dtd"><svg xmlns="http://www.w3.org/2000/svg" xmlns:xlink="http://www.w3.org/1999/xlink" version="1.1" width="512" height="512" viewBox="0 0 512 512">    <path fill="#ffffff" transform="scale(1, -1) translate(0, -448)" glyph-name="page-previous" unicode="&#xFB8E;" horiz-adv-x="512" d=" M85.3333333333333 0H405.3333333333333C428.8 0 448 19.2 448 42.6666666666667V170.6666666666667H362.6666666666667V128L277.3333333333333 192L362.6666666666667 256V213.3333333333334H448V341.3333333333334C448 364.8 428.8 384 405.3333333333333 384H85.3333333333333C61.8666666666667 384 42.6666666666667 364.8 42.6666666666667 341.3333333333334V42.6666666666667C42.6666666666667 19.2 61.8666666666667 0 85.3333333333333 0M85.3333333333333 128H170.6666666666667V85.3333333333334H85.3333333333333V128M85.3333333333333 213.3333333333334H234.6666666666667V170.6666666666667H85.3333333333333V213.3333333333334M85.3333333333333 298.6666666666667H234.6666666666667V256H85.3333333333333V298.6666666666667M448 213.3333333333334H512V170.6666666666667H448V213.3333333333334z" /></svg>