<?xml version="1.0" encoding="UTF-8"?><!DOCTYPE svg PUBLIC "-//W3C//DTD SVG 1.1//EN" "http://www.w3.org/Graphics/SVG/1.1/DTD/svg11.dtd"><svg xmlns="http://www.w3.org/2000/svg" xmlns:xlink="http://www.w3.org/1999/xlink" version="1.1" width="512" height="512" viewBox="0 0 512 512">    <path fill="#ffffff" transform="scale(1, -1) translate(0, -448)" glyph-name="stocking" unicode="&#xF4DA;" horiz-adv-x="512" d=" M362.6666666666667 405.3333333333333C386.1333333333334 405.3333333333333 405.3333333333333 386.1333333333334 405.3333333333333 362.6666666666667V298.6666666666667C405.3333333333333 275.2000000000001 386.1333333333334 256 362.6666666666667 256V85.3333333333334C362.6666666666667 67.2 352 51.84 335.7866666666667 45.6533333333334L202.6666666666667 -16.4266666666666C181.3333333333333 -26.4533333333333 155.52 -17.28 145.7066666666667 4.0533333333334L128 42.6666666666667C117.3333333333333 64 126.9333333333333 89.6 148.2666666666667 99.4133333333334L213.3333333333333 129.92V256C189.8666666666667 256 170.6666666666667 275.2000000000001 170.6666666666667 298.6666666666667V362.6666666666667C170.6666666666667 386.1333333333334 189.8666666666667 405.3333333333333 213.3333333333333 405.3333333333333H362.6666666666667M213.3333333333333 362.6666666666667V298.6666666666667H362.6666666666667V362.6666666666667H213.3333333333333z" /></svg>