<?xml version="1.0" encoding="UTF-8"?><!DOCTYPE svg PUBLIC "-//W3C//DTD SVG 1.1//EN" "http://www.w3.org/Graphics/SVG/1.1/DTD/svg11.dtd"><svg xmlns="http://www.w3.org/2000/svg" xmlns:xlink="http://www.w3.org/1999/xlink" version="1.1" width="512" height="512" viewBox="0 0 512 512">    <path fill="#ffffff" transform="scale(1, -1) translate(0, -448)" glyph-name="cart-off" unicode="&#xF66B;" horiz-adv-x="512" d=" M484.9066666666666 -36.9066666666666L27.0933333333333 420.9066666666667L0 393.8133333333334L93.6533333333333 300.1600000000001L140.8 200.7466666666667L112 148.48C108.5866666666667 142.5066666666667 106.6666666666667 135.4666666666667 106.6666666666667 128C106.6666666666667 104.5333333333333 125.8666666666667 85.3333333333334 149.3333333333333 85.3333333333334H308.48L337.92 55.8933333333334C327.2533333333334 48.2133333333334 320 35.6266666666667 320 21.3333333333334C320 -2.1333333333333 339.2 -21.3333333333333 362.6666666666667 -21.3333333333333C376.9600000000001 -21.3333333333333 389.5466666666667 -14.2933333333333 397.2266666666667 -3.4133333333333L457.8133333333333 -64L484.9066666666666 -36.9066666666666M158.2933333333333 128C155.3066666666667 128 152.96 130.3466666666667 152.96 133.3333333333334L153.6 135.8933333333333L172.8 170.6666666666667H223.1466666666667L265.8133333333333 128H158.2933333333333M331.7333333333334 170.6666666666667C347.7333333333334 170.6666666666667 361.8133333333334 179.4133333333334 369.0666666666667 192.64L445.4400000000001 330.6666666666667C447.1466666666667 334.08 448.0000000000001 337.7066666666667 448.0000000000001 341.3333333333333C448.0000000000001 353.0666666666667 438.4000000000001 362.6666666666667 426.6666666666668 362.6666666666667H139.52L331.7333333333334 170.6666666666667M149.3333333333333 64C125.8666666666667 64 106.6666666666667 44.8000000000001 106.6666666666667 21.3333333333334S125.8666666666667 -21.3333333333333 149.3333333333333 -21.3333333333333S192 -2.1333333333333 192 21.3333333333334S172.8 64 149.3333333333333 64z" /></svg>