<?xml version="1.0" encoding="UTF-8"?><!DOCTYPE svg PUBLIC "-//W3C//DTD SVG 1.1//EN" "http://www.w3.org/Graphics/SVG/1.1/DTD/svg11.dtd"><svg xmlns="http://www.w3.org/2000/svg" xmlns:xlink="http://www.w3.org/1999/xlink" version="1.1" width="512" height="512" viewBox="0 0 512 512">    <path fill="#ffffff" transform="scale(1, -1) translate(0, -448)" glyph-name="emoticon-cool" unicode="&#xFC47;" horiz-adv-x="512" d=" M68.6933333333333 293.9733333333334C104.7466666666667 360.32 175.1466666666667 405.3333333333333 256 405.3333333333333C336.8533333333333 405.3333333333333 407.2533333333334 360.3200000000001 443.3066666666667 293.9733333333334L426.6666666666667 277.3333333333334H85.3333333333333L68.6933333333333 293.9733333333334M456.5333333333333 264.5333333333334C464.6399999999999 241.7066666666667 469.3333333333333 217.3866666666667 469.3333333333333 192C469.3333333333333 74.24 373.76 -21.3333333333333 256 -21.3333333333333S42.6666666666667 74.24 42.6666666666667 192C42.6666666666667 217.3866666666667 47.36 241.7066666666667 55.4666666666667 264.5333333333334L85.3333333333333 234.6666666666667H106.6666666666667C106.6666666666667 205.2266666666667 151.8933333333333 181.3333333333334 181.3333333333333 181.3333333333334S240 205.2266666666667 240 234.6666666666667H272C272 205.2266666666667 301.2266666666667 181.3333333333334 330.6666666666667 181.3333333333334S405.3333333333333 205.2266666666667 405.3333333333333 234.6666666666667H426.6666666666667L456.5333333333333 264.5333333333334M345.3866666666666 119.04L315.0933333333333 149.3333333333334C305.4933333333334 133.9733333333334 282.6666666666667 123.0933333333334 256 123.0933333333334S206.5066666666667 133.9733333333334 196.9066666666667 149.3333333333334L166.6133333333334 119.04C185.8133333333333 96 218.6666666666667 80.4266666666667 256 80.4266666666667C293.3333333333333 80.4266666666667 326.1866666666666 96 345.3866666666667 119.04z" /></svg>