<?xml version="1.0" encoding="UTF-8"?><!DOCTYPE svg PUBLIC "-//W3C//DTD SVG 1.1//EN" "http://www.w3.org/Graphics/SVG/1.1/DTD/svg11.dtd"><svg xmlns="http://www.w3.org/2000/svg" xmlns:xlink="http://www.w3.org/1999/xlink" version="1.1" width="512" height="512" viewBox="0 0 512 512">    <path fill="#ffffff" transform="scale(1, -1) translate(0, -448)" glyph-name="chart-arc" unicode="&#xF126;" horiz-adv-x="512" d=" M345.1733333333333 29.8666666666667L302.2933333333333 104.1066666666667C323.2 119.4666666666667 337.7066666666667 143.36 340.6933333333334 170.6666666666667H426.6666666666667C423.04 111.7866666666667 391.4666666666667 60.5866666666667 345.1733333333333 29.8666666666667M277.3333333333333 298.0266666666667V384C369.0666666666667 378.4533333333334 442.4533333333334 305.0666666666667 448 213.3333333333334H362.0266666666667C357.12 257.92 321.92 293.12 277.3333333333333 298.0266666666667M149.3333333333333 181.3333333333334C149.3333333333333 167.68 152.1066666666667 154.6666666666667 157.44 142.9333333333333L83.2 100.0533333333334C70.8266666666667 124.5866666666667 64 152.1066666666667 64 181.3333333333334C64 277.9733333333334 139.52 356.9066666666667 234.6666666666667 362.6666666666667V276.6933333333334C186.6666666666667 271.36 149.3333333333333 230.8266666666667 149.3333333333333 181.3333333333334M245.3333333333333 0C181.9733333333333 0 126.2933333333333 32 93.8666666666667 81.4933333333333L168.1066666666667 124.3733333333333C185.6 100.6933333333333 213.3333333333333 85.3333333333334 245.3333333333333 85.3333333333334C258.9866666666667 85.3333333333334 272 88.1066666666667 283.7333333333334 93.44L326.6133333333334 19.2C302.08 6.8266666666667 274.56 0 245.3333333333333 0z" /></svg>