<?xml version="1.0" encoding="UTF-8"?><!DOCTYPE svg PUBLIC "-//W3C//DTD SVG 1.1//EN" "http://www.w3.org/Graphics/SVG/1.1/DTD/svg11.dtd"><svg xmlns="http://www.w3.org/2000/svg" xmlns:xlink="http://www.w3.org/1999/xlink" version="1.1" width="512" height="512" viewBox="0 0 512 512">    <path fill="#ffffff" transform="scale(1, -1) translate(0, -448)" glyph-name="folder-remove" unicode="&#xF258;" horiz-adv-x="512" d=" M213.3333333333333 362.6666666666667L256 320H426.6666666666667C450.1333333333334 320 469.3333333333333 300.8 469.3333333333333 277.3333333333334V64C469.3333333333333 40.5333333333333 450.1333333333334 21.3333333333334 426.6666666666667 21.3333333333334H85.3333333333333C61.6533333333333 21.3333333333334 42.6666666666667 40.5333333333333 42.6666666666667 64V320C42.6666666666667 343.68 61.6533333333333 362.6666666666667 85.3333333333333 362.6666666666667H213.3333333333333M265.8133333333334 215.8933333333334L311.2533333333334 170.6666666666667L265.8133333333334 125.44L296.1066666666667 95.1466666666667L341.3333333333333 140.5866666666667L386.56 95.1466666666667L416.8533333333333 125.4400000000001L371.4133333333333 170.6666666666667L416.8533333333333 215.8933333333334L386.56 246.1866666666667L341.3333333333333 200.7466666666667L296.1066666666667 246.1866666666667L265.8133333333333 215.8933333333333z" /></svg>