<?xml version="1.0" encoding="UTF-8"?><!DOCTYPE svg PUBLIC "-//W3C//DTD SVG 1.1//EN" "http://www.w3.org/Graphics/SVG/1.1/DTD/svg11.dtd"><svg xmlns="http://www.w3.org/2000/svg" xmlns:xlink="http://www.w3.org/1999/xlink" version="1.1" width="512" height="512" viewBox="0 0 512 512">    <path fill="#ffffff" transform="scale(1, -1) translate(0, -448)" glyph-name="artist" unicode="&#xF802;" horiz-adv-x="512" d=" M234.6666666666667 149.3333333333334C256 149.3333333333334 278.4 145.92 302.9333333333333 139.9466666666667C285.6533333333333 121.3866666666667 277.3333333333333 99.6266666666667 277.3333333333333 74.6666666666667C277.3333333333333 55.68 282.6666666666667 37.76 293.9733333333333 21.3333333333334H64V64C64 89.3866666666667 83.4133333333333 109.8666666666667 122.4533333333333 125.44C161.4933333333334 141.2266666666667 199.04 149.3333333333334 234.6666666666667 149.3333333333334M234.6666666666667 192C211.6266666666667 192 192 200.32 174.5066666666667 216.96C157.44 233.6 149.3333333333333 253.6533333333334 149.3333333333333 277.3333333333334C149.3333333333333 300.3733333333334 157.44 320 174.5066666666667 337.4933333333334C192 354.56 211.6266666666667 362.6666666666667 234.6666666666667 362.6666666666667C258.3466666666667 362.6666666666667 278.4 354.56 295.04 337.4933333333334C311.68 320 320 300.3733333333334 320 277.3333333333334C320 253.6533333333334 311.68 233.6 295.04 216.96C278.4 200.32 258.3466666666667 192 234.6666666666667 192M394.6666666666667 234.6666666666667H469.3333333333333V192H426.6666666666667V74.6666666666667C426.6666666666667 45.2266666666667 402.7733333333333 21.3333333333334 373.3333333333333 21.3333333333334S320 45.2266666666667 320 74.6666666666667S343.8933333333333 128 373.3333333333333 128C381.0133333333333 128 388.0533333333334 126.5066666666667 394.6666666666667 123.52V234.6666666666667z" /></svg>