<?xml version="1.0" encoding="UTF-8"?><!DOCTYPE svg PUBLIC "-//W3C//DTD SVG 1.1//EN" "http://www.w3.org/Graphics/SVG/1.1/DTD/svg11.dtd"><svg xmlns="http://www.w3.org/2000/svg" xmlns:xlink="http://www.w3.org/1999/xlink" version="1.1" width="512" height="512" viewBox="0 0 512 512">    <path fill="#ffffff" transform="scale(1, -1) translate(0, -448)" glyph-name="microphone-outline" unicode="&#xF36E;" horiz-adv-x="512" d=" M369.0666666666667 213.3333333333334C369.0666666666667 149.3333333333334 314.88 104.5333333333333 256 104.5333333333333S142.9333333333333 149.3333333333334 142.9333333333333 213.3333333333334H106.6666666666667C106.6666666666667 140.5866666666667 164.6933333333333 80.4266666666667 234.6666666666667 69.9733333333334V0H277.3333333333333V69.9733333333334C347.3066666666667 80.4266666666667 405.3333333333333 140.5866666666667 405.3333333333333 213.3333333333334M230.4 343.4666666666667C230.4 357.5466666666667 241.92 369.0666666666667 256 369.0666666666667C270.08 369.0666666666667 281.6 357.5466666666667 281.6 343.4666666666667L281.3866666666667 211.2C281.3866666666667 197.12 270.08 185.6 256 185.6C241.92 185.6 230.4 197.12 230.4 211.2M256 149.3333333333334C291.4133333333333 149.3333333333334 320 177.92 320 213.3333333333334V341.3333333333334C320 376.7466666666667 291.4133333333333 405.3333333333333 256 405.3333333333333S192 376.7466666666667 192 341.3333333333334V213.3333333333334C192 177.92 220.5866666666667 149.3333333333334 256 149.3333333333334z" /></svg>