<?xml version="1.0" encoding="UTF-8"?><!DOCTYPE svg PUBLIC "-//W3C//DTD SVG 1.1//EN" "http://www.w3.org/Graphics/SVG/1.1/DTD/svg11.dtd"><svg xmlns="http://www.w3.org/2000/svg" xmlns:xlink="http://www.w3.org/1999/xlink" version="1.1" width="512" height="512" viewBox="0 0 512 512">    <path fill="#ffffff" transform="scale(1, -1) translate(0, -448)" glyph-name="calendar-question" unicode="&#xF691;" horiz-adv-x="512" d=" M128 426.6666666666667V384H106.6666666666667C82.9866666666667 384 64 364.8 64 341.3333333333334V42.6666666666667C64 19.2 83.2 0 106.6666666666667 0H405.3333333333333C428.8 0 448 19.2 448 42.6666666666667V341.3333333333334C448 364.8 428.8 384 405.3333333333333 384H384V426.6666666666667H341.3333333333333V384H170.6666666666667V426.6666666666667H128M106.6666666666667 277.3333333333334H405.3333333333333V42.6666666666667H106.6666666666667V277.3333333333334M260.0533333333334 256C241.4933333333334 256 226.56 251.7333333333334 215.04 243.4133333333334C203.9466666666667 234.6666666666667 198.4 222.5066666666667 198.6133333333334 205.6533333333334L198.8266666666667 205.0133333333334H240.0000000000001C240.2133333333334 211.4133333333334 242.1333333333334 216.32 245.9733333333334 219.7333333333334C249.8133333333334 222.9333333333334 254.5066666666667 224.6400000000001 260.0533333333334 224.6400000000001C266.6666666666667 224.6400000000001 272.2133333333334 222.5066666666667 276.0533333333334 218.6666666666667C279.8933333333333 214.6133333333334 281.6 209.0666666666667 281.6 202.6666666666667C281.6 195.84 280.1066666666667 190.0800000000001 276.6933333333334 185.1733333333334C273.7066666666667 180.2666666666667 269.2266666666667 176.0000000000001 263.68 172.5866666666667C252.8 165.3333333333334 245.3333333333334 158.9333333333334 241.28 153.1733333333334C237.0133333333334 147.6266666666667 234.6666666666667 138.6666666666668 234.6666666666667 128.0000000000001H277.3333333333333C277.3333333333333 134.6133333333334 278.1866666666666 139.9466666666667 280.1066666666667 143.7866666666668C282.0266666666667 147.6266666666667 285.6533333333333 151.4666666666667 290.9866666666667 154.8800000000001C300.5866666666667 160.0000000000001 308.48 166.1866666666667 314.6666666666667 174.72C320.8533333333333 183.2533333333334 324.0533333333333 192.0000000000001 324.0533333333333 202.6666666666667C324.0533333333333 218.8800000000001 318.2933333333333 231.8933333333334 306.7733333333333 241.4933333333334C295.4666666666667 251.0933333333334 279.8933333333333 256.0000000000001 260.0533333333333 256.0000000000001M234.6666666666667 106.6666666666667V64H277.3333333333333V106.6666666666667H234.6666666666667z" /></svg>