<?xml version="1.0" encoding="UTF-8"?><!DOCTYPE svg PUBLIC "-//W3C//DTD SVG 1.1//EN" "http://www.w3.org/Graphics/SVG/1.1/DTD/svg11.dtd"><svg xmlns="http://www.w3.org/2000/svg" xmlns:xlink="http://www.w3.org/1999/xlink" version="1.1" width="512" height="512" viewBox="0 0 512 512">    <path fill="#ffffff" transform="scale(1, -1) translate(0, -448)" glyph-name="gentoo" unicode="&#xF8E7;" horiz-adv-x="512" d=" M219.3066666666667 405.3333333333333C211.84 405.3333333333333 204.16 404.6933333333334 196.9066666666667 403.2C119.68 389.12 65.28 322.3466666666667 60.8 278.1866666666667C58.4533333333333 256.64 70.1866666666666 240.4266666666667 76.5866666666667 233.3866666666667C93.8666666666666 213.9733333333333 128.64 199.2533333333333 150.8266666666666 187.0933333333334C118.6133333333333 160 103.8933333333333 146.3466666666667 89.3866666666666 130.9866666666667C67.6266666666666 108.16 52.2666666666666 83.2 52.2666666666666 65.0666666666667C52.2666666666666 59.3066666666667 51.2 40.7466666666667 58.88 26.24C61.6533333333333 20.6933333333333 69.76 2.3466666666667 94.08 -11.3066666666667C109.6533333333333 -20.0533333333333 131.6266666666666 -23.2533333333333 153.3866666666666 -20.2666666666667C220.3733333333333 -10.6666666666667 310.1866666666666 46.2933333333333 374.3999999999999 99.2C415.1466666666666 132.9066666666667 445.0133333333332 165.76 453.5466666666666 181.3333333333333C460.5866666666666 194.7733333333333 461.4399999999999 218.0266666666667 457.3866666666666 232.7466666666667C445.8666666666666 274.3466666666667 352.64 359.4666666666667 276.4799999999999 393.6C258.9866666666666 401.4933333333333 238.9333333333333 405.3333333333333 219.3066666666666 405.3333333333333M241.92 343.2533333333334C247.2533333333333 343.2533333333334 251.9466666666667 342.6133333333333 256 341.3333333333333C280.5333333333333 334.9333333333333 321.7066666666666 305.4933333333334 318.08 278.6133333333334C313.1733333333333 243.2 282.24 228.9066666666667 246.6133333333333 234.0266666666667C225.7066666666666 236.8 184.1066666666666 260.2666666666667 187.3066666666667 301.0133333333333C189.6533333333333 332.8 219.7333333333333 343.4666666666667 241.92 343.2533333333334M241.4933333333334 306.1333333333334C235.7333333333334 306.1333333333334 231.2533333333334 304.8533333333334 229.12 301.44C219.0933333333333 286.0800000000001 224 275.4133333333334 232.96 268.3733333333334C236.16 276.48 271.1466666666667 267.7333333333334 272 260.48C302.2933333333333 283.3066666666668 263.68 305.92 241.4933333333334 306.1333333333334z" /></svg>