<?xml version="1.0" encoding="UTF-8"?><!DOCTYPE svg PUBLIC "-//W3C//DTD SVG 1.1//EN" "http://www.w3.org/Graphics/SVG/1.1/DTD/svg11.dtd"><svg xmlns="http://www.w3.org/2000/svg" xmlns:xlink="http://www.w3.org/1999/xlink" version="1.1" width="512" height="512" viewBox="0 0 512 512">    <path fill="#ffffff" transform="scale(1, -1) translate(0, -448)" glyph-name="calendar-remove-outline" unicode="&#xFC21;" horiz-adv-x="512" d=" M405.3333333333333 362.6666666666667H384V405.3333333333333H341.3333333333333V362.6666666666667H170.6666666666667V405.3333333333333H128V362.6666666666667H106.6666666666667C83.2 362.6666666666667 64 343.4666666666667 64 320V21.3333333333334C64 -2.1333333333333 83.2 -21.3333333333333 106.6666666666667 -21.3333333333333H405.3333333333333C428.8 -21.3333333333333 448 -2.1333333333333 448 21.3333333333334V320C448 343.4666666666667 428.8 362.6666666666667 405.3333333333333 362.6666666666667M405.3333333333333 21.3333333333334H106.6666666666667V234.6666666666667H405.3333333333333V21.3333333333334M106.6666666666667 277.3333333333334V320H405.3333333333333V277.3333333333334H106.6666666666667M175.5733333333333 76.5866666666667L198.1866666666667 53.9733333333334L250.24 106.0266666666668L302.2933333333333 53.9733333333334L324.9066666666667 76.5866666666667L272.8533333333334 128.64L324.9066666666667 180.6933333333333L302.2933333333333 203.3066666666667L250.24 151.2533333333333L198.1866666666667 203.3066666666667L175.5733333333333 180.6933333333333L227.6266666666667 128.64L175.5733333333333 76.5866666666667z" /></svg>