<?xml version="1.0" encoding="UTF-8"?><!DOCTYPE svg PUBLIC "-//W3C//DTD SVG 1.1//EN" "http://www.w3.org/Graphics/SVG/1.1/DTD/svg11.dtd"><svg xmlns="http://www.w3.org/2000/svg" xmlns:xlink="http://www.w3.org/1999/xlink" version="1.1" width="512" height="512" viewBox="0 0 512 512">    <path fill="#ffffff" transform="scale(1, -1) translate(0, -448)" glyph-name="chart-donut-variant" unicode="&#xF7AF;" horiz-adv-x="512" d=" M277.3333333333333 404.2666666666667C385.0666666666667 393.6 469.3333333333333 302.5066666666667 469.3333333333333 192C469.3333333333333 161.0666666666667 462.5066666666667 131.6266666666667 450.56 105.1733333333334L394.6666666666667 137.8133333333333C401.4933333333334 154.6666666666667 405.3333333333333 172.8 405.3333333333333 192C405.3333333333333 267.3066666666667 349.6533333333333 329.1733333333334 277.3333333333333 339.6266666666667V404.2666666666667M256 42.6666666666667C303.1466666666667 42.6666666666667 344.9600000000001 64 372.2666666666667 98.5600000000001L427.7333333333334 65.92C388.9066666666667 13.0133333333333 326.4 -21.3333333333333 256 -21.3333333333333C138.0266666666667 -21.3333333333333 42.6666666666667 74.6666666666667 42.6666666666667 192C42.6666666666667 302.7200000000001 126.72 393.6 234.6666666666667 404.2666666666667V339.6266666666667C162.3466666666667 329.1733333333334 106.6666666666667 267.3066666666667 106.6666666666667 192C106.6666666666667 109.44 173.44 42.6666666666667 256 42.6666666666667M256 320C326.6133333333334 320 384 262.6133333333334 384 192C384 128.64 337.92 75.9466666666667 277.3333333333333 65.7066666666667V131.6266666666667C302.2933333333333 140.3733333333333 320 164.0533333333333 320 192C320 227.4133333333333 291.4133333333333 256 256 256L244.2666666666667 254.9333333333333L211.4133333333333 311.8933333333333C225.28 317.2266666666667 240.2133333333333 320 256 320M128 192C128 231.68 146.1333333333333 266.6666666666667 174.5066666666667 290.56L207.36 233.6C197.76 222.5066666666667 192 207.7866666666667 192 192C192 164.0533333333334 209.7066666666667 140.3733333333333 234.6666666666667 131.6266666666667V65.7066666666667C174.08 75.9466666666667 128 128.64 128 192z" /></svg>