<?xml version="1.0" encoding="UTF-8"?><!DOCTYPE svg PUBLIC "-//W3C//DTD SVG 1.1//EN" "http://www.w3.org/Graphics/SVG/1.1/DTD/svg11.dtd"><svg xmlns="http://www.w3.org/2000/svg" xmlns:xlink="http://www.w3.org/1999/xlink" version="1.1" width="512" height="512" viewBox="0 0 512 512">    <path fill="#ffffff" transform="scale(1, -1) translate(0, -448)" glyph-name="github-circle" unicode="&#xF2A4;" horiz-adv-x="512" d=" M256 405.3333333333333C138.24 405.3333333333333 42.6666666666667 309.76 42.6666666666667 192C42.6666666666667 97.7066666666667 103.8933333333333 17.7066666666667 188.5866666666667 -10.6666666666666C199.2533333333333 -12.3733333333333 202.6666666666667 -5.76 202.6666666666667 0V36.0533333333334C143.5733333333333 23.2533333333333 130.9866666666667 64.64 130.9866666666667 64.64C121.1733333333334 89.3866666666667 107.3066666666667 96 107.3066666666667 96C87.8933333333333 109.2266666666667 108.8 108.8 108.8 108.8C130.1333333333333 107.3066666666667 141.44 86.8266666666667 141.44 86.8266666666667C160 54.4 191.36 64 203.52 69.1200000000001C205.44 82.9866666666667 210.9866666666667 92.3733333333334 216.96 97.7066666666667C169.6 103.0400000000001 119.8933333333334 121.3866666666667 119.8933333333334 202.6666666666667C119.8933333333334 226.3466666666667 128 245.3333333333334 141.8666666666667 260.48C139.7333333333334 265.8133333333334 132.2666666666667 288 144 316.8000000000001C144 316.8000000000001 161.92 322.5600000000001 202.6666666666667 295.0400000000001C219.5200000000001 299.7333333333334 237.8666666666667 302.0800000000001 256 302.0800000000001C274.1333333333334 302.0800000000001 292.48 299.7333333333334 309.3333333333334 295.0400000000001C350.08 322.5600000000001 368 316.8000000000001 368 316.8000000000001C379.7333333333334 288.0000000000001 372.2666666666667 265.8133333333334 370.1333333333334 260.48C384 245.3333333333334 392.1066666666667 226.3466666666667 392.1066666666667 202.6666666666667C392.1066666666667 121.1733333333334 342.1866666666667 103.2533333333333 294.6133333333334 97.92C302.2933333333334 91.3066666666667 309.3333333333334 78.2933333333333 309.3333333333334 58.4533333333333V0C309.3333333333334 -5.76 312.7466666666667 -12.5866666666666 323.6266666666667 -10.6666666666666C408.32 17.92 469.3333333333333 97.7066666666667 469.3333333333333 192C469.3333333333333 309.76 373.76 405.3333333333333 256 405.3333333333333z" /></svg>