<?xml version="1.0" encoding="UTF-8"?><!DOCTYPE svg PUBLIC "-//W3C//DTD SVG 1.1//EN" "http://www.w3.org/Graphics/SVG/1.1/DTD/svg11.dtd"><svg xmlns="http://www.w3.org/2000/svg" xmlns:xlink="http://www.w3.org/1999/xlink" version="1.1" width="512" height="512" viewBox="0 0 512 512">    <path fill="#ffffff" transform="scale(1, -1) translate(0, -448)" glyph-name="apple-finder" unicode="&#xF036;" horiz-adv-x="512" d=" M85.3333333333333 362.6666666666667H253.6533333333334C265.8133333333334 385.92 280.1066666666667 407.8933333333333 297.1733333333333 426.6666666666667L320.8533333333333 402.9866666666667C311.68 390.4 303.5733333333333 376.7466666666667 296.32 362.6666666666667H426.6666666666667C450.1333333333334 362.6666666666667 469.3333333333333 343.4666666666667 469.3333333333333 320V42.6666666666667C469.3333333333333 19.2 450.1333333333334 0 426.6666666666667 0H318.5066666666667L325.5466666666666 -26.24L286.5066666666667 -41.6L275.84 0H85.3333333333333C61.8666666666667 0 42.6666666666667 19.2 42.6666666666667 42.6666666666667V320C42.6666666666667 343.4666666666667 61.8666666666667 362.6666666666667 85.3333333333333 362.6666666666667M85.3333333333333 320V42.6666666666667H267.52C266.6666666666667 49.7066666666667 265.3866666666667 56.7466666666667 264.5333333333333 64H256C197.3333333333333 64 144.64 74.6666666666667 109.44 90.4533333333333L128.8533333333333 125.44C149.3333333333333 114.3466666666667 195.6266666666667 106.6666666666667 256 106.6666666666667H261.12C260.48 120.96 260.6933333333334 135.2533333333333 261.76 149.3333333333334H192S200.5333333333333 235.3066666666667 234.6666666666667 320H85.3333333333333M426.6666666666667 42.6666666666667V320H277.3333333333333C258.1333333333334 272.64 247.04 224.8533333333333 241.0666666666667 192H302.2933333333334C298.6666666666667 164.6933333333334 298.0266666666667 136.1066666666667 299.9466666666667 108.16C338.5600000000001 110.9333333333334 368.0000000000001 117.3333333333334 383.1466666666667 125.4400000000001L402.56 90.4533333333334C377.3866666666667 78.9333333333334 343.4666666666667 70.4 304.8533333333334 66.3466666666668C306.1333333333334 58.2400000000001 307.4133333333333 50.3466666666668 309.3333333333334 42.6666666666667H426.6666666666667M128 277.3333333333334H170.6666666666667V213.3333333333334H128V277.3333333333334M341.3333333333333 277.3333333333334H384V213.3333333333334H341.3333333333333V277.3333333333334z" /></svg>