<?xml version="1.0" encoding="UTF-8"?><!DOCTYPE svg PUBLIC "-//W3C//DTD SVG 1.1//EN" "http://www.w3.org/Graphics/SVG/1.1/DTD/svg11.dtd"><svg xmlns="http://www.w3.org/2000/svg" xmlns:xlink="http://www.w3.org/1999/xlink" version="1.1" width="512" height="512" viewBox="0 0 512 512">    <path fill="#ffffff" transform="scale(1, -1) translate(0, -448)" glyph-name="image-broken" unicode="&#xF2ED;" horiz-adv-x="512" d=" M405.3333333333333 384C428.8 384 448 364.8 448 341.3333333333334V213.3333333333334H405.3333333333333V170.6666666666667H362.6666666666667V128H320V85.3333333333334H277.3333333333333V42.6666666666667H234.6666666666667V0H106.6666666666667C82.9866666666667 0 64 19.2 64 42.6666666666667V341.3333333333334C64 364.8 83.2 384 106.6666666666667 384H405.3333333333333M448 128V42.6666666666667C448 19.2 428.8 0 405.3333333333333 0H320V42.6666666666667H362.6666666666667V85.3333333333334H405.3333333333333V128H448M405.3333333333333 266.6666666666667C405.3333333333333 272.64 400.64 277.3333333333334 394.6666666666667 277.3333333333334H117.3333333333333C111.36 277.3333333333334 106.6666666666667 272.64 106.6666666666667 266.6666666666667V117.3333333333334C106.6666666666667 111.36 111.36 106.6666666666667 117.3333333333333 106.6666666666667H234.6666666666667V128H277.3333333333333V170.6666666666667H320V213.3333333333334H362.6666666666667V256H405.3333333333333V266.6666666666667z" /></svg>