<?xml version="1.0" encoding="UTF-8"?><!DOCTYPE svg PUBLIC "-//W3C//DTD SVG 1.1//EN" "http://www.w3.org/Graphics/SVG/1.1/DTD/svg11.dtd"><svg xmlns="http://www.w3.org/2000/svg" xmlns:xlink="http://www.w3.org/1999/xlink" version="1.1" width="512" height="512" viewBox="0 0 512 512">    <path fill="#ffffff" transform="scale(1, -1) translate(0, -448)" glyph-name="cloud-outline" unicode="&#xF163;" horiz-adv-x="512" d=" M405.3333333333333 64H128C80.8533333333333 64 42.6666666666667 102.1866666666667 42.6666666666667 149.3333333333334S80.8533333333333 234.6666666666667 128 234.6666666666667H143.1466666666667C157.2266666666667 283.9466666666667 202.6666666666667 320 256 320C320.8533333333333 320 373.3333333333333 267.52 373.3333333333333 202.6666666666667V192H405.3333333333333C440.7466666666667 192 469.3333333333333 163.4133333333334 469.3333333333333 128S440.7466666666667 64 405.3333333333333 64M412.8 234.0266666666667C398.2933333333334 307.4133333333334 333.6533333333333 362.6666666666667 256 362.6666666666667C194.3466666666666 362.6666666666667 140.8 327.68 114.1333333333333 276.6933333333334C49.92 269.6533333333334 0 215.4666666666667 0 149.3333333333334C0 78.72 57.3866666666667 21.3333333333334 128 21.3333333333334H405.3333333333333C464.2133333333333 21.3333333333334 512 69.1200000000001 512 128C512 184.3200000000001 468.2666666666667 229.9733333333334 412.8 234.0266666666667z" /></svg>