<?xml version="1.0" encoding="UTF-8"?><!DOCTYPE svg PUBLIC "-//W3C//DTD SVG 1.1//EN" "http://www.w3.org/Graphics/SVG/1.1/DTD/svg11.dtd"><svg xmlns="http://www.w3.org/2000/svg" xmlns:xlink="http://www.w3.org/1999/xlink" version="1.1" width="512" height="512" viewBox="0 0 512 512">    <path fill="#ffffff" transform="scale(1, -1) translate(0, -448)" glyph-name="signature-image" unicode="&#xFE5D;" horiz-adv-x="512" d=" M469.3333333333333 -21.3333333333333H42.6666666666667V21.3333333333334H469.3333333333333V-21.3333333333333M132.2666666666667 78.9333333333333L102.4 108.8L132.2666666666667 138.6666666666667L117.3333333333334 153.6L87.4666666666667 123.7333333333334L57.6 153.6L42.6666666666667 138.6666666666667L72.5333333333334 108.8L42.6666666666667 78.9333333333333L57.6 64L87.4666666666667 93.8666666666667L117.3333333333333 64L132.2666666666667 78.9333333333333M426.6666666666667 341.3333333333334H213.3333333333333C189.8666666666667 341.3333333333334 170.6666666666667 322.1333333333334 170.6666666666667 298.6666666666667V106.6666666666667C170.6666666666667 83.2 189.8666666666667 64 213.3333333333333 64H426.6666666666667C450.1333333333334 64 469.3333333333333 83.2 469.3333333333333 106.6666666666667V298.6666666666667C469.3333333333333 322.1333333333334 450.1333333333334 341.3333333333334 426.6666666666667 341.3333333333334M213.3333333333333 106.6666666666667L268.8 177.0666666666667L307.2 130.1333333333334L358.4 200.5333333333334L426.6666666666667 106.6666666666667H213.3333333333333z" /></svg>