<?xml version="1.0" encoding="UTF-8"?><!DOCTYPE svg PUBLIC "-//W3C//DTD SVG 1.1//EN" "http://www.w3.org/Graphics/SVG/1.1/DTD/svg11.dtd"><svg xmlns="http://www.w3.org/2000/svg" xmlns:xlink="http://www.w3.org/1999/xlink" version="1.1" width="512" height="512" viewBox="0 0 512 512">    <path fill="#ffffff" transform="scale(1, -1) translate(0, -448)" glyph-name="cellphone-lock" unicode="&#xF94E;" horiz-adv-x="512" d=" M362.6666666666667 426.6666666666667H149.3333333333333C125.8666666666667 426.6666666666667 106.6666666666667 407.4666666666667 106.6666666666667 384V320H149.3333333333333V362.6666666666667H362.6666666666667V21.3333333333334H149.3333333333333V64H106.6666666666667V0C106.6666666666667 -23.4666666666667 125.8666666666667 -42.6666666666666 149.3333333333333 -42.6666666666666H362.6666666666667C386.1333333333334 -42.6666666666666 405.3333333333333 -23.4666666666667 405.3333333333333 0V384C405.3333333333333 407.4666666666667 386.1333333333334 426.6666666666667 362.6666666666667 426.6666666666667M187.7333333333334 213.3333333333334V245.3333333333334C187.7333333333334 275.2000000000001 157.8666666666667 298.6666666666667 128 298.6666666666667S68.2666666666667 275.2000000000001 68.2666666666667 245.3333333333334V213.3333333333334C55.4666666666667 213.3333333333334 42.6666666666667 200.5333333333334 42.6666666666667 187.7333333333334V113.0666666666667C42.6666666666667 98.1333333333334 55.4666666666667 85.3333333333334 68.2666666666667 85.3333333333334H185.6C200.5333333333333 85.3333333333334 213.3333333333333 98.1333333333334 213.3333333333333 110.9333333333333V185.6C213.3333333333333 200.5333333333333 200.5333333333333 213.3333333333334 187.7333333333334 213.3333333333334M160 213.3333333333334H96V245.3333333333334C96 262.4000000000001 110.9333333333334 273.0666666666667 128 273.0666666666667S160 262.4000000000001 160 245.3333333333334V213.3333333333334z" /></svg>