<?xml version="1.0" encoding="UTF-8"?><!DOCTYPE svg PUBLIC "-//W3C//DTD SVG 1.1//EN" "http://www.w3.org/Graphics/SVG/1.1/DTD/svg11.dtd"><svg xmlns="http://www.w3.org/2000/svg" xmlns:xlink="http://www.w3.org/1999/xlink" version="1.1" width="512" height="512" viewBox="0 0 512 512">    <path fill="#ffffff" transform="scale(1, -1) translate(0, -448)" glyph-name="water-percent" unicode="&#xF58E;" horiz-adv-x="512" d=" M256 378.6666666666667S128 234.6666666666667 128 149.3333333333334C128 78.5066666666667 185.3866666666667 21.3333333333334 256 21.3333333333334S384 78.72 384 149.3333333333334C384 234.6666666666667 256 378.6666666666667 256 378.6666666666667M308.6933333333334 235.3066666666667L331.3066666666667 212.6933333333334L203.3066666666667 84.6933333333333L180.6933333333333 107.3066666666667M208 234.6666666666667C222.72 234.6666666666667 234.6666666666667 222.72 234.6666666666667 208S222.72 181.3333333333334 208 181.3333333333334S181.3333333333333 193.28 181.3333333333333 208S193.28 234.6666666666667 208 234.6666666666667M304 138.6666666666667C318.72 138.6666666666667 330.6666666666667 126.72 330.6666666666667 112S318.72 85.3333333333334 304 85.3333333333334S277.3333333333333 97.28 277.3333333333333 112S289.28 138.6666666666667 304 138.6666666666667z" /></svg>