<?xml version="1.0" encoding="UTF-8"?><!DOCTYPE svg PUBLIC "-//W3C//DTD SVG 1.1//EN" "http://www.w3.org/Graphics/SVG/1.1/DTD/svg11.dtd"><svg xmlns="http://www.w3.org/2000/svg" xmlns:xlink="http://www.w3.org/1999/xlink" version="1.1" width="512" height="512" viewBox="0 0 512 512">    <path fill="#ffffff" transform="scale(1, -1) translate(0, -448)" glyph-name="docker" unicode="&#xF867;" horiz-adv-x="512" d=" M46.9333333333333 239.7866666666667H94.72V193.28H46.9333333333333V239.7866666666667M105.6 239.7866666666667H153.6V193.28H105.6V239.7866666666667M105.6 299.52H153.6V253.0133333333333H105.6V299.52M164.48 239.7866666666667H212.2666666666667V193.28H164.48V239.7866666666667M164.48 299.52H212.2666666666667V253.0133333333333H164.48V299.52M223.1466666666667 239.7866666666667H271.1466666666667V193.28H223.1466666666667V239.7866666666667M223.1466666666667 299.52H271.1466666666667V253.0133333333333H223.1466666666667V299.52M282.0266666666667 239.7866666666667H329.8133333333334V193.28H282.0266666666667V239.7866666666667M223.1466666666667 359.2533333333334H271.1466666666667V312.7466666666667H223.1466666666667V359.2533333333334M113.7066666666667 126.0800000000001C121.1733333333333 126.0800000000001 127.1466666666667 120.3200000000001 127.1466666666667 113.0666666666667C127.1466666666667 106.0266666666668 121.1733333333333 100.0533333333334 113.7066666666667 100.0533333333334C106.6666666666667 100.0533333333334 100.48 106.0266666666668 100.48 113.0666666666667C100.48 120.3200000000001 106.6666666666667 126.0800000000001 113.7066666666667 126.0800000000001M484.0533333333333 215.68L490.6666666666666 212.0533333333334L487.2533333333332 205.44C473.5999999999999 179.6266666666667 445.2266666666666 171.7333333333334 417.4933333333333 173.0133333333333C375.8933333333333 72.5333333333333 285.2266666666666 24.7466666666667 175.5733333333333 24.7466666666667C118.8266666666666 24.7466666666667 66.7733333333333 45.44 37.1199999999999 94.2933333333334L36.6933333333333 95.1466666666667L31.9999999999999 103.68C22.3999999999999 125.2266666666667 18.9866666666666 148.6933333333333 21.3333333333333 172.3733333333333L21.9733333333333 179.4133333333334H337.0666666666667C348.3733333333334 179.4133333333334 359.8933333333333 181.3333333333334 370.3466666666667 184.7466666666667L386.56 192C379.9466666666667 200.5333333333334 376.32 211.4133333333334 375.4666666666667 222.08C373.9733333333334 236.5866666666667 376.9600000000001 256 387.2000000000001 266.6666666666667L392.32 272.64L398.2933333333334 267.9466666666667C413.4400000000001 256 426.0266666666667 239.5733333333333 428.3733333333334 220.8C446.5066666666667 225.92 468.0533333333333 224.8533333333333 484.0533333333333 215.68M113.92 88.5333333333333C128 88.5333333333333 138.6666666666667 99.6266666666667 138.6666666666667 113.0666666666667C138.6666666666667 126.72 128 137.8133333333333 113.7066666666667 137.8133333333333C99.84 137.8133333333333 88.5333333333333 126.72 88.5333333333333 113.0666666666667C88.5333333333333 99.4133333333334 99.84 88.5333333333333 113.92 88.5333333333333z" /></svg>