<?xml version="1.0" encoding="UTF-8"?><!DOCTYPE svg PUBLIC "-//W3C//DTD SVG 1.1//EN" "http://www.w3.org/Graphics/SVG/1.1/DTD/svg11.dtd"><svg xmlns="http://www.w3.org/2000/svg" xmlns:xlink="http://www.w3.org/1999/xlink" version="1.1" width="512" height="512" viewBox="0 0 512 512">    <path fill="#ffffff" transform="scale(1, -1) translate(0, -448)" glyph-name="language-javascript" unicode="&#xF31E;" horiz-adv-x="512" d=" M64 384H448V0H64V384M164.9066666666667 63.1466666666667C173.44 45.0133333333333 190.2933333333333 30.08 219.0933333333333 30.08C251.0933333333333 30.08 273.0666666666666 47.1466666666667 273.0666666666666 84.48V207.7866666666667H236.8V85.3333333333334C236.8 66.9866666666667 229.3333333333333 62.2933333333334 217.6 62.2933333333334C205.2266666666666 62.2933333333334 200.1066666666666 70.8266666666667 194.3466666666666 80.8533333333334L164.9066666666667 63.1466666666668M292.48 66.9866666666668C303.1466666666667 46.0800000000001 324.6933333333334 30.0800000000001 358.4 30.0800000000001C392.5333333333334 30.0800000000001 418.1333333333334 47.7866666666668 418.1333333333334 80.4266666666667C418.1333333333334 110.5066666666668 400.8533333333334 123.9466666666667 370.1333333333334 137.1733333333334L361.1733333333333 141.0133333333334C345.6 147.6266666666668 338.9866666666667 152.1066666666668 338.9866666666667 162.7733333333334C338.9866666666667 171.5200000000001 345.6 178.3466666666668 356.2666666666667 178.3466666666668C366.5066666666667 178.3466666666668 373.3333333333333 173.8666666666667 379.52 162.7733333333334L407.4666666666666 181.3333333333334C395.7333333333333 201.8133333333334 379.0933333333333 209.7066666666667 356.2666666666667 209.7066666666667C324.0533333333333 209.7066666666667 303.36 189.2266666666667 303.36 162.1333333333334C303.36 132.6933333333334 320.64 118.8266666666667 346.6666666666667 107.7333333333334L355.6266666666667 103.8933333333334C372.2666666666667 96.64 382.08 92.16 382.08 79.7866666666668C382.08 69.5466666666667 372.48 62.0800000000001 357.5466666666667 62.0800000000001C339.8400000000001 62.0800000000001 329.6 71.2533333333335 321.92 84.0533333333335L292.48 66.9866666666668z" /></svg>