<?xml version="1.0" encoding="UTF-8"?><!DOCTYPE svg PUBLIC "-//W3C//DTD SVG 1.1//EN" "http://www.w3.org/Graphics/SVG/1.1/DTD/svg11.dtd"><svg xmlns="http://www.w3.org/2000/svg" xmlns:xlink="http://www.w3.org/1999/xlink" version="1.1" width="512" height="512" viewBox="0 0 512 512">    <path fill="#ffffff" transform="scale(1, -1) translate(0, -448)" glyph-name="corn" unicode="&#xF7B7;" horiz-adv-x="512" d=" M234.6666666666667 192H188.16C205.2266666666667 181.3333333333334 220.8 169.1733333333334 234.6666666666667 156.16V192M149.3333333333333 213.3333333333334C155.0933333333333 322.56 199.8933333333334 405.3333333333333 256 405.3333333333333C312.7466666666667 405.3333333333333 357.76 321.2800000000001 362.6666666666667 210.7733333333334C394.6666666666667 225.4933333333334 430.2933333333334 234.6666666666667 469.3333333333333 234.6666666666667C346.6666666666667 179.84 389.3333333333333 -21.3333333333333 256 -21.3333333333333C128 -21.3333333333333 169.1733333333333 179.84 42.6666666666667 234.6666666666667C81.4933333333333 234.6666666666667 117.3333333333333 226.1333333333334 149.3333333333333 213.3333333333334M234.6666666666667 213.3333333333334V256H175.7866666666667L171.3066666666667 213.3333333333334H234.6666666666667M234.6666666666667 277.3333333333334V320H193.0666666666667C187.7333333333334 307.2000000000001 183.4666666666667 292.9066666666667 179.84 277.3333333333334H234.6666666666667M234.6666666666667 341.3333333333334V377.6C222.9333333333333 370.56 212.2666666666667 357.9733333333334 202.6666666666667 341.3333333333334H234.6666666666667M256 384V341.3333333333334H277.3333333333333V320H256V277.3333333333334H298.6666666666667V256H256V213.3333333333334H320V192H256V149.3333333333334H298.6666666666667V128H260.9066666666667C286.2933333333333 97.0666666666667 301.8666666666667 64 305.4933333333334 37.76C326.6133333333334 73.3866666666667 340.48 131.4133333333334 341.3333333333333 197.12C340.0533333333333 298.6666666666667 301.44 384 256 384z" /></svg>