<?xml version="1.0" encoding="UTF-8"?><!DOCTYPE svg PUBLIC "-//W3C//DTD SVG 1.1//EN" "http://www.w3.org/Graphics/SVG/1.1/DTD/svg11.dtd"><svg xmlns="http://www.w3.org/2000/svg" xmlns:xlink="http://www.w3.org/1999/xlink" version="1.1" width="512" height="512" viewBox="0 0 512 512">    <path fill="#ffffff" transform="scale(1, -1) translate(0, -448)" glyph-name="augmented-reality" unicode="&#xF84F;" horiz-adv-x="512" d=" M106.6666666666667 384C82.9866666666667 384 64 364.8 64 341.3333333333334V42.6666666666667C64 19.2 83.2 0 106.6666666666667 0H405.3333333333333C428.8 0 448 19.2 448 42.6666666666667V341.3333333333334C448 364.8 428.8 384 405.3333333333333 384H106.6666666666667M165.3333333333333 256H197.3333333333333L234.6666666666667 128H202.6666666666667L196.48 149.3333333333334H166.1866666666667L160 128H128L165.3333333333333 256M277.3333333333333 256H352C370.1333333333334 256 384 242.1333333333334 384 224V202.6666666666667C384 189.8666666666667 375.4666666666667 178.1333333333333 364.8 172.8L384 128H352L333.8666666666667 170.6666666666667H309.3333333333333V128H277.3333333333333V256M309.3333333333333 224V202.6666666666667H352V224H309.3333333333333M181.3333333333333 201.1733333333334L175.5733333333333 181.3333333333334H187.0933333333333L181.3333333333333 201.1733333333334z" /></svg>