<?xml version="1.0" encoding="UTF-8"?><!DOCTYPE svg PUBLIC "-//W3C//DTD SVG 1.1//EN" "http://www.w3.org/Graphics/SVG/1.1/DTD/svg11.dtd"><svg xmlns="http://www.w3.org/2000/svg" xmlns:xlink="http://www.w3.org/1999/xlink" version="1.1" width="512" height="512" viewBox="0 0 512 512">    <path fill="#ffffff" transform="scale(1, -1) translate(0, -448)" glyph-name="format-list-numbered-rtl" unicode="&#xFCE9;" horiz-adv-x="512" d=" M64 170.6666666666667V213.3333333333334H362.6666666666667V170.6666666666667H64M64 42.6666666666667V85.3333333333334H362.6666666666667V42.6666666666667H64M64 298.6666666666667V341.3333333333334H362.6666666666667V298.6666666666667H64M426.6666666666667 277.3333333333334V341.3333333333334H405.3333333333333V362.6666666666667H448V277.3333333333334H426.6666666666667M405.3333333333333 85.3333333333334V106.6666666666667H469.3333333333333V21.3333333333334H405.3333333333333V42.6666666666667H448V53.3333333333334H426.6666666666667V74.6666666666667H448V85.3333333333334H405.3333333333333M453.3333333333333 234.6666666666667C462.2933333333334 234.6666666666667 469.3333333333333 227.4133333333334 469.3333333333333 218.6666666666667C469.3333333333333 214.4 467.6266666666667 210.3466666666667 464.8533333333333 207.5733333333334L429.2266666666667 170.6666666666667H469.3333333333333V149.3333333333334H405.3333333333333V168.96L448 213.3333333333334H405.3333333333333V234.6666666666667H453.3333333333333z" /></svg>