<?xml version="1.0" encoding="UTF-8"?><!DOCTYPE svg PUBLIC "-//W3C//DTD SVG 1.1//EN" "http://www.w3.org/Graphics/SVG/1.1/DTD/svg11.dtd"><svg xmlns="http://www.w3.org/2000/svg" xmlns:xlink="http://www.w3.org/1999/xlink" version="1.1" width="512" height="512" viewBox="0 0 512 512">    <path fill="#ffffff" transform="scale(1, -1) translate(0, -448)" glyph-name="babel" unicode="&#xFA24;" horiz-adv-x="512" d=" M388.9066666666667 202.6666666666667C388.2666666666667 206.08 378.88 217.8133333333334 360.7466666666667 237.8666666666667C360.32 241.92 366.9333333333333 247.4666666666667 379.9466666666666 254.9333333333334L417.0666666666666 288C425.3866666666666 298.6666666666667 430.2933333333333 315.3066666666668 431.7866666666667 338.7733333333334L431.36 344.3200000000001C429.8666666666666 360.9600000000001 417.92 374.1866666666667 395.3066666666666 384.64C381.8666666666666 393.6 357.7599999999999 398.5066666666667 323.2 399.1466666666667C294.4 396.8 256.8533333333333 386.56 210.56 368.64C197.7599999999999 359.4666666666667 183.2533333333333 350.2933333333334 167.0399999999999 341.3333333333334L167.2533333333333 338.3466666666667L171.7333333333333 340.0533333333334C173.44 340.2666666666667 174.5066666666666 339.4133333333334 174.72 337.7066666666667L177.4933333333333 339.2000000000001L178.9866666666666 339.4133333333334L179.2 338.1333333333334C179.2 336.64 169.1733333333333 328.7466666666667 141.6533333333333 309.3333333333334L140.3733333333333 306.7733333333333C133.76 306.3466666666667 127.36 301.44 120.96 292.48L122.6666666666667 289.92L128 291.8400000000001L131.84 286.7200000000001C138.6666666666666 293.76 145.92 299.9466666666667 153.8133333333333 305.28C157.8666666666667 304.2133333333334 160 302.9333333333334 163.2 301.8666666666667C184.96 317.8666666666667 206.5066666666667 329.6 228.0533333333333 336.8533333333334L228.2666666666667 333.8666666666667C224 328.1066666666667 221.44 324.9066666666667 220.16 324.9066666666667L222.2933333333333 320C222.5066666666666 315.9466666666667 167.8933333333333 170.6666666666667 80.2133333333333 11.9466666666667L81.92 7.8933333333333C89.3866666666666 9.5999999999999 94.2933333333333 11.52 97.92 13.44L98.1333333333333 10.6666666666667L106.6666666666666 11.3066666666667L92.3733333333333 -26.24L95.36 -27.52C107.52 -13.8666666666666 116.6933333333333 0 123.0933333333333 12.5866666666667C158.72 23.04 185.8133333333333 33.28 204.5866666666666 43.3066666666667C223.36 45.0133333333333 237.8666666666666 49.92 247.68 58.24L267.3066666666666 68.2666666666667C294.3999999999999 89.1733333333334 314.6666666666667 103.8933333333333 328.5333333333333 112.64C356.9066666666666 133.5466666666667 375.4666666666666 153.8133333333333 384 173.44L388.9066666666667 202.6666666666667M315.0933333333333 153.3866666666667L277.3333333333333 123.7333333333334C249.8133333333334 105.6 234.6666666666667 96 232.7466666666667 96C188.5866666666667 71.8933333333334 161.0666666666667 59.3066666666667 150.4 58.4533333333333L149.3333333333334 58.24C150.1866666666667 63.1466666666667 169.8133333333333 103.4666666666666 208 179.1999999999999C224.64 180.48 251.0933333333333 188.3733333333333 287.1466666666667 202.6666666666666L295.8933333333333 203.3066666666666C314.0266666666667 205.0133333333333 327.68 201.3866666666666 336.64 192.8533333333333L337.28 187.3066666666666C330.6666666666667 168.1066666666666 322.9866666666667 156.5866666666666 315.0933333333333 153.3866666666666M338.3466666666667 276.6933333333333C334.5066666666667 271.9999999999999 323.84 264.1066666666666 306.3466666666667 253.0133333333333C300.5866666666667 252.3733333333333 279.2533333333334 244.0533333333333 242.1333333333334 227.8399999999999L236.16 228.9066666666666L235.9466666666667 231.4666666666666C235.52 236.8 237.8666666666667 243.6266666666666 243.2 251.7333333333333C245.9733333333334 266.6666666666666 249.1733333333333 275.6266666666666 252.5866666666667 277.3333333333333L283.52 347.3066666666666C283.0933333333333 351.9999999999999 289.7066666666666 354.7733333333332 303.36 357.1199999999999L307.84 357.5466666666665L308.0533333333333 353.7066666666666L332.8 357.1199999999999C357.3333333333333 359.2533333333332 370.1333333333334 354.1333333333332 371.2 342.1866666666666L373.9733333333333 342.6133333333333L373.3333333333333 349.4399999999999L376.5333333333332 349.8666666666666C383.9999999999999 345.8133333333332 387.6266666666666 341.3333333333332 388.0533333333332 335.3599999999999C388.4799999999999 331.5199999999999 386.3466666666666 326.6133333333333 381.8666666666666 320.8533333333333C379.9466666666666 320.6399999999999 378.8799999999999 322.1333333333332 378.6666666666666 324.6933333333332L375.6799999999999 324.4799999999999L375.0399999999999 315.9466666666666C362.6666666666666 297.3866666666666 353.4933333333332 287.9999999999999 347.9466666666666 287.3599999999999L338.3466666666666 276.6933333333332z" /></svg>