<?xml version="1.0" encoding="UTF-8"?><!DOCTYPE svg PUBLIC "-//W3C//DTD SVG 1.1//EN" "http://www.w3.org/Graphics/SVG/1.1/DTD/svg11.dtd"><svg xmlns="http://www.w3.org/2000/svg" xmlns:xlink="http://www.w3.org/1999/xlink" version="1.1" width="512" height="512" viewBox="0 0 512 512">    <path fill="#ffffff" transform="scale(1, -1) translate(0, -448)" glyph-name="format-list-checkbox" unicode="&#xF969;" horiz-adv-x="512" d=" M448 42.6666666666667V85.3333333333334H170.6666666666667V42.6666666666667H448M448 170.6666666666667V213.3333333333334H170.6666666666667V170.6666666666667H448M170.6666666666667 298.6666666666667H448V341.3333333333334H170.6666666666667V298.6666666666667M85.3333333333333 341.3333333333334V298.6666666666667H128V341.3333333333334H85.3333333333333M64 341.3333333333334C64 353.0666666666667 73.6 362.6666666666667 85.3333333333333 362.6666666666667H128C139.7333333333333 362.6666666666667 149.3333333333333 353.0666666666667 149.3333333333333 341.3333333333334V298.6666666666667C149.3333333333333 286.9333333333334 139.7333333333333 277.3333333333334 128 277.3333333333334H85.3333333333333C73.6 277.3333333333334 64 286.9333333333334 64 298.6666666666667V341.3333333333334M85.3333333333333 213.3333333333334V170.6666666666667H128V213.3333333333334H85.3333333333333M64 213.3333333333334C64 225.0666666666667 73.6 234.6666666666667 85.3333333333333 234.6666666666667H128C139.7333333333333 234.6666666666667 149.3333333333333 225.0666666666667 149.3333333333333 213.3333333333334V170.6666666666667C149.3333333333333 158.9333333333333 139.7333333333333 149.3333333333334 128 149.3333333333334H85.3333333333333C73.6 149.3333333333334 64 158.9333333333333 64 170.6666666666667V213.3333333333334M85.3333333333333 85.3333333333334V42.6666666666667H128V85.3333333333334H85.3333333333333M64 85.3333333333334C64 97.0666666666667 73.6 106.6666666666667 85.3333333333333 106.6666666666667H128C139.7333333333333 106.6666666666667 149.3333333333333 97.0666666666667 149.3333333333333 85.3333333333334V42.6666666666667C149.3333333333333 30.9333333333333 139.7333333333333 21.3333333333334 128 21.3333333333334H85.3333333333333C73.6 21.3333333333334 64 30.9333333333333 64 42.6666666666667V85.3333333333334z" /></svg>