<?xml version="1.0" encoding="UTF-8"?><!DOCTYPE svg PUBLIC "-//W3C//DTD SVG 1.1//EN" "http://www.w3.org/Graphics/SVG/1.1/DTD/svg11.dtd"><svg xmlns="http://www.w3.org/2000/svg" xmlns:xlink="http://www.w3.org/1999/xlink" version="1.1" width="512" height="512" viewBox="0 0 512 512">    <path fill="#ffffff" transform="scale(1, -1) translate(0, -448)" glyph-name="file-music" unicode="&#xF223;" horiz-adv-x="512" d=" M298.6666666666667 405.3333333333333H128C104.5333333333333 405.3333333333333 85.3333333333333 386.1333333333334 85.3333333333333 362.6666666666667V21.3333333333334C85.3333333333333 -2.1333333333333 104.5333333333333 -21.3333333333333 128 -21.3333333333333H384C407.4666666666667 -21.3333333333333 426.6666666666667 -2.1333333333333 426.6666666666667 21.3333333333334V277.3333333333334L298.6666666666667 405.3333333333333M277.3333333333333 170.6666666666667H234.6666666666667V64C234.6666666666667 40.5333333333333 215.4666666666667 21.3333333333334 192 21.3333333333334S149.3333333333333 40.5333333333333 149.3333333333333 64S168.5333333333333 106.6666666666667 192 106.6666666666667C200.5333333333333 106.6666666666667 206.9333333333333 104.5333333333333 213.3333333333333 100.2666666666667V213.3333333333334H277.3333333333333V170.6666666666667M277.3333333333333 256V373.3333333333334L394.6666666666667 256H277.3333333333333z" /></svg>