<?xml version="1.0" encoding="UTF-8"?><!DOCTYPE svg PUBLIC "-//W3C//DTD SVG 1.1//EN" "http://www.w3.org/Graphics/SVG/1.1/DTD/svg11.dtd"><svg xmlns="http://www.w3.org/2000/svg" xmlns:xlink="http://www.w3.org/1999/xlink" version="1.1" width="512" height="512" viewBox="0 0 512 512">    <path fill="#ffffff" transform="scale(1, -1) translate(0, -448)" glyph-name="keyboard-off-outline" unicode="&#xFE2E;" horiz-adv-x="512" d=" M21.3333333333333 356.9066666666667L52.6933333333333 325.5466666666667C46.5066666666667 318.2933333333334 42.6666666666667 309.3333333333334 42.6666666666667 298.6666666666667V85.3333333333334C42.6666666666667 61.8666666666667 61.8666666666667 42.6666666666667 85.3333333333333 42.6666666666667H335.5733333333333L399.5733333333333 -21.3333333333333L426.6666666666667 5.9733333333334L48.64 384L21.3333333333333 356.9066666666667M85.3333333333333 85.3333333333334V292.9066666666667L106.6666666666667 271.5733333333334V234.6666666666667H143.5733333333333L170.6666666666667 207.5733333333334V170.6666666666667H207.5733333333333L228.9066666666667 149.3333333333334H170.6666666666667V106.6666666666667H271.5733333333333L292.9066666666667 85.3333333333334H85.3333333333333M106.6666666666667 213.3333333333334H149.3333333333333V170.6666666666667H106.6666666666667V213.3333333333334M362.6666666666667 213.3333333333334H405.3333333333333V170.6666666666667H362.6666666666667V213.3333333333334M405.3333333333333 234.6666666666667H362.6666666666667V277.3333333333334H405.3333333333333V234.6666666666667M298.6666666666667 213.3333333333334H341.3333333333333V170.6666666666667H316.3733333333334L298.6666666666667 188.3733333333333V213.3333333333334M277.3333333333333 234.6666666666667H252.3733333333334L234.6666666666667 252.3733333333334V277.3333333333334H277.3333333333333V234.6666666666667M469.3333333333333 298.6666666666667V85.3333333333334C469.3333333333333 66.9866666666667 457.6 51.6266666666667 441.6 45.44L401.7066666666666 85.3333333333334H426.6666666666667V298.6666666666667H188.3733333333333L145.7066666666667 341.3333333333334H426.6666666666667C450.1333333333334 341.3333333333334 469.3333333333333 322.1333333333334 469.3333333333333 298.6666666666667M341.3333333333333 234.6666666666667H298.6666666666667V277.3333333333334H341.3333333333333V234.6666666666667z" /></svg>