<?xml version="1.0" encoding="UTF-8"?><!DOCTYPE svg PUBLIC "-//W3C//DTD SVG 1.1//EN" "http://www.w3.org/Graphics/SVG/1.1/DTD/svg11.dtd"><svg xmlns="http://www.w3.org/2000/svg" xmlns:xlink="http://www.w3.org/1999/xlink" version="1.1" width="512" height="512" viewBox="0 0 512 512">    <path fill="#ffffff" transform="scale(1, -1) translate(0, -448)" glyph-name="table-search" unicode="&#xF90E;" horiz-adv-x="512" d=" M411.7333333333334 66.3466666666667C439.8933333333333 111.1466666666667 426.6666666666667 170.6666666666667 381.6533333333333 198.8266666666667C336.8533333333334 226.9866666666667 277.3333333333333 213.3333333333334 249.1733333333333 168.7466666666667C221.0133333333333 123.7333333333334 234.6666666666667 64 279.2533333333334 36.2666666666667C310.6133333333334 16.64 350.2933333333334 16.64 381.6533333333333 36.2666666666667L448 -29.6533333333333L477.6533333333333 0L411.7333333333334 66.3466666666667M369.0666666666667 79.5733333333334C348.16 58.6666666666667 314.4533333333333 58.8800000000001 293.5466666666667 79.5733333333334C272.8533333333334 100.48 272.8533333333334 134.1866666666667 293.76 155.0933333333334C314.4533333333334 175.7866666666667 348.16 175.7866666666667 369.0666666666667 155.0933333333334C389.5466666666667 133.9733333333334 389.3333333333333 100.2666666666667 368.4266666666666 79.5733333333334H369.0666666666667M405.3333333333333 362.6666666666667H106.6666666666667C83.2 362.6666666666667 64 343.4666666666667 64 320V64C64 40.5333333333333 83.2 21.3333333333334 106.6666666666667 21.3333333333334H230.6133333333333C218.6666666666666 33.7066666666667 209.0666666666666 48.2133333333334 202.6666666666666 64H106.6666666666667V149.3333333333334H195.84C199.2533333333333 164.48 205.0133333333333 178.9866666666667 213.3333333333333 192H106.6666666666667V277.3333333333334H234.6666666666667V217.3866666666667C247.04 229.3333333333334 261.5466666666666 238.9333333333334 277.3333333333333 245.3333333333334V277.3333333333334H405.3333333333333V234.6666666666667C413.8666666666666 229.3333333333334 421.76 222.9333333333333 428.8 215.8933333333333C436.0533333333334 208.64 442.4533333333334 200.7466666666667 448 192V320C448 343.4666666666667 428.8 362.6666666666667 405.3333333333333 362.6666666666667z" /></svg>