<?xml version="1.0" encoding="UTF-8"?><!DOCTYPE svg PUBLIC "-//W3C//DTD SVG 1.1//EN" "http://www.w3.org/Graphics/SVG/1.1/DTD/svg11.dtd"><svg xmlns="http://www.w3.org/2000/svg" xmlns:xlink="http://www.w3.org/1999/xlink" version="1.1" width="512" height="512" viewBox="0 0 512 512">    <path fill="#ffffff" transform="scale(1, -1) translate(0, -448)" glyph-name="mouse-variant-off" unicode="&#xF380;" horiz-adv-x="512" d=" M42.6666666666667 335.5733333333334L69.9733333333333 362.6666666666667L426.6666666666667 5.9733333333334L399.5733333333333 -21.3333333333333L368.8533333333333 9.3866666666667C350.2933333333334 -21.3333333333333 316.16 -42.6666666666666 277.3333333333333 -42.6666666666666C218.4533333333333 -42.6666666666666 170.6666666666667 5.1200000000001 170.6666666666667 64V87.4666666666667C122.0266666666667 97.2800000000001 85.3333333333333 140.3733333333334 85.3333333333333 192.0000000000001V256H122.24L42.6666666666667 335.5733333333334M298.6666666666667 298.6666666666667H213.3333333333333V403.2C261.9733333333333 393.3866666666667 298.6666666666667 350.2933333333334 298.6666666666667 298.6666666666667M170.6666666666667 403.2V316.1600000000001L114.7733333333333 372.2666666666667C129.4933333333334 387.6266666666667 149.3333333333333 398.7200000000001 170.6666666666667 403.2M298.6666666666667 192V188.3733333333333L230.8266666666667 256H298.6666666666667V192M213.3333333333333 87.4666666666667V64C213.3333333333333 28.5866666666667 241.92 0 277.3333333333333 0C304.64 0 327.8933333333333 17.0666666666667 337.0666666666667 41.1733333333333L264.5333333333333 113.7066666666667C250.4533333333333 100.6933333333333 232.96 91.52 213.3333333333333 87.4666666666667M341.3333333333333 170.6666666666668C341.3333333333333 217.8133333333334 379.52 256.0000000000001 426.6666666666667 256.0000000000001H469.3333333333333L448 234.6666666666667L469.3333333333333 213.3333333333334H426.6666666666667C403.2 213.3333333333334 384 194.1333333333334 384 170.6666666666668V102.8266666666667L341.3333333333333 145.4933333333334V170.6666666666667z" /></svg>