<?xml version="1.0" encoding="UTF-8"?><!DOCTYPE svg PUBLIC "-//W3C//DTD SVG 1.1//EN" "http://www.w3.org/Graphics/SVG/1.1/DTD/svg11.dtd"><svg xmlns="http://www.w3.org/2000/svg" xmlns:xlink="http://www.w3.org/1999/xlink" version="1.1" width="512" height="512" viewBox="0 0 512 512">    <path fill="#ffffff" transform="scale(1, -1) translate(0, -448)" glyph-name="card-bulleted-off-outline" unicode="&#xFB4E;" horiz-adv-x="512" d=" M439.2533333333334 2.7733333333333L408.9600000000001 -27.52L360.1066666666667 21.3333333333334H85.3333333333333C61.8666666666667 21.3333333333334 42.6666666666667 40.5333333333333 42.6666666666667 64V320C42.6666666666667 325.5466666666667 43.7333333333333 330.6666666666667 45.6533333333333 335.7866666666667L24.96 356.48L55.2533333333333 386.7733333333333L79.5733333333333 362.6666666666667L439.2533333333334 2.7733333333333M139.52 362.6666666666667H426.6666666666667C450.1333333333334 362.6666666666667 469.3333333333333 343.4666666666667 469.3333333333333 320V64C469.3333333333333 55.2533333333333 466.56 46.9333333333333 462.08 40.1066666666667L426.6666666666667 75.52V320H182.1866666666667L139.52 362.6666666666667M85.3333333333333 64H317.44L253.44 128H213.3333333333333V168.1066666666667L168.1066666666667 213.3333333333334H128V253.4400000000001L85.3333333333333 296.1066666666667V64M384 128H374.1866666666666L331.52 170.6666666666667H384V128M384 213.3333333333334H288.8533333333333L246.1866666666667 256H384V213.3333333333334z" /></svg>