<?xml version="1.0" encoding="UTF-8"?><!DOCTYPE svg PUBLIC "-//W3C//DTD SVG 1.1//EN" "http://www.w3.org/Graphics/SVG/1.1/DTD/svg11.dtd"><svg xmlns="http://www.w3.org/2000/svg" xmlns:xlink="http://www.w3.org/1999/xlink" version="1.1" width="512" height="512" viewBox="0 0 512 512">    <path fill="#ffffff" transform="scale(1, -1) translate(0, -448)" glyph-name="disc-alert" unicode="&#xF1D1;" horiz-adv-x="512" d=" M213.3333333333333 149.3333333333334C189.6533333333333 149.3333333333334 170.6666666666667 168.5333333333334 170.6666666666667 192C170.6666666666667 215.68 189.6533333333333 234.6666666666667 213.3333333333333 234.6666666666667C236.8 234.6666666666667 256 215.4666666666667 256 192S236.8 149.3333333333334 213.3333333333333 149.3333333333334M213.3333333333333 362.6666666666667C119.04 362.6666666666667 42.6666666666667 286.2933333333334 42.6666666666667 192S119.04 21.3333333333334 213.3333333333333 21.3333333333334S384 97.7066666666667 384 192S307.6266666666667 362.6666666666667 213.3333333333333 362.6666666666667M426.6666666666667 192H469.3333333333333V298.6666666666667H426.6666666666667M426.6666666666667 106.6666666666667H469.3333333333333V149.3333333333334H426.6666666666667V106.6666666666667z" /></svg>