<?xml version="1.0" encoding="UTF-8"?><!DOCTYPE svg PUBLIC "-//W3C//DTD SVG 1.1//EN" "http://www.w3.org/Graphics/SVG/1.1/DTD/svg11.dtd"><svg xmlns="http://www.w3.org/2000/svg" xmlns:xlink="http://www.w3.org/1999/xlink" version="1.1" width="512" height="512" viewBox="0 0 512 512">    <path fill="#ffffff" transform="scale(1, -1) translate(0, -448)" glyph-name="axis-z-rotate-clockwise" unicode="&#xFD33;" horiz-adv-x="512" d=" M298.6666666666667 192L213.3333333333333 106.6666666666667L298.6666666666667 21.3333333333334V87.4666666666667C395.9466666666666 97.2800000000001 469.3333333333333 140.3733333333334 469.3333333333333 192.0000000000001C469.3333333333333 243.6266666666667 395.9466666666666 286.7200000000001 298.6666666666667 296.5333333333334V254.0800000000001C372.2666666666667 246.8266666666667 426.6666666666667 221.8666666666667 426.6666666666667 192.0000000000001C426.6666666666667 162.1333333333334 372.2666666666667 137.1733333333334 298.6666666666667 129.9200000000001V192M85.3333333333333 192C85.3333333333333 221.8666666666667 139.7333333333333 246.8266666666667 213.3333333333333 254.08V296.5333333333334C116.0533333333334 286.7200000000001 42.6666666666667 243.6266666666667 42.6666666666667 192C42.6666666666667 145.92 101.12 106.6666666666667 183.04 91.7333333333334L168.1066666666667 106.6666666666667L193.7066666666667 132.48C130.3466666666667 141.6533333333334 85.3333333333333 164.9066666666667 85.3333333333333 192M277.3333333333333 405.3333333333333H234.6666666666667V170.6666666666667L277.3333333333333 213.3333333333334V405.3333333333333M277.3333333333333 -21.3333333333333V0L234.6666666666667 42.6666666666667V-21.3333333333333H277.3333333333333z" /></svg>