<?xml version="1.0" encoding="UTF-8"?><!DOCTYPE svg PUBLIC "-//W3C//DTD SVG 1.1//EN" "http://www.w3.org/Graphics/SVG/1.1/DTD/svg11.dtd"><svg xmlns="http://www.w3.org/2000/svg" xmlns:xlink="http://www.w3.org/1999/xlink" version="1.1" width="512" height="512" viewBox="0 0 512 512">    <path fill="#ffffff" transform="scale(1, -1) translate(0, -448)" glyph-name="material-design" unicode="&#xF985;" horiz-adv-x="512" d=" M448 192C448 235.3066666666667 433.7066666666666 275.4133333333334 405.3333333333333 311.8933333333333V71.8933333333334C433.7066666666666 107.3066666666667 448 147.4133333333334 448 192M376.1066666666667 42.6666666666667H136.1066666666667C150.6133333333333 30.9333333333333 169.6 21.3333333333334 193.0666666666667 12.5866666666667C216.32 4.2666666666667 237.44 0 256 0C274.7733333333333 0 295.68 4.2666666666667 318.9333333333333 12.5866666666667C342.4 21.3333333333334 361.3866666666666 30.9333333333333 376.1066666666667 42.6666666666667M234.6666666666667 85.3333333333334L149.3333333333333 256V85.3333333333334H234.6666666666667M362.6666666666667 256L277.3333333333333 85.3333333333334H362.6666666666667V256M256 138.0266666666667L336 298.6666666666667H176L256 138.0266666666667M376.1066666666667 341.3333333333334C340.6933333333334 369.7066666666667 300.5866666666667 384 256 384S171.3066666666667 369.7066666666667 136.1066666666667 341.3333333333334H376.1066666666667M106.6666666666667 71.8933333333334V311.8933333333333C78.2933333333333 275.4133333333334 64 235.3066666666667 64 192C64 147.4133333333334 78.2933333333333 107.3066666666667 106.6666666666667 71.8933333333334M490.6666666666666 192C490.6666666666666 127.36 468.0533333333333 71.8933333333334 421.9733333333334 26.0266666666666C376.1066666666667 -20.0533333333333 320.64 -42.6666666666666 256 -42.6666666666666C191.36 -42.6666666666666 136.1066666666667 -20.0533333333333 90.0266666666667 26.0266666666666C43.9466666666667 71.8933333333334 21.3333333333333 127.36 21.3333333333333 192C21.3333333333333 256.64 43.9466666666667 311.8933333333333 90.0266666666667 357.9733333333334S191.36 426.6666666666667 256 426.6666666666667C320.64 426.6666666666667 376.1066666666667 404.0533333333334 421.9733333333334 357.9733333333334C468.0533333333333 311.8933333333333 490.6666666666666 256.64 490.6666666666666 192z" /></svg>