<?xml version="1.0" encoding="UTF-8"?><!DOCTYPE svg PUBLIC "-//W3C//DTD SVG 1.1//EN" "http://www.w3.org/Graphics/SVG/1.1/DTD/svg11.dtd"><svg xmlns="http://www.w3.org/2000/svg" xmlns:xlink="http://www.w3.org/1999/xlink" version="1.1" width="512" height="512" viewBox="0 0 512 512">    <path fill="#ffffff" transform="scale(1, -1) translate(0, -448)" glyph-name="border-right-variant" unicode="&#xF8A4;" horiz-adv-x="512" d=" M234.6666666666667 341.3333333333334H277.3333333333333V384H234.6666666666667M320 341.3333333333334H362.6666666666667V384H320M320 0H362.6666666666667V42.6666666666667H320M405.3333333333333 0H448V384H405.3333333333333M64 256H106.6666666666667V298.6666666666667H64M64 85.3333333333334H106.6666666666667V128H64M64 170.6666666666667H106.6666666666667V213.3333333333334H64M234.6666666666667 0H277.3333333333333V42.6666666666667H234.6666666666667M64 0H106.6666666666667V42.6666666666667H64M149.3333333333333 341.3333333333334H192V384H149.3333333333333M64 341.3333333333334H106.6666666666667V384H64M149.3333333333333 0H192V42.6666666666667H149.3333333333333V0z" /></svg>