<?xml version="1.0" encoding="UTF-8"?><!DOCTYPE svg PUBLIC "-//W3C//DTD SVG 1.1//EN" "http://www.w3.org/Graphics/SVG/1.1/DTD/svg11.dtd"><svg xmlns="http://www.w3.org/2000/svg" xmlns:xlink="http://www.w3.org/1999/xlink" version="1.1" width="512" height="512" viewBox="0 0 512 512">    <path fill="#ffffff" transform="scale(1, -1) translate(0, -448)" glyph-name="camera-control" unicode="&#xFB45;" horiz-adv-x="512" d=" M192 192C192 209.28 198.4 224 210.9866666666667 237.0133333333333C224 249.6 238.72 256 256 256C273.28 256 288 249.6 301.0133333333333 237.0133333333333C313.6 224 320 209.28 320 192C320 174.72 313.6 160 301.0133333333333 146.9866666666667C288 134.4 273.28 128 256 128C238.72 128 224 134.4 210.9866666666667 146.9866666666667C198.4 160 192 174.72 192 192M117.9733333333333 267.9466666666667L155.9466666666667 229.9733333333334L117.9733333333333 192L155.9466666666667 154.0266666666667L117.9733333333333 116.0533333333334L42.6666666666667 192L117.9733333333333 267.9466666666667M180.0533333333333 53.9733333333334L218.0266666666667 91.9466666666667L256 53.9733333333334L293.9733333333333 91.9466666666667L331.9466666666666 53.9733333333334L256 -21.3333333333333L180.0533333333333 53.9733333333334M394.0266666666667 116.0533333333334L356.0533333333333 154.0266666666667L394.0266666666667 192L356.0533333333333 229.9733333333334L394.0266666666667 267.9466666666667L469.3333333333333 192L394.0266666666667 116.0533333333334M331.9466666666667 330.0266666666667L293.9733333333334 292.0533333333334L256 330.0266666666667L218.0266666666667 292.0533333333334L180.0533333333334 330.0266666666667L256 405.3333333333333L331.9466666666667 330.0266666666667z" /></svg>