<?xml version="1.0" encoding="UTF-8"?><!DOCTYPE svg PUBLIC "-//W3C//DTD SVG 1.1//EN" "http://www.w3.org/Graphics/SVG/1.1/DTD/svg11.dtd"><svg xmlns="http://www.w3.org/2000/svg" xmlns:xlink="http://www.w3.org/1999/xlink" version="1.1" width="512" height="512" viewBox="0 0 512 512">    <path fill="#ffffff" transform="scale(1, -1) translate(0, -448)" glyph-name="account-convert" unicode="&#xF00A;" horiz-adv-x="512" d=" M160 -10.6666666666666L188.8 17.92L270.08 -63.36L256 -64C121.8133333333333 -64 11.9466666666667 39.2533333333333 1.0666666666667 170.6666666666667H33.0666666666667C40.7466666666667 90.4533333333334 90.6666666666667 22.6133333333333 160 -10.6666666666666M352 394.6666666666667L323.2 366.0800000000001L241.92 447.36L256 448C390.1866666666666 448 500.0533333333333 344.7466666666667 510.9333333333333 213.3333333333334H478.9333333333333C471.2533333333333 293.5466666666667 421.3333333333333 361.1733333333334 352 394.6666666666667M128 85.3333333333334C128 128 213.3333333333333 151.4666666666667 256 151.4666666666667S384 128 384 85.3333333333334V64H128V85.3333333333334M320 256C320 220.5866666666667 291.4133333333333 192 256 192S192 220.5866666666667 192 256S220.5866666666667 320 256 320S320 291.4133333333334 320 256z" /></svg>