<?xml version="1.0" encoding="UTF-8"?><!DOCTYPE svg PUBLIC "-//W3C//DTD SVG 1.1//EN" "http://www.w3.org/Graphics/SVG/1.1/DTD/svg11.dtd"><svg xmlns="http://www.w3.org/2000/svg" xmlns:xlink="http://www.w3.org/1999/xlink" version="1.1" width="512" height="512" viewBox="0 0 512 512">    <path fill="#ffffff" transform="scale(1, -1) translate(0, -448)" glyph-name="powershell" unicode="&#xFA09;" horiz-adv-x="512" d=" M465.7066666666666 362.6666666666667C476.1599999999999 362.6666666666667 482.7733333333333 354.1333333333334 480 343.68L412.5866666666667 40.3200000000001C410.24 29.8666666666667 400 21.3333333333334 389.5466666666666 21.3333333333334H46.2933333333333C35.84 21.3333333333334 29.2266666666667 29.8666666666667 32 40.3200000000001L99.4133333333333 343.68C101.76 354.1333333333334 112 362.6666666666667 122.4533333333333 362.6666666666667H465.7066666666666M337.7066666666666 106.6666666666667H252.3733333333333C242.56 106.6666666666667 234.6666666666667 98.5600000000001 234.6666666666667 88.7466666666667C234.6666666666667 78.72 242.56 70.6133333333334 252.3733333333333 70.6133333333334H337.7066666666666C347.7333333333333 70.6133333333334 355.84 78.72 355.84 88.7466666666667C355.84 98.5600000000001 347.7333333333334 106.6666666666667 337.7066666666667 106.6666666666667M123.3066666666667 100.6933333333333C114.7733333333333 94.72 112.8533333333333 82.9866666666667 118.8266666666667 74.6666666666667C124.8 65.7066666666667 136.7466666666667 64 145.28 69.76C302.08 180.0533333333334 303.1466666666667 181.3333333333334 304.2133333333333 181.9733333333334C308.0533333333333 185.3866666666667 309.9733333333333 190.0800000000001 310.1866666666666 194.7733333333333C310.4 199.04 309.3333333333333 202.6666666666666 306.7733333333333 206.72L201.8133333333333 319.36C194.7733333333334 327.04 182.8266666666667 327.4666666666667 175.1466666666667 320C167.4666666666667 313.1733333333334 167.04 301.2266666666667 174.08 293.5466666666667L262.6133333333334 198.8266666666667L123.3066666666667 100.6933333333333z" /></svg>