<?xml version="1.0" encoding="UTF-8"?><!DOCTYPE svg PUBLIC "-//W3C//DTD SVG 1.1//EN" "http://www.w3.org/Graphics/SVG/1.1/DTD/svg11.dtd"><svg xmlns="http://www.w3.org/2000/svg" xmlns:xlink="http://www.w3.org/1999/xlink" version="1.1" width="512" height="512" viewBox="0 0 512 512">    <path fill="#ffffff" transform="scale(1, -1) translate(0, -448)" glyph-name="wifi-star" unicode="&#xFE6B;" horiz-adv-x="512" d=" M256 320C183.4666666666667 320 117.3333333333333 296.5333333333334 64 256L25.6 307.2000000000001C89.6 356.2666666666667 170.6666666666667 384 256 384C341.3333333333333 384 422.4 356.2666666666667 486.4 307.2000000000001L448 256C394.6666666666667 296.5333333333334 328.5333333333333 320 256 320M277.3333333333333 42.6666666666667C277.3333333333333 70.4 285.8666666666667 98.1333333333334 302.9333333333333 119.4666666666667C288 123.7333333333334 273.0666666666666 128 256 128C228.2666666666667 128 200.5333333333333 117.3333333333334 179.2 102.4L256 0L277.3333333333333 29.8666666666667V42.6666666666667M358.4 162.1333333333333C364.8 164.2666666666667 373.3333333333333 166.4 381.8666666666667 168.5333333333334L409.6 204.8C366.9333333333333 236.8 313.6 256 256 256S145.0666666666667 236.8 102.4 204.8L140.8 153.6C172.8 177.0666666666667 213.3333333333333 192 256 192C294.4 192 328.5333333333333 181.3333333333334 358.4 162.1333333333333M352 -34.1333333333333L366.9333333333333 25.6L320 66.1333333333333L381.8666666666666 70.4L405.3333333333333 128L428.8 72.5333333333333L490.6666666666666 68.2666666666667L443.7333333333334 27.7333333333334L458.6666666666666 -32L405.3333333333333 -2.1333333333333L352 -34.1333333333333z" /></svg>