<?xml version="1.0" encoding="UTF-8"?><!DOCTYPE svg PUBLIC "-//W3C//DTD SVG 1.1//EN" "http://www.w3.org/Graphics/SVG/1.1/DTD/svg11.dtd"><svg xmlns="http://www.w3.org/2000/svg" xmlns:xlink="http://www.w3.org/1999/xlink" version="1.1" width="512" height="512" viewBox="0 0 512 512">    <path fill="#ffffff" transform="scale(1, -1) translate(0, -448)" glyph-name="all-inclusive" unicode="&#xF6BD;" horiz-adv-x="512" d=" M396.8 306.7733333333333C366.08 306.7733333333333 337.0666666666667 294.8266666666667 316.3733333333334 274.1333333333334L166.4 141.0133333333333C152.7466666666667 127.36 134.6133333333333 119.8933333333333 115.2 119.8933333333333C75.3066666666667 119.8933333333333 42.6666666666667 152.1066666666667 42.6666666666667 192C42.6666666666667 231.8933333333334 75.3066666666667 264.1066666666667 115.2 264.1066666666667C134.6133333333334 264.1066666666667 152.7466666666667 256.64 167.2533333333333 242.1333333333334L191.36 220.8L224 249.3866666666667L196.6933333333333 273.0666666666667C174.9333333333333 294.8266666666667 145.92 306.7733333333333 115.2 306.7733333333333C51.6266666666667 306.7733333333333 0 255.1466666666667 0 192S51.6266666666667 77.2266666666667 115.2 77.2266666666667C145.92 77.2266666666667 174.9333333333333 89.1733333333334 195.6266666666667 109.8666666666667L345.6 242.9866666666667C359.2533333333334 256.6400000000001 377.3866666666666 264.1066666666667 396.8 264.1066666666667C436.6933333333333 264.1066666666667 469.3333333333333 231.8933333333334 469.3333333333333 192C469.3333333333333 152.1066666666667 436.6933333333332 119.8933333333334 396.8 119.8933333333334C377.6 119.8933333333334 359.2533333333332 127.36 344.7466666666666 141.8666666666667L320 163.4133333333334L288 134.8266666666667L315.3066666666666 110.9333333333333C337.0666666666666 89.3866666666667 365.8666666666666 77.44 396.8 77.44C460.3733333333333 77.44 512 128.8533333333334 512 192C512 256 460.3733333333333 306.7733333333333 396.8 306.7733333333333z" /></svg>