<?xml version="1.0" encoding="UTF-8"?><!DOCTYPE svg PUBLIC "-//W3C//DTD SVG 1.1//EN" "http://www.w3.org/Graphics/SVG/1.1/DTD/svg11.dtd"><svg xmlns="http://www.w3.org/2000/svg" xmlns:xlink="http://www.w3.org/1999/xlink" version="1.1" width="512" height="512" viewBox="0 0 512 512">    <path fill="#ffffff" transform="scale(1, -1) translate(0, -448)" glyph-name="sheep" unicode="&#xFCA2;" horiz-adv-x="512" d=" M426.6666666666667 266.6666666666667C426.6666666666667 237.2266666666667 402.7733333333333 213.3333333333334 373.3333333333333 213.3333333333334C350.2933333333334 213.3333333333334 330.6666666666667 228.0533333333334 323.4133333333333 248.32C314.0266666666667 240 301.6533333333333 234.6666666666667 288 234.6666666666667C276.0533333333333 234.6666666666667 264.96 238.72 256 245.3333333333334C247.04 238.72 236.16 234.6666666666667 224 234.6666666666667C210.3466666666666 234.6666666666667 197.9733333333333 240 188.5866666666667 248.32C181.3333333333333 228.0533333333334 161.7066666666667 213.3333333333334 138.6666666666667 213.3333333333334C109.2266666666667 213.3333333333334 85.3333333333333 237.2266666666667 85.3333333333333 266.6666666666667C85.3333333333333 293.12 104.7466666666667 315.0933333333334 130.1333333333333 319.1466666666667C128.8533333333333 322.7733333333333 128 326.6133333333334 128 330.6666666666667C128 348.3733333333334 142.2933333333333 362.6666666666667 160 362.6666666666667C164.2666666666667 362.6666666666667 168.32 361.8133333333334 171.9466666666667 360.32C175.5733333333333 373.9733333333334 187.9466666666667 384 202.6666666666667 384C208 384 213.3333333333333 382.5066666666667 217.1733333333333 380.3733333333334C224 394.6666666666667 238.72 405.3333333333333 256 405.3333333333333S288 394.6666666666667 294.8266666666667 380.3733333333334C298.6666666666667 382.5066666666667 304 384 309.3333333333333 384C324.0533333333333 384 336.4266666666666 373.9733333333334 340.0533333333333 360.32C343.68 361.8133333333334 347.7333333333334 362.6666666666667 352 362.6666666666667C369.7066666666666 362.6666666666667 384 348.3733333333334 384 330.6666666666667C384 326.6133333333334 383.1466666666667 322.7733333333333 381.8666666666666 319.1466666666667C407.2533333333334 315.0933333333334 426.6666666666667 293.12 426.6666666666667 266.6666666666667M213.3333333333333 192C201.6 192 192 182.4 192 170.6666666666667S201.6 149.3333333333334 213.3333333333333 149.3333333333334S234.6666666666667 158.9333333333333 234.6666666666667 170.6666666666667S225.0666666666667 192 213.3333333333333 192M298.6666666666667 192C286.9333333333333 192 277.3333333333333 182.4 277.3333333333333 170.6666666666667S286.9333333333333 149.3333333333334 298.6666666666667 149.3333333333334S320 158.9333333333333 320 170.6666666666667S310.4 192 298.6666666666667 192M431.5733333333333 220.5866666666667C417.92 203.3066666666667 397.0133333333333 192 373.3333333333333 192C363.7333333333334 192 354.56 194.1333333333333 345.8133333333334 197.76C345.6 143.36 337.7066666666667 77.6533333333334 308.2666666666667 43.7333333333334C297.1733333333334 31.1466666666667 283.7333333333334 24.3200000000001 266.6666666666667 22.1866666666667V64H245.3333333333334V22.1866666666667C228.2666666666667 24.3200000000001 214.8266666666667 30.9333333333333 203.7333333333334 43.7333333333334C174.0800000000001 77.8666666666667 166.1866666666667 143.1466666666667 165.9733333333334 197.5466666666667C157.4400000000001 194.1333333333334 148.2666666666667 192.0000000000001 138.6666666666667 192.0000000000001C114.9866666666667 192.0000000000001 94.0800000000001 203.3066666666667 80.4266666666667 220.5866666666667C61.44 201.6 42.6666666666667 192 42.6666666666667 192S64 149.3333333333334 106.6666666666667 149.3333333333334C114.3466666666667 149.3333333333334 120.32 150.1866666666667 125.44 151.2533333333333C132.6933333333333 69.76 161.7066666666667 -21.3333333333333 256 -21.3333333333333S379.3066666666667 69.76 386.56 151.2533333333333C391.68 150.1866666666667 397.6533333333333 149.3333333333334 405.3333333333333 149.3333333333334C448 149.3333333333334 469.3333333333333 192 469.3333333333333 192S450.56 201.6 431.5733333333333 220.5866666666667z" /></svg>