<?xml version="1.0" encoding="UTF-8"?><!DOCTYPE svg PUBLIC "-//W3C//DTD SVG 1.1//EN" "http://www.w3.org/Graphics/SVG/1.1/DTD/svg11.dtd"><svg xmlns="http://www.w3.org/2000/svg" xmlns:xlink="http://www.w3.org/1999/xlink" version="1.1" width="512" height="512" viewBox="0 0 512 512">    <path fill="#ffffff" transform="scale(1, -1) translate(0, -448)" glyph-name="language-php" unicode="&#xF31F;" horiz-adv-x="512" d=" M256 62.2933333333334C114.56 62.2933333333334 0 120.3200000000001 0 192.0000000000001S114.56 321.7066666666667 256 321.7066666666667S512 263.68 512 192S397.44 62.2933333333334 256 62.2933333333334M145.28 231.8933333333334C156.8 231.8933333333334 164.6933333333333 229.7600000000001 168.5333333333333 225.2800000000001C172.3733333333333 221.0133333333334 173.2266666666666 213.3333333333334 171.3066666666667 203.3066666666667C169.1733333333333 192.0000000000001 165.12 184.7466666666667 158.9333333333333 180.0533333333334C152.96 175.36 143.7866666666666 173.0133333333334 131.4133333333333 173.0133333333334H112.8533333333333L124.16 231.8933333333334H145.28M70.6133333333333 113.4933333333334H101.3333333333333L108.5866666666667 150.8266666666667H134.8266666666667C146.3466666666667 150.8266666666667 155.7333333333334 152.1066666666667 163.2 154.4533333333334C170.6666666666667 157.0133333333333 177.4933333333334 161.0666666666667 183.68 166.8266666666667C188.8 171.5200000000001 192.8533333333333 176.6400000000001 196.0533333333333 182.4C199.2533333333333 187.9466666666667 201.6 194.3466666666667 202.6666666666667 201.1733333333334C206.08 217.8133333333334 203.7333333333334 230.8266666666667 195.6266666666667 240.0000000000001C187.3066666666667 249.3866666666667 174.5066666666667 253.8666666666668 156.8 253.8666666666668H97.92L70.6133333333333 113.4933333333334M225.28 291.2000000000001L197.9733333333333 150.8266666666667H228.2666666666667L244.0533333333333 231.2533333333334H268.3733333333334C276.0533333333333 231.2533333333334 281.1733333333333 229.9733333333334 283.52 227.4133333333334C285.8666666666666 224.8533333333334 286.2933333333333 220.1600000000001 285.0133333333333 213.3333333333334L272.8533333333333 150.8266666666667H303.7866666666667L316.3733333333333 216.3200000000001C319.1466666666667 229.5466666666667 317.0133333333333 239.1466666666668 310.6133333333333 245.3333333333334C304.2133333333333 251.0933333333334 292.48 253.8666666666668 275.4133333333333 253.8666666666668H248.32L256 291.2000000000001H225.28M384 231.8933333333333C395.7333333333334 231.8933333333333 403.4133333333333 229.76 407.2533333333334 225.28C411.0933333333333 221.0133333333333 411.9466666666666 213.3333333333333 410.0266666666667 203.3066666666667C407.8933333333333 192 403.84 184.7466666666667 397.8666666666666 180.0533333333334C391.68 175.36 382.5066666666667 173.0133333333333 370.1333333333333 173.0133333333333H351.9999999999999L362.6666666666666 231.8933333333333H383.9999999999999M309.3333333333333 113.4933333333334H340.0533333333333L347.3066666666666 150.8266666666667H373.3333333333333C385.0666666666666 150.8266666666667 394.6666666666666 152.1066666666667 402.1333333333333 154.4533333333334C409.6 157.0133333333333 415.9999999999999 161.0666666666667 422.3999999999999 166.8266666666667C427.5199999999999 171.5200000000001 431.7866666666667 176.6400000000001 434.7733333333332 182.4C437.9733333333332 187.9466666666667 440.32 194.3466666666667 441.5999999999999 201.1733333333334C444.7999999999999 217.8133333333334 442.4533333333332 230.8266666666667 434.3466666666666 240.0000000000001C426.6666666666666 249.3866666666667 413.2266666666666 253.8666666666668 395.5199999999999 253.8666666666668H336.8533333333333L309.3333333333333 113.4933333333334z" /></svg>