<?xml version="1.0" encoding="UTF-8"?><!DOCTYPE svg PUBLIC "-//W3C//DTD SVG 1.1//EN" "http://www.w3.org/Graphics/SVG/1.1/DTD/svg11.dtd"><svg xmlns="http://www.w3.org/2000/svg" xmlns:xlink="http://www.w3.org/1999/xlink" version="1.1" width="512" height="512" viewBox="0 0 512 512">    <path fill="#ffffff" transform="scale(1, -1) translate(0, -448)" glyph-name="select-compare" unicode="&#xFAD8;" horiz-adv-x="512" d=" M277.3333333333333 -42.6666666666666H234.6666666666667V426.6666666666667H277.3333333333333V-42.6666666666666M192 42.6666666666667H106.6666666666667V341.3333333333334H192V384H106.6666666666667C82.9866666666667 384 64 365.0133333333333 64 341.3333333333334V42.6666666666667C64 18.9866666666667 83.2 0 106.6666666666667 0H192V42.6666666666667M405.3333333333333 298.6666666666667V256H448V298.6666666666667H405.3333333333333M405.3333333333333 341.3333333333334H448C448 365.0133333333333 428.8 384 405.3333333333333 384V341.3333333333334M448 128H405.3333333333333V85.3333333333334H448V128M405.3333333333333 213.3333333333334V170.6666666666667H448V213.3333333333334H405.3333333333333M362.6666666666667 384H320V341.3333333333334H362.6666666666667V384M405.3333333333333 0C429.0133333333333 0 448 18.9866666666667 448 42.6666666666667H405.3333333333333V0M362.6666666666667 42.6666666666667H320V0H362.6666666666667V42.6666666666667z" /></svg>