<?xml version="1.0" encoding="UTF-8"?><!DOCTYPE svg PUBLIC "-//W3C//DTD SVG 1.1//EN" "http://www.w3.org/Graphics/SVG/1.1/DTD/svg11.dtd"><svg xmlns="http://www.w3.org/2000/svg" xmlns:xlink="http://www.w3.org/1999/xlink" version="1.1" width="512" height="512" viewBox="0 0 512 512">    <path fill="#ffffff" transform="scale(1, -1) translate(0, -448)" glyph-name="set-left-center" unicode="&#xF77B;" horiz-adv-x="512" d=" M192 341.3333333333334C214.1866666666667 341.3333333333334 235.9466666666667 336.2133333333334 256 326.8266666666667C276.0533333333333 336.2133333333334 297.8133333333334 341.3333333333334 320 341.3333333333334C402.56 341.3333333333334 469.3333333333333 274.5600000000001 469.3333333333333 192S402.56 42.6666666666667 320 42.6666666666667C297.8133333333334 42.6666666666667 276.0533333333333 47.7866666666666 256 57.1733333333334C235.9466666666667 47.7866666666666 214.1866666666667 42.6666666666667 192 42.6666666666667C109.44 42.6666666666667 42.6666666666667 109.44 42.6666666666667 192S109.44 341.3333333333334 192 341.3333333333334M320 298.6666666666667L298.6666666666667 296.32C325.9733333333333 268.5866666666667 341.3333333333333 231.04 341.3333333333333 192C341.3333333333333 152.96 325.9733333333333 115.4133333333334 298.6666666666667 87.4666666666667L320 85.3333333333334C378.88 85.3333333333334 426.6666666666667 133.12 426.6666666666667 192S378.88 298.6666666666667 320 298.6666666666667M181.3333333333333 192C181.3333333333333 152.1066666666667 198.1866666666667 116.0533333333334 225.28 90.6666666666667L246.6133333333334 100.48C219.9466666666667 121.8133333333334 202.6666666666667 154.8800000000001 202.6666666666667 192C202.6666666666667 229.12 219.9466666666667 262.1866666666667 246.6133333333334 283.52L225.28 293.3333333333334C198.1866666666667 267.9466666666667 181.3333333333333 231.8933333333333 181.3333333333333 192z" /></svg>