<?xml version="1.0" encoding="UTF-8"?><!DOCTYPE svg PUBLIC "-//W3C//DTD SVG 1.1//EN" "http://www.w3.org/Graphics/SVG/1.1/DTD/svg11.dtd"><svg xmlns="http://www.w3.org/2000/svg" xmlns:xlink="http://www.w3.org/1999/xlink" version="1.1" width="512" height="512" viewBox="0 0 512 512">    <path fill="#ffffff" transform="scale(1, -1) translate(0, -448)" glyph-name="zodiac-cancer" unicode="&#xFA7E;" horiz-adv-x="512" d=" M256 362.6666666666667C138.6666666666667 362.6666666666667 42.6666666666667 286.2933333333334 42.6666666666667 192C42.6666666666667 146.7733333333333 77.8666666666667 109.44 122.88 106.6666666666667H128C175.1466666666667 106.6666666666667 213.3333333333333 144.8533333333334 213.3333333333333 192S175.1466666666667 277.3333333333334 128 277.3333333333334H122.88C158.72 311.2533333333334 206.72 329.6 256 328.5333333333334C293.76 328.9600000000001 330.6666666666667 318.5066666666667 362.6666666666667 298.6666666666667L389.3333333333333 325.3333333333334C349.44 350.2933333333334 303.1466666666667 363.3066666666667 256 362.6666666666667M128 234.6666666666667C151.4666666666667 234.6666666666667 170.6666666666667 215.4666666666667 170.6666666666667 192C170.6666666666667 168.3200000000001 151.04 149.3333333333334 128 149.3333333333334C105.8133333333333 149.3333333333334 87.4666666666667 165.9733333333334 85.3333333333333 187.7333333333334V196.2666666666667C87.4666666666667 218.24 106.0266666666667 234.6666666666667 128 234.6666666666667M389.12 277.3333333333334H384C336.8533333333333 277.3333333333334 298.6666666666667 239.1466666666667 298.6666666666667 192.0000000000001S336.8533333333333 106.6666666666667 384 106.6666666666667H389.12C353.28 72.7466666666667 305.28 54.4 256 55.4666666666667C218.24 55.0400000000001 181.3333333333333 65.4933333333333 149.3333333333333 85.3333333333334L122.88 58.8800000000001C162.7733333333333 33.92 208.8533333333333 21.3333333333334 256 21.3333333333334C373.3333333333333 21.3333333333334 469.3333333333333 97.7066666666667 469.3333333333333 192C469.3333333333333 237.2266666666667 434.1333333333334 274.5600000000001 389.12 277.3333333333334M384 149.3333333333334C360.5333333333333 149.3333333333334 341.3333333333333 168.5333333333334 341.3333333333333 192C341.3333333333333 215.68 360.9600000000001 234.6666666666667 384 234.6666666666667C406.1866666666666 234.6666666666667 424.5333333333333 218.0266666666667 426.6666666666667 196.2666666666667V187.7333333333334C424.5333333333333 165.76 405.9733333333334 149.3333333333333 384 149.3333333333333z" /></svg>