<?xml version="1.0" encoding="UTF-8"?><!DOCTYPE svg PUBLIC "-//W3C//DTD SVG 1.1//EN" "http://www.w3.org/Graphics/SVG/1.1/DTD/svg11.dtd"><svg xmlns="http://www.w3.org/2000/svg" xmlns:xlink="http://www.w3.org/1999/xlink" version="1.1" width="512" height="512" viewBox="0 0 512 512">    <path fill="#ffffff" transform="scale(1, -1) translate(0, -448)" glyph-name="fish" unicode="&#xF23A;" horiz-adv-x="512" d=" M256 21.3333333333334L272.2133333333333 85.3333333333334C202.6666666666667 89.8133333333334 140.5866666666667 119.4666666666667 122.6666666666667 158.2933333333334C120.7466666666667 148.0533333333334 117.9733333333333 138.6666666666667 113.7066666666667 131.6266666666667C99.6266666666667 106.6666666666667 71.04 106.6666666666667 42.6666666666667 106.6666666666667C66.1333333333333 106.6666666666667 74.6666666666667 140.16 74.6666666666667 181.3333333333334S66.1333333333333 256 42.6666666666667 256C71.04 256 99.6266666666667 256 113.7066666666667 231.04C117.9733333333333 224 120.7466666666667 214.6133333333334 122.6666666666667 204.3733333333333C136.5333333333333 234.6666666666667 177.4933333333334 259.2000000000001 227.4133333333334 270.5066666666667L192 341.3333333333334C234.6666666666667 341.3333333333334 277.3333333333333 341.3333333333334 305.7066666666667 327.04C329.8133333333334 315.0933333333334 343.68 292.9066666666667 356.0533333333334 269.2266666666667C418.3466666666667 254.2933333333334 469.3333333333333 220.5866666666667 469.3333333333333 181.3333333333334C469.3333333333333 141.2266666666667 416 106.6666666666667 352 92.5866666666667C334.2933333333333 69.12 317.0133333333333 47.36 302.2933333333333 35.6266666666667C284.3733333333334 21.3333333333334 270.2933333333333 21.3333333333334 256 21.3333333333334M362.6666666666667 213.3333333333334C350.9333333333333 213.3333333333334 341.3333333333333 203.7333333333334 341.3333333333333 192S350.9333333333333 170.6666666666667 362.6666666666667 170.6666666666667S384 180.2666666666667 384 192S374.4 213.3333333333334 362.6666666666667 213.3333333333334z" /></svg>