<?xml version="1.0" encoding="UTF-8"?><!DOCTYPE svg PUBLIC "-//W3C//DTD SVG 1.1//EN" "http://www.w3.org/Graphics/SVG/1.1/DTD/svg11.dtd"><svg xmlns="http://www.w3.org/2000/svg" xmlns:xlink="http://www.w3.org/1999/xlink" version="1.1" width="512" height="512" viewBox="0 0 512 512">    <path fill="#ffffff" transform="scale(1, -1) translate(0, -448)" glyph-name="server-off" unicode="&#xF48F;" horiz-adv-x="512" d=" M85.3333333333333 426.6666666666667H426.6666666666667C438.4 426.6666666666667 448 417.0666666666667 448 405.3333333333333V320C448 308.2666666666667 438.4 298.6666666666667 426.6666666666667 298.6666666666667H188.16L145.4933333333334 341.3333333333334H149.3333333333333V384H106.6666666666667V380.16L68.48 418.3466666666667C72.32 423.4666666666667 78.5066666666667 426.6666666666667 85.3333333333333 426.6666666666667M469.3333333333333 -36.6933333333333L442.24 -64L420.9066666666667 -42.6666666666666H85.3333333333333C73.6 -42.6666666666666 64 -33.0666666666667 64 -21.3333333333333V64C64 75.7333333333334 73.6 85.3333333333334 85.3333333333333 85.3333333333334H292.9066666666667L250.24 128H85.3333333333333C73.6 128 64 137.6 64 149.3333333333334V234.6666666666667C64 246.4000000000001 73.6 256 85.3333333333333 256H122.24L78.5066666666667 299.7333333333334C72.1066666666667 301.8666666666667 67.2 306.7733333333333 65.0666666666667 313.1733333333334L21.3333333333333 356.9066666666667L48.64 384L469.3333333333333 -36.6933333333333M426.6666666666667 256C438.4 256 448 246.4000000000001 448 234.6666666666667V149.3333333333334C448 137.6 438.4 128 426.6666666666667 128H358.8266666666667L230.8266666666667 256H426.6666666666667M426.6666666666667 85.3333333333334C438.4 85.3333333333334 448 75.7333333333334 448 64V38.8266666666667L401.4933333333334 85.3333333333334H426.6666666666667M192 341.3333333333334H213.3333333333333V384H192V341.3333333333334M192 170.6666666666667H207.5733333333333L192 186.24V170.6666666666667M192 0H213.3333333333333V42.6666666666667H192V0M106.6666666666667 213.3333333333334V170.6666666666667H149.3333333333333V213.3333333333334H106.6666666666667M106.6666666666667 42.6666666666667V0H149.3333333333333V42.6666666666667H106.6666666666667z" /></svg>