<?xml version="1.0" encoding="UTF-8"?><!DOCTYPE svg PUBLIC "-//W3C//DTD SVG 1.1//EN" "http://www.w3.org/Graphics/SVG/1.1/DTD/svg11.dtd"><svg xmlns="http://www.w3.org/2000/svg" xmlns:xlink="http://www.w3.org/1999/xlink" version="1.1" width="512" height="512" viewBox="0 0 512 512">    <path fill="#ffffff" transform="scale(1, -1) translate(0, -448)" glyph-name="division-box" unicode="&#xF1D5;" horiz-adv-x="512" d=" M362.6666666666667 170.6666666666667V213.3333333333334H149.3333333333333V170.6666666666667H362.6666666666667M405.3333333333333 384C428.8 384 448 364.8 448 341.3333333333334V42.6666666666667C448 19.2 428.8 0 405.3333333333333 0H106.6666666666667C82.9866666666667 0 64 19.2 64 42.6666666666667V341.3333333333334C64 365.0133333333333 82.9866666666667 384 106.6666666666667 384H405.3333333333333M256 298.6666666666667C244.2666666666667 298.6666666666667 234.6666666666667 289.0666666666667 234.6666666666667 277.3333333333334S244.2666666666667 256 256 256S277.3333333333333 265.6 277.3333333333333 277.3333333333334S267.7333333333334 298.6666666666667 256 298.6666666666667M256 128C244.2666666666667 128 234.6666666666667 118.4 234.6666666666667 106.6666666666667S244.2666666666667 85.3333333333334 256 85.3333333333334S277.3333333333333 94.9333333333333 277.3333333333333 106.6666666666667S267.7333333333334 128 256 128z" /></svg>