<?xml version="1.0" encoding="UTF-8"?><!DOCTYPE svg PUBLIC "-//W3C//DTD SVG 1.1//EN" "http://www.w3.org/Graphics/SVG/1.1/DTD/svg11.dtd"><svg xmlns="http://www.w3.org/2000/svg" xmlns:xlink="http://www.w3.org/1999/xlink" version="1.1" width="512" height="512" viewBox="0 0 512 512">    <path fill="#ffffff" transform="scale(1, -1) translate(0, -448)" glyph-name="developer-board" unicode="&#xF696;" horiz-adv-x="512" d=" M469.3333333333333 256V298.6666666666667H426.6666666666667V341.3333333333334C426.6666666666667 364.8 407.4666666666667 384 384 384H85.3333333333333C61.8666666666667 384 42.6666666666667 364.8 42.6666666666667 341.3333333333334V42.6666666666667C42.6666666666667 19.2 61.8666666666667 0 85.3333333333333 0H384C407.4666666666667 0 426.6666666666667 19.2 426.6666666666667 42.6666666666667V85.3333333333334H469.3333333333333V128H426.6666666666667V170.6666666666667H469.3333333333333V213.3333333333334H426.6666666666667V256H469.3333333333333M384 42.6666666666667H85.3333333333333V341.3333333333334H384V42.6666666666667M128 170.6666666666667H234.6666666666667V85.3333333333334H128V170.6666666666667M256 298.6666666666667H341.3333333333333V234.6666666666667H256V298.6666666666667M128 298.6666666666667H234.6666666666667V192H128V298.6666666666667M256 213.3333333333334H341.3333333333333V85.3333333333334H256V213.3333333333334z" /></svg>