<?xml version="1.0" encoding="UTF-8"?><!DOCTYPE svg PUBLIC "-//W3C//DTD SVG 1.1//EN" "http://www.w3.org/Graphics/SVG/1.1/DTD/svg11.dtd"><svg xmlns="http://www.w3.org/2000/svg" xmlns:xlink="http://www.w3.org/1999/xlink" version="1.1" width="512" height="512" viewBox="0 0 512 512">    <path fill="#ffffff" transform="scale(1, -1) translate(0, -448)" glyph-name="file-pdf" unicode="&#xF225;" horiz-adv-x="512" d=" M277.3333333333333 256H394.6666666666667L277.3333333333333 373.3333333333334V256M128 405.3333333333333H298.6666666666667L426.6666666666667 277.3333333333334V21.3333333333334C426.6666666666667 -2.1333333333333 407.4666666666667 -21.3333333333333 384 -21.3333333333333H128C104.5333333333333 -21.3333333333333 85.3333333333333 -2.1333333333333 85.3333333333333 21.3333333333334V362.6666666666667C85.3333333333333 386.1333333333334 104.5333333333333 405.3333333333333 128 405.3333333333333M215.4666666666667 204.8C215.04 203.9466666666667 209.28 167.2533333333333 170.6666666666667 104.7466666666667C170.6666666666667 104.7466666666667 96 65.92 113.7066666666667 36.9066666666667C128 13.8666666666667 163.2 37.76 193.4933333333334 94.08C193.4933333333334 94.08 232.32 107.7333333333334 283.9466666666667 111.5733333333334C283.9466666666667 111.5733333333334 366.2933333333334 74.6666666666667 377.6 113.92C388.6933333333333 153.6 312.32 144.64 298.6666666666667 140.5866666666667C298.6666666666667 140.5866666666667 256 169.3866666666667 245.3333333333333 209.0666666666667C245.3333333333333 209.0666666666667 269.6533333333333 293.3333333333334 232.32 292.2666666666667C194.9866666666667 291.2000000000001 209.0666666666667 225.4933333333334 215.4666666666667 204.8000000000001M232.7466666666667 182.6133333333334C233.3866666666667 182.4000000000001 242.7733333333334 156.8000000000001 273.0666666666667 130.1333333333334C273.0666666666667 130.1333333333334 223.3600000000001 120.3200000000001 200.7466666666667 110.9333333333334C200.7466666666667 110.9333333333334 222.0800000000001 147.84 232.7466666666667 182.6133333333334M316.5866666666667 124.5866666666667C328.9600000000001 128 366.2933333333334 121.3866666666667 364.8 114.3466666666667C363.5200000000001 107.3066666666667 316.5866666666667 124.5866666666667 316.5866666666667 124.5866666666667M165.76 85.3333333333334C154.4533333333333 58.8800000000001 135.04 42.6666666666667 130.1333333333333 42.6666666666667C125.2266666666667 42.6666666666667 145.0666666666667 76.8000000000001 165.76 85.3333333333334M232.7466666666667 233.1733333333334C232.7466666666667 234.6666666666667 225.0666666666667 280.1066666666667 232.7466666666667 279.04C244.2666666666667 277.3333333333334 232.7466666666667 234.6666666666667 232.7466666666667 233.1733333333334z" /></svg>