<?xml version="1.0" encoding="UTF-8"?><!DOCTYPE svg PUBLIC "-//W3C//DTD SVG 1.1//EN" "http://www.w3.org/Graphics/SVG/1.1/DTD/svg11.dtd"><svg xmlns="http://www.w3.org/2000/svg" xmlns:xlink="http://www.w3.org/1999/xlink" version="1.1" width="512" height="512" viewBox="0 0 512 512">    <path fill="#ffffff" transform="scale(1, -1) translate(0, -448)" glyph-name="bootstrap" unicode="&#xF6C5;" horiz-adv-x="512" d=" M64 341.3333333333334C64 364.8 83.2 384 106.6666666666667 384H405.3333333333333C428.8 384 448 364.8 448 341.3333333333334V42.6666666666667C448 19.2 428.8 0 405.3333333333333 0H106.6666666666667C82.9866666666667 0 64 19.2 64 42.6666666666667V341.3333333333334M160 320V64H266.6666666666667C314.6666666666667 64 352 90.6666666666667 352 138.6666666666667C352 181.3333333333334 315.0933333333333 202.6666666666667 282.6666666666667 202.6666666666667C315.0933333333333 202.6666666666667 341.3333333333333 228.9066666666667 341.3333333333333 261.3333333333334S304.4266666666666 320 272 320H160M213.3333333333333 213.3333333333334V277.3333333333334H245.3333333333333C263.04 277.3333333333334 277.3333333333333 263.04 277.3333333333333 245.3333333333334S263.04 213.3333333333334 245.3333333333333 213.3333333333334H213.3333333333333M213.3333333333333 170.6666666666667H256C273.7066666666667 170.6666666666667 288 156.3733333333333 288 138.6666666666667S273.7066666666667 106.6666666666667 256 106.6666666666667H213.3333333333333V170.6666666666667z" /></svg>