<?xml version="1.0" encoding="UTF-8"?><!DOCTYPE svg PUBLIC "-//W3C//DTD SVG 1.1//EN" "http://www.w3.org/Graphics/SVG/1.1/DTD/svg11.dtd"><svg xmlns="http://www.w3.org/2000/svg" xmlns:xlink="http://www.w3.org/1999/xlink" version="1.1" width="512" height="512" viewBox="0 0 512 512">    <path fill="#ffffff" transform="scale(1, -1) translate(0, -448)" glyph-name="walk" unicode="&#xF583;" horiz-adv-x="512" d=" M301.2266666666667 234.6666666666667H405.3333333333333V273.0666666666667H328.1066666666667L285.44 344.1066666666667C279.04 354.7733333333334 267.52 362.0266666666667 254.2933333333333 362.0266666666667C250.4533333333333 362.0266666666667 247.04 361.3866666666667 243.6266666666666 360.3200000000001L128 324.2666666666667V213.3333333333334H166.4V291.6266666666667L211.4133333333333 305.7066666666667L128 -21.3333333333333H166.4L227.6266666666667 151.68L277.3333333333333 85.3333333333334V-21.3333333333333H315.7333333333334V115.4133333333334L262.6133333333334 212.2666666666667L278.1866666666667 273.4933333333334M298.6666666666667 366.9333333333334C320 366.9333333333334 337.0666666666667 384 337.0666666666667 405.3333333333334S320 443.7333333333334 298.6666666666667 443.7333333333334S260.2666666666667 426.6666666666667 260.2666666666667 405.3333333333333S277.3333333333333 366.9333333333334 298.6666666666667 366.9333333333334z" /></svg>