<?xml version="1.0" encoding="UTF-8"?><!DOCTYPE svg PUBLIC "-//W3C//DTD SVG 1.1//EN" "http://www.w3.org/Graphics/SVG/1.1/DTD/svg11.dtd"><svg xmlns="http://www.w3.org/2000/svg" xmlns:xlink="http://www.w3.org/1999/xlink" version="1.1" width="512" height="512" viewBox="0 0 512 512">    <path fill="#ffffff" transform="scale(1, -1) translate(0, -448)" glyph-name="transit-transfer" unicode="&#xF6AD;" horiz-adv-x="512" d=" M352 117.3333333333334H469.3333333333333V85.3333333333334H352V48L298.6666666666667 101.3333333333334L352 154.6666666666667V117.3333333333334M416 26.6666666666667V64L469.3333333333333 10.6666666666667L416 -42.6666666666666V-5.3333333333333H298.6666666666667V26.6666666666667H416M202.6666666666667 330.6666666666667C179.2 330.6666666666667 160 349.8666666666667 160 373.3333333333334S179.2 416 202.6666666666667 416S245.3333333333333 396.8 245.3333333333333 373.3333333333334S226.1333333333334 330.6666666666667 202.6666666666667 330.6666666666667M122.6666666666667 258.1333333333334L85.3333333333333 242.1333333333334V170.6666666666667H42.6666666666667V270.9333333333334L154.6666666666667 316.8C160 318.9333333333334 165.3333333333333 320 170.6666666666667 320C185.6 320 199.4666666666667 312.5333333333334 206.9333333333333 299.7333333333334L227.2 265.6C246.4 234.6666666666667 280.5333333333333 213.3333333333334 320 213.3333333333334V170.6666666666667C273.0666666666667 170.6666666666667 231.4666666666667 192 203.7333333333334 226.1333333333334L190.9333333333333 162.1333333333333L234.6666666666667 118.4V-42.6666666666666H192V85.3333333333334L146.1333333333333 128L108.8 -42.6666666666666H64L122.6666666666667 258.1333333333334z" /></svg>