<?xml version="1.0" encoding="UTF-8"?><!DOCTYPE svg PUBLIC "-//W3C//DTD SVG 1.1//EN" "http://www.w3.org/Graphics/SVG/1.1/DTD/svg11.dtd"><svg xmlns="http://www.w3.org/2000/svg" xmlns:xlink="http://www.w3.org/1999/xlink" version="1.1" width="512" height="512" viewBox="0 0 512 512">    <path fill="#ffffff" transform="scale(1, -1) translate(0, -448)" glyph-name="map-marker-circle" unicode="&#xF34F;" horiz-adv-x="512" d=" M256 21.3333333333334C161.7066666666667 21.3333333333334 85.3333333333333 97.7066666666667 85.3333333333333 192S161.7066666666667 362.6666666666667 256 362.6666666666667S426.6666666666667 286.2933333333334 426.6666666666667 192S350.2933333333334 21.3333333333334 256 21.3333333333334M256 405.3333333333333C138.24 405.3333333333333 42.6666666666667 309.76 42.6666666666667 192S138.24 -21.3333333333333 256 -21.3333333333333S469.3333333333333 74.24 469.3333333333333 192S373.76 405.3333333333333 256 405.3333333333333M256 181.3333333333334C238.2933333333333 181.3333333333334 224 195.6266666666667 224 213.3333333333334S238.2933333333333 245.3333333333334 256 245.3333333333334S288 231.04 288 213.3333333333334S273.7066666666667 181.3333333333334 256 181.3333333333334M256 294.4C211.2 294.4 174.9333333333333 258.1333333333334 174.9333333333333 213.3333333333334C174.9333333333333 149.3333333333334 256 74.6666666666667 256 74.6666666666667S337.0666666666667 149.3333333333334 337.0666666666667 213.3333333333334C337.0666666666667 258.1333333333334 300.8 294.4 256 294.4z" /></svg>