<?xml version="1.0" encoding="UTF-8"?><!DOCTYPE svg PUBLIC "-//W3C//DTD SVG 1.1//EN" "http://www.w3.org/Graphics/SVG/1.1/DTD/svg11.dtd"><svg xmlns="http://www.w3.org/2000/svg" xmlns:xlink="http://www.w3.org/1999/xlink" version="1.1" width="512" height="512" viewBox="0 0 512 512">    <path fill="#ffffff" transform="scale(1, -1) translate(0, -448)" glyph-name="trackpad-lock" unicode="&#xF932;" horiz-adv-x="512" d=" M64 426.6666666666667C40.32 426.6666666666667 21.3333333333333 407.68 21.3333333333333 384V85.3333333333334C21.3333333333333 61.6533333333334 40.32 42.6666666666667 64 42.6666666666667H298.6666666666667V85.3333333333334H256V170.6666666666667H355.84C373.3333333333333 184.5333333333334 394.0266666666667 192 416 192C426.6666666666667 192 437.3333333333333 190.0800000000001 448 186.4533333333334V384C448 407.68 429.0133333333333 426.6666666666667 405.3333333333333 426.6666666666667H64M64 384H405.3333333333333V213.3333333333334H64V384M64 170.6666666666667H213.3333333333333V85.3333333333334H64V170.6666666666667M416 149.3333333333334C386.56 149.3333333333334 362.6666666666667 125.44 362.6666666666667 96V85.3333333333334C350.9333333333333 85.3333333333334 341.3333333333333 75.7333333333334 341.3333333333333 64V-21.3333333333333C341.3333333333333 -33.0666666666667 350.9333333333333 -42.6666666666666 362.6666666666667 -42.6666666666666H469.3333333333333C481.0666666666667 -42.6666666666666 490.6666666666666 -33.0666666666667 490.6666666666666 -21.3333333333333V64C490.6666666666666 75.7333333333334 481.0666666666667 85.3333333333334 469.3333333333333 85.3333333333334V96C469.3333333333333 125.44 445.44 149.3333333333334 416 149.3333333333334M416 128C433.7066666666666 128 448 113.7066666666667 448 96V85.3333333333334H384V96C384 113.7066666666667 398.2933333333334 128 416 128z" /></svg>