<?xml version="1.0" encoding="UTF-8"?><!DOCTYPE svg PUBLIC "-//W3C//DTD SVG 1.1//EN" "http://www.w3.org/Graphics/SVG/1.1/DTD/svg11.dtd"><svg xmlns="http://www.w3.org/2000/svg" xmlns:xlink="http://www.w3.org/1999/xlink" version="1.1" width="512" height="512" viewBox="0 0 512 512">    <path fill="#ffffff" transform="scale(1, -1) translate(0, -448)" glyph-name="cloud-circle" unicode="&#xF161;" horiz-adv-x="512" d=" M352 106.6666666666667H170.6666666666667C135.2533333333333 106.6666666666667 106.6666666666667 135.2533333333333 106.6666666666667 170.6666666666667S135.2533333333333 234.6666666666667 170.6666666666667 234.6666666666667H173.6533333333333C183.04 271.36 216.1066666666667 298.6666666666667 256 298.6666666666667C303.1466666666667 298.6666666666667 341.3333333333333 260.48 341.3333333333333 213.3333333333334H352C381.44 213.3333333333334 405.3333333333333 189.44 405.3333333333333 160S381.44 106.6666666666667 352 106.6666666666667M256 405.3333333333333C138.24 405.3333333333333 42.6666666666667 309.76 42.6666666666667 192S138.24 -21.3333333333333 256 -21.3333333333333S469.3333333333333 74.24 469.3333333333333 192S373.76 405.3333333333333 256 405.3333333333333z" /></svg>