<?xml version="1.0" encoding="UTF-8"?><!DOCTYPE svg PUBLIC "-//W3C//DTD SVG 1.1//EN" "http://www.w3.org/Graphics/SVG/1.1/DTD/svg11.dtd"><svg xmlns="http://www.w3.org/2000/svg" xmlns:xlink="http://www.w3.org/1999/xlink" version="1.1" width="512" height="512" viewBox="0 0 512 512">    <path fill="#ffffff" transform="scale(1, -1) translate(0, -448)" glyph-name="popcorn" unicode="&#xF422;" horiz-adv-x="512" d=" M149.3333333333333 -21.3333333333333H101.3333333333333S85.3333333333333 -21.3333333333333 81.28 7.4666666666667L43.52 366.7200000000001L42.6666666666667 373.3333333333334C42.6666666666667 391.04 61.8666666666667 405.3333333333333 85.3333333333333 405.3333333333333S128 391.04 128 373.3333333333334C128 391.04 147.2 405.3333333333333 170.6666666666667 405.3333333333333S213.3333333333333 391.04 213.3333333333333 373.3333333333334C213.3333333333333 391.04 232.5333333333334 405.3333333333333 256 405.3333333333333C279.2533333333334 405.3333333333333 298.6666666666667 391.2533333333334 298.6666666666667 373.3333333333334C298.6666666666667 391.04 317.8666666666667 405.3333333333333 341.3333333333333 405.3333333333333S384 391.04 384 373.3333333333334C384 391.04 403.2 405.3333333333333 426.6666666666667 405.3333333333333S469.3333333333333 391.04 469.3333333333333 373.3333333333334L468.48 366.7200000000001L430.7200000000001 7.4666666666667C426.6666666666667 -21.3333333333333 410.6666666666667 -21.3333333333333 410.6666666666667 -21.3333333333333H149.3333333333333M380.8 342.8266666666667C374.4 354.3466666666667 359.2533333333334 362.6666666666667 341.3333333333333 362.6666666666667C324.0533333333333 362.6666666666667 306.3466666666667 354.9866666666667 298.6666666666667 344.1066666666667L293.9733333333333 21.3333333333334H355.4133333333333L380.8 342.8266666666667M213.3333333333333 344.1066666666667C205.6533333333333 354.9866666666667 187.9466666666667 362.6666666666667 170.6666666666667 362.6666666666667C152.7466666666667 362.6666666666667 137.6 354.3466666666667 131.2 342.8266666666667L156.5866666666667 21.3333333333334H218.0266666666667L213.3333333333333 344.1066666666667z" /></svg>