<?xml version="1.0" encoding="UTF-8"?><!DOCTYPE svg PUBLIC "-//W3C//DTD SVG 1.1//EN" "http://www.w3.org/Graphics/SVG/1.1/DTD/svg11.dtd"><svg xmlns="http://www.w3.org/2000/svg" xmlns:xlink="http://www.w3.org/1999/xlink" version="1.1" width="512" height="512" viewBox="0 0 512 512">    <path fill="#ffffff" transform="scale(1, -1) translate(0, -448)" glyph-name="backup-restore" unicode="&#xF06F;" horiz-adv-x="512" d=" M256 384C149.9733333333333 384 64 298.0266666666667 64 192H0L85.3333333333333 106.6666666666667L170.6666666666667 192H106.6666666666667C106.6666666666667 274.5600000000001 173.44 341.3333333333334 256 341.3333333333334S405.3333333333333 274.5600000000001 405.3333333333333 192S338.56 42.6666666666667 256 42.6666666666667C224 42.6666666666667 193.92 53.3333333333334 169.3866666666667 70.4L138.6666666666667 39.68C171.52 14.9333333333333 212.0533333333333 0 256 0C362.0266666666667 0 448 85.9733333333334 448 192S362.0266666666667 384 256 384M298.6666666666667 192C298.6666666666667 215.4666666666667 279.4666666666667 234.6666666666667 256 234.6666666666667S213.3333333333333 215.4666666666667 213.3333333333333 192S232.5333333333334 149.3333333333334 256 149.3333333333334S298.6666666666667 168.5333333333334 298.6666666666667 192z" /></svg>