<?xml version="1.0" encoding="UTF-8"?><!DOCTYPE svg PUBLIC "-//W3C//DTD SVG 1.1//EN" "http://www.w3.org/Graphics/SVG/1.1/DTD/svg11.dtd"><svg xmlns="http://www.w3.org/2000/svg" xmlns:xlink="http://www.w3.org/1999/xlink" version="1.1" width="512" height="512" viewBox="0 0 512 512">    <path fill="#ffffff" transform="scale(1, -1) translate(0, -448)" glyph-name="script-text-outline" unicode="&#xFB9F;" horiz-adv-x="512" d=" M320 21.3333333333334C331.7333333333334 21.3333333333334 341.3333333333333 30.9333333333333 341.3333333333333 42.6666666666667V362.6666666666667H170.6666666666667C158.9333333333333 362.6666666666667 149.3333333333333 353.0666666666667 149.3333333333333 341.3333333333334V106.6666666666667H106.6666666666667V341.3333333333334C106.6666666666667 376.7466666666667 135.2533333333333 405.3333333333333 170.6666666666667 405.3333333333333H405.3333333333333C440.7466666666667 405.3333333333333 469.3333333333333 376.7466666666667 469.3333333333333 341.3333333333334V320H426.6666666666667V341.3333333333334C426.6666666666667 353.0666666666667 417.0666666666667 362.6666666666667 405.3333333333333 362.6666666666667S384 353.0666666666667 384 341.3333333333334V42.6666666666667C384 7.2533333333333 355.4133333333333 -21.3333333333333 320 -21.3333333333333H106.6666666666667C71.2533333333333 -21.3333333333333 42.6666666666667 7.2533333333333 42.6666666666667 42.6666666666667V64H277.3333333333333C277.3333333333333 40.5333333333333 296.5333333333333 21.3333333333334 320 21.3333333333334M192 320H298.6666666666667V277.3333333333334H192V320M192 234.6666666666667H298.6666666666667V192H192V234.6666666666667M192 149.3333333333334H298.6666666666667V106.6666666666667H192V149.3333333333334z" /></svg>