<?xml version="1.0" encoding="UTF-8"?><!DOCTYPE svg PUBLIC "-//W3C//DTD SVG 1.1//EN" "http://www.w3.org/Graphics/SVG/1.1/DTD/svg11.dtd"><svg xmlns="http://www.w3.org/2000/svg" xmlns:xlink="http://www.w3.org/1999/xlink" version="1.1" width="512" height="512" viewBox="0 0 512 512">    <path fill="#ffffff" transform="scale(1, -1) translate(0, -448)" glyph-name="google-home" unicode="&#xF823;" horiz-adv-x="512" d=" M171.9466666666667 282.0266666666667C160 282.0266666666667 152.96 283.0933333333334 151.04 285.0133333333333L142.08 155.0933333333334C153.3866666666667 148.2666666666667 168.1066666666667 142.9333333333333 186.0266666666667 138.6666666666667C203.9466666666667 134.1866666666667 229.9733333333334 132.9066666666667 264.1066666666667 135.04C298.0266666666667 136.96 333.44 144.4266666666667 369.92 157.0133333333333L353.0666666666667 357.9733333333334C334.2933333333333 339.4133333333333 306.7733333333333 321.92 270.08 305.92C237.44 292.0533333333334 209.28 283.9466666666667 186.0266666666667 282.0266666666667H171.9466666666667M170.0266666666667 334.0800000000001C155.3066666666667 321.2800000000001 149.3333333333334 312.7466666666667 152.1066666666667 308.0533333333334C154.0266666666667 303.36 164.2666666666667 302.0800000000001 183.04 304C206.2933333333333 305.92 232.7466666666667 313.3866666666667 261.9733333333334 325.9733333333334C282.0266666666667 334.7200000000001 299.3066666666667 343.8933333333333 314.0266666666667 353.92C328.7466666666667 363.9466666666667 338.7733333333333 372.2666666666667 344.1066666666667 379.0933333333334C349.44 385.7066666666667 351.36 390.4 350.08 392.96C348.5866666666667 396.3733333333334 341.9733333333334 398.08 330.0266666666667 398.08C305.92 398.08 276.0533333333334 390.4 240 375.04C209.28 361.6 186.0266666666667 347.9466666666667 170.0266666666667 334.08M369.92 401.0666666666667C371.4133333333333 398.2933333333333 372.0533333333334 395.3066666666667 372.0533333333334 391.8933333333333L397.0133333333333 85.3333333333334C397.0133333333333 48.4266666666667 384 19.4133333333334 359.04 -1.4933333333333C333.6533333333333 -22.4 299.3066666666666 -33.0666666666667 256 -33.0666666666667C213.3333333333333 -33.0666666666667 179.2 -22.1866666666666 153.6 0C128 21.3333333333334 114.9866666666666 50.3466666666667 114.9866666666666 87.04L129.92 309.9733333333333C129.92 315.3066666666666 132.2666666666667 321.28 136.96 327.8933333333333C141.6533333333333 334.72 145.92 340.0533333333333 149.9733333333333 343.8933333333333L157.0133333333333 350.08C177.7066666666667 367.36 202.6666666666667 382.2933333333333 232.1066666666667 394.6666666666667C251.9466666666667 403.6266666666666 271.5733333333333 410.24 290.56 414.5066666666666C309.3333333333333 418.7733333333333 326.4 420.2666666666666 341.3333333333333 418.56C356.48 416.8533333333333 366.08 411.0933333333333 369.92 401.0666666666666z" /></svg>