<?xml version="1.0" encoding="UTF-8"?><!DOCTYPE svg PUBLIC "-//W3C//DTD SVG 1.1//EN" "http://www.w3.org/Graphics/SVG/1.1/DTD/svg11.dtd"><svg xmlns="http://www.w3.org/2000/svg" xmlns:xlink="http://www.w3.org/1999/xlink" version="1.1" width="512" height="512" viewBox="0 0 512 512">    <path fill="#ffffff" transform="scale(1, -1) translate(0, -448)" glyph-name="key-variant" unicode="&#xF30B;" horiz-adv-x="512" d=" M469.3333333333333 64V-21.3333333333333H384V42.6666666666667H320V106.6666666666667H256L207.7866666666667 154.88C196.0533333333333 151.2533333333333 183.68 149.3333333333334 170.6666666666667 149.3333333333334C100.0533333333333 149.3333333333334 42.6666666666667 206.72 42.6666666666667 277.3333333333334S100.0533333333333 405.3333333333333 170.6666666666667 405.3333333333333S298.6666666666667 347.9466666666667 298.6666666666667 277.3333333333334C298.6666666666667 264.3200000000001 296.7466666666667 251.9466666666667 293.12 240.2133333333334L469.3333333333333 64M149.3333333333333 341.3333333333334C125.8666666666667 341.3333333333334 106.6666666666667 322.1333333333334 106.6666666666667 298.6666666666667S125.8666666666667 256 149.3333333333333 256S192 275.2000000000001 192 298.6666666666667S172.8 341.3333333333334 149.3333333333333 341.3333333333334z" /></svg>