<?xml version="1.0" encoding="UTF-8"?><!DOCTYPE svg PUBLIC "-//W3C//DTD SVG 1.1//EN" "http://www.w3.org/Graphics/SVG/1.1/DTD/svg11.dtd"><svg xmlns="http://www.w3.org/2000/svg" xmlns:xlink="http://www.w3.org/1999/xlink" version="1.1" width="512" height="512" viewBox="0 0 512 512">    <path fill="#ffffff" transform="scale(1, -1) translate(0, -448)" glyph-name="smoke-detector" unicode="&#xF392;" horiz-adv-x="512" d=" M256 64C326.6133333333334 64 384 121.3866666666667 384 192C384 262.8266666666667 326.6133333333334 320 256 320C185.1733333333333 320 128 262.8266666666667 128 192C128 121.3866666666667 185.3866666666667 64 256 64M405.3333333333333 384C428.8 384 448 364.8 448 341.3333333333334V42.6666666666667C448 19.2 428.8 0 405.3333333333333 0H106.6666666666667C82.9866666666667 0 64 19.2 64 42.6666666666667V341.3333333333334C64 365.0133333333333 82.9866666666667 384 106.6666666666667 384H405.3333333333333M170.6666666666667 192C170.6666666666667 239.1466666666667 208.8533333333333 277.3333333333334 256 277.3333333333334S341.3333333333333 239.1466666666667 341.3333333333333 192S303.1466666666667 106.6666666666667 256 106.6666666666667S170.6666666666667 144.8533333333334 170.6666666666667 192z" /></svg>