<?xml version="1.0" encoding="UTF-8"?><!DOCTYPE svg PUBLIC "-//W3C//DTD SVG 1.1//EN" "http://www.w3.org/Graphics/SVG/1.1/DTD/svg11.dtd"><svg xmlns="http://www.w3.org/2000/svg" xmlns:xlink="http://www.w3.org/1999/xlink" version="1.1" width="512" height="512" viewBox="0 0 512 512">    <path fill="#ffffff" transform="scale(1, -1) translate(0, -448)" glyph-name="account-card-details" unicode="&#xF5D2;" horiz-adv-x="512" d=" M42.6666666666667 384H469.3333333333333C491.7333333333333 384 512 363.7333333333334 512 341.3333333333334V42.6666666666667C512 20.2666666666667 491.7333333333333 0 469.3333333333333 0H42.6666666666667C20.2666666666667 0 0 20.2666666666667 0 42.6666666666667V341.3333333333334C0 363.7333333333334 20.2666666666667 384 42.6666666666667 384M298.6666666666667 320V298.6666666666667H469.3333333333333V320H298.6666666666667M298.6666666666667 277.3333333333334V256H469.3333333333333V277.3333333333334H298.6666666666667M298.6666666666667 234.6666666666667V213.3333333333334H448V234.6666666666667H298.6666666666667M170.6666666666667 151.2533333333333C128 151.2533333333333 42.6666666666667 128 42.6666666666667 85.3333333333334V64H298.6666666666667V85.3333333333334C298.6666666666667 128 213.3333333333333 151.2533333333333 170.6666666666667 151.2533333333333M170.6666666666667 320C135.2533333333333 320 106.6666666666667 291.4133333333334 106.6666666666667 256S135.2533333333333 192 170.6666666666667 192S234.6666666666667 220.5866666666667 234.6666666666667 256S206.08 320 170.6666666666667 320z" /></svg>