<?xml version="1.0" encoding="UTF-8"?><!DOCTYPE svg PUBLIC "-//W3C//DTD SVG 1.1//EN" "http://www.w3.org/Graphics/SVG/1.1/DTD/svg11.dtd"><svg xmlns="http://www.w3.org/2000/svg" xmlns:xlink="http://www.w3.org/1999/xlink" version="1.1" width="512" height="512" viewBox="0 0 512 512">    <path fill="#ffffff" transform="scale(1, -1) translate(0, -448)" glyph-name="nature-people" unicode="&#xF38F;" horiz-adv-x="512" d=" M96 213.3333333333334C113.7066666666667 213.3333333333334 128 227.6266666666667 128 245.3333333333334S113.7066666666667 277.3333333333334 96 277.3333333333334S64 263.04 64 245.3333333333334S78.2933333333333 213.3333333333334 96 213.3333333333334M472.96 252.3733333333334C472.96 334.9333333333334 406.1866666666667 401.7066666666667 323.6266666666667 401.7066666666667S174.2933333333334 334.9333333333334 174.2933333333334 252.3733333333334C174.2933333333334 178.3466666666667 228.0533333333334 117.3333333333334 298.6666666666667 105.3866666666667V21.3333333333334H128V85.3333333333334H149.3333333333333V170.6666666666667C149.3333333333333 182.4 139.7333333333333 192 128 192H64C52.2666666666667 192 42.6666666666667 182.4 42.6666666666667 170.6666666666667V85.3333333333334H64V-21.3333333333333H405.3333333333333V21.3333333333334H341.3333333333333V104.1066666666667C415.36 112.8533333333334 472.96 175.7866666666666 472.96 252.3733333333333z" /></svg>