<?xml version="1.0" encoding="UTF-8"?><!DOCTYPE svg PUBLIC "-//W3C//DTD SVG 1.1//EN" "http://www.w3.org/Graphics/SVG/1.1/DTD/svg11.dtd"><svg xmlns="http://www.w3.org/2000/svg" xmlns:xlink="http://www.w3.org/1999/xlink" version="1.1" width="512" height="512" viewBox="0 0 512 512">    <path fill="#ffffff" transform="scale(1, -1) translate(0, -448)" glyph-name="phone-voip" unicode="&#xF3FE;" horiz-adv-x="512" d=" M277.3333333333333 85.3333333333334V42.6666666666667H298.6666666666667C310.4 42.6666666666667 320 33.0666666666667 320 21.3333333333334H469.3333333333333V-21.3333333333333H320C320 -33.0666666666667 310.4 -42.6666666666666 298.6666666666667 -42.6666666666666H213.3333333333333C201.6 -42.6666666666666 192 -33.0666666666667 192 -21.3333333333333H42.6666666666667V21.3333333333334H192C192 33.0666666666667 201.6 42.6666666666667 213.3333333333333 42.6666666666667H234.6666666666667V85.3333333333334H277.3333333333333M505.6 284.3733333333334C509.4399999999999 280.5333333333334 512 275.4133333333334 512 269.4400000000001C512 263.4666666666667 509.6533333333333 258.1333333333334 505.8133333333333 254.2933333333334L452.9066666666666 201.3866666666667C449.0666666666667 197.5466666666667 443.7333333333334 195.2000000000001 437.3333333333333 195.2000000000001C432 195.2000000000001 426.6666666666667 197.3333333333334 422.8266666666667 201.1733333333334C405.3333333333333 216.7466666666667 386.7733333333333 230.1866666666667 365.8666666666666 240.6400000000001C358.8266666666667 244.0533333333334 353.92 251.5200000000001 353.92 259.8400000000001V325.9733333333334C322.9866666666667 336 289.92 341.3333333333334 256 341.3333333333334C221.8666666666667 341.3333333333334 188.8 336 157.8666666666667 325.76V259.6266666666667C157.8666666666667 251.0933333333334 152.96 243.84 145.92 240.4266666666667C125.2266666666667 229.9733333333334 106.0266666666667 216.7466666666667 89.1733333333333 200.96C85.3333333333333 197.3333333333334 80 194.9866666666667 74.6666666666667 194.9866666666667C68.2666666666667 194.9866666666667 62.9333333333333 197.3333333333334 59.0933333333333 201.1733333333334L6.1866666666667 254.08C2.3466666666667 257.92 0 263.2533333333334 0 269.2266666666667C0 275.2 2.3466666666667 280.5333333333333 6.1866666666667 284.3733333333334C71.2533333333333 346.0266666666667 159.1466666666667 384 256 384C352.64 384 440.5333333333333 346.0266666666667 505.6 284.3733333333334M234.6666666666667 234.6666666666667V128H213.3333333333333V234.6666666666667H234.6666666666667M256 234.6666666666667H320V170.6666666666667H277.3333333333333V128H256V234.6666666666667M298.6666666666667 192V213.3333333333334H277.3333333333333V192H298.6666666666667z" /></svg>