<?xml version="1.0" encoding="UTF-8"?><!DOCTYPE svg PUBLIC "-//W3C//DTD SVG 1.1//EN" "http://www.w3.org/Graphics/SVG/1.1/DTD/svg11.dtd"><svg xmlns="http://www.w3.org/2000/svg" xmlns:xlink="http://www.w3.org/1999/xlink" version="1.1" width="512" height="512" viewBox="0 0 512 512">    <path fill="#ffffff" transform="scale(1, -1) translate(0, -448)" glyph-name="package-down" unicode="&#xF3D4;" horiz-adv-x="512" d=" M109.2266666666667 341.3333333333334L126.5066666666667 362.6666666666667H382.5066666666667L402.56 341.3333333333334M256 74.6666666666667L138.6666666666667 192H213.3333333333333V234.6666666666667H298.6666666666667V192H373.3333333333333L256 74.6666666666667M438.1866666666666 336.4266666666667L408.5333333333333 372.2666666666667C402.7733333333333 379.52 394.0266666666667 384 384 384H128C117.9733333333333 384 109.2266666666667 379.52 103.2533333333333 372.2666666666667L73.8133333333333 336.4266666666667C67.6266666666667 329.1733333333334 64 320 64 309.3333333333334V42.6666666666667C64 19.2 83.2 0 106.6666666666667 0H405.3333333333333C428.8 0 448 19.2 448 42.6666666666667V309.3333333333334C448 320 444.3733333333333 329.1733333333334 438.1866666666666 336.4266666666667z" /></svg>