<?xml version="1.0" encoding="UTF-8"?><!DOCTYPE svg PUBLIC "-//W3C//DTD SVG 1.1//EN" "http://www.w3.org/Graphics/SVG/1.1/DTD/svg11.dtd"><svg xmlns="http://www.w3.org/2000/svg" xmlns:xlink="http://www.w3.org/1999/xlink" version="1.1" width="512" height="512" viewBox="0 0 512 512">    <path fill="#ffffff" transform="scale(1, -1) translate(0, -448)" glyph-name="molecule" unicode="&#xFB88;" horiz-adv-x="512" d=" M155.0933333333333 234.6666666666667L192 298.6666666666667H307.6266666666667L332.3733333333334 341.3333333333334L330.6666666666667 352C330.6666666666667 369.7066666666667 344.9600000000001 384 362.6666666666667 384S394.6666666666667 369.7066666666667 394.6666666666667 352C394.6666666666667 336.8533333333334 384 324.0533333333334 369.7066666666666 320.8533333333334L349.2266666666666 285.2266666666667L378.24 234.6666666666667L396.5866666666667 266.6666666666667L394.6666666666667 277.3333333333334C394.6666666666667 295.04 408.9600000000001 309.3333333333334 426.6666666666667 309.3333333333334S458.6666666666666 295.04 458.6666666666666 277.3333333333334C458.6666666666666 262.1866666666667 448 249.6 434.1333333333334 246.1866666666667L402.9866666666667 192L439.8933333333333 128C456.32 126.5066666666667 469.3333333333333 112.8533333333334 469.3333333333333 96C469.3333333333333 78.2933333333334 455.04 64 437.3333333333333 64S405.3333333333333 78.2933333333334 405.3333333333333 96V101.5466666666667L378.24 149.3333333333334L349.2266666666667 98.7733333333333L369.7066666666667 63.1466666666667C384.0000000000001 59.9466666666667 394.6666666666667 47.1466666666667 394.6666666666667 32C394.6666666666667 14.2933333333334 380.3733333333333 0 362.6666666666667 0S330.6666666666667 14.2933333333334 330.6666666666667 32L332.3733333333334 42.6666666666667L307.6266666666667 85.3333333333334H225.7066666666667L200.96 42.6666666666667L202.6666666666667 32C202.6666666666667 14.2933333333334 188.3733333333333 0 170.6666666666667 0S138.6666666666667 14.2933333333334 138.6666666666667 32C138.6666666666667 47.1466666666667 149.3333333333333 59.9466666666667 163.6266666666667 63.1466666666667L184.1066666666666 98.7733333333334L93.44 256C77.0133333333333 257.4933333333334 64 271.1466666666667 64 288C64 305.7066666666667 78.2933333333333 320 96 320S128 305.7066666666667 128 288V282.4533333333334L155.0933333333333 234.6666666666667M216.5333333333333 256L179.6266666666666 192L216.5333333333333 128H316.8L353.7066666666666 192L316.8 256H216.5333333333333z" /></svg>