<?xml version="1.0" encoding="UTF-8"?><!DOCTYPE svg PUBLIC "-//W3C//DTD SVG 1.1//EN" "http://www.w3.org/Graphics/SVG/1.1/DTD/svg11.dtd"><svg xmlns="http://www.w3.org/2000/svg" xmlns:xlink="http://www.w3.org/1999/xlink" version="1.1" width="512" height="512" viewBox="0 0 512 512">    <path fill="#ffffff" transform="scale(1, -1) translate(0, -448)" glyph-name="car-cruise-control" unicode="&#xFD3C;" horiz-adv-x="512" d=" M469.3333333333333 128C469.3333333333333 72.5333333333333 443.7333333333334 23.4666666666667 403.2 -6.4L392.5333333333333 4.2666666666667L347.7333333333333 49.0666666666667L377.5999999999999 78.9333333333333L403.1999999999999 53.3333333333334C413.8666666666666 68.2666666666667 422.3999999999999 87.4666666666667 424.5333333333332 106.6666666666667H384V149.3333333333334H424.5333333333333C420.2666666666667 168.5333333333334 413.8666666666666 185.6 403.2 202.6666666666667L377.6 177.0666666666667L347.7333333333334 206.9333333333334L373.3333333333333 232.5333333333334C358.4 243.2 339.2 251.7333333333334 320 253.8666666666667V213.3333333333334H277.3333333333333V253.8666666666667C258.1333333333334 249.6 241.0666666666667 243.2 224 232.5333333333334L288 168.5333333333334C292.2666666666667 168.5333333333334 294.4 170.6666666666667 298.6666666666667 170.6666666666667C322.1333333333334 170.6666666666667 341.3333333333333 151.4666666666667 341.3333333333333 128S322.1333333333334 85.3333333333334 298.6666666666667 85.3333333333334S256 104.5333333333333 256 128C256 132.2666666666667 256 134.4 258.1333333333334 138.6666666666667L194.1333333333333 202.6666666666667C183.4666666666667 187.7333333333334 174.9333333333333 168.5333333333334 172.8 149.3333333333334H213.3333333333333V106.6666666666667H172.8C177.0666666666666 87.4666666666667 183.4666666666667 70.4 194.1333333333333 53.3333333333334L219.7333333333333 78.9333333333333L249.6 49.0666666666667L194.1333333333333 -6.4C153.6 23.4666666666667 128 72.5333333333333 128 128C128 222.2933333333334 204.3733333333333 298.6666666666667 298.6666666666667 298.6666666666667S469.3333333333333 222.2933333333334 469.3333333333333 128M142.9333333333333 334.9333333333334L72.5333333333333 405.3333333333333L42.6666666666667 375.4666666666667L113.0666666666667 305.0666666666667L85.3333333333333 277.3333333333334H170.6666666666667V362.6666666666667L142.9333333333333 334.9333333333334z" /></svg>