<?xml version="1.0" encoding="UTF-8"?><!DOCTYPE svg PUBLIC "-//W3C//DTD SVG 1.1//EN" "http://www.w3.org/Graphics/SVG/1.1/DTD/svg11.dtd"><svg xmlns="http://www.w3.org/2000/svg" xmlns:xlink="http://www.w3.org/1999/xlink" version="1.1" width="512" height="512" viewBox="0 0 512 512">    <path fill="#ffffff" transform="scale(1, -1) translate(0, -448)" glyph-name="wallpaper" unicode="&#xFE69;" horiz-adv-x="512" d=" M85.3333333333333 362.6666666666667H234.6666666666667V405.3333333333333H85.3333333333333C61.8666666666667 405.3333333333333 42.6666666666667 386.1333333333334 42.6666666666667 362.6666666666667V213.3333333333334H85.3333333333333V362.6666666666667M213.3333333333333 170.6666666666667L128 64H384L320 149.3333333333334L276.6933333333334 91.52L213.3333333333333 170.6666666666667M362.6666666666667 266.6666666666667C362.6666666666667 284.3733333333334 348.3733333333333 298.6666666666667 330.6666666666667 298.6666666666667S298.6666666666667 284.3733333333334 298.6666666666667 266.6666666666667S312.96 234.6666666666667 330.6666666666667 234.6666666666667S362.6666666666667 248.96 362.6666666666667 266.6666666666667M426.6666666666667 405.3333333333333H277.3333333333333V362.6666666666667H426.6666666666667V213.3333333333334H469.3333333333333V362.6666666666667C469.3333333333333 386.1333333333334 450.1333333333334 405.3333333333333 426.6666666666667 405.3333333333333M426.6666666666667 21.3333333333334H277.3333333333333V-21.3333333333333H426.6666666666667C450.1333333333334 -21.3333333333333 469.3333333333333 -2.1333333333333 469.3333333333333 21.3333333333334V170.6666666666667H426.6666666666667V21.3333333333334M85.3333333333333 170.6666666666667H42.6666666666667V21.3333333333334C42.6666666666667 -2.1333333333333 61.8666666666667 -21.3333333333333 85.3333333333333 -21.3333333333333H234.6666666666667V21.3333333333334H85.3333333333333V170.6666666666667z" /></svg>