<?xml version="1.0" encoding="UTF-8"?><!DOCTYPE svg PUBLIC "-//W3C//DTD SVG 1.1//EN" "http://www.w3.org/Graphics/SVG/1.1/DTD/svg11.dtd"><svg xmlns="http://www.w3.org/2000/svg" xmlns:xlink="http://www.w3.org/1999/xlink" version="1.1" width="512" height="512" viewBox="0 0 512 512">    <path fill="#ffffff" transform="scale(1, -1) translate(0, -448)" glyph-name="fingerprint" unicode="&#xF237;" horiz-adv-x="512" d=" M379.9466666666666 352.64C378.24 352.64 376.5333333333333 353.0666666666667 375.04 353.92C334.08 375.04 298.6666666666667 384 256 384C213.9733333333333 384 173.8666666666667 373.9733333333334 137.3866666666667 353.92C132.2666666666667 351.1466666666667 125.8666666666667 353.0666666666667 122.88 358.1866666666667C120.1066666666667 363.3066666666667 122.0266666666667 369.92 127.1466666666667 372.6933333333334C166.8266666666667 394.6666666666667 210.3466666666666 405.3333333333333 256 405.3333333333333S341.3333333333333 395.3066666666667 384.8533333333333 373.3333333333334C390.1866666666666 370.1333333333334 392.1066666666667 363.7333333333334 389.3333333333333 358.6133333333334C387.4133333333333 354.7733333333334 384 352.64 379.9466666666666 352.64M74.6666666666667 240.64C72.5333333333333 240.64 70.4 241.28 68.48 242.56C64 245.9733333333334 62.5066666666667 252.5866666666667 65.92 257.4933333333334C87.04 287.36 113.92 310.8266666666667 145.92 327.2533333333334C213.3333333333333 361.8133333333334 298.6666666666667 362.0266666666667 365.8666666666666 327.4666666666667C397.8666666666666 311.04 424.7466666666666 288 445.8666666666666 258.1333333333334C449.28 253.44 448 246.6133333333333 443.3066666666666 243.2C438.3999999999999 239.7866666666667 431.7866666666667 240.8533333333334 428.3733333333333 245.3333333333334C409.1733333333333 272.64 384.8533333333333 293.76 356.0533333333333 308.48C294.8266666666666 339.8400000000001 216.5333333333333 339.8400000000001 155.5199999999999 308.2666666666667C126.5066666666666 293.3333333333334 102.1866666666666 272 82.9866666666666 245.3333333333334C81.28 242.1333333333334 78.0799999999999 240.64 74.6666666666666 240.64M207.9999999999999 -16.8533333333333C205.2266666666666 -16.8533333333333 202.6666666666666 -15.7866666666666 200.5333333333333 -13.6533333333333C181.9733333333333 4.9066666666667 171.9466666666666 16.8533333333334 157.6533333333333 42.6666666666667C142.9333333333333 68.9066666666667 135.2533333333333 100.9066666666667 135.2533333333333 135.2533333333333C135.2533333333333 198.6133333333334 189.44 250.24 255.9999999999999 250.24S376.7466666666666 198.6133333333334 376.7466666666666 135.2533333333333C376.7466666666666 129.28 372.0533333333333 124.5866666666667 366.08 124.5866666666667S355.4133333333333 129.28 355.4133333333333 135.2533333333333C355.4133333333333 186.88 310.8266666666666 228.9066666666667 255.9999999999999 228.9066666666667C201.1733333333332 228.9066666666667 156.5866666666666 186.88 156.5866666666666 135.2533333333333C156.5866666666666 104.5333333333333 163.4133333333333 76.16 176.4266666666666 53.3333333333334C190.0799999999999 28.5866666666667 199.4666666666666 18.1333333333334 215.8933333333332 1.4933333333333C219.9466666666666 -2.7733333333333 219.9466666666666 -9.3866666666667 215.8933333333332 -13.6533333333333C213.3333333333333 -15.7866666666667 210.7733333333332 -16.8533333333333 207.9999999999999 -16.8533333333333M360.9599999999999 22.6133333333334C335.5733333333332 22.6133333333334 313.1733333333332 29.0133333333334 294.8266666666666 41.6000000000001C263.0399999999999 63.1466666666668 244.0533333333332 98.1333333333334 244.0533333333332 135.2533333333335C244.0533333333332 141.2266666666668 248.7466666666666 145.9200000000001 254.7199999999999 145.9200000000001S265.3866666666666 141.2266666666668 265.3866666666666 135.2533333333335C265.3866666666666 105.1733333333334 280.7466666666666 76.8000000000001 306.7733333333332 59.3066666666668C321.9199999999999 49.0666666666668 339.6266666666666 44.1600000000001 360.9599999999999 44.1600000000001C366.0799999999998 44.1600000000001 374.6133333333333 44.8000000000001 383.1466666666666 46.2933333333335C388.9066666666665 47.3600000000001 394.6666666666665 43.5200000000002 395.5199999999998 37.5466666666668C396.5866666666665 32.0000000000001 392.7466666666665 26.2400000000001 386.7733333333332 25.1733333333335C374.6133333333331 22.8266666666668 363.9466666666665 22.6133333333335 360.9599999999998 22.6133333333335M318.08 -21.3333333333333H315.3066666666666C281.3866666666667 -11.52 259.2 1.0666666666667 235.9466666666667 23.8933333333334C206.08 53.3333333333334 189.6533333333333 93.0133333333333 189.6533333333333 135.2533333333333C189.6533333333333 169.8133333333334 219.0933333333333 197.9733333333333 255.36 197.9733333333333C291.6266666666666 197.9733333333333 321.0666666666666 169.8133333333333 321.0666666666666 135.2533333333333C321.0666666666666 112.4266666666667 341.3333333333333 93.8666666666667 365.44 93.8666666666667C389.9733333333333 93.8666666666667 409.8133333333334 112.4266666666666 409.8133333333334 135.2533333333333C409.8133333333334 215.68 340.48 280.96 255.1466666666667 280.96C194.56 280.96 138.6666666666667 247.2533333333333 114.1333333333334 194.9866666666666C105.8133333333334 177.7066666666666 101.5466666666667 157.44 101.5466666666667 135.2533333333333C101.5466666666667 118.6133333333333 103.04 92.3733333333333 115.84 58.24C117.9733333333333 52.6933333333333 115.2 46.5066666666666 109.6533333333333 44.5866666666666C104.1066666666667 42.6666666666666 97.92 45.4399999999999 96 50.7733333333333C85.3333333333333 78.7199999999999 80.4266666666667 106.6666666666666 80.4266666666667 135.2533333333333C80.4266666666667 160.8533333333333 85.3333333333333 184.1066666666666 94.9333333333334 204.3733333333333C123.3066666666667 263.8933333333333 186.24 302.5066666666666 255.1466666666667 302.5066666666666C352 302.5066666666666 431.1466666666667 227.6266666666666 431.1466666666667 135.4666666666666C431.1466666666667 100.9066666666666 401.7066666666667 72.7466666666666 365.4400000000001 72.7466666666666C329.1733333333334 72.7466666666666 299.7333333333334 100.9066666666666 299.7333333333334 135.4666666666666C299.7333333333334 158.2933333333333 279.8933333333334 176.8533333333333 255.3600000000001 176.8533333333333S210.9866666666667 158.2933333333333 210.9866666666667 135.4666666666666C210.9866666666667 98.9866666666666 225.0666666666667 64.8533333333332 250.88 39.2533333333333C271.1466666666667 19.1999999999999 290.56 8.1066666666666 320.64 -1e-13C326.4 -1.7066666666667 329.6 -7.6800000000001 328.1066666666667 -13.2266666666667C327.04 -18.1333333333334 322.56 -21.3333333333334 318.08 -21.3333333333334z" /></svg>