<?xml version="1.0" encoding="UTF-8"?><!DOCTYPE svg PUBLIC "-//W3C//DTD SVG 1.1//EN" "http://www.w3.org/Graphics/SVG/1.1/DTD/svg11.dtd"><svg xmlns="http://www.w3.org/2000/svg" xmlns:xlink="http://www.w3.org/1999/xlink" version="1.1" width="512" height="512" viewBox="0 0 512 512">    <path fill="#ffffff" transform="scale(1, -1) translate(0, -448)" glyph-name="language-go" unicode="&#xF7D2;" horiz-adv-x="512" d=" M56.32 227.6266666666667L55.8933333333333 228.9066666666667L60.5866666666667 234.6666666666667L63.1466666666667 236.3733333333334H145.0666666666667L145.7066666666667 234.6666666666667L141.8666666666667 229.12L139.52 227.84L56.32 227.6266666666667M21.9733333333333 206.72L21.3333333333333 207.7866666666667L26.0266666666667 213.9733333333333L28.5866666666667 215.2533333333333H133.12L134.1866666666667 213.3333333333334L132.48 208.2133333333334L130.3466666666667 206.72H21.9733333333333M77.44 185.6L76.5866666666667 186.88L80 192.8533333333333L82.1333333333333 194.1333333333333H128L129.4933333333334 192.64L129.0666666666667 187.3066666666667L127.36 185.6H77.44M315.3066666666667 231.68L277.3333333333334 221.6533333333333C273.2800000000001 220.8 273.0666666666667 220.5866666666667 270.0800000000001 224C266.6666666666667 227.84 264.3200000000001 230.1866666666666 259.4133333333334 232.5333333333333C245.3333333333334 239.7866666666667 231.04 237.6533333333333 218.0266666666667 229.3333333333333C202.6666666666667 219.0933333333333 194.3466666666667 204.3733333333333 194.5600000000001 185.6C194.7733333333334 167.2533333333333 207.3600000000001 152.1066666666667 225.4933333333334 149.3333333333334C241.0666666666667 147.4133333333334 254.0800000000001 152.96 264.5333333333334 164.6933333333334L270.7200000000001 173.0133333333334H226.56C221.8666666666667 173.0133333333334 220.8 176.0000000000001 222.2933333333334 179.84L234.0266666666667 205.0133333333334C234.6666666666667 206.2933333333334 236.3733333333334 208.6400000000001 239.7866666666667 208.6400000000001H313.1733333333334C316.3733333333334 219.3066666666667 321.92 229.1200000000001 329.1733333333334 238.7200000000001C345.8133333333334 260.6933333333334 366.08 272.2133333333334 393.1733333333333 277.3333333333334C416 281.1733333333334 438.6133333333333 278.8266666666667 458.6666666666666 265.1733333333334C476.5866666666666 252.8000000000001 487.8933333333333 236.1600000000001 490.6666666666666 214.1866666666667C494.72 183.2533333333334 485.5466666666667 158.0800000000001 464.2133333333334 136.3200000000001C449.0666666666667 120.96 430.5066666666667 111.36 409.3866666666667 106.6666666666667L391.04 104.96C370.1333333333334 105.3866666666667 351.1466666666667 111.3600000000001 335.1466666666667 125.2266666666667C324.0533333333334 134.8266666666667 316.3733333333334 146.3466666666667 312.5333333333333 160C309.3333333333333 154.88 306.7733333333333 149.9733333333334 303.1466666666667 145.0666666666667C286.7200000000001 123.3066666666667 265.1733333333334 109.8666666666667 237.8666666666667 106.6666666666667C215.4666666666667 103.2533333333333 194.56 107.7333333333334 176.2133333333333 121.3866666666667C159.36 134.1866666666667 149.3333333333333 151.2533333333333 147.2 172.3733333333333C144.2133333333333 197.3333333333334 151.4666666666667 219.7333333333334 166.6133333333333 239.36C182.8266666666667 260.6933333333334 204.3733333333333 274.1333333333334 230.8266666666667 279.04C252.16 282.88 272.8533333333334 280.3200000000001 291.4133333333333 267.9466666666667C303.5733333333333 259.8400000000001 312.1066666666667 248.7466666666667 317.8666666666667 235.5200000000001C318.72 233.6 317.8666666666667 232.32 315.3066666666667 231.6800000000001M445.6533333333333 197.5466666666667L445.0133333333333 205.2266666666667C440.9599999999999 227.8400000000001 420.0533333333333 240.6400000000001 398.2933333333333 235.7333333333334C376.7466666666666 231.04 362.6666666666667 217.6 358.1866666666666 196.0533333333334C354.1333333333333 178.1333333333334 362.6666666666667 160.0000000000001 379.0933333333333 152.7466666666667C391.68 147.2000000000001 404.48 148.0533333333334 416.64 154.0266666666668C434.56 163.2000000000001 444.5866666666667 177.9200000000001 445.6533333333333 197.5466666666667z" /></svg>