<?xml version="1.0" encoding="UTF-8"?><!DOCTYPE svg PUBLIC "-//W3C//DTD SVG 1.1//EN" "http://www.w3.org/Graphics/SVG/1.1/DTD/svg11.dtd"><svg xmlns="http://www.w3.org/2000/svg" xmlns:xlink="http://www.w3.org/1999/xlink" version="1.1" width="512" height="512" viewBox="0 0 512 512">    <path fill="#ffffff" transform="scale(1, -1) translate(0, -448)" glyph-name="watch-export-variant" unicode="&#xF894;" horiz-adv-x="512" d=" M298.6666666666667 213.3333333333334H405.3333333333333L352 266.6666666666667L382.2933333333334 296.9600000000001L487.2533333333333 192L382.2933333333334 87.04L352 117.3333333333333L405.3333333333333 170.6666666666667H298.6666666666667V213.3333333333334M170.6666666666667 448H341.3333333333333L359.04 341.3333333333334H362.6666666666667C368.64 341.3333333333334 374.1866666666666 340.0533333333334 379.3066666666667 337.92L340.0533333333333 298.6666666666667H149.3333333333333V85.3333333333334H340.0533333333333L379.3066666666667 46.08C374.1866666666667 43.9466666666667 368.64 42.6666666666667 362.6666666666667 42.6666666666667H359.04L341.3333333333333 -64H170.6666666666667L152.96 42.6666666666667H149.3333333333333C125.8666666666667 42.6666666666667 106.6666666666667 61.8666666666667 106.6666666666667 85.3333333333334V298.6666666666667C106.6666666666667 322.3466666666667 125.8666666666667 341.3333333333334 149.3333333333333 341.3333333333334H152.96L170.6666666666667 448z" /></svg>