<?xml version="1.0" encoding="UTF-8"?><!DOCTYPE svg PUBLIC "-//W3C//DTD SVG 1.1//EN" "http://www.w3.org/Graphics/SVG/1.1/DTD/svg11.dtd"><svg xmlns="http://www.w3.org/2000/svg" xmlns:xlink="http://www.w3.org/1999/xlink" version="1.1" width="512" height="512" viewBox="0 0 512 512">    <path fill="#ffffff" transform="scale(1, -1) translate(0, -448)" glyph-name="air-conditioner" unicode="&#xF01B;" horiz-adv-x="512" d=" M140.5866666666667 433.92C190.5066666666667 472.5333333333333 244.6933333333333 425.3866666666667 256.8533333333333 352C266.0266666666667 352 274.9866666666666 349.44 283.0933333333333 344.7466666666667C294.1866666666666 357.5466666666667 304 375.04 300.16 394.6666666666667C291.2 440.5333333333333 342.6133333333333 477.6533333333333 391.4666666666667 414.2933333333334C430.08 364.3733333333334 382.9333333333334 310.1866666666667 309.3333333333334 298.0266666666667C309.3333333333334 288.8533333333334 306.9866666666667 279.68 302.0800000000001 271.5733333333334C314.88 260.6933333333334 332.3733333333334 250.88 352 254.7200000000001C397.44 263.6800000000001 434.7733333333333 212.48 371.4133333333333 163.4133333333334C321.4933333333334 124.8 267.3066666666667 171.9466666666667 255.1466666666667 245.3333333333334C245.9733333333334 245.3333333333334 237.0133333333334 248.1066666666667 229.12 252.8C218.0266666666667 240 208 222.2933333333334 211.84 202.6666666666667C220.8 157.0133333333333 169.3866666666667 119.68 120.5333333333333 183.04C81.7066666666667 233.1733333333334 129.0666666666667 287.36 202.6666666666667 299.3066666666667C202.6666666666667 308.48 205.44 317.44 210.1333333333333 325.5466666666667C197.3333333333333 336.4266666666667 179.84 346.4533333333334 160 342.6133333333334C114.56 333.6533333333333 77.2266666666667 384.8533333333334 140.5866666666667 433.92M106.6666666666667 106.6666666666667H149.3333333333333C172.8 106.6666666666667 192 87.4666666666667 192 64V-64H149.3333333333333V-21.3333333333333H106.6666666666667V-64H64V64C64 87.4666666666667 83.2 106.6666666666667 106.6666666666667 106.6666666666667M106.6666666666667 64V21.3333333333334H149.3333333333333V64H106.6666666666667M275.84 106.6666666666667H320L257.4933333333334 -64H213.3333333333333L275.84 106.6666666666667M384 106.6666666666667H448V64H384V-21.3333333333333H448V-64H384C360.5333333333333 -64 341.3333333333333 -44.8 341.3333333333333 -21.3333333333333V64C341.3333333333333 87.4666666666667 360.5333333333333 106.6666666666667 384 106.6666666666667z" /></svg>