<?xml version="1.0" encoding="UTF-8"?><!DOCTYPE svg PUBLIC "-//W3C//DTD SVG 1.1//EN" "http://www.w3.org/Graphics/SVG/1.1/DTD/svg11.dtd"><svg xmlns="http://www.w3.org/2000/svg" xmlns:xlink="http://www.w3.org/1999/xlink" version="1.1" width="512" height="512" viewBox="0 0 512 512">    <path fill="#ffffff" transform="scale(1, -1) translate(0, -448)" glyph-name="gatsby" unicode="&#xFE26;" horiz-adv-x="512" d=" M256 405.3333333333333C373.76 405.3333333333333 469.3333333333333 309.76 469.3333333333333 192S373.76 -21.3333333333333 256 -21.3333333333333S42.6666666666667 74.24 42.6666666666667 192S138.24 405.3333333333333 256 405.3333333333333M256 362.6666666666667C176.4266666666667 362.6666666666667 109.6533333333333 308.2666666666667 90.6666666666667 234.6666666666667L298.6666666666667 26.6666666666667C372.2666666666667 45.6533333333334 426.6666666666667 112.4266666666667 426.6666666666667 192H314.6666666666667V160H388.2666666666667C377.8133333333334 116.48 346.4533333333333 81.28 305.28 65.28L129.28 241.2800000000001C149.3333333333333 292.0533333333334 198.4 327.8933333333333 256 327.8933333333333C301.44 327.8933333333333 341.3333333333333 305.7066666666667 366.5066666666667 271.36L392.7466666666667 293.9733333333334C361.6 335.7866666666667 312.1066666666667 362.6666666666667 256 362.6666666666667M85.3333333333333 192C85.3333333333333 97.7066666666667 161.7066666666667 21.3333333333334 256 21.3333333333334C256.8533333333333 21.3333333333334 257.92 21.3333333333334 85.3333333333333 192z" /></svg>