<?xml version="1.0" encoding="UTF-8"?><!DOCTYPE svg PUBLIC "-//W3C//DTD SVG 1.1//EN" "http://www.w3.org/Graphics/SVG/1.1/DTD/svg11.dtd"><svg xmlns="http://www.w3.org/2000/svg" xmlns:xlink="http://www.w3.org/1999/xlink" version="1.1" width="512" height="512" viewBox="0 0 512 512">    <path fill="#ffffff" transform="scale(1, -1) translate(0, -448)" glyph-name="weather-hurricane" unicode="&#xF897;" horiz-adv-x="512" d=" M320 303.1466666666667C359.68 280.32 384 237.8666666666667 384 192C384 -21.3333333333333 128 -21.3333333333333 128 -21.3333333333333C154.6666666666667 -1.28 178.7733333333333 22.4 199.2533333333333 48.8533333333334C200.1066666666666 49.92 200.7466666666667 50.9866666666667 201.3866666666667 52.2666666666667C206.72 62.72 202.6666666666667 75.52 192 80.8533333333334C152.32 103.68 128 146.1333333333333 128 192C128 405.3333333333333 384 405.3333333333333 384 405.3333333333333C357.3333333333333 385.28 333.2266666666667 361.6 312.7466666666667 335.1466666666667C311.8933333333333 334.0800000000001 311.2533333333334 333.0133333333333 310.6133333333334 331.7333333333334C305.28 321.28 309.3333333333333 308.48 320 303.1466666666667M256 149.3333333333334C279.4666666666667 149.3333333333334 298.6666666666667 168.5333333333334 298.6666666666667 192S279.4666666666667 234.6666666666667 256 234.6666666666667S213.3333333333333 215.4666666666667 213.3333333333333 192S232.5333333333334 149.3333333333334 256 149.3333333333334z" /></svg>