<?xml version="1.0" encoding="UTF-8"?><!DOCTYPE svg PUBLIC "-//W3C//DTD SVG 1.1//EN" "http://www.w3.org/Graphics/SVG/1.1/DTD/svg11.dtd"><svg xmlns="http://www.w3.org/2000/svg" xmlns:xlink="http://www.w3.org/1999/xlink" version="1.1" width="512" height="512" viewBox="0 0 512 512">    <path fill="#ffffff" transform="scale(1, -1) translate(0, -448)" glyph-name="seat-recline-normal" unicode="&#xF482;" horiz-adv-x="512" d=" M161.92 332.5866666666667C145.28 349.2266666666667 145.28 376.32 161.92 392.96C178.56 409.6 205.6533333333333 409.6 222.2933333333333 392.96C238.9333333333333 376.32 238.9333333333333 349.2266666666667 222.2933333333333 332.5866666666667C205.44 315.7333333333334 178.56 315.7333333333334 161.92 332.5866666666667M128 106.6666666666667V298.6666666666667H85.3333333333333V106.6666666666667C85.3333333333333 47.7866666666668 133.12 0 192 0H320V42.6666666666667H192C156.5866666666667 42.6666666666667 128 71.2533333333333 128 106.6666666666667M426.6666666666667 19.84L318.5066666666667 128H245.3333333333333V206.5066666666667C275.2 181.9733333333334 322.1333333333334 160 362.6666666666667 160V206.5066666666667C327.2533333333334 206.08 285.6533333333333 225.0666666666667 263.04 250.0266666666667L233.1733333333333 283.0933333333333C229.12 288 224 291.2 218.4533333333333 293.76C212.2666666666667 296.7466666666667 205.2266666666667 298.6666666666667 197.9733333333334 298.6666666666667H197.3333333333334C170.6666666666667 298.6666666666667 149.3333333333333 277.3333333333334 149.3333333333333 250.6666666666667V128C149.3333333333333 92.5866666666667 177.92 64 213.3333333333333 64H321.4933333333334L396.16 -10.6666666666666" /></svg>