<?xml version="1.0" encoding="UTF-8"?><!DOCTYPE svg PUBLIC "-//W3C//DTD SVG 1.1//EN" "http://www.w3.org/Graphics/SVG/1.1/DTD/svg11.dtd"><svg xmlns="http://www.w3.org/2000/svg" xmlns:xlink="http://www.w3.org/1999/xlink" version="1.1" width="512" height="512" viewBox="0 0 512 512">    <path fill="#ffffff" transform="scale(1, -1) translate(0, -448)" glyph-name="boombox" unicode="&#xF5DC;" horiz-adv-x="512" d=" M149.3333333333333 341.3333333333334L106.6666666666667 298.6666666666667V277.3333333333334H64C52.2666666666667 277.3333333333334 42.6666666666667 267.7333333333334 42.6666666666667 256V85.3333333333334C42.6666666666667 73.6 52.2666666666667 64 64 64H448C459.7333333333333 64 469.3333333333333 73.6 469.3333333333333 85.3333333333334V256C469.3333333333333 267.7333333333334 459.7333333333333 277.3333333333334 448 277.3333333333334H405.3333333333333V298.6666666666667L362.6666666666667 341.3333333333334H149.3333333333333M149.3333333333333 298.6666666666667H362.6666666666667V277.3333333333334H149.3333333333333V298.6666666666667M234.6666666666667 256H277.3333333333333C283.3066666666666 256 288 251.3066666666667 288 245.3333333333334S283.3066666666666 234.6666666666667 277.3333333333333 234.6666666666667H234.6666666666667C228.6933333333334 234.6666666666667 224 239.36 224 245.3333333333334S228.6933333333334 256 234.6666666666667 256M160 224C195.4133333333333 224 224 195.4133333333334 224 160S195.4133333333333 96 160 96S96 124.5866666666667 96 160S124.5866666666667 224 160 224M352 224C387.4133333333333 224 416 195.4133333333334 416 160S387.4133333333333 96 352 96S288 124.5866666666667 288 160S316.5866666666667 224 352 224M160 192C142.2933333333333 192 128 177.7066666666667 128 160S142.2933333333333 128 160 128S192 142.2933333333334 192 160S177.7066666666667 192 160 192M352 192C334.2933333333333 192 320 177.7066666666667 320 160S334.2933333333333 128 352 128S384 142.2933333333334 384 160S369.7066666666666 192 352 192z" /></svg>