<?xml version="1.0" encoding="UTF-8"?><!DOCTYPE svg PUBLIC "-//W3C//DTD SVG 1.1//EN" "http://www.w3.org/Graphics/SVG/1.1/DTD/svg11.dtd"><svg xmlns="http://www.w3.org/2000/svg" xmlns:xlink="http://www.w3.org/1999/xlink" version="1.1" width="512" height="512" viewBox="0 0 512 512">    <path fill="#ffffff" transform="scale(1, -1) translate(0, -448)" glyph-name="table-edit" unicode="&#xF4F0;" horiz-adv-x="512" d=" M462.9333333333333 163.2000000000001L441.6 141.8666666666667L397.8666666666666 185.6L419.2 206.9333333333333C423.68 211.6266666666667 431.1466666666666 211.6266666666667 435.6266666666666 206.9333333333333L462.9333333333333 179.6266666666667C467.6266666666666 175.1466666666667 467.6266666666666 167.68 462.9333333333333 163.2000000000001M256 43.9466666666667L385.4933333333334 173.2266666666666L429.2266666666667 129.4933333333333L299.9466666666667 0H256V43.9466666666667M85.3333333333333 405.3333333333333H384C407.4666666666667 405.3333333333333 426.6666666666667 386.1333333333334 426.6666666666667 362.6666666666667V273.7066666666667L344.9600000000001 192H256V103.04L216.96 64H85.3333333333333C61.8666666666667 64 42.6666666666667 83.2 42.6666666666667 106.6666666666667V362.6666666666667C42.6666666666667 386.1333333333334 61.8666666666667 405.3333333333333 85.3333333333333 405.3333333333333M85.3333333333333 320V234.6666666666667H213.3333333333333V320H85.3333333333333M256 320V234.6666666666667H384V320H256M85.3333333333333 192V106.6666666666667H213.3333333333333V192H85.3333333333333z" /></svg>