<?xml version="1.0" encoding="UTF-8"?><!DOCTYPE svg PUBLIC "-//W3C//DTD SVG 1.1//EN" "http://www.w3.org/Graphics/SVG/1.1/DTD/svg11.dtd"><svg xmlns="http://www.w3.org/2000/svg" xmlns:xlink="http://www.w3.org/1999/xlink" version="1.1" width="512" height="512" viewBox="0 0 512 512">    <path fill="#ffffff" transform="scale(1, -1) translate(0, -448)" glyph-name="camera-iris" unicode="&#xF104;" horiz-adv-x="512" d=" M292.9066666666667 128L209.7066666666667 -16.2133333333333C224.64 -19.4133333333332 240 -21.3333333333333 256 -21.3333333333333C307.2 -21.3333333333333 354.1333333333334 -3.1999999999999 390.8266666666667 26.6666666666667L312.7466666666667 162.1333333333335M52.48 128C72.1066666666667 65.7066666666667 119.68 15.7866666666667 180.2666666666667 -7.2533333333333L258.56 128M182.1866666666667 192L98.9866666666666 336C64 298.6666666666667 42.6666666666667 247.68 42.6666666666667 192C42.6666666666667 177.4933333333334 44.16 163.2000000000001 46.9333333333333 149.3333333333334H206.72M465.0666666666667 234.6666666666667H305.28L311.4666666666667 224L413.0133333333333 48C448 85.9733333333334 469.3333333333333 136.5333333333334 469.3333333333333 192C469.3333333333333 206.72 467.84 221.0133333333333 465.0666666666667 234.6666666666667M459.52 256C439.8933333333333 318.5066666666667 392.32 368.2133333333334 331.7333333333333 391.2533333333334L253.44 256M200.5333333333333 224L302.2933333333333 400.2133333333333C287.36 403.4133333333334 272 405.3333333333333 256 405.3333333333333C204.8 405.3333333333333 157.8666666666667 387.4133333333334 121.1733333333333 357.3333333333334L199.2533333333333 221.8666666666667L200.5333333333333 224z" /></svg>