<?xml version="1.0" encoding="UTF-8"?><!DOCTYPE svg PUBLIC "-//W3C//DTD SVG 1.1//EN" "http://www.w3.org/Graphics/SVG/1.1/DTD/svg11.dtd"><svg xmlns="http://www.w3.org/2000/svg" xmlns:xlink="http://www.w3.org/1999/xlink" version="1.1" width="512" height="512" viewBox="0 0 512 512">    <path fill="#ffffff" transform="scale(1, -1) translate(0, -448)" glyph-name="emoticon-excited-outline" unicode="&#xF69B;" horiz-adv-x="512" d=" M256 405.3333333333333C138.0266666666667 405.3333333333333 42.6666666666667 309.9733333333334 42.6666666666667 192S138.0266666666667 -21.3333333333333 256 -21.3333333333333C373.76 -21.3333333333333 469.3333333333333 74.24 469.3333333333333 192C469.3333333333333 309.9733333333334 373.3333333333333 405.3333333333333 256 405.3333333333333M256 21.3333333333334C161.7066666666667 21.3333333333334 85.3333333333333 97.7066666666667 85.3333333333333 192S161.7066666666667 362.6666666666667 256 362.6666666666667S426.6666666666667 286.2933333333334 426.6666666666667 192S350.2933333333334 21.3333333333334 256 21.3333333333334M277.3333333333333 235.9466666666667L299.9466666666667 213.3333333333334L322.56 235.9466666666667L345.1733333333333 213.3333333333334L367.7866666666667 235.9466666666667L322.56 281.1733333333334L277.3333333333333 235.9466666666667M189.44 235.9466666666667L212.0533333333333 213.3333333333334L234.6666666666667 235.9466666666667L189.44 281.1733333333334L144.2133333333333 235.9466666666667L166.8266666666667 213.3333333333334L189.44 235.9466666666667M256 74.6666666666667C305.7066666666667 74.6666666666667 347.9466666666666 105.8133333333334 365.0133333333333 149.3333333333334H146.9866666666667C164.0533333333333 105.8133333333334 206.2933333333333 74.6666666666667 256 74.6666666666667z" /></svg>