<?xml version="1.0" encoding="UTF-8"?><!DOCTYPE svg PUBLIC "-//W3C//DTD SVG 1.1//EN" "http://www.w3.org/Graphics/SVG/1.1/DTD/svg11.dtd"><svg xmlns="http://www.w3.org/2000/svg" xmlns:xlink="http://www.w3.org/1999/xlink" version="1.1" width="512" height="512" viewBox="0 0 512 512">    <path fill="#ffffff" transform="scale(1, -1) translate(0, -448)" glyph-name="earth" unicode="&#xF1E7;" horiz-adv-x="512" d=" M381.8666666666666 77.0133333333333C376.32 94.08 360.32 106.6666666666667 341.3333333333333 106.6666666666667H320V170.6666666666667C320 182.4 310.4 192 298.6666666666667 192H170.6666666666667V234.6666666666667H213.3333333333333C225.0666666666667 234.6666666666667 234.6666666666667 244.2666666666667 234.6666666666667 256V298.6666666666667H277.3333333333333C300.8 298.6666666666667 320 317.8666666666667 320 341.3333333333334V350.0800000000001C382.5066666666667 324.9066666666667 426.6666666666667 263.68 426.6666666666667 192C426.6666666666667 147.6266666666667 409.6 107.3066666666667 381.8666666666666 77.0133333333333M234.6666666666667 22.8266666666667C150.4 33.28 85.3333333333333 104.96 85.3333333333333 192C85.3333333333333 205.2266666666667 87.04 218.0266666666667 89.8133333333333 230.1866666666667L192 128V106.6666666666667C192 83.2 211.2 64 234.6666666666667 64M256 405.3333333333333C138.24 405.3333333333333 42.6666666666667 309.76 42.6666666666667 192S138.24 -21.3333333333333 256 -21.3333333333333S469.3333333333333 74.24 469.3333333333333 192S373.76 405.3333333333333 256 405.3333333333333z" /></svg>