<?xml version="1.0" encoding="UTF-8"?><!DOCTYPE svg PUBLIC "-//W3C//DTD SVG 1.1//EN" "http://www.w3.org/Graphics/SVG/1.1/DTD/svg11.dtd"><svg xmlns="http://www.w3.org/2000/svg" xmlns:xlink="http://www.w3.org/1999/xlink" version="1.1" width="512" height="512" viewBox="0 0 512 512">    <path fill="#ffffff" transform="scale(1, -1) translate(0, -448)" glyph-name="pencil-off-outline" unicode="&#xFDC6;" horiz-adv-x="512" d=" M213.3333333333333 230.4000000000001L298.6666666666667 315.7333333333334L379.7333333333334 234.6666666666667L294.4 149.3333333333334L264.5333333333333 179.2000000000001L320 236.8L300.8 256L245.3333333333333 200.5333333333334L213.3333333333333 230.4000000000001M441.6 328.5333333333334L392.5333333333333 377.6C388.2666666666667 381.8666666666667 381.8666666666666 384 377.6 384C373.3333333333333 384 366.9333333333333 381.8666666666667 362.6666666666667 377.6L324.2666666666667 339.2000000000001L405.3333333333333 258.1333333333334L441.6 298.6666666666667C450.1333333333333 305.0666666666667 450.1333333333333 320 441.6 328.5333333333334M405.3333333333333 -14.9333333333333L377.6 -42.6666666666666L238.9333333333333 96L145.0666666666667 0H64V81.0666666666667L160 177.0666666666667L21.3333333333333 313.6L49.0666666666667 341.3333333333334L405.3333333333333 -14.9333333333333M209.0666666666667 125.8666666666667L189.8666666666667 145.0666666666667L106.6666666666667 61.8666666666667V42.6666666666667H125.8666666666667L209.0666666666667 125.8666666666667z" /></svg>