<?xml version="1.0" encoding="UTF-8"?><!DOCTYPE svg PUBLIC "-//W3C//DTD SVG 1.1//EN" "http://www.w3.org/Graphics/SVG/1.1/DTD/svg11.dtd"><svg xmlns="http://www.w3.org/2000/svg" xmlns:xlink="http://www.w3.org/1999/xlink" version="1.1" width="512" height="512" viewBox="0 0 512 512">    <path fill="#ffffff" transform="scale(1, -1) translate(0, -448)" glyph-name="eslint" unicode="&#xFC56;" horiz-adv-x="512" d=" M169.6 244.2666666666667L252.5866666666667 292.2666666666667C254.72 293.3333333333333 257.28 293.3333333333333 259.4133333333333 292.2666666666667L342.4 244.2666666666667C344.5333333333334 242.9866666666667 345.8133333333334 240.8533333333333 345.8133333333334 238.5066666666667V142.5066666666667C345.8133333333334 140.16 344.5333333333334 138.0266666666667 342.4 136.7466666666667L259.4133333333333 88.7466666666667C257.28 87.68 254.72 87.68 252.5866666666667 88.7466666666667L169.6 136.7466666666667C167.4666666666667 138.0266666666667 166.1866666666667 140.16 166.1866666666667 142.5066666666667V238.5066666666667C166.1866666666667 240.8533333333333 167.4666666666667 242.9866666666667 169.6 244.2666666666667M471.8933333333333 200.5333333333333C475.52 194.3466666666667 475.52 187.0933333333333 471.8933333333333 180.6933333333333L372.6933333333333 9.3866666666667C369.0666666666666 2.9866666666666 362.6666666666667 -1e-13 355.2 -1e-13H156.8C149.3333333333333 -1e-13 142.9333333333333 3.1999999999999 139.3066666666666 9.3866666666667L40.1066666666666 180.6933333333333C36.4799999999999 186.88 36.4799999999999 194.7733333333333 40.1066666666666 200.9599999999999L139.3066666666667 373.3333333333334C142.9333333333333 379.3066666666667 149.3333333333333 384 156.8 384H355.2000000000001C362.6666666666668 384 369.0666666666667 379.3066666666667 372.6933333333334 373.3333333333334L471.8933333333334 200.5333333333334M389.7600000000001 117.3333333333334V263.4666666666667C389.7600000000001 266.0266666666667 388.2666666666667 268.3733333333334 385.9200000000001 269.6533333333333L259.4133333333334 342.4C257.2800000000001 343.68 254.5066666666667 343.68 252.3733333333334 342.4L126.08 269.6533333333334C123.7333333333333 268.3733333333334 122.24 266.0266666666667 122.24 263.4666666666667V117.3333333333334C122.24 114.9866666666667 123.7333333333334 112.6400000000001 126.08 111.3600000000001L252.5866666666667 38.6133333333334C254.72 37.3333333333334 257.4933333333334 37.3333333333334 259.6266666666667 38.6133333333334L385.92 111.3600000000001C388.2666666666667 112.6400000000001 389.76 114.9866666666667 389.76 117.3333333333334z" /></svg>