<?xml version="1.0" encoding="UTF-8"?><!DOCTYPE svg PUBLIC "-//W3C//DTD SVG 1.1//EN" "http://www.w3.org/Graphics/SVG/1.1/DTD/svg11.dtd"><svg xmlns="http://www.w3.org/2000/svg" xmlns:xlink="http://www.w3.org/1999/xlink" version="1.1" width="512" height="512" viewBox="0 0 512 512">    <path fill="#ffffff" transform="scale(1, -1) translate(0, -448)" glyph-name="account-details" unicode="&#xF631;" horiz-adv-x="512" d=" M160 128C184.1066666666666 128 209.4933333333334 122.4533333333334 236.5866666666667 111.5733333333334C263.4666666666667 100.48 277.3333333333333 86.4 277.3333333333333 68.9066666666667V21.3333333333334H42.6666666666667V68.9066666666667C42.6666666666667 86.4 56.5333333333333 100.48 83.4133333333333 111.5733333333334C110.5066666666667 122.4533333333334 136.1066666666667 128 160 128M277.3333333333333 170.6666666666667H469.3333333333333V128H277.3333333333333V170.6666666666667M277.3333333333333 256H469.3333333333333V213.3333333333334H277.3333333333333V256M277.3333333333333 341.3333333333334H469.3333333333333V298.6666666666667H277.3333333333333V341.3333333333334M160 277.3333333333334C189.44 277.3333333333334 213.3333333333333 253.4400000000001 213.3333333333333 224S189.44 170.6666666666667 160 170.6666666666667S106.6666666666667 194.56 106.6666666666667 224S130.56 277.3333333333334 160 277.3333333333334z" /></svg>