<?xml version="1.0" encoding="UTF-8"?><!DOCTYPE svg PUBLIC "-//W3C//DTD SVG 1.1//EN" "http://www.w3.org/Graphics/SVG/1.1/DTD/svg11.dtd"><svg xmlns="http://www.w3.org/2000/svg" xmlns:xlink="http://www.w3.org/1999/xlink" version="1.1" width="512" height="512" viewBox="0 0 512 512">    <path fill="#ffffff" transform="scale(1, -1) translate(0, -448)" glyph-name="chess-bishop" unicode="&#xF85B;" horiz-adv-x="512" d=" M405.3333333333333 -21.3333333333333H106.6666666666667V21.3333333333334H405.3333333333333V-21.3333333333333M366.08 271.7866666666667C388.6933333333333 242.5600000000001 402.3466666666667 207.36 405.3333333333333 170.6666666666667C405.3333333333333 111.7866666666667 338.56 64 256 64S106.6666666666667 111.7866666666667 106.6666666666667 170.6666666666667C106.6666666666667 221.44 156.3733333333333 311.68 223.1466666666667 335.5733333333334C216.7466666666667 343.2533333333334 213.3333333333333 352.8533333333334 213.3333333333333 362.6666666666667C213.3333333333333 386.1333333333334 232.5333333333334 405.3333333333334 256 405.3333333333334S298.6666666666667 386.1333333333334 298.6666666666667 362.6666666666667C298.6666666666667 352.8533333333334 295.2533333333334 343.2533333333334 288.8533333333333 335.5733333333334C307.2 328.5333333333334 323.84 317.8666666666667 337.92 304.2133333333334L240.8533333333333 207.1466666666667L271.1466666666667 176.8533333333334L366.08 271.7866666666668z" /></svg>