<?xml version="1.0" encoding="UTF-8"?><!DOCTYPE svg PUBLIC "-//W3C//DTD SVG 1.1//EN" "http://www.w3.org/Graphics/SVG/1.1/DTD/svg11.dtd"><svg xmlns="http://www.w3.org/2000/svg" xmlns:xlink="http://www.w3.org/1999/xlink" version="1.1" width="512" height="512" viewBox="0 0 512 512">    <path fill="#ffffff" transform="scale(1, -1) translate(0, -448)" glyph-name="saxophone" unicode="&#xF609;" horiz-adv-x="512" d=" M85.3333333333333 405.3333333333333C73.6 405.3333333333333 64 395.7333333333334 64 384S73.6 362.6666666666667 85.3333333333333 362.6666666666667C120.7466666666667 362.6666666666667 149.3333333333333 334.0800000000001 149.3333333333333 298.6666666666667V117.3333333333334C149.3333333333333 40.5333333333333 211.2 -21.3333333333333 288 -21.3333333333333S426.6666666666667 40.5333333333333 426.6666666666667 117.3333333333334V170.6666666666667C438.4 170.6666666666667 448 180.2666666666667 448 192S438.4 213.3333333333334 426.6666666666667 213.3333333333334H298.6666666666667C286.9333333333333 213.3333333333334 277.3333333333333 203.7333333333334 277.3333333333333 192S286.9333333333333 170.6666666666667 298.6666666666667 170.6666666666667V128C298.6666666666667 116.2666666666667 289.0666666666667 106.6666666666667 277.3333333333333 106.6666666666667S256 116.2666666666667 256 128V213.3333333333334C267.7333333333334 213.3333333333334 277.3333333333333 222.9333333333333 277.3333333333333 234.6666666666667S267.7333333333334 256 256 256V277.3333333333334C267.7333333333334 277.3333333333334 277.3333333333333 286.9333333333334 277.3333333333333 298.6666666666667S267.7333333333334 320 256 320V330.6666666666667C256 371.8400000000001 222.5066666666667 405.3333333333333 181.3333333333333 405.3333333333333H85.3333333333333z" /></svg>