<?xml version="1.0" encoding="UTF-8"?><!DOCTYPE svg PUBLIC "-//W3C//DTD SVG 1.1//EN" "http://www.w3.org/Graphics/SVG/1.1/DTD/svg11.dtd"><svg xmlns="http://www.w3.org/2000/svg" xmlns:xlink="http://www.w3.org/1999/xlink" version="1.1" width="512" height="512" viewBox="0 0 512 512">    <path fill="#ffffff" transform="scale(1, -1) translate(0, -448)" glyph-name="contactless-payment" unicode="&#xFD46;" horiz-adv-x="512" d=" M358.1866666666666 -42.6666666666666C349.2266666666666 -39.04 342.8266666666667 -30.9333333333333 341.3333333333333 -21.3333333333333C340.2666666666667 -15.7866666666666 341.3333333333333 -11.9466666666666 349.8666666666666 3.4133333333334C381.8666666666666 61.0133333333333 398.2933333333333 126.0800000000001 397.44 192C398.2933333333333 256 382.7199999999999 318.5066666666667 352 374.6133333333334C347.52 384 343.4666666666667 392.9600000000001 340.0533333333333 402.56C341.3333333333333 410.6666666666667 345.3866666666666 418.1333333333334 352 422.6133333333334C361.6 427.7333333333334 373.3333333333333 426.6666666666667 382.08 420.6933333333334C388.0533333333334 413.0133333333333 393.1733333333333 405.3333333333334 397.44 396.3733333333334C420.48 352 436.0533333333334 305.0666666666667 443.7333333333334 256C448.64 217.3866666666667 449.2800000000001 178.1333333333333 445.6533333333333 139.3066666666667C439.04 89.3866666666667 424.32 41.1733333333333 401.7066666666667 -3.84C388.0533333333334 -31.1466666666666 380.3733333333334 -42.6666666666666 372.2666666666667 -42.6666666666666H358.1866666666666M265.1733333333333 4.48C253.0133333333333 7.8933333333334 245.3333333333333 20.2666666666667 247.8933333333333 32.64C247.8933333333333 35.2 254.5066666666667 46.9333333333334 260.48 58.8800000000001C285.6533333333333 107.3066666666667 296.5333333333333 161.9200000000001 291.6266666666666 216.32C288.64 255.36 277.3333333333333 293.3333333333334 258.7733333333333 327.68C245.3333333333333 354.56 244.48 358.8266666666667 252.3733333333333 370.3466666666667C261.76 380.8 277.3333333333333 382.2933333333334 288.8533333333333 373.3333333333334C304.2133333333333 350.7200000000001 316.3733333333333 325.9733333333334 325.3333333333333 299.9466666666667C352.64 219.0933333333333 348.3733333333333 130.9866666666667 313.3866666666667 53.3333333333334C295.4666666666667 13.0133333333333 282.88 0 265.1733333333333 5.5466666666666V4.48M169.1733333333333 52.0533333333333C161.4933333333333 55.4666666666666 155.7333333333333 62.2933333333333 153.6 70.4C153.6 74.6666666666666 153.6 80.2133333333333 163.2 97.28C194.9866666666666 154.88 194.9866666666666 224.8533333333333 163.2 282.4533333333333C149.3333333333333 309.3333333333334 149.3333333333333 314.88 160.64 325.12C164.6933333333333 329.8133333333334 170.6666666666667 332.1600000000001 177.0666666666667 331.3066666666667C190.72 331.3066666666667 198.4 324.6933333333334 209.92 300.5866666666667C228.0533333333333 267.3066666666667 237.44 229.9733333333334 237.2266666666667 192C238.08 153.3866666666667 228.6933333333333 114.9866666666667 210.1333333333333 81.0666666666667C198.6133333333333 58.6666666666667 192.8533333333333 53.3333333333334 181.3333333333333 51.4133333333334C177.28 50.9866666666667 173.0133333333333 51.4133333333334 169.1733333333333 53.3333333333334V52.0533333333334M79.36 97.4933333333333C72.32 100.9066666666667 66.7733333333333 106.6666666666667 64 114.1333333333333C61.8666666666667 121.6 64 128 72.5333333333333 141.6533333333334C83.2 156.16 88.32 174.0800000000001 87.2533333333333 192C88.7466666666667 210.1333333333333 83.84 228.0533333333334 73.3866666666667 242.9866666666667C69.76 248.32 66.7733333333333 254.08 64 259.8400000000001C61.6533333333333 273.2800000000001 70.6133333333333 286.0800000000001 85.3333333333333 288.64C96.8533333333333 290.7733333333333 104.96 285.8666666666667 115.6266666666667 269.6533333333333C146.56 222.5066666666667 146.56 161.7066666666667 115.6266666666667 114.56C104.7466666666667 98.1333333333333 92.3733333333333 93.2266666666666 79.5733333333333 97.4933333333333H79.36z" /></svg>