<?xml version="1.0" encoding="UTF-8"?><!DOCTYPE svg PUBLIC "-//W3C//DTD SVG 1.1//EN" "http://www.w3.org/Graphics/SVG/1.1/DTD/svg11.dtd"><svg xmlns="http://www.w3.org/2000/svg" xmlns:xlink="http://www.w3.org/1999/xlink" version="1.1" width="512" height="512" viewBox="0 0 512 512">    <path fill="#ffffff" transform="scale(1, -1) translate(0, -448)" glyph-name="sprout-outline" unicode="&#xFE4A;" horiz-adv-x="512" d=" M490.6666666666666 360.5333333333334V398.9333333333334L452.2666666666667 403.2C450.1333333333333 403.2 437.3333333333333 405.3333333333334 416 405.3333333333334C328.5333333333333 405.3333333333334 264.5333333333333 379.7333333333334 228.2666666666667 334.9333333333334C200.5333333333333 352 162.1333333333333 362.6666666666667 117.3333333333333 362.6666666666667C96 362.6666666666667 81.0666666666667 360.5333333333334 81.0666666666667 360.5333333333334L40.5333333333333 354.1333333333334L42.6666666666667 317.8666666666667C44.8 253.8666666666667 76.8 132.2666666666667 187.7333333333334 132.2666666666667H192V59.7333333333334C110.9333333333333 49.0666666666667 42.6666666666667 21.3333333333334 42.6666666666667 21.3333333333334V-21.3333333333333H469.3333333333333V21.3333333333334S401.0666666666667 49.0666666666667 320 59.7333333333334V128C454.4 130.1333333333333 490.6666666666666 281.6 490.6666666666666 360.5333333333334M256 64H234.6666666666667V183.4666666666667S230.4 256 170.6666666666667 256C170.6666666666667 256 202.6666666666667 238.9333333333334 211.2 177.0666666666667C202.6666666666667 174.9333333333334 194.1333333333333 174.9333333333334 187.7333333333334 174.9333333333334C89.6 174.9333333333333 85.3333333333333 317.8666666666667 85.3333333333333 317.8666666666667S98.1333333333333 320 117.3333333333333 320C157.8666666666667 320 224 311.4666666666667 243.2 253.8666666666667C253.8666666666667 349.8666666666667 362.6666666666667 362.6666666666667 416 362.6666666666667C435.2 362.6666666666667 448 360.5333333333334 448 360.5333333333334S448 168.5333333333334 313.6 168.5333333333334H298.6666666666667C298.6666666666667 211.2 341.3333333333333 275.2000000000001 341.3333333333333 275.2000000000001C277.3333333333333 253.8666666666667 277.3333333333333 170.6666666666667 277.3333333333333 170.6666666666667V64H256z" /></svg>