<?xml version="1.0" encoding="UTF-8"?><!DOCTYPE svg PUBLIC "-//W3C//DTD SVG 1.1//EN" "http://www.w3.org/Graphics/SVG/1.1/DTD/svg11.dtd"><svg xmlns="http://www.w3.org/2000/svg" xmlns:xlink="http://www.w3.org/1999/xlink" version="1.1" width="512" height="512" viewBox="0 0 512 512">    <path fill="#ffffff" transform="scale(1, -1) translate(0, -448)" glyph-name="math-cos" unicode="&#xFC72;" horiz-adv-x="512" d=" M85.3333333333333 298.6666666666667C61.8666666666667 298.6666666666667 42.6666666666667 279.4666666666667 42.6666666666667 256V128C42.6666666666667 104.5333333333333 61.8666666666667 85.3333333333334 85.3333333333333 85.3333333333334H128C151.4666666666667 85.3333333333334 170.6666666666667 104.5333333333333 170.6666666666667 128V149.3333333333334H128V128H85.3333333333333V256H128V234.6666666666667H170.6666666666667V256C170.6666666666667 279.4666666666667 151.4666666666667 298.6666666666667 128 298.6666666666667H85.3333333333333M234.6666666666667 298.6666666666667C211.2 298.6666666666667 192 279.4666666666667 192 256V128C192 104.5333333333333 211.2 85.3333333333334 234.6666666666667 85.3333333333334H277.3333333333333C300.8 85.3333333333334 320 104.5333333333333 320 128V256C320 279.4666666666667 300.8 298.6666666666667 277.3333333333333 298.6666666666667H234.6666666666667M234.6666666666667 256H277.3333333333333V128H234.6666666666667V256M384 298.6666666666667C360.5333333333333 298.6666666666667 341.3333333333333 279.4666666666667 341.3333333333333 256V213.3333333333334C341.3333333333333 189.8666666666667 360.5333333333333 170.6666666666667 384 170.6666666666667H426.6666666666667V128H341.3333333333333V85.3333333333334H426.6666666666667C450.1333333333334 85.3333333333334 469.3333333333333 104.5333333333333 469.3333333333333 128V170.6666666666667C469.3333333333333 194.1333333333333 450.1333333333334 213.3333333333334 426.6666666666667 213.3333333333334H384V256H469.3333333333333V298.6666666666667H384z" /></svg>