<?xml version="1.0" encoding="UTF-8"?><!DOCTYPE svg PUBLIC "-//W3C//DTD SVG 1.1//EN" "http://www.w3.org/Graphics/SVG/1.1/DTD/svg11.dtd"><svg xmlns="http://www.w3.org/2000/svg" xmlns:xlink="http://www.w3.org/1999/xlink" version="1.1" width="512" height="512" viewBox="0 0 512 512">    <path fill="#ffffff" transform="scale(1, -1) translate(0, -448)" glyph-name="air-horn" unicode="&#xFD88;" horiz-adv-x="512" d=" M405.3333333333333 388.2666666666667V251.7333333333334C405.3333333333333 245.3333333333334 398.9333333333333 238.9333333333334 392.5333333333333 241.0666666666667C392.5333333333333 241.0666666666667 309.3333333333333 296.5333333333334 213.3333333333333 296.5333333333334V245.3333333333334H217.5999999999999C228.2666666666666 245.3333333333334 238.9333333333333 241.0666666666667 243.2 232.5333333333334L270.9333333333333 194.1333333333333C275.2 189.8666666666667 277.3333333333333 183.4666666666667 277.3333333333333 179.2000000000001V8.5333333333333C277.3333333333333 -6.4 262.4 -21.3333333333333 245.3333333333333 -21.3333333333333H138.6666666666666C121.6 -21.3333333333333 106.6666666666666 -8.5333333333333 106.6666666666666 8.5333333333333V179.2C106.6666666666666 185.6 108.8 189.8666666666667 113.0666666666666 194.1333333333333L140.8 232.5333333333333C147.1999999999999 241.0666666666667 155.7333333333333 245.3333333333333 166.4 245.3333333333333H170.6666666666667V277.3333333333334C162.1333333333333 266.6666666666667 149.3333333333333 260.2666666666667 136.5333333333333 260.2666666666667C108.8 260.2666666666667 85.3333333333333 288 85.3333333333333 320C85.3333333333333 352 108.8 379.7333333333334 136.5333333333333 379.7333333333334C149.3333333333333 377.6 162.1333333333333 371.2 170.6666666666667 362.6666666666667V392.5333333333333H213.3333333333333V341.3333333333334C309.3333333333333 341.3333333333334 392.5333333333333 396.8 392.5333333333333 396.8C398.9333333333333 398.9333333333334 405.3333333333333 394.6666666666667 405.3333333333333 388.2666666666667z" /></svg>