<?xml version="1.0" encoding="UTF-8"?><!DOCTYPE svg PUBLIC "-//W3C//DTD SVG 1.1//EN" "http://www.w3.org/Graphics/SVG/1.1/DTD/svg11.dtd"><svg xmlns="http://www.w3.org/2000/svg" xmlns:xlink="http://www.w3.org/1999/xlink" version="1.1" width="512" height="512" viewBox="0 0 512 512">    <path fill="#ffffff" transform="scale(1, -1) translate(0, -448)" glyph-name="opera" unicode="&#xF3CE;" horiz-adv-x="512" d=" M192.8533333333333 83.84C171.52 108.8 157.8666666666667 145.92 156.8 187.52V196.48C157.8666666666667 238.08 171.52 275.2 192.8533333333333 300.16C210.3466666666666 321.0666666666667 233.1733333333333 333.44 258.1333333333334 333.44C314.0266666666667 333.44 359.2533333333334 270.08 359.2533333333334 192C359.2533333333334 113.92 314.0266666666667 50.5600000000001 258.1333333333334 50.5600000000001C233.1733333333333 50.5600000000001 220.3733333333333 53.3333333333334 192.8533333333333 83.84M256.64 384H256C149.9733333333333 384 64 298.0266666666667 64 192C64 88.96 145.0666666666667 4.9066666666667 246.8266666666667 0H256C305.0666666666667 0 349.8666666666666 18.5600000000001 384 48.8533333333334C423.2533333333334 84.0533333333333 448 135.04 448 192S423.2533333333334 299.9466666666667 384 335.1466666666667C350.08 365.44 305.4933333333334 384 256.64 384z" /></svg>