<?xml version="1.0" encoding="UTF-8"?><!DOCTYPE svg PUBLIC "-//W3C//DTD SVG 1.1//EN" "http://www.w3.org/Graphics/SVG/1.1/DTD/svg11.dtd"><svg xmlns="http://www.w3.org/2000/svg" xmlns:xlink="http://www.w3.org/1999/xlink" version="1.1" width="512" height="512" viewBox="0 0 512 512">    <path fill="#ffffff" transform="scale(1, -1) translate(0, -448)" glyph-name="wifi" unicode="&#xF5A9;" horiz-adv-x="512" d=" M256 0L332.8 102.4C311.4666666666667 118.4 284.8 128 256 128S200.5333333333333 118.4 179.2 102.4L256 0M256 384C169.6 384 89.8133333333333 355.4133333333334 25.6 307.2000000000001L64 256C117.3333333333333 296.1066666666667 183.8933333333334 320 256 320S394.6666666666667 296.1066666666667 448 256L486.4 307.2000000000001C422.1866666666666 355.4133333333334 342.4 384 256 384M256 256C198.4 256 145.28 237.0133333333333 102.4 204.8L140.8 153.6C172.8 177.7066666666667 212.6933333333333 192 256 192C299.3066666666666 192 339.2 177.7066666666667 371.2 153.6L409.6 204.8C366.7200000000001 237.0133333333333 313.6 256 256 256z" /></svg>