<?xml version="1.0" encoding="UTF-8"?><!DOCTYPE svg PUBLIC "-//W3C//DTD SVG 1.1//EN" "http://www.w3.org/Graphics/SVG/1.1/DTD/svg11.dtd"><svg xmlns="http://www.w3.org/2000/svg" xmlns:xlink="http://www.w3.org/1999/xlink" version="1.1" width="512" height="512" viewBox="0 0 512 512">    <path fill="#ffffff" transform="scale(1, -1) translate(0, -448)" glyph-name="git" unicode="&#xF2A2;" horiz-adv-x="512" d=" M55.4666666666667 222.08L178.7733333333334 345.6L214.8266666666667 309.3333333333334C209.7066666666667 291.2000000000001 218.0266666666667 271.36 234.6666666666667 261.76V143.5733333333334C221.8666666666667 136.3200000000001 213.3333333333333 122.4533333333334 213.3333333333333 106.6666666666667C213.3333333333333 83.2 232.5333333333334 64 256 64S298.6666666666667 83.2 298.6666666666667 106.6666666666667C298.6666666666667 122.4533333333334 290.1333333333334 136.3200000000001 277.3333333333333 143.5733333333334V247.2533333333334L321.4933333333334 202.6666666666667C320 199.4666666666667 320 195.84 320 192C320 168.5333333333334 339.2 149.3333333333334 362.6666666666667 149.3333333333334S405.3333333333333 168.5333333333334 405.3333333333333 192S386.1333333333334 234.6666666666667 362.6666666666667 234.6666666666667C358.8266666666667 234.6666666666667 355.2 234.6666666666667 352 233.1733333333334L297.1733333333333 288C302.72 307.8400000000001 292.48 329.6 272.64 337.92C263.4666666666667 341.3333333333334 253.8666666666666 342.1866666666667 245.3333333333333 339.8400000000001L209.0666666666667 375.8933333333333L225.92 392.5333333333334C242.56 409.3866666666667 269.44 409.3866666666667 286.08 392.5333333333334L456.5333333333333 222.08C473.3866666666666 205.44 473.3866666666666 178.5600000000001 456.5333333333333 161.92L286.08 -8.5333333333333C269.44 -25.3866666666666 242.56 -25.3866666666666 225.92 -8.5333333333333L55.4666666666667 161.92C38.6133333333333 178.56 38.6133333333333 205.44 55.4666666666667 222.08z" /></svg>