<?xml version="1.0" encoding="UTF-8"?><!DOCTYPE svg PUBLIC "-//W3C//DTD SVG 1.1//EN" "http://www.w3.org/Graphics/SVG/1.1/DTD/svg11.dtd"><svg xmlns="http://www.w3.org/2000/svg" xmlns:xlink="http://www.w3.org/1999/xlink" version="1.1" width="512" height="512" viewBox="0 0 512 512">    <path fill="#ffffff" transform="scale(1, -1) translate(0, -448)" glyph-name="database-export" unicode="&#xF95D;" horiz-adv-x="512" d=" M303.36 42.6666666666667L363.7333333333334 103.04L318.5066666666667 149.3333333333334H469.3333333333333V-1.4933333333333L424.1066666666667 42.6666666666667L363.7333333333333 -17.7066666666666L303.36 42.6666666666667M242.9866666666667 42.6666666666667L264.32 64H256C161.7066666666667 64 85.3333333333333 102.1866666666667 85.3333333333333 149.3333333333334V85.3333333333334C85.3333333333333 38.1866666666667 161.7066666666667 0 256 0C266.0266666666667 0 275.84 0 285.44 1.28L242.9866666666667 42.6666666666667M368.8533333333333 192H426.6666666666667V256C426.6666666666667 230.4000000000001 405.3333333333333 207.5733333333334 368.8533333333333 192M85.3333333333333 256V192C85.3333333333333 144.8533333333334 161.7066666666667 106.6666666666667 256 106.6666666666667C270.2933333333333 106.6666666666667 284.5866666666667 107.52 298.6666666666667 109.4400000000001L236.16 170.6666666666667C151.2533333333333 176.2133333333334 85.3333333333333 212.2666666666667 85.3333333333333 256M256 384C161.7066666666667 384 85.3333333333333 345.8133333333334 85.3333333333333 298.6666666666667S161.7066666666667 213.3333333333334 256 213.3333333333334S426.6666666666667 251.52 426.6666666666667 298.6666666666667S350.2933333333334 384 256 384z" /></svg>