<?xml version="1.0" encoding="UTF-8"?><!DOCTYPE svg PUBLIC "-//W3C//DTD SVG 1.1//EN" "http://www.w3.org/Graphics/SVG/1.1/DTD/svg11.dtd"><svg xmlns="http://www.w3.org/2000/svg" xmlns:xlink="http://www.w3.org/1999/xlink" version="1.1" width="512" height="512" viewBox="0 0 512 512">    <path fill="#ffffff" transform="scale(1, -1) translate(0, -448)" glyph-name="graphql" unicode="&#xF876;" horiz-adv-x="512" d=" M256 333.44L246.6133333333334 334.7200000000001L128 130.1333333333333C133.12 125.6533333333333 136.5333333333333 119.8933333333333 138.0266666666667 113.4933333333334H373.9733333333334C375.4666666666667 119.8933333333334 378.88 125.6533333333334 384 130.1333333333333L265.3866666666667 334.7200000000001L256 333.44M140.8 95.36L232.1066666666667 41.3866666666667C238.2933333333333 47.1466666666667 246.8266666666667 50.5599999999999 256 50.5599999999999C265.1733333333333 50.5599999999999 273.7066666666667 47.1466666666667 279.8933333333333 41.3866666666667L371.2000000000001 95.36H140.8M256 -21.3333333333333C236.16 -21.3333333333333 220.16 -5.3333333333333 220.16 14.5066666666667L222.08 26.4533333333333L130.3466666666667 80.8533333333334C123.7333333333334 73.1733333333334 114.1333333333334 68.48 103.2533333333333 68.48C83.4133333333333 68.48 67.4133333333333 84.48 67.4133333333333 104.3200000000001C67.4133333333333 121.1733333333334 78.72 135.2533333333333 94.2933333333333 139.3066666666667V248.32C76.5866666666667 250.6666666666667 62.9333333333333 265.8133333333334 62.9333333333333 284.1600000000001C62.9333333333333 304 78.9333333333333 320 98.7733333333333 320C110.5066666666667 320 120.7466666666667 314.4533333333334 127.36 305.92L221.44 359.8933333333333L220.16 369.4933333333334C220.16 389.3333333333333 236.16 405.3333333333333 256 405.3333333333333C275.8399999999999 405.3333333333333 291.8399999999999 389.3333333333333 291.8399999999999 369.4933333333334L290.56 359.8933333333333L384.64 305.92C391.2533333333332 314.4533333333334 401.4933333333333 320 413.2266666666666 320C433.0666666666666 320 449.0666666666666 304 449.0666666666666 284.1600000000001C449.0666666666666 265.8133333333334 435.4133333333333 250.6666666666667 417.7066666666666 248.32V139.3066666666667C433.28 135.2533333333334 444.5866666666667 121.1733333333334 444.5866666666667 104.3200000000001C444.5866666666667 84.48 428.5866666666667 68.48 408.7466666666667 68.48C397.8666666666666 68.48 388.2666666666667 73.1733333333334 381.6533333333333 80.8533333333334L289.92 26.4533333333333L291.84 14.5066666666667C291.84 -5.3333333333333 275.84 -21.3333333333333 256 -21.3333333333333M230.4 344.32L134.4 289.28L134.8266666666667 284.16C134.8266666666667 269.0133333333333 125.44 256 112.2133333333333 250.6666666666667L112.8533333333333 138.6666666666667L230.4 344.3200000000001M281.6 344.3200000000001L399.1466666666667 138.6666666666667L399.7866666666667 250.6666666666667C386.56 256 377.1733333333334 269.0133333333333 377.1733333333334 284.1600000000001L377.6 289.2800000000001L281.6 344.3200000000001z" /></svg>