<?xml version="1.0" encoding="UTF-8"?><!DOCTYPE svg PUBLIC "-//W3C//DTD SVG 1.1//EN" "http://www.w3.org/Graphics/SVG/1.1/DTD/svg11.dtd"><svg xmlns="http://www.w3.org/2000/svg" xmlns:xlink="http://www.w3.org/1999/xlink" version="1.1" width="512" height="512" viewBox="0 0 512 512">    <path fill="#ffffff" transform="scale(1, -1) translate(0, -448)" glyph-name="case-sensitive-alt" unicode="&#xF113;" horiz-adv-x="512" d=" M426.6666666666667 149.3333333333334C426.6666666666667 181.3333333333334 416 192 384 192H341.3333333333333V213.3333333333334C341.3333333333333 234.6666666666667 341.3333333333333 234.6666666666667 298.6666666666667 234.6666666666667V42.6666666666667H384C416 42.6666666666667 426.6666666666667 53.9733333333334 426.6666666666667 85.3333333333334V149.3333333333334M256 192C256 224 244.6933333333334 234.6666666666667 213.3333333333333 234.6666666666667H128C96 234.6666666666667 85.3333333333333 224 85.3333333333333 192V42.6666666666667H128V106.6666666666667H213.3333333333333V42.6666666666667H256V192M213.3333333333333 298.6666666666667H298.6666666666667V341.3333333333334H213.3333333333333V298.6666666666667M469.3333333333333 256V21.3333333333334C469.3333333333333 -2.3466666666666 450.3466666666667 -21.3333333333333 426.6666666666667 -21.3333333333333H85.3333333333333C61.8666666666667 -21.3333333333333 42.6666666666667 -2.1333333333333 42.6666666666667 21.3333333333334V256C42.6666666666667 279.68 61.6533333333333 298.6666666666667 85.3333333333333 298.6666666666667H170.6666666666667V341.3333333333334L213.3333333333333 384H298.6666666666667L341.3333333333333 341.3333333333334V298.6666666666667H426.6666666666667C450.1333333333334 298.6666666666667 469.3333333333333 279.4666666666667 469.3333333333333 256M341.3333333333333 85.3333333333334H384V149.3333333333334H341.3333333333333V85.3333333333334M128 192H213.3333333333333V149.3333333333334H128V192z" /></svg>