<?xml version="1.0" encoding="UTF-8"?><!DOCTYPE svg PUBLIC "-//W3C//DTD SVG 1.1//EN" "http://www.w3.org/Graphics/SVG/1.1/DTD/svg11.dtd"><svg xmlns="http://www.w3.org/2000/svg" xmlns:xlink="http://www.w3.org/1999/xlink" version="1.1" width="512" height="512" viewBox="0 0 512 512">    <path fill="#ffffff" transform="scale(1, -1) translate(0, -448)" glyph-name="message-settings-variant" unicode="&#xF6F0;" horiz-adv-x="512" d=" M288 234.6666666666667C288 216.96 273.7066666666667 202.6666666666667 256 202.6666666666667C238.08 202.6666666666667 224 216.96 224 234.6666666666667S238.2933333333333 266.6666666666667 256 266.6666666666667S288 252.3733333333334 288 234.6666666666667M469.3333333333333 362.6666666666667V106.6666666666667C469.3333333333333 83.2 450.1333333333334 64 426.6666666666667 64H128L42.6666666666667 -21.3333333333333V362.6666666666667C42.6666666666667 386.1333333333334 61.8666666666667 405.3333333333333 85.3333333333333 405.3333333333333H426.6666666666667C450.1333333333334 405.3333333333333 469.3333333333333 386.1333333333334 469.3333333333333 362.6666666666667M357.76 206.5066666666667L334.9333333333333 224C335.1466666666667 227.6266666666667 335.1466666666667 231.2533333333334 334.9333333333333 234.6666666666667C335.36 238.08 335.36 241.7066666666667 334.9333333333333 245.3333333333334L357.5466666666666 262.8266666666667C359.4666666666666 264.5333333333334 360.1066666666667 267.3066666666668 358.8266666666666 269.6533333333334L337.4933333333333 306.5600000000001C336.2133333333333 309.3333333333334 333.44 309.9733333333334 330.6666666666666 309.3333333333334L304.4266666666666 298.6666666666667C298.6666666666666 302.9333333333334 292.9066666666666 306.5600000000001 286.2933333333333 309.3333333333334L282.2399999999999 337.2800000000001C281.8133333333334 339.6266666666667 279.68 341.3333333333334 277.3333333333333 341.3333333333334H234.6666666666667C232.1066666666667 341.3333333333334 229.76 339.4133333333334 229.3333333333333 336.8533333333334L225.28 308.6933333333334C218.88 306.1333333333334 212.6933333333333 302.7200000000001 206.9333333333333 298.6666666666667L180.48 309.3333333333334C177.92 310.1866666666667 175.1466666666667 309.3333333333334 173.8666666666667 306.9866666666667L152.5333333333333 270.0800000000001C151.2533333333333 267.7333333333334 151.68 264.9600000000001 153.8133333333333 263.2533333333334L176.4266666666667 245.3333333333334C175.5733333333333 238.5066666666667 175.5733333333333 231.2533333333334 176.4266666666667 224L153.8133333333333 206.5066666666667C151.8933333333333 204.8 151.2533333333333 202.0266666666667 152.5333333333333 199.68L173.8666666666666 162.7733333333333C175.1466666666667 160 177.92 159.36 180.48 160L206.9333333333333 170.6666666666667C212.48 166.4 218.4533333333333 162.7733333333334 225.0666666666666 160L229.12 132.0533333333334C229.76 129.4933333333334 232.1066666666667 128 234.6666666666667 128H277.3333333333333C279.8933333333333 128 282.24 129.92 282.6666666666667 132.48L286.7199999999999 160.6400000000001C293.12 163.4133333333334 298.6666666666667 166.8266666666667 304.64 170.6666666666668L331.3066666666666 160.0000000000001C333.8666666666666 160.0000000000001 336.64 160.0000000000001 337.92 162.7733333333334L359.2533333333332 199.6800000000001C360.5333333333332 202.0266666666667 359.8933333333333 204.8000000000001 357.7599999999999 206.5066666666668z" /></svg>