<?xml version="1.0" encoding="UTF-8"?><!DOCTYPE svg PUBLIC "-//W3C//DTD SVG 1.1//EN" "http://www.w3.org/Graphics/SVG/1.1/DTD/svg11.dtd"><svg xmlns="http://www.w3.org/2000/svg" xmlns:xlink="http://www.w3.org/1999/xlink" version="1.1" width="512" height="512" viewBox="0 0 512 512">    <path fill="#ffffff" transform="scale(1, -1) translate(0, -448)" glyph-name="ballot" unicode="&#xF9C8;" horiz-adv-x="512" d=" M277.3333333333333 245.3333333333334H384V288H277.3333333333333V245.3333333333334M277.3333333333333 96H384V138.6666666666667H277.3333333333333V96M405.3333333333333 0H106.6666666666667C83.2 0 64 19.2 64 42.6666666666667V341.3333333333334C64 364.8 83.2 384 106.6666666666667 384H405.3333333333333C428.8 384 448 364.8 448 341.3333333333334V42.6666666666667C448 19.2 428.8 0 405.3333333333333 0M128 213.3333333333334H234.6666666666667V320H128V213.3333333333334M149.3333333333333 298.6666666666667H213.3333333333333V234.6666666666667H149.3333333333333V298.6666666666667M128 64H234.6666666666667V170.6666666666667H128V64M149.3333333333333 149.3333333333334H213.3333333333333V85.3333333333334H149.3333333333333V149.3333333333334z" /></svg>