<?xml version="1.0" encoding="UTF-8"?><!DOCTYPE svg PUBLIC "-//W3C//DTD SVG 1.1//EN" "http://www.w3.org/Graphics/SVG/1.1/DTD/svg11.dtd"><svg xmlns="http://www.w3.org/2000/svg" xmlns:xlink="http://www.w3.org/1999/xlink" version="1.1" width="512" height="512" viewBox="0 0 512 512">    <path fill="#ffffff" transform="scale(1, -1) translate(0, -448)" glyph-name="axis-x-y-arrow-lock" unicode="&#xFD2C;" horiz-adv-x="512" d=" M465.0666666666667 341.3333333333334C477.8666666666667 341.3333333333334 490.6666666666666 328.5333333333334 490.6666666666666 313.6V238.9333333333334C490.6666666666666 226.1333333333334 477.8666666666666 213.3333333333334 462.9333333333333 213.3333333333334H345.6C332.8 213.3333333333334 320 226.1333333333334 320 241.0666666666667V315.7333333333334C320 328.5333333333333 332.8 341.3333333333334 345.6 341.3333333333334V373.3333333333334C345.6 403.2 375.4666666666667 426.6666666666667 405.3333333333333 426.6666666666667S465.0666666666667 403.2 465.0666666666667 373.3333333333334V341.3333333333334M437.3333333333333 341.3333333333334V373.3333333333334C437.3333333333333 390.4 422.4 401.0666666666667 405.3333333333333 401.0666666666667S373.3333333333333 390.4 373.3333333333333 373.3333333333334V341.3333333333334H437.3333333333333M37.12 37.3333333333334L68.48 153.8133333333334L99.84 99.4133333333334L192 152.5333333333334V384H234.6666666666667V152.5333333333334L373.9733333333334 72.3200000000001L405.3333333333333 127.36L437.3333333333333 10.6666666666667L320 -20.48L352.64 35.2L213.3333333333333 115.6266666666667L121.1733333333333 62.5066666666667L153.8133333333333 6.1866666666667L37.12 37.3333333333334z" /></svg>