<?xml version="1.0" encoding="UTF-8"?><!DOCTYPE svg PUBLIC "-//W3C//DTD SVG 1.1//EN" "http://www.w3.org/Graphics/SVG/1.1/DTD/svg11.dtd"><svg xmlns="http://www.w3.org/2000/svg" xmlns:xlink="http://www.w3.org/1999/xlink" version="1.1" width="512" height="512" viewBox="0 0 512 512">    <path fill="#ffffff" transform="scale(1, -1) translate(0, -448)" glyph-name="alphabetical" unicode="&#xF02C;" horiz-adv-x="512" d=" M128 213.3333333333334C151.4666666666667 213.3333333333334 170.6666666666667 194.1333333333333 170.6666666666667 170.6666666666667V85.3333333333334H85.3333333333333C61.8666666666667 85.3333333333334 42.6666666666667 104.5333333333333 42.6666666666667 128V170.6666666666667C42.6666666666667 194.1333333333333 61.8666666666667 213.3333333333334 85.3333333333333 213.3333333333334H128M85.3333333333333 170.6666666666667V128H128V170.6666666666667H85.3333333333333M426.6666666666667 170.6666666666667V128H469.3333333333333V85.3333333333334H426.6666666666667C403.2 85.3333333333334 384 104.5333333333333 384 128V170.6666666666667C384 194.1333333333333 403.2 213.3333333333334 426.6666666666667 213.3333333333334H469.3333333333333V170.6666666666667H426.6666666666667M256 298.6666666666667V213.3333333333334H298.6666666666667C322.1333333333334 213.3333333333334 341.3333333333333 194.1333333333333 341.3333333333333 170.6666666666667V128C341.3333333333333 104.5333333333333 322.1333333333334 85.3333333333334 298.6666666666667 85.3333333333334H256C232.5333333333334 85.3333333333334 213.3333333333333 104.5333333333333 213.3333333333333 128V298.6666666666667H256M256 128H298.6666666666667V170.6666666666667H256V128z" /></svg>