<?xml version="1.0" encoding="UTF-8"?><!DOCTYPE svg PUBLIC "-//W3C//DTD SVG 1.1//EN" "http://www.w3.org/Graphics/SVG/1.1/DTD/svg11.dtd"><svg xmlns="http://www.w3.org/2000/svg" xmlns:xlink="http://www.w3.org/1999/xlink" version="1.1" width="512" height="512" viewBox="0 0 512 512">    <path fill="#ffffff" transform="scale(1, -1) translate(0, -448)" glyph-name="fan-off" unicode="&#xF81C;" horiz-adv-x="512" d=" M266.6666666666667 405.3333333333333C205.6533333333333 405.3333333333333 182.8266666666667 350.9333333333334 198.1866666666667 288.64L320 167.2533333333333C338.56 162.7733333333333 358.6133333333333 153.3866666666667 368.64 133.76C393.8133333333334 83.2 469.9733333333334 85.3333333333334 469.9733333333334 181.3333333333334C469.9733333333334 257.7066666666667 385.0666666666667 274.5600000000001 306.1333333333334 231.8933333333334C299.3066666666667 240.4266666666667 290.3466666666667 247.0400000000001 280.1066666666667 251.3066666666667C284.16 271.1466666666667 293.5466666666667 293.5466666666668 314.6666666666667 304.0000000000001C365.0133333333333 329.1733333333334 362.6666666666667 405.3333333333333 266.6666666666667 405.3333333333333M69.9733333333333 362.6666666666667L42.6666666666667 335.5733333333334L95.36 283.0933333333334C68.6933333333333 282.88 42.6666666666667 258.7733333333334 42.6666666666667 202.6666666666667C42.6666666666667 126.5066666666667 127.1466666666667 109.8666666666667 205.8666666666667 152.1066666666667C212.6933333333333 143.5733333333333 221.8666666666667 136.7466666666667 232.32 132.48C228.0533333333334 112.8533333333334 218.6666666666667 90.6666666666667 197.76 80.2133333333333C147.4133333333333 55.04 149.3333333333333 -21.3333333333333 245.3333333333333 -21.3333333333333C294.4 -21.3333333333333 318.72 13.6533333333334 318.72 59.52L399.5733333333333 -21.3333333333333L426.6666666666667 5.9733333333334L69.9733333333333 362.6666666666667z" /></svg>