<?xml version="1.0" encoding="UTF-8"?><!DOCTYPE svg PUBLIC "-//W3C//DTD SVG 1.1//EN" "http://www.w3.org/Graphics/SVG/1.1/DTD/svg11.dtd"><svg xmlns="http://www.w3.org/2000/svg" xmlns:xlink="http://www.w3.org/1999/xlink" version="1.1" width="512" height="512" viewBox="0 0 512 512">    <path fill="#ffffff" transform="scale(1, -1) translate(0, -448)" glyph-name="midi-port" unicode="&#xF8F1;" horiz-adv-x="512" d=" M256 405.3333333333333C373.76 405.3333333333333 469.3333333333333 309.76 469.3333333333333 192S373.76 -21.3333333333333 256 -21.3333333333333S42.6666666666667 74.24 42.6666666666667 192S138.24 405.3333333333333 256 405.3333333333333M430.5066666666667 192C430.5066666666667 273.4933333333334 374.4 342.1866666666667 298.6666666666667 361.1733333333334V320H213.3333333333333V361.1733333333334C137.6 342.1866666666667 81.4933333333333 273.4933333333334 81.4933333333333 192C81.4933333333333 95.5733333333334 159.5733333333333 17.4933333333333 256 17.4933333333333S430.5066666666667 95.5733333333334 430.5066666666667 192M149.3333333333333 221.0133333333333C165.3333333333333 221.0133333333333 178.3466666666666 208 178.3466666666666 192C178.3466666666666 176 165.3333333333333 162.9866666666667 149.3333333333333 162.9866666666667C133.3333333333333 162.9866666666667 120.32 176 120.32 192C120.32 208 133.3333333333333 221.0133333333333 149.3333333333333 221.0133333333333M362.6666666666667 221.0133333333333C378.6666666666667 221.0133333333333 391.68 208 391.68 192C391.68 176 378.6666666666667 162.9866666666667 362.6666666666667 162.9866666666667C346.6666666666667 162.9866666666667 333.6533333333333 176 333.6533333333333 192C333.6533333333333 208 346.6666666666667 221.0133333333333 362.6666666666667 221.0133333333333M178.3466666666666 143.5733333333334C194.56 143.5733333333334 207.5733333333333 130.5600000000001 207.5733333333333 114.3466666666667C207.5733333333333 98.3466666666667 194.56 85.3333333333334 178.3466666666666 85.3333333333334C162.3466666666667 85.3333333333334 149.3333333333333 98.3466666666667 149.3333333333333 114.3466666666667C149.3333333333333 130.56 162.3466666666667 143.5733333333334 178.3466666666666 143.5733333333334M333.6533333333333 143.5733333333334C349.6533333333333 143.5733333333334 362.6666666666667 130.5600000000001 362.6666666666667 114.3466666666667C362.6666666666667 98.3466666666667 349.6533333333333 85.3333333333334 333.6533333333333 85.3333333333334C317.44 85.3333333333334 304.4266666666666 98.3466666666667 304.4266666666666 114.3466666666667C304.4266666666666 130.56 317.44 143.5733333333334 333.6533333333333 143.5733333333334M256 114.3466666666667C272 114.3466666666667 285.0133333333333 101.3333333333334 285.0133333333333 85.3333333333334C285.0133333333333 69.3333333333334 272 56.3200000000001 256 56.3200000000001C240 56.3200000000001 226.9866666666667 69.3333333333334 226.9866666666667 85.3333333333334C226.9866666666667 101.3333333333334 240 114.3466666666667 256 114.3466666666667z" /></svg>