<?xml version="1.0" encoding="UTF-8"?><!DOCTYPE svg PUBLIC "-//W3C//DTD SVG 1.1//EN" "http://www.w3.org/Graphics/SVG/1.1/DTD/svg11.dtd"><svg xmlns="http://www.w3.org/2000/svg" xmlns:xlink="http://www.w3.org/1999/xlink" version="1.1" width="512" height="512" viewBox="0 0 512 512">    <path fill="#ffffff" transform="scale(1, -1) translate(0, -448)" glyph-name="mastodon-variant" unicode="&#xFAD1;" horiz-adv-x="512" d=" M446.5066666666667 149.3333333333334C440.7466666666667 119.4666666666667 394.6666666666667 86.4 340.6933333333333 80C312.7466666666666 76.8000000000001 285.44 73.6 256 74.6666666666667C208.2133333333333 77.2266666666667 170.6666666666666 86.4 170.6666666666666 86.4L171.3066666666666 73.1733333333334C177.4933333333333 26.0266666666666 218.0266666666666 23.04 256.64 21.3333333333334C295.4666666666666 20.48 330.0266666666666 31.36 330.0266666666666 31.36L331.7333333333333 -3.6266666666667S304.4266666666666 -18.3466666666667 255.9999999999999 -21.3333333333333C229.3333333333333 -22.4 196.2666666666666 -20.2666666666666 157.6533333333333 -10.0266666666666C74.0266666666666 12.16 59.5199999999999 101.3333333333334 57.3866666666666 192.0000000000001L57.1733333333333 265.1733333333334C57.1733333333333 357.7600000000001 117.3333333333333 384.8533333333334 117.3333333333333 384.8533333333334C148.2666666666667 398.9333333333334 200.7466666666667 405.3333333333333 255.36 405.3333333333333H256.64C311.2533333333334 405.3333333333333 363.7333333333334 398.9333333333334 394.6666666666667 384.8533333333334C394.6666666666667 384.8533333333334 455.04 357.76 455.04 265.1733333333334C455.04 265.1733333333334 455.6799999999999 196.9066666666667 446.5066666666667 149.3333333333334M177.7066666666667 227.84C177.7066666666667 244.48 164.2666666666667 257.92 147.84 257.92C131.2 257.92 117.3333333333333 244.48 117.3333333333333 227.84C117.3333333333333 211.4133333333334 131.2 197.9733333333333 147.84 197.9733333333333C164.2666666666667 197.9733333333333 177.7066666666667 211.4133333333334 177.7066666666667 227.84M286.08 227.84C286.08 244.48 272.64 257.92 256 257.92C239.36 257.92 225.92 244.48 225.92 227.84C225.92 211.4133333333334 239.36 197.9733333333333 256 197.9733333333333C272.64 197.9733333333333 286.08 211.4133333333334 286.08 227.84M394.6666666666667 227.84C394.6666666666667 244.48 380.8 257.92 364.16 257.92C347.7333333333334 257.92 334.2933333333333 244.48 334.2933333333333 227.84C334.2933333333333 211.4133333333334 347.7333333333334 197.9733333333333 364.16 197.9733333333333C380.8 197.9733333333333 394.6666666666667 211.4133333333334 394.6666666666667 227.84z" /></svg>