<?xml version="1.0" encoding="UTF-8"?><!DOCTYPE svg PUBLIC "-//W3C//DTD SVG 1.1//EN" "http://www.w3.org/Graphics/SVG/1.1/DTD/svg11.dtd"><svg xmlns="http://www.w3.org/2000/svg" xmlns:xlink="http://www.w3.org/1999/xlink" version="1.1" width="512" height="512" viewBox="0 0 512 512">    <path fill="#ffffff" transform="scale(1, -1) translate(0, -448)" glyph-name="reddit" unicode="&#xF44D;" horiz-adv-x="512" d=" M469.3333333333333 189.0133333333333C469.3333333333333 215.04 448 235.52 422.6133333333333 235.52C410.0266666666667 235.52 398.5066666666667 230.6133333333333 390.1866666666666 222.5066666666667C358.1866666666666 245.3333333333334 314.0266666666667 260.48 265.1733333333333 262.4000000000001L286.5066666666667 362.6666666666667L356.2666666666667 347.5200000000001C356.9066666666667 330.0266666666667 371.4133333333333 315.9466666666667 389.3333333333333 315.9466666666667C407.68 315.9466666666667 422.6133333333333 330.6666666666667 422.6133333333333 349.2266666666667C422.6133333333333 367.5733333333334 407.68 382.2933333333334 389.3333333333333 382.2933333333334C376.5333333333333 382.2933333333334 365.0133333333333 374.8266666666667 359.68 363.7333333333334L282.0266666666667 380.1600000000001C279.68 380.5866666666667 277.3333333333333 380.1600000000001 275.84 378.88C273.92 377.8133333333334 272.8533333333333 375.8933333333333 272.4266666666666 373.3333333333334L248.7466666666667 261.9733333333334C199.04 260.48 154.24 245.3333333333334 121.8133333333333 222.2933333333334C113.4933333333334 230.1866666666667 101.9733333333333 234.6666666666667 89.3866666666667 234.6666666666667C63.36 234.6666666666667 42.6666666666667 214.1866666666667 42.6666666666667 188.5866666666667C42.6666666666667 169.3866666666667 54.1866666666667 153.3866666666667 70.1866666666667 146.1333333333333C69.3333333333333 141.44 69.12 136.96 69.12 132.0533333333334C69.12 60.16 152.7466666666667 1.4933333333333 256 1.4933333333333S442.88 59.7333333333334 442.88 132.0533333333334C442.88 136.5333333333334 442.6666666666666 141.4400000000001 441.8133333333333 146.1333333333334C457.8133333333333 153.3866666666667 469.3333333333333 169.8133333333334 469.3333333333333 189.0133333333334M149.3333333333333 155.7333333333334C149.3333333333333 174.0800000000001 163.84 189.0133333333334 182.1866666666667 189.0133333333334S215.4666666666667 174.0800000000001 215.4666666666667 155.7333333333334C215.4666666666667 137.3866666666667 200.5333333333333 122.4533333333334 182.1866666666667 122.4533333333334C163.84 122.0266666666667 149.3333333333333 137.3866666666667 149.3333333333333 155.7333333333334M335.1466666666667 67.4133333333334C312.1066666666667 44.3733333333333 268.5866666666667 42.6666666666667 256 42.6666666666667C242.9866666666667 42.6666666666667 199.4666666666667 44.8000000000001 176.8533333333333 67.4133333333334C173.44 70.8266666666667 173.44 76.16 176.8533333333333 79.5733333333334C180.2666666666667 82.9866666666667 185.6 82.9866666666667 189.0133333333333 79.5733333333334C203.52 65.0666666666667 234.6666666666667 60.16 256 60.16S308.6933333333334 65.0666666666667 322.9866666666667 79.5733333333334C326.4 82.9866666666667 331.7333333333334 82.9866666666667 335.1466666666667 79.5733333333334C338.1333333333334 76.16 338.1333333333334 70.8266666666667 335.1466666666667 67.4133333333334M328.9600000000001 122.0266666666667C310.6133333333334 122.0266666666667 295.68 136.96 295.68 155.3066666666667C295.68 173.6533333333334 310.6133333333334 188.5866666666667 328.9600000000001 188.5866666666667C347.3066666666667 188.5866666666667 362.6666666666667 173.6533333333334 362.6666666666667 155.3066666666667C362.6666666666667 137.3866666666667 347.3066666666667 122.0266666666667 328.96 122.0266666666667z" /></svg>