<?xml version="1.0" encoding="UTF-8"?><!DOCTYPE svg PUBLIC "-//W3C//DTD SVG 1.1//EN" "http://www.w3.org/Graphics/SVG/1.1/DTD/svg11.dtd"><svg xmlns="http://www.w3.org/2000/svg" xmlns:xlink="http://www.w3.org/1999/xlink" version="1.1" width="512" height="512" viewBox="0 0 512 512">    <path fill="#ffffff" transform="scale(1, -1) translate(0, -448)" glyph-name="weather-snowy" unicode="&#xF598;" horiz-adv-x="512" d=" M128 149.3333333333334C139.7333333333333 149.3333333333334 149.3333333333333 139.7333333333334 149.3333333333333 128S139.7333333333333 106.6666666666667 128 106.6666666666667C69.12 106.6666666666667 21.3333333333333 154.4533333333334 21.3333333333333 213.3333333333334S69.12 320 128 320C149.3333333333333 370.1333333333334 198.4 405.3333333333333 256 405.3333333333333C329.1733333333333 405.3333333333333 389.12 348.5866666666667 394.6666666666667 276.6933333333334L405.3333333333333 277.3333333333334C452.48 277.3333333333334 490.6666666666666 239.1466666666667 490.6666666666666 192S452.48 106.6666666666667 405.3333333333333 106.6666666666667H384C372.2666666666667 106.6666666666667 362.6666666666667 116.2666666666667 362.6666666666667 128S372.2666666666667 149.3333333333334 384 149.3333333333334H405.3333333333333C428.8 149.3333333333334 448 168.5333333333334 448 192S428.8 234.6666666666667 405.3333333333333 234.6666666666667H362.6666666666667V256C362.6666666666667 314.88 314.88 362.6666666666667 256 362.6666666666667C202.6666666666667 362.6666666666667 158.9333333333333 323.8400000000001 150.6133333333333 273.28C143.5733333333333 275.8400000000001 135.8933333333333 277.3333333333334 128 277.3333333333334C92.5866666666667 277.3333333333334 64 248.7466666666667 64 213.3333333333334S92.5866666666667 149.3333333333334 128 149.3333333333334M168.1066666666667 62.5066666666667L214.8266666666667 74.6666666666667L180.48 109.2266666666667C172.16 117.3333333333334 172.16 130.9866666666667 180.48 139.5200000000001C188.8 147.84 202.6666666666667 147.84 210.7733333333334 139.5200000000001L245.3333333333333 105.1733333333334L257.4933333333334 151.8933333333333C260.48 163.4133333333334 272.2133333333333 170.0266666666667 283.52 167.04C295.04 164.0533333333333 301.6533333333333 152.32 298.6666666666667 140.8L286.08 94.0799999999999L332.8 106.6666666666667C344.32 109.6533333333334 356.0533333333334 103.04 359.04 91.52C362.0266666666667 80.2133333333333 355.4133333333333 68.48 343.8933333333333 65.4933333333333L297.1733333333333 53.3333333333334L331.5199999999999 18.7733333333333C339.8399999999999 10.6666666666667 339.8399999999999 -3.2 331.5199999999999 -11.52C323.2 -19.84 309.3333333333333 -19.84 301.2266666666666 -11.52L266.6666666666666 22.8266666666667L254.5066666666666 -23.8933333333333C251.5199999999999 -35.4133333333333 239.7866666666666 -42.0266666666667 228.4799999999999 -39.04C216.9599999999999 -36.0533333333333 210.3466666666666 -24.32 213.3333333333333 -12.8L225.9199999999999 33.92L179.2 21.3333333333334C167.68 18.3466666666667 155.9466666666667 24.96 152.96 36.48C149.9733333333333 47.7866666666668 156.5866666666667 59.52 168.1066666666667 62.5066666666667z" /></svg>