<?xml version="1.0" encoding="UTF-8"?><!DOCTYPE svg PUBLIC "-//W3C//DTD SVG 1.1//EN" "http://www.w3.org/Graphics/SVG/1.1/DTD/svg11.dtd"><svg xmlns="http://www.w3.org/2000/svg" xmlns:xlink="http://www.w3.org/1999/xlink" version="1.1" width="512" height="512" viewBox="0 0 512 512">    <path fill="#ffffff" transform="scale(1, -1) translate(0, -448)" glyph-name="caravan" unicode="&#xF7AC;" horiz-adv-x="512" d=" M106.6666666666667 298.6666666666667C83.2 298.6666666666667 64 279.4666666666667 64 256V128C64 104.5333333333333 83.2 85.3333333333334 106.6666666666667 85.3333333333334H149.3333333333333C149.3333333333333 49.92 177.92 21.3333333333334 213.3333333333333 21.3333333333334S277.3333333333333 49.92 277.3333333333333 85.3333333333334H448V128H405.3333333333333V256C405.3333333333333 279.4666666666667 386.1333333333334 298.6666666666667 362.6666666666667 298.6666666666667H106.6666666666667M106.6666666666667 256H213.3333333333333V192H106.6666666666667V256M277.3333333333333 256H362.6666666666667V192H277.3333333333333V256M213.3333333333333 106.6666666666667C225.0666666666667 106.6666666666667 234.6666666666667 97.0666666666667 234.6666666666667 85.3333333333334S225.0666666666667 64 213.3333333333333 64S192 73.6 192 85.3333333333334S201.6 106.6666666666667 213.3333333333333 106.6666666666667z" /></svg>