<?xml version="1.0" encoding="UTF-8"?><!DOCTYPE svg PUBLIC "-//W3C//DTD SVG 1.1//EN" "http://www.w3.org/Graphics/SVG/1.1/DTD/svg11.dtd"><svg xmlns="http://www.w3.org/2000/svg" xmlns:xlink="http://www.w3.org/1999/xlink" version="1.1" width="512" height="512" viewBox="0 0 512 512">    <path fill="#ffffff" transform="scale(1, -1) translate(0, -448)" glyph-name="quadcopter" unicode="&#xF434;" horiz-adv-x="512" d=" M117.3333333333333 426.6666666666667C170.6666666666667 426.6666666666667 213.3333333333333 384 213.3333333333333 330.6666666666667C213.3333333333333 311.8933333333333 208 294.4 198.6133333333334 279.4666666666667L200.7466666666667 277.3333333333334H311.2533333333334L313.3866666666667 279.4666666666667C304 294.4 298.6666666666667 311.8933333333333 298.6666666666667 330.6666666666667C298.6666666666667 384 341.3333333333333 426.6666666666667 394.6666666666667 426.6666666666667S490.6666666666666 384 490.6666666666666 330.6666666666667S448 234.6666666666667 394.6666666666667 234.6666666666667C375.8933333333333 234.6666666666667 358.4 240 343.4666666666667 249.3866666666667L320 225.92V158.0800000000001L343.4666666666667 134.6133333333334C358.4 144 375.8933333333333 149.3333333333334 394.6666666666667 149.3333333333334C448 149.3333333333334 490.6666666666666 106.6666666666667 490.6666666666666 53.3333333333334S448 -42.6666666666666 394.6666666666667 -42.6666666666666S298.6666666666667 0 298.6666666666667 53.3333333333334C298.6666666666667 72.1066666666667 304 89.6 313.3866666666667 104.5333333333333L311.2533333333334 106.6666666666667H200.7466666666667L198.6133333333334 104.5333333333333C208 89.6 213.3333333333333 72.1066666666667 213.3333333333333 53.3333333333334C213.3333333333333 0 170.6666666666667 -42.6666666666666 117.3333333333333 -42.6666666666666S21.3333333333333 0 21.3333333333333 53.3333333333334S64 149.3333333333334 117.3333333333333 149.3333333333334C136.1066666666667 149.3333333333334 153.6 144 168.5333333333333 134.6133333333334L192 158.0800000000001V225.92L168.5333333333333 249.3866666666667C153.6 240 136.1066666666667 234.6666666666667 117.3333333333333 234.6666666666667C64 234.6666666666667 21.3333333333333 277.3333333333334 21.3333333333333 330.6666666666667S64 426.6666666666667 117.3333333333333 426.6666666666667M117.3333333333333 384C87.8933333333333 384 64 360.1066666666667 64 330.6666666666667S87.8933333333333 277.3333333333334 117.3333333333333 277.3333333333334S170.6666666666667 301.2266666666667 170.6666666666667 330.6666666666667S146.7733333333333 384 117.3333333333333 384M117.3333333333333 106.6666666666667C87.8933333333333 106.6666666666667 64 82.7733333333333 64 53.3333333333334S87.8933333333333 0 117.3333333333333 0S170.6666666666667 23.8933333333334 170.6666666666667 53.3333333333334S146.7733333333333 106.6666666666667 117.3333333333333 106.6666666666667M394.6666666666667 384C365.2266666666667 384 341.3333333333333 360.1066666666667 341.3333333333333 330.6666666666667S365.2266666666667 277.3333333333334 394.6666666666667 277.3333333333334S448 301.2266666666667 448 330.6666666666667S424.1066666666667 384 394.6666666666667 384M394.6666666666667 106.6666666666667C365.2266666666667 106.6666666666667 341.3333333333333 82.7733333333333 341.3333333333333 53.3333333333334S365.2266666666667 0 394.6666666666667 0S448 23.8933333333334 448 53.3333333333334S424.1066666666667 106.6666666666667 394.6666666666667 106.6666666666667M83.4133333333333 80L107.52 65.92C110.2933333333333 68.0533333333334 113.7066666666667 69.3333333333334 117.3333333333333 69.3333333333334C126.08 69.3333333333334 133.3333333333333 62.08 133.3333333333333 53.3333333333334L133.12 51.2L157.2266666666667 37.3333333333334L151.2533333333333 26.6666666666667L127.1466666666667 40.7466666666667C124.3733333333333 38.6133333333333 120.96 37.3333333333334 117.3333333333333 37.3333333333334C108.5866666666667 37.3333333333334 101.3333333333333 44.5866666666667 101.3333333333333 53.3333333333334L101.5466666666667 55.4666666666667L77.44 69.3333333333334L83.4133333333333 80M77.44 314.6666666666667L101.5466666666667 328.5333333333334L101.3333333333333 330.6666666666667C101.3333333333333 339.4133333333334 108.5866666666667 346.6666666666667 117.3333333333333 346.6666666666667C120.96 346.6666666666667 124.3733333333333 345.3866666666667 127.1466666666667 343.2533333333334L151.2533333333333 357.3333333333334L157.2266666666667 346.6666666666667L133.12 332.8L133.3333333333333 330.6666666666667C133.3333333333333 321.92 126.08 314.6666666666667 117.3333333333333 314.6666666666667C113.7066666666667 314.6666666666667 110.2933333333333 315.9466666666667 107.52 318.0800000000001L83.4133333333333 304L77.44 314.6666666666667M360.7466666666667 357.3333333333334L384.8533333333333 343.2533333333334C387.6266666666666 345.3866666666667 391.04 346.6666666666667 394.6666666666667 346.6666666666667C403.4133333333333 346.6666666666667 410.6666666666667 339.4133333333334 410.6666666666667 330.6666666666667L410.4533333333333 328.5333333333334L434.56 314.6666666666667L428.5866666666666 304L404.4799999999999 318.0800000000001C401.7066666666666 315.9466666666667 398.2933333333333 314.6666666666667 394.6666666666666 314.6666666666667C385.9199999999999 314.6666666666667 378.6666666666666 321.92 378.6666666666666 330.6666666666667L378.88 332.8L354.7733333333333 346.6666666666667L360.7466666666667 357.3333333333334M354.7733333333333 37.3333333333334L378.6666666666667 53.3333333333334C378.6666666666667 62.08 385.92 69.3333333333334 394.6666666666667 69.3333333333334C398.2933333333334 69.3333333333334 401.7066666666666 68.0533333333334 404.48 65.92L428.5866666666667 80L434.56 69.3333333333334L410.6666666666667 53.3333333333334C410.6666666666667 44.5866666666667 403.4133333333333 37.3333333333334 394.6666666666667 37.3333333333334C391.04 37.3333333333334 387.6266666666667 38.6133333333333 384.8533333333333 40.7466666666667L360.7466666666667 26.6666666666667L354.7733333333333 37.3333333333334z" /></svg>