<?xml version="1.0" encoding="UTF-8"?><!DOCTYPE svg PUBLIC "-//W3C//DTD SVG 1.1//EN" "http://www.w3.org/Graphics/SVG/1.1/DTD/svg11.dtd"><svg xmlns="http://www.w3.org/2000/svg" xmlns:xlink="http://www.w3.org/1999/xlink" version="1.1" width="512" height="512" viewBox="0 0 512 512">    <path fill="#ffffff" transform="scale(1, -1) translate(0, -448)" glyph-name="car-brake-hold" unicode="&#xFD3A;" horiz-adv-x="512" d=" M256 384C149.3333333333333 384 64 298.6666666666667 64 192S149.3333333333333 0 256 0S448 85.3333333333334 448 192S362.6666666666667 384 256 384M256 42.6666666666667C172.8 42.6666666666667 106.6666666666667 108.8 106.6666666666667 192S172.8 341.3333333333334 256 341.3333333333334S405.3333333333333 275.2000000000001 405.3333333333333 192S339.2 42.6666666666667 256 42.6666666666667M437.3333333333333 10.6666666666667C484.2666666666667 57.6 512 121.6 512 192S484.2666666666667 326.4 437.3333333333333 373.3333333333334L413.8666666666666 349.8666666666667C454.3999999999999 309.3333333333334 480 253.8666666666667 480 192C480 130.1333333333333 454.4 74.6666666666667 413.8666666666666 34.1333333333334L437.3333333333333 10.6666666666667M98.1333333333333 34.1333333333334C57.6 74.6666666666667 32 130.1333333333334 32 192.0000000000001C32 253.8666666666668 57.6 309.3333333333334 98.1333333333333 349.8666666666668L74.6666666666667 373.3333333333334C27.7333333333333 326.4 0 262.4000000000001 0 192S27.7333333333333 57.6 74.6666666666667 10.6666666666667L98.1333333333333 34.1333333333334M192 298.6666666666667V85.3333333333334H234.6666666666667V170.6666666666667H277.3333333333333V85.3333333333334H320V298.6666666666667H277.3333333333333V213.3333333333334H234.6666666666667V298.6666666666667H192z" /></svg>