<?xml version="1.0" encoding="UTF-8"?><!DOCTYPE svg PUBLIC "-//W3C//DTD SVG 1.1//EN" "http://www.w3.org/Graphics/SVG/1.1/DTD/svg11.dtd"><svg xmlns="http://www.w3.org/2000/svg" xmlns:xlink="http://www.w3.org/1999/xlink" version="1.1" width="512" height="512" viewBox="0 0 512 512">    <path fill="#ffffff" transform="scale(1, -1) translate(0, -448)" glyph-name="pen-off" unicode="&#xFDC0;" horiz-adv-x="512" d=" M49.0666666666667 341.3333333333334L21.3333333333333 313.6L160 174.9333333333333L64 81.0666666666667V0H145.0666666666667L241.0666666666667 96L379.7333333333334 -42.6666666666666L407.4666666666667 -14.9333333333333L49.0666666666667 341.3333333333334M360.5333333333333 215.4666666666667L279.4666666666666 296.5333333333333L362.6666666666667 377.6C371.2 386.1333333333334 384 386.1333333333334 392.5333333333333 377.6L441.6 328.5333333333334C450.1333333333333 320 450.1333333333333 307.2000000000001 441.6 298.6666666666667C435.2 290.1333333333334 426.6666666666667 283.7333333333334 426.6666666666667 277.3333333333334C426.6666666666667 270.9333333333334 433.0666666666667 262.4000000000001 439.4666666666667 256C450.1333333333334 245.3333333333334 460.8 234.6666666666667 458.6666666666666 226.1333333333334C458.6666666666666 215.4666666666667 448 204.8 437.3333333333333 194.1333333333333L349.8666666666666 106.6666666666667L320 134.4L409.6 224L388.2666666666667 245.3333333333334L360.5333333333333 215.4666666666667M213.3333333333333 230.4L266.6666666666667 283.7333333333334L347.7333333333333 202.6666666666667L294.3999999999999 149.3333333333334L213.3333333333333 230.4000000000001z" /></svg>