<?xml version="1.0" encoding="UTF-8"?><!DOCTYPE svg PUBLIC "-//W3C//DTD SVG 1.1//EN" "http://www.w3.org/Graphics/SVG/1.1/DTD/svg11.dtd"><svg xmlns="http://www.w3.org/2000/svg" xmlns:xlink="http://www.w3.org/1999/xlink" version="1.1" width="512" height="512" viewBox="0 0 512 512">    <path fill="#ffffff" transform="scale(1, -1) translate(0, -448)" glyph-name="account-box-outline" unicode="&#xF007;" horiz-adv-x="512" d=" M405.3333333333333 42.6666666666667H106.6666666666667V341.3333333333334H405.3333333333333M405.3333333333333 384H106.6666666666667C83.2 384 64 364.8 64 341.3333333333334V42.6666666666667C64 19.2 83.2 0 106.6666666666667 0H405.3333333333333C428.8 0 448 19.2 448 42.6666666666667V341.3333333333334C448 365.0133333333333 428.8 384 405.3333333333333 384M352 101.3333333333334C352 133.3333333333334 288 149.3333333333334 256 149.3333333333334S160 133.3333333333334 160 101.3333333333334V85.3333333333334H352M256 186.6666666666667C282.4533333333333 186.6666666666667 304 208.2133333333334 304 234.6666666666667S282.4533333333333 282.6666666666667 256 282.6666666666667S208 261.12 208 234.6666666666667S229.5466666666667 186.6666666666667 256 186.6666666666667z" /></svg>