<?xml version="1.0" encoding="UTF-8"?><!DOCTYPE svg PUBLIC "-//W3C//DTD SVG 1.1//EN" "http://www.w3.org/Graphics/SVG/1.1/DTD/svg11.dtd"><svg xmlns="http://www.w3.org/2000/svg" xmlns:xlink="http://www.w3.org/1999/xlink" version="1.1" width="512" height="512" viewBox="0 0 512 512">    <path fill="#ffffff" transform="scale(1, -1) translate(0, -448)" glyph-name="file-cancel" unicode="&#xFDA2;" horiz-adv-x="512" d=" M277.3333333333333 256H394.6666666666667L277.3333333333333 373.3333333333334V256M128 405.3333333333333H298.6666666666667L426.6666666666667 277.3333333333334V21.3333333333334C426.6666666666667 -2.1333333333333 407.4666666666667 -21.3333333333333 384 -21.3333333333333H128C104.32 -21.3333333333333 85.3333333333333 -2.1333333333333 85.3333333333333 21.3333333333334V362.6666666666667C85.3333333333333 386.3466666666667 104.32 405.3333333333333 128 405.3333333333333M224 213.3333333333334C170.6666666666667 213.3333333333334 128 170.6666666666667 128 117.3333333333334S170.6666666666667 21.3333333333334 224 21.3333333333334S320 64 320 117.3333333333334S277.3333333333333 213.3333333333334 224 213.3333333333334M224 181.3333333333334C259.4133333333333 181.3333333333334 288 152.7466666666667 288 117.3333333333334C288 105.3866666666667 284.8 94.2933333333334 279.04 85.3333333333334L192 172.3733333333333C200.96 178.1333333333333 212.0533333333333 181.3333333333334 224 181.3333333333334M160 117.3333333333334C160 129.28 163.2 140.3733333333333 168.96 149.3333333333334L256 62.2933333333334C247.04 56.5333333333334 235.9466666666667 53.3333333333334 224 53.3333333333334C188.5866666666667 53.3333333333334 160 81.92 160 117.3333333333334z" /></svg>