<?xml version="1.0" encoding="UTF-8"?><!DOCTYPE svg PUBLIC "-//W3C//DTD SVG 1.1//EN" "http://www.w3.org/Graphics/SVG/1.1/DTD/svg11.dtd"><svg xmlns="http://www.w3.org/2000/svg" xmlns:xlink="http://www.w3.org/1999/xlink" version="1.1" width="512" height="512" viewBox="0 0 512 512">    <path fill="#ffffff" transform="scale(1, -1) translate(0, -448)" glyph-name="gender-female" unicode="&#xF29C;" horiz-adv-x="512" d=" M256 362.6666666666667C326.6133333333334 362.6666666666667 384 305.2800000000001 384 234.6666666666667C384 171.3066666666667 337.92 118.6133333333334 277.3333333333333 108.3733333333333V64H320V21.3333333333334H277.3333333333333V-21.3333333333333H234.6666666666667V21.3333333333334H192V64H234.6666666666667V108.3733333333333C174.08 118.6133333333334 128 171.3066666666667 128 234.6666666666667C128 305.2800000000001 185.3866666666667 362.6666666666667 256 362.6666666666667M256 320C208.8533333333333 320 170.6666666666667 281.8133333333334 170.6666666666667 234.6666666666667S208.8533333333333 149.3333333333334 256 149.3333333333334S341.3333333333333 187.52 341.3333333333333 234.6666666666667S303.1466666666667 320 256 320z" /></svg>