<?xml version="1.0" encoding="UTF-8"?><!DOCTYPE svg PUBLIC "-//W3C//DTD SVG 1.1//EN" "http://www.w3.org/Graphics/SVG/1.1/DTD/svg11.dtd"><svg xmlns="http://www.w3.org/2000/svg" xmlns:xlink="http://www.w3.org/1999/xlink" version="1.1" width="512" height="512" viewBox="0 0 512 512">    <path fill="#ffffff" transform="scale(1, -1) translate(0, -448)" glyph-name="pot" unicode="&#xF65A;" horiz-adv-x="512" d=" M405.3333333333333 42.6666666666667C405.3333333333333 19.2 386.1333333333334 0 362.6666666666667 0H149.3333333333333C125.8666666666667 0 106.6666666666667 19.2 106.6666666666667 42.6666666666667V170.6666666666667H64V234.6666666666667H448V170.6666666666667H405.3333333333333V42.6666666666667M128 320H170.6666666666667V277.3333333333334H128V320M234.6666666666667 320H277.3333333333333V277.3333333333334H234.6666666666667V320M341.3333333333333 320H384V277.3333333333334H341.3333333333333V320M384 384H426.6666666666667V341.3333333333334H384V384M277.3333333333333 384H320V341.3333333333334H277.3333333333333V384M170.6666666666667 384H213.3333333333333V341.3333333333334H170.6666666666667V384z" /></svg>