<?xml version="1.0" encoding="UTF-8"?><!DOCTYPE svg PUBLIC "-//W3C//DTD SVG 1.1//EN" "http://www.w3.org/Graphics/SVG/1.1/DTD/svg11.dtd"><svg xmlns="http://www.w3.org/2000/svg" xmlns:xlink="http://www.w3.org/1999/xlink" version="1.1" width="512" height="512" viewBox="0 0 512 512">    <path fill="#ffffff" transform="scale(1, -1) translate(0, -448)" glyph-name="monitor-star" unicode="&#xFDB8;" horiz-adv-x="512" d=" M448 106.6666666666667V362.6666666666667H64V106.6666666666667H448M448 405.3333333333333C471.4666666666667 405.3333333333333 490.6666666666666 386.1333333333334 490.6666666666666 362.6666666666667V106.6666666666667C490.6666666666666 83.2 471.4666666666667 64 448 64H298.6666666666667V21.3333333333334H341.3333333333333V-21.3333333333333H170.6666666666667V21.3333333333334H213.3333333333333V64H64C40.32 64 21.3333333333333 83.2 21.3333333333333 106.6666666666667V362.6666666666667C21.3333333333333 386.3466666666667 40.32 405.3333333333333 64 405.3333333333333H448M276.6933333333334 256H341.3333333333333L288.64 218.4533333333334L308.6933333333333 156.3733333333333L256 194.7733333333334L203.3066666666666 156.3733333333333L223.3599999999999 218.4533333333334L170.6666666666667 256H235.3066666666667L256 320L276.6933333333334 256z" /></svg>