<?xml version="1.0" encoding="UTF-8"?><!DOCTYPE svg PUBLIC "-//W3C//DTD SVG 1.1//EN" "http://www.w3.org/Graphics/SVG/1.1/DTD/svg11.dtd"><svg xmlns="http://www.w3.org/2000/svg" xmlns:xlink="http://www.w3.org/1999/xlink" version="1.1" width="512" height="512" viewBox="0 0 512 512">    <path fill="#ffffff" transform="scale(1, -1) translate(0, -448)" glyph-name="wrench-outline" unicode="&#xFBBC;" horiz-adv-x="512" d=" M482.3466666666666 42.6666666666667L288.64 236.5866666666667C308.48 286.5066666666667 298.6666666666667 345.3866666666667 257.92 385.92C208.8533333333333 434.9866666666667 132.48 439.4666666666667 78.08 399.7866666666667L160 317.6533333333333L129.7066666666667 288L48 369.28C8.32 315.0933333333334 12.8 238.5066666666667 61.8666666666667 189.6533333333334C101.5466666666667 149.9733333333334 159.36 139.5200000000001 208.8533333333333 158.0800000000001L403.2 -36.2666666666666C411.52 -44.5866666666666 424.9599999999999 -44.5866666666666 433.28 -36.2666666666666L482.3466666666666 12.8000000000001C490.6666666666666 21.3333333333334 490.6666666666666 34.3466666666668 482.3466666666666 42.6666666666667M418.3466666666667 8.7466666666667L216.5333333333333 210.56C203.52 200.96 189.0133333333333 195.2 173.8666666666666 193.0666666666667C144.8533333333333 188.8000000000001 114.3466666666666 197.5466666666667 92.16 219.7333333333334C71.8933333333333 239.7866666666667 62.5066666666667 266.6666666666667 64 293.12L129.92 227.2L220.3733333333333 317.6533333333334L154.4533333333333 384C181.3333333333333 385.0666666666667 207.5733333333333 375.68 227.84 355.6266666666667C250.88 332.5866666666667 259.6266666666667 300.8 254.2933333333333 271.1466666666667C251.7333333333334 256 245.3333333333333 241.92 235.52 229.3333333333334L437.3333333333333 27.7333333333334L418.3466666666667 8.7466666666667z" /></svg>