<?xml version="1.0" encoding="UTF-8"?><!DOCTYPE svg PUBLIC "-//W3C//DTD SVG 1.1//EN" "http://www.w3.org/Graphics/SVG/1.1/DTD/svg11.dtd"><svg xmlns="http://www.w3.org/2000/svg" xmlns:xlink="http://www.w3.org/1999/xlink" version="1.1" width="512" height="512" viewBox="0 0 512 512">    <path fill="#ffffff" transform="scale(1, -1) translate(0, -448)" glyph-name="mixed-reality" unicode="&#xF87E;" horiz-adv-x="512" d=" M106.6666666666667 384H405.3333333333333C428.8 384 448 364.8 448 341.3333333333334V42.6666666666667C448 19.2 428.8 0 405.3333333333333 0H106.6666666666667C82.9866666666667 0 64 19.2 64 42.6666666666667V341.3333333333334C64 364.8 83.2 384 106.6666666666667 384M176 128H208L229.3333333333333 201.1733333333334V128H261.3333333333333V256H213.3333333333333L192 182.8266666666667L170.6666666666667 256H122.6666666666667V128H154.6666666666667V201.1733333333334L176 128M288 256V128H320V170.6666666666667H344.5333333333333L362.6666666666667 128H394.6666666666667L375.4666666666667 172.8C386.1333333333334 178.1333333333333 394.6666666666667 189.8666666666667 394.6666666666667 202.6666666666667V224C394.6666666666667 242.1333333333334 380.8 256 362.6666666666667 256H288M320 224H362.6666666666667V202.6666666666667H320V224z" /></svg>