<?xml version="1.0" encoding="UTF-8"?><!DOCTYPE svg PUBLIC "-//W3C//DTD SVG 1.1//EN" "http://www.w3.org/Graphics/SVG/1.1/DTD/svg11.dtd"><svg xmlns="http://www.w3.org/2000/svg" xmlns:xlink="http://www.w3.org/1999/xlink" version="1.1" width="512" height="512" viewBox="0 0 512 512">    <path fill="#ffffff" transform="scale(1, -1) translate(0, -448)" glyph-name="compass-off-outline" unicode="&#xFB5D;" horiz-adv-x="512" d=" M21.3333333333333 373.3333333333334L48.64 400L464 -15.36L437.3333333333333 -42.6666666666666L377.6 16.64C343.04 -7.2533333333333 301.2266666666667 -21.3333333333333 256 -21.3333333333333C138.24 -21.3333333333333 42.6666666666667 74.24 42.6666666666667 192C42.6666666666667 237.2266666666667 56.7466666666667 279.04 80.64 313.6L21.3333333333333 373.3333333333334M149.3333333333333 85.3333333333334L200.32 193.92L111.5733333333333 282.88C94.9333333333333 256 85.3333333333333 225.2800000000001 85.3333333333333 192C85.3333333333333 97.7066666666667 161.7066666666667 21.3333333333334 256 21.3333333333334C289.28 21.3333333333334 320 30.9333333333333 346.88 47.5733333333334L257.92 136.3200000000001L149.3333333333333 85.3333333333334M362.6666666666667 298.6666666666667L311.8933333333333 190.9333333333333L254.9333333333334 247.8933333333333L362.6666666666667 298.6666666666667M256 405.3333333333333C373.76 405.3333333333333 469.3333333333333 309.76 469.3333333333333 192C469.3333333333333 147.2000000000001 455.4666666666667 105.3866666666667 431.7866666666667 71.04L401.0666666666666 101.9733333333333C417.28 128 426.6666666666667 158.9333333333333 426.6666666666667 192C426.6666666666667 286.2933333333334 350.2933333333334 362.6666666666667 256 362.6666666666667C222.9333333333333 362.6666666666667 192 353.28 165.9733333333333 337.0666666666667L135.04 367.7866666666667C169.3866666666667 391.4666666666667 211.2 405.3333333333333 256 405.3333333333333z" /></svg>