<?xml version="1.0" encoding="UTF-8"?><!DOCTYPE svg PUBLIC "-//W3C//DTD SVG 1.1//EN" "http://www.w3.org/Graphics/SVG/1.1/DTD/svg11.dtd"><svg xmlns="http://www.w3.org/2000/svg" xmlns:xlink="http://www.w3.org/1999/xlink" version="1.1" width="512" height="512" viewBox="0 0 512 512">    <path fill="#ffffff" transform="scale(1, -1) translate(0, -448)" glyph-name="paper-cut-vertical" unicode="&#xF3E1;" horiz-adv-x="512" d=" M243.84 379.0933333333334L256 362.6666666666667L268.16 379.0933333333334V378.88C279.8933333333333 394.6666666666667 298.6666666666667 405.3333333333333 320 405.3333333333333C355.4133333333333 405.3333333333333 384 376.7466666666667 384 341.3333333333334C384 333.8666666666667 382.7200000000001 326.6133333333334 380.3733333333333 320H426.6666666666667C450.1333333333334 320 469.3333333333333 300.8 469.3333333333333 277.3333333333334V21.3333333333334C469.3333333333333 -2.1333333333333 450.1333333333334 -21.3333333333333 426.6666666666667 -21.3333333333333H85.3333333333333C61.8666666666667 -21.3333333333333 42.6666666666667 -2.1333333333333 42.6666666666667 21.3333333333334V277.3333333333334C42.6666666666667 300.8 61.8666666666667 320 85.3333333333333 320H131.6266666666667C129.28 326.6133333333334 128 333.8666666666667 128 341.3333333333334C128 376.7466666666667 156.5866666666667 405.3333333333333 192 405.3333333333333C213.3333333333333 405.3333333333333 232.1066666666667 394.6666666666667 243.84 378.88V379.0933333333334M85.3333333333333 277.3333333333334V21.3333333333334H234.6666666666667C234.6666666666667 33.0666666666667 244.2666666666667 42.6666666666667 256 42.6666666666667S277.3333333333333 33.0666666666667 277.3333333333333 21.3333333333334H426.6666666666667V277.3333333333334H317.8666666666667L362.6666666666667 215.04L328.5333333333333 189.8666666666667L264.96 277.3333333333334H247.04L183.4666666666667 189.8666666666667L149.3333333333333 215.04L194.1333333333333 277.3333333333334H85.3333333333333M192 362.6666666666667C180.2666666666667 362.6666666666667 170.6666666666667 353.0666666666667 170.6666666666667 341.3333333333334S180.2666666666667 320 192 320S213.3333333333333 329.6 213.3333333333333 341.3333333333334S203.7333333333334 362.6666666666667 192 362.6666666666667M320 362.6666666666667C308.2666666666667 362.6666666666667 298.6666666666667 353.0666666666667 298.6666666666667 341.3333333333334S308.2666666666667 320 320 320S341.3333333333333 329.6 341.3333333333333 341.3333333333334S331.7333333333334 362.6666666666667 320 362.6666666666667M256 106.6666666666667C267.7333333333334 106.6666666666667 277.3333333333333 97.0666666666667 277.3333333333333 85.3333333333334S267.7333333333334 64 256 64S234.6666666666667 73.6 234.6666666666667 85.3333333333334S244.2666666666667 106.6666666666667 256 106.6666666666667M256 170.6666666666667C267.7333333333334 170.6666666666667 277.3333333333333 161.0666666666667 277.3333333333333 149.3333333333334S267.7333333333334 128 256 128S234.6666666666667 137.6 234.6666666666667 149.3333333333334S244.2666666666667 170.6666666666667 256 170.6666666666667M256 234.6666666666667C267.7333333333334 234.6666666666667 277.3333333333333 225.0666666666667 277.3333333333333 213.3333333333334S267.7333333333334 192 256 192S234.6666666666667 201.6 234.6666666666667 213.3333333333334S244.2666666666667 234.6666666666667 256 234.6666666666667z" /></svg>