<?xml version="1.0" encoding="UTF-8"?><!DOCTYPE svg PUBLIC "-//W3C//DTD SVG 1.1//EN" "http://www.w3.org/Graphics/SVG/1.1/DTD/svg11.dtd"><svg xmlns="http://www.w3.org/2000/svg" xmlns:xlink="http://www.w3.org/1999/xlink" version="1.1" width="512" height="512" viewBox="0 0 512 512">    <path fill="#ffffff" transform="scale(1, -1) translate(0, -448)" glyph-name="earth-off" unicode="&#xF1E8;" horiz-adv-x="512" d=" M469.3333333333333 335.5733333333334L437.3333333333333 304C457.8133333333333 271.36 469.3333333333333 233.1733333333334 469.3333333333333 192C469.3333333333333 74.24 373.76 -21.3333333333333 256 -21.3333333333333C215.04 -21.3333333333333 176.64 -9.8133333333333 144 10.6666666666667L112.4266666666667 -21.3333333333333L85.3333333333333 5.9733333333334L442.0266666666667 362.6666666666667L469.3333333333333 335.5733333333334M381.8666666666666 77.0133333333333C409.6 107.3066666666667 426.6666666666667 147.6266666666667 426.6666666666667 192C426.6666666666667 221.2266666666667 419.4133333333333 248.7466666666667 406.4 272.64L316.3733333333334 182.6133333333334C318.7200000000001 179.2 320 175.1466666666667 320 170.6666666666666V106.6666666666667H341.3333333333333C360.32 106.6666666666667 376.32 94.08 381.8666666666666 77.0133333333333M234.6666666666667 22.8266666666667V64C224 64 214.8266666666667 67.6266666666667 207.5733333333333 73.8133333333334L175.36 41.6C193.4933333333334 32 213.3333333333333 25.6 234.6666666666667 22.8266666666667M320 350.0800000000001V341.3333333333334C320 317.8666666666667 300.8 298.6666666666667 277.3333333333333 298.6666666666667H234.6666666666667V256C234.6666666666667 244.2666666666667 225.0666666666667 234.6666666666667 213.3333333333333 234.6666666666667H170.6666666666667V192H217.1733333333333L172.5866666666667 147.4133333333334L89.8133333333333 230.1866666666667C87.04 218.0266666666667 85.3333333333333 205.2266666666667 85.3333333333333 192C85.3333333333333 154.88 97.28 120.3200000000001 117.3333333333333 92.3733333333333L87.04 61.8666666666667C59.0933333333333 97.92 42.6666666666667 142.9333333333333 42.6666666666667 192C42.6666666666667 309.76 138.24 405.3333333333333 256 405.3333333333333C305.0666666666667 405.3333333333333 350.08 388.9066666666667 386.1333333333334 360.9600000000001L355.6266666666667 330.6666666666667C344.7466666666667 338.3466666666667 332.8 344.9600000000001 320 350.0800000000001z" /></svg>