<?xml version="1.0" encoding="UTF-8"?><!DOCTYPE svg PUBLIC "-//W3C//DTD SVG 1.1//EN" "http://www.w3.org/Graphics/SVG/1.1/DTD/svg11.dtd"><svg xmlns="http://www.w3.org/2000/svg" xmlns:xlink="http://www.w3.org/1999/xlink" version="1.1" width="512" height="512" viewBox="0 0 512 512">    <path fill="#ffffff" transform="scale(1, -1) translate(0, -448)" glyph-name="tumblr-box" unicode="&#xF917;" horiz-adv-x="512" d=" M341.3333333333333 213.3333333333334H277.3333333333333V130.1333333333333C277.3333333333333 114.56 280.32 106.6666666666667 300.8 106.6666666666667H341.3333333333333V42.6666666666667S319.36 40.5333333333333 296.5333333333333 40.5333333333333C240 40.5333333333333 213.3333333333333 74.6666666666667 213.3333333333333 113.0666666666667V213.3333333333334H170.6666666666667V273.0666666666667C222.08 277.3333333333334 226.56 316.5866666666667 230.4 341.3333333333334H277.3333333333333V277.3333333333334H341.3333333333333M426.6666666666667 405.3333333333334H85.3333333333333C61.6533333333333 405.3333333333334 42.6666666666667 386.3466666666667 42.6666666666667 362.6666666666667V21.3333333333334C42.6666666666667 -2.1333333333333 61.8666666666667 -21.3333333333333 85.3333333333333 -21.3333333333333H426.6666666666667C450.1333333333334 -21.3333333333333 469.3333333333333 -2.1333333333333 469.3333333333333 21.3333333333334V362.6666666666667C469.3333333333333 386.3466666666667 450.1333333333334 405.3333333333333 426.6666666666667 405.3333333333333z" /></svg>