<?xml version="1.0" encoding="UTF-8"?><!DOCTYPE svg PUBLIC "-//W3C//DTD SVG 1.1//EN" "http://www.w3.org/Graphics/SVG/1.1/DTD/svg11.dtd"><svg xmlns="http://www.w3.org/2000/svg" xmlns:xlink="http://www.w3.org/1999/xlink" version="1.1" width="512" height="512" viewBox="0 0 512 512">    <path fill="#ffffff" transform="scale(1, -1) translate(0, -448)" glyph-name="server" unicode="&#xF48B;" horiz-adv-x="512" d=" M85.3333333333333 426.6666666666667H426.6666666666667C438.4 426.6666666666667 448 417.0666666666667 448 405.3333333333333V320C448 308.2666666666667 438.4 298.6666666666667 426.6666666666667 298.6666666666667H85.3333333333333C73.6 298.6666666666667 64 308.2666666666667 64 320V405.3333333333333C64 417.0666666666667 73.6 426.6666666666667 85.3333333333333 426.6666666666667M85.3333333333333 256H426.6666666666667C438.4 256 448 246.4000000000001 448 234.6666666666667V149.3333333333334C448 137.6 438.4 128 426.6666666666667 128H85.3333333333333C73.6 128 64 137.6 64 149.3333333333334V234.6666666666667C64 246.4000000000001 73.6 256 85.3333333333333 256M85.3333333333333 85.3333333333334H426.6666666666667C438.4 85.3333333333334 448 75.7333333333334 448 64V-21.3333333333333C448 -33.0666666666667 438.4 -42.6666666666666 426.6666666666667 -42.6666666666666H85.3333333333333C73.6 -42.6666666666666 64 -33.0666666666667 64 -21.3333333333333V64C64 75.7333333333334 73.6 85.3333333333334 85.3333333333333 85.3333333333334M192 341.3333333333334H213.3333333333333V384H192V341.3333333333334M192 170.6666666666667H213.3333333333333V213.3333333333334H192V170.6666666666667M192 0H213.3333333333333V42.6666666666667H192V0M106.6666666666667 384V341.3333333333334H149.3333333333333V384H106.6666666666667M106.6666666666667 213.3333333333334V170.6666666666667H149.3333333333333V213.3333333333334H106.6666666666667M106.6666666666667 42.6666666666667V0H149.3333333333333V42.6666666666667H106.6666666666667z" /></svg>