<?xml version="1.0" encoding="UTF-8"?><!DOCTYPE svg PUBLIC "-//W3C//DTD SVG 1.1//EN" "http://www.w3.org/Graphics/SVG/1.1/DTD/svg11.dtd"><svg xmlns="http://www.w3.org/2000/svg" xmlns:xlink="http://www.w3.org/1999/xlink" version="1.1" width="512" height="512" viewBox="0 0 512 512">    <path fill="#ffffff" transform="scale(1, -1) translate(0, -448)" glyph-name="biathlon" unicode="&#xFDF7;" horiz-adv-x="512" d=" M274.7733333333333 370.3466666666667C291.2 370.3466666666667 304.64 356.9066666666667 304.64 340.48C304.64 324.0533333333334 291.2 310.6133333333334 274.7733333333333 310.6133333333334C258.3466666666667 310.6133333333334 245.3333333333333 324.0533333333334 245.3333333333333 340.48C245.3333333333333 356.9066666666667 258.3466666666667 370.3466666666667 274.7733333333333 370.3466666666667M320 170.6666666666667H352V42.6666666666667H320V170.6666666666667M320 266.6666666666667H352V234.6666666666667H320V266.6666666666667M214.1866666666667 392.5333333333334L170.6666666666667 404.48L129.28 264.9600000000001L83.2 204.3733333333333L152.96 184.1066666666667L214.1866666666667 392.5333333333334M419.6266666666667 52.2666666666668C411.9466666666667 44.1600000000001 402.7733333333334 32.0000000000001 392.5333333333334 27.7333333333335C382.0800000000001 23.0400000000001 374.1866666666667 21.3333333333334 362.6666666666668 21.3333333333334H288.0000000000001L286.5066666666667 85.3333333333334C286.2933333333334 88.9600000000002 285.2266666666667 92.3733333333334 283.3066666666668 96.0000000000001L232.1066666666667 186.8800000000001L250.8800000000001 245.3333333333335C263.2533333333334 222.9333333333334 277.3333333333334 197.7600000000001 278.6133333333334 195.6266666666668C281.8133333333334 192.0000000000001 286.9333333333334 189.2266666666668 292.0533333333334 189.2266666666668H339.2000000000001C348.8000000000001 189.2266666666668 356.4800000000001 196.9066666666667 356.4800000000001 206.5066666666668C356.4800000000001 215.4666666666668 349.4400000000001 222.7200000000001 340.4800000000001 223.3600000000001L304.8533333333334 226.1333333333334L264.5333333333333 298.6666666666667S256 311.04 237.6533333333334 311.04C219.0933333333334 311.04 213.3333333333333 302.0800000000001 209.7066666666667 289.7066666666667L128 21.3333333333334H64V-21.3333333333333H362.6666666666667C391.8933333333333 -21.3333333333333 416.64 -7.2533333333333 437.3333333333333 13.44L419.6266666666667 52.2666666666667M208 141.0133333333333L247.8933333333334 77.0133333333333L250.6666666666667 21.3333333333334H165.3333333333334L208 141.0133333333333z" /></svg>