<?xml version="1.0" encoding="UTF-8"?><!DOCTYPE svg PUBLIC "-//W3C//DTD SVG 1.1//EN" "http://www.w3.org/Graphics/SVG/1.1/DTD/svg11.dtd"><svg xmlns="http://www.w3.org/2000/svg" xmlns:xlink="http://www.w3.org/1999/xlink" version="1.1" width="512" height="512" viewBox="0 0 512 512">    <path fill="#ffffff" transform="scale(1, -1) translate(0, -448)" glyph-name="vector-curve" unicode="&#xF559;" horiz-adv-x="512" d=" M394.6666666666667 405.3333333333333C412.3733333333333 405.3333333333333 426.6666666666667 391.04 426.6666666666667 373.3333333333334S412.3733333333333 341.3333333333334 394.6666666666667 341.3333333333334C389.76 341.3333333333334 385.0666666666667 342.4 380.8 344.5333333333334L302.0800000000001 265.6L309.3333333333334 256C356.0533333333334 282.88 410.88 298.6666666666667 469.3333333333333 298.6666666666667L490.6666666666666 298.0266666666667V255.1466666666667L469.3333333333333 256C414.2933333333334 256 362.6666666666667 240 320 212.48C320 165.7600000000001 282.24 128 235.52 128C208 85.3333333333334 192 33.7066666666667 192 -21.3333333333333L192.8533333333333 -42.6666666666666H149.9733333333333L149.3333333333333 -21.3333333333333C149.3333333333333 37.1200000000001 165.12 91.9466666666667 192 138.6666666666667L182.4 145.92L103.4666666666667 67.2C105.6 62.9333333333333 106.6666666666667 58.24 106.6666666666667 53.3333333333334C106.6666666666667 35.6266666666667 92.3733333333334 21.3333333333334 74.6666666666667 21.3333333333334S42.6666666666667 35.6266666666667 42.6666666666667 53.3333333333334S56.96 85.3333333333334 74.6666666666667 85.3333333333334C79.5733333333333 85.3333333333334 84.2666666666667 84.2666666666667 88.5333333333333 82.1333333333334L167.2533333333333 161.0666666666667C155.9466666666667 175.36 149.3333333333333 193.7066666666667 149.3333333333333 213.3333333333334C149.3333333333333 260.48 187.52 298.6666666666667 234.6666666666667 298.6666666666667C254.2933333333333 298.6666666666667 272.64 292.0533333333334 286.9333333333333 280.7466666666667L365.8666666666666 359.4666666666667C363.7333333333333 363.7333333333334 362.6666666666667 368.4266666666667 362.6666666666667 373.3333333333333C362.6666666666667 391.04 376.9600000000001 405.3333333333333 394.6666666666667 405.3333333333333M234.6666666666667 256C211.2 256 192 236.8 192 213.3333333333334S211.2 170.6666666666667 234.6666666666667 170.6666666666667S277.3333333333333 189.8666666666667 277.3333333333333 213.3333333333334S258.1333333333334 256 234.6666666666667 256z" /></svg>