<?xml version="1.0" encoding="UTF-8"?><!DOCTYPE svg PUBLIC "-//W3C//DTD SVG 1.1//EN" "http://www.w3.org/Graphics/SVG/1.1/DTD/svg11.dtd"><svg xmlns="http://www.w3.org/2000/svg" xmlns:xlink="http://www.w3.org/1999/xlink" version="1.1" width="512" height="512" viewBox="0 0 512 512">    <path fill="#ffffff" transform="scale(1, -1) translate(0, -448)" glyph-name="briefcase-search" unicode="&#xFA2C;" horiz-adv-x="512" d=" M352 192C405.3333333333333 192 448 149.3333333333334 448 96C448 77.2266666666667 442.6666666666667 59.52 433.28 44.8000000000001L498.9866666666667 -21.3333333333333L469.3333333333333 -50.9866666666667L402.7733333333333 14.5066666666667C388.0533333333333 5.3333333333334 370.56 0 352 0C298.6666666666667 0 256 42.6666666666667 256 96S298.6666666666667 192 352 192M352 149.3333333333334C322.56 149.3333333333334 298.6666666666667 125.44 298.6666666666667 96S322.56 42.6666666666667 352 42.6666666666667S405.3333333333333 66.5600000000001 405.3333333333333 96S381.44 149.3333333333334 352 149.3333333333334M213.3333333333333 405.3333333333333H298.6666666666667C322.1333333333334 405.3333333333333 341.3333333333333 386.1333333333334 341.3333333333333 362.6666666666667V320H426.6666666666667C450.1333333333334 320 469.3333333333333 300.8 469.3333333333333 277.3333333333334V170.0266666666667C444.8 208.8533333333333 401.4933333333334 234.6666666666667 352 234.6666666666667C275.4133333333333 234.6666666666667 213.3333333333333 172.5866666666667 213.3333333333333 96C213.3333333333333 58.6666666666667 228.0533333333333 24.96 251.9466666666667 0H85.3333333333333C61.6533333333333 0 42.6666666666667 19.2 42.6666666666667 42.6666666666667V277.3333333333334C42.6666666666667 301.0133333333333 61.6533333333333 320 85.3333333333333 320H170.6666666666667V362.6666666666667C170.6666666666667 386.3466666666667 189.6533333333333 405.3333333333333 213.3333333333333 405.3333333333333M298.6666666666667 320V362.6666666666667H213.3333333333333V320H298.6666666666667z" /></svg>