<?xml version="1.0" encoding="UTF-8"?><!DOCTYPE svg PUBLIC "-//W3C//DTD SVG 1.1//EN" "http://www.w3.org/Graphics/SVG/1.1/DTD/svg11.dtd"><svg xmlns="http://www.w3.org/2000/svg" xmlns:xlink="http://www.w3.org/1999/xlink" version="1.1" width="512" height="512" viewBox="0 0 512 512">    <path fill="#ffffff" transform="scale(1, -1) translate(0, -448)" glyph-name="map" unicode="&#xF34D;" horiz-adv-x="512" d=" M320 42.6666666666667L192 87.68V341.3333333333334L320 296.3200000000001M437.3333333333333 384H433.92L320 339.2000000000001L192 384L71.68 343.4666666666667C67.2 341.9733333333334 64 338.1333333333334 64 333.2266666666667V10.6666666666667C64 4.6933333333333 68.6933333333333 0 74.6666666666667 0C75.7333333333333 0 77.0133333333333 0 78.08 0.64L192 44.8000000000001L320 0L440.32 40.5333333333333C444.8 42.6666666666667 448 45.8666666666667 448 50.7733333333333V373.3333333333334C448 379.3066666666667 443.3066666666667 384 437.3333333333333 384z" /></svg>