<?xml version="1.0" encoding="UTF-8"?><!DOCTYPE svg PUBLIC "-//W3C//DTD SVG 1.1//EN" "http://www.w3.org/Graphics/SVG/1.1/DTD/svg11.dtd"><svg xmlns="http://www.w3.org/2000/svg" xmlns:xlink="http://www.w3.org/1999/xlink" version="1.1" width="512" height="512" viewBox="0 0 512 512">    <path fill="#ffffff" transform="scale(1, -1) translate(0, -448)" glyph-name="bug-check-outline" unicode="&#xFA2E;" horiz-adv-x="512" d=" M384 298.6666666666667H324.0533333333333C314.4533333333333 315.7333333333334 301.2266666666667 330.6666666666667 285.2266666666667 341.3333333333334L320 375.2533333333334L289.92 405.3333333333333L243.6266666666667 359.04C233.8133333333334 361.3866666666667 224 362.6666666666667 213.3333333333333 362.6666666666667C202.6666666666667 362.6666666666667 193.0666666666667 361.3866666666667 183.2533333333333 359.04L136.7466666666667 405.3333333333333L106.6666666666667 375.2533333333334L141.2266666666667 341.3333333333334C125.2266666666667 330.6666666666667 112.2133333333333 315.52 102.6133333333334 298.6666666666667H42.6666666666667V256H87.2533333333333C85.9733333333333 248.96 85.3333333333333 241.92 85.3333333333333 234.6666666666667V213.3333333333334H42.6666666666667V170.6666666666667H85.3333333333333V149.3333333333334C85.3333333333333 142.0800000000001 85.9733333333333 135.04 87.2533333333333 128H42.6666666666667V85.3333333333334H102.6133333333334C133.5466666666667 32 197.9733333333334 8.3200000000001 256 28.8000000000001V42.6666666666667C256 54.8266666666667 257.92 66.9866666666667 261.3333333333333 78.72C247.2533333333334 69.1200000000001 230.4 64 213.3333333333333 64C166.1866666666667 64 128 102.1866666666667 128 149.3333333333334V234.6666666666667C128 281.8133333333334 166.1866666666667 320 213.3333333333333 320S298.6666666666667 281.8133333333334 298.6666666666667 234.6666666666667V149.3333333333334C298.6666666666667 145.28 298.6666666666667 141.0133333333333 297.6 136.96C310.1866666666666 148.48 325.12 157.44 341.3333333333333 163.2000000000001V170.6666666666667H384V213.3333333333334H341.3333333333333V234.6666666666667C341.3333333333333 241.92 340.6933333333334 248.96 339.4133333333333 256H384V298.6666666666667M455.2533333333333 106.6666666666667L378.6666666666667 30.08L344.7466666666667 64L320 39.2533333333333L378.6666666666667 -24.7466666666667L480 76.5866666666667L455.2533333333333 106.6666666666667M256 256V213.3333333333334H170.6666666666667V256H256M256 170.6666666666667V128H170.6666666666667V170.6666666666667H256z" /></svg>