<?xml version="1.0" encoding="UTF-8"?><!DOCTYPE svg PUBLIC "-//W3C//DTD SVG 1.1//EN" "http://www.w3.org/Graphics/SVG/1.1/DTD/svg11.dtd"><svg xmlns="http://www.w3.org/2000/svg" xmlns:xlink="http://www.w3.org/1999/xlink" version="1.1" width="512" height="512" viewBox="0 0 512 512">    <path fill="#ffffff" transform="scale(1, -1) translate(0, -448)" glyph-name="internet-explorer" unicode="&#xF300;" horiz-adv-x="512" d=" M277.3333333333333 384L298.6666666666667 382.7200000000001C358.4 409.8133333333334 410.24 413.0133333333333 437.3333333333333 385.7066666666667C458.6666666666666 364.1600000000001 460.3733333333333 327.04 446.2933333333334 283.3066666666667C461.0133333333333 256 469.3333333333333 225.0666666666667 469.3333333333333 192L468.2666666666667 170.6666666666667H193.7066666666667C201.6 122.0266666666667 235.9466666666667 85.3333333333334 277.3333333333333 85.3333333333334C305.28 85.3333333333334 330.0266666666667 102.1866666666667 345.6 128H458.6666666666666C432 53.3333333333334 360.9600000000001 0 277.3333333333333 0C250.0266666666667 0 224 5.76 200.7466666666667 16C138.6666666666667 -14.5066666666667 82.9866666666667 -19.1999999999999 54.8266666666667 9.3866666666667C21.3333333333333 43.52 35.84 115.84 85.3333333333333 192C105.1733333333333 223.1466666666667 130.9866666666667 254.72 161.4933333333334 284.8L178.7733333333334 301.2266666666667C153.8133333333333 286.5066666666667 121.8133333333334 264.1066666666667 89.3866666666667 231.04C107.3066666666667 318.2933333333334 184.7466666666667 384 277.3333333333333 384M277.3333333333333 298.6666666666667C239.1466666666667 298.6666666666667 206.72 267.3066666666667 195.84 224H358.8266666666667C347.9466666666666 267.3066666666667 315.52 298.6666666666667 277.3333333333333 298.6666666666667M427.9466666666666 361.3866666666667C413.8666666666666 375.68 388.6933333333333 376.5333333333333 357.12 366.7200000000001C388.6933333333333 352 416 329.3866666666667 435.4133333333333 301.0133333333333C442.2399999999999 327.4666666666667 440.32 348.8 427.9466666666666 361.3866666666667M82.9866666666667 21.3333333333334C100.6933333333333 3.4133333333334 136.5333333333333 6.6133333333333 180.0533333333333 26.4533333333333C140.5866666666667 49.7066666666667 110.2933333333333 86.6133333333334 95.36 130.56C69.76 82.1333333333334 64 41.1733333333333 82.9866666666667 21.3333333333334z" /></svg>