<?xml version="1.0" encoding="UTF-8"?><!DOCTYPE svg PUBLIC "-//W3C//DTD SVG 1.1//EN" "http://www.w3.org/Graphics/SVG/1.1/DTD/svg11.dtd"><svg xmlns="http://www.w3.org/2000/svg" xmlns:xlink="http://www.w3.org/1999/xlink" version="1.1" width="512" height="512" viewBox="0 0 512 512">    <path fill="#ffffff" transform="scale(1, -1) translate(0, -448)" glyph-name="vector-ellipse" unicode="&#xF892;" horiz-adv-x="512" d=" M490.6666666666666 256V128H434.1333333333334C413.4400000000001 82.7733333333333 371.84 47.36 320 31.1466666666667V-21.3333333333333H192V31.1466666666667C117.3333333333333 54.4 64 117.3333333333334 64 192C64 286.2933333333334 149.9733333333333 362.6666666666667 256 362.6666666666667C336.64 362.6666666666667 405.3333333333333 318.5066666666667 434.1333333333334 256H490.6666666666666M362.6666666666667 128V256H385.28C359.4666666666667 294.1866666666667 311.2533333333334 320 256 320C173.44 320 106.6666666666667 262.6133333333334 106.6666666666667 192C106.6666666666667 141.0133333333333 141.6533333333333 96.8533333333334 192 76.3733333333333V106.6666666666667H320V76.3733333333333C347.52 87.4666666666666 370.1333333333334 105.6 385.28 128H362.6666666666667M405.3333333333333 170.6666666666666H448V213.3333333333333H405.3333333333333V170.6666666666666M234.6666666666667 21.3333333333334H277.3333333333333V64H234.6666666666667V21.3333333333334z" /></svg>