<?xml version="1.0" encoding="UTF-8"?><!DOCTYPE svg PUBLIC "-//W3C//DTD SVG 1.1//EN" "http://www.w3.org/Graphics/SVG/1.1/DTD/svg11.dtd"><svg xmlns="http://www.w3.org/2000/svg" xmlns:xlink="http://www.w3.org/1999/xlink" version="1.1" width="512" height="512" viewBox="0 0 512 512">    <path fill="#ffffff" transform="scale(1, -1) translate(0, -448)" glyph-name="plus-circle-outline" unicode="&#xF419;" horiz-adv-x="512" d=" M256 21.3333333333334C161.92 21.3333333333334 85.3333333333333 97.92 85.3333333333333 192S161.92 362.6666666666667 256 362.6666666666667S426.6666666666667 286.0800000000001 426.6666666666667 192S350.08 21.3333333333334 256 21.3333333333334M256 405.3333333333333C138.24 405.3333333333333 42.6666666666667 309.76 42.6666666666667 192S138.24 -21.3333333333333 256 -21.3333333333333S469.3333333333333 74.24 469.3333333333333 192S373.76 405.3333333333333 256 405.3333333333333M277.3333333333333 298.6666666666667H234.6666666666667V213.3333333333334H149.3333333333333V170.6666666666667H234.6666666666667V85.3333333333334H277.3333333333333V170.6666666666667H362.6666666666667V213.3333333333334H277.3333333333333V298.6666666666667z" /></svg>