<?xml version="1.0" encoding="UTF-8"?><!DOCTYPE svg PUBLIC "-//W3C//DTD SVG 1.1//EN" "http://www.w3.org/Graphics/SVG/1.1/DTD/svg11.dtd"><svg xmlns="http://www.w3.org/2000/svg" xmlns:xlink="http://www.w3.org/1999/xlink" version="1.1" width="512" height="512" viewBox="0 0 512 512">    <path fill="#ffffff" transform="scale(1, -1) translate(0, -448)" glyph-name="view-comfy" unicode="&#xFE4D;" horiz-adv-x="512" d=" M64 256H149.3333333333333V341.3333333333334H64V256M64 149.3333333333334H149.3333333333333V234.6666666666667H64V149.3333333333334M170.6666666666667 149.3333333333334H256V234.6666666666667H170.6666666666667V149.3333333333334M277.3333333333333 149.3333333333334H362.6666666666667V234.6666666666667H277.3333333333333V149.3333333333334M170.6666666666667 256H256V341.3333333333334H170.6666666666667V256M277.3333333333333 341.3333333333334V256H362.6666666666667V341.3333333333334H277.3333333333333M384 149.3333333333334H469.3333333333333V234.6666666666667H384V149.3333333333334M64 42.6666666666667H149.3333333333333V128H64V42.6666666666667M170.6666666666667 42.6666666666667H256V128H170.6666666666667V42.6666666666667M277.3333333333333 42.6666666666667H362.6666666666667V128H277.3333333333333V42.6666666666667M384 42.6666666666667H469.3333333333333V128H384V42.6666666666667M384 341.3333333333334V256H469.3333333333333V341.3333333333334H384z" /></svg>