<?xml version="1.0" encoding="UTF-8"?><!DOCTYPE svg PUBLIC "-//W3C//DTD SVG 1.1//EN" "http://www.w3.org/Graphics/SVG/1.1/DTD/svg11.dtd"><svg xmlns="http://www.w3.org/2000/svg" xmlns:xlink="http://www.w3.org/1999/xlink" version="1.1" width="512" height="512" viewBox="0 0 512 512">    <path fill="#ffffff" transform="scale(1, -1) translate(0, -448)" glyph-name="file-compare" unicode="&#xF8A9;" horiz-adv-x="512" d=" M213.3333333333333 64H128V106.6666666666667H213.3333333333333V64M213.3333333333333 149.3333333333334H128V192H213.3333333333333V149.3333333333334M213.3333333333333 426.6666666666667V405.3333333333333H128C104.32 405.3333333333333 85.3333333333333 386.3466666666667 85.3333333333333 362.6666666666667V21.3333333333334C85.3333333333333 -2.1333333333333 104.5333333333333 -21.3333333333333 128 -21.3333333333333H213.3333333333333V-42.6666666666666H256V426.6666666666667H213.3333333333333M426.6666666666667 277.3333333333334V21.3333333333334C426.6666666666667 -2.3466666666666 407.68 -21.3333333333333 384 -21.3333333333333H298.6666666666667V21.3333333333334H384V213.3333333333334H298.6666666666667V256H394.6666666666667L298.6666666666667 352V405.3333333333333L426.6666666666667 277.3333333333334M341.3333333333333 149.3333333333334H298.6666666666667V192H341.3333333333333V149.3333333333334M341.3333333333333 64H298.6666666666667V106.6666666666667H341.3333333333333V64z" /></svg>