<?xml version="1.0" encoding="UTF-8"?><!DOCTYPE svg PUBLIC "-//W3C//DTD SVG 1.1//EN" "http://www.w3.org/Graphics/SVG/1.1/DTD/svg11.dtd"><svg xmlns="http://www.w3.org/2000/svg" xmlns:xlink="http://www.w3.org/1999/xlink" version="1.1" width="512" height="512" viewBox="0 0 512 512">    <path fill="#ffffff" transform="scale(1, -1) translate(0, -448)" glyph-name="xamarin" unicode="&#xF844;" horiz-adv-x="512" d=" M485.3333333333333 211.84C488.7466666666667 205.8666666666667 490.6666666666666 199.04 490.6666666666666 192C490.6666666666666 184.96 488.7466666666667 178.1333333333333 485.3333333333333 172.16L385.7066666666666 0C378.0266666666667 -13.2266666666667 363.9466666666666 -21.3333333333333 348.8 -21.3333333333333H163.2C148.0533333333333 -21.3333333333333 133.9733333333333 -13.2266666666667 126.2933333333333 0L26.6666666666666 172.16C23.2533333333333 178.1333333333333 21.3333333333333 184.96 21.3333333333333 192C21.3333333333333 199.04 23.2533333333333 205.8666666666667 26.6666666666666 211.84L126.2933333333333 384C133.9733333333333 397.2266666666667 148.0533333333333 405.3333333333333 163.2 405.3333333333333H348.8C363.9466666666667 405.3333333333333 378.0266666666667 397.2266666666667 385.7066666666667 384L485.3333333333333 211.84M256 192V194.1333333333333L200.96 296.5333333333334L197.3333333333333 298.6666666666667H163.4133333333333L160 296.5333333333334V292.2666666666667L213.3333333333333 192L160 91.7333333333334V87.4666666666667L163.4133333333333 85.3333333333334H197.3333333333333L200.96 87.4666666666667L256 189.8666666666667V192L256.64 189.8666666666667L311.04 87.4666666666667L314.6666666666667 85.3333333333334H348.5866666666667L352 87.4666666666667V91.7333333333334L298.6666666666667 192L352 292.2666666666667V296.5333333333334L348.5866666666667 298.6666666666667H314.6666666666667L311.04 296.5333333333334L256.64 194.1333333333334L256 192.0000000000001z" /></svg>