<?xml version="1.0" encoding="UTF-8"?><!DOCTYPE svg PUBLIC "-//W3C//DTD SVG 1.1//EN" "http://www.w3.org/Graphics/SVG/1.1/DTD/svg11.dtd"><svg xmlns="http://www.w3.org/2000/svg" xmlns:xlink="http://www.w3.org/1999/xlink" version="1.1" width="512" height="512" viewBox="0 0 512 512">    <path fill="#ffffff" transform="scale(1, -1) translate(0, -448)" glyph-name="box-cutter" unicode="&#xF0D5;" horiz-adv-x="512" d=" M154.0266666666667 193.92C146.9866666666667 186.88 143.1466666666667 178.1333333333333 142.08 168.96L259.6266666666667 118.6133333333334L440.7466666666667 299.5200000000001C457.3866666666667 316.3733333333334 457.3866666666667 343.2533333333334 440.7466666666667 359.8933333333334L410.4533333333334 390.1866666666667C393.8133333333334 406.8266666666667 366.9333333333334 406.8266666666667 350.0800000000001 390.1866666666667L154.0266666666668 193.9200000000001M106.6666666666667 106.6666666666667V-16L230.6133333333333 95.36L123.9466666666666 138.0266666666667L106.6666666666667 106.6666666666667M365.2266666666667 344.9600000000001C373.3333333333333 353.28 387.2000000000001 353.28 395.52 344.9600000000001C403.84 336.4266666666667 403.84 322.9866666666667 395.52 314.6666666666667C387.2 306.3466666666667 373.3333333333333 306.3466666666667 365.2266666666666 314.6666666666667C356.9066666666666 322.9866666666667 356.9066666666666 336.4266666666667 365.2266666666666 344.9600000000001z" /></svg>