<?xml version="1.0" encoding="UTF-8"?><!DOCTYPE svg PUBLIC "-//W3C//DTD SVG 1.1//EN" "http://www.w3.org/Graphics/SVG/1.1/DTD/svg11.dtd"><svg xmlns="http://www.w3.org/2000/svg" xmlns:xlink="http://www.w3.org/1999/xlink" version="1.1" width="512" height="512" viewBox="0 0 512 512">    <path fill="#ffffff" transform="scale(1, -1) translate(0, -448)" glyph-name="border-vertical" unicode="&#xF0D2;" horiz-adv-x="512" d=" M320 170.6666666666667H362.6666666666667V213.3333333333334H320M320 0H362.6666666666667V42.6666666666667H320M320 341.3333333333334H362.6666666666667V384H320M405.3333333333333 256H448V298.6666666666667H405.3333333333333M405.3333333333333 341.3333333333334H448V384H405.3333333333333M405.3333333333333 170.6666666666667H448V213.3333333333334H405.3333333333333M405.3333333333333 0H448V42.6666666666667H405.3333333333333M234.6666666666667 0H277.3333333333333V384H234.6666666666667M405.3333333333333 85.3333333333334H448V128H405.3333333333333M149.3333333333333 341.3333333333334H192V384H149.3333333333333M64 85.3333333333334H106.6666666666667V128H64M64 0H106.6666666666667V42.6666666666667H64M64 170.6666666666667H106.6666666666667V213.3333333333334H64M149.3333333333333 170.6666666666667H192V213.3333333333334H149.3333333333333M149.3333333333333 0H192V42.6666666666667H149.3333333333333M64 341.3333333333334H106.6666666666667V384H64M64 256H106.6666666666667V298.6666666666667H64V256z" /></svg>