<?xml version="1.0" encoding="UTF-8"?><!DOCTYPE svg PUBLIC "-//W3C//DTD SVG 1.1//EN" "http://www.w3.org/Graphics/SVG/1.1/DTD/svg11.dtd"><svg xmlns="http://www.w3.org/2000/svg" xmlns:xlink="http://www.w3.org/1999/xlink" version="1.1" width="512" height="512" viewBox="0 0 512 512">    <path fill="#ffffff" transform="scale(1, -1) translate(0, -448)" glyph-name="account-multiple-outline" unicode="&#xF00F;" horiz-adv-x="512" d=" M192 362.6666666666667C239.1466666666667 362.6666666666667 277.3333333333333 324.48 277.3333333333333 277.3333333333334S239.1466666666667 192 192 192S106.6666666666667 230.1866666666667 106.6666666666667 277.3333333333334S144.8533333333333 362.6666666666667 192 362.6666666666667M192 320C168.5333333333333 320 149.3333333333333 300.8 149.3333333333333 277.3333333333334S168.5333333333333 234.6666666666667 192 234.6666666666667S234.6666666666667 253.8666666666667 234.6666666666667 277.3333333333334S215.4666666666667 320 192 320M192 170.6666666666667C248.96 170.6666666666667 362.6666666666667 142.0800000000001 362.6666666666667 85.3333333333334V21.3333333333334H21.3333333333333V85.3333333333334C21.3333333333333 142.0800000000001 135.04 170.6666666666667 192 170.6666666666667M192 130.1333333333333C128.64 130.1333333333333 61.8666666666667 98.9866666666667 61.8666666666667 85.3333333333334V61.8666666666667H322.1333333333334V85.3333333333334C322.1333333333334 98.9866666666667 255.36 130.1333333333333 192 130.1333333333333M320 362.6666666666667C367.1466666666667 362.6666666666667 405.3333333333333 324.48 405.3333333333333 277.3333333333334S367.1466666666667 192 320 192C309.9733333333333 192 300.3733333333334 193.7066666666667 291.6266666666667 196.9066666666667C309.3333333333333 218.88 320 246.8266666666667 320 277.3333333333334C320 307.8400000000001 309.3333333333333 335.7866666666667 291.6266666666667 357.76C300.3733333333334 360.9600000000001 309.9733333333333 362.6666666666667 320 362.6666666666667M490.6666666666666 85.3333333333334V21.3333333333334H405.3333333333333V96C405.3333333333333 122.6666666666667 389.12 147.2000000000001 362.0266666666667 166.8266666666667C419.84 157.4400000000001 490.6666666666666 130.1333333333333 490.6666666666666 85.3333333333334z" /></svg>