<?xml version="1.0" encoding="UTF-8"?><!DOCTYPE svg PUBLIC "-//W3C//DTD SVG 1.1//EN" "http://www.w3.org/Graphics/SVG/1.1/DTD/svg11.dtd"><svg xmlns="http://www.w3.org/2000/svg" xmlns:xlink="http://www.w3.org/1999/xlink" version="1.1" width="512" height="512" viewBox="0 0 512 512">    <path fill="#ffffff" transform="scale(1, -1) translate(0, -448)" glyph-name="whatsapp" unicode="&#xF5A3;" horiz-adv-x="512" d=" M357.3333333333333 150.1866666666667C362.6666666666667 147.4133333333333 366.08 145.92 367.1466666666667 143.7866666666666C368.4266666666666 141.44 368 130.7733333333333 362.6666666666667 118.6133333333334C358.4 106.6666666666667 336.2133333333333 95.1466666666667 326.4 94.72C316.5866666666667 94.2933333333333 316.3733333333334 87.04 263.2533333333334 110.2933333333333C210.1333333333333 133.5466666666666 178.1333333333333 190.2933333333333 175.5733333333333 193.92C173.0133333333334 197.5466666666666 155.0933333333333 223.36 155.9466666666667 249.6C157.0133333333333 275.6266666666667 170.6666666666667 288 176.2133333333333 293.12C181.3333333333333 298.6666666666667 187.0933333333333 299.3066666666666 190.72 298.6666666666667H200.7466666666667C203.9466666666667 298.6666666666667 208.4266666666667 299.9466666666666 212.48 289.0666666666666L227.2 249.1733333333333C228.48 246.3999999999999 229.3333333333333 243.2 227.4133333333334 239.7866666666666L221.6533333333333 231.04L213.3333333333333 222.0799999999999C210.7733333333334 219.52 207.7866666666667 216.7466666666666 210.7733333333334 211.4133333333333C213.3333333333333 205.8666666666666 224 188.16 238.9333333333334 173.44C258.3466666666667 154.6666666666666 275.4133333333333 148.48 280.5333333333333 145.7066666666666C285.6533333333333 142.7199999999999 288.8533333333334 143.1466666666667 292.0533333333334 146.56L309.3333333333334 166.6133333333332C313.3866666666667 171.9466666666666 316.8 170.6666666666666 321.7066666666667 168.9599999999999L357.3333333333333 150.1866666666666M256 405.3333333333333C373.76 405.3333333333333 469.3333333333333 309.76 469.3333333333333 192S373.76 -21.3333333333333 256 -21.3333333333333C213.9733333333333 -21.3333333333333 174.9333333333333 -9.1733333333333 141.8666666666667 11.7333333333333L42.6666666666667 -21.3333333333333L75.7333333333333 77.8666666666667C54.8266666666667 110.9333333333333 42.6666666666667 149.9733333333334 42.6666666666667 192C42.6666666666667 309.76 138.24 405.3333333333333 256 405.3333333333333M256 362.6666666666667C161.7066666666667 362.6666666666667 85.3333333333333 286.2933333333334 85.3333333333333 192C85.3333333333333 155.3066666666667 96.8533333333333 121.3866666666667 116.48 93.6533333333334L96 32L157.6533333333333 52.48C185.3866666666667 32.8533333333334 219.3066666666667 21.3333333333334 256 21.3333333333334C350.2933333333334 21.3333333333334 426.6666666666667 97.7066666666667 426.6666666666667 192S350.2933333333334 362.6666666666667 256 362.6666666666667z" /></svg>