<?xml version="1.0" encoding="UTF-8"?><!DOCTYPE svg PUBLIC "-//W3C//DTD SVG 1.1//EN" "http://www.w3.org/Graphics/SVG/1.1/DTD/svg11.dtd"><svg xmlns="http://www.w3.org/2000/svg" xmlns:xlink="http://www.w3.org/1999/xlink" version="1.1" width="512" height="512" viewBox="0 0 512 512">    <path fill="#ffffff" transform="scale(1, -1) translate(0, -448)" glyph-name="drupal" unicode="&#xF1E4;" horiz-adv-x="512" d=" M436.6933333333333 135.4666666666667C436.6933333333333 121.8133333333333 432 98.9866666666667 423.04 83.2C413.8666666666666 67.2 407.04 62.72 393.3866666666666 62.72C377.6 65.0666666666666 347.9466666666666 110.5066666666667 327.68 112.64C302.5066666666666 112.64 250.2399999999999 60.3733333333333 207.1466666666666 60.3733333333333C182.1866666666666 60.3733333333333 173.0133333333333 65.0666666666666 166.1866666666666 69.5466666666666C152.5333333333333 78.72 148.0533333333333 92.3733333333333 148.0533333333333 110.5066666666667C148.0533333333333 144.64 179.84 174.08 218.4533333333333 174.08C268.5866666666666 174.08 302.5066666666666 124.16 327.68 126.2933333333333C347.9466666666666 126.2933333333333 388.9066666666667 167.2533333333333 409.3866666666666 167.2533333333333C429.8666666666666 171.7333333333334 436.6933333333333 149.3333333333333 436.6933333333333 135.4666666666667M354.7733333333333 335.36C332.16 349.0133333333333 311.68 355.8399999999999 288.8533333333333 369.4933333333333C275.4133333333333 378.6666666666667 257.0666666666666 398.9333333333333 241.28 417.28C234.6666666666667 387.6266666666666 229.9733333333333 376.32 218.4533333333333 367.1466666666667C195.84 351.36 184.32 344.5333333333333 164.0533333333333 335.36C148.0533333333334 326.4 64 276.2666666666667 64 167.2533333333333C64 58.24 157.2266666666667 -21.3333333333333 257.0666666666667 -21.3333333333333C359.4666666666667 -21.3333333333333 448 53.3333333333334 448 164.9066666666667C452.48 276.2666666666667 368.4266666666666 326.4000000000001 354.7733333333333 335.36z" /></svg>