<?xml version="1.0" encoding="UTF-8"?><!DOCTYPE svg PUBLIC "-//W3C//DTD SVG 1.1//EN" "http://www.w3.org/Graphics/SVG/1.1/DTD/svg11.dtd"><svg xmlns="http://www.w3.org/2000/svg" xmlns:xlink="http://www.w3.org/1999/xlink" version="1.1" width="512" height="512" viewBox="0 0 512 512">    <path fill="#ffffff" transform="scale(1, -1) translate(0, -448)" glyph-name="robot-vacuum" unicode="&#xF70C;" horiz-adv-x="512" d=" M256 405.3333333333333C312.5333333333333 405.3333333333333 366.7200000000001 382.7200000000001 406.8266666666667 342.8266666666667L376.5333333333333 312.5333333333334C344.5333333333333 344.5333333333334 301.2266666666667 362.6666666666667 256 362.6666666666667C210.7733333333333 362.6666666666667 167.2533333333333 344.7466666666667 135.4666666666667 312.5333333333334L105.1733333333333 342.8266666666667C145.28 382.7200000000001 199.4666666666667 405.3333333333333 256 405.3333333333333M78.08 309.3333333333334L109.0133333333333 278.6133333333334C93.6533333333333 252.3733333333334 85.3333333333333 222.5066666666667 85.3333333333333 192C85.3333333333333 97.7066666666667 161.7066666666667 21.3333333333334 256 21.3333333333334S426.6666666666667 97.7066666666667 426.6666666666667 192C426.6666666666667 222.5066666666667 418.3466666666667 252.3733333333334 402.7733333333333 278.6133333333334L433.92 309.3333333333334C456.96 274.7733333333334 469.3333333333333 233.8133333333334 469.3333333333333 192C469.3333333333333 74.24 373.76 -21.3333333333333 256 -21.3333333333333S42.6666666666667 74.24 42.6666666666667 192C42.6666666666667 233.8133333333334 55.04 274.7733333333333 78.08 309.3333333333334M256 320C326.6133333333334 320 384 262.6133333333334 384 192C384 158.0800000000001 370.56 125.44 346.4533333333333 101.5466666666666L316.3733333333333 131.6266666666667C300.3733333333334 115.6266666666667 278.6133333333334 106.6666666666667 256 106.6666666666667S211.6266666666667 115.6266666666667 195.6266666666667 131.6266666666667L165.5466666666667 101.5466666666667C141.44 125.4400000000001 128 158.0800000000001 128 192C128 262.6133333333334 185.3866666666667 320 256 320M256 277.3333333333334C244.2666666666667 277.3333333333334 234.6666666666667 267.7333333333334 234.6666666666667 256S244.2666666666667 234.6666666666667 256 234.6666666666667S277.3333333333333 244.2666666666667 277.3333333333333 256S267.7333333333334 277.3333333333334 256 277.3333333333334z" /></svg>