<?xml version="1.0" encoding="UTF-8"?><!DOCTYPE svg PUBLIC "-//W3C//DTD SVG 1.1//EN" "http://www.w3.org/Graphics/SVG/1.1/DTD/svg11.dtd"><svg xmlns="http://www.w3.org/2000/svg" xmlns:xlink="http://www.w3.org/1999/xlink" version="1.1" width="512" height="512" viewBox="0 0 512 512">    <path fill="#ffffff" transform="scale(1, -1) translate(0, -448)" glyph-name="check-decagram" unicode="&#xF790;" horiz-adv-x="512" d=" M490.6666666666666 192L438.6133333333333 251.3066666666667L445.8666666666666 329.8133333333334L368.8533333333333 347.3066666666667L328.5333333333333 415.1466666666667L256 384L183.4666666666667 415.1466666666667L143.1466666666667 347.3066666666667L66.1333333333333 330.0266666666667L73.3866666666667 251.5200000000001L21.3333333333333 192L73.3866666666667 132.6933333333334L66.1333333333333 53.9733333333334L143.1466666666667 36.48L183.4666666666667 -31.36L256 0L328.5333333333333 -31.1466666666666L368.8533333333333 36.6933333333333L445.8666666666666 54.1866666666667L438.6133333333333 132.6933333333333L490.6666666666666 192M213.3333333333333 85.3333333333334L128 170.6666666666667L158.08 200.7466666666667L213.3333333333333 145.7066666666667L353.92 286.2933333333334L384 256L213.3333333333333 85.3333333333334z" /></svg>