<?xml version="1.0" encoding="UTF-8"?><!DOCTYPE svg PUBLIC "-//W3C//DTD SVG 1.1//EN" "http://www.w3.org/Graphics/SVG/1.1/DTD/svg11.dtd"><svg xmlns="http://www.w3.org/2000/svg" xmlns:xlink="http://www.w3.org/1999/xlink" version="1.1" width="512" height="512" viewBox="0 0 512 512">    <path fill="#ffffff" transform="scale(1, -1) translate(0, -448)" glyph-name="mouse-variant" unicode="&#xF37F;" horiz-adv-x="512" d=" M298.6666666666667 298.6666666666667H213.3333333333333V403.2C261.9733333333333 393.3866666666667 298.6666666666667 350.2933333333334 298.6666666666667 298.6666666666667M85.3333333333333 298.6666666666667C85.3333333333333 350.2933333333334 122.0266666666667 393.3866666666667 170.6666666666667 403.2V298.6666666666667H85.3333333333333M298.6666666666667 192C298.6666666666667 140.3733333333333 261.9733333333333 97.28 213.3333333333333 87.4666666666667V64C213.3333333333333 28.5866666666667 241.92 0 277.3333333333333 0S341.3333333333333 28.5866666666667 341.3333333333333 64V170.6666666666667C341.3333333333333 217.8133333333334 379.52 256 426.6666666666667 256H469.3333333333333L448 234.6666666666667L469.3333333333333 213.3333333333334H426.6666666666667C403.2 213.3333333333334 384 194.1333333333333 384 170.6666666666667V64C384 5.1200000000001 336.2133333333333 -42.6666666666666 277.3333333333333 -42.6666666666666S170.6666666666667 5.1200000000001 170.6666666666667 64V87.4666666666667C122.0266666666667 97.2800000000001 85.3333333333333 140.3733333333334 85.3333333333333 192.0000000000001V256H298.6666666666667V192z" /></svg>