<?xml version="1.0" encoding="UTF-8"?><!DOCTYPE svg PUBLIC "-//W3C//DTD SVG 1.1//EN" "http://www.w3.org/Graphics/SVG/1.1/DTD/svg11.dtd"><svg xmlns="http://www.w3.org/2000/svg" xmlns:xlink="http://www.w3.org/1999/xlink" version="1.1" width="512" height="512" viewBox="0 0 512 512">    <path fill="#ffffff" transform="scale(1, -1) translate(0, -448)" glyph-name="cellphone-wireless" unicode="&#xF814;" horiz-adv-x="512" d=" M428.16 342.8266666666667C466.7733333333333 304.2133333333334 490.6666666666666 250.88 490.6666666666666 192C490.6666666666666 133.12 466.7733333333333 79.7866666666668 428.16 41.1733333333333L398.08 71.2533333333333C429.0133333333333 101.9733333333334 448 144.64 448 192C448 239.1466666666667 429.0133333333333 282.0266666666667 398.08 312.7466666666667L428.16 342.8266666666667M367.7866666666667 282.4533333333334C391.04 259.2000000000001 405.3333333333333 227.2 405.3333333333333 192C405.3333333333333 156.8 391.04 124.8 367.7866666666667 101.5466666666666L337.7066666666666 131.6266666666667C353.0666666666667 146.9866666666667 362.6666666666667 168.3200000000001 362.6666666666667 192S353.0666666666667 237.0133333333333 337.7066666666667 252.3733333333334L367.7866666666667 282.4533333333334M277.3333333333333 234.6666666666667C300.8 234.6666666666667 320 215.4666666666667 320 192S300.8 149.3333333333334 277.3333333333333 149.3333333333334S234.6666666666667 168.5333333333334 234.6666666666667 192S253.8666666666667 234.6666666666667 277.3333333333333 234.6666666666667M245.3333333333333 426.6666666666667C274.7733333333333 426.6666666666667 298.6666666666667 402.7733333333333 298.6666666666667 373.3333333333334V277.3333333333334H256V362.6666666666667H64V42.6666666666667H256V106.6666666666667H298.6666666666667V10.6666666666667C298.6666666666667 -18.7733333333333 274.7733333333333 -42.6666666666666 245.3333333333333 -42.6666666666666H74.6666666666667C45.2266666666667 -42.6666666666666 21.3333333333333 -18.7733333333333 21.3333333333333 10.6666666666667V373.3333333333334C21.3333333333333 402.7733333333333 45.2266666666667 426.6666666666667 74.6666666666667 426.6666666666667H245.3333333333333z" /></svg>