<?xml version="1.0" encoding="UTF-8"?><!DOCTYPE svg PUBLIC "-//W3C//DTD SVG 1.1//EN" "http://www.w3.org/Graphics/SVG/1.1/DTD/svg11.dtd"><svg xmlns="http://www.w3.org/2000/svg" xmlns:xlink="http://www.w3.org/1999/xlink" version="1.1" width="512" height="512" viewBox="0 0 512 512">    <path fill="#ffffff" transform="scale(1, -1) translate(0, -448)" glyph-name="shower-head" unicode="&#xF9A0;" horiz-adv-x="512" d=" M426.6666666666667 21.3333333333334C438.4 21.3333333333334 448 11.7333333333333 448 0S438.4 -21.3333333333333 426.6666666666667 -21.3333333333333S405.3333333333333 -11.7333333333333 405.3333333333333 0S414.9333333333333 21.3333333333334 426.6666666666667 21.3333333333334M341.3333333333333 21.3333333333334C353.0666666666667 21.3333333333334 362.6666666666667 11.7333333333333 362.6666666666667 0S353.0666666666667 -21.3333333333333 341.3333333333333 -21.3333333333333S320 -11.7333333333333 320 0S329.6 21.3333333333334 341.3333333333333 21.3333333333334M256 21.3333333333334C267.7333333333334 21.3333333333334 277.3333333333333 11.7333333333333 277.3333333333333 0S267.7333333333334 -21.3333333333333 256 -21.3333333333333S234.6666666666667 -11.7333333333333 234.6666666666667 0S244.2666666666667 21.3333333333334 256 21.3333333333334M170.6666666666667 21.3333333333334C182.4 21.3333333333334 192 11.7333333333333 192 0S182.4 -21.3333333333333 170.6666666666667 -21.3333333333333S149.3333333333333 -11.7333333333333 149.3333333333333 0S158.9333333333333 21.3333333333334 170.6666666666667 21.3333333333334M85.3333333333333 21.3333333333334C97.0666666666667 21.3333333333334 106.6666666666667 11.7333333333333 106.6666666666667 0S97.0666666666667 -21.3333333333333 85.3333333333333 -21.3333333333333S64 -11.7333333333333 64 0S73.6 21.3333333333334 85.3333333333333 21.3333333333334M128 85.3333333333334C139.7333333333333 85.3333333333334 149.3333333333333 75.7333333333334 149.3333333333333 64S139.7333333333333 42.6666666666667 128 42.6666666666667S106.6666666666667 52.2666666666667 106.6666666666667 64S116.2666666666667 85.3333333333334 128 85.3333333333334M213.3333333333333 85.3333333333334C225.0666666666667 85.3333333333334 234.6666666666667 75.7333333333334 234.6666666666667 64S225.0666666666667 42.6666666666667 213.3333333333333 42.6666666666667S192 52.2666666666667 192 64S201.6 85.3333333333334 213.3333333333333 85.3333333333334M298.6666666666667 85.3333333333334C310.4 85.3333333333334 320 75.7333333333334 320 64S310.4 42.6666666666667 298.6666666666667 42.6666666666667S277.3333333333333 52.2666666666667 277.3333333333333 64S286.9333333333333 85.3333333333334 298.6666666666667 85.3333333333334M384 85.3333333333334C395.7333333333334 85.3333333333334 405.3333333333333 75.7333333333334 405.3333333333333 64S395.7333333333334 42.6666666666667 384 42.6666666666667S362.6666666666667 52.2666666666667 362.6666666666667 64S372.2666666666667 85.3333333333334 384 85.3333333333334M170.6666666666667 149.3333333333334C182.4 149.3333333333334 192 139.7333333333334 192 128S182.4 106.6666666666667 170.6666666666667 106.6666666666667S149.3333333333333 116.2666666666667 149.3333333333333 128S158.9333333333333 149.3333333333334 170.6666666666667 149.3333333333334M256 149.3333333333334C267.7333333333334 149.3333333333334 277.3333333333333 139.7333333333334 277.3333333333333 128S267.7333333333334 106.6666666666667 256 106.6666666666667S234.6666666666667 116.2666666666667 234.6666666666667 128S244.2666666666667 149.3333333333334 256 149.3333333333334M341.3333333333333 149.3333333333334C353.0666666666667 149.3333333333334 362.6666666666667 139.7333333333334 362.6666666666667 128S353.0666666666667 106.6666666666667 341.3333333333333 106.6666666666667S320 116.2666666666667 320 128S329.6 149.3333333333334 341.3333333333333 149.3333333333334M405.3333333333333 192H106.6666666666667V234.6666666666667H405.3333333333333V192M382.2933333333334 256H129.7066666666667C138.6666666666667 309.3333333333334 181.3333333333333 352 234.6666666666667 360.9600000000001V405.3333333333333H277.3333333333333V360.9600000000001C330.6666666666667 352 373.3333333333333 309.3333333333334 382.2933333333334 256z" /></svg>