<?xml version="1.0" encoding="UTF-8"?><!DOCTYPE svg PUBLIC "-//W3C//DTD SVG 1.1//EN" "http://www.w3.org/Graphics/SVG/1.1/DTD/svg11.dtd"><svg xmlns="http://www.w3.org/2000/svg" xmlns:xlink="http://www.w3.org/1999/xlink" version="1.1" width="512" height="512" viewBox="0 0 512 512">    <path fill="#ffffff" transform="scale(1, -1) translate(0, -448)" glyph-name="baseball" unicode="&#xF851;" horiz-adv-x="512" d=" M256 405.3333333333333C202.6666666666667 405.3333333333333 154.6666666666667 386.1333333333334 117.3333333333333 354.1333333333334C128 345.3866666666667 136.7466666666667 335.5733333333333 145.0666666666667 325.12L168.32 338.56L189.6533333333333 301.44L168.32 289.28C180.2666666666667 266.0266666666667 188.16 240.4266666666667 190.9333333333333 213.3333333333333H213.3333333333333V170.6666666666666H190.9333333333333C188.16 143.5733333333333 180.2666666666667 117.9733333333333 168.32 94.72L189.6533333333333 82.56L168.32 45.44L145.0666666666666 58.88C136.7466666666667 48.4266666666667 128 38.6133333333333 117.3333333333333 29.8666666666667C154.6666666666666 -2.1333333333333 202.6666666666667 -21.3333333333333 256 -21.3333333333333S357.3333333333333 -2.1333333333333 394.6666666666667 29.8666666666667C384 38.6133333333333 375.2533333333334 48.4266666666667 366.7200000000001 58.88L343.68 45.44L322.3466666666667 82.56L343.68 94.9333333333333C331.7333333333333 117.9733333333333 323.84 143.5733333333333 321.0666666666666 170.6666666666666H298.6666666666667V213.3333333333333H321.0666666666667C323.8400000000001 240.4266666666666 331.7333333333334 266.0266666666667 343.68 289.0666666666666L322.3466666666667 301.44L343.68 338.56L366.7199999999999 325.12C375.2533333333332 335.5733333333333 383.9999999999999 345.3866666666666 394.6666666666666 354.1333333333333C357.3333333333333 386.1333333333334 309.3333333333333 405.3333333333333 256 405.3333333333333M87.8933333333333 323.2000000000001C59.52 286.9333333333334 42.6666666666667 241.4933333333334 42.6666666666667 192C42.6666666666667 142.5066666666667 59.52 97.0666666666667 87.8933333333333 60.8000000000001C95.1466666666667 66.7733333333334 101.5466666666667 73.6000000000001 107.7333333333333 80.64L94.5066666666667 88.1066666666667L115.84 125.2266666666668L131.4133333333333 116.0533333333334C139.7333333333333 132.9066666666668 145.4933333333334 151.2533333333335 147.84 170.6666666666668H128V213.3333333333334H147.84C145.4933333333333 232.7466666666668 139.7333333333333 251.0933333333334 131.4133333333333 267.9466666666668L115.84 258.7733333333335L94.5066666666667 295.8933333333335L107.7333333333333 303.3600000000002C101.5466666666667 310.4000000000001 95.1466666666667 317.2266666666668 87.8933333333333 323.2000000000001M424.1066666666667 323.2000000000001C416.8533333333333 317.2266666666668 410.4533333333333 310.4000000000001 404.2666666666667 303.3600000000002L417.4933333333334 295.8933333333335L396.16 258.7733333333335L380.5866666666667 267.9466666666668C372.2666666666667 251.0933333333334 366.5066666666667 232.7466666666668 364.16 213.3333333333334H384V170.6666666666668H364.16C366.5066666666667 151.2533333333335 372.2666666666667 132.9066666666668 380.5866666666667 116.0533333333334L396.16 125.2266666666668L417.4933333333334 88.1066666666667L404.2666666666667 80.64C410.4533333333333 73.6000000000001 416.8533333333333 66.7733333333334 424.1066666666667 60.8000000000001C452.48 97.0666666666667 469.3333333333333 142.5066666666667 469.3333333333333 192C469.3333333333333 241.4933333333334 452.48 286.9333333333334 424.1066666666667 323.2000000000001z" /></svg>