<?xml version="1.0" encoding="UTF-8"?><!DOCTYPE svg PUBLIC "-//W3C//DTD SVG 1.1//EN" "http://www.w3.org/Graphics/SVG/1.1/DTD/svg11.dtd"><svg xmlns="http://www.w3.org/2000/svg" xmlns:xlink="http://www.w3.org/1999/xlink" version="1.1" width="512" height="512" viewBox="0 0 512 512">    <path fill="#ffffff" transform="scale(1, -1) translate(0, -448)" glyph-name="blur-off" unicode="&#xF0B7;" horiz-adv-x="512" d=" M64 160C58.0266666666667 160 53.3333333333333 155.3066666666667 53.3333333333333 149.3333333333334S58.0266666666667 138.6666666666667 64 138.6666666666667S74.6666666666667 143.36 74.6666666666667 149.3333333333334S69.9733333333333 160 64 160M128 85.3333333333334C116.2666666666667 85.3333333333334 106.6666666666667 75.7333333333334 106.6666666666667 64S116.2666666666667 42.6666666666667 128 42.6666666666667S149.3333333333333 52.2666666666667 149.3333333333333 64S139.7333333333333 85.3333333333334 128 85.3333333333334M213.3333333333333 10.6666666666667C207.36 10.6666666666667 202.6666666666667 5.9733333333334 202.6666666666667 0S207.36 -10.6666666666666 213.3333333333333 -10.6666666666666S224 -5.9733333333334 224 0S219.3066666666667 10.6666666666667 213.3333333333333 10.6666666666667M64 245.3333333333334C58.0266666666667 245.3333333333334 53.3333333333333 240.64 53.3333333333333 234.6666666666667S58.0266666666667 224 64 224S74.6666666666667 228.6933333333334 74.6666666666667 234.6666666666667S69.9733333333333 245.3333333333334 64 245.3333333333334M128 170.6666666666667C116.2666666666667 170.6666666666667 106.6666666666667 161.0666666666667 106.6666666666667 149.3333333333334S116.2666666666667 128 128 128S149.3333333333333 137.6 149.3333333333333 149.3333333333334S139.7333333333333 170.6666666666667 128 170.6666666666667M448 160C442.0266666666667 160 437.3333333333333 155.3066666666667 437.3333333333333 149.3333333333334S442.0266666666667 138.6666666666667 448 138.6666666666667S458.6666666666666 143.36 458.6666666666666 149.3333333333334S453.9733333333334 160 448 160M213.3333333333333 85.3333333333334C201.6 85.3333333333334 192 75.7333333333334 192 64S201.6 42.6666666666667 213.3333333333333 42.6666666666667S234.6666666666667 52.2666666666667 234.6666666666667 64S225.0666666666667 85.3333333333334 213.3333333333333 85.3333333333334M53.3333333333333 335.5733333333334L133.9733333333333 254.9333333333334L128 256C116.2666666666667 256 106.6666666666667 246.4000000000001 106.6666666666667 234.6666666666667S116.2666666666667 213.3333333333334 128 213.3333333333334S149.3333333333333 222.9333333333333 149.3333333333333 234.6666666666667C149.3333333333333 236.8 148.6933333333333 238.72 148.0533333333334 240.64L208 180.6933333333333C192.8533333333333 178.3466666666667 181.3333333333333 165.12 181.3333333333333 149.3333333333333C181.3333333333333 131.6266666666667 195.6266666666667 117.3333333333333 213.3333333333333 117.3333333333333C229.12 117.3333333333333 242.3466666666667 128.8533333333334 244.6933333333334 144L304.64 84.0533333333333C302.7200000000001 84.6933333333333 300.8 85.3333333333333 298.6666666666667 85.3333333333333C286.9333333333334 85.3333333333333 277.3333333333334 75.7333333333333 277.3333333333334 63.9999999999999S286.9333333333334 42.6666666666666 298.6666666666667 42.6666666666666S320 52.2666666666666 320 63.9999999999999C320 66.1333333333333 319.36 68.0533333333333 318.7200000000001 69.9733333333333L399.36 -10.6666666666667L426.6666666666667 16.4266666666667L80.4266666666667 362.6666666666667L53.3333333333333 335.5733333333334M298.6666666666667 10.6666666666667C292.6933333333334 10.6666666666667 288 5.9733333333334 288 0S292.6933333333334 -10.6666666666666 298.6666666666667 -10.6666666666666S309.3333333333333 -5.9733333333334 309.3333333333333 0S304.64 10.6666666666667 298.6666666666667 10.6666666666667M384 298.6666666666667C395.7333333333334 298.6666666666667 405.3333333333333 308.2666666666667 405.3333333333333 320S395.7333333333334 341.3333333333334 384 341.3333333333334S362.6666666666667 331.7333333333334 362.6666666666667 320S372.2666666666667 298.6666666666667 384 298.6666666666667M384 213.3333333333334C395.7333333333334 213.3333333333334 405.3333333333333 222.9333333333333 405.3333333333333 234.6666666666667S395.7333333333334 256 384 256S362.6666666666667 246.4000000000001 362.6666666666667 234.6666666666667S372.2666666666667 213.3333333333334 384 213.3333333333334M384 128C395.7333333333334 128 405.3333333333333 137.6 405.3333333333333 149.3333333333334S395.7333333333334 170.6666666666667 384 170.6666666666667S362.6666666666667 161.0666666666667 362.6666666666667 149.3333333333334S372.2666666666667 128 384 128M213.3333333333333 298.6666666666667C225.0666666666667 298.6666666666667 234.6666666666667 308.2666666666667 234.6666666666667 320S225.0666666666667 341.3333333333334 213.3333333333333 341.3333333333334S192 331.7333333333334 192 320S201.6 298.6666666666667 213.3333333333333 298.6666666666667M448 224C453.9733333333334 224 458.6666666666666 228.6933333333334 458.6666666666666 234.6666666666667S453.9733333333334 245.3333333333334 448 245.3333333333334S437.3333333333333 240.64 437.3333333333333 234.6666666666667S442.0266666666667 224 448 224M213.3333333333333 373.3333333333334C219.3066666666667 373.3333333333334 224 378.0266666666667 224 384S219.3066666666667 394.6666666666667 213.3333333333333 394.6666666666667S202.6666666666667 389.9733333333334 202.6666666666667 384S207.36 373.3333333333334 213.3333333333333 373.3333333333334M298.6666666666667 373.3333333333334C304.64 373.3333333333334 309.3333333333333 378.0266666666667 309.3333333333333 384S304.64 394.6666666666667 298.6666666666667 394.6666666666667S288 389.9733333333334 288 384S292.6933333333334 373.3333333333334 298.6666666666667 373.3333333333334M294.4 202.6666666666667H298.6666666666667C316.3733333333334 202.6666666666667 330.6666666666667 216.96 330.6666666666667 234.6666666666667S316.3733333333334 266.6666666666667 298.6666666666667 266.6666666666667S266.6666666666667 252.3733333333334 266.6666666666667 234.6666666666667V230.4000000000001C269.0133333333333 216.1066666666667 280.1066666666667 205.0133333333334 294.4 202.6666666666667M298.6666666666667 298.6666666666667C310.4 298.6666666666667 320 308.2666666666667 320 320S310.4 341.3333333333334 298.6666666666667 341.3333333333334S277.3333333333333 331.7333333333334 277.3333333333333 320S286.9333333333333 298.6666666666667 298.6666666666667 298.6666666666667z" /></svg>