<?xml version="1.0" encoding="UTF-8"?><!DOCTYPE svg PUBLIC "-//W3C//DTD SVG 1.1//EN" "http://www.w3.org/Graphics/SVG/1.1/DTD/svg11.dtd"><svg xmlns="http://www.w3.org/2000/svg" xmlns:xlink="http://www.w3.org/1999/xlink" version="1.1" width="512" height="512" viewBox="0 0 512 512">    <path fill="#ffffff" transform="scale(1, -1) translate(0, -448)" glyph-name="wan" unicode="&#xF588;" horiz-adv-x="512" d=" M256 405.3333333333333C161.7066666666667 405.3333333333333 85.3333333333333 328.9600000000001 85.3333333333333 234.6666666666667C85.3333333333333 148.6933333333333 149.3333333333333 76.3733333333333 234.6666666666667 65.4933333333333V42.6666666666667H213.3333333333333C201.6 42.6666666666667 192 33.0666666666667 192 21.3333333333334H42.6666666666667V-21.3333333333333H192C192 -33.0666666666667 201.6 -42.6666666666666 213.3333333333333 -42.6666666666666H298.6666666666667C310.4 -42.6666666666666 320 -33.0666666666667 320 -21.3333333333333H469.3333333333333V21.3333333333334H320C320 33.0666666666667 310.4 42.6666666666667 298.6666666666667 42.6666666666667H277.3333333333333V65.4933333333333C362.6666666666667 76.16 426.6666666666667 148.6933333333334 426.6666666666667 234.6666666666667C426.6666666666667 328.9600000000001 350.2933333333334 405.3333333333333 256 405.3333333333333M256 362.6666666666667S271.7866666666667 335.36 282.88 298.6666666666667H229.12C240.2133333333333 335.36 256 362.6666666666667 256 362.6666666666667M208.4266666666667 353.4933333333334C202.6666666666667 342.8266666666667 193.92 323.4133333333334 186.4533333333333 298.6666666666667H145.28C160 323.4133333333334 181.3333333333333 342.8266666666667 208.4266666666667 353.4933333333334M303.5733333333333 353.2800000000001C330.6666666666667 342.6133333333334 352 323.4133333333334 366.7200000000001 298.6666666666667H325.5466666666667C318.0800000000001 323.4133333333334 309.3333333333334 342.8266666666667 303.5733333333334 353.2800000000001M129.92 256H177.4933333333334C176.64 248.96 176 241.92 176 234.6666666666667C176 227.4133333333334 176.64 220.3733333333333 177.4933333333334 213.3333333333334H129.92C128.64 220.3733333333333 128 227.4133333333334 128 234.6666666666667C128 241.92 128.64 248.96 129.92 256M220.16 256H291.84C292.6933333333333 248.96 293.3333333333333 241.92 293.3333333333333 234.6666666666667C293.3333333333333 227.4133333333334 292.6933333333334 220.3733333333333 291.84 213.3333333333334H220.16C219.3066666666667 220.3733333333333 218.6666666666667 227.4133333333334 218.6666666666667 234.6666666666667C218.6666666666667 241.92 219.3066666666667 248.96 220.16 256M334.5066666666667 256H382.08C383.36 248.96 384 241.92 384 234.6666666666667C384 227.4133333333334 383.36 220.3733333333333 382.08 213.3333333333334H334.5066666666667C335.36 220.3733333333333 336 227.4133333333334 336 234.6666666666667C336 241.92 335.36 248.96 334.5066666666667 256M145.28 170.6666666666667H186.4533333333333C193.92 145.92 202.6666666666667 126.5066666666667 208.4266666666667 116.0533333333334C181.3333333333333 126.72 160 145.92 145.28 170.6666666666667M229.12 170.6666666666667H282.88C271.7866666666667 133.9733333333334 256 106.6666666666667 256 106.6666666666667S240.2133333333333 133.9733333333334 229.12 170.6666666666667M325.5466666666666 170.6666666666667H366.7200000000001C352 145.92 330.6666666666667 126.5066666666667 303.5733333333333 115.84C309.3333333333333 126.5066666666667 318.08 145.92 325.5466666666666 170.6666666666667z" /></svg>