<?xml version="1.0" encoding="UTF-8"?><!DOCTYPE svg PUBLIC "-//W3C//DTD SVG 1.1//EN" "http://www.w3.org/Graphics/SVG/1.1/DTD/svg11.dtd"><svg xmlns="http://www.w3.org/2000/svg" xmlns:xlink="http://www.w3.org/1999/xlink" version="1.1" width="512" height="512" viewBox="0 0 512 512">    <path fill="#ffffff" transform="scale(1, -1) translate(0, -448)" glyph-name="gate-xnor" unicode="&#xF8E5;" horiz-adv-x="512" d=" M42.6666666666667 362.6666666666667C106.6666666666667 234.6666666666667 106.6666666666667 149.3333333333334 42.6666666666667 21.3333333333334H85.3333333333333C149.3333333333333 149.3333333333334 149.3333333333333 234.6666666666667 87.4666666666667 362.6666666666667H42.6666666666667M128 362.6666666666667C192 234.6666666666667 192 149.3333333333334 128 21.3333333333334H192C260.2666666666667 21.3333333333334 315.7333333333334 89.6 356.2666666666667 149.3333333333334C368.64 135.4666666666667 386.56 128 405.3333333333333 128C440.7466666666667 128 469.3333333333333 156.5866666666667 469.3333333333333 192S440.7466666666667 256 405.3333333333333 256C386.56 256 368.64 248.5333333333334 356.2666666666667 234.6666666666667C313.6 294.4 260.2666666666667 362.6666666666667 192 362.6666666666667H128M192 320C256 320 298.6666666666667 234.6666666666667 330.6666666666667 192C298.6666666666667 149.3333333333334 256 64 192 64C226.1333333333334 149.3333333333334 226.1333333333334 234.6666666666667 192 320M405.3333333333333 213.3333333333334C416 213.3333333333334 426.6666666666667 202.6666666666667 426.6666666666667 192S416 170.6666666666667 405.3333333333333 170.6666666666667C393.6 170.6666666666667 384 180.2666666666667 384 192C384 202.6666666666667 394.6666666666667 213.3333333333334 405.3333333333333 213.3333333333334z" /></svg>