<?xml version="1.0" encoding="UTF-8"?><!DOCTYPE svg PUBLIC "-//W3C//DTD SVG 1.1//EN" "http://www.w3.org/Graphics/SVG/1.1/DTD/svg11.dtd"><svg xmlns="http://www.w3.org/2000/svg" xmlns:xlink="http://www.w3.org/1999/xlink" version="1.1" width="512" height="512" viewBox="0 0 512 512">    <path fill="#ffffff" transform="scale(1, -1) translate(0, -448)" glyph-name="folder-sync-outline" unicode="&#xFCE8;" horiz-adv-x="512" d=" M213.3333333333333 362.6666666666667L256 320H426.6666666666667C450.1333333333334 320 469.3333333333333 300.8 469.3333333333333 277.3333333333334V202.6666666666667C456.1066666666666 208.2133333333334 441.6 211.84 426.6666666666667 213.3333333333334V277.3333333333334H85.3333333333333V64H277.3333333333333C278.8266666666667 49.0666666666667 282.4533333333333 34.5600000000001 288 21.3333333333334H85.3333333333333C61.6533333333333 21.3333333333334 42.6666666666667 40.5333333333333 42.6666666666667 64V320C42.6666666666667 343.68 61.6533333333333 362.6666666666667 85.3333333333333 362.6666666666667H213.3333333333333M405.3333333333333 192V160C452.48 160 490.6666666666666 121.8133333333334 490.6666666666666 74.6666666666667C490.6666666666666 57.1733333333334 485.3333333333333 40.96 476.3733333333333 27.52L453.1199999999999 50.7733333333333C456.7466666666667 58.0266666666666 458.6666666666666 66.1333333333333 458.6666666666666 74.6666666666667C458.6666666666666 104.1066666666667 434.7733333333333 128 405.3333333333333 128V96L357.3333333333333 144L356.6933333333333 144.64C357.9733333333333 145.7066666666667 359.4666666666666 146.56 405.3333333333333 192M405.3333333333333 -42.6666666666666V-10.6666666666666C358.1866666666666 -10.6666666666666 320 27.52 320 74.6666666666667C320 92.16 325.3333333333333 108.3733333333333 334.2933333333333 121.8133333333334L357.5466666666667 98.5600000000001C353.92 91.3066666666667 352 83.2000000000001 352 74.6666666666667C352 45.2266666666667 375.8933333333333 21.3333333333334 405.3333333333333 21.3333333333334V53.3333333333334L453.3333333333333 5.3333333333334L453.9733333333334 4.6933333333333C452.6933333333334 3.6266666666667 451.2 2.7733333333333 405.3333333333333 -42.6666666666666z" /></svg>