<?xml version="1.0" encoding="UTF-8"?><!DOCTYPE svg PUBLIC "-//W3C//DTD SVG 1.1//EN" "http://www.w3.org/Graphics/SVG/1.1/DTD/svg11.dtd"><svg xmlns="http://www.w3.org/2000/svg" xmlns:xlink="http://www.w3.org/1999/xlink" version="1.1" width="512" height="512" viewBox="0 0 512 512">    <path fill="#ffffff" transform="scale(1, -1) translate(0, -448)" glyph-name="audiobook" unicode="&#xF067;" horiz-adv-x="512" d=" M384 -21.3333333333333H128C104.5333333333333 -21.3333333333333 85.3333333333333 -2.1333333333333 85.3333333333333 21.3333333333334V362.6666666666667C85.3333333333333 386.3466666666667 104.5333333333333 405.3333333333333 128 405.3333333333333H149.3333333333333V256L202.6666666666667 288L256 256V405.3333333333333H384C407.4666666666667 405.3333333333333 426.6666666666667 386.1333333333334 426.6666666666667 362.6666666666667V21.3333333333334C426.6666666666667 -2.1333333333333 407.4666666666667 -21.3333333333333 384 -21.3333333333333M277.3333333333333 128C253.8666666666667 128 234.6666666666667 108.8 234.6666666666667 85.3333333333334S253.8666666666667 42.6666666666667 277.3333333333333 42.6666666666667S320 61.8666666666667 320 85.3333333333334V192H384V234.6666666666667H298.6666666666667V122.24C292.48 125.8666666666667 285.0133333333333 128 277.3333333333333 128z" /></svg>