<?xml version="1.0" encoding="UTF-8"?><!DOCTYPE svg PUBLIC "-//W3C//DTD SVG 1.1//EN" "http://www.w3.org/Graphics/SVG/1.1/DTD/svg11.dtd"><svg xmlns="http://www.w3.org/2000/svg" xmlns:xlink="http://www.w3.org/1999/xlink" version="1.1" width="512" height="512" viewBox="0 0 512 512">    <path fill="#ffffff" transform="scale(1, -1) translate(0, -448)" glyph-name="regex" unicode="&#xF451;" horiz-adv-x="512" d=" M341.3333333333333 87.04C334.2933333333333 85.9733333333333 327.2533333333334 85.3333333333334 320 85.3333333333334C312.7466666666667 85.3333333333334 305.7066666666667 85.9733333333334 298.6666666666667 87.04V161.92L245.3333333333333 109.0133333333333C234.6666666666667 117.3333333333333 224 128 215.68 138.6666666666666L268.5866666666667 192H193.7066666666667C192.64 199.04 192 206.08 192 213.3333333333333C192 220.5866666666667 192.64 227.6266666666667 193.7066666666667 234.6666666666667H268.5866666666667L215.68 288C219.7333333333333 293.3333333333333 224 298.6666666666667 229.5466666666667 303.7866666666667C234.6666666666667 309.3333333333333 240 313.6 245.3333333333333 317.6533333333333L298.6666666666667 264.7466666666667V339.6266666666667C305.7066666666667 340.6933333333334 312.7466666666667 341.3333333333334 320 341.3333333333334C327.2533333333334 341.3333333333334 334.2933333333333 340.6933333333334 341.3333333333333 339.6266666666667V264.7466666666667L394.6666666666667 317.6533333333334C405.3333333333333 309.3333333333334 416 298.6666666666667 424.32 288L371.4133333333333 234.6666666666667H446.2933333333334C447.36 227.6266666666667 448 220.5866666666667 448 213.3333333333334C448 206.08 447.36 199.04 446.2933333333334 192H371.4133333333334L424.3200000000001 138.6666666666667C420.2666666666667 133.3333333333334 416.0000000000001 128 410.4533333333335 122.88C405.3333333333335 117.3333333333334 400.0000000000001 113.0666666666667 394.6666666666668 109.0133333333333L341.3333333333333 161.92V87.04M106.6666666666667 42.6666666666667C106.6666666666667 66.1333333333334 125.8666666666667 85.3333333333334 149.3333333333333 85.3333333333334S192 66.1333333333334 192 42.6666666666667S172.8 0 149.3333333333333 0S106.6666666666667 19.2 106.6666666666667 42.6666666666667z" /></svg>