<?xml version="1.0" encoding="UTF-8"?><!DOCTYPE svg PUBLIC "-//W3C//DTD SVG 1.1//EN" "http://www.w3.org/Graphics/SVG/1.1/DTD/svg11.dtd"><svg xmlns="http://www.w3.org/2000/svg" xmlns:xlink="http://www.w3.org/1999/xlink" version="1.1" width="512" height="512" viewBox="0 0 512 512">    <path fill="#ffffff" transform="scale(1, -1) translate(0, -448)" glyph-name="music-note-bluetooth-off" unicode="&#xF5FF;" horiz-adv-x="512" d=" M213.3333333333333 384V262.8266666666667L277.3333333333333 198.8266666666667V320H362.6666666666667V384H213.3333333333333M69.9733333333333 352L42.6666666666667 324.9066666666667L176.2133333333333 191.36C125.6533333333333 188.8 85.3333333333333 147.2000000000001 85.3333333333333 96C85.3333333333333 42.6666666666667 128 0 181.3333333333333 0C232.5333333333334 0 274.1333333333334 40.3200000000001 276.6933333333333 90.88L377.1733333333333 -9.6L404.48 17.4933333333333L277.3333333333333 144.64L213.3333333333333 208.64L69.9733333333333 352M426.6666666666667 298.6666666666667V217.8133333333334L377.8133333333334 266.6666666666667L362.6666666666667 251.52L422.1866666666666 192L362.6666666666667 132.48L377.8133333333334 117.3333333333334L426.6666666666667 166.1866666666667V85.3333333333334H437.3333333333333L498.1333333333333 146.1333333333333L452.48 192L498.3466666666666 237.8666666666667L437.3333333333333 298.6666666666667H426.6666666666667M448 257.92L468.0533333333333 237.8666666666667L448 217.8133333333334V257.92M448 166.1866666666667L468.0533333333333 146.1333333333333L448 126.0800000000001V166.1866666666667z" /></svg>