<?xml version="1.0" encoding="UTF-8"?><!DOCTYPE svg PUBLIC "-//W3C//DTD SVG 1.1//EN" "http://www.w3.org/Graphics/SVG/1.1/DTD/svg11.dtd"><svg xmlns="http://www.w3.org/2000/svg" xmlns:xlink="http://www.w3.org/1999/xlink" version="1.1" width="512" height="512" viewBox="0 0 512 512">    <path fill="#ffffff" transform="scale(1, -1) translate(0, -448)" glyph-name="lock-question" unicode="&#xF8EE;" horiz-adv-x="512" d=" M256 426.6666666666667C197.12 426.6666666666667 149.3333333333333 378.88 149.3333333333333 320V277.3333333333334H128C104.5333333333333 277.3333333333334 85.3333333333333 258.1333333333334 85.3333333333333 234.6666666666667V21.3333333333334C85.3333333333333 -2.1333333333333 104.5333333333333 -21.3333333333333 128 -21.3333333333333H384C407.4666666666667 -21.3333333333333 426.6666666666667 -2.1333333333333 426.6666666666667 21.3333333333334V234.6666666666667C426.6666666666667 258.1333333333334 407.4666666666667 277.3333333333334 384 277.3333333333334H362.6666666666667V320C362.6666666666667 378.88 314.88 426.6666666666667 256 426.6666666666667M256 386.1333333333334C292.48 386.1333333333334 322.1333333333334 356.48 322.1333333333334 320V277.3333333333334H189.8666666666667V320C189.8666666666667 356.48 219.52 386.1333333333334 256 386.1333333333334M260.0533333333333 224C280.1066666666667 224 296.1066666666667 219.52 307.6266666666667 210.7733333333334C319.1466666666667 201.8133333333334 324.9066666666667 189.8666666666667 324.9066666666667 174.9333333333334C324.9066666666667 165.5466666666668 321.7066666666667 157.2266666666667 315.52 149.3333333333334C309.3333333333334 141.6533333333334 301.2266666666667 135.6800000000001 291.4133333333333 131.2000000000001C285.8666666666667 128.0000000000001 282.24 124.8000000000001 280.32 121.1733333333334C278.4 117.3333333333334 277.3333333333333 112.6400000000001 277.3333333333333 106.6666666666667H234.6666666666667C234.6666666666667 117.3333333333334 236.8 124.5866666666667 240.8533333333333 129.7066666666667C245.3333333333333 134.8266666666667 252.5866666666667 140.8000000000001 263.68 147.6266666666667C269.2266666666667 150.6133333333334 273.7066666666667 154.4533333333334 277.3333333333333 159.1466666666667C280.32 163.6266666666667 282.0266666666667 168.96 282.0266666666667 174.9333333333334C282.0266666666667 181.3333333333334 280.1066666666667 186.0266666666667 276.2666666666667 189.6533333333334C272.4266666666667 193.4933333333334 266.6666666666667 195.2 260.0533333333334 195.2C254.2933333333334 195.2 249.6 193.7066666666667 245.3333333333334 190.72C241.92 187.7333333333334 239.7866666666667 183.2533333333333 239.7866666666667 177.28H197.76C196.6933333333333 192 202.6666666666667 204.8 214.4 212.48C225.92 220.16 241.0666666666667 224 260.0533333333333 224M234.6666666666667 85.3333333333334H277.3333333333333V42.6666666666667H234.6666666666667V85.3333333333334z" /></svg>