<?xml version="1.0" encoding="UTF-8"?><!DOCTYPE svg PUBLIC "-//W3C//DTD SVG 1.1//EN" "http://www.w3.org/Graphics/SVG/1.1/DTD/svg11.dtd"><svg xmlns="http://www.w3.org/2000/svg" xmlns:xlink="http://www.w3.org/1999/xlink" version="1.1" width="512" height="512" viewBox="0 0 512 512">    <path fill="#ffffff" transform="scale(1, -1) translate(0, -448)" glyph-name="scale-bathroom" unicode="&#xF473;" horiz-adv-x="512" d=" M106.6666666666667 405.3333333333333H405.3333333333333C428.8 405.3333333333333 448 386.1333333333334 448 362.6666666666667V21.3333333333334C448 -2.1333333333333 428.8 -21.3333333333333 405.3333333333333 -21.3333333333333H106.6666666666667C83.2 -21.3333333333333 64 -2.1333333333333 64 21.3333333333334V362.6666666666667C64 386.1333333333334 83.2 405.3333333333333 106.6666666666667 405.3333333333333M256 362.6666666666667C208.8533333333333 362.6666666666667 170.6666666666667 324.48 170.6666666666667 277.3333333333334H240.2133333333333L231.4666666666667 336.4266666666667L275.2 277.3333333333334H341.3333333333333C341.3333333333333 324.48 303.1466666666667 362.6666666666667 256 362.6666666666667M106.6666666666667 234.6666666666667V21.3333333333334H405.3333333333333V234.6666666666667H106.6666666666667z" /></svg>