<?xml version="1.0" encoding="UTF-8"?><!DOCTYPE svg PUBLIC "-//W3C//DTD SVG 1.1//EN" "http://www.w3.org/Graphics/SVG/1.1/DTD/svg11.dtd"><svg xmlns="http://www.w3.org/2000/svg" xmlns:xlink="http://www.w3.org/1999/xlink" version="1.1" width="512" height="512" viewBox="0 0 512 512">    <path fill="#ffffff" transform="scale(1, -1) translate(0, -448)" glyph-name="format-header-2" unicode="&#xF26C;" horiz-adv-x="512" d=" M64 362.6666666666667H106.6666666666667V234.6666666666667H192V362.6666666666667H234.6666666666667V64H192V192H106.6666666666667V64H64V362.6666666666667M448 64H320C296.5333333333333 64 277.3333333333333 83.2 277.3333333333333 106.6666666666667C277.3333333333333 117.9733333333334 281.6 128 288.8533333333333 135.68L392.7466666666667 247.2533333333334C400.64 254.9333333333334 405.3333333333333 265.6 405.3333333333333 277.3333333333334C405.3333333333333 300.8 386.1333333333334 320 362.6666666666667 320S320 300.8 320 277.3333333333334H277.3333333333333C277.3333333333333 324.48 315.52 362.6666666666667 362.6666666666667 362.6666666666667S448 324.48 448 277.3333333333334C448 253.8666666666667 438.4 232.5333333333334 423.04 216.96L320 106.6666666666667H448V64z" /></svg>