<?xml version="1.0" encoding="UTF-8"?><!DOCTYPE svg PUBLIC "-//W3C//DTD SVG 1.1//EN" "http://www.w3.org/Graphics/SVG/1.1/DTD/svg11.dtd"><svg xmlns="http://www.w3.org/2000/svg" xmlns:xlink="http://www.w3.org/1999/xlink" version="1.1" width="512" height="512" viewBox="0 0 512 512">    <path fill="#ffffff" transform="scale(1, -1) translate(0, -448)" glyph-name="dots-vertical-circle" unicode="&#xF7C3;" horiz-adv-x="512" d=" M42.6666666666667 192C42.6666666666667 309.76 138.24 405.3333333333333 256 405.3333333333333S469.3333333333333 309.76 469.3333333333333 192S373.76 -21.3333333333333 256 -21.3333333333333S42.6666666666667 74.24 42.6666666666667 192M224 192C224 174.2933333333334 238.2933333333333 160 256 160S288 174.2933333333334 288 192S273.7066666666667 224 256 224S224 209.7066666666667 224 192M224 74.6666666666667C224 56.96 238.2933333333333 42.6666666666667 256 42.6666666666667S288 56.96 288 74.6666666666667S273.7066666666667 106.6666666666667 256 106.6666666666667S224 92.3733333333333 224 74.6666666666667M224 309.3333333333334C224 291.6266666666667 238.2933333333333 277.3333333333334 256 277.3333333333334S288 291.6266666666667 288 309.3333333333334S273.7066666666667 341.3333333333334 256 341.3333333333334S224 327.04 224 309.3333333333334z" /></svg>