<?xml version="1.0" encoding="UTF-8"?><!DOCTYPE svg PUBLIC "-//W3C//DTD SVG 1.1//EN" "http://www.w3.org/Graphics/SVG/1.1/DTD/svg11.dtd"><svg xmlns="http://www.w3.org/2000/svg" xmlns:xlink="http://www.w3.org/1999/xlink" version="1.1" width="512" height="512" viewBox="0 0 512 512">    <path fill="#ffffff" transform="scale(1, -1) translate(0, -448)" glyph-name="jquery" unicode="&#xF87C;" horiz-adv-x="512" d=" M488.1066666666666 225.92C443.0933333333333 188.16 375.68 194.1333333333333 337.92 239.1466666666667C299.9466666666667 284.3733333333334 305.92 352 350.9333333333333 389.3333333333333L361.8133333333334 397.44C325.76 358.6133333333334 323.4133333333333 298.0266666666667 358.4 256C393.1733333333333 214.6133333333334 453.3333333333333 206.5066666666667 497.92 235.3066666666667L488.1066666666666 225.92M450.1333333333334 138.6666666666667C382.5066666666667 81.7066666666667 281.6 90.4533333333334 224.8533333333334 158.2933333333334C167.8933333333334 225.92 176.8533333333334 326.8266666666667 244.48 384L264.1066666666667 397.6533333333333C212.48 339.4133333333334 209.92 250.4533333333334 261.5466666666667 189.0133333333334C313.1733333333334 128.0000000000001 401.0666666666667 114.5600000000001 467.4133333333334 155.3066666666667L450.1333333333335 138.6666666666668M426.0266666666668 34.5600000000001C331.3066666666668 -45.0133333333333 189.8666666666668 -32.6399999999999 110.2933333333334 62.2933333333334C30.9333333333333 157.0133333333333 43.3066666666667 298.6666666666667 138.0266666666667 377.8133333333334L161.7066666666667 394.6666666666667C86.8266666666667 313.6 82.1333333333333 187.0933333333334 155.3066666666667 99.84C228.48 12.8000000000001 353.92 -4.6933333333333 447.1466666666667 54.8266666666667L426.0266666666667 34.5600000000001z" /></svg>