<?xml version="1.0" encoding="UTF-8"?><!DOCTYPE svg PUBLIC "-//W3C//DTD SVG 1.1//EN" "http://www.w3.org/Graphics/SVG/1.1/DTD/svg11.dtd"><svg xmlns="http://www.w3.org/2000/svg" xmlns:xlink="http://www.w3.org/1999/xlink" version="1.1" width="512" height="512" viewBox="0 0 512 512">    <path fill="#ffffff" transform="scale(1, -1) translate(0, -448)" glyph-name="axis-x-rotate-clockwise" unicode="&#xFD2A;" horiz-adv-x="512" d=" M256 234.6666666666667H318.08C310.8266666666667 308.2666666666667 285.8666666666667 362.6666666666667 256 362.6666666666667C222.2933333333333 362.6666666666667 194.56 292.9066666666667 192 204.3733333333333L149.3333333333333 179.84V192C149.3333333333333 309.3333333333334 197.12 405.3333333333333 256 405.3333333333333C307.6266666666667 405.3333333333333 350.7200000000001 331.9466666666667 360.5333333333333 234.6666666666667H426.6666666666667L341.3333333333333 149.3333333333334L256 234.6666666666667M256 -21.3333333333333C215.8933333333334 -21.3333333333333 180.6933333333333 23.04 162.56 88.7466666666667L199.8933333333334 110.2933333333334C210.56 57.3866666666667 231.68 21.3333333333334 256 21.3333333333334C283.0933333333333 21.3333333333334 306.3466666666667 66.3466666666667 315.52 129.7066666666667L341.3333333333333 104.1066666666667L356.2666666666667 119.04C341.3333333333333 37.12 302.08 -21.3333333333333 256 -21.3333333333333M45.0133333333333 45.44L23.68 82.56L22.6133333333333 84.0533333333333L237.2266666666667 208L271.36 174.0799999999999L45.8666666666666 43.9466666666666L45.0133333333333 45.4399999999999M466.9866666666667 338.56L488.32 301.44L409.6 256H379.0933333333333L373.3333333333333 284.5866666666667L466.9866666666667 338.56z" /></svg>