<?xml version="1.0" encoding="UTF-8"?><!DOCTYPE svg PUBLIC "-//W3C//DTD SVG 1.1//EN" "http://www.w3.org/Graphics/SVG/1.1/DTD/svg11.dtd"><svg xmlns="http://www.w3.org/2000/svg" xmlns:xlink="http://www.w3.org/1999/xlink" version="1.1" width="512" height="512" viewBox="0 0 512 512">    <path fill="#ffffff" transform="scale(1, -1) translate(0, -448)" glyph-name="spotlight" unicode="&#xF4C8;" horiz-adv-x="512" d=" M42.6666666666667 320L151.2533333333333 265.6C136.5333333333333 245.3333333333334 128 219.52 128 192S136.5333333333333 138.6666666666667 151.2533333333333 118.4L42.6666666666667 64V320M128 384H384L329.6 296.7466666666667C309.3333333333333 311.4666666666667 283.52 320 256 320S202.6666666666667 311.4666666666667 182.4 296.7466666666667L128 384M469.3333333333333 320V64L360.7466666666667 118.4C375.4666666666667 138.6666666666667 384 164.48 384 192S375.4666666666667 245.3333333333334 360.7466666666667 265.6L469.3333333333333 320M384 0H128L182.4 87.2533333333333C202.6666666666667 72.5333333333333 228.48 64 256 64S309.3333333333333 72.5333333333333 329.6 87.2533333333333L384 0M256 277.3333333333334C303.1466666666667 277.3333333333334 341.3333333333333 239.1466666666667 341.3333333333333 192S303.1466666666667 106.6666666666667 256 106.6666666666667S170.6666666666667 144.8533333333334 170.6666666666667 192S208.8533333333333 277.3333333333334 256 277.3333333333334M256 234.6666666666667C232.5333333333334 234.6666666666667 213.3333333333333 215.4666666666667 213.3333333333333 192S232.5333333333334 149.3333333333334 256 149.3333333333334S298.6666666666667 168.5333333333334 298.6666666666667 192S279.4666666666667 234.6666666666667 256 234.6666666666667z" /></svg>