<?xml version="1.0" encoding="UTF-8"?><!DOCTYPE svg PUBLIC "-//W3C//DTD SVG 1.1//EN" "http://www.w3.org/Graphics/SVG/1.1/DTD/svg11.dtd"><svg xmlns="http://www.w3.org/2000/svg" xmlns:xlink="http://www.w3.org/1999/xlink" version="1.1" width="512" height="512" viewBox="0 0 512 512">    <path fill="#ffffff" transform="scale(1, -1) translate(0, -448)" glyph-name="atlassian" unicode="&#xF803;" horiz-adv-x="512" d=" M169.1733333333333 208.2133333333334C165.12 213.3333333333334 157.44 214.6133333333334 152.1066666666667 210.56C150.6133333333333 209.28 149.3333333333333 207.7866666666666 148.48 206.08L43.9466666666667 -3.2C40.7466666666667 -9.3866666666667 43.3066666666667 -16.8533333333334 49.4933333333333 -20.0533333333333C51.2 -21.3333333333333 53.3333333333333 -21.3333333333333 55.2533333333333 -21.3333333333333H200.7466666666667C205.44 -21.3333333333333 209.92 -18.7733333333333 212.0533333333333 -14.5066666666667C243.4133333333334 50.5600000000001 224 149.3333333333334 169.1733333333333 208.2133333333334M245.9733333333333 398.72C193.0666666666667 317.0133333333333 186.88 213.3333333333334 229.76 126.0800000000001L299.9466666666666 -14.5066666666667C302.2933333333333 -18.7733333333333 306.56 -21.3333333333333 311.2533333333333 -21.3333333333333H456.7466666666666C463.7866666666665 -21.3333333333333 469.3333333333333 -15.7866666666666 469.3333333333333 -8.7466666666667C469.3333333333333 -6.8266666666667 469.3333333333333 -4.9066666666666 468.0533333333333 -3.1999999999999C468.0533333333333 -3.1999999999999 272.2133333333333 388.9066666666667 266.6666666666667 398.7200000000001C264.32 404.48 257.28 407.04 251.3066666666666 404.0533333333334C248.96 402.9866666666667 247.04 401.0666666666667 245.9733333333333 398.7200000000001z" /></svg>