<?xml version="1.0" encoding="UTF-8"?><!DOCTYPE svg PUBLIC "-//W3C//DTD SVG 1.1//EN" "http://www.w3.org/Graphics/SVG/1.1/DTD/svg11.dtd"><svg xmlns="http://www.w3.org/2000/svg" xmlns:xlink="http://www.w3.org/1999/xlink" version="1.1" width="512" height="512" viewBox="0 0 512 512">    <path fill="#ffffff" transform="scale(1, -1) translate(0, -448)" glyph-name="source-branch" unicode="&#xF62C;" horiz-adv-x="512" d=" M277.3333333333333 149.3333333333334C205.6533333333333 149.3333333333334 182.1866666666667 120.5333333333334 174.5066666666667 101.5466666666666C197.3333333333333 91.7333333333334 213.3333333333333 69.12 213.3333333333333 42.6666666666667C213.3333333333333 7.2533333333333 184.7466666666667 -21.3333333333333 149.3333333333333 -21.3333333333333S85.3333333333333 7.2533333333333 85.3333333333333 42.6666666666667C85.3333333333333 70.6133333333334 103.04 94.2933333333334 128 103.04V280.9600000000001C103.04 289.7066666666667 85.3333333333333 313.3866666666667 85.3333333333333 341.3333333333334C85.3333333333333 376.7466666666667 113.92 405.3333333333333 149.3333333333333 405.3333333333333S213.3333333333333 376.7466666666667 213.3333333333333 341.3333333333334C213.3333333333333 313.3866666666667 195.6266666666667 289.7066666666667 170.6666666666667 280.9600000000001V168.1066666666667C189.44 181.9733333333334 216.7466666666667 192 256 192C312.96 192 331.9466666666667 220.5866666666667 338.1333333333334 239.5733333333334C315.0933333333333 249.1733333333334 298.6666666666667 272 298.6666666666667 298.6666666666667C298.6666666666667 334.0800000000001 327.2533333333334 362.6666666666667 362.6666666666667 362.6666666666667S426.6666666666667 334.0800000000001 426.6666666666667 298.6666666666667C426.6666666666667 270.0800000000001 407.8933333333333 245.3333333333334 382.08 237.6533333333334C376.5333333333333 207.1466666666667 355.84 149.3333333333334 277.3333333333333 149.3333333333334M149.3333333333333 64C137.6 64 128 54.4 128 42.6666666666667S137.6 21.3333333333334 149.3333333333333 21.3333333333334S170.6666666666667 30.9333333333333 170.6666666666667 42.6666666666667S161.0666666666667 64 149.3333333333333 64M149.3333333333333 362.6666666666667C137.6 362.6666666666667 128 353.0666666666667 128 341.3333333333334S137.6 320 149.3333333333333 320S170.6666666666667 329.6 170.6666666666667 341.3333333333334S161.0666666666667 362.6666666666667 149.3333333333333 362.6666666666667M362.6666666666667 320C350.9333333333333 320 341.3333333333333 310.4 341.3333333333333 298.6666666666667S350.9333333333333 277.3333333333334 362.6666666666667 277.3333333333334S384 286.9333333333334 384 298.6666666666667S374.4 320 362.6666666666667 320z" /></svg>