<?xml version="1.0" encoding="UTF-8"?><!DOCTYPE svg PUBLIC "-//W3C//DTD SVG 1.1//EN" "http://www.w3.org/Graphics/SVG/1.1/DTD/svg11.dtd"><svg xmlns="http://www.w3.org/2000/svg" xmlns:xlink="http://www.w3.org/1999/xlink" version="1.1" width="512" height="512" viewBox="0 0 512 512">    <path fill="#ffffff" transform="scale(1, -1) translate(0, -448)" glyph-name="hand" unicode="&#xFA4E;" horiz-adv-x="512" d=" M140.3733333333333 42.6666666666667H311.04V-21.3333333333333H140.3733333333333V42.6666666666667M421.12 200.5333333333334C417.0666666666667 204.8 411.5200000000001 207.36 405.3333333333334 207.36L400.6400000000001 206.72L332.3733333333335 170.6666666666668V195.6266666666667L343.2533333333335 386.1333333333334C343.8933333333335 397.8666666666667 334.9333333333335 408.1066666666667 323.2000000000002 408.7466666666667C311.4666666666668 409.3866666666667 301.2266666666668 400.4266666666667 300.5866666666668 388.6933333333334L294.8266666666668 288.6400000000001H289.7066666666668L267.5200000000001 286.2933333333334V405.3333333333333C267.5200000000001 417.0666666666667 257.9200000000002 426.6666666666667 246.1866666666668 426.6666666666667C234.6666666666668 426.6666666666667 224.8533333333335 417.0666666666667 224.8533333333335 405.3333333333333V268.5866666666667L207.3600000000001 260.6933333333334L192.6400000000001 377.1733333333334C191.1466666666668 388.9066666666667 180.4800000000001 397.2266666666667 168.7466666666668 395.7333333333334C157.0133333333335 394.6666666666667 148.6933333333335 384 150.1866666666668 371.8400000000001L166.6133333333335 242.5600000000001L158.5066666666668 238.9333333333334C155.7333333333335 237.8666666666667 153.1733333333335 236.1600000000001 150.8266666666668 234.6666666666667L127.3600000000001 317.6533333333334C123.9466666666668 329.8133333333334 112.0000000000001 337.0666666666667 100.4800000000001 334.0800000000001C89.1733333333335 330.6666666666668 82.7733333333335 318.2933333333334 86.1866666666668 306.1333333333334L141.0133333333335 111.5733333333334C141.0133333333335 110.9333333333334 141.4400000000001 110.08 141.6533333333335 109.4400000000001L142.2933333333335 106.6666666666667H142.5066666666668C147.2000000000001 94.5066666666668 159.3600000000001 85.3333333333334 172.3733333333335 85.3333333333334H311.0400000000002C319.3600000000002 85.3333333333334 326.8266666666668 88.7466666666667 332.3733333333335 94.5066666666667L437.3333333333335 184.1066666666667L421.1200000000001 200.5333333333333z" /></svg>