<?xml version="1.0" encoding="UTF-8"?><!DOCTYPE svg PUBLIC "-//W3C//DTD SVG 1.1//EN" "http://www.w3.org/Graphics/SVG/1.1/DTD/svg11.dtd"><svg xmlns="http://www.w3.org/2000/svg" xmlns:xlink="http://www.w3.org/1999/xlink" version="1.1" width="512" height="512" viewBox="0 0 512 512">    <path fill="#ffffff" transform="scale(1, -1) translate(0, -448)" glyph-name="comment-alert-outline" unicode="&#xF17E;" horiz-adv-x="512" d=" M192 -21.3333333333333C180.2666666666667 -21.3333333333333 170.6666666666667 -11.7333333333333 170.6666666666667 0V64H85.3333333333333C61.8666666666667 64 42.6666666666667 83.2 42.6666666666667 106.6666666666667V362.6666666666667C42.6666666666667 386.3466666666667 61.8666666666667 405.3333333333333 85.3333333333333 405.3333333333333H426.6666666666667C450.1333333333334 405.3333333333333 469.3333333333333 386.1333333333334 469.3333333333333 362.6666666666667V106.6666666666667C469.3333333333333 83.2 450.1333333333334 64 426.6666666666667 64H296.5333333333333L217.6 -15.1466666666666C213.3333333333333 -19.2 208 -21.3333333333333 202.6666666666667 -21.3333333333333H192M213.3333333333333 106.6666666666667V40.96L279.04 106.6666666666667H426.6666666666667V362.6666666666667H85.3333333333333V106.6666666666667H213.3333333333333M277.3333333333333 234.6666666666667H234.6666666666667V320H277.3333333333333V234.6666666666667M277.3333333333333 149.3333333333334H234.6666666666667V192H277.3333333333333V149.3333333333334z" /></svg>