<?xml version="1.0" encoding="UTF-8"?><!DOCTYPE svg PUBLIC "-//W3C//DTD SVG 1.1//EN" "http://www.w3.org/Graphics/SVG/1.1/DTD/svg11.dtd"><svg xmlns="http://www.w3.org/2000/svg" xmlns:xlink="http://www.w3.org/1999/xlink" version="1.1" width="512" height="512" viewBox="0 0 512 512">    <path fill="#ffffff" transform="scale(1, -1) translate(0, -448)" glyph-name="axis-y-rotate-counterclockwise" unicode="&#xFD30;" horiz-adv-x="512" d=" M256 149.3333333333334H318.08C310.8266666666667 75.7333333333334 285.8666666666667 21.3333333333334 256 21.3333333333334C222.2933333333333 21.3333333333334 194.56 91.0933333333334 192 179.6266666666667L149.3333333333333 204.16V192C149.3333333333333 74.6666666666667 197.12 -21.3333333333333 256 -21.3333333333333C307.6266666666667 -21.3333333333333 350.7200000000001 52.0533333333334 360.5333333333333 149.3333333333334H426.6666666666667L341.3333333333333 234.6666666666667L256 149.3333333333334M256 405.3333333333333C215.8933333333334 405.3333333333333 180.6933333333333 360.9600000000001 162.56 295.2533333333334L199.8933333333334 273.7066666666667C210.56 326.6133333333334 231.68 362.6666666666667 256 362.6666666666667C283.0933333333333 362.6666666666667 306.3466666666667 317.6533333333334 315.52 254.2933333333334L341.3333333333333 279.8933333333333L356.2666666666667 264.9600000000001C341.3333333333333 346.88 302.08 405.3333333333333 256 405.3333333333333M45.0133333333333 338.56L23.68 301.44L22.6133333333333 299.9466666666667L237.2266666666667 176L271.36 209.92L45.8666666666667 340.0533333333334L45.0133333333333 338.56M466.9866666666667 45.44L488.32 82.56L409.6 128H379.0933333333333L373.3333333333333 99.4133333333334L466.9866666666667 45.44z" /></svg>