<?xml version="1.0" encoding="UTF-8"?><!DOCTYPE svg PUBLIC "-//W3C//DTD SVG 1.1//EN" "http://www.w3.org/Graphics/SVG/1.1/DTD/svg11.dtd"><svg xmlns="http://www.w3.org/2000/svg" xmlns:xlink="http://www.w3.org/1999/xlink" version="1.1" width="512" height="512" viewBox="0 0 512 512">    <path fill="#ffffff" transform="scale(1, -1) translate(0, -448)" glyph-name="zodiac-aries" unicode="&#xFA7D;" horiz-adv-x="512" d=" M341.3333333333333 405.3333333333333C318.9333333333333 405.3333333333333 296.7466666666667 399.5733333333333 277.3333333333333 388.0533333333334C269.6533333333333 384 262.4 378.4533333333333 256 372.48C249.6 378.4533333333334 242.3466666666667 384 234.6666666666667 388.0533333333334C215.2533333333333 399.5733333333333 193.0666666666667 405.3333333333333 170.6666666666667 405.3333333333333C100.0533333333333 405.3333333333333 42.6666666666667 347.9466666666667 42.6666666666667 277.3333333333334S100.0533333333333 149.3333333333334 170.6666666666667 149.3333333333334V192C123.52 192 85.3333333333333 230.1866666666667 85.3333333333333 277.3333333333334S123.52 362.6666666666667 170.6666666666667 362.6666666666667C192 362.6666666666667 213.3333333333333 354.3466666666667 229.3333333333333 339.2000000000001C231.2533333333334 337.4933333333334 232.96 335.5733333333334 234.6666666666667 333.6533333333334V-21.3333333333333H277.3333333333333V333.6533333333333C279.04 335.5733333333333 280.7466666666667 337.4933333333334 282.6666666666667 339.2C316.8 371.6266666666667 370.7733333333333 370.3466666666667 403.4133333333333 336C435.84 301.8666666666667 434.3466666666667 247.8933333333333 400.2133333333334 215.4666666666667C384 200.32 363.3066666666667 192 341.3333333333333 192V149.3333333333334C411.9466666666666 149.3333333333334 469.3333333333333 206.72 469.3333333333333 277.3333333333334S411.9466666666666 405.3333333333333 341.3333333333333 405.3333333333333z" /></svg>