<?xml version="1.0" encoding="UTF-8"?><!DOCTYPE svg PUBLIC "-//W3C//DTD SVG 1.1//EN" "http://www.w3.org/Graphics/SVG/1.1/DTD/svg11.dtd"><svg xmlns="http://www.w3.org/2000/svg" xmlns:xlink="http://www.w3.org/1999/xlink" version="1.1" width="512" height="512" viewBox="0 0 512 512">    <path fill="#ffffff" transform="scale(1, -1) translate(0, -448)" glyph-name="star-face" unicode="&#xF9A4;" horiz-adv-x="512" d=" M256 394.6666666666667L179.6266666666667 276.0533333333334L42.6666666666667 240.2133333333334L132.2666666666667 130.5600000000001L124.16 -10.6666666666666L256 40.7466666666667L387.84 -10.6666666666666L379.7333333333334 130.5600000000001L469.3333333333333 240.2133333333334L332.3733333333334 276.0533333333334L256 394.6666666666667M200.1066666666666 224C213.3333333333333 224 224 213.3333333333334 224 199.8933333333334C224 186.6666666666668 213.3333333333333 176 200.1066666666666 176C186.6666666666666 176 176 186.6666666666667 176 199.8933333333334C176 213.3333333333334 186.6666666666667 224 200.1066666666666 224M312.1066666666667 224C325.3333333333333 224 336 213.3333333333334 336 199.8933333333334C336 186.6666666666668 325.3333333333333 176 312.1066666666667 176C298.6666666666667 176 288 186.6666666666667 288 199.8933333333334C288 213.3333333333334 298.6666666666667 224 312.1066666666667 224M192 128H320C309.3333333333333 102.1866666666667 283.9466666666667 85.3333333333334 256 85.3333333333334S202.6666666666667 102.1866666666667 192 128z" /></svg>