<?xml version="1.0" encoding="UTF-8"?><!DOCTYPE svg PUBLIC "-//W3C//DTD SVG 1.1//EN" "http://www.w3.org/Graphics/SVG/1.1/DTD/svg11.dtd"><svg xmlns="http://www.w3.org/2000/svg" xmlns:xlink="http://www.w3.org/1999/xlink" version="1.1" width="512" height="512" viewBox="0 0 512 512">    <path fill="#ffffff" transform="scale(1, -1) translate(0, -448)" glyph-name="rugby" unicode="&#xFD75;" horiz-adv-x="512" d=" M346.0266666666667 101.9733333333334C389.3333333333333 145.28 412.3733333333333 202.6666666666667 414.9333333333333 273.0666666666667C391.68 221.6533333333334 358.6133333333333 174.72 315.9466666666666 132.0533333333334C273.28 89.3866666666667 226.3466666666667 56.3200000000001 174.9333333333333 33.0666666666667C245.3333333333333 34.9866666666667 302.08 58.0266666666666 346.0266666666667 101.9733333333334M165.9733333333333 282.0266666666667C122.6666666666667 238.72 99.6266666666667 181.3333333333334 97.0666666666667 110.9333333333333C106.6666666666667 132.2666666666667 121.6 156.8 141.0133333333333 184.5333333333333C160 212.2666666666667 178.7733333333333 234.6666666666667 196.0533333333333 251.9466666666667C238.72 294.6133333333334 285.6533333333333 327.68 337.0666666666667 350.9333333333333C266.6666666666667 349.0133333333333 209.92 325.9733333333333 165.9733333333334 282.0266666666667M437.3333333333333 373.3333333333334C448 361.6 455.2533333333333 338.9866666666667 458.0266666666666 305.0666666666667C460.5866666666666 270.9333333333334 455.4666666666666 231.2533333333334 442.4533333333333 185.6C429.44 139.7333333333334 407.68 101.76 376.9599999999999 71.04C349.0133333333333 42.6666666666667 315.7333333333334 22.4 277.3333333333333 9.6C239.1466666666667 -3.4133333333333 201.3866666666667 -10.0266666666667 164.0533333333334 -10.0266666666667C118.6133333333334 -10.0266666666667 88.96 -2.9866666666667 74.6666666666667 10.6666666666666C64 22.4 56.7466666666667 45.0133333333333 53.9733333333333 78.9333333333333C51.4133333333333 113.0666666666666 56.5333333333333 152.7466666666666 69.5466666666667 198.3999999999999C82.56 244.2666666666666 104.32 282.2399999999999 135.04 312.9599999999999C162.9866666666667 341.3333333333334 196.2666666666667 361.6 234.6666666666667 374.4C272.8533333333333 387.4133333333333 310.6133333333334 394.0266666666667 347.9466666666666 394.0266666666667C393.3866666666666 394.0266666666667 423.04 386.9866666666667 437.3333333333333 373.3333333333334z" /></svg>