<?xml version="1.0" encoding="UTF-8"?><!DOCTYPE svg PUBLIC "-//W3C//DTD SVG 1.1//EN" "http://www.w3.org/Graphics/SVG/1.1/DTD/svg11.dtd"><svg xmlns="http://www.w3.org/2000/svg" xmlns:xlink="http://www.w3.org/1999/xlink" version="1.1" width="512" height="512" viewBox="0 0 512 512">    <path fill="#ffffff" transform="scale(1, -1) translate(0, -448)" glyph-name="taxi" unicode="&#xF4FF;" horiz-adv-x="512" d=" M106.6666666666667 213.3333333333334L138.6666666666667 309.3333333333334H373.3333333333333L405.3333333333333 213.3333333333334M373.3333333333333 106.6666666666667C355.6266666666667 106.6666666666667 341.3333333333333 120.96 341.3333333333333 138.6666666666667S355.6266666666667 170.6666666666667 373.3333333333333 170.6666666666667S405.3333333333333 156.3733333333333 405.3333333333333 138.6666666666667S391.04 106.6666666666667 373.3333333333333 106.6666666666667M138.6666666666667 106.6666666666667C120.96 106.6666666666667 106.6666666666667 120.96 106.6666666666667 138.6666666666667S120.96 170.6666666666667 138.6666666666667 170.6666666666667S170.6666666666667 156.3733333333333 170.6666666666667 138.6666666666667S156.3733333333333 106.6666666666667 138.6666666666667 106.6666666666667M403.6266666666667 320C399.36 332.3733333333334 387.4133333333333 341.3333333333334 373.3333333333333 341.3333333333334H320V384H192V341.3333333333334H138.6666666666667C124.5866666666667 341.3333333333334 112.64 332.3733333333334 108.3733333333333 320L64 192V21.3333333333334C64 9.6 73.6 0 85.3333333333333 0H106.6666666666667C118.4 0 128 9.6 128 21.3333333333334V42.6666666666667H384V21.3333333333334C384 9.6 393.6 0 405.3333333333333 0H426.6666666666667C438.4 0 448 9.6 448 21.3333333333334V192L403.6266666666667 320z" /></svg>