<?xml version="1.0" encoding="UTF-8"?><!DOCTYPE svg PUBLIC "-//W3C//DTD SVG 1.1//EN" "http://www.w3.org/Graphics/SVG/1.1/DTD/svg11.dtd"><svg xmlns="http://www.w3.org/2000/svg" xmlns:xlink="http://www.w3.org/1999/xlink" version="1.1" width="512" height="512" viewBox="0 0 512 512">    <path fill="#ffffff" transform="scale(1, -1) translate(0, -448)" glyph-name="timer-10" unicode="&#xF51C;" horiz-adv-x="512" d=" M275.2 165.9733333333334C275.2 153.1733333333334 274.3466666666667 142.2933333333334 272.64 133.3333333333334C270.9333333333334 124.3733333333333 268.3733333333334 117.3333333333334 264.9600000000001 111.5733333333334C261.5466666666667 106.0266666666666 257.2800000000001 101.9733333333334 252.3733333333334 99.4133333333334C247.4666666666667 96.8533333333334 241.4933333333334 96 234.6666666666667 96C228.4800000000001 96 222.5066666666667 96.8533333333334 217.3866666666667 99.4133333333334C212.2666666666667 101.9733333333334 208 106.0266666666666 204.5866666666667 111.5733333333334C201.1733333333334 117.3333333333334 198.4 124.3733333333333 196.48 133.3333333333334C194.56 142.2933333333334 193.7066666666667 153.1733333333334 193.7066666666667 165.9733333333334V219.3066666666667C193.7066666666667 232.1066666666667 194.56 242.9866666666667 196.48 251.7333333333333C198.4 260.48 200.96 267.52 204.5866666666667 273.0666666666667C208 278.4 212.2666666666667 282.24 217.3866666666667 284.8C222.5066666666667 287.1466666666667 228.2666666666667 288 234.6666666666667 288C241.2800000000001 288 247.04 287.1466666666667 251.9466666666667 284.8C257.0666666666667 282.4533333333333 261.3333333333334 278.6133333333334 264.7466666666667 273.0666666666667C268.1600000000001 267.7333333333334 270.9333333333334 260.6933333333334 272.64 251.9466666666667C274.3466666666667 243.2 275.4133333333334 232.32 275.4133333333334 219.52V165.9733333333334M294.8266666666667 297.6C288 306.1333333333334 278.8266666666667 312.5333333333333 268.5866666666667 316.3733333333334C258.56 320 247.04 322.1333333333334 234.6666666666667 322.1333333333334C222.2933333333333 322.1333333333334 210.9866666666667 320 200.7466666666667 316.3733333333334C190.5066666666667 312.5333333333334 181.3333333333333 306.3466666666667 174.5066666666667 297.6C167.2533333333333 288.8533333333334 161.7066666666667 277.3333333333334 157.6533333333333 263.68C153.8133333333333 249.8133333333334 151.68 232.7466666666667 151.68 212.6933333333333V171.7333333333334C151.68 151.68 153.6 134.6133333333334 157.6533333333333 120.7466666666667C161.7066666666667 106.6666666666667 167.2533333333333 95.36 174.72 86.6133333333334C181.9733333333333 77.8666666666667 190.72 71.4666666666666 200.96 67.6266666666667C211.2 63.9999999999999 222.5066666666667 61.6533333333333 234.6666666666667 61.6533333333333C247.4666666666667 61.6533333333333 258.7733333333333 63.9999999999999 268.8 67.6266666666667C279.04 71.4666666666666 288 77.8666666666667 294.8266666666667 86.6133333333334C302.08 95.36 307.6266666666667 106.6666666666667 311.4666666666667 120.7466666666667C315.3066666666666 134.6133333333334 317.44 151.68 317.44 171.7333333333334V212.6933333333333C317.44 232.7466666666667 315.52 249.8133333333334 311.4666666666667 263.68C307.6266666666667 277.3333333333334 302.08 289.0666666666667 294.8266666666667 297.6M507.3066666666667 141.44C504.32 147.4133333333333 499.84 152.7466666666667 493.8666666666667 157.2266666666667C487.8933333333333 161.7066666666667 480.8533333333334 165.5466666666667 472.32 168.5333333333333S454.1866666666666 174.2933333333333 443.52 176.64C436.0533333333333 178.1333333333333 429.8666666666666 179.84 424.9599999999999 181.3333333333334C420.0533333333333 183.2533333333333 415.9999999999999 184.96 413.2266666666666 186.88C410.2399999999999 188.8 408.32 190.9333333333333 407.2533333333332 193.28C406.1866666666666 195.6266666666667 405.3333333333333 198.4 405.3333333333333 201.6C405.3333333333333 204.5866666666667 406.1866666666666 207.5733333333334 407.4666666666666 210.3466666666667C408.7466666666666 213.3333333333334 410.6666666666666 215.68 413.2266666666666 217.6C415.9999999999999 219.7333333333334 418.9866666666666 221.44 422.8266666666666 222.72S431.3599999999999 224.6400000000001 436.4799999999999 224.6400000000001C441.8133333333333 224.6400000000001 446.5066666666666 224.0000000000001 450.5599999999999 222.2933333333334C454.6133333333333 220.8000000000001 458.0266666666666 218.6666666666667 460.8 216.1066666666668C463.5733333333333 213.3333333333334 465.4933333333332 210.5600000000001 466.9866666666666 207.1466666666667C468.2666666666665 203.7333333333334 469.3333333333333 200.3200000000001 469.3333333333333 196.6933333333334H510.7199999999999C510.7199999999999 205.0133333333334 509.0133333333333 212.6933333333334 505.6 219.9466666666667C502.1866666666666 227.2000000000001 497.28 233.3866666666668 490.6666666666666 238.7200000000001C484.48 244.0533333333334 476.8 248.1066666666668 467.6266666666667 251.3066666666668C458.6666666666666 254.5066666666667 448 256 436.48 256C425.6 256 416 254.5066666666667 406.8266666666667 251.52C398.08 248.5333333333333 390.4 244.48 384 239.36C378.0266666666667 234.6666666666667 373.3333333333333 228.2666666666667 369.92 221.44C366.5066666666667 214.6133333333333 365.0133333333333 207.5733333333333 365.0133333333333 199.8933333333333C365.0133333333333 192 366.7199999999999 185.1733333333334 369.92 179.4133333333334C373.3333333333333 173.4400000000001 377.6 168.3200000000001 384 163.84C389.3333333333333 159.36 396.3733333333333 155.7333333333334 404.48 152.5333333333334C412.5866666666667 149.3333333333334 421.76 146.9866666666667 431.5733333333333 144.8533333333334C439.8933333333333 143.1466666666667 446.7200000000001 141.2266666666667 451.84 139.3066666666667S461.0133333333333 135.2533333333334 464 133.1200000000001C466.7733333333333 130.9866666666667 468.6933333333333 128.0000000000001 469.3333333333333 125.8666666666667C470.8266666666667 123.3066666666667 471.2533333333333 120.5333333333334 471.2533333333333 117.3333333333334C471.2533333333333 110.72 468.48 105.3866666666667 462.72 101.1200000000001C456.96 96.8533333333334 448.64 94.9333333333334 437.3333333333333 94.9333333333334C433.0666666666667 94.9333333333334 428.5866666666667 95.3600000000001 424.1066666666667 96.64C419.6266666666666 97.7066666666667 416 99.4133333333334 412.16 101.76C408.5333333333333 104.1066666666667 405.3333333333333 107.3066666666667 403.4133333333333 111.1466666666667C401.0666666666667 114.9866666666667 399.7866666666667 119.8933333333333 399.5733333333333 125.44H359.2533333333334C359.2533333333334 117.3333333333333 360.9599999999999 110.2933333333333 364.3733333333333 103.04C367.7866666666667 96 372.6933333333333 89.1733333333334 379.3066666666666 83.2C385.9199999999999 77.44 394.0266666666667 72.7466666666667 403.8399999999999 69.12C413.6533333333333 65.4933333333333 424.7466666666666 64 437.3333333333333 64C448.8533333333333 64 458.6666666666666 65.0666666666667 468.2666666666665 67.84C477.4399999999999 70.6133333333334 485.3333333333333 74.6666666666667 491.9466666666665 79.36C498.5599999999998 84.2666666666667 503.4666666666665 90.24 507.0933333333332 97.0666666666666C510.7199999999999 103.8933333333333 511.9999999999999 111.36 511.9999999999999 119.68S510.5066666666665 135.4666666666667 507.3066666666666 141.44M0 283.3066666666667V247.4666666666667L64 268.8V64H106.6666666666667V320H101.3333333333333L0 283.3066666666667z" /></svg>