<?xml version="1.0" encoding="UTF-8"?><!DOCTYPE svg PUBLIC "-//W3C//DTD SVG 1.1//EN" "http://www.w3.org/Graphics/SVG/1.1/DTD/svg11.dtd"><svg xmlns="http://www.w3.org/2000/svg" xmlns:xlink="http://www.w3.org/1999/xlink" version="1.1" width="512" height="512" viewBox="0 0 512 512">    <path fill="#ffffff" transform="scale(1, -1) translate(0, -448)" glyph-name="table-remove" unicode="&#xFA75;" horiz-adv-x="512" d=" M329.8133333333334 109.2266666666667L360.1066666666667 139.52L405.3333333333333 94.08L450.56 139.52L480.8533333333333 109.2266666666667L435.4133333333333 64L480.8533333333333 18.7733333333333L450.5599999999999 -11.52L405.3333333333333 33.92L360.1066666666667 -11.52L329.8133333333333 18.7733333333334L375.2533333333334 64L329.8133333333334 109.2266666666667M85.3333333333333 384H384C407.4666666666667 384 426.6666666666667 364.8 426.6666666666667 341.3333333333334V190.2933333333334C393.6 195.84 360.9600000000001 188.16 334.5066666666667 170.6666666666667H256V85.3333333333334H279.04C276.6933333333334 70.8266666666667 276.6933333333334 56.5333333333333 279.04 42.6666666666667H85.3333333333333C61.8666666666667 42.6666666666667 42.6666666666667 61.8666666666667 42.6666666666667 85.3333333333334V341.3333333333334C42.6666666666667 364.8 61.8666666666667 384 85.3333333333333 384M85.3333333333333 298.6666666666667V213.3333333333334H213.3333333333333V298.6666666666667H85.3333333333333M256 298.6666666666667V213.3333333333334H384V298.6666666666667H256M85.3333333333333 170.6666666666667V85.3333333333334H213.3333333333333V170.6666666666667H85.3333333333333z" /></svg>