<?xml version="1.0" encoding="UTF-8"?><!DOCTYPE svg PUBLIC "-//W3C//DTD SVG 1.1//EN" "http://www.w3.org/Graphics/SVG/1.1/DTD/svg11.dtd"><svg xmlns="http://www.w3.org/2000/svg" xmlns:xlink="http://www.w3.org/1999/xlink" version="1.1" width="512" height="512" viewBox="0 0 512 512">    <path fill="#ffffff" transform="scale(1, -1) translate(0, -448)" glyph-name="toggle-switch-off-outline" unicode="&#xFA18;" horiz-adv-x="512" d=" M149.3333333333333 234.6666666666667C172.8 234.6666666666667 192 215.4666666666667 192 192S172.8 149.3333333333334 149.3333333333333 149.3333333333334S106.6666666666667 168.5333333333334 106.6666666666667 192S125.8666666666667 234.6666666666667 149.3333333333333 234.6666666666667M362.6666666666667 298.6666666666667C421.5466666666666 298.6666666666667 469.3333333333333 250.88 469.3333333333333 192S421.5466666666666 85.3333333333334 362.6666666666667 85.3333333333334H149.3333333333333C90.4533333333333 85.3333333333334 42.6666666666667 133.12 42.6666666666667 192S90.4533333333333 298.6666666666667 149.3333333333333 298.6666666666667H362.6666666666667M149.3333333333333 256C113.92 256 85.3333333333333 227.4133333333334 85.3333333333333 192S113.92 128 149.3333333333333 128H362.6666666666667C398.08 128 426.6666666666667 156.5866666666667 426.6666666666667 192S398.08 256 362.6666666666667 256H149.3333333333333z" /></svg>