<?xml version="1.0" encoding="UTF-8"?><!DOCTYPE svg PUBLIC "-//W3C//DTD SVG 1.1//EN" "http://www.w3.org/Graphics/SVG/1.1/DTD/svg11.dtd"><svg xmlns="http://www.w3.org/2000/svg" xmlns:xlink="http://www.w3.org/1999/xlink" version="1.1" width="512" height="512" viewBox="0 0 512 512">    <path fill="#ffffff" transform="scale(1, -1) translate(0, -448)" glyph-name="printer-3d" unicode="&#xF42B;" horiz-adv-x="512" d=" M405.3333333333333 320C417.0666666666667 320 426.6666666666667 329.6 426.6666666666667 341.3333333333334S417.0666666666667 362.6666666666667 405.3333333333333 362.6666666666667S384 353.0666666666667 384 341.3333333333334S393.6 320 405.3333333333333 320M405.3333333333333 405.3333333333333C440.7466666666667 405.3333333333333 469.3333333333333 376.7466666666667 469.3333333333333 341.3333333333334V213.3333333333334H384V298.6666666666667H128V213.3333333333334H42.6666666666667V341.3333333333334C42.6666666666667 376.7466666666667 71.2533333333333 405.3333333333333 106.6666666666667 405.3333333333333H405.3333333333333M384 58.6666666666667C384 50.5600000000001 379.52 43.52 372.6933333333333 39.8933333333334L268.16 -17.4933333333333C264.5333333333333 -20.0533333333333 260.48 -21.3333333333333 256 -21.3333333333333C251.5199999999999 -21.3333333333333 247.2533333333333 -20.0533333333333 243.84 -17.4933333333333L139.3066666666666 39.8933333333334C132.4799999999999 43.5200000000001 128 50.5600000000001 128 58.6666666666667V170.6666666666667C128 178.7733333333334 132.4799999999999 185.8133333333334 139.3066666666666 189.4400000000001L243.84 241.4933333333334C247.2533333333333 244.0533333333334 251.5199999999999 245.3333333333334 256 245.3333333333334C260.48 245.3333333333334 264.5333333333333 244.0533333333334 268.16 241.4933333333334L372.6933333333333 189.4400000000001C379.52 185.8133333333334 384 178.7733333333334 384 170.6666666666667V58.6666666666667M256 199.4666666666667L192.8533333333333 170.6666666666667L256 136.5333333333334L319.1466666666667 170.6666666666667L256 199.4666666666667M170.6666666666667 71.2533333333333L234.6666666666667 36.48V99.6266666666667L170.6666666666667 134.1866666666667V71.2533333333335M341.3333333333333 71.2533333333335V134.1866666666667L277.3333333333333 99.6266666666667V36.48L341.3333333333333 71.2533333333333z" /></svg>