<?xml version="1.0" encoding="UTF-8"?><!DOCTYPE svg PUBLIC "-//W3C//DTD SVG 1.1//EN" "http://www.w3.org/Graphics/SVG/1.1/DTD/svg11.dtd"><svg xmlns="http://www.w3.org/2000/svg" xmlns:xlink="http://www.w3.org/1999/xlink" version="1.1" width="512" height="512" viewBox="0 0 512 512">    <path fill="#ffffff" transform="scale(1, -1) translate(0, -448)" glyph-name="restart" unicode="&#xF708;" horiz-adv-x="512" d=" M256 362.6666666666667C300.8 362.6666666666667 343.4666666666667 345.6 375.4666666666667 313.6C441.6 247.4666666666667 441.6 138.6666666666667 375.4666666666667 72.5333333333333C337.0666666666667 32 283.7333333333334 17.0666666666666 232.5333333333334 23.4666666666666L243.2000000000001 66.1333333333333C279.4666666666667 61.8666666666667 317.8666666666667 74.6666666666666 345.6 102.4C394.6666666666668 151.4666666666667 394.6666666666668 232.5333333333333 345.6 283.7333333333333C322.1333333333334 307.2000000000001 288 320 256 320V221.8666666666667L149.3333333333333 328.5333333333334L256 435.2V362.6666666666667M134.4 72.5333333333333C78.9333333333333 128 70.4 213.3333333333334 108.8 279.4666666666667L140.8 247.4666666666667C117.3333333333333 200.5333333333333 125.8666666666667 140.8 166.4 102.4C177.0666666666667 91.7333333333334 189.8666666666667 83.2000000000001 204.8 76.8000000000001L192 34.1333333333334C170.6666666666667 42.6666666666667 151.4666666666667 55.4666666666667 134.4 72.5333333333334z" /></svg>