<?xml version="1.0" encoding="UTF-8"?><!DOCTYPE svg PUBLIC "-//W3C//DTD SVG 1.1//EN" "http://www.w3.org/Graphics/SVG/1.1/DTD/svg11.dtd"><svg xmlns="http://www.w3.org/2000/svg" xmlns:xlink="http://www.w3.org/1999/xlink" version="1.1" width="512" height="512" viewBox="0 0 512 512">    <path fill="#ffffff" transform="scale(1, -1) translate(0, -448)" glyph-name="attachment" unicode="&#xF066;" horiz-adv-x="512" d=" M160 64C95.1466666666667 64 42.6666666666667 116.48 42.6666666666667 181.3333333333334S95.1466666666667 298.6666666666667 160 298.6666666666667H384C431.1466666666667 298.6666666666667 469.3333333333333 260.48 469.3333333333333 213.3333333333334S431.1466666666667 128 384 128H202.6666666666667C173.2266666666666 128 149.3333333333333 151.8933333333333 149.3333333333333 181.3333333333334S173.2266666666666 234.6666666666667 202.6666666666667 234.6666666666667H362.6666666666667V202.6666666666667H202.6666666666667C190.9333333333333 202.6666666666667 181.3333333333333 193.0666666666667 181.3333333333333 181.3333333333334S190.9333333333333 160 202.6666666666667 160H384C413.44 160 437.3333333333333 183.8933333333334 437.3333333333333 213.3333333333334S413.44 266.6666666666667 384 266.6666666666667H160C112.8533333333333 266.6666666666667 74.6666666666667 228.48 74.6666666666667 181.3333333333334S112.8533333333333 96 160 96H362.6666666666667V64H160z" /></svg>