<?xml version="1.0" encoding="UTF-8"?><!DOCTYPE svg PUBLIC "-//W3C//DTD SVG 1.1//EN" "http://www.w3.org/Graphics/SVG/1.1/DTD/svg11.dtd"><svg xmlns="http://www.w3.org/2000/svg" xmlns:xlink="http://www.w3.org/1999/xlink" version="1.1" width="512" height="512" viewBox="0 0 512 512">    <path fill="#ffffff" transform="scale(1, -1) translate(0, -448)" glyph-name="cloud-download-outline" unicode="&#xFB59;" horiz-adv-x="512" d=" M170.6666666666667 170.6666666666667H225.0666666666667V234.6666666666667H286.9333333333334V170.6666666666667H341.3333333333333L256 85.3333333333334L170.6666666666667 170.6666666666667M412.8 233.8133333333334C468.2666666666667 229.9733333333334 512 184.3200000000001 512 128C512 69.1200000000001 464.2133333333333 21.3333333333334 405.3333333333333 21.3333333333334H128C57.3866666666667 21.3333333333334 0 78.72 0 149.3333333333334C0 215.2533333333333 49.92 269.6533333333334 114.1333333333333 276.48C140.8 327.68 194.3466666666666 362.6666666666667 256 362.6666666666667C333.6533333333333 362.6666666666667 398.2933333333334 307.4133333333334 412.8 233.8133333333334M405.3333333333333 64C440.7466666666667 64 469.3333333333333 92.5866666666667 469.3333333333333 128C469.3333333333333 161.0666666666667 443.3066666666667 189.0133333333333 410.0266666666667 191.1466666666667L377.3866666666666 193.4933333333334L370.9866666666666 225.4933333333334C360.1066666666667 280.32 311.8933333333333 320 256 320C212.0533333333333 320 172.3733333333333 295.68 152.1066666666667 256.64L141.44 236.3733333333334L118.6133333333333 234.0266666666667C75.3066666666667 229.5466666666667 42.6666666666667 193.0666666666667 42.6666666666667 149.3333333333334C42.6666666666667 102.1866666666667 80.8533333333333 64 128 64H405.3333333333333z" /></svg>