<?xml version="1.0" encoding="UTF-8"?><!DOCTYPE svg PUBLIC "-//W3C//DTD SVG 1.1//EN" "http://www.w3.org/Graphics/SVG/1.1/DTD/svg11.dtd"><svg xmlns="http://www.w3.org/2000/svg" xmlns:xlink="http://www.w3.org/1999/xlink" version="1.1" width="512" height="512" viewBox="0 0 512 512">    <path fill="#ffffff" transform="scale(1, -1) translate(0, -448)" glyph-name="arrow-all" unicode="&#xF041;" horiz-adv-x="512" d=" M277.3333333333333 213.3333333333334H384L352 245.3333333333334L382.2933333333334 275.6266666666667L465.92 192L382.2933333333334 108.3733333333333L352 138.6666666666667L384 170.6666666666667H277.3333333333333V64L309.3333333333333 96L339.6266666666667 65.7066666666667L256 -17.92L172.3733333333333 65.7066666666667L202.6666666666667 96L234.6666666666667 64V170.6666666666667H128L160 138.6666666666667L129.7066666666667 108.3733333333333L46.08 192L129.7066666666667 275.6266666666667L160 245.3333333333334L128 213.3333333333334H234.6666666666667V320L202.6666666666667 288L172.3733333333333 318.2933333333334L256 401.92L339.6266666666667 318.2933333333334L309.3333333333333 288L277.3333333333333 320V213.3333333333334z" /></svg>