<?xml version="1.0" encoding="UTF-8"?><!DOCTYPE svg PUBLIC "-//W3C//DTD SVG 1.1//EN" "http://www.w3.org/Graphics/SVG/1.1/DTD/svg11.dtd"><svg xmlns="http://www.w3.org/2000/svg" xmlns:xlink="http://www.w3.org/1999/xlink" version="1.1" width="512" height="512" viewBox="0 0 512 512">    <path fill="#ffffff" transform="scale(1, -1) translate(0, -448)" glyph-name="server-remove" unicode="&#xF491;" horiz-adv-x="512" d=" M85.3333333333333 362.6666666666667H426.6666666666667C438.4 362.6666666666667 448 353.0666666666667 448 341.3333333333334V256C448 244.2666666666667 438.4 234.6666666666667 426.6666666666667 234.6666666666667H85.3333333333333C73.6 234.6666666666667 64 244.2666666666667 64 256V341.3333333333334C64 353.0666666666667 73.6 362.6666666666667 85.3333333333333 362.6666666666667M192 277.3333333333334H213.3333333333333V320H192V277.3333333333334M106.6666666666667 320V277.3333333333334H149.3333333333333V320H106.6666666666667M225.92 85.3333333333334L170.6666666666667 140.5866666666667L200.7466666666667 170.6666666666667L256 115.4133333333334L311.2533333333334 170.6666666666667L341.3333333333333 140.5866666666667L286.08 85.3333333333334L341.3333333333333 30.08L311.2533333333334 0L256 55.2533333333333L200.7466666666667 0L170.6666666666667 30.08L225.92 85.3333333333334z" /></svg>