<?xml version="1.0" encoding="UTF-8"?><!DOCTYPE svg PUBLIC "-//W3C//DTD SVG 1.1//EN" "http://www.w3.org/Graphics/SVG/1.1/DTD/svg11.dtd"><svg xmlns="http://www.w3.org/2000/svg" xmlns:xlink="http://www.w3.org/1999/xlink" version="1.1" width="512" height="512" viewBox="0 0 512 512">    <path fill="#ffffff" transform="scale(1, -1) translate(0, -448)" glyph-name="headphones-box" unicode="&#xF2CC;" horiz-adv-x="512" d=" M153.6 64C139.52 64 128 75.52 128 89.6V192C128 262.6133333333334 185.3866666666667 320 256 320S384 262.6133333333334 384 192V89.6C384 75.52 372.48 64 358.4 64H298.6666666666667V149.3333333333334H341.3333333333333V192C341.3333333333333 239.1466666666667 303.1466666666667 277.3333333333334 256 277.3333333333334S170.6666666666667 239.1466666666667 170.6666666666667 192V149.3333333333334H213.3333333333333V64M405.3333333333333 384H106.6666666666667C82.9866666666667 384 64 365.0133333333333 64 341.3333333333334V42.6666666666667C64 19.2 83.2 0 106.6666666666667 0H405.3333333333333C428.8 0 448 19.2 448 42.6666666666667V341.3333333333334C448 365.0133333333333 428.8 384 405.3333333333333 384z" /></svg>