<?xml version="1.0" encoding="UTF-8"?><!DOCTYPE svg PUBLIC "-//W3C//DTD SVG 1.1//EN" "http://www.w3.org/Graphics/SVG/1.1/DTD/svg11.dtd"><svg xmlns="http://www.w3.org/2000/svg" xmlns:xlink="http://www.w3.org/1999/xlink" version="1.1" width="512" height="512" viewBox="0 0 512 512">    <path fill="#ffffff" transform="scale(1, -1) translate(0, -448)" glyph-name="track-light" unicode="&#xF913;" horiz-adv-x="512" d=" M128 426.6666666666667V384H192V311.4666666666667L87.68 354.56L30.5066666666667 216.7466666666667L148.6933333333333 167.68L254.7200000000001 89.1733333333334L294.1866666666667 72.7466666666667L375.8933333333333 269.8666666666667L336.4266666666667 286.2933333333334L234.6666666666667 301.44V384H298.6666666666667V426.6666666666667H128M465.28 313.8133333333334L416.0000000000001 293.3333333333334L432.2133333333334 253.8666666666667L481.4933333333334 274.3466666666667L465.28 313.8133333333334M421.9733333333334 158.5066666666667L405.3333333333333 119.04L464.8533333333333 94.5066666666667L481.0666666666667 133.9733333333334L421.9733333333334 158.5066666666667M345.3866666666667 44.16L305.92 27.9466666666667L326.4 -21.3333333333333L365.8666666666667 -4.9066666666666L345.3866666666667 44.16z" /></svg>