<?xml version="1.0" encoding="UTF-8"?><!DOCTYPE svg PUBLIC "-//W3C//DTD SVG 1.1//EN" "http://www.w3.org/Graphics/SVG/1.1/DTD/svg11.dtd"><svg xmlns="http://www.w3.org/2000/svg" xmlns:xlink="http://www.w3.org/1999/xlink" version="1.1" width="512" height="512" viewBox="0 0 512 512">    <path fill="#ffffff" transform="scale(1, -1) translate(0, -448)" glyph-name="more" unicode="&#xF37B;" horiz-adv-x="512" d=" M405.3333333333333 160C387.6266666666667 160 373.3333333333333 174.2933333333334 373.3333333333333 192S387.6266666666667 224 405.3333333333333 224S437.3333333333333 209.7066666666667 437.3333333333333 192S423.04 160 405.3333333333333 160M298.6666666666667 160C280.96 160 266.6666666666667 174.2933333333334 266.6666666666667 192S280.96 224 298.6666666666667 224S330.6666666666667 209.7066666666667 330.6666666666667 192S316.3733333333334 160 298.6666666666667 160M192 160C174.2933333333333 160 160 174.2933333333334 160 192S174.2933333333333 224 192 224S224 209.7066666666667 224 192S209.7066666666667 160 192 160M469.3333333333333 384H149.3333333333333C134.6133333333334 384 123.0933333333333 376.5333333333333 115.4133333333333 365.2266666666667L0 192L115.4133333333333 18.9866666666667C123.0933333333333 7.68 135.8933333333333 0 150.6133333333334 0H469.3333333333333C492.8 0 512 19.2 512 42.6666666666667V341.3333333333334C512 365.0133333333333 492.8 384 469.3333333333333 384z" /></svg>