<?xml version="1.0" encoding="UTF-8"?><!DOCTYPE svg PUBLIC "-//W3C//DTD SVG 1.1//EN" "http://www.w3.org/Graphics/SVG/1.1/DTD/svg11.dtd"><svg xmlns="http://www.w3.org/2000/svg" xmlns:xlink="http://www.w3.org/1999/xlink" version="1.1" width="512" height="512" viewBox="0 0 512 512">    <path fill="#ffffff" transform="scale(1, -1) translate(0, -448)" glyph-name="lastpass" unicode="&#xF446;" horiz-adv-x="512" d=" M298.6666666666667 192C298.6666666666667 215.4666666666667 317.8666666666667 234.6666666666667 341.3333333333333 234.6666666666667S384 215.4666666666667 384 192S364.8 149.3333333333334 341.3333333333333 149.3333333333334S298.6666666666667 168.5333333333334 298.6666666666667 192M170.6666666666667 192C170.6666666666667 215.4666666666667 189.8666666666667 234.6666666666667 213.3333333333333 234.6666666666667S256 215.4666666666667 256 192S236.8 149.3333333333334 213.3333333333333 149.3333333333334S170.6666666666667 168.5333333333334 170.6666666666667 192M42.6666666666667 192C42.6666666666667 215.4666666666667 61.8666666666667 234.6666666666667 85.3333333333333 234.6666666666667S128 215.4666666666667 128 192S108.8 149.3333333333334 85.3333333333333 149.3333333333334S42.6666666666667 168.5333333333334 42.6666666666667 192M469.3333333333333 341.3333333333334H426.6666666666667V42.6666666666667H469.3333333333333V341.3333333333334z" /></svg>