<?xml version="1.0" encoding="UTF-8"?><!DOCTYPE svg PUBLIC "-//W3C//DTD SVG 1.1//EN" "http://www.w3.org/Graphics/SVG/1.1/DTD/svg11.dtd"><svg xmlns="http://www.w3.org/2000/svg" xmlns:xlink="http://www.w3.org/1999/xlink" version="1.1" width="512" height="512" viewBox="0 0 512 512">    <path fill="#ffffff" transform="scale(1, -1) translate(0, -448)" glyph-name="shovel-off" unicode="&#xF710;" horiz-adv-x="512" d=" M322.1333333333334 409.3866666666667L261.76 348.8C245.3333333333333 332.16 245.3333333333333 305.28 261.76 288.64L291.84 258.3466666666667L277.3333333333333 242.7733333333333L308.0533333333333 212.0533333333334L323.6266666666667 227.6266666666667L353.28 197.9733333333333C369.92 181.3333333333334 397.0133333333333 181.3333333333334 413.6533333333333 197.9733333333333L474.0266666666666 258.56L322.1333333333333 409.3866666666667M382.5066666666667 228.6933333333334L292.2666666666667 318.7200000000001L322.3466666666667 348.8L412.5866666666667 258.5600000000001L382.5066666666667 228.6933333333334M441.6 16.2133333333333L411.52 -13.8666666666667L245.3333333333333 151.8933333333333L224 130.56L284.3733333333334 70.6133333333334L256 40.7466666666667C149.3333333333333 -64 74.6666666666667 10.6666666666667 74.6666666666667 10.6666666666667S-1.28 85.3333333333334 104.32 192L134.6133333333333 221.8666666666667L194.7733333333333 161.4933333333334L216.1066666666666 182.8266666666667L50.1333333333333 348.1600000000001L80.4266666666666 378.4533333333334L441.6 16.2133333333334z" /></svg>