<?xml version="1.0" encoding="UTF-8"?><!DOCTYPE svg PUBLIC "-//W3C//DTD SVG 1.1//EN" "http://www.w3.org/Graphics/SVG/1.1/DTD/svg11.dtd"><svg xmlns="http://www.w3.org/2000/svg" xmlns:xlink="http://www.w3.org/1999/xlink" version="1.1" width="512" height="512" viewBox="0 0 512 512">    <path fill="#ffffff" transform="scale(1, -1) translate(0, -448)" glyph-name="gesture-swipe-vertical" unicode="&#xFABF;" horiz-adv-x="512" d=" M85.3333333333333 384L21.3333333333333 320H64V256H21.3333333333333L85.3333333333333 192L149.3333333333333 256H106.6666666666667V320H149.3333333333333L85.3333333333333 384M234.6666666666667 277.3333333333334C222.9333333333333 277.3333333333334 213.3333333333333 267.7333333333334 213.3333333333333 256V42.6666666666667L145.0666666666667 79.36H140.3733333333333C134.4 79.36 128.64 77.0133333333333 124.5866666666667 72.5333333333333L108.8 56.1066666666667L213.3333333333333 -33.4933333333333C218.88 -39.4666666666667 226.56 -42.6666666666666 234.6666666666667 -42.6666666666666H373.3333333333333C391.04 -42.6666666666666 405.3333333333333 -28.3733333333333 405.3333333333333 -10.6666666666666V82.3466666666667C405.3333333333333 94.72 398.5066666666667 106.0266666666666 387.2 111.1466666666667L281.8133333333333 157.8666666666667L255.9999999999999 160.64V256C255.9999999999999 267.7333333333334 246.3999999999999 277.3333333333334 234.6666666666666 277.3333333333334z" /></svg>