<?xml version="1.0" encoding="UTF-8"?><!DOCTYPE svg PUBLIC "-//W3C//DTD SVG 1.1//EN" "http://www.w3.org/Graphics/SVG/1.1/DTD/svg11.dtd"><svg xmlns="http://www.w3.org/2000/svg" xmlns:xlink="http://www.w3.org/1999/xlink" version="1.1" width="512" height="512" viewBox="0 0 512 512">    <path fill="#ffffff" transform="scale(1, -1) translate(0, -448)" glyph-name="translate" unicode="&#xF5CA;" horiz-adv-x="512" d=" M274.56 126.5066666666667L220.3733333333333 180.0533333333334L221.0133333333333 180.6933333333333C258.1333333333333 222.08 284.5866666666666 269.6533333333333 300.1599999999999 320H362.6666666666667V362.6666666666667H213.3333333333333V405.3333333333333H170.6666666666667V362.6666666666667H21.3333333333333V320H259.6266666666667C245.3333333333333 279.04 222.72 240 192 205.8666666666667C172.16 227.84 155.7333333333333 251.9466666666667 142.72 277.3333333333334H100.0533333333333C115.6266666666667 242.5600000000001 136.96 209.7066666666667 163.6266666666667 180.0533333333334L55.04 72.96L85.3333333333333 42.6666666666667L192 149.3333333333334L258.3466666666667 82.9866666666667L274.56 126.5066666666667M394.6666666666667 234.6666666666667H352L256 -21.3333333333333H298.6666666666667L322.56 42.6666666666667H423.8933333333333L448 -21.3333333333333H490.6666666666666L394.6666666666667 234.6666666666667M338.7733333333333 85.3333333333334L373.3333333333333 177.7066666666667L407.8933333333333 85.3333333333334H338.7733333333333z" /></svg>