<?xml version="1.0" encoding="UTF-8"?><!DOCTYPE svg PUBLIC "-//W3C//DTD SVG 1.1//EN" "http://www.w3.org/Graphics/SVG/1.1/DTD/svg11.dtd"><svg xmlns="http://www.w3.org/2000/svg" xmlns:xlink="http://www.w3.org/1999/xlink" version="1.1" width="512" height="512" viewBox="0 0 512 512">    <path fill="#ffffff" transform="scale(1, -1) translate(0, -448)" glyph-name="numeric-3-circle" unicode="&#xFC80;" horiz-adv-x="512" d=" M320 128V160C320 177.7066666666667 305.7066666666667 192 288 192C305.7066666666667 192 320 206.2933333333334 320 224V256C320 279.68 300.8 298.6666666666667 277.3333333333333 298.6666666666667H192V256H277.3333333333333V213.3333333333334H234.6666666666667V170.6666666666667H277.3333333333333V128H192V85.3333333333334H277.3333333333333C300.8 85.3333333333334 320 104.5333333333333 320 128M256 405.3333333333333C373.76 405.3333333333333 469.3333333333333 309.76 469.3333333333333 192S373.76 -21.3333333333333 256 -21.3333333333333S42.6666666666667 74.24 42.6666666666667 192S138.24 405.3333333333333 256 405.3333333333333z" /></svg>