<?xml version="1.0" encoding="UTF-8"?><!DOCTYPE svg PUBLIC "-//W3C//DTD SVG 1.1//EN" "http://www.w3.org/Graphics/SVG/1.1/DTD/svg11.dtd"><svg xmlns="http://www.w3.org/2000/svg" xmlns:xlink="http://www.w3.org/1999/xlink" version="1.1" width="512" height="512" viewBox="0 0 512 512">    <path fill="#ffffff" transform="scale(1, -1) translate(0, -448)" glyph-name="linux" unicode="&#xF33D;" horiz-adv-x="512" d=" M311.8933333333333 269.8666666666667C302.9333333333333 263.8933333333334 274.56 247.68 270.2933333333333 244.48C261.9733333333333 237.8666666666667 254.2933333333333 238.2933333333334 245.9733333333333 244.6933333333334C241.7066666666667 248.1066666666667 213.3333333333333 264.3200000000001 204.3733333333333 270.0800000000001C194.1333333333333 276.6933333333334 194.7733333333334 285.0133333333333 206.08 289.7066666666667C241.0666666666667 304.4266666666667 276.0533333333333 303.36 310.8266666666667 289.0666666666667C321.28 284.5866666666667 321.7066666666667 276.2666666666667 311.8933333333333 269.8666666666667M465.92 114.5600000000001C446.08 159.1466666666667 418.9866666666667 199.68 384 235.3066666666667C372.6933333333333 247.0400000000001 365.6533333333333 260.2666666666667 361.3866666666667 275.4133333333334C359.2533333333334 282.4533333333334 357.76 289.7066666666667 356.2666666666667 296.9600000000001C352.0000000000001 315.7333333333334 350.0800000000001 334.9333333333334 341.3333333333334 352.64C325.7600000000001 386.3466666666667 298.6666666666668 403.84 259.4133333333334 405.3333333333333C220.8000000000001 404.2666666666667 192.0000000000001 388.0533333333334 175.1466666666668 354.1333333333334C170.6666666666668 344.9600000000001 167.4666666666668 335.36 165.3333333333334 325.5466666666667C161.7066666666668 309.3333333333334 158.5066666666668 292.48 154.6666666666668 276.0533333333334C151.4666666666668 262.1866666666667 145.0666666666668 250.24 134.1866666666668 239.5733333333334C99.8400000000001 206.08 72.3200000000001 167.68 51.4133333333334 125.4400000000001C48.4266666666668 119.2533333333334 45.4400000000001 113.0666666666667 43.5200000000001 106.6666666666667C39.4666666666668 92.5866666666667 49.7066666666668 82.7733333333333 64.6400000000001 86.1866666666667C74.0266666666668 88.1066666666667 83.4133333333334 90.0266666666666 92.3733333333334 92.8C101.1200000000001 95.9999999999999 104.5333333333334 93.8666666666667 106.6666666666668 85.3333333333333C120.5333333333334 39.4666666666666 150.8266666666668 7.2533333333333 197.1200000000001 -10.6666666666667C285.0133333333335 -43.9466666666667 387.6266666666668 3.4133333333333 409.8133333333335 87.04C411.3066666666669 92.8 413.4400000000002 94.9333333333333 419.8400000000002 92.8C429.6533333333335 89.8133333333333 439.6800000000001 87.68 449.7066666666668 85.3333333333333C460.1600000000001 83.4133333333333 467.8400000000001 88.7466666666666 469.3333333333335 98.9866666666666C469.9733333333335 104.5333333333333 468.0533333333335 109.4399999999999 465.9200000000001 114.56" /></svg>