<?xml version="1.0" encoding="UTF-8"?><!DOCTYPE svg PUBLIC "-//W3C//DTD SVG 1.1//EN" "http://www.w3.org/Graphics/SVG/1.1/DTD/svg11.dtd"><svg xmlns="http://www.w3.org/2000/svg" xmlns:xlink="http://www.w3.org/1999/xlink" version="1.1" width="512" height="512" viewBox="0 0 512 512">    <path fill="#ffffff" transform="scale(1, -1) translate(0, -448)" glyph-name="folder-edit-outline" unicode="&#xFDAA;" horiz-adv-x="512" d=" M448 210.9866666666667C446.2933333333334 210.9866666666667 442.0266666666667 208.8533333333334 439.8933333333333 206.72L418.56 185.3866666666667L463.36 140.3733333333334L484.6933333333334 161.9200000000001C488.96 166.1866666666667 488.96 174.72 484.6933333333334 178.9866666666667L456.96 206.7200000000001C454.8266666666667 208.8533333333334 452.6933333333334 210.9866666666667 448 210.9866666666667M407.8933333333333 172.5866666666667L277.3333333333333 44.3733333333333V0H322.56L452.6933333333333 129.7066666666667L407.8933333333333 172.5866666666667M448 277.3333333333334V274.9866666666667L405.3333333333333 232.32V277.3333333333334H64V64H234.6666666666667V21.3333333333334H64C40.5333333333333 21.3333333333334 21.3333333333333 40.5333333333333 21.3333333333333 64V320C21.3333333333333 343.2533333333334 40.5333333333333 362.6666666666667 64 362.6666666666667H192L234.6666666666667 320H405.3333333333333C429.2266666666667 320 448 300.5866666666667 448 277.3333333333334z" /></svg>