<?xml version="1.0" encoding="UTF-8"?><!DOCTYPE svg PUBLIC "-//W3C//DTD SVG 1.1//EN" "http://www.w3.org/Graphics/SVG/1.1/DTD/svg11.dtd"><svg xmlns="http://www.w3.org/2000/svg" xmlns:xlink="http://www.w3.org/1999/xlink" version="1.1" width="512" height="512" viewBox="0 0 512 512">    <path fill="#ffffff" transform="scale(1, -1) translate(0, -448)" glyph-name="sort-numeric" unicode="&#xF4BE;" horiz-adv-x="512" d=" M165.9733333333333 298.6666666666667C193.7066666666667 297.8133333333334 213.3333333333333 287.36 225.4933333333334 267.52C237.44 247.4666666666667 243.4133333333334 222.72 242.9866666666667 193.0666666666667C243.2 160 236.5866666666667 133.76 224 114.7733333333333C210.7733333333334 96 190.9333333333333 85.9733333333333 164.48 85.3333333333334C137.6 86.1866666666667 118.1866666666667 96 105.8133333333333 116.0533333333334C93.44 135.8933333333333 87.2533333333333 161.0666666666667 87.2533333333333 192C87.2533333333333 222.9333333333333 93.6533333333333 248.32 106.6666666666667 267.9466666666667C119.2533333333333 288 138.6666666666667 297.8133333333334 165.9733333333333 298.6666666666667M165.3333333333333 263.8933333333334C155.9466666666666 263.8933333333334 148.48 258.1333333333334 142.9333333333333 246.1866666666667C137.3866666666667 234.6666666666667 134.8266666666667 216.1066666666667 134.8266666666667 192C134.6133333333333 167.4666666666667 137.3866666666667 149.3333333333334 142.72 137.8133333333334C148.2666666666667 125.8666666666667 155.9466666666667 120.1066666666667 165.76 120.1066666666667C185.3866666666667 120.1066666666667 195.4133333333333 144.2133333333334 195.6266666666667 192C195.6266666666667 239.5733333333334 185.6 263.4666666666667 165.3333333333333 263.8933333333334M284.3733333333334 85.3333333333334V123.3066666666667L293.5466666666666 122.88L305.0666666666667 123.3066666666667L327.2533333333334 127.36C334.5066666666667 129.7066666666667 341.3333333333333 132.6933333333333 346.88 136.96C353.92 141.8666666666667 359.6800000000001 147.6266666666667 364.16 154.4533333333333C368.8533333333333 161.0666666666667 372.0533333333334 168.1066666666667 373.9733333333334 175.36L373.3333333333333 175.5733333333333C363.7333333333334 166.6133333333334 349.44 162.1333333333333 330.0266666666667 161.92C311.8933333333333 162.1333333333333 296.7466666666667 167.4666666666667 284.5866666666667 178.1333333333333C272.4266666666666 188.8 266.6666666666667 204.16 265.8133333333333 224C266.0266666666667 245.3333333333333 273.28 262.6133333333334 287.36 276.6933333333334C301.6533333333333 290.7733333333333 320 298.0266666666667 343.8933333333333 298.6666666666667C370.56 297.8133333333334 390.1866666666666 289.0666666666667 402.7733333333332 272.2133333333334C415.3599999999999 256 421.5466666666665 234.6666666666667 421.5466666666665 209.28C421.3333333333332 188.8 418.3466666666666 170.6666666666666 412.1599999999999 154.4533333333333C405.9733333333332 138.6666666666666 397.6533333333332 125.2266666666666 386.5599999999999 114.3466666666667C376.7466666666665 105.3866666666667 365.0133333333332 98.5600000000001 351.3599999999999 93.6533333333334C337.7066666666666 88.96 322.5599999999999 86.1866666666667 305.9199999999999 85.3333333333334H284.3733333333332M342.6133333333333 263.8933333333333C333.8666666666666 263.68 326.8266666666666 260.2666666666667 321.2799999999999 253.6533333333333C315.9466666666666 247.04 313.1733333333332 238.08 313.1733333333332 226.9866666666667C313.1733333333332 217.6 315.7333333333332 209.92 320.6399999999999 203.52C325.7599999999999 196.9066666666667 333.4399999999999 193.7066666666667 343.6799999999999 193.4933333333333C350.5066666666665 193.4933333333333 356.2666666666665 194.9866666666667 360.9599999999998 197.5466666666666C365.6533333333331 200.32 369.0666666666665 203.52 371.4133333333331 207.36C373.3333333333331 209.7066666666667 373.9733333333332 213.9733333333333 373.9733333333332 219.52C374.1866666666665 231.2533333333334 371.8399999999998 241.28 366.9333333333332 250.0266666666667C362.0266666666665 258.7733333333333 353.9199999999999 263.4666666666667 342.6133333333331 263.8933333333333M197.3333333333333 341.3333333333334L266.6666666666667 410.6666666666667L336 341.3333333333334H197.3333333333333M336 42.6666666666667L266.6666666666667 -26.6666666666666L197.3333333333333 42.6666666666667H336z" /></svg>