<?xml version="1.0" encoding="UTF-8"?><!DOCTYPE svg PUBLIC "-//W3C//DTD SVG 1.1//EN" "http://www.w3.org/Graphics/SVG/1.1/DTD/svg11.dtd"><svg xmlns="http://www.w3.org/2000/svg" xmlns:xlink="http://www.w3.org/1999/xlink" version="1.1" width="512" height="512" viewBox="0 0 512 512">    <path fill="#ffffff" transform="scale(1, -1) translate(0, -448)" glyph-name="quality-low" unicode="&#xFA0B;" horiz-adv-x="512" d=" M309.3333333333333 160H352V224H309.3333333333333M384 149.3333333333334C384 136.5333333333334 375.4666666666667 128 362.6666666666667 128H346.6666666666667V96H314.6666666666667V128H298.6666666666667C285.8666666666667 128 277.3333333333333 136.5333333333334 277.3333333333333 149.3333333333334V234.6666666666667C277.3333333333333 247.4666666666667 285.8666666666667 256 298.6666666666667 256H362.6666666666667C375.4666666666667 256 384 247.4666666666667 384 234.6666666666667M405.3333333333333 362.6666666666667H106.6666666666667C83.2 362.6666666666667 64 343.4666666666667 64 320V64C64 40.5333333333333 83.2 21.3333333333334 106.6666666666667 21.3333333333334H405.3333333333333C428.8 21.3333333333334 448 40.5333333333333 448 64V320C448 343.4666666666667 428.8 362.6666666666667 405.3333333333333 362.6666666666667M234.6666666666667 160V128H128V256H160V160H234.6666666666667z" /></svg>