<?xml version="1.0" encoding="UTF-8"?><!DOCTYPE svg PUBLIC "-//W3C//DTD SVG 1.1//EN" "http://www.w3.org/Graphics/SVG/1.1/DTD/svg11.dtd"><svg xmlns="http://www.w3.org/2000/svg" xmlns:xlink="http://www.w3.org/1999/xlink" version="1.1" width="512" height="512" viewBox="0 0 512 512">    <path fill="#ffffff" transform="scale(1, -1) translate(0, -448)" glyph-name="sprout" unicode="&#xFE49;" horiz-adv-x="512" d=" M42.6666666666667 -21.3333333333333V21.3333333333334S149.3333333333333 64 256 64S469.3333333333333 21.3333333333334 469.3333333333333 21.3333333333334V-21.3333333333333H42.6666666666667M241.0666666666667 253.8666666666667C215.4666666666667 337.0666666666667 85.3333333333333 317.8666666666667 85.3333333333333 317.8666666666667S89.6 151.4666666666667 211.2000000000001 177.0666666666667C202.6666666666667 238.9333333333334 170.6666666666667 256 170.6666666666667 256C230.4 256 234.6666666666667 183.4666666666667 234.6666666666667 183.4666666666667V85.3333333333334H277.3333333333333V174.9333333333333S277.3333333333333 258.1333333333334 341.3333333333333 279.4666666666667C341.3333333333333 279.4666666666667 298.6666666666667 215.4666666666667 298.6666666666667 172.8C448 157.8666666666667 448 362.6666666666667 448 362.6666666666667S258.1333333333334 384 241.0666666666667 253.8666666666667z" /></svg>