<?xml version="1.0" encoding="UTF-8"?><!DOCTYPE svg PUBLIC "-//W3C//DTD SVG 1.1//EN" "http://www.w3.org/Graphics/SVG/1.1/DTD/svg11.dtd"><svg xmlns="http://www.w3.org/2000/svg" xmlns:xlink="http://www.w3.org/1999/xlink" version="1.1" width="512" height="512" viewBox="0 0 512 512">    <path fill="#ffffff" transform="scale(1, -1) translate(0, -448)" glyph-name="bowling" unicode="&#xF0D3;" horiz-adv-x="512" d=" M256 405.3333333333333C373.76 405.3333333333333 469.3333333333333 309.76 469.3333333333333 192S373.76 -21.3333333333333 256 -21.3333333333333S42.6666666666667 74.24 42.6666666666667 192S138.24 405.3333333333333 256 405.3333333333333M266.6666666666667 213.3333333333334C248.96 213.3333333333334 234.6666666666667 199.04 234.6666666666667 181.3333333333334S248.96 149.3333333333334 266.6666666666667 149.3333333333334S298.6666666666667 163.6266666666667 298.6666666666667 181.3333333333334S284.3733333333334 213.3333333333334 266.6666666666667 213.3333333333334M256 341.3333333333334C232.5333333333334 341.3333333333334 213.3333333333333 322.1333333333334 213.3333333333333 298.6666666666667S232.5333333333334 256 256 256S298.6666666666667 275.2000000000001 298.6666666666667 298.6666666666667S279.4666666666667 341.3333333333334 256 341.3333333333334M126.5066666666667 266.6666666666667C114.7733333333333 246.4000000000001 121.8133333333333 220.3733333333333 142.08 208.64C162.56 196.6933333333333 188.5866666666667 203.7333333333333 200.5333333333333 224C212.2666666666667 244.6933333333334 205.2266666666667 270.7200000000001 184.7466666666667 282.4533333333334C164.48 294.1866666666667 138.6666666666667 287.36 126.5066666666667 266.6666666666667z" /></svg>