<?xml version="1.0" encoding="UTF-8"?><!DOCTYPE svg PUBLIC "-//W3C//DTD SVG 1.1//EN" "http://www.w3.org/Graphics/SVG/1.1/DTD/svg11.dtd"><svg xmlns="http://www.w3.org/2000/svg" xmlns:xlink="http://www.w3.org/1999/xlink" version="1.1" width="512" height="512" viewBox="0 0 512 512">    <path fill="#ffffff" transform="scale(1, -1) translate(0, -448)" glyph-name="vector-circle" unicode="&#xF556;" horiz-adv-x="512" d=" M192 405.3333333333333V361.3866666666667C143.36 343.04 104.96 304.64 86.4 256H42.6666666666667V128H86.6133333333334C104.96 79.36 143.36 40.7466666666667 192 22.4V-21.3333333333333H320V22.6133333333333C368.64 40.96 407.2533333333334 79.36 425.6 128H469.3333333333333V256H425.3866666666667C407.04 304.64 368.64 343.04 320 361.6V405.3333333333333M234.6666666666667 362.6666666666667H277.3333333333333V320H234.6666666666667M192 314.6666666666667V277.3333333333334H320V314.6666666666667C345.1733333333333 301.6533333333333 365.6533333333333 281.1733333333334 378.6666666666667 256H341.3333333333333V128H378.6666666666667C365.6533333333333 102.8266666666667 345.1733333333333 82.3466666666667 320 69.3333333333334V106.6666666666667H192V69.3333333333334C166.8266666666667 82.3466666666667 146.3466666666666 102.8266666666667 133.3333333333333 128H170.6666666666667V256H133.3333333333333C146.3466666666667 281.1733333333334 166.8266666666667 301.6533333333333 192 314.6666666666667M85.3333333333333 213.3333333333334H128V170.6666666666667H85.3333333333333M384 213.3333333333334H426.6666666666667V170.6666666666667H384M234.6666666666667 64H277.3333333333333V21.3333333333334H234.6666666666667" /></svg>