<?xml version="1.0" encoding="UTF-8"?><!DOCTYPE svg PUBLIC "-//W3C//DTD SVG 1.1//EN" "http://www.w3.org/Graphics/SVG/1.1/DTD/svg11.dtd"><svg xmlns="http://www.w3.org/2000/svg" xmlns:xlink="http://www.w3.org/1999/xlink" version="1.1" width="512" height="512" viewBox="0 0 512 512">    <path fill="#ffffff" transform="scale(1, -1) translate(0, -448)" glyph-name="help-circle" unicode="&#xF2D7;" horiz-adv-x="512" d=" M321.4933333333334 208L302.2933333333333 188.3733333333333C286.9333333333333 173.0133333333333 277.3333333333333 160 277.3333333333333 128H234.6666666666667V138.6666666666667C234.6666666666667 162.3466666666667 244.2666666666667 183.68 259.6266666666667 199.04L286.08 225.92C293.9733333333333 233.6 298.6666666666667 244.2666666666667 298.6666666666667 256C298.6666666666667 279.68 279.4666666666667 298.6666666666667 256 298.6666666666667S213.3333333333333 279.4666666666667 213.3333333333333 256H170.6666666666667C170.6666666666667 303.1466666666667 208.8533333333333 341.3333333333334 256 341.3333333333334S341.3333333333333 303.1466666666667 341.3333333333333 256C341.3333333333333 237.2266666666667 333.6533333333333 220.3733333333333 321.4933333333334 208M277.3333333333333 42.6666666666667H234.6666666666667V85.3333333333334H277.3333333333333M256 405.3333333333333C138.24 405.3333333333333 42.6666666666667 309.76 42.6666666666667 192S138.24 -21.3333333333333 256 -21.3333333333333S469.3333333333333 74.24 469.3333333333333 192C469.3333333333333 309.9733333333334 373.3333333333333 405.3333333333333 256 405.3333333333333z" /></svg>