<?xml version="1.0" encoding="UTF-8"?><!DOCTYPE svg PUBLIC "-//W3C//DTD SVG 1.1//EN" "http://www.w3.org/Graphics/SVG/1.1/DTD/svg11.dtd"><svg xmlns="http://www.w3.org/2000/svg" xmlns:xlink="http://www.w3.org/1999/xlink" version="1.1" width="512" height="512" viewBox="0 0 512 512">    <path fill="#ffffff" transform="scale(1, -1) translate(0, -448)" glyph-name="food-apple-outline" unicode="&#xFC60;" horiz-adv-x="512" d=" M426.6666666666667 234.6666666666667C396.3733333333333 286.5066666666667 330.6666666666667 305.2800000000001 277.3333333333333 277.3333333333334V384H234.6666666666667V277.3333333333334C181.3333333333333 305.2800000000001 115.6266666666667 286.5066666666667 85.3333333333333 234.6666666666667C42.6666666666667 170.6666666666667 149.3333333333333 -21.3333333333333 192 -21.3333333333333S234.6666666666667 0 256 0S277.3333333333333 -21.3333333333333 320 -21.3333333333333S469.3333333333333 170.6666666666667 426.6666666666667 234.6666666666667M389.3333333333333 162.5600000000001C376.1066666666667 109.8666666666667 350.08 61.4400000000001 313.6 21.3333333333334C309.3333333333333 21.3333333333334 304.4266666666666 23.4666666666667 300.8 26.6666666666667C274.56 47.7866666666666 237.44 47.7866666666666 211.2 26.6666666666667C207.5733333333333 23.4666666666667 202.6666666666666 21.3333333333334 198.4 21.3333333333334C161.92 61.2266666666667 135.68 109.8666666666667 122.6666666666667 162.3466666666667C117.3333333333333 177.92 116.2666666666667 194.7733333333333 120.7466666666667 210.7733333333333C133.12 232.7466666666667 156.16 246.8266666666667 181.3333333333333 247.4666666666667C193.28 247.2533333333334 205.0133333333333 244.48 215.68 239.1466666666667L234.6666666666667 229.5466666666667H277.3333333333333L296.32 239.1466666666667C306.9866666666667 244.48 318.7200000000001 247.2533333333334 330.6666666666667 247.4666666666667C355.84 246.8266666666667 378.88 232.96 391.2533333333334 210.9866666666667C395.7333333333334 194.9866666666667 394.6666666666667 178.1333333333334 389.3333333333333 162.5600000000001M234.6666666666667 341.3333333333334C114.7733333333333 275.8400000000001 87.68 367.36 87.68 367.36S144.4266666666667 443.9466666666667 234.6666666666667 341.3333333333334z" /></svg>