<?xml version="1.0" encoding="UTF-8"?><!DOCTYPE svg PUBLIC "-//W3C//DTD SVG 1.1//EN" "http://www.w3.org/Graphics/SVG/1.1/DTD/svg11.dtd"><svg xmlns="http://www.w3.org/2000/svg" xmlns:xlink="http://www.w3.org/1999/xlink" version="1.1" width="512" height="512" viewBox="0 0 512 512">    <path fill="#ffffff" transform="scale(1, -1) translate(0, -448)" glyph-name="bolnisi-cross" unicode="&#xFCC9;" horiz-adv-x="512" d=" M469.3333333333333 298.6666666666667L458.6666666666666 309.3333333333334C425.1733333333333 277.3333333333334 394.0266666666667 247.4666666666667 361.1733333333333 230.8266666666667C330.6666666666667 215.2533333333333 308.0533333333333 215.2533333333333 277.3333333333333 213.3333333333334C279.2533333333334 244.0533333333334 279.2533333333334 266.6666666666667 294.8266666666667 297.1733333333334C311.4666666666667 330.0266666666667 341.3333333333333 361.1733333333334 373.3333333333333 394.6666666666667L362.6666666666667 405.3333333333333C326.8266666666667 379.0933333333334 290.9866666666667 366.2933333333334 256 366.2933333333334C221.0133333333333 366.2933333333334 185.1733333333333 379.0933333333334 149.3333333333333 405.3333333333333L138.6666666666667 394.6666666666667C170.6666666666667 361.1733333333334 200.5333333333333 330.0266666666667 217.1733333333333 297.1733333333334C232.7466666666667 266.6666666666667 232.7466666666667 244.0533333333334 234.6666666666667 213.3333333333334C203.9466666666667 215.2533333333333 181.3333333333333 215.2533333333333 150.8266666666667 230.8266666666667C117.9733333333333 247.4666666666667 86.6133333333333 277.3333333333334 53.3333333333333 309.3333333333334L42.6666666666667 298.6666666666667C68.9066666666667 262.8266666666667 81.7066666666667 226.9866666666667 81.7066666666667 192C81.7066666666667 157.0133333333333 68.9066666666667 121.1733333333334 42.6666666666667 85.3333333333334L53.3333333333333 74.6666666666667C86.8266666666667 106.6666666666667 117.9733333333333 136.5333333333334 150.8266666666667 153.1733333333334C181.3333333333333 168.7466666666667 203.9466666666667 168.7466666666667 234.6666666666667 170.6666666666667C232.7466666666667 139.9466666666667 232.7466666666667 117.3333333333334 217.1733333333333 86.8266666666667C200.5333333333333 53.9733333333334 170.6666666666667 22.8266666666667 138.6666666666667 -10.6666666666666L149.3333333333333 -21.3333333333333C185.1733333333333 4.9066666666667 221.0133333333333 17.7066666666667 256 17.7066666666667C290.9866666666667 17.7066666666667 326.8266666666667 4.9066666666666 362.6666666666667 -21.3333333333333L373.3333333333333 -10.6666666666666C341.3333333333333 22.8266666666667 311.4666666666667 53.9733333333334 294.8266666666667 86.8266666666667C279.2533333333334 117.3333333333334 279.2533333333334 139.9466666666667 277.3333333333333 170.6666666666667C308.0533333333333 168.7466666666667 330.6666666666667 168.7466666666667 361.1733333333333 153.1733333333334C394.0266666666667 136.5333333333334 425.1733333333333 106.6666666666667 458.6666666666666 74.6666666666667L469.3333333333333 85.3333333333334C443.0933333333333 121.1733333333334 430.2933333333334 157.0133333333333 430.2933333333334 192C430.2933333333334 226.9866666666667 443.0933333333334 262.8266666666667 469.3333333333333 298.6666666666667z" /></svg>