<?xml version="1.0" encoding="UTF-8"?><!DOCTYPE svg PUBLIC "-//W3C//DTD SVG 1.1//EN" "http://www.w3.org/Graphics/SVG/1.1/DTD/svg11.dtd"><svg xmlns="http://www.w3.org/2000/svg" xmlns:xlink="http://www.w3.org/1999/xlink" version="1.1" width="512" height="512" viewBox="0 0 512 512">    <path fill="#ffffff" transform="scale(1, -1) translate(0, -448)" glyph-name="file-pdf-outline" unicode="&#xFE7D;" horiz-adv-x="512" d=" M298.6666666666667 405.3333333333333L426.6666666666667 277.3333333333334V21.3333333333334C426.6666666666667 -2.1333333333333 407.4666666666667 -21.3333333333333 384 -21.3333333333333H128C104.5333333333333 -21.3333333333333 85.3333333333333 -2.1333333333333 85.3333333333333 21.3333333333334V362.6666666666667C85.3333333333333 386.1333333333334 104.5333333333333 405.3333333333333 128 405.3333333333333H298.6666666666667M384 21.3333333333334V256H277.3333333333333V362.6666666666667H128V21.3333333333334H384M232.96 185.3866666666667C227.84 201.8133333333334 216.5333333333333 254.2933333333334 246.4 255.1466666666667C276.2666666666667 256 256.64 188.5866666666667 256.64 188.5866666666667C264.9600000000001 156.8 299.7333333333334 133.9733333333334 299.7333333333334 133.9733333333334C310.4 137.1733333333334 371.2000000000001 144.2133333333334 362.6666666666667 112.64C353.4933333333334 81.0666666666667 288 110.72 288 110.72C246.4 107.7333333333334 215.2533333333333 96.64 215.2533333333333 96.64C191.1466666666667 51.6266666666667 162.9866666666667 32 151.4666666666667 50.9866666666667C137.1733333333333 74.6666666666667 196.9066666666667 105.1733333333334 196.9066666666667 105.1733333333334C227.84 155.3066666666667 232.5333333333334 184.5333333333334 232.96 185.3866666666667M246.8266666666667 167.4666666666667C238.2933333333333 139.7333333333334 221.2266666666667 110.08 221.2266666666667 110.08C239.36 117.3333333333334 279.04 125.6533333333334 279.04 125.6533333333334C254.7200000000001 146.9866666666667 247.2533333333334 167.2533333333333 246.8266666666667 167.4666666666667M313.8133333333334 121.1733333333334S351.1466666666667 107.3066666666667 352.0000000000001 112.8533333333334C353.4933333333334 118.6133333333334 323.6266666666667 123.7333333333334 313.8133333333334 121.1733333333334M193.0666666666668 89.3866666666667C176.6400000000001 82.9866666666667 160.8533333333334 55.68 164.6933333333334 55.68C168.5333333333334 55.4666666666666 184.1066666666668 68.48 193.0666666666668 89.3866666666667M246.8266666666668 207.7866666666666C246.8266666666668 208.8533333333333 256.0000000000001 243.6266666666667 246.8266666666668 244.6933333333334C240.4266666666668 245.3333333333333 246.6133333333334 208.64 246.8266666666668 207.7866666666666z" /></svg>