<?xml version="1.0" encoding="UTF-8"?><!DOCTYPE svg PUBLIC "-//W3C//DTD SVG 1.1//EN" "http://www.w3.org/Graphics/SVG/1.1/DTD/svg11.dtd"><svg xmlns="http://www.w3.org/2000/svg" xmlns:xlink="http://www.w3.org/1999/xlink" version="1.1" width="512" height="512" viewBox="0 0 512 512">    <path fill="#ffffff" transform="scale(1, -1) translate(0, -448)" glyph-name="cat" unicode="&#xF11B;" horiz-adv-x="512" d=" M256 277.3333333333334L227.6266666666667 275.4133333333334C209.28 297.1733333333334 157.8666666666667 352 106.6666666666667 352C106.6666666666667 352 64.64 288.8533333333334 105.8133333333333 204.5866666666667C94.08 186.88 86.8266666666667 177.7066666666667 85.3333333333333 156.5866666666667L44.16 150.4L48.64 129.4933333333334L86.1866666666667 135.04L89.1733333333333 119.8933333333334L55.68 99.84L65.7066666666667 80.8533333333334L96.64 99.84C121.1733333333333 47.7866666666666 183.2533333333333 21.3333333333334 256 21.3333333333334S390.8266666666667 47.7866666666666 415.36 99.84L446.2933333333333 80.8533333333334L456.3199999999999 99.84L422.8266666666666 119.8933333333333L425.8133333333333 135.04L463.36 129.4933333333334L467.84 150.4L426.6666666666667 156.5866666666667C425.1733333333333 177.7066666666667 417.92 186.88 406.1866666666666 204.5866666666667C447.36 288.8533333333334 405.3333333333333 352 405.3333333333333 352C354.1333333333334 352 302.7200000000001 297.1733333333334 284.3733333333334 275.4133333333334L256 277.3333333333334M192 213.3333333333334C203.7333333333334 213.3333333333334 213.3333333333333 203.7333333333334 213.3333333333333 192S203.7333333333334 170.6666666666667 192 170.6666666666667S170.6666666666667 180.2666666666667 170.6666666666667 192S180.2666666666667 213.3333333333334 192 213.3333333333334M320 213.3333333333334C331.7333333333334 213.3333333333334 341.3333333333333 203.7333333333334 341.3333333333333 192S331.7333333333334 170.6666666666667 320 170.6666666666667S298.6666666666667 180.2666666666667 298.6666666666667 192S308.2666666666667 213.3333333333334 320 213.3333333333334M234.6666666666667 149.3333333333334H277.3333333333333L262.4 119.68C266.6666666666667 106.0266666666666 278.6133333333334 96 293.3333333333333 96C311.04 96 325.3333333333333 110.2933333333334 325.3333333333333 128H336C336 104.5333333333333 316.8 85.3333333333334 293.3333333333333 85.3333333333334C277.3333333333333 85.3333333333334 263.4666666666667 94.08 256 106.6666666666667C248.5333333333334 94.08 234.6666666666667 85.3333333333334 218.6666666666667 85.3333333333334C195.2 85.3333333333334 176 104.5333333333333 176 128H186.6666666666667C186.6666666666667 110.2933333333334 200.96 96 218.6666666666667 96C233.3866666666667 96 245.3333333333333 106.0266666666666 249.6 119.68L234.6666666666667 149.3333333333334z" /></svg>