<?xml version="1.0" encoding="UTF-8"?><!DOCTYPE svg PUBLIC "-//W3C//DTD SVG 1.1//EN" "http://www.w3.org/Graphics/SVG/1.1/DTD/svg11.dtd"><svg xmlns="http://www.w3.org/2000/svg" xmlns:xlink="http://www.w3.org/1999/xlink" version="1.1" width="512" height="512" viewBox="0 0 512 512">    <path fill="#ffffff" transform="scale(1, -1) translate(0, -448)" glyph-name="currency-krw" unicode="&#xF7BC;" horiz-adv-x="512" d=" M42.6666666666667 384H85.3333333333333L113.7066666666667 256H199.04L227.6266666666667 384H284.3733333333334L312.96 256H398.2933333333334L426.6666666666667 384H469.3333333333333L440.9600000000001 256H469.3333333333333V213.3333333333334H431.36L421.9733333333333 170.6666666666667H469.3333333333333V128H412.3733333333333L384 0H327.04L298.6666666666667 128H213.3333333333333L184.96 0H128L99.6266666666667 128H42.6666666666667V170.6666666666667H90.0266666666667L80.64 213.3333333333334H42.6666666666667V256H71.04L42.6666666666667 384M279.68 213.3333333333334H232.32L222.72 170.6666666666667H289.28L279.68 213.3333333333334M156.3733333333333 64L170.6666666666667 128H142.2933333333333L156.3733333333333 64M189.6533333333333 213.3333333333334H123.3066666666667L132.6933333333333 170.6666666666667H180.0533333333334L189.6533333333333 213.3333333333334M355.6266666666667 64L369.7066666666667 128H341.3333333333333L355.6266666666667 64M388.6933333333334 213.3333333333334H322.3466666666667L331.9466666666667 170.6666666666667H379.3066666666667L388.6933333333334 213.3333333333334M256 320L241.7066666666667 256H270.2933333333333L256 320z" /></svg>