<?xml version="1.0" encoding="UTF-8"?><!DOCTYPE svg PUBLIC "-//W3C//DTD SVG 1.1//EN" "http://www.w3.org/Graphics/SVG/1.1/DTD/svg11.dtd"><svg xmlns="http://www.w3.org/2000/svg" xmlns:xlink="http://www.w3.org/1999/xlink" version="1.1" width="512" height="512" viewBox="0 0 512 512">    <path fill="#ffffff" transform="scale(1, -1) translate(0, -448)" glyph-name="math-sin" unicode="&#xFC73;" horiz-adv-x="512" d=" M85.3333333333333 298.6666666666667C61.8666666666667 298.6666666666667 42.6666666666667 279.4666666666667 42.6666666666667 256V213.3333333333334C42.6666666666667 189.8666666666667 61.8666666666667 170.6666666666667 85.3333333333333 170.6666666666667H128V128H42.6666666666667V85.3333333333334H128C151.4666666666667 85.3333333333334 170.6666666666667 104.5333333333333 170.6666666666667 128V170.6666666666667C170.6666666666667 194.1333333333333 151.4666666666667 213.3333333333334 128 213.3333333333334H85.3333333333333V256H170.6666666666667V298.6666666666667H85.3333333333333M298.6666666666667 298.6666666666667V256H277.3333333333333V128H298.6666666666667V85.3333333333334H213.3333333333333V128H234.6666666666667V256H213.3333333333333V298.6666666666667H298.6666666666667M341.3333333333333 298.6666666666667V85.3333333333334H384V192L426.6666666666667 85.3333333333334H469.3333333333333V298.6666666666667H426.6666666666667V192L384 298.6666666666667H341.3333333333333z" /></svg>