<?xml version="1.0" encoding="UTF-8"?><!DOCTYPE svg PUBLIC "-//W3C//DTD SVG 1.1//EN" "http://www.w3.org/Graphics/SVG/1.1/DTD/svg11.dtd"><svg xmlns="http://www.w3.org/2000/svg" xmlns:xlink="http://www.w3.org/1999/xlink" version="1.1" width="512" height="512" viewBox="0 0 512 512">    <path fill="#ffffff" transform="scale(1, -1) translate(0, -448)" glyph-name="book-multiple-minus" unicode="&#xFA93;" horiz-adv-x="512" d=" M192 405.3333333333333C168.5333333333333 405.3333333333333 149.3333333333333 386.1333333333334 149.3333333333333 362.6666666666667V106.6666666666667C149.3333333333333 83.2 168.5333333333333 64 192 64H405.3333333333333C428.8 64 448 83.2 448 106.6666666666667V362.6666666666667C448 386.1333333333334 428.8 405.3333333333333 405.3333333333333 405.3333333333333H298.6666666666667V298.6666666666667L256 330.6666666666667L213.3333333333333 298.6666666666667V405.3333333333333H192M64 320V21.3333333333334C64 -2.1333333333333 83.2 -21.3333333333333 106.6666666666667 -21.3333333333333H362.6666666666667V21.3333333333334H106.6666666666667V320H64M405.3333333333333 192V149.3333333333334H277.3333333333333V192H405.3333333333333z" /></svg>