<?xml version="1.0" encoding="UTF-8"?><!DOCTYPE svg PUBLIC "-//W3C//DTD SVG 1.1//EN" "http://www.w3.org/Graphics/SVG/1.1/DTD/svg11.dtd"><svg xmlns="http://www.w3.org/2000/svg" xmlns:xlink="http://www.w3.org/1999/xlink" version="1.1" width="512" height="512" viewBox="0 0 512 512">    <path fill="#ffffff" transform="scale(1, -1) translate(0, -448)" glyph-name="bell-circle-outline" unicode="&#xFD37;" horiz-adv-x="512" d=" M362.6666666666667 106.6666666666667H149.3333333333333V128L170.6666666666667 149.3333333333334V205.0133333333333C170.6666666666667 228.2666666666667 176.4266666666667 248.7466666666667 187.52 266.0266666666667C198.4 283.3066666666667 214.1866666666667 294.1866666666667 234.6666666666667 298.6666666666667V309.3333333333334C234.6666666666667 321.0666666666667 244.2666666666667 330.6666666666667 256 330.6666666666667S277.3333333333333 321.0666666666667 277.3333333333333 309.3333333333334V298.6666666666667C297.8133333333334 294.1866666666667 313.6 283.3066666666667 324.48 266.0266666666667C335.5733333333333 248.7466666666667 341.3333333333333 228.2666666666667 341.3333333333333 205.0133333333334V149.3333333333334L362.6666666666667 128V106.6666666666667M288 85.3333333333334C288 67.6266666666667 273.7066666666667 53.3333333333334 256 53.3333333333334S224 67.6266666666667 224 85.3333333333334H288M256 405.3333333333333C373.76 405.3333333333333 469.3333333333333 309.76 469.3333333333333 192S373.76 -21.3333333333333 256 -21.3333333333333S42.6666666666667 74.24 42.6666666666667 192S138.24 405.3333333333333 256 405.3333333333333M256 362.6666666666667C161.7066666666667 362.6666666666667 85.3333333333333 286.2933333333334 85.3333333333333 192S161.7066666666667 21.3333333333334 256 21.3333333333334S426.6666666666667 97.7066666666667 426.6666666666667 192S350.2933333333334 362.6666666666667 256 362.6666666666667z" /></svg>