<?xml version="1.0" encoding="UTF-8"?><!DOCTYPE svg PUBLIC "-//W3C//DTD SVG 1.1//EN" "http://www.w3.org/Graphics/SVG/1.1/DTD/svg11.dtd"><svg xmlns="http://www.w3.org/2000/svg" xmlns:xlink="http://www.w3.org/1999/xlink" version="1.1" width="512" height="512" viewBox="0 0 512 512">    <path fill="#ffffff" transform="scale(1, -1) translate(0, -448)" glyph-name="xmpp" unicode="&#xF7FE;" horiz-adv-x="512" d=" M256 119.4666666666667C208 168.7466666666667 170.6666666666667 244.48 170.6666666666667 320L42.6666666666667 362.6666666666667C42.6666666666667 242.1333333333334 135.04 146.9866666666667 225.0666666666667 92.5866666666667C200.1066666666667 74.6666666666667 173.8666666666667 64 149.3333333333333 64V42.6666666666667C174.9333333333333 42.6666666666667 213.9733333333333 54.1866666666667 256 75.52C298.0266666666667 54.1866666666667 337.0666666666667 42.6666666666667 362.6666666666667 42.6666666666667V64C338.1333333333334 64 311.8933333333333 74.6666666666667 286.9333333333333 92.5866666666667C376.7466666666667 146.9866666666667 469.3333333333333 242.1333333333334 469.3333333333333 362.6666666666667L341.3333333333333 320C341.3333333333333 244.48 304 168.7466666666667 256 119.4666666666667z" /></svg>