<?xml version="1.0" encoding="UTF-8"?><!DOCTYPE svg PUBLIC "-//W3C//DTD SVG 1.1//EN" "http://www.w3.org/Graphics/SVG/1.1/DTD/svg11.dtd"><svg xmlns="http://www.w3.org/2000/svg" xmlns:xlink="http://www.w3.org/1999/xlink" version="1.1" width="512" height="512" viewBox="0 0 512 512">    <path fill="#ffffff" transform="scale(1, -1) translate(0, -448)" glyph-name="hubspot" unicode="&#xFCF3;" horiz-adv-x="512" d=" M364.8 264.5333333333334V315.7333333333334C377.6 322.1333333333334 388.2666666666667 334.9333333333334 388.2666666666667 349.8666666666667V352C388.2666666666667 373.3333333333334 371.2000000000001 390.4 349.8666666666667 390.4H347.7333333333334C326.4 390.4 309.3333333333333 373.3333333333334 309.3333333333333 352V349.8666666666667C309.3333333333333 334.9333333333334 317.8666666666667 322.1333333333334 332.8 315.7333333333334V264.5333333333334C313.6 262.4000000000001 294.4 253.8666666666667 279.4666666666667 241.0666666666667L138.6666666666667 349.8666666666667C145.0666666666667 373.3333333333334 130.1333333333333 398.9333333333334 106.6666666666667 403.2C83.2 407.4666666666667 59.7333333333333 396.8 53.3333333333333 373.3333333333334C46.9333333333333 349.8666666666667 61.8666666666667 324.2666666666667 85.3333333333333 317.8666666666667C96 315.7333333333334 108.8 315.7333333333334 119.4666666666667 322.1333333333334L256 215.4666666666667C230.4 177.0666666666667 230.4 128.0000000000001 258.1333333333334 89.6000000000001L215.4666666666667 46.9333333333334C211.2 46.9333333333334 209.0666666666666 49.0666666666668 204.8 49.0666666666668C185.6 49.0666666666668 168.5333333333333 32.0000000000001 168.5333333333333 12.8000000000001C168.5333333333333 -6.3999999999999 185.6 -21.3333333333333 204.8 -21.3333333333333C224 -21.3333333333333 241.0666666666667 -4.2666666666665 241.0666666666667 14.9333333333334C241.0666666666667 19.2 241.0666666666667 21.3333333333334 238.9333333333333 25.6000000000001L279.4666666666667 66.1333333333334C328.5333333333333 29.8666666666667 398.9333333333333 38.4 435.2 87.4666666666667C471.4666666666666 136.5333333333334 462.9333333333333 206.9333333333334 413.8666666666666 243.2000000000001C401.0666666666666 253.8666666666668 384 262.4000000000001 364.8 264.5333333333334M347.7333333333333 98.1333333333334C315.7333333333333 98.1333333333334 290.1333333333333 123.7333333333334 290.1333333333333 155.7333333333334C290.1333333333333 187.7333333333334 315.7333333333333 213.3333333333334 347.7333333333333 213.3333333333334C379.7333333333333 213.3333333333334 405.3333333333333 187.7333333333334 405.3333333333333 155.7333333333334C405.3333333333333 123.7333333333334 379.7333333333333 98.1333333333334 347.7333333333333 98.1333333333334" /></svg>