<?xml version="1.0" encoding="UTF-8"?><!DOCTYPE svg PUBLIC "-//W3C//DTD SVG 1.1//EN" "http://www.w3.org/Graphics/SVG/1.1/DTD/svg11.dtd"><svg xmlns="http://www.w3.org/2000/svg" xmlns:xlink="http://www.w3.org/1999/xlink" version="1.1" width="512" height="512" viewBox="0 0 512 512">    <path fill="#ffffff" transform="scale(1, -1) translate(0, -448)" glyph-name="google-physical-web" unicode="&#xF2BB;" horiz-adv-x="512" d=" M256 416C362.0266666666667 416 448 330.0266666666667 448 224C448 168.3200000000001 424.32 117.9733333333334 386.3466666666667 82.9866666666667L363.7333333333334 105.6C395.7333333333334 134.8266666666667 416 177.0666666666667 416 224C416 312.32 344.32 384 256 384C167.68 384 96 312.3200000000001 96 224C96 177.0666666666667 116.2666666666667 134.8266666666667 148.2666666666667 105.6L125.6533333333333 82.9866666666667C87.68 117.9733333333334 64 168.3200000000001 64 224C64 330.0266666666667 149.9733333333333 416 256 416M256 352C326.6133333333334 352 384 294.6133333333334 384 224C384 186.0266666666667 367.36 151.68 341.3333333333333 128L318.2933333333333 151.04C338.9866666666667 168.5333333333334 352 194.7733333333333 352 224C352 277.3333333333334 309.3333333333333 320 256 320S160 277.3333333333334 160 224C160 194.7733333333333 173.0133333333333 168.5333333333334 193.7066666666667 151.04L170.6666666666667 128C144.64 151.68 128 186.0266666666667 128 224C128 294.6133333333334 185.3866666666667 352 256 352M173.0133333333333 71.4666666666667L240.8533333333333 139.5200000000001C249.1733333333333 147.84 262.8266666666666 147.84 271.1466666666667 139.5200000000001L338.9866666666666 71.4666666666667C347.3066666666666 63.1466666666667 347.3066666666666 49.7066666666667 338.9866666666666 41.3866666666667L271.1466666666667 -26.4533333333333C262.8266666666666 -34.7733333333333 249.1733333333333 -34.7733333333333 240.8533333333333 -26.4533333333333L173.0133333333333 41.3866666666667C164.6933333333333 49.7066666666667 164.6933333333333 63.1466666666667 173.0133333333333 71.4666666666667z" /></svg>