<?xml version="1.0" encoding="UTF-8"?><!DOCTYPE svg PUBLIC "-//W3C//DTD SVG 1.1//EN" "http://www.w3.org/Graphics/SVG/1.1/DTD/svg11.dtd"><svg xmlns="http://www.w3.org/2000/svg" xmlns:xlink="http://www.w3.org/1999/xlink" version="1.1" width="512" height="512" viewBox="0 0 512 512">    <path fill="#ffffff" transform="scale(1, -1) translate(0, -448)" glyph-name="firebase" unicode="&#xF966;" horiz-adv-x="512" d=" M426.6666666666667 49.28L270.9333333333333 -37.12C260.2666666666667 -42.6666666666667 249.6 -42.6666666666667 238.9333333333333 -37.12L85.3333333333333 49.28L363.7333333333334 329.8133333333334L371.2000000000001 331.9466666666667C377.6 331.9466666666667 381.2266666666667 329.1733333333334 381.8666666666667 323.4133333333333L426.6666666666667 49.28M199.4666666666667 325.5466666666667L102.4 164.48L142.9333333333333 419.4133333333334C143.5733333333333 425.1733333333334 147.2 427.9466666666667 153.6 427.9466666666667C157.8666666666667 427.9466666666667 160.64 426.6666666666667 162.1333333333333 422.6133333333334L208 338.3466666666667L199.4666666666667 325.5466666666667M295.4666666666667 298.6666666666667L91.7333333333333 94.08L246.4 356.48C248.5333333333334 360.7466666666667 251.7333333333334 362.6666666666667 256 362.6666666666667S263.04 360.7466666666667 264.5333333333333 356.48L295.4666666666667 298.6666666666667z" /></svg>