<?xml version="1.0" encoding="UTF-8"?><!DOCTYPE svg PUBLIC "-//W3C//DTD SVG 1.1//EN" "http://www.w3.org/Graphics/SVG/1.1/DTD/svg11.dtd"><svg xmlns="http://www.w3.org/2000/svg" xmlns:xlink="http://www.w3.org/1999/xlink" version="1.1" width="512" height="512" viewBox="0 0 512 512">    <path fill="#ffffff" transform="scale(1, -1) translate(0, -448)" glyph-name="qi" unicode="&#xF998;" horiz-adv-x="512" d=" M257.92 308.0533333333334V135.68C257.92 133.9733333333334 256 132.48 254.72 132.48C205.2266666666666 132.48 165.3333333333333 172.5866666666667 165.3333333333333 221.8666666666667C165.3333333333333 271.36 205.2266666666666 311.4666666666667 254.72 311.4666666666667C256 311.4666666666667 257.92 309.9733333333333 257.92 308.0533333333333M257.92 66.9866666666666V15.1466666666666C257.28 -14.72 279.8933333333333 -39.8933333333334 309.3333333333333 -42.6666666666667C312.7466666666667 -42.6666666666667 315.3066666666666 -40.32 315.52 -36.9066666666667V352.64C315.3066666666666 356.2666666666667 313.1733333333333 359.4666666666667 309.3333333333333 360.7466666666667C232.96 391.04 146.3466666666667 353.2800000000001 116.0533333333333 276.6933333333334C85.3333333333333 199.8933333333334 123.52 113.28 200.1066666666666 82.9866666666667C216.7466666666666 76.3733333333334 234.6666666666667 72.96 251.9466666666667 72.5333333333334C254.9333333333333 72.7466666666668 257.4933333333333 70.1866666666667 257.7066666666666 66.7733333333334M345.3866666666667 330.6666666666667V112.64C345.3866666666667 106.6666666666667 345.3866666666667 102.4 351.1466666666667 106.6666666666667C414.2933333333334 160 422.6133333333334 254.08 369.7066666666667 317.2266666666667C364.16 324.0533333333334 357.7600000000001 330.6666666666667 351.1466666666667 335.7866666666667C345.3866666666667 340.2666666666667 345.3866666666667 335.7866666666667 345.3866666666667 330.0266666666667M315.52 396.16C315.52 412.5866666666667 328.9600000000001 426.0266666666667 345.3866666666667 426.0266666666667C361.8133333333334 426.0266666666667 375.2533333333334 412.5866666666667 375.2533333333334 396.16C375.2533333333334 379.7333333333334 361.8133333333334 366.2933333333333 345.3866666666667 366.2933333333333C328.9600000000001 366.2933333333333 315.52 379.7333333333334 315.52 396.16" /></svg>