<?xml version="1.0" encoding="UTF-8"?><!DOCTYPE svg PUBLIC "-//W3C//DTD SVG 1.1//EN" "http://www.w3.org/Graphics/SVG/1.1/DTD/svg11.dtd"><svg xmlns="http://www.w3.org/2000/svg" xmlns:xlink="http://www.w3.org/1999/xlink" version="1.1" width="512" height="512" viewBox="0 0 512 512">    <path fill="#ffffff" transform="scale(1, -1) translate(0, -448)" glyph-name="vote-outline" unicode="&#xFA1F;" horiz-adv-x="512" d=" M384 170.6666666666667L448 106.6666666666667V21.3333333333334C448 -2.3466666666666 428.8 -21.3333333333333 405.3333333333333 -21.3333333333333H106.6666666666667C82.9866666666667 -21.3333333333333 64 -2.1333333333333 64 21.3333333333334V106.6666666666667L128 170.6666666666667H145.7066666666667L188.3733333333333 128H144.64L106.6666666666667 85.3333333333334H405.3333333333333L367.5733333333333 128H326.8266666666667L369.4933333333334 170.6666666666667H384M405.3333333333333 21.3333333333334V42.6666666666667H106.6666666666667V21.3333333333334H405.3333333333333M241.92 128L136.32 233.1733333333334C128 241.4933333333334 128 254.9333333333334 136.32 263.2533333333334L272.2133333333333 399.1466666666667C280.5333333333333 407.4666666666667 293.9733333333333 407.4666666666667 302.08 398.9333333333334L407.68 293.3333333333334C416 285.0133333333333 416 271.5733333333334 407.68 263.2533333333334L272 128C263.68 119.2533333333333 250.24 119.2533333333333 241.92 128M287.1466666666667 353.92L181.3333333333333 248.32L257.0666666666667 172.8000000000001L362.6666666666667 278.4L287.1466666666667 353.92z" /></svg>