<?xml version="1.0" encoding="UTF-8"?><!DOCTYPE svg PUBLIC "-//W3C//DTD SVG 1.1//EN" "http://www.w3.org/Graphics/SVG/1.1/DTD/svg11.dtd"><svg xmlns="http://www.w3.org/2000/svg" xmlns:xlink="http://www.w3.org/1999/xlink" version="1.1" width="512" height="512" viewBox="0 0 512 512">    <path fill="#ffffff" transform="scale(1, -1) translate(0, -448)" glyph-name="rotate-left" unicode="&#xF465;" horiz-adv-x="512" d=" M277.3333333333333 361.1733333333334V426.6666666666667L180.2666666666667 329.6L277.3333333333333 234.6666666666667V318.0800000000001C337.92 307.8400000000001 384 255.36 384 192S337.92 76.16 277.3333333333333 65.92V22.8266666666667C361.6 33.28 426.6666666666667 104.96 426.6666666666667 192S361.6 350.7200000000001 277.3333333333333 361.1733333333334M151.4666666666667 57.1733333333334C176.2133333333333 37.9733333333334 205.0133333333333 26.4533333333333 234.6666666666667 22.8266666666667V66.1333333333334C216.1066666666667 69.3333333333334 198.1866666666667 76.5866666666667 182.1866666666667 88.1066666666667L151.4666666666667 57.1733333333334M129.92 170.6666666666667H86.8266666666667C90.4533333333333 141.0133333333333 102.1866666666667 112.4266666666667 121.3866666666667 87.68L151.4666666666667 117.9733333333334C140.3733333333333 133.9733333333334 132.9066666666667 151.8933333333333 129.92 170.6666666666667M151.68 266.0266666666667L121.6 296.32C102.4 271.5733333333334 90.4533333333333 242.9866666666667 86.8266666666667 213.3333333333334H129.92C132.9066666666667 231.8933333333333 140.3733333333333 250.0266666666667 151.68 266.0266666666667z" /></svg>