<?xml version="1.0" encoding="UTF-8"?><!DOCTYPE svg PUBLIC "-//W3C//DTD SVG 1.1//EN" "http://www.w3.org/Graphics/SVG/1.1/DTD/svg11.dtd"><svg xmlns="http://www.w3.org/2000/svg" xmlns:xlink="http://www.w3.org/1999/xlink" version="1.1" width="512" height="512" viewBox="0 0 512 512">    <path fill="#ffffff" transform="scale(1, -1) translate(0, -448)" glyph-name="currency-usd-off" unicode="&#xF679;" horiz-adv-x="512" d=" M64 356.9066666666667L91.3066666666667 384L448 27.3066666666667L420.9066666666667 0L342.6133333333334 78.2933333333334C329.3866666666667 64 310.1866666666667 52.2666666666668 288 46.5066666666668V0H224V46.5066666666667C180.6933333333333 57.3866666666667 149.3333333333333 89.8133333333334 149.3333333333333 128H192C192 104.96 221.2266666666667 85.3333333333334 256 85.3333333333334C280.1066666666667 85.3333333333334 301.6533333333333 94.72 312.5333333333333 108.3733333333333L249.1733333333333 171.7333333333334C204.3733333333333 183.04 149.3333333333333 197.3333333333334 149.3333333333333 256C149.3333333333333 260.9066666666667 149.3333333333333 265.6 150.8266666666667 270.0800000000001L64 356.9066666666667M224 337.4933333333334V384H288V337.4933333333334C331.3066666666666 326.6133333333334 362.6666666666667 294.1866666666667 362.6666666666667 256H320C320 279.04 290.7733333333333 298.6666666666667 256 298.6666666666667C248.1066666666667 298.6666666666667 240.64 297.6 233.6 295.8933333333333L200.5333333333333 328.9600000000001L224 337.4933333333334z" /></svg>