<?xml version="1.0" encoding="UTF-8"?><!DOCTYPE svg PUBLIC "-//W3C//DTD SVG 1.1//EN" "http://www.w3.org/Graphics/SVG/1.1/DTD/svg11.dtd"><svg xmlns="http://www.w3.org/2000/svg" xmlns:xlink="http://www.w3.org/1999/xlink" version="1.1" width="512" height="512" viewBox="0 0 512 512">    <path fill="#ffffff" transform="scale(1, -1) translate(0, -448)" glyph-name="jira" unicode="&#xF303;" horiz-adv-x="512" d=" M245.9733333333333 405.3333333333333C245.9733333333333 354.1333333333334 288 312.5333333333334 338.7733333333333 312.5333333333334H376.7466666666667V276.2666666666667C376.7466666666667 225.0666666666667 418.1333333333334 183.6800000000001 469.3333333333333 183.4666666666667V387.4133333333334C469.3333333333333 397.2266666666667 461.2266666666667 405.3333333333333 451.4133333333333 405.3333333333333H245.9733333333333M144.4266666666667 302.9333333333334C144.64 251.9466666666667 186.0266666666667 210.56 237.0133333333333 210.3466666666667H275.4133333333333V173.6533333333333C275.6266666666667 122.6666666666666 317.0133333333333 81.28 368 81.0666666666666V285.2266666666667C367.7866666666667 295.04 360.1066666666667 302.7200000000001 350.2933333333334 302.9333333333334H144.4266666666667M42.6666666666667 200.5333333333334C42.6666666666667 149.3333333333334 84.2666666666667 107.9466666666667 135.4666666666667 107.9466666666667H173.44V71.2533333333333C173.6533333333333 20.2666666666667 215.04 -21.3333333333333 266.0266666666667 -21.3333333333333V182.8266666666667C266.0266666666667 192.6400000000001 257.92 200.7466666666667 248.1066666666667 200.7466666666667L42.6666666666667 200.5333333333334z" /></svg>