<?xml version="1.0" encoding="UTF-8"?><!DOCTYPE svg PUBLIC "-//W3C//DTD SVG 1.1//EN" "http://www.w3.org/Graphics/SVG/1.1/DTD/svg11.dtd"><svg xmlns="http://www.w3.org/2000/svg" xmlns:xlink="http://www.w3.org/1999/xlink" version="1.1" width="512" height="512" viewBox="0 0 512 512">    <path fill="#ffffff" transform="scale(1, -1) translate(0, -448)" glyph-name="toaster-oven" unicode="&#xFCAF;" horiz-adv-x="512" d=" M85.3333333333333 341.3333333333334C61.8666666666667 341.3333333333334 42.6666666666667 322.1333333333334 42.6666666666667 298.6666666666667V85.3333333333334C42.6666666666667 61.8666666666667 61.8666666666667 42.6666666666667 85.3333333333333 42.6666666666667H426.6666666666667C450.1333333333334 42.6666666666667 469.3333333333333 61.8666666666667 469.3333333333333 85.3333333333334V298.6666666666667C469.3333333333333 322.1333333333334 450.1333333333334 341.3333333333334 426.6666666666667 341.3333333333334H85.3333333333333M85.3333333333333 298.6666666666667H341.3333333333333V85.3333333333334H85.3333333333333V298.6666666666667M405.3333333333333 298.6666666666667C417.0666666666667 298.6666666666667 426.6666666666667 289.0666666666667 426.6666666666667 277.3333333333334S417.0666666666667 256 405.3333333333333 256S384 265.6 384 277.3333333333334S393.6 298.6666666666667 405.3333333333333 298.6666666666667M128 256V213.3333333333334H298.6666666666667V256H128M405.3333333333333 213.3333333333334C417.0666666666667 213.3333333333334 426.6666666666667 203.7333333333334 426.6666666666667 192S417.0666666666667 170.6666666666667 405.3333333333333 170.6666666666667S384 180.2666666666667 384 192S393.6 213.3333333333334 405.3333333333333 213.3333333333334z" /></svg>