<?xml version="1.0" encoding="UTF-8"?><!DOCTYPE svg PUBLIC "-//W3C//DTD SVG 1.1//EN" "http://www.w3.org/Graphics/SVG/1.1/DTD/svg11.dtd"><svg xmlns="http://www.w3.org/2000/svg" xmlns:xlink="http://www.w3.org/1999/xlink" version="1.1" width="512" height="512" viewBox="0 0 512 512">    <path fill="#ffffff" transform="scale(1, -1) translate(0, -448)" glyph-name="human-male-male" unicode="&#xFA5D;" horiz-adv-x="512" d=" M160 405.3333333333333C183.4666666666667 405.3333333333333 202.6666666666667 386.1333333333334 202.6666666666667 362.6666666666667S183.4666666666667 320 160 320S117.3333333333333 339.2000000000001 117.3333333333333 362.6666666666667S136.5333333333333 405.3333333333333 160 405.3333333333333M128 298.6666666666667H192C215.4666666666667 298.6666666666667 234.6666666666667 279.4666666666667 234.6666666666667 256V138.6666666666667H202.6666666666667V-21.3333333333333H117.3333333333333V138.6666666666667H85.3333333333333V256C85.3333333333333 279.4666666666667 104.5333333333333 298.6666666666667 128 298.6666666666667M352 405.3333333333333C375.4666666666667 405.3333333333333 394.6666666666667 386.1333333333334 394.6666666666667 362.6666666666667S375.4666666666667 320 352 320S309.3333333333333 339.2000000000001 309.3333333333333 362.6666666666667S328.5333333333333 405.3333333333333 352 405.3333333333333M320 298.6666666666667H384C407.4666666666667 298.6666666666667 426.6666666666667 279.4666666666667 426.6666666666667 256V138.6666666666667H394.6666666666667V-21.3333333333333H309.3333333333333V138.6666666666667H277.3333333333333V256C277.3333333333333 279.4666666666667 296.5333333333333 298.6666666666667 320 298.6666666666667z" /></svg>