<?xml version="1.0" encoding="UTF-8"?><!DOCTYPE svg PUBLIC "-//W3C//DTD SVG 1.1//EN" "http://www.w3.org/Graphics/SVG/1.1/DTD/svg11.dtd"><svg xmlns="http://www.w3.org/2000/svg" xmlns:xlink="http://www.w3.org/1999/xlink" version="1.1" width="512" height="512" viewBox="0 0 512 512">    <path fill="#ffffff" transform="scale(1, -1) translate(0, -448)" glyph-name="mail-ru" unicode="&#xF34C;" horiz-adv-x="512" d=" M329.6 193.92C327.2533333333334 241.0666666666667 292.2666666666667 269.44 250.0266666666667 269.44H248.32C199.4666666666666 269.44 172.5866666666667 231.04 172.5866666666667 187.52C172.5866666666667 138.6666666666667 205.2266666666666 107.7333333333334 248.1066666666667 107.7333333333334C296.1066666666667 107.7333333333334 327.4666666666667 142.9333333333333 329.8133333333333 184.32M248.5333333333333 311.68C281.1733333333333 311.68 311.8933333333333 297.1733333333333 334.2933333333333 274.56C334.2933333333333 285.44 341.3333333333333 293.5466666666666 351.9999999999999 293.5466666666666H354.3466666666666C370.1333333333332 293.5466666666666 373.3333333333333 278.6133333333334 373.3333333333333 273.92V105.3866666666667C372.4799999999999 94.2933333333333 384.8533333333333 88.7466666666666 391.8933333333333 95.9999999999999C418.9866666666666 123.5199999999999 451.1999999999999 238.72 375.04 305.28C304 367.5733333333333 208.6399999999999 357.3333333333333 157.8666666666666 322.3466666666666C104.1066666666666 285.2266666666666 69.5466666666666 202.6666666666666 103.04 125.6533333333333C139.52 41.3866666666667 244.0533333333333 16.2133333333333 306.1333333333333 41.3866666666667C337.7066666666666 53.9733333333333 351.9999999999999 11.52 320 -2.3466666666667C270.08 -23.4666666666667 132.9066666666667 -21.3333333333334 68.6933333333333 89.8133333333333C25.3866666666666 164.9066666666667 27.52 296.96 142.5066666666666 365.44C230.6133333333334 417.7066666666667 346.4533333333333 403.2 416 330.6666666666667C489.6 253.8666666666667 485.3333333333333 110.9333333333333 413.8666666666666 55.2533333333333C381.6533333333333 30.08 333.6533333333333 54.6133333333333 334.08 91.52L333.6533333333333 103.4666666666666C311.2533333333333 81.0666666666666 281.1733333333333 68.0533333333333 248.5333333333333 68.0533333333333C184.1066666666666 68.0533333333333 128 124.8 128 189.2266666666666C128 254.2933333333333 184.1066666666666 311.68 248.5333333333333 311.68z" /></svg>