<?xml version="1.0" encoding="UTF-8"?><!DOCTYPE svg PUBLIC "-//W3C//DTD SVG 1.1//EN" "http://www.w3.org/Graphics/SVG/1.1/DTD/svg11.dtd"><svg xmlns="http://www.w3.org/2000/svg" xmlns:xlink="http://www.w3.org/1999/xlink" version="1.1" width="512" height="512" viewBox="0 0 512 512">    <path fill="#ffffff" transform="scale(1, -1) translate(0, -448)" glyph-name="gender-male-female" unicode="&#xF29E;" horiz-adv-x="512" d=" M375.04 362.6666666666667H298.6666666666667V405.3333333333333H448V256H405.3333333333333V332.5866666666667L323.6266666666667 250.88C334.72 234.0266666666667 341.3333333333333 213.3333333333334 341.3333333333333 192C341.3333333333333 140.3733333333333 304.64 97.28 256 87.4666666666667V42.6666666666667H298.6666666666667V0H256V-42.6666666666666H213.3333333333333V0H170.6666666666667V42.6666666666667H213.3333333333333V87.4666666666667C164.6933333333333 97.2800000000001 128 140.3733333333334 128 192.0000000000001C128 250.8800000000001 175.7866666666667 298.6666666666668 234.6666666666667 298.6666666666668C256 298.6666666666668 276.48 292.2666666666667 293.3333333333333 280.9600000000001L375.04 362.6666666666667M234.6666666666667 256C199.2533333333333 256 170.6666666666667 227.4133333333334 170.6666666666667 192S199.2533333333333 128 234.6666666666667 128S298.6666666666667 156.5866666666667 298.6666666666667 192S270.08 256 234.6666666666667 256z" /></svg>