<?xml version="1.0" encoding="UTF-8"?><!DOCTYPE svg PUBLIC "-//W3C//DTD SVG 1.1//EN" "http://www.w3.org/Graphics/SVG/1.1/DTD/svg11.dtd"><svg xmlns="http://www.w3.org/2000/svg" xmlns:xlink="http://www.w3.org/1999/xlink" version="1.1" width="512" height="512" viewBox="0 0 512 512">    <path fill="#ffffff" transform="scale(1, -1) translate(0, -448)" glyph-name="standard-definition" unicode="&#xF7EE;" horiz-adv-x="512" d=" M277.3333333333333 298.6666666666667H341.3333333333333C376.7466666666667 298.6666666666667 405.3333333333333 270.0800000000001 405.3333333333333 234.6666666666667V149.3333333333334C405.3333333333333 113.92 376.7466666666667 85.3333333333334 341.3333333333333 85.3333333333334H277.3333333333333V298.6666666666667M341.3333333333333 128C353.0666666666667 128 362.6666666666667 137.6 362.6666666666667 149.3333333333334V234.6666666666667C362.6666666666667 246.4000000000001 353.0666666666667 256 341.3333333333333 256H320V128H341.3333333333333M149.3333333333333 298.6666666666667H234.6666666666667V256H149.3333333333333V213.3333333333334H192C215.4666666666667 213.3333333333334 234.6666666666667 194.1333333333333 234.6666666666667 170.6666666666667V128C234.6666666666667 104.5333333333333 215.4666666666667 85.3333333333334 192 85.3333333333334H106.6666666666667V128H192V170.6666666666667H149.3333333333333C125.8666666666667 170.6666666666667 106.6666666666667 189.8666666666667 106.6666666666667 213.3333333333334V256C106.6666666666667 279.4666666666667 125.8666666666667 298.6666666666667 149.3333333333333 298.6666666666667z" /></svg>