<?xml version="1.0" encoding="UTF-8"?><!DOCTYPE svg PUBLIC "-//W3C//DTD SVG 1.1//EN" "http://www.w3.org/Graphics/SVG/1.1/DTD/svg11.dtd"><svg xmlns="http://www.w3.org/2000/svg" xmlns:xlink="http://www.w3.org/1999/xlink" version="1.1" width="512" height="512" viewBox="0 0 512 512">    <path fill="#ffffff" transform="scale(1, -1) translate(0, -448)" glyph-name="github-box" unicode="&#xF2A3;" horiz-adv-x="512" d=" M106.6666666666667 384H405.3333333333333C428.8 384 448 364.8 448 341.3333333333334V42.6666666666667C448 19.2 428.8 0 405.3333333333333 0H310.6133333333333C303.7866666666667 1.4933333333333 303.5733333333333 14.5066666666667 303.5733333333333 18.9866666666667L303.7866666666667 71.68C303.7866666666667 89.6 297.6 101.3333333333334 290.7733333333333 107.3066666666667C333.6533333333333 112 378.4533333333333 128 378.4533333333333 202.0266666666667C378.4533333333333 222.9333333333333 370.9866666666666 240.2133333333333 358.8266666666666 253.6533333333333C360.7466666666666 258.3466666666667 367.3599999999999 277.9733333333333 356.9066666666666 304.4266666666666C356.9066666666666 304.4266666666666 340.6933333333333 309.3333333333333 303.9999999999999 284.5866666666667C288.6399999999999 288.8533333333334 272.4266666666666 290.9866666666667 255.9999999999999 291.2C239.7866666666666 290.9866666666667 223.1466666666666 288.8533333333333 207.9999999999999 284.5866666666667C171.3066666666666 309.3333333333333 155.0933333333333 304.4266666666666 155.0933333333333 304.4266666666666C144.6399999999999 277.9733333333333 151.2533333333333 258.3466666666667 153.1733333333332 253.6533333333333C141.0133333333332 240.2133333333333 133.5466666666666 222.9333333333333 133.5466666666666 202.0266666666667C133.5466666666666 128 178.3466666666666 112 221.0133333333332 106.6666666666667C215.4666666666666 102.4 210.5599999999999 93.8666666666667 208.8533333333333 81.4933333333333C197.7599999999999 76.5866666666667 170.0266666666666 68.0533333333334 152.9599999999999 97.4933333333333C152.9599999999999 97.4933333333333 142.7199999999999 115.84 123.5199999999999 117.3333333333334C123.5199999999999 117.3333333333334 104.7466666666666 117.3333333333334 122.2399999999999 105.6C122.2399999999999 105.6 134.8266666666666 99.6266666666667 143.5733333333333 77.44C143.5733333333333 77.44 154.6666666666666 40.1066666666667 208.2133333333333 51.6266666666667L208.4266666666666 18.9866666666666C208.4266666666666 14.5066666666666 207.9999999999999 1.4933333333333 201.1733333333332 -1e-13H106.6666666666667C83.2 -1e-13 64 19.1999999999999 64 42.6666666666666V341.3333333333334C64 364.8 83.2 384 106.6666666666667 384z" /></svg>