<?xml version="1.0" encoding="UTF-8"?><!DOCTYPE svg PUBLIC "-//W3C//DTD SVG 1.1//EN" "http://www.w3.org/Graphics/SVG/1.1/DTD/svg11.dtd"><svg xmlns="http://www.w3.org/2000/svg" xmlns:xlink="http://www.w3.org/1999/xlink" version="1.1" width="512" height="512" viewBox="0 0 512 512">    <path fill="#ffffff" transform="scale(1, -1) translate(0, -448)" glyph-name="stove" unicode="&#xF4DE;" horiz-adv-x="512" d=" M128 149.3333333333334H170.6666666666667L234.6666666666667 85.3333333333334H192L128 149.3333333333334M85.3333333333333 362.6666666666667H106.6666666666667V384C106.6666666666667 395.7333333333334 116.2666666666667 405.3333333333333 128 405.3333333333333H213.3333333333333C225.0666666666667 405.3333333333333 234.6666666666667 395.7333333333334 234.6666666666667 384V362.6666666666667H277.3333333333333V384C277.3333333333333 395.7333333333334 286.9333333333333 405.3333333333333 298.6666666666667 405.3333333333333H384C395.7333333333334 405.3333333333333 405.3333333333333 395.7333333333334 405.3333333333333 384V362.6666666666667H426.6666666666667C450.1333333333334 362.6666666666667 469.3333333333333 343.4666666666667 469.3333333333333 320V42.6666666666667C469.3333333333333 19.2 450.1333333333334 0 426.6666666666667 0V-21.3333333333333H362.6666666666667V0H149.3333333333333V-21.3333333333333H85.3333333333333V0C61.8666666666667 0 42.6666666666667 19.2 42.6666666666667 42.6666666666667V320C42.6666666666667 343.4666666666667 61.8666666666667 362.6666666666667 85.3333333333333 362.6666666666667M384 298.6666666666667C395.7333333333334 298.6666666666667 405.3333333333333 289.0666666666667 405.3333333333333 277.3333333333334S395.7333333333334 256 384 256S362.6666666666667 265.6 362.6666666666667 277.3333333333334S372.2666666666667 298.6666666666667 384 298.6666666666667M298.6666666666667 298.6666666666667C310.4 298.6666666666667 320 289.0666666666667 320 277.3333333333334S310.4 256 298.6666666666667 256S277.3333333333333 265.6 277.3333333333333 277.3333333333334S286.9333333333333 298.6666666666667 298.6666666666667 298.6666666666667M426.6666666666667 320H85.3333333333333V234.6666666666667H426.6666666666667V320M85.3333333333333 42.6666666666667H426.6666666666667V192H85.3333333333333V42.6666666666667M128 298.6666666666667C139.7333333333333 298.6666666666667 149.3333333333333 289.0666666666667 149.3333333333333 277.3333333333334S139.7333333333333 256 128 256S106.6666666666667 265.6 106.6666666666667 277.3333333333334S116.2666666666667 298.6666666666667 128 298.6666666666667M277.3333333333333 149.3333333333334H320L384 85.3333333333334H341.3333333333333L277.3333333333333 149.3333333333334z" /></svg>