<?xml version="1.0" encoding="UTF-8"?><!DOCTYPE svg PUBLIC "-//W3C//DTD SVG 1.1//EN" "http://www.w3.org/Graphics/SVG/1.1/DTD/svg11.dtd"><svg xmlns="http://www.w3.org/2000/svg" xmlns:xlink="http://www.w3.org/1999/xlink" version="1.1" width="512" height="512" viewBox="0 0 512 512">    <path fill="#ffffff" transform="scale(1, -1) translate(0, -448)" glyph-name="radio" unicode="&#xF439;" horiz-adv-x="512" d=" M426.6666666666667 320C450.1333333333334 320 469.3333333333333 300.8 469.3333333333333 277.3333333333334V21.3333333333334C469.3333333333333 -2.1333333333333 450.1333333333334 -21.3333333333333 426.6666666666667 -21.3333333333333H85.3333333333333C61.8666666666667 -21.3333333333333 42.6666666666667 -2.1333333333333 42.6666666666667 21.3333333333334V277.3333333333334C42.6666666666667 295.4666666666667 53.9733333333333 311.04 69.9733333333333 317.2266666666667L335.1466666666667 426.6666666666667L351.36 387.6266666666667L188.3733333333333 320H426.6666666666667M426.6666666666667 277.3333333333334H85.3333333333333V192H341.3333333333333V234.6666666666667H384V192H426.6666666666667V277.3333333333334M149.3333333333333 149.3333333333334C113.92 149.3333333333334 85.3333333333333 120.7466666666667 85.3333333333333 85.3333333333334S113.92 21.3333333333334 149.3333333333333 21.3333333333334S213.3333333333333 49.92 213.3333333333333 85.3333333333334S184.7466666666667 149.3333333333334 149.3333333333333 149.3333333333334z" /></svg>