<?xml version="1.0" encoding="UTF-8"?><!DOCTYPE svg PUBLIC "-//W3C//DTD SVG 1.1//EN" "http://www.w3.org/Graphics/SVG/1.1/DTD/svg11.dtd"><svg xmlns="http://www.w3.org/2000/svg" xmlns:xlink="http://www.w3.org/1999/xlink" version="1.1" width="512" height="512" viewBox="0 0 512 512">    <path fill="#ffffff" transform="scale(1, -1) translate(0, -448)" glyph-name="blur-radial" unicode="&#xF0B8;" horiz-adv-x="512" d=" M298.6666666666667 170.6666666666667C286.9333333333333 170.6666666666667 277.3333333333333 161.0666666666667 277.3333333333333 149.3333333333334S286.9333333333333 128 298.6666666666667 128S320 137.6 320 149.3333333333334S310.4 170.6666666666667 298.6666666666667 170.6666666666667M298.6666666666667 96C292.6933333333334 96 288 91.3066666666667 288 85.3333333333334S292.6933333333334 74.6666666666667 298.6666666666667 74.6666666666667S309.3333333333333 79.36 309.3333333333333 85.3333333333334S304.64 96 298.6666666666667 96M256 21.3333333333334C161.7066666666667 21.3333333333334 85.3333333333333 97.7066666666667 85.3333333333333 192S161.7066666666667 362.6666666666667 256 362.6666666666667S426.6666666666667 286.2933333333334 426.6666666666667 192S350.2933333333334 21.3333333333334 256 21.3333333333334M256 405.3333333333333C138.24 405.3333333333333 42.6666666666667 309.76 42.6666666666667 192S138.24 -21.3333333333333 256 -21.3333333333333S469.3333333333333 74.24 469.3333333333333 192S373.76 405.3333333333333 256 405.3333333333333M362.6666666666667 245.3333333333334C356.6933333333333 245.3333333333334 352 240.64 352 234.6666666666667S356.6933333333333 224 362.6666666666667 224S373.3333333333333 228.6933333333334 373.3333333333333 234.6666666666667S368.64 245.3333333333334 362.6666666666667 245.3333333333334M362.6666666666667 160C356.6933333333333 160 352 155.3066666666667 352 149.3333333333334S356.6933333333333 138.6666666666667 362.6666666666667 138.6666666666667S373.3333333333333 143.36 373.3333333333333 149.3333333333334S368.64 160 362.6666666666667 160M298.6666666666667 288C304.64 288 309.3333333333333 292.6933333333334 309.3333333333333 298.6666666666667S304.64 309.3333333333334 298.6666666666667 309.3333333333334S288 304.64 288 298.6666666666667S292.6933333333334 288 298.6666666666667 288M298.6666666666667 256C286.9333333333333 256 277.3333333333333 246.4000000000001 277.3333333333333 234.6666666666667S286.9333333333333 213.3333333333334 298.6666666666667 213.3333333333334S320 222.9333333333333 320 234.6666666666667S310.4 256 298.6666666666667 256M213.3333333333333 288C219.3066666666667 288 224 292.6933333333334 224 298.6666666666667S219.3066666666667 309.3333333333334 213.3333333333333 309.3333333333334S202.6666666666667 304.64 202.6666666666667 298.6666666666667S207.36 288 213.3333333333333 288M149.3333333333333 160C143.36 160 138.6666666666667 155.3066666666667 138.6666666666667 149.3333333333334S143.36 138.6666666666667 149.3333333333333 138.6666666666667S160 143.36 160 149.3333333333334S155.3066666666667 160 149.3333333333333 160M213.3333333333333 96C207.36 96 202.6666666666667 91.3066666666667 202.6666666666667 85.3333333333334S207.36 74.6666666666667 213.3333333333333 74.6666666666667S224 79.36 224 85.3333333333334S219.3066666666667 96 213.3333333333333 96M149.3333333333333 245.3333333333334C143.36 245.3333333333334 138.6666666666667 240.64 138.6666666666667 234.6666666666667S143.36 224 149.3333333333333 224S160 228.6933333333334 160 234.6666666666667S155.3066666666667 245.3333333333334 149.3333333333333 245.3333333333334M213.3333333333333 170.6666666666667C201.6 170.6666666666667 192 161.0666666666667 192 149.3333333333334S201.6 128 213.3333333333333 128S234.6666666666667 137.6 234.6666666666667 149.3333333333334S225.0666666666667 170.6666666666667 213.3333333333333 170.6666666666667M213.3333333333333 256C201.6 256 192 246.4000000000001 192 234.6666666666667S201.6 213.3333333333334 213.3333333333333 213.3333333333334S234.6666666666667 222.9333333333333 234.6666666666667 234.6666666666667S225.0666666666667 256 213.3333333333333 256z" /></svg>