<?xml version="1.0" encoding="UTF-8"?><!DOCTYPE svg PUBLIC "-//W3C//DTD SVG 1.1//EN" "http://www.w3.org/Graphics/SVG/1.1/DTD/svg11.dtd"><svg xmlns="http://www.w3.org/2000/svg" xmlns:xlink="http://www.w3.org/1999/xlink" version="1.1" width="512" height="512" viewBox="0 0 512 512">    <path fill="#ffffff" transform="scale(1, -1) translate(0, -448)" glyph-name="database-edit" unicode="&#xFB62;" horiz-adv-x="512" d=" M85.3333333333333 149.3333333333334V85.3333333333334C85.3333333333333 42.6666666666667 150.4 5.9733333333334 234.6666666666667 0V61.6533333333334L237.44 64C151.8933333333333 69.12 85.3333333333333 105.3866666666667 85.3333333333333 149.3333333333334M256 170.6666666666667C161.7066666666667 170.6666666666667 85.3333333333333 208.8533333333333 85.3333333333333 256V192C85.3333333333333 144.8533333333334 161.7066666666667 106.6666666666667 256 106.6666666666667H280.7466666666667L362.6666666666667 189.4400000000001C328.5333333333333 176.6400000000001 292.48 170.6666666666667 256 170.6666666666667M256 384C161.7066666666667 384 85.3333333333333 345.8133333333334 85.3333333333333 298.6666666666667S161.7066666666667 213.3333333333334 256 213.3333333333334S426.6666666666667 251.52 426.6666666666667 298.6666666666667S350.2933333333334 384 256 384M448 210.56C444.8 210.56 441.8133333333334 209.28 439.68 206.9333333333333L418.3466666666667 185.6L462.08 142.9333333333333L483.4133333333333 164.2666666666667C487.8933333333333 168.5333333333333 488.1066666666666 175.7866666666666 483.4133333333333 180.6933333333333L456.96 206.9333333333333C454.8266666666667 209.28 451.84 210.56 448.8533333333334 210.56M406.1866666666667 173.2266666666667L277.3333333333333 43.9466666666667V0H321.28L450.56 129.4933333333334L406.1866666666666 173.2266666666667z" /></svg>