<?xml version="1.0" encoding="UTF-8"?><!DOCTYPE svg PUBLIC "-//W3C//DTD SVG 1.1//EN" "http://www.w3.org/Graphics/SVG/1.1/DTD/svg11.dtd"><svg xmlns="http://www.w3.org/2000/svg" xmlns:xlink="http://www.w3.org/1999/xlink" version="1.1" width="512" height="512" viewBox="0 0 512 512">    <path fill="#ffffff" transform="scale(1, -1) translate(0, -448)" glyph-name="weight-gram" unicode="&#xFD1B;" horiz-adv-x="512" d=" M425.6 222.72C421.3333333333333 241.7066666666667 404.2666666666667 256 384 256H329.8133333333334C337.28 268.5866666666667 341.3333333333333 283.0933333333334 341.3333333333333 298.6666666666667C341.3333333333333 345.8133333333334 303.1466666666667 384 256 384S170.6666666666667 345.8133333333334 170.6666666666667 298.6666666666667C170.6666666666667 283.0933333333334 174.72 268.5866666666667 182.1866666666667 256H128C107.7333333333333 256 90.6666666666667 241.7066666666667 86.4 222.72C43.52 51.84 42.6666666666667 47.36 42.6666666666667 42.6666666666667C42.6666666666667 19.2 61.8666666666667 0 85.3333333333333 0H426.6666666666667C450.1333333333334 0 469.3333333333333 19.2 469.3333333333333 42.6666666666667C469.3333333333333 47.36 468.48 51.84 425.6 222.72M256 341.3333333333334C279.4666666666667 341.3333333333334 298.6666666666667 322.1333333333334 298.6666666666667 298.6666666666667S279.4666666666667 256 256 256S213.3333333333333 275.2000000000001 213.3333333333333 298.6666666666667S232.5333333333334 341.3333333333334 256 341.3333333333334M320 170.6666666666667H234.6666666666667V85.3333333333334H277.3333333333333V149.3333333333334H320V42.6666666666667H234.6666666666667C210.9866666666667 42.6666666666667 192 61.6533333333334 192 85.3333333333334V170.6666666666667C192 194.3466666666667 210.9866666666667 213.3333333333334 234.6666666666667 213.3333333333334H320V170.6666666666667z" /></svg>