<?xml version="1.0" encoding="UTF-8"?><!DOCTYPE svg PUBLIC "-//W3C//DTD SVG 1.1//EN" "http://www.w3.org/Graphics/SVG/1.1/DTD/svg11.dtd"><svg xmlns="http://www.w3.org/2000/svg" xmlns:xlink="http://www.w3.org/1999/xlink" version="1.1" width="512" height="512" viewBox="0 0 512 512">    <path fill="#ffffff" transform="scale(1, -1) translate(0, -448)" glyph-name="heart-broken" unicode="&#xF2D4;" horiz-adv-x="512" d=" M256 -7.4666666666667L225.0666666666667 20.6933333333333C115.2 120.3200000000001 42.6666666666667 186.24 42.6666666666667 266.6666666666667C42.6666666666667 332.5866666666667 94.2933333333333 384 160 384C174.2933333333333 384 188.16 381.44 201.3866666666667 376.9600000000001L277.3333333333333 248.5333333333334L192 141.8666666666667L256 -7.4666666666667M352 384C417.7066666666666 384 469.3333333333333 332.5866666666667 469.3333333333333 266.6666666666667C469.3333333333333 186.24 396.8 120.3200000000001 286.9333333333333 20.6933333333333L256 -7.4666666666667L234.6666666666667 141.8666666666667L330.6666666666667 248.5333333333333L274.1333333333334 356.9066666666667C295.8933333333333 373.9733333333334 323.6266666666667 384 352 384z" /></svg>