<?xml version="1.0" encoding="UTF-8"?><!DOCTYPE svg PUBLIC "-//W3C//DTD SVG 1.1//EN" "http://www.w3.org/Graphics/SVG/1.1/DTD/svg11.dtd"><svg xmlns="http://www.w3.org/2000/svg" xmlns:xlink="http://www.w3.org/1999/xlink" version="1.1" width="512" height="512" viewBox="0 0 512 512">    <path fill="#ffffff" transform="scale(1, -1) translate(0, -448)" glyph-name="weather-lightning-rainy" unicode="&#xF67D;" horiz-adv-x="512" d=" M96 158.0800000000001C106.6666666666667 152.1066666666667 109.6533333333333 138.6666666666667 103.8933333333333 128.8533333333334C97.92 118.6133333333334 85.3333333333333 115.2 74.6666666666667 120.96C42.6666666666667 139.3066666666667 21.3333333333333 173.8666666666667 21.3333333333333 213.3333333333334C21.3333333333333 272.2133333333334 69.12 320 128 320C149.3333333333333 370.1333333333334 198.4 405.3333333333333 256 405.3333333333333C329.1733333333333 405.3333333333333 389.12 348.5866666666667 394.6666666666667 276.6933333333334L405.3333333333333 277.3333333333334C452.48 277.3333333333334 490.6666666666666 239.1466666666667 490.6666666666666 192S452.48 106.6666666666667 405.3333333333333 106.6666666666667C393.6 106.6666666666667 384 116.2666666666667 384 128S393.6 149.3333333333334 405.3333333333333 149.3333333333334C428.8 149.3333333333334 448 168.5333333333334 448 192S428.8 234.6666666666667 405.3333333333333 234.6666666666667H362.6666666666667V256C362.6666666666667 314.88 314.88 362.6666666666667 256 362.6666666666667C202.6666666666667 362.6666666666667 158.9333333333333 323.8400000000001 150.6133333333333 273.28C143.5733333333333 275.8400000000001 135.8933333333333 277.3333333333334 128 277.3333333333334C92.5866666666667 277.3333333333334 64 248.7466666666667 64 213.3333333333334C64 189.6533333333334 76.8 168.96 96 157.8666666666667V158.0800000000001M202.6666666666667 213.3333333333334H266.6666666666667L224 128H266.6666666666667L186.6666666666667 -21.3333333333333L202.6666666666667 85.3333333333334H149.3333333333333L202.6666666666667 213.3333333333334M373.3333333333333 49.7066666666667C373.3333333333333 22.1866666666667 352 0 325.3333333333333 0S277.3333333333333 22.1866666666667 277.3333333333333 49.7066666666667C277.3333333333333 82.7733333333333 325.3333333333333 138.6666666666666 325.3333333333333 138.6666666666666S373.3333333333333 82.7733333333333 373.3333333333333 49.7066666666667z" /></svg>