<?xml version="1.0" encoding="UTF-8"?><!DOCTYPE svg PUBLIC "-//W3C//DTD SVG 1.1//EN" "http://www.w3.org/Graphics/SVG/1.1/DTD/svg11.dtd"><svg xmlns="http://www.w3.org/2000/svg" xmlns:xlink="http://www.w3.org/1999/xlink" version="1.1" width="512" height="512" viewBox="0 0 512 512">    <path fill="#ffffff" transform="scale(1, -1) translate(0, -448)" glyph-name="currency-bdt" unicode="&#xF863;" horiz-adv-x="512" d=" M385.92 224V256H204.5866666666667V352C204.5866666666667 369.7066666666667 190.2933333333333 384 172.5866666666667 384S140.5866666666667 369.7066666666667 140.5866666666667 352S154.88 320 172.5866666666667 320V256H108.5866666666667V224H172.5866666666667V91.7333333333334C172.5866666666667 41.3866666666667 213.3333333333333 0.64 263.2533333333334 0C313.1733333333333 0.8533333333334 352.8533333333333 41.8133333333334 352 91.7333333333334C352 125.6533333333334 336 157.6533333333334 309.3333333333333 178.7733333333334C304.64 182.6133333333334 299.7333333333334 186.0266666666667 294.4 188.8000000000001C289.7066666666667 190.9333333333334 284.5866666666667 192.0000000000001 279.4666666666667 192.0000000000001C264.32 192.0000000000001 250.4533333333334 183.6800000000001 242.9866666666667 170.6666666666668C238.9333333333334 164.2666666666667 236.8 156.8000000000001 236.8 149.3333333333334C237.0133333333334 125.8666666666667 256 106.6666666666667 279.68 106.6666666666667C292.9066666666667 106.6666666666667 305.28 113.2800000000001 313.3866666666667 123.7333333333334C317.8666666666667 113.7066666666667 320 102.8266666666668 320 91.7333333333335C320.8533333333334 59.7333333333335 295.68 33.0666666666668 263.2533333333334 32.0000000000001C230.6133333333334 32.0000000000001 204.3733333333334 59.0933333333334 204.5866666666667 91.7333333333335V224.0000000000001H385.9200000000001z" /></svg>