<?xml version="1.0" encoding="UTF-8"?><!DOCTYPE svg PUBLIC "-//W3C//DTD SVG 1.1//EN" "http://www.w3.org/Graphics/SVG/1.1/DTD/svg11.dtd"><svg xmlns="http://www.w3.org/2000/svg" xmlns:xlink="http://www.w3.org/1999/xlink" version="1.1" width="512" height="512" viewBox="0 0 512 512">    <path fill="#ffffff" transform="scale(1, -1) translate(0, -448)" glyph-name="hanger" unicode="&#xF2C8;" horiz-adv-x="512" d=" M442.88 99.4133333333334H442.6666666666667C458.6666666666666 90.24 469.3333333333333 72.96 469.3333333333333 53.3333333333334C469.3333333333333 23.8933333333334 445.44 0 416 0H96C66.56 0 42.6666666666667 23.8933333333334 42.6666666666667 53.3333333333334C42.6666666666667 72.96 53.3333333333333 90.24 69.3333333333333 99.4133333333334H69.12L234.6666666666667 194.9866666666667S234.6666666666667 213.3333333333334 256 234.6666666666667C277.3333333333333 234.6666666666667 298.6666666666667 253.8666666666667 298.6666666666667 277.3333333333334S279.4666666666667 320 256 320S213.3333333333333 300.8 213.3333333333333 277.3333333333334H170.6666666666667C170.6666666666667 324.48 208.8533333333333 362.6666666666667 256 362.6666666666667S341.3333333333333 324.48 341.3333333333333 277.3333333333334C341.3333333333333 237.6533333333334 314.24 204.3733333333333 277.3333333333333 194.7733333333333L442.88 99.4133333333334M96 42.6666666666667H416C419.6266666666667 42.6666666666667 423.2533333333334 44.5866666666667 425.1733333333333 48C428.16 53.3333333333334 426.6666666666667 59.52 421.3333333333333 62.5066666666667L256 158.0800000000001L90.6666666666667 62.5066666666667C85.3333333333333 59.52 83.84 53.3333333333334 86.8266666666667 48C88.7466666666667 44.5866666666667 92.3733333333333 42.6666666666667 96 42.6666666666667z" /></svg>