<?xml version="1.0" encoding="UTF-8"?><!DOCTYPE svg PUBLIC "-//W3C//DTD SVG 1.1//EN" "http://www.w3.org/Graphics/SVG/1.1/DTD/svg11.dtd"><svg xmlns="http://www.w3.org/2000/svg" xmlns:xlink="http://www.w3.org/1999/xlink" version="1.1" width="512" height="512" viewBox="0 0 512 512">    <path fill="#ffffff" transform="scale(1, -1) translate(0, -448)" glyph-name="led-on" unicode="&#xF32C;" horiz-adv-x="512" d=" M234.6666666666667 448V362.6666666666667H277.3333333333333V448H234.6666666666667M390.4 399.1466666666667L325.12 335.1466666666667L354.9866666666667 304.8533333333334L420.2666666666667 368.8533333333334L390.4 399.1466666666667M121.8133333333334 399.1466666666667L91.52 368.8533333333334L155.52 304.8533333333334L185.8133333333333 335.1466666666667L121.8133333333334 399.1466666666667M256 320C208.8533333333333 320 170.6666666666667 281.8133333333334 170.6666666666667 234.6666666666667V106.6666666666667H128V64H192V-42.6666666666666H234.6666666666667V64H277.3333333333333V-42.6666666666666H320V64H384V106.6666666666667H341.3333333333333V234.6666666666667C341.3333333333333 281.8133333333334 303.1466666666667 320 256 320M42.6666666666667 256V213.3333333333334H128V256H42.6666666666667M384 256V213.3333333333334H469.3333333333333V256H384z" /></svg>