<?xml version="1.0" encoding="UTF-8"?><!DOCTYPE svg PUBLIC "-//W3C//DTD SVG 1.1//EN" "http://www.w3.org/Graphics/SVG/1.1/DTD/svg11.dtd"><svg xmlns="http://www.w3.org/2000/svg" xmlns:xlink="http://www.w3.org/1999/xlink" version="1.1" width="512" height="512" viewBox="0 0 512 512">    <path fill="#ffffff" transform="scale(1, -1) translate(0, -448)" glyph-name="violin" unicode="&#xF60F;" horiz-adv-x="512" d=" M234.6666666666667 405.3333333333333C222.9333333333333 405.3333333333333 213.3333333333333 395.7333333333334 213.3333333333333 384V256C213.3333333333333 250.0266666666667 218.0266666666667 245.3333333333334 224 245.3333333333334H256C261.9733333333333 245.3333333333334 266.6666666666667 240.64 266.6666666666667 234.6666666666667S261.9733333333333 224 256 224H224C207.5733333333333 224 192 239.5733333333334 192 256V337.92C155.0933333333333 328.5333333333334 128 295.8933333333333 128 256V224C157.44 224 181.3333333333333 200.1066666666667 181.3333333333333 170.6666666666667S157.44 117.3333333333334 128 117.3333333333334V85.3333333333334C128 26.24 175.5733333333333 -21.3333333333333 234.6666666666667 -21.3333333333333H277.3333333333333C336.4266666666666 -21.3333333333333 384 26.24 384 85.3333333333334V117.3333333333334C354.56 117.3333333333334 330.6666666666667 141.2266666666667 330.6666666666667 170.6666666666667S354.56 224 384 224V256C384 303.36 346.0266666666667 341.3333333333334 298.6666666666667 341.3333333333334V384C298.6666666666667 395.7333333333334 289.0666666666667 405.3333333333333 277.3333333333333 405.3333333333333H234.6666666666667M229.3333333333333 96H282.6666666666667L272 21.3333333333334H240L229.3333333333333 96z" /></svg>