<?xml version="1.0" encoding="UTF-8"?><!DOCTYPE svg PUBLIC "-//W3C//DTD SVG 1.1//EN" "http://www.w3.org/Graphics/SVG/1.1/DTD/svg11.dtd"><svg xmlns="http://www.w3.org/2000/svg" xmlns:xlink="http://www.w3.org/1999/xlink" version="1.1" width="512" height="512" viewBox="0 0 512 512">    <path fill="#ffffff" transform="scale(1, -1) translate(0, -448)" glyph-name="closed-caption" unicode="&#xF15E;" horiz-adv-x="512" d=" M384 213.3333333333334H352V224H309.3333333333333V160H352V170.6666666666667H384V149.3333333333334C384 137.6 374.4 128 362.6666666666667 128H298.6666666666667C286.9333333333333 128 277.3333333333333 137.6 277.3333333333333 149.3333333333334V234.6666666666667C277.3333333333333 246.4000000000001 286.9333333333333 256 298.6666666666667 256H362.6666666666667C374.4 256 384 246.4000000000001 384 234.6666666666667M234.6666666666667 213.3333333333334H202.6666666666667V224H160V160H202.6666666666667V170.6666666666667H234.6666666666667V149.3333333333334C234.6666666666667 137.6 225.0666666666667 128 213.3333333333333 128H149.3333333333333C137.6 128 128 137.6 128 149.3333333333334V234.6666666666667C128 246.4000000000001 137.6 256 149.3333333333333 256H213.3333333333333C225.0666666666667 256 234.6666666666667 246.4000000000001 234.6666666666667 234.6666666666667M405.3333333333333 362.6666666666667H106.6666666666667C82.9866666666667 362.6666666666667 64 343.68 64 320V64C64 40.5333333333333 83.2 21.3333333333334 106.6666666666667 21.3333333333334H405.3333333333333C428.8 21.3333333333334 448 40.5333333333333 448 64V320C448 343.68 428.8 362.6666666666667 405.3333333333333 362.6666666666667z" /></svg>