<?xml version="1.0" encoding="UTF-8"?><!DOCTYPE svg PUBLIC "-//W3C//DTD SVG 1.1//EN" "http://www.w3.org/Graphics/SVG/1.1/DTD/svg11.dtd"><svg xmlns="http://www.w3.org/2000/svg" xmlns:xlink="http://www.w3.org/1999/xlink" version="1.1" width="512" height="512" viewBox="0 0 512 512">    <path fill="#ffffff" transform="scale(1, -1) translate(0, -448)" glyph-name="brush" unicode="&#xF0E3;" horiz-adv-x="512" d=" M441.8133333333334 349.2266666666667L413.2266666666667 377.8133333333334C405.3333333333333 386.1333333333334 391.4666666666667 386.1333333333334 383.1466666666667 377.8133333333334L192 186.6666666666667L250.6666666666667 128L441.8133333333334 319.1466666666667C450.1333333333334 327.4666666666667 450.1333333333334 341.3333333333334 441.8133333333334 349.2266666666667M149.3333333333333 149.3333333333334C113.92 149.3333333333334 85.3333333333333 120.7466666666667 85.3333333333333 85.3333333333334C85.3333333333333 57.3866666666667 60.5866666666667 42.6666666666667 42.6666666666667 42.6666666666667C62.2933333333333 16.64 96 0 128 0C175.1466666666667 0 213.3333333333333 38.1866666666667 213.3333333333333 85.3333333333334C213.3333333333333 120.7466666666667 184.7466666666667 149.3333333333334 149.3333333333333 149.3333333333334z" /></svg>