<?xml version="1.0" encoding="UTF-8"?><!DOCTYPE svg PUBLIC "-//W3C//DTD SVG 1.1//EN" "http://www.w3.org/Graphics/SVG/1.1/DTD/svg11.dtd"><svg xmlns="http://www.w3.org/2000/svg" xmlns:xlink="http://www.w3.org/1999/xlink" version="1.1" width="512" height="512" viewBox="0 0 512 512">    <path fill="#ffffff" transform="scale(1, -1) translate(0, -448)" glyph-name="credit-card-marker" unicode="&#xFD9A;" horiz-adv-x="512" d=" M288 64H85.3333333333333V192H305.0666666666667C326.4 217.6 358.4 234.6666666666667 394.6666666666667 234.6666666666667C422.4 234.6666666666667 448 224 469.3333333333333 206.9333333333333V320C469.3333333333333 343.4666666666667 450.1333333333334 362.6666666666667 426.6666666666667 362.6666666666667H85.3333333333333C61.8666666666667 362.6666666666667 42.6666666666667 343.4666666666667 42.6666666666667 320V64C42.6666666666667 40.5333333333333 61.8666666666667 21.3333333333334 85.3333333333333 21.3333333333334H311.4666666666667C302.9333333333333 34.1333333333334 294.4 49.0666666666667 288 64M85.3333333333333 320H426.6666666666667V277.3333333333334H85.3333333333333V320M394.6666666666667 192C354.1333333333334 192 320 157.8666666666667 320 117.3333333333334C320 61.8666666666667 394.6666666666667 -21.3333333333333 394.6666666666667 -21.3333333333333S469.3333333333333 61.8666666666667 469.3333333333333 117.3333333333334C469.3333333333333 157.8666666666667 435.2 192 394.6666666666667 192M394.6666666666667 89.6C379.7333333333334 89.6 369.0666666666667 102.4 369.0666666666667 115.2C369.0666666666667 130.1333333333333 381.8666666666667 140.8 394.6666666666667 140.8S420.2666666666667 128 420.2666666666667 115.2C422.4 102.4 409.6 89.6 394.6666666666667 89.6z" /></svg>