<?xml version="1.0" encoding="UTF-8"?><!DOCTYPE svg PUBLIC "-//W3C//DTD SVG 1.1//EN" "http://www.w3.org/Graphics/SVG/1.1/DTD/svg11.dtd"><svg xmlns="http://www.w3.org/2000/svg" xmlns:xlink="http://www.w3.org/1999/xlink" version="1.1" width="512" height="512" viewBox="0 0 512 512">    <path fill="#ffffff" transform="scale(1, -1) translate(0, -448)" glyph-name="format-text" unicode="&#xF284;" horiz-adv-x="512" d=" M394.6666666666667 362.6666666666667L419.4133333333333 269.8666666666667L398.9333333333333 264.3200000000001C389.3333333333333 282.88 379.52 301.4400000000001 368.2133333333333 310.8266666666667C356.9066666666667 320 343.68 320 330.6666666666667 320H277.3333333333333V96C277.3333333333333 85.3333333333334 277.3333333333333 74.6666666666667 284.3733333333334 69.3333333333334C291.6266666666667 64 305.7066666666667 64 320 64V42.6666666666667H192V64C206.2933333333333 64 220.3733333333333 64 227.6266666666667 69.3333333333334C234.6666666666667 74.6666666666667 234.6666666666667 85.3333333333334 234.6666666666667 96V320H181.3333333333333C168.32 320 155.0933333333333 320 143.7866666666667 310.8266666666667C132.48 301.44 122.6666666666667 282.88 113.0666666666667 264.3200000000001L92.5866666666667 269.8666666666667L117.3333333333333 362.6666666666667H394.6666666666667z" /></svg>