<?xml version="1.0" encoding="UTF-8"?><!DOCTYPE svg PUBLIC "-//W3C//DTD SVG 1.1//EN" "http://www.w3.org/Graphics/SVG/1.1/DTD/svg11.dtd"><svg xmlns="http://www.w3.org/2000/svg" xmlns:xlink="http://www.w3.org/1999/xlink" version="1.1" width="512" height="512" viewBox="0 0 512 512">    <path fill="#ffffff" transform="scale(1, -1) translate(0, -448)" glyph-name="ssh" unicode="&#xF8BF;" horiz-adv-x="512" d=" M96 256C83.2 256 74.6666666666667 245.3333333333334 74.6666666666667 234.6666666666667V197.3333333333334C74.6666666666667 186.6666666666667 83.2 176 96 176H149.3333333333333V160H74.6666666666667V128H160C172.8 128 181.3333333333333 138.6666666666667 181.3333333333333 149.3333333333334V186.6666666666667C181.3333333333333 197.3333333333334 172.8 208 160 208H106.6666666666667V224H181.3333333333333V256H96M224 256C211.2 256 202.6666666666667 245.3333333333334 202.6666666666667 234.6666666666667V197.3333333333334C202.6666666666667 186.6666666666667 211.2 176 224 176H277.3333333333333V160H202.6666666666667V128H288C300.8 128 309.3333333333333 138.6666666666667 309.3333333333333 149.3333333333334V186.6666666666667C309.3333333333333 197.3333333333334 300.8 208 288 208H234.6666666666667V224H309.3333333333333V256H224M330.6666666666667 256V128H362.6666666666667V181.3333333333334H405.3333333333333V128H437.3333333333333V256H405.3333333333333V213.3333333333334H362.6666666666667V256H330.6666666666667z" /></svg>