<?xml version="1.0" encoding="UTF-8"?><!DOCTYPE svg PUBLIC "-//W3C//DTD SVG 1.1//EN" "http://www.w3.org/Graphics/SVG/1.1/DTD/svg11.dtd"><svg xmlns="http://www.w3.org/2000/svg" xmlns:xlink="http://www.w3.org/1999/xlink" version="1.1" width="512" height="512" viewBox="0 0 512 512">    <path fill="#ffffff" transform="scale(1, -1) translate(0, -448)" glyph-name="ticket-outline" unicode="&#xF912;" horiz-adv-x="512" d=" M85.3333333333333 362.6666666666667C61.8666666666667 362.6666666666667 42.6666666666667 343.4666666666667 42.6666666666667 320V234.6666666666667C66.1333333333333 234.6666666666667 85.3333333333333 215.4666666666667 85.3333333333333 192S66.1333333333333 149.3333333333334 42.6666666666667 149.3333333333334V64C42.6666666666667 40.5333333333333 61.8666666666667 21.3333333333334 85.3333333333333 21.3333333333334H426.6666666666667C450.1333333333334 21.3333333333334 469.3333333333333 40.5333333333333 469.3333333333333 64V149.3333333333334C445.8666666666666 149.3333333333334 426.6666666666667 168.5333333333334 426.6666666666667 192S445.8666666666666 234.6666666666667 469.3333333333333 234.6666666666667V320C469.3333333333333 343.4666666666667 450.1333333333334 362.6666666666667 426.6666666666667 362.6666666666667H85.3333333333333M85.3333333333333 320H426.6666666666667V265.8133333333334C400.2133333333334 250.6666666666667 384 222.5066666666667 384 192C384 161.4933333333334 400.2133333333334 133.3333333333334 426.6666666666667 118.1866666666667V64H85.3333333333333V118.1866666666667C111.7866666666667 133.3333333333334 128 161.4933333333334 128 192C128 222.5066666666667 111.7866666666667 250.6666666666667 85.3333333333333 265.8133333333334V320z" /></svg>