<?xml version="1.0" encoding="UTF-8"?><!DOCTYPE svg PUBLIC "-//W3C//DTD SVG 1.1//EN" "http://www.w3.org/Graphics/SVG/1.1/DTD/svg11.dtd"><svg xmlns="http://www.w3.org/2000/svg" xmlns:xlink="http://www.w3.org/1999/xlink" version="1.1" width="512" height="512" viewBox="0 0 512 512">    <path fill="#ffffff" transform="scale(1, -1) translate(0, -448)" glyph-name="function" unicode="&#xF295;" horiz-adv-x="512" d=" M332.8 335.1466666666667C309.3333333333333 337.28 288.64 320 286.5066666666667 296.32L281.1733333333333 234.6666666666667H341.3333333333333V192H277.3333333333333L267.9466666666667 83.84C263.8933333333333 36.9066666666667 222.5066666666667 2.1333333333334 175.5733333333333 6.4C147.6266666666667 8.7466666666667 124.16 24.3200000000001 110.2933333333333 46.2933333333334L142.2933333333333 78.2933333333334C147.4133333333333 62.5066666666668 161.4933333333334 50.3466666666668 179.2 48.8533333333334C202.6666666666667 46.72 223.36 64.0000000000001 225.4933333333334 87.6800000000001L234.6666666666667 192H170.6666666666667V234.6666666666667H238.2933333333333L244.0533333333333 300.1600000000001C248.1066666666667 347.0933333333334 289.4933333333334 381.8666666666667 336.4266666666666 377.6C364.3733333333333 375.2533333333334 387.84 359.68 401.7066666666666 337.7066666666667L369.7066666666666 305.7066666666667C364.5866666666667 321.4933333333334 350.5066666666667 333.6533333333334 332.8 335.1466666666667z" /></svg>