<?xml version="1.0" encoding="UTF-8"?><!DOCTYPE svg PUBLIC "-//W3C//DTD SVG 1.1//EN" "http://www.w3.org/Graphics/SVG/1.1/DTD/svg11.dtd"><svg xmlns="http://www.w3.org/2000/svg" xmlns:xlink="http://www.w3.org/1999/xlink" version="1.1" width="512" height="512" viewBox="0 0 512 512">    <path fill="#ffffff" transform="scale(1, -1) translate(0, -448)" glyph-name="weather-cloudy-arrow-right" unicode="&#xFE51;" horiz-adv-x="512" d=" M128 298.6666666666667L142.72 297.3866666666667C156.16 347.3066666666667 201.8133333333333 384 256 384C320.8533333333333 384 373.3333333333333 331.52 373.3333333333333 266.6666666666667L371.6266666666667 246.4000000000001C381.4400000000001 252.5866666666667 392.9600000000001 256 405.3333333333333 256C440.7466666666667 256 469.3333333333333 227.4133333333334 469.3333333333333 192S440.7466666666667 128 405.3333333333333 128H128C80.8533333333333 128 42.6666666666667 166.1866666666667 42.6666666666667 213.3333333333334S80.8533333333333 298.6666666666667 128 298.6666666666667M128 256C104.5333333333333 256 85.3333333333333 236.8 85.3333333333333 213.3333333333334S104.5333333333333 170.6666666666667 128 170.6666666666667H405.3333333333333C417.0666666666667 170.6666666666667 426.6666666666667 180.2666666666667 426.6666666666667 192S417.0666666666667 213.3333333333334 405.3333333333333 213.3333333333334H330.6666666666667V266.6666666666667C330.6666666666667 307.8400000000001 297.1733333333333 341.3333333333334 256 341.3333333333334S181.3333333333333 307.8400000000001 181.3333333333333 266.6666666666667V256H128M469.3333333333333 42.6666666666667L405.3333333333333 -21.3333333333333V21.3333333333334H42.6666666666667V64H405.3333333333333V106.6666666666667L469.3333333333333 42.6666666666667" /></svg>