<?xml version="1.0" encoding="UTF-8"?><!DOCTYPE svg PUBLIC "-//W3C//DTD SVG 1.1//EN" "http://www.w3.org/Graphics/SVG/1.1/DTD/svg11.dtd"><svg xmlns="http://www.w3.org/2000/svg" xmlns:xlink="http://www.w3.org/1999/xlink" version="1.1" width="512" height="512" viewBox="0 0 512 512">    <path fill="#ffffff" transform="scale(1, -1) translate(0, -448)" glyph-name="escalator" unicode="&#xF1FF;" horiz-adv-x="512" d=" M426.6666666666667 277.3333333333334H404.2666666666667L148.2666666666667 21.3333333333334H85.3333333333333C61.8666666666667 21.3333333333334 42.6666666666667 40.5333333333333 42.6666666666667 64S61.8666666666667 106.6666666666667 85.3333333333333 106.6666666666667H112.8533333333333L149.3333333333333 143.1466666666667V234.6666666666667C149.3333333333333 246.4000000000001 158.9333333333333 256 170.6666666666667 256H192C203.7333333333334 256 213.3333333333333 246.4000000000001 213.3333333333333 234.6666666666667V207.1466666666667L368.8533333333333 362.6666666666667H426.6666666666667C450.1333333333334 362.6666666666667 469.3333333333333 343.4666666666667 469.3333333333333 320S450.1333333333334 277.3333333333334 426.6666666666667 277.3333333333334M181.3333333333333 341.3333333333334C199.04 341.3333333333334 213.3333333333333 327.04 213.3333333333333 309.3333333333334S199.04 277.3333333333334 181.3333333333333 277.3333333333334S149.3333333333333 291.6266666666667 149.3333333333333 309.3333333333334S163.6266666666667 341.3333333333334 181.3333333333333 341.3333333333334z" /></svg>