<?xml version="1.0" encoding="UTF-8"?><!DOCTYPE svg PUBLIC "-//W3C//DTD SVG 1.1//EN" "http://www.w3.org/Graphics/SVG/1.1/DTD/svg11.dtd"><svg xmlns="http://www.w3.org/2000/svg" xmlns:xlink="http://www.w3.org/1999/xlink" version="1.1" width="512" height="512" viewBox="0 0 512 512">    <path fill="#ffffff" transform="scale(1, -1) translate(0, -448)" glyph-name="alpha" unicode="&#xF02B;" horiz-adv-x="512" d=" M385.7066666666666 68.2666666666667C375.8933333333333 65.4933333333333 367.1466666666666 64 359.4666666666666 64C333.8666666666666 64 316.5866666666666 82.7733333333333 307.8399999999999 120.5333333333334H306.7733333333333C285.6533333333333 79.7866666666668 255.9999999999999 59.52 218.6666666666666 59.52C190.7199999999999 59.52 168.3199999999999 69.9733333333333 151.4666666666666 91.0933333333334S126.2933333333333 138.6666666666667 126.2933333333333 170.6666666666667C126.2933333333333 208 135.8933333333333 237.8666666666667 154.88 261.12C173.8666666666667 284.3733333333334 199.68 296.1066666666667 232.32 296.1066666666667C249.8133333333334 296.1066666666667 265.6 291.2 279.2533333333334 281.6C292.9066666666667 271.7866666666667 303.36 258.1333333333334 310.6133333333334 240.4266666666667H311.4666666666667L326.6133333333333 291.6266666666667H381.2266666666666L335.5733333333333 178.1333333333333C340.6933333333333 151.68 346.0266666666666 133.5466666666667 351.9999999999999 123.9466666666667C357.1199999999999 114.3466666666667 364.3733333333332 109.44 373.3333333333333 109.44C378.4533333333332 109.44 382.5066666666666 110.2933333333333 386.1333333333333 111.7866666666666L385.7066666666666 68.2666666666667M294.8266666666666 180.0533333333334C290.3466666666666 204.16 283.0933333333333 222.9333333333333 273.28 235.7333333333333C263.68 248.7466666666667 251.9466666666667 255.1466666666667 238.5066666666667 255.1466666666667C221.0133333333333 255.1466666666667 206.9333333333333 247.2533333333334 196.48 231.68C186.0266666666667 215.8933333333333 181.3333333333333 196.48 181.3333333333333 173.6533333333333C181.3333333333333 152.7466666666667 185.3866666666667 135.4666666666667 194.56 121.3866666666667C203.52 107.3066666666666 215.68 100.48 230.8266666666667 100.48C243.6266666666666 100.48 255.36 106.6666666666666 265.8133333333333 118.4C276.48 130.56 285.2266666666667 148.2666666666667 292.2666666666667 171.52L294.8266666666666 180.0533333333333z" /></svg>