<?xml version="1.0" encoding="UTF-8"?><!DOCTYPE svg PUBLIC "-//W3C//DTD SVG 1.1//EN" "http://www.w3.org/Graphics/SVG/1.1/DTD/svg11.dtd"><svg xmlns="http://www.w3.org/2000/svg" xmlns:xlink="http://www.w3.org/1999/xlink" version="1.1" width="512" height="512" viewBox="0 0 512 512">    <path fill="#ffffff" transform="scale(1, -1) translate(0, -448)" glyph-name="select-color" unicode="&#xFD0D;" horiz-adv-x="512" d=" M82.7733333333333 384C72.1066666666667 382.7200000000001 64 373.3333333333334 64 362.6666666666667V341.3333333333334H106.6666666666667V384H82.7733333333333M149.3333333333333 384V341.3333333333334H192V384H149.3333333333333M234.6666666666667 384V341.3333333333334H277.3333333333333V384H234.6666666666667M320 384V341.3333333333334H362.6666666666667V384H320M405.3333333333333 384V341.3333333333334H448V365.2266666666667C446.7200000000001 375.8933333333333 437.3333333333333 384 426.6666666666667 384H405.3333333333333M64 298.6666666666667V256H106.6666666666667V298.6666666666667H64M405.3333333333333 298.6666666666667V256H448V298.6666666666667H405.3333333333333M64 213.3333333333334V170.6666666666667H106.6666666666667V213.3333333333334H64M411.9466666666666 192C409.1733333333333 192 406.3999999999999 190.9333333333333 404.2666666666667 189.0133333333333L370.9866666666667 155.52L350.5066666666667 176L335.36 160.8533333333334L350.5066666666667 145.7066666666667L255.36 50.5599999999999V0H306.1333333333333L401.0666666666666 95.1466666666667L415.9999999999999 80L431.3599999999999 95.1466666666667L410.8799999999999 115.6266666666667L444.1599999999999 148.6933333333334C447.9999999999999 152.96 447.9999999999999 160.0000000000001 444.1599999999999 164.0533333333334L419.1999999999998 189.0133333333334C417.2799999999998 190.9333333333334 414.7199999999998 192.0000000000001 411.9466666666665 192.0000000000001M64 128V85.3333333333334H106.6666666666667V128H64M362.6666666666667 128L383.36 107.3066666666667L297.1733333333333 21.3333333333334L276.6933333333333 41.8133333333334L362.6666666666667 128M64 42.6666666666667V18.7733333333333C65.28 8.1066666666667 74.6666666666667 0 85.3333333333333 0H106.6666666666667V42.6666666666667H64M149.3333333333333 42.6666666666667V0H192V42.6666666666667H149.3333333333333z" /></svg>