<?xml version="1.0" encoding="UTF-8"?><!DOCTYPE svg PUBLIC "-//W3C//DTD SVG 1.1//EN" "http://www.w3.org/Graphics/SVG/1.1/DTD/svg11.dtd"><svg xmlns="http://www.w3.org/2000/svg" xmlns:xlink="http://www.w3.org/1999/xlink" version="1.1" width="512" height="512" viewBox="0 0 512 512">    <path fill="#ffffff" transform="scale(1, -1) translate(0, -448)" glyph-name="image-search-outline" unicode="&#xF977;" horiz-adv-x="512" d=" M330.6666666666667 256C345.6 256 358.1866666666666 261.12 368.4266666666666 271.5733333333334C378.88 281.8133333333334 384 294.4000000000001 384 309.3333333333334C384 323.6266666666667 378.88 336.4266666666667 368.4266666666666 347.0933333333334C358.1866666666666 357.76 345.6 362.6666666666667 330.6666666666667 362.6666666666667C316.3733333333334 362.6666666666667 303.5733333333333 357.76 292.9066666666667 347.0933333333334S277.3333333333333 323.6266666666667 277.3333333333333 309.3333333333334C277.3333333333333 294.4 282.24 281.8133333333334 292.9066666666667 271.5733333333334C303.5733333333333 261.12 316.3733333333334 256 330.6666666666667 256M411.9466666666666 257.92L478.08 192L448 161.92L381.0133333333333 228.0533333333334C364.3733333333333 218.0266666666667 347.3066666666667 213.3333333333334 330.0266666666667 213.3333333333334C303.36 213.3333333333334 280.7466666666666 222.2933333333334 262.4 241.0666666666667C244.2666666666667 259.6266666666667 234.6666666666667 282.24 234.6666666666667 309.3333333333334C234.6666666666667 335.5733333333334 244.2666666666666 358.4000000000001 263.04 376.9600000000001C281.6 395.7333333333334 304.4266666666666 405.3333333333333 330.6666666666667 405.3333333333333C357.76 405.3333333333333 380.3733333333333 395.7333333333334 398.9333333333333 376.9600000000001C417.7066666666666 358.4 426.6666666666667 335.5733333333334 426.6666666666667 309.3333333333334C426.6666666666667 291.6266666666667 421.9733333333334 274.5600000000001 411.9466666666666 257.92M352 64H117.3333333333333L176 138.6666666666667L218.0266666666667 88.96L276.0533333333334 164.0533333333334L352 64M384 170.6666666666667L426.6666666666667 128V21.3333333333334C426.6666666666667 9.6 422.6133333333333 0 414.08 -8.5333333333333C405.3333333333333 -16.8533333333333 395.3066666666667 -21.3333333333333 384 -21.3333333333333H85.3333333333333C73.6 -21.3333333333333 64 -16.8533333333333 55.4666666666667 -8.5333333333333C47.1466666666667 0 42.6666666666667 9.6000000000001 42.6666666666667 21.3333333333334V320C42.6666666666667 331.3066666666667 47.1466666666667 341.3333333333334 55.4666666666667 350.0800000000001C64 358.6133333333334 73.6 362.6666666666667 85.3333333333333 362.6666666666667H202.6666666666667C196.2666666666667 349.0133333333333 192.64 334.7200000000001 192 320H85.3333333333333V21.3333333333334H384V170.6666666666667z" /></svg>