<?xml version="1.0" encoding="UTF-8"?><!DOCTYPE svg PUBLIC "-//W3C//DTD SVG 1.1//EN" "http://www.w3.org/Graphics/SVG/1.1/DTD/svg11.dtd"><svg xmlns="http://www.w3.org/2000/svg" xmlns:xlink="http://www.w3.org/1999/xlink" version="1.1" width="512" height="512" viewBox="0 0 512 512">    <path fill="#ffffff" transform="scale(1, -1) translate(0, -448)" glyph-name="home-floor-b" unicode="&#xFD60;" horiz-adv-x="512" d=" M256 384L42.6666666666667 192H106.6666666666667V21.3333333333334H405.3333333333333V192H469.3333333333333L256 384M192 277.3333333333334H277.3333333333333C300.8 277.3333333333334 320 258.1333333333334 320 234.6666666666667V202.6666666666667C320 184.96 305.7066666666667 170.6666666666667 288 170.6666666666667C305.7066666666667 170.6666666666667 320 156.3733333333333 320 138.6666666666667V106.6666666666667C320 83.2 300.8 64 277.3333333333333 64H192V277.3333333333334M234.6666666666667 234.6666666666667V192H277.3333333333333V234.6666666666667H234.6666666666667M234.6666666666667 149.3333333333334V106.6666666666667H277.3333333333333V149.3333333333334H234.6666666666667z" /></svg>