<?xml version="1.0" encoding="UTF-8"?><!DOCTYPE svg PUBLIC "-//W3C//DTD SVG 1.1//EN" "http://www.w3.org/Graphics/SVG/1.1/DTD/svg11.dtd"><svg xmlns="http://www.w3.org/2000/svg" xmlns:xlink="http://www.w3.org/1999/xlink" version="1.1" width="512" height="512" viewBox="0 0 512 512">    <path fill="#ffffff" transform="scale(1, -1) translate(0, -448)" glyph-name="mailbox-up-outline" unicode="&#xFD6A;" horiz-adv-x="512" d=" M362.6666666666667 362.6666666666667H149.3333333333333C90.4533333333333 362.6666666666667 42.6666666666667 314.88 42.6666666666667 256V21.3333333333334H426.6666666666667C450.1333333333334 21.3333333333334 469.3333333333333 40.5333333333333 469.3333333333333 64V256C469.3333333333333 314.88 421.5466666666666 362.6666666666667 362.6666666666667 362.6666666666667M213.3333333333333 64H85.3333333333333V256C85.3333333333333 291.4133333333334 113.92 320 149.3333333333333 320S213.3333333333333 291.4133333333334 213.3333333333333 256V64M426.6666666666667 64H256V256C256 279.04 248.5333333333334 301.6533333333334 234.6666666666667 320H362.6666666666667C398.08 320 426.6666666666667 291.4133333333334 426.6666666666667 256V64M277.3333333333333 170.6666666666667H320V256H362.6666666666667V298.6666666666667H277.3333333333333V170.6666666666667M192 213.3333333333334H106.6666666666667V256H192V213.3333333333334z" /></svg>