<?xml version="1.0" encoding="UTF-8"?><!DOCTYPE svg PUBLIC "-//W3C//DTD SVG 1.1//EN" "http://www.w3.org/Graphics/SVG/1.1/DTD/svg11.dtd"><svg xmlns="http://www.w3.org/2000/svg" xmlns:xlink="http://www.w3.org/1999/xlink" version="1.1" width="512" height="512" viewBox="0 0 512 512">    <path fill="#ffffff" transform="scale(1, -1) translate(0, -448)" glyph-name="baseball-bat" unicode="&#xF852;" horiz-adv-x="512" d=" M426.6666666666667 405.3333333333333C420.6933333333333 405.3333333333333 416 402.9866666666667 411.52 399.1466666666667L208.8533333333333 196.48C208 195.6266666666667 207.36 194.7733333333334 154.24 120.5333333333334L85.3333333333333 51.4133333333334L79.1466666666667 57.8133333333334C74.6666666666667 61.8666666666667 69.5466666666667 64 64 64C52.0533333333333 64 42.6666666666667 54.6133333333333 42.6666666666667 42.6666666666667C42.6666666666667 37.12 44.8 32 48.8533333333333 27.52L91.52 -15.1466666666666C99.84 -23.6799999999999 113.28 -23.8933333333333 121.8133333333333 -15.7866666666667C130.3466666666667 -7.4666666666667 130.56 5.9733333333333 121.8133333333333 15.1466666666666L115.4133333333333 21.3333333333333L184.32 90.24L260.48 144.8533333333333L463.1466666666666 347.52C471.4666666666667 355.8399999999999 471.4666666666667 369.4933333333333 463.1466666666666 377.8133333333333L441.8133333333334 399.1466666666666C437.3333333333333 403.2 432.2133333333334 405.3333333333333 426.6666666666667 405.3333333333333M394.6666666666667 170.6666666666667C365.2266666666667 170.6666666666667 341.3333333333333 146.7733333333333 341.3333333333333 117.3333333333334S365.2266666666667 64 394.6666666666667 64S448 87.8933333333334 448 117.3333333333334S424.1066666666667 170.6666666666667 394.6666666666667 170.6666666666667z" /></svg>