<?xml version="1.0" encoding="UTF-8"?><!DOCTYPE svg PUBLIC "-//W3C//DTD SVG 1.1//EN" "http://www.w3.org/Graphics/SVG/1.1/DTD/svg11.dtd"><svg xmlns="http://www.w3.org/2000/svg" xmlns:xlink="http://www.w3.org/1999/xlink" version="1.1" width="512" height="512" viewBox="0 0 512 512">    <path fill="#ffffff" transform="scale(1, -1) translate(0, -448)" glyph-name="link-box" unicode="&#xFCF6;" horiz-adv-x="512" d=" M405.3333333333333 384H106.6666666666667C83.2 384 64 364.8 64 341.3333333333334V42.6666666666667C64 19.2 83.2 0 106.6666666666667 0H405.3333333333333C428.8 0 448 19.2 448 42.6666666666667V341.3333333333334C448 364.8 428.8 384 405.3333333333333 384M234.6666666666667 106.6666666666667H213.3333333333333C178.9866666666667 106.6666666666667 128 129.28 128 192C128 254.5066666666667 178.9866666666667 277.3333333333334 213.3333333333333 277.3333333333334H234.6666666666667V234.6666666666667H213.3333333333333C203.52 234.6666666666667 170.6666666666667 231.04 170.6666666666667 192C170.6666666666667 151.4666666666667 206.2933333333333 149.3333333333334 213.3333333333333 149.3333333333334H234.6666666666667V106.6666666666667M320 213.3333333333334V170.6666666666667H192V213.3333333333334H320M298.6666666666667 106.6666666666667H277.3333333333333V149.3333333333334H298.6666666666667C308.48 149.3333333333334 341.3333333333333 152.96 341.3333333333333 192C341.3333333333333 232.5333333333334 305.7066666666667 234.6666666666667 298.6666666666667 234.6666666666667H277.3333333333333V277.3333333333334H298.6666666666667C333.0133333333333 277.3333333333334 384 254.5066666666667 384 192C384 129.28 333.0133333333333 106.6666666666667 298.6666666666667 106.6666666666667z" /></svg>