<?xml version="1.0" encoding="UTF-8"?><!DOCTYPE svg PUBLIC "-//W3C//DTD SVG 1.1//EN" "http://www.w3.org/Graphics/SVG/1.1/DTD/svg11.dtd"><svg xmlns="http://www.w3.org/2000/svg" xmlns:xlink="http://www.w3.org/1999/xlink" version="1.1" width="512" height="512" viewBox="0 0 512 512">    <path fill="#ffffff" transform="scale(1, -1) translate(0, -448)" glyph-name="tshirt-v-outline" unicode="&#xF540;" horiz-adv-x="512" d=" M341.3333333333333 0H170.6666666666667C158.9333333333333 0 149.3333333333333 9.6 149.3333333333333 21.3333333333334V190.5066666666667L121.6 168.1066666666667C113.28 160 99.84 160 91.52 168.1066666666667L31.1466666666667 228.48C22.8266666666667 236.8 22.8266666666667 250.24 31.1466666666667 258.56L156.5866666666667 384H192C192 360.5333333333334 213.3333333333333 320 256 293.3333333333334C298.6666666666667 320 320 360.5333333333334 320 384H355.4133333333333L480.8533333333333 258.5600000000001C489.1733333333333 250.24 489.1733333333333 236.8000000000001 480.8533333333333 228.48L420.48 168.1066666666667C412.16 160 398.7200000000001 160 390.4 168.1066666666667L362.6666666666667 190.5066666666667V21.3333333333334C362.6666666666667 9.6 353.0666666666667 0 341.3333333333333 0M435.6266666666667 243.6266666666667L343.6800000000001 335.36C320 298.6666666666667 298.6666666666667 272 256 250.6666666666667C213.3333333333333 272 192 298.6666666666667 168.32 335.36L76.3733333333333 243.6266666666667L106.6666666666667 213.3333333333334L170.6666666666667 256H192V42.6666666666667H320V256H341.3333333333333L405.3333333333333 213.3333333333334L435.6266666666667 243.6266666666667z" /></svg>