<?xml version="1.0" encoding="UTF-8"?><!DOCTYPE svg PUBLIC "-//W3C//DTD SVG 1.1//EN" "http://www.w3.org/Graphics/SVG/1.1/DTD/svg11.dtd"><svg xmlns="http://www.w3.org/2000/svg" xmlns:xlink="http://www.w3.org/1999/xlink" version="1.1" width="512" height="512" viewBox="0 0 512 512">    <path fill="#ffffff" transform="scale(1, -1) translate(0, -448)" glyph-name="shield-plus-outline" unicode="&#xFADA;" horiz-adv-x="512" d=" M405.3333333333333 21.3333333333334V-42.0266666666666H362.6666666666667V21.3333333333334H298.6666666666667V64H362.6666666666667V128H405.3333333333333V64H469.3333333333333V21.3333333333334H405.3333333333333M448 213.3333333333334C448 194.1333333333333 445.8666666666666 175.36 441.8133333333334 156.8C429.4400000000001 163.2000000000001 416 167.4666666666667 401.2800000000001 169.6C403.8400000000001 182.4 405.3333333333334 195.6266666666667 405.3333333333334 208.64V313.6L256.0000000000001 380.1600000000001L106.6666666666667 313.6V208.6400000000001C106.6666666666667 116.48 176 21.3333333333334 256 0L262.6133333333334 1.92C266.6666666666667 -11.3066666666667 273.7066666666667 -23.6799999999999 282.0266666666667 -34.56L256 -42.6666666666666C145.92 -15.7866666666666 64 94.9333333333333 64 213.3333333333334V341.3333333333334L256 426.6666666666667L448 341.3333333333334V213.3333333333334z" /></svg>