<?xml version="1.0" encoding="UTF-8"?><!DOCTYPE svg PUBLIC "-//W3C//DTD SVG 1.1//EN" "http://www.w3.org/Graphics/SVG/1.1/DTD/svg11.dtd"><svg xmlns="http://www.w3.org/2000/svg" xmlns:xlink="http://www.w3.org/1999/xlink" version="1.1" width="512" height="512" viewBox="0 0 512 512">    <path fill="#ffffff" transform="scale(1, -1) translate(0, -448)" glyph-name="progress-alert" unicode="&#xFC98;" horiz-adv-x="512" d=" M277.3333333333333 405.3333333333333V362.6666666666667C370.9866666666667 351.1466666666667 437.3333333333333 266.0266666666667 425.8133333333334 172.3733333333333C416 94.72 354.9866666666667 33.4933333333333 277.3333333333333 23.8933333333334V-18.7733333333333C394.6666666666667 -5.9733333333332 478.9333333333333 99.4133333333334 466.1333333333333 216.5333333333334C455.04 315.9466666666667 376.7466666666667 394.6666666666667 277.3333333333333 405.3333333333333M234.6666666666667 405.3333333333333C192.8533333333333 401.4933333333334 153.3866666666667 385.0666666666667 120.96 358.4L151.4666666666667 325.5466666666667C175.36 344.7466666666667 204.16 357.12 234.6666666666667 361.3866666666667V404.0533333333334M90.88 327.04C64 294.6133333333334 47.7866666666667 255.1466666666667 43.7333333333333 213.3333333333334H86.4C90.4533333333333 243.6266666666667 102.4 272.4266666666667 121.3866666666667 296.5333333333334L90.88 327.04M43.9466666666667 170.6666666666667C48.2133333333333 128.8533333333334 64.64 89.3866666666667 91.0933333333333 56.96L121.3866666666667 87.4666666666667C102.6133333333333 111.5733333333334 90.4533333333333 140.3733333333334 86.6133333333333 170.6666666666668H43.9466666666667M150.6133333333333 56.1066666666667L120.96 26.8800000000001C153.1733333333333 0 192.8533333333333 -16.8533333333333 234.6666666666667 -21.3333333333333V21.3333333333334C204.3733333333333 25.1733333333333 175.5733333333333 37.3333333333334 151.4666666666667 56.1066666666667H150.6133333333333M277.3333333333333 170.6666666666667V298.6666666666667H234.6666666666667V170.6666666666667H277.3333333333333M277.3333333333333 85.3333333333334V128H234.6666666666667V85.3333333333334H277.3333333333333z" /></svg>