<?xml version="1.0" encoding="UTF-8"?><!DOCTYPE svg PUBLIC "-//W3C//DTD SVG 1.1//EN" "http://www.w3.org/Graphics/SVG/1.1/DTD/svg11.dtd"><svg xmlns="http://www.w3.org/2000/svg" xmlns:xlink="http://www.w3.org/1999/xlink" version="1.1" width="512" height="512" viewBox="0 0 512 512">    <path fill="#ffffff" transform="scale(1, -1) translate(0, -448)" glyph-name="source-fork" unicode="&#xF4C1;" horiz-adv-x="512" d=" M128 405.3333333333333C163.4133333333333 405.3333333333333 192 376.7466666666667 192 341.3333333333334C192 314.0266666666667 174.72 290.56 150.6133333333334 281.3866666666667C152.5333333333333 271.5733333333333 157.6533333333333 259.6266666666667 170.6666666666667 242.56C192 215.04 234.6666666666667 174.2933333333333 256 145.7066666666667C277.3333333333333 174.2933333333333 320 215.04 341.3333333333333 242.56C354.3466666666667 259.6266666666667 359.4666666666667 271.5733333333333 361.3866666666667 281.3866666666667C337.28 290.56 320 314.0266666666667 320 341.3333333333334C320 376.7466666666667 348.5866666666667 405.3333333333333 384 405.3333333333333S448 376.7466666666667 448 341.3333333333334C448 313.1733333333334 429.6533333333333 289.0666666666667 404.2666666666667 280.5333333333334C402.56 269.4400000000001 397.6533333333333 256 384 238.2933333333334C362.6666666666667 209.7066666666667 320 168.96 298.6666666666667 141.2266666666667C285.6533333333333 124.3733333333334 280.5333333333333 112.4266666666667 278.6133333333334 102.6133333333334C302.72 93.44 320 69.9733333333334 320 42.6666666666667C320 7.2533333333333 291.4133333333333 -21.3333333333333 256 -21.3333333333333S192 7.2533333333333 192 42.6666666666667C192 69.9733333333334 209.28 93.44 233.3866666666667 102.6133333333334C231.4666666666667 112.4266666666667 226.3466666666667 124.3733333333333 213.3333333333333 141.2266666666667C192 168.96 149.3333333333333 209.7066666666667 128 238.2933333333333C114.3466666666667 256 109.44 269.44 107.7333333333333 280.5333333333333C82.3466666666667 289.0666666666667 64 313.1733333333334 64 341.3333333333334C64 376.7466666666667 92.5866666666667 405.3333333333333 128 405.3333333333333M128 362.6666666666667C116.2666666666667 362.6666666666667 106.6666666666667 353.0666666666667 106.6666666666667 341.3333333333334S116.2666666666667 320 128 320S149.3333333333333 329.6 149.3333333333333 341.3333333333334S139.7333333333333 362.6666666666667 128 362.6666666666667M384 362.6666666666667C372.2666666666667 362.6666666666667 362.6666666666667 353.0666666666667 362.6666666666667 341.3333333333334S372.2666666666667 320 384 320S405.3333333333333 329.6 405.3333333333333 341.3333333333334S395.7333333333334 362.6666666666667 384 362.6666666666667M256 64C244.2666666666667 64 234.6666666666667 54.4 234.6666666666667 42.6666666666667S244.2666666666667 21.3333333333334 256 21.3333333333334S277.3333333333333 30.9333333333333 277.3333333333333 42.6666666666667S267.7333333333334 64 256 64z" /></svg>