<?xml version="1.0" encoding="UTF-8"?><!DOCTYPE svg PUBLIC "-//W3C//DTD SVG 1.1//EN" "http://www.w3.org/Graphics/SVG/1.1/DTD/svg11.dtd"><svg xmlns="http://www.w3.org/2000/svg" xmlns:xlink="http://www.w3.org/1999/xlink" version="1.1" width="512" height="512" viewBox="0 0 512 512">    <path fill="#ffffff" transform="scale(1, -1) translate(0, -448)" glyph-name="ambulance" unicode="&#xF02F;" horiz-adv-x="512" d=" M384 53.3333333333334C401.7066666666666 53.3333333333334 416 67.6266666666667 416 85.3333333333334S401.7066666666666 117.3333333333334 384 117.3333333333334S352 103.04 352 85.3333333333334S366.2933333333334 53.3333333333334 384 53.3333333333334M416 245.3333333333334H362.6666666666667V192H457.8133333333333L416 245.3333333333334M128 53.3333333333334C145.7066666666667 53.3333333333334 160 67.6266666666667 160 85.3333333333334S145.7066666666667 117.3333333333334 128 117.3333333333334S96 103.04 96 85.3333333333334S110.2933333333333 53.3333333333334 128 53.3333333333334M426.6666666666667 277.3333333333334L490.6666666666666 192V85.3333333333334H448C448 49.92 419.4133333333333 21.3333333333334 384 21.3333333333334S320 49.92 320 85.3333333333334H192C192 49.92 163.4133333333333 21.3333333333334 128 21.3333333333334S64 49.92 64 85.3333333333334H21.3333333333333V320C21.3333333333333 343.68 40.32 362.6666666666667 64 362.6666666666667H362.6666666666667V277.3333333333334H426.6666666666667M170.6666666666667 320V256H106.6666666666667V213.3333333333334H170.6666666666667V149.3333333333334H213.3333333333333V213.3333333333334H277.3333333333333V256H213.3333333333333V320H170.6666666666667z" /></svg>