<?xml version="1.0" encoding="UTF-8"?><!DOCTYPE svg PUBLIC "-//W3C//DTD SVG 1.1//EN" "http://www.w3.org/Graphics/SVG/1.1/DTD/svg11.dtd"><svg xmlns="http://www.w3.org/2000/svg" xmlns:xlink="http://www.w3.org/1999/xlink" version="1.1" width="512" height="512" viewBox="0 0 512 512">    <path fill="#ffffff" transform="scale(1, -1) translate(0, -448)" glyph-name="openid" unicode="&#xF3CD;" horiz-adv-x="512" d=" M298.6666666666667 405.3333333333333L234.6666666666667 373.3333333333334V22.6133333333333C149.3333333333333 32 85.3333333333333 75.52 85.3333333333333 128C85.3333333333333 176 138.6666666666667 216.5333333333334 213.3333333333333 229.9733333333334V273.2800000000001C103.68 258.5600000000001 21.3333333333333 199.2533333333333 21.3333333333333 128C21.3333333333333 52.0533333333334 114.3466666666667 -10.6666666666666 234.6666666666667 -20.0533333333333H236.5866666666667L298.6666666666667 10.6666666666667V405.3333333333333M320 273.28V229.9733333333334C344.5333333333333 225.4933333333333 366.5066666666667 218.24 385.28 208.64L352 192L490.6666666666666 160L480 256L437.3333333333333 234.6666666666667C405.3333333333333 253.4400000000001 365.2266666666667 267.3066666666667 320 273.2800000000001z" /></svg>