<?xml version="1.0" encoding="UTF-8"?><!DOCTYPE svg PUBLIC "-//W3C//DTD SVG 1.1//EN" "http://www.w3.org/Graphics/SVG/1.1/DTD/svg11.dtd"><svg xmlns="http://www.w3.org/2000/svg" xmlns:xlink="http://www.w3.org/1999/xlink" version="1.1" width="512" height="512" viewBox="0 0 512 512">    <path fill="#ffffff" transform="scale(1, -1) translate(0, -448)" glyph-name="format-color-fill" unicode="&#xF266;" horiz-adv-x="512" d=" M405.3333333333333 202.6666666666667S362.6666666666667 156.3733333333333 362.6666666666667 128C362.6666666666667 104.5333333333333 381.8666666666666 85.3333333333334 405.3333333333333 85.3333333333334S448 104.5333333333333 448 128C448 156.3733333333333 405.3333333333333 202.6666666666667 405.3333333333333 202.6666666666667M111.1466666666667 234.6666666666667L213.3333333333333 336.8533333333334L315.52 234.6666666666667M353.28 257.2800000000001L162.56 448L132.48 417.92L183.2533333333333 367.1466666666667L73.3866666666667 257.28C60.8 245.3333333333333 60.8 224.64 73.3866666666667 212.0533333333333L190.72 94.72C196.9066666666667 88.5333333333333 205.2266666666666 85.3333333333333 213.3333333333333 85.3333333333333S229.76 88.5333333333333 235.9466666666667 94.72L353.2800000000001 212.0533333333333C365.8666666666667 224.64 365.8666666666667 245.3333333333333 353.2800000000001 257.28z" /></svg>