<?xml version="1.0" encoding="UTF-8"?><!DOCTYPE svg PUBLIC "-//W3C//DTD SVG 1.1//EN" "http://www.w3.org/Graphics/SVG/1.1/DTD/svg11.dtd"><svg xmlns="http://www.w3.org/2000/svg" xmlns:xlink="http://www.w3.org/1999/xlink" version="1.1" width="512" height="512" viewBox="0 0 512 512">    <path fill="#ffffff" transform="scale(1, -1) translate(0, -448)" glyph-name="rounded-corner" unicode="&#xF607;" horiz-adv-x="512" d=" M405.3333333333333 42.6666666666667H448V0H405.3333333333333V42.6666666666667M405.3333333333333 85.3333333333334H448V128H405.3333333333333V85.3333333333334M64 170.6666666666667H106.6666666666667V213.3333333333334H64V170.6666666666667M64 85.3333333333334H106.6666666666667V128H64V85.3333333333334M64 256H106.6666666666667V298.6666666666667H64V256M64 341.3333333333334H106.6666666666667V384H64V341.3333333333334M149.3333333333333 341.3333333333334H192V384H149.3333333333333V341.3333333333334M320 0H362.6666666666667V42.6666666666667H320V0M234.6666666666667 0H277.3333333333333V42.6666666666667H234.6666666666667V0M320 0H362.6666666666667V42.6666666666667H320V0M149.3333333333333 0H192V42.6666666666667H149.3333333333333V0M64 0H106.6666666666667V42.6666666666667H64V0M448 277.3333333333334C448 336.2133333333334 400.2133333333333 384 341.3333333333333 384H234.6666666666667V341.3333333333334H341.3333333333333C376.7466666666667 341.3333333333334 405.3333333333333 312.7466666666667 405.3333333333333 277.3333333333334V170.6666666666667H448V277.3333333333334z" /></svg>