<?xml version="1.0" encoding="UTF-8"?><!DOCTYPE svg PUBLIC "-//W3C//DTD SVG 1.1//EN" "http://www.w3.org/Graphics/SVG/1.1/DTD/svg11.dtd"><svg xmlns="http://www.w3.org/2000/svg" xmlns:xlink="http://www.w3.org/1999/xlink" version="1.1" width="512" height="512" viewBox="0 0 512 512">    <path fill="#ffffff" transform="scale(1, -1) translate(0, -448)" glyph-name="currency-eur" unicode="&#xF1AD;" horiz-adv-x="512" d=" M150.8266666666667 213.3333333333334L149.3333333333333 192L150.8266666666667 170.6666666666667H370.1333333333334L352 128H163.6266666666667C187.7333333333334 77.6533333333334 239.1466666666667 42.6666666666667 298.6666666666667 42.6666666666667C346.24 42.6666666666667 388.6933333333333 64.8533333333334 416 99.6266666666667V40.1066666666667C384 14.9333333333333 342.8266666666667 0 298.6666666666667 0C215.04 0 144 53.3333333333334 117.3333333333333 128H42.6666666666667L64 170.6666666666667H107.7333333333333L106.6666666666667 192L107.7333333333333 213.3333333333334H42.6666666666667L64 256H117.3333333333333C144 330.6666666666667 215.04 384 298.6666666666667 384C352 384 401.0666666666667 361.8133333333334 435.84 326.1866666666667L417.4933333333334 282.6666666666667C390.1866666666666 318.2933333333334 347.0933333333333 341.3333333333334 298.6666666666667 341.3333333333334C239.1466666666667 341.3333333333334 187.7333333333334 306.3466666666667 163.6266666666667 256H406.1866666666666L388.0533333333333 213.3333333333334H150.8266666666667z" /></svg>