<?xml version="1.0" encoding="UTF-8"?><!DOCTYPE svg PUBLIC "-//W3C//DTD SVG 1.1//EN" "http://www.w3.org/Graphics/SVG/1.1/DTD/svg11.dtd"><svg xmlns="http://www.w3.org/2000/svg" xmlns:xlink="http://www.w3.org/1999/xlink" version="1.1" width="512" height="512" viewBox="0 0 512 512">    <path fill="#ffffff" transform="scale(1, -1) translate(0, -448)" glyph-name="doctor" unicode="&#xFA41;" horiz-adv-x="512" d=" M316.5866666666667 101.12C381.0133333333333 88.96 426.6666666666667 57.8133333333334 426.6666666666667 21.3333333333334V-21.3333333333333H85.3333333333333V21.3333333333334C85.3333333333333 57.8133333333334 130.9866666666667 88.96 195.4133333333333 101.1200000000001L256 0L316.5866666666667 101.1200000000001M170.6666666666667 277.3333333333334H341.3333333333333V234.6666666666667C341.3333333333333 187.52 303.1466666666667 149.3333333333334 256 149.3333333333334S170.6666666666667 187.52 170.6666666666667 234.6666666666667V277.3333333333334M170.6666666666667 298.6666666666667L179.4133333333333 386.1333333333334C180.48 397.0133333333333 189.6533333333333 405.3333333333333 200.7466666666667 405.3333333333333H311.4666666666667C322.3466666666667 405.3333333333333 331.52 397.0133333333333 332.5866666666667 386.1333333333334L341.3333333333333 298.6666666666667H170.6666666666667M256 384H234.6666666666667V362.6666666666667H213.3333333333333V341.3333333333334H234.6666666666667V320H256V341.3333333333334H277.3333333333333V362.6666666666667H256V384z" /></svg>