<?xml version="1.0" encoding="UTF-8"?><!DOCTYPE svg PUBLIC "-//W3C//DTD SVG 1.1//EN" "http://www.w3.org/Graphics/SVG/1.1/DTD/svg11.dtd"><svg xmlns="http://www.w3.org/2000/svg" xmlns:xlink="http://www.w3.org/1999/xlink" version="1.1" width="512" height="512" viewBox="0 0 512 512">    <path fill="#ffffff" transform="scale(1, -1) translate(0, -448)" glyph-name="settings-outline" unicode="&#xF8BA;" horiz-adv-x="512" d=" M256 277.3333333333334C303.1466666666667 277.3333333333334 341.3333333333333 239.1466666666667 341.3333333333333 192S303.1466666666667 106.6666666666667 256 106.6666666666667S170.6666666666667 144.8533333333334 170.6666666666667 192S208.8533333333333 277.3333333333334 256 277.3333333333334M256 234.6666666666667C232.5333333333334 234.6666666666667 213.3333333333333 215.4666666666667 213.3333333333333 192S232.5333333333334 149.3333333333334 256 149.3333333333334S298.6666666666667 168.5333333333334 298.6666666666667 192S279.4666666666667 234.6666666666667 256 234.6666666666667M213.3333333333333 -21.3333333333333C208 -21.3333333333333 203.52 -17.4933333333333 202.6666666666667 -12.3733333333333L194.7733333333334 44.16C181.3333333333333 49.4933333333333 169.8133333333333 56.7466666666667 158.72 65.28L105.6 43.7333333333333C100.9066666666667 42.0266666666666 95.1466666666667 43.7333333333333 92.5866666666667 48.4266666666666L49.92 122.24C47.1466666666667 126.9333333333333 48.4266666666667 132.6933333333333 52.48 135.8933333333333L97.4933333333333 171.3066666666666L96 192L97.4933333333333 213.3333333333334L52.48 248.1066666666667C48.4266666666667 251.3066666666667 47.1466666666667 257.0666666666667 49.92 261.76L92.5866666666667 335.5733333333333C95.1466666666667 340.2666666666667 100.9066666666667 342.1866666666667 105.6 340.2666666666667L158.72 318.9333333333334C169.8133333333333 327.2533333333334 181.3333333333333 334.5066666666667 194.7733333333334 339.8400000000001L202.6666666666667 396.3733333333334C203.52 401.4933333333334 208 405.3333333333333 213.3333333333333 405.3333333333333H298.6666666666667C304 405.3333333333333 308.48 401.4933333333334 309.3333333333333 396.3733333333334L317.2266666666667 339.8400000000001C330.6666666666667 334.5066666666667 342.1866666666666 327.2533333333334 353.28 318.9333333333334L406.3999999999999 340.2666666666667C411.0933333333333 342.1866666666667 416.8533333333333 340.2666666666667 419.4133333333333 335.5733333333333L462.0799999999999 261.76C464.8533333333332 257.0666666666667 463.5733333333333 251.3066666666667 459.5199999999999 248.1066666666667L414.5066666666667 213.3333333333334L416 192L414.5066666666667 170.6666666666667L459.52 135.8933333333334C463.5733333333333 132.6933333333334 464.8533333333333 126.9333333333334 462.08 122.24L419.4133333333333 48.4266666666667C416.8533333333333 43.7333333333334 411.0933333333333 41.8133333333334 406.4 43.7333333333334L353.2800000000001 65.0666666666667C342.1866666666667 56.7466666666667 330.6666666666667 49.4933333333333 317.2266666666667 44.16L309.3333333333334 -12.3733333333333C308.4800000000001 -17.4933333333332 304.0000000000001 -21.3333333333333 298.6666666666668 -21.3333333333333H213.3333333333334M240.0000000000001 362.6666666666667L232.1066666666668 306.9866666666667C206.5066666666668 301.6533333333334 183.8933333333334 288 167.4666666666668 269.0133333333334L116.0533333333334 291.2000000000001L100.0533333333333 263.4666666666667L145.0666666666667 230.4000000000001C136.5333333333333 205.44 136.5333333333333 178.3466666666667 145.0666666666667 153.6L99.84 120.3200000000001L115.84 92.5866666666667L167.68 114.7733333333333C184.1066666666666 96 206.5066666666667 82.3466666666667 231.8933333333333 77.2266666666666L239.7866666666667 21.3333333333333H272.2133333333333L280.1066666666666 77.0133333333333C305.4933333333333 82.3466666666666 327.8933333333333 95.9999999999999 344.32 114.7733333333333L396.1599999999999 92.5866666666666L412.1599999999999 120.3199999999999L366.9333333333332 153.3866666666667C375.4666666666666 178.3466666666666 375.4666666666666 205.44 366.9333333333332 230.4L411.9466666666666 263.4666666666667L395.9466666666666 291.2L344.5333333333332 269.0133333333333C328.1066666666666 288 305.4933333333333 301.6533333333333 279.8933333333332 306.7733333333333L272 362.6666666666667H240z" /></svg>