<?xml version="1.0" encoding="UTF-8"?><!DOCTYPE svg PUBLIC "-//W3C//DTD SVG 1.1//EN" "http://www.w3.org/Graphics/SVG/1.1/DTD/svg11.dtd"><svg xmlns="http://www.w3.org/2000/svg" xmlns:xlink="http://www.w3.org/1999/xlink" version="1.1" width="512" height="512" viewBox="0 0 512 512">    <path fill="#ffffff" transform="scale(1, -1) translate(0, -448)" glyph-name="lead-pencil" unicode="&#xF64F;" horiz-adv-x="512" d=" M359.2533333333334 389.76C350.9333333333333 389.76 342.8266666666667 386.56 336.4266666666666 380.3733333333334L291.2 335.1466666666667L404.2666666666667 221.8666666666667L449.4933333333334 266.6666666666667C462.2933333333334 279.68 462.2933333333334 299.9466666666667 449.4933333333334 312.3200000000001L381.8666666666666 380.3733333333334C375.4666666666666 386.56 367.36 389.76 359.2533333333334 389.76M276.0533333333333 320L103.2533333333333 146.9866666666667L157.8666666666667 141.0133333333334L161.7066666666667 92.16L210.3466666666666 88.5333333333333L216.5333333333333 33.92L389.3333333333333 206.9333333333333M90.6666666666667 127.1466666666667L53.3333333333333 -15.5733333333333L196.2666666666667 22.6133333333333L191.1466666666667 68.6933333333333L141.8666666666666 72.3200000000001L138.0266666666667 121.8133333333334" /></svg>