<?xml version="1.0" encoding="UTF-8"?><!DOCTYPE svg PUBLIC "-//W3C//DTD SVG 1.1//EN" "http://www.w3.org/Graphics/SVG/1.1/DTD/svg11.dtd"><svg xmlns="http://www.w3.org/2000/svg" xmlns:xlink="http://www.w3.org/1999/xlink" version="1.1" width="512" height="512" viewBox="0 0 512 512">    <path fill="#ffffff" transform="scale(1, -1) translate(0, -448)" glyph-name="content-duplicate" unicode="&#xF191;" horiz-adv-x="512" d=" M234.6666666666667 85.3333333333334H85.3333333333333C61.8666666666667 85.3333333333334 42.6666666666667 104.5333333333333 42.6666666666667 128V384C42.6666666666667 407.4666666666667 61.8666666666667 426.6666666666667 85.3333333333333 426.6666666666667H341.3333333333333V384H85.3333333333333V128H234.6666666666667V170.6666666666667L320 106.6666666666667L234.6666666666667 42.6666666666667V85.3333333333334M405.3333333333333 0V298.6666666666667H170.6666666666667V170.6666666666667H128V298.6666666666667C128 322.1333333333334 147.2 341.3333333333334 170.6666666666667 341.3333333333334H405.3333333333333C428.8 341.3333333333334 448 322.1333333333334 448 298.6666666666667V0C448 -23.4666666666667 428.8 -42.6666666666666 405.3333333333333 -42.6666666666666H170.6666666666667C147.2 -42.6666666666666 128 -23.4666666666667 128 0V42.6666666666667H170.6666666666667V0H405.3333333333333z" /></svg>