<?xml version="1.0" encoding="UTF-8"?><!DOCTYPE svg PUBLIC "-//W3C//DTD SVG 1.1//EN" "http://www.w3.org/Graphics/SVG/1.1/DTD/svg11.dtd"><svg xmlns="http://www.w3.org/2000/svg" xmlns:xlink="http://www.w3.org/1999/xlink" version="1.1" width="512" height="512" viewBox="0 0 512 512">    <path fill="#ffffff" transform="scale(1, -1) translate(0, -448)" glyph-name="label-off-outline" unicode="&#xFACB;" horiz-adv-x="512" d=" M42.6666666666667 356.9066666666667L69.9733333333333 384L426.6666666666667 27.3066666666667L399.5733333333333 0L354.7733333333333 44.8000000000001C350.5066666666667 43.5200000000001 346.0266666666667 42.6666666666667 341.3333333333333 42.6666666666667H106.6666666666667C83.2 42.6666666666667 64 61.8666666666667 64 85.3333333333334V298.6666666666667C64 309.3333333333334 67.6266666666667 318.5066666666667 73.8133333333333 325.76L42.6666666666667 356.9066666666667M106.6666666666667 85.3333333333334H314.24L106.6666666666667 292.9066666666667V85.3333333333334M417.0666666666667 192L341.3333333333333 298.6666666666667H209.4933333333334L167.04 341.3333333333334H341.3333333333333C355.6266666666667 341.3333333333334 368.4266666666666 334.2933333333334 376.1066666666667 323.4133333333334L469.3333333333333 192L405.3333333333333 102.4L375.2533333333334 133.12L417.0666666666667 192z" /></svg>