<?xml version="1.0" encoding="UTF-8"?><!DOCTYPE svg PUBLIC "-//W3C//DTD SVG 1.1//EN" "http://www.w3.org/Graphics/SVG/1.1/DTD/svg11.dtd"><svg xmlns="http://www.w3.org/2000/svg" xmlns:xlink="http://www.w3.org/1999/xlink" version="1.1" width="512" height="512" viewBox="0 0 512 512">    <path fill="#ffffff" transform="scale(1, -1) translate(0, -448)" glyph-name="controller-classic-outline" unicode="&#xFB5F;" horiz-adv-x="512" d=" M373.3333333333333 298.6666666666667C438.1866666666666 298.6666666666667 490.6666666666666 246.1866666666667 490.6666666666666 181.3333333333334S438.1866666666666 64 373.3333333333333 64C336.8533333333333 64 304.4266666666666 80.64 282.88 106.6666666666667H229.12C207.5733333333333 80.64 175.1466666666667 64 138.6666666666667 64C73.8133333333333 64 21.3333333333333 116.48 21.3333333333333 181.3333333333334S73.8133333333333 298.6666666666667 138.6666666666667 298.6666666666667H373.3333333333333M138.6666666666667 256C97.4933333333333 256 64 222.5066666666667 64 181.3333333333334S97.4933333333333 106.6666666666667 138.6666666666667 106.6666666666667C168.5333333333333 106.6666666666667 194.1333333333333 124.16 206.08 149.3333333333334H305.92C317.8666666666667 124.16 343.4666666666667 106.6666666666667 373.3333333333333 106.6666666666667C414.5066666666667 106.6666666666667 448 140.16 448 181.3333333333334S414.5066666666667 256 373.3333333333333 256H138.6666666666667M122.6666666666667 229.3333333333334H154.6666666666667V197.3333333333334H186.6666666666667V165.3333333333334H154.6666666666667V133.3333333333334H122.6666666666667V165.3333333333334H90.6666666666667V197.3333333333334H122.6666666666667V229.3333333333334M357.3333333333333 181.3333333333334C369.0666666666667 181.3333333333334 378.6666666666667 171.7333333333334 378.6666666666667 160S369.0666666666667 138.6666666666667 357.3333333333333 138.6666666666667S336 148.2666666666667 336 160S345.6 181.3333333333334 357.3333333333333 181.3333333333334M400 224C411.7333333333334 224 421.3333333333333 214.4 421.3333333333333 202.6666666666667S411.7333333333334 181.3333333333334 400 181.3333333333334S378.6666666666667 190.9333333333333 378.6666666666667 202.6666666666667S388.2666666666667 224 400 224z" /></svg>