<?xml version="1.0" encoding="UTF-8"?><!DOCTYPE svg PUBLIC "-//W3C//DTD SVG 1.1//EN" "http://www.w3.org/Graphics/SVG/1.1/DTD/svg11.dtd"><svg xmlns="http://www.w3.org/2000/svg" xmlns:xlink="http://www.w3.org/1999/xlink" version="1.1" width="512" height="512" viewBox="0 0 512 512">    <path fill="#ffffff" transform="scale(1, -1) translate(0, -448)" glyph-name="numeric-6-box-multiple-outline" unicode="&#xF3B4;" horiz-adv-x="512" d=" M277.3333333333333 213.3333333333334H320V170.6666666666667H277.3333333333333M277.3333333333333 128H320C343.4666666666667 128 362.6666666666667 147.2000000000001 362.6666666666667 170.6666666666667V213.3333333333334C362.6666666666667 237.0133333333333 343.4666666666667 256 320 256H277.3333333333333V298.6666666666667H362.6666666666667V341.3333333333334H277.3333333333333C253.8666666666667 341.3333333333334 234.6666666666667 322.1333333333334 234.6666666666667 298.6666666666667V170.6666666666667C234.6666666666667 146.9866666666667 253.8666666666667 128 277.3333333333333 128M448 85.3333333333334H149.3333333333333V384H448M448 426.6666666666667H149.3333333333333C125.8666666666667 426.6666666666667 106.6666666666667 407.4666666666667 106.6666666666667 384V85.3333333333334C106.6666666666667 61.8666666666667 125.8666666666667 42.6666666666667 149.3333333333333 42.6666666666667H448C471.4666666666667 42.6666666666667 490.6666666666666 61.8666666666667 490.6666666666666 85.3333333333334V384C490.6666666666666 407.4666666666667 471.4666666666667 426.6666666666667 448 426.6666666666667M64 341.3333333333334H21.3333333333333V0C21.3333333333333 -23.4666666666667 40.5333333333333 -42.6666666666666 64 -42.6666666666666H405.3333333333333V0H64V341.3333333333334z" /></svg>