<?xml version="1.0" encoding="UTF-8"?><!DOCTYPE svg PUBLIC "-//W3C//DTD SVG 1.1//EN" "http://www.w3.org/Graphics/SVG/1.1/DTD/svg11.dtd"><svg xmlns="http://www.w3.org/2000/svg" xmlns:xlink="http://www.w3.org/1999/xlink" version="1.1" width="512" height="512" viewBox="0 0 512 512">    <path fill="#ffffff" transform="scale(1, -1) translate(0, -448)" glyph-name="mouse-bluetooth" unicode="&#xF98A;" horiz-adv-x="512" d=" M426.6666666666667 298.6666666666667H437.3333333333333L498.1333333333333 237.8666666666667L452.48 192L498.1333333333333 146.3466666666667L437.3333333333333 85.3333333333334H426.6666666666667V166.1866666666667L377.8133333333334 117.3333333333334L362.6666666666667 132.48L422.1866666666666 192L362.6666666666667 251.52L377.8133333333334 266.6666666666667L426.6666666666667 217.8133333333334V298.6666666666667M448 257.92V217.8133333333334L468.0533333333333 237.8666666666667L448 257.92M448 166.1866666666667V126.2933333333333L468.0533333333333 146.3466666666666L448 166.1866666666666M320 256V234.6666666666667H192V403.8400000000001C264.32 393.3866666666667 320 331.3066666666667 320 256M21.3333333333333 234.6666666666667V256C21.3333333333333 331.3066666666667 77.0133333333333 393.3866666666667 149.3333333333333 403.84V234.6666666666667H21.3333333333333M320 128C320 45.44 253.2266666666667 -21.3333333333333 170.6666666666667 -21.3333333333333S21.3333333333333 45.44 21.3333333333333 128V192H320V128z" /></svg>