<?xml version="1.0" encoding="UTF-8"?><!DOCTYPE svg PUBLIC "-//W3C//DTD SVG 1.1//EN" "http://www.w3.org/Graphics/SVG/1.1/DTD/svg11.dtd"><svg xmlns="http://www.w3.org/2000/svg" xmlns:xlink="http://www.w3.org/1999/xlink" version="1.1" width="512" height="512" viewBox="0 0 512 512">    <path fill="#ffffff" transform="scale(1, -1) translate(0, -448)" glyph-name="account-plus-outline" unicode="&#xF800;" horiz-adv-x="512" d=" M320 362.6666666666667C272.8533333333333 362.6666666666667 234.6666666666667 324.48 234.6666666666667 277.3333333333334S272.8533333333333 192 320 192S405.3333333333333 230.1866666666667 405.3333333333333 277.3333333333334S367.1466666666667 362.6666666666667 320 362.6666666666667M320 322.1333333333334C344.7466666666667 322.1333333333334 364.8 302.0800000000001 364.8 277.3333333333334C364.8 252.5866666666667 344.7466666666667 232.5333333333334 320 232.5333333333334C295.2533333333334 232.5333333333334 275.2000000000001 252.5866666666667 275.2000000000001 277.3333333333334C275.2000000000001 302.0800000000001 295.2533333333334 322.1333333333334 320 322.1333333333334M85.3333333333333 298.6666666666667V234.6666666666667H21.3333333333333V192H85.3333333333333V128H128V192H192V234.6666666666667H128V298.6666666666667H85.3333333333333M320 170.6666666666667C263.04 170.6666666666667 149.3333333333333 142.2933333333334 149.3333333333333 85.3333333333334V21.3333333333334H490.6666666666666V85.3333333333334C490.6666666666666 142.2933333333334 376.9600000000001 170.6666666666667 320 170.6666666666667M320 130.1333333333333C383.36 130.1333333333333 450.1333333333334 98.9866666666667 450.1333333333334 85.3333333333334V61.8666666666667H189.8666666666667V85.3333333333334C189.8666666666667 98.9866666666667 256 130.1333333333333 320 130.1333333333333z" /></svg>