<?xml version="1.0" encoding="UTF-8"?><!DOCTYPE svg PUBLIC "-//W3C//DTD SVG 1.1//EN" "http://www.w3.org/Graphics/SVG/1.1/DTD/svg11.dtd"><svg xmlns="http://www.w3.org/2000/svg" xmlns:xlink="http://www.w3.org/1999/xlink" version="1.1" width="512" height="512" viewBox="0 0 512 512">    <path fill="#ffffff" transform="scale(1, -1) translate(0, -448)" glyph-name="speedometer" unicode="&#xF4C5;" horiz-adv-x="512" d=" M256 106.6666666666667C220.5866666666667 106.6666666666667 192 135.2533333333333 192 170.6666666666667C192 194.56 205.0133333333333 215.4666666666667 224 226.3466666666667L431.1466666666667 346.24L313.1733333333333 141.8666666666667C302.5066666666667 120.96 280.96 106.6666666666667 256 106.6666666666667M256 384C294.6133333333334 384 330.6666666666667 373.3333333333334 362.0266666666667 355.8400000000001L317.2266666666667 330.0266666666667C298.6666666666667 337.28 277.3333333333333 341.3333333333334 256 341.3333333333334C161.7066666666667 341.3333333333334 85.3333333333333 264.9600000000001 85.3333333333333 170.6666666666667C85.3333333333333 123.52 104.32 80.8533333333334 135.2533333333333 50.1333333333334H135.4666666666667C143.7866666666666 41.8133333333334 143.7866666666666 28.3733333333334 135.4666666666667 20.0533333333334C127.1466666666667 11.7333333333333 113.4933333333333 11.7333333333333 105.1733333333333 19.84C66.56 58.4533333333333 42.6666666666667 111.7866666666667 42.6666666666667 170.6666666666667C42.6666666666667 288.4266666666667 138.24 384 256 384M469.3333333333333 170.6666666666667C469.3333333333333 111.7866666666667 445.44 58.4533333333334 406.8266666666667 19.84C398.5066666666667 11.7333333333333 385.0666666666667 11.7333333333333 376.7466666666667 20.0533333333334C368.4266666666666 28.3733333333334 368.4266666666666 41.8133333333334 376.7466666666667 50.1333333333334C407.68 81.0666666666667 426.6666666666667 123.52 426.6666666666667 170.6666666666667C426.6666666666667 192 422.6133333333333 213.3333333333334 415.1466666666667 232.5333333333334L440.9600000000001 277.3333333333334C458.6666666666666 245.3333333333334 469.3333333333333 209.4933333333334 469.3333333333333 170.6666666666667z" /></svg>