<?xml version="1.0" encoding="UTF-8"?><!DOCTYPE svg PUBLIC "-//W3C//DTD SVG 1.1//EN" "http://www.w3.org/Graphics/SVG/1.1/DTD/svg11.dtd"><svg xmlns="http://www.w3.org/2000/svg" xmlns:xlink="http://www.w3.org/1999/xlink" version="1.1" width="512" height="512" viewBox="0 0 512 512">    <path fill="#ffffff" transform="scale(1, -1) translate(0, -448)" glyph-name="puzzle-outline" unicode="&#xFA65;" horiz-adv-x="512" d=" M469.3333333333333 160C469.3333333333333 122.4533333333334 441.6 91.3066666666667 405.3333333333333 86.1866666666667V21.3333333333334C405.3333333333333 -2.1333333333333 386.1333333333334 -21.3333333333333 362.6666666666667 -21.3333333333333H281.6V-14.9333333333333C281.6 16.8533333333334 255.7866666666667 42.6666666666667 224 42.6666666666667C192 42.6666666666667 166.4 16.8533333333334 166.4 -14.9333333333333V-21.3333333333333H85.3333333333333C61.8666666666667 -21.3333333333333 42.6666666666667 -2.1333333333333 42.6666666666667 21.3333333333334V102.4H49.0666666666667C80.8533333333333 102.4 106.6666666666667 128 106.6666666666667 160C106.6666666666667 192 80.8533333333333 217.6 49.0666666666667 217.6H42.6666666666667V298.6666666666667C42.6666666666667 322.1333333333334 61.8666666666667 341.3333333333334 85.3333333333333 341.3333333333334H150.1866666666667C155.3066666666667 377.6 186.4533333333333 405.3333333333333 224 405.3333333333333S292.6933333333334 377.6 297.8133333333334 341.3333333333334H362.6666666666667C386.1333333333334 341.3333333333334 405.3333333333333 322.1333333333334 405.3333333333333 298.6666666666667V233.8133333333334C441.6 228.6933333333334 469.3333333333333 197.5466666666667 469.3333333333333 160M362.6666666666667 128H394.6666666666667C412.3733333333333 128 426.6666666666667 142.2933333333334 426.6666666666667 160S412.3733333333333 192 394.6666666666667 192H362.6666666666667V298.6666666666667H256V330.6666666666667C256 348.3733333333334 241.7066666666667 362.6666666666667 224 362.6666666666667S192 348.3733333333334 192 330.6666666666667V298.6666666666667H85.3333333333333V253.44C122.88 238.9333333333334 149.3333333333333 202.6666666666667 149.3333333333333 160S122.6666666666667 81.0666666666667 85.3333333333333 66.5600000000001V21.3333333333334H130.56C145.0666666666667 58.6666666666667 181.3333333333333 85.3333333333334 224 85.3333333333334S302.9333333333333 58.6666666666667 317.44 21.3333333333334H362.6666666666667V128z" /></svg>