<?xml version="1.0" encoding="UTF-8"?><!DOCTYPE svg PUBLIC "-//W3C//DTD SVG 1.1//EN" "http://www.w3.org/Graphics/SVG/1.1/DTD/svg11.dtd"><svg xmlns="http://www.w3.org/2000/svg" xmlns:xlink="http://www.w3.org/1999/xlink" version="1.1" width="512" height="512" viewBox="0 0 512 512">    <path fill="#ffffff" transform="scale(1, -1) translate(0, -448)" glyph-name="cactus" unicode="&#xFD91;" horiz-adv-x="512" d=" M298.6666666666667 106.6666666666667V0H213.3333333333333V64H192C156.5866666666667 64 128 92.5866666666667 128 128V192C128 203.7333333333334 137.6 213.3333333333334 149.3333333333333 213.3333333333334S170.6666666666667 203.7333333333334 170.6666666666667 192V128C170.6666666666667 116.0533333333334 180.2666666666667 106.6666666666667 192 106.6666666666667H213.3333333333333V320C213.3333333333333 343.4666666666667 232.5333333333334 362.6666666666667 256 362.6666666666667S298.6666666666667 343.4666666666667 298.6666666666667 320V149.3333333333334H320C331.7333333333334 149.3333333333334 341.3333333333333 158.9333333333333 341.3333333333333 170.6666666666667V213.3333333333334C341.3333333333333 225.0666666666667 350.9333333333333 234.6666666666667 362.6666666666667 234.6666666666667S384 225.0666666666667 384 213.3333333333334V170.6666666666667C384 135.2533333333333 355.4133333333333 106.6666666666667 320 106.6666666666667H298.6666666666667z" /></svg>