<?xml version="1.0" encoding="UTF-8"?><!DOCTYPE svg PUBLIC "-//W3C//DTD SVG 1.1//EN" "http://www.w3.org/Graphics/SVG/1.1/DTD/svg11.dtd"><svg xmlns="http://www.w3.org/2000/svg" xmlns:xlink="http://www.w3.org/1999/xlink" version="1.1" width="512" height="512" viewBox="0 0 512 512">    <path fill="#ffffff" transform="scale(1, -1) translate(0, -448)" glyph-name="thermometer-lines" unicode="&#xF510;" horiz-adv-x="512" d=" M362.6666666666667 384H448V341.3333333333334H362.6666666666667V384M362.6666666666667 298.6666666666667H448V256H362.6666666666667V298.6666666666667M362.6666666666667 213.3333333333334H448V170.6666666666667H378.6666666666667L362.6666666666667 189.8666666666667V213.3333333333334M448 128V85.3333333333334H405.3333333333333C405.3333333333333 100.0533333333334 403.2 114.5600000000001 399.1466666666667 128H448M362.6666666666667 85.3333333333334C362.6666666666667 26.4533333333334 314.88 -21.3333333333333 256 -21.3333333333333S149.3333333333333 26.4533333333334 149.3333333333333 85.3333333333334C149.3333333333333 120.3200000000001 166.1866666666667 151.2533333333333 192 170.6666666666667V341.3333333333334C192 376.7466666666667 220.5866666666667 405.3333333333333 256 405.3333333333333S320 376.7466666666667 320 341.3333333333334V170.6666666666667C345.8133333333334 151.2533333333333 362.6666666666667 120.3200000000001 362.6666666666667 85.3333333333334M234.6666666666667 277.3333333333334V145.7066666666667C209.7066666666667 136.96 192 113.28 192 85.3333333333334C192 49.92 220.5866666666667 21.3333333333334 256 21.3333333333334S320 49.92 320 85.3333333333334C320 113.28 302.2933333333333 136.96 277.3333333333333 145.7066666666667V277.3333333333334H234.6666666666667M149.3333333333333 384V341.3333333333334H64V384H149.3333333333333M149.3333333333333 298.6666666666667V256H64V298.6666666666667H149.3333333333333M149.3333333333333 213.3333333333334V189.8666666666667L133.3333333333333 170.6666666666667H64V213.3333333333334H149.3333333333333M64 128H112.8533333333333C108.8 114.56 106.6666666666667 100.0533333333334 106.6666666666667 85.3333333333334H64V128z" /></svg>