<?xml version="1.0" encoding="UTF-8"?><!DOCTYPE svg PUBLIC "-//W3C//DTD SVG 1.1//EN" "http://www.w3.org/Graphics/SVG/1.1/DTD/svg11.dtd"><svg xmlns="http://www.w3.org/2000/svg" xmlns:xlink="http://www.w3.org/1999/xlink" version="1.1" width="512" height="512" viewBox="0 0 512 512">    <path fill="#ffffff" transform="scale(1, -1) translate(0, -448)" glyph-name="account-alert-outline" unicode="&#xFB2C;" horiz-adv-x="512" d=" M426.6666666666667 192V298.6666666666667H469.3333333333333V192H426.6666666666667M426.6666666666667 106.6666666666667V149.3333333333334H469.3333333333333V106.6666666666667H426.6666666666667M213.3333333333333 170.6666666666667C270.2933333333333 170.6666666666667 384 142.0800000000001 384 85.3333333333334V21.3333333333334H42.6666666666667V85.3333333333334C42.6666666666667 142.0800000000001 156.3733333333333 170.6666666666667 213.3333333333333 170.6666666666667M213.3333333333333 362.6666666666667C260.48 362.6666666666667 298.6666666666667 324.48 298.6666666666667 277.3333333333334S260.48 192 213.3333333333333 192S128 230.1866666666667 128 277.3333333333334S166.1866666666667 362.6666666666667 213.3333333333333 362.6666666666667M213.3333333333333 130.1333333333333C149.9733333333333 130.1333333333333 83.2 98.9866666666667 83.2 85.3333333333334V61.8666666666667H343.4666666666667V85.3333333333334C343.4666666666667 98.9866666666667 276.6933333333334 130.1333333333333 213.3333333333334 130.1333333333333M213.3333333333334 322.1333333333334C188.5866666666667 322.1333333333334 168.5333333333334 302.0800000000001 168.5333333333334 277.3333333333334C168.5333333333334 252.5866666666667 188.5866666666667 232.5333333333334 213.3333333333334 232.5333333333334C238.0800000000001 232.5333333333334 258.1333333333334 252.5866666666667 258.1333333333334 277.3333333333334C258.1333333333334 302.0800000000001 238.0800000000001 322.1333333333334 213.3333333333334 322.1333333333334z" /></svg>