<?xml version="1.0" encoding="UTF-8"?><!DOCTYPE svg PUBLIC "-//W3C//DTD SVG 1.1//EN" "http://www.w3.org/Graphics/SVG/1.1/DTD/svg11.dtd"><svg xmlns="http://www.w3.org/2000/svg" xmlns:xlink="http://www.w3.org/1999/xlink" version="1.1" width="512" height="512" viewBox="0 0 512 512">    <path fill="#ffffff" transform="scale(1, -1) translate(0, -448)" glyph-name="content-save-edit-outline" unicode="&#xFCD8;" horiz-adv-x="512" d=" M427.52 189.2266666666667C424.5333333333333 189.2266666666667 421.5466666666666 187.9466666666667 419.2 185.6L397.8666666666666 164.2666666666667L441.6 120.5333333333333L462.9333333333333 141.8666666666667C467.6266666666666 146.3466666666667 467.6266666666666 153.8133333333333 462.9333333333333 158.2933333333333L435.6266666666666 185.6C433.28 187.9466666666666 430.5066666666667 189.2266666666666 427.52 189.2266666666666M385.4933333333334 151.8933333333333L256 22.6133333333333V-21.3333333333333H299.9466666666667L429.2266666666667 108.16L385.4933333333334 151.8933333333334M213.3333333333333 42.6666666666667L234.6666666666667 64C211.2 64 192 83.2 192 106.6666666666667S211.2 149.3333333333334 234.6666666666667 149.3333333333334S277.3333333333333 130.1333333333333 277.3333333333333 106.6666666666667L312.32 141.6533333333334C298.6666666666667 171.3066666666667 269.2266666666667 192 234.6666666666667 192C187.52 192 149.3333333333333 153.8133333333334 149.3333333333333 106.6666666666667C149.3333333333333 81.28 160 58.24 178.1333333333333 42.6666666666667H85.3333333333333V256H298.6666666666667V341.3333333333334H323.6266666666667L384 280.9600000000001V213.3333333333334L426.6666666666667 256V298.6666666666667L341.3333333333333 384H85.3333333333333C61.8666666666667 384 42.6666666666667 364.8 42.6666666666667 341.3333333333334V42.6666666666667C42.6666666666667 19.2 61.8666666666667 0 85.3333333333333 0H213.3333333333333V42.6666666666667M85.3333333333333 341.3333333333334H256V298.6666666666667H85.3333333333333V341.3333333333334z" /></svg>