<?xml version="1.0" encoding="UTF-8"?><!DOCTYPE svg PUBLIC "-//W3C//DTD SVG 1.1//EN" "http://www.w3.org/Graphics/SVG/1.1/DTD/svg11.dtd"><svg xmlns="http://www.w3.org/2000/svg" xmlns:xlink="http://www.w3.org/1999/xlink" version="1.1" width="512" height="512" viewBox="0 0 512 512">    <path fill="#ffffff" transform="scale(1, -1) translate(0, -448)" glyph-name="mastodon" unicode="&#xFAD0;" horiz-adv-x="512" d=" M446.7200000000001 149.3333333333334C440.7466666666667 119.2533333333333 394.6666666666667 86.1866666666667 340.6933333333334 79.7866666666668C312.7466666666667 76.5866666666668 285.2266666666667 73.3866666666667 256 74.6666666666667C208 77.0133333333334 170.6666666666667 86.1866666666667 170.6666666666667 86.1866666666667V72.96C177.4933333333334 25.6000000000001 218.0266666666667 22.8266666666667 256.64 21.3333333333334C295.4666666666667 20.2666666666667 330.0266666666667 31.1466666666667 330.0266666666667 31.1466666666667L331.7333333333334 -4.0533333333333S304.4266666666667 -18.5599999999999 256 -21.3333333333333C229.3333333333333 -22.8266666666666 196.0533333333333 -20.6933333333332 157.44 -10.6666666666666C73.8133333333333 11.7333333333335 59.3066666666667 101.1200000000001 57.1733333333333 192.0000000000001L56.96 265.1733333333334C56.96 357.7600000000001 117.3333333333333 384.8533333333334 117.3333333333333 384.8533333333334C148.2666666666667 398.9333333333334 200.7466666666667 405.3333333333333 255.36 405.3333333333333H256.64C311.2533333333334 405.3333333333333 363.7333333333334 398.9333333333334 394.6666666666667 384.8533333333334C394.6666666666667 384.8533333333334 455.04 357.76 455.04 265.1733333333334C455.04 265.1733333333334 455.8933333333333 196.6933333333333 446.7199999999999 149.3333333333334M384 257.92C384 280.9600000000001 377.6 298.6666666666667 365.8666666666666 312.5333333333334C353.92 325.9733333333334 338.1333333333333 333.0133333333333 318.2933333333333 333.0133333333333C295.68 333.0133333333333 278.3999999999999 324.2666666666667 266.6666666666667 306.7733333333334L256 288L245.3333333333333 306.7733333333334C233.3866666666666 324.2666666666667 216.32 333.0133333333334 193.4933333333333 333.0133333333334C173.8666666666666 333.0133333333334 158.08 325.9733333333334 145.92 312.5333333333334C134.1866666666667 298.6666666666667 128 280.9600000000001 128 257.92V145.7066666666667H172.8V254.72C172.8 277.3333333333334 182.4 289.28 201.8133333333333 289.28C223.1466666666667 289.28 233.8133333333333 275.4133333333334 233.8133333333333 248.1066666666667V188.5866666666667H277.9733333333333V248.1066666666667C277.9733333333333 275.4133333333334 288.64 289.2800000000001 310.1866666666666 289.2800000000001C329.3866666666667 289.2800000000001 338.9866666666666 277.3333333333334 338.9866666666666 254.7200000000001V145.7066666666667H384V257.92z" /></svg>