<?xml version="1.0" encoding="UTF-8"?><!DOCTYPE svg PUBLIC "-//W3C//DTD SVG 1.1//EN" "http://www.w3.org/Graphics/SVG/1.1/DTD/svg11.dtd"><svg xmlns="http://www.w3.org/2000/svg" xmlns:xlink="http://www.w3.org/1999/xlink" version="1.1" width="512" height="512" viewBox="0 0 512 512">    <path fill="#ffffff" transform="scale(1, -1) translate(0, -448)" glyph-name="rollerblade" unicode="&#xFD08;" horiz-adv-x="512" d=" M405.3333333333333 128S405.3333333333333 106.6666666666667 362.6666666666667 106.6666666666667H85.3333333333333V384H234.6666666666667L239.1466666666667 352H197.12V320H243.84L248.32 288H197.12V256H253.0133333333333L256 234.6666666666667H298.6666666666667S405.3333333333333 234.6666666666667 405.3333333333333 128M117.3333333333333 85.3333333333334C87.8933333333333 85.3333333333334 64 61.44 64 32S87.8933333333333 -21.3333333333333 117.3333333333333 -21.3333333333333S170.6666666666667 2.5600000000001 170.6666666666667 32S146.7733333333333 85.3333333333334 117.3333333333333 85.3333333333334M373.3333333333333 85.3333333333334C343.8933333333333 85.3333333333334 320 61.44 320 32S343.8933333333333 -21.3333333333333 373.3333333333333 -21.3333333333333S426.6666666666667 2.5600000000001 426.6666666666667 32S402.7733333333333 85.3333333333334 373.3333333333333 85.3333333333334M245.3333333333333 85.3333333333334C215.8933333333333 85.3333333333334 192 61.44 192 32S215.8933333333334 -21.3333333333333 245.3333333333333 -21.3333333333333S298.6666666666667 2.5600000000001 298.6666666666667 32S274.7733333333333 85.3333333333334 245.3333333333333 85.3333333333334z" /></svg>