<?xml version="1.0" encoding="UTF-8"?><!DOCTYPE svg PUBLIC "-//W3C//DTD SVG 1.1//EN" "http://www.w3.org/Graphics/SVG/1.1/DTD/svg11.dtd"><svg xmlns="http://www.w3.org/2000/svg" xmlns:xlink="http://www.w3.org/1999/xlink" version="1.1" width="512" height="512" viewBox="0 0 512 512">    <path fill="#ffffff" transform="scale(1, -1) translate(0, -448)" glyph-name="emoticon-kiss" unicode="&#xFC4E;" horiz-adv-x="512" d=" M403.2 43.9466666666667L340.0533333333333 106.6666666666667C336.2133333333333 111.1466666666667 331.7333333333333 117.3333333333334 331.7333333333333 126.9333333333333C331.7333333333333 142.2933333333334 344.1066666666667 154.6666666666667 359.4666666666666 154.6666666666667C366.7199999999999 154.6666666666667 373.9733333333333 151.68 379.0933333333333 146.1333333333333L403.4133333333333 122.4533333333334L427.3066666666667 146.5600000000001C432.4266666666666 151.6800000000001 439.68 154.6666666666668 446.9333333333334 154.6666666666668C462.2933333333334 154.6666666666668 474.6666666666667 142.2933333333334 474.6666666666667 126.9333333333334C474.6666666666667 119.6800000000001 471.6800000000001 112.4266666666667 466.5600000000001 107.3066666666667L403.2000000000001 43.9466666666667M372.4800000000001 29.4400000000001C335.36 -2.1333333333333 287.36 -21.3333333333333 234.6666666666667 -21.3333333333333C116.9066666666667 -21.3333333333333 21.3333333333333 74.24 21.3333333333333 192S116.9066666666667 405.3333333333333 234.6666666666667 405.3333333333333S448 309.76 448 192C448 190.0800000000001 448 188.3733333333333 446.9333333333333 186.6666666666667C431.1466666666667 186.6666666666667 416 180.2666666666667 404.6933333333333 169.1733333333334L403.2 167.68L401.92 168.7466666666667C390.8266666666667 180.2666666666667 375.4666666666667 186.6666666666667 359.4666666666667 186.6666666666667C326.4 186.6666666666667 299.7333333333334 160 299.7333333333334 126.9333333333333C299.7333333333334 111.36 305.92 96 317.2266666666667 84.6933333333333L372.48 29.44M277.3333333333333 245.3333333333334C277.3333333333333 228.2666666666667 292.2666666666667 213.3333333333334 309.3333333333333 213.3333333333334S341.3333333333333 228.2666666666667 341.3333333333333 245.3333333333334S326.4 277.3333333333334 309.3333333333333 277.3333333333334S277.3333333333333 262.4000000000001 277.3333333333333 245.3333333333334M192 245.3333333333334C192 262.4000000000001 177.0666666666667 277.3333333333334 160 277.3333333333334S128 262.4000000000001 128 245.3333333333334S142.9333333333333 213.3333333333334 160 213.3333333333334S192 228.2666666666667 192 245.3333333333334M276.0533333333333 124.16L298.6666666666667 146.7733333333334L253.44 192L230.8266666666667 169.3866666666667L253.44 146.7733333333333L230.8266666666667 124.16L253.44 101.5466666666666L230.8266666666667 78.9333333333333L253.44 56.3200000000001L298.6666666666667 101.5466666666667L276.0533333333333 124.1600000000001z" /></svg>