<?xml version="1.0" encoding="UTF-8"?><!DOCTYPE svg PUBLIC "-//W3C//DTD SVG 1.1//EN" "http://www.w3.org/Graphics/SVG/1.1/DTD/svg11.dtd"><svg xmlns="http://www.w3.org/2000/svg" xmlns:xlink="http://www.w3.org/1999/xlink" version="1.1" width="512" height="512" viewBox="0 0 512 512">    <path fill="#ffffff" transform="scale(1, -1) translate(0, -448)" glyph-name="television-guide" unicode="&#xF503;" horiz-adv-x="512" d=" M448 85.3333333333334V341.3333333333334H64V85.3333333333334H448M448 384C471.4666666666667 384 490.6666666666666 364.8 490.6666666666666 341.3333333333334V85.3333333333334C490.6666666666666 61.8666666666667 471.4666666666667 42.6666666666667 448 42.6666666666667H341.3333333333333V0H170.6666666666667V42.6666666666667H64C40.5333333333333 42.6666666666667 21.3333333333333 61.8666666666667 21.3333333333333 85.3333333333334V341.3333333333334C21.3333333333333 364.8 40.5333333333333 384 64 384H448M106.6666666666667 298.6666666666667H234.6666666666667V213.3333333333334H106.6666666666667V298.6666666666667M106.6666666666667 170.6666666666667H234.6666666666667V128H106.6666666666667V170.6666666666667M277.3333333333333 298.6666666666667H405.3333333333333V256H277.3333333333333V298.6666666666667M277.3333333333333 213.3333333333334H405.3333333333333V128H277.3333333333333V213.3333333333334z" /></svg>