<?xml version="1.0" encoding="UTF-8"?><!DOCTYPE svg PUBLIC "-//W3C//DTD SVG 1.1//EN" "http://www.w3.org/Graphics/SVG/1.1/DTD/svg11.dtd"><svg xmlns="http://www.w3.org/2000/svg" xmlns:xlink="http://www.w3.org/1999/xlink" version="1.1" width="512" height="512" viewBox="0 0 512 512">    <path fill="#ffffff" transform="scale(1, -1) translate(0, -448)" glyph-name="surround-sound" unicode="&#xF5C5;" horiz-adv-x="512" d=" M426.6666666666667 362.6666666666667H85.3333333333333C61.8666666666667 362.6666666666667 42.6666666666667 343.4666666666667 42.6666666666667 320V64C42.6666666666667 40.5333333333333 61.8666666666667 21.3333333333334 85.3333333333333 21.3333333333334H426.6666666666667C450.1333333333334 21.3333333333334 469.3333333333333 40.5333333333333 469.3333333333333 64V320C469.3333333333333 343.4666666666667 450.1333333333334 362.6666666666667 426.6666666666667 362.6666666666667M165.5466666666667 101.5466666666667L135.4666666666667 71.4666666666667C101.9733333333333 104.5333333333333 85.3333333333333 148.2666666666667 85.3333333333333 192C85.3333333333333 235.7333333333334 101.9733333333333 279.4666666666667 135.2533333333333 312.7466666666667L165.3333333333333 282.6666666666667C140.5866666666667 257.4933333333334 128 224.8533333333333 128 192S140.5866666666667 126.5066666666667 165.5466666666667 101.5466666666666M256 106.6666666666667C208.8533333333333 106.6666666666667 170.6666666666667 144.8533333333334 170.6666666666667 192S208.8533333333333 277.3333333333334 256 277.3333333333334S341.3333333333333 239.1466666666667 341.3333333333333 192S303.1466666666667 106.6666666666667 256 106.6666666666667M376.7466666666667 71.2533333333333L346.6666666666667 101.3333333333334C371.4133333333333 126.5066666666667 384 159.1466666666667 384 192S371.4133333333333 257.4933333333334 346.4533333333333 282.4533333333334L376.5333333333333 312.5333333333334C410.0266666666667 279.4666666666667 426.6666666666667 235.7333333333334 426.6666666666667 192C426.6666666666667 148.2666666666667 410.0266666666667 104.5333333333333 376.7466666666667 71.2533333333333M256 234.6666666666667C232.5333333333334 234.6666666666667 213.3333333333333 215.4666666666667 213.3333333333333 192S232.5333333333334 149.3333333333334 256 149.3333333333334S298.6666666666667 168.5333333333334 298.6666666666667 192S279.4666666666667 234.6666666666667 256 234.6666666666667z" /></svg>