<?xml version="1.0" encoding="UTF-8"?><!DOCTYPE svg PUBLIC "-//W3C//DTD SVG 1.1//EN" "http://www.w3.org/Graphics/SVG/1.1/DTD/svg11.dtd"><svg xmlns="http://www.w3.org/2000/svg" xmlns:xlink="http://www.w3.org/1999/xlink" version="1.1" width="512" height="512" viewBox="0 0 512 512">    <path fill="#ffffff" transform="scale(1, -1) translate(0, -448)" glyph-name="palette-advanced" unicode="&#xF3D9;" horiz-adv-x="512" d=" M469.3333333333333 -21.3333333333333H213.3333333333333V21.3333333333334H469.3333333333333V-21.3333333333333M42.6666666666667 -21.3333333333333V21.3333333333334H192V-21.3333333333333H42.6666666666667M384 64V234.6666666666667H469.3333333333333V64H384M384 384H469.3333333333333V256H384V384M42.6666666666667 64V384H341.3333333333333V64H42.6666666666667M192 137.3866666666667C227.4133333333334 137.3866666666667 256 165.9733333333334 256 201.3866666666667C256 244.0533333333334 192 315.9466666666667 192 315.9466666666667S128 244.0533333333334 128 201.3866666666667C128 165.9733333333334 156.5866666666667 137.3866666666667 192 137.3866666666667z" /></svg>