<?xml version="1.0" encoding="UTF-8"?><!DOCTYPE svg PUBLIC "-//W3C//DTD SVG 1.1//EN" "http://www.w3.org/Graphics/SVG/1.1/DTD/svg11.dtd"><svg xmlns="http://www.w3.org/2000/svg" xmlns:xlink="http://www.w3.org/1999/xlink" version="1.1" width="512" height="512" viewBox="0 0 512 512">    <path fill="#ffffff" transform="scale(1, -1) translate(0, -448)" glyph-name="lightbulb-outline" unicode="&#xF336;" horiz-adv-x="512" d=" M256 405.3333333333333C338.56 405.3333333333333 405.3333333333333 338.56 405.3333333333333 256C405.3333333333333 205.2266666666667 379.9466666666666 160.6400000000001 341.3333333333333 133.5466666666667V85.3333333333334C341.3333333333333 73.6 331.7333333333334 64 320 64H192C180.2666666666667 64 170.6666666666667 73.6 170.6666666666667 85.3333333333334V133.5466666666667C132.0533333333334 160.64 106.6666666666667 205.2266666666667 106.6666666666667 256C106.6666666666667 338.56 173.44 405.3333333333333 256 405.3333333333333M192 0V21.3333333333334H320V0C320 -11.7333333333333 310.4 -21.3333333333333 298.6666666666667 -21.3333333333333H213.3333333333333C201.6 -21.3333333333333 192 -11.7333333333333 192 0M256 362.6666666666667C197.12 362.6666666666667 149.3333333333333 314.88 149.3333333333333 256C149.3333333333333 212.2666666666667 175.5733333333333 174.72 213.3333333333333 158.2933333333334V106.6666666666667H298.6666666666667V158.2933333333334C336.4266666666666 174.72 362.6666666666667 212.2666666666667 362.6666666666667 256C362.6666666666667 314.88 314.88 362.6666666666667 256 362.6666666666667z" /></svg>