<?xml version="1.0" encoding="UTF-8"?><!DOCTYPE svg PUBLIC "-//W3C//DTD SVG 1.1//EN" "http://www.w3.org/Graphics/SVG/1.1/DTD/svg11.dtd"><svg xmlns="http://www.w3.org/2000/svg" xmlns:xlink="http://www.w3.org/1999/xlink" version="1.1" width="512" height="512" viewBox="0 0 512 512">    <path fill="#ffffff" transform="scale(1, -1) translate(0, -448)" glyph-name="tag-heart-outline" unicode="&#xFBAB;" horiz-adv-x="512" d=" M85.3333333333333 405.3333333333333C61.8666666666667 405.3333333333333 42.6666666666667 386.1333333333334 42.6666666666667 362.6666666666667V213.3333333333334C42.6666666666667 201.6 47.36 190.9333333333333 55.2533333333333 183.04L247.2533333333334 -8.96C254.9333333333333 -16.64 265.6 -21.3333333333333 277.3333333333333 -21.3333333333333C289.0666666666667 -21.3333333333333 299.7333333333334 -16.64 307.4133333333333 -8.7466666666667L456.7466666666667 140.5866666666667C464.64 148.2666666666667 469.3333333333333 158.9333333333333 469.3333333333333 170.6666666666667C469.3333333333333 182.4 464.4266666666666 193.28 456.7466666666667 200.96L264.7466666666667 392.96C257.0666666666667 400.64 246.4 405.3333333333333 234.6666666666667 405.3333333333333H85.3333333333333M234.6666666666667 362.6666666666667L426.6666666666667 170.6666666666667L277.3333333333333 21.3333333333334L85.3333333333333 213.3333333333334V362.6666666666667H234.6666666666667M138.6666666666667 341.3333333333334C120.96 341.3333333333334 106.6666666666667 327.04 106.6666666666667 309.3333333333334S120.96 277.3333333333334 138.6666666666667 277.3333333333334S170.6666666666667 291.6266666666667 170.6666666666667 309.3333333333334S156.3733333333333 341.3333333333334 138.6666666666667 341.3333333333334M233.6 224C209.4933333333334 224 189.8666666666666 204.3733333333333 189.8666666666666 180.2666666666667C189.8666666666666 168.1066666666667 194.7733333333333 157.44 202.6666666666666 149.3333333333334L277.3333333333333 74.6666666666667L352 149.3333333333334C359.8933333333333 157.2266666666667 364.8 168.3200000000001 364.8 180.2666666666667C364.8 204.3733333333333 345.1733333333333 224 321.0666666666667 224C309.3333333333333 224 298.0266666666667 219.0933333333333 290.1333333333334 211.2L277.3333333333334 198.4L264.5333333333334 210.9866666666667C256.6400000000001 219.0933333333334 245.3333333333334 224 233.6000000000001 224z" /></svg>