<?xml version="1.0" encoding="UTF-8"?><!DOCTYPE svg PUBLIC "-//W3C//DTD SVG 1.1//EN" "http://www.w3.org/Graphics/SVG/1.1/DTD/svg11.dtd"><svg xmlns="http://www.w3.org/2000/svg" xmlns:xlink="http://www.w3.org/1999/xlink" version="1.1" width="512" height="512" viewBox="0 0 512 512">    <path fill="#ffffff" transform="scale(1, -1) translate(0, -448)" glyph-name="clover" unicode="&#xF815;" horiz-adv-x="512" d=" M256 209.4933333333334C326.4 273.4933333333334 362.6666666666667 306.3466666666667 362.6666666666667 347.9466666666667C362.6666666666667 379.9466666666667 336 405.3333333333333 304 405.3333333333333C285.6533333333333 405.3333333333333 268.16 397.6533333333333 256 384C243.84 397.6533333333333 226.3466666666667 405.3333333333333 206.72 405.3333333333333C174.72 405.3333333333333 149.3333333333333 378.6666666666667 149.3333333333333 346.6666666666667C149.3333333333333 306.3466666666667 185.6 273.4933333333334 256 209.4933333333334M238.5066666666667 192C174.5066666666667 262.4000000000001 141.6533333333333 298.6666666666667 100.0533333333333 298.6666666666667C68.0533333333333 298.6666666666667 42.6666666666667 272 42.6666666666667 240C42.6666666666667 221.6533333333334 50.3466666666667 204.16 64 192C50.3466666666667 179.84 42.6666666666667 162.3466666666667 42.6666666666667 142.72C42.6666666666667 110.72 69.3333333333333 85.3333333333334 101.3333333333333 85.3333333333334C141.6533333333333 85.3333333333334 174.5066666666667 121.6 238.5066666666667 192M273.7066666666667 192C337.4933333333334 121.6 370.3466666666667 85.3333333333334 411.9466666666667 85.3333333333334C443.9466666666667 85.3333333333334 469.3333333333334 112 469.3333333333334 144C469.3333333333334 162.3466666666667 461.6533333333334 179.84 448.0000000000001 192C461.6533333333334 204.16 469.3333333333334 221.6533333333334 469.3333333333334 241.2800000000001C469.3333333333333 273.2800000000001 442.6666666666667 298.6666666666667 410.6666666666667 298.6666666666667C370.3466666666667 298.6666666666667 337.4933333333334 262.4000000000001 273.7066666666667 192M256 174.5066666666667C185.6 110.5066666666667 149.3333333333333 77.6533333333334 149.3333333333333 36.0533333333333C149.3333333333333 4.0533333333334 176 -21.3333333333333 208 -21.3333333333333C226.3466666666667 -21.3333333333333 243.84 -13.6533333333333 256 0C268.16 -13.6533333333333 285.6533333333333 -21.3333333333333 305.28 -21.3333333333333C337.28 -21.3333333333333 362.6666666666667 5.3333333333334 362.6666666666667 37.3333333333334C362.6666666666667 77.6533333333334 326.4 110.5066666666667 256 174.5066666666667z" /></svg>