<?xml version="1.0" encoding="UTF-8"?><!DOCTYPE svg PUBLIC "-//W3C//DTD SVG 1.1//EN" "http://www.w3.org/Graphics/SVG/1.1/DTD/svg11.dtd"><svg xmlns="http://www.w3.org/2000/svg" xmlns:xlink="http://www.w3.org/1999/xlink" version="1.1" width="512" height="512" viewBox="0 0 512 512">    <path fill="#ffffff" transform="scale(1, -1) translate(0, -448)" glyph-name="phone-lock" unicode="&#xF3F8;" horiz-adv-x="512" d=" M409.6 362.6666666666667H337.0666666666666V373.3333333333334C337.0666666666666 393.3866666666667 353.28 409.6 373.3333333333333 409.6S409.6 393.3866666666667 409.6 373.3333333333334M426.6666666666667 362.6666666666667V373.3333333333334C426.6666666666667 402.7733333333333 402.7733333333333 426.6666666666667 373.3333333333333 426.6666666666667S320 402.7733333333333 320 373.3333333333334V362.6666666666667C308.2666666666667 362.6666666666667 298.6666666666667 353.0666666666667 298.6666666666667 341.3333333333334V256C298.6666666666667 244.2666666666667 308.2666666666667 234.6666666666667 320 234.6666666666667H426.6666666666667C438.4 234.6666666666667 448 244.2666666666667 448 256V341.3333333333334C448 353.0666666666667 438.4 362.6666666666667 426.6666666666667 362.6666666666667M426.6666666666667 117.3333333333334C400 117.3333333333334 374.4 121.6 350.5066666666667 129.4933333333334C343.04 131.84 334.72 130.1333333333333 328.7466666666667 124.16L281.8133333333334 77.2266666666667C221.44 107.9466666666667 171.9466666666667 157.4400000000001 141.2266666666667 217.8133333333334L188.16 264.7466666666667C194.1333333333333 270.7200000000001 195.84 279.04 193.4933333333334 286.5066666666667C185.6 310.4 181.3333333333333 336 181.3333333333333 362.6666666666667C181.3333333333333 374.4 171.7333333333334 384 160 384H85.3333333333333C73.6 384 64 374.4 64 362.6666666666667C64 162.3466666666667 226.3466666666667 0 426.6666666666667 0C438.4 0 448 9.6 448 21.3333333333334V96C448 107.7333333333334 438.4 117.3333333333334 426.6666666666667 117.3333333333334z" /></svg>