<?xml version="1.0" encoding="UTF-8"?><!DOCTYPE svg PUBLIC "-//W3C//DTD SVG 1.1//EN" "http://www.w3.org/Graphics/SVG/1.1/DTD/svg11.dtd"><svg xmlns="http://www.w3.org/2000/svg" xmlns:xlink="http://www.w3.org/1999/xlink" version="1.1" width="512" height="512" viewBox="0 0 512 512">    <path fill="#ffffff" transform="scale(1, -1) translate(0, -448)" glyph-name="clipboard-account" unicode="&#xF148;" horiz-adv-x="512" d=" M384 42.6666666666667H128V72.5333333333333C128 115.2 213.3333333333333 138.6666666666666 256 138.6666666666666S384 115.2 384 72.5333333333333M256 298.6666666666667C291.4133333333333 298.6666666666667 320 270.0800000000001 320 234.6666666666667S291.4133333333333 170.6666666666667 256 170.6666666666667S192 199.2533333333333 192 234.6666666666667S220.5866666666667 298.6666666666667 256 298.6666666666667M256 384C267.7333333333334 384 277.3333333333333 374.4 277.3333333333333 362.6666666666667S267.7333333333334 341.3333333333334 256 341.3333333333334S234.6666666666667 350.9333333333334 234.6666666666667 362.6666666666667S244.2666666666667 384 256 384M405.3333333333333 384H316.16C307.2 408.7466666666667 283.7333333333334 426.6666666666667 256 426.6666666666667C228.2666666666667 426.6666666666667 204.8 408.7466666666667 195.84 384H106.6666666666667C83.2 384 64 364.8 64 341.3333333333334V42.6666666666667C64 19.2 83.2 0 106.6666666666667 0H405.3333333333333C428.8 0 448 19.2 448 42.6666666666667V341.3333333333334C448 364.8 428.8 384 405.3333333333333 384z" /></svg>