<?xml version="1.0" encoding="UTF-8"?><!DOCTYPE svg PUBLIC "-//W3C//DTD SVG 1.1//EN" "http://www.w3.org/Graphics/SVG/1.1/DTD/svg11.dtd"><svg xmlns="http://www.w3.org/2000/svg" xmlns:xlink="http://www.w3.org/1999/xlink" version="1.1" width="512" height="512" viewBox="0 0 512 512">    <path fill="#ffffff" transform="scale(1, -1) translate(0, -448)" glyph-name="language-swift" unicode="&#xF6E4;" horiz-adv-x="512" d=" M364.5866666666667 27.3066666666667C314.24 -1.7066666666666 245.3333333333333 -4.6933333333333 175.5733333333333 25.1733333333333C119.2533333333333 49.0666666666667 72.5333333333333 90.8800000000001 42.6666666666667 138.6666666666667C56.96 126.9333333333333 73.8133333333333 117.3333333333334 91.7333333333333 108.8C163.6266666666667 75.3066666666667 235.3066666666667 77.6533333333334 285.8666666666666 108.8C213.9733333333333 164.0533333333334 152.7466666666666 235.9466666666667 107.3066666666666 294.6133333333334C97.7066666666667 304.2133333333334 90.6666666666666 316.1600000000001 83.4133333333333 326.8266666666667C260.0533333333333 197.76 252.3733333333333 164.9066666666667 134.8266666666667 348.3733333333334C239.1466666666667 242.9866666666667 336 183.2533333333333 336 183.2533333333333C339.4133333333333 181.3333333333334 341.3333333333333 179.84 343.68 178.56C345.8133333333334 183.8933333333333 347.7333333333334 189.44 349.2266666666667 195.2C366.08 256 346.88 325.76 304.8533333333334 383.1466666666667C401.92 324.48 459.52 214.4 435.4133333333333 122.0266666666667C434.7733333333333 119.68 434.1333333333334 117.3333333333333 434.3466666666667 113.7066666666667C482.1333333333333 53.3333333333334 469.3333333333333 -9.6 463.1466666666666 2.3466666666667C437.3333333333333 53.3333333333334 388.9066666666667 37.5466666666666 364.5866666666667 27.3066666666667z" /></svg>