<?xml version="1.0" encoding="UTF-8"?><!DOCTYPE svg PUBLIC "-//W3C//DTD SVG 1.1//EN" "http://www.w3.org/Graphics/SVG/1.1/DTD/svg11.dtd"><svg xmlns="http://www.w3.org/2000/svg" xmlns:xlink="http://www.w3.org/1999/xlink" version="1.1" width="512" height="512" viewBox="0 0 512 512">    <path fill="#ffffff" transform="scale(1, -1) translate(0, -448)" glyph-name="controller-classic" unicode="&#xFB5E;" horiz-adv-x="512" d=" M128 298.6666666666667H384C442.88 298.6666666666667 490.6666666666666 250.88 490.6666666666666 192S442.88 85.3333333333334 384 85.3333333333334C349.0133333333333 85.3333333333334 318.08 102.1866666666667 298.6666666666667 128H213.3333333333333C193.92 102.1866666666667 162.9866666666667 85.3333333333334 128 85.3333333333334C69.12 85.3333333333334 21.3333333333333 133.12 21.3333333333333 192S69.12 298.6666666666667 128 298.6666666666667M421.3333333333333 245.3333333333334C406.6133333333333 245.3333333333334 394.6666666666667 233.3866666666667 394.6666666666667 218.6666666666667S406.6133333333333 192 421.3333333333333 192S448 203.9466666666667 448 218.6666666666667S436.0533333333334 245.3333333333334 421.3333333333333 245.3333333333334M368 192C353.28 192 341.3333333333333 180.0533333333334 341.3333333333333 165.3333333333334S353.28 138.6666666666667 368 138.6666666666667S394.6666666666667 150.6133333333334 394.6666666666667 165.3333333333334S382.7200000000001 192 368 192M106.6666666666667 256V213.3333333333334H64V170.6666666666667H106.6666666666667V128H149.3333333333333V170.6666666666667H192V213.3333333333334H149.3333333333333V256H106.6666666666667z" /></svg>