<?xml version="1.0" encoding="UTF-8"?><!DOCTYPE svg PUBLIC "-//W3C//DTD SVG 1.1//EN" "http://www.w3.org/Graphics/SVG/1.1/DTD/svg11.dtd"><svg xmlns="http://www.w3.org/2000/svg" xmlns:xlink="http://www.w3.org/1999/xlink" version="1.1" width="512" height="512" viewBox="0 0 512 512">    <path fill="#ffffff" transform="scale(1, -1) translate(0, -448)" glyph-name="postage-stamp" unicode="&#xFC97;" horiz-adv-x="512" d=" M42.6666666666667 405.3333333333333V330.6666666666667C66.1333333333333 330.6666666666667 85.3333333333333 306.7733333333333 85.3333333333333 277.3333333333334S66.1333333333333 224 42.6666666666667 224V160C66.1333333333333 160 85.3333333333333 136.1066666666667 85.3333333333333 106.6666666666667S66.1333333333333 53.3333333333334 42.6666666666667 53.3333333333334V-21.3333333333333H117.3333333333333C117.3333333333333 2.1333333333334 141.2266666666667 21.3333333333334 170.6666666666667 21.3333333333334S224 2.1333333333334 224 -21.3333333333333H288C288 2.1333333333334 311.8933333333333 21.3333333333334 341.3333333333333 21.3333333333334S394.6666666666667 2.1333333333334 394.6666666666667 -21.3333333333333H469.3333333333333V53.3333333333334C445.8666666666666 53.3333333333334 426.6666666666667 77.2266666666667 426.6666666666667 106.6666666666667S445.8666666666666 160 469.3333333333333 160V224C445.8666666666666 224 426.6666666666667 247.8933333333334 426.6666666666667 277.3333333333334S445.8666666666666 330.6666666666667 469.3333333333333 330.6666666666667V405.3333333333333H394.6666666666667C394.6666666666667 381.8666666666667 370.7733333333333 362.6666666666667 341.3333333333333 362.6666666666667S288 381.8666666666667 288 405.3333333333333H224C224 381.8666666666667 200.1066666666666 362.6666666666667 170.6666666666667 362.6666666666667S117.3333333333333 381.8666666666667 117.3333333333333 405.3333333333333H42.6666666666667M128 320H384V64H128V320M192 298.6666666666667C168.5333333333333 298.6666666666667 149.3333333333333 279.4666666666667 149.3333333333333 256S168.5333333333333 213.3333333333334 192 213.3333333333334S234.6666666666667 232.5333333333334 234.6666666666667 256S215.4666666666667 298.6666666666667 192 298.6666666666667M362.6666666666667 234.6666666666667L298.6666666666667 170.6666666666667L256 192L149.3333333333333 85.3333333333334H362.6666666666667V234.6666666666667z" /></svg>