<?xml version="1.0" encoding="UTF-8"?><!DOCTYPE svg PUBLIC "-//W3C//DTD SVG 1.1//EN" "http://www.w3.org/Graphics/SVG/1.1/DTD/svg11.dtd"><svg xmlns="http://www.w3.org/2000/svg" xmlns:xlink="http://www.w3.org/1999/xlink" version="1.1" width="512" height="512" viewBox="0 0 512 512">    <path fill="#ffffff" transform="scale(1, -1) translate(0, -448)" glyph-name="forklift" unicode="&#xF7C8;" horiz-adv-x="512" d=" M128 362.6666666666667V213.3333333333334H85.3333333333333C61.6533333333333 213.3333333333334 42.6666666666667 194.3466666666667 42.6666666666667 170.6666666666667V85.3333333333334C42.6666666666667 49.92 71.2533333333333 21.3333333333334 106.6666666666667 21.3333333333334S170.6666666666667 49.92 170.6666666666667 85.3333333333334H213.3333333333333C213.3333333333333 49.92 241.92 21.3333333333334 277.3333333333333 21.3333333333334S341.3333333333333 49.92 341.3333333333333 85.3333333333334V170.6666666666667L256 362.6666666666667H128M362.6666666666667 341.3333333333334V42.6666666666667H469.3333333333333V74.6666666666667H394.6666666666667V341.3333333333334H362.6666666666667M160 330.6666666666667H238.9333333333333L309.3333333333333 170.6666666666667H160V330.6666666666667M106.6666666666667 117.3333333333334C124.3733333333333 117.3333333333334 138.6666666666667 103.04 138.6666666666667 85.3333333333334S124.3733333333333 53.3333333333334 106.6666666666667 53.3333333333334S74.6666666666667 67.6266666666667 74.6666666666667 85.3333333333334S88.96 117.3333333333334 106.6666666666667 117.3333333333334M277.3333333333333 117.3333333333334C295.04 117.3333333333334 309.3333333333333 103.04 309.3333333333333 85.3333333333334S295.04 53.3333333333334 277.3333333333333 53.3333333333334S245.3333333333333 67.6266666666667 245.3333333333333 85.3333333333334S259.6266666666667 117.3333333333334 277.3333333333333 117.3333333333334z" /></svg>