<?xml version="1.0" encoding="UTF-8"?><!DOCTYPE svg PUBLIC "-//W3C//DTD SVG 1.1//EN" "http://www.w3.org/Graphics/SVG/1.1/DTD/svg11.dtd"><svg xmlns="http://www.w3.org/2000/svg" xmlns:xlink="http://www.w3.org/1999/xlink" version="1.1" width="512" height="512" viewBox="0 0 512 512">    <path fill="#ffffff" transform="scale(1, -1) translate(0, -448)" glyph-name="home-currency-usd" unicode="&#xF8AE;" horiz-adv-x="512" d=" M256 384L469.3333333333333 192H405.3333333333333V21.3333333333334H106.6666666666667V192H42.6666666666667L256 384M196.6933333333333 257.4933333333334C186.6666666666667 247.4666666666667 181.3333333333333 234.0266666666667 181.3333333333333 218.6666666666667C181.3333333333333 182.8266666666667 224.8533333333333 169.1733333333334 250.88 160.8533333333334C282.88 150.8266666666667 287.36 144.8533333333334 288 144C288 128 259.2 128 256 128C242.56 128 235.3066666666667 130.56 231.68 132.6933333333334C227.6266666666667 135.04 224 138.6666666666667 224 149.3333333333334H181.3333333333333C181.3333333333333 118.8266666666667 197.12 103.2533333333333 210.1333333333333 96C217.1733333333333 91.7333333333334 225.4933333333334 88.7466666666667 234.6666666666667 87.04V64H277.3333333333333V87.2533333333333C309.9733333333333 93.6533333333334 330.6666666666667 114.7733333333333 330.6666666666667 144C330.6666666666667 177.7066666666667 296.1066666666667 191.36 263.68 201.6C230.4 212.0533333333334 224.64 218.24 224 218.6666666666667C224 224 225.4933333333334 225.92 226.9866666666667 227.4133333333334C231.4666666666667 231.8933333333334 242.3466666666667 234.6666666666667 256 234.6666666666667C270.5066666666667 234.6666666666667 288 231.8933333333333 288 218.6666666666667H330.6666666666667C330.6666666666667 248.7466666666667 310.6133333333334 269.44 277.3333333333333 275.4133333333334V298.6666666666667H234.6666666666667V275.6266666666667C218.88 272.8533333333334 205.8666666666667 266.6666666666667 196.6933333333333 257.4933333333334z" /></svg>