<?xml version="1.0" encoding="UTF-8"?><!DOCTYPE svg PUBLIC "-//W3C//DTD SVG 1.1//EN" "http://www.w3.org/Graphics/SVG/1.1/DTD/svg11.dtd"><svg xmlns="http://www.w3.org/2000/svg" xmlns:xlink="http://www.w3.org/1999/xlink" version="1.1" width="512" height="512" viewBox="0 0 512 512">    <path fill="#ffffff" transform="scale(1, -1) translate(0, -448)" glyph-name="cryengine" unicode="&#xF958;" horiz-adv-x="512" d=" M491.3066666666667 181.3333333333334C490.6666666666666 170.6666666666667 446.08 123.0933333333334 380.16 101.5466666666666C299.7333333333334 74.6666666666666 170.0266666666667 84.6933333333333 170.0266666666667 185.6C170.0266666666667 232.96 208.64 271.5733333333333 256 271.5733333333333C304 271.5733333333333 342.4 232.7466666666666 342.4 185.3866666666667C342.4 162.3466666666666 332.3733333333334 139.9466666666667 317.2266666666667 124.16C331.52 124.3733333333333 382.7200000000001 128 431.1466666666667 168.1066666666666C436.48 173.2266666666666 439.8933333333333 177.4933333333333 441.3866666666667 180.2666666666667C441.8133333333334 181.3333333333333 442.4533333333334 182.1866666666666 442.24 183.4666666666667C442.24 193.7066666666667 386.56 273.28 271.36 296.1066666666667C410.0266666666667 288.8533333333333 490.6666666666666 206.5066666666666 491.3066666666667 183.4666666666667V181.3333333333333M256 234.6666666666667C229.12 234.6666666666667 207.1466666666667 212.48 207.1466666666667 185.6C207.1466666666667 158.5066666666667 229.12 136.7466666666667 256 136.7466666666667C283.0933333333333 136.7466666666667 304.8533333333333 158.5066666666667 304.8533333333333 185.6C304.8533333333333 212.48 283.0933333333333 234.6666666666667 256 234.6666666666667M70.6133333333334 184.7466666666667V183.04C72.7466666666667 171.9466666666667 102.8266666666667 119.2533333333333 219.3066666666667 87.8933333333334C84.48 98.7733333333334 23.8933333333334 164.6933333333334 22.1866666666667 183.0400000000001H21.9733333333334V184.5333333333334C21.9733333333334 202.6666666666667 105.8133333333334 286.2933333333334 232.9600000000001 295.4666666666667C130.9866666666667 271.7866666666668 70.6133333333334 194.7733333333334 70.6133333333334 184.7466666666667z" /></svg>