<?xml version="1.0" encoding="UTF-8"?><!DOCTYPE svg PUBLIC "-//W3C//DTD SVG 1.1//EN" "http://www.w3.org/Graphics/SVG/1.1/DTD/svg11.dtd"><svg xmlns="http://www.w3.org/2000/svg" xmlns:xlink="http://www.w3.org/1999/xlink" version="1.1" width="512" height="512" viewBox="0 0 512 512">    <path fill="#ffffff" transform="scale(1, -1) translate(0, -448)" glyph-name="newspaper" unicode="&#xF395;" horiz-adv-x="512" d=" M426.6666666666667 213.3333333333334H85.3333333333333V277.3333333333334H426.6666666666667M426.6666666666667 128H277.3333333333333V170.6666666666667H426.6666666666667M426.6666666666667 42.6666666666667H277.3333333333333V85.3333333333334H426.6666666666667M234.6666666666667 42.6666666666667H85.3333333333333V170.6666666666667H234.6666666666667M433.7066666666666 348.3733333333334L398.2933333333334 384L362.6666666666667 348.3733333333334L327.04 384L291.6266666666667 348.3733333333334L256 384L220.3733333333333 348.3733333333334L184.96 384L149.3333333333333 348.3733333333334L113.7066666666667 384L78.2933333333333 348.3733333333334L42.6666666666667 384V42.6666666666667C42.6666666666667 19.2 61.8666666666667 0 85.3333333333333 0H426.6666666666667C450.1333333333334 0 469.3333333333333 19.2 469.3333333333333 42.6666666666667V384L433.7066666666666 348.3733333333334z" /></svg>