<?xml version="1.0" encoding="UTF-8"?><!DOCTYPE svg PUBLIC "-//W3C//DTD SVG 1.1//EN" "http://www.w3.org/Graphics/SVG/1.1/DTD/svg11.dtd"><svg xmlns="http://www.w3.org/2000/svg" xmlns:xlink="http://www.w3.org/1999/xlink" version="1.1" width="512" height="512" viewBox="0 0 512 512">    <path fill="#ffffff" transform="scale(1, -1) translate(0, -448)" glyph-name="apple-icloud" unicode="&#xF038;" horiz-adv-x="512" d=" M469.3333333333333 127.1466666666667C469.3333333333333 80.4266666666667 431.7866666666667 42.6666666666667 385.4933333333334 42.6666666666667H126.5066666666667C80.2133333333333 42.6666666666667 42.6666666666667 80.4266666666667 42.6666666666667 127.1466666666667C42.6666666666667 169.1733333333334 73.1733333333333 203.9466666666667 113.28 210.3466666666667C112.64 213.3333333333334 112.4266666666667 216.32 112.4266666666667 219.5200000000001C112.4266666666667 248.9600000000001 136.1066666666667 273.0666666666667 165.5466666666667 273.0666666666667C178.56 273.0666666666667 190.72 268.1600000000001 199.8933333333334 260.2666666666667C216.32 297.6 237.44 331.9466666666667 296.7466666666667 331.9466666666667C368.64 331.9466666666667 402.56 276.0533333333334 402.56 216.96C402.56 214.6133333333334 402.56 212.0533333333334 402.3466666666667 209.7066666666667C440.5333333333333 201.8133333333334 469.3333333333333 167.8933333333334 469.3333333333333 127.1466666666667z" /></svg>