<?xml version="1.0" encoding="UTF-8"?><!DOCTYPE svg PUBLIC "-//W3C//DTD SVG 1.1//EN" "http://www.w3.org/Graphics/SVG/1.1/DTD/svg11.dtd"><svg xmlns="http://www.w3.org/2000/svg" xmlns:xlink="http://www.w3.org/1999/xlink" version="1.1" width="512" height="512" viewBox="0 0 512 512">    <path fill="#ffffff" transform="scale(1, -1) translate(0, -448)" glyph-name="comment-text-multiple-outline" unicode="&#xF860;" horiz-adv-x="512" d=" M256 -42.6666666666666C244.2666666666667 -42.6666666666666 234.6666666666667 -33.0666666666667 234.6666666666667 -21.3333333333333V42.6666666666667H149.3333333333333C125.8666666666667 42.6666666666667 106.6666666666667 61.8666666666667 106.6666666666667 85.3333333333334V298.6666666666667C106.6666666666667 322.1333333333334 125.8666666666667 341.3333333333334 149.3333333333333 341.3333333333334H448C471.4666666666667 341.3333333333334 490.6666666666666 322.1333333333334 490.6666666666666 298.6666666666667V85.3333333333334C490.6666666666666 61.8666666666667 471.4666666666667 42.6666666666667 448 42.6666666666667H360.5333333333333L281.6 -36.48C277.3333333333333 -40.32 272.2133333333333 -42.6666666666666 266.6666666666667 -42.6666666666666H256M277.3333333333333 85.3333333333334V19.6266666666667L343.04 85.3333333333334H448V298.6666666666667H149.3333333333333V85.3333333333334H277.3333333333333M64 128H21.3333333333333V384C21.3333333333333 407.4666666666667 40.5333333333333 426.6666666666667 64 426.6666666666667H405.3333333333333V384H64V128M192 256H405.3333333333333V213.3333333333334H192V256M192 170.6666666666667H362.6666666666667V128H192V170.6666666666667z" /></svg>