<?xml version="1.0" encoding="UTF-8"?><!DOCTYPE svg PUBLIC "-//W3C//DTD SVG 1.1//EN" "http://www.w3.org/Graphics/SVG/1.1/DTD/svg11.dtd"><svg xmlns="http://www.w3.org/2000/svg" xmlns:xlink="http://www.w3.org/1999/xlink" version="1.1" width="512" height="512" viewBox="0 0 512 512">    <path fill="#ffffff" transform="scale(1, -1) translate(0, -448)" glyph-name="flower-tulip" unicode="&#xF9F0;" horiz-adv-x="512" d=" M64 170.6666666666667C64 64.64 149.9733333333333 -21.3333333333333 256 -21.3333333333333C256 84.6933333333333 170.0266666666667 170.6666666666667 64 170.6666666666667M256 -21.3333333333333C362.0266666666667 -21.3333333333333 448 64.64 448 170.6666666666667C341.9733333333334 170.6666666666667 256 84.6933333333333 256 -21.3333333333333M384 384V277.3333333333334C384 206.72 326.6133333333334 149.3333333333334 256 149.3333333333334S128 206.72 128 277.3333333333334V384C143.7866666666667 384 159.36 381.44 174.08 375.68C185.8133333333333 370.7733333333333 196.2666666666667 363.52 205.0133333333333 354.3466666666667L256 405.3333333333333L306.9866666666667 354.3466666666667C315.7333333333334 363.52 326.1866666666667 370.7733333333333 337.92 375.68C352.64 381.44 368.2133333333334 384 384 384z" /></svg>