<?xml version="1.0" encoding="UTF-8"?><!DOCTYPE svg PUBLIC "-//W3C//DTD SVG 1.1//EN" "http://www.w3.org/Graphics/SVG/1.1/DTD/svg11.dtd"><svg xmlns="http://www.w3.org/2000/svg" xmlns:xlink="http://www.w3.org/1999/xlink" version="1.1" width="512" height="512" viewBox="0 0 512 512">    <path fill="#ffffff" transform="scale(1, -1) translate(0, -448)" glyph-name="chart-bubble" unicode="&#xF5E3;" horiz-adv-x="512" d=" M153.6 209.0666666666667C191.36 209.0666666666667 221.8666666666667 178.5600000000001 221.8666666666667 140.8000000000001C221.8666666666667 103.0400000000001 191.36 72.5333333333334 153.6 72.5333333333334C115.84 72.5333333333334 85.3333333333333 103.0400000000001 85.3333333333333 140.8000000000001C85.3333333333333 178.5600000000001 115.84 209.0666666666667 153.6 209.0666666666667M315.7333333333334 106.6666666666667C339.2 106.6666666666667 358.4 87.4666666666667 358.4 64S339.2 21.3333333333334 315.7333333333334 21.3333333333334S273.0666666666667 40.5333333333333 273.0666666666667 64S292.2666666666667 106.6666666666667 315.7333333333334 106.6666666666667M324.2666666666667 362.6666666666667C380.8 362.6666666666667 426.6666666666667 316.8 426.6666666666667 260.2666666666667S380.8 157.8666666666667 324.2666666666667 157.8666666666667S221.8666666666666 203.7333333333333 221.8666666666666 260.2666666666667S267.7333333333334 362.6666666666667 324.2666666666667 362.6666666666667z" /></svg>