<?xml version="1.0" encoding="UTF-8"?><!DOCTYPE svg PUBLIC "-//W3C//DTD SVG 1.1//EN" "http://www.w3.org/Graphics/SVG/1.1/DTD/svg11.dtd"><svg xmlns="http://www.w3.org/2000/svg" xmlns:xlink="http://www.w3.org/1999/xlink" version="1.1" width="512" height="512" viewBox="0 0 512 512">    <path fill="#ffffff" transform="scale(1, -1) translate(0, -448)" glyph-name="water-off" unicode="&#xF58D;" horiz-adv-x="512" d=" M365.2266666666667 82.7733333333333L266.6666666666667 181.3333333333334L112.4266666666667 335.5733333333334L85.3333333333333 308.2666666666667L156.16 237.4400000000001C139.7333333333333 206.5066666666667 128 175.1466666666667 128 149.3333333333334C128 78.72 185.3866666666667 21.3333333333334 256 21.3333333333334C288 21.3333333333334 317.8666666666667 33.4933333333333 340.48 53.3333333333334L396.5866666666667 -2.7733333333333L423.68 24.3200000000001L365.2266666666666 82.7733333333334M384 149.3333333333334C384 234.6666666666667 256 379.7333333333334 256 379.7333333333334S227.6266666666667 347.5200000000001 197.76 304.6400000000001L381.0133333333333 121.3866666666667C382.9333333333333 130.3466666666667 384 139.7333333333334 384 149.3333333333334z" /></svg>