<?xml version="1.0" encoding="UTF-8"?><!DOCTYPE svg PUBLIC "-//W3C//DTD SVG 1.1//EN" "http://www.w3.org/Graphics/SVG/1.1/DTD/svg11.dtd"><svg xmlns="http://www.w3.org/2000/svg" xmlns:xlink="http://www.w3.org/1999/xlink" version="1.1" width="512" height="512" viewBox="0 0 512 512">    <path fill="#ffffff" transform="scale(1, -1) translate(0, -448)" glyph-name="view-agenda" unicode="&#xF56A;" horiz-adv-x="512" d=" M426.6666666666667 384H64C52.2666666666667 384 42.6666666666667 374.4 42.6666666666667 362.6666666666667V234.6666666666667C42.6666666666667 222.9333333333333 52.2666666666667 213.3333333333334 64 213.3333333333334H426.6666666666667C438.4 213.3333333333334 448 222.9333333333333 448 234.6666666666667V362.6666666666667C448 374.4 438.4 384 426.6666666666667 384M426.6666666666667 170.6666666666667H64C52.2666666666667 170.6666666666667 42.6666666666667 161.0666666666667 42.6666666666667 149.3333333333334V21.3333333333334C42.6666666666667 9.6 52.2666666666667 0 64 0H426.6666666666667C438.4 0 448 9.6 448 21.3333333333334V149.3333333333334C448 161.0666666666667 438.4 170.6666666666667 426.6666666666667 170.6666666666667z" /></svg>