<?xml version="1.0" encoding="UTF-8"?><!DOCTYPE svg PUBLIC "-//W3C//DTD SVG 1.1//EN" "http://www.w3.org/Graphics/SVG/1.1/DTD/svg11.dtd"><svg xmlns="http://www.w3.org/2000/svg" xmlns:xlink="http://www.w3.org/1999/xlink" version="1.1" width="512" height="512" viewBox="0 0 512 512">    <path fill="#ffffff" transform="scale(1, -1) translate(0, -448)" glyph-name="cloud-print" unicode="&#xF165;" horiz-adv-x="512" d=" M256 405.3333333333333C194.3466666666666 405.3333333333333 140.8 370.3466666666667 114.1333333333333 319.1466666666667C49.92 312.32 0 257.92 0 192C0 121.3866666666667 57.3866666666667 64 128 64V-21.3333333333333H384V64H405.3333333333333C464.2133333333333 64 512 111.7866666666667 512 170.6666666666667C512 226.9866666666667 468.2666666666667 272.6400000000001 412.8 276.48C398.2933333333334 350.0800000000001 333.6533333333333 405.3333333333333 256 405.3333333333333M170.6666666666667 170.6666666666667H341.3333333333333V21.3333333333334H170.6666666666667V170.6666666666667M192 149.3333333333334V128H320V149.3333333333334H192M192 106.6666666666667V85.3333333333334H320V106.6666666666667H192M192 64V42.6666666666667H320V64H192z" /></svg>