<?xml version="1.0" encoding="UTF-8"?><!DOCTYPE svg PUBLIC "-//W3C//DTD SVG 1.1//EN" "http://www.w3.org/Graphics/SVG/1.1/DTD/svg11.dtd"><svg xmlns="http://www.w3.org/2000/svg" xmlns:xlink="http://www.w3.org/1999/xlink" version="1.1" width="512" height="512" viewBox="0 0 512 512">    <path fill="#ffffff" transform="scale(1, -1) translate(0, -448)" glyph-name="human-female-female" unicode="&#xFA59;" horiz-adv-x="512" d=" M160 405.3333333333333C183.4666666666667 405.3333333333333 202.6666666666667 386.1333333333334 202.6666666666667 362.6666666666667S183.4666666666667 320 160 320S117.3333333333333 339.2000000000001 117.3333333333333 362.6666666666667S136.5333333333333 405.3333333333333 160 405.3333333333333M128 -21.3333333333333V106.6666666666667H64L119.4666666666667 268.8C125.8666666666667 285.8666666666667 140.8 298.6666666666667 160 298.6666666666667C179.2 298.6666666666667 196.2666666666667 285.8666666666667 200.5333333333333 268.8L256 106.6666666666667L311.4666666666667 268.8C317.8666666666667 285.8666666666667 332.8 298.6666666666667 352 298.6666666666667C371.2 298.6666666666667 388.2666666666667 285.8666666666667 392.5333333333333 268.8L448 106.6666666666667H384V-21.3333333333333H320V106.6666666666667H192V-21.3333333333333H128M352 405.3333333333333C375.4666666666667 405.3333333333333 394.6666666666667 386.1333333333334 394.6666666666667 362.6666666666667S375.4666666666667 320 352 320S309.3333333333333 339.2000000000001 309.3333333333333 362.6666666666667S328.5333333333333 405.3333333333333 352 405.3333333333333z" /></svg>