<?xml version="1.0" encoding="UTF-8"?><!DOCTYPE svg PUBLIC "-//W3C//DTD SVG 1.1//EN" "http://www.w3.org/Graphics/SVG/1.1/DTD/svg11.dtd"><svg xmlns="http://www.w3.org/2000/svg" xmlns:xlink="http://www.w3.org/1999/xlink" version="1.1" width="512" height="512" viewBox="0 0 512 512">    <path fill="#ffffff" transform="scale(1, -1) translate(0, -448)" glyph-name="account-network" unicode="&#xF011;" horiz-adv-x="512" d=" M277.3333333333333 85.3333333333334V42.6666666666667H298.6666666666667C310.4 42.6666666666667 320 33.0666666666667 320 21.3333333333334H469.3333333333333V-21.3333333333333H320C320 -33.0666666666667 310.4 -42.6666666666666 298.6666666666667 -42.6666666666666H213.3333333333333C201.6 -42.6666666666666 192 -33.0666666666667 192 -21.3333333333333H42.6666666666667V21.3333333333334H192C192 33.0666666666667 201.6 42.6666666666667 213.3333333333333 42.6666666666667H234.6666666666667V85.3333333333334H106.6666666666667V117.3333333333334C106.6666666666667 158.5066666666667 173.44 192 256 192S405.3333333333333 158.5066666666667 405.3333333333333 117.3333333333334V85.3333333333334H277.3333333333333M256 384C297.1733333333333 384 330.6666666666667 350.5066666666667 330.6666666666667 309.3333333333334S297.1733333333333 234.6666666666667 256 234.6666666666667S181.3333333333333 268.1600000000001 181.3333333333333 309.3333333333334S214.8266666666667 384 256 384z" /></svg>