<?xml version="1.0" encoding="UTF-8"?><!DOCTYPE svg PUBLIC "-//W3C//DTD SVG 1.1//EN" "http://www.w3.org/Graphics/SVG/1.1/DTD/svg11.dtd"><svg xmlns="http://www.w3.org/2000/svg" xmlns:xlink="http://www.w3.org/1999/xlink" version="1.1" width="512" height="512" viewBox="0 0 512 512">    <path fill="#ffffff" transform="scale(1, -1) translate(0, -448)" glyph-name="beach" unicode="&#xF092;" horiz-adv-x="512" d=" M320 52.48C365.44 59.52 416 64 469.3333333333333 64V-21.3333333333333H106.6666666666667C106.6666666666667 -7.4666666666667 174.9333333333333 24.3200000000001 277.3333333333333 44.8000000000001V183.4666666666667C259.4133333333333 178.1333333333334 244.2666666666667 166.1866666666667 234.6666666666667 150.4C221.6533333333333 172.16 197.76 186.6666666666667 170.6666666666667 186.6666666666667S119.68 172.16 106.6666666666667 150.4C107.3066666666667 226.7733333333334 181.3333333333333 289.4933333333334 277.3333333333333 297.8133333333334V298.6666666666667C277.3333333333333 310.4 286.9333333333333 320 298.6666666666667 320S320 310.4 320 298.6666666666667V297.8133333333334C416 289.4933333333334 489.8133333333333 226.7733333333333 490.6666666666666 150.4C477.6533333333333 172.16 453.76 186.6666666666667 426.6666666666667 186.6666666666667S375.68 172.16 362.6666666666667 150.4C353.0666666666667 166.1866666666667 337.92 178.1333333333334 320 183.6800000000001V52.48M149.3333333333333 405.3333333333333C149.3333333333333 346.4533333333334 101.5466666666667 298.6666666666667 42.6666666666667 298.6666666666667V405.3333333333333H149.3333333333333z" /></svg>