<?xml version="1.0" encoding="UTF-8"?><!DOCTYPE svg PUBLIC "-//W3C//DTD SVG 1.1//EN" "http://www.w3.org/Graphics/SVG/1.1/DTD/svg11.dtd"><svg xmlns="http://www.w3.org/2000/svg" xmlns:xlink="http://www.w3.org/1999/xlink" version="1.1" width="512" height="512" viewBox="0 0 512 512">    <path fill="#ffffff" transform="scale(1, -1) translate(0, -448)" glyph-name="amazon" unicode="&#xF02D;" horiz-adv-x="512" d=" M339.84 83.4133333333334C336 80 330.6666666666667 79.7866666666666 326.4 82.1333333333334C307.4133333333333 97.92 304 105.1733333333334 293.5466666666666 120.3200000000001C262.1866666666666 88.3200000000001 240 78.72 199.2533333333333 78.72C151.2533333333333 78.72 113.7066666666666 108.3733333333334 113.7066666666666 167.6800000000001C113.7066666666666 214.1866666666667 138.6666666666666 245.3333333333334 174.72 261.1200000000001C205.8666666666666 274.7733333333335 249.1733333333333 277.3333333333334 282.2399999999999 280.9600000000001V288C282.2399999999999 302.0800000000001 283.3066666666666 318.0800000000001 275.2 329.8133333333334C268.3733333333332 340.2666666666667 254.9333333333333 344.7466666666667 243.2 344.7466666666667C221.44 344.7466666666667 202.0266666666666 333.44 197.3333333333333 310.4C196.2666666666666 305.28 191.9999999999999 300.1600000000001 187.3066666666666 299.9466666666667L131.8399999999999 305.92C127.1466666666666 306.9866666666667 122.0266666666666 310.6133333333334 123.3066666666666 317.8666666666667C136.1066666666666 385.0666666666667 196.9066666666666 405.3333333333333 251.3066666666666 405.3333333333333C279.0399999999999 405.3333333333333 315.3066666666666 397.8666666666667 337.2799999999999 376.9600000000001C365.0133333333333 350.9333333333334 362.6666666666667 316.1600000000001 362.6666666666667 278.4V189.44C362.6666666666667 162.7733333333333 373.3333333333333 150.8266666666667 384 136.5333333333333C387.6266666666667 131.2 388.48 125.0133333333333 384 121.3866666666667L340.0533333333333 83.4133333333333H339.84M282.24 222.72V234.6666666666667C240.8533333333334 234.6666666666667 197.12 226.3466666666667 197.12 177.7066666666667C197.12 152.96 210.1333333333333 136.1066666666667 231.8933333333334 136.1066666666667C248.1066666666667 136.1066666666667 262.4 146.1333333333334 271.5733333333333 162.1333333333334C282.6666666666667 181.9733333333334 282.24 200.5333333333334 282.24 222.72M430.08 31.1466666666667C384 -2.9866666666667 316.16 -21.3333333333333 258.1333333333334 -21.3333333333333C176.8533333333333 -21.3333333333333 103.4666666666667 8.7466666666667 48 58.88C43.7333333333333 62.72 47.5733333333333 68.0533333333333 53.3333333333333 65.0666666666666C112.64 30.2933333333333 186.6666666666667 9.3866666666667 263.04 9.3866666666667C314.4533333333333 9.3866666666667 371.2 20.0533333333333 423.2533333333334 42.0266666666666C431.1466666666667 45.44 437.3333333333333 36.9066666666667 430.08 31.1466666666667M449.4933333333334 53.3333333333333C443.52 61.0133333333333 410.0266666666667 56.96 394.6666666666667 55.0399999999999C390.6133333333333 54.6133333333332 389.9733333333334 58.4533333333333 394.0266666666667 61.4399999999999C420.4799999999999 80.2133333333333 464.2133333333333 74.6666666666666 469.3333333333333 68.4799999999999C474.4533333333333 62.0799999999999 467.84 18.3466666666665 442.88 -2.3466666666668C439.04 -5.7600000000001 435.4133333333333 -3.8400000000001 437.3333333333333 -1e-13C442.88 14.2933333333332 455.4666666666667 45.6533333333332 449.4933333333334 53.3333333333332z" /></svg>