<?xml version="1.0" encoding="UTF-8"?><!DOCTYPE svg PUBLIC "-//W3C//DTD SVG 1.1//EN" "http://www.w3.org/Graphics/SVG/1.1/DTD/svg11.dtd"><svg xmlns="http://www.w3.org/2000/svg" xmlns:xlink="http://www.w3.org/1999/xlink" version="1.1" width="512" height="512" viewBox="0 0 512 512">    <path fill="#ffffff" transform="scale(1, -1) translate(0, -448)" glyph-name="onepassword" unicode="&#xF880;" horiz-adv-x="512" d=" M256 426.6666666666667C126.2933333333333 426.6666666666667 21.3333333333333 321.7066666666667 21.3333333333333 192S126.2933333333333 -42.6666666666666 256 -42.6666666666666S490.6666666666666 62.2933333333334 490.6666666666666 192S385.7066666666666 426.6666666666667 256 426.6666666666667M256 21.3333333333334C161.7066666666667 21.3333333333334 85.3333333333333 97.7066666666667 85.3333333333333 192S161.7066666666667 362.6666666666667 256 362.6666666666667S426.6666666666667 286.2933333333334 426.6666666666667 192S350.2933333333334 21.3333333333334 256 21.3333333333334M277.3333333333333 160C277.3333333333333 146.56 285.8666666666667 134.4 298.6666666666667 129.92V64H213.3333333333333V193.92C229.9733333333333 199.68 238.72 217.6 233.1733333333333 234.6666666666667C229.9733333333333 243.6266666666667 222.72 250.88 213.3333333333333 254.08V320H298.6666666666667V190.0800000000001C285.8666666666667 185.6 277.3333333333333 173.4400000000001 277.3333333333333 160z" /></svg>