<?xml version="1.0" encoding="UTF-8"?><!DOCTYPE svg PUBLIC "-//W3C//DTD SVG 1.1//EN" "http://www.w3.org/Graphics/SVG/1.1/DTD/svg11.dtd"><svg xmlns="http://www.w3.org/2000/svg" xmlns:xlink="http://www.w3.org/1999/xlink" version="1.1" width="512" height="512" viewBox="0 0 512 512">    <path fill="#ffffff" transform="scale(1, -1) translate(0, -448)" glyph-name="airbag" unicode="&#xFBC5;" horiz-adv-x="512" d=" M298.6666666666667 277.3333333333334C298.6666666666667 218.4533333333334 250.88 170.6666666666667 192 170.6666666666667S85.3333333333333 218.4533333333334 85.3333333333333 277.3333333333334S133.12 384 192 384S298.6666666666667 336.2133333333334 298.6666666666667 277.3333333333334M223.1466666666667 116.2666666666667L277.3333333333333 63.36L234.6666666666667 62.9333333333333L160 -12.3733333333333L128 19.4133333333334L223.1466666666667 116.2666666666667M362.6666666666667 405.3333333333333C385.7066666666666 405.3333333333333 405.3333333333333 386.56 405.3333333333333 362.6666666666667C405.3333333333333 339.6266666666667 386.56 320 362.6666666666667 320C339.6266666666667 320 320 338.7733333333333 320 362.6666666666667C320 385.7066666666667 338.9866666666667 405.3333333333333 362.6666666666667 405.3333333333333M307.4133333333333 128H247.2533333333334L368.8533333333333 6.1866666666667L399.1466666666667 36.48L307.4133333333333 128M322.56 143.1466666666667L414.08 51.4133333333334L418.7733333333333 46.9333333333333C423.68 55.04 426.6666666666667 64 426.6666666666667 74.6666666666667V245.3333333333334C426.6666666666667 274.7733333333334 402.7733333333333 298.6666666666667 373.3333333333333 298.6666666666667S320 274.7733333333334 320 245.3333333333334V145.7066666666667L322.56 143.1466666666667z" /></svg>