<?xml version="1.0" encoding="UTF-8"?><!DOCTYPE svg PUBLIC "-//W3C//DTD SVG 1.1//EN" "http://www.w3.org/Graphics/SVG/1.1/DTD/svg11.dtd"><svg xmlns="http://www.w3.org/2000/svg" xmlns:xlink="http://www.w3.org/1999/xlink" version="1.1" width="512" height="512" viewBox="0 0 512 512">    <path fill="#ffffff" transform="scale(1, -1) translate(0, -448)" glyph-name="fuel" unicode="&#xF7C9;" horiz-adv-x="512" d=" M64 405.3333333333333H128C133.9733333333333 405.3333333333333 139.3066666666667 402.9866666666667 143.1466666666667 399.1466666666667L187.52 354.56L204.5866666666667 371.4133333333334C213.3333333333333 379.7333333333334 224 384 234.6666666666667 384H362.6666666666667C373.3333333333333 384 384 379.7333333333334 392.7466666666667 371.4133333333334L414.08 350.0800000000001C422.4 341.3333333333334 426.6666666666667 330.6666666666667 426.6666666666667 320V42.6666666666667C426.6666666666667 19.2 407.4666666666667 0 384 0H170.6666666666667C147.2 0 128 19.2 128 42.6666666666667V277.3333333333334C128 288 132.2666666666667 298.6666666666667 140.5866666666667 307.4133333333334L157.44 324.48L119.2533333333333 362.6666666666667H64V405.3333333333333M234.6666666666667 341.3333333333334V298.6666666666667H362.6666666666667V341.3333333333334H234.6666666666667M243.4133333333334 213.3333333333334L200.7466666666667 256H170.6666666666667V225.92L213.3333333333333 183.2533333333333V115.4133333333334L170.6666666666667 72.7466666666667V42.6666666666667H200.7466666666667L243.4133333333334 85.3333333333334H311.2533333333334L353.92 42.6666666666667H384V72.7466666666667L341.3333333333333 115.4133333333334V183.2533333333333L384 225.92V256H353.92L311.2533333333334 213.3333333333334H243.4133333333334M256 170.6666666666667H298.6666666666667V128H256V170.6666666666667z" /></svg>