<?xml version="1.0" encoding="UTF-8"?><!DOCTYPE svg PUBLIC "-//W3C//DTD SVG 1.1//EN" "http://www.w3.org/Graphics/SVG/1.1/DTD/svg11.dtd"><svg xmlns="http://www.w3.org/2000/svg" xmlns:xlink="http://www.w3.org/1999/xlink" version="1.1" width="512" height="512" viewBox="0 0 512 512">    <path fill="#ffffff" transform="scale(1, -1) translate(0, -448)" glyph-name="transmission-tower" unicode="&#xFD1A;" horiz-adv-x="512" d=" M176.64 331.7333333333334L138.6666666666666 350.9333333333334L165.5466666666667 405.3333333333333H346.24L373.3333333333333 350.9333333333334L335.36 331.9466666666667L320 362.6666666666667H192L176.64 331.7333333333334M397.2266666666667 277.3333333333334H300.5866666666667L283.7333333333334 341.3333333333334H228.2666666666667L211.4133333333333 277.3333333333334H114.7733333333333L87.4666666666667 222.9333333333333L125.6533333333333 203.9466666666667L141.2266666666666 234.6666666666667H370.7733333333333L386.1333333333333 203.7333333333333L424.32 222.72L397.2266666666667 277.3333333333334M379.0933333333333 -21.3333333333333H334.9333333333333L329.8133333333333 -2.1333333333333L256 108.8L181.9733333333333 -2.1333333333333L177.0666666666666 -21.3333333333333H132.9066666666667L194.56 213.3333333333334H238.7200000000001L231.04 184.5333333333334L256 147.2000000000001L280.7466666666667 184.5333333333334L273.28 213.3333333333334H317.44L379.0933333333333 -21.3333333333333M243.2 128L224 156.8L198.8266666666666 61.2266666666666L243.2 128M313.1733333333333 61.44L288 157.0133333333333L268.8 128L313.1733333333333 61.44z" /></svg>