<?xml version="1.0" encoding="UTF-8"?><!DOCTYPE svg PUBLIC "-//W3C//DTD SVG 1.1//EN" "http://www.w3.org/Graphics/SVG/1.1/DTD/svg11.dtd"><svg xmlns="http://www.w3.org/2000/svg" xmlns:xlink="http://www.w3.org/1999/xlink" version="1.1" width="512" height="512" viewBox="0 0 512 512">    <path fill="#ffffff" transform="scale(1, -1) translate(0, -448)" glyph-name="backspace-outline" unicode="&#xFB38;" horiz-adv-x="512" d=" M405.3333333333333 115.4133333333334L375.2533333333334 85.3333333333334L298.6666666666667 161.92L222.08 85.3333333333334L192 115.4133333333334L268.5866666666667 192L192 268.5866666666667L222.08 298.6666666666667L298.6666666666667 222.08L375.2533333333334 298.6666666666667L405.3333333333333 268.5866666666667L328.7466666666667 192L405.3333333333333 115.4133333333334M469.3333333333333 384C492.8 384 512 364.8 512 341.3333333333334V42.6666666666667C512 19.2 492.8 0 469.3333333333333 0H149.3333333333333C134.6133333333334 0 123.0933333333333 7.68 115.4133333333333 18.9866666666667L0 192L115.4133333333333 365.2266666666667C123.0933333333333 376.5333333333333 134.6133333333333 384 149.3333333333333 384H469.3333333333333M469.3333333333333 341.3333333333334H149.3333333333333L48.64 192L149.3333333333333 42.6666666666667H469.3333333333333V341.3333333333334z" /></svg>