<?xml version="1.0" encoding="UTF-8"?><!DOCTYPE svg PUBLIC "-//W3C//DTD SVG 1.1//EN" "http://www.w3.org/Graphics/SVG/1.1/DTD/svg11.dtd"><svg xmlns="http://www.w3.org/2000/svg" xmlns:xlink="http://www.w3.org/1999/xlink" version="1.1" width="512" height="512" viewBox="0 0 512 512">    <path fill="#ffffff" transform="scale(1, -1) translate(0, -448)" glyph-name="file-powerpoint" unicode="&#xF227;" horiz-adv-x="512" d=" M268.8 185.6H226.1333333333334V117.3333333333334H270.9333333333333C283.7333333333333 117.3333333333334 290.1333333333334 121.6 296.5333333333333 128C302.9333333333333 134.4 305.0666666666666 140.8 305.0666666666666 151.4666666666667C305.0666666666666 162.1333333333333 302.9333333333333 168.5333333333334 296.5333333333333 174.9333333333333C290.1333333333333 181.3333333333334 281.6 185.6 268.8 185.6M298.6666666666667 405.3333333333333H128C104.5333333333333 405.3333333333333 85.3333333333333 386.1333333333334 85.3333333333333 362.6666666666667V21.3333333333334C85.3333333333333 -2.1333333333333 104.5333333333333 -21.3333333333333 128 -21.3333333333333H384C407.4666666666667 -21.3333333333333 426.6666666666667 -2.1333333333333 426.6666666666667 21.3333333333334V277.3333333333334L298.6666666666667 405.3333333333333M324.2666666666667 106.6666666666667C311.4666666666667 96 300.8 91.7333333333334 273.0666666666666 91.7333333333334H226.1333333333333V21.3333333333334H192V213.3333333333334H273.0666666666667C300.8 213.3333333333334 313.6 206.9333333333333 324.2666666666667 196.2666666666667C337.0666666666667 183.4666666666667 341.3333333333333 170.6666666666667 341.3333333333333 151.4666666666667C341.3333333333333 132.2666666666667 337.0666666666667 117.3333333333334 324.2666666666667 106.6666666666667M277.3333333333333 256V373.3333333333334L394.6666666666667 256H277.3333333333333z" /></svg>