<?xml version="1.0" encoding="UTF-8"?><!DOCTYPE svg PUBLIC "-//W3C//DTD SVG 1.1//EN" "http://www.w3.org/Graphics/SVG/1.1/DTD/svg11.dtd"><svg xmlns="http://www.w3.org/2000/svg" xmlns:xlink="http://www.w3.org/1999/xlink" version="1.1" width="512" height="512" viewBox="0 0 512 512">    <path fill="#ffffff" transform="scale(1, -1) translate(0, -448)" glyph-name="paperclip" unicode="&#xF3E2;" horiz-adv-x="512" d=" M352 320V74.6666666666667C352 27.52 313.8133333333334 -10.6666666666666 266.6666666666667 -10.6666666666666S181.3333333333333 27.52 181.3333333333333 74.6666666666667V341.3333333333334C181.3333333333333 370.7733333333333 205.2266666666667 394.6666666666667 234.6666666666667 394.6666666666667S288 370.7733333333333 288 341.3333333333334V117.3333333333334C288 105.6 278.4 96 266.6666666666667 96S245.3333333333333 105.6 245.3333333333333 117.3333333333334V320H213.3333333333333V117.3333333333334C213.3333333333333 87.8933333333334 237.2266666666667 64 266.6666666666667 64S320 87.8933333333334 320 117.3333333333334V341.3333333333334C320 388.48 281.8133333333334 426.6666666666667 234.6666666666667 426.6666666666667S149.3333333333333 388.48 149.3333333333333 341.3333333333334V74.6666666666667C149.3333333333333 9.8133333333334 201.8133333333333 -42.6666666666666 266.6666666666667 -42.6666666666666S384 9.8133333333334 384 74.6666666666667V320H352z" /></svg>