<?xml version="1.0" encoding="UTF-8"?><!DOCTYPE svg PUBLIC "-//W3C//DTD SVG 1.1//EN" "http://www.w3.org/Graphics/SVG/1.1/DTD/svg11.dtd"><svg xmlns="http://www.w3.org/2000/svg" xmlns:xlink="http://www.w3.org/1999/xlink" version="1.1" width="512" height="512" viewBox="0 0 512 512">    <path fill="#ffffff" transform="scale(1, -1) translate(0, -448)" glyph-name="battery-bluetooth-variant" unicode="&#xF948;" horiz-adv-x="512" d=" M192 405.3333333333333V362.6666666666667H156.3733333333333C140.8 362.6666666666667 128 349.8666666666667 128 334.2933333333334V7.04C128 -8.5333333333333 140.8 -21.3333333333333 156.3733333333333 -21.3333333333333H355.6266666666667C371.2000000000001 -21.3333333333333 384 -8.5333333333333 384 7.04V334.2933333333334C384 349.8666666666667 371.2 362.6666666666667 355.6266666666667 362.6666666666667H320V405.3333333333333H192M252.3733333333334 277.3333333333334H263.04L323.84 216.5333333333334L278.1866666666666 170.6666666666667L323.6266666666666 125.0133333333333L263.04 64H252.3733333333334V144.8533333333334L203.52 96L188.3733333333333 111.1466666666667L247.8933333333333 170.6666666666667L188.3733333333333 230.1866666666667L203.52 245.3333333333334L252.3733333333333 196.48V277.3333333333334M273.7066666666666 236.5866666666667V196.48L293.76 216.5333333333334L273.7066666666666 236.5866666666667M273.7066666666666 144.8533333333334V104.96L293.76 125.0133333333333L273.7066666666666 144.8533333333333z" /></svg>