<?xml version="1.0" encoding="UTF-8"?><!DOCTYPE svg PUBLIC "-//W3C//DTD SVG 1.1//EN" "http://www.w3.org/Graphics/SVG/1.1/DTD/svg11.dtd"><svg xmlns="http://www.w3.org/2000/svg" xmlns:xlink="http://www.w3.org/1999/xlink" version="1.1" width="512" height="512" viewBox="0 0 512 512">    <path fill="#ffffff" transform="scale(1, -1) translate(0, -448)" glyph-name="sale" unicode="&#xF46F;" horiz-adv-x="512" d=" M397.8666666666666 387.2L410.88 304.8533333333334L485.7599999999999 266.6666666666667L448 192L485.9733333333334 117.3333333333334L410.4533333333334 79.1466666666667L397.4400000000001 -3.1999999999999L314.4533333333334 9.8133333333334L255.3600000000001 -49.0666666666666L196.0533333333334 10.6666666666667L113.7066666666667 -2.9866666666666L100.4800000000001 80.0000000000001L26.0266666666667 117.9733333333334L64 192.64L26.24 266.6666666666667L101.12 305.2800000000001L114.1333333333334 386.9866666666667L196.6933333333333 373.3333333333334L256 433.28L315.0933333333333 374.1866666666667L397.8666666666666 387.2M202.6666666666667 298.6666666666667C184.96 298.6666666666667 170.6666666666667 284.3733333333334 170.6666666666667 266.6666666666667S184.96 234.6666666666667 202.6666666666667 234.6666666666667S234.6666666666667 248.96 234.6666666666667 266.6666666666667S220.3733333333333 298.6666666666667 202.6666666666667 298.6666666666667M309.3333333333333 149.3333333333334C291.6266666666667 149.3333333333334 277.3333333333333 135.04 277.3333333333333 117.3333333333334S291.6266666666667 85.3333333333334 309.3333333333333 85.3333333333334S341.3333333333333 99.6266666666667 341.3333333333333 117.3333333333334S327.04 149.3333333333334 309.3333333333333 149.3333333333334M179.4133333333333 85.3333333333334L362.6666666666667 268.5866666666667L332.5866666666667 298.6666666666667L149.3333333333333 115.4133333333334L179.4133333333333 85.3333333333334z" /></svg>