<?xml version="1.0" encoding="UTF-8"?><!DOCTYPE svg PUBLIC "-//W3C//DTD SVG 1.1//EN" "http://www.w3.org/Graphics/SVG/1.1/DTD/svg11.dtd"><svg xmlns="http://www.w3.org/2000/svg" xmlns:xlink="http://www.w3.org/1999/xlink" version="1.1" width="512" height="512" viewBox="0 0 512 512">    <path fill="#ffffff" transform="scale(1, -1) translate(0, -448)" glyph-name="network-off" unicode="&#xFC77;" horiz-adv-x="512" d=" M21.3333333333333 335.5733333333334L106.6666666666667 250.24V128C106.6666666666667 104.5333333333333 125.8666666666667 85.3333333333334 149.3333333333333 85.3333333333334H234.6666666666667V42.6666666666667H213.3333333333333C201.6 42.6666666666667 192 33.0666666666667 192 21.3333333333334H42.6666666666667V-21.3333333333333H192C192 -33.0666666666667 201.6 -42.6666666666666 213.3333333333333 -42.6666666666666H298.6666666666667C310.4 -42.6666666666666 320 -33.0666666666667 320 -21.3333333333333H378.24L420.9066666666667 -64L448 -36.6933333333333L48.64 362.6666666666667L21.3333333333333 335.5733333333334M320 21.3333333333334C320 33.0666666666667 310.4 42.6666666666667 298.6666666666667 42.6666666666667H277.3333333333333V79.5733333333334L335.5733333333333 21.3333333333334H320M377.3866666666667 88.1066666666667L109.44 356.0533333333334C115.4133333333333 372.2666666666667 130.9866666666667 384 149.3333333333333 384H362.6666666666667C386.1333333333334 384 405.3333333333333 364.8 405.3333333333333 341.3333333333334V128C405.3333333333333 109.6533333333334 393.6 94.08 377.3866666666667 88.1066666666667M469.3333333333333 21.3333333333334V-3.84L444.16 21.3333333333334H469.3333333333333z" /></svg>