<?xml version="1.0" encoding="UTF-8"?><!DOCTYPE svg PUBLIC "-//W3C//DTD SVG 1.1//EN" "http://www.w3.org/Graphics/SVG/1.1/DTD/svg11.dtd"><svg xmlns="http://www.w3.org/2000/svg" xmlns:xlink="http://www.w3.org/1999/xlink" version="1.1" width="512" height="512" viewBox="0 0 512 512">    <path fill="#ffffff" transform="scale(1, -1) translate(0, -448)" glyph-name="train-variant" unicode="&#xF8C3;" horiz-adv-x="512" d=" M384 234.6666666666667H128V341.3333333333334H384M256 85.3333333333334C232.32 85.3333333333334 213.3333333333333 104.5333333333333 213.3333333333333 128C213.3333333333333 151.68 232.32 170.6666666666667 256 170.6666666666667C279.4666666666667 170.6666666666667 298.6666666666667 151.4666666666667 298.6666666666667 128S279.4666666666667 85.3333333333334 256 85.3333333333334M85.3333333333333 117.3333333333334C85.3333333333333 76.16 118.8266666666667 42.6666666666667 160 42.6666666666667L128 10.6666666666667V0H384V10.6666666666667L352 42.6666666666667C393.1733333333333 42.6666666666667 426.6666666666667 76.16 426.6666666666667 117.3333333333334V341.3333333333334C426.6666666666667 416 350.2933333333334 426.6666666666667 256 426.6666666666667S85.3333333333333 416 85.3333333333333 341.3333333333334V117.3333333333334z" /></svg>