<?xml version="1.0" encoding="UTF-8"?><!DOCTYPE svg PUBLIC "-//W3C//DTD SVG 1.1//EN" "http://www.w3.org/Graphics/SVG/1.1/DTD/svg11.dtd"><svg xmlns="http://www.w3.org/2000/svg" xmlns:xlink="http://www.w3.org/1999/xlink" version="1.1" width="512" height="512" viewBox="0 0 512 512">    <path fill="#ffffff" transform="scale(1, -1) translate(0, -448)" glyph-name="move-resize" unicode="&#xF655;" horiz-adv-x="512" d=" M192 426.6666666666667V405.3333333333333H213.3333333333333V341.3333333333334H192V320H256V341.3333333333334H234.6666666666667V405.3333333333333H256V426.6666666666667M192 298.6666666666667C168.32 298.6666666666667 149.3333333333333 279.68 149.3333333333333 256V0C149.3333333333333 -23.6799999999999 168.32 -42.6666666666666 192 -42.6666666666666H448C471.6799999999999 -42.6666666666666 490.6666666666666 -23.6799999999999 490.6666666666666 0V256C490.6666666666666 279.68 471.6799999999999 298.6666666666667 448 298.6666666666667M21.3333333333333 256V192H42.6666666666667V213.3333333333334H106.6666666666667V192H128V256H106.6666666666667V234.6666666666667H42.6666666666667V256M192 256H448V0H192M298.6666666666667 234.6666666666667V213.3333333333334H320V106.6666666666667H234.6666666666667V128H213.3333333333333V64H234.6666666666667V85.3333333333334H320V42.6666666666667H298.6666666666667V21.3333333333334H362.6666666666667V42.6666666666667H341.3333333333333V85.3333333333334H405.3333333333333V64H426.6666666666667V128H405.3333333333333V106.6666666666667H341.3333333333333V213.3333333333334H362.6666666666667V234.6666666666667" /></svg>