<?xml version="1.0" encoding="UTF-8"?><!DOCTYPE svg PUBLIC "-//W3C//DTD SVG 1.1//EN" "http://www.w3.org/Graphics/SVG/1.1/DTD/svg11.dtd"><svg xmlns="http://www.w3.org/2000/svg" xmlns:xlink="http://www.w3.org/1999/xlink" version="1.1" width="512" height="512" viewBox="0 0 512 512">    <path fill="#ffffff" transform="scale(1, -1) translate(0, -448)" glyph-name="nodejs" unicode="&#xF399;" horiz-adv-x="512" d=" M256 408.5333333333333C250.24 408.5333333333333 244.2666666666667 407.04 239.36 404.2666666666667L80.64 312.5333333333334C70.4 306.56 64 295.4666666666667 64 283.52V100.48C64 88.5333333333334 70.4 77.4400000000001 80.64 71.4666666666667L122.24 47.5733333333334C142.5066666666667 37.76 149.3333333333333 37.5466666666667 158.72 37.5466666666667C188.5866666666667 37.5466666666667 205.8666666666667 55.6800000000001 205.8666666666667 87.2533333333335V267.9466666666667C205.8666666666667 270.5066666666667 203.7333333333334 272.6400000000001 201.1733333333333 272.6400000000001H181.3333333333333C178.56 272.6400000000001 176.4266666666667 270.5066666666667 176.4266666666667 267.9466666666667V87.2533333333333C176.4266666666667 73.1733333333334 161.92 59.3066666666667 138.6666666666667 71.04L94.9333333333333 96C93.44 97.0666666666667 92.5866666666667 98.7733333333333 92.5866666666667 100.48V283.52C92.5866666666667 285.44 93.44 287.1466666666667 94.9333333333333 288L253.6533333333334 379.52C254.9333333333334 380.3733333333334 257.0666666666667 380.3733333333334 258.3466666666667 379.52L417.0666666666667 288C418.56 287.1466666666667 419.4133333333333 285.44 419.4133333333333 283.52V100.48C419.4133333333333 98.7733333333334 418.56 97.0666666666667 417.0666666666667 96L258.3466666666667 4.48C257.0666666666666 3.6266666666667 254.9333333333333 3.6266666666667 253.44 4.48L213.3333333333333 28.8000000000001C211.6266666666667 29.4400000000001 209.92 29.6533333333334 208.8533333333333 29.0133333333334C197.5466666666667 22.6133333333334 195.4133333333333 21.3333333333334 184.96 18.1333333333334C182.4 17.2800000000001 178.3466666666666 15.7866666666667 186.4533333333333 11.3066666666667L239.36 -20.0533333333333C244.48 -23.04 250.0266666666667 -24.5333333333333 256 -24.5333333333333S267.52 -23.04 272.64 -20.0533333333333L431.36 71.4666666666667C441.6 77.4400000000001 448 88.5333333333334 448 100.48V283.52C448 295.4666666666667 441.6 306.56 431.36 312.5333333333334L272.64 404.2666666666667C267.7333333333333 407.04 261.9733333333333 408.5333333333334 256 408.5333333333334M298.6666666666667 277.3333333333334C253.44 277.3333333333334 226.3466666666667 258.3466666666667 226.3466666666667 226.3466666666667C226.3466666666667 192 253.2266666666667 181.9733333333334 296.7466666666667 177.7066666666667C348.5866666666667 172.5866666666667 352.64 164.9066666666667 352.64 154.6666666666667C352.64 136.96 338.3466666666667 129.4933333333334 305.0666666666667 129.4933333333334C262.8266666666667 129.4933333333334 253.8666666666667 139.9466666666667 250.6666666666667 160.8533333333334C250.24 162.9866666666667 248.32 164.6933333333334 245.9733333333333 164.6933333333334H225.4933333333334C222.9333333333333 164.6933333333334 221.0133333333333 162.7733333333334 221.0133333333333 160C221.0133333333333 133.5466666666667 235.52 101.5466666666666 305.0666666666666 101.5466666666666C355.2 101.5466666666666 384 121.3866666666667 384 155.9466666666667C384 190.2933333333333 360.9600000000001 199.2533333333333 312.1066666666667 205.8666666666667C262.8266666666666 212.2666666666667 257.92 215.68 257.92 227.2C257.92 236.8 262.1866666666666 249.6 298.6666666666667 249.6C330.6666666666667 249.6 343.2533333333334 242.56 348.16 220.5866666666667C348.5866666666667 218.4533333333334 350.5066666666667 216.96 352.64 216.96H373.3333333333333C374.4 216.96 375.68 217.3866666666667 376.5333333333333 218.4533333333334C377.3866666666666 219.3066666666667 378.0266666666667 220.5866666666667 377.6 221.8666666666667C374.6133333333333 259.8400000000001 349.44 277.3333333333334 298.6666666666667 277.3333333333334z" /></svg>