<?xml version="1.0" encoding="UTF-8"?><!DOCTYPE svg PUBLIC "-//W3C//DTD SVG 1.1//EN" "http://www.w3.org/Graphics/SVG/1.1/DTD/svg11.dtd"><svg xmlns="http://www.w3.org/2000/svg" xmlns:xlink="http://www.w3.org/1999/xlink" version="1.1" width="512" height="512" viewBox="0 0 512 512">    <path fill="#ffffff" transform="scale(1, -1) translate(0, -448)" glyph-name="satellite-uplink" unicode="&#xF908;" horiz-adv-x="512" d=" M253.0133333333333 405.3333333333333L241.92 364.1600000000001C336 346.0266666666667 409.6 272.4266666666667 427.7333333333334 178.1333333333333L469.3333333333333 189.2266666666667C446.9333333333333 298.0266666666667 361.8133333333334 383.1466666666667 253.0133333333333 405.3333333333333M230.8266666666667 322.9866666666667L219.7333333333334 281.3866666666667C284.5866666666667 271.5733333333334 335.36 220.8000000000001 345.1733333333333 156.16L386.56 167.2533333333333C372.48 246.6133333333334 310.4 309.3333333333334 230.8266666666667 322.9866666666667M79.36 241.28C69.3333333333333 219.0933333333333 64 194.9866666666667 64 170.6666666666667C64 129.0666666666667 79.1466666666667 89.1733333333334 106.6666666666667 58.0266666666666V-21.3333333333333H170.6666666666667V12.5866666666667C190.9333333333333 4.2666666666667 212.6933333333333 0 234.6666666666667 0C258.9866666666667 0 283.0933333333333 5.3333333333334 305.0666666666667 15.36L79.36 241.2800000000001M208.8533333333334 239.7866666666667L197.5466666666667 197.9733333333334C232.9600000000001 197.9733333333334 261.5466666666667 169.3866666666667 261.5466666666667 133.9733333333334L303.5733333333334 145.0666666666667C298.6666666666667 194.9866666666667 258.7733333333334 234.6666666666667 208.8533333333334 239.7866666666667z" /></svg>