<?xml version="1.0" encoding="UTF-8"?><!DOCTYPE svg PUBLIC "-//W3C//DTD SVG 1.1//EN" "http://www.w3.org/Graphics/SVG/1.1/DTD/svg11.dtd"><svg xmlns="http://www.w3.org/2000/svg" xmlns:xlink="http://www.w3.org/1999/xlink" version="1.1" width="512" height="512" viewBox="0 0 512 512">    <path fill="#ffffff" transform="scale(1, -1) translate(0, -448)" glyph-name="crosshairs-gps" unicode="&#xF1A4;" horiz-adv-x="512" d=" M256 277.3333333333334C303.1466666666667 277.3333333333334 341.3333333333333 239.1466666666667 341.3333333333333 192S303.1466666666667 106.6666666666667 256 106.6666666666667S170.6666666666667 144.8533333333334 170.6666666666667 192S208.8533333333333 277.3333333333334 256 277.3333333333334M65.0666666666667 170.6666666666667H21.3333333333333V213.3333333333334H65.0666666666667C74.6666666666667 302.2933333333334 145.7066666666667 373.3333333333334 234.6666666666667 382.9333333333334V426.6666666666667H277.3333333333333V382.9333333333334C366.2933333333334 373.3333333333334 437.3333333333333 302.2933333333334 446.9333333333333 213.3333333333334H490.6666666666666V170.6666666666667H446.9333333333333C437.3333333333333 81.7066666666667 366.2933333333333 10.6666666666667 277.3333333333333 1.0666666666667V-42.6666666666666H234.6666666666667V1.0666666666667C145.7066666666667 10.6666666666667 74.6666666666667 81.7066666666667 65.0666666666667 170.6666666666667M256 341.3333333333334C173.44 341.3333333333334 106.6666666666667 274.5600000000001 106.6666666666667 192S173.44 42.6666666666667 256 42.6666666666667S405.3333333333333 109.44 405.3333333333333 192S338.56 341.3333333333334 256 341.3333333333334z" /></svg>