<?xml version="1.0" encoding="UTF-8"?><!DOCTYPE svg PUBLIC "-//W3C//DTD SVG 1.1//EN" "http://www.w3.org/Graphics/SVG/1.1/DTD/svg11.dtd"><svg xmlns="http://www.w3.org/2000/svg" xmlns:xlink="http://www.w3.org/1999/xlink" version="1.1" width="512" height="512" viewBox="0 0 512 512">    <path fill="#ffffff" transform="scale(1, -1) translate(0, -448)" glyph-name="vector-square" unicode="&#xF001;" horiz-adv-x="512" d=" M42.6666666666667 405.3333333333333H170.6666666666667V362.6666666666667H341.3333333333333V405.3333333333333H469.3333333333333V277.3333333333334H426.6666666666667V106.6666666666667H469.3333333333333V-21.3333333333333H341.3333333333333V21.3333333333334H170.6666666666667V-21.3333333333333H42.6666666666667V106.6666666666667H85.3333333333333V277.3333333333334H42.6666666666667V405.3333333333333M341.3333333333333 277.3333333333334V320H170.6666666666667V277.3333333333334H128V106.6666666666667H170.6666666666667V64H341.3333333333333V106.6666666666667H384V277.3333333333334H341.3333333333333M85.3333333333333 362.6666666666667V320H128V362.6666666666667H85.3333333333333M384 362.6666666666667V320H426.6666666666667V362.6666666666667H384M85.3333333333333 64V21.3333333333334H128V64H85.3333333333333M384 64V21.3333333333334H426.6666666666667V64H384z" /></svg>