<?xml version="1.0" encoding="UTF-8"?><!DOCTYPE svg PUBLIC "-//W3C//DTD SVG 1.1//EN" "http://www.w3.org/Graphics/SVG/1.1/DTD/svg11.dtd"><svg xmlns="http://www.w3.org/2000/svg" xmlns:xlink="http://www.w3.org/1999/xlink" version="1.1" width="512" height="512" viewBox="0 0 512 512">    <path fill="#ffffff" transform="scale(1, -1) translate(0, -448)" glyph-name="gif" unicode="&#xFD54;" horiz-adv-x="512" d=" M234.6666666666667 277.3333333333334H277.3333333333333V106.6666666666667H234.6666666666667V277.3333333333334M163.6266666666667 277.3333333333334H92.3733333333333C75.3066666666667 277.3333333333334 64 263.04 64 248.96V135.04C64 120.96 75.3066666666667 106.6666666666667 92.3733333333333 106.6666666666667H163.6266666666667C180.6933333333333 106.6666666666667 192 120.96 192 135.04V192H149.3333333333333V149.3333333333334H106.6666666666667V234.6666666666667H192V248.96C192 263.04 180.6933333333333 277.3333333333334 163.6266666666667 277.3333333333334M448 234.6666666666667V277.3333333333334H320V106.6666666666667H362.6666666666667V149.3333333333334H416V192H362.6666666666667V234.6666666666667H448z" /></svg>