<?xml version="1.0" encoding="UTF-8"?><!DOCTYPE svg PUBLIC "-//W3C//DTD SVG 1.1//EN" "http://www.w3.org/Graphics/SVG/1.1/DTD/svg11.dtd"><svg xmlns="http://www.w3.org/2000/svg" xmlns:xlink="http://www.w3.org/1999/xlink" version="1.1" width="512" height="512" viewBox="0 0 512 512">    <path fill="#ffffff" transform="scale(1, -1) translate(0, -448)" glyph-name="printer-off" unicode="&#xFE40;" horiz-adv-x="512" d=" M128 384V358.8266666666667L188.16 298.6666666666667H384V384H128M48.64 384L21.3333333333333 356.9066666666667L101.3333333333333 277.3333333333334C68.0533333333333 274.1333333333334 42.6666666666667 246.6133333333334 42.6666666666667 213.3333333333334V85.3333333333334H128V0H378.24L420.9066666666667 -42.6666666666666L448 -15.36L48.64 384M209.4933333333334 277.3333333333334L401.4933333333334 85.3333333333334H469.3333333333333V213.3333333333334C469.3333333333333 248.7466666666667 440.7466666666667 277.3333333333334 405.3333333333333 277.3333333333334H209.4933333333334M405.3333333333333 234.6666666666667C417.0666666666667 234.6666666666667 426.6666666666667 225.0666666666667 426.6666666666667 213.3333333333334S417.0666666666667 192 405.3333333333333 192S384 201.6 384 213.3333333333334S393.6 234.6666666666667 405.3333333333333 234.6666666666667M170.6666666666667 149.3333333333334H228.9066666666667L335.5733333333333 42.6666666666667H170.6666666666667V149.3333333333334z" /></svg>