<?xml version="1.0" encoding="UTF-8"?><!DOCTYPE svg PUBLIC "-//W3C//DTD SVG 1.1//EN" "http://www.w3.org/Graphics/SVG/1.1/DTD/svg11.dtd"><svg xmlns="http://www.w3.org/2000/svg" xmlns:xlink="http://www.w3.org/1999/xlink" version="1.1" width="512" height="512" viewBox="0 0 512 512">    <path fill="#ffffff" transform="scale(1, -1) translate(0, -448)" glyph-name="camera-enhance-outline" unicode="&#xFB46;" horiz-adv-x="512" d=" M256 234.6666666666667L235.9466666666667 190.72L192 170.6666666666667L235.9466666666667 150.6133333333334L256 106.6666666666667L276.0533333333333 150.6133333333334L320 170.6666666666667L276.0533333333333 190.72L256 234.6666666666667M426.6666666666667 341.3333333333334H359.04L320 384H192L152.96 341.3333333333334H85.3333333333333C61.8666666666667 341.3333333333334 42.6666666666667 322.1333333333334 42.6666666666667 298.6666666666667V42.6666666666667C42.6666666666667 19.2 61.8666666666667 0 85.3333333333333 0H426.6666666666667C450.1333333333334 0 469.3333333333333 19.2 469.3333333333333 42.6666666666667V298.6666666666667C469.3333333333333 322.1333333333334 450.1333333333334 341.3333333333334 426.6666666666667 341.3333333333334M426.6666666666667 42.6666666666667H85.3333333333333V298.6666666666667H171.7333333333334L184.32 312.5333333333334L210.7733333333334 341.3333333333334H301.2266666666667L327.68 312.5333333333334L340.2666666666667 298.6666666666667H426.6666666666667V42.6666666666667M256 277.3333333333334C197.12 277.3333333333334 149.3333333333333 229.5466666666667 149.3333333333333 170.6666666666667S197.12 64 256 64S362.6666666666667 111.7866666666667 362.6666666666667 170.6666666666667S314.88 277.3333333333334 256 277.3333333333334M256 106.6666666666667C220.5866666666667 106.6666666666667 192 135.2533333333333 192 170.6666666666667S220.5866666666667 234.6666666666667 256 234.6666666666667S320 206.08 320 170.6666666666667S291.4133333333333 106.6666666666667 256 106.6666666666667z" /></svg>