<?xml version="1.0" encoding="UTF-8"?><!DOCTYPE svg PUBLIC "-//W3C//DTD SVG 1.1//EN" "http://www.w3.org/Graphics/SVG/1.1/DTD/svg11.dtd"><svg xmlns="http://www.w3.org/2000/svg" xmlns:xlink="http://www.w3.org/1999/xlink" version="1.1" width="512" height="512" viewBox="0 0 512 512">    <path fill="#ffffff" transform="scale(1, -1) translate(0, -448)" glyph-name="square-inc" unicode="&#xF4CA;" horiz-adv-x="512" d=" M128 384H384C419.4133333333333 384 448 355.4133333333334 448 320V64C448 28.5866666666667 419.4133333333333 0 384 0H128C92.5866666666667 0 64 28.5866666666667 64 64V320C64 355.4133333333334 92.5866666666667 384 128 384M149.3333333333333 320C137.6 320 128 310.4 128 298.6666666666667V85.3333333333334C128 73.6 137.6 64 149.3333333333333 64H362.6666666666667C374.4 64 384 73.6 384 85.3333333333334V298.6666666666667C384 310.4 374.4 320 362.6666666666667 320H149.3333333333333M202.6666666666667 256H309.3333333333333C315.3066666666666 256 320 251.3066666666667 320 245.3333333333334V138.6666666666667C320 132.6933333333334 315.3066666666666 128 309.3333333333333 128H202.6666666666667C196.6933333333333 128 192 132.6933333333334 192 138.6666666666667V245.3333333333334C192 251.3066666666667 196.6933333333333 256 202.6666666666667 256z" /></svg>