<?xml version="1.0" encoding="UTF-8"?><!DOCTYPE svg PUBLIC "-//W3C//DTD SVG 1.1//EN" "http://www.w3.org/Graphics/SVG/1.1/DTD/svg11.dtd"><svg xmlns="http://www.w3.org/2000/svg" xmlns:xlink="http://www.w3.org/1999/xlink" version="1.1" width="512" height="512" viewBox="0 0 512 512">    <path fill="#ffffff" transform="scale(1, -1) translate(0, -448)" glyph-name="alert-octagram-outline" unicode="&#xFCC3;" horiz-adv-x="512" d=" M46.9333333333333 105.3866666666667L82.7733333333333 192L46.9333333333333 278.6133333333334L133.5466666666667 314.4533333333333L169.3866666666667 401.0666666666667L256 365.2266666666667L342.6133333333333 401.0666666666667L378.4533333333333 314.4533333333334L465.0666666666666 278.6133333333334L429.2266666666667 192L465.0666666666667 105.3866666666667L378.4533333333334 69.5466666666667L342.6133333333334 -17.0666666666666L256 18.7733333333333L169.3866666666667 -17.0666666666667L133.5466666666667 69.5466666666666L46.9333333333334 105.3866666666667M102.6133333333333 256L129.0666666666667 192L102.6133333333333 128L166.1866666666667 102.1866666666667L192 38.6133333333333L256 65.0666666666666L320 38.6133333333333L345.8133333333334 102.1866666666667L409.3866666666667 128L382.9333333333334 192L409.3866666666667 256L345.8133333333334 281.8133333333334L320 345.3866666666667L256 318.9333333333334L192 345.3866666666667L166.1866666666667 281.8133333333334L102.6133333333333 256M234.6666666666667 128H277.3333333333333V85.3333333333334H234.6666666666667V128M234.6666666666667 298.6666666666667H277.3333333333333V170.6666666666667H234.6666666666667V298.6666666666667" /></svg>