<?xml version="1.0" encoding="UTF-8"?><!DOCTYPE svg PUBLIC "-//W3C//DTD SVG 1.1//EN" "http://www.w3.org/Graphics/SVG/1.1/DTD/svg11.dtd"><svg xmlns="http://www.w3.org/2000/svg" xmlns:xlink="http://www.w3.org/1999/xlink" version="1.1" width="512" height="512" viewBox="0 0 512 512">    <path fill="#ffffff" transform="scale(1, -1) translate(0, -448)" glyph-name="calendar-search" unicode="&#xF94B;" horiz-adv-x="512" d=" M330.6666666666667 192C384 192 426.6666666666667 149.3333333333334 426.6666666666667 96C426.6666666666667 77.2266666666667 421.3333333333333 59.52 411.9466666666666 44.8000000000001L477.6533333333333 -21.3333333333333L448 -50.9866666666667L381.44 14.5066666666667C366.7199999999999 5.3333333333334 349.2266666666666 0 330.6666666666667 0C277.3333333333333 0 234.6666666666667 42.6666666666667 234.6666666666667 96S277.3333333333333 192 330.6666666666667 192M330.6666666666667 149.3333333333334C301.2266666666667 149.3333333333334 277.3333333333333 125.44 277.3333333333333 96S301.2266666666667 42.6666666666667 330.6666666666667 42.6666666666667S384 66.5600000000001 384 96S360.1066666666667 149.3333333333334 330.6666666666667 149.3333333333334M405.3333333333333 277.3333333333334H106.6666666666667V42.6666666666667H202.6666666666667C209.28 26.6666666666667 218.88 12.3733333333333 230.6133333333334 0H106.6666666666667C82.9866666666667 0 64 19.2 64 42.6666666666667V341.3333333333334C64 365.0133333333333 82.9866666666667 384 106.6666666666667 384H128V426.6666666666667H170.6666666666667V384H341.3333333333333V426.6666666666667H384V384H405.3333333333333C428.8 384 448 364.8 448 341.3333333333334V170.0266666666667C437.3333333333333 187.3066666666667 422.4 201.8133333333334 405.3333333333333 213.3333333333334V277.3333333333334z" /></svg>