<?xml version="1.0" encoding="UTF-8"?><!DOCTYPE svg PUBLIC "-//W3C//DTD SVG 1.1//EN" "http://www.w3.org/Graphics/SVG/1.1/DTD/svg11.dtd"><svg xmlns="http://www.w3.org/2000/svg" xmlns:xlink="http://www.w3.org/1999/xlink" version="1.1" width="512" height="512" viewBox="0 0 512 512">    <path fill="#ffffff" transform="scale(1, -1) translate(0, -448)" glyph-name="account-box" unicode="&#xF006;" horiz-adv-x="512" d=" M128 85.3333333333334C128 128 213.3333333333333 151.4666666666667 256 151.4666666666667S384 128 384 85.3333333333334V64H128M320 256C320 220.5866666666667 291.4133333333333 192 256 192S192 220.5866666666667 192 256S220.5866666666667 320 256 320S320 291.4133333333334 320 256M64 341.3333333333334V42.6666666666667C64 19.2 83.2 0 106.6666666666667 0H405.3333333333333C428.8 0 448 19.2 448 42.6666666666667V341.3333333333334C448 364.8 428.8 384 405.3333333333333 384H106.6666666666667C82.9866666666667 384 64 364.8 64 341.3333333333334z" /></svg>