<?xml version="1.0" encoding="UTF-8"?><!DOCTYPE svg PUBLIC "-//W3C//DTD SVG 1.1//EN" "http://www.w3.org/Graphics/SVG/1.1/DTD/svg11.dtd"><svg xmlns="http://www.w3.org/2000/svg" xmlns:xlink="http://www.w3.org/1999/xlink" version="1.1" width="512" height="512" viewBox="0 0 512 512">    <path fill="#ffffff" transform="scale(1, -1) translate(0, -448)" glyph-name="xbox-controller" unicode="&#xF5BA;" horiz-adv-x="512" d=" M186.6666666666667 112C144 112 128 64 85.3333333333333 42.6666666666667C42.6666666666667 42.6666666666667 10.6666666666667 106.6666666666667 96 288H101.3333333333333L110.72 305.7066666666667S170.6666666666667 341.3333333333334 199.04 315.0933333333334H312.96C341.3333333333333 341.3333333333334 401.28 305.7066666666667 401.28 305.7066666666667L410.6666666666667 288H416C501.3333333333333 106.6666666666667 469.3333333333333 42.6666666666667 426.6666666666667 42.6666666666667C384 64 368 112 325.3333333333333 112H186.6666666666667M256 298.6666666666667C244.2666666666667 298.6666666666667 234.6666666666667 289.0666666666667 234.6666666666667 277.3333333333334S244.2666666666667 256 256 256S277.3333333333333 265.6 277.3333333333333 277.3333333333334S267.7333333333334 298.6666666666667 256 298.6666666666667z" /></svg>