<?xml version="1.0" encoding="UTF-8"?><!DOCTYPE svg PUBLIC "-//W3C//DTD SVG 1.1//EN" "http://www.w3.org/Graphics/SVG/1.1/DTD/svg11.dtd"><svg xmlns="http://www.w3.org/2000/svg" xmlns:xlink="http://www.w3.org/1999/xlink" version="1.1" width="512" height="512" viewBox="0 0 512 512">    <path fill="#ffffff" transform="scale(1, -1) translate(0, -448)" glyph-name="unreal" unicode="&#xF9B0;" horiz-adv-x="512" d=" M42.6666666666667 192C42.6666666666667 74.24 138.24 -21.3333333333333 256 -21.3333333333333S469.3333333333333 74.24 469.3333333333333 192S373.76 405.3333333333333 256 405.3333333333333S42.6666666666667 309.76 42.6666666666667 192M111.7866666666667 47.7866666666668C73.1733333333333 86.4 52.0533333333333 137.6000000000001 52.0533333333333 192.0000000000001S73.1733333333334 297.6 111.7866666666667 336.2133333333334C150.4 374.8266666666667 201.6 395.9466666666667 256 395.9466666666667S361.6 374.8266666666667 400.2133333333333 336.2133333333334C438.8266666666666 297.6 459.9466666666666 246.4000000000001 459.9466666666666 192.0000000000001S438.8266666666667 86.4 400.2133333333333 47.7866666666668C361.6 9.1733333333334 310.3999999999999 -11.9466666666666 256 -11.9466666666666S150.4 9.1733333333333 111.7866666666666 47.7866666666668M135.4666666666667 245.3333333333334C92.5866666666667 196.48 100.9066666666667 156.16 100.9066666666667 156.16S112.64 183.8933333333334 141.0133333333333 213.3333333333334C154.6666666666666 226.7733333333334 164.6933333333333 231.4666666666667 171.52 231.4666666666667C179.2 231.4666666666667 182.8266666666666 225.92 182.8266666666666 220.8V121.8133333333334C182.8266666666666 112 176.4266666666666 109.8666666666667 170.6666666666666 110.08C165.7599999999999 110.08 161.0666666666666 111.7866666666667 161.0666666666666 111.7866666666667C190.2933333333333 69.76 260.0533333333333 64 260.0533333333333 64L290.7733333333333 96H291.6266666666666L320 71.8933333333334C370.9866666666667 102.1866666666667 395.7333333333334 158.2933333333334 395.7333333333334 158.2933333333334C373.3333333333333 134.4 358.1866666666666 128.6400000000001 349.6533333333333 128.8533333333334C341.9733333333334 128.8533333333334 338.7733333333333 133.3333333333334 338.7733333333333 133.3333333333334C338.56 135.4666666666668 337.4933333333334 258.1333333333335 338.9866666666667 258.1333333333335C347.9466666666667 274.5600000000001 376.1066666666667 308.0533333333334 376.1066666666667 308.0533333333334C323.4133333333333 297.6000000000001 294.6133333333333 263.2533333333335 294.6133333333333 263.2533333333335C286.08 269.8666666666668 268.5866666666666 268.8000000000001 268.5866666666666 268.8000000000001C276.6933333333333 264.3200000000001 284.8 251.5200000000001 284.8 240.6400000000001V135.4666666666668S266.6666666666667 119.8933333333334 253.44 119.8933333333334C245.3333333333333 119.8933333333334 240.4266666666666 124.3733333333335 237.6533333333333 128.0000000000001C235.7333333333333 130.5600000000001 234.6666666666666 132.4800000000001 234.6666666666666 132.4800000000001V262.6133333333335C233.1733333333333 261.3333333333335 230.8266666666666 260.2666666666668 228.48 260.2666666666668C225.4933333333333 260.4800000000002 222.5066666666666 261.7600000000001 220.5866666666666 266.0266666666668C218.88 269.2266666666668 218.0266666666667 274.1333333333335 218.0266666666667 280.9600000000001C218.0266666666667 305.0666666666668 245.3333333333333 320.8533333333335 245.3333333333333 320.8533333333335C210.56 311.6800000000001 178.3466666666666 293.9733333333335 135.4666666666666 245.3333333333335" /></svg>