<?xml version="1.0" encoding="UTF-8"?><!DOCTYPE svg PUBLIC "-//W3C//DTD SVG 1.1//EN" "http://www.w3.org/Graphics/SVG/1.1/DTD/svg11.dtd"><svg xmlns="http://www.w3.org/2000/svg" xmlns:xlink="http://www.w3.org/1999/xlink" version="1.1" width="512" height="512" viewBox="0 0 512 512">    <path fill="#ffffff" transform="scale(1, -1) translate(0, -448)" glyph-name="usb" unicode="&#xF553;" horiz-adv-x="512" d=" M320 298.6666666666667V213.3333333333334H341.3333333333333V170.6666666666667H277.3333333333333V341.3333333333334H320L256 426.6666666666667L192 341.3333333333334H234.6666666666667V170.6666666666667H170.6666666666667V214.8266666666667C185.6 222.72 196.2666666666667 237.8666666666667 196.2666666666667 256C196.2666666666667 282.0266666666667 175.1466666666667 302.9333333333334 149.3333333333333 302.9333333333334C123.3066666666667 302.9333333333334 102.4 282.0266666666667 102.4 256C102.4 237.8666666666667 113.0666666666666 222.72 128 214.8266666666667V170.6666666666667C128 147.2000000000001 147.2 128 170.6666666666666 128H234.6666666666667V62.9333333333333C219.52 55.2533333333333 209.0666666666667 39.4666666666666 209.0666666666667 21.3333333333334C209.0666666666667 -4.6933333333333 229.9733333333334 -25.6 256 -25.6C282.0266666666667 -25.6 302.9333333333333 -4.6933333333333 302.9333333333333 21.3333333333334C302.9333333333333 39.4666666666667 292.48 55.2533333333333 277.3333333333333 62.9333333333333V128H341.3333333333333C364.8 128 384 147.2000000000001 384 170.6666666666667V213.3333333333334H405.3333333333333V298.6666666666667H320z" /></svg>