<?xml version="1.0" encoding="UTF-8"?><!DOCTYPE svg PUBLIC "-//W3C//DTD SVG 1.1//EN" "http://www.w3.org/Graphics/SVG/1.1/DTD/svg11.dtd"><svg xmlns="http://www.w3.org/2000/svg" xmlns:xlink="http://www.w3.org/1999/xlink" version="1.1" width="512" height="512" viewBox="0 0 512 512">    <path fill="#ffffff" transform="scale(1, -1) translate(0, -448)" glyph-name="eventbrite" unicode="&#xF7C6;" horiz-adv-x="512" d=" M256 74.6666666666667C216.5333333333333 74.6666666666667 179.6266666666667 94.72 158.08 128L371.4133333333333 176L471.04 197.3333333333334C470.3999999999999 227.84 463.1466666666666 257.7066666666667 449.7066666666666 285.0133333333333C398.08 392.32 269.2266666666667 437.3333333333333 161.7066666666667 385.7066666666667C54.4 334.0800000000001 9.3866666666667 205.2266666666667 61.0133333333333 97.92C112.8533333333333 -9.3866666666667 241.7066666666667 -54.6133333333333 349.0133333333333 -2.9866666666667C394.6666666666667 19.4133333333334 432 57.3866666666667 452.6933333333333 104.3200000000001L354.3466666666667 128C332.8 94.5066666666667 295.68 74.6666666666667 256 74.6666666666667M256 309.3333333333334C293.5466666666666 309.3333333333334 328.7466666666667 291.4133333333334 350.7200000000001 260.9066666666667L140.16 209.28C148.48 266.6666666666667 197.9733333333333 309.3333333333334 256 309.3333333333334z" /></svg>