<?xml version="1.0" encoding="UTF-8"?><!DOCTYPE svg PUBLIC "-//W3C//DTD SVG 1.1//EN" "http://www.w3.org/Graphics/SVG/1.1/DTD/svg11.dtd"><svg xmlns="http://www.w3.org/2000/svg" xmlns:xlink="http://www.w3.org/1999/xlink" version="1.1" width="512" height="512" viewBox="0 0 512 512">    <path fill="#ffffff" transform="scale(1, -1) translate(0, -448)" glyph-name="tree-outline" unicode="&#xFE4C;" horiz-adv-x="512" d=" M224 384C170.6666666666667 384 128 341.3333333333334 128 288C128 274.9866666666667 130.7733333333333 262.1866666666667 135.8933333333333 250.24C117.3333333333333 232.1066666666667 106.6666666666667 207.36 106.6666666666667 181.3333333333334C106.6666666666667 128 149.3333333333333 85.3333333333334 202.6666666666667 85.3333333333334C213.3333333333333 85.3333333333334 224 87.68 234.6666666666667 91.3066666666667V0H277.3333333333333V111.5733333333334C288 108.5866666666667 298.6666666666667 106.6666666666667 309.3333333333333 106.6666666666667C374.1866666666666 106.6666666666667 426.6666666666667 159.1466666666667 426.6666666666667 224S374.1866666666666 341.3333333333334 309.3333333333333 341.3333333333334H303.7866666666667C286.08 367.7866666666667 256 384 224 384M224 341.3333333333334C252.16 341.3333333333334 275.4133333333333 319.36 277.3333333333333 291.2000000000001C287.1466666666667 296.1066666666667 298.6666666666667 298.6666666666667 309.3333333333333 298.6666666666667C350.5066666666667 298.6666666666667 384 265.1733333333334 384 224S350.5066666666667 149.3333333333334 309.3333333333333 149.3333333333334C288.8533333333333 149.3333333333334 269.44 157.6533333333334 255.1466666666667 172.5866666666667C250.88 146.7733333333333 228.6933333333334 128 202.6666666666667 128C173.2266666666666 128 149.3333333333333 151.8933333333333 149.3333333333333 181.3333333333334S166.4 223.1466666666667 192 239.1466666666667C174.9333333333333 261.12 170.6666666666667 273.92 170.6666666666667 288C170.6666666666667 317.44 194.56 341.3333333333334 224 341.3333333333334z" /></svg>