<?xml version="1.0" encoding="UTF-8"?><!DOCTYPE svg PUBLIC "-//W3C//DTD SVG 1.1//EN" "http://www.w3.org/Graphics/SVG/1.1/DTD/svg11.dtd"><svg xmlns="http://www.w3.org/2000/svg" xmlns:xlink="http://www.w3.org/1999/xlink" version="1.1" width="512" height="512" viewBox="0 0 512 512">    <path fill="#ffffff" transform="scale(1, -1) translate(0, -448)" glyph-name="nfc-variant" unicode="&#xF398;" horiz-adv-x="512" d=" M384 320H277.3333333333333C253.8666666666667 320 234.6666666666667 300.8 234.6666666666667 277.3333333333334V228.6933333333334C222.08 221.44 213.3333333333333 207.7866666666667 213.3333333333333 192C213.3333333333333 168.5333333333334 232.5333333333334 149.3333333333334 256 149.3333333333334C279.68 149.3333333333334 298.6666666666667 168.5333333333334 298.6666666666667 192C298.6666666666667 207.7866666666667 290.1333333333334 221.44 277.3333333333333 228.6933333333334V277.3333333333334H341.3333333333333V106.6666666666667H170.6666666666667V277.3333333333334H213.3333333333333V320H128V64H384M426.6666666666667 21.3333333333334H85.3333333333333V362.6666666666667H426.6666666666667M426.6666666666667 405.3333333333333H85.3333333333333C61.8666666666667 405.3333333333333 42.6666666666667 386.1333333333334 42.6666666666667 362.6666666666667V21.3333333333334C42.6666666666667 -2.1333333333333 61.8666666666667 -21.3333333333333 85.3333333333333 -21.3333333333333H426.6666666666667C450.3466666666667 -21.3333333333333 469.3333333333333 -2.1333333333333 469.3333333333333 21.3333333333334V362.6666666666667C469.3333333333333 386.3466666666667 450.3466666666667 405.3333333333333 426.6666666666667 405.3333333333333z" /></svg>