<?xml version="1.0" encoding="UTF-8"?><!DOCTYPE svg PUBLIC "-//W3C//DTD SVG 1.1//EN" "http://www.w3.org/Graphics/SVG/1.1/DTD/svg11.dtd"><svg xmlns="http://www.w3.org/2000/svg" xmlns:xlink="http://www.w3.org/1999/xlink" version="1.1" width="512" height="512" viewBox="0 0 512 512">    <path fill="#ffffff" transform="scale(1, -1) translate(0, -448)" glyph-name="car-limousine" unicode="&#xF8CC;" horiz-adv-x="512" d=" M21.3333333333333 320L53.3333333333333 288L21.3333333333333 256L53.3333333333333 224L21.3333333333333 192L53.3333333333333 160L21.3333333333333 128H320C320 92.5866666666667 348.5866666666667 64 384 64S448 92.5866666666667 448 128H490.6666666666666V192C490.6666666666666 215.68 471.6799999999999 234.6666666666667 448 234.6666666666667H405.3333333333333L341.3333333333333 320H21.3333333333333M98.56 288H224V234.6666666666667H87.8933333333333L66.56 256L98.56 288M256 288H330.6666666666667L372.48 234.6666666666667H256V288M384 160C401.7066666666666 160 416 145.7066666666667 416 128S401.7066666666666 96 384 96S352 110.2933333333334 352 128S366.2933333333334 160 384 160z" /></svg>