<?xml version="1.0" encoding="UTF-8"?><!DOCTYPE svg PUBLIC "-//W3C//DTD SVG 1.1//EN" "http://www.w3.org/Graphics/SVG/1.1/DTD/svg11.dtd"><svg xmlns="http://www.w3.org/2000/svg" xmlns:xlink="http://www.w3.org/1999/xlink" version="1.1" width="512" height="512" viewBox="0 0 512 512">    <path fill="#ffffff" transform="scale(1, -1) translate(0, -448)" glyph-name="bugle" unicode="&#xFD90;" horiz-adv-x="512" d=" M448 320C448 213.3333333333334 256 213.3333333333334 256 213.3333333333334H106.6666666666667C85.3333333333333 213.3333333333334 64 234.6666666666667 64 234.6666666666667H42.6666666666667V149.3333333333334H64S85.3333333333333 170.6666666666667 106.6666666666667 170.6666666666667H134.4C117.3333333333333 160 106.6666666666667 145.0666666666667 106.6666666666667 128C106.6666666666667 89.6 155.7333333333333 64 224 64S341.3333333333333 89.6 341.3333333333333 128C341.3333333333333 140.8 334.9333333333333 153.6 324.2666666666667 164.2666666666667C379.7333333333334 153.6 448 128 448 64H469.3333333333333V320H448M224 91.7333333333334C174.9333333333333 91.7333333333334 136.5333333333333 108.8000000000001 136.5333333333333 128C136.5333333333333 147.2000000000001 174.9333333333333 164.2666666666667 224 164.2666666666667S311.4666666666667 147.2 311.4666666666667 128C311.4666666666667 108.8 273.0666666666666 91.7333333333334 224 91.7333333333334z" /></svg>