<?xml version="1.0" encoding="UTF-8"?><!DOCTYPE svg PUBLIC "-//W3C//DTD SVG 1.1//EN" "http://www.w3.org/Graphics/SVG/1.1/DTD/svg11.dtd"><svg xmlns="http://www.w3.org/2000/svg" xmlns:xlink="http://www.w3.org/1999/xlink" version="1.1" width="512" height="512" viewBox="0 0 512 512">    <path fill="#ffffff" transform="scale(1, -1) translate(0, -448)" glyph-name="account-arrow-right-outline" unicode="&#xFB30;" horiz-adv-x="512" d=" M405.3333333333333 0V42.6666666666667H320V85.3333333333334H405.3333333333333V128L469.3333333333333 64L405.3333333333333 0M277.3333333333333 64C277.3333333333333 48.8533333333334 280.5333333333333 34.3466666666667 286.2933333333333 21.3333333333334H42.6666666666667V85.3333333333334C42.6666666666667 132.48 119.04 170.6666666666667 213.3333333333333 170.6666666666667C234.6666666666667 170.6666666666667 255.1466666666667 168.7466666666667 274.1333333333334 165.12C291.84 161.7066666666667 308.0533333333333 157.0133333333333 322.3466666666667 151.04C295.04 131.6266666666667 277.3333333333333 99.84 277.3333333333333 64M85.3333333333333 85.3333333333334V64H234.6666666666667C234.6666666666667 86.1866666666667 239.5733333333333 107.3066666666667 248.32 126.2933333333334L213.3333333333333 128C142.72 128 85.3333333333333 108.8 85.3333333333333 85.3333333333334M213.3333333333333 362.6666666666667C260.48 362.6666666666667 298.6666666666667 324.48 298.6666666666667 277.3333333333334S260.48 192 213.3333333333333 192S128 230.1866666666667 128 277.3333333333334S166.1866666666667 362.6666666666667 213.3333333333333 362.6666666666667M213.3333333333333 320C189.8666666666667 320 170.6666666666667 300.8 170.6666666666667 277.3333333333334S189.8666666666667 234.6666666666667 213.3333333333333 234.6666666666667S256 253.8666666666667 256 277.3333333333334S236.8 320 213.3333333333333 320z" /></svg>