<?xml version="1.0" encoding="UTF-8"?><!DOCTYPE svg PUBLIC "-//W3C//DTD SVG 1.1//EN" "http://www.w3.org/Graphics/SVG/1.1/DTD/svg11.dtd"><svg xmlns="http://www.w3.org/2000/svg" xmlns:xlink="http://www.w3.org/1999/xlink" version="1.1" width="512" height="512" viewBox="0 0 512 512">    <path fill="#ffffff" transform="scale(1, -1) translate(0, -448)" glyph-name="account-card-details-outline" unicode="&#xFD87;" horiz-adv-x="512" d=" M469.3333333333333 384H42.6666666666667C19.4133333333333 383.1466666666667 0.8533333333333 364.5866666666667 0 341.3333333333334V42.6666666666667C0.8533333333333 19.4133333333334 19.4133333333333 0.8533333333334 42.6666666666667 0H469.3333333333333C492.5866666666666 0.8533333333334 511.1466666666666 19.4133333333334 512 42.6666666666667V341.3333333333334C511.1466666666666 364.5866666666667 492.5866666666666 383.1466666666667 469.3333333333333 384M469.3333333333333 42.6666666666667H42.6666666666667V341.3333333333334H469.3333333333333V42.6666666666667M298.6666666666667 85.3333333333334V112C298.6666666666667 147.4133333333334 227.4133333333334 165.3333333333334 192 165.3333333333334C156.5866666666667 165.3333333333334 85.3333333333333 147.4133333333334 85.3333333333333 112V85.3333333333334H298.6666666666667M192 298.6666666666667C162.56 298.6666666666667 138.6666666666667 274.7733333333334 138.6666666666667 245.3333333333334S162.56 192 192 192S245.3333333333333 215.8933333333334 245.3333333333333 245.3333333333334S221.44 298.6666666666667 192 298.6666666666667M298.6666666666667 298.6666666666667V277.3333333333334H426.6666666666667V298.6666666666667H298.6666666666667M298.6666666666667 256V234.6666666666667H426.6666666666667V256H298.6666666666667M298.6666666666667 213.3333333333334V192H384V213.3333333333334H298.6666666666667" /></svg>