<?xml version="1.0" encoding="UTF-8"?><!DOCTYPE svg PUBLIC "-//W3C//DTD SVG 1.1//EN" "http://www.w3.org/Graphics/SVG/1.1/DTD/svg11.dtd"><svg xmlns="http://www.w3.org/2000/svg" xmlns:xlink="http://www.w3.org/1999/xlink" version="1.1" width="512" height="512" viewBox="0 0 512 512">    <path fill="#ffffff" transform="scale(1, -1) translate(0, -448)" glyph-name="android-debug-bridge" unicode="&#xF033;" horiz-adv-x="512" d=" M320 256C308.2666666666667 256 298.6666666666667 265.6 298.6666666666667 277.3333333333334S308.2666666666667 298.6666666666667 320 298.6666666666667S341.3333333333333 289.0666666666667 341.3333333333333 277.3333333333334S331.7333333333334 256 320 256M192 256C180.2666666666667 256 170.6666666666667 265.6 170.6666666666667 277.3333333333334S180.2666666666667 298.6666666666667 192 298.6666666666667S213.3333333333333 289.0666666666667 213.3333333333333 277.3333333333334S203.7333333333334 256 192 256M343.8933333333333 354.7733333333333L388.6933333333334 399.5733333333333L371.2000000000001 417.28L321.92 368C302.08 378.0266666666667 279.68 384 256 384C232.1066666666667 384 209.92 378.0266666666667 190.08 368L140.8 417.28L123.3066666666667 399.5733333333333L168.1066666666666 354.7733333333333C130.9866666666667 327.68 106.6666666666667 284.1600000000001 106.6666666666667 234.6666666666667V213.3333333333334H405.3333333333333V234.6666666666667C405.3333333333333 284.1600000000001 381.0133333333333 327.68 343.8933333333333 354.7733333333333M106.6666666666667 106.6666666666667C106.6666666666667 24.3200000000001 173.44 -42.6666666666666 256 -42.6666666666666S405.3333333333333 24.1066666666667 405.3333333333333 106.6666666666667V192H106.6666666666667V106.6666666666667z" /></svg>