<?xml version="1.0" encoding="UTF-8"?><!DOCTYPE svg PUBLIC "-//W3C//DTD SVG 1.1//EN" "http://www.w3.org/Graphics/SVG/1.1/DTD/svg11.dtd"><svg xmlns="http://www.w3.org/2000/svg" xmlns:xlink="http://www.w3.org/1999/xlink" version="1.1" width="512" height="512" viewBox="0 0 512 512">    <path fill="#ffffff" transform="scale(1, -1) translate(0, -448)" glyph-name="headset-off" unicode="&#xF2D0;" horiz-adv-x="512" d=" M32 346.24L76.16 302.0800000000001C68.2666666666667 281.1733333333334 64 258.3466666666667 64 234.6666666666667V21.3333333333334C64 -14.08 92.5866666666667 -42.6666666666666 128 -42.6666666666666H256V0H106.6666666666667V21.3333333333334H192V186.24L320 58.24V21.3333333333334H356.9066666666667L410.24 -32L437.3333333333333 -4.6933333333333L59.3066666666667 373.3333333333334L32 346.24M256 426.6666666666667C202.0266666666667 426.6666666666667 153.1733333333333 404.48 118.4 368.64L148.48 338.3466666666667C175.5733333333333 366.5066666666667 213.3333333333333 384 256 384C338.56 384 405.3333333333333 317.2266666666667 405.3333333333333 234.6666666666667V192H320V166.8266666666667L437.3333333333333 49.7066666666667C443.9466666666666 59.9466666666667 448 72.1066666666667 448 85.3333333333334V234.6666666666667C448 340.6933333333334 362.0266666666667 426.6666666666667 256 426.6666666666667M106.6666666666667 192V234.6666666666667C106.6666666666667 246.1866666666667 107.9466666666667 257.2800000000001 110.2933333333333 267.9466666666667L186.24 192H106.6666666666667z" /></svg>