<?xml version="1.0" encoding="UTF-8"?><!DOCTYPE svg PUBLIC "-//W3C//DTD SVG 1.1//EN" "http://www.w3.org/Graphics/SVG/1.1/DTD/svg11.dtd"><svg xmlns="http://www.w3.org/2000/svg" xmlns:xlink="http://www.w3.org/1999/xlink" version="1.1" width="512" height="512" viewBox="0 0 512 512">    <path fill="#ffffff" transform="scale(1, -1) translate(0, -448)" glyph-name="database-check" unicode="&#xFAA8;" horiz-adv-x="512" d=" M378.6666666666667 -24.7466666666667L320 39.2533333333333L344.7466666666667 64L378.6666666666667 30.08L455.2533333333333 106.6666666666667L480 76.5866666666667L378.6666666666667 -24.7466666666667M256 384C350.2933333333334 384 426.6666666666667 345.8133333333334 426.6666666666667 298.6666666666667S350.2933333333334 213.3333333333334 256 213.3333333333334S85.3333333333333 251.52 85.3333333333333 298.6666666666667S161.7066666666667 384 256 384M85.3333333333333 256C85.3333333333333 208.8533333333333 161.7066666666667 170.6666666666667 256 170.6666666666667S426.6666666666667 208.8533333333333 426.6666666666667 256V192C426.6666666666667 182.8266666666667 423.8933333333333 174.0800000000001 418.56 165.9733333333334C407.4666666666667 168.96 395.9466666666667 170.6666666666667 384 170.6666666666667C336.8533333333333 170.6666666666667 295.4666666666667 145.0666666666667 273.28 106.6666666666667H256C161.7066666666667 106.6666666666667 85.3333333333333 144.8533333333334 85.3333333333333 192V256M85.3333333333333 149.3333333333334C85.3333333333333 102.1866666666667 161.7066666666667 64 257.7066666666667 64L256 42.6666666666667C256 27.7333333333334 258.56 13.44 263.2533333333334 0H256C161.7066666666667 0 85.3333333333333 38.1866666666667 85.3333333333333 85.3333333333334V149.3333333333334z" /></svg>