<?xml version="1.0" encoding="UTF-8"?><!DOCTYPE svg PUBLIC "-//W3C//DTD SVG 1.1//EN" "http://www.w3.org/Graphics/SVG/1.1/DTD/svg11.dtd"><svg xmlns="http://www.w3.org/2000/svg" xmlns:xlink="http://www.w3.org/1999/xlink" version="1.1" width="512" height="512" viewBox="0 0 512 512">    <path fill="#ffffff" transform="scale(1, -1) translate(0, -448)" glyph-name="mine" unicode="&#xFDB6;" horiz-adv-x="512" d=" M490.6666666666666 170.6666666666667V213.3333333333334H425.1733333333333C421.3333333333333 243.6266666666667 409.3866666666667 272.4266666666667 390.6133333333333 296.5333333333334L437.3333333333333 342.8266666666667L406.8266666666667 373.3333333333334L360.5333333333333 326.6133333333334C336.4266666666666 345.3866666666667 307.6266666666666 357.3333333333334 277.3333333333333 361.1733333333334V426.6666666666667H234.6666666666667V361.1733333333334C204.3733333333333 357.3333333333334 175.5733333333333 345.3866666666667 151.4666666666666 326.6133333333334L105.1733333333333 373.3333333333334L74.6666666666667 342.8266666666667L121.3866666666667 296.5333333333334C102.6133333333333 272.4266666666667 90.6666666666667 243.6266666666667 86.8266666666667 213.3333333333334H21.3333333333333V170.6666666666667H86.8266666666667C90.6666666666667 140.3733333333333 102.6133333333334 111.5733333333334 121.3866666666667 87.4666666666667L74.6666666666667 41.1733333333333L105.1733333333333 10.6666666666667L151.4666666666667 57.3866666666667C175.5733333333333 38.6133333333334 204.3733333333333 26.6666666666667 234.6666666666667 22.8266666666667V-42.6666666666666H277.3333333333333V22.8266666666667C307.6266666666667 26.6666666666667 336.4266666666666 38.6133333333333 360.5333333333333 57.3866666666667L406.8266666666667 10.6666666666667L437.3333333333333 41.1733333333333L390.6133333333333 87.4666666666667C409.3866666666666 111.5733333333334 421.3333333333333 140.3733333333334 425.1733333333333 170.6666666666668H490.6666666666666M256 277.3333333333334C208.8533333333333 277.3333333333334 170.6666666666667 239.1466666666667 170.6666666666667 192H128C128 262.6133333333334 185.3866666666667 320 256 320V277.3333333333334z" /></svg>