<?xml version="1.0" encoding="UTF-8"?><!DOCTYPE svg PUBLIC "-//W3C//DTD SVG 1.1//EN" "http://www.w3.org/Graphics/SVG/1.1/DTD/svg11.dtd"><svg xmlns="http://www.w3.org/2000/svg" xmlns:xlink="http://www.w3.org/1999/xlink" version="1.1" width="512" height="512" viewBox="0 0 512 512">    <path fill="#ffffff" transform="scale(1, -1) translate(0, -448)" glyph-name="youtube-creator-studio" unicode="&#xF846;" horiz-adv-x="512" d=" M213.3333333333333 128L320 192L213.3333333333333 256V128M414.9333333333333 170.6666666666667L459.9466666666666 135.8933333333334C464.6399999999999 132.6933333333334 465.28 128.0000000000001 462.08 122.0266666666667L418.9866666666667 48C416 43.3066666666667 411.9466666666667 42.0266666666666 405.9733333333334 43.9466666666667L353.0666666666667 65.0666666666666C338.9866666666667 55.04 327.04 47.9999999999999 317.0133333333333 43.9466666666667L309.3333333333334 -11.9466666666667C307.6266666666667 -17.9200000000001 304.4266666666667 -21.3333333333334 298.6666666666667 -21.3333333333334H213.3333333333334C207.5733333333334 -21.3333333333334 204.3733333333334 -17.9200000000001 202.6666666666667 -11.9466666666667L194.9866666666667 43.9466666666667C182.4 49.28 170.6666666666667 56.3199999999999 158.9333333333334 65.0666666666666L106.0266666666667 43.9466666666667C100.0533333333334 42.0266666666666 96.0000000000001 43.3066666666666 93.0133333333334 48L49.92 122.0266666666667C46.72 128 47.36 132.6933333333334 52.0533333333334 135.8933333333334L97.0666666666667 170.6666666666667C96 175.5733333333334 96 182.6133333333334 96 192C96 201.3866666666667 96 208.4266666666667 97.0666666666667 213.3333333333334L52.0533333333333 247.8933333333333C47.36 251.3066666666667 46.72 256 49.92 261.9733333333334L93.0133333333333 336C96 340.6933333333334 100.0533333333333 341.9733333333334 106.0266666666667 340.0533333333334L158.9333333333333 318.9333333333334C173.0133333333333 328.9600000000001 184.96 336 194.9866666666666 340.0533333333334L202.6666666666666 395.9466666666667C204.3733333333333 401.92 207.5733333333333 405.3333333333334 213.3333333333333 405.3333333333334H298.6666666666667C304.4266666666666 405.3333333333334 307.6266666666666 401.92 309.3333333333333 395.9466666666667L317.0133333333333 340.0533333333334C329.5999999999999 334.7200000000001 341.3333333333333 327.68 353.0666666666666 318.9333333333334L405.9733333333333 340.0533333333334C411.9466666666666 341.9733333333334 415.9999999999999 340.6933333333334 418.9866666666666 336L462.0799999999999 261.9733333333334C465.2799999999999 256 464.6399999999999 251.3066666666667 459.9466666666665 247.8933333333333L414.9333333333333 213.3333333333334C416 208.4266666666667 416 201.3866666666667 416 192C416 182.6133333333334 416 175.5733333333334 414.9333333333333 170.6666666666667z" /></svg>