<?xml version="1.0" encoding="UTF-8"?><!DOCTYPE svg PUBLIC "-//W3C//DTD SVG 1.1//EN" "http://www.w3.org/Graphics/SVG/1.1/DTD/svg11.dtd"><svg xmlns="http://www.w3.org/2000/svg" xmlns:xlink="http://www.w3.org/1999/xlink" version="1.1" width="512" height="512" viewBox="0 0 512 512">    <path fill="#ffffff" transform="scale(1, -1) translate(0, -448)" glyph-name="behance" unicode="&#xF099;" horiz-adv-x="512" d=" M417.7066666666666 186.24C416.8533333333333 199.4666666666667 412.3733333333333 209.4933333333334 404.4799999999999 216.32C396.5866666666666 223.1466666666667 386.7733333333333 226.5600000000001 375.04 226.5600000000001C362.6666666666667 226.5600000000001 352 222.9333333333334 345.3866666666666 215.68C338.3466666666666 208.4266666666667 333.8666666666666 198.6133333333334 332.16 186.24M467.6266666666666 191.1466666666667C469.3333333333333 182.4 469.3333333333333 169.8133333333334 469.3333333333333 153.3866666666667H330.6666666666666C331.7333333333333 134.1866666666667 338.1333333333332 120.96 350.7199999999999 113.2800000000001C358.1866666666666 108.3733333333334 367.36 106.0266666666668 378.2399999999999 106.0266666666668C389.5466666666666 106.0266666666668 398.7199999999999 109.0133333333334 405.3333333333333 114.7733333333334C409.5999999999999 117.9733333333334 413.0133333333332 122.2400000000001 415.9999999999999 128.0000000000001H466.7733333333332C465.4933333333332 116.48 459.3066666666665 105.1733333333334 447.9999999999999 93.4400000000001C431.3599999999999 74.6666666666667 407.4666666666666 65.7066666666667 376.7466666666666 65.7066666666667C351.3599999999999 65.7066666666667 329.1733333333333 73.6000000000001 309.3333333333333 89.1733333333334C290.5599999999999 104.7466666666668 280.7466666666666 130.1333333333335 280.7466666666666 165.3333333333334C280.7466666666666 198.4000000000001 289.4933333333333 224.0000000000001 306.9866666666666 241.0666666666668C324.4799999999999 258.7733333333335 347.0933333333333 267.5200000000001 375.04 267.5200000000001C391.4666666666666 267.5200000000001 406.3999999999999 264.5333333333334 419.6266666666666 258.5600000000001C432.8533333333333 252.5866666666668 443.9466666666666 243.4133333333334 452.4799999999999 230.4000000000001C460.3733333333333 219.0933333333335 465.28 206.0800000000001 467.6266666666666 191.1466666666668M204.3733333333333 147.84C204.3733333333333 161.7066666666667 198.6133333333334 171.3066666666667 187.52 176.4266666666667C181.3333333333333 179.2000000000001 172.3733333333333 180.6933333333333 160.8533333333333 181.3333333333334H103.8933333333333V110.08H160C171.52 110.08 180.48 111.5733333333334 186.88 114.7733333333334C198.6133333333334 120.5333333333334 204.3733333333333 131.6266666666667 204.3733333333333 147.84M103.8933333333333 224.8533333333334H160C171.52 224.8533333333334 181.3333333333333 226.9866666666667 188.16 231.4666666666667C195.4133333333333 235.7333333333334 198.8266666666667 243.6266666666667 198.8266666666667 254.7200000000001C198.8266666666667 266.6666666666668 194.1333333333333 275.2000000000001 184.7466666666667 279.2533333333334C176.4266666666667 282.0266666666667 165.9733333333333 283.3066666666668 153.3866666666667 283.3066666666668H103.8933333333333M250.0266666666667 183.0400000000001C256.8533333333333 172.3733333333334 260.2666666666667 159.3600000000001 260.2666666666667 144.2133333333334C260.2666666666667 128.0000000000001 256 114.3466666666667 248.5333333333333 101.7600000000001C243.4133333333333 93.4400000000001 237.2266666666667 86.6133333333334 229.76 80.8533333333334C221.2266666666666 74.6666666666667 211.2 69.9733333333334 199.68 67.6266666666667C188.1599999999999 65.2800000000001 175.7866666666666 64 162.3466666666666 64H42.6666666666667V329.6H170.6666666666667C203.3066666666667 328.9600000000001 226.1333333333334 320 239.5733333333333 301.2266666666667C247.68 289.92 251.7333333333334 276.48 251.7333333333334 260.6933333333334C251.7333333333334 244.48 247.68 231.4666666666667 239.5733333333333 221.6533333333334C234.6666666666667 216.1066666666667 228.2666666666667 210.9866666666667 219.3066666666667 206.5066666666667C232.7466666666667 201.6 242.9866666666667 193.7066666666667 250.0266666666667 183.04M427.9466666666667 291.8400000000001H321.0666666666667V318.5066666666667H427.9466666666667V291.8400000000001z" /></svg>