<?xml version="1.0" encoding="UTF-8"?><!DOCTYPE svg PUBLIC "-//W3C//DTD SVG 1.1//EN" "http://www.w3.org/Graphics/SVG/1.1/DTD/svg11.dtd"><svg xmlns="http://www.w3.org/2000/svg" xmlns:xlink="http://www.w3.org/1999/xlink" version="1.1" width="512" height="512" viewBox="0 0 512 512">    <path fill="#ffffff" transform="scale(1, -1) translate(0, -448)" glyph-name="book-open-variant" unicode="&#xF0BE;" horiz-adv-x="512" d=" M448 341.3333333333334C424.32 348.8 398.2933333333334 352 373.3333333333333 352C331.7333333333334 352 286.9333333333333 343.4666666666667 256 320C225.0666666666667 343.4666666666667 180.2666666666667 352 138.6666666666667 352C97.0666666666667 352 52.2666666666667 343.4666666666667 21.3333333333333 320V7.4666666666667C21.3333333333333 2.1333333333334 26.6666666666667 -3.1999999999999 32 -3.1999999999999C34.1333333333333 -3.1999999999999 35.2 -2.1333333333333 37.3333333333333 -2.1333333333333C66.1333333333333 11.7333333333333 107.7333333333333 21.3333333333334 138.6666666666667 21.3333333333334C180.2666666666667 21.3333333333334 225.0666666666667 12.8000000000001 256 -10.6666666666666C284.8 7.4666666666667 337.0666666666667 21.3333333333334 373.3333333333333 21.3333333333334C408.5333333333333 21.3333333333334 444.8 14.9333333333333 474.6666666666666 -1.0666666666667C476.8 -2.1333333333333 477.8666666666666 -2.1333333333333 480 -2.1333333333333C485.3333333333333 -2.1333333333333 490.6666666666666 3.2 490.6666666666666 8.5333333333333V320C477.8666666666666 329.6 464 336 448 341.3333333333334M448 53.3333333333334C424.5333333333333 60.8000000000001 398.9333333333333 64 373.3333333333333 64C337.0666666666667 64 284.8 50.1333333333334 256 32V277.3333333333334C284.8 295.4666666666667 337.0666666666667 309.3333333333334 373.3333333333333 309.3333333333334C398.9333333333333 309.3333333333334 424.5333333333333 306.1333333333334 448 298.6666666666667V53.3333333333334z" /></svg>