<?xml version="1.0" encoding="UTF-8"?><!DOCTYPE svg PUBLIC "-//W3C//DTD SVG 1.1//EN" "http://www.w3.org/Graphics/SVG/1.1/DTD/svg11.dtd"><svg xmlns="http://www.w3.org/2000/svg" xmlns:xlink="http://www.w3.org/1999/xlink" version="1.1" width="512" height="512" viewBox="0 0 512 512">    <path fill="#ffffff" transform="scale(1, -1) translate(0, -448)" glyph-name="film" unicode="&#xF22F;" horiz-adv-x="512" d=" M74.6666666666667 384H106.6666666666667V409.6C106.6666666666667 418.9866666666667 114.3466666666667 426.6666666666667 123.7333333333333 426.6666666666667H217.6C226.9866666666666 426.6666666666667 234.6666666666667 418.9866666666667 234.6666666666667 409.6V384H266.6666666666667C284.3733333333334 384 298.6666666666667 369.7066666666667 298.6666666666667 352V341.3333333333334H469.3333333333333V21.3333333333334H298.6666666666667V10.6666666666667C298.6666666666667 -7.04 284.3733333333334 -21.3333333333333 266.6666666666667 -21.3333333333333H74.6666666666667C56.96 -21.3333333333333 42.6666666666667 -7.04 42.6666666666667 10.6666666666667V352C42.6666666666667 369.7066666666667 56.96 384 74.6666666666667 384M384 298.6666666666667V256H426.6666666666667V298.6666666666667H384M298.6666666666667 298.6666666666667V256H341.3333333333333V298.6666666666667H298.6666666666667M213.3333333333333 298.6666666666667V256H256V298.6666666666667H213.3333333333333M298.6666666666667 106.6666666666667V64H341.3333333333333V106.6666666666667H298.6666666666667M384 106.6666666666667V64H426.6666666666667V106.6666666666667H384M213.3333333333333 106.6666666666667V64H256V106.6666666666667H213.3333333333333z" /></svg>