<?xml version="1.0" encoding="UTF-8"?><!DOCTYPE svg PUBLIC "-//W3C//DTD SVG 1.1//EN" "http://www.w3.org/Graphics/SVG/1.1/DTD/svg11.dtd"><svg xmlns="http://www.w3.org/2000/svg" xmlns:xlink="http://www.w3.org/1999/xlink" version="1.1" width="512" height="512" viewBox="0 0 512 512">    <path fill="#ffffff" transform="scale(1, -1) translate(0, -448)" glyph-name="hand-pointing-right" unicode="&#xF2C7;" horiz-adv-x="512" d=" M448 256C459.7333333333333 256 469.3333333333333 246.4000000000001 469.3333333333333 234.6666666666667S459.7333333333333 213.3333333333334 448 213.3333333333334H352.64L349.8666666666667 187.52L302.9333333333334 82.1333333333333C298.6666666666668 71.4666666666666 287.36 63.9999999999999 274.3466666666667 63.9999999999999H181.3333333333333C164.2666666666667 63.9999999999999 149.3333333333333 79.5733333333333 149.3333333333333 95.9999999999999V234.6666666666667C149.3333333333333 242.9866666666667 152.7466666666667 250.4533333333334 158.5066666666667 256L248.1066666666667 360.5333333333334L264.5333333333333 344.7466666666667C268.8 340.6933333333334 271.36 335.1466666666667 271.36 328.9600000000001L270.72 324.2666666666667L234.6666666666667 256H448M42.6666666666667 64V234.6666666666667H106.6666666666667V64H42.6666666666667z" /></svg>