<?xml version="1.0" encoding="UTF-8"?><!DOCTYPE svg PUBLIC "-//W3C//DTD SVG 1.1//EN" "http://www.w3.org/Graphics/SVG/1.1/DTD/svg11.dtd"><svg xmlns="http://www.w3.org/2000/svg" xmlns:xlink="http://www.w3.org/1999/xlink" version="1.1" width="512" height="512" viewBox="0 0 512 512">    <path fill="#ffffff" transform="scale(1, -1) translate(0, -448)" glyph-name="clipboard-text-play" unicode="&#xFC37;" horiz-adv-x="512" d=" M405.3333333333333 384C428.8 384 448 364.8 448 341.3333333333334V163.4133333333334C434.3466666666667 168.3200000000001 419.84 170.6666666666667 405.3333333333333 170.6666666666667C334.5066666666667 170.6666666666667 277.3333333333333 113.28 277.3333333333333 42.6666666666667C277.3333333333333 28.16 279.68 13.6533333333334 284.5866666666667 0H106.6666666666667C83.2 0 64 19.2 64 42.6666666666667V341.3333333333334C64 364.8 83.2 384 106.6666666666667 384H195.84C202.6666666666667 401.92 216.32 416 234.6666666666667 422.4C267.3066666666666 434.3466666666667 304 417.28 316.16 384H405.3333333333333M256 384C244.2666666666667 384 234.6666666666667 374.4 234.6666666666667 362.6666666666667S244.2666666666667 341.3333333333334 256 341.3333333333334S277.3333333333333 350.9333333333334 277.3333333333333 362.6666666666667S267.7333333333334 384 256 384M234.6666666666667 85.3333333333334V128H149.3333333333333V85.3333333333334H234.6666666666667M277.3333333333333 170.6666666666667V213.3333333333334H149.3333333333333V170.6666666666667H277.3333333333333M362.6666666666667 256V298.6666666666667H149.3333333333333V256H362.6666666666667M362.6666666666667 106.6666666666667L469.3333333333333 42.6666666666667L362.6666666666667 -21.3333333333333V106.6666666666667z" /></svg>