<?xml version="1.0" encoding="UTF-8"?><!DOCTYPE svg PUBLIC "-//W3C//DTD SVG 1.1//EN" "http://www.w3.org/Graphics/SVG/1.1/DTD/svg11.dtd"><svg xmlns="http://www.w3.org/2000/svg" xmlns:xlink="http://www.w3.org/1999/xlink" version="1.1" width="512" height="512" viewBox="0 0 512 512">    <path fill="#ffffff" transform="scale(1, -1) translate(0, -448)" glyph-name="google-spreadsheet" unicode="&#xF9F6;" horiz-adv-x="512" d=" M405.3333333333333 213.3333333333334V256H234.6666666666667V341.3333333333334H192V256H106.6666666666667V213.3333333333334H192V42.6666666666667H234.6666666666667V213.3333333333334H405.3333333333333M405.3333333333333 384C416 384 426.6666666666667 379.7333333333334 434.9866666666667 370.9866666666667C443.7333333333334 362.6666666666667 448 352 448 341.3333333333334V42.6666666666667C448 32 443.7333333333334 21.3333333333334 434.9866666666667 13.0133333333333C426.6666666666667 4.2666666666667 416 0 405.3333333333333 0H106.6666666666667C96 0 85.3333333333333 4.2666666666667 77.0133333333333 13.0133333333333C68.2666666666667 21.3333333333334 64 32 64 42.6666666666667V341.3333333333334C64 352 68.2666666666667 362.6666666666667 77.0133333333333 370.9866666666667C85.3333333333333 379.7333333333334 96 384 106.6666666666667 384H405.3333333333333z" /></svg>