<?xml version="1.0" encoding="UTF-8"?><!DOCTYPE svg PUBLIC "-//W3C//DTD SVG 1.1//EN" "http://www.w3.org/Graphics/SVG/1.1/DTD/svg11.dtd"><svg xmlns="http://www.w3.org/2000/svg" xmlns:xlink="http://www.w3.org/1999/xlink" version="1.1" width="512" height="512" viewBox="0 0 512 512">    <path fill="#ffffff" transform="scale(1, -1) translate(0, -448)" glyph-name="rhombus-split" unicode="&#xFA10;" horiz-adv-x="512" d=" M157.0133333333333 321.28L230.4 394.6666666666667C245.3333333333333 409.6 266.6666666666667 409.6 281.6 394.6666666666667L354.9866666666667 321.2800000000001L256 222.08L157.0133333333333 321.28M385.28 290.9866666666667L286.08 192L385.2800000000001 93.0133333333333L458.6666666666667 166.4C471.4666666666668 181.3333333333333 471.4666666666668 202.6666666666666 458.6666666666667 217.6L385.2800000000001 290.9866666666667M126.72 93.0133333333333L225.92 192L126.72 290.9866666666667L53.3333333333333 217.6C38.4 202.6666666666667 38.4 181.3333333333334 53.3333333333333 166.4L126.72 93.0133333333333M256 161.92L157.0133333333333 62.72L230.4 -10.6666666666667C245.3333333333333 -25.6 266.6666666666667 -25.6 281.6 -10.6666666666667L354.9866666666667 62.72L256 161.92z" /></svg>