<?xml version="1.0" encoding="UTF-8"?><!DOCTYPE svg PUBLIC "-//W3C//DTD SVG 1.1//EN" "http://www.w3.org/Graphics/SVG/1.1/DTD/svg11.dtd"><svg xmlns="http://www.w3.org/2000/svg" xmlns:xlink="http://www.w3.org/1999/xlink" version="1.1" width="512" height="512" viewBox="0 0 512 512">    <path fill="#ffffff" transform="scale(1, -1) translate(0, -448)" glyph-name="account-supervisor" unicode="&#xFA8A;" horiz-adv-x="512" d=" M352 192C381.44 192 405.3333333333333 215.8933333333334 405.3333333333333 245.3333333333334S381.44 298.6666666666667 352 298.6666666666667S298.6666666666667 274.7733333333334 298.6666666666667 245.3333333333334S322.56 192 352 192M192 213.3333333333334C227.4133333333334 213.3333333333334 256 241.92 256 277.3333333333334S227.4133333333334 341.3333333333334 192 341.3333333333334S128 312.7466666666667 128 277.3333333333334S156.5866666666667 213.3333333333334 192 213.3333333333334M352 149.3333333333334C312.96 149.3333333333334 234.6666666666667 129.7066666666667 234.6666666666667 90.6666666666667V42.6666666666667H469.3333333333333V90.6666666666667C469.3333333333333 129.7066666666667 391.04 149.3333333333334 352 149.3333333333334M192 170.6666666666667C142.2933333333333 170.6666666666667 42.6666666666667 145.7066666666667 42.6666666666667 96V42.6666666666667H192V90.6666666666667C192 108.8 199.04 140.5866666666667 242.56 164.6933333333334C224 168.5333333333334 206.08 170.6666666666667 192 170.6666666666667z" /></svg>