<?xml version="1.0" encoding="UTF-8"?><!DOCTYPE svg PUBLIC "-//W3C//DTD SVG 1.1//EN" "http://www.w3.org/Graphics/SVG/1.1/DTD/svg11.dtd"><svg xmlns="http://www.w3.org/2000/svg" xmlns:xlink="http://www.w3.org/1999/xlink" version="1.1" width="512" height="512" viewBox="0 0 512 512">    <path fill="#ffffff" transform="scale(1, -1) translate(0, -448)" glyph-name="map-marker-off" unicode="&#xF351;" horiz-adv-x="512" d=" M349.2266666666667 104.5333333333333L250.6666666666667 203.3066666666666L248.32 205.6533333333333L69.76 384L42.6666666666667 356.9066666666667L110.5066666666667 289.0666666666667C107.9466666666667 278.4 106.6666666666667 267.52 106.6666666666667 256C106.6666666666667 144 256 -21.3333333333333 256 -21.3333333333333S291.6266666666667 18.1333333333334 327.8933333333333 71.4666666666667L399.5733333333333 0L426.6666666666667 27.3066666666667M256 309.3333333333334C285.44 309.3333333333334 309.3333333333333 285.44 309.3333333333333 256C309.3333333333333 240.4266666666667 302.2933333333333 226.3466666666667 291.6266666666667 216.5333333333334L369.0666666666667 138.6666666666667C389.9733333333334 178.7733333333333 405.3333333333333 220.16 405.3333333333333 256C405.3333333333333 338.56 338.56 405.3333333333333 256 405.3333333333333C213.3333333333333 405.3333333333333 175.7866666666667 387.8400000000001 148.48 359.68L216.5333333333333 291.6266666666667C226.3466666666667 302.5066666666667 240.2133333333333 309.3333333333334 256 309.3333333333334z" /></svg>