<?xml version="1.0" encoding="UTF-8"?><!DOCTYPE svg PUBLIC "-//W3C//DTD SVG 1.1//EN" "http://www.w3.org/Graphics/SVG/1.1/DTD/svg11.dtd"><svg xmlns="http://www.w3.org/2000/svg" xmlns:xlink="http://www.w3.org/1999/xlink" version="1.1" width="512" height="512" viewBox="0 0 512 512">    <path fill="#ffffff" transform="scale(1, -1) translate(0, -448)" glyph-name="food-off" unicode="&#xF5F3;" horiz-adv-x="512" d=" M42.6666666666667 335.5733333333334L69.9733333333333 362.6666666666667L448 -15.36L420.9066666666667 -42.6666666666666L378.24 0H330.6666666666667L324.48 53.3333333333334L276.6933333333334 101.5466666666666C274.3466666666667 92.16 266.0266666666667 85.3333333333333 256 85.3333333333333H64C52.2666666666667 85.3333333333333 42.6666666666667 94.9333333333333 42.6666666666667 106.6666666666666S52.2666666666667 128 64 128H170.6666666666667L202.6666666666667 95.9999999999999L234.6666666666667 128H250.24L228.9066666666667 149.3333333333334H42.6666666666667C42.6666666666667 184.7466666666667 71.2533333333333 213.3333333333334 106.6666666666667 213.3333333333334H164.9066666666667L42.6666666666667 335.5733333333334M298.6666666666667 277.3333333333334H346.24L322.1333333333334 374.1866666666667L359.2533333333334 384L385.92 277.3333333333334H469.3333333333333L442.4533333333333 44.3733333333333L310.1866666666666 176.64L298.6666666666667 277.3333333333334M277.3333333333333 64C277.3333333333333 28.5866666666667 248.7466666666667 0 213.3333333333333 0H106.6666666666667C71.2533333333333 0 42.6666666666667 28.5866666666667 42.6666666666667 64H277.3333333333333z" /></svg>