<?xml version="1.0" encoding="UTF-8"?><!DOCTYPE svg PUBLIC "-//W3C//DTD SVG 1.1//EN" "http://www.w3.org/Graphics/SVG/1.1/DTD/svg11.dtd"><svg xmlns="http://www.w3.org/2000/svg" xmlns:xlink="http://www.w3.org/1999/xlink" version="1.1" width="512" height="512" viewBox="0 0 512 512">    <path fill="#ffffff" transform="scale(1, -1) translate(0, -448)" glyph-name="blackberry" unicode="&#xF0AA;" horiz-adv-x="512" d=" M116.2666666666667 228.6933333333334C136.5333333333333 228.6933333333334 160 212.2666666666667 160 192S136.5333333333333 155.3066666666667 116.2666666666667 155.3066666666667H42.6666666666667L57.3866666666667 228.6933333333334H116.2666666666667M130.9866666666666 346.4533333333333C151.2533333333333 346.4533333333333 175.1466666666667 330.0266666666667 175.1466666666667 309.3333333333333C175.1466666666667 289.4933333333334 151.2533333333333 272.8533333333334 130.9866666666666 272.8533333333334H57.3866666666667L72.1066666666667 346.4533333333333H130.9866666666667M277.9733333333333 346.4533333333333C298.6666666666667 346.4533333333333 322.1333333333334 330.0266666666667 322.1333333333334 309.3333333333333C322.1333333333334 289.4933333333334 298.6666666666667 272.8533333333334 277.9733333333333 272.8533333333334H200.7466666666667L215.4666666666667 346.4533333333333H277.9733333333333M263.2533333333334 228.6933333333334C283.7333333333334 228.6933333333334 307.4133333333333 212.2666666666667 307.4133333333333 192S283.7333333333334 155.3066666666666 263.2533333333334 155.3066666666666H186.0266666666667L200.7466666666667 228.6933333333333H263.2533333333334M234.0266666666667 111.1466666666667C254.2933333333333 111.1466666666667 277.9733333333333 94.5066666666666 277.9733333333333 74.6666666666666C277.9733333333333 53.9733333333333 254.2933333333333 37.5466666666666 234.0266666666667 37.5466666666666H160L175.1466666666667 111.1466666666667H234.0266666666667M395.7333333333334 155.3066666666666C416 155.3066666666666 439.8933333333333 138.6666666666666 439.8933333333333 118.4S416 81.7066666666667 395.7333333333334 81.7066666666667H322.1333333333334L336.8533333333333 155.3066666666666H395.7333333333333M425.1733333333333 272.8533333333333C445.4399999999999 272.8533333333333 469.3333333333333 256 469.3333333333333 236.16C469.3333333333333 215.8933333333333 445.4399999999999 199.2533333333333 425.1733333333333 199.2533333333333H352L366.2933333333334 272.8533333333333H425.1733333333333z" /></svg>