<?xml version="1.0" encoding="UTF-8"?><!DOCTYPE svg PUBLIC "-//W3C//DTD SVG 1.1//EN" "http://www.w3.org/Graphics/SVG/1.1/DTD/svg11.dtd"><svg xmlns="http://www.w3.org/2000/svg" xmlns:xlink="http://www.w3.org/1999/xlink" version="1.1" width="512" height="512" viewBox="0 0 512 512">    <path fill="#ffffff" transform="scale(1, -1) translate(0, -448)" glyph-name="video-4k-box" unicode="&#xF83D;" horiz-adv-x="512" d=" M405.3333333333333 384H106.6666666666667C83.2 384 64 364.8 64 341.3333333333334V42.6666666666667C64 19.2 83.2 0 106.6666666666667 0H405.3333333333333C428.8 0 448 19.2 448 42.6666666666667V341.3333333333334C448 364.8 428.8 384 405.3333333333333 384M256 160H234.6666666666667V128H202.6666666666667V160H138.6666666666667V256H170.6666666666667V192H202.6666666666667V256H234.6666666666667V192H256V160M384 128H345.6L307.2 174.9333333333333V128H277.3333333333333V256H309.3333333333333V209.0666666666667L345.6 256H384L337.0666666666667 192L384 128z" /></svg>