<?xml version="1.0" encoding="UTF-8"?><!DOCTYPE svg PUBLIC "-//W3C//DTD SVG 1.1//EN" "http://www.w3.org/Graphics/SVG/1.1/DTD/svg11.dtd"><svg xmlns="http://www.w3.org/2000/svg" xmlns:xlink="http://www.w3.org/1999/xlink" version="1.1" width="512" height="512" viewBox="0 0 512 512">    <path fill="#ffffff" transform="scale(1, -1) translate(0, -448)" glyph-name="compass" unicode="&#xF18B;" horiz-adv-x="512" d=" M302.72 145.28L128 64L209.28 238.72L384 320M256 405.3333333333333C138.24 405.3333333333333 42.6666666666667 309.76 42.6666666666667 192S138.24 -21.3333333333333 256 -21.3333333333333S469.3333333333333 74.24 469.3333333333333 192S373.76 405.3333333333333 256 405.3333333333333M256 215.4666666666667C242.9866666666667 215.4666666666667 232.5333333333334 205.0133333333333 232.5333333333334 192C232.5333333333334 178.9866666666667 242.9866666666667 168.5333333333334 256 168.5333333333334C269.0133333333333 168.5333333333334 279.4666666666667 178.9866666666667 279.4666666666667 192C279.4666666666667 205.0133333333333 269.0133333333333 215.4666666666667 256 215.4666666666667z" /></svg>