<?xml version="1.0" encoding="UTF-8"?><!DOCTYPE svg PUBLIC "-//W3C//DTD SVG 1.1//EN" "http://www.w3.org/Graphics/SVG/1.1/DTD/svg11.dtd"><svg xmlns="http://www.w3.org/2000/svg" xmlns:xlink="http://www.w3.org/1999/xlink" version="1.1" width="512" height="512" viewBox="0 0 512 512">    <path fill="#ffffff" transform="scale(1, -1) translate(0, -448)" glyph-name="football" unicode="&#xF25D;" horiz-adv-x="512" d=" M160 288C195.6266666666667 322.7733333333333 240.8533333333333 347.9466666666667 285.2266666666667 358.8266666666667C329.8133333333334 369.7066666666667 373.3333333333333 366.2933333333334 396.8 362.6666666666667C420.48 359.4666666666667 423.8933333333333 356.0533333333334 427.3066666666667 332.5866666666667C430.5066666666667 309.3333333333334 433.7066666666667 265.6 422.8266666666667 221.2266666666667C411.9466666666666 176.8533333333334 386.7733333333333 131.6266666666667 352 96C316.3733333333334 61.2266666666667 271.1466666666667 36.0533333333334 226.7733333333333 25.1733333333333C182.4 14.2933333333333 138.6666666666666 17.4933333333333 115.4133333333333 20.6933333333333C91.9466666666666 24.1066666666667 88.5333333333333 27.52 85.3333333333333 51.2C81.7066666666667 74.6666666666667 78.2933333333333 118.1866666666667 89.1733333333333 162.7733333333333C100.0533333333333 207.1466666666667 125.2266666666667 252.3733333333333 160 288M155.7333333333333 111.1466666666667L175.1466666666666 91.7333333333334L200.96 117.3333333333334L226.7733333333333 91.7333333333334L246.1866666666667 111.1466666666667L220.5866666666667 136.96L256 172.5866666666667L281.8133333333334 146.7733333333333L301.2266666666667 166.1866666666667L275.4133333333333 192L311.04 227.4133333333334L336.8533333333333 201.8133333333334L356.2666666666667 221.2266666666667L330.6666666666667 247.0400000000001L356.2666666666667 272.8533333333334L336.8533333333333 292.2666666666668L311.04 266.6666666666668L285.2266666666666 292.2666666666668L265.8133333333333 272.8533333333335L291.4133333333333 247.0400000000002L256 211.4133333333334L230.1866666666667 237.2266666666667L210.7733333333333 217.8133333333334L236.5866666666667 192L200.96 156.5866666666667L175.1466666666667 182.1866666666667L155.7333333333334 162.7733333333333L181.3333333333333 136.96L155.7333333333333 111.1466666666667z" /></svg>