<?xml version="1.0" encoding="UTF-8"?><!DOCTYPE svg PUBLIC "-//W3C//DTD SVG 1.1//EN" "http://www.w3.org/Graphics/SVG/1.1/DTD/svg11.dtd"><svg xmlns="http://www.w3.org/2000/svg" xmlns:xlink="http://www.w3.org/1999/xlink" version="1.1" width="512" height="512" viewBox="0 0 512 512">    <path fill="#ffffff" transform="scale(1, -1) translate(0, -448)" glyph-name="bulldozer" unicode="&#xFB07;" horiz-adv-x="512" d=" M85.3333333333333 362.6666666666667C73.6 362.6666666666667 64 353.0666666666667 64 341.3333333333334V234.6666666666667C54.1866666666667 234.6666666666667 45.6533333333333 228.0533333333334 43.3066666666667 218.4533333333334V149.9733333333334H48.8533333333333C56.5333333333333 162.7733333333334 70.4 170.6666666666667 85.3333333333333 170.6666666666667H277.3333333333333C292.2666666666667 170.6666666666667 306.1333333333334 162.7733333333334 313.8133333333334 149.9733333333334H341.9733333333334L341.3333333333333 213.3333333333334C341.3333333333333 225.0666666666667 331.7333333333334 234.6666666666667 320 234.6666666666667H277.3333333333333V277.3333333333334C277.3333333333333 289.0666666666667 267.7333333333334 298.6666666666667 256 298.6666666666667S234.6666666666667 289.0666666666667 234.6666666666667 277.3333333333334V234.6666666666667H192V341.3333333333334C192 353.0666666666667 182.4 362.6666666666667 170.6666666666667 362.6666666666667H85.3333333333333M106.6666666666667 320H149.3333333333333V213.3333333333334H106.6666666666667V320M362.6666666666667 213.3333333333334V42.6666666666667H469.3333333333333V64L405.3333333333333 85.3333333333334L384 213.3333333333334H362.6666666666667M85.3333333333333 128C61.8666666666667 128 42.6666666666667 108.8 42.6666666666667 85.3333333333334S61.8666666666667 42.6666666666667 85.3333333333333 42.6666666666667H277.3333333333333C300.8 42.6666666666667 320 61.8666666666667 320 85.3333333333334S300.8 128 277.3333333333333 128H85.3333333333333z" /></svg>