<?xml version="1.0" encoding="UTF-8"?><!DOCTYPE svg PUBLIC "-//W3C//DTD SVG 1.1//EN" "http://www.w3.org/Graphics/SVG/1.1/DTD/svg11.dtd"><svg xmlns="http://www.w3.org/2000/svg" xmlns:xlink="http://www.w3.org/1999/xlink" version="1.1" width="512" height="512" viewBox="0 0 512 512">    <path fill="#ffffff" transform="scale(1, -1) translate(0, -448)" glyph-name="file-replace-outline" unicode="&#xFB18;" horiz-adv-x="512" d=" M298.6666666666667 384L256 426.6666666666667H85.3333333333333C61.8666666666667 426.6666666666667 42.6666666666667 407.4666666666667 42.6666666666667 384V128C42.6666666666667 104.5333333333333 61.8666666666667 85.3333333333334 85.3333333333333 85.3333333333334H234.6666666666667V42.6666666666667L320 106.6666666666667L234.6666666666667 170.6666666666667V128H85.3333333333333V384H298.6666666666667M448 234.6666666666667V0C448 -23.4666666666667 428.8 -42.6666666666666 405.3333333333333 -42.6666666666666H170.6666666666667C147.2 -42.6666666666666 128 -23.4666666666667 128 0V42.6666666666667H170.6666666666667V0H405.3333333333333V192H298.6666666666667V298.6666666666667H170.6666666666667V170.6666666666667H128V298.6666666666667C128 322.1333333333334 147.2 341.3333333333334 170.6666666666667 341.3333333333334H341.3333333333333L448 234.6666666666667z" /></svg>