<?xml version="1.0" encoding="UTF-8"?><!DOCTYPE svg PUBLIC "-//W3C//DTD SVG 1.1//EN" "http://www.w3.org/Graphics/SVG/1.1/DTD/svg11.dtd"><svg xmlns="http://www.w3.org/2000/svg" xmlns:xlink="http://www.w3.org/1999/xlink" version="1.1" width="512" height="512" viewBox="0 0 512 512">    <path fill="#ffffff" transform="scale(1, -1) translate(0, -448)" glyph-name="camera-off" unicode="&#xF5DF;" horiz-adv-x="512" d=" M25.6 352.64L53.3333333333333 379.7333333333334L426.6666666666667 5.9733333333334L399.5733333333333 -21.3333333333333L356.9066666666667 21.3333333333334H85.3333333333333C61.8666666666667 21.3333333333334 42.6666666666667 40.5333333333333 42.6666666666667 64V320C42.6666666666667 324.6933333333334 43.52 329.1733333333334 44.8 333.44L25.6 352.64M149.3333333333333 362.6666666666667L192 405.3333333333333H320L362.6666666666667 362.6666666666667H426.6666666666667C450.1333333333334 362.6666666666667 469.3333333333333 343.4666666666667 469.3333333333333 320V64C469.3333333333333 51.2 463.7866666666666 39.8933333333334 454.8266666666667 32L348.3733333333333 138.6666666666667C357.5466666666666 154.24 362.6666666666667 172.5866666666667 362.6666666666667 192C362.6666666666667 250.88 314.88 298.6666666666667 256 298.6666666666667C236.5866666666667 298.6666666666667 218.24 293.5466666666667 202.6666666666667 284.3733333333334L124.16 362.6666666666667H149.3333333333333M149.3333333333333 192C149.3333333333333 133.12 197.12 85.3333333333334 256 85.3333333333334C266.6666666666667 85.3333333333334 277.9733333333333 87.04 288 90.24L250.0266666666667 128C219.52 131.2000000000001 195.2 155.52 192 186.0266666666667L154.24 224C151.04 213.9733333333333 149.3333333333333 202.6666666666667 149.3333333333333 192M256 256C291.4133333333333 256 320 227.4133333333334 320 192C320 184.5333333333334 318.72 177.28 316.3733333333334 170.6666666666667L234.6666666666667 252.3733333333334C241.28 254.72 248.5333333333334 256 256 256z" /></svg>