<?xml version="1.0" encoding="UTF-8"?><!DOCTYPE svg PUBLIC "-//W3C//DTD SVG 1.1//EN" "http://www.w3.org/Graphics/SVG/1.1/DTD/svg11.dtd"><svg xmlns="http://www.w3.org/2000/svg" xmlns:xlink="http://www.w3.org/1999/xlink" version="1.1" width="512" height="512" viewBox="0 0 512 512">    <path fill="#ffffff" transform="scale(1, -1) translate(0, -448)" glyph-name="skype" unicode="&#xF4AF;" horiz-adv-x="512" d=" M384 320C428.16 276.48 444.8 215.68 434.3466666666667 158.9333333333333C443.0933333333333 143.5733333333333 448 125.6533333333333 448 106.6666666666667C448 47.7866666666668 400.2133333333333 0 341.3333333333333 0C322.3466666666667 0 304.4266666666666 4.9066666666667 289.0666666666667 13.6533333333334C232.32 3.2 171.52 19.84 128 64C83.84 107.52 67.2 168.3200000000001 77.6533333333334 225.0666666666667C68.9066666666667 240.4266666666667 64 258.3466666666667 64 277.3333333333334C64 336.2133333333334 111.7866666666667 384 170.6666666666667 384C189.6533333333333 384 207.5733333333333 379.0933333333334 222.9333333333333 370.3466666666667C279.68 380.8 340.48 364.16 384 320M256.8533333333333 81.92C318.08 81.92 348.5866666666667 111.36 348.5866666666667 151.04C348.5866666666667 176.4266666666667 336.64 203.52 290.3466666666667 213.9733333333334L247.8933333333333 223.36C231.68 226.9866666666667 213.3333333333333 231.8933333333334 213.3333333333333 247.04C213.3333333333333 262.4000000000001 226.1333333333334 273.0666666666667 249.6 273.0666666666667C297.1733333333333 273.0666666666667 292.6933333333333 240.4266666666667 316.3733333333333 240.4266666666667C328.7466666666666 240.4266666666667 339.4133333333333 247.6800000000001 339.4133333333333 260.2666666666667C339.4133333333333 289.4933333333334 292.6933333333333 311.4666666666667 253.0133333333333 311.4666666666667C210.1333333333333 311.4666666666667 164.2666666666667 293.12 164.2666666666667 244.48C164.2666666666667 221.0133333333334 172.5866666666667 196.0533333333334 218.6666666666667 184.5333333333334L276.0533333333333 170.0266666666667C293.3333333333333 165.7600000000001 297.6 156.16 297.6 147.2000000000001C297.6 132.6933333333334 283.0933333333333 118.4 256.8533333333333 118.4C205.44 118.4 212.48 157.8666666666667 184.96 157.8666666666667C172.5866666666666 157.8666666666667 163.6266666666666 149.3333333333334 163.6266666666666 137.1733333333334C163.6266666666666 113.4933333333334 192 81.92 256.8533333333333 81.92z" /></svg>