<?xml version="1.0" encoding="UTF-8"?><!DOCTYPE svg PUBLIC "-//W3C//DTD SVG 1.1//EN" "http://www.w3.org/Graphics/SVG/1.1/DTD/svg11.dtd"><svg xmlns="http://www.w3.org/2000/svg" xmlns:xlink="http://www.w3.org/1999/xlink" version="1.1" width="512" height="512" viewBox="0 0 512 512">    <path fill="#ffffff" transform="scale(1, -1) translate(0, -448)" glyph-name="candle" unicode="&#xF5E2;" horiz-adv-x="512" d=" M266.6666666666667 405.3333333333333C231.2533333333334 405.3333333333333 202.6666666666667 334.0800000000001 202.6666666666667 298.6666666666667C202.6666666666667 263.2533333333334 231.2533333333334 234.6666666666667 266.6666666666667 234.6666666666667S330.6666666666667 263.2533333333334 330.6666666666667 298.6666666666667S302.08 405.3333333333333 266.6666666666667 405.3333333333333M266.6666666666667 309.3333333333334C278.4 309.3333333333334 288 299.7333333333334 288 288S278.4 266.6666666666667 266.6666666666667 266.6666666666667S245.3333333333333 276.2666666666667 245.3333333333333 288S254.9333333333333 309.3333333333334 266.6666666666667 309.3333333333334M213.3333333333333 213.3333333333334C201.6 213.3333333333334 192 203.7333333333334 192 192V21.3333333333334H149.3333333333333C137.6 21.3333333333334 128 30.9333333333333 128 42.6666666666667V64C128 75.7333333333334 118.4 85.3333333333334 106.6666666666667 85.3333333333334S85.3333333333333 75.7333333333334 85.3333333333333 64V42.6666666666667C85.3333333333333 7.2533333333333 113.92 -21.3333333333333 149.3333333333333 -21.3333333333333H405.3333333333333C417.0666666666667 -21.3333333333333 426.6666666666667 -11.7333333333333 426.6666666666667 0S417.0666666666667 21.3333333333334 405.3333333333333 21.3333333333334H341.3333333333333V192C341.3333333333333 203.7333333333334 331.7333333333334 213.3333333333334 320 213.3333333333334H213.3333333333333z" /></svg>