<?xml version="1.0" encoding="UTF-8"?><!DOCTYPE svg PUBLIC "-//W3C//DTD SVG 1.1//EN" "http://www.w3.org/Graphics/SVG/1.1/DTD/svg11.dtd"><svg xmlns="http://www.w3.org/2000/svg" xmlns:xlink="http://www.w3.org/1999/xlink" version="1.1" width="512" height="512" viewBox="0 0 512 512">    <path fill="#ffffff" transform="scale(1, -1) translate(0, -448)" glyph-name="file-pdf-box" unicode="&#xF226;" horiz-adv-x="512" d=" M405.3333333333333 384C428.8 384 448 364.8 448 341.3333333333334V42.6666666666667C448 19.2 428.8 0 405.3333333333333 0H106.6666666666667C82.9866666666667 0 64 19.2 64 42.6666666666667V341.3333333333334C64 365.0133333333333 82.9866666666667 384 106.6666666666667 384H405.3333333333333M225.92 232.96C225.4933333333334 231.8933333333333 219.7333333333334 195.4133333333334 181.3333333333333 132.9066666666667C181.3333333333333 132.9066666666667 106.6666666666667 94.2933333333334 124.3733333333333 65.2800000000001C138.6666666666667 42.6666666666667 173.8666666666667 66.1333333333334 203.9466666666667 122.2400000000001C203.9466666666667 122.2400000000001 242.7733333333334 135.8933333333334 294.1866666666667 139.7333333333334C294.1866666666667 139.7333333333334 376.5333333333334 102.6133333333334 387.6266666666667 142.0800000000001C398.7200000000001 181.3333333333334 322.56 172.8000000000001 309.3333333333334 168.7466666666667C309.3333333333334 168.7466666666667 265.8133333333334 197.3333333333334 256 237.0133333333334C256 237.0133333333334 280.1066666666667 321.0666666666667 242.7733333333334 320.0000000000001C205.4400000000001 318.9333333333334 219.5200000000001 253.4400000000001 225.9200000000001 232.9600000000001M243.2000000000001 210.5600000000001C243.8400000000001 210.5600000000001 253.2266666666668 184.9600000000001 283.5200000000001 158.2933333333334C283.5200000000001 158.2933333333334 233.8133333333334 148.48 211.2000000000001 138.6666666666668C211.2000000000001 138.6666666666668 232.5333333333334 176.0000000000001 243.2000000000001 210.56M326.8266666666667 152.7466666666667C339.2000000000001 155.9466666666667 376.3200000000001 149.3333333333334 375.0400000000001 142.5066666666667C373.3333333333335 135.4666666666667 326.8266666666668 152.7466666666667 326.8266666666668 152.7466666666667M176.2133333333333 113.0666666666667C164.9066666666667 87.2533333333333 145.7066666666667 70.8266666666667 140.8 71.0400000000001C135.8933333333333 71.2533333333335 155.7333333333333 105.1733333333334 176.2133333333333 113.0666666666667M243.2 261.1200000000001C242.9866666666667 262.1866666666667 235.3066666666667 307.8400000000001 243.2 306.9866666666668C254.7200000000001 305.7066666666667 243.2 262.1866666666667 243.2 261.1200000000001z" /></svg>