<?xml version="1.0" encoding="UTF-8"?><!DOCTYPE svg PUBLIC "-//W3C//DTD SVG 1.1//EN" "http://www.w3.org/Graphics/SVG/1.1/DTD/svg11.dtd"><svg xmlns="http://www.w3.org/2000/svg" xmlns:xlink="http://www.w3.org/1999/xlink" version="1.1" width="512" height="512" viewBox="0 0 512 512">    <path fill="#ffffff" transform="scale(1, -1) translate(0, -448)" glyph-name="account-circle-outline" unicode="&#xFB31;" horiz-adv-x="512" d=" M256 405.3333333333333C138.24 405.3333333333333 42.6666666666667 309.76 42.6666666666667 192S138.24 -21.3333333333333 256 -21.3333333333333S469.3333333333333 74.24 469.3333333333333 192S373.76 405.3333333333333 256 405.3333333333333M150.8266666666667 58.0266666666666C160 77.2266666666666 215.8933333333334 96 256 96S352 77.2266666666667 361.1733333333333 58.0266666666666C332.16 34.9866666666667 295.68 21.3333333333334 256 21.3333333333334C216.32 21.3333333333334 179.84 34.9866666666667 150.8266666666667 58.0266666666666M391.68 88.96C361.1733333333333 126.08 287.1466666666667 138.6666666666666 256 138.6666666666666S150.8266666666667 126.08 120.32 88.96C98.56 117.3333333333334 85.3333333333333 153.1733333333334 85.3333333333333 192C85.3333333333333 286.0800000000001 161.92 362.6666666666667 256 362.6666666666667S426.6666666666667 286.0800000000001 426.6666666666667 192C426.6666666666667 153.1733333333334 413.44 117.3333333333334 391.68 88.96M256 320C214.6133333333334 320 181.3333333333333 286.7200000000001 181.3333333333333 245.3333333333334S214.6133333333334 170.6666666666667 256 170.6666666666667S330.6666666666667 203.9466666666667 330.6666666666667 245.3333333333334S297.3866666666667 320 256 320M256 213.3333333333334C238.2933333333333 213.3333333333334 224 227.6266666666667 224 245.3333333333334S238.2933333333333 277.3333333333334 256 277.3333333333334S288 263.04 288 245.3333333333334S273.7066666666667 213.3333333333334 256 213.3333333333334z" /></svg>