<?xml version="1.0" encoding="UTF-8"?><!DOCTYPE svg PUBLIC "-//W3C//DTD SVG 1.1//EN" "http://www.w3.org/Graphics/SVG/1.1/DTD/svg11.dtd"><svg xmlns="http://www.w3.org/2000/svg" xmlns:xlink="http://www.w3.org/1999/xlink" version="1.1" width="512" height="512" viewBox="0 0 512 512">    <path fill="#ffffff" transform="scale(1, -1) translate(0, -448)" glyph-name="feather" unicode="&#xF6D2;" horiz-adv-x="512" d=" M469.3333333333333 405.3333333333333S306.3466666666667 413.2266666666667 177.92 237.2266666666667C79.36 102.1866666666667 42.6666666666667 -21.3333333333333 42.6666666666667 -21.3333333333333L84.0533333333333 0C114.7733333333333 53.3333333333334 130.7733333333333 75.3066666666667 160.8533333333333 106.6666666666667C214.8266666666667 90.8800000000001 271.1466666666667 92.8000000000001 320 149.3333333333334C277.3333333333333 161.28 243.2 158.5066666666667 192.8533333333333 153.3866666666667C249.3866666666667 192 288 200.5333333333334 341.3333333333333 192L362.6666666666667 234.6666666666667C324.2666666666667 241.92 298.6666666666667 242.56 260.6933333333333 233.8133333333334C302.72 263.4666666666667 331.9466666666667 280.1066666666667 384 277.3333333333334L409.8133333333334 318.5066666666667C376.5333333333334 320.8533333333334 356.48 317.2266666666667 318.2933333333334 307.8400000000001C352.64 338.9866666666667 384 353.0666666666667 429.6533333333333 355.8400000000001C429.6533333333333 355.8400000000001 452.0533333333333 396.16 469.3333333333333 405.3333333333333z" /></svg>