<?xml version="1.0" encoding="UTF-8"?><!DOCTYPE svg PUBLIC "-//W3C//DTD SVG 1.1//EN" "http://www.w3.org/Graphics/SVG/1.1/DTD/svg11.dtd"><svg xmlns="http://www.w3.org/2000/svg" xmlns:xlink="http://www.w3.org/1999/xlink" version="1.1" width="512" height="512" viewBox="0 0 512 512">    <path fill="#ffffff" transform="scale(1, -1) translate(0, -448)" glyph-name="set-top-box" unicode="&#xF99E;" horiz-adv-x="512" d=" M106.6666666666667 117.3333333333334C106.6666666666667 111.36 101.9733333333333 106.6666666666667 96 106.6666666666667H74.6666666666667C68.6933333333333 106.6666666666667 64 111.36 64 117.3333333333334V128H42.6666666666667C30.9333333333333 128 21.3333333333333 137.6 21.3333333333333 149.3333333333334V213.3333333333334C21.3333333333333 225.0666666666667 30.9333333333333 234.6666666666667 42.6666666666667 234.6666666666667H469.3333333333333C481.0666666666667 234.6666666666667 490.6666666666666 225.0666666666667 490.6666666666666 213.3333333333334V149.3333333333334C490.6666666666666 137.6 481.0666666666667 128 469.3333333333333 128H448V117.3333333333334C448 111.36 443.3066666666667 106.6666666666667 437.3333333333333 106.6666666666667H416C410.0266666666667 106.6666666666667 405.3333333333333 111.36 405.3333333333333 117.3333333333334V128H106.6666666666667V117.3333333333334M64 192V170.6666666666667H106.6666666666667V192H64M128 192V170.6666666666667H170.6666666666667V192H128M437.3333333333333 202.6666666666667C425.6 202.6666666666667 416 193.0666666666667 416 181.3333333333334S425.6 160 437.3333333333333 160S458.6666666666666 169.6 458.6666666666666 181.3333333333334S449.0666666666667 202.6666666666667 437.3333333333333 202.6666666666667z" /></svg>