<?xml version="1.0" encoding="UTF-8"?><!DOCTYPE svg PUBLIC "-//W3C//DTD SVG 1.1//EN" "http://www.w3.org/Graphics/SVG/1.1/DTD/svg11.dtd"><svg xmlns="http://www.w3.org/2000/svg" xmlns:xlink="http://www.w3.org/1999/xlink" version="1.1" width="512" height="512" viewBox="0 0 512 512">    <path fill="#ffffff" transform="scale(1, -1) translate(0, -448)" glyph-name="elevator" unicode="&#xF1ED;" horiz-adv-x="512" d=" M149.3333333333333 405.3333333333333L234.6666666666667 320H170.6666666666667V234.6666666666667H128V320H64L149.3333333333333 405.3333333333333M362.6666666666667 234.6666666666667L277.3333333333333 320H341.3333333333333V405.3333333333333H384V320H448L362.6666666666667 234.6666666666667M149.3333333333333 192H362.6666666666667C386.1333333333334 192 405.3333333333333 172.8 405.3333333333333 149.3333333333334V21.3333333333334C405.3333333333333 -2.1333333333333 386.1333333333334 -21.3333333333333 362.6666666666667 -21.3333333333333H149.3333333333333C125.8666666666667 -21.3333333333333 106.6666666666667 -2.1333333333333 106.6666666666667 21.3333333333334V149.3333333333334C106.6666666666667 172.8 125.8666666666667 192 149.3333333333333 192M149.3333333333333 149.3333333333334V21.3333333333334H362.6666666666667V149.3333333333334H149.3333333333333z" /></svg>