<?xml version="1.0" encoding="UTF-8"?><!DOCTYPE svg PUBLIC "-//W3C//DTD SVG 1.1//EN" "http://www.w3.org/Graphics/SVG/1.1/DTD/svg11.dtd"><svg xmlns="http://www.w3.org/2000/svg" xmlns:xlink="http://www.w3.org/1999/xlink" version="1.1" width="512" height="512" viewBox="0 0 512 512">    <path fill="#ffffff" transform="scale(1, -1) translate(0, -448)" glyph-name="xing-circle" unicode="&#xF5BF;" horiz-adv-x="512" d=" M256 405.3333333333333C138.24 405.3333333333333 42.6666666666667 309.76 42.6666666666667 192S138.24 -21.3333333333333 256 -21.3333333333333S469.3333333333333 74.24 469.3333333333333 192S373.76 405.3333333333333 256 405.3333333333333M338.1333333333334 320H378.4533333333333C381.0133333333333 320 382.7199999999999 319.1466666666667 384 317.44C384.8533333333333 315.7333333333334 384.8533333333333 313.6 384 311.2533333333334L295.2533333333334 154.4533333333334L352 51.4133333333334C352.64 49.28 352.64 46.9333333333333 352 45.2266666666667C350.5066666666667 43.5200000000001 348.8 42.6666666666667 346.4533333333333 42.6666666666667H306.3466666666667C300.16 42.6666666666667 297.1733333333333 46.72 295.2533333333334 50.3466666666667L238.2933333333333 154.4533333333333C241.28 160 327.4666666666667 312.32 327.4666666666667 312.32C329.6 316.16 332.16 320 338.1333333333334 320M160 265.1733333333334H200.32C206.2933333333333 265.1733333333334 209.28 261.3333333333334 211.2 257.7066666666667L238.7200000000001 209.7066666666667C237.2266666666667 206.9333333333333 195.6266666666667 133.3333333333334 195.6266666666667 133.3333333333334C193.4933333333334 129.7066666666667 190.72 125.6533333333334 184.7466666666667 125.6533333333334H144.64C142.2933333333333 125.6533333333334 140.5866666666667 126.72 139.52 128C138.6666666666667 130.1333333333333 138.6666666666667 132.2666666666667 139.52 134.6133333333334L181.9733333333333 209.7066666666667L155.0933333333333 256C153.8133333333333 258.7733333333334 153.6 260.9066666666667 154.6666666666667 262.6133333333334C155.7333333333333 264.3200000000001 157.6533333333333 265.1733333333334 160 265.1733333333334z" /></svg>