<?xml version="1.0" encoding="UTF-8"?><!DOCTYPE svg PUBLIC "-//W3C//DTD SVG 1.1//EN" "http://www.w3.org/Graphics/SVG/1.1/DTD/svg11.dtd"><svg xmlns="http://www.w3.org/2000/svg" xmlns:xlink="http://www.w3.org/1999/xlink" version="1.1" width="512" height="512" viewBox="0 0 512 512">    <path fill="#ffffff" transform="scale(1, -1) translate(0, -448)" glyph-name="rice" unicode="&#xF7E9;" horiz-adv-x="512" d=" M469.3333333333333 213.3333333333334H420.2666666666667C413.8666666666666 236.8 403.2 260.2666666666667 388.2666666666667 277.3333333333334L460.8 392.5333333333334L424.5333333333333 416L356.2666666666667 307.2000000000001C347.7333333333334 313.6 341.3333333333333 317.8666666666667 330.6666666666667 322.1333333333334L349.8666666666666 398.9333333333334L309.3333333333333 409.6L292.2666666666666 337.0666666666667C279.4666666666666 339.2000000000001 268.8 341.3333333333334 256 341.3333333333334C177.0666666666666 341.3333333333334 110.9333333333333 285.8666666666667 91.7333333333333 213.3333333333334H42.6666666666667C42.6666666666667 125.8666666666667 96 51.2 170.6666666666667 17.0666666666667V-21.3333333333333H341.3333333333333V17.0666666666667C416 51.2 469.3333333333333 125.8666666666667 469.3333333333333 213.3333333333334M256 298.6666666666667C311.4666666666667 298.6666666666667 358.4 262.4000000000001 375.4666666666667 213.3333333333334H136.5333333333333C153.6 262.4000000000001 200.5333333333333 298.6666666666667 256 298.6666666666667z" /></svg>