<?xml version="1.0" encoding="UTF-8"?><!DOCTYPE svg PUBLIC "-//W3C//DTD SVG 1.1//EN" "http://www.w3.org/Graphics/SVG/1.1/DTD/svg11.dtd"><svg xmlns="http://www.w3.org/2000/svg" xmlns:xlink="http://www.w3.org/1999/xlink" version="1.1" width="512" height="512" viewBox="0 0 512 512">    <path fill="#ffffff" transform="scale(1, -1) translate(0, -448)" glyph-name="arrow-collapse-all" unicode="&#xF044;" horiz-adv-x="512" d=" M416 382.0800000000001L446.08 352L350.08 256H426.6666666666667V213.3333333333334H277.3333333333333V362.6666666666667H320V286.0800000000001L416 382.0800000000001M446.08 32L416 1.92L320 97.92V21.3333333333334H277.3333333333333V170.6666666666667H426.6666666666667V128H350.08L446.08 32M96 382.0800000000001L192 286.0800000000001V362.6666666666667H234.6666666666667V213.3333333333334H85.3333333333333V256H161.92L65.92 352L96 382.0800000000001M65.92 32L161.92 128H85.3333333333333V170.6666666666667H234.6666666666667V21.3333333333334H192V97.92L96 1.92L65.92 32z" /></svg>