<?xml version="1.0" encoding="UTF-8"?><!DOCTYPE svg PUBLIC "-//W3C//DTD SVG 1.1//EN" "http://www.w3.org/Graphics/SVG/1.1/DTD/svg11.dtd"><svg xmlns="http://www.w3.org/2000/svg" xmlns:xlink="http://www.w3.org/1999/xlink" version="1.1" width="512" height="512" viewBox="0 0 512 512">    <path fill="#ffffff" transform="scale(1, -1) translate(0, -448)" glyph-name="link" unicode="&#xF337;" horiz-adv-x="512" d=" M83.2 192C83.2 228.48 112.8533333333333 258.1333333333334 149.3333333333333 258.1333333333334H234.6666666666667V298.6666666666667H149.3333333333333C90.4533333333333 298.6666666666667 42.6666666666667 250.88 42.6666666666667 192S90.4533333333333 85.3333333333334 149.3333333333333 85.3333333333334H234.6666666666667V125.8666666666667H149.3333333333333C112.8533333333333 125.8666666666667 83.2 155.5200000000001 83.2 192M170.6666666666667 170.6666666666667H341.3333333333333V213.3333333333334H170.6666666666667V170.6666666666667M362.6666666666667 298.6666666666667H277.3333333333333V258.1333333333334H362.6666666666667C399.1466666666667 258.1333333333334 428.8 228.48 428.8 192C428.8 155.52 399.1466666666667 125.8666666666667 362.6666666666667 125.8666666666667H277.3333333333333V85.3333333333334H362.6666666666667C421.5466666666666 85.3333333333334 469.3333333333333 133.12 469.3333333333333 192S421.5466666666666 298.6666666666667 362.6666666666667 298.6666666666667z" /></svg>