<?xml version="1.0" encoding="UTF-8"?><!DOCTYPE svg PUBLIC "-//W3C//DTD SVG 1.1//EN" "http://www.w3.org/Graphics/SVG/1.1/DTD/svg11.dtd"><svg xmlns="http://www.w3.org/2000/svg" xmlns:xlink="http://www.w3.org/1999/xlink" version="1.1" width="512" height="512" viewBox="0 0 512 512">    <path fill="#ffffff" transform="scale(1, -1) translate(0, -448)" glyph-name="language-typescript" unicode="&#xF6E5;" horiz-adv-x="512" d=" M64 384H448V0H64V384M292.48 66.9866666666667C303.1466666666667 46.08 324.6933333333334 30.08 358.4 30.08C392.5333333333334 30.08 418.1333333333334 47.7866666666666 418.1333333333334 80.4266666666667C418.1333333333334 110.5066666666667 400.8533333333334 123.9466666666667 370.1333333333334 137.1733333333334L361.1733333333333 141.0133333333333C345.6 147.6266666666667 338.9866666666667 152.1066666666667 338.9866666666667 162.7733333333333C338.9866666666667 171.52 345.6 178.3466666666667 356.2666666666667 178.3466666666667C366.5066666666667 178.3466666666667 373.3333333333333 173.8666666666667 379.52 162.7733333333333L407.4666666666666 181.3333333333333C395.7333333333333 201.8133333333333 379.0933333333333 209.7066666666667 356.2666666666667 209.7066666666667C324.0533333333333 209.7066666666667 303.36 189.2266666666666 303.36 162.1333333333333C303.36 132.6933333333333 320.64 118.8266666666667 346.6666666666667 107.7333333333333L355.6266666666667 103.8933333333333C372.2666666666667 96.64 382.08 92.16 382.08 79.7866666666666C382.08 69.5466666666666 372.48 62.08 357.5466666666667 62.08C339.8400000000001 62.08 329.6 71.2533333333333 321.92 84.0533333333334L292.48 66.9866666666667M277.3333333333333 208H170.6666666666667V176H202.6666666666667V21.3333333333334H240V176H277.3333333333333V208z" /></svg>