<?xml version="1.0" encoding="UTF-8"?><!DOCTYPE svg PUBLIC "-//W3C//DTD SVG 1.1//EN" "http://www.w3.org/Graphics/SVG/1.1/DTD/svg11.dtd"><svg xmlns="http://www.w3.org/2000/svg" xmlns:xlink="http://www.w3.org/1999/xlink" version="1.1" width="512" height="512" viewBox="0 0 512 512">    <path fill="#ffffff" transform="scale(1, -1) translate(0, -448)" glyph-name="heart-half-full" unicode="&#xF6DD;" horiz-adv-x="512" d=" M352 341.3333333333334C320 341.3333333333334 289.7066666666667 321.92 277.3333333333333 294.4V69.5466666666667C368 152.1066666666668 426.6666666666667 209.0666666666667 426.6666666666667 266.6666666666668C426.6666666666667 309.3333333333334 394.6666666666667 341.3333333333334 352 341.3333333333334M352 384.0000000000001C417.7066666666666 384 469.3333333333333 332.5866666666667 469.3333333333333 266.6666666666667C469.3333333333333 186.24 396.8 120.3200000000001 286.9333333333333 20.6933333333333L256 -7.4666666666667L225.0666666666667 20.6933333333333C115.2 120.3200000000001 42.6666666666667 186.24 42.6666666666667 266.6666666666667C42.6666666666667 332.5866666666667 94.2933333333333 384 160 384C197.12 384 232.7466666666667 366.7200000000001 256 339.6266666666667C279.2533333333334 366.7200000000001 314.88 384 352 384z" /></svg>