<?xml version="1.0" encoding="UTF-8"?><!DOCTYPE svg PUBLIC "-//W3C//DTD SVG 1.1//EN" "http://www.w3.org/Graphics/SVG/1.1/DTD/svg11.dtd"><svg xmlns="http://www.w3.org/2000/svg" xmlns:xlink="http://www.w3.org/1999/xlink" version="1.1" width="512" height="512" viewBox="0 0 512 512">    <path fill="#ffffff" transform="scale(1, -1) translate(0, -448)" glyph-name="creative-commons" unicode="&#xFD47;" horiz-adv-x="512" d=" M253.6533333333334 227.4133333333334L225.0666666666667 212.48C222.08 218.8800000000001 218.4533333333333 223.36 213.9733333333334 225.9200000000001C209.4933333333334 228.48 205.2266666666667 229.7600000000001 201.6 229.7600000000001C182.4 229.7600000000001 173.0133333333334 217.1733333333334 173.0133333333334 192.0000000000001C173.0133333333334 180.48 175.36 171.3066666666667 180.2666666666667 164.48C184.96 157.6533333333334 192 154.24 201.6 154.24C213.9733333333334 154.24 222.72 160 227.8400000000001 172.5866666666667L254.0800000000001 159.1466666666667C248.5333333333334 148.6933333333333 240.8533333333334 140.5866666666667 230.8266666666667 134.6133333333334C221.0133333333334 128.64 210.1333333333334 125.6533333333333 198.1866666666667 125.6533333333333C178.9866666666667 125.6533333333333 163.6266666666667 131.4133333333333 151.8933333333334 143.1466666666667C140.3733333333333 154.88 134.4 170.6666666666667 134.4 192C134.4 212.2666666666667 140.3733333333333 228.2666666666667 152.1066666666667 240.2133333333334C164.0533333333333 252.1600000000001 178.9866666666667 258.1333333333334 196.9066666666667 258.1333333333334C223.36 258.3466666666667 242.3466666666667 247.8933333333333 253.6533333333334 227.4133333333334M376.7466666666667 227.4133333333334L348.5866666666667 212.48C345.6 218.8800000000001 341.3333333333333 223.36 337.28 225.9200000000001C332.8 228.48 328.5333333333333 229.7600000000001 324.48 229.7600000000001C305.4933333333334 229.7600000000001 295.8933333333333 217.1733333333334 295.8933333333333 192.0000000000001C295.8933333333333 180.48 298.6666666666667 171.3066666666667 303.1466666666667 164.48C308.0533333333334 157.6533333333334 315.0933333333334 154.24 324.48 154.24C337.0666666666667 154.24 345.8133333333334 160 350.9333333333333 172.5866666666667L377.6 159.1466666666667C371.6266666666666 148.6933333333333 363.7333333333334 140.5866666666667 353.92 134.6133333333334C343.8933333333333 128.64 333.2266666666667 125.6533333333333 321.4933333333334 125.6533333333333C302.2933333333333 125.6533333333333 286.7200000000001 131.4133333333333 275.2 143.1466666666667C263.68 154.88 257.92 170.6666666666667 257.92 192C257.92 212.2666666666667 263.8933333333333 228.2666666666667 275.6266666666667 240.2133333333334C287.36 252.1600000000001 302.2933333333333 258.1333333333334 320 258.1333333333334C346.88 258.3466666666667 365.6533333333333 247.8933333333333 376.7466666666667 227.4133333333334M256 373.3333333333334C356.0533333333334 373.3333333333334 437.3333333333333 292.0533333333334 437.3333333333333 192C437.3333333333333 91.9466666666667 356.0533333333334 10.6666666666667 256 10.6666666666667C155.9466666666667 10.6666666666667 74.6666666666667 91.9466666666667 74.6666666666667 192C74.6666666666667 292.0533333333334 155.9466666666667 373.3333333333334 256 373.3333333333334M256 405.3333333333333C138.24 405.3333333333333 42.6666666666667 309.76 42.6666666666667 192S138.24 -21.3333333333333 256 -21.3333333333333S469.3333333333333 74.24 469.3333333333333 192S373.76 405.3333333333333 256 405.3333333333333z" /></svg>