<?xml version="1.0" encoding="UTF-8"?><!DOCTYPE svg PUBLIC "-//W3C//DTD SVG 1.1//EN" "http://www.w3.org/Graphics/SVG/1.1/DTD/svg11.dtd"><svg xmlns="http://www.w3.org/2000/svg" xmlns:xlink="http://www.w3.org/1999/xlink" version="1.1" width="512" height="512" viewBox="0 0 512 512">    <path fill="#ffffff" transform="scale(1, -1) translate(0, -448)" glyph-name="table-row-height" unicode="&#xF4F2;" horiz-adv-x="512" d=" M64 341.3333333333334H320C343.4666666666667 341.3333333333334 362.6666666666667 322.1333333333334 362.6666666666667 298.6666666666667V85.3333333333334C362.6666666666667 61.8666666666667 343.4666666666667 42.6666666666667 320 42.6666666666667H64C40.5333333333333 42.6666666666667 21.3333333333333 61.8666666666667 21.3333333333333 85.3333333333334V298.6666666666667C21.3333333333333 322.1333333333334 40.5333333333333 341.3333333333334 64 341.3333333333334M64 256V192H170.6666666666667V256H64M213.3333333333333 256V192H320V256H213.3333333333333M64 149.3333333333334V85.3333333333334H170.6666666666667V149.3333333333334H64M213.3333333333333 149.3333333333334V85.3333333333334H320V149.3333333333334H213.3333333333333M490.6666666666666 149.3333333333334V298.6666666666667H405.3333333333333V256H448V192H405.3333333333333V149.3333333333334H490.6666666666666z" /></svg>