<?xml version="1.0" encoding="UTF-8"?><!DOCTYPE svg PUBLIC "-//W3C//DTD SVG 1.1//EN" "http://www.w3.org/Graphics/SVG/1.1/DTD/svg11.dtd"><svg xmlns="http://www.w3.org/2000/svg" xmlns:xlink="http://www.w3.org/1999/xlink" version="1.1" width="512" height="512" viewBox="0 0 512 512">    <path fill="#ffffff" transform="scale(1, -1) translate(0, -448)" glyph-name="gauge-empty" unicode="&#xF872;" horiz-adv-x="512" d=" M256 405.3333333333333C373.76 405.3333333333333 469.3333333333333 309.76 469.3333333333333 192S373.76 -21.3333333333333 256 -21.3333333333333S42.6666666666667 74.24 42.6666666666667 192S138.24 405.3333333333333 256 405.3333333333333M256 362.6666666666667C161.7066666666667 362.6666666666667 85.3333333333333 286.2933333333334 85.3333333333333 192C85.3333333333333 140.8 106.6666666666667 96 142.9333333333333 64C172.8 91.7333333333334 213.3333333333333 106.6666666666667 256 106.6666666666667S337.0666666666667 91.7333333333334 369.0666666666667 64C405.3333333333333 96 426.6666666666667 140.8 426.6666666666667 192C426.6666666666667 286.2933333333334 350.2933333333334 362.6666666666667 256 362.6666666666667M298.6666666666667 320C310.4 320 320 310.4 320 298.6666666666667S310.4 277.3333333333334 298.6666666666667 277.3333333333334S277.3333333333333 286.9333333333334 277.3333333333333 298.6666666666667S286.9333333333333 320 298.6666666666667 320M213.3333333333333 320C225.0666666666667 320 234.6666666666667 310.4 234.6666666666667 298.6666666666667S225.0666666666667 277.3333333333334 213.3333333333333 277.3333333333334S192 286.9333333333334 192 298.6666666666667S201.6 320 213.3333333333333 320M147.4133333333333 257.2800000000001C150.1866666666667 257.2800000000001 152.7466666666667 256.6400000000001 155.7333333333333 256L224 227.84L229.76 225.4933333333334C241.7066666666667 234.6666666666667 257.92 237.2266666666667 272 231.4666666666667C293.76 222.72 304.4266666666666 197.76 295.4666666666667 176C286.72 154.24 261.76 143.5733333333334 240 152.5333333333334C225.92 158.0800000000001 215.8933333333334 170.6666666666667 213.3333333333333 186.0266666666667L208.4266666666667 188.16L139.7333333333333 215.8933333333334L139.3066666666667 216.1066666666667C128 220.5866666666667 123.0933333333333 232.9600000000001 127.36 244.0533333333334C130.7733333333333 252.1600000000001 138.6666666666666 257.4933333333334 147.4133333333333 257.2800000000001M362.6666666666667 256C374.4 256 384 246.4000000000001 384 234.6666666666667S374.4 213.3333333333334 362.6666666666667 213.3333333333334S341.3333333333333 222.9333333333333 341.3333333333333 234.6666666666667S350.9333333333333 256 362.6666666666667 256z" /></svg>