<?xml version="1.0" encoding="UTF-8"?><!DOCTYPE svg PUBLIC "-//W3C//DTD SVG 1.1//EN" "http://www.w3.org/Graphics/SVG/1.1/DTD/svg11.dtd"><svg xmlns="http://www.w3.org/2000/svg" xmlns:xlink="http://www.w3.org/1999/xlink" version="1.1" width="512" height="512" viewBox="0 0 512 512">    <path fill="#ffffff" transform="scale(1, -1) translate(0, -448)" glyph-name="signal-variant" unicode="&#xF60A;" horiz-adv-x="512" d=" M85.3333333333333 320V362.6666666666667H87.4666666666667C275.2 362.6666666666667 426.6666666666667 211.2 426.6666666666667 23.4666666666667V21.3333333333334H384V23.4666666666667C384 187.7333333333334 251.7333333333334 320 85.3333333333333 320M85.3333333333333 234.6666666666667V277.3333333333334C226.7733333333333 277.3333333333334 341.3333333333333 162.7733333333333 341.3333333333333 21.3333333333334H298.6666666666667C298.6666666666667 139.0933333333334 203.0933333333333 234.6666666666667 85.3333333333333 234.6666666666667M85.3333333333333 149.3333333333334V192C179.6266666666667 192 256 115.6266666666667 256 21.3333333333334H213.3333333333333C213.3333333333333 91.9466666666667 155.9466666666667 149.3333333333334 85.3333333333333 149.3333333333334M85.3333333333333 106.6666666666667C132.48 106.6666666666667 170.6666666666667 68.48 170.6666666666667 21.3333333333334H85.3333333333333V106.6666666666667z" /></svg>