<?xml version="1.0" encoding="UTF-8"?><!DOCTYPE svg PUBLIC "-//W3C//DTD SVG 1.1//EN" "http://www.w3.org/Graphics/SVG/1.1/DTD/svg11.dtd"><svg xmlns="http://www.w3.org/2000/svg" xmlns:xlink="http://www.w3.org/1999/xlink" version="1.1" width="512" height="512" viewBox="0 0 512 512">    <path fill="#ffffff" transform="scale(1, -1) translate(0, -448)" glyph-name="clipboard-arrow-up-outline" unicode="&#xFC34;" horiz-adv-x="512" d=" M256 277.3333333333334L362.6666666666667 170.6666666666667H298.6666666666667V85.3333333333334H213.3333333333333V170.6666666666667H149.3333333333333L256 277.3333333333334M405.3333333333333 384C428.8 384 448 364.8 448 341.3333333333334V42.6666666666667C448 19.2 428.8 0 405.3333333333333 0H106.6666666666667C83.2 0 64 19.2 64 42.6666666666667V341.3333333333334C64 364.8 83.2 384 106.6666666666667 384H195.84C204.8 408.7466666666667 228.2666666666667 426.6666666666667 256 426.6666666666667C283.7333333333334 426.6666666666667 307.2 408.7466666666667 316.16 384H405.3333333333333M256 384C244.2666666666667 384 234.6666666666667 374.4 234.6666666666667 362.6666666666667S244.2666666666667 341.3333333333334 256 341.3333333333334S277.3333333333333 350.9333333333334 277.3333333333333 362.6666666666667S267.7333333333334 384 256 384M149.3333333333333 298.6666666666667V341.3333333333334H106.6666666666667V42.6666666666667H405.3333333333333V341.3333333333334H362.6666666666667V298.6666666666667H149.3333333333333z" /></svg>