<?xml version="1.0" encoding="UTF-8"?><!DOCTYPE svg PUBLIC "-//W3C//DTD SVG 1.1//EN" "http://www.w3.org/Graphics/SVG/1.1/DTD/svg11.dtd"><svg xmlns="http://www.w3.org/2000/svg" xmlns:xlink="http://www.w3.org/1999/xlink" version="1.1" width="512" height="512" viewBox="0 0 512 512">    <path fill="#ffffff" transform="scale(1, -1) translate(0, -448)" glyph-name="library-music" unicode="&#xF333;" horiz-adv-x="512" d=" M85.3333333333333 320H42.6666666666667V21.3333333333334C42.6666666666667 -2.1333333333333 61.8666666666667 -21.3333333333333 85.3333333333333 -21.3333333333333H384V21.3333333333334H85.3333333333333M384 298.6666666666667H320V181.3333333333334C320 151.8933333333334 296.1066666666667 128 266.6666666666667 128S213.3333333333333 151.8933333333333 213.3333333333333 181.3333333333334S237.2266666666667 234.6666666666667 266.6666666666667 234.6666666666667C278.8266666666667 234.6666666666667 289.7066666666667 230.6133333333334 298.6666666666667 224V341.3333333333334H384M426.6666666666667 405.3333333333333H170.6666666666667C147.2 405.3333333333333 128 386.1333333333334 128 362.6666666666667V106.6666666666667C128 83.2 147.2 64 170.6666666666667 64H426.6666666666667C450.1333333333334 64 469.3333333333333 83.2 469.3333333333333 106.6666666666667V362.6666666666667C469.3333333333333 386.1333333333334 450.1333333333334 405.3333333333333 426.6666666666667 405.3333333333333z" /></svg>