<?xml version="1.0" encoding="UTF-8"?><!DOCTYPE svg PUBLIC "-//W3C//DTD SVG 1.1//EN" "http://www.w3.org/Graphics/SVG/1.1/DTD/svg11.dtd"><svg xmlns="http://www.w3.org/2000/svg" xmlns:xlink="http://www.w3.org/1999/xlink" version="1.1" width="512" height="512" viewBox="0 0 512 512">    <path fill="#ffffff" transform="scale(1, -1) translate(0, -448)" glyph-name="nuke" unicode="&#xF6A3;" horiz-adv-x="512" d=" M299.52 192H213.3333333333333V213.3333333333334H117.3333333333333C76.16 213.3333333333334 42.6666666666667 246.8266666666667 42.6666666666667 288S76.16 362.6666666666667 117.3333333333333 362.6666666666667C139.3066666666667 362.6666666666667 158.9333333333333 353.28 172.5866666666667 338.1333333333334C181.3333333333333 376.5333333333333 215.04 405.3333333333333 256 405.3333333333333C296.96 405.3333333333333 330.6666666666667 376.5333333333333 339.4133333333333 338.1333333333334C353.0666666666667 353.28 372.6933333333333 362.6666666666667 394.6666666666667 362.6666666666667C435.84 362.6666666666667 469.3333333333333 329.1733333333334 469.3333333333333 288S435.84 213.3333333333334 394.6666666666667 213.3333333333334H299.52V192M213.3333333333333 87.4666666666667V111.7866666666668H106.6666666666667V154.4533333333334H405.3333333333333V111.7866666666668H299.52V87.0400000000001L426.6666666666667 40.96C439.04 36.48 448 24.7466666666667 448 10.6666666666667C448 -7.04 433.7066666666666 -21.3333333333333 416 -21.3333333333333H96C78.2933333333333 -21.3333333333333 64 -7.04 64 10.6666666666667C64 24.7466666666667 72.96 36.48 85.3333333333333 40.96L213.3333333333333 87.4666666666667z" /></svg>