<?xml version="1.0" encoding="UTF-8"?><!DOCTYPE svg PUBLIC "-//W3C//DTD SVG 1.1//EN" "http://www.w3.org/Graphics/SVG/1.1/DTD/svg11.dtd"><svg xmlns="http://www.w3.org/2000/svg" xmlns:xlink="http://www.w3.org/1999/xlink" version="1.1" width="512" height="512" viewBox="0 0 512 512">    <path fill="#ffffff" transform="scale(1, -1) translate(0, -448)" glyph-name="logout-variant" unicode="&#xF5FD;" horiz-adv-x="512" d=" M300.3733333333334 115.4133333333334L355.6266666666667 170.6666666666667H149.3333333333333V213.3333333333334H355.6266666666667L300.3733333333334 268.5866666666667L330.6666666666667 298.6666666666667L437.3333333333333 192L330.6666666666667 85.3333333333334L300.3733333333334 115.4133333333334M405.3333333333333 384C428.8 384 448 364.8 448 341.3333333333334V241.7066666666667L405.3333333333333 284.3733333333334V341.3333333333334H106.6666666666667V42.6666666666667H405.3333333333333V99.6266666666667L448 142.2933333333334V42.6666666666667C448 19.2 428.8 0 405.3333333333333 0H106.6666666666667C82.9866666666667 0 64 19.2 64 42.6666666666667V341.3333333333334C64 365.0133333333333 82.9866666666667 384 106.6666666666667 384H405.3333333333333z" /></svg>