<?xml version="1.0" encoding="UTF-8"?><!DOCTYPE svg PUBLIC "-//W3C//DTD SVG 1.1//EN" "http://www.w3.org/Graphics/SVG/1.1/DTD/svg11.dtd"><svg xmlns="http://www.w3.org/2000/svg" xmlns:xlink="http://www.w3.org/1999/xlink" version="1.1" width="512" height="512" viewBox="0 0 512 512">    <path fill="#ffffff" transform="scale(1, -1) translate(0, -448)" glyph-name="wallet-giftcard" unicode="&#xF585;" horiz-adv-x="512" d=" M426.6666666666667 149.3333333333334H85.3333333333333V277.3333333333334H193.7066666666667L149.3333333333333 216.96L183.8933333333333 192L234.6666666666667 261.12L256 290.1333333333334L277.3333333333333 261.12L328.1066666666667 192L362.6666666666667 216.96L318.2933333333333 277.3333333333334H426.6666666666667M426.6666666666667 42.6666666666667H85.3333333333333V85.3333333333334H426.6666666666667M192 362.6666666666667C203.7333333333334 362.6666666666667 213.3333333333333 353.0666666666667 213.3333333333333 341.3333333333334S203.7333333333334 320 192 320S170.6666666666667 329.6 170.6666666666667 341.3333333333334S180.2666666666667 362.6666666666667 192 362.6666666666667M320 362.6666666666667C331.7333333333334 362.6666666666667 341.3333333333333 353.0666666666667 341.3333333333333 341.3333333333334S331.7333333333334 320 320 320S298.6666666666667 329.6 298.6666666666667 341.3333333333334S308.2666666666667 362.6666666666667 320 362.6666666666667M426.6666666666667 320H380.16C382.5066666666667 326.6133333333334 384 333.8666666666667 384 341.3333333333334C384 376.7466666666667 355.4133333333333 405.3333333333333 320 405.3333333333333C297.6 405.3333333333333 278.1866666666666 393.8133333333334 266.6666666666667 376.5333333333333L256 362.6666666666667L245.3333333333333 376.7466666666667C233.8133333333334 393.8133333333334 214.4 405.3333333333333 192 405.3333333333333C156.5866666666667 405.3333333333333 128 376.7466666666667 128 341.3333333333334C128 333.8666666666667 129.4933333333334 326.6133333333334 131.84 320H85.3333333333333C61.6533333333333 320 42.6666666666667 301.0133333333333 42.6666666666667 277.3333333333334V42.6666666666667C42.6666666666667 18.9866666666667 61.6533333333333 0 85.3333333333333 0H426.6666666666667C450.3466666666667 0 469.3333333333333 18.9866666666667 469.3333333333333 42.6666666666667V277.3333333333334C469.3333333333333 301.0133333333333 450.3466666666667 320 426.6666666666667 320z" /></svg>