<?xml version="1.0" encoding="UTF-8"?><!DOCTYPE svg PUBLIC "-//W3C//DTD SVG 1.1//EN" "http://www.w3.org/Graphics/SVG/1.1/DTD/svg11.dtd"><svg xmlns="http://www.w3.org/2000/svg" xmlns:xlink="http://www.w3.org/1999/xlink" version="1.1" width="512" height="512" viewBox="0 0 512 512">    <path fill="#ffffff" transform="scale(1, -1) translate(0, -448)" glyph-name="pig" unicode="&#xF401;" horiz-adv-x="512" d=" M202.6666666666667 256C184.96 256 170.6666666666667 241.7066666666667 170.6666666666667 224S184.96 192 202.6666666666667 192S234.6666666666667 206.2933333333334 234.6666666666667 224S220.3733333333333 256 202.6666666666667 256M309.3333333333333 256C291.6266666666667 256 277.3333333333333 241.7066666666667 277.3333333333333 224S291.6266666666667 192 309.3333333333333 192S341.3333333333333 206.2933333333334 341.3333333333333 224S327.04 256 309.3333333333333 256M256 362.6666666666667L270.5066666666667 362.0266666666667C290.56 378.88 316.16 392.7466666666667 335.36 397.8666666666667C375.2533333333334 408.5333333333333 445.44 400.4266666666667 454.6133333333333 366.2933333333333C461.2266666666666 341.3333333333334 439.4666666666666 310.4 405.9733333333333 290.56C432.2133333333334 257.7066666666667 448 216.1066666666667 448 170.6666666666667C448 64.64 362.0266666666667 -21.3333333333333 256 -21.3333333333333S64 64.64 64 170.6666666666667C64 216.1066666666667 79.7866666666667 257.7066666666667 106.0266666666667 290.56C72.5333333333333 310.4 50.7733333333333 341.3333333333334 57.3866666666667 366.2933333333334C66.56 400.4266666666667 136.7466666666667 408.5333333333333 176.64 397.8666666666667C195.84 392.7466666666667 221.44 378.88 241.4933333333334 362.0266666666667L256 362.6666666666667M213.3333333333333 106.6666666666667C225.0666666666667 106.6666666666667 234.6666666666667 97.0666666666667 234.6666666666667 85.3333333333334S225.0666666666667 64 213.3333333333333 64S192 73.6 192 85.3333333333334S201.6 106.6666666666667 213.3333333333333 106.6666666666667M298.6666666666667 106.6666666666667C310.4 106.6666666666667 320 97.0666666666667 320 85.3333333333334S310.4 64 298.6666666666667 64S277.3333333333333 73.6 277.3333333333333 85.3333333333334S286.9333333333333 106.6666666666667 298.6666666666667 106.6666666666667M256 170.6666666666667C197.12 170.6666666666667 149.3333333333333 120.7466666666667 149.3333333333333 85.3333333333334C149.3333333333333 49.92 197.12 21.3333333333334 256 21.3333333333334S362.6666666666667 49.92 362.6666666666667 85.3333333333334S314.88 170.6666666666667 256 170.6666666666667M165.5466666666667 356.6933333333334C155.9466666666667 359.2533333333334 97.92 355.2 97.92 355.2S145.0666666666667 317.8666666666667 154.4533333333333 315.3066666666667C164.0533333333334 312.7466666666667 208.4266666666667 310.8266666666667 211.4133333333333 322.1333333333334C214.6133333333334 333.6533333333334 174.9333333333333 354.1333333333334 165.5466666666667 356.6933333333334M346.4533333333334 356.6933333333334C337.0666666666667 354.1333333333334 297.3866666666667 333.6533333333334 300.5866666666667 322.1333333333334C303.5733333333334 310.8266666666667 347.9466666666667 312.7466666666667 357.5466666666667 315.3066666666667C366.9333333333334 317.8666666666667 414.08 355.2000000000001 414.08 355.2000000000001S356.0533333333334 359.2533333333334 346.4533333333334 356.6933333333334z" /></svg>