<?xml version="1.0" encoding="UTF-8"?><!DOCTYPE svg PUBLIC "-//W3C//DTD SVG 1.1//EN" "http://www.w3.org/Graphics/SVG/1.1/DTD/svg11.dtd"><svg xmlns="http://www.w3.org/2000/svg" xmlns:xlink="http://www.w3.org/1999/xlink" version="1.1" width="512" height="512" viewBox="0 0 512 512">    <path fill="#ffffff" transform="scale(1, -1) translate(0, -448)" glyph-name="snowflake" unicode="&#xF716;" horiz-adv-x="512" d=" M443.52 150.4L393.8133333333334 137.1733333333334L351.1466666666667 161.2800000000001V222.72L393.8133333333334 246.8266666666667L443.52 233.6L454.6133333333333 274.7733333333334L416.8533333333333 284.8L426.6666666666667 322.5600000000001L385.4933333333334 333.6533333333334L372.2666666666667 283.9466666666667L329.6 259.8400000000001L277.3333333333333 290.56V338.7733333333333L313.8133333333334 375.2533333333334L283.52 405.3333333333333L256 377.8133333333334L228.48 405.3333333333333L198.1866666666667 375.2533333333334L234.6666666666667 338.7733333333333V290.56L181.3333333333333 259.8400000000001L138.6666666666667 283.9466666666667L126.2933333333333 333.6533333333333L85.3333333333333 322.56L95.36 284.8L57.6 274.7733333333333L68.6933333333333 233.6L118.4 246.8266666666667L161.0666666666667 222.72V161.0666666666666L118.4 136.96L68.6933333333333 150.1866666666666L57.6 109.0133333333333L95.36 98.9866666666666L85.3333333333333 61.44L126.5066666666667 50.3466666666667L139.7333333333333 100.0533333333333L182.4 124.16L234.6666666666667 93.44V45.2266666666666L198.1866666666667 8.7466666666666L228.48 -21.3333333333333L256 6.1866666666667L283.52 -21.3333333333333L313.6 8.7466666666667L277.3333333333333 45.2266666666667V93.4400000000001L330.6666666666667 124.3733333333334L373.3333333333333 100.2666666666668L386.56 50.5600000000001L426.6666666666667 61.4400000000002L416.64 99.2000000000002L454.4 109.2266666666668L443.52 150.4000000000002M202.6666666666667 222.72L256 253.6533333333334L309.3333333333333 222.72V161.2800000000001L256 130.3466666666667L202.6666666666667 161.28V222.72z" /></svg>