<?xml version="1.0" encoding="UTF-8"?><!DOCTYPE svg PUBLIC "-//W3C//DTD SVG 1.1//EN" "http://www.w3.org/Graphics/SVG/1.1/DTD/svg11.dtd"><svg xmlns="http://www.w3.org/2000/svg" xmlns:xlink="http://www.w3.org/1999/xlink" version="1.1" width="512" height="512" viewBox="0 0 512 512">    <path fill="#ffffff" transform="scale(1, -1) translate(0, -448)" glyph-name="reminder" unicode="&#xF88B;" horiz-adv-x="512" d=" M154.6666666666667 384C168.5333333333333 384 181.3333333333333 379.52 192 372.0533333333334V384C192 407.4666666666667 211.2 426.6666666666667 234.6666666666667 426.6666666666667S277.3333333333333 407.4666666666667 277.3333333333333 384V371.8400000000001C288 379.3066666666667 300.8 384 314.6666666666667 384C350.08 384 378.6666666666667 355.4133333333334 378.6666666666667 320C378.6666666666667 286.2933333333334 352.8533333333333 258.7733333333333 320 256H277.3333333333333V234.6666666666667H303.7866666666667L314.0266666666667 231.8933333333333L411.9466666666667 183.04C429.4400000000001 176.4266666666666 437.9733333333334 163.4133333333333 437.9733333333334 144L437.3333333333333 141.0133333333333V138.0266666666667L416 -5.9733333333334C414.7200000000001 -16 410.0266666666667 -24.7466666666667 401.92 -32C394.0266666666667 -39.2533333333333 385.0666666666667 -42.6666666666666 375.04 -42.6666666666666H213.3333333333333C201.6 -42.6666666666666 192 -38.6133333333333 183.04 -30.08L42.6666666666667 110.08L65.0666666666667 132.9066666666667C71.04 138.6666666666667 78.72 142.0800000000001 88.1066666666667 142.0800000000001H94.9333333333333L192 120.96V256H149.3333333333333C116.48 258.9866666666667 90.6666666666667 286.5066666666667 90.6666666666667 320C90.6666666666667 355.4133333333334 119.2533333333333 384 154.6666666666667 384M192 320C192 340.6933333333334 175.36 357.3333333333334 154.6666666666667 357.3333333333334S117.3333333333333 340.6933333333334 117.3333333333333 320C117.3333333333333 301.2266666666667 131.2 285.6533333333333 149.3333333333333 283.0933333333334V282.6666666666667H192V320M320 282.6666666666667V282.88C338.1333333333334 285.44 352 301.0133333333333 352 320C352 340.48 335.36 357.12 314.6666666666667 357.12S277.3333333333333 340.48 277.3333333333333 320V282.6666666666667H320z" /></svg>