<?xml version="1.0" encoding="UTF-8"?><!DOCTYPE svg PUBLIC "-//W3C//DTD SVG 1.1//EN" "http://www.w3.org/Graphics/SVG/1.1/DTD/svg11.dtd"><svg xmlns="http://www.w3.org/2000/svg" xmlns:xlink="http://www.w3.org/1999/xlink" version="1.1" width="512" height="512" viewBox="0 0 512 512">    <path fill="#ffffff" transform="scale(1, -1) translate(0, -448)" glyph-name="human-handsup" unicode="&#xF64C;" horiz-adv-x="512" d=" M106.6666666666667 426.6666666666667C106.6666666666667 369.0666666666667 139.9466666666667 316.5866666666667 192 291.8400000000001V-21.3333333333333H234.6666666666667V128H277.3333333333333V-21.3333333333333H320V292.0533333333334C372.0533333333334 316.5866666666667 405.3333333333333 369.0666666666667 405.3333333333333 426.6666666666667H362.6666666666667C362.6666666666667 367.7866666666667 314.88 320 256 320S149.3333333333333 367.7866666666667 149.3333333333333 426.6666666666667M256 426.6666666666667C232.32 426.6666666666667 213.3333333333333 407.68 213.3333333333333 384C213.3333333333333 360.32 232.32 341.3333333333334 256 341.3333333333334C279.68 341.3333333333334 298.6666666666667 360.32 298.6666666666667 384C298.6666666666667 407.68 279.68 426.6666666666667 256 426.6666666666667z" /></svg>