<?xml version="1.0" encoding="UTF-8"?><!DOCTYPE svg PUBLIC "-//W3C//DTD SVG 1.1//EN" "http://www.w3.org/Graphics/SVG/1.1/DTD/svg11.dtd"><svg xmlns="http://www.w3.org/2000/svg" xmlns:xlink="http://www.w3.org/1999/xlink" version="1.1" width="512" height="512" viewBox="0 0 512 512">    <path fill="#ffffff" transform="scale(1, -1) translate(0, -448)" glyph-name="dot-net" unicode="&#xFAAD;" horiz-adv-x="512" d=" M42.6666666666667 128C54.4 128 64 118.4 64 106.6666666666667S54.4 85.3333333333334 42.6666666666667 85.3333333333334S21.3333333333333 94.9333333333333 21.3333333333333 106.6666666666667S30.9333333333333 128 42.6666666666667 128M448 85.3333333333334H405.3333333333333V256H362.6666666666667V298.6666666666667H490.6666666666666V256H448V85.3333333333334M341.3333333333333 298.6666666666667V256H298.6666666666667V213.3333333333334H341.3333333333333V170.6666666666667H298.6666666666667V128H341.3333333333333V85.3333333333334H256V298.6666666666667H341.3333333333333M234.6666666666667 298.6666666666667V85.3333333333334H192L128 213.3333333333334V85.3333333333334H85.3333333333333V298.6666666666667H128L192 170.6666666666667V298.6666666666667H234.6666666666667z" /></svg>