<?xml version="1.0" encoding="UTF-8"?><!DOCTYPE svg PUBLIC "-//W3C//DTD SVG 1.1//EN" "http://www.w3.org/Graphics/SVG/1.1/DTD/svg11.dtd"><svg xmlns="http://www.w3.org/2000/svg" xmlns:xlink="http://www.w3.org/1999/xlink" version="1.1" width="512" height="512" viewBox="0 0 512 512">    <path fill="#ffffff" transform="scale(1, -1) translate(0, -448)" glyph-name="grill" unicode="&#xFE28;" horiz-adv-x="512" d=" M171.9466666666667 405.3333333333333C168.1066666666667 380.3733333333334 174.2933333333333 359.2533333333334 190.9333333333333 341.9733333333334C201.6 331.3066666666667 205.0133333333334 317.0133333333333 200.96 298.6666666666667H222.0800000000001C224.64 310.4 225.0666666666667 320 222.9333333333333 329.6C221.0133333333334 338.56 214.4 349.2266666666667 202.6666666666667 362.0266666666667C193.0666666666667 373.9733333333334 189.6533333333334 388.2666666666667 193.0666666666667 405.3333333333334H171.9466666666667M225.0666666666667 405.3333333333334C221.0133333333334 380.3733333333334 227.4133333333334 359.2533333333334 244.0533333333334 341.9733333333334C254.7200000000001 331.3066666666667 257.9200000000001 317.0133333333333 254.0800000000001 298.6666666666667H274.9866666666668C277.3333333333334 310.4 277.9733333333334 320 276.0533333333334 329.6C273.9200000000001 338.56 267.3066666666668 349.2266666666667 256.0000000000001 362.0266666666667C245.9733333333334 373.9733333333334 242.7733333333335 388.2666666666667 245.9733333333334 405.3333333333334H225.0666666666668M279.0400000000001 405.3333333333334C274.9866666666668 380.3733333333334 281.3866666666667 359.2533333333334 298.0266666666668 341.9733333333334C308.6933333333334 331.3066666666667 311.6800000000001 317.0133333333333 306.9866666666668 298.6666666666667H328.9600000000001C331.7333333333334 310.4 331.9466666666667 320 330.0266666666668 329.6C328.1066666666668 338.56 321.2800000000001 349.2266666666667 309.9733333333334 362.0266666666667C299.9466666666667 373.9733333333334 296.7466666666668 388.2666666666667 299.9466666666667 405.3333333333334H279.0400000000001M106.6666666666667 277.3333333333334C106.6666666666667 247.04 114.9866666666667 219.7333333333334 130.9866666666667 195.4133333333334C146.56 171.52 168.7466666666667 152.5333333333334 194.9866666666667 141.0133333333333L110.08 11.9466666666667C107.9466666666667 9.3866666666667 106.6666666666667 5.3333333333334 106.6666666666667 0C106.6666666666667 -8.7466666666667 110.08 -14.72 116.0533333333334 -17.92C118.6133333333334 -20.0533333333333 122.6666666666667 -21.3333333333333 128 -21.3333333333333C136.7466666666667 -21.3333333333333 142.72 -17.92 145.92 -11.9466666666666L167.04 21.9733333333334H302.9333333333333C307.4133333333333 9.6000000000001 315.52 -1.0666666666666 325.9733333333333 -8.9599999999999C336.64 -17.0666666666666 349.0133333333333 -21.3333333333333 362.6666666666667 -21.3333333333333C380.3733333333333 -21.3333333333333 395.3066666666667 -14.7199999999999 408.1066666666667 -1.9199999999999C420.6933333333333 10.6666666666667 426.6666666666667 25.6000000000001 426.6666666666667 42.6666666666667C426.6666666666667 60.3733333333334 420.6933333333333 75.3066666666668 408.1066666666667 87.8933333333334C395.3066666666666 100.6933333333335 380.3733333333333 106.6666666666668 362.6666666666667 106.6666666666668C349.0133333333333 106.6666666666668 336.64 103.0400000000001 325.9733333333333 94.9333333333335C315.3066666666666 87.0400000000001 307.6266666666667 76.5866666666668 302.9333333333333 64.0000000000002H194.9866666666667L237.0133333333334 129.0666666666668C240.4266666666667 128.0000000000002 246.6133333333334 128.0000000000002 256 128.0000000000002S271.5733333333334 128.0000000000002 274.9866666666667 129.0666666666668L296.1066666666667 96.0000000000002C304.8533333333334 107.5200000000002 316.5866666666667 116.4800000000002 330.0266666666667 122.0266666666669L318.0800000000001 141.0133333333336C341.9733333333334 151.6800000000002 362.6666666666667 170.6666666666669 379.5200000000001 196.9066666666668C396.5866666666667 224 405.3333333333333 250.24 405.3333333333333 277.3333333333334H106.6666666666667M362.6666666666667 64C369.0666666666667 64 373.9733333333334 62.08 378.0266666666667 58.0266666666666C382.08 53.9733333333333 384 48.64 384 42.6666666666667C384 36.9066666666667 382.08 32 378.0266666666667 27.52C374.1866666666666 23.2533333333333 368.64 21.3333333333334 362.6666666666667 21.3333333333334C357.12 21.3333333333334 352 23.2533333333333 347.52 27.52C343.2533333333334 32 341.3333333333333 37.12 341.3333333333333 42.6666666666667C341.3333333333333 49.0666666666667 343.2533333333334 53.9733333333334 347.52 58.0266666666666C352 62.08 356.9066666666667 64 362.6666666666667 64z" /></svg>