<?xml version="1.0" encoding="UTF-8"?><!DOCTYPE svg PUBLIC "-//W3C//DTD SVG 1.1//EN" "http://www.w3.org/Graphics/SVG/1.1/DTD/svg11.dtd"><svg xmlns="http://www.w3.org/2000/svg" xmlns:xlink="http://www.w3.org/1999/xlink" version="1.1" width="512" height="512" viewBox="0 0 512 512">    <path fill="#ffffff" transform="scale(1, -1) translate(0, -448)" glyph-name="file-word" unicode="&#xF22C;" horiz-adv-x="512" d=" M298.6666666666667 405.3333333333333H128C104.5333333333333 405.3333333333333 85.3333333333333 386.1333333333334 85.3333333333333 362.6666666666667V21.3333333333334C85.3333333333333 -2.1333333333333 104.5333333333333 -21.3333333333333 128 -21.3333333333333H384C407.4666666666667 -21.3333333333333 426.6666666666667 -2.1333333333333 426.6666666666667 21.3333333333334V277.3333333333334L298.6666666666667 405.3333333333333M324.2666666666667 21.3333333333334H294.4L256 166.4L217.6 21.3333333333334H187.7333333333334L140.8 213.3333333333334H172.8L202.6666666666667 68.2666666666667L241.0666666666667 213.3333333333334H268.8000000000001L307.2000000000001 68.2666666666667L337.0666666666667 213.3333333333334H369.0666666666667L324.2666666666668 21.3333333333334M277.3333333333333 256V373.3333333333334L394.6666666666667 256H277.3333333333333z" /></svg>