<?xml version="1.0" encoding="UTF-8"?><!DOCTYPE svg PUBLIC "-//W3C//DTD SVG 1.1//EN" "http://www.w3.org/Graphics/SVG/1.1/DTD/svg11.dtd"><svg xmlns="http://www.w3.org/2000/svg" xmlns:xlink="http://www.w3.org/1999/xlink" version="1.1" width="512" height="512" viewBox="0 0 512 512">    <path fill="#ffffff" transform="scale(1, -1) translate(0, -448)" glyph-name="cellphone-basic" unicode="&#xF11E;" horiz-adv-x="512" d=" M320 405.3333333333333C308.2666666666667 405.3333333333333 298.6666666666667 395.7333333333334 298.6666666666667 384V320H213.3333333333333C189.6533333333333 320 170.6666666666667 301.0133333333333 170.6666666666667 277.3333333333334V21.3333333333334C170.6666666666667 -2.3466666666666 189.6533333333333 -21.3333333333333 213.3333333333333 -21.3333333333333H320C343.68 -21.3333333333333 362.6666666666667 -2.3466666666666 362.6666666666667 21.3333333333334V277.3333333333334C362.6666666666667 293.12 354.1333333333334 306.7733333333333 341.3333333333333 314.0266666666667V384C341.3333333333333 395.7333333333334 331.7333333333334 405.3333333333333 320 405.3333333333333M213.3333333333333 277.3333333333334H320V170.6666666666667H213.3333333333333V277.3333333333334M213.3333333333333 128H234.6666666666667V106.6666666666667H213.3333333333333V128M256 128H277.3333333333333V106.6666666666667H256V128M298.6666666666667 128H320V106.6666666666667H298.6666666666667V128M213.3333333333333 85.3333333333334H234.6666666666667V64H213.3333333333333V85.3333333333334M256 85.3333333333334H277.3333333333333V64H256V85.3333333333334M298.6666666666667 85.3333333333334H320V64H298.6666666666667V85.3333333333334M213.3333333333333 42.6666666666667H234.6666666666667V21.3333333333334H213.3333333333333V42.6666666666667M256 42.6666666666667H277.3333333333333V21.3333333333334H256V42.6666666666667M298.6666666666667 42.6666666666667H320V21.3333333333334H298.6666666666667V42.6666666666667z" /></svg>