<?xml version="1.0" encoding="UTF-8"?><!DOCTYPE svg PUBLIC "-//W3C//DTD SVG 1.1//EN" "http://www.w3.org/Graphics/SVG/1.1/DTD/svg11.dtd"><svg xmlns="http://www.w3.org/2000/svg" xmlns:xlink="http://www.w3.org/1999/xlink" version="1.1" width="512" height="512" viewBox="0 0 512 512">    <path fill="#ffffff" transform="scale(1, -1) translate(0, -448)" glyph-name="music-off" unicode="&#xF75A;" horiz-adv-x="512" d=" M42.6666666666667 335.5733333333334L69.9733333333333 362.6666666666667L426.6666666666667 5.9733333333334L399.5733333333333 -21.3333333333333L192 186.24V74.6666666666667C192 33.4933333333333 158.5066666666667 0 117.3333333333333 0S42.6666666666667 33.4933333333333 42.6666666666667 74.6666666666667S76.16 149.3333333333334 117.3333333333333 149.3333333333334C128.8533333333333 149.3333333333334 139.7333333333333 146.7733333333334 149.3333333333333 142.0800000000001V228.9066666666667L42.6666666666667 335.5733333333334M448 384V117.3333333333334C448 96 438.8266666666667 76.3733333333333 424.1066666666667 62.72L318.7199999999999 168.1066666666668C332.3733333333333 182.8266666666667 351.9999999999999 192.0000000000001 373.3333333333333 192.0000000000001C384.8533333333333 192.0000000000001 395.7333333333333 189.4400000000001 405.3333333333333 184.7466666666668V309.9733333333334L216.9599999999999 269.8666666666667L163.4133333333333 323.4133333333334L448 384z" /></svg>