<?xml version="1.0" encoding="UTF-8"?><!DOCTYPE svg PUBLIC "-//W3C//DTD SVG 1.1//EN" "http://www.w3.org/Graphics/SVG/1.1/DTD/svg11.dtd"><svg xmlns="http://www.w3.org/2000/svg" xmlns:xlink="http://www.w3.org/1999/xlink" version="1.1" width="512" height="512" viewBox="0 0 512 512">    <path fill="#ffffff" transform="scale(1, -1) translate(0, -448)" glyph-name="yeast" unicode="&#xF5C1;" horiz-adv-x="512" d=" M384 149.3333333333334C431.1466666666667 149.3333333333334 469.3333333333333 111.1466666666667 469.3333333333333 64S431.1466666666667 -21.3333333333333 384 -21.3333333333333S298.6666666666667 16.8533333333334 298.6666666666667 64L300.5866666666667 82.1333333333334C299.7333333333334 97.0666666666667 296.96 110.08 289.0666666666667 117.3333333333334C284.8 121.6 278.8266666666667 123.9466666666667 272 125.2266666666667C251.52 113.4933333333334 227.84 106.6666666666667 202.6666666666667 106.6666666666667C126.08 106.6666666666667 64 168.7466666666667 64 245.3333333333334S126.08 384 202.6666666666667 384S341.3333333333333 321.92 341.3333333333333 245.3333333333334C341.3333333333333 220.16 334.5066666666667 196.48 322.7733333333333 176C324.0533333333334 169.1733333333334 326.4 163.2000000000001 330.6666666666667 158.9333333333333C337.92 151.04 350.9333333333333 148.2666666666667 365.8666666666666 147.4133333333334L384 149.3333333333334M160 234.6666666666667C177.7066666666667 234.6666666666667 192 220.3733333333333 192 202.6666666666667S177.7066666666667 170.6666666666667 160 170.6666666666667S128 184.96 128 202.6666666666667S142.2933333333333 234.6666666666667 160 234.6666666666667M202.6666666666667 341.3333333333334C149.3333333333333 341.3333333333334 106.6666666666667 298.6666666666667 106.6666666666667 245.3333333333334S149.3333333333333 149.3333333333334 202.6666666666667 149.3333333333334S298.6666666666667 192 298.6666666666667 245.3333333333334S256 341.3333333333334 202.6666666666667 341.3333333333334z" /></svg>