<?xml version="1.0" encoding="UTF-8"?><!DOCTYPE svg PUBLIC "-//W3C//DTD SVG 1.1//EN" "http://www.w3.org/Graphics/SVG/1.1/DTD/svg11.dtd"><svg xmlns="http://www.w3.org/2000/svg" xmlns:xlink="http://www.w3.org/1999/xlink" version="1.1" width="512" height="512" viewBox="0 0 512 512">    <path fill="#ffffff" transform="scale(1, -1) translate(0, -448)" glyph-name="content-save-move-outline" unicode="&#xFE7A;" horiz-adv-x="512" d=" M362.6666666666667 384H106.6666666666667C83.2 384 64 364.8 64 341.3333333333334V42.6666666666667C64 19.2 83.2 0 106.6666666666667 0H251.9466666666667C240.4266666666667 19.4133333333334 234.6666666666667 41.6 234.6666666666667 64V69.5466666666667C214.1866666666667 81.0666666666667 206.9333333333333 107.3066666666667 218.6666666666666 128.0000000000001C226.1333333333333 141.2266666666667 240.4266666666666 149.3333333333334 256 149.3333333333334C259.4133333333333 149.3333333333334 262.8266666666666 149.3333333333334 266.6666666666667 148.0533333333334C276.6933333333333 160.0000000000001 289.4933333333333 170.0266666666667 303.5733333333333 177.4933333333334C264.5333333333333 203.7333333333334 211.4133333333333 193.28 185.1733333333333 154.24C175.7866666666667 140.16 170.6666666666667 123.52 170.6666666666667 106.6666666666667C170.6666666666667 82.1333333333334 181.3333333333333 58.6666666666667 199.4666666666667 42.6666666666667H106.6666666666667V256H320V341.3333333333334H344.9600000000001L405.3333333333333 280.9600000000001V184.5333333333334C421.12 179.2000000000001 435.84 170.6666666666667 448 159.1466666666667V298.6666666666667L362.6666666666667 384M277.3333333333333 298.6666666666667H106.6666666666667V341.3333333333334H277.3333333333333V298.6666666666667M277.3333333333333 85.3333333333334H362.6666666666667V149.3333333333334L469.3333333333333 53.3333333333334L362.6666666666667 -42.6666666666666V21.3333333333334H277.3333333333333V85.3333333333334" /></svg>