<?xml version="1.0" encoding="UTF-8"?><!DOCTYPE svg PUBLIC "-//W3C//DTD SVG 1.1//EN" "http://www.w3.org/Graphics/SVG/1.1/DTD/svg11.dtd"><svg xmlns="http://www.w3.org/2000/svg" xmlns:xlink="http://www.w3.org/1999/xlink" version="1.1" width="512" height="512" viewBox="0 0 512 512">    <path fill="#ffffff" transform="scale(1, -1) translate(0, -448)" glyph-name="cash" unicode="&#xF114;" horiz-adv-x="512" d=" M64 320H448V64H64V320M256 256C291.4133333333333 256 320 227.4133333333334 320 192S291.4133333333333 128 256 128S192 156.5866666666667 192 192S220.5866666666667 256 256 256M149.3333333333333 277.3333333333334C149.3333333333333 253.8666666666667 130.1333333333333 234.6666666666667 106.6666666666667 234.6666666666667V149.3333333333334C130.1333333333333 149.3333333333334 149.3333333333333 130.1333333333333 149.3333333333333 106.6666666666667H362.6666666666667C362.6666666666667 130.1333333333333 381.8666666666666 149.3333333333334 405.3333333333333 149.3333333333334V234.6666666666667C381.8666666666666 234.6666666666667 362.6666666666667 253.8666666666667 362.6666666666667 277.3333333333334H149.3333333333333z" /></svg>