<?xml version="1.0" encoding="UTF-8"?><!DOCTYPE svg PUBLIC "-//W3C//DTD SVG 1.1//EN" "http://www.w3.org/Graphics/SVG/1.1/DTD/svg11.dtd"><svg xmlns="http://www.w3.org/2000/svg" xmlns:xlink="http://www.w3.org/1999/xlink" version="1.1" width="512" height="512" viewBox="0 0 512 512">    <path fill="#ffffff" transform="scale(1, -1) translate(0, -448)" glyph-name="switch" unicode="&#xF4E4;" horiz-adv-x="512" d=" M277.3333333333333 64H298.6666666666667C310.4 64 320 54.4 320 42.6666666666667H469.3333333333333V0H320C320 -11.7333333333333 310.4 -21.3333333333333 298.6666666666667 -21.3333333333333H213.3333333333333C201.6 -21.3333333333333 192 -11.7333333333333 192 0H42.6666666666667V42.6666666666667H192C192 54.4 201.6 64 213.3333333333333 64H234.6666666666667V106.6666666666667H170.6666666666667C158.9333333333333 106.6666666666667 149.3333333333333 116.2666666666667 149.3333333333333 128V384C149.3333333333333 395.7333333333334 158.9333333333333 405.3333333333333 170.6666666666667 405.3333333333333H341.3333333333333C353.0666666666667 405.3333333333333 362.6666666666667 395.7333333333334 362.6666666666667 384V128C362.6666666666667 116.2666666666667 353.0666666666667 106.6666666666667 341.3333333333333 106.6666666666667H277.3333333333333V64M277.3333333333333 320H298.6666666666667V362.6666666666667H277.3333333333333V320M192 362.6666666666667V320H234.6666666666667V362.6666666666667H192M192 277.3333333333334V234.6666666666667H234.6666666666667V277.3333333333334H192M192 192V149.3333333333334H234.6666666666667V192H192z" /></svg>