<?xml version="1.0" encoding="UTF-8"?><!DOCTYPE svg PUBLIC "-//W3C//DTD SVG 1.1//EN" "http://www.w3.org/Graphics/SVG/1.1/DTD/svg11.dtd"><svg xmlns="http://www.w3.org/2000/svg" xmlns:xlink="http://www.w3.org/1999/xlink" version="1.1" width="512" height="512" viewBox="0 0 512 512">    <path fill="#ffffff" transform="scale(1, -1) translate(0, -448)" glyph-name="ocarina" unicode="&#xFDBC;" horiz-adv-x="512" d=" M426.6666666666667 192C358.4 226.1333333333334 285.8666666666667 241.0666666666667 230.4 249.6L206.9333333333333 322.1333333333334C198.4 345.6 164.2666666666667 345.6 155.7333333333333 322.1333333333334L134.4 256C83.2 247.4666666666667 42.6666666666667 202.6666666666667 42.6666666666667 149.3333333333334C42.6666666666667 89.6 89.6 42.6666666666667 149.3333333333333 42.6666666666667C149.3333333333333 42.6666666666667 298.6666666666667 42.6666666666667 426.6666666666667 106.6666666666667C426.6666666666667 106.6666666666667 469.3333333333333 128 469.3333333333333 149.3333333333334S426.6666666666667 192 426.6666666666667 192M106.6666666666667 149.3333333333334C93.8666666666667 149.3333333333334 85.3333333333333 157.8666666666667 85.3333333333333 170.6666666666667S93.8666666666667 192 106.6666666666667 192S128 183.4666666666667 128 170.6666666666667C128 160 119.4666666666667 149.3333333333334 106.6666666666667 149.3333333333334M149.3333333333333 85.3333333333334C136.5333333333333 85.3333333333334 128 93.8666666666667 128 106.6666666666667S136.5333333333333 128 149.3333333333333 128S170.6666666666667 119.4666666666667 170.6666666666667 106.6666666666667C170.6666666666667 96 162.1333333333333 85.3333333333334 149.3333333333333 85.3333333333334M192 149.3333333333334C179.2 149.3333333333334 170.6666666666667 157.8666666666667 170.6666666666667 170.6666666666667S179.2 192 192 192S213.3333333333333 183.4666666666667 213.3333333333333 170.6666666666667C213.3333333333333 160 204.8 149.3333333333334 192 149.3333333333334M234.6666666666667 85.3333333333334C221.8666666666667 85.3333333333334 213.3333333333333 93.8666666666667 213.3333333333333 106.6666666666667S221.8666666666667 128 234.6666666666667 128S256 119.4666666666667 256 106.6666666666667C256 96 247.4666666666667 85.3333333333334 234.6666666666667 85.3333333333334M341.3333333333333 149.3333333333334C328.5333333333333 149.3333333333334 320 157.8666666666667 320 170.6666666666667S328.5333333333333 192 341.3333333333333 192S362.6666666666667 183.4666666666667 362.6666666666667 170.6666666666667C362.6666666666667 160 354.1333333333334 149.3333333333334 341.3333333333333 149.3333333333334M405.3333333333333 128C392.5333333333333 128 384 136.5333333333334 384 149.3333333333334S392.5333333333333 170.6666666666667 405.3333333333333 170.6666666666667S426.6666666666667 162.1333333333333 426.6666666666667 149.3333333333334C426.6666666666667 138.6666666666667 418.1333333333334 128 405.3333333333333 128z" /></svg>