<?xml version="1.0" encoding="UTF-8"?><!DOCTYPE svg PUBLIC "-//W3C//DTD SVG 1.1//EN" "http://www.w3.org/Graphics/SVG/1.1/DTD/svg11.dtd"><svg xmlns="http://www.w3.org/2000/svg" xmlns:xlink="http://www.w3.org/1999/xlink" version="1.1" width="512" height="512" viewBox="0 0 512 512">    <path fill="#ffffff" transform="scale(1, -1) translate(0, -448)" glyph-name="beta" unicode="&#xF0A1;" horiz-adv-x="512" d=" M196.9066666666667 72.7466666666667V-45.2266666666667H146.7733333333333V304.64C146.7733333333333 335.5733333333334 155.9466666666667 359.8933333333333 174.08 378.0266666666667C192 396.16 216.96 405.3333333333333 247.68 405.3333333333333C277.3333333333333 405.3333333333333 300.16 398.08 317.2266666666667 384C334.08 369.4933333333334 342.4 349.44 342.4 324.0533333333334C342.4 306.56 336.8533333333334 290.1333333333334 325.76 274.9866666666667C314.6666666666667 259.8400000000001 300.3733333333334 249.3866666666667 282.6666666666667 243.6266666666667V242.7733333333334C309.3333333333334 238.5066666666667 330.0266666666667 228.9066666666667 344.1066666666667 213.3333333333334C358.1866666666667 198.1866666666667 365.2266666666667 178.7733333333333 365.2266666666667 154.88C365.2266666666667 126.72 355.4133333333333 103.68 336 85.9733333333334C316.3733333333334 68.2666666666668 290.7733333333333 59.5200000000001 258.7733333333333 59.5200000000001C236.16 59.5200000000001 215.4666666666667 64.0000000000001 196.9066666666667 72.7466666666668M228.6933333333333 218.6666666666668V259.6266666666667C247.2533333333333 261.9733333333334 262.4 268.8 274.56 280.32C286.5066666666667 292.0533333333334 292.48 305.0666666666667 292.48 320C292.48 349.44 277.3333333333333 364.3733333333334 247.4666666666667 364.3733333333334C231.2533333333334 364.3733333333334 218.6666666666667 359.2533333333334 209.92 348.8C201.1733333333333 338.3466666666667 196.9066666666667 323.8400000000001 196.9066666666667 304.8533333333334V117.3333333333334C216.32 106.0266666666666 235.3066666666667 100.48 253.6533333333334 100.48C271.5733333333333 100.48 285.6533333333333 105.1733333333334 295.68 114.3466666666667C305.7066666666667 123.7333333333334 310.6133333333334 136.96 310.6133333333334 153.8133333333334C310.6133333333334 192 283.3066666666667 213.3333333333334 228.6933333333334 218.6666666666667z" /></svg>