<?xml version="1.0" encoding="UTF-8"?><!DOCTYPE svg PUBLIC "-//W3C//DTD SVG 1.1//EN" "http://www.w3.org/Graphics/SVG/1.1/DTD/svg11.dtd"><svg xmlns="http://www.w3.org/2000/svg" xmlns:xlink="http://www.w3.org/1999/xlink" version="1.1" width="512" height="512" viewBox="0 0 512 512">    <path fill="#ffffff" transform="scale(1, -1) translate(0, -448)" glyph-name="cash-register" unicode="&#xFCD0;" horiz-adv-x="512" d=" M42.6666666666667 85.3333333333334H469.3333333333333V0H42.6666666666667V85.3333333333334M133.3333333333333 298.6666666666667H192V320H128V384H298.6666666666667V320H234.6666666666667V298.6666666666667H379.7333333333334C401.0666666666667 298.6666666666667 422.4 277.3333333333334 426.6666666666667 256L437.3333333333333 106.6666666666667H74.6666666666667L86.4 256C86.4 277.3333333333334 107.7333333333333 298.6666666666667 133.3333333333333 298.6666666666667M277.3333333333333 256V213.3333333333334H384V256H277.3333333333333M128 256V234.6666666666667H170.6666666666667V256H128M192 256V234.6666666666667H234.6666666666667V256H192M128 213.3333333333334V192H170.6666666666667V213.3333333333334H128M192 213.3333333333334V192H234.6666666666667V213.3333333333334H192M128 170.6666666666667V149.3333333333334H170.6666666666667V170.6666666666667H128M192 170.6666666666667V149.3333333333334H234.6666666666667V170.6666666666667H192M149.3333333333333 362.6666666666667V341.3333333333334H277.3333333333333V362.6666666666667H149.3333333333333z" /></svg>