<?xml version="1.0" encoding="UTF-8"?><!DOCTYPE svg PUBLIC "-//W3C//DTD SVG 1.1//EN" "http://www.w3.org/Graphics/SVG/1.1/DTD/svg11.dtd"><svg xmlns="http://www.w3.org/2000/svg" xmlns:xlink="http://www.w3.org/1999/xlink" version="1.1" width="512" height="512" viewBox="0 0 512 512">    <path fill="#ffffff" transform="scale(1, -1) translate(0, -448)" glyph-name="briefcase-outline" unicode="&#xF813;" horiz-adv-x="512" d=" M426.6666666666667 320C439.04 320 449.0666666666667 315.7333333333334 456.96 307.4133333333334C465.0666666666667 298.6666666666667 469.3333333333333 289.0666666666667 469.3333333333333 277.3333333333334V42.6666666666667C469.3333333333333 30.9333333333333 465.0666666666667 21.3333333333334 456.96 12.5866666666667C449.0666666666667 4.2666666666667 439.04 0 426.6666666666667 0H85.3333333333333C72.96 0 62.9333333333333 4.2666666666667 55.04 12.5866666666667C46.9333333333333 21.3333333333334 42.6666666666667 30.9333333333333 42.6666666666667 42.6666666666667V277.3333333333334C42.6666666666667 289.0666666666667 46.9333333333333 298.6666666666667 55.04 307.4133333333334C62.9333333333333 315.7333333333334 72.96 320 85.3333333333333 320H170.6666666666667V362.6666666666667C170.6666666666667 375.04 174.9333333333333 385.0666666666667 183.04 392.96C190.9333333333333 401.0666666666667 200.96 405.3333333333333 213.3333333333333 405.3333333333333H298.6666666666667C311.04 405.3333333333333 321.0666666666667 401.0666666666667 328.96 392.96C337.0666666666667 385.0666666666667 341.3333333333333 375.04 341.3333333333333 362.6666666666667V320H426.6666666666667M85.3333333333333 277.3333333333334V42.6666666666667H426.6666666666667V277.3333333333334H85.3333333333333M298.6666666666667 320V362.6666666666667H213.3333333333333V320H298.6666666666667z" /></svg>