<?xml version="1.0" encoding="UTF-8"?><!DOCTYPE svg PUBLIC "-//W3C//DTD SVG 1.1//EN" "http://www.w3.org/Graphics/SVG/1.1/DTD/svg11.dtd"><svg xmlns="http://www.w3.org/2000/svg" xmlns:xlink="http://www.w3.org/1999/xlink" version="1.1" width="512" height="512" viewBox="0 0 512 512">    <path fill="#ffffff" transform="scale(1, -1) translate(0, -448)" glyph-name="phone" unicode="&#xF3F2;" horiz-adv-x="512" d=" M141.2266666666667 217.8133333333334C171.9466666666667 157.4400000000001 221.44 107.9466666666667 281.8133333333334 77.2266666666667L328.7466666666667 124.16C334.72 130.1333333333333 343.04 131.84 350.5066666666667 129.4933333333334C374.4 121.6 400 117.3333333333334 426.6666666666667 117.3333333333334C438.4 117.3333333333334 448 107.7333333333334 448 96V21.3333333333334C448 9.6 438.4 0 426.6666666666667 0C226.3466666666667 0 64 162.3466666666667 64 362.6666666666667C64 374.4 73.6 384 85.3333333333333 384H160C171.7333333333334 384 181.3333333333333 374.4 181.3333333333333 362.6666666666667C181.3333333333333 336 185.6 310.4 193.4933333333334 286.5066666666667C195.84 279.04 194.1333333333333 270.7200000000001 188.16 264.7466666666667L141.2266666666667 217.8133333333334z" /></svg>