<?xml version="1.0" encoding="UTF-8"?><!DOCTYPE svg PUBLIC "-//W3C//DTD SVG 1.1//EN" "http://www.w3.org/Graphics/SVG/1.1/DTD/svg11.dtd"><svg xmlns="http://www.w3.org/2000/svg" xmlns:xlink="http://www.w3.org/1999/xlink" version="1.1" width="512" height="512" viewBox="0 0 512 512">    <path fill="#ffffff" transform="scale(1, -1) translate(0, -448)" glyph-name="oil" unicode="&#xF3C7;" horiz-adv-x="512" d=" M469.3333333333333 181.3333333333334S512 135.04 512 106.6666666666667C512 83.2 492.8 64 469.3333333333333 64S426.6666666666667 83.2 426.6666666666667 106.6666666666667C426.6666666666667 135.04 469.3333333333333 181.3333333333334 469.3333333333333 181.3333333333334M128 320H213.3333333333333C225.0666666666667 320 234.6666666666667 310.4 234.6666666666667 298.6666666666667S225.0666666666667 277.3333333333334 213.3333333333333 277.3333333333334H192V234.6666666666667H234.6666666666667C250.4533333333333 234.6666666666667 264.32 226.1333333333334 271.5733333333333 213.3333333333334L410.4533333333334 293.5466666666667L480 253.2266666666667C490.6666666666666 247.4666666666667 493.6533333333333 234.6666666666667 487.8933333333333 224C481.92 213.9733333333333 469.3333333333333 210.3466666666667 458.6666666666666 216.32L413.8666666666666 242.1333333333334L336 107.3066666666667C328.7466666666666 94.2933333333334 314.6666666666667 85.3333333333334 298.6666666666667 85.3333333333334H106.6666666666667C83.2 85.3333333333334 64 104.5333333333333 64 128V192C64 215.4666666666667 83.2 234.6666666666667 106.6666666666667 234.6666666666667H149.3333333333333V277.3333333333334H128C116.2666666666667 277.3333333333334 106.6666666666667 286.9333333333334 106.6666666666667 298.6666666666667S116.2666666666667 320 128 320M106.6666666666667 192V128H298.6666666666667L342.6133333333333 204.16L268.8 161.4933333333334L249.3866666666666 192H106.6666666666667M8.1066666666667 251.52L44.5866666666667 288C53.3333333333333 296.32 66.3466666666667 296.32 74.6666666666667 288C82.9866666666667 279.68 82.9866666666667 266.6666666666667 74.6666666666667 257.92L38.1866666666667 221.44C29.8666666666667 213.3333333333333 16.4266666666667 213.3333333333333 8.1066666666667 221.44C0 229.76 0 243.2 8.1066666666667 251.52z" /></svg>