<?xml version="1.0" encoding="UTF-8"?><!DOCTYPE svg PUBLIC "-//W3C//DTD SVG 1.1//EN" "http://www.w3.org/Graphics/SVG/1.1/DTD/svg11.dtd"><svg xmlns="http://www.w3.org/2000/svg" xmlns:xlink="http://www.w3.org/1999/xlink" version="1.1" width="512" height="512" viewBox="0 0 512 512">    <path fill="#ffffff" transform="scale(1, -1) translate(0, -448)" glyph-name="locker" unicode="&#xF7D6;" horiz-adv-x="512" d=" M170.6666666666667 405.3333333333333H341.3333333333333C364.8 405.3333333333333 384 386.1333333333334 384 362.6666666666667V21.3333333333334C384 -2.1333333333333 364.8 -21.3333333333333 341.3333333333333 -21.3333333333333H170.6666666666667C147.2 -21.3333333333333 128 -2.1333333333333 128 21.3333333333334V362.6666666666667C128 386.1333333333334 147.2 405.3333333333333 170.6666666666667 405.3333333333333M170.6666666666667 362.6666666666667V21.3333333333334H341.3333333333333V362.6666666666667H170.6666666666667M213.3333333333333 170.6666666666667H256V85.3333333333334H213.3333333333333V170.6666666666667M213.3333333333333 320H298.6666666666667V288H213.3333333333333V320M213.3333333333333 256H298.6666666666667V224H213.3333333333333V256z" /></svg>