<?xml version="1.0" encoding="UTF-8"?><!DOCTYPE svg PUBLIC "-//W3C//DTD SVG 1.1//EN" "http://www.w3.org/Graphics/SVG/1.1/DTD/svg11.dtd"><svg xmlns="http://www.w3.org/2000/svg" xmlns:xlink="http://www.w3.org/1999/xlink" version="1.1" width="512" height="512" viewBox="0 0 512 512">    <path fill="#ffffff" transform="scale(1, -1) translate(0, -448)" glyph-name="palette-swatch" unicode="&#xF8B4;" horiz-adv-x="512" d=" M53.9733333333333 28.8000000000001L82.56 16.8533333333334V209.4933333333334L30.72 84.48C21.9733333333333 62.72 32 37.76 53.9733333333333 28.8000000000001M469.9733333333334 107.7333333333334L364.16 362.6666666666667C357.5466666666667 379.0933333333334 341.9733333333334 388.9066666666667 325.5466666666666 389.3333333333333C320 389.3333333333333 314.24 388.48 308.6933333333333 386.1333333333334L151.4666666666667 321.0666666666667C135.4666666666667 314.4533333333334 125.6533333333333 298.6666666666667 125.2266666666667 282.6666666666667C125.0133333333333 277.3333333333334 126.08 271.1466666666667 128 265.6L234.6666666666667 10.6666666666667C240.8533333333333 -5.9733333333334 256.64 -15.7866666666666 273.28 -16C278.8266666666667 -16 284.3733333333334 -14.9333333333333 289.7066666666667 -12.8L446.7200000000001 52.2666666666667C468.48 61.2266666666667 478.9333333333334 86.1866666666667 469.9733333333334 107.7333333333334M168.1066666666667 261.3333333333334C156.3733333333333 261.3333333333334 146.7733333333333 270.9333333333334 146.7733333333333 282.6666666666667S156.3733333333333 304 168.1066666666667 304S189.44 294.4 189.44 282.6666666666667S179.84 261.3333333333334 168.1066666666666 261.3333333333334M125.44 26.6666666666667C125.44 3.2 144.64 -16 168.1066666666666 -16H199.04L125.44 161.92V26.6666666666667z" /></svg>