<?xml version="1.0" encoding="UTF-8"?><!DOCTYPE svg PUBLIC "-//W3C//DTD SVG 1.1//EN" "http://www.w3.org/Graphics/SVG/1.1/DTD/svg11.dtd"><svg xmlns="http://www.w3.org/2000/svg" xmlns:xlink="http://www.w3.org/1999/xlink" version="1.1" width="512" height="512" viewBox="0 0 512 512">    <path fill="#ffffff" transform="scale(1, -1) translate(0, -448)" glyph-name="judaism" unicode="&#xF979;" horiz-adv-x="512" d=" M256 405.3333333333333L194.1333333333333 298.6666666666667H70.4L134.4 192L70.4 85.3333333333334H194.1333333333333L256 -21.3333333333333L317.8666666666667 85.3333333333334H441.6L377.6 192L441.6 298.6666666666667H317.8666666666666L256 405.3333333333333M256 341.3333333333334L281.6 298.6666666666667H230.4L256 341.3333333333334M174.9333333333333 266.6666666666667L151.4666666666667 224L125.8666666666667 266.6666666666667H174.9333333333333M213.3333333333333 266.6666666666667H298.6666666666667L341.3333333333333 192L298.6666666666667 117.3333333333334H213.3333333333333L170.6666666666667 192L213.3333333333333 266.6666666666667M384 266.6666666666667L358.4 224L334.9333333333334 266.6666666666667H384M151.4666666666667 160L174.9333333333333 117.3333333333334H128L151.4666666666667 160M360.5333333333333 160L386.1333333333333 117.3333333333334H337.0666666666666L360.5333333333333 160M283.7333333333334 85.3333333333334L256 42.6666666666667L230.4 85.3333333333334H283.7333333333334z" /></svg>