<?xml version="1.0" encoding="UTF-8"?><!DOCTYPE svg PUBLIC "-//W3C//DTD SVG 1.1//EN" "http://www.w3.org/Graphics/SVG/1.1/DTD/svg11.dtd"><svg xmlns="http://www.w3.org/2000/svg" xmlns:xlink="http://www.w3.org/1999/xlink" version="1.1" width="512" height="512" viewBox="0 0 512 512">    <path fill="#ffffff" transform="scale(1, -1) translate(0, -448)" glyph-name="github-face" unicode="&#xF6DA;" horiz-adv-x="512" d=" M434.7733333333333 266.0266666666667C438.1866666666666 274.5600000000001 449.28 308.48 431.1466666666666 354.3466666666667C431.1466666666666 354.3466666666667 403.2 362.6666666666667 339.4133333333333 320C312.7466666666666 327.04 284.3733333333332 328.1066666666667 255.9999999999999 328.1066666666667C227.8399999999999 328.1066666666667 199.2533333333333 327.04 172.5866666666666 320C108.7999999999999 363.3066666666667 80.8533333333333 354.3466666666667 80.8533333333333 354.3466666666667C62.7199999999999 308.48 73.8133333333333 274.5600000000001 77.4399999999999 266.0266666666667C55.68 242.7733333333334 42.6666666666667 213.3333333333334 42.6666666666667 176.64C42.6666666666667 39.2533333333333 131.4133333333333 8.3200000000001 256 8.3200000000001C379.52 8.3200000000001 469.3333333333333 39.2533333333333 469.3333333333333 176.6400000000001C469.3333333333333 213.3333333333334 456.32 242.7733333333334 434.7733333333333 266.0266666666668M256 34.5600000000001C168.1066666666667 34.5600000000001 96.64 38.6133333333334 96.64 123.9466666666667C96.64 144.2133333333334 106.6666666666667 163.4133333333334 123.7333333333334 178.9866666666667C152.32 205.2266666666668 201.1733333333333 191.3600000000001 256 191.3600000000001C311.2533333333334 191.3600000000001 359.4666666666667 205.2266666666668 388.2666666666667 178.9866666666667C405.3333333333333 163.4133333333334 416 144.4266666666667 416 123.9466666666667C416 38.8266666666667 344.1066666666667 34.5600000000001 256 34.5600000000001M189.0133333333333 168.1066666666667C171.52 168.1066666666667 157.0133333333333 146.7733333333334 157.0133333333333 120.7466666666667C157.0133333333333 94.5066666666667 171.52 72.96 189.0133333333333 72.96C206.72 72.96 221.0133333333333 94.2933333333334 221.0133333333333 120.7466666666667C221.0133333333333 146.9866666666667 206.72 168.1066666666668 189.0133333333333 168.1066666666668M322.9866666666667 168.1066666666668C305.28 168.1066666666668 290.9866666666667 146.9866666666667 290.9866666666667 120.7466666666667C290.9866666666667 94.2933333333334 305.28 72.96 322.9866666666667 72.96C340.48 72.96 354.9866666666667 94.2933333333334 354.9866666666667 120.7466666666667C354.9866666666667 146.9866666666667 341.3333333333333 168.1066666666668 322.9866666666667 168.1066666666668z" /></svg>