<?xml version="1.0" encoding="UTF-8"?><!DOCTYPE svg PUBLIC "-//W3C//DTD SVG 1.1//EN" "http://www.w3.org/Graphics/SVG/1.1/DTD/svg11.dtd"><svg xmlns="http://www.w3.org/2000/svg" xmlns:xlink="http://www.w3.org/1999/xlink" version="1.1" width="512" height="512" viewBox="0 0 512 512">    <path fill="#ffffff" transform="scale(1, -1) translate(0, -448)" glyph-name="arch" unicode="&#xF8C6;" horiz-adv-x="512" d=" M256 405.3333333333333C237.0133333333333 358.8266666666667 225.4933333333334 328.3200000000001 204.3733333333333 283.0933333333334C217.3866666666667 269.44 233.1733333333333 253.44 258.9866666666667 235.3066666666667C231.2533333333334 246.8266666666667 212.2666666666667 258.1333333333334 198.1866666666667 270.0800000000001C170.6666666666667 213.3333333333334 128.64 133.3333333333334 42.6666666666667 -21.3333333333333C110.2933333333333 17.7066666666667 162.7733333333333 41.8133333333334 211.6266666666667 50.9866666666667C209.4933333333334 59.9466666666667 208.2133333333333 69.76 208.4266666666667 80V82.1333333333334C209.4933333333334 125.4400000000001 232.1066666666667 158.72 258.7733333333333 156.3733333333334C285.44 154.2400000000001 306.1333333333334 117.3333333333334 305.0666666666666 73.8133333333334C304.8533333333333 65.7066666666667 304 57.8133333333334 302.5066666666667 50.5600000000001C350.7199999999999 41.1733333333333 402.56 17.2800000000001 469.3333333333333 -21.3333333333333C456.1066666666666 2.9866666666667 444.3733333333333 24.7466666666667 433.28 45.44C416 59.0933333333334 397.0133333333333 77.0133333333333 359.4666666666666 96C385.28 89.6 403.84 81.92 418.3466666666667 73.1733333333334C304.2133333333333 285.44 295.04 313.6 256 405.3333333333333z" /></svg>