<?xml version="1.0" encoding="UTF-8"?><!DOCTYPE svg PUBLIC "-//W3C//DTD SVG 1.1//EN" "http://www.w3.org/Graphics/SVG/1.1/DTD/svg11.dtd"><svg xmlns="http://www.w3.org/2000/svg" xmlns:xlink="http://www.w3.org/1999/xlink" version="1.1" width="512" height="512" viewBox="0 0 512 512">    <path fill="#ffffff" transform="scale(1, -1) translate(0, -448)" glyph-name="rotate-left-variant" unicode="&#xF466;" horiz-adv-x="512" d=" M85.3333333333333 405.3333333333333H149.3333333333333C172.8 405.3333333333333 192 386.1333333333334 192 362.6666666666667V21.3333333333334C192 -2.1333333333333 172.8 -21.3333333333333 149.3333333333333 -21.3333333333333H85.3333333333333C61.8666666666667 -21.3333333333333 42.6666666666667 -2.1333333333333 42.6666666666667 21.3333333333334V362.6666666666667C42.6666666666667 386.1333333333334 61.8666666666667 405.3333333333333 85.3333333333333 405.3333333333333M426.6666666666667 128C450.1333333333334 128 469.3333333333333 108.8 469.3333333333333 85.3333333333334V21.3333333333334C469.3333333333333 -2.1333333333333 450.1333333333334 -21.3333333333333 426.6666666666667 -21.3333333333333H234.6666666666667V128H426.6666666666667M298.6666666666667 362.6666666666667C392.9600000000001 362.6666666666667 469.3333333333333 286.2933333333334 469.3333333333333 192L468.0533333333333 170.6666666666667H424.9600000000001L426.6666666666667 192C426.6666666666667 262.6133333333334 369.28 320 298.6666666666667 320V256L213.3333333333333 341.3333333333334L298.6666666666667 426.6666666666667V362.6666666666667z" /></svg>