<?xml version="1.0" encoding="UTF-8"?><!DOCTYPE svg PUBLIC "-//W3C//DTD SVG 1.1//EN" "http://www.w3.org/Graphics/SVG/1.1/DTD/svg11.dtd"><svg xmlns="http://www.w3.org/2000/svg" xmlns:xlink="http://www.w3.org/1999/xlink" version="1.1" width="512" height="512" viewBox="0 0 512 512">    <path fill="#ffffff" transform="scale(1, -1) translate(0, -448)" glyph-name="airballoon" unicode="&#xF01C;" horiz-adv-x="512" d=" M234.6666666666667 -42.6666666666666C211.2 -42.6666666666666 192 -23.4666666666667 192 0V42.6666666666667H320V0C320 -23.4666666666667 300.8 -42.6666666666666 277.3333333333333 -42.6666666666666H234.6666666666667M256 426.6666666666667C271.1466666666667 426.6666666666667 285.6533333333333 424.7466666666667 299.7333333333334 421.12C324.6933333333334 387.6266666666667 341.3333333333333 326.1866666666667 341.3333333333333 256C341.3333333333333 207.36 333.2266666666667 162.7733333333333 320 106.6666666666667C320 83.2 300.8 64 277.3333333333333 64H234.6666666666667C211.2 64 192 83.2 192 106.6666666666667C178.7733333333334 162.7733333333333 170.6666666666667 207.36 170.6666666666667 256C170.6666666666667 326.1866666666667 187.3066666666667 387.6266666666667 212.2666666666667 421.12C226.3466666666667 424.7466666666667 240.8533333333333 426.6666666666667 256 426.6666666666667M426.6666666666667 277.3333333333334C426.6666666666667 209.4933333333334 387.2 108.3733333333333 329.8133333333334 80.8533333333334C350.08 119.68 362.6666666666667 195.6266666666667 362.6666666666667 256C362.6666666666667 316.3733333333334 350.08 370.9866666666667 329.8133333333334 409.8133333333334C387.2 382.2933333333334 426.6666666666667 345.1733333333334 426.6666666666667 277.3333333333334M85.3333333333333 277.3333333333334C85.3333333333333 345.1733333333334 124.8 382.2933333333334 182.1866666666667 409.8133333333334C161.92 370.9866666666667 149.3333333333333 316.3733333333334 149.3333333333333 256S161.92 119.68 182.1866666666667 80.8533333333334C124.8 108.3733333333333 85.3333333333333 209.4933333333334 85.3333333333333 277.3333333333334z" /></svg>