<?xml version="1.0" encoding="UTF-8"?><!DOCTYPE svg PUBLIC "-//W3C//DTD SVG 1.1//EN" "http://www.w3.org/Graphics/SVG/1.1/DTD/svg11.dtd"><svg xmlns="http://www.w3.org/2000/svg" xmlns:xlink="http://www.w3.org/1999/xlink" version="1.1" width="512" height="512" viewBox="0 0 512 512">    <path fill="#ffffff" transform="scale(1, -1) translate(0, -448)" glyph-name="microphone-off" unicode="&#xF36D;" horiz-adv-x="512" d=" M405.3333333333333 213.3333333333334C405.3333333333333 187.9466666666667 398.08 164.2666666666667 386.1333333333334 143.36L359.8933333333333 169.6C365.6533333333333 182.8266666666667 369.0666666666667 197.5466666666667 369.0666666666667 213.3333333333334H405.3333333333333M320 209.92L192 337.4933333333334V341.3333333333334C192 376.7466666666667 220.5866666666667 405.3333333333333 256 405.3333333333333S320 376.7466666666667 320 341.3333333333334V209.92M91.0933333333333 384L448 27.0933333333334L420.9066666666667 0L331.52 89.3866666666667C315.0933333333333 79.5733333333334 296.7466666666667 72.96 277.3333333333333 69.9733333333334V0H234.6666666666667V69.9733333333334C164.6933333333333 80.4266666666667 106.6666666666667 140.5866666666667 106.6666666666667 213.3333333333334H142.9333333333333C142.9333333333333 149.3333333333334 197.12 104.5333333333333 256 104.5333333333333C273.28 104.5333333333333 290.1333333333334 108.5866666666667 305.28 115.6266666666667L269.8666666666667 151.04L256 149.3333333333334C220.5866666666667 149.3333333333334 192 177.92 192 213.3333333333334V228.6933333333334L64 356.9066666666667L91.0933333333333 384z" /></svg>