<?xml version="1.0" encoding="UTF-8"?><!DOCTYPE svg PUBLIC "-//W3C//DTD SVG 1.1//EN" "http://www.w3.org/Graphics/SVG/1.1/DTD/svg11.dtd"><svg xmlns="http://www.w3.org/2000/svg" xmlns:xlink="http://www.w3.org/1999/xlink" version="1.1" width="512" height="512" viewBox="0 0 512 512">    <path fill="#ffffff" transform="scale(1, -1) translate(0, -448)" glyph-name="star-box-outline" unicode="&#xFA73;" horiz-adv-x="512" d=" M332.3733333333334 85.3333333333334L256 131.4133333333334L179.6266666666667 85.3333333333334L199.8933333333333 172.16L132.48 230.4000000000001L221.44 238.08L256 320L290.56 238.2933333333334L379.52 230.6133333333334L312.1066666666667 172.3733333333333L332.3733333333333 85.3333333333334M405.3333333333333 384C428.8 384 448 364.8 448 341.3333333333334V42.6666666666667C448 18.9866666666667 428.8 0 405.3333333333333 0H106.6666666666667C83.2 0 64 19.2 64 42.6666666666667V341.3333333333334C64 364.8 83.2 384 106.6666666666667 384H405.3333333333333M106.6666666666667 341.3333333333334V42.6666666666667H405.3333333333333V341.3333333333334H106.6666666666667z" /></svg>