<?xml version="1.0" encoding="UTF-8"?><!DOCTYPE svg PUBLIC "-//W3C//DTD SVG 1.1//EN" "http://www.w3.org/Graphics/SVG/1.1/DTD/svg11.dtd"><svg xmlns="http://www.w3.org/2000/svg" xmlns:xlink="http://www.w3.org/1999/xlink" version="1.1" width="512" height="512" viewBox="0 0 512 512">    <path fill="#ffffff" transform="scale(1, -1) translate(0, -448)" glyph-name="video-input-antenna" unicode="&#xF83E;" horiz-adv-x="512" d=" M256 341.3333333333334C173.44 341.3333333333334 106.6666666666667 274.5600000000001 106.6666666666667 192H149.3333333333333C149.3333333333333 250.88 197.12 298.6666666666667 256 298.6666666666667S362.6666666666667 250.88 362.6666666666667 192H405.3333333333333C405.3333333333333 274.5600000000001 338.56 341.3333333333334 256 341.3333333333334M277.3333333333333 143.1466666666667C296.1066666666667 151.4666666666667 309.3333333333333 170.0266666666667 309.3333333333333 192C309.3333333333333 221.44 285.44 245.3333333333334 256 245.3333333333334S202.6666666666667 221.44 202.6666666666667 192C202.6666666666667 170.6666666666667 215.8933333333333 151.4666666666667 234.6666666666667 143.1466666666667V72.7466666666667L161.92 0L192 -30.08L256 33.92L320 -30.08L350.08 0L277.3333333333333 72.7466666666667V143.1466666666667M256 426.6666666666667C126.2933333333333 426.6666666666667 21.3333333333333 321.7066666666667 21.3333333333333 192H64C64 298.0266666666667 149.9733333333333 384 256 384S448 298.0266666666667 448 192H490.6666666666666C490.6666666666666 321.7066666666667 385.7066666666666 426.6666666666667 256 426.6666666666667z" /></svg>