<?xml version="1.0" encoding="UTF-8"?><!DOCTYPE svg PUBLIC "-//W3C//DTD SVG 1.1//EN" "http://www.w3.org/Graphics/SVG/1.1/DTD/svg11.dtd"><svg xmlns="http://www.w3.org/2000/svg" xmlns:xlink="http://www.w3.org/1999/xlink" version="1.1" width="512" height="512" viewBox="0 0 512 512">    <path fill="#ffffff" transform="scale(1, -1) translate(0, -448)" glyph-name="checkbox-multiple-marked" unicode="&#xF138;" horiz-adv-x="512" d=" M469.3333333333333 106.6666666666667C469.3333333333333 83.2 450.1333333333334 64 426.6666666666667 64H170.6666666666667C146.9866666666667 64 128 83.2 128 106.6666666666667V362.6666666666667C128 386.3466666666667 146.9866666666667 405.3333333333333 170.6666666666667 405.3333333333333H426.6666666666667C450.1333333333334 405.3333333333333 469.3333333333333 386.1333333333334 469.3333333333333 362.6666666666667V106.6666666666667M341.3333333333333 21.3333333333334V-21.3333333333333H85.3333333333333C61.8666666666667 -21.3333333333333 42.6666666666667 -2.1333333333333 42.6666666666667 21.3333333333334V298.6666666666667H85.3333333333333V21.3333333333334H341.3333333333333M277.3333333333333 149.3333333333334L426.6666666666667 298.6666666666667L396.5866666666667 328.7466666666667L277.3333333333333 209.7066666666667L211.4133333333333 275.4133333333334L181.3333333333333 245.3333333333334L277.3333333333333 149.3333333333334z" /></svg>