<?xml version="1.0" encoding="UTF-8"?><!DOCTYPE svg PUBLIC "-//W3C//DTD SVG 1.1//EN" "http://www.w3.org/Graphics/SVG/1.1/DTD/svg11.dtd"><svg xmlns="http://www.w3.org/2000/svg" xmlns:xlink="http://www.w3.org/1999/xlink" version="1.1" width="512" height="512" viewBox="0 0 512 512">    <path fill="#ffffff" transform="scale(1, -1) translate(0, -448)" glyph-name="cricket" unicode="&#xFD49;" horiz-adv-x="512" d=" M305.92 68.9066666666667L336 98.9866666666667L426.6666666666667 8.96L395.9466666666666 -21.3333333333333L305.92 68.9066666666667M394.6666666666667 405.3333333333333C435.84 405.3333333333333 469.3333333333333 371.8400000000001 469.3333333333333 330.6666666666667S435.84 256 394.6666666666667 256S320 289.4933333333334 320 330.6666666666667S353.4933333333334 405.3333333333333 394.6666666666667 405.3333333333333M47.7866666666667 296.32L108.16 356.6933333333334C116.48 365.0133333333333 129.92 365.0133333333333 138.6666666666667 356.6933333333334L319.36 175.5733333333334C327.68 167.2533333333333 327.68 153.8133333333334 319.36 145.4933333333334L258.9866666666667 85.3333333333334C250.6666666666667 76.8000000000001 237.2266666666667 76.8000000000001 228.6933333333334 85.3333333333334L47.7866666666667 266.0266666666667C39.4666666666667 274.5600000000001 39.4666666666667 288 47.7866666666667 296.3200000000001z" /></svg>