<?xml version="1.0" encoding="UTF-8"?><!DOCTYPE svg PUBLIC "-//W3C//DTD SVG 1.1//EN" "http://www.w3.org/Graphics/SVG/1.1/DTD/svg11.dtd"><svg xmlns="http://www.w3.org/2000/svg" xmlns:xlink="http://www.w3.org/1999/xlink" version="1.1" width="512" height="512" viewBox="0 0 512 512">    <path fill="#ffffff" transform="scale(1, -1) translate(0, -448)" glyph-name="google-lens" unicode="&#xF9F5;" horiz-adv-x="512" d=" M128 405.3333333333333H384C431.1466666666667 405.3333333333333 469.3333333333333 367.1466666666667 469.3333333333333 320V192H426.6666666666667V320C426.6666666666667 343.4666666666667 407.4666666666667 362.6666666666667 384 362.6666666666667H128C104.5333333333333 362.6666666666667 85.3333333333333 343.4666666666667 85.3333333333333 320V64C85.3333333333333 40.5333333333333 104.5333333333333 21.3333333333334 128 21.3333333333334H256V-21.3333333333333H128C80.8533333333333 -21.3333333333333 42.6666666666667 16.8533333333334 42.6666666666667 64V320C42.6666666666667 367.1466666666667 80.8533333333333 405.3333333333333 128 405.3333333333333M256 277.3333333333334C303.1466666666667 277.3333333333334 341.3333333333333 239.1466666666667 341.3333333333333 192S303.1466666666667 106.6666666666667 256 106.6666666666667S170.6666666666667 144.8533333333334 170.6666666666667 192S208.8533333333333 277.3333333333334 256 277.3333333333334M384 106.6666666666667C407.4666666666667 106.6666666666667 426.6666666666667 87.4666666666667 426.6666666666667 64S407.4666666666667 21.3333333333334 384 21.3333333333334S341.3333333333333 40.5333333333333 341.3333333333333 64S360.5333333333333 106.6666666666667 384 106.6666666666667z" /></svg>