<?xml version="1.0" encoding="UTF-8"?><!DOCTYPE svg PUBLIC "-//W3C//DTD SVG 1.1//EN" "http://www.w3.org/Graphics/SVG/1.1/DTD/svg11.dtd"><svg xmlns="http://www.w3.org/2000/svg" xmlns:xlink="http://www.w3.org/1999/xlink" version="1.1" width="512" height="512" viewBox="0 0 512 512">    <path fill="#ffffff" transform="scale(1, -1) translate(0, -448)" glyph-name="watch-import-variant" unicode="&#xF895;" horiz-adv-x="512" d=" M21.3333333333333 213.3333333333334H128L74.6666666666667 266.6666666666667L104.96 296.9600000000001L209.92 192L104.96 87.04L74.6666666666667 117.3333333333334L128 170.6666666666667H21.3333333333333V213.3333333333334M170.6666666666667 448H341.3333333333333L359.04 341.3333333333334H362.6666666666667C386.1333333333334 341.3333333333334 405.3333333333333 322.1333333333334 405.3333333333333 298.6666666666667V85.3333333333334C405.3333333333333 61.6533333333334 386.1333333333334 42.6666666666667 362.6666666666667 42.6666666666667H359.04L341.3333333333333 -64H170.6666666666667L152.96 42.6666666666667H149.3333333333333C137.8133333333333 42.6666666666667 128 47.1466666666667 119.8933333333333 54.6133333333333L150.6133333333333 85.3333333333334H362.6666666666667V298.6666666666667H150.6133333333333L119.8933333333333 329.3866666666667C128 336.8533333333334 137.8133333333333 341.3333333333334 149.3333333333333 341.3333333333334H152.96L170.6666666666667 448z" /></svg>