<?xml version="1.0" encoding="UTF-8"?><!DOCTYPE svg PUBLIC "-//W3C//DTD SVG 1.1//EN" "http://www.w3.org/Graphics/SVG/1.1/DTD/svg11.dtd"><svg xmlns="http://www.w3.org/2000/svg" xmlns:xlink="http://www.w3.org/1999/xlink" version="1.1" width="512" height="512" viewBox="0 0 512 512">    <path fill="#ffffff" transform="scale(1, -1) translate(0, -448)" glyph-name="lastfm" unicode="&#xF326;" horiz-adv-x="512" d=" M384 65.4933333333333C339.6266666666667 65.7066666666667 315.9466666666667 87.4666666666667 299.52 126.0800000000001L294.8266666666666 136.5333333333334L254.2933333333333 229.76C240.8533333333333 262.6133333333334 207.36 285.0133333333333 169.8133333333333 285.0133333333333C118.8266666666666 285.0133333333333 77.44 243.4133333333334 77.44 192S118.8266666666666 98.9866666666667 169.8133333333333 98.9866666666667C205.2266666666666 98.9866666666667 236.3733333333333 119.2533333333333 251.7333333333333 149.3333333333334L268.1599999999999 110.72C245.3333333333333 82.1333333333334 209.4933333333334 64 169.8133333333333 64C99.6266666666667 64 42.6666666666667 121.1733333333334 42.6666666666667 192C42.6666666666667 262.6133333333334 99.6266666666667 320 169.8133333333333 320C222.72 320 265.6 291.4133333333334 287.36 241.0666666666667C288.8533333333333 237.0133333333334 310.1866666666666 186.8800000000001 328.9599999999999 144.2133333333334C340.4799999999999 117.3333333333334 350.2933333333333 100.0533333333334 382.08 98.9866666666667C413.4399999999999 97.92 434.9866666666666 117.3333333333334 434.9866666666666 141.4400000000001C434.9866666666666 165.12 418.56 170.6666666666667 390.8266666666666 180.0533333333334C341.3333333333333 196.48 315.5199999999999 213.3333333333334 315.5199999999999 252.8000000000001C315.5199999999999 291.6266666666667 341.3333333333333 317.4400000000001 383.9999999999999 317.4400000000001C411.9466666666666 317.4400000000001 431.7866666666665 305.0666666666667 445.6533333333333 280.3200000000001L418.56 266.6666666666667C408.32 280.7466666666667 397.0133333333332 286.5066666666667 382.7199999999999 286.5066666666667C362.6666666666666 286.5066666666667 348.3733333333333 272.4266666666667 348.3733333333333 253.8666666666667C348.3733333333333 227.4133333333334 371.84 223.36 404.6933333333333 212.6933333333334C448.8533333333333 198.1866666666667 469.3333333333333 181.3333333333334 469.3333333333333 140.3733333333333C469.3333333333333 97.0666666666667 432.4266666666666 65.4933333333333 384 65.4933333333333z" /></svg>