<?xml version="1.0" encoding="UTF-8"?><!DOCTYPE svg PUBLIC "-//W3C//DTD SVG 1.1//EN" "http://www.w3.org/Graphics/SVG/1.1/DTD/svg11.dtd"><svg xmlns="http://www.w3.org/2000/svg" xmlns:xlink="http://www.w3.org/1999/xlink" version="1.1" width="512" height="512" viewBox="0 0 512 512">    <path fill="#ffffff" transform="scale(1, -1) translate(0, -448)" glyph-name="shopping-music" unicode="&#xF49B;" horiz-adv-x="512" d=" M256 384C220.5866666666667 384 192 355.4133333333334 192 320H320C320 355.4133333333334 291.4133333333333 384 256 384M405.3333333333333 320C428.8 320 448 300.8 448 277.3333333333334V21.3333333333334C448 -2.1333333333333 428.8 -21.3333333333333 405.3333333333333 -21.3333333333333H106.6666666666667C82.9866666666667 -21.3333333333333 64 -2.1333333333333 64 21.3333333333334V277.3333333333334C64 301.0133333333333 82.9866666666667 320 106.6666666666667 320H149.3333333333333C149.3333333333333 378.88 197.12 426.6666666666667 256 426.6666666666667S362.6666666666667 378.88 362.6666666666667 320H405.3333333333333M192 42.6666666666667L352 149.3333333333334L192 234.6666666666667V42.6666666666667z" /></svg>