<?xml version="1.0" encoding="UTF-8"?><!DOCTYPE svg PUBLIC "-//W3C//DTD SVG 1.1//EN" "http://www.w3.org/Graphics/SVG/1.1/DTD/svg11.dtd"><svg xmlns="http://www.w3.org/2000/svg" xmlns:xlink="http://www.w3.org/1999/xlink" version="1.1" width="512" height="512" viewBox="0 0 512 512">    <path fill="#ffffff" transform="scale(1, -1) translate(0, -448)" glyph-name="shield-remove" unicode="&#xFADB;" horiz-adv-x="512" d=" M414.5066666666667 42.6666666666667L458.6666666666666 -2.3466666666666L429.2266666666667 -32L384.64 12.5866666666667L339.4133333333333 -32.64L309.3333333333333 -2.3466666666666L354.3466666666667 42.6666666666667L309.3333333333333 88.3200000000001L338.7733333333333 117.9733333333334L384 72.7466666666667L429.2266666666667 117.9733333333334L459.7333333333333 87.4666666666667L414.5066666666667 42.6666666666667M256 426.6666666666667L448 341.3333333333334V213.3333333333334C448 194.1333333333333 445.8666666666666 175.36 441.8133333333334 156.8C424.5333333333333 165.76 405.3333333333333 170.6666666666667 384 170.6666666666667C313.3866666666667 170.6666666666667 256 113.28 256 42.6666666666667C256 13.6533333333334 265.6 -13.2266666666667 282.0266666666667 -34.56L256 -42.6666666666666C145.92 -15.7866666666666 64 94.9333333333333 64 213.3333333333334V341.3333333333334L256 426.6666666666667z" /></svg>