<?xml version="1.0" encoding="UTF-8"?><!DOCTYPE svg PUBLIC "-//W3C//DTD SVG 1.1//EN" "http://www.w3.org/Graphics/SVG/1.1/DTD/svg11.dtd"><svg xmlns="http://www.w3.org/2000/svg" xmlns:xlink="http://www.w3.org/1999/xlink" version="1.1" width="512" height="512" viewBox="0 0 512 512">    <path fill="#ffffff" transform="scale(1, -1) translate(0, -448)" glyph-name="surround-sound-3-1" unicode="&#xF7F0;" horiz-adv-x="512" d=" M277.3333333333333 85.3333333333334C265.6 85.3333333333334 256 94.9333333333333 256 106.6666666666667S265.6 128 277.3333333333333 128S298.6666666666667 118.4 298.6666666666667 106.6666666666667S289.0666666666667 85.3333333333334 277.3333333333333 85.3333333333334M405.3333333333333 298.6666666666667V128H426.6666666666667V85.3333333333334H341.3333333333333V128H362.6666666666667V256H341.3333333333333L362.6666666666667 298.6666666666667H405.3333333333333M85.3333333333333 298.6666666666667H170.6666666666667C194.1333333333333 298.6666666666667 213.3333333333333 279.4666666666667 213.3333333333333 256V128C213.3333333333333 104.5333333333333 194.1333333333333 85.3333333333334 170.6666666666667 85.3333333333334H85.3333333333333V128H170.6666666666667V170.6666666666667H106.6666666666667V213.3333333333334H170.6666666666667V256H85.3333333333333V298.6666666666667z" /></svg>