<?xml version="1.0" encoding="UTF-8"?><!DOCTYPE svg PUBLIC "-//W3C//DTD SVG 1.1//EN" "http://www.w3.org/Graphics/SVG/1.1/DTD/svg11.dtd"><svg xmlns="http://www.w3.org/2000/svg" xmlns:xlink="http://www.w3.org/1999/xlink" version="1.1" width="512" height="512" viewBox="0 0 512 512">    <path fill="#ffffff" transform="scale(1, -1) translate(0, -448)" glyph-name="thought-bubble" unicode="&#xF7F5;" horiz-adv-x="512" d=" M74.6666666666667 42.6666666666667C92.3733333333333 42.6666666666667 106.6666666666667 28.3733333333333 106.6666666666667 10.6666666666667S92.3733333333333 -21.3333333333333 74.6666666666667 -21.3333333333333S42.6666666666667 -7.04 42.6666666666667 10.6666666666667S56.96 42.6666666666667 74.6666666666667 42.6666666666667M181.3333333333333 106.6666666666667C210.7733333333333 106.6666666666667 234.6666666666667 82.7733333333333 234.6666666666667 53.3333333333334S210.7733333333334 0 181.3333333333333 0S128 23.8933333333334 128 53.3333333333334S151.8933333333333 106.6666666666667 181.3333333333333 106.6666666666667M309.3333333333333 128C283.9466666666667 128 260.9066666666667 138.6666666666667 245.3333333333333 156.8C229.76 138.6666666666667 206.72 128 181.3333333333333 128C139.52 128 104.7466666666667 158.0800000000001 97.4933333333333 197.5466666666667C65.4933333333333 209.92 42.6666666666667 241.0666666666667 42.6666666666667 277.3333333333334C42.6666666666667 324.48 80.8533333333333 362.6666666666667 128 362.6666666666667C133.5466666666667 362.6666666666667 138.6666666666667 362.0266666666667 144.4266666666667 361.1733333333334C160 375.2533333333334 180.2666666666667 384 202.6666666666667 384C228.0533333333333 384 251.0933333333333 373.3333333333334 266.6666666666667 355.2000000000001C282.24 373.3333333333334 305.28 384 330.6666666666667 384C372.48 384 407.2533333333334 353.92 414.5066666666667 314.4533333333334C446.5066666666667 302.0800000000001 469.3333333333333 270.9333333333334 469.3333333333333 234.6666666666667C469.3333333333333 187.52 431.1466666666667 149.3333333333334 384 149.3333333333334L367.5733333333333 150.8266666666667C352 136.7466666666667 331.7333333333334 128 309.3333333333333 128z" /></svg>