<?xml version="1.0" encoding="UTF-8"?><!DOCTYPE svg PUBLIC "-//W3C//DTD SVG 1.1//EN" "http://www.w3.org/Graphics/SVG/1.1/DTD/svg11.dtd"><svg xmlns="http://www.w3.org/2000/svg" xmlns:xlink="http://www.w3.org/1999/xlink" version="1.1" width="512" height="512" viewBox="0 0 512 512">    <path fill="#ffffff" transform="scale(1, -1) translate(0, -448)" glyph-name="gondola" unicode="&#xF685;" horiz-adv-x="512" d=" M384 234.6666666666667H277.3333333333333V286.0800000000001L471.8933333333333 318.5066666666667L466.7733333333333 350.0800000000001L350.08 330.6666666666667C351.1466666666667 333.8666666666667 352 337.4933333333334 352 341.3333333333334C352 359.04 337.7066666666667 373.3333333333334 320 373.3333333333334S288 359.04 288 341.3333333333334C288 333.8666666666667 290.7733333333333 326.8266666666667 295.2533333333334 321.4933333333334L277.3333333333333 318.5066666666667V341.3333333333334H234.6666666666667V311.2533333333334L222.08 309.3333333333334C223.1466666666667 312.5333333333334 224 316.1600000000001 224 320C224 337.7066666666667 209.7066666666667 352 192 352S160 337.7066666666667 160 320C160 312.32 162.7733333333333 305.4933333333334 167.04 300.1600000000001L40.1066666666667 278.8266666666667L45.2266666666667 247.2533333333334L234.6666666666667 278.8266666666667V234.6666666666667H128C104.32 234.6666666666667 85.3333333333333 215.4666666666667 85.3333333333333 192V64C85.3333333333333 40.5333333333333 104.5333333333333 21.3333333333334 128 21.3333333333334H384C407.4666666666667 21.3333333333334 426.6666666666667 40.5333333333333 426.6666666666667 64V192C426.6666666666667 215.4666666666667 407.4666666666667 234.6666666666667 384 234.6666666666667M128 192H176V106.6666666666667H128V192M208 106.6666666666667V192H304V106.6666666666667H208M384 106.6666666666667H336V192H384V106.6666666666667z" /></svg>