<?xml version="1.0" encoding="UTF-8"?><!DOCTYPE svg PUBLIC "-//W3C//DTD SVG 1.1//EN" "http://www.w3.org/Graphics/SVG/1.1/DTD/svg11.dtd"><svg xmlns="http://www.w3.org/2000/svg" xmlns:xlink="http://www.w3.org/1999/xlink" version="1.1" width="512" height="512" viewBox="0 0 512 512">    <path fill="#ffffff" transform="scale(1, -1) translate(0, -448)" glyph-name="content-save-move" unicode="&#xFE79;" horiz-adv-x="512" d=" M362.6666666666667 384H106.6666666666667C83.2 384 64 364.8 64 341.3333333333334V42.6666666666667C64 19.2 83.2 0 106.6666666666667 0H251.9466666666667C243.6266666666666 14.08 238.2933333333333 29.8666666666667 236.16 46.08C202.6666666666666 57.3866666666667 184.7466666666666 93.8666666666667 196.2666666666667 127.36C205.0133333333333 152.96 228.9066666666667 170.6666666666667 256 170.6666666666667C265.3866666666667 170.6666666666667 274.7733333333333 168.5333333333334 283.3066666666666 164.48C332.16 202.6666666666667 401.7066666666666 200.7466666666667 448 159.1466666666667V298.6666666666667L362.6666666666667 384M320 256H106.6666666666667V341.3333333333334H320V256M277.3333333333333 85.3333333333334H362.6666666666667V149.3333333333334L469.3333333333333 53.3333333333334L362.6666666666667 -42.6666666666666V21.3333333333334H277.3333333333333V85.3333333333334" /></svg>