<?xml version="1.0" encoding="UTF-8"?><!DOCTYPE svg PUBLIC "-//W3C//DTD SVG 1.1//EN" "http://www.w3.org/Graphics/SVG/1.1/DTD/svg11.dtd"><svg xmlns="http://www.w3.org/2000/svg" xmlns:xlink="http://www.w3.org/1999/xlink" version="1.1" width="512" height="512" viewBox="0 0 512 512">    <path fill="#ffffff" transform="scale(1, -1) translate(0, -448)" glyph-name="panda" unicode="&#xF3DA;" horiz-adv-x="512" d=" M256 384C293.12 384 327.68 373.3333333333334 357.12 355.2000000000001C370.7733333333333 372.6933333333334 392.1066666666667 384 416 384C457.1733333333333 384 490.6666666666666 350.5066666666667 490.6666666666666 309.3333333333334C490.6666666666666 277.3333333333334 470.4 250.0266666666667 442.0266666666667 239.36C445.8666666666666 224 448 208.4266666666667 448 192C448 85.9733333333334 362.0266666666667 0 256 0S64 85.9733333333334 64 192C64 208.4266666666667 66.1333333333333 224 69.9733333333333 239.36C41.6 250.0266666666667 21.3333333333333 277.3333333333334 21.3333333333333 309.3333333333334C21.3333333333333 350.5066666666667 54.8266666666667 384 96 384C119.8933333333333 384 141.2266666666667 372.6933333333334 154.88 355.2000000000001C184.32 373.3333333333334 218.88 384 256 384M256 341.3333333333334C173.44 341.3333333333334 106.6666666666667 274.5600000000001 106.6666666666667 192S173.44 42.6666666666667 256 42.6666666666667S405.3333333333333 109.44 405.3333333333333 192S338.56 341.3333333333334 256 341.3333333333334M345.3866666666667 228.2666666666667C353.0666666666667 199.8933333333333 343.04 172.5866666666667 323.2000000000001 167.2533333333333C303.1466666666667 161.7066666666667 280.9600000000001 180.48 273.2800000000001 209.0666666666667C265.6 237.4400000000001 275.6266666666667 264.7466666666667 295.4666666666667 270.0800000000001C315.52 275.4133333333334 337.7066666666667 256.8533333333334 345.3866666666667 228.2666666666667M166.6133333333334 228.2666666666667C174.2933333333333 256.8533333333334 196.48 275.4133333333334 216.5333333333333 270.0800000000001C236.3733333333334 264.7466666666667 246.4 237.4400000000001 238.7200000000001 209.0666666666667C231.04 180.48 208.8533333333334 161.7066666666667 188.8 167.2533333333333C168.96 172.5866666666667 158.9333333333333 199.8933333333333 166.6133333333334 228.2666666666667M256 149.3333333333334C268.8 149.3333333333334 280.1066666666667 145.28 288 138.6666666666667L266.6666666666667 117.3333333333334C266.6666666666667 108.3733333333333 273.92 101.3333333333334 282.6666666666667 101.3333333333334S298.6666666666667 108.5866666666667 298.6666666666667 117.3333333333334C298.6666666666667 123.3066666666667 303.36 128 309.3333333333333 128S320 123.3066666666667 320 117.3333333333334C320 96.64 303.36 80 282.6666666666667 80C272.2133333333333 80 262.8266666666667 84.2666666666667 256 91.3066666666667C249.1733333333333 84.2666666666668 239.7866666666667 80 229.3333333333333 80C208.64 80 192 96.64 192 117.3333333333334C192 123.3066666666667 196.6933333333333 128 202.6666666666667 128S213.3333333333333 123.3066666666667 213.3333333333333 117.3333333333334C213.3333333333333 108.5866666666667 220.5866666666667 101.3333333333334 229.3333333333333 101.3333333333334S245.3333333333333 108.5866666666667 245.3333333333333 117.3333333333334L224 138.6666666666667C231.8933333333333 145.28 243.2 149.3333333333334 256 149.3333333333334z" /></svg>