<?xml version="1.0" encoding="UTF-8"?><!DOCTYPE svg PUBLIC "-//W3C//DTD SVG 1.1//EN" "http://www.w3.org/Graphics/SVG/1.1/DTD/svg11.dtd"><svg xmlns="http://www.w3.org/2000/svg" xmlns:xlink="http://www.w3.org/1999/xlink" version="1.1" width="512" height="512" viewBox="0 0 512 512">    <path fill="#ffffff" transform="scale(1, -1) translate(0, -448)" glyph-name="binoculars" unicode="&#xF0A5;" horiz-adv-x="512" d=" M234.6666666666667 320H277.3333333333333V170.6666666666667H234.6666666666667V320M192 21.3333333333334C192 9.6 182.4 0 170.6666666666667 0H106.6666666666667C94.9333333333333 0 85.3333333333333 9.6 85.3333333333333 21.3333333333334V128L128 320H213.3333333333333V170.6666666666667C213.3333333333333 158.9333333333333 203.7333333333334 149.3333333333334 192 149.3333333333334V21.3333333333334M213.3333333333333 341.3333333333334H149.3333333333333V384H213.3333333333333V341.3333333333334M320 21.3333333333334V149.3333333333334C308.2666666666667 149.3333333333334 298.6666666666667 158.9333333333333 298.6666666666667 170.6666666666667V320H384L426.6666666666667 128V21.3333333333334C426.6666666666667 9.6 417.0666666666667 0 405.3333333333333 0H341.3333333333333C329.6 0 320 9.6 320 21.3333333333334M298.6666666666667 341.3333333333334V384H362.6666666666667V341.3333333333334H298.6666666666667z" /></svg>