<?xml version="1.0" encoding="UTF-8"?><!DOCTYPE svg PUBLIC "-//W3C//DTD SVG 1.1//EN" "http://www.w3.org/Graphics/SVG/1.1/DTD/svg11.dtd"><svg xmlns="http://www.w3.org/2000/svg" xmlns:xlink="http://www.w3.org/1999/xlink" version="1.1" width="512" height="512" viewBox="0 0 512 512">    <path fill="#ffffff" transform="scale(1, -1) translate(0, -448)" glyph-name="power-socket-uk" unicode="&#xF7E7;" horiz-adv-x="512" d=" M309.3333333333333 154.6666666666667H384V106.6666666666667H309.3333333333333V154.6666666666667M128 154.6666666666667H202.6666666666667V106.6666666666667H128V154.6666666666667M234.6666666666667 320H277.3333333333333V234.6666666666667H234.6666666666667V320M90.0266666666667 405.3333333333333C63.7866666666667 405.3333333333333 42.6666666666667 384.2133333333333 42.6666666666667 357.9733333333334V26.0266666666666C42.6666666666667 0 64 -21.3333333333333 90.0266666666667 -21.3333333333333H421.9733333333334C448.2133333333334 -21.3333333333333 469.3333333333333 -0.2133333333334 469.3333333333333 26.0266666666666V357.9733333333334C469.3333333333333 384 448 405.3333333333333 421.9733333333334 405.3333333333333H90.0266666666667M256 362.6666666666667C350.2933333333334 362.6666666666667 426.6666666666667 286.2933333333334 426.6666666666667 192S350.2933333333334 21.3333333333334 256 21.3333333333334S85.3333333333333 97.7066666666667 85.3333333333333 192S161.7066666666667 362.6666666666667 256 362.6666666666667z" /></svg>