<?xml version="1.0" encoding="UTF-8"?><!DOCTYPE svg PUBLIC "-//W3C//DTD SVG 1.1//EN" "http://www.w3.org/Graphics/SVG/1.1/DTD/svg11.dtd"><svg xmlns="http://www.w3.org/2000/svg" xmlns:xlink="http://www.w3.org/1999/xlink" version="1.1" width="512" height="512" viewBox="0 0 512 512">    <path fill="#ffffff" transform="scale(1, -1) translate(0, -448)" glyph-name="pier-crane" unicode="&#xF887;" horiz-adv-x="512" d=" M426.6666666666667 21.3333333333334C397.0133333333333 21.3333333333334 367.36 31.36 341.3333333333333 49.7066666666667C289.28 13.2266666666666 222.72 13.2266666666666 170.6666666666667 49.7066666666667C144.64 31.36 114.9866666666667 21.3333333333334 85.3333333333333 21.3333333333334H42.6666666666667V-21.3333333333333H85.3333333333333C114.56 -21.3333333333333 143.7866666666667 -13.8666666666666 170.6666666666667 0C224 -27.7333333333333 288 -27.7333333333333 341.3333333333333 0C368.2133333333334 -13.8666666666666 397.2266666666667 -21.3333333333333 426.6666666666667 -21.3333333333333H469.3333333333333V21.3333333333334H426.6666666666667M426.6666666666667 362.6666666666667V384C426.6666666666667 395.7333333333334 417.0666666666667 405.3333333333333 405.3333333333333 405.3333333333333H192V426.6666666666667H128V405.3333333333333H106.6666666666667V362.6666666666667H128V170.6666666666667H106.6666666666667V213.3333333333334H64V170.6666666666667H42.6666666666667V128H64V42.6666666666667H85.3333333333333C92.3733333333333 42.6666666666667 99.6266666666667 43.3066666666667 106.6666666666667 44.3733333333333V128H213.3333333333333V50.1333333333334C227.2 45.8666666666667 241.7066666666667 43.7333333333334 256 43.7333333333334V128H277.3333333333333V170.6666666666667H256V213.3333333333334H213.3333333333333V170.6666666666667H192V362.6666666666667H362.6666666666667V264.1066666666667C352.64 260.48 345.3866666666667 251.0933333333334 345.3866666666667 239.7866666666667C345.3866666666667 230.4 350.5066666666667 221.8666666666667 358.4 217.1733333333333V192H371.6266666666667C378.88 192 384.64 186.0266666666667 384.64 178.7733333333334C384.64 171.5200000000001 378.88 165.5466666666668 371.6266666666667 165.5466666666668C366.9333333333334 165.5466666666668 362.6666666666667 168.1066666666667 360.1066666666667 172.1600000000001C356.48 178.3466666666667 348.5866666666667 180.4800000000001 342.4000000000001 176.8533333333334C336.0000000000001 173.4400000000001 333.8666666666668 165.3333333333334 337.4933333333334 158.9333333333334C344.5333333333334 146.9866666666667 357.5466666666668 139.3066666666667 371.6266666666668 139.3066666666667C393.1733333333335 139.3066666666667 410.8800000000001 157.0133333333334 410.8800000000001 178.7733333333334C410.8800000000001 195.4133333333334 400.2133333333334 210.3466666666668 384.6400000000001 215.8933333333334V217.1733333333334C392.7466666666668 221.8666666666668 397.8666666666668 230.4000000000001 397.8666666666668 239.7866666666668C397.8666666666668 249.6000000000001 392.1066666666668 257.9200000000001 384.0000000000001 262.4000000000001V362.6666666666667H426.6666666666668M170.6666666666667 199.2533333333333L149.3333333333333 177.92V208.2133333333334L170.6666666666667 229.5466666666667V199.2533333333333M170.6666666666667 262.1866666666667L149.3333333333333 240.8533333333333V271.1466666666667L170.6666666666667 292.48V262.1866666666667M149.3333333333333 304.8533333333334V335.1466666666667L170.6666666666667 356.48V326.1866666666667L149.3333333333333 304.8533333333334z" /></svg>