<?xml version="1.0" encoding="UTF-8"?><!DOCTYPE svg PUBLIC "-//W3C//DTD SVG 1.1//EN" "http://www.w3.org/Graphics/SVG/1.1/DTD/svg11.dtd"><svg xmlns="http://www.w3.org/2000/svg" xmlns:xlink="http://www.w3.org/1999/xlink" version="1.1" width="512" height="512" viewBox="0 0 512 512">    <path fill="#ffffff" transform="scale(1, -1) translate(0, -448)" glyph-name="album" unicode="&#xF025;" horiz-adv-x="512" d=" M256 213.3333333333334C244.2666666666667 213.3333333333334 234.6666666666667 203.7333333333334 234.6666666666667 192S244.2666666666667 170.6666666666667 256 170.6666666666667S277.3333333333333 180.2666666666667 277.3333333333333 192S267.7333333333334 213.3333333333334 256 213.3333333333334M256 96C202.6666666666667 96 160 138.6666666666667 160 192S202.6666666666667 288 256 288S352 245.3333333333334 352 192S309.3333333333333 96 256 96M256 405.3333333333333C138.24 405.3333333333333 42.6666666666667 309.76 42.6666666666667 192S138.24 -21.3333333333333 256 -21.3333333333333S469.3333333333333 74.24 469.3333333333333 192S373.76 405.3333333333333 256 405.3333333333333z" /></svg>