<?xml version="1.0" encoding="UTF-8"?><!DOCTYPE svg PUBLIC "-//W3C//DTD SVG 1.1//EN" "http://www.w3.org/Graphics/SVG/1.1/DTD/svg11.dtd"><svg xmlns="http://www.w3.org/2000/svg" xmlns:xlink="http://www.w3.org/1999/xlink" version="1.1" width="512" height="512" viewBox="0 0 512 512">    <path fill="#ffffff" transform="scale(1, -1) translate(0, -448)" glyph-name="clock-in" unicode="&#xF153;" horiz-adv-x="512" d=" M47.1466666666667 431.1466666666667L16.8533333333333 400.8533333333334L102.4 315.52L64 277.3333333333334H170.6666666666667V384L132.48 345.6M256 277.3333333333334C173.6533333333333 277.3333333333334 106.6666666666667 210.56 106.6666666666667 128S173.44 -21.3333333333333 256 -21.3333333333333C338.3466666666667 -21.3333333333333 405.3333333333333 45.44 405.3333333333333 128S338.56 277.3333333333334 256 277.3333333333334M256 231.4666666666667C312.96 231.4666666666667 359.4666666666667 185.1733333333334 359.4666666666667 128C359.4666666666667 70.8266666666667 313.1733333333334 24.5333333333333 256 24.5333333333333C198.8266666666667 24.5333333333333 152.5333333333334 70.8266666666667 152.5333333333334 128C152.5333333333334 185.1733333333333 198.8266666666667 231.4666666666667 256 231.4666666666667M234.6666666666667 192V113.28L302.72 74.0266666666666L318.72 101.76L266.6666666666667 131.84V192" /></svg>