<?xml version="1.0" encoding="UTF-8"?><!DOCTYPE svg PUBLIC "-//W3C//DTD SVG 1.1//EN" "http://www.w3.org/Graphics/SVG/1.1/DTD/svg11.dtd"><svg xmlns="http://www.w3.org/2000/svg" xmlns:xlink="http://www.w3.org/1999/xlink" version="1.1" width="512" height="512" viewBox="0 0 512 512">    <path fill="#ffffff" transform="scale(1, -1) translate(0, -448)" glyph-name="shield-account-outline" unicode="&#xFA11;" horiz-adv-x="512" d=" M256 426.6666666666667L64 341.3333333333334V213.3333333333334C64 94.9333333333333 145.92 -15.7866666666667 256 -42.6666666666666C366.08 -15.7866666666666 448 94.9333333333333 448 213.3333333333334V341.3333333333334L256 426.6666666666667M256 380.16L405.3333333333333 313.6V208.64C405.3333333333333 172.3733333333333 394.6666666666667 135.4666666666667 376.5333333333333 103.04C341.3333333333333 129.28 282.88 138.6666666666667 256 138.6666666666667C229.12 138.6666666666667 170.6666666666667 129.28 135.4666666666667 103.04C117.3333333333333 135.4666666666667 106.6666666666667 172.3733333333333 106.6666666666667 208.64V313.6L256 380.1600000000001M256 320C214.8266666666667 320 181.3333333333333 286.5066666666667 181.3333333333333 245.3333333333334S214.8266666666667 170.6666666666667 256 170.6666666666667S330.6666666666667 204.16 330.6666666666667 245.3333333333334S297.1733333333333 320 256 320M256 277.3333333333334C273.7066666666667 277.3333333333334 288 263.04 288 245.3333333333334S273.7066666666667 213.3333333333334 256 213.3333333333334S224 227.6266666666667 224 245.3333333333334S238.2933333333333 277.3333333333334 256 277.3333333333334M256 96C289.4933333333334 96 333.6533333333333 82.9866666666667 352.64 67.4133333333334C326.1866666666666 34.5600000000001 292.2666666666667 9.6 256 0C219.7333333333334 9.6 185.8133333333333 34.5600000000001 159.36 67.4133333333334C178.56 82.9866666666667 222.5066666666667 96 256 96z" /></svg>