<?xml version="1.0" encoding="UTF-8"?><!DOCTYPE svg PUBLIC "-//W3C//DTD SVG 1.1//EN" "http://www.w3.org/Graphics/SVG/1.1/DTD/svg11.dtd"><svg xmlns="http://www.w3.org/2000/svg" xmlns:xlink="http://www.w3.org/1999/xlink" version="1.1" width="512" height="512" viewBox="0 0 512 512">    <path fill="#ffffff" transform="scale(1, -1) translate(0, -448)" glyph-name="yin-yang" unicode="&#xF67F;" horiz-adv-x="512" d=" M256 405.3333333333333C373.76 405.3333333333333 469.3333333333333 309.76 469.3333333333333 192S373.76 -21.3333333333333 256 -21.3333333333333S42.6666666666667 74.24 42.6666666666667 192S138.24 405.3333333333333 256 405.3333333333333M256 362.6666666666667C161.7066666666667 362.6666666666667 85.3333333333333 286.2933333333334 85.3333333333333 192S161.7066666666667 21.3333333333334 256 21.3333333333334C208.8533333333333 21.3333333333334 170.6666666666667 59.52 170.6666666666667 106.6666666666667S208.8533333333333 192 256 192S341.3333333333333 230.1866666666667 341.3333333333333 277.3333333333334S303.1466666666667 362.6666666666667 256 362.6666666666667M256 309.3333333333334C273.7066666666667 309.3333333333334 288 295.04 288 277.3333333333334S273.7066666666667 245.3333333333334 256 245.3333333333334S224 259.6266666666667 224 277.3333333333334S238.2933333333333 309.3333333333334 256 309.3333333333334M256 138.6666666666667C238.2933333333333 138.6666666666667 224 124.3733333333333 224 106.6666666666667S238.2933333333333 74.6666666666667 256 74.6666666666667S288 88.96 288 106.6666666666667S273.7066666666667 138.6666666666667 256 138.6666666666667z" /></svg>