<?xml version="1.0" encoding="UTF-8"?><!DOCTYPE svg PUBLIC "-//W3C//DTD SVG 1.1//EN" "http://www.w3.org/Graphics/SVG/1.1/DTD/svg11.dtd"><svg xmlns="http://www.w3.org/2000/svg" xmlns:xlink="http://www.w3.org/1999/xlink" version="1.1" width="512" height="512" viewBox="0 0 512 512">    <path fill="#ffffff" transform="scale(1, -1) translate(0, -448)" glyph-name="android-auto" unicode="&#xFA8D;" horiz-adv-x="512" d=" M485.9733333333334 65.92C489.3866666666667 60.5866666666667 490.6666666666666 55.04 490.6666666666666 49.0666666666667C490.6666666666666 40.96 487.8933333333333 34.3466666666667 481.4933333333333 29.0133333333333S468.0533333333333 21.3333333333334 459.9466666666666 21.3333333333334H407.04L264.96 277.3333333333334H247.04L104.96 21.3333333333334H50.9866666666667C40.96 21.3333333333334 32.64 25.6 26.0266666666667 34.5600000000001C19.4133333333333 43.5200000000001 18.9866666666667 53.3333333333334 24.96 64L229.9733333333333 411.9466666666667C236.5866666666667 421.9733333333334 245.3333333333333 426.6666666666667 256 426.6666666666667C267.3066666666666 426.6666666666667 275.6266666666667 421.9733333333334 280.96 411.9466666666667L485.9733333333334 65.92M101.9733333333334 -27.9466666666667L256 247.8933333333333L410.0266666666667 -27.9466666666667L394.6666666666667 -42.6666666666667L256 14.0799999999999L116.0533333333334 -42.6666666666666L101.9733333333333 -27.9466666666666z" /></svg>