<?xml version="1.0" encoding="UTF-8"?><!DOCTYPE svg PUBLIC "-//W3C//DTD SVG 1.1//EN" "http://www.w3.org/Graphics/SVG/1.1/DTD/svg11.dtd"><svg xmlns="http://www.w3.org/2000/svg" xmlns:xlink="http://www.w3.org/1999/xlink" version="1.1" width="512" height="512" viewBox="0 0 512 512">    <path fill="#ffffff" transform="scale(1, -1) translate(0, -448)" glyph-name="drag-horizontal" unicode="&#xF1DC;" horiz-adv-x="512" d=" M64 128V170.6666666666667H106.6666666666667V128H64M64 213.3333333333334V256H106.6666666666667V213.3333333333334H64M149.3333333333333 128V170.6666666666667H192V128H149.3333333333333M149.3333333333333 213.3333333333334V256H192V213.3333333333334H149.3333333333333M234.6666666666667 128V170.6666666666667H277.3333333333333V128H234.6666666666667M234.6666666666667 213.3333333333334V256H277.3333333333333V213.3333333333334H234.6666666666667M320 128V170.6666666666667H362.6666666666667V128H320M320 213.3333333333334V256H362.6666666666667V213.3333333333334H320M405.3333333333333 128V170.6666666666667H448V128H405.3333333333333M405.3333333333333 213.3333333333334V256H448V213.3333333333334H405.3333333333333z" /></svg>