<?xml version="1.0" encoding="UTF-8"?><!DOCTYPE svg PUBLIC "-//W3C//DTD SVG 1.1//EN" "http://www.w3.org/Graphics/SVG/1.1/DTD/svg11.dtd"><svg xmlns="http://www.w3.org/2000/svg" xmlns:xlink="http://www.w3.org/1999/xlink" version="1.1" width="512" height="512" viewBox="0 0 512 512">    <path fill="#ffffff" transform="scale(1, -1) translate(0, -448)" glyph-name="dice-d20" unicode="&#xF5EA;" horiz-adv-x="512" d=" M448 96C448 87.8933333333334 443.52 80.8533333333334 436.6933333333333 77.2266666666667L268.16 -17.4933333333333C264.7466666666666 -20.0533333333333 260.48 -21.3333333333333 256 -21.3333333333333C251.5199999999999 -21.3333333333333 247.2533333333333 -20.0533333333333 243.84 -17.4933333333333L75.3066666666666 77.2266666666667C68.48 80.8533333333334 63.9999999999999 87.8933333333334 63.9999999999999 96V288C63.9999999999999 296.1066666666667 68.4799999999999 303.1466666666667 75.3066666666666 306.7733333333333L243.84 401.4933333333334C247.2533333333333 404.0533333333334 251.5199999999999 405.3333333333334 256 405.3333333333334C260.48 405.3333333333334 264.7466666666666 404.0533333333334 268.16 401.4933333333334L436.6933333333333 306.7733333333333C443.52 303.1466666666667 448 296.1066666666667 448 288V96M256 359.4666666666667L106.6666666666667 275.4133333333334V108.5866666666667L256 24.5333333333333L405.3333333333333 108.5866666666667V275.4133333333334L256 359.4666666666667M318.5066666666667 271.5733333333334C348.8 271.5733333333334 373.3333333333333 247.04 373.3333333333333 216.7466666666667V160C373.3333333333333 130.1333333333333 348.8 105.6 318.5066666666667 105.6C288 105.6 263.68 130.1333333333333 263.68 160V216.7466666666667C263.68 247.04 288.2133333333333 271.5733333333334 318.5066666666667 271.5733333333334M318.2933333333333 240.8533333333334C305.92 240.8533333333334 295.68 230.8266666666667 295.68 218.24V159.36C295.68 146.7733333333334 305.92 136.5333333333334 318.2933333333333 136.5333333333334C330.6666666666667 136.5333333333334 341.3333333333333 146.7733333333334 341.3333333333333 159.36V218.24C341.3333333333333 230.8266666666667 330.6666666666667 240.8533333333334 318.2933333333333 240.8533333333334M244.2666666666667 133.1200000000001V107.5200000000001L134.6133333333333 108.1600000000001V129.9200000000001S207.7866666666667 200.96 208 222.5066666666667C208 248.9600000000001 186.24 246.1866666666667 186.24 246.1866666666667S165.3333333333333 245.3333333333334 162.9866666666667 219.5200000000001L130.9866666666667 218.4533333333334S131.84 271.7866666666667 188.3733333333333 271.7866666666667C238.9333333333333 271.7866666666667 239.5733333333333 233.8133333333334 239.5733333333333 224C239.5733333333333 188.16 173.8666666666667 132.9066666666667 173.8666666666667 132.9066666666667L244.2666666666667 133.12z" /></svg>