<?xml version="1.0" encoding="UTF-8"?><!DOCTYPE svg PUBLIC "-//W3C//DTD SVG 1.1//EN" "http://www.w3.org/Graphics/SVG/1.1/DTD/svg11.dtd"><svg xmlns="http://www.w3.org/2000/svg" xmlns:xlink="http://www.w3.org/1999/xlink" version="1.1" width="512" height="512" viewBox="0 0 512 512">    <path fill="#ffffff" transform="scale(1, -1) translate(0, -448)" glyph-name="tennis-ball" unicode="&#xF507;" horiz-adv-x="512" d=" M256 405.3333333333333C309.3333333333333 405.3333333333333 357.3333333333333 386.1333333333334 394.6666666666667 354.1333333333334C349.0133333333333 315.0933333333334 320 256.8533333333334 320 192S349.0133333333333 68.9066666666667 394.6666666666667 29.8666666666667C357.3333333333333 -2.1333333333333 309.3333333333333 -21.3333333333333 256 -21.3333333333333S154.6666666666667 -2.1333333333333 117.3333333333333 29.8666666666667C162.9866666666667 68.9066666666667 192 127.1466666666667 192 192S162.9866666666667 315.0933333333334 117.3333333333333 354.1333333333334C154.6666666666667 386.1333333333334 202.6666666666667 405.3333333333333 256 405.3333333333333M469.3333333333333 192C469.3333333333333 142.5066666666667 452.48 97.0666666666667 424.1066666666667 60.8000000000001C386.56 92.16 362.6666666666667 139.3066666666667 362.6666666666667 192S386.56 291.8400000000001 424.1066666666667 323.2000000000001C452.48 286.9333333333334 469.3333333333333 241.4933333333334 469.3333333333333 192M42.6666666666667 192C42.6666666666667 241.4933333333334 59.52 286.9333333333334 87.8933333333333 323.2000000000001C125.44 291.8400000000001 149.3333333333333 244.6933333333334 149.3333333333333 192S125.44 92.16 87.8933333333333 60.8000000000001C59.52 97.0666666666667 42.6666666666667 142.5066666666667 42.6666666666667 192z" /></svg>