<?xml version="1.0" encoding="UTF-8"?><!DOCTYPE svg PUBLIC "-//W3C//DTD SVG 1.1//EN" "http://www.w3.org/Graphics/SVG/1.1/DTD/svg11.dtd"><svg xmlns="http://www.w3.org/2000/svg" xmlns:xlink="http://www.w3.org/1999/xlink" version="1.1" width="512" height="512" viewBox="0 0 512 512">    <path fill="#ffffff" transform="scale(1, -1) translate(0, -448)" glyph-name="deathly-hallows" unicode="&#xFB63;" horiz-adv-x="512" d=" M256 405.3333333333333L21.3333333333333 0H490.6666666666666L256 405.3333333333333M272 203.3066666666667C310.6133333333334 194.7733333333333 334.9333333333333 156.3733333333333 326.4 117.3333333333334C320 90.6666666666667 298.6666666666667 69.3333333333334 272 63.36V203.3066666666666M240 64C201.3866666666667 72.5333333333333 177.0666666666667 110.9333333333333 185.6 149.3333333333334C192 176.64 213.3333333333333 197.9733333333333 240 203.9466666666667V64M360.1066666666667 133.9733333333334C359.04 184.5333333333333 321.92 226.9866666666667 272 234.6666666666667V313.8133333333334L435.2 32H278.8266666666666C326.1866666666666 42.6666666666667 359.8933333333333 84.6933333333333 360.1066666666667 133.3333333333334V133.9733333333334M240 313.8133333333334V234.6666666666667C183.4666666666667 226.1333333333334 144.4266666666667 173.2266666666667 153.1733333333333 116.48C160 74.6666666666667 191.36 40.1066666666667 233.1733333333333 30.9333333333334H76.8L240 313.8133333333334z" /></svg>