<?xml version="1.0" encoding="UTF-8"?><!DOCTYPE svg PUBLIC "-//W3C//DTD SVG 1.1//EN" "http://www.w3.org/Graphics/SVG/1.1/DTD/svg11.dtd"><svg xmlns="http://www.w3.org/2000/svg" xmlns:xlink="http://www.w3.org/1999/xlink" version="1.1" width="512" height="512" viewBox="0 0 512 512">    <path fill="#ffffff" transform="scale(1, -1) translate(0, -448)" glyph-name="folder-alert" unicode="&#xFDA8;" horiz-adv-x="512" d=" M320 192H362.6666666666667V85.3333333333334H320V192M320 64H362.6666666666667V21.3333333333334H320V64M490.6666666666666 106.6666666666667C490.6666666666666 24.1066666666667 423.8933333333333 -42.6666666666666 341.3333333333333 -42.6666666666666C290.56 -42.6666666666666 245.3333333333333 -17.28 218.6666666666667 21.3333333333334H64C40.32 21.3333333333334 21.3333333333333 40.5333333333333 21.3333333333333 64V320C21.3333333333333 343.68 40.32 362.6666666666667 64 362.6666666666667H192L234.6666666666667 320H405.3333333333333C428.8 320 448 300.8 448 277.3333333333334V211.2C474.4533333333333 184.3200000000001 490.6666666666666 147.4133333333334 490.6666666666666 106.6666666666667M341.3333333333333 213.3333333333334C282.4533333333333 213.3333333333334 234.6666666666667 165.5466666666667 234.6666666666667 106.6666666666667S282.4533333333333 0 341.3333333333333 0S448 47.7866666666668 448 106.6666666666667S400.2133333333333 213.3333333333334 341.3333333333333 213.3333333333334z" /></svg>