<?xml version="1.0" encoding="UTF-8"?><!DOCTYPE svg PUBLIC "-//W3C//DTD SVG 1.1//EN" "http://www.w3.org/Graphics/SVG/1.1/DTD/svg11.dtd"><svg xmlns="http://www.w3.org/2000/svg" xmlns:xlink="http://www.w3.org/1999/xlink" version="1.1" width="512" height="512" viewBox="0 0 512 512">    <path fill="#ffffff" transform="scale(1, -1) translate(0, -448)" glyph-name="racquetball" unicode="&#xFD70;" horiz-adv-x="512" d=" M394.6666666666667 106.6666666666667C424.5333333333333 106.6666666666667 448 83.2 448 53.3333333333334S424.5333333333333 0 394.6666666666667 0S341.3333333333333 23.4666666666667 341.3333333333333 53.3333333333334S364.8 106.6666666666667 394.6666666666667 106.6666666666667M224 426.6666666666667C64 426.6666666666667 64 369.0666666666667 64 238.9333333333334C64 166.4 136.5333333333333 87.4666666666667 192 61.8666666666667V-42.6666666666666H256V61.8666666666667C311.4666666666667 87.4666666666666 384 166.4 384 238.9333333333334C384 371.2 384 426.6666666666667 224 426.6666666666667M328.5333333333333 358.4C334.9333333333334 349.8666666666667 337.0666666666667 337.0666666666667 339.2 320H320V366.9333333333334C324.2666666666667 364.8 326.4 360.5333333333334 328.5333333333333 358.4M341.3333333333333 238.9333333333334V234.6666666666667H320V298.6666666666667H341.3333333333333V238.9333333333334M298.6666666666667 149.3333333333334H234.6666666666667V213.3333333333334H298.6666666666667V149.3333333333334M149.3333333333333 149.3333333333334V213.3333333333334H213.3333333333333V149.3333333333334H149.3333333333333M106.6666666666667 238.9333333333334V298.6666666666667H128V234.6666666666667H106.6666666666667V238.9333333333334M149.3333333333333 298.6666666666667H213.3333333333333V234.6666666666667H149.3333333333333V298.6666666666667M234.6666666666667 384C264.5333333333333 384 285.8666666666667 379.7333333333334 298.6666666666667 377.6V320H234.6666666666667V384M213.3333333333333 320H149.3333333333333V375.4666666666667C162.1333333333333 379.7333333333334 183.4666666666667 384 213.3333333333333 384V320M234.6666666666667 234.6666666666667V298.6666666666667H298.6666666666667V234.6666666666667H234.6666666666667M128 366.9333333333334V320H108.8C110.9333333333333 337.0666666666667 113.0666666666667 349.8666666666667 119.4666666666667 358.4L128 366.9333333333334M110.9333333333333 213.3333333333334H128V177.0666666666667C121.6 189.8666666666667 115.2 200.5333333333334 110.9333333333333 213.3333333333334M170.6666666666667 128H213.3333333333333V100.2666666666667L209.0666666666667 102.4C196.2666666666667 106.6666666666667 183.4666666666667 117.3333333333334 170.6666666666667 128M238.9333333333333 100.2666666666667H234.6666666666667V128H277.3333333333333C264.5333333333333 117.3333333333334 251.7333333333334 106.6666666666667 238.9333333333333 100.2666666666667M320 177.0666666666667V213.3333333333334H337.0666666666667C332.8 202.6666666666667 326.4 189.8666666666667 320 177.0666666666667z" /></svg>