<?xml version="1.0" encoding="UTF-8"?><!DOCTYPE svg PUBLIC "-//W3C//DTD SVG 1.1//EN" "http://www.w3.org/Graphics/SVG/1.1/DTD/svg11.dtd"><svg xmlns="http://www.w3.org/2000/svg" xmlns:xlink="http://www.w3.org/1999/xlink" version="1.1" width="512" height="512" viewBox="0 0 512 512">    <path fill="#ffffff" transform="scale(1, -1) translate(0, -448)" glyph-name="playstation" unicode="&#xF414;" horiz-adv-x="512" d=" M202.6666666666667 356.9066666666667C232.1066666666667 351.36 275.2 338.3466666666667 298.6666666666667 330.6666666666667C357.3333333333333 310.4 377.3866666666667 285.2266666666667 377.3866666666667 228.48C377.3866666666667 173.0133333333334 343.2533333333334 152.1066666666667 299.7333333333334 173.0133333333334V276.2666666666667C299.7333333333334 288 297.6 299.3066666666667 286.08 302.5066666666667C277.3333333333333 305.28 272.2133333333333 297.1733333333334 272.2133333333333 285.2266666666667V27.0933333333334L202.6666666666667 49.28V356.9066666666667M285.2266666666667 72.1066666666667L397.2266666666667 112.0000000000001C410.0266666666667 116.4800000000001 411.9466666666667 122.8800000000001 401.7066666666667 126.2933333333334C391.2533333333334 129.7066666666668 372.6933333333334 128.6400000000001 359.8933333333333 124.1600000000001L285.2266666666667 97.9200000000001V139.7333333333335L289.7066666666667 141.2266666666668S311.2533333333334 149.3333333333335 341.3333333333333 152.1066666666668C371.84 155.5200000000001 408.9600000000001 151.6800000000001 437.9733333333334 140.8000000000001C470.8266666666667 130.3466666666668 474.6666666666666 114.9866666666668 466.3466666666666 104.5333333333335C457.8133333333333 93.8666666666668 437.3333333333333 86.4000000000001 437.3333333333333 86.4000000000001L285.2266666666667 32.0000000000001V72.1066666666667M74.6666666666667 76.3733333333334C41.1733333333333 85.3333333333334 35.4133333333333 105.6 50.7733333333333 117.3333333333334C65.0666666666667 128 89.1733333333333 135.4666666666667 89.1733333333333 135.4666666666667L189.0133333333333 170.6666666666667V130.5600000000001L117.3333333333333 104.7466666666667C104.5333333333333 100.2666666666667 102.6133333333334 93.8666666666667 112.8533333333333 90.4533333333333C123.0933333333333 87.04 141.8666666666667 87.8933333333333 154.4533333333333 92.5866666666667L189.0133333333333 104.96V68.9066666666666L182.1866666666667 67.6266666666667C147.6266666666666 62.0799999999999 110.9333333333333 63.9999999999999 74.6666666666666 76.3733333333333z" /></svg>