<?xml version="1.0" encoding="UTF-8"?><!DOCTYPE svg PUBLIC "-//W3C//DTD SVG 1.1//EN" "http://www.w3.org/Graphics/SVG/1.1/DTD/svg11.dtd"><svg xmlns="http://www.w3.org/2000/svg" xmlns:xlink="http://www.w3.org/1999/xlink" version="1.1" width="512" height="512" viewBox="0 0 512 512">    <path fill="#ffffff" transform="scale(1, -1) translate(0, -448)" glyph-name="hdr" unicode="&#xFD59;" horiz-adv-x="512" d=" M448 202.6666666666667V224C448 241.0666666666667 433.0666666666667 256 416 256H341.3333333333333V128H373.3333333333333V170.6666666666667H396.8L416 128H448L428.8 172.8C439.4666666666667 179.2000000000001 448 189.8666666666667 448 202.6666666666667M416 202.6666666666667H373.3333333333333V224H416V202.6666666666667M138.6666666666667 213.3333333333334H96V256H64V128H96V181.3333333333334H138.6666666666667V128H170.6666666666667V256H138.6666666666667V213.3333333333334M277.3333333333333 256H202.6666666666667V128H277.3333333333333C294.4 128 309.3333333333333 142.9333333333333 309.3333333333333 160V224C309.3333333333333 241.0666666666667 294.4 256 277.3333333333333 256M277.3333333333333 160H234.6666666666667V224H277.3333333333333V160z" /></svg>