<?xml version="1.0" encoding="UTF-8"?><!DOCTYPE svg PUBLIC "-//W3C//DTD SVG 1.1//EN" "http://www.w3.org/Graphics/SVG/1.1/DTD/svg11.dtd"><svg xmlns="http://www.w3.org/2000/svg" xmlns:xlink="http://www.w3.org/1999/xlink" version="1.1" width="512" height="512" viewBox="0 0 512 512">    <path fill="#ffffff" transform="scale(1, -1) translate(0, -448)" glyph-name="seal" unicode="&#xF47A;" horiz-adv-x="512" d=" M434.9866666666667 34.7733333333333L349.44 64L320 -21.3333333333333L254.2933333333333 106.6666666666667L192 -21.3333333333333L162.56 64L77.0133333333333 34.7733333333333L139.3066666666667 162.7733333333333C118.8266666666667 188.3733333333333 106.6666666666667 220.8 106.6666666666667 256C106.6666666666667 338.56 173.44 405.3333333333333 256 405.3333333333333S405.3333333333333 338.56 405.3333333333333 256C405.3333333333333 220.8 393.1733333333333 188.3733333333333 372.6933333333333 162.7733333333333L434.9866666666667 34.7733333333333M149.3333333333333 256L206.72 227.4133333333334L202.6666666666667 163.4133333333334L256 198.8266666666667L309.3333333333333 163.6266666666667L305.7066666666667 227.4133333333334L362.6666666666667 256L305.4933333333334 284.8L309.3333333333333 348.3733333333334L256 313.3866666666667L202.6666666666667 348.8L206.2933333333333 284.5866666666667L149.3333333333333 256z" /></svg>