<?xml version="1.0" encoding="UTF-8"?><!DOCTYPE svg PUBLIC "-//W3C//DTD SVG 1.1//EN" "http://www.w3.org/Graphics/SVG/1.1/DTD/svg11.dtd"><svg xmlns="http://www.w3.org/2000/svg" xmlns:xlink="http://www.w3.org/1999/xlink" version="1.1" width="512" height="512" viewBox="0 0 512 512">    <path fill="#ffffff" transform="scale(1, -1) translate(0, -448)" glyph-name="android" unicode="&#xF032;" horiz-adv-x="512" d=" M320 341.3333333333334H298.6666666666667V362.6666666666667H320M213.3333333333333 341.3333333333334H192V362.6666666666667H213.3333333333333M331.3066666666667 401.92L359.2533333333334 429.8666666666667C363.3066666666667 433.92 363.3066666666667 440.7466666666667 359.2533333333334 445.0133333333333C354.9866666666667 449.0666666666667 348.16 449.0666666666667 344.1066666666667 445.0133333333333L312.5333333333333 413.44C295.4666666666667 421.76 276.2666666666667 426.6666666666667 256 426.6666666666667C235.52 426.6666666666667 216.32 421.76 199.2533333333333 413.2266666666667L167.4666666666667 445.0133333333333C163.4133333333333 449.0666666666667 156.5866666666667 449.0666666666667 152.5333333333333 445.0133333333333C148.2666666666667 440.7466666666667 148.2666666666667 433.92 152.5333333333333 429.8666666666667L180.48 401.92C148.6933333333333 378.4533333333334 128 341.3333333333334 128 298.6666666666667H384C384 341.3333333333334 362.6666666666667 378.6666666666667 331.3066666666666 401.92M437.3333333333333 277.3333333333334C419.6266666666667 277.3333333333334 405.3333333333333 263.04 405.3333333333333 245.3333333333334V96C405.3333333333333 78.2933333333334 419.6266666666667 64 437.3333333333333 64S469.3333333333333 78.2933333333334 469.3333333333333 96V245.3333333333334C469.3333333333333 263.04 455.04 277.3333333333334 437.3333333333333 277.3333333333334M74.6666666666667 277.3333333333334C56.96 277.3333333333334 42.6666666666667 263.04 42.6666666666667 245.3333333333334V96C42.6666666666667 78.2933333333334 56.96 64 74.6666666666667 64S106.6666666666667 78.2933333333334 106.6666666666667 96V245.3333333333334C106.6666666666667 263.04 92.3733333333333 277.3333333333334 74.6666666666667 277.3333333333334M128 64C128 52.2666666666667 137.6 42.6666666666667 149.3333333333333 42.6666666666667H170.6666666666667V-32C170.6666666666667 -49.7066666666666 184.96 -64 202.6666666666667 -64S234.6666666666667 -49.7066666666666 234.6666666666667 -32V42.6666666666667H277.3333333333333V-32C277.3333333333333 -49.7066666666666 291.6266666666667 -64 309.3333333333333 -64S341.3333333333333 -49.7066666666666 341.3333333333333 -32V42.6666666666667H362.6666666666667C374.4 42.6666666666667 384 52.2666666666667 384 64V277.3333333333334H128V64z" /></svg>