<?xml version="1.0" encoding="UTF-8"?><!DOCTYPE svg PUBLIC "-//W3C//DTD SVG 1.1//EN" "http://www.w3.org/Graphics/SVG/1.1/DTD/svg11.dtd"><svg xmlns="http://www.w3.org/2000/svg" xmlns:xlink="http://www.w3.org/1999/xlink" version="1.1" width="512" height="512" viewBox="0 0 512 512">    <path fill="#ffffff" transform="scale(1, -1) translate(0, -448)" glyph-name="format-line-style" unicode="&#xF5C8;" horiz-adv-x="512" d=" M64 106.6666666666667H170.6666666666667V149.3333333333334H64V106.6666666666667M202.6666666666667 106.6666666666667H309.3333333333333V149.3333333333334H202.6666666666667V106.6666666666667M341.3333333333333 106.6666666666667H448V149.3333333333334H341.3333333333333V106.6666666666667M64 21.3333333333334H106.6666666666667V64H64V21.3333333333334M149.3333333333333 21.3333333333334H192V64H149.3333333333333V21.3333333333334M234.6666666666667 21.3333333333334H277.3333333333333V64H234.6666666666667V21.3333333333334M320 21.3333333333334H362.6666666666667V64H320V21.3333333333334M405.3333333333333 21.3333333333334H448V64H405.3333333333333V21.3333333333334M64 192H234.6666666666667V234.6666666666667H64V192M277.3333333333333 192H448V234.6666666666667H277.3333333333333V192M64 362.6666666666667V277.3333333333334H448V362.6666666666667H64z" /></svg>