<?xml version="1.0" encoding="UTF-8"?><!DOCTYPE svg PUBLIC "-//W3C//DTD SVG 1.1//EN" "http://www.w3.org/Graphics/SVG/1.1/DTD/svg11.dtd"><svg xmlns="http://www.w3.org/2000/svg" xmlns:xlink="http://www.w3.org/1999/xlink" version="1.1" width="512" height="512" viewBox="0 0 512 512">    <path fill="#ffffff" transform="scale(1, -1) translate(0, -448)" glyph-name="tablet-ipad" unicode="&#xF4F8;" horiz-adv-x="512" d=" M405.3333333333333 42.6666666666667H85.3333333333333V384H405.3333333333333M245.3333333333333 -42.6666666666666C227.6266666666667 -42.6666666666666 213.3333333333333 -28.3733333333333 213.3333333333333 -10.6666666666666S227.6266666666667 21.3333333333334 245.3333333333333 21.3333333333334S277.3333333333333 7.04 277.3333333333333 -10.6666666666666S263.04 -42.6666666666666 245.3333333333333 -42.6666666666666M394.6666666666667 448H96C66.56 448 42.6666666666667 424.1066666666667 42.6666666666667 394.6666666666667V-10.6666666666666C42.6666666666667 -40.1066666666666 66.56 -64 96 -64H394.6666666666667C424.1066666666667 -64 448 -40.1066666666666 448 -10.6666666666666V394.6666666666667C448 424.1066666666667 424.1066666666667 448 394.6666666666667 448z" /></svg>