<?xml version="1.0" encoding="UTF-8"?><!DOCTYPE svg PUBLIC "-//W3C//DTD SVG 1.1//EN" "http://www.w3.org/Graphics/SVG/1.1/DTD/svg11.dtd"><svg xmlns="http://www.w3.org/2000/svg" xmlns:xlink="http://www.w3.org/1999/xlink" version="1.1" width="512" height="512" viewBox="0 0 512 512">    <path fill="#ffffff" transform="scale(1, -1) translate(0, -448)" glyph-name="car-key" unicode="&#xFB49;" horiz-adv-x="512" d=" M202.6666666666667 448C167.2533333333333 448 138.6666666666667 419.4133333333334 138.6666666666667 384S167.2533333333333 320 202.6666666666667 320C230.6133333333334 320 254.2933333333333 337.7066666666667 263.04 362.6666666666667H309.3333333333333V320H352V362.6666666666667H373.3333333333333V405.3333333333333H263.04C254.2933333333333 430.2933333333334 230.6133333333334 448 202.6666666666667 448M202.6666666666667 405.3333333333333C214.4 405.3333333333333 224 395.7333333333334 224 384S214.4 362.6666666666667 202.6666666666667 362.6666666666667S181.3333333333333 372.2666666666667 181.3333333333333 384S190.9333333333333 405.3333333333333 202.6666666666667 405.3333333333333M138.6666666666667 277.3333333333334C124.5866666666667 277.3333333333334 112.64 268.3733333333334 108.3733333333333 256L64 128V-42.6666666666666C64 -54.4 73.6 -64 85.3333333333333 -64H106.6666666666667C118.4 -64 128 -54.4 128 -42.6666666666666V-21.3333333333333H384V-42.6666666666666C384 -54.4 393.6 -64 405.3333333333333 -64H426.6666666666667C438.4 -64 448 -54.4 448 -42.6666666666666V128L403.6266666666667 256C399.36 268.3733333333334 387.4133333333333 277.3333333333334 373.3333333333333 277.3333333333334H138.6666666666667M138.6666666666667 245.3333333333334H373.3333333333333L405.3333333333333 149.3333333333334H106.6666666666667L138.6666666666667 245.3333333333334M138.6666666666667 106.6666666666667C156.3733333333333 106.6666666666667 170.6666666666667 92.3733333333333 170.6666666666667 74.6666666666667S156.3733333333333 42.6666666666667 138.6666666666667 42.6666666666667S106.6666666666667 56.96 106.6666666666667 74.6666666666667S120.96 106.6666666666667 138.6666666666667 106.6666666666667M373.3333333333333 106.6666666666667C391.04 106.6666666666667 405.3333333333333 92.3733333333333 405.3333333333333 74.6666666666667S391.04 42.6666666666667 373.3333333333333 42.6666666666667S341.3333333333333 56.96 341.3333333333333 74.6666666666667S355.6266666666667 106.6666666666667 373.3333333333333 106.6666666666667z" /></svg>