<?xml version="1.0" encoding="UTF-8"?><!DOCTYPE svg PUBLIC "-//W3C//DTD SVG 1.1//EN" "http://www.w3.org/Graphics/SVG/1.1/DTD/svg11.dtd"><svg xmlns="http://www.w3.org/2000/svg" xmlns:xlink="http://www.w3.org/1999/xlink" version="1.1" width="512" height="512" viewBox="0 0 512 512">    <path fill="#ffffff" transform="scale(1, -1) translate(0, -448)" glyph-name="office-building" unicode="&#xF990;" horiz-adv-x="512" d=" M106.6666666666667 384V0H234.6666666666667V74.6666666666667H277.3333333333333V0H405.3333333333333V384H106.6666666666667M149.3333333333333 341.3333333333334H192V298.6666666666667H149.3333333333333V341.3333333333334M234.6666666666667 341.3333333333334H277.3333333333333V298.6666666666667H234.6666666666667V341.3333333333334M320 341.3333333333334H362.6666666666667V298.6666666666667H320V341.3333333333334M149.3333333333333 256H192V213.3333333333334H149.3333333333333V256M234.6666666666667 256H277.3333333333333V213.3333333333334H234.6666666666667V256M320 256H362.6666666666667V213.3333333333334H320V256M149.3333333333333 170.6666666666667H192V128H149.3333333333333V170.6666666666667M234.6666666666667 170.6666666666667H277.3333333333333V128H234.6666666666667V170.6666666666667M320 170.6666666666667H362.6666666666667V128H320V170.6666666666667M149.3333333333333 85.3333333333334H192V42.6666666666667H149.3333333333333V85.3333333333334M320 85.3333333333334H362.6666666666667V42.6666666666667H320V85.3333333333334z" /></svg>