<?xml version="1.0" encoding="UTF-8"?><!DOCTYPE svg PUBLIC "-//W3C//DTD SVG 1.1//EN" "http://www.w3.org/Graphics/SVG/1.1/DTD/svg11.dtd"><svg xmlns="http://www.w3.org/2000/svg" xmlns:xlink="http://www.w3.org/1999/xlink" version="1.1" width="512" height="512" viewBox="0 0 512 512">    <path fill="#ffffff" transform="scale(1, -1) translate(0, -448)" glyph-name="lyft" unicode="&#xFB1D;" horiz-adv-x="512" d=" M203.9466666666667 181.3333333333334C203.9466666666667 179.2000000000001 202.6666666666667 176.64 200.5333333333333 175.1466666666667C196.2666666666667 171.3066666666667 189.6533333333333 171.9466666666667 185.8133333333333 176.2133333333334C184.1066666666667 178.1333333333334 183.2533333333334 180.6933333333334 183.2533333333334 183.2533333333334V266.6666666666667H120.7466666666667V162.3466666666667C120.7466666666667 133.5466666666667 144 110.2933333333334 172.8 110.2933333333334C185.1733333333333 110.2933333333334 197.12 114.7733333333334 206.5066666666667 122.88C205.6533333333333 115.2000000000001 201.1733333333333 108.16 194.3466666666666 104.3200000000001C186.6666666666667 100.0533333333334 178.1333333333333 97.7066666666667 169.3866666666667 97.92C159.1466666666667 97.92 149.3333333333333 100.2666666666667 139.9466666666667 104.7466666666667L136.32 106.6666666666667V51.2C150.1866666666667 45.6533333333333 165.12 42.6666666666667 180.0533333333333 42.6666666666667C202.0266666666667 42.6666666666667 223.1466666666667 49.92 240 64C257.7066666666667 80 267.52 102.8266666666667 266.6666666666667 126.72V266.6666666666667H203.9466666666667V181.3333333333334M105.1733333333334 162.3466666666667V328.7466666666667H42.6666666666667V172.8C39.2533333333333 141.8666666666667 61.44 114.1333333333333 92.3733333333333 110.72C94.08 110.5066666666667 96 110.2933333333334 97.28 110.2933333333334C105.1733333333334 110.2933333333334 112.8533333333334 112.2133333333334 120.1066666666667 115.4133333333334L122.6666666666667 117.3333333333334L120.5333333333334 119.2533333333333C110.2933333333334 131.2000000000001 104.7466666666667 146.56 105.1733333333334 162.3466666666667M469.3333333333333 205.0133333333333V266.6666666666667H448C439.2533333333334 311.8933333333333 395.3066666666667 341.3333333333334 350.08 332.5866666666667C344.9600000000001 331.7333333333334 340.0533333333333 330.6666666666667 335.1466666666667 328.32C304.64 314.88 284.3733333333334 285.44 282.88 252.1600000000001V110.2933333333334H285.6533333333334C318.9333333333334 111.7866666666667 345.3866666666667 139.3066666666667 345.3866666666667 172.8H371.4133333333333V234.6666666666667H344.5333333333333V252.3733333333334C344.5333333333333 258.9866666666667 348.16 265.1733333333334 353.92 268.5866666666667C363.9466666666666 274.56 377.1733333333333 271.36 383.1466666666667 261.12C385.0666666666667 257.92 385.92 254.5066666666667 386.1333333333334 250.88V193.4933333333334C385.4933333333334 148.2666666666667 421.3333333333333 111.1466666666667 466.56 110.2933333333334H469.3333333333333V172.8C457.6 172.8 448 182.4 448 194.1333333333333V204.5866666666667L469.3333333333333 205.0133333333333z" /></svg>