<?xml version="1.0" encoding="UTF-8"?><!DOCTYPE svg PUBLIC "-//W3C//DTD SVG 1.1//EN" "http://www.w3.org/Graphics/SVG/1.1/DTD/svg11.dtd"><svg xmlns="http://www.w3.org/2000/svg" xmlns:xlink="http://www.w3.org/1999/xlink" version="1.1" width="512" height="512" viewBox="0 0 512 512">    <path fill="#ffffff" transform="scale(1, -1) translate(0, -448)" glyph-name="wiper-wash" unicode="&#xFD82;" horiz-adv-x="512" d=" M277.3333333333333 320C277.3333333333333 326.4 279.4666666666667 349.8666666666667 294.4 366.9333333333334L256 396.8L217.6 364.8C232.5333333333333 349.8666666666667 234.6666666666667 326.4 234.6666666666667 320C100.2666666666667 311.4666666666667 42.6666666666667 213.3333333333334 42.6666666666667 213.3333333333334L192 64S206.9333333333333 91.7333333333334 234.6666666666667 102.4V57.6C221.8666666666667 51.2 213.3333333333333 36.2666666666667 213.3333333333333 21.3333333333334C213.3333333333333 -2.1333333333333 232.5333333333334 -21.3333333333333 256 -21.3333333333333S298.6666666666667 -2.1333333333333 298.6666666666667 21.3333333333334C298.6666666666667 36.2666666666667 290.1333333333334 51.2 277.3333333333333 57.6V102.4C305.0666666666667 91.7333333333334 320 64 320 64L469.3333333333333 213.3333333333334S411.7333333333334 309.3333333333334 277.3333333333333 320M234.6666666666667 147.2000000000001C217.6 142.9333333333334 202.6666666666667 136.5333333333334 189.8666666666667 125.8666666666667L100.2666666666667 215.4666666666667C123.7333333333333 238.9333333333334 166.4 270.9333333333334 234.6666666666667 275.2000000000001V147.2000000000001M322.1333333333334 125.8666666666667C309.3333333333333 134.4 294.4 142.9333333333334 277.3333333333333 147.2000000000001V275.2000000000001C345.6 268.8 388.2666666666667 238.9333333333334 411.7333333333334 215.4666666666667L322.1333333333334 125.8666666666667M384 420.2666666666667L369.0666666666667 379.7333333333334C354.1333333333334 386.1333333333334 330.6666666666667 386.1333333333334 313.6 379.7333333333334L298.6666666666667 420.2666666666667C324.2666666666667 428.8 358.4 428.8 384 420.2666666666667M448 320H405.3333333333333S405.3333333333333 347.7333333333334 388.2666666666667 364.8L420.2666666666667 392.5333333333334C448 362.6666666666667 448 322.1333333333334 448 320M89.6 392.5333333333333L121.6 364.8C106.6666666666667 347.7333333333334 106.6666666666667 320 106.6666666666667 320H64C64 322.1333333333334 64 362.6666666666667 89.6 392.5333333333333M213.3333333333333 420.2666666666667L198.4 379.7333333333334C183.4666666666667 386.1333333333334 160 386.1333333333334 142.9333333333333 379.7333333333334L128 420.2666666666667C153.6 428.8 187.7333333333334 428.8 213.3333333333333 420.2666666666667z" /></svg>