<?xml version="1.0" encoding="UTF-8"?><!DOCTYPE svg PUBLIC "-//W3C//DTD SVG 1.1//EN" "http://www.w3.org/Graphics/SVG/1.1/DTD/svg11.dtd"><svg xmlns="http://www.w3.org/2000/svg" xmlns:xlink="http://www.w3.org/1999/xlink" version="1.1" width="512" height="512" viewBox="0 0 512 512">    <path fill="#ffffff" transform="scale(1, -1) translate(0, -448)" glyph-name="fridge-bottom" unicode="&#xF292;" horiz-adv-x="512" d=" M149.3333333333333 405.3333333333333C125.8666666666667 405.3333333333333 106.6666666666667 386.1333333333334 106.6666666666667 362.6666666666667V42.6666666666667C106.6666666666667 19.2 125.8666666666667 0 149.3333333333333 0V-21.3333333333333H192V0H320V-21.3333333333333H362.6666666666667V0C386.1333333333334 0 405.3333333333333 19.2 405.3333333333333 42.6666666666667V362.6666666666667C405.3333333333333 386.1333333333334 386.1333333333334 405.3333333333333 362.6666666666667 405.3333333333333H149.3333333333333M170.6666666666667 320H213.3333333333333V277.3333333333334H170.6666666666667V320M149.3333333333333 213.3333333333334H362.6666666666667V42.6666666666667H149.3333333333333V213.3333333333334M170.6666666666667 192V128H213.3333333333333V192H170.6666666666667z" /></svg>