<?xml version="1.0" encoding="UTF-8"?><!DOCTYPE svg PUBLIC "-//W3C//DTD SVG 1.1//EN" "http://www.w3.org/Graphics/SVG/1.1/DTD/svg11.dtd"><svg xmlns="http://www.w3.org/2000/svg" xmlns:xlink="http://www.w3.org/1999/xlink" version="1.1" width="512" height="512" viewBox="0 0 512 512">    <path fill="#ffffff" transform="scale(1, -1) translate(0, -448)" glyph-name="shoe-print" unicode="&#xFE5A;" horiz-adv-x="512" d=" M229.12 197.9733333333333C239.1466666666667 171.7333333333334 238.08 144.4266666666667 208 133.5466666666667C146.1333333333333 110.72 132.2666666666667 170.6666666666667 131.4133333333333 173.6533333333334L229.12 197.9733333333334M121.8133333333333 215.2533333333334L213.9733333333334 238.0800000000001C209.92 260.4800000000001 216.1066666666667 282.8800000000001 216.1066666666667 309.3333333333334C216.1066666666667 345.1733333333334 187.7333333333334 415.36 142.5066666666667 404.0533333333334C90.88 391.2533333333334 83.4133333333333 333.8666666666668 85.3333333333333 306.1333333333334C87.8933333333333 278.4000000000001 120.32 219.0933333333334 121.8133333333333 215.2533333333334M380.8 24.5333333333335C380.16 21.3333333333335 366.08 -38.3999999999999 304.2133333333334 -15.7866666666665C274.3466666666667 -4.6933333333332 273.0666666666667 22.6133333333335 283.0933333333334 48.8533333333335L380.8 24.5333333333335M426.6666666666667 156.8000000000001C428.8 184.5333333333335 421.5466666666667 242.1333333333335 369.7066666666666 254.9333333333335C324.6933333333333 266.6666666666668 296.32 196.0533333333335 296.32 160.0000000000001C296.32 133.7600000000001 302.2933333333333 111.3600000000001 298.6666666666667 88.96L390.3999999999999 66.1333333333334C392.1066666666666 69.9733333333334 424.32 129.2800000000001 426.6666666666666 156.8000000000001z" /></svg>