<?xml version="1.0" encoding="UTF-8"?><!DOCTYPE svg PUBLIC "-//W3C//DTD SVG 1.1//EN" "http://www.w3.org/Graphics/SVG/1.1/DTD/svg11.dtd"><svg xmlns="http://www.w3.org/2000/svg" xmlns:xlink="http://www.w3.org/1999/xlink" version="1.1" width="512" height="512" viewBox="0 0 512 512">    <path fill="#ffffff" transform="scale(1, -1) translate(0, -448)" glyph-name="numeric-0-circle" unicode="&#xFC7A;" horiz-adv-x="512" d=" M234.6666666666667 298.6666666666667C211.2 298.6666666666667 192 279.4666666666667 192 256V128C192 104.5333333333333 211.2 85.3333333333334 234.6666666666667 85.3333333333334H277.3333333333333C300.8 85.3333333333334 320 104.5333333333333 320 128V256C320 279.4666666666667 300.8 298.6666666666667 277.3333333333333 298.6666666666667H234.6666666666667M234.6666666666667 256H277.3333333333333V128H234.6666666666667V256M256 405.3333333333333C373.76 405.3333333333333 469.3333333333333 309.76 469.3333333333333 192S373.76 -21.3333333333333 256 -21.3333333333333S42.6666666666667 74.24 42.6666666666667 192S138.24 405.3333333333333 256 405.3333333333333z" /></svg>