<?xml version="1.0" encoding="UTF-8"?><!DOCTYPE svg PUBLIC "-//W3C//DTD SVG 1.1//EN" "http://www.w3.org/Graphics/SVG/1.1/DTD/svg11.dtd"><svg xmlns="http://www.w3.org/2000/svg" xmlns:xlink="http://www.w3.org/1999/xlink" version="1.1" width="512" height="512" viewBox="0 0 512 512">    <path fill="#ffffff" transform="scale(1, -1) translate(0, -448)" glyph-name="arrow-decision-outline" unicode="&#xF9BD;" horiz-adv-x="512" d=" M205.6533333333333 162.1333333333333C184.1066666666667 181.3333333333334 156.5866666666667 191.36 128 192V128L42.6666666666667 213.3333333333334L128 298.6666666666667V234.6666666666667C163.6266666666667 234.6666666666667 198.4 222.5066666666667 226.7733333333333 200.7466666666667C218.0266666666667 188.8 210.9866666666666 175.7866666666667 205.6533333333333 162.1333333333333M384 128V192C373.3333333333333 192 288 188.5866666666667 278.4 102.4C311.68 90.6666666666667 329.1733333333333 53.9733333333334 317.44 20.6933333333333C305.7066666666667 -12.5866666666666 269.0133333333333 -30.08 235.7333333333334 -18.3466666666666C202.6666666666667 -6.4 184.96 30.08 196.6933333333333 63.36C202.6666666666667 81.7066666666667 217.6 96 235.7333333333334 102.4C241.92 178.9866666666666 307.2 237.2266666666667 384 234.6666666666666V298.6666666666667L469.3333333333333 213.3333333333334L384 128M277.3333333333333 42.6666666666667C277.3333333333333 54.4 267.7333333333334 64 256 64S234.6666666666667 54.4 234.6666666666667 42.6666666666667S244.2666666666667 21.3333333333334 256 21.3333333333334S277.3333333333333 30.9333333333333 277.3333333333333 42.6666666666667M234.6666666666667 210.7733333333333C247.04 224.8533333333333 261.3333333333333 237.0133333333333 277.3333333333333 246.8266666666667V341.3333333333334H341.3333333333333L256 426.6666666666667L170.6666666666667 341.3333333333334H234.6666666666667V210.7733333333333z" /></svg>