<?xml version="1.0" encoding="UTF-8"?><!DOCTYPE svg PUBLIC "-//W3C//DTD SVG 1.1//EN" "http://www.w3.org/Graphics/SVG/1.1/DTD/svg11.dtd"><svg xmlns="http://www.w3.org/2000/svg" xmlns:xlink="http://www.w3.org/1999/xlink" version="1.1" width="512" height="512" viewBox="0 0 512 512">    <path fill="#ffffff" transform="scale(1, -1) translate(0, -448)" glyph-name="certificate" unicode="&#xF124;" horiz-adv-x="512" d=" M85.3333333333333 384C61.6533333333333 384 42.6666666666667 365.0133333333333 42.6666666666667 341.3333333333334V128C42.6666666666667 104.5333333333333 61.8666666666667 85.3333333333334 85.3333333333333 85.3333333333334H256V-21.3333333333333L320 42.6666666666667L384 -21.3333333333333V85.3333333333334H426.6666666666667C450.1333333333334 85.3333333333334 469.3333333333333 104.5333333333333 469.3333333333333 128V341.3333333333334C469.3333333333333 364.8 450.1333333333334 384 426.6666666666667 384H85.3333333333333M256 341.3333333333334L320 298.6666666666667L384 341.3333333333334V266.6666666666667L448 234.6666666666667L384 202.6666666666667V128L320 170.6666666666667L256 128V202.6666666666667L192 234.6666666666667L256 266.6666666666667V341.3333333333334M85.3333333333333 341.3333333333334H192V298.6666666666667H85.3333333333333V341.3333333333334M85.3333333333333 256H149.3333333333333V213.3333333333334H85.3333333333333V256M85.3333333333333 170.6666666666667H192V128H85.3333333333333V170.6666666666667z" /></svg>