<?xml version="1.0" encoding="UTF-8"?><!DOCTYPE svg PUBLIC "-//W3C//DTD SVG 1.1//EN" "http://www.w3.org/Graphics/SVG/1.1/DTD/svg11.dtd"><svg xmlns="http://www.w3.org/2000/svg" xmlns:xlink="http://www.w3.org/1999/xlink" version="1.1" width="512" height="512" viewBox="0 0 512 512">    <path fill="#ffffff" transform="scale(1, -1) translate(0, -448)" glyph-name="shield-account" unicode="&#xF88E;" horiz-adv-x="512" d=" M256 426.6666666666667L64 341.3333333333334V213.3333333333334C64 94.9333333333333 145.92 -15.7866666666667 256 -42.6666666666666C366.08 -15.7866666666666 448 94.9333333333333 448 213.3333333333334V341.3333333333334L256 426.6666666666667M256 341.3333333333334C291.4133333333333 341.3333333333334 320 312.7466666666667 320 277.3333333333334S291.4133333333333 213.3333333333334 256 213.3333333333334S192 241.92 192 277.3333333333334S220.5866666666667 341.3333333333334 256 341.3333333333334M365.44 85.3333333333334C339.6266666666666 45.8666666666667 301.0133333333333 16.2133333333333 256 1.7066666666666C210.9866666666667 16.2133333333333 172.3733333333333 45.8666666666667 146.56 85.3333333333334C139.3066666666667 96 133.12 106.6666666666667 128 117.9733333333334C128 153.1733333333334 185.8133333333333 181.9733333333334 256 181.9733333333334S384 153.8133333333333 384 117.9733333333334C378.88 106.6666666666667 372.6933333333333 96 365.44 85.3333333333334z" /></svg>