<?xml version="1.0" encoding="UTF-8"?><!DOCTYPE svg PUBLIC "-//W3C//DTD SVG 1.1//EN" "http://www.w3.org/Graphics/SVG/1.1/DTD/svg11.dtd"><svg xmlns="http://www.w3.org/2000/svg" xmlns:xlink="http://www.w3.org/1999/xlink" version="1.1" width="512" height="512" viewBox="0 0 512 512">    <path fill="#ffffff" transform="scale(1, -1) translate(0, -448)" glyph-name="link-variant" unicode="&#xF339;" horiz-adv-x="512" d=" M225.92 161.92C234.6666666666667 153.6 234.6666666666667 139.9466666666667 225.92 131.6266666666667C217.6 123.3066666666667 203.9466666666667 123.3066666666667 195.6266666666667 131.6266666666667C154.0266666666667 173.2266666666667 154.0266666666667 240.8533333333333 195.6266666666667 282.4533333333334L271.1466666666667 357.9733333333334C312.7466666666667 399.5733333333333 380.3733333333334 399.5733333333333 421.9733333333334 357.9733333333334C463.5733333333333 316.3733333333334 463.5733333333333 248.7466666666667 421.9733333333334 207.1466666666667L390.1866666666667 175.36C390.4000000000001 192.8533333333334 387.6266666666667 210.3466666666667 381.6533333333334 226.9866666666667L391.6800000000001 237.2266666666667C416.8533333333334 262.1866666666667 416.8533333333334 302.7200000000001 391.6800000000001 327.6800000000001C366.7200000000001 352.8533333333334 326.1866666666667 352.8533333333334 301.2266666666667 327.6800000000001L225.9200000000001 252.3733333333334C200.7466666666667 227.4133333333334 200.7466666666667 186.8800000000001 225.9200000000001 161.9200000000001M286.0800000000001 252.3733333333334C294.4000000000001 260.6933333333334 308.0533333333334 260.6933333333334 316.3733333333334 252.3733333333334C357.9733333333334 210.7733333333334 357.9733333333334 143.1466666666667 316.3733333333334 101.5466666666667L240.8533333333334 26.0266666666668C199.2533333333334 -15.5733333333333 131.6266666666667 -15.5733333333333 90.0266666666667 26.0266666666668C48.4266666666667 67.6266666666667 48.4266666666667 135.2533333333335 90.0266666666667 176.8533333333334L121.8133333333334 208.6400000000001C121.6000000000001 191.1466666666668 124.3733333333334 173.6533333333334 130.3466666666667 156.8000000000001L120.3200000000001 146.7733333333334C95.1466666666667 121.8133333333334 95.1466666666667 81.2800000000001 120.3200000000001 56.3200000000001C145.2800000000001 31.1466666666667 185.8133333333334 31.1466666666667 210.7733333333334 56.3200000000001L286.0800000000001 131.6266666666667C311.2533333333334 156.5866666666667 311.2533333333334 197.12 286.0800000000001 222.08C277.3333333333334 230.4000000000001 277.3333333333334 244.0533333333334 286.0800000000001 252.3733333333334z" /></svg>