<?xml version="1.0" encoding="UTF-8"?><!DOCTYPE svg PUBLIC "-//W3C//DTD SVG 1.1//EN" "http://www.w3.org/Graphics/SVG/1.1/DTD/svg11.dtd"><svg xmlns="http://www.w3.org/2000/svg" xmlns:xlink="http://www.w3.org/1999/xlink" version="1.1" width="512" height="512" viewBox="0 0 512 512">    <path fill="#ffffff" transform="scale(1, -1) translate(0, -448)" glyph-name="oil-temperature" unicode="&#xF3C8;" horiz-adv-x="512" d=" M245.3333333333333 426.6666666666667C227.6266666666667 426.6666666666667 213.3333333333333 412.3733333333334 213.3333333333333 394.6666666666667V138.6666666666667C199.8933333333333 128.64 192 112.8533333333334 192 96C192 66.5600000000001 215.8933333333334 42.6666666666667 245.3333333333333 42.6666666666667S298.6666666666667 66.5600000000001 298.6666666666667 96C298.6666666666667 112.8533333333334 290.7733333333333 128 277.3333333333333 138.6666666666667V170.6666666666667H362.6666666666667V213.3333333333334H277.3333333333333V256H362.6666666666667V298.6666666666667H277.3333333333333V341.3333333333334H362.6666666666667V384H277.3333333333333V394.6666666666667C277.3333333333333 412.3733333333334 263.04 426.6666666666667 245.3333333333333 426.6666666666667M0 128V85.3333333333334C14.2933333333333 85.3333333333334 16.8533333333333 80.8533333333334 27.52 70.1866666666667S56.96 42.6666666666667 85.3333333333333 42.6666666666667S132.48 59.52 143.1466666666667 70.1866666666667C145.4933333333334 72.7466666666667 147.4133333333333 74.6666666666667 149.3333333333333 76.5866666666667V124.5866666666667C132.48 119.04 120.5333333333333 108.16 112.8533333333333 100.48C102.1866666666667 89.8133333333334 99.6266666666667 85.3333333333334 85.3333333333333 85.3333333333334S68.48 89.8133333333334 57.8133333333333 100.48S28.3733333333333 128 0 128M341.3333333333333 128V85.3333333333334C355.6266666666667 85.3333333333334 358.1866666666666 80.8533333333334 368.8533333333333 70.1866666666667S398.2933333333334 42.6666666666667 426.6666666666667 42.6666666666667S473.8133333333333 59.52 484.48 70.1866666666667S497.7066666666666 85.3333333333334 512 85.3333333333334V128C483.6266666666667 128 464.8533333333333 111.1466666666667 454.1866666666666 100.48S440.9600000000001 85.3333333333334 426.6666666666667 85.3333333333334S409.8133333333334 89.8133333333334 399.1466666666667 100.48S369.7066666666666 128 341.3333333333333 128M170.6666666666667 21.3333333333334C142.2933333333333 21.3333333333334 123.52 4.48 112.8533333333333 -6.1866666666666S99.6266666666667 -21.3333333333333 85.3333333333333 -21.3333333333333S68.48 -16.8533333333333 57.8133333333333 -6.1866666666666C50.1333333333333 1.4933333333333 38.1866666666667 12.3733333333334 21.3333333333333 17.92V-30.08C23.2533333333333 -32 25.1733333333333 -33.92 27.52 -36.48C38.1866666666667 -47.1466666666666 56.96 -64 85.3333333333333 -64S132.48 -47.1466666666666 143.1466666666667 -36.48S156.3733333333333 -21.3333333333333 170.6666666666667 -21.3333333333333S187.52 -25.8133333333333 198.1866666666667 -36.48C207.5733333333333 -45.6533333333333 222.72 -59.7333333333333 245.3333333333333 -63.1466666666666C248.7466666666667 -64 252.3733333333334 -64 256 -64C284.3733333333334 -64 303.1466666666667 -47.1466666666666 313.8133333333334 -36.48S327.04 -21.3333333333333 341.3333333333333 -21.3333333333333S358.1866666666666 -25.8133333333333 368.8533333333333 -36.48S398.2933333333334 -64 426.6666666666667 -64S473.8133333333333 -47.1466666666666 484.48 -36.48C486.8266666666667 -33.92 488.7466666666667 -32 490.6666666666666 -30.08V17.92C473.8133333333333 12.3733333333333 461.8666666666666 1.4933333333333 454.1866666666666 -6.1866666666666C443.52 -16.8533333333333 440.9599999999999 -21.3333333333333 426.6666666666667 -21.3333333333333S409.8133333333334 -16.8533333333333 399.1466666666667 -6.1866666666666S369.7066666666666 21.3333333333334 341.3333333333333 21.3333333333334S294.1866666666666 4.48 283.52 -6.1866666666666S270.2933333333333 -21.3333333333333 256 -21.3333333333333C251.3066666666667 -21.3333333333333 248.1066666666667 -20.6933333333333 245.3333333333333 -19.6266666666667C239.36 -17.4933333333333 235.7333333333334 -13.4400000000001 228.48 -6.1866666666667C217.8133333333333 4.48 199.04 21.3333333333334 170.6666666666667 21.3333333333334z" /></svg>