<?xml version="1.0" encoding="UTF-8"?><!DOCTYPE svg PUBLIC "-//W3C//DTD SVG 1.1//EN" "http://www.w3.org/Graphics/SVG/1.1/DTD/svg11.dtd"><svg xmlns="http://www.w3.org/2000/svg" xmlns:xlink="http://www.w3.org/1999/xlink" version="1.1" width="512" height="512" viewBox="0 0 512 512">    <path fill="#ffffff" transform="scale(1, -1) translate(0, -448)" glyph-name="numeric-9-plus-box-multiple-outline" unicode="&#xF3C0;" horiz-adv-x="512" d=" M448 256H405.3333333333333V298.6666666666667H362.6666666666667V256H320V213.3333333333334H362.6666666666667V170.6666666666667H405.3333333333333V213.3333333333334H448V85.3333333333334H149.3333333333333V384H448M448 426.6666666666667H149.3333333333333C125.8666666666667 426.6666666666667 106.6666666666667 407.4666666666667 106.6666666666667 384V85.3333333333334C106.6666666666667 61.8666666666667 125.8666666666667 42.6666666666667 149.3333333333333 42.6666666666667H448C471.4666666666667 42.6666666666667 490.6666666666666 61.8666666666667 490.6666666666666 85.3333333333334V384C490.6666666666666 407.4666666666667 471.4666666666667 426.6666666666667 448 426.6666666666667M234.6666666666667 256V277.3333333333334H256V256M298.6666666666667 192V277.3333333333334C298.6666666666667 301.0133333333333 279.4666666666667 320 256 320H234.6666666666667C211.2 320 192 300.8 192 277.3333333333334V256C192 232.32 211.2 213.3333333333334 234.6666666666667 213.3333333333334H256V192H192V149.3333333333334H256C279.4666666666667 149.3333333333334 298.6666666666667 168.5333333333334 298.6666666666667 192M64 341.3333333333334H21.3333333333333V0C21.3333333333333 -23.4666666666667 40.5333333333333 -42.6666666666666 64 -42.6666666666666H405.3333333333333V0H64V341.3333333333334z" /></svg>