<?xml version="1.0" encoding="UTF-8"?><!DOCTYPE svg PUBLIC "-//W3C//DTD SVG 1.1//EN" "http://www.w3.org/Graphics/SVG/1.1/DTD/svg11.dtd"><svg xmlns="http://www.w3.org/2000/svg" xmlns:xlink="http://www.w3.org/1999/xlink" version="1.1" width="512" height="512" viewBox="0 0 512 512">    <path fill="#ffffff" transform="scale(1, -1) translate(0, -448)" glyph-name="ornament-variant" unicode="&#xF3D0;" horiz-adv-x="512" d=" M256 426.6666666666667C291.4133333333333 426.6666666666667 320 398.08 320 362.6666666666667V341.3333333333334C331.7333333333334 341.3333333333334 341.3333333333333 331.7333333333334 341.3333333333333 320V297.1733333333334C392.32 267.7333333333334 426.6666666666667 212.48 426.6666666666667 149.3333333333334C426.6666666666667 55.04 350.2933333333334 -21.3333333333333 256 -21.3333333333333S85.3333333333333 55.04 85.3333333333333 149.3333333333334C85.3333333333333 212.48 119.68 267.7333333333334 170.6666666666667 297.1733333333334V320C170.6666666666667 331.7333333333334 180.2666666666667 341.3333333333334 192 341.3333333333334V362.6666666666667C192 398.08 220.5866666666667 426.6666666666667 256 426.6666666666667M256 384C244.2666666666667 384 234.6666666666667 374.4 234.6666666666667 362.6666666666667V341.3333333333334H277.3333333333333V362.6666666666667C277.3333333333333 374.4 267.7333333333334 384 256 384M256 277.3333333333334C218.0266666666667 277.3333333333334 184.1066666666666 260.9066666666667 160.64 234.6666666666667H351.36C327.8933333333333 260.9066666666667 293.9733333333333 277.3333333333334 256 277.3333333333334M256 21.3333333333334C293.9733333333333 21.3333333333334 327.8933333333333 37.76 351.36 64H160.64C184.1066666666667 37.76 218.0266666666667 21.3333333333334 256 21.3333333333334M256 192C232.5333333333334 192 213.3333333333333 172.8 213.3333333333333 149.3333333333334S232.5333333333334 106.6666666666667 256 106.6666666666667S298.6666666666667 125.8666666666667 298.6666666666667 149.3333333333334S279.4666666666667 192 256 192M384 149.3333333333334C384 164.0533333333334 381.44 178.1333333333333 376.9600000000001 192C356.6933333333334 187.9466666666667 341.3333333333333 170.6666666666667 341.3333333333333 149.3333333333334S356.6933333333333 110.72 376.9600000000001 107.3066666666667C381.4400000000001 120.5333333333333 384 134.6133333333334 384 149.3333333333334M128 149.3333333333334C128 134.6133333333334 130.56 120.5333333333334 135.04 107.3066666666667C155.3066666666667 110.72 170.6666666666667 128 170.6666666666667 149.3333333333334S155.3066666666667 187.9466666666667 135.04 192C130.56 178.1333333333333 128 164.0533333333334 128 149.3333333333334z" /></svg>