<?xml version="1.0" encoding="UTF-8"?><!DOCTYPE svg PUBLIC "-//W3C//DTD SVG 1.1//EN" "http://www.w3.org/Graphics/SVG/1.1/DTD/svg11.dtd"><svg xmlns="http://www.w3.org/2000/svg" xmlns:xlink="http://www.w3.org/1999/xlink" version="1.1" width="512" height="512" viewBox="0 0 512 512">    <path fill="#ffffff" transform="scale(1, -1) translate(0, -448)" glyph-name="cellphone-erase" unicode="&#xF94C;" horiz-adv-x="512" d=" M234.6666666666667 273.0666666666667L213.3333333333333 294.4000000000001L128 209.0666666666667L42.6666666666667 294.4000000000001L21.3333333333333 273.0666666666667L106.6666666666667 187.7333333333334L21.3333333333333 102.4L42.6666666666667 81.0666666666667L128 166.4L213.3333333333333 81.0666666666667L234.6666666666667 102.4L149.3333333333333 187.7333333333334L234.6666666666667 273.0666666666667M362.6666666666667 426.6666666666667H149.3333333333333C125.8666666666667 426.6666666666667 106.6666666666667 407.4666666666667 106.6666666666667 384V320H149.3333333333333V362.6666666666667H362.6666666666667V21.3333333333334H149.3333333333333V64H106.6666666666667V0C106.6666666666667 -23.4666666666667 125.8666666666667 -42.6666666666666 149.3333333333333 -42.6666666666666H362.6666666666667C386.1333333333334 -42.6666666666666 405.3333333333333 -23.4666666666667 405.3333333333333 0V384C405.3333333333333 407.4666666666667 386.1333333333334 426.6666666666667 362.6666666666667 426.6666666666667z" /></svg>