<?xml version="1.0" encoding="UTF-8"?><!DOCTYPE svg PUBLIC "-//W3C//DTD SVG 1.1//EN" "http://www.w3.org/Graphics/SVG/1.1/DTD/svg11.dtd"><svg xmlns="http://www.w3.org/2000/svg" xmlns:xlink="http://www.w3.org/1999/xlink" version="1.1" width="512" height="512" viewBox="0 0 512 512">    <path fill="#ffffff" transform="scale(1, -1) translate(0, -448)" glyph-name="spotlight-beam" unicode="&#xF4C9;" horiz-adv-x="512" d=" M192 96L211.4133333333333 115.4133333333334L322.7733333333333 4.2666666666667L303.1466666666667 -15.1466666666666L192 96M330.6666666666667 234.6666666666667L350.08 254.08L461.4399999999999 142.9333333333333L441.8133333333333 123.52L330.6666666666667 234.6666666666667M143.36 389.9733333333334L216.5333333333333 316.8L131.2 231.4666666666667L58.0266666666667 304.64C41.3866666666667 321.28 41.3866666666667 348.3733333333334 58.0266666666667 365.0133333333333L82.9866666666667 389.9733333333333C99.6266666666667 406.6133333333334 126.72 406.6133333333334 143.36 389.9733333333333M310.8266666666667 288L325.9733333333334 272.8533333333334L175.1466666666667 122.0266666666667L160 137.1733333333334L141.6533333333333 211.84L236.16 306.3466666666667L310.8266666666667 288z" /></svg>