<?xml version="1.0" encoding="UTF-8"?><!DOCTYPE svg PUBLIC "-//W3C//DTD SVG 1.1//EN" "http://www.w3.org/Graphics/SVG/1.1/DTD/svg11.dtd"><svg xmlns="http://www.w3.org/2000/svg" xmlns:xlink="http://www.w3.org/1999/xlink" version="1.1" width="512" height="512" viewBox="0 0 512 512">    <path fill="#ffffff" transform="scale(1, -1) translate(0, -448)" glyph-name="wheelchair-accessibility" unicode="&#xF5A4;" horiz-adv-x="512" d=" M392.5333333333333 209.0666666666667L305.0666666666666 204.8000000000001L354.1333333333333 260.2666666666667C358.3999999999999 266.6666666666668 360.5333333333333 277.3333333333334 358.3999999999999 288C356.2666666666666 294.4000000000001 354.1333333333333 300.8 347.7333333333333 305.0666666666667L232.5333333333333 373.3333333333334C223.9999999999999 379.7333333333334 211.1999999999999 377.6 202.6666666666666 371.2000000000001L145.0666666666667 317.8666666666667C134.4 307.2000000000001 132.2666666666667 292.2666666666667 142.9333333333333 281.6C151.4666666666667 270.9333333333334 168.5333333333333 270.9333333333334 179.2 279.4666666666667L221.8666666666667 317.8666666666667L262.4 294.4000000000001L172.8 202.6666666666667C170.6666666666667 200.5333333333334 170.6666666666667 198.4 168.5333333333334 198.4C157.8666666666667 194.1333333333334 147.2 189.8666666666667 138.6666666666667 183.4666666666667L170.6666666666667 151.4666666666667C181.3333333333333 155.7333333333334 192 160 202.6666666666667 160C243.2 160 277.3333333333333 125.8666666666667 277.3333333333333 85.3333333333334C277.3333333333333 72.5333333333333 275.2 61.8666666666667 268.8 53.3333333333334L300.8 21.3333333333334C313.6 40.5333333333333 320 61.8666666666667 320 85.3333333333334C320 110.9333333333333 311.4666666666667 136.5333333333334 296.5333333333333 155.7333333333334L366.9333333333333 162.1333333333334L362.6666666666667 59.7333333333334C360.5333333333333 44.8000000000001 371.2 34.1333333333334 386.1333333333334 32H388.2666666666667C401.0666666666667 32 411.7333333333334 42.6666666666667 413.8666666666667 55.4666666666667L418.1333333333334 181.3333333333334C418.1333333333334 187.7333333333334 416 196.2666666666667 411.7333333333334 200.5333333333334C405.3333333333333 206.9333333333334 398.9333333333333 209.0666666666667 392.5333333333334 209.0666666666667M384 330.6666666666667C407.4666666666667 330.6666666666667 426.6666666666667 349.8666666666667 426.6666666666667 373.3333333333334S407.4666666666667 416 384 416S341.3333333333333 396.8 341.3333333333333 373.3333333333334S360.5333333333333 330.6666666666667 384 330.6666666666667M266.6666666666667 -12.8C247.4666666666667 -25.6 226.1333333333334 -32 202.6666666666667 -32C138.6666666666667 -32 85.3333333333333 21.3333333333334 85.3333333333333 85.3333333333334C85.3333333333333 108.8 91.7333333333333 130.1333333333333 104.5333333333333 149.3333333333334L136.5333333333333 117.3333333333334C132.2666666666667 106.6666666666667 128 96 128 85.3333333333334C128 44.8000000000001 162.1333333333333 10.6666666666667 202.6666666666667 10.6666666666667C215.4666666666667 10.6666666666667 226.1333333333334 12.8000000000001 234.6666666666667 19.2L266.6666666666667 -12.8z" /></svg>