<?xml version="1.0" encoding="UTF-8"?><!DOCTYPE svg PUBLIC "-//W3C//DTD SVG 1.1//EN" "http://www.w3.org/Graphics/SVG/1.1/DTD/svg11.dtd"><svg xmlns="http://www.w3.org/2000/svg" xmlns:xlink="http://www.w3.org/1999/xlink" version="1.1" width="512" height="512" viewBox="0 0 512 512">    <path fill="#ffffff" transform="scale(1, -1) translate(0, -448)" glyph-name="panorama-vertical" unicode="&#xF3DF;" horiz-adv-x="512" d=" M139.52 21.3333333333334C155.9466666666667 76.8000000000001 164.2666666666667 133.9733333333334 164.2666666666667 192C164.2666666666667 250.0266666666667 155.9466666666667 307.2000000000001 139.52 362.6666666666667H372.2666666666667C355.84 307.2000000000001 347.52 250.0266666666667 347.52 192C347.52 133.9733333333334 355.84 76.8000000000001 372.2666666666667 21.3333333333334M425.3866666666666 -2.56C401.9199999999999 60.16 390.3999999999999 126.0800000000001 390.3999999999999 192C390.3999999999999 257.92 402.1333333333333 323.84 425.3866666666666 386.56C426.6666666666666 388.9066666666667 426.6666666666666 391.2533333333333 426.6666666666666 393.1733333333333C426.6666666666666 400.4266666666666 421.7599999999999 405.3333333333333 413.2266666666666 405.3333333333333H98.7733333333333C90.24 405.3333333333333 85.3333333333333 400.4266666666666 85.3333333333333 393.1733333333333C85.3333333333333 391.04 85.3333333333333 388.9066666666667 86.6133333333333 386.56C110.08 323.8400000000001 121.8133333333333 257.92 121.8133333333333 192C121.8133333333333 126.0800000000001 110.08 60.16 86.8266666666667 -2.5599999999999C85.3333333333333 -4.9066666666666 85.3333333333333 -7.2533333333332 85.3333333333333 -9.1733333333332C85.3333333333333 -16.2133333333332 90.24 -21.3333333333333 98.7733333333333 -21.3333333333333H413.44C421.76 -21.3333333333333 426.6666666666667 -16.2133333333333 426.6666666666667 -9.1733333333332C426.6666666666667 -7.0399999999998 426.6666666666667 -4.9066666666666 425.3866666666667 -2.5599999999999z" /></svg>