<?xml version="1.0" encoding="UTF-8"?><!DOCTYPE svg PUBLIC "-//W3C//DTD SVG 1.1//EN" "http://www.w3.org/Graphics/SVG/1.1/DTD/svg11.dtd"><svg xmlns="http://www.w3.org/2000/svg" xmlns:xlink="http://www.w3.org/1999/xlink" version="1.1" width="512" height="512" viewBox="0 0 512 512">    <path fill="#ffffff" transform="scale(1, -1) translate(0, -448)" glyph-name="solar-power" unicode="&#xFA71;" horiz-adv-x="512" d=" M244.2666666666667 405.3333333333333V329.6L320 367.5733333333333L244.2666666666667 405.3333333333333M222.9333333333333 277.3333333333334L170.6666666666667 224.8533333333333L250.6666666666667 198.1866666666667L222.9333333333333 277.3333333333334M42.6666666666667 203.7333333333334L80.4266666666667 128L118.4 203.7333333333334H42.6666666666667M213.3333333333333 405.3333333333333H42.6666666666667V234.6666666666667C54.8266666666667 231.04 67.6266666666667 229.3333333333334 80.4266666666667 229.3333333333334C156.8 229.12 218.88 291.2000000000001 219.0933333333333 368C218.88 380.5866666666667 216.96 393.1733333333334 213.3333333333333 405.3333333333333M362.6666666666667 -21.3333333333333V106.6666666666667H298.6666666666667L405.3333333333333 298.6666666666667V170.6666666666667H469.3333333333333L362.6666666666667 -21.3333333333333z" /></svg>