<?xml version="1.0" encoding="UTF-8"?><!DOCTYPE svg PUBLIC "-//W3C//DTD SVG 1.1//EN" "http://www.w3.org/Graphics/SVG/1.1/DTD/svg11.dtd"><svg xmlns="http://www.w3.org/2000/svg" xmlns:xlink="http://www.w3.org/1999/xlink" version="1.1" width="512" height="512" viewBox="0 0 512 512">    <path fill="#ffffff" transform="scale(1, -1) translate(0, -448)" glyph-name="google-nearby" unicode="&#xF2B9;" horiz-adv-x="512" d=" M455.6799999999999 224.8533333333333L288.8533333333333 391.68C270.72 409.8133333333334 241.28 409.8133333333334 223.1466666666667 391.68L56.32 224.8533333333333C38.1866666666666 206.72 38.1866666666666 177.28 56.32 159.1466666666667L223.1466666666667 -7.6799999999999C241.28 -25.8133333333333 270.72 -25.8133333333333 288.8533333333333 -7.6799999999999L455.6799999999999 159.1466666666667C473.8133333333333 177.28 473.8133333333333 206.72 455.6799999999999 224.8533333333334M256 42.6666666666667L106.6666666666667 192L256 341.3333333333334L405.3333333333333 192L256 42.6666666666667M352 192L256 96L160 192L256 288L352 192z" /></svg>