<?xml version="1.0" encoding="UTF-8"?><!DOCTYPE svg PUBLIC "-//W3C//DTD SVG 1.1//EN" "http://www.w3.org/Graphics/SVG/1.1/DTD/svg11.dtd"><svg xmlns="http://www.w3.org/2000/svg" xmlns:xlink="http://www.w3.org/1999/xlink" version="1.1" width="512" height="512" viewBox="0 0 512 512">    <path fill="#ffffff" transform="scale(1, -1) translate(0, -448)" glyph-name="inbox-multiple" unicode="&#xF8AF;" horiz-adv-x="512" d=" M405.3333333333333 277.3333333333334V341.3333333333334H106.6666666666667V277.3333333333334H192C192 241.92 220.5866666666667 213.3333333333334 256 213.3333333333334S320 241.92 320 277.3333333333334H405.3333333333333M405.3333333333333 384C428.8 384 448 364.8 448 341.3333333333334V192C448 168.5333333333334 428.8 149.3333333333334 405.3333333333333 149.3333333333334H106.6666666666667C83.2 149.3333333333334 64 168.5333333333334 64 192V341.3333333333334C64 364.8 83.2 384 106.6666666666667 384H405.3333333333333M64 128H192C192 92.5866666666667 220.5866666666667 64 256 64S320 92.5866666666667 320 128H448V42.6666666666667C448 19.2 428.8 0 405.3333333333333 0H106.6666666666667C83.2 0 64 19.2 64 42.6666666666667V128z" /></svg>