<?xml version="1.0" encoding="UTF-8"?><!DOCTYPE svg PUBLIC "-//W3C//DTD SVG 1.1//EN" "http://www.w3.org/Graphics/SVG/1.1/DTD/svg11.dtd"><svg xmlns="http://www.w3.org/2000/svg" xmlns:xlink="http://www.w3.org/1999/xlink" version="1.1" width="512" height="512" viewBox="0 0 512 512">    <path fill="#ffffff" transform="scale(1, -1) translate(0, -448)" glyph-name="heart-broken-outline" unicode="&#xFCF0;" horiz-adv-x="512" d=" M160 341.3333333333334C164.2666666666667 341.3333333333334 168.5333333333333 341.3333333333334 172.8 339.2000000000001L224 251.7333333333334L145.0666666666667 153.6C108.8 196.2666666666667 85.3333333333333 230.4000000000001 85.3333333333333 266.6666666666667C85.3333333333333 309.3333333333334 117.3333333333333 341.3333333333334 160 341.3333333333334M160 384C93.8666666666667 384 42.6666666666667 332.8 42.6666666666667 266.6666666666667C42.6666666666667 185.6 115.2 119.4666666666667 226.1333333333334 21.3333333333334L256 -6.4L192 142.9333333333333L277.3333333333333 249.6L200.5333333333333 377.6C187.7333333333334 381.8666666666667 174.9333333333333 384 160 384M352 341.3333333333334C394.6666666666667 341.3333333333334 426.6666666666667 309.3333333333334 426.6666666666667 266.6666666666667C426.6666666666667 211.2 371.2 155.7333333333334 285.8666666666667 78.9333333333333L279.4666666666667 128L381.8666666666666 241.0666666666667L332.8 337.0666666666667C339.2 341.3333333333334 345.6 341.3333333333334 351.9999999999999 341.3333333333334M351.9999999999999 384C324.2666666666666 384 296.5333333333333 373.3333333333334 275.2 356.2666666666667L330.6666666666666 247.4666666666667L234.6666666666666 140.8000000000001L255.9999999999999 -8.5333333333333L285.8666666666666 19.2C396.8 119.4666666666667 469.3333333333333 185.6000000000001 469.3333333333333 264.5333333333334C469.3333333333333 332.8 418.1333333333334 384 352 384z" /></svg>