<?xml version="1.0" encoding="UTF-8"?><!DOCTYPE svg PUBLIC "-//W3C//DTD SVG 1.1//EN" "http://www.w3.org/Graphics/SVG/1.1/DTD/svg11.dtd"><svg xmlns="http://www.w3.org/2000/svg" xmlns:xlink="http://www.w3.org/1999/xlink" version="1.1" width="512" height="512" viewBox="0 0 512 512">    <path fill="#ffffff" transform="scale(1, -1) translate(0, -448)" glyph-name="gesture-swipe" unicode="&#xFD52;" horiz-adv-x="512" d=" M429.0133333333333 365.0133333333333L469.3333333333333 405.3333333333333V298.6666666666667H362.6666666666667L407.04 343.04C395.7333333333333 357.76 376.32 369.92 349.0133333333333 379.9466666666667C321.7066666666667 389.9733333333334 290.7733333333333 394.6666666666667 256 394.6666666666667C221.44 394.6666666666667 190.2933333333333 389.9733333333334 162.9866666666667 379.9466666666667C135.68 369.92 116.2666666666667 357.76 104.96 343.04L149.3333333333333 298.6666666666667H42.6666666666667V405.3333333333333L82.9866666666667 365.0133333333333C98.9866666666667 384 122.4533333333333 398.7200000000001 153.6 410.0266666666667C184.5333333333333 421.3333333333333 218.6666666666667 426.6666666666667 256 426.6666666666667S327.4666666666667 421.3333333333333 358.4 410.0266666666667C389.5466666666667 398.7200000000001 413.0133333333333 384 429.0133333333333 365.0133333333333M420.9066666666667 100.9066666666667V97.0666666666667L405.3333333333333 -14.9333333333333C403.6266666666667 -23.04 400.2133333333334 -29.6533333333333 394.6666666666667 -34.9866666666667C388.9066666666667 -40.32 382.08 -42.6666666666666 373.9733333333334 -42.6666666666666H228.9066666666667C221.0133333333334 -42.6666666666666 213.3333333333333 -39.6799999999999 206.9333333333333 -33.0666666666667L100.9066666666667 71.8933333333333L117.9733333333334 88.96C122.6666666666667 93.6533333333333 128 95.9999999999999 135.04 95.9999999999999H139.9466666666667L213.3333333333334 79.9999999999999V309.3333333333334C213.3333333333334 317.6533333333333 216.1066666666667 325.12 222.5066666666667 331.52C228.9066666666667 337.92 236.3733333333334 341.3333333333334 245.3333333333334 341.3333333333334C253.6533333333334 341.3333333333334 261.12 337.92 267.5200000000001 331.52C273.9200000000001 325.12 277.3333333333334 317.6533333333333 277.3333333333334 309.3333333333334V181.3333333333334H293.9733333333334C296.1066666666667 181.3333333333334 299.7333333333334 180.2666666666667 305.0666666666667 178.9866666666667L401.9200000000001 130.9866666666667C414.7200000000001 125.0133333333334 420.9066666666668 114.9866666666667 420.9066666666668 100.9066666666667z" /></svg>