<?xml version="1.0" encoding="UTF-8"?><!DOCTYPE svg PUBLIC "-//W3C//DTD SVG 1.1//EN" "http://www.w3.org/Graphics/SVG/1.1/DTD/svg11.dtd"><svg xmlns="http://www.w3.org/2000/svg" xmlns:xlink="http://www.w3.org/1999/xlink" version="1.1" width="512" height="512" viewBox="0 0 512 512">    <path fill="#ffffff" transform="scale(1, -1) translate(0, -448)" glyph-name="table-large" unicode="&#xF4F1;" horiz-adv-x="512" d=" M85.3333333333333 384H426.6666666666667C450.1333333333334 384 469.3333333333333 364.8 469.3333333333333 341.3333333333334V21.3333333333334C469.3333333333333 -2.1333333333333 450.1333333333334 -21.3333333333333 426.6666666666667 -21.3333333333333H85.3333333333333C61.8666666666667 -21.3333333333333 42.6666666666667 -2.1333333333333 42.6666666666667 21.3333333333334V341.3333333333334C42.6666666666667 364.8 61.8666666666667 384 85.3333333333333 384M85.3333333333333 298.6666666666667V234.6666666666667H170.6666666666667V298.6666666666667H85.3333333333333M213.3333333333333 298.6666666666667V234.6666666666667H298.6666666666667V298.6666666666667H213.3333333333333M426.6666666666667 234.6666666666667V298.6666666666667H341.3333333333333V234.6666666666667H426.6666666666667M85.3333333333333 192V128H170.6666666666667V192H85.3333333333333M85.3333333333333 21.3333333333334H170.6666666666667V85.3333333333334H85.3333333333333V21.3333333333334M213.3333333333333 192V128H298.6666666666667V192H213.3333333333333M213.3333333333333 21.3333333333334H298.6666666666667V85.3333333333334H213.3333333333333V21.3333333333334M426.6666666666667 21.3333333333334V85.3333333333334H341.3333333333333V21.3333333333334H426.6666666666667M426.6666666666667 192H341.3333333333333V128H426.6666666666667V192z" /></svg>