<?xml version="1.0" encoding="UTF-8"?><!DOCTYPE svg PUBLIC "-//W3C//DTD SVG 1.1//EN" "http://www.w3.org/Graphics/SVG/1.1/DTD/svg11.dtd"><svg xmlns="http://www.w3.org/2000/svg" xmlns:xlink="http://www.w3.org/1999/xlink" version="1.1" width="512" height="512" viewBox="0 0 512 512">    <path fill="#ffffff" transform="scale(1, -1) translate(0, -448)" glyph-name="gnome" unicode="&#xF2AC;" horiz-adv-x="512" d=" M392.9600000000001 405.3333333333333C304.2133333333334 405.3333333333333 288 278.8266666666667 337.4933333333334 278.8266666666667C387.4133333333334 278.8266666666667 481.7066666666667 405.3333333333333 392.9600000000001 405.3333333333333M256 389.76C254.2933333333333 389.76 252.8 389.76 251.3066666666667 389.5466666666667C201.3866666666667 383.1466666666667 218.88 296.1066666666667 245.3333333333333 294.6133333333334C271.36 292.9066666666667 299.52 389.76 256 389.76M169.1733333333333 355.4133333333334C166.6133333333333 355.4133333333334 163.6266666666667 354.7733333333333 160.64 353.4933333333334C120.5333333333333 336.8533333333334 154.4533333333333 268.5866666666667 177.0666666666666 273.0666666666667C197.76 277.3333333333334 200.32 356.2666666666667 169.1733333333333 355.4133333333334M105.1733333333333 301.8666666666667C101.76 302.0800000000001 97.92 300.8 94.08 298.0266666666667C61.8666666666666 275.8400000000001 104.7466666666666 222.2933333333334 123.7333333333333 230.6133333333334C140.16 237.8666666666667 129.7066666666666 301.0133333333333 105.1733333333333 301.8666666666667M283.5199999999999 260.9066666666667C215.4666666666666 260.2666666666667 128.6399999999999 225.7066666666667 113.4933333333333 158.0800000000001C96.64 82.9866666666667 182.6133333333334 -21.3333333333333 272.2133333333333 -21.3333333333333C316.3733333333334 -21.3333333333333 367.1466666666667 18.5600000000001 376.7466666666667 68.9066666666667C384 107.3066666666667 291.2 91.9466666666667 294.6133333333334 66.5600000000001C298.6666666666667 36.0533333333334 272.2133333333333 21.3333333333334 246.4 40.5333333333334C164.0533333333334 103.2533333333335 382.5066666666667 134.4000000000001 368 219.9466666666667C363.3066666666667 247.6800000000001 327.2533333333334 261.1200000000001 283.52 260.9066666666668z" /></svg>