<?xml version="1.0" encoding="UTF-8"?><!DOCTYPE svg PUBLIC "-//W3C//DTD SVG 1.1//EN" "http://www.w3.org/Graphics/SVG/1.1/DTD/svg11.dtd"><svg xmlns="http://www.w3.org/2000/svg" xmlns:xlink="http://www.w3.org/1999/xlink" version="1.1" width="512" height="512" viewBox="0 0 512 512">    <path fill="#ffffff" transform="scale(1, -1) translate(0, -448)" glyph-name="medium" unicode="&#xF35A;" horiz-adv-x="512" d=" M93.2266666666667 292.2666666666667C93.8666666666667 297.6 91.7333333333333 302.7200000000001 87.8933333333333 306.1333333333334L48 354.1333333333334V361.3866666666667H171.7333333333334L267.3066666666667 151.68L351.36 361.3866666666667H469.3333333333333V354.1333333333334L435.2 321.4933333333334C432.4266666666666 319.36 430.9333333333333 315.52 431.5733333333333 311.8933333333333V72.1066666666667C430.9333333333332 68.48 432.4266666666666 64.64 435.2 62.5066666666667L468.4799999999999 29.8666666666667V22.6133333333333H301.2266666666666V29.8666666666667L335.5733333333333 63.36C338.9866666666666 66.56 338.9866666666666 67.6266666666667 338.9866666666666 72.7466666666667V266.6666666666667L243.2 23.4666666666667H230.4L118.8266666666667 266.6666666666667V103.68C117.3333333333333 96.8533333333334 120.1066666666667 90.0266666666666 125.0133333333333 85.3333333333334L169.8133333333333 30.5066666666667V23.4666666666667H42.6666666666667V30.5066666666667L87.4666666666667 85.3333333333334C92.3733333333333 90.0266666666666 94.5066666666667 96.8533333333334 93.2266666666667 103.68V292.2666666666667z" /></svg>