<?xml version="1.0" encoding="UTF-8"?><!DOCTYPE svg PUBLIC "-//W3C//DTD SVG 1.1//EN" "http://www.w3.org/Graphics/SVG/1.1/DTD/svg11.dtd"><svg xmlns="http://www.w3.org/2000/svg" xmlns:xlink="http://www.w3.org/1999/xlink" version="1.1" width="512" height="512" viewBox="0 0 512 512">    <path fill="#ffffff" transform="scale(1, -1) translate(0, -448)" glyph-name="water-pump" unicode="&#xF58F;" horiz-adv-x="512" d=" M405.3333333333333 138.6666666666667S448 92.3733333333333 448 64C448 40.5333333333333 428.8 21.3333333333334 405.3333333333333 21.3333333333334S362.6666666666667 40.5333333333333 362.6666666666667 64C362.6666666666667 92.3733333333333 405.3333333333333 138.6666666666667 405.3333333333333 138.6666666666667M106.6666666666667 64V256C83.2 256 64 275.2000000000001 64 298.6666666666667S83.2 341.3333333333334 106.6666666666667 341.3333333333334V362.6666666666667C106.6666666666667 386.1333333333334 125.8666666666667 405.3333333333333 149.3333333333333 405.3333333333333H192C215.4666666666667 405.3333333333333 234.6666666666667 386.1333333333334 234.6666666666667 362.6666666666667V341.3333333333334H405.3333333333333C428.8 341.3333333333334 448 322.1333333333334 448 298.6666666666667V213.3333333333334C459.7333333333333 213.3333333333334 469.3333333333333 203.7333333333334 469.3333333333333 192S459.7333333333333 170.6666666666667 448 170.6666666666667H362.6666666666667C350.9333333333333 170.6666666666667 341.3333333333333 180.2666666666667 341.3333333333333 192S350.9333333333333 213.3333333333334 362.6666666666667 213.3333333333334V256H234.6666666666667V64H256C279.4666666666667 64 298.6666666666667 44.8000000000001 298.6666666666667 21.3333333333334V-21.3333333333333H42.6666666666667V21.3333333333334C42.6666666666667 44.8000000000001 61.8666666666667 64 85.3333333333333 64H106.6666666666667z" /></svg>