<?xml version="1.0" encoding="UTF-8"?><!DOCTYPE svg PUBLIC "-//W3C//DTD SVG 1.1//EN" "http://www.w3.org/Graphics/SVG/1.1/DTD/svg11.dtd"><svg xmlns="http://www.w3.org/2000/svg" xmlns:xlink="http://www.w3.org/1999/xlink" version="1.1" width="512" height="512" viewBox="0 0 512 512">    <path fill="#ffffff" transform="scale(1, -1) translate(0, -448)" glyph-name="bus-school" unicode="&#xF79E;" horiz-adv-x="512" d=" M64 320C40.32 320 21.3333333333333 301.0133333333333 21.3333333333333 277.3333333333334V128H64C64 92.5866666666667 92.5866666666667 64 128 64S192 92.5866666666667 192 128H320C320 92.5866666666667 348.5866666666667 64 384 64S448 92.5866666666667 448 128H490.6666666666666V192C490.6666666666666 215.68 471.6799999999999 234.6666666666667 448 234.6666666666667H405.3333333333333V277.3333333333334C405.3333333333333 301.0133333333333 386.3466666666667 320 362.6666666666667 320H64M288 288H373.3333333333333V234.6666666666667H288V288M53.3333333333333 288H138.6666666666667V234.6666666666667H53.3333333333333V288M170.6666666666667 288H256V234.6666666666667H170.6666666666667V288M128 160C145.7066666666667 160 160 145.7066666666667 160 128S145.7066666666667 96 128 96S96 110.2933333333334 96 128S110.2933333333333 160 128 160M384 160C401.7066666666666 160 416 145.7066666666667 416 128S401.7066666666666 96 384 96S352 110.2933333333334 352 128S366.2933333333334 160 384 160z" /></svg>