<?xml version="1.0" encoding="UTF-8"?><!DOCTYPE svg PUBLIC "-//W3C//DTD SVG 1.1//EN" "http://www.w3.org/Graphics/SVG/1.1/DTD/svg11.dtd"><svg xmlns="http://www.w3.org/2000/svg" xmlns:xlink="http://www.w3.org/1999/xlink" version="1.1" width="512" height="512" viewBox="0 0 512 512">    <path fill="#ffffff" transform="scale(1, -1) translate(0, -448)" glyph-name="exit-to-app" unicode="&#xF206;" horiz-adv-x="512" d=" M405.3333333333333 384H106.6666666666667C82.9866666666667 384 64 365.0133333333333 64 341.3333333333334V256H106.6666666666667V341.3333333333334H405.3333333333333V42.6666666666667H106.6666666666667V128H64V42.6666666666667C64 19.2 83.2 0 106.6666666666667 0H405.3333333333333C428.8 0 448 19.2 448 42.6666666666667V341.3333333333334C448 365.0133333333333 428.8 384 405.3333333333333 384M215.04 115.6266666666667L245.3333333333333 85.3333333333334L352 192L245.3333333333333 298.6666666666667L215.04 268.5866666666667L270.2933333333333 213.3333333333334H64V170.6666666666667H270.2933333333333L215.04 115.6266666666667z" /></svg>