<?xml version="1.0" encoding="UTF-8"?><!DOCTYPE svg PUBLIC "-//W3C//DTD SVG 1.1//EN" "http://www.w3.org/Graphics/SVG/1.1/DTD/svg11.dtd"><svg xmlns="http://www.w3.org/2000/svg" xmlns:xlink="http://www.w3.org/1999/xlink" version="1.1" width="512" height="512" viewBox="0 0 512 512">    <path fill="#ffffff" transform="scale(1, -1) translate(0, -448)" glyph-name="heart-outline" unicode="&#xF2D5;" horiz-adv-x="512" d=" M258.1333333333334 52.2666666666667L256 50.1333333333333L253.6533333333334 52.2666666666667C152.32 144.2133333333334 85.3333333333333 205.0133333333333 85.3333333333333 266.6666666666667C85.3333333333333 309.3333333333334 117.3333333333333 341.3333333333334 160 341.3333333333334C192.8533333333333 341.3333333333334 224.8533333333333 320 236.16 290.9866666666667H275.84C287.1466666666667 320 319.1466666666667 341.3333333333334 352 341.3333333333334C394.6666666666667 341.3333333333334 426.6666666666667 309.3333333333334 426.6666666666667 266.6666666666667C426.6666666666667 205.0133333333333 359.68 144.2133333333334 258.1333333333334 52.2666666666667M352 384C314.88 384 279.2533333333334 366.7200000000001 256 339.6266666666667C232.7466666666667 366.7200000000001 197.12 384 160 384C94.2933333333333 384 42.6666666666667 332.5866666666667 42.6666666666667 266.6666666666667C42.6666666666667 186.24 115.2 120.3200000000001 225.0666666666667 20.6933333333333L256 -7.4666666666667L286.9333333333333 20.6933333333333C396.8 120.3200000000001 469.3333333333333 186.24 469.3333333333333 266.6666666666667C469.3333333333333 332.5866666666667 417.7066666666666 384 352 384z" /></svg>