<?xml version="1.0" encoding="UTF-8"?><!DOCTYPE svg PUBLIC "-//W3C//DTD SVG 1.1//EN" "http://www.w3.org/Graphics/SVG/1.1/DTD/svg11.dtd"><svg xmlns="http://www.w3.org/2000/svg" xmlns:xlink="http://www.w3.org/1999/xlink" version="1.1" width="512" height="512" viewBox="0 0 512 512">    <path fill="#ffffff" transform="scale(1, -1) translate(0, -448)" glyph-name="code-string" unicode="&#xF173;" horiz-adv-x="512" d=" M64 341.3333333333334C64 364.8 83.2 384 106.6666666666667 384H405.3333333333333C428.8 384 448 364.8 448 341.3333333333334V42.6666666666667C448 19.2 428.8 0 405.3333333333333 0H106.6666666666667C82.9866666666667 0 64 19.2 64 42.6666666666667V341.3333333333334M266.6666666666667 213.3333333333334H245.3333333333333C227.6266666666667 213.3333333333334 213.3333333333333 227.6266666666667 213.3333333333333 245.3333333333334S227.6266666666667 277.3333333333334 245.3333333333333 277.3333333333334H266.6666666666667C284.3733333333334 277.3333333333334 298.6666666666667 263.04 298.6666666666667 245.3333333333334H341.3333333333333C341.3333333333333 286.5066666666667 307.84 320 266.6666666666667 320H245.3333333333333C204.16 320 170.6666666666667 286.5066666666667 170.6666666666667 245.3333333333334S204.16 170.6666666666667 245.3333333333333 170.6666666666667H266.6666666666667C284.3733333333334 170.6666666666667 298.6666666666667 156.3733333333333 298.6666666666667 138.6666666666667S284.3733333333334 106.6666666666667 266.6666666666667 106.6666666666667H245.3333333333333C227.6266666666667 106.6666666666667 213.3333333333333 120.96 213.3333333333333 138.6666666666667H170.6666666666667C170.6666666666667 97.4933333333333 204.16 64 245.3333333333333 64H266.6666666666667C307.84 64 341.3333333333333 97.4933333333333 341.3333333333333 138.6666666666667S307.84 213.3333333333334 266.6666666666667 213.3333333333334z" /></svg>