<?xml version="1.0" encoding="UTF-8"?><!DOCTYPE svg PUBLIC "-//W3C//DTD SVG 1.1//EN" "http://www.w3.org/Graphics/SVG/1.1/DTD/svg11.dtd"><svg xmlns="http://www.w3.org/2000/svg" xmlns:xlink="http://www.w3.org/1999/xlink" version="1.1" width="512" height="512" viewBox="0 0 512 512">    <path fill="#ffffff" transform="scale(1, -1) translate(0, -448)" glyph-name="eye-plus" unicode="&#xF86A;" horiz-adv-x="512" d=" M256 352C149.3333333333333 352 58.24 285.6533333333333 21.3333333333333 192C58.24 98.3466666666667 149.3333333333333 32 256 32C263.68 32 271.36 32 279.04 33.0666666666667C277.9733333333333 39.8933333333334 277.3333333333333 46.5066666666667 277.3333333333333 53.3333333333334C277.3333333333333 65.28 279.04 77.2266666666667 282.4533333333333 88.7466666666667C273.7066666666667 86.6133333333334 264.96 85.3333333333334 256 85.3333333333334C197.12 85.3333333333334 149.3333333333333 133.12 149.3333333333333 192S197.12 298.6666666666667 256 298.6666666666667S362.6666666666667 250.88 362.6666666666667 192C362.6666666666667 185.8133333333334 362.0266666666667 179.4133333333334 360.9600000000001 173.2266666666667C375.04 178.56 390.1866666666667 181.3333333333334 405.3333333333333 181.3333333333334C430.2933333333334 181.3333333333334 454.6133333333333 174.0800000000001 475.52 160C481.28 170.6666666666667 486.4 181.3333333333334 490.6666666666666 192C453.76 285.6533333333333 362.6666666666667 352 256 352M256 256C220.5866666666667 256 192 227.4133333333334 192 192S220.5866666666667 128 256 128S320 156.5866666666667 320 192S291.4133333333333 256 256 256M384 138.6666666666667V74.6666666666667H320V32H384V-32H426.6666666666667V32H490.6666666666666V74.6666666666667H426.6666666666667V138.6666666666667H384z" /></svg>