<?xml version="1.0" encoding="UTF-8"?><!DOCTYPE svg PUBLIC "-//W3C//DTD SVG 1.1//EN" "http://www.w3.org/Graphics/SVG/1.1/DTD/svg11.dtd"><svg xmlns="http://www.w3.org/2000/svg" xmlns:xlink="http://www.w3.org/1999/xlink" version="1.1" width="512" height="512" viewBox="0 0 512 512">    <path fill="#ffffff" transform="scale(1, -1) translate(0, -448)" glyph-name="diving-scuba" unicode="&#xFD9D;" horiz-adv-x="512" d=" M256 128C283.9466666666667 128 307.6266666666667 110.2933333333334 316.3733333333334 85.3333333333334H384C431.1466666666667 85.3333333333334 469.3333333333333 47.1466666666667 469.3333333333333 0V-21.3333333333333H426.6666666666667V0C426.6666666666667 23.4666666666667 407.4666666666667 42.6666666666667 384 42.6666666666667H316.3733333333334C307.6266666666667 17.7066666666667 283.9466666666667 0 256 0C220.5866666666667 0 192 28.5866666666667 192 64S220.5866666666667 128 256 128M256 85.3333333333334C244.2666666666667 85.3333333333334 234.6666666666667 75.7333333333334 234.6666666666667 64S244.2666666666667 42.6666666666667 256 42.6666666666667S277.3333333333333 52.2666666666667 277.3333333333333 64S267.7333333333334 85.3333333333334 256 85.3333333333334M384 384C407.4666666666667 384 426.6666666666667 364.8 426.6666666666667 341.3333333333334V234.6666666666667C426.6666666666667 211.2 407.4666666666667 192 384 192H316.8C307.84 192 299.7333333333333 186.88 296.5333333333333 178.56C292.2666666666667 165.76 282.24 155.52 269.2266666666667 151.2533333333333C247.04 144 222.72 156.16 215.4666666666667 178.56C212.2666666666667 186.88 204.16 192 195.2000000000001 192H128C104.5333333333333 192 85.3333333333333 211.2 85.3333333333333 234.6666666666667V341.3333333333334C85.3333333333333 364.8 104.5333333333333 384 128 384H384M384 234.6666666666667V341.3333333333334H128V234.6666666666667H227.2C232.5333333333334 246.1866666666667 243.4133333333334 254.08 256 256C268.5866666666667 254.08 279.4666666666667 246.1866666666667 284.8 234.6666666666667H384z" /></svg>