<?xml version="1.0" encoding="UTF-8"?><!DOCTYPE svg PUBLIC "-//W3C//DTD SVG 1.1//EN" "http://www.w3.org/Graphics/SVG/1.1/DTD/svg11.dtd"><svg xmlns="http://www.w3.org/2000/svg" xmlns:xlink="http://www.w3.org/1999/xlink" version="1.1" width="512" height="512" viewBox="0 0 512 512">    <path fill="#ffffff" transform="scale(1, -1) translate(0, -448)" glyph-name="video-input-component" unicode="&#xF83F;" horiz-adv-x="512" d=" M106.6666666666667 405.3333333333333C106.6666666666667 417.0666666666667 97.0666666666667 426.6666666666667 85.3333333333333 426.6666666666667S64 417.0666666666667 64 405.3333333333333V320H21.3333333333333V192H149.3333333333333V320H106.6666666666667V405.3333333333333M192 106.6666666666667C192 78.9333333333333 209.92 55.4666666666667 234.6666666666667 46.5066666666667V-42.6666666666666H277.3333333333333V46.5066666666667C302.08 55.2533333333333 320 78.72 320 106.6666666666667V149.3333333333334H192V106.6666666666667M21.3333333333333 106.6666666666667C21.3333333333333 78.9333333333333 39.2533333333333 55.4666666666667 64 46.5066666666667V-42.6666666666666H106.6666666666667V46.5066666666667C131.4133333333333 55.4666666666667 149.3333333333333 78.9333333333333 149.3333333333333 106.6666666666667V149.3333333333334H21.3333333333333V106.6666666666667M448 320V405.3333333333333C448 417.0666666666667 438.4 426.6666666666667 426.6666666666667 426.6666666666667S405.3333333333333 417.0666666666667 405.3333333333333 405.3333333333333V320H362.6666666666667V192H490.6666666666666V320H448M277.3333333333333 405.3333333333333C277.3333333333333 417.0666666666667 267.7333333333334 426.6666666666667 256 426.6666666666667S234.6666666666667 417.0666666666667 234.6666666666667 405.3333333333333V320H192V192H320V320H277.3333333333333V405.3333333333333M362.6666666666667 106.6666666666667C362.6666666666667 78.9333333333333 380.5866666666667 55.4666666666667 405.3333333333333 46.5066666666667V-42.6666666666666H448V46.5066666666667C472.7466666666667 55.2533333333333 490.6666666666666 78.72 490.6666666666666 106.6666666666667V149.3333333333334H362.6666666666667V106.6666666666667z" /></svg>