<?xml version="1.0" encoding="UTF-8"?><!DOCTYPE svg PUBLIC "-//W3C//DTD SVG 1.1//EN" "http://www.w3.org/Graphics/SVG/1.1/DTD/svg11.dtd"><svg xmlns="http://www.w3.org/2000/svg" xmlns:xlink="http://www.w3.org/1999/xlink" version="1.1" width="512" height="512" viewBox="0 0 512 512">    <path fill="#ffffff" transform="scale(1, -1) translate(0, -448)" glyph-name="chemical-weapon" unicode="&#xF13B;" horiz-adv-x="512" d=" M234.6666666666667 280.9600000000001C209.7066666666667 289.7066666666667 192 313.6 192 341.3333333333334C192 376.7466666666667 220.5866666666667 405.3333333333333 256 405.3333333333333S320 376.7466666666667 320 341.3333333333334C320 313.3866666666667 302.08 289.7066666666667 277.3333333333333 280.9600000000001V221.0133333333333C270.5066666666667 222.9333333333333 263.4666666666667 224 256 224S241.4933333333334 222.9333333333333 234.6666666666667 221.0133333333333V280.9600000000001M390.4 -2.1333333333333C366.08 11.7333333333333 354.56 38.8266666666667 359.2533333333334 64.8533333333334L307.2 94.9333333333333C317.44 104.7466666666667 325.12 117.3333333333334 328.5333333333333 131.84L380.5866666666667 101.76C400.64 119.04 430.08 122.4533333333334 454.1866666666666 108.5866666666667C484.9066666666666 90.8800000000001 495.36 51.84 477.6533333333333 21.3333333333334C459.9466666666667 -9.3866666666667 420.9066666666667 -19.84 390.4 -2.1333333333333M57.6 108.8C81.7066666666667 122.6666666666667 111.1466666666667 119.04 131.2 101.9733333333334L183.4666666666667 132.0533333333334C186.88 117.3333333333334 194.3466666666667 104.96 204.8 95.1466666666667L152.5333333333334 65.0666666666667C157.44 39.0400000000001 145.7066666666667 11.7333333333333 121.6 -2.1333333333333C90.88 -19.8399999999999 51.84 -9.3866666666666 34.1333333333334 21.3333333333334C16.4266666666667 51.8400000000001 26.88 91.0933333333334 57.6 108.8000000000001M298.6666666666667 149.3333333333334C298.6666666666667 125.8666666666667 279.4666666666667 106.6666666666667 256 106.6666666666667C232.32 106.6666666666667 213.3333333333333 125.8666666666667 213.3333333333333 149.3333333333334S232.5333333333334 192 256 192C279.68 192 298.6666666666667 172.8 298.6666666666667 149.3333333333334M362.6666666666667 149.3333333333334L362.0266666666667 137.1733333333334L330.6666666666667 155.52C328.5333333333333 178.3466666666667 316.3733333333333 198.1866666666667 298.6666666666667 210.7733333333333V247.2533333333334C336.4266666666666 230.6133333333334 362.6666666666667 193.0666666666667 362.6666666666667 149.3333333333334M319.36 63.36C301.6533333333333 50.3466666666667 279.68 42.6666666666667 256 42.6666666666667S210.3466666666666 50.3466666666667 192.64 64L224 81.7066666666667C233.8133333333334 77.2266666666666 244.6933333333334 74.6666666666667 256 74.6666666666667S277.9733333333333 77.2266666666667 288 81.7066666666667L319.36 63.36M149.9733333333333 137.3866666666667L149.3333333333333 149.3333333333334C149.3333333333333 193.0666666666667 175.5733333333333 230.6133333333334 213.3333333333333 247.04V210.56C195.6266666666667 198.1866666666667 183.4666666666667 178.3466666666667 181.3333333333333 155.7333333333334L149.9733333333333 137.3866666666667z" /></svg>