<?xml version="1.0" encoding="UTF-8"?><!DOCTYPE svg PUBLIC "-//W3C//DTD SVG 1.1//EN" "http://www.w3.org/Graphics/SVG/1.1/DTD/svg11.dtd"><svg xmlns="http://www.w3.org/2000/svg" xmlns:xlink="http://www.w3.org/1999/xlink" version="1.1" width="512" height="512" viewBox="0 0 512 512">    <path fill="#ffffff" transform="scale(1, -1) translate(0, -448)" glyph-name="weather-snowy-rainy" unicode="&#xF67E;" horiz-adv-x="512" d=" M394.6666666666667 49.7066666666667C394.6666666666667 22.1866666666667 373.3333333333333 0 346.6666666666667 0S298.6666666666667 22.1866666666667 298.6666666666667 49.7066666666667C298.6666666666667 82.7733333333333 346.6666666666667 138.6666666666666 346.6666666666667 138.6666666666666S394.6666666666667 82.7733333333333 394.6666666666667 49.7066666666667M85.3333333333333 77.6533333333334C82.3466666666667 89.1733333333334 89.1733333333333 101.3333333333334 100.9066666666667 104.3200000000001L149.3333333333333 117.3333333333334L113.7066666666667 152.3200000000001C105.1733333333333 160.8533333333334 105.1733333333333 174.72 113.7066666666667 183.4666666666667C122.24 192.0000000000001 136.5333333333333 192.0000000000001 144.8533333333333 183.4666666666667L180.2666666666667 148.2666666666667L192.8533333333333 196.2666666666667C195.84 208.2133333333334 208 215.0400000000001 219.52 211.84C231.4666666666667 208.8533333333334 238.2933333333333 196.6933333333334 234.6666666666667 184.96L222.2933333333333 136.96L270.2933333333333 149.3333333333334C282.0266666666667 152.96 294.1866666666666 146.1333333333334 297.1733333333333 134.1866666666667C300.3733333333334 122.6666666666668 293.5466666666666 110.5066666666668 281.6 107.5200000000001L233.6 94.9333333333334L268.8 59.5200000000001C277.3333333333333 51.2 277.3333333333333 36.9066666666668 268.8 28.3733333333334C260.2666666666667 19.8400000000001 246.1866666666667 19.8400000000001 237.8666666666667 28.3733333333334L202.6666666666667 64L189.6533333333333 15.5733333333334C186.6666666666667 3.6266666666667 174.5066666666667 -2.9866666666667 162.9866666666667 0C151.04 2.9866666666667 144.4266666666667 15.1466666666667 147.4133333333333 26.8800000000001L160 74.6666666666667L112.2133333333333 62.08C100.48 59.0933333333334 88.32 65.7066666666667 85.3333333333333 77.6533333333334M21.3333333333333 213.3333333333334C21.3333333333333 272.2133333333334 69.12 320 128 320C149.3333333333333 370.1333333333334 198.4 405.3333333333333 256 405.3333333333333C329.1733333333333 405.3333333333333 389.12 348.5866666666667 394.6666666666667 276.6933333333334L405.3333333333333 277.3333333333334C452.48 277.3333333333334 490.6666666666666 239.1466666666667 490.6666666666666 192S452.48 106.6666666666667 405.3333333333333 106.6666666666667C393.6 106.6666666666667 384 116.2666666666667 384 128S393.6 149.3333333333334 405.3333333333333 149.3333333333334C428.8 149.3333333333334 448 168.5333333333334 448 192S428.8 234.6666666666667 405.3333333333333 234.6666666666667H362.6666666666667V256C362.6666666666667 314.88 314.88 362.6666666666667 256 362.6666666666667C202.6666666666667 362.6666666666667 158.9333333333333 323.8400000000001 150.6133333333333 273.28C143.5733333333333 275.8400000000001 135.8933333333333 277.3333333333334 128 277.3333333333334C92.5866666666667 277.3333333333334 64 248.7466666666667 64 213.3333333333334C64 195.2 71.4666666666667 178.9866666666667 83.4133333333333 167.2533333333333C91.0933333333333 158.9333333333333 90.88 145.92 82.7733333333333 137.8133333333334C74.6666666666667 129.4933333333334 60.8 129.4933333333334 52.6933333333333 137.8133333333334C33.28 157.2266666666667 21.3333333333333 183.8933333333333 21.3333333333333 213.3333333333334z" /></svg>