<?xml version="1.0" encoding="UTF-8"?><!DOCTYPE svg PUBLIC "-//W3C//DTD SVG 1.1//EN" "http://www.w3.org/Graphics/SVG/1.1/DTD/svg11.dtd"><svg xmlns="http://www.w3.org/2000/svg" xmlns:xlink="http://www.w3.org/1999/xlink" version="1.1" width="512" height="512" viewBox="0 0 512 512">    <path fill="#ffffff" transform="scale(1, -1) translate(0, -448)" glyph-name="null" unicode="&#xF7E1;" horiz-adv-x="512" d=" M256 405.3333333333333C295.4666666666667 405.3333333333333 331.7333333333334 388.6933333333334 360.5333333333333 360.5333333333334L396.8 406.8266666666667L430.5066666666667 380.5866666666667L388.2666666666667 326.8266666666667C412.3733333333333 289.92 426.6666666666667 243.2 426.6666666666667 192C426.6666666666667 74.6666666666667 350.2933333333334 -21.3333333333333 256 -21.3333333333333C216.5333333333333 -21.3333333333333 180.2666666666667 -4.6933333333333 151.4666666666667 23.4666666666667L115.2 -22.8266666666667L81.4933333333333 3.4133333333334L123.7333333333333 57.1733333333334C99.6266666666667 94.08 85.3333333333333 140.8 85.3333333333333 192C85.3333333333333 309.3333333333334 161.7066666666667 405.3333333333333 256 405.3333333333333M256 362.6666666666667C185.3866666666667 362.6666666666667 128 286.2933333333334 128 192C128 155.0933333333334 136.7466666666667 120.96 151.68 93.0133333333333L334.2933333333334 327.04C312.7466666666667 349.44 285.44 362.6666666666667 256 362.6666666666667M256 21.3333333333334C326.6133333333334 21.3333333333334 384 97.7066666666667 384 192C384 228.9066666666667 375.2533333333334 263.04 360.32 290.9866666666667L177.7066666666667 56.96C199.2533333333333 34.5600000000001 226.56 21.3333333333334 256 21.3333333333334z" /></svg>