<?xml version="1.0" encoding="UTF-8"?><!DOCTYPE svg PUBLIC "-//W3C//DTD SVG 1.1//EN" "http://www.w3.org/Graphics/SVG/1.1/DTD/svg11.dtd"><svg xmlns="http://www.w3.org/2000/svg" xmlns:xlink="http://www.w3.org/1999/xlink" version="1.1" width="512" height="512" viewBox="0 0 512 512">    <path fill="#ffffff" transform="scale(1, -1) translate(0, -448)" glyph-name="lightbulb-on-outline" unicode="&#xF6E8;" horiz-adv-x="512" d=" M426.6666666666667 213.3333333333334H490.6666666666666V170.6666666666667H426.6666666666667V213.3333333333334M21.3333333333333 213.3333333333334H85.3333333333333V170.6666666666667H21.3333333333333V213.3333333333334M277.3333333333333 426.6666666666667V362.6666666666667H234.6666666666667V426.6666666666667H277.3333333333333M104.96 373.3333333333334L150.4 327.68L120.1066666666667 297.6L74.6666666666667 342.8266666666667L104.96 373.3333333333334M361.6 327.8933333333333L406.8266666666667 373.3333333333334L437.3333333333333 342.8266666666667L391.8933333333333 297.6L361.6 327.8933333333333M256 320C326.6133333333334 320 384 262.6133333333334 384 192C384 144.64 358.1866666666666 103.2533333333333 320 81.0666666666667V42.6666666666667C320 30.9333333333333 310.4 21.3333333333334 298.6666666666667 21.3333333333334H213.3333333333333C201.6 21.3333333333334 192 30.9333333333333 192 42.6666666666667V81.0666666666667C153.8133333333333 103.2533333333333 128 144.6400000000001 128 192C128 262.6133333333334 185.3866666666667 320 256 320M298.6666666666667 0V-21.3333333333333C298.6666666666667 -33.0666666666667 289.0666666666667 -42.6666666666666 277.3333333333333 -42.6666666666666H234.6666666666667C222.9333333333333 -42.6666666666666 213.3333333333333 -33.0666666666667 213.3333333333333 -21.3333333333333V0H298.6666666666667M234.6666666666667 64H277.3333333333333V109.44C314.24 118.8266666666667 341.3333333333333 152.32 341.3333333333333 192C341.3333333333333 239.1466666666667 303.1466666666667 277.3333333333334 256 277.3333333333334S170.6666666666667 239.1466666666667 170.6666666666667 192C170.6666666666667 152.3200000000001 197.76 118.8266666666667 234.6666666666667 109.44V64z" /></svg>