<?xml version="1.0" encoding="UTF-8"?><!DOCTYPE svg PUBLIC "-//W3C//DTD SVG 1.1//EN" "http://www.w3.org/Graphics/SVG/1.1/DTD/svg11.dtd"><svg xmlns="http://www.w3.org/2000/svg" xmlns:xlink="http://www.w3.org/1999/xlink" version="1.1" width="512" height="512" viewBox="0 0 512 512">    <path fill="#ffffff" transform="scale(1, -1) translate(0, -448)" glyph-name="crystal-ball" unicode="&#xFB14;" horiz-adv-x="512" d=" M200.1066666666667 269.2266666666667L245.3333333333333 248.7466666666667L290.56 269.2266666666667L270.08 224L290.56 178.7733333333333L245.3333333333333 199.2533333333333L200.1066666666666 178.7733333333333L220.5866666666667 224L200.1066666666666 269.2266666666667M352 394.6666666666667L375.2533333333334 332.5866666666667L437.3333333333333 309.3333333333334L375.2533333333334 286.0800000000001L352 224L328.7466666666667 286.0800000000001L266.6666666666667 309.3333333333334L328.7466666666667 332.5866666666667L352 394.6666666666667M128 42.6666666666667H149.3333333333333V64C149.3333333333333 75.7333333333334 158.9333333333333 85.3333333333334 170.6666666666667 85.3333333333334H176.2133333333333C128 113.0666666666667 96 164.6933333333334 96 224C96 312.32 167.68 384 256 384C278.4 384 299.7333333333334 379.3066666666667 319.1466666666667 370.9866666666667L311.2533333333334 350.0800000000001L280.9600000000001 338.7733333333333C272.8533333333333 340.48 264.5333333333333 341.3333333333334 256 341.3333333333334C191.1466666666667 341.3333333333334 138.6666666666667 288.8533333333334 138.6666666666667 224S191.1466666666667 106.6666666666667 256 106.6666666666667C318.08 106.6666666666667 369.0666666666667 155.0933333333334 373.3333333333333 216.1066666666667L392.7466666666667 268.5866666666667L407.8933333333333 274.3466666666667C413.2266666666667 258.56 416 241.4933333333334 416 224C416 164.6933333333334 384 113.0666666666667 335.7866666666667 85.3333333333334H341.3333333333333C353.0666666666667 85.3333333333334 362.6666666666667 75.7333333333334 362.6666666666667 64V42.6666666666667H384C407.4666666666667 42.6666666666667 426.6666666666667 23.4666666666667 426.6666666666667 0V-21.3333333333333H85.3333333333333V0C85.3333333333333 23.4666666666667 104.5333333333333 42.6666666666667 128 42.6666666666667z" /></svg>