<?xml version="1.0" encoding="UTF-8"?><!DOCTYPE svg PUBLIC "-//W3C//DTD SVG 1.1//EN" "http://www.w3.org/Graphics/SVG/1.1/DTD/svg11.dtd"><svg xmlns="http://www.w3.org/2000/svg" xmlns:xlink="http://www.w3.org/1999/xlink" version="1.1" width="512" height="512" viewBox="0 0 512 512">    <path fill="#ffffff" transform="scale(1, -1) translate(0, -448)" glyph-name="ladybug" unicode="&#xF82C;" horiz-adv-x="512" d=" M256 341.3333333333334C271.7866666666667 341.3333333333334 287.36 339.2000000000001 301.8666666666667 335.1466666666667L336.64 395.52C342.6133333333334 405.3333333333333 355.6266666666667 409.1733333333334 365.8666666666667 403.2C376.1066666666667 397.44 379.5200000000001 384 373.3333333333334 374.1866666666667L341.3333333333333 318.5066666666667C367.36 303.36 388.9066666666667 281.8133333333334 403.84 256H108.16C123.0933333333333 281.8133333333334 144.64 303.36 170.6666666666667 318.5066666666667L138.6666666666667 374.1866666666667C132.48 384 135.8933333333333 397.44 146.1333333333333 403.2C156.3733333333333 409.1733333333334 169.3866666666667 405.3333333333334 175.36 395.52L210.1333333333333 335.1466666666667C224.64 339.2000000000001 240.2133333333333 341.3333333333334 256 341.3333333333334M426.6666666666667 170.6666666666667C426.6666666666667 81.7066666666667 358.8266666666667 8.7466666666667 272 0.64V224H418.1333333333334C423.6800000000001 207.1466666666667 426.6666666666667 189.2266666666667 426.6666666666667 170.6666666666667M85.3333333333333 170.6666666666667C85.3333333333333 189.2266666666667 88.32 207.1466666666667 93.8666666666667 224H240V0.64C153.1733333333333 8.7466666666667 85.3333333333333 81.7066666666667 85.3333333333333 170.6666666666667z" /></svg>