<?xml version="1.0" encoding="UTF-8"?><!DOCTYPE svg PUBLIC "-//W3C//DTD SVG 1.1//EN" "http://www.w3.org/Graphics/SVG/1.1/DTD/svg11.dtd"><svg xmlns="http://www.w3.org/2000/svg" xmlns:xlink="http://www.w3.org/1999/xlink" version="1.1" width="512" height="512" viewBox="0 0 512 512">    <path fill="#ffffff" transform="scale(1, -1) translate(0, -448)" glyph-name="bluetooth-audio" unicode="&#xF0B0;" horiz-adv-x="512" d=" M274.7733333333333 100.48L234.6666666666667 60.3733333333333V140.5866666666667M234.6666666666667 323.6266666666667L274.7733333333333 283.52L234.6666666666667 243.6266666666667M335.1466666666667 283.52L213.3333333333333 405.3333333333333H192V243.6266666666667L94.08 341.3333333333334L64 311.2533333333334L183.2533333333333 192L64 72.96L94.08 42.6666666666667L192 140.5866666666667V-21.3333333333333H213.3333333333333L335.1466666666667 100.48L243.4133333333334 192M416.64 304.8533333333334L389.5466666666667 277.3333333333334C402.9866666666667 252.1600000000001 410.6666666666667 222.9333333333333 410.6666666666667 192C410.6666666666667 161.0666666666667 402.9866666666667 131.84 389.5466666666667 106.6666666666667L415.1466666666667 80.64C435.84 113.4933333333334 448 152.1066666666667 448 193.92C448 234.6666666666667 436.48 272.4266666666667 416.64 304.8533333333334M303.7866666666667 192L353.28 142.2933333333334C359.2533333333334 157.8666666666667 362.6666666666667 174.5066666666667 362.6666666666667 192C362.6666666666667 209.4933333333334 359.2533333333334 226.1333333333334 353.4933333333334 241.4933333333334L303.7866666666667 192z" /></svg>