<?xml version="1.0" encoding="UTF-8"?><!DOCTYPE svg PUBLIC "-//W3C//DTD SVG 1.1//EN" "http://www.w3.org/Graphics/SVG/1.1/DTD/svg11.dtd"><svg xmlns="http://www.w3.org/2000/svg" xmlns:xlink="http://www.w3.org/1999/xlink" version="1.1" width="512" height="512" viewBox="0 0 512 512">    <path fill="#ffffff" transform="scale(1, -1) translate(0, -448)" glyph-name="file-eye" unicode="&#xFDA6;" horiz-adv-x="512" d=" M362.6666666666667 64C374.6133333333333 64 384 54.6133333333333 384 42.6666666666667S374.6133333333333 21.3333333333334 362.6666666666667 21.3333333333334S341.3333333333333 30.72 341.3333333333333 42.6666666666667S350.7200000000001 64 362.6666666666667 64M362.6666666666667 128C304.4266666666666 128 254.7200000000001 92.5866666666667 234.6666666666667 42.6666666666667C254.72 -7.2533333333333 304.4266666666666 -42.6666666666666 362.6666666666667 -42.6666666666666S470.6133333333333 -7.2533333333333 490.6666666666666 42.6666666666667C470.6133333333333 92.5866666666667 420.9066666666667 128 362.6666666666667 128M362.6666666666667 -10.6666666666666C333.2266666666667 -10.6666666666666 309.3333333333333 13.2266666666667 309.3333333333333 42.6666666666667S333.2266666666667 96 362.6666666666667 96S416 72.1066666666667 416 42.6666666666667S392.1066666666667 -10.6666666666666 362.6666666666667 -10.6666666666666M194.9866666666667 26.6666666666667L188.8 42.6666666666667L194.9866666666666 58.4533333333333C222.5066666666667 126.72 288 170.6666666666667 362.6666666666667 170.6666666666667C385.0666666666667 170.6666666666667 406.6133333333333 166.1866666666667 426.6666666666667 158.72V277.3333333333334L298.6666666666667 405.3333333333333H128C104.32 405.3333333333333 85.3333333333333 386.3466666666667 85.3333333333333 362.6666666666667V21.3333333333334C85.3333333333333 -2.1333333333333 104.5333333333333 -21.3333333333333 128 -21.3333333333333H224C212.2666666666667 -7.2533333333333 202.6666666666667 8.96 194.9866666666667 26.6666666666667M277.3333333333333 373.3333333333334L394.6666666666667 256H277.3333333333333V373.3333333333334z" /></svg>