<?xml version="1.0" encoding="UTF-8"?><!DOCTYPE svg PUBLIC "-//W3C//DTD SVG 1.1//EN" "http://www.w3.org/Graphics/SVG/1.1/DTD/svg11.dtd"><svg xmlns="http://www.w3.org/2000/svg" xmlns:xlink="http://www.w3.org/1999/xlink" version="1.1" width="512" height="512" viewBox="0 0 512 512">    <path fill="#ffffff" transform="scale(1, -1) translate(0, -448)" glyph-name="presentation-play" unicode="&#xF429;" horiz-adv-x="512" d=" M42.6666666666667 384H213.3333333333333C213.3333333333333 407.4666666666667 232.5333333333334 426.6666666666667 256 426.6666666666667S298.6666666666667 407.4666666666667 298.6666666666667 384H469.3333333333333V341.3333333333334H448V106.6666666666667H325.3333333333333L362.6666666666667 -21.3333333333333H320L282.6666666666667 106.6666666666667H229.3333333333333L192 -21.3333333333333H149.3333333333333L186.6666666666667 106.6666666666667H64V341.3333333333334H42.6666666666667V384M106.6666666666667 341.3333333333334V149.3333333333334H405.3333333333333V341.3333333333334H106.6666666666667M252.8 195.2C250.88 193.28 248.32 192 245.3333333333333 192C239.36 192 234.6666666666667 196.6933333333334 234.6666666666667 202.6666666666667V288C234.6666666666667 293.9733333333334 239.36 298.6666666666667 245.3333333333333 298.6666666666667C248.32 298.6666666666667 250.88 297.3866666666667 252.8 295.4666666666667L282.6666666666667 265.8133333333334C289.4933333333334 258.9866666666667 296.32 252.16 296.32 245.3333333333334C296.32 238.5066666666667 289.4933333333334 231.68 282.6666666666667 224.8533333333333L252.8 195.2z" /></svg>