<?xml version="1.0" encoding="UTF-8"?><!DOCTYPE svg PUBLIC "-//W3C//DTD SVG 1.1//EN" "http://www.w3.org/Graphics/SVG/1.1/DTD/svg11.dtd"><svg xmlns="http://www.w3.org/2000/svg" xmlns:xlink="http://www.w3.org/1999/xlink" version="1.1" width="512" height="512" viewBox="0 0 512 512">    <path fill="#ffffff" transform="scale(1, -1) translate(0, -448)" glyph-name="hinduism" unicode="&#xF972;" horiz-adv-x="512" d=" M320 405.3333333333333L288 373.3333333333334L320 341.3333333333334L352 373.3333333333334L320 405.3333333333333M234.6666666666667 384C213.3333333333333 256 362.6666666666667 234.6666666666667 426.6666666666667 320L384 352C362.6666666666667 320 277.3333333333333 277.3333333333334 234.6666666666667 384M192 298.6666666666667C149.3333333333333 298.6666666666667 96 266.6666666666667 96 266.6666666666667L128 213.3333333333334C149.3333333333333 234.6666666666667 192 245.3333333333334 213.3333333333333 234.6666666666667C256 213.3333333333334 192 170.6666666666667 149.3333333333333 192V117.3333333333334C213.3333333333333 149.3333333333334 256 106.6666666666667 234.6666666666667 74.6666666666667C170.6666666666667 -21.3333333333333 64 106.6666666666667 64 170.6666666666667C21.3333333333333 42.6666666666667 128 -21.3333333333333 192 -21.3333333333333S298.6666666666667 21.3333333333334 266.6666666666667 128H298.6666666666667C266.6666666666667 32 384 -64 448 64C469.3333333333333 106.6666666666667 469.3333333333333 245.3333333333334 362.6666666666667 245.3333333333334C277.3333333333333 245.3333333333334 298.6666666666667 128 224 160C298.6666666666667 234.6666666666667 256 298.6666666666667 192 298.6666666666667M405.3333333333333 192C469.3333333333333 128 320 0 320 128C320 170.6666666666667 362.6666666666667 224 405.3333333333333 192z" /></svg>