<?xml version="1.0" encoding="UTF-8"?><!DOCTYPE svg PUBLIC "-//W3C//DTD SVG 1.1//EN" "http://www.w3.org/Graphics/SVG/1.1/DTD/svg11.dtd"><svg xmlns="http://www.w3.org/2000/svg" xmlns:xlink="http://www.w3.org/1999/xlink" version="1.1" width="512" height="512" viewBox="0 0 512 512">    <path fill="#ffffff" transform="scale(1, -1) translate(0, -448)" glyph-name="account-circle" unicode="&#xF009;" horiz-adv-x="512" d=" M256 38.4C202.6666666666667 38.4 155.52 65.7066666666667 128 106.6666666666667C128.64 149.3333333333334 213.3333333333333 172.8 256 172.8S383.36 149.3333333333334 384 106.6666666666667C356.48 65.7066666666667 309.3333333333333 38.4 256 38.4M256 341.3333333333334C291.4133333333333 341.3333333333334 320 312.7466666666667 320 277.3333333333334S291.4133333333333 213.3333333333334 256 213.3333333333334S192 241.92 192 277.3333333333334S220.5866666666667 341.3333333333334 256 341.3333333333334M256 405.3333333333333C138.24 405.3333333333333 42.6666666666667 309.76 42.6666666666667 192S138.24 -21.3333333333333 256 -21.3333333333333S469.3333333333333 74.24 469.3333333333333 192C469.3333333333333 309.9733333333334 373.3333333333333 405.3333333333333 256 405.3333333333333z" /></svg>