<?xml version="1.0" encoding="UTF-8"?><!DOCTYPE svg PUBLIC "-//W3C//DTD SVG 1.1//EN" "http://www.w3.org/Graphics/SVG/1.1/DTD/svg11.dtd"><svg xmlns="http://www.w3.org/2000/svg" xmlns:xlink="http://www.w3.org/1999/xlink" version="1.1" width="512" height="512" viewBox="0 0 512 512">    <path fill="#ffffff" transform="scale(1, -1) translate(0, -448)" glyph-name="phone-bluetooth" unicode="&#xF3F3;" horiz-adv-x="512" d=" M426.6666666666667 117.3333333333334C400 117.3333333333334 374.4 121.6 350.5066666666667 129.4933333333334C343.04 131.84 334.72 130.1333333333333 328.7466666666667 124.16L281.8133333333334 77.2266666666667C221.44 107.9466666666667 171.9466666666667 157.4400000000001 141.2266666666667 217.8133333333334L188.16 264.7466666666667C194.1333333333333 270.7200000000001 195.84 279.04 193.4933333333334 286.5066666666667C185.6 310.4 181.3333333333333 336 181.3333333333333 362.6666666666667C181.3333333333333 374.4 171.7333333333334 384 160 384H85.3333333333333C73.6 384 64 374.4 64 362.6666666666667C64 162.3466666666667 226.3466666666667 0 426.6666666666667 0C438.4 0 448 9.6 448 21.3333333333334V96C448 107.7333333333334 438.4 117.3333333333334 426.6666666666667 117.3333333333334M384 294.1866666666667L404.0533333333334 274.3466666666667L384 254.2933333333334M384 385.92L404.0533333333334 365.8666666666667L384 345.8133333333334M313.8133333333334 245.3333333333334L362.6666666666667 294.1866666666667V213.3333333333334H373.3333333333333L434.1333333333334 274.3466666666667L388.48 320L434.1333333333334 365.8666666666667L373.3333333333333 426.6666666666667H362.6666666666667V345.8133333333334L313.8133333333334 394.6666666666667L298.6666666666667 379.52L358.1866666666666 320L298.6666666666667 260.48L313.8133333333334 245.3333333333334z" /></svg>