<?xml version="1.0" encoding="UTF-8"?><!DOCTYPE svg PUBLIC "-//W3C//DTD SVG 1.1//EN" "http://www.w3.org/Graphics/SVG/1.1/DTD/svg11.dtd"><svg xmlns="http://www.w3.org/2000/svg" xmlns:xlink="http://www.w3.org/1999/xlink" version="1.1" width="512" height="512" viewBox="0 0 512 512">    <path fill="#ffffff" transform="scale(1, -1) translate(0, -448)" glyph-name="target-variant" unicode="&#xFA76;" horiz-adv-x="512" d=" M471.04 212.48H428.3733333333333V362.6666666666667H278.3999999999999V405.3333333333333H235.5199999999999V362.6666666666667H85.3333333333333V212.48H42.6666666666667V169.6H85.3333333333333V19.6266666666667H235.52V-23.04H278.4V19.6266666666667H428.3733333333333V169.6000000000001H471.04V212.4800000000001M385.4933333333334 62.5066666666668H278.4V105.3866666666668H235.52V62.5066666666668H128V169.6000000000001H171.3066666666667V212.4800000000001H128V320H235.52V276.6933333333334H278.4V320H385.4933333333334V212.48H342.6133333333334V169.6H385.4933333333334V62.5066666666667M278.4 190.9333333333333C278.4 179.2 268.8 169.6 257.0666666666667 169.6S235.52 179.2 235.52 190.9333333333333S245.3333333333334 212.48 257.0666666666667 212.48S278.4 202.6666666666666 278.4 190.9333333333333z" /></svg>