<?xml version="1.0" encoding="UTF-8"?><!DOCTYPE svg PUBLIC "-//W3C//DTD SVG 1.1//EN" "http://www.w3.org/Graphics/SVG/1.1/DTD/svg11.dtd"><svg xmlns="http://www.w3.org/2000/svg" xmlns:xlink="http://www.w3.org/1999/xlink" version="1.1" width="512" height="512" viewBox="0 0 512 512">    <path fill="#ffffff" transform="scale(1, -1) translate(0, -448)" glyph-name="database" unicode="&#xF1B8;" horiz-adv-x="512" d=" M256 384C161.7066666666667 384 85.3333333333333 345.8133333333334 85.3333333333333 298.6666666666667S161.7066666666667 213.3333333333334 256 213.3333333333334S426.6666666666667 251.52 426.6666666666667 298.6666666666667S350.2933333333334 384 256 384M85.3333333333333 256V192C85.3333333333333 144.8533333333334 161.7066666666667 106.6666666666667 256 106.6666666666667S426.6666666666667 144.8533333333334 426.6666666666667 192V256C426.6666666666667 208.8533333333333 350.2933333333334 170.6666666666667 256 170.6666666666667S85.3333333333333 208.8533333333333 85.3333333333333 256M85.3333333333333 149.3333333333334V85.3333333333334C85.3333333333333 38.1866666666667 161.7066666666667 0 256 0S426.6666666666667 38.1866666666667 426.6666666666667 85.3333333333334V149.3333333333334C426.6666666666667 102.1866666666667 350.2933333333334 64 256 64S85.3333333333333 102.1866666666667 85.3333333333333 149.3333333333334z" /></svg>