<?xml version="1.0" encoding="UTF-8"?><!DOCTYPE svg PUBLIC "-//W3C//DTD SVG 1.1//EN" "http://www.w3.org/Graphics/SVG/1.1/DTD/svg11.dtd"><svg xmlns="http://www.w3.org/2000/svg" xmlns:xlink="http://www.w3.org/1999/xlink" version="1.1" width="512" height="512" viewBox="0 0 512 512">    <path fill="#ffffff" transform="scale(1, -1) translate(0, -448)" glyph-name="android-head" unicode="&#xF78F;" horiz-adv-x="512" d=" M170.6666666666667 202.6666666666667C155.9466666666667 202.6666666666667 144 190.72 144 176S155.9466666666667 149.3333333333334 170.6666666666667 149.3333333333334S197.3333333333333 161.28 197.3333333333333 176S185.3866666666667 202.6666666666667 170.6666666666667 202.6666666666667M341.3333333333333 202.6666666666667C326.6133333333334 202.6666666666667 314.6666666666667 190.72 314.6666666666667 176S326.6133333333334 149.3333333333334 341.3333333333333 149.3333333333334S368 161.28 368 176S356.0533333333334 202.6666666666667 341.3333333333333 202.6666666666667M256 298.6666666666667C288 298.6666666666667 317.8666666666667 291.6266666666667 345.1733333333333 279.2533333333334L391.2533333333334 325.3333333333334C399.5733333333333 333.6533333333333 413.0133333333333 333.6533333333333 421.3333333333333 325.3333333333334C429.6533333333333 317.0133333333333 429.6533333333333 303.5733333333334 421.3333333333333 295.2533333333334L382.9333333333333 256.8533333333334C435.4133333333333 217.8133333333334 469.3333333333333 155.52 469.3333333333333 85.3333333333334H42.6666666666667C42.6666666666667 155.52 76.5866666666667 217.8133333333334 129.0666666666667 256.8533333333334L90.6666666666667 295.2533333333334C82.3466666666667 303.5733333333333 82.3466666666667 317.0133333333333 90.6666666666667 325.3333333333333C98.9866666666667 333.6533333333333 112.4266666666667 333.6533333333333 120.7466666666667 325.3333333333333L166.8266666666667 279.2533333333334C194.1333333333333 291.6266666666667 224 298.6666666666667 256 298.6666666666667z" /></svg>