<?xml version="1.0" encoding="UTF-8"?><!DOCTYPE svg PUBLIC "-//W3C//DTD SVG 1.1//EN" "http://www.w3.org/Graphics/SVG/1.1/DTD/svg11.dtd"><svg xmlns="http://www.w3.org/2000/svg" xmlns:xlink="http://www.w3.org/1999/xlink" version="1.1" width="512" height="512" viewBox="0 0 512 512">    <path fill="#ffffff" transform="scale(1, -1) translate(0, -448)" glyph-name="gavel" unicode="&#xF29B;" horiz-adv-x="512" d=" M49.0666666666667 15.36L253.8666666666666 220.16L224 250.4533333333333L208.6399999999999 235.3066666666666C200.3199999999999 226.9866666666666 186.88 226.9866666666666 178.56 235.3066666666666L163.4133333333333 250.4533333333333C155.0933333333333 258.7733333333333 155.0933333333333 272.2133333333333 163.4133333333333 280.5333333333333L284.1599999999999 401.28C292.4799999999999 409.6 305.9199999999999 409.6 314.2399999999999 401.28L329.3866666666666 386.1333333333334C337.7066666666666 377.8133333333333 337.7066666666666 364.3733333333334 329.3866666666666 356.0533333333333L314.2399999999999 341.3333333333333L344.5333333333333 310.8266666666667C352.8533333333333 319.1466666666667 366.2933333333333 319.1466666666667 374.6133333333333 310.8266666666667C382.9333333333333 302.5066666666667 382.9333333333333 288.8533333333333 374.6133333333333 280.5333333333333L404.6933333333333 250.4533333333333L419.84 265.6C428.16 273.92 441.8133333333334 273.92 450.1333333333334 265.6L465.0666666666667 250.4533333333333C473.3866666666667 242.1333333333333 473.3866666666667 228.48 465.0666666666667 220.16L344.5333333333333 99.6266666666667C336.2133333333333 91.3066666666666 322.56 91.3066666666666 314.24 99.6266666666667L299.3066666666666 114.56C290.7733333333333 122.88 290.7733333333333 136.5333333333333 299.3066666666666 144.8533333333333L314.24 160L284.16 190.0799999999999L79.1466666666667 -14.9333333333334C70.8266666666666 -23.2533333333334 57.3866666666666 -23.2533333333334 49.0666666666666 -14.9333333333334C40.7466666666666 -6.6133333333333 40.7466666666666 7.04 49.0666666666666 15.36M426.6666666666667 42.6666666666667C450.1333333333334 42.6666666666667 469.3333333333333 23.4666666666667 469.3333333333333 0V-21.3333333333333H256V0C256 23.4666666666667 275.2 42.6666666666667 298.6666666666667 42.6666666666667H426.6666666666667z" /></svg>