<?xml version="1.0" encoding="UTF-8"?><!DOCTYPE svg PUBLIC "-//W3C//DTD SVG 1.1//EN" "http://www.w3.org/Graphics/SVG/1.1/DTD/svg11.dtd"><svg xmlns="http://www.w3.org/2000/svg" xmlns:xlink="http://www.w3.org/1999/xlink" version="1.1" width="512" height="512" viewBox="0 0 512 512">    <path fill="#ffffff" transform="scale(1, -1) translate(0, -448)" glyph-name="air-filter" unicode="&#xFD1F;" horiz-adv-x="512" d=" M405.3333333333333 57.3866666666667V21.3333333333334C405.3333333333333 -2.1333333333333 386.1333333333334 -21.3333333333333 362.6666666666667 -21.3333333333333H149.3333333333333C125.8666666666667 -21.3333333333333 106.6666666666667 -2.1333333333333 106.6666666666667 21.3333333333334V100.2666666666667C96.8533333333333 104.1066666666667 84.2666666666667 106.6666666666667 64 106.6666666666667C52.2666666666667 106.6666666666667 42.6666666666667 116.2666666666667 42.6666666666667 128S52.2666666666667 149.3333333333334 64 149.3333333333334C81.4933333333333 149.3333333333334 95.36 147.6266666666667 106.6666666666667 144.8533333333334V185.6C96.8533333333333 189.44 84.2666666666667 192 64 192C52.2666666666667 192 42.6666666666667 201.6 42.6666666666667 213.3333333333334S52.2666666666667 234.6666666666667 64 234.6666666666667C81.4933333333333 234.6666666666667 95.36 232.96 106.6666666666667 230.1866666666667V270.9333333333334C96.8533333333333 274.7733333333334 84.2666666666667 277.3333333333334 64 277.3333333333334C52.2666666666667 277.3333333333334 42.6666666666667 286.9333333333334 42.6666666666667 298.6666666666667S52.2666666666667 320 64 320C81.4933333333333 320 95.36 318.2933333333334 106.6666666666667 315.52V362.6666666666667C106.6666666666667 386.1333333333334 125.8666666666667 405.3333333333333 149.3333333333333 405.3333333333333H362.6666666666667C386.1333333333334 405.3333333333333 405.3333333333333 386.1333333333334 405.3333333333333 362.6666666666667V316.5866666666667C443.3066666666667 309.9733333333334 459.52 295.8933333333333 463.1466666666666 292.48C471.4666666666667 284.1600000000001 471.4666666666667 270.5066666666667 463.1466666666666 262.1866666666667C454.8266666666667 253.8666666666667 443.7333333333334 254.08 432.8533333333333 262.1866666666667C432.8533333333333 262.1866666666667 410.6666666666667 277.3333333333334 362.6666666666667 277.3333333333334C335.7866666666667 277.3333333333334 318.08 268.5866666666667 297.6 258.1333333333334C275.4133333333333 247.2533333333334 250.4533333333333 234.6666666666667 213.3333333333333 234.6666666666667C205.6533333333333 234.6666666666667 198.6133333333334 234.6666666666667 192 235.52V278.4C198.4 277.3333333333334 205.44 277.3333333333334 213.3333333333333 277.3333333333334C240.2133333333333 277.3333333333334 257.92 286.0800000000001 278.4 296.32C300.5866666666667 307.4133333333334 325.76 320 362.6666666666667 320V362.6666666666667H149.3333333333333V21.3333333333334H362.6666666666667V64C394.6666666666667 64 404.6933333333333 57.8133333333334 405.3333333333333 57.3866666666667M362.6666666666667 234.6666666666667C325.76 234.6666666666667 300.5866666666667 222.08 278.4 210.9866666666667C257.92 200.7466666666667 240.2133333333334 192 213.3333333333333 192C205.44 192 198.4 192 192 193.0666666666667V150.1866666666667C198.6133333333334 149.3333333333334 205.6533333333333 149.3333333333334 213.3333333333333 149.3333333333334C250.4533333333333 149.3333333333334 275.4133333333333 161.9200000000001 297.6 172.8000000000001C318.08 183.0400000000001 335.7866666666667 192.0000000000001 362.6666666666667 192.0000000000001C410.6666666666667 192.0000000000001 432.8533333333333 176.8533333333334 432.8533333333333 176.8533333333334C443.7333333333334 168.5333333333334 454.8266666666667 168.5333333333334 463.1466666666666 176.8533333333334C471.4666666666667 185.1733333333334 471.4666666666667 198.6133333333334 463.1466666666666 207.1466666666667C458.6666666666666 211.6266666666667 432 234.6666666666667 362.6666666666667 234.6666666666667M362.6666666666667 149.3333333333334C325.76 149.3333333333334 300.5866666666667 136.7466666666667 278.4 125.6533333333334C257.92 115.4133333333334 240.2133333333334 106.6666666666667 213.3333333333333 106.6666666666667C205.44 106.6666666666667 198.4 106.6666666666667 192 107.7333333333334V64.8533333333334C198.6133333333334 64 205.6533333333333 64 213.3333333333333 64C250.4533333333333 64 275.4133333333333 76.5866666666667 297.6 87.4666666666667C318.08 97.7066666666667 335.7866666666667 106.6666666666667 362.6666666666667 106.6666666666667C410.6666666666667 106.6666666666667 432.8533333333333 91.5200000000001 432.8533333333333 91.5200000000001C443.7333333333334 83.2000000000001 454.8266666666667 83.2000000000001 463.1466666666666 91.5200000000001C471.4666666666667 99.8400000000001 471.4666666666667 113.2800000000001 463.1466666666666 121.8133333333334C458.6666666666666 126.2933333333334 432 149.3333333333334 362.6666666666667 149.3333333333334z" /></svg>