<?xml version="1.0" encoding="UTF-8"?><!DOCTYPE svg PUBLIC "-//W3C//DTD SVG 1.1//EN" "http://www.w3.org/Graphics/SVG/1.1/DTD/svg11.dtd"><svg xmlns="http://www.w3.org/2000/svg" xmlns:xlink="http://www.w3.org/1999/xlink" version="1.1" width="512" height="512" viewBox="0 0 512 512">    <path fill="#ffffff" transform="scale(1, -1) translate(0, -448)" glyph-name="briefcase-plus" unicode="&#xFA2A;" horiz-adv-x="512" d=" M362.6666666666667 149.3333333333334H405.3333333333333V85.3333333333334H469.3333333333333V42.6666666666667H405.3333333333333V-21.3333333333333H362.6666666666667V42.6666666666667H298.6666666666667V85.3333333333334H362.6666666666667V149.3333333333334M213.3333333333333 405.3333333333333H298.6666666666667C322.1333333333334 405.3333333333333 341.3333333333333 386.1333333333334 341.3333333333333 362.6666666666667V320H426.6666666666667C450.1333333333334 320 469.3333333333333 300.8 469.3333333333333 277.3333333333334V159.36C446.7200000000001 179.6266666666667 416.8533333333333 192 384 192C313.3866666666667 192 256 134.6133333333334 256 64C256 40.7466666666667 262.1866666666666 18.7733333333333 273.0666666666667 0H85.3333333333333C61.6533333333333 0 42.6666666666667 19.2 42.6666666666667 42.6666666666667V277.3333333333334C42.6666666666667 301.0133333333333 61.6533333333333 320 85.3333333333333 320H170.6666666666667V362.6666666666667C170.6666666666667 386.3466666666667 189.6533333333333 405.3333333333333 213.3333333333333 405.3333333333333M298.6666666666667 320V362.6666666666667H213.3333333333333V320H298.6666666666667z" /></svg>