<?xml version="1.0" encoding="UTF-8"?><!DOCTYPE svg PUBLIC "-//W3C//DTD SVG 1.1//EN" "http://www.w3.org/Graphics/SVG/1.1/DTD/svg11.dtd"><svg xmlns="http://www.w3.org/2000/svg" xmlns:xlink="http://www.w3.org/1999/xlink" version="1.1" width="512" height="512" viewBox="0 0 512 512">    <path fill="#ffffff" transform="scale(1, -1) translate(0, -448)" glyph-name="exponent-box" unicode="&#xF963;" horiz-adv-x="512" d=" M106.6666666666667 384C82.9866666666667 384 64 365.0133333333333 64 341.3333333333334V42.6666666666667C64 19.2 83.2 0 106.6666666666667 0H405.3333333333333C428.8 0 448 19.2 448 42.6666666666667V341.3333333333334C448 364.8 428.8 384 405.3333333333333 384H106.6666666666667M293.5466666666666 320H328.32L352 264.5333333333334L375.2533333333334 320H410.4533333333333S373.3333333333333 222.5066666666667 351.1466666666666 185.1733333333334C343.04 173.0133333333333 327.4666666666666 164.9066666666667 309.3333333333333 165.3333333333334V197.3333333333334C319.1466666666666 197.12 325.3333333333333 202.6666666666667 330.6666666666666 210.56C333.0133333333332 213.3333333333334 334.5066666666666 217.6 335.7866666666666 221.0133333333333L293.5466666666666 320M136.7466666666667 243.4133333333334L196.48 183.8933333333334L256 243.4133333333334L286.08 213.3333333333334L226.56 153.8133333333334L286.08 94.08L256 64L196.48 123.52L136.7466666666667 64L106.6666666666667 94.08L166.1866666666667 153.8133333333334L106.6666666666667 213.3333333333334L136.7466666666667 243.4133333333334z" /></svg>