<?xml version="1.0" encoding="UTF-8"?><!DOCTYPE svg PUBLIC "-//W3C//DTD SVG 1.1//EN" "http://www.w3.org/Graphics/SVG/1.1/DTD/svg11.dtd"><svg xmlns="http://www.w3.org/2000/svg" xmlns:xlink="http://www.w3.org/1999/xlink" version="1.1" width="512" height="512" viewBox="0 0 512 512">    <path fill="#ffffff" transform="scale(1, -1) translate(0, -448)" glyph-name="stethoscope" unicode="&#xF4D9;" horiz-adv-x="512" d=" M405.3333333333333 277.3333333333334C417.28 277.3333333333334 426.6666666666667 268.1600000000001 426.6666666666667 256C426.6666666666667 244.2666666666667 417.0666666666667 234.6666666666667 405.3333333333333 234.6666666666667C393.1733333333333 234.6666666666667 384 244.2666666666667 384 256C384 268.1600000000001 393.1733333333333 277.3333333333334 405.3333333333333 277.3333333333334M42.6666666666667 405.3333333333333V213.3333333333334C42.6666666666667 150.1866666666667 89.3866666666667 96 152.32 87.2533333333333C165.5466666666667 23.04 222.2933333333333 -21.3333333333333 288 -21.3333333333333C364.5866666666667 -21.3333333333333 426.6666666666667 40.7466666666667 426.6666666666667 117.3333333333334V196.0533333333334C451.4133333333333 205.0133333333333 469.3333333333333 228.48 469.3333333333333 256C469.3333333333333 291.4133333333334 440.7466666666667 320 405.3333333333333 320S341.3333333333333 291.4133333333334 341.3333333333333 256C341.3333333333333 228.48 359.2533333333334 204.8 384 196.0533333333334V119.2533333333333C384 65.92 341.3333333333333 23.2533333333333 288 23.2533333333333C245.3333333333333 23.2533333333333 209.4933333333334 49.0666666666667 196.6933333333333 87.4666666666667C256 100.2666666666667 298.6666666666667 153.6 298.6666666666667 213.3333333333334V405.3333333333333H213.3333333333333V341.3333333333334H256V213.3333333333334C256 166.1866666666667 217.8133333333333 128 170.6666666666667 128S85.3333333333333 166.1866666666667 85.3333333333333 213.3333333333334V341.3333333333334H128V405.3333333333333H42.6666666666667z" /></svg>