<?xml version="1.0" encoding="UTF-8"?><!DOCTYPE svg PUBLIC "-//W3C//DTD SVG 1.1//EN" "http://www.w3.org/Graphics/SVG/1.1/DTD/svg11.dtd"><svg xmlns="http://www.w3.org/2000/svg" xmlns:xlink="http://www.w3.org/1999/xlink" version="1.1" width="512" height="512" viewBox="0 0 512 512">    <path fill="#ffffff" transform="scale(1, -1) translate(0, -448)" glyph-name="source-repository" unicode="&#xFCAB;" horiz-adv-x="512" d=" M128 405.3333333333333H384C407.4666666666667 405.3333333333333 426.6666666666667 386.1333333333334 426.6666666666667 362.6666666666667V21.3333333333334C426.6666666666667 -2.1333333333333 407.4666666666667 -21.3333333333333 384 -21.3333333333333H128C104.5333333333333 -21.3333333333333 85.3333333333333 -2.1333333333333 85.3333333333333 21.3333333333334V362.6666666666667C85.3333333333333 386.1333333333334 104.5333333333333 405.3333333333333 128 405.3333333333333M272 160C330.6666666666667 160 346.4533333333334 203.3066666666667 350.5066666666667 226.1333333333334C369.92 232.32 384 250.4533333333334 384 272C384 298.6666666666667 362.6666666666667 320 336 320S288 298.6666666666667 288 272C288 251.9466666666667 300.16 234.6666666666667 317.6533333333333 227.6266666666667C312.96 213.3333333333334 298.6666666666667 192 256 192C226.56 192 206.08 184.5333333333334 192 174.0800000000001V258.7733333333334C210.56 265.3866666666667 224 283.0933333333334 224 304C224 330.6666666666667 202.6666666666667 352 176 352S128 330.6666666666667 128 304C128 283.0933333333334 141.44 265.3866666666667 160 258.7733333333333V125.2266666666667C141.44 118.6133333333334 128 100.9066666666667 128 80C128 53.3333333333334 149.3333333333333 32 176 32S224 53.3333333333334 224 80C224 99.84 212.0533333333333 117.3333333333334 194.7733333333333 124.16C200.7466666666666 138.6666666666667 218.24 160 272 160M176 96C184.7466666666667 96 192 88.7466666666667 192 80S184.7466666666667 64 176 64S160 71.2533333333333 160 80S167.2533333333333 96 176 96M176 320C184.7466666666667 320 192 312.7466666666667 192 304S184.7466666666667 288 176 288S160 295.2533333333334 160 304S167.2533333333333 320 176 320M336 288C344.7466666666667 288 352 280.7466666666667 352 272S344.7466666666667 256 336 256S320 263.2533333333334 320 272S327.2533333333334 288 336 288z" /></svg>