<?xml version="1.0" encoding="UTF-8"?><!DOCTYPE svg PUBLIC "-//W3C//DTD SVG 1.1//EN" "http://www.w3.org/Graphics/SVG/1.1/DTD/svg11.dtd"><svg xmlns="http://www.w3.org/2000/svg" xmlns:xlink="http://www.w3.org/1999/xlink" version="1.1" width="512" height="512" viewBox="0 0 512 512">    <path fill="#ffffff" transform="scale(1, -1) translate(0, -448)" glyph-name="car-light-high" unicode="&#xFC28;" horiz-adv-x="512" d=" M277.3333333333333 345.6C192 345.6 192 38.4 277.3333333333333 38.4S469.3333333333333 96 469.3333333333333 192S362.6666666666667 345.6 277.3333333333333 345.6M279.4666666666667 81.0666666666667C270.9333333333333 89.6 256 128 256 192S270.9333333333333 294.4 279.4666666666667 302.9333333333334C341.3333333333333 300.8 426.6666666666667 262.4000000000001 426.6666666666667 192C426.6666666666667 121.6 341.3333333333333 83.2 279.4666666666667 81.0666666666667M42.6666666666667 341.3333333333334H202.6666666666667C198.4 332.8 192 324.2666666666667 189.8666666666667 311.4666666666667C187.7333333333334 307.2 187.7333333333334 302.9333333333334 185.6 298.6666666666667H42.6666666666667V341.3333333333334M170.6666666666667 213.3333333333334H42.6666666666667V256H174.9333333333333C172.8 243.2 172.8 228.2666666666667 170.6666666666666 213.3333333333334M185.6 85.3333333333334C189.8666666666666 68.2666666666667 196.2666666666667 55.4666666666667 204.8 42.6666666666667H44.8V85.3333333333334H185.6M174.9333333333333 128H42.6666666666667V170.6666666666667H170.6666666666667C172.8 155.7333333333334 172.8 140.8 174.9333333333333 128z" /></svg>