<?xml version="1.0" encoding="UTF-8"?><!DOCTYPE svg PUBLIC "-//W3C//DTD SVG 1.1//EN" "http://www.w3.org/Graphics/SVG/1.1/DTD/svg11.dtd"><svg xmlns="http://www.w3.org/2000/svg" xmlns:xlink="http://www.w3.org/1999/xlink" version="1.1" width="512" height="512" viewBox="0 0 512 512">    <path fill="#ffffff" transform="scale(1, -1) translate(0, -448)" glyph-name="gauge-low" unicode="&#xF874;" horiz-adv-x="512" d=" M256 405.3333333333333C373.76 405.3333333333333 469.3333333333333 309.76 469.3333333333333 192S373.76 -21.3333333333333 256 -21.3333333333333S42.6666666666667 74.24 42.6666666666667 192S138.24 405.3333333333333 256 405.3333333333333M256 362.6666666666667C161.7066666666667 362.6666666666667 85.3333333333333 286.2933333333334 85.3333333333333 192C85.3333333333333 140.8 106.6666666666667 96 142.9333333333333 64C172.8 91.7333333333334 213.3333333333333 106.6666666666667 256 106.6666666666667S337.0666666666667 91.7333333333334 369.0666666666667 64C405.3333333333333 96 426.6666666666667 140.8 426.6666666666667 192C426.6666666666667 286.2933333333334 350.2933333333334 362.6666666666667 256 362.6666666666667M213.3333333333333 322.3466666666667C221.44 322.1333333333334 229.12 316.8 232.5333333333334 308.48L260.0533333333334 239.5733333333334L262.1866666666667 234.6666666666667C277.3333333333333 231.8933333333333 289.92 221.8666666666667 295.68 207.7866666666667C304.4266666666667 185.8133333333334 293.76 161.0666666666667 271.7866666666667 152.3200000000001C249.8133333333334 143.5733333333334 225.0666666666667 154.24 216.3200000000001 176.2133333333334C210.7733333333334 190.2933333333334 213.3333333333334 206.5066666666667 222.5066666666667 218.4533333333334L220.3733333333334 224.0000000000001L192.8533333333334 292.48L192.6400000000001 293.1200000000001C188.3733333333334 304.0000000000001 193.7066666666667 316.3733333333334 204.5866666666667 320.8533333333334C207.3600000000001 321.9200000000001 210.1333333333334 322.3466666666667 213.3333333333334 322.3466666666667M298.6666666666667 320C310.4 320 320 310.4 320 298.6666666666667S310.4 277.3333333333334 298.6666666666667 277.3333333333334S277.3333333333333 286.9333333333334 277.3333333333333 298.6666666666667S286.9333333333333 320 298.6666666666667 320M362.6666666666667 256C374.4 256 384 246.4000000000001 384 234.6666666666667S374.4 213.3333333333334 362.6666666666667 213.3333333333334S341.3333333333333 222.9333333333333 341.3333333333333 234.6666666666667S350.9333333333333 256 362.6666666666667 256M149.3333333333333 256C161.0666666666667 256 170.6666666666667 246.4000000000001 170.6666666666667 234.6666666666667S161.0666666666667 213.3333333333334 149.3333333333333 213.3333333333334S128 222.9333333333333 128 234.6666666666667S137.6 256 149.3333333333333 256z" /></svg>