<?xml version="1.0" encoding="UTF-8"?><!DOCTYPE svg PUBLIC "-//W3C//DTD SVG 1.1//EN" "http://www.w3.org/Graphics/SVG/1.1/DTD/svg11.dtd"><svg xmlns="http://www.w3.org/2000/svg" xmlns:xlink="http://www.w3.org/1999/xlink" version="1.1" width="512" height="512" viewBox="0 0 512 512">    <path fill="#ffffff" transform="scale(1, -1) translate(0, -448)" glyph-name="vector-rectangle" unicode="&#xF5C6;" horiz-adv-x="512" d=" M42.6666666666667 362.6666666666667H170.6666666666667V320H341.3333333333333V362.6666666666667H469.3333333333333V234.6666666666667H426.6666666666667V149.3333333333334H469.3333333333333V21.3333333333334H341.3333333333333V64H170.6666666666667V21.3333333333334H42.6666666666667V149.3333333333334H85.3333333333333V234.6666666666667H42.6666666666667V362.6666666666667M341.3333333333333 234.6666666666667V277.3333333333334H170.6666666666667V234.6666666666667H128V149.3333333333334H170.6666666666667V106.6666666666667H341.3333333333333V149.3333333333334H384V234.6666666666667H341.3333333333333M85.3333333333333 320V277.3333333333334H128V320H85.3333333333333M384 320V277.3333333333334H426.6666666666667V320H384M85.3333333333333 106.6666666666667V64H128V106.6666666666667H85.3333333333333M384 106.6666666666667V64H426.6666666666667V106.6666666666667H384z" /></svg>