<?xml version="1.0" encoding="UTF-8"?><!DOCTYPE svg PUBLIC "-//W3C//DTD SVG 1.1//EN" "http://www.w3.org/Graphics/SVG/1.1/DTD/svg11.dtd"><svg xmlns="http://www.w3.org/2000/svg" xmlns:xlink="http://www.w3.org/1999/xlink" version="1.1" width="512" height="512" viewBox="0 0 512 512">    <path fill="#ffffff" transform="scale(1, -1) translate(0, -448)" glyph-name="file-document-box-multiple-outline" unicode="&#xFAB7;" horiz-adv-x="512" d=" M341.3333333333333 128H192V170.6666666666667H341.3333333333333V128M405.3333333333333 213.3333333333334H192V256H405.3333333333333V213.3333333333334M405.3333333333333 298.6666666666667H192V341.3333333333334H405.3333333333333V298.6666666666667M64 341.3333333333334V0H405.3333333333333V-42.6666666666666H64C40.5333333333333 -42.6666666666666 21.3333333333333 -23.4666666666667 21.3333333333333 0V341.3333333333334H64M448 426.6666666666667C471.4666666666667 426.6666666666667 490.6666666666666 407.4666666666667 490.6666666666666 384V85.3333333333334C490.6666666666666 61.6533333333334 471.6799999999999 42.6666666666667 448 42.6666666666667H149.3333333333333C125.8666666666667 42.6666666666667 106.6666666666667 61.8666666666667 106.6666666666667 85.3333333333334V384C106.6666666666667 407.68 125.6533333333333 426.6666666666667 149.3333333333333 426.6666666666667H448M149.3333333333333 384V85.3333333333334H448V384H149.3333333333333z" /></svg>