<?xml version="1.0" encoding="UTF-8"?><!DOCTYPE svg PUBLIC "-//W3C//DTD SVG 1.1//EN" "http://www.w3.org/Graphics/SVG/1.1/DTD/svg11.dtd"><svg xmlns="http://www.w3.org/2000/svg" xmlns:xlink="http://www.w3.org/1999/xlink" version="1.1" width="512" height="512" viewBox="0 0 512 512">    <path fill="#ffffff" transform="scale(1, -1) translate(0, -448)" glyph-name="calendar-multiple-check" unicode="&#xF0F2;" horiz-adv-x="512" d=" M448 85.3333333333334V277.3333333333334H149.3333333333333V85.3333333333334H448M448 384C471.4666666666667 384 490.6666666666666 364.8 490.6666666666666 341.3333333333334V85.3333333333334C490.6666666666666 61.8666666666667 471.4666666666667 42.6666666666667 448 42.6666666666667H149.3333333333333C125.6533333333333 42.6666666666667 106.6666666666667 61.8666666666667 106.6666666666667 85.3333333333334V341.3333333333334C106.6666666666667 364.8 125.8666666666667 384 149.3333333333333 384H170.6666666666667V426.6666666666667H213.3333333333333V384H384V426.6666666666667H426.6666666666667V384H448M373.9733333333334 212.0533333333334L279.2533333333334 117.3333333333334L222.08 174.5066666666667L244.6933333333334 197.12L279.2533333333334 162.5600000000001L351.36 234.6666666666667L373.9733333333333 212.0533333333334M64 0H362.6666666666667V-42.6666666666666H64C40.32 -42.6666666666666 21.3333333333333 -23.4666666666667 21.3333333333333 0V256H64V0z" /></svg>