<?xml version="1.0" encoding="UTF-8"?><!DOCTYPE svg PUBLIC "-//W3C//DTD SVG 1.1//EN" "http://www.w3.org/Graphics/SVG/1.1/DTD/svg11.dtd"><svg xmlns="http://www.w3.org/2000/svg" xmlns:xlink="http://www.w3.org/1999/xlink" version="1.1" width="512" height="512" viewBox="0 0 512 512">    <path fill="#ffffff" transform="scale(1, -1) translate(0, -448)" glyph-name="cash-100" unicode="&#xF115;" horiz-adv-x="512" d=" M42.6666666666667 341.3333333333334H469.3333333333333V21.3333333333334H42.6666666666667V341.3333333333334M426.6666666666667 64V298.6666666666667H85.3333333333333V64H426.6666666666667M362.6666666666667 277.3333333333334C362.6666666666667 253.8666666666667 381.8666666666666 234.6666666666667 405.3333333333333 234.6666666666667V128C381.8666666666666 128 362.6666666666667 108.8 362.6666666666667 85.3333333333334H149.3333333333333C149.3333333333333 108.8 130.1333333333333 128 106.6666666666667 128V234.6666666666667C130.1333333333333 234.6666666666667 149.3333333333333 253.8666666666667 149.3333333333333 277.3333333333334H362.6666666666667M362.6666666666667 170.6666666666667V192C362.6666666666667 215.4666666666667 348.3733333333333 234.6666666666667 330.6666666666667 234.6666666666667S298.6666666666667 215.4666666666667 298.6666666666667 192V170.6666666666667C298.6666666666667 147.2000000000001 312.96 128 330.6666666666667 128S362.6666666666667 147.2000000000001 362.6666666666667 170.6666666666667M330.6666666666667 213.3333333333334C336.64 213.3333333333334 341.3333333333333 208.64 341.3333333333333 202.6666666666667V160C341.3333333333333 154.0266666666667 336.64 149.3333333333334 330.6666666666667 149.3333333333334S320 154.0266666666667 320 160V202.6666666666667C320 208.64 324.6933333333334 213.3333333333334 330.6666666666667 213.3333333333334M277.3333333333333 170.6666666666667V192C277.3333333333333 215.4666666666667 263.04 234.6666666666667 245.3333333333333 234.6666666666667S213.3333333333333 215.4666666666667 213.3333333333333 192V170.6666666666667C213.3333333333333 147.2000000000001 227.6266666666667 128 245.3333333333333 128S277.3333333333333 147.2000000000001 277.3333333333333 170.6666666666667M245.3333333333333 213.3333333333334C251.3066666666667 213.3333333333334 256 208.64 256 202.6666666666667V160C256 154.0266666666667 251.3066666666667 149.3333333333334 245.3333333333333 149.3333333333334S234.6666666666667 154.0266666666667 234.6666666666667 160V202.6666666666667C234.6666666666667 208.64 239.36 213.3333333333334 245.3333333333333 213.3333333333334M170.6666666666667 128H192V234.6666666666667H170.6666666666667L149.3333333333333 224V202.6666666666667L170.6666666666667 213.3333333333334V128z" /></svg>