<?xml version="1.0" encoding="UTF-8"?><!DOCTYPE svg PUBLIC "-//W3C//DTD SVG 1.1//EN" "http://www.w3.org/Graphics/SVG/1.1/DTD/svg11.dtd"><svg xmlns="http://www.w3.org/2000/svg" xmlns:xlink="http://www.w3.org/1999/xlink" version="1.1" width="512" height="512" viewBox="0 0 512 512">    <path fill="#ffffff" transform="scale(1, -1) translate(0, -448)" glyph-name="cloud-sync" unicode="&#xF63F;" horiz-adv-x="512" d=" M256 362.6666666666667C333.6533333333333 362.6666666666667 398.2933333333334 307.4133333333334 412.8 233.8133333333334C468.2666666666667 229.9733333333334 512 184.3200000000001 512 128C512 69.1200000000001 464.2133333333333 21.3333333333334 405.3333333333333 21.3333333333334H128C57.3866666666667 21.3333333333334 0 78.72 0 149.3333333333334C0 215.2533333333333 49.92 269.6533333333334 114.1333333333333 276.48C140.8 327.68 194.3466666666666 362.6666666666667 256 362.6666666666667M160 241.2800000000001C129.28 202.6666666666667 132.2666666666667 148.0533333333334 166.8266666666667 113.4933333333334C184.7466666666667 96 209.28 85.3333333333334 234.6666666666667 85.3333333333334V45.6533333333334L295.04 105.8133333333334L234.6666666666667 166.1866666666667V128C220.5866666666667 128 206.9333333333333 133.5466666666667 196.9066666666667 143.5733333333334C178.9866666666667 161.4933333333334 176.2133333333333 189.6533333333334 190.2933333333333 210.7733333333334L160 241.2800000000001M195.6266666666667 256.6400000000001L226.56 225.7066666666667L256 196.48V234.6666666666667C270.08 234.6666666666667 283.7333333333334 229.12 293.76 219.0933333333333C311.68 201.1733333333334 314.4533333333333 173.0133333333333 300.3733333333334 151.8933333333333L330.6666666666667 121.3866666666667C361.3866666666667 160 358.4 214.6133333333333 323.84 249.1733333333334C305.92 266.6666666666667 281.3866666666667 277.3333333333334 256 277.3333333333334V317.0133333333333L195.6266666666667 256.64z" /></svg>