<?xml version="1.0" encoding="UTF-8"?><!DOCTYPE svg PUBLIC "-//W3C//DTD SVG 1.1//EN" "http://www.w3.org/Graphics/SVG/1.1/DTD/svg11.dtd"><svg xmlns="http://www.w3.org/2000/svg" xmlns:xlink="http://www.w3.org/1999/xlink" version="1.1" width="512" height="512" viewBox="0 0 512 512">    <path fill="#ffffff" transform="scale(1, -1) translate(0, -448)" glyph-name="karate" unicode="&#xF82B;" horiz-adv-x="512" d=" M405.3333333333333 420.9066666666667C384.8533333333333 432.64 358.8266666666667 425.8133333333334 347.0933333333333 405.3333333333333C335.1466666666667 385.0666666666667 342.1866666666666 358.8266666666667 362.6666666666667 347.0933333333334C382.9333333333333 335.36 408.9600000000001 342.1866666666667 420.9066666666667 362.6666666666667C432.64 383.1466666666667 425.6 409.1733333333334 405.3333333333333 420.9066666666667M453.76 248.7466666666667L398.9333333333333 153.8133333333334L361.8133333333334 175.1466666666667L398.7200000000001 239.1466666666667L365.6533333333333 266.6666666666667L298.6666666666667 151.04V-21.3333333333333H256V162.3466666666667L52.6933333333333 279.68L74.0266666666667 316.5866666666667L240.4266666666667 220.5866666666667L291.6266666666667 309.3333333333334L155.3066666666667 359.04L170.6666666666667 399.1466666666667L314.24 346.88L320 344.7466666666667C328.32 341.3333333333334 336.2133333333333 338.1333333333334 343.8933333333333 333.8666666666667L361.8133333333334 323.4133333333334C369.2800000000001 319.1466666666667 376.5333333333334 314.0266666666667 383.1466666666667 308.48L388.0533333333334 304.2133333333334L453.76 248.7466666666667z" /></svg>