<?xml version="1.0" encoding="UTF-8"?><!DOCTYPE svg PUBLIC "-//W3C//DTD SVG 1.1//EN" "http://www.w3.org/Graphics/SVG/1.1/DTD/svg11.dtd"><svg xmlns="http://www.w3.org/2000/svg" xmlns:xlink="http://www.w3.org/1999/xlink" version="1.1" width="512" height="512" viewBox="0 0 512 512">    <path fill="#ffffff" transform="scale(1, -1) translate(0, -448)" glyph-name="led-strip" unicode="&#xF7D5;" horiz-adv-x="512" d=" M59.9466666666667 267.52L316.3733333333334 10.6666666666667L331.52 26.0266666666666L361.6 -4.0533333333333L391.68 26.0266666666666L361.6 56.3200000000001L391.68 86.4L421.9733333333334 56.3200000000001L452.0533333333333 86.4L421.9733333333334 116.48L437.3333333333333 131.6266666666667L180.48 388.0533333333334L59.9466666666667 267.52M120.32 267.52L180.48 327.68L376.7466666666667 131.6266666666667L316.3733333333334 71.2533333333333L120.32 267.52M150.4 267.52L180.48 237.2266666666667L210.7733333333334 267.52L180.48 297.6L150.4 267.52M195.6266666666667 222.08L225.92 192L256 222.08L225.92 252.3733333333334L195.6266666666667 222.08M240.8533333333333 176.8533333333334L271.1466666666667 146.7733333333333L301.2266666666667 176.8533333333334L271.1466666666667 207.1466666666667L240.8533333333333 176.8533333333334M286.08 131.6266666666667L316.3733333333334 101.5466666666666L346.4533333333333 131.6266666666667L316.3733333333333 161.92L286.08 131.6266666666667z" /></svg>