<?xml version="1.0" encoding="UTF-8"?><!DOCTYPE svg PUBLIC "-//W3C//DTD SVG 1.1//EN" "http://www.w3.org/Graphics/SVG/1.1/DTD/svg11.dtd"><svg xmlns="http://www.w3.org/2000/svg" xmlns:xlink="http://www.w3.org/1999/xlink" version="1.1" width="512" height="512" viewBox="0 0 512 512">    <path fill="#ffffff" transform="scale(1, -1) translate(0, -448)" glyph-name="account-box-multiple" unicode="&#xF933;" horiz-adv-x="512" d=" M85.3333333333333 320H42.6666666666667V21.3333333333334C42.6666666666667 -2.1333333333333 61.8666666666667 -21.3333333333333 85.3333333333333 -21.3333333333333H384V21.3333333333334H85.3333333333333V320M426.6666666666667 405.3333333333333C450.1333333333334 405.3333333333333 469.3333333333333 386.1333333333334 469.3333333333333 362.6666666666667V106.6666666666667C469.3333333333333 83.2 450.1333333333334 64 426.6666666666667 64H170.6666666666667C147.2 64 128 83.2 128 106.6666666666667V362.6666666666667C128 386.1333333333334 147.2 405.3333333333333 170.6666666666667 405.3333333333333H426.6666666666667M362.6666666666667 298.6666666666667C362.6666666666667 334.0800000000001 334.08 362.6666666666667 298.6666666666667 362.6666666666667S234.6666666666667 334.0800000000001 234.6666666666667 298.6666666666667S263.2533333333334 234.6666666666667 298.6666666666667 234.6666666666667S362.6666666666667 263.2533333333334 362.6666666666667 298.6666666666667M170.6666666666667 128V106.6666666666667H426.6666666666667V128C426.6666666666667 170.6666666666667 341.3333333333333 194.1333333333333 298.6666666666667 194.1333333333333S170.6666666666667 170.6666666666667 170.6666666666667 128z" /></svg>