<?xml version="1.0" encoding="UTF-8"?><!DOCTYPE svg PUBLIC "-//W3C//DTD SVG 1.1//EN" "http://www.w3.org/Graphics/SVG/1.1/DTD/svg11.dtd"><svg xmlns="http://www.w3.org/2000/svg" xmlns:xlink="http://www.w3.org/1999/xlink" version="1.1" width="512" height="512" viewBox="0 0 512 512">    <path fill="#ffffff" transform="scale(1, -1) translate(0, -448)" glyph-name="timeline" unicode="&#xFBAD;" horiz-adv-x="512" d=" M106.6666666666667 405.3333333333333V277.3333333333334H64V405.3333333333333H106.6666666666667M64 -21.3333333333333H106.6666666666667V106.6666666666667H64V-21.3333333333333M128 192C128 215.4666666666667 108.8 234.6666666666667 85.3333333333333 234.6666666666667S42.6666666666667 215.4666666666667 42.6666666666667 192S61.8666666666667 149.3333333333334 85.3333333333333 149.3333333333334S128 168.5333333333334 128 192M469.3333333333333 298.6666666666667V85.3333333333334C469.3333333333333 61.8666666666667 450.1333333333334 42.6666666666667 426.6666666666667 42.6666666666667H234.6666666666667C211.2 42.6666666666667 192 61.8666666666667 192 85.3333333333334V149.3333333333334L149.3333333333333 192L192 234.6666666666667V298.6666666666667C192 322.1333333333334 211.2 341.3333333333334 234.6666666666667 341.3333333333334H426.6666666666667C450.1333333333334 341.3333333333334 469.3333333333333 322.1333333333334 469.3333333333333 298.6666666666667z" /></svg>