<?xml version="1.0" encoding="UTF-8"?><!DOCTYPE svg PUBLIC "-//W3C//DTD SVG 1.1//EN" "http://www.w3.org/Graphics/SVG/1.1/DTD/svg11.dtd"><svg xmlns="http://www.w3.org/2000/svg" xmlns:xlink="http://www.w3.org/1999/xlink" version="1.1" width="512" height="512" viewBox="0 0 512 512">    <path fill="#ffffff" transform="scale(1, -1) translate(0, -448)" glyph-name="application-import" unicode="&#xFD8A;" horiz-adv-x="512" d=" M21.3333333333333 192H229.5466666666667L176.2133333333333 245.3333333333334L206.2933333333333 275.6266666666667L311.2533333333334 170.6666666666667L206.2933333333333 65.7066666666667L176.2133333333333 96L229.5466666666667 149.3333333333334H21.3333333333333V192M405.3333333333333 384C429.0133333333333 384 448 364.8 448 341.3333333333334V42.6666666666667C448 19.2 428.8 0 405.3333333333333 0H106.6666666666667C82.9866666666667 0 64 19.2 64 42.6666666666667V106.6666666666667H106.6666666666667V42.6666666666667H405.3333333333333V298.6666666666667H106.6666666666667V234.6666666666667H64V341.3333333333334C64 364.8 83.2 384 106.6666666666667 384H405.3333333333333z" /></svg>