<?xml version="1.0" encoding="UTF-8"?><!DOCTYPE svg PUBLIC "-//W3C//DTD SVG 1.1//EN" "http://www.w3.org/Graphics/SVG/1.1/DTD/svg11.dtd"><svg xmlns="http://www.w3.org/2000/svg" xmlns:xlink="http://www.w3.org/1999/xlink" version="1.1" width="512" height="512" viewBox="0 0 512 512">    <path fill="#ffffff" transform="scale(1, -1) translate(0, -448)" glyph-name="screw-flat-top" unicode="&#xFDCF;" horiz-adv-x="512" d=" M288 85.3333333333334V42.6666666666667L256 -21.3333333333333L224 42.6666666666667L288 85.3333333333334M309.3333333333333 313.6L288 298.6666666666667V320H224V256L202.6666666666667 241.0666666666667V219.7333333333334L309.3333333333333 290.1333333333334V313.6M309.3333333333333 228.2666666666667L288 213.3333333333334V256L224 213.3333333333334V170.6666666666667L202.6666666666667 155.7333333333334V134.4L309.3333333333333 204.8000000000001V228.2666666666667M309.3333333333333 142.9333333333334L288 128.0000000000001V170.6666666666668L224 128.0000000000001V85.3333333333334L202.6666666666667 70.4V49.0666666666667L309.3333333333333 119.4666666666667V142.9333333333334M170.6666666666667 405.3333333333333S149.3333333333333 405.3333333333333 149.3333333333333 384L213.3333333333333 341.3333333333334H298.6666666666667L362.6666666666667 384S362.6666666666667 405.3333333333333 341.3333333333333 405.3333333333333H170.6666666666667z" /></svg>