<?xml version="1.0" encoding="UTF-8"?><!DOCTYPE svg PUBLIC "-//W3C//DTD SVG 1.1//EN" "http://www.w3.org/Graphics/SVG/1.1/DTD/svg11.dtd"><svg xmlns="http://www.w3.org/2000/svg" xmlns:xlink="http://www.w3.org/1999/xlink" version="1.1" width="512" height="512" viewBox="0 0 512 512">    <path fill="#ffffff" transform="scale(1, -1) translate(0, -448)" glyph-name="cellphone-settings-variant" unicode="&#xF950;" horiz-adv-x="512" d=" M209.4933333333334 181.3333333333334C209.92 184.96 210.3466666666666 188.3733333333333 210.3466666666666 192C210.3466666666666 195.6266666666667 209.92 199.04 209.4933333333334 202.6666666666667L232.5333333333334 219.9466666666667C234.6666666666667 221.44 234.6666666666667 224 233.8133333333334 226.7733333333334L211.84 263.68C210.56 266.0266666666667 207.5733333333333 266.6666666666667 205.2266666666666 266.0266666666667L177.92 255.36C172.16 259.6266666666667 165.9733333333333 263.04 159.36 265.8133333333334L155.0933333333333 294.1866666666667C155.0933333333333 296.7466666666667 152.7466666666667 298.6666666666667 149.9733333333333 298.6666666666667H106.6666666666667C103.4666666666667 298.6666666666667 101.12 296.7466666666667 100.6933333333333 294.1866666666667L96 266.0266666666667C89.8133333333333 263.4666666666667 83.6266666666667 259.6266666666667 77.8666666666667 256L50.56 266.6666666666667C48 267.3066666666667 45.2266666666667 266.6666666666667 43.9466666666667 263.8933333333333L21.9733333333333 226.9866666666667C20.6933333333333 224 21.3333333333333 221.6533333333333 23.4666666666667 219.9466666666667L46.5066666666667 202.6666666666666C46.08 199.04 45.8666666666667 195.4133333333333 45.8666666666667 192C45.8666666666667 188.3733333333333 46.2933333333333 184.96 46.72 181.3333333333333L23.4666666666667 163.84C21.3333333333333 162.3466666666666 21.3333333333333 159.36 22.1866666666667 157.0133333333333L44.16 120.1066666666666C45.44 117.3333333333333 48.4266666666667 117.3333333333333 50.7733333333333 117.3333333333333L78.08 128C83.84 124.16 90.0266666666667 120.7466666666666 96.64 117.9733333333333L100.9066666666667 89.8133333333333C101.12 87.2533333333333 103.4666666666667 85.3333333333333 106.6666666666667 85.3333333333333H150.1866666666667C152.96 85.3333333333333 155.3066666666667 87.2533333333333 155.52 89.8133333333333L160 117.9733333333333C166.4 120.5333333333333 172.5866666666667 124.3733333333333 178.3466666666666 128L205.6533333333333 117.3333333333333C208.2133333333333 116.6933333333333 210.9866666666666 117.3333333333333 212.2666666666667 120.1066666666667L234.6666666666667 157.0133333333333C235.52 159.36 234.6666666666667 162.1333333333333 232.96 163.84L209.4933333333334 181.3333333333334M128 154.6666666666667C106.6666666666667 154.6666666666667 89.6 171.3066666666667 89.6 192S106.6666666666667 229.3333333333334 128 229.3333333333334S166.4 212.6933333333334 166.4 192S149.3333333333333 154.6666666666667 128 154.6666666666667M362.6666666666667 426.6666666666667H149.3333333333333C125.8666666666667 426.6666666666667 106.6666666666667 407.4666666666667 106.6666666666667 384V320H149.3333333333333V362.6666666666667H362.6666666666667V21.3333333333334H149.3333333333333V64H106.6666666666667V0C106.6666666666667 -23.4666666666667 125.8666666666667 -42.6666666666666 149.3333333333333 -42.6666666666666H362.6666666666667C386.1333333333334 -42.6666666666666 405.3333333333333 -23.4666666666667 405.3333333333333 0V384C405.3333333333333 407.4666666666667 386.1333333333334 426.6666666666667 362.6666666666667 426.6666666666667z" /></svg>