<?xml version="1.0" encoding="UTF-8"?><!DOCTYPE svg PUBLIC "-//W3C//DTD SVG 1.1//EN" "http://www.w3.org/Graphics/SVG/1.1/DTD/svg11.dtd"><svg xmlns="http://www.w3.org/2000/svg" xmlns:xlink="http://www.w3.org/1999/xlink" version="1.1" width="512" height="512" viewBox="0 0 512 512">    <path fill="#ffffff" transform="scale(1, -1) translate(0, -448)" glyph-name="tractor" unicode="&#xF891;" horiz-adv-x="512" d=" M106.6666666666667 362.6666666666667V207.7866666666667C68.2666666666667 194.1333333333333 42.6666666666667 157.8666666666667 42.6666666666667 117.3333333333334C42.6666666666667 64 85.3333333333333 21.3333333333334 138.6666666666667 21.3333333333334C187.52 21.3333333333334 228.48 58.0266666666666 234.0266666666667 106.6666666666667H323.6266666666666C321.28 99.84 320 92.5866666666667 320 85.3333333333334C320 49.92 348.5866666666667 21.3333333333334 384 21.3333333333334S448 49.92 448 85.3333333333334C448 92.5866666666667 446.7200000000001 99.84 444.16 106.6666666666667H469.3333333333333V170.6666666666667C469.3333333333333 194.3466666666667 450.3466666666667 213.3333333333334 426.6666666666667 213.3333333333334H320.8533333333333L291.2 362.6666666666667H106.6666666666667M149.3333333333333 320H256L277.3333333333333 213.3333333333334V149.3333333333334H229.12C216.7466666666667 183.8933333333334 185.8133333333333 208.4266666666667 149.3333333333333 212.6933333333334V320M138.6666666666667 165.3333333333334C165.12 165.3333333333334 186.6666666666667 143.7866666666667 186.6666666666667 117.3333333333334S165.12 69.3333333333334 138.6666666666667 69.3333333333334S90.6666666666667 90.8800000000001 90.6666666666667 117.3333333333334S112.2133333333333 165.3333333333334 138.6666666666667 165.3333333333334M384 117.3333333333334C401.7066666666666 117.3333333333334 416 103.04 416 85.3333333333334S401.7066666666666 53.3333333333334 384 53.3333333333334S352 67.6266666666667 352 85.3333333333334S366.2933333333334 117.3333333333334 384 117.3333333333334z" /></svg>