<?xml version="1.0" encoding="UTF-8"?><!DOCTYPE svg PUBLIC "-//W3C//DTD SVG 1.1//EN" "http://www.w3.org/Graphics/SVG/1.1/DTD/svg11.dtd"><svg xmlns="http://www.w3.org/2000/svg" xmlns:xlink="http://www.w3.org/1999/xlink" version="1.1" width="512" height="512" viewBox="0 0 512 512">    <path fill="#ffffff" transform="scale(1, -1) translate(0, -448)" glyph-name="pencil-circle-outline" unicode="&#xF775;" horiz-adv-x="512" d=" M149.3333333333333 129.28L278.6133333333333 258.5600000000001L322.56 214.6133333333334L193.28 85.3333333333334H149.3333333333333V129.28M256 21.3333333333334C350.2933333333334 21.3333333333334 426.6666666666667 97.7066666666667 426.6666666666667 192S350.2933333333334 362.6666666666667 256 362.6666666666667S85.3333333333333 286.2933333333334 85.3333333333333 192S161.7066666666667 21.3333333333334 256 21.3333333333334M356.2666666666667 248.5333333333334L334.9333333333333 227.2L291.2 270.9333333333334L312.5333333333333 292.2666666666667C317.0133333333333 296.96 324.48 296.96 328.9599999999999 292.2666666666667L356.2666666666667 264.9600000000001C360.9599999999999 260.48 360.9599999999999 253.0133333333333 356.2666666666667 248.5333333333334M256 405.3333333333333C373.76 405.3333333333333 469.3333333333333 309.76 469.3333333333333 192S373.76 -21.3333333333333 256 -21.3333333333333S42.6666666666667 74.24 42.6666666666667 192S138.24 405.3333333333333 256 405.3333333333333" /></svg>