<?xml version="1.0" encoding="UTF-8"?><!DOCTYPE svg PUBLIC "-//W3C//DTD SVG 1.1//EN" "http://www.w3.org/Graphics/SVG/1.1/DTD/svg11.dtd"><svg xmlns="http://www.w3.org/2000/svg" xmlns:xlink="http://www.w3.org/1999/xlink" version="1.1" width="512" height="512" viewBox="0 0 512 512">    <path fill="#ffffff" transform="scale(1, -1) translate(0, -448)" glyph-name="shield-cross-outline" unicode="&#xFCA6;" horiz-adv-x="512" d=" M448 213.3333333333334C448 96 366.9333333333333 -14.9333333333333 256 -42.6666666666666C145.0666666666667 -14.9333333333333 64 96 64 213.3333333333334V341.3333333333334L256 426.6666666666667L448 341.3333333333334V213.3333333333334M256 0C337.0666666666667 21.3333333333334 405.3333333333333 117.3333333333334 405.3333333333333 209.0666666666667V313.6L256 379.7333333333334L106.6666666666667 313.6V209.0666666666667C106.6666666666667 117.3333333333334 177.0666666666667 21.3333333333334 256 0M341.3333333333333 256H277.3333333333333V320H234.6666666666667V256H170.6666666666667V213.3333333333334H234.6666666666667V42.6666666666667H277.3333333333333V213.3333333333334H341.3333333333333V256z" /></svg>