<?xml version="1.0" encoding="UTF-8"?><!DOCTYPE svg PUBLIC "-//W3C//DTD SVG 1.1//EN" "http://www.w3.org/Graphics/SVG/1.1/DTD/svg11.dtd"><svg xmlns="http://www.w3.org/2000/svg" xmlns:xlink="http://www.w3.org/1999/xlink" version="1.1" width="512" height="512" viewBox="0 0 512 512">    <path fill="#ffffff" transform="scale(1, -1) translate(0, -448)" glyph-name="vk" unicode="&#xF579;" horiz-adv-x="512" d=" M443.7333333333334 282.88C446.5066666666667 291.8400000000001 443.7333333333334 298.6666666666667 430.5066666666667 298.6666666666667H387.4133333333333C376.32 298.6666666666667 371.4133333333333 292.9066666666667 368.64 286.5066666666667C368.64 286.5066666666667 346.6666666666667 232.96 315.52 197.9733333333333C305.28 187.9466666666667 300.8 184.7466666666667 295.2533333333334 184.7466666666667C292.48 184.7466666666667 288 187.9466666666667 288 197.12V282.88C288 293.76 285.4400000000001 298.6666666666667 276.2666666666667 298.6666666666667H208.2133333333333C201.3866666666667 298.6666666666667 197.3333333333333 293.5466666666667 197.3333333333333 288.64C197.3333333333333 278.4000000000001 213.3333333333333 275.8400000000001 214.4 246.6133333333334V183.04C214.4 168.96 211.84 166.4 206.5066666666667 166.4C192 166.4 156.16 220.3733333333333 135.04 281.8133333333334C130.7733333333334 293.7600000000001 126.7200000000001 298.6666666666667 115.6266666666667 298.6666666666667H72.32C60.16 298.6666666666667 57.6 292.9066666666667 57.6 286.5066666666667C57.6 274.9866666666667 72.32 218.24 125.8666666666667 143.1466666666667C161.4933333333334 91.7333333333334 211.84 64 257.7066666666667 64C285.2266666666667 64 288.64 70.1866666666667 288.64 80.8533333333334V119.68C288.64 131.84 291.2 134.4 299.9466666666666 134.4C306.3466666666667 134.4 317.2266666666667 131.2 342.8266666666667 106.6666666666667C372.2666666666667 77.2266666666667 376.9600000000001 64 393.6 64H436.6933333333333C449.0666666666666 64 455.2533333333333 70.1866666666667 451.84 82.3466666666667C448 94.5066666666667 433.92 112.2133333333334 415.36 133.12C405.3333333333333 144.8533333333334 390.1866666666666 157.6533333333333 385.4933333333334 164.2666666666667C379.0933333333333 172.3733333333333 381.0133333333333 176 385.4933333333334 183.4666666666667C385.4933333333334 183.4666666666667 438.1866666666666 257.4933333333334 443.7333333333334 282.88z" /></svg>