<?xml version="1.0" encoding="UTF-8"?><!DOCTYPE svg PUBLIC "-//W3C//DTD SVG 1.1//EN" "http://www.w3.org/Graphics/SVG/1.1/DTD/svg11.dtd"><svg xmlns="http://www.w3.org/2000/svg" xmlns:xlink="http://www.w3.org/1999/xlink" version="1.1" width="512" height="512" viewBox="0 0 512 512">    <path fill="#ffffff" transform="scale(1, -1) translate(0, -448)" glyph-name="credit-card-refund" unicode="&#xFAA7;" horiz-adv-x="512" d=" M384 213.3333333333334H128C104.5333333333333 213.3333333333334 85.3333333333333 194.1333333333333 85.3333333333333 170.6666666666667V0C85.3333333333333 -23.4666666666667 104.5333333333333 -42.6666666666666 128 -42.6666666666666H384C407.4666666666667 -42.6666666666666 426.6666666666667 -23.4666666666667 426.6666666666667 0V170.6666666666667C426.6666666666667 194.1333333333333 407.4666666666667 213.3333333333334 384 213.3333333333334M384 0H128V85.3333333333334H384V0M384 128H128V170.6666666666667H384V128M362.6666666666667 341.3333333333334V234.6666666666667H330.6666666666667V309.3333333333334H210.7733333333334L262.4 257.4933333333334L239.7866666666667 234.6666666666667L149.3333333333333 325.3333333333334L239.7866666666667 416L262.4 393.1733333333334L210.7733333333334 341.3333333333334H362.6666666666667z" /></svg>