<?xml version="1.0" encoding="UTF-8"?><!DOCTYPE svg PUBLIC "-//W3C//DTD SVG 1.1//EN" "http://www.w3.org/Graphics/SVG/1.1/DTD/svg11.dtd"><svg xmlns="http://www.w3.org/2000/svg" xmlns:xlink="http://www.w3.org/1999/xlink" version="1.1" width="512" height="512" viewBox="0 0 512 512">    <path fill="#ffffff" transform="scale(1, -1) translate(0, -448)" glyph-name="timer-off" unicode="&#xF51E;" horiz-adv-x="512" d=" M256 21.3333333333334C173.44 21.3333333333334 106.6666666666667 88.1066666666667 106.6666666666667 170.6666666666667C106.6666666666667 197.9733333333333 114.1333333333333 224 126.9333333333333 245.3333333333334L330.6666666666667 41.8133333333334C309.3333333333333 28.8000000000001 283.3066666666666 21.3333333333334 256 21.3333333333334M64 362.6666666666667L37.3333333333333 335.5733333333334L96 276.6933333333334C75.7333333333333 246.4000000000001 64 209.92 64 170.6666666666667C64 64.64 149.9733333333333 -21.3333333333333 256 -21.3333333333333C295.2533333333334 -21.3333333333333 331.7333333333334 -9.6 362.6666666666667 10.6666666666667L416 -42.6666666666666L442.6666666666667 -15.5733333333333L278.1866666666666 149.3333333333334L64 362.6666666666667M234.6666666666667 246.6133333333333L277.3333333333333 203.9466666666667V277.3333333333334H234.6666666666667M320 426.6666666666667H192V384H320M406.1866666666666 350.9333333333334L375.8933333333333 320.64C342.8266666666667 346.88 301.2266666666667 362.6666666666667 256 362.6666666666667C216.96 362.6666666666667 180.6933333333333 350.9333333333334 150.4 330.6666666666667L181.3333333333333 299.9466666666667C203.3066666666667 312.5333333333334 228.9066666666667 320 256 320C338.56 320 405.3333333333333 253.2266666666667 405.3333333333333 170.6666666666667C405.3333333333333 143.5733333333334 397.8666666666666 117.9733333333334 385.28 96L416 65.28C436.2666666666667 95.36 448 131.6266666666667 448 170.6666666666667C448 215.8933333333334 432.2133333333334 257.4933333333334 405.9733333333334 290.3466666666667L436.2666666666667 320.64L406.1866666666667 350.9333333333334z" /></svg>