<?xml version="1.0" encoding="UTF-8"?><!DOCTYPE svg PUBLIC "-//W3C//DTD SVG 1.1//EN" "http://www.w3.org/Graphics/SVG/1.1/DTD/svg11.dtd"><svg xmlns="http://www.w3.org/2000/svg" xmlns:xlink="http://www.w3.org/1999/xlink" version="1.1" width="512" height="512" viewBox="0 0 512 512">    <path fill="#ffffff" transform="scale(1, -1) translate(0, -448)" glyph-name="xda" unicode="&#xF5BC;" horiz-adv-x="512" d=" M-1.0666666666667 89.8133333333334L68.0533333333333 171.3066666666667L-1.0666666666667 252.8000000000001L32 280.32L96 204.5866666666667L160 280.32L193.0666666666667 252.8L123.9466666666667 171.3066666666667L193.0666666666667 89.8133333333334L160 62.5066666666667L96 138.6666666666667L32 62.5066666666667L-1.0666666666666 89.8133333333334M512 85.3333333333334C512 73.6 502.4 64 490.6666666666666 64H426.6666666666667C403.2 64 384 83.2 384 106.6666666666667V149.3333333333334C384 172.8 403.2 192 426.6666666666667 192H469.3333333333333V234.6666666666667H384V277.3333333333334H490.6666666666666C502.4 277.3333333333334 512 267.7333333333334 512 256M469.3333333333333 149.3333333333334H426.6666666666667V106.6666666666667H469.3333333333333V149.3333333333334M341.3333333333333 85.3333333333334C341.3333333333333 73.6 331.7333333333334 64 320 64H256C232.5333333333334 64 213.3333333333333 83.2 213.3333333333333 106.6666666666667V234.6666666666667C213.3333333333333 258.1333333333334 232.5333333333334 277.3333333333334 256 277.3333333333334H298.6666666666667V341.3333333333334H341.3333333333333V85.3333333333334M298.6666666666667 106.6666666666667V234.6666666666667H256V106.6666666666667H298.6666666666667z" /></svg>