<?xml version="1.0" encoding="UTF-8"?><!DOCTYPE svg PUBLIC "-//W3C//DTD SVG 1.1//EN" "http://www.w3.org/Graphics/SVG/1.1/DTD/svg11.dtd"><svg xmlns="http://www.w3.org/2000/svg" xmlns:xlink="http://www.w3.org/1999/xlink" version="1.1" width="512" height="512" viewBox="0 0 512 512">    <path fill="#ffffff" transform="scale(1, -1) translate(0, -448)" glyph-name="guy-fawkes-mask" unicode="&#xF824;" horiz-adv-x="512" d=" M448 170.6666666666667C448 64.64 362.0266666666667 -21.3333333333333 256 -21.3333333333333S64 64.64 64 170.6666666666667L64.64 353.4933333333334C121.1733333333333 386.56 186.88 405.3333333333333 257.0666666666667 405.3333333333333C326.4 405.3333333333333 391.68 386.7733333333333 448 354.56V170.6666666666667M277.3333333333333 22.8266666666667C349.6533333333333 33.28 405.3333333333333 96 405.3333333333333 170.6666666666667V328.7466666666667C360.5333333333333 350.5066666666667 310.1866666666666 362.6666666666667 257.0666666666667 362.6666666666667C202.6666666666667 362.6666666666667 151.04 349.8666666666667 105.3866666666667 327.2533333333334L106.6666666666667 170.6666666666667C106.6666666666667 96 162.7733333333333 33.28 234.6666666666667 22.8266666666667V64H277.3333333333333V22.8266666666667M234.6666666666667 106.6666666666667H170.6666666666667L128 170.6666666666667L192 149.3333333333334H213.3333333333333L234.6666666666667 170.6666666666667H277.3333333333333L298.6666666666667 149.3333333333334H320L384 170.6666666666667L341.3333333333333 106.6666666666667H277.3333333333333L256 128L234.6666666666667 106.6666666666667M128 255.36C141.6533333333333 268.8000000000001 160 276.2666666666667 181.3333333333333 276.2666666666667C201.6 276.2666666666667 220.5866666666667 268.8000000000001 234.6666666666667 255.36C220.5866666666667 242.1333333333334 201.6 234.6666666666667 181.3333333333333 234.6666666666667C160 234.6666666666667 141.6533333333333 242.1333333333334 128 255.36M277.3333333333333 255.36C290.9866666666667 268.8000000000001 309.3333333333333 276.2666666666667 330.6666666666667 276.2666666666667C350.9333333333333 276.2666666666667 369.92 268.8000000000001 384 255.36C369.92 242.1333333333334 350.9333333333333 234.6666666666667 330.6666666666667 234.6666666666667C309.3333333333333 234.6666666666667 290.9866666666667 242.1333333333334 277.3333333333333 255.36z" /></svg>