<?xml version="1.0" encoding="UTF-8"?><!DOCTYPE svg PUBLIC "-//W3C//DTD SVG 1.1//EN" "http://www.w3.org/Graphics/SVG/1.1/DTD/svg11.dtd"><svg xmlns="http://www.w3.org/2000/svg" xmlns:xlink="http://www.w3.org/1999/xlink" version="1.1" width="512" height="512" viewBox="0 0 512 512">    <path fill="#ffffff" transform="scale(1, -1) translate(0, -448)" glyph-name="laptop-off" unicode="&#xF6E6;" horiz-adv-x="512" d=" M21.3333333333333 356.9066666666667L48.64 384L426.6666666666667 5.9733333333334L399.5733333333333 -21.3333333333333L356.9066666666667 21.3333333333334H0V64H85.3333333333333C61.6533333333333 64 42.6666666666667 83.2 42.6666666666667 106.6666666666667V320C42.6666666666667 324.6933333333334 43.52 329.1733333333334 44.8 333.44L21.3333333333333 356.9066666666667M85.3333333333333 106.6666666666667H271.5733333333333L85.3333333333333 292.9066666666667V106.6666666666667M426.6666666666667 106.6666666666667V320H166.8266666666667L124.16 362.6666666666667H426.6666666666667C450.1333333333334 362.6666666666667 469.3333333333333 343.4666666666667 469.3333333333333 320V106.6666666666667C469.3333333333333 83.2 450.1333333333334 64 426.6666666666667 64H512V21.3333333333334H465.4933333333333L380.16 106.6666666666667H426.6666666666667z" /></svg>