<?xml version="1.0" encoding="UTF-8"?><!DOCTYPE svg PUBLIC "-//W3C//DTD SVG 1.1//EN" "http://www.w3.org/Graphics/SVG/1.1/DTD/svg11.dtd"><svg xmlns="http://www.w3.org/2000/svg" xmlns:xlink="http://www.w3.org/1999/xlink" version="1.1" width="512" height="512" viewBox="0 0 512 512">    <path fill="#ffffff" transform="scale(1, -1) translate(0, -448)" glyph-name="map-outline" unicode="&#xF981;" horiz-adv-x="512" d=" M437.3333333333333 384L433.92 383.36L320 339.2000000000001L192 384L71.68 343.4666666666667C67.2 341.9733333333334 64 338.1333333333334 64 333.2266666666667V10.6666666666667C64 4.6933333333333 68.6933333333333 0 74.6666666666667 0L78.08 0.64L192 44.8000000000001L320 0L440.32 40.5333333333333C444.8 42.0266666666666 448 45.8666666666667 448 50.7733333333333V373.3333333333334C448 379.3066666666667 443.3066666666667 384 437.3333333333333 384M213.3333333333333 331.3066666666667L298.6666666666667 301.4400000000001V52.6933333333333L213.3333333333333 82.56V331.3066666666667M106.6666666666667 310.1866666666667L170.6666666666667 331.7333333333334V82.1333333333334L106.6666666666667 57.3866666666667V310.1866666666667M405.3333333333333 73.8133333333334L341.3333333333333 52.2666666666667V301.6533333333333L405.3333333333333 326.4V73.8133333333334z" /></svg>