<?xml version="1.0" encoding="UTF-8"?><!DOCTYPE svg PUBLIC "-//W3C//DTD SVG 1.1//EN" "http://www.w3.org/Graphics/SVG/1.1/DTD/svg11.dtd"><svg xmlns="http://www.w3.org/2000/svg" xmlns:xlink="http://www.w3.org/1999/xlink" version="1.1" width="512" height="512" viewBox="0 0 512 512">    <path fill="#ffffff" transform="scale(1, -1) translate(0, -448)" glyph-name="account-child-circle" unicode="&#xFA89;" horiz-adv-x="512" d=" M256 192C273.7066666666667 192 288 177.7066666666667 288 160S273.7066666666667 128 256 128S224 142.2933333333334 224 160S238.2933333333333 192 256 192M256 405.3333333333333C373.76 405.3333333333333 469.3333333333333 309.76 469.3333333333333 192S373.76 -21.3333333333333 256 -21.3333333333333S42.6666666666667 74.24 42.6666666666667 192S138.24 405.3333333333333 256 405.3333333333333M256 106.6666666666667C271.36 106.6666666666667 285.8666666666667 103.4666666666667 299.52 96C313.1733333333333 89.6 320 81.0666666666667 320 71.04V33.92C348.5866666666667 46.72 362.6666666666667 62.2933333333334 362.6666666666667 81.0666666666667V174.9333333333334C362.6666666666667 192.0000000000001 352 205.8666666666667 329.6 217.6C307.2 229.1200000000001 282.6666666666667 234.6666666666667 256 234.6666666666667S204.8 229.1200000000001 182.4 217.6C160 205.8666666666667 149.3333333333333 192 149.3333333333333 174.9333333333333V81.0666666666666C149.3333333333333 63.9999999999999 160.64 49.28 184.1066666666666 37.9733333333333C207.36 26.6666666666666 231.2533333333334 21.3333333333333 256 21.3333333333333L277.3333333333333 23.0399999999999V65.92L256 64C234.6666666666667 64 213.3333333333333 68.2666666666667 193.0666666666667 77.0133333333333C195.6266666666667 85.3333333333334 203.3066666666667 91.9466666666667 216.1066666666667 97.92C228.6933333333334 103.8933333333334 241.92 106.6666666666667 256 106.6666666666667M256 362.6666666666667C226.56 362.6666666666667 202.6666666666667 338.7733333333333 202.6666666666667 309.3333333333334S226.56 256 256 256S309.3333333333333 279.8933333333333 309.3333333333333 309.3333333333334S285.44 362.6666666666667 256 362.6666666666667z" /></svg>