<?xml version="1.0" encoding="UTF-8"?><!DOCTYPE svg PUBLIC "-//W3C//DTD SVG 1.1//EN" "http://www.w3.org/Graphics/SVG/1.1/DTD/svg11.dtd"><svg xmlns="http://www.w3.org/2000/svg" xmlns:xlink="http://www.w3.org/1999/xlink" version="1.1" width="512" height="512" viewBox="0 0 512 512">    <path fill="#ffffff" transform="scale(1, -1) translate(0, -448)" glyph-name="nfc-off" unicode="&#xFE35;" horiz-adv-x="512" d=" M69.3333333333333 362.0266666666667L425.6 5.76L398.9333333333333 -21.3333333333333L317.0133333333333 61.2266666666667C315.0933333333333 61.4400000000001 313.1733333333333 62.08 311.2533333333334 62.9333333333333C304.2133333333333 66.3466666666667 301.6533333333333 72.1066666666667 301.0133333333333 77.2266666666667L259.84 118.4C258.9866666666667 116.6933333333334 257.92 115.2000000000001 257.0666666666666 113.92C247.8933333333333 101.12 238.72 101.12 231.68 105.8133333333334C224.8533333333333 110.2933333333334 117.3333333333333 192 111.5733333333333 194.7733333333334C105.6 197.12 103.4666666666667 191.36 109.2266666666667 160C114.9866666666666 128 105.6 119.68 97.4933333333333 118.4C89.6 117.3333333333334 65.28 124.16 64 189.0133333333334C62.9333333333333 253.6533333333334 80.2133333333333 264.1066666666667 88.32 264.1066666666667C98.1333333333333 264.1066666666667 151.04 219.9466666666667 188.5866666666667 189.4400000000001L42.6666666666667 335.36L69.3333333333333 362.0266666666667M392.1066666666667 94.72C400.0000000000001 119.4666666666667 407.8933333333333 153.6 407.4666666666667 191.3600000000001V192C408.32 266.6666666666667 376.7466666666667 328.9600000000001 376.7466666666667 328.9600000000001S371.6266666666667 347.3066666666667 386.56 354.3466666666667C401.7066666666667 361.3866666666667 411.7333333333334 349.6533333333333 411.7333333333334 349.6533333333333C450.56 272.64 448 199.68 448 192C448 186.24 449.92 128.8533333333334 424.1066666666667 62.9333333333333L392.1066666666667 94.72M322.9866666666666 164.0533333333333C324.0533333333333 172.3733333333333 324.6933333333333 181.3333333333333 325.12 191.36V192C322.9866666666666 266.6666666666667 301.44 294.1866666666667 301.44 294.1866666666667S296.32 312.7466666666667 311.2533333333334 320C326.4 326.6133333333334 336.4266666666666 315.0933333333334 336.4266666666666 315.0933333333334C368.2133333333333 257.28 366.08 199.68 365.6533333333333 192C365.8666666666667 187.7333333333334 366.9333333333333 162.5600000000001 358.8266666666667 128L322.9866666666667 164.0533333333334M217.6 269.2266666666667C218.24 282.24 225.92 285.0133333333333 225.92 285.0133333333333S238.72 290.7733333333333 246.8266666666667 281.6C254.08 273.28 271.36 243.84 274.9866666666667 211.84L217.6 269.2266666666667z" /></svg>