<?xml version="1.0" encoding="UTF-8"?><!DOCTYPE svg PUBLIC "-//W3C//DTD SVG 1.1//EN" "http://www.w3.org/Graphics/SVG/1.1/DTD/svg11.dtd"><svg xmlns="http://www.w3.org/2000/svg" xmlns:xlink="http://www.w3.org/1999/xlink" version="1.1" width="512" height="512" viewBox="0 0 512 512">    <path fill="#ffffff" transform="scale(1, -1) translate(0, -448)" glyph-name="account-child" unicode="&#xFA88;" horiz-adv-x="512" d=" M256 405.3333333333333C291.4133333333333 405.3333333333333 320 376.7466666666667 320 341.3333333333334S291.4133333333333 277.3333333333334 256 277.3333333333334S192 305.92 192 341.3333333333334S220.5866666666667 405.3333333333333 256 405.3333333333333M256 256C290.7733333333333 256 322.56 248.5333333333334 352 233.6C380.5866666666667 218.4533333333333 394.6666666666667 200.32 394.6666666666667 178.9866666666667V55.8933333333333C394.6666666666667 31.9999999999999 376.32 11.9466666666667 338.9866666666667 -4.0533333333333V42.6666666666667C338.9866666666667 62.9333333333333 320.64 77.2266666666667 283.9466666666667 85.9733333333334C272 88.7466666666667 262.6133333333334 90.0266666666668 256 90.0266666666668C237.44 90.0266666666668 219.7333333333334 86.4 203.52 78.9333333333334C187.0933333333333 71.6800000000001 177.28 62.2933333333334 174.08 50.9866666666668C202.6666666666667 39.6800000000001 229.9733333333334 33.9200000000001 256 33.9200000000001L277.3333333333333 36.0533333333335V-20.0533333333332L256 -21.3333333333333C226.7733333333333 -21.3333333333333 199.04 -15.36 173.0133333333333 -4.0533333333333C135.68 11.9466666666667 117.3333333333333 32 117.3333333333333 55.8933333333333V178.9866666666666C117.3333333333333 200.3199999999999 131.4133333333333 218.4533333333333 160 233.6C189.44 248.5333333333334 221.44 256 256 256M256 213.3333333333334C232.5333333333334 213.3333333333334 213.3333333333333 194.1333333333333 213.3333333333333 170.6666666666667S232.5333333333334 128 256 128S298.6666666666667 147.2000000000001 298.6666666666667 170.6666666666667S279.4666666666667 213.3333333333334 256 213.3333333333334z" /></svg>