<?xml version="1.0" encoding="UTF-8"?><!DOCTYPE svg PUBLIC "-//W3C//DTD SVG 1.1//EN" "http://www.w3.org/Graphics/SVG/1.1/DTD/svg11.dtd"><svg xmlns="http://www.w3.org/2000/svg" xmlns:xlink="http://www.w3.org/1999/xlink" version="1.1" width="512" height="512" viewBox="0 0 512 512">    <path fill="#ffffff" transform="scale(1, -1) translate(0, -448)" glyph-name="microphone" unicode="&#xF36C;" horiz-adv-x="512" d=" M256 405.3333333333333C291.4133333333333 405.3333333333333 320 376.7466666666667 320 341.3333333333334V213.3333333333334C320 177.92 291.4133333333333 149.3333333333334 256 149.3333333333334S192 177.92 192 213.3333333333334V341.3333333333334C192 376.7466666666667 220.5866666666667 405.3333333333333 256 405.3333333333333M405.3333333333333 213.3333333333334C405.3333333333333 138.0266666666667 349.6533333333333 75.9466666666667 277.3333333333333 65.4933333333333V0H234.6666666666667V65.4933333333333C162.3466666666666 75.9466666666667 106.6666666666667 138.0266666666667 106.6666666666667 213.3333333333334H149.3333333333333C149.3333333333333 154.4533333333334 197.12 106.6666666666667 256 106.6666666666667S362.6666666666667 154.4533333333334 362.6666666666667 213.3333333333334H405.3333333333333z" /></svg>