<?xml version="1.0" encoding="UTF-8"?><!DOCTYPE svg PUBLIC "-//W3C//DTD SVG 1.1//EN" "http://www.w3.org/Graphics/SVG/1.1/DTD/svg11.dtd"><svg xmlns="http://www.w3.org/2000/svg" xmlns:xlink="http://www.w3.org/1999/xlink" version="1.1" width="512" height="512" viewBox="0 0 512 512">    <path fill="#ffffff" transform="scale(1, -1) translate(0, -448)" glyph-name="set-center-right" unicode="&#xF779;" horiz-adv-x="512" d=" M320 42.6666666666667C297.8133333333334 42.6666666666667 276.0533333333333 47.7866666666666 256 57.1733333333334C235.9466666666667 47.7866666666666 214.1866666666667 42.6666666666667 192 42.6666666666667C109.44 42.6666666666667 42.6666666666667 109.44 42.6666666666667 192S109.44 341.3333333333334 192 341.3333333333334C214.1866666666667 341.3333333333334 235.9466666666667 336.2133333333334 256 326.8266666666667C276.0533333333333 336.2133333333334 297.8133333333334 341.3333333333334 320 341.3333333333334C402.56 341.3333333333334 469.3333333333333 274.5600000000001 469.3333333333333 192S402.56 42.6666666666667 320 42.6666666666667M192 85.3333333333334L213.3333333333333 87.68C186.0266666666667 115.4133333333334 170.6666666666667 152.96 170.6666666666667 192C170.6666666666667 231.04 186.0266666666667 268.5866666666667 213.3333333333333 296.5333333333334L192 298.6666666666667C133.12 298.6666666666667 85.3333333333333 250.88 85.3333333333333 192S133.12 85.3333333333334 192 85.3333333333334M330.6666666666667 192C330.6666666666667 231.8933333333334 313.8133333333334 267.9466666666667 286.72 293.3333333333334L265.3866666666667 283.52C292.0533333333333 262.1866666666667 309.3333333333333 229.12 309.3333333333333 192C309.3333333333333 154.88 292.0533333333333 121.8133333333334 265.3866666666667 100.48L286.72 90.6666666666667C313.8133333333333 116.0533333333334 330.6666666666667 152.1066666666667 330.6666666666667 192z" /></svg>