<?xml version="1.0" encoding="UTF-8"?><!DOCTYPE svg PUBLIC "-//W3C//DTD SVG 1.1//EN" "http://www.w3.org/Graphics/SVG/1.1/DTD/svg11.dtd"><svg xmlns="http://www.w3.org/2000/svg" xmlns:xlink="http://www.w3.org/1999/xlink" version="1.1" width="512" height="512" viewBox="0 0 512 512">    <path fill="#ffffff" transform="scale(1, -1) translate(0, -448)" glyph-name="nfc-variant-off" unicode="&#xFE37;" horiz-adv-x="512" d=" M26.6666666666667 404.2666666666667L468.2666666666667 -37.3333333333333L441.6 -64L398.9333333333333 -21.3333333333333H85.3333333333333C61.8666666666667 -21.3333333333333 42.6666666666667 -2.1333333333333 42.6666666666667 21.3333333333334V334.9333333333334L0 377.6L26.6666666666667 404.2666666666667M81.28 405.3333333333333H426.6666666666667C450.3466666666667 405.3333333333333 469.3333333333333 386.3466666666667 469.3333333333333 362.6666666666667V17.28L426.6666666666667 59.7333333333333V362.6666666666667H123.7333333333333L81.28 405.3333333333333M128 249.6L85.3333333333333 292.2666666666667V21.3333333333334H356.2666666666667L313.6 64H128V249.6M384 102.4L341.3333333333333 145.0666666666666V277.3333333333334H277.3333333333333V228.6933333333334C290.1333333333334 221.44 298.6666666666667 207.7866666666667 298.6666666666667 192V187.9466666666667L234.6666666666667 251.7333333333334V277.3333333333334C234.6666666666667 300.8 253.8666666666667 320 277.3333333333333 320H384V102.4M170.6666666666667 106.6666666666667H270.9333333333333L170.6666666666667 206.9333333333333V106.6666666666667M213.3333333333333 277.3333333333334H209.0666666666667L166.4 320H213.3333333333333V277.3333333333334z" /></svg>