<?xml version="1.0" encoding="UTF-8"?><!DOCTYPE svg PUBLIC "-//W3C//DTD SVG 1.1//EN" "http://www.w3.org/Graphics/SVG/1.1/DTD/svg11.dtd"><svg xmlns="http://www.w3.org/2000/svg" xmlns:xlink="http://www.w3.org/1999/xlink" version="1.1" width="512" height="512" viewBox="0 0 512 512">    <path fill="#ffffff" transform="scale(1, -1) translate(0, -448)" glyph-name="bag-personal-off-outline" unicode="&#xFDF5;" horiz-adv-x="512" d=" M426.6666666666667 35.2L50.7733333333333 411.0933333333334L23.68 384L101.76 305.92C91.0933333333333 291.4133333333334 85.3333333333333 273.92 85.3333333333333 256V21.3333333333334C85.3333333333333 -2.1333333333333 104.5333333333333 -21.3333333333333 128 -21.3333333333333H384C395.9466666666666 -21.3333333333333 407.04 -16.2133333333334 415.1466666666667 -7.4666666666667L444.5866666666667 -36.9066666666666L471.6799999999999 -9.8133333333333L426.6666666666667 35.2M128 256C128 262.6133333333334 129.7066666666667 269.2266666666667 132.6933333333333 274.9866666666667L279.68 128H128V256M384 21.3333333333334H128V106.6666666666667H170.6666666666667V64H192V106.6666666666667H301.0133333333333L384 23.68V21.3333333333334M341.3333333333333 298.6666666666667C364.8 298.6666666666667 384 279.4666666666667 384 256V132.2666666666667L426.6666666666667 89.6V256C426.6666666666667 303.1466666666667 388.48 341.3333333333334 341.3333333333333 341.3333333333334V362.6666666666667C341.3333333333333 386.1333333333334 322.1333333333334 405.3333333333333 298.6666666666667 405.3333333333333H213.3333333333333C189.8666666666667 405.3333333333333 170.6666666666667 386.1333333333334 170.6666666666667 362.6666666666667V345.6L217.6 298.6666666666667H341.3333333333333M213.3333333333333 362.6666666666667H298.6666666666667V341.3333333333334H213.3333333333333V362.6666666666667z" /></svg>