<?xml version="1.0" encoding="UTF-8"?><!DOCTYPE svg PUBLIC "-//W3C//DTD SVG 1.1//EN" "http://www.w3.org/Graphics/SVG/1.1/DTD/svg11.dtd"><svg xmlns="http://www.w3.org/2000/svg" xmlns:xlink="http://www.w3.org/1999/xlink" version="1.1" width="512" height="512" viewBox="0 0 512 512">    <path fill="#ffffff" transform="scale(1, -1) translate(0, -448)" glyph-name="inbox-multiple-outline" unicode="&#xFB84;" horiz-adv-x="512" d=" M405.3333333333333 384C428.8 384 448 364.8 448 341.3333333333334V192C448 168.5333333333334 428.8 149.3333333333334 405.3333333333333 149.3333333333334H106.6666666666667C83.2 149.3333333333334 64 168.5333333333334 64 192V341.3333333333334C64 364.8 83.2 384 106.6666666666667 384H405.3333333333333M106.6666666666667 234.6666666666667V192H200.5333333333333C187.7333333333334 203.3066666666667 177.92 218.0266666666667 173.44 234.6666666666667H106.6666666666667M405.3333333333333 192V234.6666666666667H338.56C334.08 218.0266666666667 324.2666666666667 203.3066666666667 311.4666666666667 192H405.3333333333333M405.3333333333333 277.3333333333334V341.3333333333334H106.6666666666667V277.3333333333334H213.3333333333333V256C213.3333333333333 233.1733333333334 233.1733333333333 213.3333333333334 256 213.3333333333334C278.8266666666667 213.3333333333334 298.6666666666667 233.1733333333334 298.6666666666667 256V277.3333333333334H405.3333333333333M448 42.6666666666667C448 19.2 428.8 0 405.3333333333333 0H106.6666666666667C83.2 0 64 19.2 64 42.6666666666667V128H213.3333333333333V106.6666666666667C213.3333333333333 83.84 233.1733333333333 64 256 64C278.8266666666667 64 298.6666666666667 83.84 298.6666666666667 106.6666666666667V128H448V42.6666666666667M106.6666666666667 85.3333333333334V42.6666666666667H200.5333333333333C187.7333333333334 53.9733333333334 177.92 68.6933333333333 173.44 85.3333333333334H106.6666666666667M405.3333333333333 42.6666666666667V85.3333333333334H338.56C334.08 68.6933333333333 324.2666666666667 53.9733333333334 311.4666666666667 42.6666666666667H405.3333333333333z" /></svg>