<?xml version="1.0" encoding="UTF-8"?><!DOCTYPE svg PUBLIC "-//W3C//DTD SVG 1.1//EN" "http://www.w3.org/Graphics/SVG/1.1/DTD/svg11.dtd"><svg xmlns="http://www.w3.org/2000/svg" xmlns:xlink="http://www.w3.org/1999/xlink" version="1.1" width="512" height="512" viewBox="0 0 512 512">    <path fill="#ffffff" transform="scale(1, -1) translate(0, -448)" glyph-name="tag-faces" unicode="&#xF4FA;" horiz-adv-x="512" d=" M320 64C249.1733333333333 64 192 121.3866666666667 192 192C192 262.8266666666667 249.1733333333333 320 320 320C390.6133333333333 320 448 262.6133333333334 448 192S390.6133333333333 64 320 64M85.3333333333333 170.6666666666667C73.6 170.6666666666667 64 180.2666666666667 64 192S73.6 213.3333333333334 85.3333333333333 213.3333333333334S106.6666666666667 203.7333333333334 106.6666666666667 192S97.0666666666667 170.6666666666667 85.3333333333333 170.6666666666667M469.3333333333333 384H162.7733333333333C148.6933333333333 384 136.1066666666667 377.1733333333334 128 366.7200000000001L0 192L128 17.4933333333333C136.1066666666667 6.8266666666667 148.6933333333333 0 162.7733333333333 0H469.3333333333333C492.8 0 512 19.2 512 42.6666666666667V341.3333333333334C512 365.0133333333333 492.8 384 469.3333333333333 384M277.3333333333333 213.3333333333334C289.0666666666667 213.3333333333334 298.6666666666667 222.9333333333333 298.6666666666667 234.6666666666667S289.0666666666667 256 277.3333333333333 256S256 246.4000000000001 256 234.6666666666667S265.6 213.3333333333334 277.3333333333333 213.3333333333334M320 106.6666666666667C359.68 106.6666666666667 391.4666666666667 133.9733333333334 401.0666666666667 170.6666666666667H238.9333333333334C248.5333333333334 133.9733333333334 280.32 106.6666666666667 320 106.6666666666667M362.6666666666667 213.3333333333334C374.4 213.3333333333334 384 222.9333333333333 384 234.6666666666667S374.4 256 362.6666666666667 256S341.3333333333333 246.4000000000001 341.3333333333333 234.6666666666667S350.9333333333333 213.3333333333334 362.6666666666667 213.3333333333334z" /></svg>