<?xml version="1.0" encoding="UTF-8"?><!DOCTYPE svg PUBLIC "-//W3C//DTD SVG 1.1//EN" "http://www.w3.org/Graphics/SVG/1.1/DTD/svg11.dtd"><svg xmlns="http://www.w3.org/2000/svg" xmlns:xlink="http://www.w3.org/1999/xlink" version="1.1" width="512" height="512" viewBox="0 0 512 512">    <path fill="#ffffff" transform="scale(1, -1) translate(0, -448)" glyph-name="ear-hearing" unicode="&#xF7C4;" horiz-adv-x="512" d=" M362.6666666666667 21.3333333333334C356.48 21.3333333333334 350.7200000000001 22.6133333333333 346.4533333333333 24.5333333333333C331.3066666666666 32 320.64 43.3066666666666 309.9733333333333 75.3066666666666C298.6666666666667 108.5866666666667 278.6133333333333 124.16 258.9866666666666 139.3066666666666C242.1333333333333 152.3199999999999 224.6399999999999 165.76 209.4933333333333 193.28C198.1866666666667 213.3333333333334 192 236.1600000000001 192 256C192 315.7333333333334 238.9333333333333 362.6666666666667 298.6666666666667 362.6666666666667S405.3333333333333 315.7333333333334 405.3333333333333 256H448C448 339.8400000000001 382.5066666666667 405.3333333333333 298.6666666666667 405.3333333333333S149.3333333333333 339.8400000000001 149.3333333333333 256C149.3333333333333 229.12 157.44 199.4666666666667 172.16 172.8C192 137.6 214.4 119.8933333333333 232.96 105.6C250.24 92.3733333333333 262.6133333333334 82.7733333333333 269.44 61.8666666666667C282.24 23.04 298.6666666666667 1.28 327.68 -13.8666666666667C338.56 -18.7733333333334 350.5066666666667 -21.3333333333334 362.6666666666667 -21.3333333333334C409.8133333333334 -21.3333333333334 448 16.8533333333332 448 63.9999999999999H405.3333333333333C405.3333333333333 40.5333333333332 386.1333333333334 21.3333333333333 362.6666666666667 21.3333333333333M162.9866666666667 391.68L132.6933333333333 421.9733333333334C90.24 379.52 64 320.8533333333334 64 256S90.24 132.48 132.6933333333333 90.0266666666666L162.7733333333334 120.1066666666667C128 154.88 106.6666666666667 202.6666666666667 106.6666666666667 256S128 357.12 162.9866666666667 391.68M245.3333333333333 256C245.3333333333333 226.5600000000001 269.2266666666667 202.6666666666667 298.6666666666667 202.6666666666667S352 226.5600000000001 352 256S328.1066666666667 309.3333333333334 298.6666666666667 309.3333333333334S245.3333333333333 285.44 245.3333333333333 256z" /></svg>