<?xml version="1.0" encoding="UTF-8"?><!DOCTYPE svg PUBLIC "-//W3C//DTD SVG 1.1//EN" "http://www.w3.org/Graphics/SVG/1.1/DTD/svg11.dtd"><svg xmlns="http://www.w3.org/2000/svg" xmlns:xlink="http://www.w3.org/1999/xlink" version="1.1" width="512" height="512" viewBox="0 0 512 512">    <path fill="#ffffff" transform="scale(1, -1) translate(0, -448)" glyph-name="peace" unicode="&#xF883;" horiz-adv-x="512" d=" M256 405.3333333333333C138.24 405.3333333333333 42.6666666666667 309.76 42.6666666666667 192S138.24 -21.3333333333333 256 -21.3333333333333S469.3333333333333 74.24 469.3333333333333 192S373.76 405.3333333333333 256 405.3333333333333M234.6666666666667 140.5866666666667V22.8266666666667C204.3733333333333 26.6666666666667 175.5733333333333 38.6133333333333 151.4666666666667 57.3866666666667L234.6666666666667 140.5866666666667M277.3333333333333 140.5866666666667L360.5333333333333 57.3866666666667C336.4266666666666 38.6133333333334 307.6266666666666 26.6666666666667 277.3333333333333 22.8266666666667V140.5866666666667M85.3333333333333 192C85.3333333333333 277.9733333333334 149.3333333333333 350.5066666666667 234.6666666666667 361.1733333333334V200.7466666666667L121.3866666666667 87.4666666666667C97.92 117.3333333333334 85.3333333333333 154.0266666666667 85.3333333333333 192M390.6133333333334 87.4666666666667L277.3333333333333 200.7466666666667V361.1733333333334C362.6666666666667 350.5066666666667 426.6666666666667 277.9733333333334 426.6666666666667 192C426.6666666666667 154.0266666666667 414.08 117.3333333333334 390.6133333333333 87.4666666666667z" /></svg>