<?xml version="1.0" encoding="UTF-8"?><!DOCTYPE svg PUBLIC "-//W3C//DTD SVG 1.1//EN" "http://www.w3.org/Graphics/SVG/1.1/DTD/svg11.dtd"><svg xmlns="http://www.w3.org/2000/svg" xmlns:xlink="http://www.w3.org/1999/xlink" version="1.1" width="512" height="512" viewBox="0 0 512 512">    <path fill="#ffffff" transform="scale(1, -1) translate(0, -448)" glyph-name="hops" unicode="&#xF2DF;" horiz-adv-x="512" d=" M448 192S266.6666666666667 234.6666666666667 266.6666666666667 405.3333333333333C266.6666666666667 405.3333333333333 448 405.3333333333333 448 192M64 192C64 405.3333333333333 245.3333333333333 405.3333333333333 245.3333333333333 405.3333333333333C245.3333333333333 234.6666666666667 64 192 64 192M256 309.3333333333334S277.3333333333333 263.2533333333334 320 224C314.88 145.92 256 106.6666666666667 256 106.6666666666667S197.12 145.92 192 224C234.6666666666667 263.2533333333334 256 309.3333333333334 256 309.3333333333334M442.6666666666667 165.3333333333334S426.6666666666667 85.3333333333334 384 42.6666666666667C384 42.6666666666667 331.3066666666666 77.6533333333334 305.7066666666667 132.0533333333334C321.0666666666667 158.2933333333334 330.6666666666667 189.4400000000001 336 210.56C365.44 188.16 400 170.6666666666667 442.6666666666667 165.3333333333334M330.6666666666667 58.6666666666667C309.3333333333333 16 256 -16 256 -16S202.6666666666667 16 181.3333333333333 58.6666666666667C181.3333333333333 58.6666666666667 204.5866666666667 78.08 220.8 110.9333333333333C230.8266666666667 99.2 242.3466666666667 89.8133333333334 256 85.3333333333334C269.6533333333333 89.8133333333334 281.1733333333333 99.2 291.2 110.9333333333333C307.4133333333333 78.08 330.6666666666667 58.6666666666667 330.6666666666667 58.6666666666667M69.3333333333333 165.3333333333334C112 170.6666666666667 146.56 188.16 176 210.56C181.3333333333333 189.4400000000001 190.9333333333333 158.2933333333334 206.2933333333333 132.0533333333334C180.6933333333333 77.6533333333334 128 42.6666666666667 128 42.6666666666667C85.3333333333333 85.3333333333334 69.3333333333333 165.3333333333334 69.3333333333333 165.3333333333334z" /></svg>