<?xml version="1.0" encoding="UTF-8"?><!DOCTYPE svg PUBLIC "-//W3C//DTD SVG 1.1//EN" "http://www.w3.org/Graphics/SVG/1.1/DTD/svg11.dtd"><svg xmlns="http://www.w3.org/2000/svg" xmlns:xlink="http://www.w3.org/1999/xlink" version="1.1" width="512" height="512" viewBox="0 0 512 512">    <path fill="#ffffff" transform="scale(1, -1) translate(0, -448)" glyph-name="lock-open-outline" unicode="&#xF340;" horiz-adv-x="512" d=" M384 21.3333333333334V234.6666666666667H128V21.3333333333334H384M384 277.3333333333334C407.4666666666667 277.3333333333334 426.6666666666667 258.1333333333334 426.6666666666667 234.6666666666667V21.3333333333334C426.6666666666667 -2.1333333333333 407.4666666666667 -21.3333333333333 384 -21.3333333333333H128C104.32 -21.3333333333333 85.3333333333333 -2.1333333333333 85.3333333333333 21.3333333333334V234.6666666666667C85.3333333333333 258.1333333333334 104.5333333333333 277.3333333333334 128 277.3333333333334H320V320C320 355.4133333333334 291.4133333333333 384 256 384S192 355.4133333333334 192 320H149.3333333333333C149.3333333333333 378.88 197.12 426.6666666666667 256 426.6666666666667S362.6666666666667 378.88 362.6666666666667 320V277.3333333333334H384M256 85.3333333333334C232.5333333333334 85.3333333333334 213.3333333333333 104.5333333333333 213.3333333333333 128S232.5333333333334 170.6666666666667 256 170.6666666666667S298.6666666666667 151.4666666666667 298.6666666666667 128S279.4666666666667 85.3333333333334 256 85.3333333333334z" /></svg>