<?xml version="1.0" encoding="UTF-8"?><!DOCTYPE svg PUBLIC "-//W3C//DTD SVG 1.1//EN" "http://www.w3.org/Graphics/SVG/1.1/DTD/svg11.dtd"><svg xmlns="http://www.w3.org/2000/svg" xmlns:xlink="http://www.w3.org/1999/xlink" version="1.1" width="512" height="512" viewBox="0 0 512 512">    <path fill="#ffffff" transform="scale(1, -1) translate(0, -448)" glyph-name="glasses" unicode="&#xF2AA;" horiz-adv-x="512" d=" M64 234.6666666666667C58.88 234.6666666666667 54.4 232.7466666666667 51.4133333333333 229.3333333333334C48.4266666666667 226.1333333333334 47.1466666666667 221.44 47.7866666666667 216.32L58.4533333333333 152.5333333333334C60.16 138.6666666666667 72.5333333333333 128 85.3333333333333 128H149.3333333333333C162.9866666666667 128 178.3466666666666 139.9466666666667 181.3333333333333 153.1733333333334L203.9466666666667 221.2266666666667C204.8 224 204.16 228.0533333333334 202.6666666666667 230.6133333333333C200.32 233.1733333333333 196.6933333333333 234.6666666666667 192 234.6666666666667H64M149.3333333333333 85.3333333333334H85.3333333333333C50.7733333333333 85.3333333333334 20.48 112.2133333333334 16.2133333333333 146.3466666666667L5.5466666666667 210.1333333333333C3.2 228.2666666666667 8.32 245.3333333333334 19.4133333333333 257.7066666666667C30.5066666666667 270.0800000000001 46.72 277.3333333333334 64 277.3333333333334H192C209.7066666666667 277.3333333333334 225.7066666666667 269.8666666666667 235.9466666666667 256.8533333333334C238.2933333333333 253.6533333333333 240.4266666666667 250.24 242.1333333333334 246.4C251.3066666666667 248.32 260.6933333333333 248.32 269.6533333333333 246.4C271.36 250.24 273.4933333333334 253.6533333333333 276.0533333333334 256.8533333333334C286.08 269.8666666666667 302.08 277.3333333333334 320 277.3333333333334H448C465.28 277.3333333333334 481.4933333333333 270.0800000000001 492.5866666666666 257.7066666666667C503.4666666666667 245.3333333333334 508.5866666666666 228.2666666666667 506.4533333333333 210.9866666666667L495.5733333333333 145.4933333333334C491.52 112.2133333333334 461.0133333333333 85.3333333333334 426.6666666666667 85.3333333333334H362.6666666666667C329.3866666666667 85.3333333333334 296.96 110.72 288.8533333333333 142.9333333333333L269.6533333333333 200.7466666666667C261.5466666666666 206.72 250.24 206.72 242.1333333333333 200.7466666666667L222.5066666666666 141.4400000000001C214.8266666666667 110.5066666666667 182.6133333333334 85.3333333333334 149.3333333333333 85.3333333333334M320 234.6666666666667C315.3066666666666 234.6666666666667 311.68 233.1733333333334 309.3333333333333 230.6133333333334C307.6266666666667 228.0533333333334 307.2 224 308.2666666666667 219.7333333333334L329.8133333333333 154.6666666666667C333.6533333333333 139.9466666666667 349.0133333333333 128 362.6666666666667 128H426.6666666666667C439.2533333333334 128 451.84 138.6666666666667 453.3333333333333 151.68L464.2133333333334 217.1733333333334C464.8533333333334 221.44 463.5733333333333 226.1333333333334 460.5866666666666 229.3333333333334C457.6 232.7466666666667 453.1199999999999 234.6666666666667 448 234.6666666666667H320z" /></svg>