<?xml version="1.0" encoding="UTF-8"?><!DOCTYPE svg PUBLIC "-//W3C//DTD SVG 1.1//EN" "http://www.w3.org/Graphics/SVG/1.1/DTD/svg11.dtd"><svg xmlns="http://www.w3.org/2000/svg" xmlns:xlink="http://www.w3.org/1999/xlink" version="1.1" width="512" height="512" viewBox="0 0 512 512">    <path fill="#ffffff" transform="scale(1, -1) translate(0, -448)" glyph-name="folder-lock" unicode="&#xF250;" horiz-adv-x="512" d=" M426.6666666666667 320C450.1333333333334 320 469.3333333333333 300.8 469.3333333333333 277.3333333333334V64C469.3333333333333 40.5333333333333 450.1333333333334 21.3333333333334 426.6666666666667 21.3333333333334H85.3333333333333C61.6533333333333 21.3333333333334 42.6666666666667 40.5333333333333 42.6666666666667 64V320C42.6666666666667 343.68 61.6533333333333 362.6666666666667 85.3333333333333 362.6666666666667H213.3333333333333L256 320H426.6666666666667M405.3333333333333 85.3333333333334V170.6666666666667H384V192C384 227.4133333333334 355.4133333333333 256 320 256S256 227.4133333333334 256 192V170.6666666666667H234.6666666666667V85.3333333333334H405.3333333333333M320 213.3333333333334C331.7333333333334 213.3333333333334 341.3333333333333 203.7333333333334 341.3333333333333 192V170.6666666666667H298.6666666666667V192C298.6666666666667 203.7333333333334 308.2666666666667 213.3333333333334 320 213.3333333333334z" /></svg>