<?xml version="1.0" encoding="UTF-8"?><!DOCTYPE svg PUBLIC "-//W3C//DTD SVG 1.1//EN" "http://www.w3.org/Graphics/SVG/1.1/DTD/svg11.dtd"><svg xmlns="http://www.w3.org/2000/svg" xmlns:xlink="http://www.w3.org/1999/xlink" version="1.1" width="512" height="512" viewBox="0 0 512 512">    <path fill="#ffffff" transform="scale(1, -1) translate(0, -448)" glyph-name="nativescript" unicode="&#xF87F;" horiz-adv-x="512" d=" M160 384H352C405.3333333333333 384 448 341.3333333333334 448 288V96C448 42.6666666666667 405.3333333333333 0 352 0H160C106.6666666666667 0 64 42.6666666666667 64 96V288C64 341.3333333333334 106.6666666666667 384 160 384M128 160V96C128 78.2933333333334 142.2933333333333 64 160 64H192V224L320 64H352C369.7066666666666 64 384 78.2933333333334 384 96V160C384 177.7066666666667 398.2933333333334 192 416 192C398.2933333333334 192 384 206.2933333333334 384 224V288C384 305.7066666666667 369.7066666666666 320 352 320H320V160L192 320H160C142.2933333333333 320 128 305.7066666666667 128 288V224C128 206.2933333333334 113.7066666666667 192 96 192C113.7066666666667 192 128 177.7066666666667 128 160z" /></svg>