<?xml version="1.0" encoding="UTF-8"?><!DOCTYPE svg PUBLIC "-//W3C//DTD SVG 1.1//EN" "http://www.w3.org/Graphics/SVG/1.1/DTD/svg11.dtd"><svg xmlns="http://www.w3.org/2000/svg" xmlns:xlink="http://www.w3.org/1999/xlink" version="1.1" width="512" height="512" viewBox="0 0 512 512">    <path fill="#ffffff" transform="scale(1, -1) translate(0, -448)" glyph-name="fire" unicode="&#xF238;" horiz-adv-x="512" d=" M374.4 209.0666666666667C369.4933333333334 215.4666666666667 363.7333333333334 221.0133333333334 358.1866666666666 226.5600000000001C344.32 239.36 328.32 248.5333333333334 314.88 261.9733333333334C283.7333333333334 293.12 277.3333333333333 344.5333333333334 296.7466666666667 384C277.3333333333333 379.0933333333334 259.4133333333333 368 244.48 355.8400000000001C190.2933333333334 311.4666666666667 168.96 233.1733333333334 194.56 165.9733333333334C195.4133333333333 163.84 196.2666666666667 161.7066666666667 196.2666666666667 158.9333333333333C196.2666666666667 154.24 193.0666666666667 149.9733333333334 188.8 148.2666666666667C184.1066666666667 146.1333333333333 178.9866666666667 147.4133333333334 175.1466666666667 150.8266666666667C173.8666666666667 151.8933333333333 173.0133333333334 152.96 171.9466666666667 154.4533333333333C148.48 184.96 144.64 228.6933333333334 160.64 263.68C125.6533333333333 234.6666666666667 106.6666666666667 185.6 109.6533333333333 139.3066666666667C110.5066666666667 128.64 111.7866666666667 117.9733333333334 115.4133333333333 107.3066666666667C118.4 94.5066666666667 123.9466666666667 81.7066666666667 130.7733333333333 70.4C152.96 33.4933333333333 192 7.0400000000001 234.0266666666667 1.7066666666667C278.8266666666666 -4.0533333333333 326.8266666666666 4.2666666666668 361.1733333333333 35.8400000000001C399.5733333333333 71.2533333333335 413.44 128.0000000000001 393.1733333333333 176.6400000000001L390.4 182.1866666666667C386.1333333333334 192.0000000000001 380.3733333333334 200.7466666666667 373.3333333333333 208.8533333333334L374.4 209.0666666666667M308.2666666666667 74.6666666666667C302.2933333333334 69.5466666666668 292.6933333333334 64.0000000000001 285.2266666666667 61.8666666666667C261.76 53.3333333333334 238.2933333333334 65.2800000000001 224 79.3600000000001C249.3866666666667 85.3333333333334 264.32 104.1066666666667 268.5866666666667 123.0933333333334C272.2133333333333 140.1600000000001 265.6 154.2400000000001 262.8266666666667 170.6666666666668C260.2666666666667 186.4533333333334 260.6933333333334 199.8933333333334 266.6666666666667 214.6133333333334C270.2933333333333 206.5066666666668 274.56 198.4000000000001 279.4666666666667 192.0000000000001C295.68 170.6666666666668 321.0666666666666 161.2800000000001 326.4 132.2666666666668C327.2533333333334 129.2800000000001 327.68 126.2933333333334 327.68 123.0933333333334C328.32 105.6000000000001 320.8533333333334 86.4000000000001 308.0533333333334 74.6666666666667H308.2666666666667z" /></svg>