<?xml version="1.0" encoding="UTF-8"?><!DOCTYPE svg PUBLIC "-//W3C//DTD SVG 1.1//EN" "http://www.w3.org/Graphics/SVG/1.1/DTD/svg11.dtd"><svg xmlns="http://www.w3.org/2000/svg" xmlns:xlink="http://www.w3.org/1999/xlink" version="1.1" width="512" height="512" viewBox="0 0 512 512">    <path fill="#ffffff" transform="scale(1, -1) translate(0, -448)" glyph-name="vibrate" unicode="&#xF566;" horiz-adv-x="512" d=" M341.3333333333333 42.6666666666667H170.6666666666667V341.3333333333334H341.3333333333333M352 384H160C142.2933333333333 384 128 369.7066666666667 128 352V32C128 14.2933333333334 142.2933333333333 0 160 0H352C369.7066666666666 0 384 14.2933333333334 384 32V352C384 369.7066666666667 369.7066666666666 384 352 384M405.3333333333333 85.3333333333334H448V298.6666666666667H405.3333333333333M469.3333333333333 256V128H512V256M64 85.3333333333334H106.6666666666667V298.6666666666667H64M0 128H42.6666666666667V256H0V128z" /></svg>