<?xml version="1.0" encoding="UTF-8"?><!DOCTYPE svg PUBLIC "-//W3C//DTD SVG 1.1//EN" "http://www.w3.org/Graphics/SVG/1.1/DTD/svg11.dtd"><svg xmlns="http://www.w3.org/2000/svg" xmlns:xlink="http://www.w3.org/1999/xlink" version="1.1" width="512" height="512" viewBox="0 0 512 512">    <path fill="#ffffff" transform="scale(1, -1) translate(0, -448)" glyph-name="skate" unicode="&#xFD11;" horiz-adv-x="512" d=" M450.1333333333334 96C434.3466666666667 103.04 416 96 409.3866666666667 79.7866666666666C406.6133333333334 72.96 401.0666666666667 66.7733333333333 394.6666666666667 64H64V0H383.36C419.84 0 452.6933333333333 21.3333333333334 466.7733333333333 55.2533333333333C473.6 71.04 466.3466666666666 89.3866666666667 450.1333333333333 96M405.3333333333333 128S405.3333333333333 106.6666666666667 362.6666666666667 106.6666666666667H85.3333333333333V384H234.6666666666667L239.1466666666667 352H197.12V320H243.84L248.32 288H197.12V256H253.0133333333333L256 234.6666666666667H298.6666666666667S405.3333333333333 234.6666666666667 405.3333333333333 128z" /></svg>