<?xml version="1.0" encoding="UTF-8"?><!DOCTYPE svg PUBLIC "-//W3C//DTD SVG 1.1//EN" "http://www.w3.org/Graphics/SVG/1.1/DTD/svg11.dtd"><svg xmlns="http://www.w3.org/2000/svg" xmlns:xlink="http://www.w3.org/1999/xlink" version="1.1" width="512" height="512" viewBox="0 0 512 512">    <path fill="#ffffff" transform="scale(1, -1) translate(0, -448)" glyph-name="cloud-braces" unicode="&#xF7B4;" horiz-adv-x="512" d=" M128 21.3333333333334C57.3866666666667 21.3333333333334 0 78.72 0 149.3333333333334C0 215.2533333333333 49.92 269.6533333333334 114.1333333333333 276.48C140.8 327.68 194.3466666666666 362.6666666666667 256 362.6666666666667C333.44 362.6666666666667 398.08 307.6266666666667 412.8 234.6666666666667C468.2666666666667 230.6133333333334 512 184.3200000000001 512 128C512 69.1200000000001 464.2133333333333 21.3333333333334 405.3333333333333 21.3333333333334H128M394.6666666666667 192H384C372.2666666666667 192 362.6666666666667 201.6 362.6666666666667 213.3333333333334V234.6666666666667C362.6666666666667 258.1333333333334 343.4666666666667 277.3333333333334 320 277.3333333333334H288V234.6666666666667H320V213.3333333333334C320 189.8666666666667 339.2 170.6666666666667 362.6666666666667 170.6666666666667C339.2 170.6666666666667 320 151.4666666666667 320 128V106.6666666666667H288V64H320C343.4666666666667 64 362.6666666666667 83.2 362.6666666666667 106.6666666666667V128C362.6666666666667 139.7333333333334 372.2666666666667 149.3333333333334 384 149.3333333333334H394.6666666666667V192M117.3333333333333 192V149.3333333333334H128C139.7333333333333 149.3333333333334 149.3333333333333 139.7333333333334 149.3333333333333 128V106.6666666666667C149.3333333333333 83.2 168.5333333333333 64 192 64H224V106.6666666666667H192V128C192 151.4666666666667 172.8 170.6666666666667 149.3333333333333 170.6666666666667C172.8 170.6666666666667 192 189.8666666666667 192 213.3333333333334V234.6666666666667H224V277.3333333333334H192C168.5333333333333 277.3333333333334 149.3333333333333 258.1333333333334 149.3333333333333 234.6666666666667V213.3333333333334C149.3333333333333 201.6 139.7333333333333 192 128 192H117.3333333333333z" /></svg>