<?xml version="1.0" encoding="UTF-8"?><!DOCTYPE svg PUBLIC "-//W3C//DTD SVG 1.1//EN" "http://www.w3.org/Graphics/SVG/1.1/DTD/svg11.dtd"><svg xmlns="http://www.w3.org/2000/svg" xmlns:xlink="http://www.w3.org/1999/xlink" version="1.1" width="512" height="512" viewBox="0 0 512 512">    <path fill="#ffffff" transform="scale(1, -1) translate(0, -448)" glyph-name="quicktime" unicode="&#xF436;" horiz-adv-x="512" d=" M256 384C362.0266666666667 384 448 298.0266666666667 448 192C448 154.4533333333334 437.3333333333333 119.4666666666667 418.56 89.8133333333334L448 60.3733333333333V21.3333333333334C448 9.6 438.4 0 426.6666666666667 0H387.84L358.1866666666666 29.44C328.7466666666667 10.6666666666667 293.5466666666666 0 256 0C149.9733333333333 0 64 85.9733333333334 64 192S149.9733333333333 384 256 384M256 298.6666666666667C197.12 298.6666666666667 149.3333333333333 250.88 149.3333333333333 192S197.12 85.3333333333334 256 85.3333333333334C269.8666666666667 85.3333333333334 282.88 87.8933333333334 295.04 92.8000000000001L233.6 154.24C216.96 170.6666666666667 216.96 197.9733333333334 233.6 214.6133333333334C250.24 231.2533333333334 277.3333333333333 231.2533333333334 293.9733333333333 214.6133333333334L355.4133333333333 153.1733333333334C360.1066666666667 165.12 362.6666666666667 178.3466666666667 362.6666666666667 192C362.6666666666667 250.88 314.88 298.6666666666667 256 298.6666666666667z" /></svg>