<?xml version="1.0" encoding="UTF-8"?><!DOCTYPE svg PUBLIC "-//W3C//DTD SVG 1.1//EN" "http://www.w3.org/Graphics/SVG/1.1/DTD/svg11.dtd"><svg xmlns="http://www.w3.org/2000/svg" xmlns:xlink="http://www.w3.org/1999/xlink" version="1.1" width="512" height="512" viewBox="0 0 512 512">    <path fill="#ffffff" transform="scale(1, -1) translate(0, -448)" glyph-name="share-variant" unicode="&#xF497;" horiz-adv-x="512" d=" M384 104.96C367.7866666666667 104.96 353.28 98.5600000000001 342.1866666666666 88.5333333333334L190.08 177.0666666666667C191.1466666666667 181.9733333333334 192 186.8800000000001 192 192C192 197.12 191.1466666666667 202.0266666666667 190.08 206.9333333333333L340.48 294.6133333333334C352 283.9466666666667 367.1466666666667 277.3333333333334 384 277.3333333333334C419.4133333333333 277.3333333333334 448 305.92 448 341.3333333333334S419.4133333333333 405.3333333333333 384 405.3333333333333S320 376.7466666666667 320 341.3333333333334C320 336.2133333333334 320.8533333333333 331.3066666666667 321.92 326.4L171.52 238.72C160 249.3866666666667 144.8533333333333 256 128 256C92.5866666666667 256 64 227.4133333333334 64 192S92.5866666666667 128 128 128C144.8533333333333 128 160 134.6133333333334 171.52 145.28L323.4133333333333 56.7466666666667C322.3466666666667 52.2666666666667 321.7066666666667 47.5733333333334 321.7066666666667 42.6666666666667C321.7066666666667 8.3200000000001 349.6533333333333 -19.4133333333333 384 -19.4133333333333C418.3466666666667 -19.4133333333333 446.2933333333334 8.3200000000001 446.2933333333334 42.6666666666667S418.3466666666667 104.96 384 104.96z" /></svg>