<?xml version="1.0" encoding="UTF-8"?><!DOCTYPE svg PUBLIC "-//W3C//DTD SVG 1.1//EN" "http://www.w3.org/Graphics/SVG/1.1/DTD/svg11.dtd"><svg xmlns="http://www.w3.org/2000/svg" xmlns:xlink="http://www.w3.org/1999/xlink" version="1.1" width="512" height="512" viewBox="0 0 512 512">    <path fill="#ffffff" transform="scale(1, -1) translate(0, -448)" glyph-name="calendar-star" unicode="&#xF9D2;" horiz-adv-x="512" d=" M405.3333333333333 21.3333333333334H106.6666666666667V256H405.3333333333333M341.3333333333333 405.3333333333333V362.6666666666667H170.6666666666667V405.3333333333333H128V362.6666666666667H106.6666666666667C83.2 362.6666666666667 64 343.4666666666667 64 320V21.3333333333334C64 -2.1333333333333 83.2 -21.3333333333333 106.6666666666667 -21.3333333333333H405.3333333333333C428.8 -21.3333333333333 448 -2.1333333333333 448 21.3333333333334V320C448 343.4666666666667 428.8 362.6666666666667 405.3333333333333 362.6666666666667H384V405.3333333333333M232.1066666666667 170.6666666666667H155.0933333333333L217.3866666666667 125.6533333333334L193.7066666666667 52.0533333333334L256 97.4933333333333L318.2933333333333 52.0533333333334L294.4 125.4400000000001L356.6933333333333 170.6666666666667H279.8933333333333L256 244.0533333333334L232.1066666666667 170.6666666666667z" /></svg>