<?xml version="1.0" encoding="UTF-8"?><!DOCTYPE svg PUBLIC "-//W3C//DTD SVG 1.1//EN" "http://www.w3.org/Graphics/SVG/1.1/DTD/svg11.dtd"><svg xmlns="http://www.w3.org/2000/svg" xmlns:xlink="http://www.w3.org/1999/xlink" version="1.1" width="512" height="512" viewBox="0 0 512 512">    <path fill="#ffffff" transform="scale(1, -1) translate(0, -448)" glyph-name="link-variant-off" unicode="&#xF33A;" horiz-adv-x="512" d=" M42.6666666666667 335.5733333333334L69.9733333333333 362.6666666666667L426.6666666666667 5.9733333333334L399.5733333333333 -21.3333333333333L296.5333333333333 81.7066666666667L240.8533333333334 26.0266666666666C199.2533333333334 -15.5733333333333 131.6266666666667 -15.5733333333333 90.0266666666667 26.0266666666666C48.4266666666667 67.6266666666667 48.4266666666667 135.2533333333333 90.0266666666667 176.8533333333334L121.8133333333334 208.64C121.6 191.1466666666667 124.3733333333334 173.6533333333333 130.3466666666667 156.8L120.32 146.7733333333333C95.1466666666667 121.8133333333333 95.1466666666667 81.28 120.32 56.3200000000001C145.28 31.1466666666667 185.8133333333333 31.1466666666667 210.7733333333334 56.3200000000001L266.6666666666668 111.7866666666667L232.1066666666667 146.1333333333333C231.8933333333334 141.0133333333333 229.7600000000001 135.68 225.9200000000001 131.6266666666667C217.6000000000001 123.3066666666667 203.9466666666668 123.3066666666667 195.6266666666667 131.6266666666667C173.2266666666667 154.24 162.7733333333334 184.1066666666667 164.6933333333334 213.3333333333334L42.6666666666667 335.5733333333334M271.1466666666667 357.9733333333334C312.7466666666667 399.5733333333333 380.3733333333334 399.5733333333333 421.9733333333334 357.9733333333334C463.5733333333333 316.3733333333334 463.5733333333333 248.7466666666667 421.9733333333334 207.1466666666667L390.1866666666667 175.36C390.4000000000001 192.8533333333334 387.6266666666667 210.3466666666667 381.6533333333334 226.9866666666667L391.6800000000001 237.2266666666667C416.8533333333334 262.1866666666667 416.8533333333334 302.7200000000001 391.6800000000001 327.6800000000001C366.7200000000001 352.8533333333334 326.1866666666667 352.8533333333334 301.2266666666667 327.6800000000001L230.1866666666667 256.6400000000001L200.1066666666667 286.9333333333334L271.1466666666667 357.9733333333334M286.0800000000001 252.3733333333334C294.4000000000001 260.6933333333334 308.0533333333334 260.6933333333334 316.3733333333334 252.3733333333334C345.6 223.1466666666667 354.3466666666667 181.3333333333334 342.6133333333334 144.4266666666667L304.6400000000001 182.1866666666667C303.5733333333334 196.6933333333334 297.3866666666667 210.9866666666667 286.0800000000001 222.0800000000001C277.3333333333334 230.4000000000001 277.3333333333334 244.0533333333334 286.0800000000001 252.3733333333334z" /></svg>