<?xml version="1.0" encoding="UTF-8"?><!DOCTYPE svg PUBLIC "-//W3C//DTD SVG 1.1//EN" "http://www.w3.org/Graphics/SVG/1.1/DTD/svg11.dtd"><svg xmlns="http://www.w3.org/2000/svg" xmlns:xlink="http://www.w3.org/1999/xlink" version="1.1" width="512" height="512" viewBox="0 0 512 512">    <path fill="#ffffff" transform="scale(1, -1) translate(0, -448)" glyph-name="pencil-off" unicode="&#xF3EF;" horiz-adv-x="512" d=" M398.08 405.3333333333333C392.5333333333333 405.3333333333333 387.4133333333333 403.4133333333334 383.36 399.36L344.1066666666667 359.8933333333333L424.1066666666667 279.8933333333333L463.36 319.36C471.6799999999999 327.68 471.6799999999999 341.3333333333333 463.36 349.2266666666667L413.44 399.36C409.1733333333333 403.4133333333333 403.4133333333333 405.3333333333333 398.08 405.3333333333333M69.9733333333333 362.6666666666667L42.6666666666667 335.36L181.3333333333333 197.3333333333334L85.3333333333333 101.3333333333334V21.3333333333334H165.3333333333333L261.3333333333333 117.3333333333334L399.36 -21.3333333333333L426.6666666666667 5.9733333333334L288 144L208 224L69.9733333333333 362.6666666666667M321.28 337.2800000000001L235.3066666666666 251.3066666666667L315.3066666666666 171.3066666666667L401.28 257.2800000000001L321.28 337.2800000000001z" /></svg>