<?xml version="1.0" encoding="UTF-8"?><!DOCTYPE svg PUBLIC "-//W3C//DTD SVG 1.1//EN" "http://www.w3.org/Graphics/SVG/1.1/DTD/svg11.dtd"><svg xmlns="http://www.w3.org/2000/svg" xmlns:xlink="http://www.w3.org/1999/xlink" version="1.1" width="512" height="512" viewBox="0 0 512 512">    <path fill="#ffffff" transform="scale(1, -1) translate(0, -448)" glyph-name="room-service-outline" unicode="&#xFD73;" horiz-adv-x="512" d=" M256 341.3333333333334C279.4666666666667 341.3333333333334 298.6666666666667 322.1333333333334 298.6666666666667 298.6666666666667C298.6666666666667 293.5466666666667 297.8133333333334 288.64 296.1066666666667 283.9466666666667C382.9333333333333 266.6666666666667 448 193.92 448 106.6666666666667H64C64 193.92 129.0666666666667 266.6666666666667 215.8933333333334 283.9466666666667C214.1866666666667 288.64 213.3333333333334 293.5466666666667 213.3333333333334 298.6666666666667C213.3333333333334 322.1333333333334 232.5333333333334 341.3333333333334 256 341.3333333333334M469.3333333333333 42.6666666666667H42.6666666666667V85.3333333333334H469.3333333333333V42.6666666666667M256 245.3333333333334C189.6533333333333 245.3333333333334 133.3333333333333 205.0133333333333 113.92 149.3333333333334H398.08C378.6666666666667 205.0133333333333 322.3466666666667 245.3333333333334 256 245.3333333333334z" /></svg>