<?xml version="1.0" encoding="UTF-8"?><!DOCTYPE svg PUBLIC "-//W3C//DTD SVG 1.1//EN" "http://www.w3.org/Graphics/SVG/1.1/DTD/svg11.dtd"><svg xmlns="http://www.w3.org/2000/svg" xmlns:xlink="http://www.w3.org/1999/xlink" version="1.1" width="512" height="512" viewBox="0 0 512 512">    <path fill="#ffffff" transform="scale(1, -1) translate(0, -448)" glyph-name="code-braces" unicode="&#xF169;" horiz-adv-x="512" d=" M170.6666666666667 384C147.2 384 128 364.8 128 341.3333333333334V256C128 232.5333333333334 108.8 213.3333333333334 85.3333333333333 213.3333333333334H64V170.6666666666667H85.3333333333333C108.8 170.6666666666667 128 151.4666666666667 128 128V42.6666666666667C128 19.2 147.2 0 170.6666666666667 0H213.3333333333333V42.6666666666667H170.6666666666667V149.3333333333334C170.6666666666667 172.8 151.4666666666667 192 128 192C151.4666666666667 192 170.6666666666667 211.2 170.6666666666667 234.6666666666667V341.3333333333334H213.3333333333333V384M341.3333333333333 384C364.8 384 384 364.8 384 341.3333333333334V256C384 232.5333333333334 403.2 213.3333333333334 426.6666666666667 213.3333333333334H448V170.6666666666667H426.6666666666667C403.2 170.6666666666667 384 151.4666666666667 384 128V42.6666666666667C384 19.2 364.8 0 341.3333333333333 0H298.6666666666667V42.6666666666667H341.3333333333333V149.3333333333334C341.3333333333333 172.8 360.5333333333333 192 384 192C360.5333333333333 192 341.3333333333333 211.2 341.3333333333333 234.6666666666667V341.3333333333334H298.6666666666667V384H341.3333333333333z" /></svg>