<?xml version="1.0" encoding="UTF-8"?><!DOCTYPE svg PUBLIC "-//W3C//DTD SVG 1.1//EN" "http://www.w3.org/Graphics/SVG/1.1/DTD/svg11.dtd"><svg xmlns="http://www.w3.org/2000/svg" xmlns:xlink="http://www.w3.org/1999/xlink" version="1.1" width="512" height="512" viewBox="0 0 512 512">    <path fill="#ffffff" transform="scale(1, -1) translate(0, -448)" glyph-name="headphones-bluetooth" unicode="&#xF96F;" horiz-adv-x="512" d=" M170.6666666666667 320C100.0533333333333 320 42.6666666666667 262.6133333333334 42.6666666666667 192V89.6C42.6666666666667 75.52 54.1866666666667 64 68.2666666666667 64H128V149.3333333333334H85.3333333333333V192C85.3333333333333 239.1466666666667 123.52 277.3333333333334 170.6666666666667 277.3333333333334S256 239.1466666666667 256 192V149.3333333333334H213.3333333333333V64H273.0666666666667C287.1466666666667 64 298.6666666666667 75.52 298.6666666666667 89.6V192C298.6666666666667 262.6133333333334 241.28 320 170.6666666666667 320M405.3333333333333 298.6666666666667V217.8133333333334L356.48 266.6666666666667L341.3333333333333 251.52L400.8533333333333 192L341.3333333333333 132.48L356.48 117.3333333333334L405.3333333333333 166.1866666666667V85.3333333333334H416L476.8 146.3466666666667L431.1466666666667 192L476.8 237.8666666666667L416 298.6666666666667H405.3333333333333M426.6666666666667 257.92L446.7200000000001 237.8666666666667L426.6666666666667 217.8133333333334V257.92M426.6666666666667 166.1866666666667L446.7200000000001 146.3466666666667L426.6666666666667 126.2933333333334V166.1866666666667z" /></svg>