<?xml version="1.0" encoding="UTF-8"?><!DOCTYPE svg PUBLIC "-//W3C//DTD SVG 1.1//EN" "http://www.w3.org/Graphics/SVG/1.1/DTD/svg11.dtd"><svg xmlns="http://www.w3.org/2000/svg" xmlns:xlink="http://www.w3.org/1999/xlink" version="1.1" width="512" height="512" viewBox="0 0 512 512">    <path fill="#ffffff" transform="scale(1, -1) translate(0, -448)" glyph-name="dots-horizontal-circle-outline" unicode="&#xFB69;" horiz-adv-x="512" d=" M256 405.3333333333333C373.76 405.3333333333333 469.3333333333333 309.76 469.3333333333333 192S373.76 -21.3333333333333 256 -21.3333333333333S42.6666666666667 74.24 42.6666666666667 192S138.24 405.3333333333333 256 405.3333333333333M256 362.6666666666667C161.7066666666667 362.6666666666667 85.3333333333333 286.2933333333334 85.3333333333333 192S161.7066666666667 21.3333333333334 256 21.3333333333334S426.6666666666667 97.7066666666667 426.6666666666667 192S350.2933333333334 362.6666666666667 256 362.6666666666667M256 224C273.7066666666667 224 288 209.7066666666667 288 192S273.7066666666667 160 256 160S224 174.2933333333334 224 192S238.2933333333333 224 256 224M160 224C177.7066666666667 224 192 209.7066666666667 192 192S177.7066666666667 160 160 160S128 174.2933333333334 128 192S142.2933333333333 224 160 224M352 224C369.7066666666666 224 384 209.7066666666667 384 192S369.7066666666666 160 352 160S320 174.2933333333334 320 192S334.2933333333333 224 352 224z" /></svg>