<?xml version="1.0" encoding="UTF-8"?><!DOCTYPE svg PUBLIC "-//W3C//DTD SVG 1.1//EN" "http://www.w3.org/Graphics/SVG/1.1/DTD/svg11.dtd"><svg xmlns="http://www.w3.org/2000/svg" xmlns:xlink="http://www.w3.org/1999/xlink" version="1.1" width="512" height="512" viewBox="0 0 512 512">    <path fill="#ffffff" transform="scale(1, -1) translate(0, -448)" glyph-name="shield-lock" unicode="&#xF99C;" horiz-adv-x="512" d=" M256 426.6666666666667L64 341.3333333333334V213.3333333333334C64 94.9333333333333 145.92 -15.7866666666667 256 -42.6666666666666C366.08 -15.7866666666666 448 94.9333333333333 448 213.3333333333334V341.3333333333334L256 426.6666666666667M256 298.6666666666667C285.8666666666667 298.6666666666667 315.7333333333334 275.2000000000001 315.7333333333334 245.3333333333334V213.3333333333334C328.5333333333333 213.3333333333334 341.3333333333333 200.5333333333334 341.3333333333333 185.6V110.9333333333333C341.3333333333333 98.1333333333333 328.5333333333333 85.3333333333334 313.6 85.3333333333334H196.2666666666667C183.4666666666667 85.3333333333334 170.6666666666666 98.1333333333334 170.6666666666666 113.0666666666667V187.7333333333334C170.6666666666666 200.5333333333334 183.4666666666667 213.3333333333334 196.2666666666667 213.3333333333334V245.3333333333334C196.2666666666667 275.2000000000001 226.1333333333334 298.6666666666667 256 298.6666666666667M256 273.0666666666667C238.9333333333333 273.0666666666667 224 262.4000000000001 224 245.3333333333334V213.3333333333334H288V245.3333333333334C288 262.4000000000001 273.0666666666667 273.0666666666667 256 273.0666666666667z" /></svg>