<?xml version="1.0" encoding="UTF-8"?><!DOCTYPE svg PUBLIC "-//W3C//DTD SVG 1.1//EN" "http://www.w3.org/Graphics/SVG/1.1/DTD/svg11.dtd"><svg xmlns="http://www.w3.org/2000/svg" xmlns:xlink="http://www.w3.org/1999/xlink" version="1.1" width="512" height="512" viewBox="0 0 512 512">    <path fill="#ffffff" transform="scale(1, -1) translate(0, -448)" glyph-name="food-fork-drink" unicode="&#xF5F2;" horiz-adv-x="512" d=" M64 384C52.2666666666667 384 42.6666666666667 374.4 42.6666666666667 362.6666666666667V245.3333333333334C42.6666666666667 209.28 64.64 178.5600000000001 96 165.9733333333334V32C96 14.2933333333334 110.2933333333333 0 128 0S160 14.2933333333334 160 32V165.9733333333334C191.36 178.5600000000001 213.3333333333333 209.28 213.3333333333333 245.3333333333334V362.6666666666667C213.3333333333333 374.4 203.7333333333334 384 192 384S170.6666666666667 374.4 170.6666666666667 362.6666666666667V277.3333333333334C170.6666666666667 271.36 165.9733333333333 266.6666666666667 160 266.6666666666667S149.3333333333333 271.36 149.3333333333333 277.3333333333334V362.6666666666667C149.3333333333333 374.4 139.7333333333333 384 128 384S106.6666666666667 374.4 106.6666666666667 362.6666666666667V277.3333333333334C106.6666666666667 271.36 101.9733333333333 266.6666666666667 96 266.6666666666667S85.3333333333333 271.36 85.3333333333333 277.3333333333334V362.6666666666667C85.3333333333333 374.4 75.7333333333333 384 64 384M424.1066666666667 384C421.3333333333333 384 418.56 382.0800000000001 416 380.5866666666667L341.3333333333333 336V256H256V213.3333333333334H277.3333333333333L298.6666666666667 0H426.6666666666667L448 213.3333333333334H469.3333333333333V256H384V312.7466666666667L437.3333333333333 344.7466666666667C448 350.7200000000001 450.7733333333333 362.6666666666667 444.5866666666667 373.3333333333334C440.1066666666667 381.0133333333333 432.2133333333334 385.0666666666667 424.1066666666667 384z" /></svg>