<?xml version="1.0" encoding="UTF-8"?><!DOCTYPE svg PUBLIC "-//W3C//DTD SVG 1.1//EN" "http://www.w3.org/Graphics/SVG/1.1/DTD/svg11.dtd"><svg xmlns="http://www.w3.org/2000/svg" xmlns:xlink="http://www.w3.org/1999/xlink" version="1.1" width="512" height="512" viewBox="0 0 512 512">    <path fill="#ffffff" transform="scale(1, -1) translate(0, -448)" glyph-name="phone-hangup" unicode="&#xF3F5;" horiz-adv-x="512" d=" M256 256C221.8666666666667 256 188.8 250.6666666666667 157.8666666666667 240.64V174.5066666666667C157.8666666666667 165.9733333333334 152.96 158.72 145.92 155.3066666666667C125.0133333333333 144.8533333333334 106.0266666666667 131.4133333333334 88.96 115.84C85.3333333333333 112 80 109.6533333333334 74.6666666666667 109.6533333333334C68.2666666666667 109.6533333333334 62.9333333333333 112.2133333333334 59.0933333333333 116.0533333333334L6.1866666666667 168.96C2.3466666666667 172.8 0 178.1333333333333 0 183.8933333333333C0 189.8666666666667 2.3466666666667 195.2 6.1866666666667 199.04C71.2533333333333 260.9066666666667 159.1466666666667 298.6666666666667 256 298.6666666666667C352.8533333333333 298.6666666666667 440.7466666666667 260.9066666666667 505.8133333333333 199.04C509.6533333333333 195.2 512 189.8666666666667 512 183.8933333333334C512 178.1333333333334 509.6533333333333 172.8000000000001 505.8133333333333 168.96L452.9066666666666 116.0533333333334C449.0666666666667 112.2133333333334 443.7333333333334 109.6533333333334 437.3333333333333 109.6533333333334C432 109.6533333333334 426.6666666666667 112 422.8266666666667 115.84C405.9733333333334 131.4133333333334 386.9866666666667 144.8533333333334 366.08 155.3066666666667C359.04 158.72 354.1333333333334 165.9733333333334 354.1333333333334 174.5066666666667V240.64C323.2 250.6666666666667 290.1333333333334 256 256 256z" /></svg>