<?xml version="1.0" encoding="UTF-8"?><!DOCTYPE svg PUBLIC "-//W3C//DTD SVG 1.1//EN" "http://www.w3.org/Graphics/SVG/1.1/DTD/svg11.dtd"><svg xmlns="http://www.w3.org/2000/svg" xmlns:xlink="http://www.w3.org/1999/xlink" version="1.1" width="512" height="512" viewBox="0 0 512 512">    <path fill="#ffffff" transform="scale(1, -1) translate(0, -448)" glyph-name="hand-pointing-left" unicode="&#xFA53;" horiz-adv-x="512" d=" M64 256H277.3333333333333L241.28 324.2666666666667L240.64 328.9600000000001C240.64 335.1466666666667 243.2 340.6933333333334 247.4666666666667 344.7466666666667L263.8933333333333 360.5333333333334L353.4933333333334 256C359.2533333333334 250.4533333333334 362.6666666666667 242.9866666666667 362.6666666666667 234.6666666666667V96C362.6666666666667 79.5733333333334 347.7333333333334 64 330.6666666666667 64H237.6533333333334C224.64 64 213.3333333333333 71.4666666666667 209.0666666666667 82.1333333333334L162.1333333333333 187.5200000000001L159.36 213.3333333333334H64C52.2666666666667 213.3333333333334 42.6666666666667 222.9333333333333 42.6666666666667 234.6666666666667S52.2666666666667 256 64 256M405.3333333333333 64V234.6666666666667H469.3333333333333V64H405.3333333333333z" /></svg>