<?xml version="1.0" encoding="UTF-8"?><!DOCTYPE svg PUBLIC "-//W3C//DTD SVG 1.1//EN" "http://www.w3.org/Graphics/SVG/1.1/DTD/svg11.dtd"><svg xmlns="http://www.w3.org/2000/svg" xmlns:xlink="http://www.w3.org/1999/xlink" version="1.1" width="512" height="512" viewBox="0 0 512 512">    <path fill="#ffffff" transform="scale(1, -1) translate(0, -448)" glyph-name="numeric-0-box-multiple-outline" unicode="&#xF3A2;" horiz-adv-x="512" d=" M448 85.3333333333334V384H149.3333333333333V85.3333333333334H448M448 426.6666666666667C471.4666666666667 426.6666666666667 490.6666666666666 407.4666666666667 490.6666666666666 384V85.3333333333334C490.6666666666666 61.8666666666667 471.4666666666667 42.6666666666667 448 42.6666666666667H149.3333333333333C125.8666666666667 42.6666666666667 106.6666666666667 61.8666666666667 106.6666666666667 85.3333333333334V384C106.6666666666667 407.4666666666667 125.8666666666667 426.6666666666667 149.3333333333333 426.6666666666667H448M64 341.3333333333334V0H405.3333333333333V-42.6666666666666H64C40.5333333333333 -42.6666666666666 21.3333333333333 -23.4666666666667 21.3333333333333 0V341.3333333333334H64M277.3333333333333 341.3333333333334H320C343.4666666666667 341.3333333333334 362.6666666666667 322.1333333333334 362.6666666666667 298.6666666666667V170.6666666666667C362.6666666666667 147.2000000000001 343.4666666666667 128 320 128H277.3333333333333C253.8666666666667 128 234.6666666666667 147.2000000000001 234.6666666666667 170.6666666666667V298.6666666666667C234.6666666666667 322.1333333333334 253.8666666666667 341.3333333333334 277.3333333333333 341.3333333333334M277.3333333333333 298.6666666666667V170.6666666666667H320V298.6666666666667H277.3333333333333z" /></svg>