<?xml version="1.0" encoding="UTF-8"?><!DOCTYPE svg PUBLIC "-//W3C//DTD SVG 1.1//EN" "http://www.w3.org/Graphics/SVG/1.1/DTD/svg11.dtd"><svg xmlns="http://www.w3.org/2000/svg" xmlns:xlink="http://www.w3.org/1999/xlink" version="1.1" width="512" height="512" viewBox="0 0 512 512">    <path fill="#ffffff" transform="scale(1, -1) translate(0, -448)" glyph-name="bluetooth-transfer" unicode="&#xF0B4;" horiz-adv-x="512" d=" M313.8133333333334 283.52L222.08 192L313.8133333333334 100.48L192 -21.3333333333333H170.6666666666667V140.5866666666667L72.7466666666667 42.6666666666667L42.6666666666667 72.7466666666667L161.92 192L42.6666666666667 311.2533333333334L72.7466666666667 341.3333333333334L170.6666666666667 243.4133333333334V405.3333333333333H192L313.8133333333334 283.52M213.3333333333333 323.6266666666667V243.4133333333334L253.44 283.52L213.3333333333333 323.6266666666667M253.44 100.48L213.3333333333333 140.5866666666667V60.3733333333333L253.44 100.48M469.3333333333333 277.3333333333334H426.6666666666667V213.3333333333334H384V277.3333333333334H341.3333333333333L405.3333333333333 362.6666666666667L469.3333333333333 277.3333333333334M469.3333333333333 106.6666666666667L405.3333333333333 21.3333333333334L341.3333333333333 106.6666666666667H384V170.6666666666667H426.6666666666667V106.6666666666667H469.3333333333333z" /></svg>