<?xml version="1.0" encoding="UTF-8"?><!DOCTYPE svg PUBLIC "-//W3C//DTD SVG 1.1//EN" "http://www.w3.org/Graphics/SVG/1.1/DTD/svg11.dtd"><svg xmlns="http://www.w3.org/2000/svg" xmlns:xlink="http://www.w3.org/1999/xlink" version="1.1" width="512" height="512" viewBox="0 0 512 512">    <path fill="#ffffff" transform="scale(1, -1) translate(0, -448)" glyph-name="vector-selection" unicode="&#xF562;" horiz-adv-x="512" d=" M64 426.6666666666667H106.6666666666667V384H64V341.3333333333334H21.3333333333333V384C21.3333333333333 407.4666666666667 40.5333333333333 426.6666666666667 64 426.6666666666667M298.6666666666667 426.6666666666667C322.1333333333334 426.6666666666667 341.3333333333333 407.4666666666667 341.3333333333333 384V341.3333333333334H298.6666666666667V384H256V426.6666666666667H298.6666666666667M426.6666666666667 298.6666666666667C450.1333333333334 298.6666666666667 469.3333333333333 279.4666666666667 469.3333333333333 256V213.3333333333334H426.6666666666667V256H384V298.6666666666667H426.6666666666667M469.3333333333333 21.3333333333334C469.3333333333333 -2.1333333333333 450.1333333333334 -21.3333333333333 426.6666666666667 -21.3333333333333H384V21.3333333333334H426.6666666666667V64H469.3333333333333V21.3333333333334M426.6666666666667 170.6666666666667H469.3333333333333V106.6666666666667H426.6666666666667V170.6666666666667M277.3333333333333 256V298.6666666666667H341.3333333333333V234.6666666666667H298.6666666666667V256H277.3333333333333M277.3333333333333 -21.3333333333333V21.3333333333334H341.3333333333333V-21.3333333333333H277.3333333333333M192 -21.3333333333333C168.5333333333333 -21.3333333333333 149.3333333333333 -2.1333333333333 149.3333333333333 21.3333333333334V64H192V21.3333333333334H234.6666666666667V-21.3333333333333H192M149.3333333333333 106.6666666666667V170.6666666666667H192V149.3333333333334H213.3333333333333V106.6666666666667H149.3333333333333M149.3333333333333 384V426.6666666666667H213.3333333333333V384H149.3333333333333M64 106.6666666666667C40.5333333333333 106.6666666666667 21.3333333333333 125.8666666666667 21.3333333333333 149.3333333333334V192H64V149.3333333333334H106.6666666666667V106.6666666666667H64M21.3333333333333 298.6666666666667H64V234.6666666666667H21.3333333333333V298.6666666666667M192 298.6666666666667H234.6666666666667V256H192V213.3333333333334H149.3333333333333V256C149.3333333333333 279.4666666666667 168.5333333333333 298.6666666666667 192 298.6666666666667M341.3333333333333 149.3333333333334C341.3333333333333 125.8666666666667 322.1333333333334 106.6666666666667 298.6666666666667 106.6666666666667H256V149.3333333333334H298.6666666666667V192H341.3333333333333V149.3333333333334z" /></svg>