<?xml version="1.0" encoding="UTF-8"?><!DOCTYPE svg PUBLIC "-//W3C//DTD SVG 1.1//EN" "http://www.w3.org/Graphics/SVG/1.1/DTD/svg11.dtd"><svg xmlns="http://www.w3.org/2000/svg" xmlns:xlink="http://www.w3.org/1999/xlink" version="1.1" width="512" height="512" viewBox="0 0 512 512">    <path fill="#ffffff" transform="scale(1, -1) translate(0, -448)" glyph-name="swim" unicode="&#xF4E3;" horiz-adv-x="512" d=" M42.6666666666667 64C90.0266666666667 85.3333333333334 137.3866666666667 106.6666666666667 184.96 106.6666666666667C232.32 106.6666666666667 279.68 64 327.04 64C374.6133333333333 64 421.9733333333334 106.6666666666667 469.3333333333333 106.6666666666667V42.6666666666667C421.9733333333334 42.6666666666667 374.6133333333333 0 327.04 0C279.68 0 232.32 42.6666666666667 184.96 42.6666666666667C137.3866666666667 42.6666666666667 90.0266666666667 21.3333333333334 42.6666666666667 0V64M184.96 170.6666666666667C168.32 170.6666666666667 151.8933333333333 168.1066666666667 135.4666666666667 163.84L240.4266666666667 237.2266666666667L218.24 263.68C215.2533333333333 267.3066666666667 213.3333333333333 272.2133333333334 213.3333333333333 277.3333333333334C213.3333333333333 284.5866666666667 216.96 291.2000000000001 222.72 295.04L344.7466666666667 380.3733333333334L369.28 345.6L266.0266666666667 273.2800000000001L377.6 140.3733333333333C360.7466666666667 133.3333333333334 343.8933333333333 128 327.04 128C279.68 128 232.32 170.6666666666667 184.96 170.6666666666667M384 298.6666666666667C407.4666666666667 298.6666666666667 426.6666666666667 279.4666666666667 426.6666666666667 256S407.4666666666667 213.3333333333334 384 213.3333333333334S341.3333333333333 232.5333333333334 341.3333333333333 256S360.5333333333333 298.6666666666667 384 298.6666666666667z" /></svg>