<?xml version="1.0" encoding="UTF-8"?><!DOCTYPE svg PUBLIC "-//W3C//DTD SVG 1.1//EN" "http://www.w3.org/Graphics/SVG/1.1/DTD/svg11.dtd"><svg xmlns="http://www.w3.org/2000/svg" xmlns:xlink="http://www.w3.org/1999/xlink" version="1.1" width="512" height="512" viewBox="0 0 512 512">    <path fill="#ffffff" transform="scale(1, -1) translate(0, -448)" glyph-name="apple-ios" unicode="&#xF037;" horiz-adv-x="512" d=" M426.6666666666667 256V298.6666666666667H341.3333333333333C317.8666666666667 298.6666666666667 298.6666666666667 279.4666666666667 298.6666666666667 256V213.3333333333334C298.6666666666667 189.8666666666667 317.8666666666667 170.6666666666667 341.3333333333333 170.6666666666667H384V128H298.6666666666667V85.3333333333334H384C407.4666666666667 85.3333333333334 426.6666666666667 104.5333333333333 426.6666666666667 128V170.6666666666667C426.6666666666667 194.1333333333333 407.4666666666667 213.3333333333334 384 213.3333333333334H341.3333333333333V256M234.6666666666667 128H192V256H234.6666666666667M234.6666666666667 298.6666666666667H192C168.5333333333333 298.6666666666667 149.3333333333333 279.4666666666667 149.3333333333333 256V128C149.3333333333333 104.5333333333333 168.5333333333333 85.3333333333334 192 85.3333333333334H234.6666666666667C258.1333333333334 85.3333333333334 277.3333333333333 104.5333333333333 277.3333333333333 128V256C277.3333333333333 279.4666666666667 258.1333333333334 298.6666666666667 234.6666666666667 298.6666666666667M85.3333333333333 85.3333333333334H128V213.3333333333334H85.3333333333333M85.3333333333333 256H128V298.6666666666667H85.3333333333333V256z" /></svg>