<?xml version="1.0" encoding="UTF-8"?><!DOCTYPE svg PUBLIC "-//W3C//DTD SVG 1.1//EN" "http://www.w3.org/Graphics/SVG/1.1/DTD/svg11.dtd"><svg xmlns="http://www.w3.org/2000/svg" xmlns:xlink="http://www.w3.org/1999/xlink" version="1.1" width="512" height="512" viewBox="0 0 512 512">    <path fill="#ffffff" transform="scale(1, -1) translate(0, -448)" glyph-name="voice" unicode="&#xF5CB;" horiz-adv-x="512" d=" M192 341.3333333333334C239.1466666666667 341.3333333333334 277.3333333333333 303.1466666666667 277.3333333333333 256S239.1466666666667 170.6666666666667 192 170.6666666666667S106.6666666666667 208.8533333333333 106.6666666666667 256S144.8533333333333 341.3333333333334 192 341.3333333333334M192 128C248.96 128 362.6666666666667 99.4133333333334 362.6666666666667 42.6666666666667V0H21.3333333333333V42.6666666666667C21.3333333333333 99.4133333333334 135.04 128 192 128M357.5466666666666 333.6533333333334C400.64 286.7200000000001 400.64 221.6533333333334 357.5466666666666 178.5600000000001L321.7066666666666 214.6133333333334C339.6266666666666 239.7866666666667 339.6266666666666 272.4266666666667 321.7066666666666 297.6L357.5466666666666 333.6533333333334M428.16 405.3333333333333C512 318.9333333333334 511.36 189.6533333333334 428.16 106.6666666666667L393.3866666666667 141.44C452.48 209.28 452.48 306.1333333333334 393.3866666666667 370.56L428.16 405.3333333333333z" /></svg>