<?xml version="1.0" encoding="UTF-8"?><!DOCTYPE svg PUBLIC "-//W3C//DTD SVG 1.1//EN" "http://www.w3.org/Graphics/SVG/1.1/DTD/svg11.dtd"><svg xmlns="http://www.w3.org/2000/svg" xmlns:xlink="http://www.w3.org/1999/xlink" version="1.1" width="512" height="512" viewBox="0 0 512 512">    <path fill="#ffffff" transform="scale(1, -1) translate(0, -448)" glyph-name="car-wash" unicode="&#xF10E;" horiz-adv-x="512" d=" M106.6666666666667 170.6666666666667L138.6666666666667 266.6666666666667H373.3333333333333L405.3333333333333 170.6666666666667M373.3333333333333 64C355.6266666666667 64 341.3333333333333 78.2933333333334 341.3333333333333 96S355.6266666666667 128 373.3333333333333 128S405.3333333333333 113.7066666666667 405.3333333333333 96S391.04 64 373.3333333333333 64M138.6666666666667 64C120.96 64 106.6666666666667 78.2933333333334 106.6666666666667 96S120.96 128 138.6666666666667 128S170.6666666666667 113.7066666666667 170.6666666666667 96S156.3733333333333 64 138.6666666666667 64M403.6266666666667 277.3333333333334C399.36 289.7066666666667 387.4133333333333 298.6666666666667 373.3333333333333 298.6666666666667H138.6666666666667C124.5866666666667 298.6666666666667 112.64 289.7066666666667 108.3733333333333 277.3333333333334L64 149.3333333333334V-21.3333333333333C64 -33.0666666666667 73.6 -42.6666666666666 85.3333333333333 -42.6666666666666H106.6666666666667C118.4 -42.6666666666666 128 -33.0666666666667 128 -21.3333333333333V0H384V-21.3333333333333C384 -33.0666666666667 393.6 -42.6666666666666 405.3333333333333 -42.6666666666666H426.6666666666667C438.4 -42.6666666666666 448 -33.0666666666667 448 -21.3333333333333V149.3333333333334M149.3333333333333 341.3333333333334C167.04 341.3333333333334 181.3333333333333 355.6266666666667 181.3333333333333 373.3333333333334C181.3333333333333 394.6666666666667 149.3333333333333 430.9333333333334 149.3333333333333 430.9333333333334S117.3333333333333 394.6666666666667 117.3333333333333 373.3333333333334C117.3333333333333 355.6266666666667 131.6266666666667 341.3333333333334 149.3333333333333 341.3333333333334M256 341.3333333333334C273.7066666666667 341.3333333333334 288 355.6266666666667 288 373.3333333333334C288 394.6666666666667 256 430.9333333333334 256 430.9333333333334S224 394.6666666666667 224 373.3333333333334C224 355.6266666666667 238.2933333333333 341.3333333333334 256 341.3333333333334M362.6666666666667 341.3333333333334C380.3733333333333 341.3333333333334 394.6666666666667 355.6266666666667 394.6666666666667 373.3333333333334C394.6666666666667 394.6666666666667 362.6666666666667 430.9333333333334 362.6666666666667 430.9333333333334S330.6666666666667 394.6666666666667 330.6666666666667 373.3333333333334C330.6666666666667 355.6266666666667 344.9600000000001 341.3333333333334 362.6666666666667 341.3333333333334z" /></svg>