<?xml version="1.0" encoding="UTF-8"?><!DOCTYPE svg PUBLIC "-//W3C//DTD SVG 1.1//EN" "http://www.w3.org/Graphics/SVG/1.1/DTD/svg11.dtd"><svg xmlns="http://www.w3.org/2000/svg" xmlns:xlink="http://www.w3.org/1999/xlink" version="1.1" width="512" height="512" viewBox="0 0 512 512">    <path fill="#ffffff" transform="scale(1, -1) translate(0, -448)" glyph-name="comment-arrow-right-outline" unicode="&#xF9E3;" horiz-adv-x="512" d=" M85.3333333333333 405.3333333333333C61.8666666666667 405.3333333333333 42.6666666666667 386.1333333333334 42.6666666666667 362.6666666666667V106.6666666666667C42.6666666666667 82.9866666666667 61.8666666666667 64 85.3333333333333 64H170.6666666666667V0C170.6666666666667 -11.7333333333333 180.2666666666667 -21.3333333333333 192 -21.3333333333333H202.6666666666667C208 -21.3333333333333 213.3333333333333 -19.1999999999999 217.6 -15.1466666666666L296.5333333333333 64H426.6666666666667C450.3466666666667 64 469.3333333333333 82.9866666666667 469.3333333333333 106.6666666666667V362.6666666666667C469.3333333333333 386.3466666666667 450.1333333333334 405.3333333333333 426.6666666666667 405.3333333333333H85.3333333333333M85.3333333333333 362.6666666666667H426.6666666666667V106.6666666666667H279.04L213.3333333333333 40.96V106.6666666666667H85.3333333333333V362.6666666666667M170.6666666666667 254.9333333333334V210.7733333333333H269.6533333333333L231.2533333333334 172.3733333333333L257.92 145.7066666666667L344.9600000000001 232.96L257.92 320L231.2533333333334 293.3333333333334L269.6533333333333 254.9333333333334H170.6666666666667z" /></svg>