<?xml version="1.0" encoding="UTF-8"?><!DOCTYPE svg PUBLIC "-//W3C//DTD SVG 1.1//EN" "http://www.w3.org/Graphics/SVG/1.1/DTD/svg11.dtd"><svg xmlns="http://www.w3.org/2000/svg" xmlns:xlink="http://www.w3.org/1999/xlink" version="1.1" width="512" height="512" viewBox="0 0 512 512">    <path fill="#ffffff" transform="scale(1, -1) translate(0, -448)" glyph-name="alpha-q-box-outline" unicode="&#xFBF7;" horiz-adv-x="512" d=" M106.6666666666667 362.6666666666667H405.3333333333333C428.8 362.6666666666667 448 343.4666666666667 448 320V21.3333333333334C448 -2.1333333333333 428.8 -21.3333333333333 405.3333333333333 -21.3333333333333H106.6666666666667C83.2 -21.3333333333333 64 -2.1333333333333 64 21.3333333333334V320C64 343.4666666666667 83.2 362.6666666666667 106.6666666666667 362.6666666666667M106.6666666666667 320V21.3333333333334H405.3333333333333V320H106.6666666666667M234.6666666666667 298.6666666666667H277.3333333333333C300.8 298.6666666666667 320 279.4666666666667 320 256V128C320 104.5333333333333 300.8 85.3333333333334 277.3333333333333 85.3333333333334V42.6666666666667H234.6666666666667V85.3333333333334C211.2 85.3333333333334 192 104.5333333333333 192 128V256C192 279.4666666666667 211.2 298.6666666666667 234.6666666666667 298.6666666666667M234.6666666666667 256V128H277.3333333333333V256H234.6666666666667z" /></svg>