<?xml version="1.0" encoding="UTF-8"?><!DOCTYPE svg PUBLIC "-//W3C//DTD SVG 1.1//EN" "http://www.w3.org/Graphics/SVG/1.1/DTD/svg11.dtd"><svg xmlns="http://www.w3.org/2000/svg" xmlns:xlink="http://www.w3.org/1999/xlink" version="1.1" width="512" height="512" viewBox="0 0 512 512">    <path fill="#ffffff" transform="scale(1, -1) translate(0, -448)" glyph-name="sync" unicode="&#xF4E6;" horiz-adv-x="512" d=" M256 64C185.3866666666667 64 128 121.3866666666667 128 192C128 213.3333333333334 133.3333333333333 234.0266666666667 142.9333333333333 251.7333333333334L111.7866666666667 282.88C95.1466666666667 256.64 85.3333333333333 225.4933333333334 85.3333333333333 192C85.3333333333333 97.7066666666667 161.7066666666667 21.3333333333334 256 21.3333333333334V-42.6666666666666L341.3333333333333 42.6666666666667L256 128M256 362.6666666666667V426.6666666666667L170.6666666666667 341.3333333333334L256 256V320C326.6133333333334 320 384 262.6133333333334 384 192C384 170.6666666666667 378.6666666666667 149.9733333333334 369.0666666666667 132.2666666666667L400.2133333333334 101.12C416.8533333333333 127.36 426.6666666666667 158.5066666666667 426.6666666666667 192C426.6666666666667 286.2933333333334 350.2933333333334 362.6666666666667 256 362.6666666666667z" /></svg>