<?xml version="1.0" encoding="UTF-8"?><!DOCTYPE svg PUBLIC "-//W3C//DTD SVG 1.1//EN" "http://www.w3.org/Graphics/SVG/1.1/DTD/svg11.dtd"><svg xmlns="http://www.w3.org/2000/svg" xmlns:xlink="http://www.w3.org/1999/xlink" version="1.1" width="512" height="512" viewBox="0 0 512 512">    <path fill="#ffffff" transform="scale(1, -1) translate(0, -448)" glyph-name="database-import" unicode="&#xF95C;" horiz-adv-x="512" d=" M363.7333333333334 144.64L424.1066666666667 84.2666666666667L469.3333333333333 129.4933333333334V-21.3333333333333H318.5066666666667L363.7333333333334 23.8933333333334L303.36 84.2666666666668L363.7333333333334 144.6400000000001M263.04 64H256C161.7066666666667 64 85.3333333333333 102.1866666666667 85.3333333333333 149.3333333333334V85.3333333333334C85.3333333333333 38.1866666666667 161.7066666666667 0 256 0H280.32L303.36 23.04L263.04 64M374.1866666666666 194.3466666666667L411.52 157.0133333333333C420.9066666666667 166.1866666666667 426.6666666666667 178.7733333333333 426.6666666666667 192V256C426.6666666666667 231.8933333333334 406.6133333333333 209.92 374.1866666666666 194.56V194.3466666666667M85.3333333333333 256V192C85.3333333333333 144.8533333333334 161.7066666666667 106.6666666666667 256 106.6666666666667H265.6L341.3333333333333 181.9733333333334C313.6 174.2933333333334 284.8 170.6666666666667 256 170.6666666666667C161.7066666666667 170.6666666666667 85.3333333333333 208.8533333333333 85.3333333333333 256M256 384C161.7066666666667 384 85.3333333333333 345.8133333333334 85.3333333333333 298.6666666666667S161.7066666666667 213.3333333333334 256 213.3333333333334S426.6666666666667 251.52 426.6666666666667 298.6666666666667S350.2933333333334 384 256 384z" /></svg>