<?xml version="1.0" encoding="UTF-8"?><!DOCTYPE svg PUBLIC "-//W3C//DTD SVG 1.1//EN" "http://www.w3.org/Graphics/SVG/1.1/DTD/svg11.dtd"><svg xmlns="http://www.w3.org/2000/svg" xmlns:xlink="http://www.w3.org/1999/xlink" version="1.1" width="512" height="512" viewBox="0 0 512 512">    <path fill="#ffffff" transform="scale(1, -1) translate(0, -448)" glyph-name="stack-overflow" unicode="&#xF4CC;" horiz-adv-x="512" d=" M370.3466666666667 17.0666666666667V131.84H408.5333333333333V-21.3333333333333H64V131.84H102.4V17.0666666666667H370.3466666666667M144.4266666666667 142.5066666666667L152.32 180.0533333333334L339.84 140.5866666666667L331.9466666666667 103.04L144.4266666666667 142.5066666666667M169.1733333333334 232.32L185.3866666666667 266.6666666666667L359.04 186.0266666666667L342.8266666666667 151.4666666666667L169.1733333333333 232.32M217.3866666666667 317.44L241.92 346.88L389.12 224L364.5866666666667 194.7733333333333L217.3866666666667 317.44M312.3200000000001 408.1066666666666L426.6666666666667 254.2933333333334L395.9466666666666 231.4666666666667L281.6 385.28L312.32 408.1066666666667M140.5866666666667 55.2533333333333V93.6533333333334H332.16V55.2533333333333H140.5866666666667z" /></svg>