<?xml version="1.0" encoding="UTF-8"?><!DOCTYPE svg PUBLIC "-//W3C//DTD SVG 1.1//EN" "http://www.w3.org/Graphics/SVG/1.1/DTD/svg11.dtd"><svg xmlns="http://www.w3.org/2000/svg" xmlns:xlink="http://www.w3.org/1999/xlink" version="1.1" width="512" height="512" viewBox="0 0 512 512">    <path fill="#ffffff" transform="scale(1, -1) translate(0, -448)" glyph-name="tor" unicode="&#xF52A;" horiz-adv-x="512" d=" M256 149.3333333333334C234.6666666666667 149.3333333333334 192 128 192 106.6666666666667C192 64 256 64 256 64V85.3333333333334C244.2666666666667 85.3333333333334 234.6666666666667 94.9333333333333 234.6666666666667 106.6666666666667S244.2666666666667 128 256 128V149.3333333333334M256 42.6666666666667S170.6666666666667 53.3333333333334 170.6666666666667 96C170.6666666666667 160 234.6666666666667 176 256 176V202.6666666666667C234.6666666666667 202.6666666666667 149.3333333333333 170.6666666666667 149.3333333333333 106.6666666666667C149.3333333333333 21.3333333333334 256 21.3333333333334 256 21.3333333333334V42.6666666666667M214.8266666666667 298.0266666666667L240.2133333333333 286.7200000000001C249.3866666666667 338.7733333333333 273.92 373.3333333333333 273.92 373.3333333333333C264.7466666666667 351.36 258.7733333333333 333.2266666666667 254.9333333333333 318.9333333333334C280.7466666666667 372.2666666666667 333.0133333333333 405.3333333333333 333.0133333333333 405.3333333333333C307.84 380.1600000000001 289.28 352.8533333333334 276.6933333333333 330.0266666666667C310.4 365.8666666666667 357.12 389.3333333333334 357.12 389.3333333333334C299.7333333333333 352.64 273.92 294.4000000000001 267.52 278.1866666666667L279.2533333333334 276.48C279.2533333333334 265.3866666666667 279.2533333333334 255.1466666666667 284.5866666666667 247.0400000000001C300.8 206.72 384 203.3066666666667 384 106.6666666666667S298.0266666666667 -21.3333333333333 252.3733333333334 -21.3333333333333C206.72 -21.3333333333333 106.6666666666667 -0.64 106.6666666666667 106.6666666666667S212.2666666666667 214.8266666666667 231.04 257.7066666666667C233.6 265.8133333333334 214.8266666666667 298.0266666666667 214.8266666666667 298.0266666666667z" /></svg>