<?xml version="1.0" encoding="UTF-8"?><!DOCTYPE svg PUBLIC "-//W3C//DTD SVG 1.1//EN" "http://www.w3.org/Graphics/SVG/1.1/DTD/svg11.dtd"><svg xmlns="http://www.w3.org/2000/svg" xmlns:xlink="http://www.w3.org/1999/xlink" version="1.1" width="512" height="512" viewBox="0 0 512 512">    <path fill="#ffffff" transform="scale(1, -1) translate(0, -448)" glyph-name="file-document-edit-outline" unicode="&#xFDA5;" horiz-adv-x="512" d=" M170.6666666666667 192H341.3333333333333V149.3333333333334H170.6666666666667V192M213.3333333333333 21.3333333333334H128V362.6666666666667H277.3333333333333V256H384V189.8666666666667L426.6666666666667 232.5333333333334V277.3333333333334L298.6666666666667 405.3333333333333H128C104.5333333333333 405.3333333333333 85.3333333333333 386.1333333333334 85.3333333333333 362.6666666666667V21.3333333333334C85.3333333333333 -2.1333333333333 104.5333333333333 -21.3333333333333 128 -21.3333333333333H213.3333333333333V21.3333333333334M170.6666666666667 64H258.1333333333334L277.3333333333333 83.2V106.6666666666667H170.6666666666667V64M430.9333333333333 170.6666666666667C433.0666666666667 170.6666666666667 437.3333333333333 168.5333333333334 439.4666666666666 166.4L467.1999999999999 138.6666666666667C471.4666666666666 134.4 471.4666666666666 125.8666666666667 467.1999999999999 121.6L445.8666666666666 100.2666666666667L401.0666666666666 145.0666666666667L422.3999999999999 166.4C424.5333333333333 168.5333333333333 426.6666666666666 170.6666666666666 430.9333333333332 170.6666666666666M430.9333333333332 87.4666666666666L300.8 -42.6666666666666H256V2.1333333333334L386.1333333333334 132.2666666666667L430.9333333333334 87.4666666666667z" /></svg>