<?xml version="1.0" encoding="UTF-8"?><!DOCTYPE svg PUBLIC "-//W3C//DTD SVG 1.1//EN" "http://www.w3.org/Graphics/SVG/1.1/DTD/svg11.dtd"><svg xmlns="http://www.w3.org/2000/svg" xmlns:xlink="http://www.w3.org/1999/xlink" version="1.1" width="512" height="512" viewBox="0 0 512 512">    <path fill="#ffffff" transform="scale(1, -1) translate(0, -448)" glyph-name="hail" unicode="&#xFAC0;" horiz-adv-x="512" d=" M85.3333333333333 106.6666666666667H149.3333333333333V-21.3333333333333H85.3333333333333V106.6666666666667M405.3333333333333 397.0133333333333C403.6266666666667 365.6533333333333 395.7333333333334 338.56 381.0133333333333 315.52C366.2933333333334 292.48 346.0266666666667 277.3333333333334 320 269.0133333333333V-21.3333333333333H277.3333333333333V106.6666666666667H234.6666666666667V-21.3333333333333H192V232.96C186.0266666666667 231.04 181.3333333333333 228.6933333333334 178.9866666666667 225.92C158.9333333333333 209.92 149.3333333333333 187.9466666666667 149.3333333333333 160V149.3333333333334H106.6666666666667V160C106.6666666666667 202.0266666666667 122.0266666666667 235.9466666666667 152.1066666666667 261.9733333333334C181.9733333333333 286.7200000000001 216.7466666666667 298.6666666666667 256 298.6666666666667C286.08 298.6666666666667 310.6133333333334 306.3466666666667 330.0266666666667 321.0666666666667C352 338.9866666666667 362.6666666666667 363.7333333333334 362.6666666666667 394.6666666666667V405.3333333333333H405.3333333333333V397.0133333333333M256 405.3333333333333C279.4666666666667 405.3333333333333 298.6666666666667 386.1333333333334 298.6666666666667 362.6666666666667S279.4666666666667 320 256 320S213.3333333333333 339.2000000000001 213.3333333333333 362.6666666666667S232.5333333333334 405.3333333333333 256 405.3333333333333z" /></svg>