<?xml version="1.0" encoding="UTF-8"?><!DOCTYPE svg PUBLIC "-//W3C//DTD SVG 1.1//EN" "http://www.w3.org/Graphics/SVG/1.1/DTD/svg11.dtd"><svg xmlns="http://www.w3.org/2000/svg" xmlns:xlink="http://www.w3.org/1999/xlink" version="1.1" width="512" height="512" viewBox="0 0 512 512">    <path fill="#ffffff" transform="scale(1, -1) translate(0, -448)" glyph-name="nintendo-switch" unicode="&#xF7E0;" horiz-adv-x="512" d=" M214.1866666666667 12.8000000000001H151.8933333333333C132.0533333333334 12.8000000000001 113.0666666666667 21.3333333333334 98.9866666666667 34.9866666666667C85.3333333333333 49.0666666666667 76.8 68.0533333333334 76.8 87.8933333333334V296.1066666666667C76.8 315.9466666666667 85.3333333333333 334.9333333333334 98.9866666666667 349.0133333333333C113.0666666666667 362.6666666666667 132.0533333333334 370.7733333333333 151.8933333333333 370.7733333333333H214.1866666666667V12.8000000000001M151.8933333333333 405.3333333333333C91.52 405.3333333333333 42.6666666666667 356.48 42.6666666666667 296.1066666666667V87.8933333333334C42.6666666666667 27.52 91.52 -21.3333333333333 151.8933333333333 -21.3333333333333H248.5333333333334V405.3333333333333H151.8933333333333M109.0133333333333 277.3333333333334C109.0133333333333 255.1466666666667 126.9333333333333 237.2266666666667 149.3333333333333 237.2266666666667C171.3066666666667 237.2266666666667 189.2266666666667 255.1466666666667 189.2266666666667 277.3333333333334S171.3066666666667 317.44 149.3333333333333 317.44C126.9333333333333 317.44 109.0133333333333 299.52 109.0133333333333 277.3333333333334M375.68 213.3333333333334C399.36 213.3333333333334 418.56 194.3466666666667 418.56 170.6666666666667C418.56 146.7733333333333 399.36 128 375.68 128C352 128 332.3733333333334 146.7733333333334 332.3733333333334 170.6666666666667C332.3733333333334 194.3466666666667 352 213.3333333333334 375.68 213.3333333333334M360.1066666666667 -21.3333333333333C420.48 -21.3333333333333 469.3333333333333 27.52 469.3333333333333 87.8933333333334V296.1066666666667C469.3333333333333 356.48 420.48 405.3333333333333 360.1066666666667 405.3333333333333H291.2V-21.3333333333333H360.1066666666667z" /></svg>