<?xml version="1.0" encoding="UTF-8"?><!DOCTYPE svg PUBLIC "-//W3C//DTD SVG 1.1//EN" "http://www.w3.org/Graphics/SVG/1.1/DTD/svg11.dtd"><svg xmlns="http://www.w3.org/2000/svg" xmlns:xlink="http://www.w3.org/1999/xlink" version="1.1" width="512" height="512" viewBox="0 0 512 512">    <path fill="#ffffff" transform="scale(1, -1) translate(0, -448)" glyph-name="axis-z-rotate-counterclockwise" unicode="&#xFD34;" horiz-adv-x="512" d=" M213.3333333333333 192L298.6666666666667 106.6666666666667L213.3333333333333 21.3333333333334V87.4666666666667C116.0533333333334 97.2800000000001 42.6666666666667 140.3733333333334 42.6666666666667 192.0000000000001C42.6666666666667 243.6266666666667 116.0533333333333 286.7200000000001 213.3333333333333 296.5333333333334V254.0800000000001C139.7333333333333 246.8266666666667 85.3333333333333 221.8666666666667 85.3333333333333 192C85.3333333333333 162.1333333333333 139.7333333333333 137.1733333333334 213.3333333333333 129.92V192M426.6666666666667 192C426.6666666666667 221.8666666666667 372.2666666666667 246.8266666666667 298.6666666666667 254.08V296.5333333333334C395.9466666666666 286.7200000000001 469.3333333333333 243.6266666666667 469.3333333333333 192C469.3333333333333 145.92 410.88 106.6666666666667 328.96 91.7333333333334L343.8933333333333 106.6666666666667L318.2933333333334 132.48C381.6533333333333 141.6533333333334 426.6666666666667 164.9066666666667 426.6666666666667 192M234.6666666666667 405.3333333333333H277.3333333333333V170.6666666666667L234.6666666666667 213.3333333333334V405.3333333333333M234.6666666666667 -21.3333333333333V0L277.3333333333333 42.6666666666667V-21.3333333333333H234.6666666666667z" /></svg>