<?xml version="1.0" encoding="UTF-8"?><!DOCTYPE svg PUBLIC "-//W3C//DTD SVG 1.1//EN" "http://www.w3.org/Graphics/SVG/1.1/DTD/svg11.dtd"><svg xmlns="http://www.w3.org/2000/svg" xmlns:xlink="http://www.w3.org/1999/xlink" version="1.1" width="512" height="512" viewBox="0 0 512 512">    <path fill="#ffffff" transform="scale(1, -1) translate(0, -448)" glyph-name="thermometer-chevron-up" unicode="&#xFE63;" horiz-adv-x="512" d=" M371.4133333333333 195.6266666666667L439.04 128L469.3333333333333 158.0800000000001L371.4133333333333 256L273.4933333333334 158.0800000000001L303.7866666666667 128L371.4133333333333 195.6266666666667M256 85.3333333333334C256 26.4533333333334 208.2133333333333 -21.3333333333333 149.3333333333333 -21.3333333333333S42.6666666666667 26.4533333333334 42.6666666666667 85.3333333333334C42.6666666666667 118.8266666666667 58.4533333333333 150.6133333333334 85.3333333333333 170.6666666666667V341.3333333333334C85.3333333333333 376.7466666666667 113.92 405.3333333333333 149.3333333333333 405.3333333333333S213.3333333333333 376.7466666666667 213.3333333333333 341.3333333333334V170.6666666666667C240.2133333333333 150.6133333333334 256 118.8266666666667 256 85.3333333333334M128 277.3333333333334V145.7066666666667C94.72 133.9733333333334 77.2266666666667 97.28 88.96 64C100.6933333333333 30.72 137.3866666666667 13.2266666666667 170.6666666666667 24.96C203.9466666666667 36.9066666666667 221.44 73.3866666666667 209.7066666666667 106.6666666666667C203.3066666666667 125.0133333333334 188.8 139.3066666666667 170.6666666666667 145.7066666666667V277.3333333333334H128z" /></svg>