<?xml version="1.0" encoding="UTF-8"?><!DOCTYPE svg PUBLIC "-//W3C//DTD SVG 1.1//EN" "http://www.w3.org/Graphics/SVG/1.1/DTD/svg11.dtd"><svg xmlns="http://www.w3.org/2000/svg" xmlns:xlink="http://www.w3.org/1999/xlink" version="1.1" width="512" height="512" viewBox="0 0 512 512">    <path fill="#ffffff" transform="scale(1, -1) translate(0, -448)" glyph-name="message-bulleted-off" unicode="&#xF6A2;" horiz-adv-x="512" d=" M27.0933333333333 411.0933333333334L0 384L42.6666666666667 341.3333333333334V-21.3333333333333L128 64H320L442.24 -58.24L469.3333333333333 -31.1466666666666L27.0933333333333 411.0933333333334M170.6666666666667 149.3333333333334H128V192H170.6666666666667V149.3333333333334M128 213.3333333333334V256L170.6666666666667 213.3333333333334H128M426.6666666666667 405.3333333333333H87.04L213.3333333333333 279.04V320H384V277.3333333333334H215.04L236.3733333333334 256H384V213.3333333333334H279.04L428.16 64C450.9866666666667 65.0666666666667 469.3333333333333 83.6266666666667 469.3333333333333 106.6666666666667V362.6666666666667C469.3333333333333 386.1333333333334 450.1333333333334 405.3333333333333 426.6666666666667 405.3333333333333z" /></svg>