<?xml version="1.0" encoding="UTF-8"?><!DOCTYPE svg PUBLIC "-//W3C//DTD SVG 1.1//EN" "http://www.w3.org/Graphics/SVG/1.1/DTD/svg11.dtd"><svg xmlns="http://www.w3.org/2000/svg" xmlns:xlink="http://www.w3.org/1999/xlink" version="1.1" width="512" height="512" viewBox="0 0 512 512">    <path fill="#ffffff" transform="scale(1, -1) translate(0, -448)" glyph-name="guitar-acoustic" unicode="&#xF770;" horiz-adv-x="512" d=" M417.92 384H469.3333333333333V341.3333333333334H435.4133333333333L344.9600000000001 250.88C337.0666666666667 262.8266666666667 326.8266666666667 273.0666666666667 314.88 280.9600000000001L417.92 384M256 277.3333333333334C303.1466666666667 277.3333333333334 341.3333333333333 239.1466666666667 341.3333333333333 192C341.3333333333333 153.1733333333334 315.0933333333333 119.04 277.3333333333333 109.44V106.6666666666667C277.3333333333333 47.7866666666668 229.5466666666667 0 170.6666666666667 0S64 47.7866666666668 64 106.6666666666667S111.7866666666667 213.3333333333334 170.6666666666667 213.3333333333334H173.44C183.04 250.88 216.96 277.3333333333334 256 277.3333333333334M256 224C238.2933333333333 224 224 209.7066666666667 224 192S238.2933333333333 160 256 160S288 174.2933333333334 288 192S273.7066666666667 224 256 224M148.0533333333334 144.2133333333334L132.9066666666667 129.28L193.28 68.9066666666667L208.4266666666667 84.0533333333334L148.0533333333333 144.2133333333334z" /></svg>