<?xml version="1.0" encoding="UTF-8"?><!DOCTYPE svg PUBLIC "-//W3C//DTD SVG 1.1//EN" "http://www.w3.org/Graphics/SVG/1.1/DTD/svg11.dtd"><svg xmlns="http://www.w3.org/2000/svg" xmlns:xlink="http://www.w3.org/1999/xlink" version="1.1" width="512" height="512" viewBox="0 0 512 512">    <path fill="#ffffff" transform="scale(1, -1) translate(0, -448)" glyph-name="car-off" unicode="&#xFDFF;" horiz-adv-x="512" d=" M437.3333333333333 24.5333333333333L136.7466666666667 325.12L51.4133333333333 410.4533333333333L23.68 384L97.4933333333333 310.1866666666667L64 213.3333333333334V42.6666666666667C64 30.9333333333333 73.6 21.3333333333334 85.3333333333333 21.3333333333334H106.6666666666667C118.4 21.3333333333334 128 30.9333333333333 128 42.6666666666667V64H343.68L444.5866666666667 -36.9066666666666L471.6799999999999 -9.8133333333333L437.3333333333333 24.5333333333333M138.6666666666667 128C120.96 128 106.6666666666667 142.2933333333334 106.6666666666667 160S120.96 192 138.6666666666667 192S170.6666666666667 177.7066666666667 170.6666666666667 160S156.3733333333333 128 138.6666666666667 128M106.6666666666667 234.6666666666667L123.3066666666667 284.3733333333334L173.0133333333333 234.6666666666667H106.6666666666667M373.3333333333333 330.6666666666667L405.3333333333333 234.6666666666667H281.6L343.8933333333333 172.3733333333333C351.9999999999999 188.3733333333333 370.56 194.9866666666667 386.56 187.52C402.56 179.84 409.1733333333333 160.64 401.7066666666666 144.8533333333334C398.5066666666667 138.6666666666667 393.1733333333333 132.9066666666667 386.56 129.7066666666667L448 68.2666666666667V213.3333333333334L403.6266666666667 341.3333333333334C399.1466666666667 354.1333333333334 386.9866666666667 362.6666666666667 373.3333333333333 362.6666666666667H153.6L185.6 330.6666666666667H373.3333333333333z" /></svg>