<?xml version="1.0" encoding="UTF-8"?><!DOCTYPE svg PUBLIC "-//W3C//DTD SVG 1.1//EN" "http://www.w3.org/Graphics/SVG/1.1/DTD/svg11.dtd"><svg xmlns="http://www.w3.org/2000/svg" xmlns:xlink="http://www.w3.org/1999/xlink" version="1.1" width="512" height="512" viewBox="0 0 512 512">    <path fill="#ffffff" transform="scale(1, -1) translate(0, -448)" glyph-name="camera-enhance" unicode="&#xF101;" horiz-adv-x="512" d=" M192 384L152.96 341.3333333333334H85.3333333333333C61.8666666666667 341.3333333333334 42.6666666666667 322.1333333333334 42.6666666666667 298.6666666666667V42.6666666666667C42.6666666666667 19.2 61.8666666666667 0 85.3333333333333 0H426.6666666666667C450.1333333333334 0 469.3333333333333 19.2 469.3333333333333 42.6666666666667V298.6666666666667C469.3333333333333 322.1333333333334 450.1333333333334 341.3333333333334 426.6666666666667 341.3333333333334H359.04L320 384M256 64C197.12 64 149.3333333333333 111.7866666666667 149.3333333333333 170.6666666666667S197.12 277.3333333333334 256 277.3333333333334S362.6666666666667 229.5466666666667 362.6666666666667 170.6666666666667S314.88 64 256 64M256 85.3333333333334L282.6666666666667 144L341.3333333333333 170.6666666666667L282.6666666666667 197.3333333333334L256 256L229.3333333333333 197.3333333333334L170.6666666666667 170.6666666666667L229.3333333333333 144" /></svg>