<?xml version="1.0" encoding="UTF-8"?><!DOCTYPE svg PUBLIC "-//W3C//DTD SVG 1.1//EN" "http://www.w3.org/Graphics/SVG/1.1/DTD/svg11.dtd"><svg xmlns="http://www.w3.org/2000/svg" xmlns:xlink="http://www.w3.org/1999/xlink" version="1.1" width="512" height="512" viewBox="0 0 512 512">    <path fill="#ffffff" transform="scale(1, -1) translate(0, -448)" glyph-name="email-check-outline" unicode="&#xFAB1;" horiz-adv-x="512" d=" M501.3333333333333 85.3333333333334L394.6666666666667 -21.3333333333333L320 53.3333333333334L352 85.3333333333334L394.6666666666667 42.6666666666667L469.3333333333333 117.3333333333334L501.3333333333333 85.3333333333334M21.3333333333333 320V64C21.3333333333333 40.5333333333333 40.5333333333333 21.3333333333334 64 21.3333333333334H277.3333333333333V64H64V269.4400000000001L234.6666666666667 162.9866666666667L405.3333333333333 269.4400000000001V170.6666666666667H448V320C448 343.4666666666667 428.8 362.6666666666667 405.3333333333333 362.6666666666667H64C40.32 362.6666666666667 21.3333333333333 343.68 21.3333333333333 320M64 320H405.3333333333333L234.6666666666667 213.3333333333334L64 320z" /></svg>