<?xml version="1.0" encoding="UTF-8"?><!DOCTYPE svg PUBLIC "-//W3C//DTD SVG 1.1//EN" "http://www.w3.org/Graphics/SVG/1.1/DTD/svg11.dtd"><svg xmlns="http://www.w3.org/2000/svg" xmlns:xlink="http://www.w3.org/1999/xlink" version="1.1" width="512" height="512" viewBox="0 0 512 512">    <path fill="#ffffff" transform="scale(1, -1) translate(0, -448)" glyph-name="image-size-select-large" unicode="&#xFC6A;" horiz-adv-x="512" d=" M448 128H490.6666666666666V85.3333333333334H448V128M448 213.3333333333334H490.6666666666666V170.6666666666667H448V213.3333333333334M490.6666666666666 42.6666666666667H448V0C469.3333333333333 0 490.6666666666666 21.3333333333334 490.6666666666666 42.6666666666667M277.3333333333333 384H320V341.3333333333334H277.3333333333333V384M448 298.6666666666667H490.6666666666666V256H448V298.6666666666667M448 384V341.3333333333334H490.6666666666666C490.6666666666666 362.6666666666667 469.3333333333333 384 448 384M21.3333333333333 298.6666666666667H64V256H21.3333333333333V298.6666666666667M362.6666666666667 384H405.3333333333333V341.3333333333334H362.6666666666667V384M362.6666666666667 42.6666666666667H405.3333333333333V0H362.6666666666667V42.6666666666667M64 384C42.6666666666667 384 21.3333333333333 362.6666666666667 21.3333333333333 341.3333333333334H64V384M192 384H234.6666666666667V341.3333333333334H192V384M106.6666666666667 384H149.3333333333333V341.3333333333334H106.6666666666667V384M21.3333333333333 213.3333333333334V42.6666666666667C21.3333333333333 19.2 40.5333333333333 0 64 0H320V213.3333333333334H21.3333333333333M64 42.6666666666667L117.3333333333333 111.1466666666667L155.52 65.2800000000001L208.8533333333333 133.9733333333334L277.3333333333333 42.6666666666667H64z" /></svg>