<?xml version="1.0" encoding="UTF-8"?><!DOCTYPE svg PUBLIC "-//W3C//DTD SVG 1.1//EN" "http://www.w3.org/Graphics/SVG/1.1/DTD/svg11.dtd"><svg xmlns="http://www.w3.org/2000/svg" xmlns:xlink="http://www.w3.org/1999/xlink" version="1.1" width="512" height="512" viewBox="0 0 512 512">    <path fill="#ffffff" transform="scale(1, -1) translate(0, -448)" glyph-name="file-cloud" unicode="&#xF217;" horiz-adv-x="512" d=" M277.3333333333333 256H394.6666666666667L277.3333333333333 373.3333333333334V256M128 405.3333333333333H298.6666666666667L426.6666666666667 277.3333333333334V21.3333333333334C426.6666666666667 -2.1333333333333 407.4666666666667 -21.3333333333333 384 -21.3333333333333H128C104.32 -21.3333333333333 85.3333333333333 -2.1333333333333 85.3333333333333 21.3333333333334V362.6666666666667C85.3333333333333 386.3466666666667 104.32 405.3333333333333 128 405.3333333333333M334.5066666666667 128C327.2533333333334 164.2666666666667 294.8266666666667 192 256 192C225.0666666666667 192 198.4 174.5066666666667 185.1733333333333 149.3333333333334C152.96 145.4933333333334 128 118.4 128 85.3333333333334C128 49.92 156.5866666666667 21.3333333333334 192 21.3333333333334H330.6666666666667C360.1066666666667 21.3333333333334 384 45.2266666666667 384 74.6666666666667C384 102.8266666666667 362.0266666666667 125.6533333333334 334.5066666666667 128z" /></svg>