<?xml version="1.0" encoding="UTF-8"?><!DOCTYPE svg PUBLIC "-//W3C//DTD SVG 1.1//EN" "http://www.w3.org/Graphics/SVG/1.1/DTD/svg11.dtd"><svg xmlns="http://www.w3.org/2000/svg" xmlns:xlink="http://www.w3.org/1999/xlink" version="1.1" width="512" height="512" viewBox="0 0 512 512">    <path fill="#ffffff" transform="scale(1, -1) translate(0, -448)" glyph-name="accusoft" unicode="&#xF849;" horiz-adv-x="512" d=" M373.3333333333333 114.9866666666667C369.7066666666666 120.1066666666667 203.3066666666667 332.8000000000001 197.76 339.6266666666667C192 346.6666666666667 193.7066666666667 348.8 194.7733333333333 350.0800000000001C196.6933333333333 352 199.68 352 211.84 352C218.88 352 289.92 352 297.3866666666667 352.64C312.7466666666667 352.64 315.3066666666666 351.36 316.8 350.7200000000001C318.5066666666667 350.2933333333334 322.7733333333333 346.6666666666667 325.5466666666666 343.04C327.04 341.3333333333334 476.16 162.9866666666667 477.6533333333333 161.0666666666667C479.1466666666666 159.1466666666667 481.92 155.9466666666667 483.6266666666667 152.7466666666667C485.5466666666667 149.3333333333334 485.76 145.4933333333334 482.9866666666667 144C481.28 142.9333333333333 398.9333333333333 109.0133333333333 396.5866666666667 108.16C394.6666666666667 106.6666666666667 389.76 105.3866666666667 386.3466666666667 105.8133333333334C384 106.6666666666667 379.0933333333333 108.3733333333333 373.3333333333333 114.9866666666667M458.0266666666666 119.04L464 117.9733333333334S483.84 114.1333333333333 485.76 113.7066666666667C487.8933333333333 113.28 489.8133333333333 111.7866666666667 489.6 111.1466666666667C489.3866666666666 109.4400000000001 488.5333333333333 108.5866666666667 487.04 107.7333333333334C485.76 106.6666666666667 396.3733333333333 51.6266666666667 394.6666666666667 50.7733333333334C393.1733333333333 49.9200000000001 391.04 48.64 386.3466666666667 48.0000000000001C377.6 46.2933333333335 360.7466666666667 50.9866666666668 355.4133333333333 52.0533333333335C350.08 53.3333333333334 131.2 101.7600000000001 129.28 102.4000000000001C127.36 103.0400000000001 126.08 103.2533333333335 125.8666666666667 104.9600000000002C125.6533333333333 107.9466666666668 130.3466666666667 109.2266666666668 133.9733333333333 110.7200000000001C137.8133333333333 112.0000000000001 240.64 149.3333333333335 244.2666666666667 150.8266666666668C247.8933333333333 152.3200000000001 252.5866666666667 152.7466666666668 254.9333333333333 152.9600000000001C257.28 153.1733333333334 271.5733333333333 150.8266666666668 277.9733333333333 149.9733333333334C284.5866666666667 149.3333333333334 302.9333333333333 146.1333333333335 302.9333333333333 146.1333333333335L344.7466666666667 91.7333333333335C352 83.4133333333334 356.6933333333333 80.0000000000001 362.6666666666667 79.3600000000001C365.8666666666666 79.1466666666668 369.28 80.0000000000002 371.6266666666667 81.0666666666668C373.3333333333333 81.9200000000001 458.0266666666667 119.0400000000001 458.0266666666667 119.0400000000001M218.6666666666667 252.1600000000001L255.1466666666667 205.44L256 203.7333333333334V202.6666666666667C255.1466666666667 201.8133333333334 190.5066666666667 142.5066666666667 190.08 141.8666666666667L122.0266666666667 117.3333333333334S120.1066666666667 116.2666666666667 119.04 115.6266666666667C117.9733333333333 114.9866666666667 116.6933333333333 113.7066666666667 117.3333333333333 110.5066666666667V89.8133333333334L33.28 63.1466666666667C29.2266666666667 61.8666666666667 21.3333333333333 59.0933333333334 20.2666666666667 59.9466666666667C18.7733333333333 61.0133333333334 20.6933333333333 63.3600000000001 21.3333333333333 64.64C22.6133333333333 65.92 193.7066666666667 234.6666666666667 200.32 241.0666666666667C209.92 250.8800000000001 218.6666666666667 252.1600000000001 218.6666666666667 252.1600000000001" /></svg>