<?xml version="1.0" encoding="UTF-8"?><!DOCTYPE svg PUBLIC "-//W3C//DTD SVG 1.1//EN" "http://www.w3.org/Graphics/SVG/1.1/DTD/svg11.dtd"><svg xmlns="http://www.w3.org/2000/svg" xmlns:xlink="http://www.w3.org/1999/xlink" version="1.1" width="512" height="512" viewBox="0 0 512 512">    <path fill="#ffffff" transform="scale(1, -1) translate(0, -448)" glyph-name="content-save-settings" unicode="&#xF61B;" horiz-adv-x="512" d=" M320 277.3333333333334V362.6666666666667H106.6666666666667V277.3333333333334H320M256 64C291.4133333333333 64 320 92.5866666666667 320 128S291.4133333333333 192 256 192S192 163.4133333333334 192 128S220.5866666666667 64 256 64M362.6666666666667 405.3333333333333L448 320V64C448 40.5333333333333 428.8 21.3333333333334 405.3333333333333 21.3333333333334H106.6666666666667C82.9866666666667 21.3333333333334 64 40.5333333333333 64 64V362.6666666666667C64 386.1333333333334 83.2 405.3333333333333 106.6666666666667 405.3333333333333H362.6666666666667M234.6666666666667 -21.3333333333333H277.3333333333333V-64H234.6666666666667V-21.3333333333333M149.3333333333333 -21.3333333333333H192V-64H149.3333333333333V-21.3333333333333M320 -21.3333333333333H362.6666666666667V-64H320V-21.3333333333333z" /></svg>