<?xml version="1.0" encoding="UTF-8"?><!DOCTYPE svg PUBLIC "-//W3C//DTD SVG 1.1//EN" "http://www.w3.org/Graphics/SVG/1.1/DTD/svg11.dtd"><svg xmlns="http://www.w3.org/2000/svg" xmlns:xlink="http://www.w3.org/1999/xlink" version="1.1" width="512" height="512" viewBox="0 0 512 512">    <path fill="#ffffff" transform="scale(1, -1) translate(0, -448)" glyph-name="ticket-account" unicode="&#xF517;" horiz-adv-x="512" d=" M426.6666666666667 192C426.6666666666667 168.5333333333334 445.8666666666666 149.3333333333334 469.3333333333333 149.3333333333334V64C469.3333333333333 40.5333333333333 450.1333333333334 21.3333333333334 426.6666666666667 21.3333333333334H85.3333333333333C61.8666666666667 21.3333333333334 42.6666666666667 40.5333333333333 42.6666666666667 64V149.3333333333334C66.3466666666667 149.3333333333334 85.3333333333333 168.5333333333334 85.3333333333333 192S66.1333333333333 234.6666666666667 42.6666666666667 234.6666666666667V320C42.6666666666667 343.68 61.8666666666667 362.6666666666667 85.3333333333333 362.6666666666667H426.6666666666667C450.1333333333334 362.6666666666667 469.3333333333333 343.4666666666667 469.3333333333333 320V234.6666666666667C445.8666666666666 234.6666666666667 426.6666666666667 215.4666666666667 426.6666666666667 192M352 101.3333333333334C352 133.3333333333334 288 149.3333333333334 256 149.3333333333334S160 133.3333333333334 160 101.3333333333334V85.3333333333334H352V101.3333333333334M256 186.6666666666667C282.4533333333333 186.6666666666667 304 208.2133333333334 304 234.6666666666667S282.4533333333333 282.6666666666667 256 282.6666666666667S208 261.12 208 234.6666666666667S229.5466666666667 186.6666666666667 256 186.6666666666667z" /></svg>