<?xml version="1.0" encoding="UTF-8"?><!DOCTYPE svg PUBLIC "-//W3C//DTD SVG 1.1//EN" "http://www.w3.org/Graphics/SVG/1.1/DTD/svg11.dtd"><svg xmlns="http://www.w3.org/2000/svg" xmlns:xlink="http://www.w3.org/1999/xlink" version="1.1" width="512" height="512" viewBox="0 0 512 512">    <path fill="#ffffff" transform="scale(1, -1) translate(0, -448)" glyph-name="barley-off" unicode="&#xFB39;" horiz-adv-x="512" d=" M255.1466666666667 422.1866666666667C241.0666666666667 389.12 226.9866666666667 356.0533333333334 227.2 323.8400000000001C227.4133333333334 311.04 229.76 298.6666666666667 233.3866666666667 285.44C231.68 288.8533333333334 229.76 292.0533333333334 227.6266666666667 295.04C209.7066666666667 320 174.2933333333333 341.3333333333334 138.6666666666667 362.6666666666667C138.6666666666667 345.6 138.6666666666667 328.7466666666667 142.5066666666667 312.3200000000001L277.3333333333333 177.4933333333334V219.7333333333334C309.3333333333333 238.9333333333334 339.6266666666667 258.5600000000001 355.6266666666667 280.9600000000001C373.3333333333333 305.7066666666667 373.3333333333333 334.2933333333334 373.3333333333333 362.6666666666667C337.7066666666667 341.3333333333334 302.2933333333333 320 284.3733333333334 295.04C282.24 292.0533333333334 280.5333333333333 289.0666666666667 278.8266666666667 286.0800000000001C282.6666666666667 299.5200000000001 285.0133333333333 313.1733333333334 284.8 326.6133333333334C284.5866666666667 358.8266666666667 269.8666666666667 390.6133333333334 255.1466666666667 422.1866666666667M69.9733333333333 330.6666666666667L42.6666666666667 303.5733333333334L141.6533333333333 204.5866666666667C144 192 148.2666666666667 180.2666666666667 156.3733333333333 168.96C172.3733333333333 146.56 202.6666666666667 126.9333333333333 234.6666666666667 107.7333333333334V59.0933333333334L227.6266666666667 71.04C209.7066666666667 96 174.2933333333333 117.3333333333333 138.6666666666667 138.6666666666666C138.6666666666667 110.2933333333333 138.6666666666667 81.7066666666667 156.3733333333333 56.96C172.3733333333333 34.5599999999999 202.6666666666667 14.9333333333333 234.6666666666667 -4.2666666666667V-42.6666666666666H277.3333333333333V-4.2666666666667C293.12 5.1200000000001 308.2666666666667 14.72 321.4933333333334 24.7466666666667L399.5733333333333 -53.3333333333333L426.6666666666667 -26.0266666666666C298.6666666666667 101.76 194.1333333333333 206.5066666666667 69.9733333333333 330.6666666666667M373.3333333333333 250.6666666666667C337.7066666666667 229.3333333333334 302.2933333333333 208 284.3733333333334 183.04L279.8933333333333 175.1466666666667L320 135.2533333333333C334.2933333333333 145.92 347.0933333333333 157.0133333333333 355.6266666666667 168.96C373.3333333333333 193.7066666666667 373.3333333333333 222.2933333333334 373.3333333333333 250.6666666666667M373.3333333333333 138.6666666666667C361.1733333333333 131.4133333333334 349.44 124.16 338.1333333333334 116.6933333333334L368.8533333333333 85.9733333333334C373.3333333333333 103.0400000000001 373.3333333333333 120.96 373.3333333333333 138.6666666666668z" /></svg>