<?xml version="1.0" encoding="UTF-8"?><!DOCTYPE svg PUBLIC "-//W3C//DTD SVG 1.1//EN" "http://www.w3.org/Graphics/SVG/1.1/DTD/svg11.dtd"><svg xmlns="http://www.w3.org/2000/svg" xmlns:xlink="http://www.w3.org/1999/xlink" version="1.1" width="512" height="512" viewBox="0 0 512 512">    <path fill="#ffffff" transform="scale(1, -1) translate(0, -448)" glyph-name="emoticon-cool-outline" unicode="&#xF1F3;" horiz-adv-x="512" d=" M405.3333333333333 234.6666666666667C405.3333333333333 205.2266666666667 360.1066666666667 181.3333333333334 330.6666666666667 181.3333333333334S272 205.2266666666667 272 234.6666666666667H240C240 205.2266666666667 210.7733333333333 181.3333333333334 181.3333333333333 181.3333333333334S106.6666666666667 205.2266666666667 106.6666666666667 234.6666666666667H90.6666666666667C87.2533333333333 221.0133333333333 85.3333333333333 206.72 85.3333333333333 192C85.3333333333333 97.7066666666667 161.7066666666667 21.3333333333334 256 21.3333333333334S426.6666666666667 97.7066666666667 426.6666666666667 192C426.6666666666667 206.72 424.7466666666667 221.0133333333333 421.3333333333333 234.6666666666667H405.3333333333333M256 362.6666666666667C192.8533333333333 362.6666666666667 137.6 328.32 108.16 277.3333333333334H403.84C374.4 328.32 319.1466666666667 362.6666666666667 256 362.6666666666667M469.3333333333333 192C469.3333333333333 74.24 373.76 -21.3333333333333 256 -21.3333333333333S42.6666666666667 74.24 42.6666666666667 192S138.24 405.3333333333333 256 405.3333333333333S469.3333333333333 309.76 469.3333333333333 192M256 80.4266666666667C218.6666666666667 80.4266666666667 185.8133333333333 96 166.6133333333333 119.04L196.9066666666667 149.3333333333334C206.5066666666667 133.9733333333334 229.3333333333333 123.0933333333334 256 123.0933333333334S305.4933333333334 133.9733333333334 315.0933333333333 149.3333333333334L345.3866666666666 119.04C326.1866666666666 96 293.3333333333333 80.4266666666667 255.9999999999999 80.4266666666667z" /></svg>