<?xml version="1.0" encoding="UTF-8"?><!DOCTYPE svg PUBLIC "-//W3C//DTD SVG 1.1//EN" "http://www.w3.org/Graphics/SVG/1.1/DTD/svg11.dtd"><svg xmlns="http://www.w3.org/2000/svg" xmlns:xlink="http://www.w3.org/1999/xlink" version="1.1" width="512" height="512" viewBox="0 0 512 512">    <path fill="#ffffff" transform="scale(1, -1) translate(0, -448)" glyph-name="pound-box" unicode="&#xF424;" horiz-adv-x="512" d=" M64 341.3333333333334C64 364.8 83.2 384 106.6666666666667 384H405.3333333333333C428.8 384 448 364.8 448 341.3333333333334V42.6666666666667C448 19.2 428.8 0 405.3333333333333 0H106.6666666666667C82.9866666666667 0 64 19.2 64 42.6666666666667V341.3333333333334M149.3333333333333 64H192L199.4666666666667 106.6666666666667H284.8L277.3333333333333 64H320L327.4666666666667 106.6666666666667H370.1333333333334L377.8133333333334 149.3333333333334H335.1466666666667L350.08 234.6666666666667H392.7466666666667L400.2133333333334 277.3333333333334H357.5466666666667L365.2266666666667 320H322.56L314.88 277.3333333333334H229.5466666666667L237.2266666666667 320H194.56L186.88 277.3333333333334H144.2133333333334L136.7466666666667 234.6666666666667H179.4133333333334L164.48 149.3333333333334H121.8133333333334L114.1333333333334 106.6666666666667H156.8L149.3333333333333 64M222.08 234.6666666666667H307.4133333333333L292.48 149.3333333333334H207.1466666666667L222.08 234.6666666666667z" /></svg>