<?xml version="1.0" encoding="UTF-8"?><!DOCTYPE svg PUBLIC "-//W3C//DTD SVG 1.1//EN" "http://www.w3.org/Graphics/SVG/1.1/DTD/svg11.dtd"><svg xmlns="http://www.w3.org/2000/svg" xmlns:xlink="http://www.w3.org/1999/xlink" version="1.1" width="512" height="512" viewBox="0 0 512 512">    <path fill="#ffffff" transform="scale(1, -1) translate(0, -448)" glyph-name="bridge" unicode="&#xF618;" horiz-adv-x="512" d=" M149.3333333333333 149.3333333333334V215.2533333333333C133.9733333333333 222.2933333333334 119.68 230.8266666666667 106.6666666666667 240.8533333333333V149.3333333333334H149.3333333333333M106.6666666666667 64H64V106.6666666666667H21.3333333333333V149.3333333333334H64V298.6666666666667H106.6666666666667V268.1600000000001C145.0666666666667 234.6666666666667 197.76 213.3333333333334 256 213.3333333333334C314.24 213.3333333333334 366.9333333333333 234.6666666666667 405.3333333333333 268.1600000000001V298.6666666666667H448V149.3333333333334H490.6666666666666V106.6666666666667H448V64H405.3333333333333V106.6666666666667H106.6666666666667V64M362.6666666666667 215.2533333333333V149.3333333333334H405.3333333333333V240.8533333333333C392.32 230.8266666666667 378.0266666666667 222.2933333333334 362.6666666666667 215.2533333333333M341.3333333333333 149.3333333333334V206.5066666666667C327.68 201.6 313.3866666666667 197.9733333333333 298.6666666666667 195.4133333333334V149.3333333333334H341.3333333333333M277.3333333333333 149.3333333333334V192.8533333333333L256 192L234.6666666666667 192.8533333333333V149.3333333333334H277.3333333333333M213.3333333333333 149.3333333333334V195.4133333333334C198.6133333333334 197.9733333333333 184.32 201.6 170.6666666666667 206.5066666666667V149.3333333333334H213.3333333333333z" /></svg>