<?xml version="1.0" encoding="UTF-8"?><!DOCTYPE svg PUBLIC "-//W3C//DTD SVG 1.1//EN" "http://www.w3.org/Graphics/SVG/1.1/DTD/svg11.dtd"><svg xmlns="http://www.w3.org/2000/svg" xmlns:xlink="http://www.w3.org/1999/xlink" version="1.1" width="512" height="512" viewBox="0 0 512 512">    <path fill="#ffffff" transform="scale(1, -1) translate(0, -448)" glyph-name="z-wave" unicode="&#xFAE9;" horiz-adv-x="512" d=" M347.7333333333334 222.2933333333334C280.32 222.2933333333334 226.1333333333334 167.8933333333334 226.1333333333334 100.6933333333333C226.1333333333334 33.4933333333333 280.5333333333334 -21.3333333333333 347.7333333333334 -21.3333333333333C414.9333333333333 -21.3333333333333 469.3333333333333 33.4933333333333 469.3333333333333 100.6933333333333S414.9333333333333 222.2933333333333 347.7333333333334 222.2933333333333M384 40.96H281.3866666666667L337.28 128H283.9466666666667L307.2 165.76H409.1733333333333L354.7733333333333 79.36H409.1733333333333L384 40.96M347.7333333333334 364.16V405.3333333333333C179.4133333333333 405.3333333333333 42.6666666666667 268.3733333333334 42.6666666666667 100.0533333333334H83.6266666666667C84.0533333333333 246.1866666666667 202.6666666666667 364.16 347.7333333333334 364.16M347.7333333333334 282.88V323.8400000000001C224 323.8400000000001 123.9466666666667 223.36 123.9466666666667 100.0533333333333H164.9066666666667C165.3333333333333 200.96 247.2533333333334 282.88 347.7333333333334 282.88" /></svg>