<?xml version="1.0" encoding="UTF-8"?><!DOCTYPE svg PUBLIC "-//W3C//DTD SVG 1.1//EN" "http://www.w3.org/Graphics/SVG/1.1/DTD/svg11.dtd"><svg xmlns="http://www.w3.org/2000/svg" xmlns:xlink="http://www.w3.org/1999/xlink" version="1.1" width="512" height="512" viewBox="0 0 512 512">    <path fill="#ffffff" transform="scale(1, -1) translate(0, -448)" glyph-name="thermostat-box" unicode="&#xF890;" horiz-adv-x="512" d=" M106.6666666666667 384C83.2 384 64 364.8 64 341.3333333333334V42.6666666666667C64 19.2 83.2 0 106.6666666666667 0H405.3333333333333C428.8 0 448 19.2 448 42.6666666666667V341.3333333333334C448 365.0133333333333 428.8 384 405.3333333333333 384H106.6666666666667M256 341.3333333333334C289.4933333333334 341.3333333333334 320 330.6666666666667 345.3866666666667 311.4666666666667L298.6666666666667 265.3866666666667C286.5066666666667 272.8533333333334 271.7866666666667 277.3333333333334 256 277.3333333333334C208.8533333333333 277.3333333333334 170.6666666666667 239.1466666666667 170.6666666666667 192C170.6666666666667 168.5333333333334 180.2666666666667 147.2000000000001 195.6266666666667 131.6266666666667L150.4 86.4C123.3066666666667 113.4933333333334 106.6666666666667 150.8266666666667 106.6666666666667 192C106.6666666666667 274.5600000000001 173.44 341.3333333333334 256 341.3333333333334M375.4666666666667 281.3866666666667C394.6666666666667 256 405.3333333333333 225.4933333333334 405.3333333333333 192C405.3333333333333 150.8266666666667 388.6933333333333 113.4933333333334 361.6 86.4L316.3733333333333 131.6266666666667C331.7333333333334 147.2000000000001 341.3333333333333 168.5333333333334 341.3333333333333 192C341.3333333333333 207.7866666666667 336.8533333333333 222.5066666666667 329.1733333333333 234.6666666666667L375.4666666666667 281.3866666666667z" /></svg>