<?xml version="1.0" encoding="UTF-8"?><!DOCTYPE svg PUBLIC "-//W3C//DTD SVG 1.1//EN" "http://www.w3.org/Graphics/SVG/1.1/DTD/svg11.dtd"><svg xmlns="http://www.w3.org/2000/svg" xmlns:xlink="http://www.w3.org/1999/xlink" version="1.1" width="512" height="512" viewBox="0 0 512 512">    <path fill="#ffffff" transform="scale(1, -1) translate(0, -448)" glyph-name="gate-nor" unicode="&#xF8E2;" horiz-adv-x="512" d=" M42.6666666666667 362.6666666666667C106.6666666666667 234.6666666666667 106.6666666666667 149.3333333333334 42.6666666666667 21.3333333333334H106.6666666666667C200.5333333333333 21.3333333333334 277.3333333333333 70.4 354.1333333333334 155.7333333333334C365.8666666666667 138.6666666666667 384.8533333333334 128 405.3333333333333 128C440.7466666666667 128 469.3333333333333 156.5866666666667 469.3333333333333 192S440.7466666666667 256 405.3333333333333 256C384.8533333333333 256 365.8666666666666 245.3333333333334 354.1333333333334 228.2666666666667C277.3333333333333 313.6 200.5333333333333 362.6666666666667 106.6666666666667 362.6666666666667H42.6666666666667M106.6666666666667 320C187.7333333333334 320 256 275.2000000000001 326.4 192C256 108.8 187.7333333333334 64 106.6666666666667 64C138.6666666666667 149.3333333333334 138.6666666666667 234.6666666666667 106.6666666666667 320M405.3333333333333 213.3333333333334C416 213.3333333333334 426.6666666666667 202.6666666666667 426.6666666666667 192S416 170.6666666666667 405.3333333333333 170.6666666666667C393.6 170.6666666666667 384 180.2666666666667 384 192C384 202.6666666666667 394.6666666666667 213.3333333333334 405.3333333333333 213.3333333333334z" /></svg>