<?xml version="1.0" encoding="UTF-8"?><!DOCTYPE svg PUBLIC "-//W3C//DTD SVG 1.1//EN" "http://www.w3.org/Graphics/SVG/1.1/DTD/svg11.dtd"><svg xmlns="http://www.w3.org/2000/svg" xmlns:xlink="http://www.w3.org/1999/xlink" version="1.1" width="512" height="512" viewBox="0 0 512 512">    <path fill="#ffffff" transform="scale(1, -1) translate(0, -448)" glyph-name="camera-wireless" unicode="&#xFD92;" horiz-adv-x="512" d=" M256 217.6C293.76 217.6 324.2666666666667 187.0933333333334 324.2666666666667 149.3333333333334C324.2666666666667 111.5733333333334 293.76 81.0666666666667 256 81.0666666666667C218.24 81.0666666666667 187.7333333333334 111.5733333333334 187.7333333333334 149.3333333333334C187.7333333333334 187.0933333333334 218.24 217.6 256 217.6M341.3333333333333 376.96V405.3333333333333C411.9466666666666 405.3333333333333 469.3333333333333 347.9466666666667 469.3333333333333 277.3333333333334H440.9600000000001C440.9600000000001 332.3733333333334 396.3733333333334 376.9600000000001 341.3333333333333 376.9600000000001M341.3333333333333 320V348.3733333333334C380.5866666666667 348.3733333333334 412.3733333333333 316.5866666666667 412.3733333333333 277.3333333333334H384C384 301.0133333333333 365.0133333333333 320 341.3333333333333 320M362.6666666666667 256H469.3333333333333V21.3333333333334C469.3333333333333 -2.1333333333333 450.1333333333334 -21.3333333333333 426.6666666666667 -21.3333333333333H85.3333333333333C61.8666666666667 -21.3333333333333 42.6666666666667 -2.1333333333333 42.6666666666667 21.3333333333334V277.3333333333334C42.6666666666667 300.8 61.8666666666667 320 85.3333333333333 320H152.96L192 362.6666666666667H320V298.6666666666667C343.68 298.6666666666667 362.6666666666667 279.68 362.6666666666667 256M256 42.6666666666667C314.88 42.6666666666667 362.6666666666667 90.4533333333334 362.6666666666667 149.3333333333334S314.88 256 256 256S149.3333333333333 208.2133333333334 149.3333333333333 149.3333333333334S197.12 42.6666666666667 256 42.6666666666667z" /></svg>