<?xml version="1.0" encoding="UTF-8"?><!DOCTYPE svg PUBLIC "-//W3C//DTD SVG 1.1//EN" "http://www.w3.org/Graphics/SVG/1.1/DTD/svg11.dtd"><svg xmlns="http://www.w3.org/2000/svg" xmlns:xlink="http://www.w3.org/1999/xlink" version="1.1" width="512" height="512" viewBox="0 0 512 512">    <path fill="#ffffff" transform="scale(1, -1) translate(0, -448)" glyph-name="face" unicode="&#xF643;" horiz-adv-x="512" d=" M192 197.3333333333334C177.28 197.3333333333334 165.3333333333333 185.3866666666667 165.3333333333333 170.6666666666667S177.28 144 192 144S218.6666666666667 155.9466666666667 218.6666666666667 170.6666666666667S206.72 197.3333333333334 192 197.3333333333334M320 197.3333333333334C305.28 197.3333333333334 293.3333333333333 185.3866666666667 293.3333333333333 170.6666666666667S305.28 144 320 144S346.6666666666667 155.9466666666667 346.6666666666667 170.6666666666667S334.72 197.3333333333334 320 197.3333333333334M256 405.3333333333333C138.24 405.3333333333333 42.6666666666667 309.76 42.6666666666667 192S138.24 -21.3333333333333 256 -21.3333333333333S469.3333333333333 74.24 469.3333333333333 192S373.76 405.3333333333333 256 405.3333333333333M256 21.3333333333334C161.92 21.3333333333334 85.3333333333333 97.92 85.3333333333333 192C85.3333333333333 198.1866666666667 85.3333333333333 204.3733333333333 86.4 210.3466666666667C136.7466666666667 232.7466666666667 176.64 273.92 197.5466666666667 324.9066666666667C236.16 270.2933333333334 299.7333333333334 234.6666666666667 371.6266666666667 234.6666666666667C388.2666666666667 234.6666666666667 404.2666666666667 236.5866666666667 419.6266666666667 240.2133333333334C424.1066666666667 225.0666666666667 426.6666666666667 208.8533333333333 426.6666666666667 192C426.6666666666667 97.92 350.08 21.3333333333334 256 21.3333333333334z" /></svg>