<?xml version="1.0" encoding="UTF-8"?><!DOCTYPE svg PUBLIC "-//W3C//DTD SVG 1.1//EN" "http://www.w3.org/Graphics/SVG/1.1/DTD/svg11.dtd"><svg xmlns="http://www.w3.org/2000/svg" xmlns:xlink="http://www.w3.org/1999/xlink" version="1.1" width="512" height="512" viewBox="0 0 512 512">    <path fill="#ffffff" transform="scale(1, -1) translate(0, -448)" glyph-name="sync-off" unicode="&#xF4E8;" horiz-adv-x="512" d=" M426.6666666666667 362.6666666666667H298.6666666666667V234.6666666666667L346.4533333333334 282.4533333333334C369.4933333333334 259.2000000000001 384 227.4133333333334 384 192C384 170.6666666666667 378.6666666666667 150.6133333333334 369.4933333333334 132.9066666666667L400.64 101.76C417.0666666666667 128 426.6666666666667 158.72 426.6666666666667 192C426.6666666666667 239.1466666666667 407.2533333333334 281.6 376.32 312.32L426.6666666666667 362.6666666666667M61.0133333333333 332.5866666666667L111.36 282.24C94.9333333333333 256 85.3333333333333 225.2800000000001 85.3333333333333 192C85.3333333333333 144.8533333333334 104.7466666666667 102.4 135.68 71.68L85.3333333333333 21.3333333333334H213.3333333333333V149.3333333333334L165.5466666666667 101.5466666666666C142.5066666666667 124.8 128 156.5866666666667 128 192C128 213.3333333333334 133.3333333333333 233.3866666666667 142.5066666666667 251.0933333333334L314.88 78.72C309.3333333333333 75.9466666666667 304.2133333333333 73.3866666666667 298.6666666666667 71.4666666666666V26.88C315.52 31.36 331.52 38.4 346.0266666666667 47.36L396.3733333333333 -2.9866666666667L423.4666666666666 24.1066666666667L88.32 359.68L61.0133333333333 332.5866666666667M213.3333333333333 312.5333333333334V357.12C196.2666666666667 352.64 180.2666666666667 345.6 165.76 336.64L196.9066666666667 305.4933333333334C202.6666666666667 308.0533333333334 207.5733333333333 310.6133333333334 213.3333333333333 312.5333333333334z" /></svg>