<?xml version="1.0" encoding="UTF-8"?><!DOCTYPE svg PUBLIC "-//W3C//DTD SVG 1.1//EN" "http://www.w3.org/Graphics/SVG/1.1/DTD/svg11.dtd"><svg xmlns="http://www.w3.org/2000/svg" xmlns:xlink="http://www.w3.org/1999/xlink" version="1.1" width="512" height="512" viewBox="0 0 512 512">    <path fill="#ffffff" transform="scale(1, -1) translate(0, -448)" glyph-name="transition" unicode="&#xF914;" horiz-adv-x="512" d=" M320 405.3333333333333C402.56 405.3333333333333 469.3333333333333 338.56 469.3333333333333 256C469.3333333333333 198.1866666666667 436.48 148.2666666666667 388.6933333333333 123.3066666666667C374.3999999999999 96 352 73.6000000000001 324.6933333333333 59.3066666666667C299.7333333333334 11.52 249.8133333333334 -21.3333333333333 192 -21.3333333333333C109.44 -21.3333333333333 42.6666666666667 45.44 42.6666666666667 128C42.6666666666667 185.8133333333334 75.52 235.7333333333334 123.3066666666667 260.6933333333334C137.6 288 160 310.4 187.3066666666667 324.6933333333334C212.2666666666667 372.48 262.1866666666666 405.3333333333333 320 405.3333333333333M256 42.6666666666667C173.44 42.6666666666667 106.6666666666667 109.44 106.6666666666667 192C93.2266666666667 174.0800000000001 85.3333333333333 152.1066666666667 85.3333333333333 128C85.3333333333333 69.1200000000001 133.12 21.3333333333334 192 21.3333333333334C216.1066666666666 21.3333333333334 238.08 29.2266666666667 256 42.6666666666667M320 106.6666666666667C237.44 106.6666666666667 170.6666666666667 173.44 170.6666666666667 256C157.2266666666667 238.08 149.3333333333333 216.1066666666667 149.3333333333333 192C149.3333333333333 133.12 197.12 85.3333333333334 256 85.3333333333334C280.1066666666667 85.3333333333334 302.08 93.2266666666667 320 106.6666666666667M320 362.6666666666667C295.8933333333333 362.6666666666667 273.92 354.7733333333333 256 341.3333333333334C338.56 341.3333333333334 405.3333333333333 274.5600000000001 405.3333333333333 192C418.7733333333333 209.92 426.6666666666667 231.8933333333334 426.6666666666667 256C426.6666666666667 314.88 378.88 362.6666666666667 320 362.6666666666667M213.3333333333333 256C213.3333333333333 197.12 261.12 149.3333333333334 320 149.3333333333334C332.8 149.3333333333334 344.9600000000001 151.4666666666667 356.2666666666667 155.7333333333334C360.5333333333333 167.04 362.6666666666667 179.2000000000001 362.6666666666667 192C362.6666666666667 250.88 314.88 298.6666666666667 256 298.6666666666667C243.2 298.6666666666667 231.04 296.5333333333334 219.7333333333334 292.2666666666667C215.4666666666667 280.9600000000001 213.3333333333333 268.8 213.3333333333333 256z" /></svg>