<?xml version="1.0" encoding="UTF-8"?><!DOCTYPE svg PUBLIC "-//W3C//DTD SVG 1.1//EN" "http://www.w3.org/Graphics/SVG/1.1/DTD/svg11.dtd"><svg xmlns="http://www.w3.org/2000/svg" xmlns:xlink="http://www.w3.org/1999/xlink" version="1.1" width="512" height="512" viewBox="0 0 512 512">    <path fill="#ffffff" transform="scale(1, -1) translate(0, -448)" glyph-name="cellphone-off" unicode="&#xF94F;" horiz-adv-x="512" d=" M50.7733333333333 411.0933333333334L23.68 384L106.6666666666667 301.0133333333333V0C106.6666666666667 -23.4666666666667 125.8666666666667 -42.6666666666666 149.3333333333333 -42.6666666666666H362.6666666666667C386.1333333333334 -42.6666666666666 405.3333333333333 -23.4666666666667 405.3333333333333 0V2.3466666666667L444.5866666666667 -36.9066666666666L471.6799999999999 -9.8133333333333M362.6666666666667 42.6666666666667H149.3333333333333V258.3466666666667L362.6666666666667 45.0133333333333V42.6666666666667M362.6666666666667 341.3333333333334V153.6L405.3333333333333 110.9333333333333V384C405.3333333333333 407.4666666666667 386.1333333333334 426.6666666666667 362.6666666666667 426.6666666666667H149.3333333333333C133.9733333333333 426.6666666666667 119.4666666666667 418.7733333333333 111.7866666666667 405.3333333333333L175.7866666666667 341.3333333333334H362.6666666666667z" /></svg>