<?xml version="1.0" encoding="UTF-8"?><!DOCTYPE svg PUBLIC "-//W3C//DTD SVG 1.1//EN" "http://www.w3.org/Graphics/SVG/1.1/DTD/svg11.dtd"><svg xmlns="http://www.w3.org/2000/svg" xmlns:xlink="http://www.w3.org/1999/xlink" version="1.1" width="512" height="512" viewBox="0 0 512 512">    <path fill="#ffffff" transform="scale(1, -1) translate(0, -448)" glyph-name="weather-windy-variant" unicode="&#xF59E;" horiz-adv-x="512" d=" M128 320L142.72 318.7200000000001C156.16 368.64 201.8133333333333 405.3333333333333 256 405.3333333333333C320.8533333333333 405.3333333333333 373.3333333333333 352.8533333333334 373.3333333333333 288L371.6266666666667 267.7333333333334C381.4400000000001 273.92 392.9600000000001 277.3333333333334 405.3333333333333 277.3333333333334C440.7466666666667 277.3333333333334 469.3333333333333 248.7466666666667 469.3333333333333 213.3333333333334S440.7466666666667 149.3333333333334 405.3333333333333 149.3333333333334H128C80.8533333333333 149.3333333333334 42.6666666666667 187.52 42.6666666666667 234.6666666666667S80.8533333333333 320 128 320M128 277.3333333333334C104.5333333333333 277.3333333333334 85.3333333333333 258.1333333333334 85.3333333333333 234.6666666666667S104.5333333333333 192 128 192H405.3333333333333C417.0666666666667 192 426.6666666666667 201.6 426.6666666666667 213.3333333333334S417.0666666666667 234.6666666666667 405.3333333333333 234.6666666666667H330.6666666666667V288C330.6666666666667 329.1733333333334 297.1733333333333 362.6666666666667 256 362.6666666666667S181.3333333333333 329.1733333333334 181.3333333333333 288V277.3333333333334H128M384 64H85.3333333333333C73.6 64 64 73.6 64 85.3333333333334S73.6 106.6666666666667 85.3333333333333 106.6666666666667H384C419.4133333333333 106.6666666666667 448 78.08 448 42.6666666666667S419.4133333333333 -21.3333333333333 384 -21.3333333333333C366.2933333333334 -21.3333333333333 350.2933333333334 -14.08 338.7733333333333 -2.56C330.6666666666667 5.76 330.6666666666667 19.2 338.7733333333333 27.52C347.0933333333333 35.84 360.5333333333333 35.84 368.8533333333333 27.52C372.6933333333333 23.68 378.0266666666667 21.3333333333334 384 21.3333333333334C395.7333333333334 21.3333333333334 405.3333333333333 30.9333333333333 405.3333333333333 42.6666666666667S395.7333333333334 64 384 64z" /></svg>