<?xml version="1.0" encoding="UTF-8"?><!DOCTYPE svg PUBLIC "-//W3C//DTD SVG 1.1//EN" "http://www.w3.org/Graphics/SVG/1.1/DTD/svg11.dtd"><svg xmlns="http://www.w3.org/2000/svg" xmlns:xlink="http://www.w3.org/1999/xlink" version="1.1" width="512" height="512" viewBox="0 0 512 512">    <path fill="#ffffff" transform="scale(1, -1) translate(0, -448)" glyph-name="ghost" unicode="&#xF2A0;" horiz-adv-x="512" d=" M256 405.3333333333333C149.9733333333333 405.3333333333333 64 319.36 64 213.3333333333334V-21.3333333333333L128 42.6666666666667L192 -21.3333333333333L256 42.6666666666667L320 -21.3333333333333L384 42.6666666666667L448 -21.3333333333333V213.3333333333334C448 319.36 362.0266666666667 405.3333333333333 256 405.3333333333333M192 277.3333333333334C215.4666666666667 277.3333333333334 234.6666666666667 258.1333333333334 234.6666666666667 234.6666666666667S215.4666666666667 192 192 192S149.3333333333333 211.2 149.3333333333333 234.6666666666667S168.5333333333333 277.3333333333334 192 277.3333333333334M320 277.3333333333334C343.4666666666667 277.3333333333334 362.6666666666667 258.1333333333334 362.6666666666667 234.6666666666667S343.4666666666667 192 320 192S277.3333333333333 211.2 277.3333333333333 234.6666666666667S296.5333333333333 277.3333333333334 320 277.3333333333334z" /></svg>