<?xml version="1.0" encoding="UTF-8"?><!DOCTYPE svg PUBLIC "-//W3C//DTD SVG 1.1//EN" "http://www.w3.org/Graphics/SVG/1.1/DTD/svg11.dtd"><svg xmlns="http://www.w3.org/2000/svg" xmlns:xlink="http://www.w3.org/1999/xlink" version="1.1" width="512" height="512" viewBox="0 0 512 512">    <path fill="#ffffff" transform="scale(1, -1) translate(0, -448)" glyph-name="instagram" unicode="&#xF2FE;" horiz-adv-x="512" d=" M166.4 405.3333333333333H345.6C413.8666666666666 405.3333333333333 469.3333333333333 349.8666666666667 469.3333333333333 281.6V102.4C469.3333333333333 34.1333333333334 413.8666666666666 -21.3333333333333 345.6 -21.3333333333333H166.4C98.1333333333333 -21.3333333333333 42.6666666666667 34.1333333333334 42.6666666666667 102.4V281.6C42.6666666666667 349.8666666666667 98.1333333333333 405.3333333333333 166.4 405.3333333333333M162.1333333333333 362.6666666666667C119.68 362.6666666666667 85.3333333333333 328.32 85.3333333333333 285.8666666666667V98.1333333333334C85.3333333333333 55.68 119.68 21.3333333333334 162.1333333333333 21.3333333333334H349.8666666666666C392.32 21.3333333333334 426.6666666666667 55.68 426.6666666666667 98.1333333333334V285.8666666666667C426.6666666666667 328.32 392.32 362.6666666666667 349.8666666666666 362.6666666666667H162.1333333333333M368 330.6666666666667C382.7200000000001 330.6666666666667 394.6666666666667 318.7200000000001 394.6666666666667 304S382.7200000000001 277.3333333333334 368 277.3333333333334S341.3333333333333 289.28 341.3333333333333 304S353.28 330.6666666666667 368 330.6666666666667M256 298.6666666666667C314.88 298.6666666666667 362.6666666666667 250.88 362.6666666666667 192S314.88 85.3333333333334 256 85.3333333333334S149.3333333333333 133.12 149.3333333333333 192S197.12 298.6666666666667 256 298.6666666666667M256 256C220.5866666666667 256 192 227.4133333333334 192 192S220.5866666666667 128 256 128S320 156.5866666666667 320 192S291.4133333333333 256 256 256z" /></svg>