<?xml version="1.0" encoding="UTF-8"?><!DOCTYPE svg PUBLIC "-//W3C//DTD SVG 1.1//EN" "http://www.w3.org/Graphics/SVG/1.1/DTD/svg11.dtd"><svg xmlns="http://www.w3.org/2000/svg" xmlns:xlink="http://www.w3.org/1999/xlink" version="1.1" width="512" height="512" viewBox="0 0 512 512">    <path fill="#ffffff" transform="scale(1, -1) translate(0, -448)" glyph-name="atom" unicode="&#xF767;" horiz-adv-x="512" d=" M256 213.3333333333334C267.7333333333334 213.3333333333334 277.3333333333333 203.7333333333334 277.3333333333333 192S267.7333333333334 170.6666666666667 256 170.6666666666667S234.6666666666667 180.2666666666667 234.6666666666667 192S244.2666666666667 213.3333333333334 256 213.3333333333334M90.0266666666667 357.9733333333334C120.5333333333333 388.48 186.6666666666667 374.8266666666667 256 329.3866666666667C325.3333333333333 374.8266666666667 391.4666666666667 388.48 421.9733333333334 357.9733333333334C452.48 327.4666666666667 438.8266666666667 261.3333333333334 393.3866666666667 192C438.8266666666667 122.6666666666667 452.48 56.5333333333333 421.9733333333334 26.0266666666666C391.4666666666667 -4.48 325.3333333333333 9.1733333333333 256 54.6133333333333C186.6666666666667 9.1733333333333 120.5333333333333 -4.48 90.0266666666667 26.0266666666666C59.52 56.5333333333333 73.1733333333333 122.6666666666667 118.6133333333333 192C73.1733333333333 261.3333333333334 59.52 327.4666666666667 90.0266666666667 357.9733333333334M331.52 267.52C344.5333333333333 254.2933333333334 356.48 240.8533333333333 367.5733333333333 227.4133333333334C397.0133333333333 272.8533333333334 407.68 311.8933333333333 391.68 327.68C375.8933333333333 343.68 336.8533333333333 333.0133333333333 291.4133333333333 303.5733333333334C304.8533333333334 292.48 318.2933333333333 280.5333333333334 331.52 267.5200000000001M180.48 116.48C167.4666666666667 129.7066666666667 155.52 143.1466666666667 144.4266666666667 156.5866666666667C114.9866666666667 111.1466666666667 104.32 72.1066666666667 120.32 56.3200000000001C136.1066666666667 40.3200000000001 175.1466666666667 50.9866666666667 220.5866666666667 80.4266666666667C207.1466666666667 91.52 193.7066666666667 103.4666666666667 180.48 116.48M120.32 327.68C104.32 311.8933333333333 114.9866666666667 272.8533333333334 144.4266666666667 227.4133333333334C155.52 240.8533333333334 167.4666666666667 254.2933333333334 180.48 267.52C193.7066666666667 280.5333333333333 207.1466666666667 292.48 220.5866666666667 303.5733333333333C175.1466666666667 333.0133333333333 136.1066666666667 343.68 120.32 327.68M210.7733333333333 146.7733333333333C225.7066666666666 131.84 241.0666666666667 118.1866666666667 256 106.0266666666666C270.9333333333333 118.1866666666667 286.2933333333333 131.84 301.2266666666667 146.7733333333333C316.16 161.7066666666667 329.8133333333334 177.0666666666667 341.9733333333334 192C329.8133333333334 206.9333333333333 316.16 222.2933333333334 301.2266666666667 237.2266666666667C286.2933333333334 252.1600000000001 270.9333333333334 265.8133333333334 256 277.9733333333334C241.0666666666667 265.8133333333334 225.7066666666667 252.1600000000001 210.7733333333333 237.2266666666667C195.84 222.2933333333334 182.1866666666667 206.9333333333334 170.0266666666667 192C182.1866666666667 177.0666666666667 195.84 161.7066666666667 210.7733333333333 146.7733333333333M391.68 56.3200000000001C407.68 72.1066666666667 397.0133333333333 111.1466666666667 367.5733333333333 156.5866666666667C356.48 143.1466666666667 344.5333333333333 129.7066666666667 331.52 116.48C318.2933333333334 103.4666666666667 304.8533333333334 91.52 291.4133333333333 80.4266666666667C336.8533333333333 50.9866666666667 375.8933333333333 40.3200000000001 391.68 56.3200000000001z" /></svg>