<?xml version="1.0" encoding="UTF-8"?><!DOCTYPE svg PUBLIC "-//W3C//DTD SVG 1.1//EN" "http://www.w3.org/Graphics/SVG/1.1/DTD/svg11.dtd"><svg xmlns="http://www.w3.org/2000/svg" xmlns:xlink="http://www.w3.org/1999/xlink" version="1.1" width="512" height="512" viewBox="0 0 512 512">    <path fill="#ffffff" transform="scale(1, -1) translate(0, -448)" glyph-name="fuse-blade" unicode="&#xFC62;" horiz-adv-x="512" d=" M213.3333333333333 0H170.6666666666667L128 42.6666666666667V106.6666666666667H213.3333333333333V0M384 106.6666666666667H298.6666666666667V0H341.3333333333333L384 42.6666666666667V106.6666666666667M64 384V362.6666666666667C64 350.9333333333334 73.6 341.3333333333334 85.3333333333333 341.3333333333334V149.3333333333334C85.3333333333333 137.6 94.9333333333333 128 106.6666666666667 128H405.3333333333333C417.0666666666667 128 426.6666666666667 137.6 426.6666666666667 149.3333333333334V341.3333333333334C438.4 341.3333333333334 448 350.9333333333334 448 362.6666666666667V384H64M252.3733333333334 170.6666666666667V240.4266666666667H213.3333333333333L269.0133333333333 348.5866666666667V278.8266666666667H306.3466666666667L252.3733333333334 170.6666666666667z" /></svg>