<?xml version="1.0" encoding="UTF-8"?><!DOCTYPE svg PUBLIC "-//W3C//DTD SVG 1.1//EN" "http://www.w3.org/Graphics/SVG/1.1/DTD/svg11.dtd"><svg xmlns="http://www.w3.org/2000/svg" xmlns:xlink="http://www.w3.org/1999/xlink" version="1.1" width="512" height="512" viewBox="0 0 512 512">    <path fill="#ffffff" transform="scale(1, -1) translate(0, -448)" glyph-name="help-rhombus" unicode="&#xFB81;" horiz-adv-x="512" d=" M458.6666666666666 217.6L281.6 394.6666666666667C266.6666666666667 409.6 245.3333333333333 409.6 230.4 394.6666666666667L53.3333333333333 217.6C38.4 202.6666666666667 38.4 181.3333333333334 53.3333333333333 166.4L230.4 -10.6666666666666C245.3333333333333 -25.6 266.6666666666667 -25.6 281.6 -10.6666666666666L458.6666666666666 166.4C471.4666666666667 181.3333333333334 471.4666666666667 202.6666666666667 458.6666666666666 217.6M266.6666666666667 85.3333333333334H234.6666666666667V117.3333333333334H266.6666666666667V85.3333333333334M305.0666666666667 196.2666666666667C296.5333333333333 185.6 281.6 179.2 275.2 168.5333333333333C268.8 160 268.8 149.3333333333333 268.8 138.6666666666666H234.6666666666667C234.6666666666667 155.7333333333334 234.6666666666667 170.6666666666666 241.0666666666667 181.3333333333333S262.4 198.4 270.9333333333334 204.8C296.5333333333333 228.2666666666666 290.1333333333334 262.4 253.8666666666667 264.5333333333333C236.8 264.5333333333333 221.8666666666667 249.6 221.8666666666667 232.5333333333333H192C192 268.8 219.7333333333334 296.5333333333333 256 296.5333333333333C313.6 296.5333333333333 339.2 238.9333333333334 305.0666666666667 196.2666666666667z" /></svg>