<?xml version="1.0" encoding="UTF-8"?><!DOCTYPE svg PUBLIC "-//W3C//DTD SVG 1.1//EN" "http://www.w3.org/Graphics/SVG/1.1/DTD/svg11.dtd"><svg xmlns="http://www.w3.org/2000/svg" xmlns:xlink="http://www.w3.org/1999/xlink" version="1.1" width="512" height="512" viewBox="0 0 512 512">    <path fill="#ffffff" transform="scale(1, -1) translate(0, -448)" glyph-name="skull" unicode="&#xF68B;" horiz-adv-x="512" d=" M256 405.3333333333333C149.9733333333333 405.3333333333333 64 319.36 64 213.3333333333334C64 148.6933333333334 96.64 89.1733333333334 149.3333333333333 53.9733333333334V-21.3333333333333H192V42.6666666666667H234.6666666666667V-21.3333333333333H277.3333333333333V42.6666666666667H320V-21.3333333333333H362.6666666666667V54.1866666666667C415.36 89.3866666666667 448 149.3333333333334 448 213.3333333333334C448 319.36 362.0266666666667 405.3333333333333 256 405.3333333333333M170.6666666666667 213.3333333333334C194.1333333333333 213.3333333333334 213.3333333333333 194.1333333333333 213.3333333333333 170.6666666666667S194.1333333333333 128 170.6666666666667 128S128 147.2000000000001 128 170.6666666666667S147.2 213.3333333333334 170.6666666666667 213.3333333333334M341.3333333333333 213.3333333333334C364.8 213.3333333333334 384 194.1333333333333 384 170.6666666666667S364.8 128 341.3333333333333 128S298.6666666666667 147.2000000000001 298.6666666666667 170.6666666666667S317.8666666666667 213.3333333333334 341.3333333333333 213.3333333333334M256 149.3333333333334L288 85.3333333333334H224L256 149.3333333333334z" /></svg>