<?xml version="1.0" encoding="UTF-8"?><!DOCTYPE svg PUBLIC "-//W3C//DTD SVG 1.1//EN" "http://www.w3.org/Graphics/SVG/1.1/DTD/svg11.dtd"><svg xmlns="http://www.w3.org/2000/svg" xmlns:xlink="http://www.w3.org/1999/xlink" version="1.1" width="512" height="512" viewBox="0 0 512 512">    <path fill="#ffffff" transform="scale(1, -1) translate(0, -448)" glyph-name="comment-search-outline" unicode="&#xFA3C;" horiz-adv-x="512" d=" M85.3333333333333 362.6666666666667H202.6666666666667C197.3333333333333 349.0133333333333 193.92 334.7200000000001 192.8533333333333 320H85.3333333333333V106.6666666666667H213.3333333333333V40.96L279.04 106.6666666666667H384V165.76L426.6666666666667 123.0933333333334V106.6666666666667C426.6666666666667 83.2 407.4666666666667 64 384 64H296.5333333333333L217.6 -15.1466666666666C213.3333333333333 -19.2 208 -21.3333333333333 202.6666666666667 -21.3333333333333H192C180.2666666666667 -21.3333333333333 170.6666666666667 -11.7333333333333 170.6666666666667 0V64H85.3333333333333C61.8666666666667 64 42.6666666666667 83.2 42.6666666666667 106.6666666666667V320C42.6666666666667 343.68 61.8666666666667 362.6666666666667 85.3333333333333 362.6666666666667M330.6666666666667 405.3333333333333C384 405.3333333333333 426.6666666666667 362.6666666666667 426.6666666666667 309.3333333333334C426.6666666666667 290.56 421.3333333333333 273.0666666666667 411.9466666666666 258.3466666666667L478.08 192L448 162.3466666666667L381.6533333333333 228.0533333333334C366.9333333333333 218.6666666666667 349.44 213.3333333333334 330.6666666666667 213.3333333333334C277.3333333333333 213.3333333333334 234.6666666666667 256 234.6666666666667 309.3333333333334S277.3333333333333 405.3333333333333 330.6666666666667 405.3333333333333M330.6666666666667 362.6666666666667C301.2266666666667 362.6666666666667 277.3333333333333 338.7733333333333 277.3333333333333 309.3333333333334S301.2266666666667 256 330.6666666666667 256S384 279.8933333333333 384 309.3333333333334S360.1066666666667 362.6666666666667 330.6666666666667 362.6666666666667z" /></svg>