<?xml version="1.0" encoding="UTF-8"?><!DOCTYPE svg PUBLIC "-//W3C//DTD SVG 1.1//EN" "http://www.w3.org/Graphics/SVG/1.1/DTD/svg11.dtd"><svg xmlns="http://www.w3.org/2000/svg" xmlns:xlink="http://www.w3.org/1999/xlink" version="1.1" width="512" height="512" viewBox="0 0 512 512">    <path fill="#ffffff" transform="scale(1, -1) translate(0, -448)" glyph-name="prescription" unicode="&#xF705;" horiz-adv-x="512" d=" M85.3333333333333 362.6666666666667V149.3333333333334H128V234.6666666666667H170.6666666666667L286.08 119.2533333333333L209.7066666666667 42.6666666666667L239.7866666666667 12.5866666666667L316.3733333333334 88.96L392.7466666666667 12.5866666666668L422.8266666666667 42.6666666666667L346.4533333333334 119.2533333333333L422.8266666666667 195.6266666666667L392.7466666666667 225.92L316.3733333333334 149.3333333333334L231.04 234.6666666666667H234.6666666666667C270.08 234.6666666666667 298.6666666666667 263.2533333333334 298.6666666666667 298.6666666666667S270.08 362.6666666666667 234.6666666666667 362.6666666666667H85.3333333333333M128 320H234.6666666666667C246.4 320 256 310.4 256 298.6666666666667S246.4 277.3333333333334 234.6666666666667 277.3333333333334H128V320z" /></svg>