<?xml version="1.0" encoding="UTF-8"?><!DOCTYPE svg PUBLIC "-//W3C//DTD SVG 1.1//EN" "http://www.w3.org/Graphics/SVG/1.1/DTD/svg11.dtd"><svg xmlns="http://www.w3.org/2000/svg" xmlns:xlink="http://www.w3.org/1999/xlink" version="1.1" width="512" height="512" viewBox="0 0 512 512">    <path fill="#ffffff" transform="scale(1, -1) translate(0, -448)" glyph-name="tooltip-plus-outline" unicode="&#xF527;" horiz-adv-x="512" d=" M85.3333333333333 405.3333333333333H426.6666666666667C450.1333333333334 405.3333333333333 469.3333333333333 386.1333333333334 469.3333333333333 362.6666666666667V106.6666666666667C469.3333333333333 83.2 450.1333333333334 64 426.6666666666667 64H341.3333333333333L256 -21.3333333333333L170.6666666666667 64H85.3333333333333C61.8666666666667 64 42.6666666666667 83.2 42.6666666666667 106.6666666666667V362.6666666666667C42.6666666666667 386.1333333333334 61.8666666666667 405.3333333333333 85.3333333333333 405.3333333333333M85.3333333333333 362.6666666666667V106.6666666666667H188.3733333333333L256 39.04L323.6266666666667 106.6666666666667H426.6666666666667V362.6666666666667H85.3333333333333M234.6666666666667 320H277.3333333333333V256H341.3333333333333V213.3333333333334H277.3333333333333V149.3333333333334H234.6666666666667V213.3333333333334H170.6666666666667V256H234.6666666666667V320z" /></svg>