<?xml version="1.0" encoding="UTF-8"?><!DOCTYPE svg PUBLIC "-//W3C//DTD SVG 1.1//EN" "http://www.w3.org/Graphics/SVG/1.1/DTD/svg11.dtd"><svg xmlns="http://www.w3.org/2000/svg" xmlns:xlink="http://www.w3.org/1999/xlink" version="1.1" width="512" height="512" viewBox="0 0 512 512">    <path fill="#ffffff" transform="scale(1, -1) translate(0, -448)" glyph-name="football-helmet" unicode="&#xF25F;" horiz-adv-x="512" d=" M288 192C270.2933333333333 192 256 177.7066666666667 256 160S270.2933333333333 128 288 128S320 142.2933333333334 320 160S305.7066666666667 192 288 192M288 384C388.0533333333334 384 469.3333333333333 307.6266666666667 469.3333333333333 213.3333333333334C469.3333333333333 178.7733333333333 469.3333333333333 149.3333333333334 449.92 106.6666666666667C362.6666666666667 106.6666666666667 341.3333333333333 21.3333333333334 266.6666666666667 21.3333333333334C220.16 21.3333333333334 197.76 58.0266666666666 193.0666666666667 106.6666666666667H175.7866666666667L148.48 14.9333333333333C145.28 4.48 135.04 -1.7066666666667 124.5866666666667 0H64C52.2666666666667 0 42.6666666666667 9.6 42.6666666666667 21.3333333333334S52.2666666666667 42.6666666666667 64 42.6666666666667V106.6666666666667C52.2666666666667 106.6666666666667 42.6666666666667 116.2666666666667 42.6666666666667 128S52.2666666666667 149.3333333333334 64 149.3333333333334H144L154.24 183.68C143.36 189.0133333333333 130.7733333333334 192 117.3333333333333 192H108.16L106.6666666666667 213.3333333333334C106.6666666666667 307.6266666666667 187.9466666666667 384 288 384M106.6666666666667 106.6666666666667V42.6666666666667H112.2133333333333L131.2 106.6666666666667H106.6666666666667z" /></svg>