<?xml version="1.0" encoding="UTF-8"?><!DOCTYPE svg PUBLIC "-//W3C//DTD SVG 1.1//EN" "http://www.w3.org/Graphics/SVG/1.1/DTD/svg11.dtd"><svg xmlns="http://www.w3.org/2000/svg" xmlns:xlink="http://www.w3.org/1999/xlink" version="1.1" width="512" height="512" viewBox="0 0 512 512">    <path fill="#ffffff" transform="scale(1, -1) translate(0, -448)" glyph-name="xbox-controller-off" unicode="&#xF5BB;" horiz-adv-x="512" d=" M42.6666666666667 335.5733333333334L69.9733333333333 362.6666666666667L426.6666666666667 5.9733333333334L399.5733333333333 -21.3333333333333L266.6666666666667 112H186.6666666666667C144 112 128 64 85.3333333333333 42.6666666666667C42.6666666666667 42.6666666666667 10.6666666666667 105.8133333333334 94.2933333333333 283.9466666666667L42.6666666666667 335.5733333333334M199.04 315.0933333333334H312.96C341.3333333333333 341.3333333333334 401.28 305.7066666666667 401.28 305.7066666666667L410.6666666666667 288H416C490.6666666666666 128 475.3066666666667 59.7333333333334 441.3866666666667 45.4400000000001L162.56 324.2666666666667C176 325.76 189.2266666666667 324.0533333333334 199.04 315.0933333333334M256 298.6666666666667C244.2666666666667 298.6666666666667 234.6666666666667 289.0666666666667 234.6666666666667 277.3333333333334S244.2666666666667 256 256 256S277.3333333333333 265.6 277.3333333333333 277.3333333333334S267.7333333333334 298.6666666666667 256 298.6666666666667z" /></svg>