<?xml version="1.0" encoding="UTF-8"?><!DOCTYPE svg PUBLIC "-//W3C//DTD SVG 1.1//EN" "http://www.w3.org/Graphics/SVG/1.1/DTD/svg11.dtd"><svg xmlns="http://www.w3.org/2000/svg" xmlns:xlink="http://www.w3.org/1999/xlink" version="1.1" width="512" height="512" viewBox="0 0 512 512">    <path fill="#ffffff" transform="scale(1, -1) translate(0, -448)" glyph-name="gauge-full" unicode="&#xF873;" horiz-adv-x="512" d=" M256 405.3333333333333C138.24 405.3333333333333 42.6666666666667 309.76 42.6666666666667 192S138.24 -21.3333333333333 256 -21.3333333333333S469.3333333333333 74.24 469.3333333333333 192S373.76 405.3333333333333 256 405.3333333333333M256 362.6666666666667C350.2933333333334 362.6666666666667 426.6666666666667 286.2933333333334 426.6666666666667 192C426.6666666666667 140.8 405.3333333333333 96 369.0666666666667 64C339.2 91.7333333333334 298.6666666666667 106.6666666666667 256 106.6666666666667S174.9333333333333 91.7333333333334 142.9333333333333 64C106.6666666666667 96 85.3333333333333 140.8 85.3333333333333 192C85.3333333333333 286.2933333333334 161.7066666666667 362.6666666666667 256 362.6666666666667M213.3333333333333 320C201.6 320 192 310.4 192 298.6666666666667S201.6 277.3333333333334 213.3333333333333 277.3333333333334S234.6666666666667 286.9333333333334 234.6666666666667 298.6666666666667S225.0666666666667 320 213.3333333333333 320M298.6666666666667 320C286.9333333333333 320 277.3333333333333 310.4 277.3333333333333 298.6666666666667S286.9333333333333 277.3333333333334 298.6666666666667 277.3333333333334S320 286.9333333333334 320 298.6666666666667S310.4 320 298.6666666666667 320M364.5866666666667 257.2800000000001C361.8133333333334 257.2800000000001 359.2533333333334 256.6400000000001 356.2666666666667 256L288 227.84L282.24 225.4933333333334C270.2933333333333 234.6666666666667 254.08 237.2266666666667 240 231.4666666666667C218.24 222.72 207.5733333333333 197.76 216.5333333333333 176C225.28 154.24 250.24 143.5733333333334 272 152.5333333333334C286.08 158.0800000000001 296.1066666666667 170.6666666666667 298.6666666666667 186.0266666666667L303.5733333333333 188.16L372.2666666666667 215.8933333333334L372.6933333333333 216.1066666666667C384 220.5866666666667 388.9066666666667 232.9600000000001 384.64 244.0533333333334C381.2266666666666 252.1600000000001 373.3333333333333 257.4933333333334 364.5866666666666 257.2800000000001M149.3333333333333 256C137.6 256 128 246.4000000000001 128 234.6666666666667S137.6 213.3333333333334 149.3333333333333 213.3333333333334S170.6666666666667 222.9333333333333 170.6666666666667 234.6666666666667S161.0666666666667 256 149.3333333333333 256z" /></svg>