<?xml version="1.0" encoding="UTF-8"?><!DOCTYPE svg PUBLIC "-//W3C//DTD SVG 1.1//EN" "http://www.w3.org/Graphics/SVG/1.1/DTD/svg11.dtd"><svg xmlns="http://www.w3.org/2000/svg" xmlns:xlink="http://www.w3.org/1999/xlink" version="1.1" width="512" height="512" viewBox="0 0 512 512">    <path fill="#ffffff" transform="scale(1, -1) translate(0, -448)" glyph-name="horseshoe" unicode="&#xFA57;" horiz-adv-x="512" d=" M405.3333333333333 362.6666666666667H426.6666666666667V426.6666666666667H341.3333333333333V362.6666666666667S384 277.3333333333334 384 192S341.3333333333333 42.6666666666667 256 42.6666666666667S128 106.6666666666667 128 192S170.6666666666667 362.6666666666667 170.6666666666667 362.6666666666667V426.6666666666667H85.3333333333333V362.6666666666667H106.6666666666667S42.6666666666667 277.3333333333334 42.6666666666667 149.3333333333334C42.6666666666667 42.6666666666667 149.3333333333333 -42.6666666666666 256 -42.6666666666666S469.3333333333333 42.6666666666667 469.3333333333333 149.3333333333334C469.3333333333333 277.3333333333334 405.3333333333333 362.6666666666667 405.3333333333333 362.6666666666667M85.3333333333333 170.6666666666667C72.5333333333333 170.6666666666667 64 179.2000000000001 64 192S72.5333333333333 213.3333333333334 85.3333333333333 213.3333333333334S106.6666666666667 204.8 106.6666666666667 192S98.1333333333333 170.6666666666667 85.3333333333333 170.6666666666667M128 42.6666666666667C115.2 42.6666666666667 106.6666666666667 51.2 106.6666666666667 64S115.2 85.3333333333334 128 85.3333333333334S149.3333333333333 76.8000000000001 149.3333333333333 64S140.8 42.6666666666667 128 42.6666666666667M256 -21.3333333333333C243.2 -21.3333333333333 234.6666666666667 -12.8 234.6666666666667 0S243.2 21.3333333333334 256 21.3333333333334S277.3333333333333 12.8000000000001 277.3333333333333 0S268.8 -21.3333333333333 256 -21.3333333333333M384 42.6666666666667C371.2 42.6666666666667 362.6666666666667 51.2 362.6666666666667 64S371.2 85.3333333333334 384 85.3333333333334S405.3333333333333 76.8000000000001 405.3333333333333 64S396.8 42.6666666666667 384 42.6666666666667M426.6666666666667 170.6666666666667C413.8666666666666 170.6666666666667 405.3333333333333 179.2000000000001 405.3333333333333 192S413.8666666666666 213.3333333333334 426.6666666666667 213.3333333333334S448 204.8 448 192S439.4666666666667 170.6666666666667 426.6666666666667 170.6666666666667z" /></svg>