<?xml version="1.0" encoding="UTF-8"?><!DOCTYPE svg PUBLIC "-//W3C//DTD SVG 1.1//EN" "http://www.w3.org/Graphics/SVG/1.1/DTD/svg11.dtd"><svg xmlns="http://www.w3.org/2000/svg" xmlns:xlink="http://www.w3.org/1999/xlink" version="1.1" width="512" height="512" viewBox="0 0 512 512">    <path fill="#ffffff" transform="scale(1, -1) translate(0, -448)" glyph-name="beats" unicode="&#xF097;" horiz-adv-x="512" d=" M149.3333333333333 192C149.3333333333333 133.12 197.12 85.3333333333334 256 85.3333333333334S362.6666666666667 133.12 362.6666666666667 192S314.88 298.6666666666667 256 298.6666666666667C231.8933333333334 298.6666666666667 209.92 290.7733333333333 192 277.3333333333334V395.52C212.2666666666667 401.92 233.6 405.3333333333333 256 405.3333333333333C373.76 405.3333333333333 469.3333333333333 309.76 469.3333333333333 192S373.76 -21.3333333333333 256 -21.3333333333333S42.6666666666667 74.24 42.6666666666667 192C42.6666666666667 270.9333333333334 85.3333333333333 339.8400000000001 149.3333333333333 376.7466666666667V192M256 256C291.4133333333333 256 320 227.4133333333334 320 192S291.4133333333333 128 256 128S192 156.5866666666667 192 192S220.5866666666667 256 256 256z" /></svg>