<?xml version="1.0" encoding="UTF-8"?><!DOCTYPE svg PUBLIC "-//W3C//DTD SVG 1.1//EN" "http://www.w3.org/Graphics/SVG/1.1/DTD/svg11.dtd"><svg xmlns="http://www.w3.org/2000/svg" xmlns:xlink="http://www.w3.org/1999/xlink" version="1.1" width="512" height="512" viewBox="0 0 512 512">    <path fill="#ffffff" transform="scale(1, -1) translate(0, -448)" glyph-name="microphone-settings" unicode="&#xF36F;" horiz-adv-x="512" d=" M405.3333333333333 234.6666666666667H369.0666666666667C369.0666666666667 170.6666666666667 314.88 125.8666666666667 256 125.8666666666667S142.9333333333333 170.6666666666667 142.9333333333333 234.6666666666667H106.6666666666667C106.6666666666667 161.92 164.6933333333333 101.76 234.6666666666667 91.3066666666667V21.3333333333334H277.3333333333333V91.3066666666667C347.3066666666667 101.76 405.3333333333333 161.9200000000001 405.3333333333333 234.6666666666667M320 -64H362.6666666666667V-21.3333333333333H320M234.6666666666667 -64H277.3333333333333V-21.3333333333333H234.6666666666667M256 170.6666666666667C291.4133333333333 170.6666666666667 320 199.2533333333333 320 234.6666666666667V362.6666666666667C320 398.08 291.4133333333333 426.6666666666667 256 426.6666666666667S192 398.08 192 362.6666666666667V234.6666666666667C192 199.2533333333333 220.5866666666667 170.6666666666667 256 170.6666666666667M149.3333333333333 -64H192V-21.3333333333333H149.3333333333333V-64z" /></svg>