<?xml version="1.0" encoding="UTF-8"?><!DOCTYPE svg PUBLIC "-//W3C//DTD SVG 1.1//EN" "http://www.w3.org/Graphics/SVG/1.1/DTD/svg11.dtd"><svg xmlns="http://www.w3.org/2000/svg" xmlns:xlink="http://www.w3.org/1999/xlink" version="1.1" width="512" height="512" viewBox="0 0 512 512">    <path fill="#ffffff" transform="scale(1, -1) translate(0, -448)" glyph-name="gog" unicode="&#xFB7D;" horiz-adv-x="512" d=" M85.3333333333333 384H426.6666666666667C450.1333333333334 384 469.3333333333333 364.8 469.3333333333333 341.3333333333334V42.6666666666667C469.3333333333333 19.2 450.1333333333334 0 426.6666666666667 0H85.3333333333333C61.8666666666667 0 42.6666666666667 19.2 42.6666666666667 42.6666666666667V341.3333333333334C42.6666666666667 364.8 61.8666666666667 384 85.3333333333333 384M223.1466666666667 329.8133333333334C212.2666666666667 329.8133333333334 203.52 321.0666666666667 203.52 310.1866666666667V244.48C203.52 233.6 212.2666666666667 224.8533333333334 223.1466666666667 224.8533333333334H288.8533333333334C299.7333333333334 224.8533333333334 308.48 233.6 308.48 244.48V310.1866666666667C308.48 321.0666666666667 299.7333333333334 329.8133333333334 288.8533333333334 329.8133333333334H223.1466666666667M236.3733333333334 303.5733333333334H275.6266666666667C279.2533333333334 303.5733333333334 282.24 300.5866666666667 282.24 296.9600000000001V257.7066666666667C282.24 254.08 279.2533333333334 251.0933333333334 275.6266666666667 251.0933333333334H236.3733333333334C232.7466666666667 251.0933333333334 229.76 254.08 229.76 257.7066666666667V296.9600000000001C229.76 300.5866666666667 232.7466666666667 303.5733333333333 236.3733333333334 303.5733333333333M104.96 329.8133333333334C94.08 329.8133333333334 85.3333333333333 321.0666666666667 85.3333333333333 310.1866666666667V244.48C85.3333333333333 233.6 94.08 224.8533333333334 104.96 224.8533333333334H151.04V251.0933333333334H118.1866666666667C114.56 251.0933333333334 111.5733333333333 254.08 111.5733333333333 257.7066666666667V296.9600000000001C111.5733333333333 300.5866666666667 114.56 303.5733333333333 118.1866666666667 303.5733333333333H157.44C161.0666666666667 303.5733333333333 164.0533333333333 300.5866666666667 164.0533333333333 296.9600000000001V218.24C164.0533333333333 214.6133333333334 161.0666666666667 211.6266666666667 157.44 211.6266666666667H85.3333333333333V185.3866666666667H170.6666666666667C181.3333333333333 185.3866666666667 190.2933333333333 194.3466666666667 190.2933333333333 205.2266666666667V310.1866666666667C190.2933333333333 321.0666666666667 181.5466666666667 329.8133333333334 170.6666666666667 329.8133333333334H104.96M341.3333333333333 329.8133333333334C330.6666666666667 329.8133333333334 321.7066666666667 321.0666666666667 321.7066666666667 310.1866666666667V244.48C321.7066666666667 233.6 330.6666666666667 224.8533333333334 341.3333333333333 224.8533333333334H387.2V251.0933333333334H354.56C350.9333333333332 251.0933333333334 347.9466666666666 254.08 347.9466666666666 257.7066666666667V296.9600000000001C347.9466666666666 300.5866666666667 350.9333333333333 303.5733333333333 354.56 303.5733333333333H393.8133333333333C397.44 303.5733333333333 400.4266666666666 300.5866666666667 400.4266666666666 296.9600000000001V218.24C400.4266666666666 214.6133333333334 397.4399999999999 211.6266666666667 393.8133333333333 211.6266666666667H321.7066666666666V185.3866666666667H407.04C417.92 185.3866666666667 426.6666666666667 194.3466666666667 426.6666666666667 205.2266666666667V310.1866666666667C426.6666666666667 321.0666666666667 417.92 329.8133333333334 407.04 329.8133333333334H341.3333333333333M210.1333333333333 159.1466666666667C199.2533333333333 159.1466666666667 190.2933333333333 150.4 190.2933333333333 139.5200000000001V73.8133333333334C190.2933333333333 62.9333333333333 199.2533333333333 54.1866666666667 210.1333333333333 54.1866666666667H275.6266666666667C286.5066666666667 54.1866666666667 295.4666666666667 62.9333333333333 295.4666666666667 73.8133333333334V139.5200000000001C295.4666666666667 150.4 286.5066666666667 159.1466666666667 275.6266666666667 159.1466666666667H210.1333333333333M223.1466666666667 132.9066666666667H262.6133333333333C266.6666666666667 132.9066666666667 269.2266666666667 129.92 269.2266666666667 126.2933333333334V87.04C269.2266666666667 83.4133333333333 266.24 80.4266666666667 262.6133333333333 80.4266666666667H223.1466666666667C219.52 80.4266666666667 216.5333333333333 83.4133333333334 216.5333333333333 87.04V126.2933333333333C216.5333333333333 129.92 219.52 132.9066666666667 223.1466666666667 132.9066666666667M104.96 159.1466666666667C94.08 159.1466666666667 85.3333333333333 150.4 85.3333333333333 139.52V73.8133333333334C85.3333333333333 62.9333333333333 94.08 54.1866666666667 104.96 54.1866666666667H177.28V80.4266666666667H118.1866666666667C114.56 80.4266666666667 111.5733333333333 83.4133333333334 111.5733333333333 87.04V126.2933333333333C111.5733333333333 129.92 114.56 132.9066666666667 118.1866666666667 132.9066666666667H177.28V159.1466666666667H104.96M328.1066666666667 159.1466666666667C317.2266666666667 159.1466666666667 308.48 150.4 308.48 139.52V54.1866666666667H334.7200000000001V126.2933333333333C334.7200000000001 129.92 337.7066666666667 132.9066666666667 341.3333333333333 132.9066666666667H354.56V54.1866666666667H380.8V132.9066666666667H400.4266666666668V54.1866666666667H426.6666666666667V159.1466666666667H328.1066666666667z" /></svg>