<?xml version="1.0" encoding="UTF-8"?><!DOCTYPE svg PUBLIC "-//W3C//DTD SVG 1.1//EN" "http://www.w3.org/Graphics/SVG/1.1/DTD/svg11.dtd"><svg xmlns="http://www.w3.org/2000/svg" xmlns:xlink="http://www.w3.org/1999/xlink" version="1.1" width="512" height="512" viewBox="0 0 512 512">    <path fill="#ffffff" transform="scale(1, -1) translate(0, -448)" glyph-name="file-move" unicode="&#xFAB8;" horiz-adv-x="512" d=" M298.6666666666667 85.3333333333334H384V149.3333333333334L490.6666666666666 53.3333333333334L384 -42.6666666666666V21.3333333333334H298.6666666666667V85.3333333333334M277.3333333333333 256H394.6666666666667L277.3333333333333 373.3333333333334V256M128 405.3333333333333H298.6666666666667L426.6666666666667 277.3333333333334V184.7466666666667C413.2266666666667 189.4400000000001 398.9333333333333 192 384 192C313.3866666666667 192 256 134.6133333333334 256 64C256 31.1466666666667 268.3733333333334 1.28 288.64 -21.3333333333333H128C104.32 -21.3333333333333 85.3333333333333 -2.1333333333333 85.3333333333333 21.3333333333334V362.6666666666667C85.3333333333333 386.1333333333334 104.5333333333333 405.3333333333333 128 405.3333333333333z" /></svg>