<?xml version="1.0" encoding="UTF-8"?><!DOCTYPE svg PUBLIC "-//W3C//DTD SVG 1.1//EN" "http://www.w3.org/Graphics/SVG/1.1/DTD/svg11.dtd"><svg xmlns="http://www.w3.org/2000/svg" xmlns:xlink="http://www.w3.org/1999/xlink" version="1.1" width="512" height="512" viewBox="0 0 512 512">    <path fill="#ffffff" transform="scale(1, -1) translate(0, -448)" glyph-name="webcam" unicode="&#xF5A0;" horiz-adv-x="512" d=" M256 405.3333333333333C338.56 405.3333333333333 405.3333333333333 338.56 405.3333333333333 256S338.56 106.6666666666667 256 106.6666666666667S106.6666666666667 173.44 106.6666666666667 256S173.44 405.3333333333333 256 405.3333333333333M256 362.6666666666667C197.12 362.6666666666667 149.3333333333333 314.88 149.3333333333333 256S197.12 149.3333333333334 256 149.3333333333334S362.6666666666667 197.12 362.6666666666667 256S314.88 362.6666666666667 256 362.6666666666667M256 320C291.4133333333333 320 320 291.4133333333334 320 256S291.4133333333333 192 256 192S192 220.5866666666667 192 256S220.5866666666667 320 256 320M128 -21.3333333333333C104.5333333333333 -21.3333333333333 85.3333333333333 -2.1333333333333 85.3333333333333 21.3333333333334C85.3333333333333 29.44 87.4666666666667 36.9066666666667 91.52 43.3066666666667L130.3466666666667 110.72C164.0533333333334 81.7066666666667 208 64 256 64C304 64 347.9466666666666 81.7066666666667 381.6533333333333 110.72L420.48 43.3066666666667C424.5333333333334 36.9066666666667 426.6666666666667 29.4400000000001 426.6666666666667 21.3333333333334C426.6666666666667 -2.1333333333333 407.4666666666667 -21.3333333333333 384 -21.3333333333333H128z" /></svg>