<?xml version="1.0" encoding="UTF-8"?><!DOCTYPE svg PUBLIC "-//W3C//DTD SVG 1.1//EN" "http://www.w3.org/Graphics/SVG/1.1/DTD/svg11.dtd"><svg xmlns="http://www.w3.org/2000/svg" xmlns:xlink="http://www.w3.org/1999/xlink" version="1.1" width="512" height="512" viewBox="0 0 512 512">    <path fill="#ffffff" transform="scale(1, -1) translate(0, -448)" glyph-name="map-marker-outline" unicode="&#xF7D8;" horiz-adv-x="512" d=" M256 309.3333333333334C285.44 309.3333333333334 309.3333333333333 285.44 309.3333333333333 256S285.44 202.6666666666667 256 202.6666666666667S202.6666666666667 226.56 202.6666666666667 256S226.56 309.3333333333334 256 309.3333333333334M256 405.3333333333333C338.56 405.3333333333333 405.3333333333333 338.56 405.3333333333333 256C405.3333333333333 144 256 -21.3333333333333 256 -21.3333333333333S106.6666666666667 144 106.6666666666667 256C106.6666666666667 338.56 173.44 405.3333333333333 256 405.3333333333333M256 362.6666666666667C197.12 362.6666666666667 149.3333333333333 314.88 149.3333333333333 256C149.3333333333333 234.6666666666667 149.3333333333333 192 256 48.8533333333334C362.6666666666667 192 362.6666666666667 234.6666666666667 362.6666666666667 256C362.6666666666667 314.88 314.88 362.6666666666667 256 362.6666666666667z" /></svg>