<?xml version="1.0" encoding="UTF-8"?><!DOCTYPE svg PUBLIC "-//W3C//DTD SVG 1.1//EN" "http://www.w3.org/Graphics/SVG/1.1/DTD/svg11.dtd"><svg xmlns="http://www.w3.org/2000/svg" xmlns:xlink="http://www.w3.org/1999/xlink" version="1.1" width="512" height="512" viewBox="0 0 512 512">    <path fill="#ffffff" transform="scale(1, -1) translate(0, -448)" glyph-name="weather-sunny" unicode="&#xF599;" horiz-adv-x="512" d=" M256 298.6666666666667C314.88 298.6666666666667 362.6666666666667 250.88 362.6666666666667 192S314.88 85.3333333333334 256 85.3333333333334S149.3333333333333 133.12 149.3333333333333 192S197.12 298.6666666666667 256 298.6666666666667M256 256C220.5866666666667 256 192 227.4133333333334 192 192S220.5866666666667 128 256 128S320 156.5866666666667 320 192S291.4133333333333 256 256 256M256 405.3333333333333L306.9866666666667 332.3733333333334C291.2 338.1333333333334 273.92 341.3333333333334 256 341.3333333333334C238.08 341.3333333333334 220.8 338.1333333333334 205.0133333333333 332.3733333333334L256 405.3333333333333M71.2533333333333 298.6666666666667L160 306.1333333333334C147.2 295.2533333333334 135.68 282.0266666666667 126.72 266.6666666666667C117.3333333333333 250.88 112 234.6666666666667 109.0133333333333 217.8133333333334L71.2533333333333 298.6666666666667M71.68 85.3333333333334L109.2266666666667 165.76C112.2133333333333 149.3333333333334 117.9733333333333 132.6933333333333 126.9333333333333 117.3333333333334C135.8933333333333 101.5466666666667 147.4133333333333 88.3200000000001 160 77.44L71.68 85.3333333333334M440.5333333333333 298.6666666666667L402.7733333333333 217.8133333333334C399.7866666666667 234.6666666666667 394.0266666666667 251.0933333333334 385.0666666666667 266.6666666666667C376.1066666666667 282.0266666666667 364.8 295.4666666666667 352 306.3466666666667L440.5333333333333 298.6666666666667M440.32 85.3333333333334L351.9999999999999 77.6533333333334C364.5866666666666 88.5333333333334 375.8933333333333 101.9733333333334 384.8533333333333 117.3333333333334C393.8133333333333 132.9066666666667 399.5733333333333 149.3333333333334 402.5599999999999 166.1866666666667L440.32 85.3333333333334M256 -21.3333333333333L204.5866666666667 52.0533333333334C220.3733333333333 46.2933333333334 237.6533333333334 42.6666666666667 256 42.6666666666667C273.4933333333334 42.6666666666667 290.7733333333333 46.2933333333334 306.56 52.0533333333334L256 -21.3333333333333z" /></svg>