<?xml version="1.0" encoding="UTF-8"?><!DOCTYPE svg PUBLIC "-//W3C//DTD SVG 1.1//EN" "http://www.w3.org/Graphics/SVG/1.1/DTD/svg11.dtd"><svg xmlns="http://www.w3.org/2000/svg" xmlns:xlink="http://www.w3.org/1999/xlink" version="1.1" width="512" height="512" viewBox="0 0 512 512">    <path fill="#ffffff" transform="scale(1, -1) translate(0, -448)" glyph-name="guitar-electric" unicode="&#xF2C4;" horiz-adv-x="512" d=" M417.92 384H469.3333333333333V341.3333333333334H435.4133333333333L322.56 228.48L292.48 258.1333333333334L417.92 384M256 256C261.5466666666666 256 266.6666666666667 253.8666666666667 271.1466666666667 249.6L313.8133333333334 206.9333333333333C317.6533333333333 202.6666666666667 320 197.76 320 192L317.8666666666667 183.4666666666667L232.5333333333334 12.8000000000001C228.48 5.3333333333334 221.0133333333333 1.4933333333333 213.3333333333333 1.4933333333333C205.8666666666667 1.4933333333333 198.1866666666667 5.3333333333334 194.3466666666666 12.8000000000001L154.6666666666666 91.7333333333334L75.7333333333333 130.1333333333334C67.84 134.4 64 141.8666666666667 64 149.3333333333334S67.84 164.2666666666667 75.7333333333333 168.5333333333334L246.4 253.8666666666668C249.3866666666667 256.0000000000001 252.5866666666666 256.0000000000001 256 256.0000000000001M199.4666666666666 195.84L184.5333333333333 181.3333333333334L245.3333333333333 120.5333333333334L259.8399999999999 135.4666666666667L199.4666666666666 195.84M169.3866666666666 165.7600000000001L154.24 150.6133333333334L214.6133333333333 90.2400000000001L229.76 105.3866666666668L169.3866666666667 165.7600000000001z" /></svg>