<?xml version="1.0" encoding="UTF-8"?><!DOCTYPE svg PUBLIC "-//W3C//DTD SVG 1.1//EN" "http://www.w3.org/Graphics/SVG/1.1/DTD/svg11.dtd"><svg xmlns="http://www.w3.org/2000/svg" xmlns:xlink="http://www.w3.org/1999/xlink" version="1.1" width="512" height="512" viewBox="0 0 512 512">    <path fill="#ffffff" transform="scale(1, -1) translate(0, -448)" glyph-name="calendar-edit" unicode="&#xF8A6;" horiz-adv-x="512" d=" M405.3333333333333 384H384V426.6666666666667H341.3333333333333V384H170.6666666666667V426.6666666666667H128V384H106.6666666666667C83.2 384 64 364.8 64 341.3333333333334V42.6666666666667C64 19.2 83.2 0 106.6666666666667 0H213.3333333333333V42.6666666666667H106.6666666666667V277.3333333333334H405.3333333333333V256H448V341.3333333333334C448 364.8 428.8 384 405.3333333333333 384M462.9333333333333 163.2000000000001L441.6 141.8666666666667L397.8666666666666 184.5333333333334L419.2 205.8666666666667C423.4666666666666 210.3466666666667 430.7199999999999 210.56 435.6266666666666 205.8666666666667L462.9333333333333 178.5600000000001C466.9866666666667 174.2933333333334 466.9866666666667 167.4666666666667 462.9333333333333 163.2000000000001M256 43.9466666666667L385.4933333333334 173.2266666666666L429.2266666666667 130.56L299.9466666666667 0H256V43.9466666666667z" /></svg>