<?xml version="1.0" encoding="UTF-8"?><!DOCTYPE svg PUBLIC "-//W3C//DTD SVG 1.1//EN" "http://www.w3.org/Graphics/SVG/1.1/DTD/svg11.dtd"><svg xmlns="http://www.w3.org/2000/svg" xmlns:xlink="http://www.w3.org/1999/xlink" version="1.1" width="512" height="512" viewBox="0 0 512 512">    <path fill="#ffffff" transform="scale(1, -1) translate(0, -448)" glyph-name="debian" unicode="&#xF8D9;" horiz-adv-x="512" d=" M394.6666666666667 222.5066666666667L390.4 214.6133333333334C395.9466666666667 231.2533333333334 392.7466666666667 249.3866666666667 393.6 265.1733333333334L392.1066666666667 265.6C390.6133333333333 305.0666666666667 356.48 347.0933333333334 326.1866666666666 361.1733333333334C299.9466666666666 373.3333333333333 259.6266666666666 375.4666666666667 241.0666666666667 366.2933333333334C243.6266666666666 368.64 253.8666666666666 369.4933333333334 250.6666666666667 371.2C221.44 368.4266666666667 228.0533333333333 361.1733333333334 205.6533333333333 355.4133333333334C199.4666666666667 349.44 224 360.1066666666667 210.56 352C198.6133333333333 349.2266666666667 193.0666666666666 354.56 175.36 336.2133333333334C176.8533333333333 333.6533333333333 186.6666666666666 343.68 178.56 333.6533333333333C161.7066666666667 335.5733333333333 125.6533333333333 295.2533333333334 117.9733333333333 282.0266666666667L122.0266666666667 281.1733333333334C115.4133333333333 264.7466666666667 106.6666666666667 254.2933333333334 105.6 244.48C103.8933333333333 220.16 96 176 107.3066666666666 162.3466666666667L106.0266666666667 151.04L110.9333333333333 141.4400000000001L108.3733333333333 141.2266666666667C120.7466666666667 102.1866666666667 121.6 140.3733333333334 138.0266666666667 99.84C135.68 100.6933333333333 133.12 101.5466666666666 129.7066666666667 106.6666666666667C129.28 102.6133333333334 134.8266666666667 91.9466666666667 141.2266666666667 83.6266666666667L138.6666666666667 80.64C142.08 74.0266666666668 145.4933333333334 72.5333333333334 147.84 70.1866666666667C134.4 77.6533333333334 160 46.0800000000001 162.7733333333333 42.0266666666668L164.9066666666667 45.6533333333334C164.48 40.5333333333335 168.5333333333333 33.7066666666668 176.2133333333333 24.1066666666667L182.6133333333334 24.3200000000001C185.3866666666667 19.2000000000002 194.9866666666667 9.8133333333334 200.7466666666667 9.3866666666668L196.9066666666667 4.2666666666668C211.6266666666667 2e-13 203.9466666666667 -1.9199999999998 222.08 -8.3199999999998L218.4533333333333 -1.9199999999998C227.6266666666667 -9.8133333333332 230.4 -16.8533333333331 243.4133333333334 -22.8266666666665C261.5466666666666 -29.2266666666665 263.8933333333333 -26.6666666666665 282.24 -31.9999999999998C266.6666666666667 -31.9999999999998 248.32 -31.9999999999998 235.9466666666667 -27.3066666666665C151.4666666666667 -4.4799999999998 74.6666666666667 94.7200000000001 79.7866666666667 196.6933333333335C78.5066666666667 217.3866666666668 81.92 243.2000000000002 78.5066666666667 248.3200000000002C83.2 264.1066666666668 88.7466666666667 283.3066666666668 100.0533333333333 306.1333333333335C99.2 307.6266666666668 101.9733333333333 301.6533333333335 107.7333333333334 311.2533333333335C111.1466666666667 318.9333333333335 113.92 327.2533333333335 118.4 334.7200000000002L120.5333333333333 335.3600000000002C122.88 348.3733333333335 151.04 368.4266666666669 160 378.4533333333335V374.6133333333335C178.3466666666666 391.8933333333335 211.2 403.4133333333335 229.5466666666667 411.5200000000002C224.64 406.1866666666669 240.4266666666667 412.1600000000002 251.7333333333334 412.8000000000002L241.28 406.8266666666668C254.7200000000001 410.2400000000001 254.08 405.3333333333335 267.9466666666667 407.4666666666668C263.04 406.8266666666668 257.28 405.3333333333335 258.1333333333334 404.0533333333335C273.4933333333334 402.3466666666668 276.0533333333333 408.7466666666668 290.3466666666667 404.0533333333335L289.28 408.3200000000002C309.3333333333333 401.0666666666669 313.3866666666666 402.3466666666668 334.9333333333333 390.8266666666668C342.6133333333333 390.6133333333335 343.4666666666666 395.5200000000002 354.7733333333333 390.8266666666668C356.9066666666667 387.4133333333335 354.3466666666667 386.7733333333335 368.4266666666666 378.2400000000001C369.92 378.8800000000001 365.6533333333333 382.9333333333335 362.6666666666667 386.1333333333335C390.4 370.9866666666668 421.3333333333333 338.7733333333335 430.5066666666667 304.2133333333335C421.76 320.0000000000002 429.6533333333333 295.8933333333335 426.6666666666667 297.1733333333335C430.5066666666667 286.7200000000002 433.7066666666666 275.8400000000002 435.84 264.5333333333336C433.28 273.7066666666668 427.52 296.1066666666669 417.4933333333334 310.4000000000002C416.8533333333333 301.2266666666669 404.6933333333333 316.8000000000002 411.3066666666667 296.3200000000002C416 289.0666666666669 412.3733333333334 303.7866666666669 418.56 290.9866666666669C418.56 284.8000000000002 420.9066666666667 278.6133333333335 422.4 270.7200000000002C420.2666666666667 271.1466666666669 417.7066666666667 279.4666666666669 416 277.3333333333335C418.1333333333334 266.6666666666669 421.76 261.9733333333336 423.04 261.1200000000002C422.3999999999999 259.4133333333336 420.4799999999999 262.8266666666668 420.4799999999999 256.0000000000002C421.3333333333333 240.2133333333335 424.9599999999999 246.8266666666668 426.6666666666666 246.1866666666668C424.7466666666666 238.2933333333335 417.9199999999999 229.3333333333335 421.3333333333333 215.8933333333335L417.0666666666666 227.8400000000002C415.9999999999999 216.5333333333335 419.4133333333333 214.4000000000002 414.2933333333333 200.5333333333335C418.1333333333333 213.3333333333335 417.7066666666666 224.0000000000002 414.08 218.6666666666668C415.9999999999999 201.1733333333335 400.2133333333333 187.7333333333335 401.7066666666666 176.4266666666669L397.2266666666666 182.6133333333335C385.0666666666666 164.9066666666668 397.0133333333332 173.0133333333335 388.6933333333333 160.0000000000001C391.68 164.9066666666668 387.2 161.7066666666668 391.04 167.6800000000001C388.4799999999999 167.4666666666668 379.3066666666666 156.3733333333335 370.9866666666666 149.9733333333335C338.1333333333333 123.7333333333335 298.6666666666666 120.1066666666668 261.1199999999999 134.4000000000001H260.9066666666666C261.1199999999999 135.2533333333335 260.9066666666666 136.3200000000001 258.3466666666666 138.0266666666668C226.1333333333333 162.5600000000001 207.1466666666666 183.4666666666668 213.3333333333333 232.1066666666668C218.6666666666666 235.7333333333335 219.9466666666666 256.0000000000001 231.2533333333333 263.0400000000001C238.08 278.1866666666667 258.56 292.0533333333334 280.5333333333333 292.4800000000001C302.9333333333333 293.7600000000001 321.92 280.5333333333334 331.52 268.1600000000001C314.0266666666667 284.1600000000001 285.8666666666666 289.0666666666668 261.5466666666666 277.3333333333335C237.0133333333333 266.0266666666668 222.2933333333333 238.9333333333334 224 211.8400000000001C225.28 213.3333333333334 226.1333333333334 212.2666666666667 226.56 215.6800000000001C225.92 162.9866666666667 283.3066666666666 124.3733333333334 324.6933333333333 143.7866666666668L325.3333333333333 142.72C341.9733333333333 147.4133333333334 339.8399999999999 151.0400000000001 350.7199999999999 158.72C349.8666666666666 156.8000000000001 343.4666666666666 152.3200000000001 347.3066666666666 152.3200000000001C352.64 153.6 369.28 169.1733333333334 377.5999999999999 176.4266666666667C381.2266666666666 184.5333333333334 375.4666666666666 181.3333333333334 380.7999999999999 191.1466666666667L387.1999999999999 194.3466666666667C390.8266666666666 204.5866666666667 394.6666666666666 210.3466666666667 394.6666666666666 222.5066666666667" /></svg>