<?xml version="1.0" encoding="UTF-8"?><!DOCTYPE svg PUBLIC "-//W3C//DTD SVG 1.1//EN" "http://www.w3.org/Graphics/SVG/1.1/DTD/svg11.dtd"><svg xmlns="http://www.w3.org/2000/svg" xmlns:xlink="http://www.w3.org/1999/xlink" version="1.1" width="512" height="512" viewBox="0 0 512 512">    <path fill="#ffffff" transform="scale(1, -1) translate(0, -448)" glyph-name="headset-dock" unicode="&#xF2CF;" horiz-adv-x="512" d=" M42.6666666666667 64H192V317.2266666666667C155.0933333333333 307.8400000000001 128 274.3466666666667 128 234.6666666666667V213.3333333333334H170.6666666666667V85.3333333333334H128C104.5333333333333 85.3333333333334 85.3333333333333 104.5333333333333 85.3333333333333 128V234.6666666666667C85.3333333333333 305.2800000000001 142.72 362.6666666666667 213.3333333333333 362.6666666666667H234.6666666666667C305.28 362.6666666666667 362.6666666666667 305.2800000000001 362.6666666666667 234.6666666666667V192H384V256H426.6666666666667V192C426.6666666666667 168.5333333333334 407.4666666666667 149.3333333333334 384 149.3333333333334H362.6666666666667V128C362.6666666666667 104.5333333333333 343.4666666666667 85.3333333333334 320 85.3333333333334H277.3333333333333V213.3333333333334H320V234.6666666666667C320 274.3466666666667 292.9066666666667 307.8400000000001 256 317.2266666666667V64H469.3333333333333V21.3333333333334H42.6666666666667V64z" /></svg>