<?xml version="1.0" encoding="UTF-8"?><!DOCTYPE svg PUBLIC "-//W3C//DTD SVG 1.1//EN" "http://www.w3.org/Graphics/SVG/1.1/DTD/svg11.dtd"><svg xmlns="http://www.w3.org/2000/svg" xmlns:xlink="http://www.w3.org/1999/xlink" version="1.1" width="512" height="512" viewBox="0 0 512 512">    <path fill="#ffffff" transform="scale(1, -1) translate(0, -448)" glyph-name="leak-off" unicode="&#xFDB4;" horiz-adv-x="512" d=" M213.3333333333333 384H170.6666666666667C170.6666666666667 376.1066666666667 169.8133333333333 368.64 168.1066666666667 361.3866666666667L202.0266666666667 327.4666666666667C209.28 344.7466666666667 213.3333333333333 363.9466666666667 213.3333333333333 384M64 356.9066666666667L124.5866666666667 296.3200000000001C107.3066666666667 284.3733333333334 86.6133333333333 277.3333333333334 64 277.3333333333334V234.6666666666667C98.3466666666667 234.6666666666667 129.92 246.4000000000001 155.0933333333333 265.8133333333334L185.6 235.3066666666667C152.32 208.2133333333334 110.08 192 64 192V149.3333333333334C121.8133333333333 149.3333333333334 174.72 170.6666666666667 215.68 205.2266666666667L269.0133333333333 151.8933333333334C234.6666666666667 110.72 213.3333333333333 57.8133333333334 213.3333333333333 0H256C256 46.08 272.2133333333333 88.3200000000001 299.3066666666666 121.3866666666667L329.8133333333333 90.8800000000001C310.4 65.92 298.6666666666667 34.3466666666667 298.6666666666667 0H341.3333333333333C341.3333333333333 22.6133333333333 348.3733333333333 43.3066666666667 360.32 60.5866666666667L420.9066666666667 0L448 27.0933333333334L91.0933333333333 384L64 356.9066666666667M298.6666666666667 384H256C256 352 248.1066666666667 321.92 234.6666666666667 295.2533333333334L265.3866666666667 264.1066666666667C286.2933333333333 298.6666666666667 298.6666666666667 340.0533333333334 298.6666666666667 384M425.3866666666667 104.1066666666667C432.64 105.8133333333334 440.1066666666667 106.6666666666667 448 106.6666666666667V149.3333333333334C427.9466666666666 149.3333333333334 408.7466666666667 145.2800000000001 391.2533333333334 138.6666666666668L425.3866666666667 104.1066666666667M328.1066666666667 201.3866666666667L359.2533333333334 170.6666666666667C385.92 184.1066666666667 416 192 448 192V234.6666666666667C404.0533333333334 234.6666666666667 362.6666666666667 222.2933333333334 328.1066666666667 201.3866666666667z" /></svg>