<?xml version="1.0" encoding="UTF-8"?><!DOCTYPE svg PUBLIC "-//W3C//DTD SVG 1.1//EN" "http://www.w3.org/Graphics/SVG/1.1/DTD/svg11.dtd"><svg xmlns="http://www.w3.org/2000/svg" xmlns:xlink="http://www.w3.org/1999/xlink" version="1.1" width="512" height="512" viewBox="0 0 512 512">    <path fill="#ffffff" transform="scale(1, -1) translate(0, -448)" glyph-name="package-variant" unicode="&#xF3D6;" horiz-adv-x="512" d=" M42.6666666666667 214.1866666666667C32 220.16 28.8 233.1733333333334 34.7733333333333 243.4133333333334L66.7733333333333 298.6666666666667C69.12 302.9333333333334 72.7466666666667 305.92 76.8 307.6266666666667L243.84 401.4933333333334C247.2533333333334 404.0533333333334 251.52 405.3333333333334 256 405.3333333333334C260.48 405.3333333333334 264.7466666666667 404.0533333333334 268.16 401.4933333333334L436.6933333333333 306.7733333333333C440.7466666666667 304.64 444.16 301.2266666666667 446.08 296.9600000000001L477.0133333333333 243.2C482.9866666666667 232.96 479.36 219.9466666666667 469.3333333333333 214.1866666666667L448 201.8133333333334V96C448 87.8933333333334 443.52 80.8533333333334 436.6933333333333 77.2266666666667L268.16 -17.4933333333333C264.7466666666666 -20.0533333333333 260.48 -21.3333333333333 256 -21.3333333333333C251.5199999999999 -21.3333333333333 247.2533333333333 -20.0533333333333 243.84 -17.4933333333333L75.3066666666666 77.2266666666667C68.48 80.8533333333334 63.9999999999999 87.8933333333334 63.9999999999999 96V214.1866666666667C57.6 210.56 49.4933333333333 210.3466666666667 42.6666666666666 214.1866666666667M255.9999999999999 359.4666666666667V216.5333333333333L383.1466666666666 288L256 359.4666666666667M106.6666666666667 108.5866666666667L234.6666666666667 36.48V179.6266666666667L106.6666666666667 251.52V108.5866666666667M405.3333333333333 108.5866666666667V177.28L298.6666666666667 115.4133333333334C291.6266666666667 111.5733333333334 283.7333333333334 111.7866666666667 277.3333333333333 115.2000000000001V36.48L405.3333333333333 108.5866666666667M295.4666666666667 162.9866666666667L429.44 240.4266666666667L417.0666666666667 261.9733333333334L283.0933333333333 184.5333333333333L295.4666666666667 162.9866666666667z" /></svg>