<?xml version="1.0" encoding="UTF-8"?><!DOCTYPE svg PUBLIC "-//W3C//DTD SVG 1.1//EN" "http://www.w3.org/Graphics/SVG/1.1/DTD/svg11.dtd"><svg xmlns="http://www.w3.org/2000/svg" xmlns:xlink="http://www.w3.org/1999/xlink" version="1.1" width="512" height="512" viewBox="0 0 512 512">    <path fill="#ffffff" transform="scale(1, -1) translate(0, -448)" glyph-name="sass" unicode="&#xF7EB;" horiz-adv-x="512" d=" M256 405.3333333333333C373.76 405.3333333333333 469.3333333333333 309.76 469.3333333333333 192S373.76 -21.3333333333333 256 -21.3333333333333S42.6666666666667 74.24 42.6666666666667 192S138.24 405.3333333333333 256 405.3333333333333M213.3333333333333 120.96C216.7466666666667 109.44 216.32 98.7733333333333 213.3333333333333 88.96C213.3333333333333 87.8933333333334 212.48 86.8266666666667 212.0533333333333 85.3333333333334C211.6266666666667 85.3333333333334 211.2 83.84 210.56 82.7733333333333C208.2133333333333 77.6533333333334 204.8 72.7466666666667 200.7466666666666 68.48C188.3733333333333 54.8266666666666 170.6666666666666 49.7066666666667 163.6266666666666 53.9733333333333C155.52 58.6666666666666 160 77.8666666666667 174.08 93.0133333333333C189.44 109.2266666666667 211.6266666666666 119.8933333333333 211.6266666666666 119.8933333333333L213.3333333333333 120.96M389.7599999999999 314.0266666666667C380.1599999999999 352 317.2266666666666 364.3733333333334 257.9199999999999 343.2533333333334C222.5066666666666 330.6666666666667 184.1066666666666 311.04 156.5866666666666 285.2266666666667C123.9466666666666 254.5066666666667 118.6133333333333 227.8400000000001 120.7466666666666 216.7466666666667C127.9999999999999 177.4933333333334 182.1866666666666 151.68 204.3733333333333 132.6933333333334V132.48C197.9733333333333 129.28 150.1866666666666 105.1733333333334 138.6666666666666 80.4266666666667C127.1466666666666 54.4 140.7999999999999 35.6266666666667 149.3333333333333 33.0666666666667C177.9199999999999 25.3866666666667 206.7199999999999 39.2533333333333 222.0799999999999 62.5066666666667C237.0133333333333 84.6933333333333 235.9466666666666 113.4933333333334 229.3333333333333 128C238.2933333333333 130.1333333333333 248.7466666666666 131.2000000000001 261.9733333333333 129.7066666666667C299.5199999999999 125.2266666666667 306.7733333333332 101.9733333333334 305.2799999999999 92.16C303.9999999999999 82.3466666666667 296.1066666666666 77.0133333333333 293.5466666666665 75.3066666666667C290.9866666666666 73.8133333333334 290.1333333333332 73.1733333333334 290.3466666666665 71.8933333333334C290.5599999999999 70.1866666666667 291.8399999999999 70.1866666666667 293.9733333333332 70.6133333333334C297.1733333333332 71.2533333333335 313.8133333333332 78.5066666666668 314.4533333333332 96.64C315.3066666666665 119.6800000000001 293.3333333333332 145.28 254.5066666666666 144.6400000000001C238.5066666666666 144.2133333333334 228.4799999999999 142.72 221.2266666666665 139.9466666666667L219.5199999999999 141.8666666666667C195.4133333333332 167.4666666666667 151.0399999999999 185.6 152.9599999999999 220.16C153.5999999999999 232.7466666666667 157.8666666666665 265.6 238.2933333333332 305.7066666666667C303.9999999999999 338.56 356.6933333333332 329.6 365.8666666666666 309.3333333333334C378.8799999999999 280.9600000000001 337.7066666666666 227.84 269.4399999999999 220.16C243.4133333333332 217.1733333333334 229.5466666666666 227.4133333333334 226.1333333333333 231.04C222.5066666666666 234.6666666666667 222.0799999999999 235.3066666666667 220.7999999999999 234.6666666666667C218.4533333333333 233.1733333333334 219.9466666666666 229.76 220.7999999999999 227.6266666666667C222.7199999999999 222.2933333333334 231.2533333333333 213.3333333333334 245.3333333333333 208.2133333333334C257.9199999999999 204.16 288.6399999999999 201.8133333333333 325.5466666666666 216.1066666666667C366.9333333333332 232.1066666666667 399.3599999999999 276.6933333333334 389.7599999999999 314.0266666666667z" /></svg>