<?xml version="1.0" encoding="UTF-8"?><!DOCTYPE svg PUBLIC "-//W3C//DTD SVG 1.1//EN" "http://www.w3.org/Graphics/SVG/1.1/DTD/svg11.dtd"><svg xmlns="http://www.w3.org/2000/svg" xmlns:xlink="http://www.w3.org/1999/xlink" version="1.1" width="512" height="512" viewBox="0 0 512 512">    <path fill="#ffffff" transform="scale(1, -1) translate(0, -448)" glyph-name="table-merge-cells" unicode="&#xF9A5;" horiz-adv-x="512" d=" M106.6666666666667 234.6666666666667H64V362.6666666666667H234.6666666666667V320H106.6666666666667V234.6666666666667M405.3333333333333 64H277.3333333333333V21.3333333333334H448V149.3333333333334H405.3333333333333V64M106.6666666666667 64V149.3333333333334H64V21.3333333333334H234.6666666666667V64H106.6666666666667M448 362.6666666666667H277.3333333333333V320H405.3333333333333V234.6666666666667H448V362.6666666666667M170.6666666666667 170.6666666666667V128L234.6666666666667 192L170.6666666666667 256V213.3333333333334H64V170.6666666666667H170.6666666666667M341.3333333333333 213.3333333333334V256L277.3333333333333 192L341.3333333333333 128V170.6666666666667H448V213.3333333333334H341.3333333333333z" /></svg>