<?xml version="1.0" encoding="UTF-8"?><!DOCTYPE svg PUBLIC "-//W3C//DTD SVG 1.1//EN" "http://www.w3.org/Graphics/SVG/1.1/DTD/svg11.dtd"><svg xmlns="http://www.w3.org/2000/svg" xmlns:xlink="http://www.w3.org/1999/xlink" version="1.1" width="512" height="512" viewBox="0 0 512 512">    <path fill="#ffffff" transform="scale(1, -1) translate(0, -448)" glyph-name="robot-vacuum-variant" unicode="&#xF907;" horiz-adv-x="512" d=" M106.6666666666667 384C83.2 384 64 364.8 64 341.3333333333334V298.6666666666667H106.6666666666667V341.3333333333334H405.3333333333333V298.6666666666667H448V341.3333333333334C448 364.8 428.8 384 405.3333333333333 384H106.6666666666667M170.6666666666667 298.6666666666667V256H341.3333333333333V298.6666666666667H170.6666666666667M64 256V192C64 85.9733333333334 149.9733333333333 0 256 0S448 85.9733333333334 448 192V256H405.3333333333333V192C405.3333333333333 109.44 338.56 42.6666666666667 256 42.6666666666667S106.6666666666667 109.44 106.6666666666667 192V256H64M256 192C226.56 192 202.6666666666667 168.1066666666667 202.6666666666667 138.6666666666667S226.56 85.3333333333334 256 85.3333333333334S309.3333333333333 109.2266666666667 309.3333333333333 138.6666666666667S285.44 192 256 192z" /></svg>