<?xml version="1.0" encoding="UTF-8"?><!DOCTYPE svg PUBLIC "-//W3C//DTD SVG 1.1//EN" "http://www.w3.org/Graphics/SVG/1.1/DTD/svg11.dtd"><svg xmlns="http://www.w3.org/2000/svg" xmlns:xlink="http://www.w3.org/1999/xlink" version="1.1" width="512" height="512" viewBox="0 0 512 512">    <path fill="#ffffff" transform="scale(1, -1) translate(0, -448)" glyph-name="zodiac-taurus" unicode="&#xFA86;" horiz-adv-x="512" d=" M332.5866666666667 256C377.6 282.88 405.3333333333333 331.52 405.3333333333333 384H362.6666666666667C362.6666666666667 325.12 314.88 277.3333333333334 256 277.3333333333334S149.3333333333333 325.12 149.3333333333333 384H106.6666666666667C106.6666666666667 331.52 134.4 282.88 179.4133333333333 256C108.5866666666667 213.3333333333334 85.3333333333333 122.0266666666667 128 51.2C170.0266666666667 -19.6266666666667 261.76 -42.6666666666666 332.5866666666667 0C403.4133333333333 41.8133333333334 426.6666666666667 133.5466666666667 384 204.3733333333333C371.6266666666667 225.4933333333334 353.7066666666666 243.4133333333334 332.5866666666667 256M256 21.3333333333334C197.12 21.3333333333334 149.3333333333333 69.1200000000001 149.3333333333333 128S197.12 234.6666666666667 256 234.6666666666667S362.6666666666667 186.88 362.6666666666667 128S314.88 21.3333333333334 256 21.3333333333334z" /></svg>