<?xml version="1.0" encoding="UTF-8"?><!DOCTYPE svg PUBLIC "-//W3C//DTD SVG 1.1//EN" "http://www.w3.org/Graphics/SVG/1.1/DTD/svg11.dtd"><svg xmlns="http://www.w3.org/2000/svg" xmlns:xlink="http://www.w3.org/1999/xlink" version="1.1" width="512" height="512" viewBox="0 0 512 512">    <path fill="#ffffff" transform="scale(1, -1) translate(0, -448)" glyph-name="television-classic" unicode="&#xF7F3;" horiz-adv-x="512" d=" M174.08 384L144 353.92L199.2533333333333 298.6666666666667H85.3333333333333C61.6533333333333 298.6666666666667 42.6666666666667 279.68 42.6666666666667 256V42.6666666666667C42.6666666666667 18.9866666666667 61.6533333333333 0 85.3333333333333 0H426.6666666666667C450.3466666666667 0 469.3333333333333 18.9866666666667 469.3333333333333 42.6666666666667V256C469.3333333333333 279.68 450.3466666666667 298.6666666666667 426.6666666666667 298.6666666666667H312.7466666666667L368 353.92L337.92 384L256 302.0800000000001L174.08 384M85.3333333333333 256H362.6666666666667V42.6666666666667H85.3333333333333V256M416 256C427.7333333333334 256 437.3333333333333 246.4000000000001 437.3333333333333 234.6666666666667S427.7333333333334 213.3333333333334 416 213.3333333333334S394.6666666666667 222.9333333333333 394.6666666666667 234.6666666666667S404.2666666666667 256 416 256M416 192C427.7333333333334 192 437.3333333333333 182.4 437.3333333333333 170.6666666666667S427.7333333333334 149.3333333333334 416 149.3333333333334S394.6666666666667 158.9333333333333 394.6666666666667 170.6666666666667S404.2666666666667 192 416 192z" /></svg>