<?xml version="1.0" encoding="UTF-8"?><!DOCTYPE svg PUBLIC "-//W3C//DTD SVG 1.1//EN" "http://www.w3.org/Graphics/SVG/1.1/DTD/svg11.dtd"><svg xmlns="http://www.w3.org/2000/svg" xmlns:xlink="http://www.w3.org/1999/xlink" version="1.1" width="512" height="512" viewBox="0 0 512 512">    <path fill="#ffffff" transform="scale(1, -1) translate(0, -448)" glyph-name="car-estate" unicode="&#xF7A7;" horiz-adv-x="512" d=" M64 320H341.3333333333333L405.3333333333333 234.6666666666667H448C471.6799999999999 234.6666666666667 490.6666666666666 215.68 490.6666666666666 192V128H448C448 92.5866666666667 419.4133333333333 64 384 64S320 92.5866666666667 320 128H192C192 92.5866666666667 163.4133333333333 64 128 64S64 92.5866666666667 64 128H21.3333333333333V277.3333333333334C21.3333333333333 301.0133333333333 40.32 320 64 320M53.3333333333333 288V234.6666666666667H224V288H53.3333333333333M256 288V234.6666666666667H365.6533333333333L325.3333333333333 288H256M128 160C110.2933333333333 160 96 145.7066666666667 96 128S110.2933333333333 96 128 96S160 110.2933333333334 160 128S145.7066666666667 160 128 160M384 160C366.2933333333334 160 352 145.7066666666667 352 128S366.2933333333334 96 384 96S416 110.2933333333334 416 128S401.7066666666666 160 384 160z" /></svg>