<?xml version="1.0" encoding="UTF-8"?><!DOCTYPE svg PUBLIC "-//W3C//DTD SVG 1.1//EN" "http://www.w3.org/Graphics/SVG/1.1/DTD/svg11.dtd"><svg xmlns="http://www.w3.org/2000/svg" xmlns:xlink="http://www.w3.org/1999/xlink" version="1.1" width="512" height="512" viewBox="0 0 512 512">    <path fill="#ffffff" transform="scale(1, -1) translate(0, -448)" glyph-name="car-multiple" unicode="&#xFB4A;" horiz-adv-x="512" d=" M170.6666666666667 213.3333333333334L202.6666666666667 309.3333333333334H394.6666666666667L426.6666666666667 213.3333333333334M394.6666666666667 106.6666666666667C376.9600000000001 106.6666666666667 362.6666666666667 120.96 362.6666666666667 138.6666666666667S376.9600000000001 170.6666666666667 394.6666666666667 170.6666666666667S426.6666666666667 156.3733333333333 426.6666666666667 138.6666666666667S412.3733333333333 106.6666666666667 394.6666666666667 106.6666666666667M202.6666666666667 106.6666666666667C184.96 106.6666666666667 170.6666666666667 120.96 170.6666666666667 138.6666666666667S184.96 170.6666666666667 202.6666666666667 170.6666666666667S234.6666666666667 156.3733333333333 234.6666666666667 138.6666666666667S220.3733333333333 106.6666666666667 202.6666666666667 106.6666666666667M424.9600000000001 320C420.48 332.8 408.32 341.3333333333334 394.6666666666667 341.3333333333334H202.6666666666667C189.0133333333333 341.3333333333334 176.8533333333333 332.8 172.3733333333333 320L128 192V21.3333333333334C128 9.6 137.6 0 149.3333333333333 0H170.6666666666667C182.4 0 192 9.6 192 21.3333333333334V42.6666666666667H405.3333333333333V21.3333333333334C405.3333333333333 9.6 414.9333333333333 0 426.6666666666667 0H448C459.7333333333333 0 469.3333333333333 9.6 469.3333333333333 21.3333333333334V192L424.9600000000001 320M318.2933333333334 384C313.8133333333334 396.8 301.6533333333334 405.3333333333333 288 405.3333333333333H96C82.3466666666667 405.3333333333333 70.1866666666667 396.8 65.7066666666667 384L21.3333333333333 256V85.3333333333334C21.3333333333333 73.6 30.9333333333333 64 42.6666666666667 64H64C75.7333333333333 64 85.3333333333333 73.6 85.3333333333333 85.3333333333334V172.5866666666667C68.6933333333333 178.56 60.16 196.9066666666667 66.1333333333333 213.3333333333334C70.8266666666667 226.1333333333334 82.56 234.6666666666667 96 234.6666666666667H97.4933333333333L112.4266666666667 277.3333333333334H64L96 373.3333333333334H321.92L318.2933333333333 384z" /></svg>