<?xml version="1.0" encoding="UTF-8"?><!DOCTYPE svg PUBLIC "-//W3C//DTD SVG 1.1//EN" "http://www.w3.org/Graphics/SVG/1.1/DTD/svg11.dtd"><svg xmlns="http://www.w3.org/2000/svg" xmlns:xlink="http://www.w3.org/1999/xlink" version="1.1" width="512" height="512" viewBox="0 0 512 512">    <path fill="#ffffff" transform="scale(1, -1) translate(0, -448)" glyph-name="marker-cancel" unicode="&#xFDB5;" horiz-adv-x="512" d=" M373.3333333333333 170.6666666666667C426.6666666666667 170.6666666666667 469.3333333333333 128 469.3333333333333 74.6666666666667S426.6666666666667 -21.3333333333333 373.3333333333333 -21.3333333333333S277.3333333333333 21.3333333333334 277.3333333333333 74.6666666666667S320 170.6666666666667 373.3333333333333 170.6666666666667M373.3333333333333 138.6666666666667C361.3866666666667 138.6666666666667 350.2933333333334 135.4666666666667 341.3333333333333 129.7066666666667L428.3733333333333 42.6666666666667C434.1333333333333 51.6266666666667 437.3333333333333 62.72 437.3333333333333 74.6666666666667C437.3333333333333 110.08 408.7466666666667 138.6666666666667 373.3333333333333 138.6666666666667M309.3333333333333 74.6666666666667C309.3333333333333 39.2533333333333 337.92 10.6666666666667 373.3333333333333 10.6666666666667C385.28 10.6666666666667 396.3733333333333 13.8666666666667 405.3333333333333 19.6266666666667L318.2933333333333 106.6666666666667C312.5333333333333 97.7066666666667 309.3333333333333 86.6133333333334 309.3333333333333 74.6666666666667M394.6666666666667 423.4666666666667C405.3333333333333 423.4666666666667 416 419.4133333333334 424.32 411.0933333333334L484.9066666666666 350.7200000000001C501.3333333333333 333.8666666666667 501.3333333333333 306.9866666666667 484.9066666666666 290.3466666666667L404.2666666666667 209.9200000000001C394.6666666666667 212.0533333333334 384 213.3333333333334 373.3333333333333 213.3333333333334C355.6266666666667 213.3333333333334 338.7733333333333 209.9200000000001 323.2 203.9466666666667L240.2133333333333 286.9333333333334L364.16 411.0933333333334C372.48 419.4133333333334 383.36 423.4666666666668 394.6666666666667 423.4666666666668M219.7333333333334 266.6666666666667L296.32 189.8666666666667C259.2 165.12 234.6666666666667 122.6666666666667 234.6666666666667 74.6666666666667C234.6666666666667 64 235.9466666666667 53.3333333333334 238.08 43.7333333333334L213.3333333333333 18.7733333333333C196.6933333333333 2.3466666666667 170.0266666666667 2.1333333333333 153.3866666666667 18.3466666666667L135.04 0H14.2933333333333L93.0133333333333 78.72C75.9466666666667 96 75.9466666666667 122.8800000000001 92.5866666666667 139.5200000000001L219.7333333333334 266.6666666666667z" /></svg>