<?xml version="1.0" encoding="UTF-8"?><!DOCTYPE svg PUBLIC "-//W3C//DTD SVG 1.1//EN" "http://www.w3.org/Graphics/SVG/1.1/DTD/svg11.dtd"><svg xmlns="http://www.w3.org/2000/svg" xmlns:xlink="http://www.w3.org/1999/xlink" version="1.1" width="512" height="512" viewBox="0 0 512 512">    <path fill="#ffffff" transform="scale(1, -1) translate(0, -448)" glyph-name="vector-circle-variant" unicode="&#xF557;" horiz-adv-x="512" d=" M469.3333333333333 256H426.0266666666667C398.9333333333333 332.5866666666667 326.6133333333333 384 245.3333333333333 384C139.3066666666666 384 53.3333333333333 298.0266666666667 53.3333333333333 192C53.3333333333333 85.3333333333334 139.3066666666666 0 245.3333333333333 0C326.6133333333333 0 398.9333333333333 51.2 426.6666666666667 128H469.3333333333333M426.6666666666667 213.3333333333334V170.6666666666667H384V213.3333333333334M380.16 128C355.4133333333333 75.9466666666667 302.9333333333333 42.6666666666667 245.3333333333333 42.6666666666667C162.9866666666667 42.6666666666667 96 109.44 96 192C96 274.3466666666667 162.9866666666667 341.3333333333334 245.3333333333333 341.3333333333334C302.9333333333333 341.3333333333334 355.4133333333333 307.8400000000001 379.9466666666666 256H341.3333333333333V128" /></svg>