<?xml version="1.0" encoding="UTF-8"?><!DOCTYPE svg PUBLIC "-//W3C//DTD SVG 1.1//EN" "http://www.w3.org/Graphics/SVG/1.1/DTD/svg11.dtd"><svg xmlns="http://www.w3.org/2000/svg" xmlns:xlink="http://www.w3.org/1999/xlink" version="1.1" width="512" height="512" viewBox="0 0 512 512">    <path fill="#ffffff" transform="scale(1, -1) translate(0, -448)" glyph-name="steering" unicode="&#xF4D4;" horiz-adv-x="512" d=" M277.3333333333333 23.04C315.7333333333334 27.7333333333333 348.8 43.7333333333333 376.5333333333333 71.4666666666666C404.2666666666667 99.2 420.2666666666667 132.2666666666667 424.9599999999999 170.6666666666666H360.9599999999999C356.2666666666667 149.3333333333333 346.4533333333333 131.4133333333333 331.52 116.48C316.5866666666667 101.5466666666666 298.6666666666667 91.7333333333333 277.3333333333333 87.04V23.04M213.3333333333333 277.3333333333334H298.6666666666667L362.6666666666667 213.3333333333334H424.9600000000001C419.6266666666667 254.9333333333334 400.8533333333334 290.56 368.4266666666668 320C336.2133333333333 348.5866666666667 298.6666666666667 362.6666666666667 256 362.6666666666667C213.3333333333333 362.6666666666667 175.7866666666667 348.5866666666667 143.5733333333333 320C111.1466666666667 290.56 92.3733333333333 254.9333333333334 87.04 213.3333333333334H149.3333333333333L213.3333333333333 277.3333333333334M234.6666666666667 23.04V87.04C213.3333333333333 91.7333333333333 195.4133333333333 101.5466666666666 180.48 116.48C165.5466666666667 131.4133333333333 155.7333333333334 149.3333333333333 151.04 170.6666666666666H87.04C91.7333333333334 132.9066666666667 107.7333333333334 100.2666666666666 135.4666666666667 72.5333333333333C163.2 44.8 196.2666666666667 28.3733333333333 234.6666666666667 23.04M256 405.3333333333333C314.6666666666667 405.3333333333333 364.8 384 406.4 342.4C448 300.8 469.3333333333333 250.6666666666667 469.3333333333333 192S448 83.2 406.4 41.6C364.8 0 314.6666666666667 -21.3333333333333 256 -21.3333333333333S147.2 0 105.6 41.6C64 83.2 42.6666666666667 133.3333333333334 42.6666666666667 192S64 300.8 105.6 342.4C147.2 384 197.3333333333333 405.3333333333333 256 405.3333333333333z" /></svg>