<?xml version="1.0" encoding="UTF-8"?><!DOCTYPE svg PUBLIC "-//W3C//DTD SVG 1.1//EN" "http://www.w3.org/Graphics/SVG/1.1/DTD/svg11.dtd"><svg xmlns="http://www.w3.org/2000/svg" xmlns:xlink="http://www.w3.org/1999/xlink" version="1.1" width="512" height="512" viewBox="0 0 512 512">    <path fill="#ffffff" transform="scale(1, -1) translate(0, -448)" glyph-name="pill" unicode="&#xF402;" horiz-adv-x="512" d=" M90.0266666666667 207.1466666666667L240.8533333333333 357.9733333333334C290.9866666666666 407.8933333333334 371.84 407.8933333333334 421.9733333333334 357.9733333333334C471.8933333333333 308.0533333333334 471.8933333333333 226.9866666666667 421.9733333333334 176.8533333333334L271.1466666666667 26.0266666666666C221.0133333333334 -23.8933333333333 139.9466666666667 -23.8933333333333 90.0266666666667 26.0266666666666C40.1066666666667 76.16 40.1066666666667 157.0133333333333 90.0266666666667 207.1466666666667M120.32 176.8533333333334C97.92 154.6666666666667 90.4533333333333 122.88 98.1333333333333 94.5066666666667L225.92 222.08L316.3733333333334 131.6266666666667L391.68 207.1466666666667C425.1733333333333 240.4266666666667 425.1733333333333 294.4000000000001 391.68 327.6800000000001C358.4 361.1733333333334 304.4266666666666 361.1733333333334 271.1466666666667 327.6800000000001L120.32 176.8533333333334z" /></svg>