<?xml version="1.0" encoding="UTF-8"?><!DOCTYPE svg PUBLIC "-//W3C//DTD SVG 1.1//EN" "http://www.w3.org/Graphics/SVG/1.1/DTD/svg11.dtd"><svg xmlns="http://www.w3.org/2000/svg" xmlns:xlink="http://www.w3.org/1999/xlink" version="1.1" width="512" height="512" viewBox="0 0 512 512">    <path fill="#ffffff" transform="scale(1, -1) translate(0, -448)" glyph-name="billiards-rack" unicode="&#xFB3E;" horiz-adv-x="512" d=" M433.28 97.28L310.1866666666666 309.9733333333334C292.6933333333333 340.48 253.6533333333333 350.9333333333334 223.1466666666667 333.2266666666667C213.3333333333333 327.68 205.44 320 199.68 309.9733333333334L76.8 97.28C59.0933333333333 66.7733333333333 69.5466666666667 27.9466666666667 100.0533333333333 10.6666666666667C109.6533333333333 4.6933333333333 120.5333333333333 1.7066666666666 131.84 1.7066666666666H378.24C413.44 1.92 442.0266666666667 30.5066666666667 441.8133333333334 65.7066666666667C441.8133333333334 76.8 438.8266666666667 87.68 433.2800000000001 97.28M114.5600000000001 76.16L237.0133333333334 288.6400000000001C242.7733333333334 298.6666666666667 256.0000000000001 302.5066666666667 265.8133333333334 296.5333333333334C269.2266666666667 294.8266666666667 272 292.0533333333334 273.9200000000001 288.6400000000001L396.3733333333335 76.16C402.1333333333335 65.92 398.7200000000001 53.3333333333334 388.4800000000001 47.1466666666667C385.2800000000001 45.2266666666667 381.6533333333334 44.16 378.0266666666668 44.16H132.48C120.7466666666667 44.3733333333334 111.1466666666667 53.9733333333334 111.36 65.7066666666667C111.36 69.3333333333334 112.2133333333333 72.96 114.1333333333333 76.16H114.56M255.36 161.0666666666667C231.8933333333333 161.0666666666667 213.3333333333333 180.0533333333334 213.3333333333333 203.5200000000001C213.3333333333333 227.2 231.8933333333333 246.1866666666667 255.36 246.1866666666667S298.0266666666667 226.9866666666667 298.0266666666667 203.5200000000001S278.8266666666666 161.0666666666667 254.9333333333333 161.0666666666667H255.36M201.8133333333333 65.4933333333333C178.3466666666666 65.4933333333333 159.36 84.48 159.36 107.9466666666667S178.3466666666666 150.4 201.8133333333333 150.4S244.48 131.4133333333334 244.48 107.9466666666667S225.28 65.4933333333333 201.8133333333333 65.4933333333333M308.0533333333333 65.4933333333333C284.5866666666667 65.4933333333333 265.6 84.48 265.6 107.9466666666667S284.5866666666667 150.4 308.0533333333333 150.4S350.7199999999999 131.4133333333334 350.7199999999999 107.9466666666667S331.5199999999999 65.4933333333333 308.0533333333333 65.4933333333333z" /></svg>