<?xml version="1.0" encoding="UTF-8"?><!DOCTYPE svg PUBLIC "-//W3C//DTD SVG 1.1//EN" "http://www.w3.org/Graphics/SVG/1.1/DTD/svg11.dtd"><svg xmlns="http://www.w3.org/2000/svg" xmlns:xlink="http://www.w3.org/1999/xlink" version="1.1" width="512" height="512" viewBox="0 0 512 512">    <path fill="#ffffff" transform="scale(1, -1) translate(0, -448)" glyph-name="chip" unicode="&#xF61A;" horiz-adv-x="512" d=" M128 362.6666666666667H384V341.3333333333334H448V298.6666666666667H384V256H448V213.3333333333334H384V170.6666666666667H448V128H384V85.3333333333334H448V42.6666666666667H384V21.3333333333334H128V42.6666666666667H64V85.3333333333334H128V128H64V170.6666666666667H128V213.3333333333334H64V256H128V298.6666666666667H64V341.3333333333334H128V362.6666666666667M234.6666666666667 128V64H256V128H234.6666666666667M277.3333333333333 128V64H298.6666666666667V128H277.3333333333333M320 128V64H341.3333333333333V128H320z" /></svg>