<?xml version="1.0" encoding="UTF-8"?><!DOCTYPE svg PUBLIC "-//W3C//DTD SVG 1.1//EN" "http://www.w3.org/Graphics/SVG/1.1/DTD/svg11.dtd"><svg xmlns="http://www.w3.org/2000/svg" xmlns:xlink="http://www.w3.org/1999/xlink" version="1.1" width="512" height="512" viewBox="0 0 512 512">    <path fill="#ffffff" transform="scale(1, -1) translate(0, -448)" glyph-name="seat-legroom-reduced" unicode="&#xF480;" horiz-adv-x="512" d=" M426.0266666666667 38.4C429.8666666666666 17.92 414.2933333333333 0 394.6666666666667 0H298.6666666666667V64L320 149.3333333333334H192C156.5866666666667 149.3333333333334 128 177.92 128 213.3333333333334V384H256V256H362.6666666666667C386.1333333333334 256 405.3333333333333 236.8 405.3333333333333 213.3333333333334L362.6666666666667 64H393.3866666666667C408.9600000000001 64 423.04 53.3333333333334 426.0266666666667 38.4M106.6666666666667 192V384H64V192C64 133.12 111.7866666666667 85.3333333333334 170.6666666666667 85.3333333333334H256V128H170.6666666666667C135.2533333333333 128 106.6666666666667 156.5866666666667 106.6666666666667 192z" /></svg>