<?xml version="1.0" encoding="UTF-8"?><!DOCTYPE svg PUBLIC "-//W3C//DTD SVG 1.1//EN" "http://www.w3.org/Graphics/SVG/1.1/DTD/svg11.dtd"><svg xmlns="http://www.w3.org/2000/svg" xmlns:xlink="http://www.w3.org/1999/xlink" version="1.1" width="512" height="512" viewBox="0 0 512 512">    <path fill="#ffffff" transform="scale(1, -1) translate(0, -448)" glyph-name="signature-freehand" unicode="&#xFE5C;" horiz-adv-x="512" d=" M469.3333333333333 -21.3333333333333H42.6666666666667V21.3333333333334H469.3333333333333V-21.3333333333333M132.2666666666667 78.9333333333333L117.3333333333333 64L87.4666666666667 93.8666666666667L57.6 64L42.6666666666667 78.9333333333333L72.5333333333333 108.8L42.6666666666667 138.6666666666667L57.6 153.6L87.4666666666667 123.7333333333334L117.3333333333333 153.6L132.2666666666667 138.6666666666667L102.4 108.8L132.2666666666667 78.9333333333333M346.0266666666667 140.16C346.0266666666667 152.5333333333334 330.6666666666667 166.4 299.9466666666666 182.1866666666667C260.9066666666667 201.8133333333334 234.6666666666667 217.8133333333334 221.0133333333333 229.5466666666667C207.1466666666667 241.4933333333334 200.32 254.7200000000001 200.32 269.4400000000001C200.32 307.4133333333334 219.7333333333333 338.7733333333335 258.56 363.7333333333334C297.3866666666667 388.6933333333334 329.1733333333333 401.2800000000001 353.4933333333334 401.2800000000001C369.28 401.2800000000001 380.8 398.5066666666667 387.84 392.9600000000001C394.6666666666667 387.6266666666667 398.5066666666667 378.2400000000001 398.5066666666667 364.8000000000001C398.5066666666667 358.8266666666667 395.9466666666666 353.7066666666667 390.6133333333333 349.2266666666668C385.4933333333334 344.9600000000001 381.2266666666666 342.8266666666667 378.4533333333333 342.8266666666667C376.1066666666667 342.8266666666667 371.84 344.9600000000001 365.44 349.0133333333335L353.0666666666667 354.5600000000001C343.04 354.5600000000001 322.9866666666667 347.5200000000001 292.48 333.2266666666668C262.1866666666667 319.1466666666668 247.04 303.1466666666668 247.04 285.2266666666668C247.04 274.3466666666668 252.1600000000001 264.5333333333334 262.8266666666667 256.0000000000001C273.4933333333334 247.0400000000001 292.48 236.1600000000001 320 223.3600000000001C341.9733333333334 213.3333333333334 359.6800000000001 202.6666666666668 373.3333333333333 190.5066666666668C386.1333333333334 178.9866666666668 392.7466666666667 165.3333333333334 392.7466666666667 149.3333333333334C392.7466666666667 120.7466666666668 372.6933333333333 97.9200000000001 332.3733333333334 81.7066666666668C292.2666666666667 65.2800000000001 253.8666666666667 57.1733333333335 217.3866666666667 57.1733333333335C186.6666666666667 57.1733333333335 170.6666666666667 67.6266666666668 170.6666666666667 88.3200000000002C170.6666666666667 96.0000000000002 174.72 100.9066666666669 181.3333333333334 104.3200000000002C188.3733333333334 107.7333333333335 195.4133333333334 109.4400000000002 202.6666666666667 109.4400000000002L218.6666666666667 106.6666666666669L234.0266666666667 103.8933333333336C254.9333333333334 103.8933333333336 277.3333333333334 107.3066666666668 301.4400000000001 114.3466666666669C325.5466666666667 121.1733333333335 340.48 129.9200000000002 346.0266666666667 140.1600000000002z" /></svg>