<?xml version="1.0" encoding="UTF-8"?><!DOCTYPE svg PUBLIC "-//W3C//DTD SVG 1.1//EN" "http://www.w3.org/Graphics/SVG/1.1/DTD/svg11.dtd"><svg xmlns="http://www.w3.org/2000/svg" xmlns:xlink="http://www.w3.org/1999/xlink" version="1.1" width="512" height="512" viewBox="0 0 512 512">    <path fill="#ffffff" transform="scale(1, -1) translate(0, -448)" glyph-name="format-font" unicode="&#xF6D5;" horiz-adv-x="512" d=" M362.6666666666667 277.3333333333334H426.6666666666667V21.3333333333334H448V0H362.6666666666667V21.3333333333334H384V85.3333333333334H298.6666666666667L266.6666666666667 21.3333333333334H298.6666666666667V0H213.3333333333333V21.3333333333334H234.6666666666667L362.6666666666667 277.3333333333334M384 256L309.3333333333333 106.6666666666667H384V256M106.6666666666667 384H213.3333333333333C237.0133333333333 384 256 365.0133333333333 256 341.3333333333334V106.6666666666667H192V213.3333333333334H128V106.6666666666667H64V341.3333333333334C64 365.0133333333333 82.9866666666667 384 106.6666666666667 384M128 341.3333333333334V256H192V341.3333333333334H128z" /></svg>