<?xml version="1.0" encoding="UTF-8"?><!DOCTYPE svg PUBLIC "-//W3C//DTD SVG 1.1//EN" "http://www.w3.org/Graphics/SVG/1.1/DTD/svg11.dtd"><svg xmlns="http://www.w3.org/2000/svg" xmlns:xlink="http://www.w3.org/1999/xlink" version="1.1" width="512" height="512" viewBox="0 0 512 512">    <path fill="#ffffff" transform="scale(1, -1) translate(0, -448)" glyph-name="file-restore" unicode="&#xF670;" horiz-adv-x="512" d=" M298.6666666666667 405.3333333333333H128C104.5333333333333 405.3333333333333 85.3333333333333 386.1333333333334 85.3333333333333 362.6666666666667V21.3333333333334C85.3333333333333 -2.1333333333333 104.5333333333333 -21.3333333333333 128 -21.3333333333333H384C407.4666666666667 -21.3333333333333 426.6666666666667 -2.1333333333333 426.6666666666667 21.3333333333334V277.3333333333334L298.6666666666667 405.3333333333333M256 64C212.2666666666667 64 174.72 90.4533333333333 158.2933333333333 128H194.7733333333333C208.2133333333333 108.8 230.6133333333333 96 256 96C297.1733333333333 96 330.6666666666667 129.4933333333334 330.6666666666667 170.6666666666667S297.1733333333333 245.3333333333334 256 245.3333333333334C227.2 245.3333333333334 202.6666666666667 228.6933333333334 189.8666666666667 204.8L224 170.6666666666667H138.6666666666667V256L166.4 228.2666666666667C185.3866666666667 257.7066666666667 218.24 277.3333333333334 256 277.3333333333334C314.88 277.3333333333334 362.6666666666667 229.5466666666667 362.6666666666667 170.6666666666667S314.88 64 256 64z" /></svg>