<?xml version="1.0" encoding="UTF-8"?><!DOCTYPE svg PUBLIC "-//W3C//DTD SVG 1.1//EN" "http://www.w3.org/Graphics/SVG/1.1/DTD/svg11.dtd"><svg xmlns="http://www.w3.org/2000/svg" xmlns:xlink="http://www.w3.org/1999/xlink" version="1.1" width="512" height="512" viewBox="0 0 512 512">    <path fill="#ffffff" transform="scale(1, -1) translate(0, -448)" glyph-name="turnstile-outline" unicode="&#xFCB2;" horiz-adv-x="512" d=" M286.08 225.92C278.1866666666667 217.8133333333333 267.3066666666666 213.3333333333334 256 213.3333333333334C232.5333333333334 213.3333333333334 213.3333333333333 232.5333333333334 213.3333333333333 256C213.3333333333333 267.3066666666667 217.8133333333333 278.1866666666667 225.92 286.0800000000001L195.6266666666667 316.3733333333334C179.6266666666667 300.3733333333334 170.6666666666667 278.6133333333334 170.6666666666667 256H42.6666666666667V213.3333333333334H182.4C189.8666666666667 200.5333333333334 200.5333333333333 189.8666666666667 213.3333333333333 182.4V42.6666666666667H256V170.6666666666667C278.6133333333334 170.6666666666667 300.3733333333334 179.6266666666667 316.3733333333334 195.6266666666667L286.08 225.92M213.3333333333333 405.3333333333333V341.3333333333334L341.3333333333333 213.3333333333334V-21.3333333333333H469.3333333333333V405.3333333333333H213.3333333333333M426.6666666666667 21.3333333333334H384V231.04L256 359.04V362.6666666666667H426.6666666666667V21.3333333333334z" /></svg>