<?xml version="1.0" encoding="UTF-8"?><!DOCTYPE svg PUBLIC "-//W3C//DTD SVG 1.1//EN" "http://www.w3.org/Graphics/SVG/1.1/DTD/svg11.dtd"><svg xmlns="http://www.w3.org/2000/svg" xmlns:xlink="http://www.w3.org/1999/xlink" version="1.1" width="512" height="512" viewBox="0 0 512 512">    <path fill="#ffffff" transform="scale(1, -1) translate(0, -448)" glyph-name="music-box" unicode="&#xF384;" horiz-adv-x="512" d=" M341.3333333333333 256H277.3333333333333V138.6666666666667C277.3333333333333 109.2266666666667 253.44 85.3333333333334 224 85.3333333333334S170.6666666666667 109.2266666666667 170.6666666666667 138.6666666666667S194.56 192 224 192C236.16 192 247.04 187.9466666666667 256 181.3333333333334V298.6666666666667H341.3333333333333M405.3333333333333 384H106.6666666666667C83.2 384 64 364.8 64 341.3333333333334V42.6666666666667C64 19.2 83.2 0 106.6666666666667 0H405.3333333333333C428.8 0 448 19.2 448 42.6666666666667V341.3333333333334C448 364.8 428.8 384 405.3333333333333 384z" /></svg>