<?xml version="1.0" encoding="UTF-8"?><!DOCTYPE svg PUBLIC "-//W3C//DTD SVG 1.1//EN" "http://www.w3.org/Graphics/SVG/1.1/DTD/svg11.dtd"><svg xmlns="http://www.w3.org/2000/svg" xmlns:xlink="http://www.w3.org/1999/xlink" version="1.1" width="512" height="512" viewBox="0 0 512 512">    <path fill="#ffffff" transform="scale(1, -1) translate(0, -448)" glyph-name="format-columns" unicode="&#xF8DE;" horiz-adv-x="512" d=" M64 384H234.6666666666667V341.3333333333334H64V384M277.3333333333333 384H448V341.3333333333334H277.3333333333333V384M64 298.6666666666667H234.6666666666667V256H64V298.6666666666667M277.3333333333333 298.6666666666667H448V256H277.3333333333333V298.6666666666667M64 213.3333333333334H234.6666666666667V170.6666666666667H64V213.3333333333334M277.3333333333333 213.3333333333334H448V170.6666666666667H277.3333333333333V213.3333333333334M64 128H234.6666666666667V85.3333333333334H64V128M277.3333333333333 128H448V85.3333333333334H277.3333333333333V128M64 42.6666666666667H234.6666666666667V0H64V42.6666666666667M277.3333333333333 42.6666666666667H448V0H277.3333333333333V42.6666666666667z" /></svg>