<?xml version="1.0" encoding="UTF-8"?><!DOCTYPE svg PUBLIC "-//W3C//DTD SVG 1.1//EN" "http://www.w3.org/Graphics/SVG/1.1/DTD/svg11.dtd"><svg xmlns="http://www.w3.org/2000/svg" xmlns:xlink="http://www.w3.org/1999/xlink" version="1.1" width="512" height="512" viewBox="0 0 512 512">    <path fill="#ffffff" transform="scale(1, -1) translate(0, -448)" glyph-name="home-automation" unicode="&#xF7D0;" horiz-adv-x="512" d=" M256 384L42.6666666666667 192H106.6666666666667V21.3333333333334H405.3333333333333V192H469.3333333333333L256 384M256 266.6666666666667C305.92 266.6666666666667 351.1466666666667 246.8266666666667 384 214.6133333333334L358.4 189.4400000000001C332.3733333333334 215.2533333333333 296.1066666666667 231.04 256 231.04S179.6266666666667 215.2533333333333 153.6 189.4400000000001L128 214.6133333333334C160.8533333333333 246.8266666666667 206.08 266.6666666666667 256 266.6666666666667M256 195.6266666666667C285.8666666666667 195.6266666666667 312.96 183.68 332.8 164.2666666666667L307.2 139.3066666666667C294.1866666666667 152.1066666666667 276.0533333333334 160 256 160S217.8133333333333 152.1066666666667 204.8 139.3066666666667L179.2 164.2666666666667C199.04 183.68 226.1333333333334 195.6266666666667 256 195.6266666666667M256 124.3733333333333C276.0533333333333 124.3733333333333 292.2666666666667 108.5866666666667 292.2666666666667 88.96C292.2666666666667 69.3333333333334 276.0533333333333 53.3333333333334 256 53.3333333333334S219.7333333333334 69.3333333333334 219.7333333333334 88.96C219.7333333333334 108.5866666666667 235.9466666666667 124.3733333333334 256 124.3733333333334z" /></svg>