<?xml version="1.0" encoding="UTF-8"?><!DOCTYPE svg PUBLIC "-//W3C//DTD SVG 1.1//EN" "http://www.w3.org/Graphics/SVG/1.1/DTD/svg11.dtd"><svg xmlns="http://www.w3.org/2000/svg" xmlns:xlink="http://www.w3.org/1999/xlink" version="1.1" width="512" height="512" viewBox="0 0 512 512">    <path fill="#ffffff" transform="scale(1, -1) translate(0, -448)" glyph-name="wallet-outline" unicode="&#xFBB9;" horiz-adv-x="512" d=" M106.6666666666667 384C82.9866666666667 384 64 364.8 64 341.3333333333334V42.6666666666667C64 19.2 83.2 0 106.6666666666667 0H405.3333333333333C428.8 0 448 19.2 448 42.6666666666667V91.3066666666667C460.5866666666666 98.7733333333334 469.3333333333333 112.2133333333334 469.3333333333333 128.0000000000001V256C469.3333333333333 271.7866666666667 460.5866666666666 285.2266666666667 448 292.6933333333334V341.3333333333334C448 364.8 428.8 384 405.3333333333333 384H106.6666666666667M106.6666666666667 341.3333333333334H405.3333333333333V298.6666666666667H277.3333333333333C253.8666666666667 298.6666666666667 234.6666666666667 279.4666666666667 234.6666666666667 256V128C234.6666666666667 104.5333333333333 253.8666666666667 85.3333333333334 277.3333333333333 85.3333333333334H405.3333333333333V42.6666666666667H106.6666666666667V341.3333333333334M277.3333333333333 256H426.6666666666667V128H277.3333333333333V256M341.3333333333333 224C323.6266666666667 224 309.3333333333333 209.7066666666667 309.3333333333333 192S323.6266666666667 160 341.3333333333333 160S373.3333333333333 174.2933333333334 373.3333333333333 192S359.04 224 341.3333333333333 224z" /></svg>