<?xml version="1.0" encoding="UTF-8"?><!DOCTYPE svg PUBLIC "-//W3C//DTD SVG 1.1//EN" "http://www.w3.org/Graphics/SVG/1.1/DTD/svg11.dtd"><svg xmlns="http://www.w3.org/2000/svg" xmlns:xlink="http://www.w3.org/1999/xlink" version="1.1" width="512" height="512" viewBox="0 0 512 512">    <path fill="#ffffff" transform="scale(1, -1) translate(0, -448)" glyph-name="lava-lamp" unicode="&#xF7D4;" horiz-adv-x="512" d=" M213.3333333333333 384L170.6666666666667 106.6666666666667H341.3333333333333L298.6666666666667 384H213.3333333333333M245.3333333333333 325.3333333333334C254.08 325.3333333333334 261.3333333333333 318.0800000000001 261.3333333333333 309.3333333333334S254.08 293.3333333333334 245.3333333333333 293.3333333333334S229.3333333333333 300.5866666666667 229.3333333333333 309.3333333333334S236.5866666666667 325.3333333333334 245.3333333333333 325.3333333333334M266.6666666666667 266.6666666666667C278.4 266.6666666666667 288 257.0666666666667 288 245.3333333333334S278.4 224 266.6666666666667 224S245.3333333333333 233.6 245.3333333333333 245.3333333333334S254.9333333333333 266.6666666666667 266.6666666666667 266.6666666666667M245.3333333333333 192C263.04 192 277.3333333333333 177.7066666666667 277.3333333333333 160S263.04 128 245.3333333333333 128S213.3333333333333 142.2933333333334 213.3333333333333 160S227.6266666666667 192 245.3333333333333 192M170.6666666666667 85.3333333333334L213.3333333333333 42.6666666666667L170.6666666666667 0H341.3333333333333L298.6666666666667 42.6666666666667L341.3333333333333 85.3333333333334H170.6666666666667z" /></svg>