<?xml version="1.0" encoding="UTF-8"?><!DOCTYPE svg PUBLIC "-//W3C//DTD SVG 1.1//EN" "http://www.w3.org/Graphics/SVG/1.1/DTD/svg11.dtd"><svg xmlns="http://www.w3.org/2000/svg" xmlns:xlink="http://www.w3.org/1999/xlink" version="1.1" width="512" height="512" viewBox="0 0 512 512">    <path fill="#ffffff" transform="scale(1, -1) translate(0, -448)" glyph-name="folder-edit" unicode="&#xF8DD;" horiz-adv-x="512" d=" M64 362.6666666666667C40.32 362.6666666666667 21.3333333333333 343.68 21.3333333333333 320V64C21.3333333333333 40.5333333333333 40.5333333333333 21.3333333333334 64 21.3333333333334H234.6666666666667V61.6533333333334L448 274.9866666666667V277.3333333333334C448 301.0133333333333 428.8 320 405.3333333333333 320H234.6666666666667L192 362.6666666666667H64M448.8533333333333 210.56C445.8666666666666 210.56 442.88 209.28 440.5333333333333 206.9333333333334L419.2 185.6L462.9333333333333 141.8666666666667L484.2666666666667 163.2000000000001C488.9599999999999 167.6800000000001 488.9599999999999 175.1466666666668 484.2666666666667 179.6266666666667L456.9599999999999 206.9333333333334C454.6133333333333 209.28 451.84 210.56 448.8533333333333 210.56M406.8266666666667 173.2266666666667L277.3333333333333 43.9466666666667V0H321.28L450.56 129.4933333333334L406.8266666666667 173.2266666666667z" /></svg>