<?xml version="1.0" encoding="UTF-8"?><!DOCTYPE svg PUBLIC "-//W3C//DTD SVG 1.1//EN" "http://www.w3.org/Graphics/SVG/1.1/DTD/svg11.dtd"><svg xmlns="http://www.w3.org/2000/svg" xmlns:xlink="http://www.w3.org/1999/xlink" version="1.1" width="512" height="512" viewBox="0 0 512 512">    <path fill="#ffffff" transform="scale(1, -1) translate(0, -448)" glyph-name="dots-vertical-circle-outline" unicode="&#xFB6A;" horiz-adv-x="512" d=" M224 192C224 209.7066666666667 238.2933333333333 224 256 224S288 209.7066666666667 288 192S273.7066666666667 160 256 160S224 174.2933333333334 224 192M224 96C224 113.7066666666667 238.2933333333333 128 256 128S288 113.7066666666667 288 96S273.7066666666667 64 256 64S224 78.2933333333334 224 96M224 288C224 305.7066666666667 238.2933333333333 320 256 320S288 305.7066666666667 288 288S273.7066666666667 256 256 256S224 270.2933333333334 224 288M256 405.3333333333333C373.76 405.3333333333333 469.3333333333333 309.76 469.3333333333333 192S373.76 -21.3333333333333 256 -21.3333333333333S42.6666666666667 74.24 42.6666666666667 192S138.24 405.3333333333333 256 405.3333333333333M256 362.6666666666667C161.7066666666667 362.6666666666667 85.3333333333333 286.2933333333334 85.3333333333333 192S161.7066666666667 21.3333333333334 256 21.3333333333334S426.6666666666667 97.7066666666667 426.6666666666667 192S350.2933333333334 362.6666666666667 256 362.6666666666667z" /></svg>