<?xml version="1.0" encoding="UTF-8"?><!DOCTYPE svg PUBLIC "-//W3C//DTD SVG 1.1//EN" "http://www.w3.org/Graphics/SVG/1.1/DTD/svg11.dtd"><svg xmlns="http://www.w3.org/2000/svg" xmlns:xlink="http://www.w3.org/1999/xlink" version="1.1" width="512" height="512" viewBox="0 0 512 512">    <path fill="#ffffff" transform="scale(1, -1) translate(0, -448)" glyph-name="credit-card-scan" unicode="&#xF19D;" horiz-adv-x="512" d=" M42.6666666666667 362.6666666666667H128V405.3333333333333H42.6666666666667C19.2 405.3333333333333 0 386.1333333333334 0 362.6666666666667V277.3333333333334H42.6666666666667V362.6666666666667M469.3333333333333 405.3333333333333H384V362.6666666666667H469.3333333333333V277.3333333333334H512V362.6666666666667C512 386.1333333333334 492.8 405.3333333333333 469.3333333333333 405.3333333333333M42.6666666666667 106.6666666666667H0V21.3333333333334C0 -2.1333333333333 19.2 -21.3333333333333 42.6666666666667 -21.3333333333333H128V21.3333333333334H42.6666666666667V106.6666666666667M469.3333333333333 21.3333333333334H384V-21.3333333333333H469.3333333333333C492.8 -21.3333333333333 512 -2.1333333333333 512 21.3333333333334V106.6666666666667H469.3333333333333V21.3333333333334M85.3333333333333 277.3333333333334V106.6666666666667C85.3333333333333 83.2 104.5333333333333 64 128 64H384C407.4666666666667 64 426.6666666666667 83.2 426.6666666666667 106.6666666666667V277.3333333333334C426.6666666666667 300.8 407.4666666666667 320 384 320H128C104.5333333333333 320 85.3333333333333 300.8 85.3333333333333 277.3333333333334M128 106.6666666666667V192H384V106.6666666666667H128M384 277.3333333333334V234.6666666666667H128V277.3333333333334H384z" /></svg>