<?xml version="1.0" encoding="UTF-8"?><!DOCTYPE svg PUBLIC "-//W3C//DTD SVG 1.1//EN" "http://www.w3.org/Graphics/SVG/1.1/DTD/svg11.dtd"><svg xmlns="http://www.w3.org/2000/svg" xmlns:xlink="http://www.w3.org/1999/xlink" version="1.1" width="512" height="512" viewBox="0 0 512 512">    <path fill="#ffffff" transform="scale(1, -1) translate(0, -448)" glyph-name="watch" unicode="&#xF589;" horiz-adv-x="512" d=" M128 192C128 262.6133333333334 185.3866666666667 320 256 320S384 262.6133333333334 384 192S326.6133333333334 64 256 64S128 121.3866666666667 128 192M426.6666666666667 192C426.6666666666667 246.4000000000001 401.28 294.6133333333334 361.6 325.76L341.3333333333333 448H170.6666666666667L150.4 325.76C110.72 294.6133333333334 85.3333333333333 246.4000000000001 85.3333333333333 192C85.3333333333333 137.8133333333334 110.72 89.3866666666667 150.4 58.24L170.6666666666667 -64H341.3333333333333L361.6 58.24C401.28 89.3866666666667 426.6666666666667 137.8133333333334 426.6666666666667 192z" /></svg>