<?xml version="1.0" encoding="UTF-8"?><!DOCTYPE svg PUBLIC "-//W3C//DTD SVG 1.1//EN" "http://www.w3.org/Graphics/SVG/1.1/DTD/svg11.dtd"><svg xmlns="http://www.w3.org/2000/svg" xmlns:xlink="http://www.w3.org/1999/xlink" version="1.1" width="512" height="512" viewBox="0 0 512 512">    <path fill="#ffffff" transform="scale(1, -1) translate(0, -448)" glyph-name="vlc" unicode="&#xF57C;" horiz-adv-x="512" d=" M256 426.6666666666667C247.04 426.6666666666667 238.72 421.76 234.6666666666667 410.6666666666667L210.7733333333334 343.8933333333333C221.0133333333334 332.8 240.64 330.6666666666667 256 330.6666666666667C271.36 330.6666666666667 290.9866666666667 332.8 301.44 343.8933333333333L277.3333333333333 410.6666666666667C273.4933333333334 421.3333333333333 264.96 426.6666666666667 256 426.6666666666667M180.0533333333333 257.92L149.3333333333333 172.5866666666667C172.16 143.5733333333334 218.88 138.6666666666667 256 138.6666666666667C293.12 138.6666666666667 339.84 143.5733333333334 362.6666666666667 172.5866666666667L331.9466666666667 257.92C314.88 238.2933333333334 282.4533333333333 234.6666666666667 256 234.6666666666667C229.5466666666667 234.6666666666667 197.12 238.2933333333334 180.0533333333333 257.92M116.0533333333333 128C98.56 128 80.2133333333333 114.1333333333333 75.3066666666666 97.28L43.9466666666667 -11.9466666666667C39.2533333333333 -28.8 49.0666666666667 -42.6666666666667 66.7733333333333 -42.6666666666667H445.44C462.9333333333333 -42.6666666666667 472.7466666666667 -28.8000000000001 468.0533333333333 -11.9466666666667L436.6933333333333 97.28C431.7866666666667 114.1333333333333 413.44 128 395.9466666666666 128H378.6666666666667L385.92 107.3066666666666C388.48 100.48 390.1866666666666 91.9466666666667 385.92 85.9733333333333C359.2533333333334 49.0666666666667 301.6533333333333 42.6666666666667 256 42.6666666666667C210.3466666666666 42.6666666666667 152.7466666666667 49.0666666666667 126.08 85.9733333333334C121.8133333333333 91.9466666666667 123.52 100.48 126.08 107.3066666666667L133.3333333333333 128.0000000000001H116.0533333333333z" /></svg>