<?xml version="1.0" encoding="UTF-8"?><!DOCTYPE svg PUBLIC "-//W3C//DTD SVG 1.1//EN" "http://www.w3.org/Graphics/SVG/1.1/DTD/svg11.dtd"><svg xmlns="http://www.w3.org/2000/svg" xmlns:xlink="http://www.w3.org/1999/xlink" version="1.1" width="512" height="512" viewBox="0 0 512 512">    <path fill="#ffffff" transform="scale(1, -1) translate(0, -448)" glyph-name="clock-end" unicode="&#xF151;" horiz-adv-x="512" d=" M256 426.6666666666667C173.6533333333333 426.6666666666667 106.6666666666667 359.68 106.6666666666667 277.3333333333334C106.6666666666667 194.7733333333333 173.44 128 256 128C338.3466666666667 128 405.3333333333333 194.7733333333333 405.3333333333333 277.3333333333334C405.3333333333333 359.68 338.3466666666667 426.6666666666667 256 426.6666666666667M256 380.8C312.96 380.8 359.4666666666667 334.5066666666667 359.4666666666667 277.3333333333334C359.4666666666667 220.16 312.9600000000001 173.8666666666667 256 173.8666666666667C198.8266666666667 173.8666666666667 152.5333333333334 220.16 152.5333333333334 277.3333333333334C152.5333333333334 334.5066666666667 198.8266666666667 380.8 256 380.8M234.6666666666667 341.3333333333334V262.6133333333334L302.72 223.36L318.72 251.0933333333334L266.6666666666667 281.1733333333334V341.3333333333334M320 106.6666666666667V42.6666666666667H64V0H320V-64L405.3333333333333 21.3333333333334M405.3333333333333 21.3333333333334V-64H448V106.6666666666667H405.3333333333333" /></svg>