<?xml version="1.0" encoding="UTF-8"?><!DOCTYPE svg PUBLIC "-//W3C//DTD SVG 1.1//EN" "http://www.w3.org/Graphics/SVG/1.1/DTD/svg11.dtd"><svg xmlns="http://www.w3.org/2000/svg" xmlns:xlink="http://www.w3.org/1999/xlink" version="1.1" width="512" height="512" viewBox="0 0 512 512">    <path fill="#ffffff" transform="scale(1, -1) translate(0, -448)" glyph-name="islam" unicode="&#xF978;" horiz-adv-x="512" d=" M262.4 405.3333333333333H256C138.24 405.3333333333333 42.6666666666667 309.76 42.6666666666667 192S138.24 -21.3333333333333 256 -21.3333333333333C320 -21.3333333333333 356.2666666666667 0 394.6666666666667 32C277.3333333333333 0 170.6666666666667 85.3333333333334 170.6666666666667 192S277.3333333333333 384 394.6666666666667 352C359.68 386.9866666666667 311.8933333333333 406.1866666666667 262.4 405.3333333333333M358.4 315.7333333333334L326.4 241.0666666666667L247.4666666666667 234.6666666666667L309.3333333333334 181.3333333333334L290.1333333333334 106.6666666666667L358.4 149.3333333333334L426.6666666666667 106.6666666666667L405.3333333333333 181.3333333333334L469.3333333333333 234.6666666666667L390.4 241.0666666666667L358.4 315.7333333333334z" /></svg>