<?xml version="1.0" encoding="UTF-8"?><!DOCTYPE svg PUBLIC "-//W3C//DTD SVG 1.1//EN" "http://www.w3.org/Graphics/SVG/1.1/DTD/svg11.dtd"><svg xmlns="http://www.w3.org/2000/svg" xmlns:xlink="http://www.w3.org/1999/xlink" version="1.1" width="512" height="512" viewBox="0 0 512 512">    <path fill="#ffffff" transform="scale(1, -1) translate(0, -448)" glyph-name="source-repository-multiple" unicode="&#xFCAC;" horiz-adv-x="512" d=" M170.6666666666667 448H426.6666666666667C450.1333333333334 448 469.3333333333333 428.8 469.3333333333333 405.3333333333333V64C469.3333333333333 40.5333333333333 450.1333333333334 21.3333333333334 426.6666666666667 21.3333333333334H170.6666666666667C147.2 21.3333333333334 128 40.5333333333333 128 64V405.3333333333333C128 428.8 147.2 448 170.6666666666667 448M314.6666666666667 202.6666666666667C373.3333333333333 202.6666666666667 389.12 245.9733333333334 393.1733333333333 268.8C412.5866666666667 274.9866666666667 426.6666666666667 293.12 426.6666666666667 314.6666666666667C426.6666666666667 341.3333333333334 405.3333333333333 362.6666666666667 378.6666666666667 362.6666666666667S330.6666666666667 341.3333333333334 330.6666666666667 314.6666666666667C330.6666666666667 294.6133333333334 342.8266666666667 277.3333333333334 360.32 270.2933333333334C355.6266666666667 256 341.3333333333333 234.6666666666667 298.6666666666667 234.6666666666667C269.2266666666667 234.6666666666667 248.7466666666667 227.2 234.6666666666667 216.7466666666667V301.44C253.2266666666667 308.0533333333334 266.6666666666667 325.76 266.6666666666667 346.6666666666667C266.6666666666667 373.3333333333334 245.3333333333333 394.6666666666667 218.6666666666667 394.6666666666667S170.6666666666667 373.3333333333334 170.6666666666667 346.6666666666667C170.6666666666667 325.76 184.1066666666667 308.0533333333334 202.6666666666667 301.44V167.8933333333334C184.1066666666667 161.28 170.6666666666667 143.5733333333334 170.6666666666667 122.6666666666667C170.6666666666667 96 192 74.6666666666667 218.6666666666667 74.6666666666667S266.6666666666667 96 266.6666666666667 122.6666666666667C266.6666666666667 142.5066666666667 254.72 160 237.44 166.8266666666667C243.4133333333333 181.3333333333334 260.9066666666667 202.6666666666667 314.6666666666667 202.6666666666667M218.6666666666667 138.6666666666667C227.4133333333334 138.6666666666667 234.6666666666667 131.4133333333334 234.6666666666667 122.6666666666667S227.4133333333334 106.6666666666667 218.6666666666667 106.6666666666667S202.6666666666667 113.92 202.6666666666667 122.6666666666667S209.92 138.6666666666667 218.6666666666667 138.6666666666667M218.6666666666667 362.6666666666667C227.4133333333334 362.6666666666667 234.6666666666667 355.4133333333334 234.6666666666667 346.6666666666667S227.4133333333334 330.6666666666667 218.6666666666667 330.6666666666667S202.6666666666667 337.92 202.6666666666667 346.6666666666667S209.92 362.6666666666667 218.6666666666667 362.6666666666667M378.6666666666667 330.6666666666667C387.4133333333333 330.6666666666667 394.6666666666667 323.4133333333334 394.6666666666667 314.6666666666667S387.4133333333333 298.6666666666667 378.6666666666667 298.6666666666667S362.6666666666667 305.92 362.6666666666667 314.6666666666667S369.92 330.6666666666667 378.6666666666667 330.6666666666667M341.3333333333333 -21.3333333333333V-64H85.3333333333333C61.8666666666667 -64 42.6666666666667 -44.8 42.6666666666667 -21.3333333333333V320H85.3333333333333V-21.3333333333333H341.3333333333333z" /></svg>