<?xml version="1.0" encoding="UTF-8"?><!DOCTYPE svg PUBLIC "-//W3C//DTD SVG 1.1//EN" "http://www.w3.org/Graphics/SVG/1.1/DTD/svg11.dtd"><svg xmlns="http://www.w3.org/2000/svg" xmlns:xlink="http://www.w3.org/1999/xlink" version="1.1" width="512" height="512" viewBox="0 0 512 512">    <path fill="#ffffff" transform="scale(1, -1) translate(0, -448)" glyph-name="file-cabinet" unicode="&#xFAB5;" horiz-adv-x="512" d=" M298.6666666666667 277.3333333333334H213.3333333333333V320H298.6666666666667V277.3333333333334M426.6666666666667 362.6666666666667V21.3333333333334C426.6666666666667 -2.3466666666666 407.68 -21.3333333333333 384 -21.3333333333333H128C104.32 -21.3333333333333 85.3333333333333 -2.3466666666666 85.3333333333333 21.3333333333334V362.6666666666667C85.3333333333333 386.1333333333334 104.5333333333333 405.3333333333333 128 405.3333333333333H384C407.68 405.3333333333333 426.6666666666667 386.1333333333334 426.6666666666667 362.6666666666667M384 170.6666666666667H128V21.3333333333334H384V170.6666666666667M384 362.6666666666667H128V213.3333333333334H384V362.6666666666667M298.6666666666667 128H213.3333333333333V85.3333333333334H298.6666666666667V128z" /></svg>