<?xml version="1.0" encoding="UTF-8"?><!DOCTYPE svg PUBLIC "-//W3C//DTD SVG 1.1//EN" "http://www.w3.org/Graphics/SVG/1.1/DTD/svg11.dtd"><svg xmlns="http://www.w3.org/2000/svg" xmlns:xlink="http://www.w3.org/1999/xlink" version="1.1" width="512" height="512" viewBox="0 0 512 512">    <path fill="#ffffff" transform="scale(1, -1) translate(0, -448)" glyph-name="vk-circle" unicode="&#xF57B;" horiz-adv-x="512" d=" M256 405.3333333333333C138.24 405.3333333333333 42.6666666666667 309.76 42.6666666666667 192S138.24 -21.3333333333333 256 -21.3333333333333S469.3333333333333 74.24 469.3333333333333 192S373.76 405.3333333333333 256 405.3333333333333M117.3333333333333 266.6666666666667H149.3333333333333C157.0133333333333 266.6666666666667 160 263.2533333333334 162.9866666666667 254.5066666666667C178.3466666666666 209.7066666666667 204.16 170.6666666666667 214.8266666666667 170.6666666666667C218.88 170.6666666666667 220.8 172.3733333333333 220.8 182.4V228.6933333333334C219.52 250.0266666666667 208.2133333333333 251.9466666666667 208.2133333333333 259.4133333333334C208.2133333333333 263.04 211.2 266.6666666666667 216.32 266.6666666666667H265.6C272.4266666666667 266.6666666666667 274.56 263.04 274.56 255.1466666666667V192.8533333333334C274.56 186.24 277.3333333333334 183.8933333333334 279.4666666666667 183.8933333333334C283.52 183.8933333333334 286.9333333333334 186.24 294.1866666666667 193.4933333333334C316.8 218.88 332.8 257.7066666666667 332.8 257.7066666666667C334.9333333333334 262.4000000000001 338.56 266.6666666666667 346.4533333333334 266.6666666666667H377.8133333333334C387.4133333333333 266.6666666666667 389.5466666666667 261.76 387.4133333333333 255.1466666666667C383.36 236.8000000000001 345.1733333333333 182.8266666666667 345.1733333333333 182.8266666666667C341.3333333333333 177.4933333333334 340.48 174.9333333333334 345.1733333333333 168.7466666666667C348.3733333333333 164.2666666666667 359.4666666666667 154.88 366.7200000000001 146.1333333333333C380.3733333333334 130.9866666666667 390.4 118.1866666666667 393.3866666666667 109.44C395.9466666666667 100.48 391.4666666666667 96 382.5066666666667 96H350.9333333333333C338.9866666666666 96 335.5733333333333 105.6 314.24 126.9333333333333C295.4666666666666 144.8533333333334 288 147.2 282.88 147.2C276.4799999999999 147.2 274.56 145.4933333333334 274.56 136.32V108.16C274.56 100.48 272.2133333333333 96 252.1599999999999 96C218.8799999999999 96 182.1866666666666 116.2666666666667 156.3733333333333 153.6C117.3333333333333 208.2133333333334 106.6666666666667 249.3866666666667 106.6666666666667 257.7066666666667C106.6666666666667 262.4000000000001 108.3733333333333 266.6666666666667 117.3333333333333 266.6666666666667z" /></svg>