<?xml version="1.0" encoding="UTF-8"?><!DOCTYPE svg PUBLIC "-//W3C//DTD SVG 1.1//EN" "http://www.w3.org/Graphics/SVG/1.1/DTD/svg11.dtd"><svg xmlns="http://www.w3.org/2000/svg" xmlns:xlink="http://www.w3.org/1999/xlink" version="1.1" width="512" height="512" viewBox="0 0 512 512">    <path fill="#ffffff" transform="scale(1, -1) translate(0, -448)" glyph-name="cannabis" unicode="&#xF7A5;" horiz-adv-x="512" d=" M245.3333333333333 -21.3333333333333V77.8666666666667C234.6666666666667 61.2266666666666 213.3333333333333 40.7466666666667 171.3066666666667 25.3866666666667C171.3066666666667 25.3866666666667 181.9733333333333 61.8666666666667 212.0533333333333 86.4C184.32 80.4266666666666 142.5066666666667 81.28 85.3333333333333 106.6666666666666C85.3333333333333 106.6666666666666 138.0266666666667 136.7466666666666 197.9733333333333 128.6399999999999C164.0533333333334 149.3333333333334 121.6 190.2933333333334 88.96 274.9866666666667C88.96 274.9866666666667 184.96 248.7466666666667 232.7466666666667 167.68C189.44 272.2133333333334 256 405.3333333333333 256 405.3333333333333C307.84 288.64 296.7466666666667 211.2 279.8933333333333 168.5333333333334C327.8933333333333 248.96 423.04 274.9866666666667 423.04 274.9866666666667C390.4 190.2933333333334 347.9466666666667 149.3333333333334 314.0266666666667 128.6400000000001C373.9733333333334 136.7466666666667 426.6666666666667 106.6666666666667 426.6666666666667 106.6666666666667C369.4933333333334 81.28 327.68 80.4266666666667 299.9466666666666 86.4C330.0266666666667 61.8666666666667 340.6933333333333 25.3866666666667 340.6933333333333 25.3866666666667C298.6666666666667 40.7466666666667 277.3333333333333 61.2266666666667 266.6666666666667 77.8666666666667V-21.3333333333333H245.3333333333333z" /></svg>