<?xml version="1.0" encoding="UTF-8"?><!DOCTYPE svg PUBLIC "-//W3C//DTD SVG 1.1//EN" "http://www.w3.org/Graphics/SVG/1.1/DTD/svg11.dtd"><svg xmlns="http://www.w3.org/2000/svg" xmlns:xlink="http://www.w3.org/1999/xlink" version="1.1" width="512" height="512" viewBox="0 0 512 512">    <path fill="#ffffff" transform="scale(1, -1) translate(0, -448)" glyph-name="gamepad-variant" unicode="&#xF297;" horiz-adv-x="512" d=" M149.3333333333333 320H362.6666666666667C433.28 320 490.6666666666666 262.6133333333334 490.6666666666666 192S433.28 64 362.6666666666667 64C324.6933333333334 64 290.7733333333333 80.4266666666667 267.3066666666667 106.6666666666667H244.6933333333334C221.2266666666667 80.4266666666667 187.3066666666667 64 149.3333333333334 64C78.72 64 21.3333333333334 121.3866666666667 21.3333333333334 192S78.72 320 149.3333333333334 320M128 256V213.3333333333334H85.3333333333333V170.6666666666667H128V128H170.6666666666667V170.6666666666667H213.3333333333333V213.3333333333334H170.6666666666667V256H128M330.6666666666667 192C312.96 192 298.6666666666667 177.7066666666667 298.6666666666667 160S312.96 128 330.6666666666667 128S362.6666666666667 142.2933333333334 362.6666666666667 160S348.3733333333333 192 330.6666666666667 192M394.6666666666667 256C376.9600000000001 256 362.6666666666667 241.7066666666667 362.6666666666667 224S376.9600000000001 192 394.6666666666667 192S426.6666666666667 206.2933333333334 426.6666666666667 224S412.3733333333333 256 394.6666666666667 256z" /></svg>