<?xml version="1.0" encoding="UTF-8"?><!DOCTYPE svg PUBLIC "-//W3C//DTD SVG 1.1//EN" "http://www.w3.org/Graphics/SVG/1.1/DTD/svg11.dtd"><svg xmlns="http://www.w3.org/2000/svg" xmlns:xlink="http://www.w3.org/1999/xlink" version="1.1" width="512" height="512" viewBox="0 0 512 512">    <path fill="#ffffff" transform="scale(1, -1) translate(0, -448)" glyph-name="mixcloud" unicode="&#xF62A;" horiz-adv-x="512" d=" M450.3466666666667 53.3333333333334C447.36 53.3333333333334 444.3733333333333 54.6133333333333 441.8133333333334 56.3200000000001C434.56 61.2266666666667 432.64 70.8266666666667 437.3333333333333 78.08C451.84 99.4133333333334 459.52 124.5866666666667 459.52 150.8266666666667C459.52 176.8533333333334 451.84 202.0266666666667 437.3333333333333 224C432.64 230.8266666666667 434.56 240.4266666666667 441.8133333333334 245.3333333333334C448.8533333333333 250.0266666666667 458.6666666666666 248.1066666666667 463.36 241.0666666666667C481.28 214.4 490.6666666666667 183.2533333333333 490.6666666666667 150.8266666666667C490.6666666666667 118.4 481.28 87.2533333333333 463.36 60.5866666666667C460.3733333333333 56.1066666666667 455.4666666666667 53.3333333333334 450.3466666666667 53.3333333333334M405.3333333333333 79.1466666666667C402.7733333333333 79.1466666666667 399.7866666666667 80 397.0133333333333 81.7066666666667C389.9733333333334 86.6133333333334 388.0533333333333 96.0000000000001 392.9599999999999 103.4666666666667C402.3466666666667 117.3333333333334 407.4666666666666 133.7600000000001 407.4666666666666 150.8266666666667C407.4666666666666 167.6800000000001 402.3466666666667 184.1066666666668 392.9599999999999 198.1866666666667C388.0533333333333 205.4400000000001 389.9733333333333 215.0400000000001 397.0133333333333 219.9466666666667C404.2666666666667 224.6400000000001 413.8666666666666 222.9333333333334 418.7733333333333 215.6800000000001C431.7866666666667 196.4800000000001 438.6133333333333 174.0800000000001 438.6133333333333 150.8266666666668C438.6133333333333 128.0000000000001 431.7866666666667 105.1733333333334 418.7733333333333 85.9733333333335C416 81.4933333333335 410.6666666666667 79.1466666666668 405.3333333333333 79.1466666666668M317.8666666666667 112.4266666666668C338.9866666666667 112.4266666666668 356.2666666666667 129.7066666666668 356.2666666666667 150.8266666666668C356.2666666666667 167.0400000000001 346.0266666666667 181.3333333333335 331.7333333333333 186.6666666666668C330.6666666666667 180.2666666666668 329.1733333333333 173.8666666666668 327.2533333333333 167.6800000000001C324.9066666666667 161.2800000000001 318.9333333333333 157.0133333333334 312.32 157.0133333333334C310.8266666666666 157.0133333333334 309.3333333333333 157.4400000000001 307.4133333333333 157.8666666666668C299.3066666666666 160.6400000000001 294.8266666666666 169.3866666666668 297.5999999999999 177.7066666666668C300.5866666666666 186.8800000000001 302.2933333333333 196.6933333333335 302.2933333333333 206.5066666666668C302.2933333333333 257.4933333333334 260.6933333333334 298.6666666666667 209.4933333333334 298.6666666666667C172.8 298.6666666666667 139.9466666666667 277.3333333333334 125.2266666666667 245.3333333333334C139.52 241.0666666666667 152.7466666666667 233.8133333333334 163.4133333333333 223.1466666666667C169.6 216.96 169.6 207.1466666666667 163.4133333333333 200.96C157.44 194.9866666666667 147.4133333333333 194.9866666666667 141.44 200.96C131.6266666666667 210.7733333333334 118.6133333333333 216.3200000000001 104.5333333333333 216.3200000000001C75.9466666666667 216.3200000000001 52.48 192.8533333333334 52.48 164.2666666666668C52.48 135.6800000000001 75.9466666666667 112.4266666666667 104.5333333333333 112.4266666666667H317.8666666666667M332.8 218.6666666666668C363.9466666666666 211.8400000000001 387.6266666666666 184.1066666666668 387.6266666666666 150.8266666666668C387.6266666666666 112.4266666666667 356.2666666666667 81.2800000000001 317.8666666666666 81.2800000000001H104.5333333333333C58.6666666666666 81.2800000000001 21.3333333333333 118.4000000000001 21.3333333333333 164.2666666666668C21.3333333333333 206.0800000000001 52.2666666666666 240.4266666666668 92.3733333333333 246.4000000000001C109.2266666666666 296.1066666666668 156.3733333333333 330.6666666666668 209.4933333333333 330.6666666666668C273.7066666666666 330.6666666666668 326.6133333333333 281.1733333333334 332.8 218.6666666666668z" /></svg>