<?xml version="1.0" encoding="UTF-8"?><!DOCTYPE svg PUBLIC "-//W3C//DTD SVG 1.1//EN" "http://www.w3.org/Graphics/SVG/1.1/DTD/svg11.dtd"><svg xmlns="http://www.w3.org/2000/svg" xmlns:xlink="http://www.w3.org/1999/xlink" version="1.1" width="512" height="512" viewBox="0 0 512 512">    <path fill="#ffffff" transform="scale(1, -1) translate(0, -448)" glyph-name="file-xml" unicode="&#xF22E;" horiz-adv-x="512" d=" M277.3333333333333 256H394.6666666666667L277.3333333333333 373.3333333333334V256M128 405.3333333333333H298.6666666666667L426.6666666666667 277.3333333333334V21.3333333333334C426.6666666666667 -2.1333333333333 407.4666666666667 -21.3333333333333 384 -21.3333333333333H128C104.32 -21.3333333333333 85.3333333333333 -2.1333333333333 85.3333333333333 21.3333333333334V362.6666666666667C85.3333333333333 386.3466666666667 104.32 405.3333333333333 128 405.3333333333333M130.56 117.3333333333334L210.3466666666666 37.5466666666666L240.64 67.6266666666667L190.9333333333333 117.3333333333333L240.64 167.04L210.3466666666666 197.12L130.56 117.3333333333333M368.64 117.3333333333333L288.8533333333334 197.12L258.56 167.04L308.2666666666667 117.3333333333333L258.56 67.6266666666667L288.8533333333334 37.5466666666666L368.64 117.3333333333333z" /></svg>