<?xml version="1.0" encoding="UTF-8"?><!DOCTYPE svg PUBLIC "-//W3C//DTD SVG 1.1//EN" "http://www.w3.org/Graphics/SVG/1.1/DTD/svg11.dtd"><svg xmlns="http://www.w3.org/2000/svg" xmlns:xlink="http://www.w3.org/1999/xlink" version="1.1" width="512" height="512" viewBox="0 0 512 512">    <path fill="#ffffff" transform="scale(1, -1) translate(0, -448)" glyph-name="saw-blade" unicode="&#xFE44;" horiz-adv-x="512" d=" M426.6666666666667 128S396.8 100.2666666666667 450.1333333333334 85.3333333333334L390.4 25.6H330.6666666666667S290.1333333333334 27.7333333333334 320 -21.3333333333333H234.6666666666667L192 21.3333333333334S164.2666666666667 51.2 149.3333333333333 -2.1333333333333L89.6 57.6V117.3333333333334S91.7333333333333 157.8666666666667 42.6666666666667 128V213.3333333333334L85.3333333333333 256S115.2 283.7333333333334 59.7333333333333 296.5333333333334L119.4666666666667 358.4000000000001H181.3333333333333S221.8666666666667 356.2666666666667 192 405.3333333333334H277.3333333333333L320 362.6666666666667S347.7333333333334 332.8000000000001 362.6666666666667 388.2666666666667L422.4 328.5333333333334V266.6666666666668S420.2666666666667 226.1333333333334 469.3333333333333 256.0000000000001V170.6666666666668L426.6666666666667 128.0000000000001M298.6666666666667 192.0000000000001C298.6666666666667 215.4666666666667 279.4666666666667 234.6666666666667 256 234.6666666666667S213.3333333333333 215.4666666666667 213.3333333333333 192.0000000000001S232.5333333333334 149.3333333333334 256 149.3333333333334S298.6666666666667 168.5333333333334 298.6666666666667 192.0000000000001z" /></svg>