<?xml version="1.0" encoding="UTF-8"?><!DOCTYPE svg PUBLIC "-//W3C//DTD SVG 1.1//EN" "http://www.w3.org/Graphics/SVG/1.1/DTD/svg11.dtd"><svg xmlns="http://www.w3.org/2000/svg" xmlns:xlink="http://www.w3.org/1999/xlink" version="1.1" width="512" height="512" viewBox="0 0 512 512">    <path fill="#ffffff" transform="scale(1, -1) translate(0, -448)" glyph-name="meteor" unicode="&#xF629;" horiz-adv-x="512" d=" M59.7333333333333 384L419.6266666666667 46.5066666666667S426.6666666666667 36.9066666666667 417.7066666666667 27.52C408.9600000000001 18.1333333333333 397.4400000000001 26.24 397.4400000000001 26.24L59.7333333333333 384M166.6133333333333 350.0800000000001L446.08 93.0133333333333S452.9066666666666 83.6266666666667 444.16 74.6666666666667C435.2 64.64 423.68 72.7466666666667 423.68 72.7466666666667L166.6133333333333 350.0800000000001M91.52 277.3333333333334L370.9866666666667 20.6933333333333S377.8133333333334 11.3066666666666 369.0666666666667 1.92C360.1066666666667 -7.6799999999999 348.5866666666667 0 348.5866666666667 0L91.52 277.3333333333334M257.0666666666667 320.8533333333334L452.2666666666667 141.44S456.96 134.8266666666667 450.7733333333334 128C444.8 121.6 436.6933333333334 127.36 436.6933333333334 127.36L257.0666666666667 320.8533333333334M116.2666666666667 193.92L311.4666666666667 14.2933333333334S316.1600000000001 7.6800000000001 310.1866666666667 1.0666666666667C304.0000000000001 -5.5466666666666 295.8933333333334 0 295.8933333333334 0L116.2666666666667 193.92M349.4400000000001 279.04L438.4000000000001 197.5466666666667S440.7466666666668 194.56 437.3333333333334 191.36C434.7733333333334 188.3733333333333 430.7200000000001 190.9333333333334 430.7200000000001 190.9333333333334L349.4400000000001 279.04M161.28 104.5333333333333L250.4533333333333 23.2533333333333S252.8 20.0533333333334 249.6 17.0666666666667C246.6133333333333 13.8666666666667 242.56 16.64 242.56 16.64L161.28 104.5333333333333z" /></svg>