<?xml version="1.0" encoding="UTF-8"?><!DOCTYPE svg PUBLIC "-//W3C//DTD SVG 1.1//EN" "http://www.w3.org/Graphics/SVG/1.1/DTD/svg11.dtd"><svg xmlns="http://www.w3.org/2000/svg" xmlns:xlink="http://www.w3.org/1999/xlink" version="1.1" width="512" height="512" viewBox="0 0 512 512">    <path fill="#ffffff" transform="scale(1, -1) translate(0, -448)" glyph-name="plus-circle-multiple-outline" unicode="&#xF418;" horiz-adv-x="512" d=" M341.3333333333333 277.3333333333334H298.6666666666667V213.3333333333334H234.6666666666667V170.6666666666667H298.6666666666667V106.6666666666667H341.3333333333333V170.6666666666667H405.3333333333333V213.3333333333334H341.3333333333333M42.6666666666667 192C42.6666666666667 251.52 77.6533333333333 302.9333333333334 128 326.8266666666667V373.3333333333334C53.3333333333333 346.4533333333334 0 275.4133333333334 0 192S53.3333333333333 37.5466666666666 128 10.6666666666667V57.1733333333334C77.6533333333333 81.0666666666667 42.6666666666667 132.48 42.6666666666667 192M320 384C214.1866666666667 384 128 297.8133333333334 128 192S214.1866666666667 0 320 0S512 86.1866666666667 512 192S425.8133333333334 384 320 384M320 42.6666666666667C237.6533333333334 42.6666666666667 170.6666666666667 109.6533333333334 170.6666666666667 192S237.6533333333334 341.3333333333334 320 341.3333333333334S469.3333333333333 274.3466666666667 469.3333333333333 192S402.3466666666667 42.6666666666667 320 42.6666666666667z" /></svg>