<?xml version="1.0" encoding="UTF-8"?><!DOCTYPE svg PUBLIC "-//W3C//DTD SVG 1.1//EN" "http://www.w3.org/Graphics/SVG/1.1/DTD/svg11.dtd"><svg xmlns="http://www.w3.org/2000/svg" xmlns:xlink="http://www.w3.org/1999/xlink" version="1.1" width="512" height="512" viewBox="0 0 512 512">    <path fill="#ffffff" transform="scale(1, -1) translate(0, -448)" glyph-name="twitter" unicode="&#xF544;" horiz-adv-x="512" d=" M479.1466666666666 320C462.72 312.5333333333334 445.0133333333333 307.6266666666667 426.6666666666667 305.2800000000001C445.44 316.5866666666667 459.9466666666666 334.5066666666667 466.7733333333333 356.0533333333334C449.0666666666667 345.3866666666667 429.44 337.92 408.7466666666667 333.6533333333334C391.8933333333333 352 368.2133333333334 362.6666666666667 341.3333333333333 362.6666666666667C291.2 362.6666666666667 250.24 321.7066666666667 250.24 271.1466666666667C250.24 263.8933333333334 251.0933333333333 256.8533333333334 252.5866666666667 250.24C176.64 254.08 109.0133333333333 290.56 64 345.8133333333334C56.1066666666667 332.3733333333334 51.6266666666667 316.5866666666667 51.6266666666667 299.9466666666667C51.6266666666667 268.1600000000001 67.6266666666667 240 92.3733333333333 224C77.2266666666667 224 63.1466666666667 228.2666666666667 50.7733333333333 234.6666666666667V234.0266666666667C50.7733333333333 189.6533333333334 82.3466666666667 152.5333333333334 124.16 144.2133333333334C116.48 142.0800000000001 108.3733333333333 141.0133333333334 100.0533333333333 141.0133333333334C94.2933333333333 141.0133333333334 88.5333333333333 141.6533333333334 82.9866666666667 142.72C94.5066666666667 106.6666666666667 128 79.7866666666668 168.32 79.1466666666667C137.1733333333334 54.4 97.7066666666667 39.8933333333334 54.6133333333333 39.8933333333334C47.36 39.8933333333334 40.1066666666667 40.3200000000001 32.8533333333333 41.1733333333333C73.3866666666667 15.1466666666667 121.6 0 173.2266666666666 0C341.3333333333333 0 433.7066666666666 139.52 433.7066666666666 260.48C433.7066666666666 264.5333333333334 433.7066666666666 268.3733333333334 433.4933333333333 272.4266666666668C451.4133333333332 285.2266666666667 466.7733333333332 301.4400000000001 479.1466666666666 320.0000000000001z" /></svg>