<?xml version="1.0" encoding="UTF-8"?><!DOCTYPE svg PUBLIC "-//W3C//DTD SVG 1.1//EN" "http://www.w3.org/Graphics/SVG/1.1/DTD/svg11.dtd"><svg xmlns="http://www.w3.org/2000/svg" xmlns:xlink="http://www.w3.org/1999/xlink" version="1.1" width="512" height="512" viewBox="0 0 512 512">    <path fill="#ffffff" transform="scale(1, -1) translate(0, -448)" glyph-name="dip-switch" unicode="&#xF7C0;" horiz-adv-x="512" d=" M64 362.6666666666667H149.3333333333333C161.0666666666667 362.6666666666667 170.6666666666667 353.0666666666667 170.6666666666667 341.3333333333334V42.6666666666667C170.6666666666667 30.9333333333333 161.0666666666667 21.3333333333334 149.3333333333333 21.3333333333334H64C52.2666666666667 21.3333333333334 42.6666666666667 30.9333333333333 42.6666666666667 42.6666666666667V341.3333333333334C42.6666666666667 353.0666666666667 52.2666666666667 362.6666666666667 64 362.6666666666667M213.3333333333333 362.6666666666667H298.6666666666667C310.4 362.6666666666667 320 353.0666666666667 320 341.3333333333334V42.6666666666667C320 30.9333333333333 310.4 21.3333333333334 298.6666666666667 21.3333333333334H213.3333333333333C201.6 21.3333333333334 192 30.9333333333333 192 42.6666666666667V341.3333333333334C192 353.0666666666667 201.6 362.6666666666667 213.3333333333333 362.6666666666667M362.6666666666667 362.6666666666667H448C459.7333333333333 362.6666666666667 469.3333333333333 353.0666666666667 469.3333333333333 341.3333333333334V42.6666666666667C469.3333333333333 30.9333333333333 459.7333333333333 21.3333333333334 448 21.3333333333334H362.6666666666667C350.9333333333333 21.3333333333334 341.3333333333333 30.9333333333333 341.3333333333333 42.6666666666667V341.3333333333334C341.3333333333333 353.0666666666667 350.9333333333333 362.6666666666667 362.6666666666667 362.6666666666667M85.3333333333333 64H128V170.6666666666667H85.3333333333333V64M234.6666666666667 213.3333333333334H277.3333333333333V320H234.6666666666667V213.3333333333334M384 64H426.6666666666667V170.6666666666667H384V64z" /></svg>