<?xml version="1.0" encoding="UTF-8"?><!DOCTYPE svg PUBLIC "-//W3C//DTD SVG 1.1//EN" "http://www.w3.org/Graphics/SVG/1.1/DTD/svg11.dtd"><svg xmlns="http://www.w3.org/2000/svg" xmlns:xlink="http://www.w3.org/1999/xlink" version="1.1" width="512" height="512" viewBox="0 0 512 512">    <path fill="#ffffff" transform="scale(1, -1) translate(0, -448)" glyph-name="metronome-tick" unicode="&#xF7DA;" horiz-adv-x="512" d=" M256 410.6666666666667L182.8266666666667 391.04L86.8266666666667 32C86.6133333333334 32 85.3333333333333 24.7466666666667 85.3333333333333 21.3333333333334C85.3333333333333 -2.3466666666666 104.32 -21.3333333333333 128 -21.3333333333333H384C407.68 -21.3333333333333 426.6666666666667 -2.3466666666666 426.6666666666667 21.3333333333334C426.6666666666667 24.7466666666667 425.3866666666667 32 425.1733333333333 32L329.1733333333333 391.04L256 410.6666666666667M219.52 362.6666666666667H292.48L366.9333333333333 85.3333333333334H277.3333333333333V192H234.6666666666667V85.3333333333334H145.0666666666667L219.52 362.6666666666667M234.6666666666667 341.3333333333334V256H213.3333333333333V213.3333333333334H298.6666666666667V256H277.3333333333333V341.3333333333334H234.6666666666667z" /></svg>