<?xml version="1.0" encoding="UTF-8"?><!DOCTYPE svg PUBLIC "-//W3C//DTD SVG 1.1//EN" "http://www.w3.org/Graphics/SVG/1.1/DTD/svg11.dtd"><svg xmlns="http://www.w3.org/2000/svg" xmlns:xlink="http://www.w3.org/1999/xlink" version="1.1" width="512" height="512" viewBox="0 0 512 512">    <path fill="#ffffff" transform="scale(1, -1) translate(0, -448)" glyph-name="snowman" unicode="&#xF4B7;" horiz-adv-x="512" d=" M362.6666666666667 85.3333333333334C362.6666666666667 26.4533333333334 314.88 -21.3333333333333 256 -21.3333333333333S149.3333333333333 26.4533333333334 149.3333333333333 85.3333333333334C149.3333333333333 117.3333333333334 163.2 145.7066666666667 185.3866666666667 165.3333333333334C176.2133333333333 178.9866666666667 170.6666666666667 195.6266666666667 170.6666666666667 213.3333333333334V222.08L107.52 258.7733333333334L103.04 262.1866666666667L48.8533333333333 247.6800000000001L43.3066666666667 268.1600000000001L90.4533333333333 280.7466666666667L48.2133333333333 305.2800000000001L58.88 323.8400000000001L101.12 299.3066666666668L88.5333333333333 346.6666666666668L109.0133333333333 352.0000000000001L123.7333333333334 297.8133333333334L128.8533333333334 295.6800000000001L186.24 262.6133333333334C194.3466666666667 274.1333333333334 205.2266666666667 283.5200000000001 218.0266666666667 289.7066666666667C202.6666666666667 301.44 192 320 192 341.3333333333334C192 376.7466666666667 220.5866666666667 405.3333333333333 256 405.3333333333333S320 376.7466666666667 320 341.3333333333334C320 320 309.3333333333333 301.44 293.9733333333333 289.7066666666667C306.7733333333333 283.52 317.6533333333333 274.1333333333334 325.76 262.6133333333334L383.1466666666667 295.68L388.2666666666667 297.8133333333334L402.9866666666667 352L423.4666666666667 346.6666666666667L410.88 299.3066666666667L453.12 323.8400000000001L463.7866666666667 305.28L421.5466666666667 280.7466666666667L468.6933333333334 268.1600000000001L463.1466666666666 247.68L408.9600000000001 262.1866666666667L404.48 258.7733333333333L341.3333333333333 222.08V213.3333333333334C341.3333333333333 195.6266666666667 335.7866666666667 178.9866666666667 326.6133333333334 165.3333333333334C348.8 145.7066666666667 362.6666666666667 117.3333333333334 362.6666666666667 85.3333333333334z" /></svg>