<?xml version="1.0" encoding="UTF-8"?><!DOCTYPE svg PUBLIC "-//W3C//DTD SVG 1.1//EN" "http://www.w3.org/Graphics/SVG/1.1/DTD/svg11.dtd"><svg xmlns="http://www.w3.org/2000/svg" xmlns:xlink="http://www.w3.org/1999/xlink" version="1.1" width="512" height="512" viewBox="0 0 512 512">    <path fill="#ffffff" transform="scale(1, -1) translate(0, -448)" glyph-name="calendar-month-outline" unicode="&#xFDFB;" horiz-adv-x="512" d=" M149.3333333333333 192H192V149.3333333333334H149.3333333333333V192M448 320V21.3333333333334C448 -2.1333333333333 428.8 -21.3333333333333 405.3333333333333 -21.3333333333333H106.6666666666667C82.9866666666667 -21.3333333333333 64 -2.1333333333333 64 21.3333333333334V320C64 343.4666666666667 83.2 362.6666666666667 106.6666666666667 362.6666666666667H128V405.3333333333333H170.6666666666667V362.6666666666667H341.3333333333333V405.3333333333333H384V362.6666666666667H405.3333333333333C428.8 362.6666666666667 448 343.4666666666667 448 320M106.6666666666667 277.3333333333334H405.3333333333333V320H106.6666666666667V277.3333333333334M405.3333333333333 21.3333333333334V234.6666666666667H106.6666666666667V21.3333333333334H405.3333333333333M320 149.3333333333334V192H362.6666666666667V149.3333333333334H320M234.6666666666667 149.3333333333334V192H277.3333333333333V149.3333333333334H234.6666666666667M149.3333333333333 106.6666666666667H192V64H149.3333333333333V106.6666666666667M320 64V106.6666666666667H362.6666666666667V64H320M234.6666666666667 64V106.6666666666667H277.3333333333333V64H234.6666666666667z" /></svg>