<?xml version="1.0" encoding="UTF-8"?><!DOCTYPE svg PUBLIC "-//W3C//DTD SVG 1.1//EN" "http://www.w3.org/Graphics/SVG/1.1/DTD/svg11.dtd"><svg xmlns="http://www.w3.org/2000/svg" xmlns:xlink="http://www.w3.org/1999/xlink" version="1.1" width="512" height="512" viewBox="0 0 512 512">    <path fill="#ffffff" transform="scale(1, -1) translate(0, -448)" glyph-name="hook-off" unicode="&#xF6E2;" horiz-adv-x="512" d=" M277.3333333333333 237.6533333333334V209.4933333333334L320 166.8266666666667V237.6533333333334C365.6533333333333 249.3866666666667 393.1733333333333 295.8933333333334 381.2266666666667 341.3333333333334C369.4933333333334 387.2000000000001 322.9866666666667 414.7200000000001 277.3333333333333 402.9866666666667C231.68 391.04 204.16 344.5333333333334 216.1066666666666 298.6666666666668C224 268.8000000000001 247.2533333333334 245.3333333333334 277.3333333333333 237.6533333333334M298.6666666666667 362.6666666666667C322.1333333333334 362.6666666666667 341.3333333333333 343.4666666666667 341.3333333333333 320S322.1333333333334 277.3333333333334 298.6666666666667 277.3333333333334S256 296.5333333333334 256 320S275.2 362.6666666666667 298.6666666666667 362.6666666666667M399.5733333333333 -21.3333333333333L317.0133333333333 61.2266666666667C303.1466666666667 4.0533333333334 245.3333333333333 -31.1466666666666 188.3733333333333 -17.4933333333333C140.8 -5.9733333333334 106.6666666666667 36.48 106.6666666666667 85.3333333333334V192L213.3333333333333 85.3333333333334H149.3333333333333C149.3333333333333 49.92 177.92 21.3333333333334 213.3333333333333 21.3333333333334S277.3333333333333 49.92 277.3333333333333 85.3333333333334V100.9066666666667L42.6666666666667 335.5733333333334L69.9733333333333 362.6666666666667L277.3333333333333 155.3066666666667L320 112.64L426.6666666666667 5.9733333333334L399.5733333333333 -21.3333333333333z" /></svg>