<?xml version="1.0" encoding="UTF-8"?><!DOCTYPE svg PUBLIC "-//W3C//DTD SVG 1.1//EN" "http://www.w3.org/Graphics/SVG/1.1/DTD/svg11.dtd"><svg xmlns="http://www.w3.org/2000/svg" xmlns:xlink="http://www.w3.org/1999/xlink" version="1.1" width="512" height="512" viewBox="0 0 512 512">    <path fill="#ffffff" transform="scale(1, -1) translate(0, -448)" glyph-name="go-kart-track" unicode="&#xFD56;" horiz-adv-x="512" d=" M469.3333333333333 330.6666666666667C469.3333333333333 371.8400000000001 435.84 405.3333333333333 394.6666666666667 405.3333333333333S320 371.8400000000001 320 330.6666666666667V320C320 284.5866666666667 291.4133333333333 256 256 256C213.3333333333333 256 192 320 128 320C80.8533333333333 320 42.6666666666667 281.8133333333334 42.6666666666667 234.6666666666667V213.3333333333334H85.3333333333333V234.6666666666667C85.3333333333333 258.1333333333334 104.5333333333333 277.3333333333334 128 277.3333333333334C146.3466666666667 277.3333333333334 158.2933333333333 267.7333333333334 177.4933333333334 250.88C197.9733333333333 228.9066666666667 226.1333333333334 215.4666666666667 256 213.3333333333334C314.88 213.3333333333334 362.6666666666667 261.12 362.6666666666667 320V330.6666666666667C362.6666666666667 348.3733333333334 376.9600000000001 362.6666666666667 394.6666666666667 362.6666666666667S426.6666666666667 348.3733333333334 426.6666666666667 330.6666666666667C423.68 312.5333333333334 417.7066666666666 294.8266666666667 408.9600000000001 278.6133333333334C394.6666666666667 251.7333333333334 386.3466666666667 222.2933333333334 384 192C385.92 162.7733333333333 394.6666666666667 134.1866666666667 409.8133333333334 109.0133333333333C418.1333333333334 95.1466666666667 423.8933333333333 80 426.6666666666667 64C426.6666666666667 40.5333333333333 407.4666666666667 21.3333333333334 384 21.3333333333334S341.3333333333333 40.5333333333333 341.3333333333333 64C341.3333333333333 108.16 305.4933333333334 144 261.3333333333333 144C217.1733333333333 144 181.3333333333333 108.16 181.3333333333333 64V53.3333333333334C181.3333333333333 35.6266666666667 167.04 21.3333333333334 149.3333333333333 21.3333333333334C113.92 21.3333333333334 85.3333333333333 49.92 85.3333333333333 85.3333333333334V128H128V170.6666666666667H0V128H42.6666666666667V85.3333333333334C42.6666666666667 26.4533333333334 90.4533333333333 -21.3333333333333 149.3333333333333 -21.3333333333333C190.5066666666667 -21.3333333333333 224 12.16 224 53.3333333333334V64C224 84.6933333333333 240.64 101.3333333333334 261.3333333333333 101.3333333333334S298.6666666666667 84.6933333333333 298.6666666666667 64C298.6666666666667 16.8533333333334 336.8533333333333 -21.3333333333333 384 -21.3333333333333S469.3333333333333 16.8533333333334 469.3333333333333 64C469.3333333333333 106.6666666666667 426.6666666666667 149.3333333333334 426.6666666666667 192S469.3333333333333 288 469.3333333333333 330.6666666666667z" /></svg>