<?xml version="1.0" encoding="UTF-8"?><!DOCTYPE svg PUBLIC "-//W3C//DTD SVG 1.1//EN" "http://www.w3.org/Graphics/SVG/1.1/DTD/svg11.dtd"><svg xmlns="http://www.w3.org/2000/svg" xmlns:xlink="http://www.w3.org/1999/xlink" version="1.1" width="512" height="512" viewBox="0 0 512 512">    <path fill="#ffffff" transform="scale(1, -1) translate(0, -448)" glyph-name="adchoices" unicode="&#xFD1E;" horiz-adv-x="512" d=" M192 256C203.7333333333334 256 213.3333333333333 246.4000000000001 213.3333333333333 234.6666666666667S203.7333333333334 213.3333333333334 192 213.3333333333334S170.6666666666667 222.9333333333333 170.6666666666667 234.6666666666667S180.2666666666667 256 192 256M106.6666666666667 405.3333333333333C149.3333333333333 384 426.6666666666667 229.3333333333334 426.6666666666667 229.3333333333334S457.8133333333333 212.0533333333334 453.3333333333333 186.6666666666667C449.92 166.8266666666667 416 149.3333333333334 416 149.3333333333334L224 42.6666666666667S170.6666666666667 21.3333333333334 170.6666666666667 64V170.6666666666667S170.6666666666667 192 192 192S213.3333333333333 170.6666666666667 213.3333333333333 170.6666666666667V96L352 170.6666666666667S369.28 178.1333333333333 369.28 188.8S341.3333333333333 213.3333333333334 341.3333333333333 213.3333333333334L128 341.3333333333334S96 362.6666666666667 96 320V64S96.64 33.7066666666667 116.48 43.9466666666667C144.8533333333333 58.6666666666667 151.68 54.8266666666667 158.72 40.5333333333333C169.8133333333333 17.7066666666667 148.48 6.1866666666667 148.48 6.1866666666667L85.3333333333333 -26.6666666666666S42.6666666666667 -42.6666666666666 42.6666666666667 0V362.6666666666667C42.6666666666667 426.6666666666667 106.6666666666667 405.3333333333333 106.6666666666667 405.3333333333333z" /></svg>