<?xml version="1.0" encoding="UTF-8"?><!DOCTYPE svg PUBLIC "-//W3C//DTD SVG 1.1//EN" "http://www.w3.org/Graphics/SVG/1.1/DTD/svg11.dtd"><svg xmlns="http://www.w3.org/2000/svg" xmlns:xlink="http://www.w3.org/1999/xlink" version="1.1" width="512" height="512" viewBox="0 0 512 512">    <path fill="#ffffff" transform="scale(1, -1) translate(0, -448)" glyph-name="contrast-circle" unicode="&#xF197;" horiz-adv-x="512" d=" M256 21.3333333333334C208.8533333333333 21.3333333333334 166.1866666666667 40.5333333333333 135.2533333333333 71.2533333333333L376.7466666666667 312.7466666666667C407.4666666666667 281.8133333333334 426.6666666666667 239.1466666666667 426.6666666666667 192C426.6666666666667 97.7066666666667 350.2933333333334 21.3333333333334 256 21.3333333333334M128 277.3333333333334H170.6666666666667V320H202.6666666666667V277.3333333333334H245.3333333333333V245.3333333333334H202.6666666666667V202.6666666666667H170.6666666666667V245.3333333333334H128M256 405.3333333333333C138.24 405.3333333333333 42.6666666666667 309.76 42.6666666666667 192S138.24 -21.3333333333333 256 -21.3333333333333S469.3333333333333 74.24 469.3333333333333 192S373.76 405.3333333333333 256 405.3333333333333M256 106.6666666666667H362.6666666666667V138.6666666666667H256V106.6666666666667z" /></svg>