<?xml version="1.0" encoding="UTF-8"?><!DOCTYPE svg PUBLIC "-//W3C//DTD SVG 1.1//EN" "http://www.w3.org/Graphics/SVG/1.1/DTD/svg11.dtd"><svg xmlns="http://www.w3.org/2000/svg" xmlns:xlink="http://www.w3.org/1999/xlink" version="1.1" width="512" height="512" viewBox="0 0 512 512">    <path fill="#ffffff" transform="scale(1, -1) translate(0, -448)" glyph-name="open-source-initiative" unicode="&#xFB8A;" horiz-adv-x="512" d=" M328.7466666666667 -21.3333333333333H324.6933333333334C322.1333333333334 -20.2666666666666 320 -18.1333333333333 319.1466666666667 -15.5733333333333L271.7866666666667 108.16C269.8666666666667 113.28 272.4266666666666 119.04 277.3333333333333 121.1733333333334C292.48 126.72 304.64 138.6666666666667 311.04 152.96C324.6933333333334 183.4666666666667 311.04 219.0933333333333 280.5333333333333 232.7466666666667C250.0266666666667 246.4000000000001 214.4 232.7466666666667 200.7466666666667 202.6666666666667C194.3466666666666 187.52 193.92 170.6666666666667 199.68 155.9466666666667C206.08 140.16 218.6666666666667 128 234.6666666666667 122.0266666666667C239.7866666666667 120.1066666666667 242.56 114.3466666666667 240.64 109.0133333333334L192 -14.72C191.1466666666667 -17.28 189.2266666666666 -19.4133333333333 186.6666666666667 -20.48C184.1066666666667 -21.3333333333333 181.3333333333333 -21.3333333333333 178.9866666666667 -20.48C69.12 21.9733333333334 14.2933333333333 145.4933333333334 56.7466666666667 255.36C99.2 365.2266666666667 222.72 420.0533333333334 332.5866666666667 377.6C385.28 357.12 427.7333333333334 316.8000000000001 450.7733333333333 265.1733333333334C474.0266666666666 213.3333333333334 475.52 154.6666666666668 455.04 101.9733333333334C433.4933333333333 45.2266666666667 388.9066666666666 0 332.3733333333333 -21.3333333333333H328.7466666666666M256 371.4133333333334C149.9733333333333 374.1866666666667 61.8666666666667 290.3466666666667 59.0933333333333 184.3200000000001C57.1733333333333 104.96 104.1066666666666 32.64 177.4933333333334 2.1333333333334L217.8133333333333 106.6666666666667C178.7733333333334 128.0000000000001 164.0533333333334 176.6400000000001 185.1733333333334 215.6800000000001C206.2933333333334 254.7200000000001 255.1466666666667 269.2266666666668 294.1866666666667 248.3200000000001C333.2266666666667 227.2000000000001 347.9466666666667 178.3466666666668 326.8266666666667 139.3066666666667C319.36 125.4400000000001 308.0533333333334 114.1333333333334 294.1866666666667 106.6666666666667L334.5066666666667 1.4933333333333C381.0133333333334 22.4 417.4933333333334 60.5866666666667 436.0533333333334 108.16C475.3066666666667 206.72 427.5200000000001 318.2933333333334 328.9600000000001 357.76C305.7066666666668 366.9333333333334 280.9600000000001 371.6266666666667 256.0000000000001 371.4133333333333z" /></svg>