<?xml version="1.0" encoding="UTF-8"?><!DOCTYPE svg PUBLIC "-//W3C//DTD SVG 1.1//EN" "http://www.w3.org/Graphics/SVG/1.1/DTD/svg11.dtd"><svg xmlns="http://www.w3.org/2000/svg" xmlns:xlink="http://www.w3.org/1999/xlink" version="1.1" width="512" height="512" viewBox="0 0 512 512">    <path fill="#ffffff" transform="scale(1, -1) translate(0, -448)" glyph-name="google-circles-extended" unicode="&#xF2B2;" horiz-adv-x="512" d=" M384 42.6666666666667C360.32 42.6666666666667 341.3333333333333 61.8666666666667 341.3333333333333 85.3333333333334C341.3333333333333 109.0133333333333 360.32 128 384 128C407.4666666666667 128 426.6666666666667 108.8 426.6666666666667 85.3333333333334S407.4666666666667 42.6666666666667 384 42.6666666666667M384 170.6666666666667C336.8533333333333 170.6666666666667 298.6666666666667 132.48 298.6666666666667 85.3333333333334S336.8533333333333 0 384 0S469.3333333333333 38.1866666666667 469.3333333333333 85.3333333333334S431.1466666666667 170.6666666666667 384 170.6666666666667M256 211.2C233.6 211.2 215.4666666666667 193.0666666666667 215.4666666666667 170.6666666666667C215.4666666666667 148.2666666666667 233.6 130.1333333333333 256 130.1333333333333C278.4 130.1333333333333 296.5333333333333 148.2666666666667 296.5333333333333 170.6666666666667C296.5333333333333 193.0666666666667 278.4 211.2 256 211.2M128 42.6666666666667C104.32 42.6666666666667 85.3333333333333 61.8666666666667 85.3333333333333 85.3333333333334C85.3333333333333 109.0133333333333 104.32 128 128 128C151.4666666666667 128 170.6666666666667 108.8 170.6666666666667 85.3333333333334S151.4666666666667 42.6666666666667 128 42.6666666666667M128 170.6666666666667C80.8533333333333 170.6666666666667 42.6666666666667 132.48 42.6666666666667 85.3333333333334S80.8533333333333 0 128 0S213.3333333333333 38.1866666666667 213.3333333333333 85.3333333333334S175.1466666666667 170.6666666666667 128 170.6666666666667M256 362.6666666666667C279.4666666666667 362.6666666666667 298.6666666666667 343.4666666666667 298.6666666666667 320S279.4666666666667 277.3333333333334 256 277.3333333333334C232.32 277.3333333333334 213.3333333333333 296.5333333333334 213.3333333333333 320C213.3333333333333 343.68 232.32 362.6666666666667 256 362.6666666666667M256 234.6666666666667C303.1466666666667 234.6666666666667 341.3333333333333 272.8533333333334 341.3333333333333 320S303.1466666666667 405.3333333333333 256 405.3333333333333S170.6666666666667 367.1466666666667 170.6666666666667 320S208.8533333333333 234.6666666666667 256 234.6666666666667z" /></svg>