<?xml version="1.0" encoding="UTF-8"?><!DOCTYPE svg PUBLIC "-//W3C//DTD SVG 1.1//EN" "http://www.w3.org/Graphics/SVG/1.1/DTD/svg11.dtd"><svg xmlns="http://www.w3.org/2000/svg" xmlns:xlink="http://www.w3.org/1999/xlink" version="1.1" width="512" height="512" viewBox="0 0 512 512">    <path fill="#ffffff" transform="scale(1, -1) translate(0, -448)" glyph-name="calendar-range" unicode="&#xF678;" horiz-adv-x="512" d=" M192 234.6666666666667H149.3333333333333V192H192V234.6666666666667M277.3333333333333 234.6666666666667H234.6666666666667V192H277.3333333333333V234.6666666666667M362.6666666666667 234.6666666666667H320V192H362.6666666666667V234.6666666666667M405.3333333333333 384H384V426.6666666666667H341.3333333333333V384H170.6666666666667V426.6666666666667H128V384H106.6666666666667C82.9866666666667 384 64 364.8 64 341.3333333333334V42.6666666666667C64 19.2 83.2 0 106.6666666666667 0H405.3333333333333C428.8 0 448 19.2 448 42.6666666666667V341.3333333333334C448 364.8 428.8 384 405.3333333333333 384M405.3333333333333 42.6666666666667H106.6666666666667V277.3333333333334H405.3333333333333V42.6666666666667z" /></svg>