<?xml version="1.0" encoding="UTF-8"?><!DOCTYPE svg PUBLIC "-//W3C//DTD SVG 1.1//EN" "http://www.w3.org/Graphics/SVG/1.1/DTD/svg11.dtd"><svg xmlns="http://www.w3.org/2000/svg" xmlns:xlink="http://www.w3.org/1999/xlink" version="1.1" width="512" height="512" viewBox="0 0 512 512">    <path fill="#ffffff" transform="scale(1, -1) translate(0, -448)" glyph-name="wallet-travel" unicode="&#xF587;" horiz-adv-x="512" d=" M426.6666666666667 149.3333333333334H85.3333333333333V277.3333333333334H149.3333333333333V234.6666666666667H192V277.3333333333334H320V234.6666666666667H362.6666666666667V277.3333333333334H426.6666666666667M426.6666666666667 42.6666666666667H85.3333333333333V85.3333333333334H426.6666666666667M192 362.6666666666667H320V320H192M426.6666666666667 320H362.6666666666667V362.6666666666667C362.6666666666667 386.3466666666667 343.68 405.3333333333333 320 405.3333333333333H192C168.32 405.3333333333333 149.3333333333333 386.3466666666667 149.3333333333333 362.6666666666667V320H85.3333333333333C61.6533333333333 320 42.6666666666667 301.0133333333333 42.6666666666667 277.3333333333334V42.6666666666667C42.6666666666667 18.9866666666667 61.6533333333333 0 85.3333333333333 0H426.6666666666667C450.3466666666667 0 469.3333333333333 18.9866666666667 469.3333333333333 42.6666666666667V277.3333333333334C469.3333333333333 301.0133333333333 450.3466666666667 320 426.6666666666667 320z" /></svg>