<?xml version="1.0" encoding="UTF-8"?><!DOCTYPE svg PUBLIC "-//W3C//DTD SVG 1.1//EN" "http://www.w3.org/Graphics/SVG/1.1/DTD/svg11.dtd"><svg xmlns="http://www.w3.org/2000/svg" xmlns:xlink="http://www.w3.org/1999/xlink" version="1.1" width="512" height="512" viewBox="0 0 512 512">    <path fill="#ffffff" transform="scale(1, -1) translate(0, -448)" glyph-name="function-variant" unicode="&#xF870;" horiz-adv-x="512" d=" M264.96 335.1466666666667C241.4933333333334 337.28 220.8 320 218.6666666666667 296.32L213.3333333333333 234.6666666666667H273.4933333333334V192H209.4933333333334L200.1066666666667 83.84C195.84 36.9066666666667 154.4533333333333 2.1333333333334 107.52 6.4C80.8533333333334 8.7466666666667 56.7466666666667 23.4666666666667 42.6666666666667 46.2933333333334L74.6666666666667 78.2933333333334C81.7066666666667 55.8933333333334 105.8133333333334 43.3066666666667 128 50.5600000000001C144.64 55.68 156.3733333333333 70.4 157.8666666666667 87.68L166.8266666666667 192H102.8266666666667V234.6666666666667H170.6666666666667L176.4266666666667 300.1600000000001C180.48 347.0933333333334 221.6533333333333 381.8666666666667 268.8 378.0266666666667C295.68 375.68 320 360.7466666666667 334.08 337.7066666666667L302.08 305.7066666666667C296.7466666666667 322.1333333333334 282.24 333.6533333333334 264.96 335.1466666666667M469.3333333333333 156.8L439.2533333333334 186.88L378.88 126.5066666666667L318.5066666666666 186.88L288 156.8L348.8 96L288 36.0533333333334L318.5066666666666 5.9733333333334L378.88 66.3466666666667L439.2533333333332 5.9733333333334L469.3333333333333 36.0533333333334L408.9600000000001 96L469.3333333333333 156.8z" /></svg>