<?xml version="1.0" encoding="UTF-8"?><!DOCTYPE svg PUBLIC "-//W3C//DTD SVG 1.1//EN" "http://www.w3.org/Graphics/SVG/1.1/DTD/svg11.dtd"><svg xmlns="http://www.w3.org/2000/svg" xmlns:xlink="http://www.w3.org/1999/xlink" version="1.1" width="512" height="512" viewBox="0 0 512 512">    <path fill="#ffffff" transform="scale(1, -1) translate(0, -448)" glyph-name="select-inverse" unicode="&#xF487;" horiz-adv-x="512" d=" M106.6666666666667 384H149.3333333333333V341.3333333333334H192V384H234.6666666666667V341.3333333333334H277.3333333333333V384H320V341.3333333333334H362.6666666666667V384H405.3333333333333V341.3333333333334H448V298.6666666666667H405.3333333333333V256H448V213.3333333333334H405.3333333333333V170.6666666666667H448V128H405.3333333333333V85.3333333333334H448V42.6666666666667H405.3333333333333V0H362.6666666666667V42.6666666666667H320V0H277.3333333333333V42.6666666666667H234.6666666666667V0H192V42.6666666666667H149.3333333333333V0H106.6666666666667V42.6666666666667H64V85.3333333333334H106.6666666666667V128H64V170.6666666666667H106.6666666666667V213.3333333333334H64V256H106.6666666666667V298.6666666666667H64V341.3333333333334H106.6666666666667V384z" /></svg>