<?xml version="1.0" encoding="UTF-8"?><!DOCTYPE svg PUBLIC "-//W3C//DTD SVG 1.1//EN" "http://www.w3.org/Graphics/SVG/1.1/DTD/svg11.dtd"><svg xmlns="http://www.w3.org/2000/svg" xmlns:xlink="http://www.w3.org/1999/xlink" version="1.1" width="512" height="512" viewBox="0 0 512 512">    <path fill="#ffffff" transform="scale(1, -1) translate(0, -448)" glyph-name="thumb-down" unicode="&#xF511;" horiz-adv-x="512" d=" M405.3333333333333 128H490.6666666666666V384H405.3333333333333M320 384H128C110.2933333333333 384 95.1466666666667 373.3333333333334 88.7466666666667 357.9733333333334L24.32 207.5733333333334C22.4 202.6666666666667 21.3333333333333 197.5466666666667 21.3333333333333 192V149.3333333333334C21.3333333333333 125.8666666666667 40.5333333333333 106.6666666666667 64 106.6666666666667H198.6133333333333L178.3466666666666 9.1733333333333C177.92 7.04 177.7066666666667 4.9066666666667 177.7066666666667 2.5600000000001C177.7066666666667 -6.4 181.3333333333333 -14.2933333333333 187.0933333333333 -20.0533333333333L209.7066666666667 -42.6666666666666L350.08 97.92C357.9733333333334 105.6 362.6666666666667 116.2666666666667 362.6666666666667 128V341.3333333333334C362.6666666666667 365.0133333333333 343.4666666666667 384 320 384z" /></svg>