<?xml version="1.0" encoding="UTF-8"?><!DOCTYPE svg PUBLIC "-//W3C//DTD SVG 1.1//EN" "http://www.w3.org/Graphics/SVG/1.1/DTD/svg11.dtd"><svg xmlns="http://www.w3.org/2000/svg" xmlns:xlink="http://www.w3.org/1999/xlink" version="1.1" width="512" height="512" viewBox="0 0 512 512">    <path fill="#ffffff" transform="scale(1, -1) translate(0, -448)" glyph-name="ruler-square" unicode="&#xFC9E;" horiz-adv-x="512" d=" M64 341.3333333333334V0H192V32H149.3333333333333V64H192V96H106.6666666666667V128H192V160H149.3333333333333V192H192V224H106.6666666666667V256H192V341.3333333333334H224V256H256V298.6666666666667H288V256H320V341.3333333333334H352V256H384V298.6666666666667H416V256H448V384H106.6666666666667C83.2 384 64 364.8 64 341.3333333333334M128 298.6666666666667C116.2666666666667 298.6666666666667 106.6666666666667 308.2666666666667 106.6666666666667 320S116.2666666666667 341.3333333333334 128 341.3333333333334S149.3333333333333 331.7333333333334 149.3333333333333 320S139.7333333333333 298.6666666666667 128 298.6666666666667z" /></svg>