<?xml version="1.0" encoding="UTF-8"?><!DOCTYPE svg PUBLIC "-//W3C//DTD SVG 1.1//EN" "http://www.w3.org/Graphics/SVG/1.1/DTD/svg11.dtd"><svg xmlns="http://www.w3.org/2000/svg" xmlns:xlink="http://www.w3.org/1999/xlink" version="1.1" width="512" height="512" viewBox="0 0 512 512">    <path fill="#ffffff" transform="scale(1, -1) translate(0, -448)" glyph-name="umbraco" unicode="&#xF549;" horiz-adv-x="512" d=" M183.4666666666667 264.5333333333334L152.96 269.2266666666667C138.6666666666667 199.0400000000001 137.8133333333333 144.2133333333334 162.3466666666667 117.3333333333334C183.4666666666667 93.6533333333334 253.6533333333334 93.6533333333334 253.6533333333334 93.6533333333334S326.1866666666667 93.6533333333334 347.3066666666667 117.3333333333334C371.84 144.2133333333334 370.7733333333334 199.04 356.6933333333334 269.2266666666667L326.1866666666667 264.5333333333334S352.8533333333334 151.8933333333334 313.3866666666667 134.6133333333334C294.6133333333334 126.5066666666667 253.6533333333334 126.5066666666667 253.6533333333334 126.5066666666667S215.0400000000001 126.5066666666667 196.2666666666668 134.6133333333334C156.8000000000001 151.8933333333334 183.4666666666668 264.5333333333334 183.4666666666668 264.5333333333334M256 384C362.0266666666667 384 448 298.0266666666667 448 192S362.0266666666667 0 256 0S64 85.9733333333334 64 192S149.9733333333333 384 256 384z" /></svg>