<?xml version="1.0" encoding="UTF-8"?><!DOCTYPE svg PUBLIC "-//W3C//DTD SVG 1.1//EN" "http://www.w3.org/Graphics/SVG/1.1/DTD/svg11.dtd"><svg xmlns="http://www.w3.org/2000/svg" xmlns:xlink="http://www.w3.org/1999/xlink" version="1.1" width="512" height="512" viewBox="0 0 512 512">    <path fill="#ffffff" transform="scale(1, -1) translate(0, -448)" glyph-name="account-multiple-minus-outline" unicode="&#xFBC1;" horiz-adv-x="512" d=" M277.3333333333333 170.6666666666667C320 170.6666666666667 405.3333333333333 149.3333333333334 405.3333333333333 106.6666666666667V64H149.3333333333333V106.6666666666667C149.3333333333333 149.3333333333334 234.6666666666667 170.6666666666667 277.3333333333333 170.6666666666667M418.56 167.2533333333333C461.4399999999999 160 512 139.52 512 106.6666666666667V64H448V106.6666666666667C448 131.84 436.2666666666667 151.8933333333334 418.56 167.2533333333333M277.3333333333333 213.3333333333334C241.92 213.3333333333334 213.3333333333333 241.92 213.3333333333333 277.3333333333334S241.92 341.3333333333334 277.3333333333333 341.3333333333334S341.3333333333333 312.7466666666667 341.3333333333333 277.3333333333334S312.7466666666667 213.3333333333334 277.3333333333333 213.3333333333334M384 213.3333333333334C377.1733333333333 213.3333333333334 370.56 214.4 364.3733333333333 216.5333333333334C376.5333333333333 233.8133333333334 384 254.7200000000001 384 277.3333333333334S376.5333333333333 321.0666666666667 364.3733333333333 338.3466666666667C370.56 340.2666666666667 377.1733333333333 341.3333333333333 384 341.3333333333333C419.4133333333333 341.3333333333333 448 312.7466666666667 448 277.3333333333334S419.4133333333333 213.3333333333334 384 213.3333333333334M170.6666666666667 234.6666666666667V192H0V234.6666666666667H170.6666666666667M277.3333333333333 309.3333333333334C259.6266666666667 309.3333333333334 245.3333333333333 295.04 245.3333333333333 277.3333333333334S259.6266666666667 245.3333333333334 277.3333333333333 245.3333333333334S309.3333333333333 259.6266666666667 309.3333333333333 277.3333333333334S295.04 309.3333333333334 277.3333333333333 309.3333333333334M181.3333333333333 96H373.3333333333333V106.6666666666667C373.3333333333333 124.3733333333333 330.6666666666667 138.6666666666667 277.3333333333333 138.6666666666667S181.3333333333333 124.3733333333333 181.3333333333333 106.6666666666667V96z" /></svg>