<?xml version="1.0" encoding="UTF-8"?><!DOCTYPE svg PUBLIC "-//W3C//DTD SVG 1.1//EN" "http://www.w3.org/Graphics/SVG/1.1/DTD/svg11.dtd"><svg xmlns="http://www.w3.org/2000/svg" xmlns:xlink="http://www.w3.org/1999/xlink" version="1.1" width="512" height="512" viewBox="0 0 512 512">    <path fill="#ffffff" transform="scale(1, -1) translate(0, -448)" glyph-name="alarm-off" unicode="&#xF023;" horiz-adv-x="512" d=" M170.6666666666667 378.0266666666667L140.8 408.32L122.4533333333333 393.1733333333334L152.7466666666667 362.6666666666667M351.36 55.68C325.5466666666666 34.3466666666667 292.2666666666667 21.3333333333334 256 21.3333333333334C173.44 21.3333333333334 106.6666666666667 88.1066666666667 106.6666666666667 170.6666666666667C106.6666666666667 206.9333333333333 119.68 240.2133333333334 141.0133333333333 266.0266666666667M62.2933333333333 399.1466666666667L35.2 371.8400000000001L64 343.4666666666667L39.8933333333333 323.6266666666667L70.1866666666667 293.3333333333334L93.8666666666667 313.3866666666667L110.9333333333333 296.32C81.7066666666667 262.6133333333334 64 218.6666666666667 64 170.6666666666667C64 64.64 149.9733333333333 -21.3333333333333 256 -21.3333333333333C304 -21.3333333333333 347.9466666666666 -3.6266666666667 381.6533333333333 25.6L428.5866666666667 -21.3333333333333L455.6799999999999 5.76L82.9866666666667 378.24L62.2933333333333 399.1466666666667M469.3333333333333 325.9733333333334L371.2 408.32L343.68 375.68L441.8133333333334 293.3333333333334L469.3333333333333 325.9733333333334M256 320C338.56 320 405.3333333333333 253.2266666666667 405.3333333333333 170.6666666666667C405.3333333333333 152.7466666666667 401.92 135.4666666666667 396.16 119.4666666666667L428.5866666666667 87.04C440.9599999999999 112.4266666666666 448 140.5866666666667 448 170.6666666666666C448 276.6933333333334 362.0266666666667 362.6666666666667 256 362.6666666666667C225.92 362.6666666666667 197.76 355.6266666666667 172.3733333333333 343.2533333333334L204.8 310.8266666666667C220.8 316.5866666666667 238.08 320 256 320z" /></svg>