<?xml version="1.0" encoding="UTF-8"?><!DOCTYPE svg PUBLIC "-//W3C//DTD SVG 1.1//EN" "http://www.w3.org/Graphics/SVG/1.1/DTD/svg11.dtd"><svg xmlns="http://www.w3.org/2000/svg" xmlns:xlink="http://www.w3.org/1999/xlink" version="1.1" width="512" height="512" viewBox="0 0 512 512">    <path fill="#ffffff" transform="scale(1, -1) translate(0, -448)" glyph-name="doorbell-video" unicode="&#xF868;" horiz-adv-x="512" d=" M170.0266666666667 405.3333333333333C146.3466666666667 405.3333333333333 128 386.56 128 362.6666666666667V23.04C128 -0.64 146.3466666666667 -19.4133333333333 170.0266666666667 -19.4133333333333H340.0533333333333C363.52 -19.4133333333333 382.5066666666667 -0.64 382.5066666666667 23.04V362.6666666666667C382.5066666666667 386.56 363.52 405.3333333333333 340.0533333333333 405.3333333333333H170.0266666666667M254.9333333333333 330.6666666666667C272.64 330.6666666666667 286.9333333333333 316.8 286.9333333333333 299.3066666666667C286.9333333333333 281.6 272.64 267.3066666666668 254.9333333333333 267.3066666666668C237.44 267.3066666666668 223.1466666666667 281.6 223.1466666666667 299.3066666666668C223.1466666666667 316.8000000000001 237.44 330.6666666666667 254.9333333333333 330.6666666666667M170.0266666666667 235.52H340.0533333333333V23.04H170.0266666666667V235.52M256 170.6666666666667C232.5333333333334 170.6666666666667 213.3333333333333 152.1066666666667 213.3333333333333 128.64S232.5333333333334 85.9733333333334 256 85.9733333333334S298.6666666666667 105.1733333333334 298.6666666666667 128.6400000000001S279.4666666666667 170.6666666666667 256 170.6666666666667z" /></svg>