<?xml version="1.0" encoding="UTF-8"?><!DOCTYPE svg PUBLIC "-//W3C//DTD SVG 1.1//EN" "http://www.w3.org/Graphics/SVG/1.1/DTD/svg11.dtd"><svg xmlns="http://www.w3.org/2000/svg" xmlns:xlink="http://www.w3.org/1999/xlink" version="1.1" width="512" height="512" viewBox="0 0 512 512">    <path fill="#ffffff" transform="scale(1, -1) translate(0, -448)" glyph-name="one-up" unicode="&#xFB89;" horiz-adv-x="512" d=" M213.3333333333333 42.6666666666667C200.5333333333333 42.6666666666667 192 51.2 192 64V85.3333333333334C192 96 200.5333333333333 106.6666666666667 213.3333333333333 106.6666666666667C224 106.6666666666667 234.6666666666667 98.1333333333334 234.6666666666667 85.3333333333334V64C234.6666666666667 51.2 226.1333333333334 42.6666666666667 213.3333333333333 42.6666666666667M320 64V85.3333333333334C320 96 311.4666666666667 106.6666666666667 298.6666666666667 106.6666666666667C288 106.6666666666667 277.3333333333333 98.1333333333334 277.3333333333333 85.3333333333334V64C277.3333333333333 53.3333333333334 285.8666666666667 42.6666666666667 298.6666666666667 42.6666666666667S320 51.2 320 64M469.3333333333333 192C469.3333333333333 136.5333333333334 435.2 87.4666666666667 384 55.4666666666667V21.3333333333334C384 -2.1333333333333 364.8 -21.3333333333333 341.3333333333333 -21.3333333333333H170.6666666666667C147.2 -21.3333333333333 128 -2.1333333333333 128 21.3333333333334V55.4666666666667C76.8 87.4666666666667 42.6666666666667 136.5333333333334 42.6666666666667 192.0000000000001C42.6666666666667 309.76 138.24 405.3333333333333 256 405.3333333333333S469.3333333333333 309.76 469.3333333333333 192M149.3333333333333 234.6666666666667C149.3333333333333 258.1333333333334 136.5333333333333 279.4666666666667 117.3333333333333 290.1333333333334C96 262.4000000000001 85.3333333333333 228.2666666666667 85.3333333333333 192C85.3333333333333 185.6 85.3333333333333 177.0666666666667 87.4666666666667 170.6666666666667C121.6 172.8 149.3333333333333 200.5333333333334 149.3333333333333 234.6666666666667M192 256C192 219.7333333333334 219.7333333333334 192 256 192S320 219.7333333333334 320 256S292.2666666666667 320 256 320S192 292.2666666666667 192 256M341.3333333333333 21.3333333333334V117.3333333333334C315.7333333333334 123.7333333333334 285.8666666666667 128 256 128S196.2666666666667 123.7333333333334 170.6666666666667 117.3333333333334V21.3333333333334H341.3333333333333M424.5333333333333 170.6666666666667C426.6666666666667 177.0666666666667 426.6666666666667 185.6 426.6666666666667 192C426.6666666666667 228.2666666666667 416 262.4000000000001 394.6666666666667 290.1333333333334C375.4666666666667 279.4666666666667 362.6666666666667 258.1333333333334 362.6666666666667 234.6666666666667C362.6666666666667 200.5333333333334 390.4 172.8 424.5333333333333 170.6666666666667z" /></svg>