<?xml version="1.0" encoding="UTF-8"?><!DOCTYPE svg PUBLIC "-//W3C//DTD SVG 1.1//EN" "http://www.w3.org/Graphics/SVG/1.1/DTD/svg11.dtd"><svg xmlns="http://www.w3.org/2000/svg" xmlns:xlink="http://www.w3.org/1999/xlink" version="1.1" width="512" height="512" viewBox="0 0 512 512">    <path fill="#ffffff" transform="scale(1, -1) translate(0, -448)" glyph-name="panorama-horizontal" unicode="&#xF3DE;" horiz-adv-x="512" d=" M457.1733333333333 362.6666666666667C455.04 362.6666666666667 452.9066666666666 362.6666666666667 450.56 361.3866666666667C387.84 337.92 321.92 326.4 256 326.4C190.08 326.4 124.16 338.1333333333334 61.44 361.3866666666667C59.0933333333333 362.6666666666667 56.7466666666667 362.6666666666667 54.8266666666667 362.6666666666667C47.5733333333333 362.6666666666667 42.6666666666667 357.76 42.6666666666667 349.2266666666667V34.5600000000001C42.6666666666667 26.24 47.5733333333333 21.3333333333334 54.8266666666667 21.3333333333334C56.96 21.3333333333334 59.0933333333333 21.3333333333334 61.44 22.6133333333333C124.16 46.08 190.08 57.6 256 57.6C321.92 57.6 387.84 45.8666666666667 450.5599999999999 22.6133333333333C452.9066666666666 21.3333333333334 455.04 21.3333333333334 457.1733333333332 21.3333333333334C464.2133333333332 21.3333333333334 469.3333333333333 26.24 469.3333333333333 34.7733333333333V349.2266666666667C469.3333333333333 357.76 464.2133333333333 362.6666666666667 457.1733333333332 362.6666666666667M426.6666666666667 308.48V75.7333333333334C371.2 92.16 314.0266666666667 100.48 256 100.48C197.9733333333333 100.48 140.8 92.16 85.3333333333333 75.7333333333334V308.48C140.8 292.0533333333334 197.9733333333334 283.7333333333334 256 283.7333333333334C314.0266666666667 283.52 371.2 291.8400000000001 426.6666666666667 308.48z" /></svg>