<?xml version="1.0" encoding="UTF-8"?><!DOCTYPE svg PUBLIC "-//W3C//DTD SVG 1.1//EN" "http://www.w3.org/Graphics/SVG/1.1/DTD/svg11.dtd"><svg xmlns="http://www.w3.org/2000/svg" xmlns:xlink="http://www.w3.org/1999/xlink" version="1.1" width="512" height="512" viewBox="0 0 512 512">    <path fill="#ffffff" transform="scale(1, -1) translate(0, -448)" glyph-name="map-marker-distance" unicode="&#xF8EF;" horiz-adv-x="512" d=" M138.6666666666667 274.9866666666667C119.68 274.9866666666667 104.32 290.3466666666667 104.32 309.3333333333334C104.32 328.3200000000001 119.68 343.6800000000001 138.6666666666667 343.6800000000001C157.6533333333333 343.6800000000001 173.0133333333333 328.3200000000001 173.0133333333333 309.3333333333334C173.0133333333333 290.3466666666667 157.6533333333333 274.9866666666667 138.6666666666666 274.9866666666667M138.6666666666667 405.3333333333333C85.3333333333333 405.3333333333333 42.6666666666667 362.6666666666667 42.6666666666667 309.3333333333334C42.6666666666667 237.44 138.6666666666667 130.9866666666667 138.6666666666667 130.9866666666667S234.6666666666667 237.4400000000001 234.6666666666667 309.3333333333334C234.6666666666667 362.6666666666667 192 405.3333333333333 138.6666666666667 405.3333333333333M373.3333333333333 274.9866666666667C354.3466666666667 274.9866666666667 338.9866666666667 290.3466666666667 338.9866666666667 309.3333333333334C338.9866666666667 328.3200000000001 354.3466666666667 343.6800000000001 373.3333333333333 343.6800000000001C392.32 343.6800000000001 407.68 328.3200000000001 407.68 309.3333333333334C407.68 290.3466666666667 392.32 274.9866666666667 373.3333333333333 274.9866666666667M373.3333333333333 405.3333333333334C320 405.3333333333333 277.3333333333333 362.6666666666667 277.3333333333333 309.3333333333334C277.3333333333333 237.44 373.3333333333333 130.9866666666667 373.3333333333333 130.9866666666667S469.3333333333333 237.4400000000001 469.3333333333333 309.3333333333334C469.3333333333333 362.6666666666667 426.6666666666667 405.3333333333333 373.3333333333333 405.3333333333333M373.3333333333333 106.6666666666667C346.24 106.6666666666667 322.1333333333334 89.6 313.1733333333333 64H198.8266666666667C187.0933333333333 97.28 150.4 114.7733333333333 117.3333333333333 103.04C83.84 91.3066666666666 66.3466666666667 54.6133333333333 78.08 21.3333333333334C90.0266666666667 -11.9466666666666 126.5066666666667 -29.4399999999999 160 -17.7066666666666C178.1333333333333 -11.3066666666666 192 3.2 198.8266666666667 21.3333333333334H313.3866666666667C325.12 -11.9466666666666 361.8133333333334 -29.4399999999999 394.6666666666667 -17.7066666666666C428.3733333333333 -5.9733333333332 445.8666666666666 30.72 434.1333333333334 64C424.9600000000001 89.6 400.64 106.6666666666667 373.3333333333333 106.6666666666667M373.3333333333333 10.6666666666667C355.6266666666667 10.6666666666667 341.3333333333333 24.96 341.3333333333333 42.6666666666667S355.6266666666667 74.6666666666667 373.3333333333333 74.6666666666667S405.3333333333333 60.3733333333333 405.3333333333333 42.6666666666667S391.04 10.6666666666667 373.3333333333333 10.6666666666667z" /></svg>