<?xml version="1.0" encoding="UTF-8"?><!DOCTYPE svg PUBLIC "-//W3C//DTD SVG 1.1//EN" "http://www.w3.org/Graphics/SVG/1.1/DTD/svg11.dtd"><svg xmlns="http://www.w3.org/2000/svg" xmlns:xlink="http://www.w3.org/1999/xlink" version="1.1" width="512" height="512" viewBox="0 0 512 512">    <path fill="#ffffff" transform="scale(1, -1) translate(0, -448)" glyph-name="reflect-vertical" unicode="&#xFA0E;" horiz-adv-x="512" d=" M384 -42.6666666666666H128C119.68 -42.6666666666666 112.2133333333333 -38.1866666666666 108.5866666666667 -30.9333333333333C104.96 -23.6799999999999 105.8133333333333 -14.9333333333333 110.72 -8.5333333333333L238.9333333333333 162.5600000000001C247.04 173.4400000000001 264.96 173.4400000000001 273.0666666666666 162.5600000000001L401.28 -8.5333333333333C406.1866666666666 -14.9333333333333 407.04 -23.6799999999999 403.4133333333333 -30.9333333333333C399.7866666666667 -38.1866666666666 392.32 -42.6666666666666 384 -42.6666666666666M384 426.6666666666667C392.32 426.6666666666667 399.7866666666667 422.1866666666667 403.4133333333333 414.9333333333334C407.04 407.68 406.1866666666666 398.9333333333334 401.28 392.5333333333333L273.0666666666666 221.44C264.9599999999999 210.56 247.04 210.56 238.9333333333333 221.44L110.72 392.5333333333333C105.8133333333333 398.9333333333334 104.96 407.68 108.5866666666667 414.9333333333334C112.2133333333333 422.1866666666667 119.68 426.6666666666667 128 426.6666666666667H384M170.6666666666667 384L256 269.8666666666667L341.3333333333333 384H170.6666666666667z" /></svg>