<?xml version="1.0" encoding="UTF-8"?><!DOCTYPE svg PUBLIC "-//W3C//DTD SVG 1.1//EN" "http://www.w3.org/Graphics/SVG/1.1/DTD/svg11.dtd"><svg xmlns="http://www.w3.org/2000/svg" xmlns:xlink="http://www.w3.org/1999/xlink" version="1.1" width="512" height="512" viewBox="0 0 512 512">    <path fill="#ffffff" transform="scale(1, -1) translate(0, -448)" glyph-name="heart-pulse" unicode="&#xF5F6;" horiz-adv-x="512" d=" M160 362.6666666666667C95.1466666666667 362.6666666666667 42.6666666666667 310.1866666666667 42.6666666666667 245.3333333333334C42.6666666666667 234.6666666666667 44.5866666666667 224 47.36 213.3333333333334H134.4L161.4933333333334 285.2266666666667C167.8933333333333 302.2933333333334 193.0666666666667 304 201.1733333333333 285.2266666666667L245.3333333333333 170.6666666666667L257.92 200.96C260.6933333333334 208 268.16 213.3333333333334 277.3333333333333 213.3333333333334H464.64C467.4133333333333 224 469.3333333333333 234.6666666666667 469.3333333333333 245.3333333333334C469.3333333333333 310.1866666666667 416.8533333333333 362.6666666666667 352 362.6666666666667C312.32 362.6666666666667 277.3333333333333 342.8266666666667 256 312.7466666666667C234.6666666666667 342.8266666666667 199.68 362.6666666666667 160 362.6666666666667M64 181.3333333333334C52.2666666666667 181.3333333333334 42.6666666666667 171.7333333333334 42.6666666666667 160S52.2666666666667 138.6666666666667 64 138.6666666666667H116.0533333333333L234.6666666666667 21.3333333333334C256 2.1333333333334 256 2.1333333333334 277.3333333333333 21.3333333333334L395.9466666666666 138.6666666666667H448C459.7333333333333 138.6666666666667 469.3333333333333 148.2666666666667 469.3333333333333 160S459.7333333333333 181.3333333333334 448 181.3333333333334H285.8666666666667L266.0266666666667 132.2666666666667C257.4933333333334 110.72 232.96 113.7066666666667 225.0666666666667 131.6266666666667L181.3333333333333 245.3333333333334L160.8533333333333 195.6266666666667C157.6533333333333 187.52 150.4 181.3333333333334 140.8 181.3333333333334H64z" /></svg>