<?xml version="1.0" encoding="UTF-8"?><!DOCTYPE svg PUBLIC "-//W3C//DTD SVG 1.1//EN" "http://www.w3.org/Graphics/SVG/1.1/DTD/svg11.dtd"><svg xmlns="http://www.w3.org/2000/svg" xmlns:xlink="http://www.w3.org/1999/xlink" version="1.1" width="512" height="512" viewBox="0 0 512 512">    <path fill="#ffffff" transform="scale(1, -1) translate(0, -448)" glyph-name="airport" unicode="&#xF84A;" horiz-adv-x="512" d=" M319.36 321.7066666666667C316.3733333333334 332.5866666666667 305.0666666666667 339.2000000000001 294.1866666666667 336.2133333333334L221.6533333333333 316.8L126.9333333333333 404.6933333333334L100.6933333333333 397.6533333333333L157.44 299.7333333333334L89.3866666666667 281.6L62.5066666666667 302.5066666666667L42.6666666666667 297.1733333333334L78.08 235.7333333333334L304.64 296.3200000000001C315.7333333333334 299.5200000000001 322.1333333333334 310.8266666666667 319.36 321.7066666666667M448 234.6666666666667L426.6666666666667 192H320L298.6666666666667 234.6666666666667L320 256H362.6666666666667V298.6666666666667H384V256H426.6666666666667L448 234.6666666666667M469.3333333333333 21.3333333333334V-21.3333333333333H42.6666666666667V21.3333333333334H320V170.6666666666667H426.6666666666667V21.3333333333334H469.3333333333333z" /></svg>