<?xml version="1.0" encoding="UTF-8"?><!DOCTYPE svg PUBLIC "-//W3C//DTD SVG 1.1//EN" "http://www.w3.org/Graphics/SVG/1.1/DTD/svg11.dtd"><svg xmlns="http://www.w3.org/2000/svg" xmlns:xlink="http://www.w3.org/1999/xlink" version="1.1" width="512" height="512" viewBox="0 0 512 512">    <path fill="#ffffff" transform="scale(1, -1) translate(0, -448)" glyph-name="ballot-recount-outline" unicode="&#xFC16;" horiz-adv-x="512" d=" M128 64V170.6666666666667H234.6666666666667V64H128M149.3333333333333 149.3333333333334V85.3333333333334H213.3333333333333V149.3333333333334H149.3333333333333M277.3333333333333 288H384V245.3333333333334H277.3333333333333V288M106.6666666666667 0C83.2 0 64 19.2 64 42.6666666666667V341.3333333333334C64 364.8 83.2 384 106.6666666666667 384H405.3333333333333C428.8 384 448 364.8 448 341.3333333333334V209.7066666666667C437.3333333333333 212.0533333333334 426.6666666666667 213.3333333333334 416 213.3333333333334H405.3333333333333V341.3333333333334H106.6666666666667V42.6666666666667H280.96C284.5866666666667 27.3066666666667 290.7733333333333 13.0133333333333 298.6666666666667 0H106.6666666666667M234.6666666666667 320V213.3333333333334H128V320H234.6666666666667M213.3333333333333 234.6666666666667V298.6666666666667H149.3333333333333V234.6666666666667H213.3333333333333M405.3333333333333 192V160C452.48 160 490.6666666666666 121.8133333333334 490.6666666666666 74.6666666666667C490.6666666666666 57.1733333333334 485.3333333333333 40.96 476.3733333333333 27.52L453.1199999999999 50.7733333333333C456.7466666666667 58.0266666666666 458.6666666666666 66.1333333333333 458.6666666666666 74.6666666666667C458.6666666666666 104.1066666666667 434.7733333333333 128 405.3333333333333 128V96L357.3333333333333 144L405.3333333333333 192M405.3333333333333 -42.6666666666666V-10.6666666666666C358.1866666666666 -10.6666666666666 320 27.52 320 74.6666666666667C320 92.16 325.3333333333333 108.3733333333333 334.2933333333333 121.8133333333334L357.5466666666667 98.5600000000001C353.92 91.3066666666667 352 83.2000000000001 352 74.6666666666667C352 45.2266666666667 375.8933333333333 21.3333333333334 405.3333333333333 21.3333333333334V53.3333333333334L453.3333333333333 5.3333333333334L405.3333333333333 -42.6666666666666z" /></svg>