<?xml version="1.0" encoding="UTF-8"?><!DOCTYPE svg PUBLIC "-//W3C//DTD SVG 1.1//EN" "http://www.w3.org/Graphics/SVG/1.1/DTD/svg11.dtd"><svg xmlns="http://www.w3.org/2000/svg" xmlns:xlink="http://www.w3.org/1999/xlink" version="1.1" width="512" height="512" viewBox="0 0 512 512">    <path fill="#ffffff" transform="scale(1, -1) translate(0, -448)" glyph-name="grid-off" unicode="&#xF2C2;" horiz-adv-x="512" d=" M0 388.9066666666667L27.3066666666667 416L480 -36.6933333333333L452.9066666666666 -64L410.24 -21.3333333333333H85.3333333333333C62.2933333333333 -21.3333333333333 42.6666666666667 -2.1333333333333 42.6666666666667 21.3333333333334V346.24L0 388.9066666666667M213.3333333333333 362.6666666666667V284.1600000000001L170.6666666666667 326.8266666666667V362.6666666666667H134.8266666666667L92.16 405.3333333333333H426.6666666666667C450.1333333333334 405.3333333333333 469.3333333333333 386.1333333333334 469.3333333333333 362.6666666666667V27.7333333333334L426.6666666666667 70.4V106.6666666666667H390.8266666666667L348.16 149.3333333333334H426.6666666666667V234.6666666666667H341.3333333333333V156.16L298.6666666666667 198.8266666666667V234.6666666666667H262.8266666666667L220.16 277.3333333333334H298.6666666666667V362.6666666666667H213.3333333333333M341.3333333333333 362.6666666666667V277.3333333333334H426.6666666666667V362.6666666666667H341.3333333333333M341.3333333333333 21.3333333333334H367.5733333333333L341.3333333333333 47.5733333333334V21.3333333333334M85.3333333333333 277.3333333333334H111.5733333333333L85.3333333333333 303.5733333333334V277.3333333333334M213.3333333333333 149.3333333333334H239.5733333333333L213.3333333333333 175.5733333333334V149.3333333333334M298.6666666666667 21.3333333333334V90.24L282.24 106.6666666666667H213.3333333333333V21.3333333333334H298.6666666666667M170.6666666666667 21.3333333333334V106.6666666666667H85.3333333333333V21.3333333333334H170.6666666666667M170.6666666666667 149.3333333333334V218.24L154.24 234.6666666666667H85.3333333333333V149.3333333333334H170.6666666666667z" /></svg>