<?xml version="1.0" encoding="UTF-8"?><!DOCTYPE svg PUBLIC "-//W3C//DTD SVG 1.1//EN" "http://www.w3.org/Graphics/SVG/1.1/DTD/svg11.dtd"><svg xmlns="http://www.w3.org/2000/svg" xmlns:xlink="http://www.w3.org/1999/xlink" version="1.1" width="512" height="512" viewBox="0 0 512 512">    <path fill="#ffffff" transform="scale(1, -1) translate(0, -448)" glyph-name="help-rhombus-outline" unicode="&#xFB82;" horiz-adv-x="512" d=" M458.6666666666666 217.6L281.6 394.6666666666667C266.6666666666667 409.6 245.3333333333333 409.6 230.4 394.6666666666667L53.3333333333333 217.6C38.4 202.6666666666667 38.4 181.3333333333334 53.3333333333333 166.4L230.4 -10.6666666666666C245.3333333333333 -25.6 266.6666666666667 -25.6 281.6 -10.6666666666666L458.6666666666666 166.4C471.4666666666667 181.3333333333334 471.4666666666667 202.6666666666667 458.6666666666666 217.6M433.0666666666667 192L256 14.9333333333333L78.9333333333333 192L256 369.0666666666667L433.0666666666667 192M234.6666666666667 117.3333333333334H266.6666666666667V85.3333333333334H234.6666666666667V117.3333333333334M256 299.7333333333334C313.6 297.3866666666667 338.56 239.36 304.64 196.0533333333334C295.68 185.3866666666667 281.3866666666667 178.3466666666667 274.1333333333334 169.1733333333334C266.6666666666667 160.0000000000001 266.6666666666667 149.3333333333334 266.6666666666667 138.6666666666668H234.6666666666667C234.6666666666667 156.8000000000001 234.6666666666667 171.9466666666667 242.1333333333334 182.6133333333334C249.1733333333333 193.2800000000001 263.4666666666667 199.6800000000001 272.4266666666666 206.72C298.6666666666667 230.8266666666667 291.84 264.7466666666668 256 267.5200000000001C238.5066666666667 267.5200000000001 224 253.2266666666667 224 235.3066666666667H192C192 270.9333333333334 220.8 299.7333333333334 256 299.7333333333334z" /></svg>