<?xml version="1.0" encoding="UTF-8"?><!DOCTYPE svg PUBLIC "-//W3C//DTD SVG 1.1//EN" "http://www.w3.org/Graphics/SVG/1.1/DTD/svg11.dtd"><svg xmlns="http://www.w3.org/2000/svg" xmlns:xlink="http://www.w3.org/1999/xlink" version="1.1" width="512" height="512" viewBox="0 0 512 512">    <path fill="#ffffff" transform="scale(1, -1) translate(0, -448)" glyph-name="badminton" unicode="&#xF850;" horiz-adv-x="512" d=" M262.4 405.3333333333333C241.7066666666667 404.6933333333334 225.7066666666667 387.4133333333334 226.3466666666667 366.9333333333334C226.56 361.8133333333334 227.6266666666667 356.9066666666667 229.76 352L235.9466666666667 338.3466666666667C236.8 335.5733333333334 235.3066666666667 332.5866666666667 232.32 331.7333333333334C230.4 330.6666666666667 228.2666666666667 331.7333333333334 226.7733333333334 333.4400000000001L217.8133333333333 345.1733333333334C210.7733333333334 354.1333333333334 200.1066666666667 359.68 188.8 359.8933333333334C168.1066666666667 360.3200000000001 151.04 343.8933333333334 150.6133333333334 323.4133333333334C150.4 314.4533333333334 153.3866666666667 305.92 158.9333333333333 298.6666666666667L167.8933333333334 288H168.1066666666667C169.8133333333333 285.2266666666667 169.1733333333334 281.8133333333334 166.8266666666667 280.1066666666667C164.9066666666667 278.6133333333334 162.3466666666667 278.6133333333334 160.64 280.1066666666667L149.3333333333333 289.0666666666667C142.08 294.6133333333334 133.3333333333333 297.6 124.5866666666667 297.3866666666667C104.1066666666667 296.9600000000001 87.68 279.8933333333333 88.1066666666667 259.2C88.32 247.8933333333333 93.8666666666667 237.2266666666667 102.8266666666667 230.1866666666667L114.9866666666667 220.8C117.3333333333334 218.6666666666667 117.3333333333334 215.2533333333333 114.7733333333334 213.3333333333334C113.28 211.84 111.1466666666667 211.4133333333334 109.2266666666667 212.2666666666667H109.0133333333334L96 218.24C91.0933333333333 220.16 86.1866666666667 221.44 81.0666666666667 221.6533333333333C60.5866666666667 222.2933333333333 43.3066666666667 206.08 42.6666666666667 185.3866666666667C42.6666666666667 170.0266666666667 51.2 155.9466666666667 65.28 149.9733333333334L308.2666666666667 41.8133333333334L406.1866666666666 139.7333333333334L298.0266666666667 382.7200000000001C292.0533333333333 397.0133333333333 277.3333333333333 405.9733333333334 262.4 405.3333333333333M280.1066666666667 317.8666666666667C289.0666666666667 318.0800000000001 297.1733333333334 312.9600000000001 300.5866666666667 304.8533333333334L365.6533333333333 158.9333333333333L281.3866666666667 242.9866666666667L261.5466666666667 288C255.1466666666667 301.44 264.9600000000001 317.44 280.1066666666667 317.8666666666667M210.1333333333333 259.2000000000001C215.8933333333333 259.2000000000001 221.2266666666666 257.0666666666667 225.28 252.8L327.8933333333333 150.1866666666667C336.4266666666666 142.08 336.64 128.64 328.5333333333333 120.1066666666667C319.9999999999999 111.5733333333333 306.7733333333333 111.36 297.8133333333333 120.1066666666667L195.2 222.72C186.6666666666666 230.8266666666667 186.4533333333333 244.48 194.7733333333333 252.8C198.8266666666666 257.0666666666666 204.3733333333333 259.2 210.1333333333333 259.2M152.1066666666666 188.3733333333333C154.88 188.3733333333333 157.8666666666666 187.52 160 186.4533333333333L205.44 166.4L289.4933333333333 82.3466666666667L143.1466666666666 147.4133333333334C121.3866666666666 156.8 128.64 189.0133333333333 152.1066666666666 188.3733333333333M432.64 105.8133333333334L342.1866666666666 15.36L360.32 -2.7733333333334C376.5333333333334 -18.7733333333334 400 -24.96 421.9733333333334 -19.2C443.9466666666667 -13.2266666666667 461.2266666666667 4.0533333333333 467.2 26.0266666666666C472.96 48 466.7733333333334 71.4666666666666 450.7733333333334 87.68L432.64 105.8133333333334z" /></svg>