<?xml version="1.0" encoding="UTF-8"?><!DOCTYPE svg PUBLIC "-//W3C//DTD SVG 1.1//EN" "http://www.w3.org/Graphics/SVG/1.1/DTD/svg11.dtd"><svg xmlns="http://www.w3.org/2000/svg" xmlns:xlink="http://www.w3.org/1999/xlink" version="1.1" width="512" height="512" viewBox="0 0 512 512">    <path fill="#ffffff" transform="scale(1, -1) translate(0, -448)" glyph-name="help-network" unicode="&#xF6F4;" horiz-adv-x="512" d=" M362.6666666666667 384C386.1333333333334 384 405.3333333333333 364.8 405.3333333333333 341.3333333333334V128C405.3333333333333 104.5333333333333 386.1333333333334 85.3333333333334 362.6666666666667 85.3333333333334H277.3333333333333V42.6666666666667H298.6666666666667C310.4 42.6666666666667 320 33.0666666666667 320 21.3333333333334H469.3333333333333V-21.3333333333333H320C320 -33.0666666666667 310.4 -42.6666666666666 298.6666666666667 -42.6666666666666H213.3333333333333C201.6 -42.6666666666666 192 -33.0666666666667 192 -21.3333333333333H42.6666666666667V21.3333333333334H192C192 33.0666666666667 201.6 42.6666666666667 213.3333333333333 42.6666666666667H234.6666666666667V85.3333333333334H149.3333333333333C125.6533333333333 85.3333333333334 106.6666666666667 104.5333333333333 106.6666666666667 128V341.3333333333334C106.6666666666667 364.8 125.8666666666667 384 149.3333333333333 384H362.6666666666667M260.0533333333334 341.3333333333334C241.4933333333334 341.3333333333334 226.56 337.0666666666667 215.04 328.7466666666667C203.9466666666667 320 198.4 307.8400000000001 198.6133333333334 290.9866666666667L198.8266666666667 290.3466666666667H240.0000000000001C240.2133333333334 296.7466666666667 242.1333333333334 301.6533333333334 245.9733333333334 305.0666666666667C249.8133333333334 308.2666666666667 254.5066666666667 309.9733333333334 260.0533333333334 309.9733333333334C266.6666666666667 309.9733333333334 272.2133333333334 307.8400000000001 276.0533333333334 304C279.8933333333333 299.9466666666667 281.6 294.4000000000001 281.6 288C281.6 281.1733333333334 280.1066666666667 275.4133333333334 276.6933333333334 270.5066666666667C273.7066666666667 265.6 269.2266666666667 261.3333333333334 263.68 257.9200000000001C252.8 250.6666666666667 245.3333333333334 244.2666666666667 241.28 238.5066666666667C237.0133333333334 232.9600000000001 234.6666666666667 224.0000000000001 234.6666666666667 213.3333333333334H277.3333333333333C277.3333333333333 219.9466666666667 278.1866666666666 225.2800000000001 280.1066666666667 229.1200000000001C282.0266666666667 233.1733333333334 285.6533333333333 236.8000000000001 290.9866666666667 240.2133333333334C300.5866666666667 245.3333333333334 308.48 251.5200000000001 314.6666666666667 260.0533333333334C320.8533333333333 268.5866666666667 324.0533333333333 277.3333333333334 324.0533333333333 288.0000000000001C324.0533333333333 304.2133333333334 318.2933333333333 317.2266666666667 306.7733333333333 326.8266666666667C295.4666666666667 336.4266666666668 279.8933333333333 341.3333333333334 260.0533333333333 341.3333333333334M234.6666666666667 192V149.3333333333334H277.3333333333333V192H234.6666666666667z" /></svg>