<?xml version="1.0" encoding="UTF-8"?><!DOCTYPE svg PUBLIC "-//W3C//DTD SVG 1.1//EN" "http://www.w3.org/Graphics/SVG/1.1/DTD/svg11.dtd"><svg xmlns="http://www.w3.org/2000/svg" xmlns:xlink="http://www.w3.org/1999/xlink" version="1.1" width="512" height="512" viewBox="0 0 512 512">    <path fill="#ffffff" transform="scale(1, -1) translate(0, -448)" glyph-name="cards-playing-outline" unicode="&#xF63A;" horiz-adv-x="512" d=" M238.72 400C255.36 399.7866666666667 271.1466666666667 389.76 277.3333333333333 373.3333333333334L384 118.4C385.92 112.8533333333334 386.9866666666667 106.6666666666667 386.7733333333333 101.3333333333334C386.3466666666667 85.3333333333334 376.5333333333333 69.5466666666667 360.5333333333333 62.9333333333333L203.3066666666667 -2.1333333333333C197.76 -4.6933333333334 192 -5.3333333333333 186.4533333333333 -5.3333333333333C170.0266666666667 -4.9066666666666 154.4533333333333 4.9066666666667 147.84 21.3333333333334L42.0266666666667 276.2666666666667C33.0666666666667 297.8133333333334 43.52 322.7733333333333 65.28 331.7333333333334L222.2933333333333 396.8C227.6266666666667 398.72 233.1733333333333 400 238.72 400M312.96 400H343.8933333333333C367.36 400 386.56 380.8 386.56 357.3333333333333V221.8666666666667L312.9600000000001 400M429.4400000000001 367.1466666666667L458.0266666666667 354.9866666666666C480.0000000000001 346.0266666666667 490.0266666666667 321.28 481.28 299.52L429.4400000000001 174.5066666666666V367.1466666666667M238.7200000000001 357.9733333333334L81.0666666666667 292.48L187.0933333333333 36.2666666666667L344.9600000000001 101.5466666666666L238.7200000000001 357.9733333333333M184.5333333333333 265.8133333333334L253.44 214.4L244.0533333333334 128.8533333333334L175.1466666666667 180.48L184.5333333333333 265.8133333333334z" /></svg>