<?xml version="1.0" encoding="UTF-8"?><!DOCTYPE svg PUBLIC "-//W3C//DTD SVG 1.1//EN" "http://www.w3.org/Graphics/SVG/1.1/DTD/svg11.dtd"><svg xmlns="http://www.w3.org/2000/svg" xmlns:xlink="http://www.w3.org/1999/xlink" version="1.1" width="512" height="512" viewBox="0 0 512 512">    <path fill="#ffffff" transform="scale(1, -1) translate(0, -448)" glyph-name="headphones-settings" unicode="&#xF2CD;" horiz-adv-x="512" d=" M256 426.6666666666667C362.0266666666667 426.6666666666667 448 340.6933333333334 448 234.6666666666667V85.3333333333334C448 49.92 419.4133333333333 21.3333333333334 384 21.3333333333334H320V192H405.3333333333333V234.6666666666667C405.3333333333333 317.2266666666667 338.56 384 256 384S106.6666666666667 317.2266666666667 106.6666666666667 234.6666666666667V192H192V21.3333333333334H128C92.5866666666667 21.3333333333334 64 49.92 64 85.3333333333334V234.6666666666667C64 340.6933333333334 149.9733333333333 426.6666666666667 256 426.6666666666667M320 -64V-21.3333333333333H362.6666666666667V-64H320M234.6666666666667 -64V-21.3333333333333H277.3333333333333V-64H234.6666666666667M149.3333333333333 -64V-21.3333333333333H192V-64H149.3333333333333z" /></svg>