<?xml version="1.0" encoding="UTF-8"?><!DOCTYPE svg PUBLIC "-//W3C//DTD SVG 1.1//EN" "http://www.w3.org/Graphics/SVG/1.1/DTD/svg11.dtd"><svg xmlns="http://www.w3.org/2000/svg" xmlns:xlink="http://www.w3.org/1999/xlink" version="1.1" width="512" height="512" viewBox="0 0 512 512">    <path fill="#ffffff" transform="scale(1, -1) translate(0, -448)" glyph-name="seatbelt" unicode="&#xFCA1;" horiz-adv-x="512" d=" M256 405.3333333333333C279.68 405.3333333333333 298.6666666666667 386.1333333333334 298.6666666666667 362.6666666666667C298.6666666666667 338.9866666666667 279.68 320 256 320C232.5333333333334 320 213.3333333333333 339.2000000000001 213.3333333333333 362.6666666666667S232.5333333333334 405.3333333333333 256 405.3333333333333M264.32 132.48C299.3066666666667 132.48 329.8133333333334 130.3466666666667 354.9866666666667 127.1466666666667C356.2666666666667 185.1733333333334 351.1466666666667 236.3733333333334 341.3333333333333 256C338.56 261.76 334.72 266.6666666666667 330.6666666666667 270.9333333333334L158.5066666666667 123.3066666666667C187.52 128 224 132.48 264.32 132.48M159.1466666666667 85.3333333333334C161.92 48.2133333333334 167.4666666666667 10.6666666666667 176.4266666666667 -21.3333333333333H220.5866666666667C214.4 -2.56 209.92 19.4133333333334 206.5066666666667 42.6666666666667C206.5066666666667 42.6666666666667 256 52.0533333333334 305.4933333333334 42.6666666666667C302.08 19.4133333333334 297.6 -2.56 291.4133333333333 -21.3333333333333H335.5733333333333C344.9600000000001 11.7333333333333 350.5066666666667 50.9866666666667 353.28 89.8133333333334C328.7466666666666 92.8000000000001 298.6666666666667 95.1466666666667 264.32 95.1466666666667C223.1466666666667 95.1466666666667 187.3066666666667 90.6666666666667 159.1466666666667 85.3333333333334M256 298.6666666666667S192 298.6666666666667 170.6666666666667 256C163.4133333333333 241.4933333333334 158.72 210.1333333333333 157.2266666666667 171.52L296.96 291.4133333333333C275.84 298.6666666666667 256 298.6666666666667 256 298.6666666666667M396.16 327.04L371.84 355.4133333333334L296.96 291.2000000000001C308.6933333333334 287.1466666666667 321.0666666666667 280.7466666666667 330.6666666666667 270.9333333333334L396.16 327.04M440.9600000000001 110.2933333333334C439.04 110.9333333333334 408.32 120.96 354.9866666666667 127.1466666666667C354.7733333333333 114.9866666666667 354.1333333333334 102.4 353.2800000000001 89.8133333333334C401.2800000000001 83.84 428.8 74.6666666666667 429.2266666666667 74.6666666666667L440.9600000000001 110.2933333333334M157.2266666666667 171.52L73.1733333333334 99.4133333333334L92.16 67.84C92.5866666666667 68.0533333333334 117.3333333333334 77.6533333333334 159.1466666666667 85.3333333333334C156.8 115.4133333333334 156.16 145.0666666666667 157.2266666666667 171.52z" /></svg>