<?xml version="1.0" encoding="UTF-8"?><!DOCTYPE svg PUBLIC "-//W3C//DTD SVG 1.1//EN" "http://www.w3.org/Graphics/SVG/1.1/DTD/svg11.dtd"><svg xmlns="http://www.w3.org/2000/svg" xmlns:xlink="http://www.w3.org/1999/xlink" version="1.1" width="512" height="512" viewBox="0 0 512 512">    <path fill="#ffffff" transform="scale(1, -1) translate(0, -448)" glyph-name="selection-drag" unicode="&#xFA6C;" horiz-adv-x="512" d=" M298.6666666666667 85.3333333333334H362.6666666666667V149.3333333333334H405.3333333333333V85.3333333333334H469.3333333333333V42.6666666666667H405.3333333333333V-21.3333333333333H362.6666666666667V42.6666666666667H298.6666666666667V85.3333333333334M256 85.3333333333334V42.6666666666667H192V85.3333333333334H256M149.3333333333333 85.3333333333334V42.6666666666667H64V128H106.6666666666667V85.3333333333334H149.3333333333333M64 170.6666666666667V234.6666666666667H106.6666666666667V170.6666666666667H64M64 277.3333333333334V362.6666666666667H149.3333333333333V320H106.6666666666667V277.3333333333334H64M192 362.6666666666667H256V320H192V362.6666666666667M320 362.6666666666667H405.3333333333333V277.3333333333334H362.6666666666667V320H320V362.6666666666667M405.3333333333333 234.6666666666667V192H362.6666666666667V234.6666666666667H405.3333333333333z" /></svg>