<?xml version="1.0" encoding="UTF-8"?><!DOCTYPE svg PUBLIC "-//W3C//DTD SVG 1.1//EN" "http://www.w3.org/Graphics/SVG/1.1/DTD/svg11.dtd"><svg xmlns="http://www.w3.org/2000/svg" xmlns:xlink="http://www.w3.org/1999/xlink" version="1.1" width="512" height="512" viewBox="0 0 512 512">    <path fill="#ffffff" transform="scale(1, -1) translate(0, -448)" glyph-name="soy-sauce" unicode="&#xF7ED;" horiz-adv-x="512" d=" M296.5333333333333 288C296.5333333333333 302.9333333333334 300.8 313.6 302.9333333333334 320H315.7333333333334L334.9333333333334 373.3333333333334H352V405.3333333333333H160V373.3333333333334H177.0666666666667L196.2666666666667 320H209.0666666666666C213.3333333333333 313.6 215.4666666666667 302.9333333333334 215.4666666666667 288C215.4666666666667 260.2666666666667 128 155.7333333333334 128 72.5333333333333V29.8666666666667C128 0 185.6 -19.2 256 -19.2S384 -1e-13 384 29.8666666666667V72.5333333333333C384 155.7333333333334 296.5333333333333 260.2666666666667 296.5333333333333 288M256 128C232.5333333333334 128 213.3333333333333 147.2000000000001 213.3333333333333 170.6666666666667S232.5333333333334 213.3333333333334 256 213.3333333333334S298.6666666666667 194.1333333333333 298.6666666666667 170.6666666666667S279.4666666666667 128 256 128z" /></svg>