<?xml version="1.0" encoding="UTF-8"?><!DOCTYPE svg PUBLIC "-//W3C//DTD SVG 1.1//EN" "http://www.w3.org/Graphics/SVG/1.1/DTD/svg11.dtd"><svg xmlns="http://www.w3.org/2000/svg" xmlns:xlink="http://www.w3.org/1999/xlink" version="1.1" width="512" height="512" viewBox="0 0 512 512">    <path fill="#ffffff" transform="scale(1, -1) translate(0, -448)" glyph-name="glass-tulip" unicode="&#xF2A8;" horiz-adv-x="512" d=" M170.6666666666667 405.3333333333333H341.3333333333333C334.2933333333333 391.04 327.04 376.9600000000001 332.3733333333334 341.3333333333334C337.7066666666667 305.7066666666667 355.6266666666667 248.96 346.6666666666667 218.88C337.7066666666667 189.0133333333333 302.2933333333333 186.0266666666667 284.3733333333334 152.3200000000001C266.6666666666667 118.6133333333334 266.6666666666667 53.9733333333334 279.04 23.4666666666667C291.6266666666667 -7.04 316.3733333333334 -3.6266666666666 328.96 -5.3333333333333C341.3333333333333 -7.04 341.3333333333333 -14.2933333333333 341.3333333333333 -21.3333333333333H170.6666666666667C170.6666666666667 -14.2933333333333 170.6666666666667 -7.04 183.04 -5.3333333333333C195.6266666666667 -3.6266666666667 220.3733333333333 -7.04 232.96 23.4666666666667C245.3333333333333 53.9733333333334 245.3333333333333 118.6133333333334 227.6266666666667 152.3200000000001C209.7066666666667 186.0266666666667 174.2933333333333 189.0133333333334 165.3333333333333 218.8800000000001C156.3733333333333 248.9600000000001 174.2933333333333 305.7066666666667 179.6266666666667 341.3333333333334C184.96 376.9600000000001 177.7066666666667 391.04 170.6666666666667 405.3333333333334M213.3333333333333 362.6666666666668C213.3333333333333 337.2800000000001 209.7066666666667 316.3733333333334 205.6533333333333 298.6666666666668H304.4266666666666C301.44 316.3733333333334 298.6666666666667 337.2800000000001 298.6666666666667 362.6666666666668H213.3333333333333z" /></svg>