<?xml version="1.0" encoding="UTF-8"?><!DOCTYPE svg PUBLIC "-//W3C//DTD SVG 1.1//EN" "http://www.w3.org/Graphics/SVG/1.1/DTD/svg11.dtd"><svg xmlns="http://www.w3.org/2000/svg" xmlns:xlink="http://www.w3.org/1999/xlink" version="1.1" width="512" height="512" viewBox="0 0 512 512">    <path fill="#ffffff" transform="scale(1, -1) translate(0, -448)" glyph-name="cloud-off-outline" unicode="&#xF164;" horiz-adv-x="512" d=" M164.9066666666667 234.6666666666667L335.5733333333333 64H128C80.8533333333333 64 42.6666666666667 102.1866666666667 42.6666666666667 149.3333333333334S80.8533333333333 234.6666666666667 128 234.6666666666667M64 335.5733333333334L122.6666666666667 277.3333333333334C54.6133333333333 274.1333333333334 0 218.24 0 149.3333333333334C0 78.72 57.3866666666667 21.3333333333334 128 21.3333333333334H378.24L420.9066666666667 -21.3333333333333L448 5.76L91.0933333333333 362.6666666666667M412.8 234.0266666666667C398.2933333333334 307.4133333333334 333.6533333333333 362.6666666666667 256 362.6666666666667C224 362.6666666666667 195.2 353.4933333333334 170.6666666666667 337.7066666666667L201.6 306.56C217.8133333333333 315.0933333333334 236.3733333333334 320 256 320C320.8533333333333 320 373.3333333333333 267.52 373.3333333333333 202.6666666666667V192H405.3333333333333C440.7466666666667 192 469.3333333333333 163.4133333333334 469.3333333333333 128C469.3333333333333 103.8933333333334 455.6799999999999 82.9866666666667 436.0533333333334 72.1066666666667L466.9866666666667 41.1733333333333C494.08 60.5866666666667 512 92.16 512 128C512 184.3200000000001 468.2666666666667 229.9733333333334 412.8 234.0266666666667z" /></svg>