<?xml version="1.0" encoding="UTF-8"?><!DOCTYPE svg PUBLIC "-//W3C//DTD SVG 1.1//EN" "http://www.w3.org/Graphics/SVG/1.1/DTD/svg11.dtd"><svg xmlns="http://www.w3.org/2000/svg" xmlns:xlink="http://www.w3.org/1999/xlink" version="1.1" width="512" height="512" viewBox="0 0 512 512">    <path fill="#ffffff" transform="scale(1, -1) translate(0, -448)" glyph-name="tennis" unicode="&#xFD7C;" horiz-adv-x="512" d=" M384 128C431.1466666666667 128 469.3333333333333 89.8133333333334 469.3333333333333 42.6666666666667S431.1466666666667 -42.6666666666666 384 -42.6666666666666S298.6666666666667 -4.48 298.6666666666667 42.6666666666667S336.8533333333333 128 384 128M384 85.3333333333334C360.5333333333333 85.3333333333334 341.3333333333333 66.1333333333334 341.3333333333333 42.6666666666667S360.5333333333333 0 384 0S426.6666666666667 19.2 426.6666666666667 42.6666666666667S407.4666666666667 85.3333333333334 384 85.3333333333334M129.0666666666667 137.8133333333334S159.1466666666667 168.1066666666667 159.36 228.2666666666667C151.68 274.9866666666667 170.0266666666667 329.8133333333334 212.0533333333333 371.6266666666667C274.56 434.1333333333334 365.6533333333333 444.3733333333334 416 394.6666666666667C465.7066666666666 344.3200000000001 455.4666666666667 253.2266666666667 392.9600000000001 190.72C351.1466666666667 148.6933333333333 296.32 130.3466666666667 249.6000000000001 138.0266666666667C189.4400000000001 137.8133333333333 159.1466666666667 107.7333333333334 159.1466666666667 107.7333333333334L68.6933333333334 17.28L38.6133333333334 47.36L129.0666666666667 137.8133333333333M385.4933333333334 364.16C352 397.44 288 387.4133333333334 242.1333333333334 341.3333333333334C196.48 295.68 186.24 231.4666666666667 219.52 198.1866666666667C253.0133333333333 164.9066666666667 317.0133333333333 175.1466666666667 362.6666666666667 220.8C408.7466666666667 266.6666666666667 418.7733333333333 330.6666666666667 385.4933333333334 364.16z" /></svg>