<?xml version="1.0" encoding="UTF-8"?><!DOCTYPE svg PUBLIC "-//W3C//DTD SVG 1.1//EN" "http://www.w3.org/Graphics/SVG/1.1/DTD/svg11.dtd"><svg xmlns="http://www.w3.org/2000/svg" xmlns:xlink="http://www.w3.org/1999/xlink" version="1.1" width="512" height="512" viewBox="0 0 512 512">    <path fill="#ffffff" transform="scale(1, -1) translate(0, -448)" glyph-name="chess-king" unicode="&#xF856;" horiz-adv-x="512" d=" M405.3333333333333 -21.3333333333333H106.6666666666667V21.3333333333334H405.3333333333333V-21.3333333333333M362.6666666666667 234.6666666666667C332.3733333333334 234.6666666666667 304.2133333333333 218.24 289.0666666666667 192H277.3333333333333V298.6666666666667H341.3333333333333V341.3333333333334H277.3333333333333V405.3333333333333H234.6666666666667V341.3333333333334H170.6666666666667V298.6666666666667H234.6666666666667V192H222.9333333333333C199.4666666666667 232.7466666666667 147.2 246.8266666666667 106.6666666666667 223.1466666666667C65.4933333333333 199.68 51.6266666666667 147.4133333333334 74.6666666666667 106.6666666666667C90.4533333333333 80.2133333333334 118.8266666666667 64 149.3333333333333 64H362.6666666666667C409.8133333333334 64 448 102.1866666666667 448 149.3333333333334S409.8133333333334 234.6666666666667 362.6666666666667 234.6666666666667z" /></svg>