<?xml version="1.0" encoding="UTF-8"?><!DOCTYPE svg PUBLIC "-//W3C//DTD SVG 1.1//EN" "http://www.w3.org/Graphics/SVG/1.1/DTD/svg11.dtd"><svg xmlns="http://www.w3.org/2000/svg" xmlns:xlink="http://www.w3.org/1999/xlink" version="1.1" width="512" height="512" viewBox="0 0 512 512">    <path fill="#ffffff" transform="scale(1, -1) translate(0, -448)" glyph-name="dice-d8" unicode="&#xF5ED;" horiz-adv-x="512" d=" M256 272C283.9466666666667 272 306.7733333333333 251.7333333333334 306.7733333333333 226.5600000000001C306.7733333333333 211.84 298.6666666666667 198.8266666666667 286.72 190.5066666666667C301.6533333333333 182.1866666666667 311.4666666666667 167.8933333333334 311.4666666666667 151.4666666666667C311.4666666666667 125.4400000000001 286.72 104.5333333333334 256 104.5333333333334C225.28 104.5333333333334 200.5333333333333 125.4400000000001 200.5333333333333 151.4666666666667C200.5333333333333 167.8933333333334 210.3466666666667 182.1866666666667 225.28 190.5066666666667C213.3333333333333 198.8266666666667 205.44 211.84 205.44 226.5600000000001C205.44 251.7333333333334 228.0533333333334 272 256 272M256 178.1333333333333C242.9866666666667 178.1333333333333 232.5333333333334 167.68 232.5333333333334 154.6666666666667C232.5333333333334 141.6533333333334 242.9866666666667 131.2000000000001 256 131.2000000000001C269.0133333333333 131.2000000000001 279.4666666666667 141.6533333333334 279.4666666666667 154.6666666666667C279.4666666666667 167.68 269.0133333333333 178.1333333333333 256 178.1333333333333M256 245.3333333333334C245.3333333333333 245.3333333333334 236.8 235.7333333333334 236.8 224S245.3333333333333 202.6666666666667 256 202.6666666666667S275.2 212.2666666666667 275.2 224S266.6666666666667 245.3333333333334 256 245.3333333333334M459.52 217.6C472.32 202.6666666666667 472.32 181.3333333333334 459.52 166.4L282.4533333333333 -10.6666666666666C267.52 -25.6 246.1866666666667 -25.6 231.2533333333333 -10.6666666666666L54.1866666666666 166.4C39.2533333333333 181.3333333333334 39.2533333333333 202.6666666666667 54.1866666666666 217.6L231.2533333333333 394.6666666666667C246.1866666666666 409.6 267.5199999999999 409.6 282.4533333333333 394.6666666666667L459.52 217.6M433.92 192.0000000000001L256.8533333333333 369.0666666666667L79.7866666666666 192.0000000000001L256.8533333333333 14.9333333333334L433.92 192.0000000000001z" /></svg>