<?xml version="1.0" encoding="UTF-8"?><!DOCTYPE svg PUBLIC "-//W3C//DTD SVG 1.1//EN" "http://www.w3.org/Graphics/SVG/1.1/DTD/svg11.dtd"><svg xmlns="http://www.w3.org/2000/svg" xmlns:xlink="http://www.w3.org/1999/xlink" version="1.1" width="512" height="512" viewBox="0 0 512 512">    <path fill="#ffffff" transform="scale(1, -1) translate(0, -448)" glyph-name="pokeball" unicode="&#xF41D;" horiz-adv-x="512" d=" M256 405.3333333333333C373.76 405.3333333333333 469.3333333333333 309.76 469.3333333333333 192S373.76 -21.3333333333333 256 -21.3333333333333S42.6666666666667 74.24 42.6666666666667 192S138.24 405.3333333333333 256 405.3333333333333M256 362.6666666666667C168.96 362.6666666666667 97.0666666666667 297.6 86.6133333333333 213.3333333333334H173.44C182.8266666666666 250.24 216.32 277.3333333333334 256 277.3333333333334C295.68 277.3333333333334 329.1733333333333 250.24 338.56 213.3333333333334H425.3866666666667C414.9333333333334 297.6 343.04 362.6666666666667 256 362.6666666666667M256 21.3333333333334C343.04 21.3333333333334 414.9333333333333 86.4 425.3866666666667 170.6666666666667H338.56C329.1733333333334 133.76 295.68 106.6666666666667 256 106.6666666666667C216.32 106.6666666666667 182.8266666666667 133.76 173.44 170.6666666666667H86.6133333333333C97.0666666666667 86.4 168.96 21.3333333333334 256 21.3333333333334M256 234.6666666666667C232.5333333333334 234.6666666666667 213.3333333333333 215.4666666666667 213.3333333333333 192S232.5333333333334 149.3333333333334 256 149.3333333333334S298.6666666666667 168.5333333333334 298.6666666666667 192S279.4666666666667 234.6666666666667 256 234.6666666666667z" /></svg>