<?xml version="1.0" encoding="UTF-8"?><!DOCTYPE svg PUBLIC "-//W3C//DTD SVG 1.1//EN" "http://www.w3.org/Graphics/SVG/1.1/DTD/svg11.dtd"><svg xmlns="http://www.w3.org/2000/svg" xmlns:xlink="http://www.w3.org/1999/xlink" version="1.1" width="512" height="512" viewBox="0 0 512 512">    <path fill="#ffffff" transform="scale(1, -1) translate(0, -448)" glyph-name="shield-search" unicode="&#xFD76;" horiz-adv-x="512" d=" M256 256C291.4133333333333 256 320 227.4133333333334 320 192S291.4133333333333 128 256 128S192 156.5866666666667 192 192S220.5866666666667 256 256 256M381.0133333333333 36.0533333333333C346.24 -4.6933333333333 304.64 -30.9333333333333 256 -42.6666666666666C201.3866666666667 -29.6533333333333 155.7333333333333 1.4933333333333 119.04 50.5600000000001C82.3466666666667 99.4133333333334 64 153.6 64 213.3333333333334V341.3333333333334L256 426.6666666666667L448 341.3333333333334V213.3333333333334C448 162.3466666666667 434.3466666666667 114.9866666666667 407.04 71.04L344.9599999999999 133.12C356.0533333333333 149.9733333333333 362.6666666666666 170.6666666666666 362.6666666666666 192C362.6666666666666 250.88 314.8799999999999 298.6666666666667 255.9999999999999 298.6666666666667S149.3333333333333 250.88 149.3333333333333 192S197.1199999999999 85.3333333333334 255.9999999999999 85.3333333333334C277.3333333333333 85.3333333333334 298.0266666666666 91.9466666666667 314.8799999999999 103.04L381.0133333333332 36.0533333333333z" /></svg>