<?xml version="1.0" encoding="UTF-8"?><!DOCTYPE svg PUBLIC "-//W3C//DTD SVG 1.1//EN" "http://www.w3.org/Graphics/SVG/1.1/DTD/svg11.dtd"><svg xmlns="http://www.w3.org/2000/svg" xmlns:xlink="http://www.w3.org/1999/xlink" version="1.1" width="512" height="512" viewBox="0 0 512 512">    <path fill="#ffffff" transform="scale(1, -1) translate(0, -448)" glyph-name="tooth-outline" unicode="&#xF529;" horiz-adv-x="512" d=" M149.3333333333333 405.3333333333333C85.3333333333333 405.3333333333333 42.6666666666667 341.3333333333334 42.6666666666667 277.3333333333334C42.6666666666667 232.32 64 170.6666666666667 85.3333333333333 149.3333333333334S128 -21.3333333333333 170.6666666666667 -21.3333333333333C267.52 -21.3333333333333 213.3333333333333 128 256 128S244.48 -21.3333333333333 341.3333333333333 -21.3333333333333C384 -21.3333333333333 405.3333333333333 128 426.6666666666667 149.3333333333334S469.3333333333333 232.32 469.3333333333333 277.3333333333334C469.3333333333333 341.3333333333334 426.6666666666667 405.3333333333333 362.6666666666667 405.3333333333333S298.6666666666667 384 256 384S213.3333333333333 405.3333333333333 149.3333333333333 405.3333333333333M149.3333333333333 362.6666666666667C192 362.6666666666667 213.3333333333333 341.3333333333334 256 341.3333333333334S320 362.6666666666667 362.6666666666667 362.6666666666667C398.2933333333334 362.6666666666667 426.6666666666667 320 426.6666666666667 277.3333333333334C426.6666666666667 240 408.32 189.6533333333334 388.0533333333334 169.3866666666667C369.7066666666667 151.0400000000001 342.6133333333334 22.6133333333334 330.6666666666667 22.6133333333334C326.1866666666667 22.6133333333334 320 45.2266666666667 320 72.7466666666668C320 116.2666666666668 307.8400000000001 170.6666666666668 256 170.6666666666668S192 116.2666666666668 192 72.7466666666668C192 45.2266666666668 185.8133333333334 22.6133333333334 181.3333333333334 22.6133333333334C169.3866666666667 22.6133333333334 142.2933333333334 151.0400000000001 123.9466666666667 169.3866666666667C103.68 189.6533333333334 85.3333333333333 240 85.3333333333333 277.3333333333334C85.3333333333333 320 113.7066666666667 362.6666666666667 149.3333333333333 362.6666666666667z" /></svg>