<?xml version="1.0" encoding="UTF-8"?><!DOCTYPE svg PUBLIC "-//W3C//DTD SVG 1.1//EN" "http://www.w3.org/Graphics/SVG/1.1/DTD/svg11.dtd"><svg xmlns="http://www.w3.org/2000/svg" xmlns:xlink="http://www.w3.org/1999/xlink" version="1.1" width="512" height="512" viewBox="0 0 512 512">    <path fill="#ffffff" transform="scale(1, -1) translate(0, -448)" glyph-name="alarm" unicode="&#xF020;" horiz-adv-x="512" d=" M256 21.3333333333334C173.44 21.3333333333334 106.6666666666667 88.1066666666667 106.6666666666667 170.6666666666667S173.44 320 256 320S405.3333333333333 253.2266666666667 405.3333333333333 170.6666666666667S338.56 21.3333333333334 256 21.3333333333334M256 362.6666666666667C149.9733333333333 362.6666666666667 64 276.6933333333334 64 170.6666666666667S149.9733333333333 -21.3333333333333 256 -21.3333333333333S448 64.64 448 170.6666666666667S362.0266666666667 362.6666666666667 256 362.6666666666667M266.6666666666667 277.3333333333334H234.6666666666667V149.3333333333334L336 88.5333333333333L352 114.7733333333333L266.6666666666667 165.3333333333334V277.3333333333334M168.1066666666667 375.68L140.8 408.32L42.6666666666667 326.1866666666667L70.1866666666667 293.5466666666667L168.1066666666667 375.68M469.3333333333333 325.9733333333334L371.2 408.32L343.68 375.68L441.8133333333334 293.3333333333334L469.3333333333333 325.9733333333334z" /></svg>