<?xml version="1.0" encoding="UTF-8"?><!DOCTYPE svg PUBLIC "-//W3C//DTD SVG 1.1//EN" "http://www.w3.org/Graphics/SVG/1.1/DTD/svg11.dtd"><svg xmlns="http://www.w3.org/2000/svg" xmlns:xlink="http://www.w3.org/1999/xlink" version="1.1" width="512" height="512" viewBox="0 0 512 512">    <path fill="#ffffff" transform="scale(1, -1) translate(0, -448)" glyph-name="briefcase-edit" unicode="&#xFA97;" horiz-adv-x="512" d=" M298.6666666666667 405.3333333333333C322.1333333333334 405.3333333333333 341.3333333333333 386.1333333333334 341.3333333333333 362.6666666666667V320H426.6666666666667C450.1333333333334 320 469.3333333333333 300.8 469.3333333333333 277.3333333333334L231.4666666666667 42.6666666666667V0H85.3333333333333C61.6533333333333 0 42.6666666666667 19.2 42.6666666666667 42.6666666666667V277.3333333333334C42.6666666666667 301.0133333333333 61.6533333333333 320 85.3333333333333 320H170.6666666666667V362.6666666666667C170.6666666666667 386.3466666666667 189.6533333333333 405.3333333333333 213.3333333333333 405.3333333333333H298.6666666666667M298.6666666666667 320V362.6666666666667H213.3333333333333V320H298.6666666666667M448.8533333333333 189.2266666666667C445.8666666666666 189.2266666666667 442.88 187.9466666666667 440.5333333333333 185.6L419.2 164.2666666666667L462.9333333333333 120.5333333333334L484.2666666666667 141.8666666666667C488.9599999999999 146.3466666666668 488.9599999999999 153.8133333333334 484.2666666666667 158.2933333333334L456.9599999999999 185.6C454.6133333333333 187.9466666666667 451.84 189.2266666666667 448.8533333333333 189.2266666666667M406.8266666666667 151.8933333333334L277.3333333333333 22.6133333333333V-21.3333333333333H321.28L450.56 108.16L406.8266666666667 151.8933333333334z" /></svg>