<?xml version="1.0" encoding="UTF-8"?><!DOCTYPE svg PUBLIC "-//W3C//DTD SVG 1.1//EN" "http://www.w3.org/Graphics/SVG/1.1/DTD/svg11.dtd"><svg xmlns="http://www.w3.org/2000/svg" xmlns:xlink="http://www.w3.org/1999/xlink" version="1.1" width="512" height="512" viewBox="0 0 512 512">    <path fill="#ffffff" transform="scale(1, -1) translate(0, -448)" glyph-name="steam" unicode="&#xF4D3;" horiz-adv-x="512" d=" M256 405.3333333333333C373.76 405.3333333333333 469.3333333333333 309.76 469.3333333333333 192S373.76 -21.3333333333333 256 -21.3333333333333C157.8666666666667 -21.3333333333333 75.7333333333334 44.3733333333333 50.3466666666667 133.76L132.0533333333333 100.0533333333333C137.6 72.5333333333333 162.1333333333333 51.6266666666667 191.36 51.6266666666667C224.64 51.6266666666667 251.7333333333333 78.72 251.7333333333333 112V114.7733333333333L324.2666666666667 166.6133333333334H325.9733333333333C370.3466666666667 166.6133333333334 406.4 202.6666666666666 406.4 247.04S370.3466666666667 327.4666666666667 325.9733333333334 327.4666666666667S245.3333333333334 291.4133333333333 245.3333333333334 247.04V245.9733333333333L194.7733333333334 172.16L191.3600000000001 172.3733333333333C178.7733333333334 172.3733333333333 167.0400000000001 168.5333333333333 157.4400000000001 161.92L42.6666666666667 209.0666666666667C51.84 318.9333333333334 143.5733333333333 405.3333333333333 256 405.3333333333333M176.64 81.7066666666667C193.7066666666667 74.6666666666667 213.3333333333333 82.56 220.3733333333333 99.6266666666667C227.4133333333333 116.6933333333333 219.3066666666666 136.1066666666667 202.6666666666666 143.1466666666667L175.36 154.4533333333333C185.8133333333333 158.2933333333333 197.5466666666666 158.5066666666666 208.64 153.8133333333333C219.9466666666666 149.3333333333333 228.6933333333333 140.5866666666667 233.1733333333333 129.28C237.8666666666667 118.1866666666666 237.8666666666667 105.8133333333333 233.1733333333333 94.72C224 71.68 196.9066666666667 60.5866666666666 173.8666666666667 70.1866666666667C163.2 74.6666666666667 155.0933333333333 82.7733333333333 150.6133333333334 92.3733333333333L176.64 81.7066666666667M379.7333333333334 247.04C379.7333333333334 217.3866666666666 355.6266666666667 193.28 325.9733333333334 193.28C296.5333333333334 193.28 272.4266666666667 217.3866666666666 272.4266666666667 247.04C272.4266666666667 276.48 296.5333333333334 300.5866666666667 325.9733333333334 300.5866666666667C355.6266666666667 300.5866666666667 379.7333333333334 276.48 379.7333333333334 247.04M285.8666666666667 247.04C285.8666666666667 224.8533333333333 303.7866666666667 206.72 326.1866666666667 206.72C348.3733333333334 206.72 366.2933333333334 224.8533333333333 366.2933333333334 247.04S348.3733333333334 287.36 326.1866666666667 287.36C303.7866666666667 287.36 285.8666666666667 269.2266666666667 285.8666666666667 247.04z" /></svg>