<?xml version="1.0" encoding="UTF-8"?><!DOCTYPE svg PUBLIC "-//W3C//DTD SVG 1.1//EN" "http://www.w3.org/Graphics/SVG/1.1/DTD/svg11.dtd"><svg xmlns="http://www.w3.org/2000/svg" xmlns:xlink="http://www.w3.org/1999/xlink" version="1.1" width="512" height="512" viewBox="0 0 512 512">    <path fill="#ffffff" transform="scale(1, -1) translate(0, -448)" glyph-name="rewind-30" unicode="&#xFD72;" horiz-adv-x="512" d=" M405.3333333333333 149.3333333333334V21.3333333333334C405.3333333333333 -2.3466666666666 386.3466666666667 -21.3333333333333 362.6666666666667 -21.3333333333333H320C296.5333333333333 -21.3333333333333 277.3333333333333 -2.1333333333333 277.3333333333333 21.3333333333334V149.3333333333334C277.3333333333333 172.8 296.5333333333333 192 320 192H362.6666666666667C386.3466666666667 192 405.3333333333333 172.8 405.3333333333333 149.3333333333334M320 149.3333333333334V21.3333333333334H362.6666666666667V149.3333333333334H320M234.6666666666667 21.3333333333334C234.6666666666667 -2.3466666666666 215.4666666666667 -21.3333333333333 192 -21.3333333333333H106.6666666666667V21.3333333333334H192V64H149.3333333333333V106.6666666666667H192V149.3333333333334H106.6666666666667V192H192C215.4666666666667 192 234.6666666666667 172.8 234.6666666666667 149.3333333333334V117.3333333333334C234.6666666666667 99.6266666666667 220.3733333333333 85.3333333333334 202.6666666666667 85.3333333333334C220.3733333333333 85.3333333333334 234.6666666666667 71.04 234.6666666666667 53.3333333333334V21.3333333333334M266.6666666666667 384C365.8666666666666 384 449.7066666666666 319.36 479.36 229.9733333333334L428.8 213.3333333333334C406.4 281.3866666666667 342.1866666666667 330.6666666666667 266.6666666666667 330.6666666666667C224.8533333333334 330.6666666666667 187.0933333333334 315.3066666666667 157.44 290.56L213.3333333333333 234.6666666666667H64V384L119.4666666666667 328.5333333333334C158.9333333333333 362.6666666666667 210.1333333333333 384 266.6666666666667 384z" /></svg>