<?xml version="1.0" encoding="UTF-8"?><!DOCTYPE svg PUBLIC "-//W3C//DTD SVG 1.1//EN" "http://www.w3.org/Graphics/SVG/1.1/DTD/svg11.dtd"><svg xmlns="http://www.w3.org/2000/svg" xmlns:xlink="http://www.w3.org/1999/xlink" version="1.1" width="512" height="512" viewBox="0 0 512 512">    <path fill="#ffffff" transform="scale(1, -1) translate(0, -448)" glyph-name="coffee-outline" unicode="&#xF6C9;" horiz-adv-x="512" d=" M42.6666666666667 0V42.6666666666667H426.6666666666667V0H42.6666666666667M426.6666666666667 277.3333333333334V341.3333333333334H384V277.3333333333334H426.6666666666667M426.6666666666667 384C450.1333333333334 384 469.3333333333333 364.8 469.3333333333333 341.3333333333334V277.3333333333334C469.3333333333333 253.8666666666667 450.1333333333334 234.6666666666667 426.6666666666667 234.6666666666667H384V170.6666666666667C384 123.52 345.8133333333334 85.3333333333334 298.6666666666667 85.3333333333334H170.6666666666667C123.52 85.3333333333334 85.3333333333333 123.52 85.3333333333333 170.6666666666667V384H426.6666666666667M341.3333333333333 341.3333333333334H128V170.6666666666667C128 147.2000000000001 147.2 128 170.6666666666667 128H298.6666666666667C322.1333333333334 128 341.3333333333333 147.2000000000001 341.3333333333333 170.6666666666667V341.3333333333334z" /></svg>