<?xml version="1.0" encoding="UTF-8"?><!DOCTYPE svg PUBLIC "-//W3C//DTD SVG 1.1//EN" "http://www.w3.org/Graphics/SVG/1.1/DTD/svg11.dtd"><svg xmlns="http://www.w3.org/2000/svg" xmlns:xlink="http://www.w3.org/1999/xlink" version="1.1" width="512" height="512" viewBox="0 0 512 512">    <path fill="#ffffff" transform="scale(1, -1) translate(0, -448)" glyph-name="notebook" unicode="&#xF82D;" horiz-adv-x="512" d=" M64 298.6666666666667V341.3333333333334H106.6666666666667V362.6666666666667C106.6666666666667 386.3466666666667 125.8666666666667 405.3333333333333 149.3333333333333 405.3333333333333H277.3333333333333V256L330.6666666666667 288L384 256V405.3333333333333H405.3333333333333C427.7333333333334 405.3333333333333 448 385.0666666666667 448 362.6666666666667V21.3333333333334C448 -1.0666666666667 427.7333333333334 -21.3333333333333 405.3333333333333 -21.3333333333333H149.3333333333333C126.9333333333333 -21.3333333333333 106.6666666666667 -1.0666666666667 106.6666666666667 21.3333333333334V42.6666666666667H64V85.3333333333334H106.6666666666667V170.6666666666667H64V213.3333333333334H106.6666666666667V298.6666666666667H64M149.3333333333333 213.3333333333334H106.6666666666667V170.6666666666667H149.3333333333333V213.3333333333334M149.3333333333333 298.6666666666667V341.3333333333334H106.6666666666667V298.6666666666667H149.3333333333333M149.3333333333333 42.6666666666667V85.3333333333334H106.6666666666667V42.6666666666667H149.3333333333333z" /></svg>