<?xml version="1.0" encoding="UTF-8"?><!DOCTYPE svg PUBLIC "-//W3C//DTD SVG 1.1//EN" "http://www.w3.org/Graphics/SVG/1.1/DTD/svg11.dtd"><svg xmlns="http://www.w3.org/2000/svg" xmlns:xlink="http://www.w3.org/1999/xlink" version="1.1" width="512" height="512" viewBox="0 0 512 512">    <path fill="#ffffff" transform="scale(1, -1) translate(0, -448)" glyph-name="flower" unicode="&#xF24A;" horiz-adv-x="512" d=" M64 170.6666666666667C64 64.64 149.9733333333333 -21.3333333333333 256 -21.3333333333333C256 85.3333333333334 170.0266666666667 170.6666666666667 64 170.6666666666667M256 330.6666666666667C285.44 330.6666666666667 309.3333333333333 306.7733333333333 309.3333333333333 277.3333333333334S285.44 224 256 224S202.6666666666667 247.8933333333333 202.6666666666667 277.3333333333334S226.56 330.6666666666667 256 330.6666666666667M119.4666666666667 229.3333333333334C119.4666666666667 199.8933333333334 143.36 176 172.8 176C184.1066666666666 176 194.56 179.6266666666667 202.6666666666667 185.3866666666667V181.3333333333334C202.6666666666667 151.8933333333334 226.56 128 256 128S309.3333333333333 151.8933333333334 309.3333333333333 181.3333333333334V185.3866666666667C317.44 179.6266666666667 327.8933333333333 176 339.2 176C368.64 176 392.5333333333333 199.8933333333334 392.5333333333333 229.3333333333334C392.5333333333333 250.6666666666667 379.9466666666666 268.8 362.0266666666667 277.3333333333334C379.9466666666666 285.8666666666667 392.5333333333333 304.2133333333334 392.5333333333333 325.3333333333334C392.5333333333333 354.7733333333333 368.64 378.6666666666667 339.2 378.6666666666667C327.8933333333333 378.6666666666667 317.44 375.2533333333334 309.3333333333333 369.28V373.3333333333334C309.3333333333333 402.7733333333333 285.44 426.6666666666667 256 426.6666666666667S202.6666666666667 402.7733333333333 202.6666666666667 373.3333333333334V369.28C194.56 375.2533333333334 184.1066666666667 378.6666666666667 172.8 378.6666666666667C143.36 378.6666666666667 119.4666666666667 354.7733333333333 119.4666666666667 325.3333333333334C119.4666666666667 304.2133333333334 132.0533333333333 285.8666666666667 149.9733333333333 277.3333333333334C132.0533333333333 268.8 119.4666666666667 250.6666666666667 119.4666666666667 229.3333333333334M256 -21.3333333333333C362.0266666666667 -21.3333333333333 448 64.64 448 170.6666666666667C341.3333333333333 170.6666666666667 256 85.3333333333334 256 -21.3333333333333z" /></svg>