<?xml version="1.0" encoding="UTF-8"?><!DOCTYPE svg PUBLIC "-//W3C//DTD SVG 1.1//EN" "http://www.w3.org/Graphics/SVG/1.1/DTD/svg11.dtd"><svg xmlns="http://www.w3.org/2000/svg" xmlns:xlink="http://www.w3.org/1999/xlink" version="1.1" width="512" height="512" viewBox="0 0 512 512">    <path fill="#ffffff" transform="scale(1, -1) translate(0, -448)" glyph-name="source-pull" unicode="&#xF4C2;" horiz-adv-x="512" d=" M128 384C163.4133333333333 384 192 355.4133333333334 192 320C192 292.0533333333334 174.2933333333333 268.3733333333334 149.3333333333333 259.6266666666667V124.3733333333333C174.2933333333333 115.6266666666667 192 91.9466666666667 192 64C192 28.5866666666667 163.4133333333333 0 128 0S64 28.5866666666667 64 64C64 91.9466666666667 81.7066666666667 115.6266666666667 106.6666666666667 124.3733333333333V259.6266666666667C81.7066666666667 268.3733333333334 64 292.0533333333334 64 320C64 355.4133333333334 92.5866666666667 384 128 384M128 341.3333333333334C116.2666666666667 341.3333333333334 106.6666666666667 331.7333333333334 106.6666666666667 320S116.2666666666667 298.6666666666667 128 298.6666666666667S149.3333333333333 308.2666666666667 149.3333333333333 320S139.7333333333333 341.3333333333334 128 341.3333333333334M128 85.3333333333334C116.2666666666667 85.3333333333334 106.6666666666667 75.7333333333334 106.6666666666667 64S116.2666666666667 42.6666666666667 128 42.6666666666667S149.3333333333333 52.2666666666667 149.3333333333333 64S139.7333333333333 85.3333333333334 128 85.3333333333334M448 64C448 28.5866666666667 419.4133333333333 0 384 0S320 28.5866666666667 320 64C320 91.9466666666667 337.7066666666667 115.6266666666667 362.6666666666667 124.3733333333333V298.6666666666667H320V229.3333333333334L229.3333333333333 320L320 410.6666666666667V341.3333333333334H362.6666666666667C386.1333333333334 341.3333333333334 405.3333333333333 322.1333333333334 405.3333333333333 298.6666666666667V124.3733333333333C430.2933333333334 115.6266666666667 448 91.9466666666667 448 64M384 85.3333333333334C372.2666666666667 85.3333333333334 362.6666666666667 75.7333333333334 362.6666666666667 64S372.2666666666667 42.6666666666667 384 42.6666666666667S405.3333333333333 52.2666666666667 405.3333333333333 64S395.7333333333334 85.3333333333334 384 85.3333333333334z" /></svg>