<?xml version="1.0" encoding="UTF-8"?><!DOCTYPE svg PUBLIC "-//W3C//DTD SVG 1.1//EN" "http://www.w3.org/Graphics/SVG/1.1/DTD/svg11.dtd"><svg xmlns="http://www.w3.org/2000/svg" xmlns:xlink="http://www.w3.org/1999/xlink" version="1.1" width="512" height="512" viewBox="0 0 512 512">    <path fill="#ffffff" transform="scale(1, -1) translate(0, -448)" glyph-name="magnify" unicode="&#xF349;" horiz-adv-x="512" d=" M202.6666666666667 384C279.2533333333334 384 341.3333333333333 321.92 341.3333333333333 245.3333333333334C341.3333333333333 210.9866666666667 328.7466666666667 179.4133333333334 308.0533333333333 155.0933333333334L313.8133333333333 149.3333333333334H330.6666666666667L437.3333333333333 42.6666666666667L405.3333333333333 10.6666666666667L298.6666666666667 117.3333333333334V134.1866666666667L292.9066666666667 139.9466666666667C268.5866666666667 119.2533333333333 237.0133333333333 106.6666666666667 202.6666666666667 106.6666666666667C126.08 106.6666666666667 64 168.7466666666667 64 245.3333333333334S126.08 384 202.6666666666667 384M202.6666666666667 341.3333333333334C149.3333333333333 341.3333333333334 106.6666666666667 298.6666666666667 106.6666666666667 245.3333333333334S149.3333333333333 149.3333333333334 202.6666666666667 149.3333333333334S298.6666666666667 192 298.6666666666667 245.3333333333334S256 341.3333333333334 202.6666666666667 341.3333333333334z" /></svg>