<?xml version="1.0" encoding="UTF-8"?><!DOCTYPE svg PUBLIC "-//W3C//DTD SVG 1.1//EN" "http://www.w3.org/Graphics/SVG/1.1/DTD/svg11.dtd"><svg xmlns="http://www.w3.org/2000/svg" xmlns:xlink="http://www.w3.org/1999/xlink" version="1.1" width="512" height="512" viewBox="0 0 512 512">    <path fill="#ffffff" transform="scale(1, -1) translate(0, -448)" glyph-name="flag-variant-outline" unicode="&#xF23E;" horiz-adv-x="512" d=" M128 384C139.7333333333333 384 149.3333333333333 374.4 149.3333333333333 362.6666666666667V343.8933333333333C171.9466666666667 353.28 202.6666666666667 362.6666666666667 234.6666666666667 362.6666666666667C298.6666666666667 362.6666666666667 298.6666666666667 320 341.3333333333333 320C405.3333333333333 320 426.6666666666667 362.6666666666667 426.6666666666667 362.6666666666667V192S405.3333333333333 149.3333333333334 341.3333333333333 149.3333333333334S277.3333333333333 192 234.6666666666667 192C170.6666666666667 192 149.3333333333333 149.3333333333334 149.3333333333333 149.3333333333334V0H106.6666666666667V362.6666666666667C106.6666666666667 374.4 116.2666666666667 384 128 384M149.3333333333333 293.3333333333334V202.6666666666667S192 234.6666666666667 234.6666666666667 234.6666666666667S298.6666666666667 192 341.3333333333333 192S384 213.3333333333334 384 213.3333333333334V288S362.6666666666667 277.3333333333334 341.3333333333333 277.3333333333334C298.6666666666667 277.3333333333334 277.3333333333333 320 234.6666666666667 320S149.3333333333333 293.3333333333334 149.3333333333333 293.3333333333334z" /></svg>