<?xml version="1.0" encoding="UTF-8"?><!DOCTYPE svg PUBLIC "-//W3C//DTD SVG 1.1//EN" "http://www.w3.org/Graphics/SVG/1.1/DTD/svg11.dtd"><svg xmlns="http://www.w3.org/2000/svg" xmlns:xlink="http://www.w3.org/1999/xlink" version="1.1" width="512" height="512" viewBox="0 0 512 512">    <path fill="#ffffff" transform="scale(1, -1) translate(0, -448)" glyph-name="thumbs-up-down" unicode="&#xF515;" horiz-adv-x="512" d=" M480 234.6666666666667H336C322.7733333333333 234.6666666666667 311.4666666666667 226.56 306.56 215.2533333333333L258.3466666666667 102.4C256.8533333333334 98.7733333333333 256 94.72 256 90.6666666666667V64C256 52.2666666666667 265.6 42.6666666666667 277.3333333333334 42.6666666666667H387.84L373.3333333333333 -25.1733333333333V-30.2933333333333C373.3333333333333 -36.9066666666666 376.1066666666667 -42.6666666666666 380.3733333333333 -47.36L397.2266666666666 -64L502.6133333333333 41.3866666666667C508.3733333333333 47.1466666666667 512 55.2533333333333 512 64V202.6666666666667C512 220.3733333333333 497.7066666666666 234.6666666666667 480 234.6666666666667M256 320C256 331.7333333333334 246.4 341.3333333333334 234.6666666666667 341.3333333333334H124.16L138.6666666666667 409.1733333333334V414.08C138.6666666666667 420.6933333333334 135.8933333333333 426.6666666666667 131.6266666666667 431.1466666666667L114.7733333333333 448L9.3866666666667 342.6133333333334C3.6266666666667 336.8533333333334 0 328.7466666666667 0 320V181.3333333333334C0 163.6266666666667 14.2933333333333 149.3333333333334 32 149.3333333333334H176C189.2266666666666 149.3333333333334 200.5333333333333 157.4400000000001 205.44 168.7466666666667L253.6533333333333 281.6C255.1466666666667 285.2266666666667 256 289.2800000000001 256 293.3333333333334V320z" /></svg>