<?xml version="1.0" encoding="UTF-8"?><!DOCTYPE svg PUBLIC "-//W3C//DTD SVG 1.1//EN" "http://www.w3.org/Graphics/SVG/1.1/DTD/svg11.dtd"><svg xmlns="http://www.w3.org/2000/svg" xmlns:xlink="http://www.w3.org/1999/xlink" version="1.1" width="512" height="512" viewBox="0 0 512 512">    <path fill="#ffffff" transform="scale(1, -1) translate(0, -448)" glyph-name="format-header-pound" unicode="&#xF274;" horiz-adv-x="512" d=" M64 362.6666666666667H106.6666666666667V234.6666666666667H192V362.6666666666667H234.6666666666667V64H192V192H106.6666666666667V64H64V362.6666666666667M277.3333333333333 277.3333333333334H326.6133333333334L333.44 341.3333333333334H376.1066666666667L369.2800000000001 277.3333333333334H411.9466666666667L418.7733333333334 341.3333333333334H461.4400000000001L454.6133333333333 277.3333333333334H490.6666666666666V234.6666666666667H450.1333333333334L445.8666666666667 192H490.6666666666666V149.3333333333334H441.3866666666667L434.56 85.3333333333334H391.8933333333333L398.7200000000001 149.3333333333334H356.0533333333334L349.2266666666667 85.3333333333334H306.56L313.3866666666667 149.3333333333334H277.3333333333333V192H317.8666666666667L322.1333333333334 234.6666666666667H277.3333333333333V277.3333333333334M364.8 234.6666666666667L360.5333333333334 192H403.2000000000001L407.4666666666667 234.6666666666667H364.8z" /></svg>