<?xml version="1.0" encoding="UTF-8"?><!DOCTYPE svg PUBLIC "-//W3C//DTD SVG 1.1//EN" "http://www.w3.org/Graphics/SVG/1.1/DTD/svg11.dtd"><svg xmlns="http://www.w3.org/2000/svg" xmlns:xlink="http://www.w3.org/1999/xlink" version="1.1" width="512" height="512" viewBox="0 0 512 512">    <path fill="#ffffff" transform="scale(1, -1) translate(0, -448)" glyph-name="eye-plus-outline" unicode="&#xF86B;" horiz-adv-x="512" d=" M256 352C149.3333333333333 352 58.24 285.6533333333333 21.3333333333333 192C58.24 98.3466666666667 149.3333333333333 32 256 32C263.68 32 271.36 32 279.04 33.0666666666667C277.9733333333333 39.8933333333334 277.3333333333333 46.5066666666667 277.3333333333333 53.3333333333334C277.3333333333333 61.0133333333333 278.1866666666666 68.6933333333333 279.4666666666667 76.3733333333333C271.7866666666667 75.52 263.8933333333333 74.6666666666667 256 74.6666666666667C175.7866666666667 74.6666666666667 103.04 120.3200000000001 67.84 192C103.04 263.68 175.7866666666667 309.3333333333334 256 309.3333333333334C336.2133333333333 309.3333333333334 408.9600000000001 263.68 444.16 192C441.6 186.88 438.6133333333333 182.4 435.84 177.4933333333334C449.92 174.0800000000001 463.36 168.3200000000001 475.52 160C481.28 170.6666666666667 486.4 181.3333333333334 490.6666666666666 192C453.76 285.6533333333333 362.6666666666667 352 256 352M256 256C220.5866666666667 256 192 227.4133333333334 192 192S220.5866666666667 128 256 128S320 156.5866666666667 320 192S291.4133333333333 256 256 256M384 138.6666666666667V74.6666666666667H320V32H384V-32H426.6666666666667V32H490.6666666666666V74.6666666666667H426.6666666666667V138.6666666666667H384z" /></svg>