<?xml version="1.0" encoding="UTF-8"?><!DOCTYPE svg PUBLIC "-//W3C//DTD SVG 1.1//EN" "http://www.w3.org/Graphics/SVG/1.1/DTD/svg11.dtd"><svg xmlns="http://www.w3.org/2000/svg" xmlns:xlink="http://www.w3.org/1999/xlink" version="1.1" width="512" height="512" viewBox="0 0 512 512">    <path fill="#ffffff" transform="scale(1, -1) translate(0, -448)" glyph-name="dog" unicode="&#xFA42;" horiz-adv-x="512" d=" M384 362.6666666666667C347.52 362.6666666666667 325.3333333333333 355.6266666666667 312.5333333333333 349.6533333333333C296.1066666666667 357.76 277.3333333333333 362.6666666666667 256 362.6666666666667S215.8933333333334 357.76 199.4666666666667 349.6533333333333C186.6666666666667 355.6266666666667 164.48 362.6666666666667 128 362.6666666666667C64 362.6666666666667 21.3333333333333 192 21.3333333333333 149.3333333333334C21.3333333333333 131.6266666666667 49.4933333333333 115.4133333333334 88.32 108.8C101.9733333333333 61.0133333333333 166.4 24.5333333333333 245.3333333333333 21.3333333333334V112.6400000000001C232.7466666666667 120.5333333333334 213.3333333333333 134.8266666666667 213.3333333333333 149.3333333333334C213.3333333333333 170.6666666666668 256 170.6666666666668 256 170.6666666666668S298.6666666666667 170.6666666666668 298.6666666666667 149.3333333333334C298.6666666666667 134.8266666666667 279.2533333333334 120.5333333333334 266.6666666666667 112.6400000000001V21.3333333333334C345.6 24.5333333333333 410.0266666666667 61.0133333333333 423.68 108.8C462.5066666666667 115.4133333333334 490.6666666666666 131.6266666666667 490.6666666666666 149.3333333333334C490.6666666666666 192 448 362.6666666666667 384 362.6666666666667M88.5333333333333 152.1066666666667C77.8666666666667 154.6666666666667 69.5466666666667 157.6533333333334 64 160C69.3333333333333 219.0933333333333 110.9333333333334 311.4666666666667 129.0666666666667 320C140.5866666666667 320 149.3333333333334 318.7200000000001 157.2266666666667 317.6533333333333C112.4266666666667 268.3733333333334 94.72 191.1466666666667 88.5333333333333 152.1066666666667M192 192C180.2666666666667 192 170.6666666666667 201.6 170.6666666666667 213.3333333333334C170.6666666666667 224.8533333333333 180.2666666666667 234.6666666666667 192 234.6666666666667S213.3333333333333 225.0666666666667 213.3333333333333 213.3333333333334C213.3333333333333 201.3866666666667 203.7333333333334 192 192 192M320 192C308.2666666666667 192 298.6666666666667 201.6 298.6666666666667 213.3333333333334C298.6666666666667 224.8533333333333 308.2666666666667 234.6666666666667 320 234.6666666666667S341.3333333333333 225.0666666666667 341.3333333333333 213.3333333333334C341.3333333333333 201.3866666666667 331.7333333333334 192 320 192M423.4666666666667 152.1066666666667C417.2800000000001 191.1466666666667 399.5733333333333 268.3733333333334 354.7733333333334 317.6533333333333C362.6666666666668 318.72 371.4133333333334 320 382.9333333333334 320C401.0666666666667 311.4666666666667 442.6666666666668 219.0933333333333 448.0000000000001 160C442.6666666666668 157.6533333333334 434.3466666666667 154.6666666666667 423.4666666666668 152.1066666666667z" /></svg>