<?xml version="1.0" encoding="UTF-8"?><!DOCTYPE svg PUBLIC "-//W3C//DTD SVG 1.1//EN" "http://www.w3.org/Graphics/SVG/1.1/DTD/svg11.dtd"><svg xmlns="http://www.w3.org/2000/svg" xmlns:xlink="http://www.w3.org/1999/xlink" version="1.1" width="512" height="512" viewBox="0 0 512 512">    <path fill="#ffffff" transform="scale(1, -1) translate(0, -448)" glyph-name="safe" unicode="&#xFA69;" horiz-adv-x="512" d=" M85.3333333333333 362.6666666666667C61.8666666666667 362.6666666666667 42.6666666666667 343.4666666666667 42.6666666666667 320V85.3333333333334C42.6666666666667 61.8666666666667 61.8666666666667 42.6666666666667 85.3333333333333 42.6666666666667V21.3333333333334H128V42.6666666666667H362.6666666666667V21.3333333333334H405.3333333333333V42.6666666666667C428.8 42.6666666666667 448 61.8666666666667 448 85.3333333333334V106.6666666666667H469.3333333333333V149.3333333333334H448V256H469.3333333333333V298.6666666666667H448V320C448 343.4666666666667 428.8 362.6666666666667 405.3333333333333 362.6666666666667H85.3333333333333M85.3333333333333 320H405.3333333333333V85.3333333333334H85.3333333333333V320M288 288C240.8533333333333 288 202.6666666666667 249.8133333333334 202.6666666666667 202.6666666666667S240.8533333333333 117.3333333333334 288 117.3333333333334S373.3333333333333 155.52 373.3333333333333 202.6666666666667S335.1466666666667 288 288 288M106.6666666666667 256V149.3333333333334H149.3333333333333V256H106.6666666666667M288 245.3333333333334C311.4666666666667 245.3333333333334 330.6666666666667 226.1333333333334 330.6666666666667 202.6666666666667S311.4666666666667 160 288 160S245.3333333333333 179.2000000000001 245.3333333333333 202.6666666666667S264.5333333333333 245.3333333333334 288 245.3333333333334z" /></svg>