<?xml version="1.0" encoding="UTF-8"?><!DOCTYPE svg PUBLIC "-//W3C//DTD SVG 1.1//EN" "http://www.w3.org/Graphics/SVG/1.1/DTD/svg11.dtd"><svg xmlns="http://www.w3.org/2000/svg" xmlns:xlink="http://www.w3.org/1999/xlink" version="1.1" width="512" height="512" viewBox="0 0 512 512">    <path fill="#ffffff" transform="scale(1, -1) translate(0, -448)" glyph-name="zodiac-capricorn" unicode="&#xFA7F;" horiz-adv-x="512" d=" M320 170.6666666666667C305.0666666666667 170.6666666666667 290.3466666666667 166.6133333333334 277.3333333333333 158.9333333333333V320C277.3333333333333 355.4133333333334 248.7466666666667 384 213.3333333333333 384C197.3333333333333 384 182.4 377.8133333333334 170.6666666666667 367.36C158.9333333333333 378.0266666666667 143.7866666666667 384 128 384V341.3333333333334C139.7333333333333 341.3333333333334 149.3333333333333 331.7333333333334 149.3333333333333 320V106.6666666666667H192V320C192 331.7333333333334 201.6 341.3333333333334 213.3333333333333 341.3333333333334S234.6666666666667 331.7333333333334 234.6666666666667 320V85.3333333333334C234.6666666666667 61.8666666666667 215.4666666666667 42.6666666666667 192 42.6666666666667V0C216.5333333333333 0 240 10.6666666666667 256 29.44C286.9333333333333 -6.1866666666666 340.6933333333334 -10.0266666666667 376.32 21.3333333333334C411.9466666666667 51.6266666666667 416 105.6 384.8533333333333 141.2266666666667C368.64 160 344.9600000000001 170.6666666666667 320 170.6666666666667M320 42.6666666666667C296.5333333333333 42.6666666666667 277.3333333333333 61.8666666666667 277.3333333333333 85.3333333333334S296.5333333333333 128 320 128S362.6666666666667 108.8 362.6666666666667 85.3333333333334S343.4666666666667 42.6666666666667 320 42.6666666666667z" /></svg>