<?xml version="1.0" encoding="UTF-8"?><!DOCTYPE svg PUBLIC "-//W3C//DTD SVG 1.1//EN" "http://www.w3.org/Graphics/SVG/1.1/DTD/svg11.dtd"><svg xmlns="http://www.w3.org/2000/svg" xmlns:xlink="http://www.w3.org/1999/xlink" version="1.1" width="512" height="512" viewBox="0 0 512 512">    <path fill="#ffffff" transform="scale(1, -1) translate(0, -448)" glyph-name="pocket" unicode="&#xF41C;" horiz-adv-x="512" d=" M467.1999999999999 357.12C461.6533333333333 372.2666666666667 447.1466666666666 382.5066666666667 430.9333333333333 382.5066666666667H81.28C65.4933333333333 382.5066666666667 50.9866666666667 372.48 45.2266666666667 357.5466666666667C43.52 353.0666666666667 42.6666666666667 348.5866666666667 42.6666666666667 343.8933333333333V215.04L44.16 189.4400000000001C50.3466666666667 131.2000000000001 80.64 80.4266666666667 127.36 44.8000000000001C128 44.16 129.0666666666667 43.5200000000001 129.92 42.6666666666667H130.3466666666666C155.52 24.3200000000001 183.4666666666667 11.9466666666667 213.3333333333333 5.76C227.84 2.9866666666667 242.1333333333334 1.4933333333333 256 1.4933333333333C269.44 1.4933333333333 282.6666666666667 2.7733333333333 295.4666666666667 5.1200000000001C297.1733333333333 5.3333333333334 298.6666666666667 5.7600000000001 300.16 5.9733333333334C300.5866666666667 6.1866666666667 301.0133333333333 6.4 301.6533333333333 6.6133333333334C330.6666666666667 12.8000000000001 357.5466666666667 24.96 381.6533333333333 42.6666666666667H382.08C382.9333333333333 43.5200000000001 384 44.1600000000001 384.64 44.8000000000001C431.36 80.4266666666667 461.6533333333333 131.2000000000002 467.84 189.4400000000002L469.3333333333333 215.0400000000001V343.8933333333333C469.3333333333333 348.1600000000001 468.6933333333333 352.64 467.1999999999999 357.12M376.9599999999999 222.9333333333333L276.4799999999999 126.72C270.9333333333333 121.1733333333334 263.4666666666666 118.6133333333334 255.9999999999999 118.6133333333334C248.9599999999999 118.6133333333334 241.7066666666666 121.1733333333333 235.9466666666666 126.72L135.6799999999999 222.9333333333333C123.9466666666666 234.0266666666667 123.5199999999999 252.5866666666667 134.8266666666666 264.32C145.9199999999999 276.0533333333334 164.4799999999999 276.2666666666667 176.2133333333333 265.1733333333333L255.9999999999999 188.3733333333333L336.4266666666666 265.1733333333333C347.9466666666666 276.2666666666667 366.5066666666666 275.84 377.8133333333333 264.32C388.9066666666666 252.5866666666667 388.4799999999999 234.0266666666667 376.9599999999999 222.9333333333333z" /></svg>