<?xml version="1.0" encoding="UTF-8"?><!DOCTYPE svg PUBLIC "-//W3C//DTD SVG 1.1//EN" "http://www.w3.org/Graphics/SVG/1.1/DTD/svg11.dtd"><svg xmlns="http://www.w3.org/2000/svg" xmlns:xlink="http://www.w3.org/1999/xlink" version="1.1" width="512" height="512" viewBox="0 0 512 512">    <path fill="#ffffff" transform="scale(1, -1) translate(0, -448)" glyph-name="trello" unicode="&#xF532;" horiz-adv-x="512" d=" M416 405.3333333333333H96C66.56 405.3333333333333 42.6666666666667 381.44 42.6666666666667 352V32C42.6666666666667 2.5600000000001 66.56 -21.3333333333333 96 -21.3333333333333H416C445.44 -21.3333333333333 469.3333333333333 2.5600000000001 469.3333333333333 32V352C469.3333333333333 381.44 445.44 405.3333333333333 416 405.3333333333333M228.2666666666667 81.0666666666667C228.2666666666667 66.9866666666667 216.7466666666667 55.4666666666667 202.6666666666667 55.4666666666667H123.7333333333333C109.6533333333333 55.4666666666667 98.1333333333333 66.9866666666667 98.1333333333333 81.0666666666667V324.2666666666667C98.1333333333333 338.3466666666667 109.6533333333333 349.8666666666667 123.7333333333333 349.8666666666667H202.6666666666667C216.7466666666667 349.8666666666667 228.2666666666667 338.3466666666667 228.2666666666667 324.2666666666667V81.0666666666667M413.8666666666666 187.7333333333334C413.8666666666666 173.6533333333334 402.3466666666667 162.1333333333334 388.2666666666667 162.1333333333334H309.3333333333333C295.2533333333334 162.1333333333334 283.7333333333334 173.6533333333334 283.7333333333334 187.7333333333334V324.2666666666667C283.7333333333334 338.3466666666667 295.2533333333334 349.8666666666667 309.3333333333333 349.8666666666667H388.2666666666667C402.3466666666667 349.8666666666667 413.8666666666666 338.3466666666667 413.8666666666666 324.2666666666667V187.7333333333334z" /></svg>