<?xml version="1.0" encoding="UTF-8"?><!DOCTYPE svg PUBLIC "-//W3C//DTD SVG 1.1//EN" "http://www.w3.org/Graphics/SVG/1.1/DTD/svg11.dtd"><svg xmlns="http://www.w3.org/2000/svg" xmlns:xlink="http://www.w3.org/1999/xlink" version="1.1" width="512" height="512" viewBox="0 0 512 512">    <path fill="#ffffff" transform="scale(1, -1) translate(0, -448)" glyph-name="rotate-orbit" unicode="&#xFD74;" horiz-adv-x="512" d=" M170.6666666666667 144L101.3333333333333 213.3333333333334H149.3333333333333C154.6666666666667 333.0133333333333 200.32 426.6666666666667 256 426.6666666666667C298.6666666666667 426.6666666666667 336.4266666666666 370.3466666666667 353.0666666666667 289.0666666666667C434.3466666666667 272.4266666666667 490.6666666666666 234.6666666666667 490.6666666666666 192C490.6666666666666 152.96 444.3733333333333 118.8266666666667 375.4666666666667 100.2666666666667L381.6533333333333 143.5733333333333C422.4 155.3066666666667 448 172.5866666666667 448 192C448 214.6133333333334 412.8 234.6666666666667 359.8933333333333 245.3333333333334C361.6 228.48 362.6666666666667 210.56 362.6666666666667 192C362.6666666666667 62.2933333333334 314.88 -42.6666666666666 256 -42.6666666666666C216.96 -42.6666666666666 182.8266666666667 3.6266666666667 164.2666666666667 72.5333333333333L207.5733333333333 66.3466666666667C219.3066666666667 25.6 236.5866666666667 0 256 0C291.4133333333333 0 320 85.9733333333334 320 192C320 213.3333333333334 318.9333333333333 233.6 316.8 252.8C297.6 254.9333333333334 277.3333333333333 256 256 256L216.32 254.72L222.5066666666667 297.6L256 298.6666666666667C274.56 298.6666666666667 292.48 297.6 309.3333333333333 295.8933333333333C298.6666666666667 348.8 278.6133333333334 384 256 384C223.1466666666667 384 195.84 309.3333333333334 192 213.3333333333334H240L170.6666666666667 144M304 106.6666666666667L234.6666666666667 37.3333333333334V85.3333333333334C114.9866666666667 90.6666666666667 21.3333333333333 136.3200000000001 21.3333333333333 192C21.3333333333333 231.04 67.6266666666667 265.1733333333334 136.5333333333333 283.7333333333334L130.3466666666667 240.4266666666667C89.6 228.6933333333334 64 211.4133333333334 64 192C64 159.1466666666667 138.6666666666667 131.84 234.6666666666667 128V176L304 106.6666666666667z" /></svg>