<?xml version="1.0" encoding="UTF-8"?><!DOCTYPE svg PUBLIC "-//W3C//DTD SVG 1.1//EN" "http://www.w3.org/Graphics/SVG/1.1/DTD/svg11.dtd"><svg xmlns="http://www.w3.org/2000/svg" xmlns:xlink="http://www.w3.org/1999/xlink" version="1.1" width="512" height="512" viewBox="0 0 512 512">    <path fill="#ffffff" transform="scale(1, -1) translate(0, -448)" glyph-name="shield-key" unicode="&#xFBA0;" horiz-adv-x="512" d=" M256 277.3333333333334C267.7333333333334 277.3333333333334 277.3333333333333 267.7333333333334 277.3333333333333 256S267.7333333333334 234.6666666666667 256 234.6666666666667S234.6666666666667 244.2666666666667 234.6666666666667 256S244.2666666666667 277.3333333333334 256 277.3333333333334M448 213.3333333333334C448 94.9333333333333 366.08 -15.7866666666667 256 -42.6666666666666C145.92 -15.7866666666666 64 94.9333333333333 64 213.3333333333334V341.3333333333334L256 426.6666666666667L448 341.3333333333334V213.3333333333334M256 320C220.5866666666667 320 192 291.4133333333334 192 256C192 228.0533333333334 209.7066666666667 204.3733333333333 234.6666666666667 195.6266666666667V64H277.3333333333333V106.6666666666667H320V149.3333333333334H277.3333333333333V195.6266666666667C302.2933333333333 204.3733333333333 320 228.0533333333334 320 256C320 291.4133333333334 291.4133333333333 320 256 320z" /></svg>