<?xml version="1.0" encoding="UTF-8"?><!DOCTYPE svg PUBLIC "-//W3C//DTD SVG 1.1//EN" "http://www.w3.org/Graphics/SVG/1.1/DTD/svg11.dtd"><svg xmlns="http://www.w3.org/2000/svg" xmlns:xlink="http://www.w3.org/1999/xlink" version="1.1" width="512" height="512" viewBox="0 0 512 512">    <path fill="#ffffff" transform="scale(1, -1) translate(0, -448)" glyph-name="headphones-off" unicode="&#xF7CD;" horiz-adv-x="512" d=" M256 426.6666666666667C362.0266666666667 426.6666666666667 448 340.6933333333334 448 234.6666666666667V85.3333333333334C448 72.1066666666667 443.9466666666666 59.9466666666667 437.3333333333333 49.7066666666667L320 166.8266666666667V192H405.3333333333333V234.6666666666667C405.3333333333333 317.2266666666667 338.56 384 256 384C213.3333333333333 384 175.5733333333333 366.5066666666667 148.48 338.3466666666667L118.4 368.64C153.1733333333333 404.48 202.0266666666667 426.6666666666667 256 426.6666666666667M59.3066666666667 373.3333333333334L437.3333333333333 -4.6933333333333L410.24 -32L356.9066666666667 21.3333333333334H320V58.24L192 186.24V21.3333333333334H128C92.5866666666667 21.3333333333334 64 49.92 64 85.3333333333334V234.6666666666667C64 258.3466666666667 68.2666666666667 281.1733333333334 76.16 302.0800000000001L32 346.24L59.3066666666667 373.3333333333334M110.2933333333333 267.9466666666667C107.9466666666667 257.2800000000001 106.6666666666667 246.1866666666667 106.6666666666667 234.6666666666667V192H186.24L110.2933333333333 267.9466666666667z" /></svg>