<?xml version="1.0" encoding="UTF-8"?><!DOCTYPE svg PUBLIC "-//W3C//DTD SVG 1.1//EN" "http://www.w3.org/Graphics/SVG/1.1/DTD/svg11.dtd"><svg xmlns="http://www.w3.org/2000/svg" xmlns:xlink="http://www.w3.org/1999/xlink" version="1.1" width="512" height="512" viewBox="0 0 512 512">    <path fill="#ffffff" transform="scale(1, -1) translate(0, -448)" glyph-name="magnify-plus" unicode="&#xF34B;" horiz-adv-x="512" d=" M192 405.3333333333333C274.56 405.3333333333333 341.3333333333333 338.56 341.3333333333333 256C341.3333333333333 222.5066666666667 330.6666666666667 192 311.68 166.6133333333334L328.7466666666667 149.3333333333333H341.3333333333333L469.3333333333333 21.3333333333334L426.6666666666667 -21.3333333333333L298.6666666666667 106.6666666666667V119.2533333333333L281.3866666666667 136.3200000000001C256 117.3333333333334 225.4933333333334 106.6666666666667 192 106.6666666666667C109.44 106.6666666666667 42.6666666666667 173.44 42.6666666666667 256S109.44 405.3333333333333 192 405.3333333333333M170.6666666666667 341.3333333333334V277.3333333333334H106.6666666666667V234.6666666666667H170.6666666666667V170.6666666666667H213.3333333333333V234.6666666666667H277.3333333333333V277.3333333333334H213.3333333333333V341.3333333333334H170.6666666666667z" /></svg>