<?xml version="1.0" encoding="UTF-8"?><!DOCTYPE svg PUBLIC "-//W3C//DTD SVG 1.1//EN" "http://www.w3.org/Graphics/SVG/1.1/DTD/svg11.dtd"><svg xmlns="http://www.w3.org/2000/svg" xmlns:xlink="http://www.w3.org/1999/xlink" version="1.1" width="512" height="512" viewBox="0 0 512 512">    <path fill="#ffffff" transform="scale(1, -1) translate(0, -448)" glyph-name="block-helper" unicode="&#xF0AD;" horiz-adv-x="512" d=" M256 448C397.44 448 512 333.44 512 192S397.44 -64 256 -64S0 50.5600000000001 0 192S114.56 448 256 448M256 405.3333333333333C138.24 405.3333333333333 42.6666666666667 309.76 42.6666666666667 192C42.6666666666667 140.8 60.8 93.8666666666667 90.88 56.96L391.04 357.12C354.1333333333334 387.2 307.2 405.3333333333333 256 405.3333333333333M256 -21.3333333333333C373.76 -21.3333333333333 469.3333333333333 74.24 469.3333333333333 192C469.3333333333333 243.2 451.1999999999999 290.1333333333334 421.12 327.04L120.96 26.8800000000001C157.8666666666667 -3.1999999999999 204.8 -21.3333333333333 256 -21.3333333333333z" /></svg>