<?xml version="1.0" encoding="UTF-8"?><!DOCTYPE svg PUBLIC "-//W3C//DTD SVG 1.1//EN" "http://www.w3.org/Graphics/SVG/1.1/DTD/svg11.dtd"><svg xmlns="http://www.w3.org/2000/svg" xmlns:xlink="http://www.w3.org/1999/xlink" version="1.1" width="512" height="512" viewBox="0 0 512 512">    <path fill="#ffffff" transform="scale(1, -1) translate(0, -448)" glyph-name="toolbox-outline" unicode="&#xF9AC;" horiz-adv-x="512" d=" M426.6666666666667 64V149.3333333333334H362.6666666666667V128H320V149.3333333333334H192V128H149.3333333333333V149.3333333333334H85.3333333333333V64H426.6666666666667M135.04 277.3333333333334L97.92 192H149.3333333333333V213.3333333333334H192V192H320V213.3333333333334H362.6666666666667V192H414.08L376.9600000000001 277.3333333333334H135.04M192 341.3333333333334V320H320V341.3333333333334H192M465.92 178.9866666666667C468.0533333333333 174.2933333333334 469.3333333333333 168.7466666666667 469.3333333333333 161.92V64C469.3333333333333 52.6933333333333 464.8533333333333 42.6666666666667 456.5333333333333 33.92C448 25.3866666666667 438.3999999999999 21.3333333333334 426.6666666666667 21.3333333333334H85.3333333333333C73.6 21.3333333333334 64 25.3866666666667 55.4666666666667 33.92C47.1466666666667 42.6666666666667 42.6666666666667 52.6933333333333 42.6666666666667 64V161.92C42.6666666666667 168.7466666666667 43.9466666666667 174.2933333333334 46.08 178.9866666666667L96 293.9733333333334C103.2533333333333 311.2533333333334 116.2666666666667 320 135.04 320H149.3333333333333V341.3333333333334C149.3333333333333 353.0666666666667 153.1733333333333 362.6666666666667 161.4933333333334 371.4133333333334C169.8133333333333 379.7333333333334 180.0533333333333 384 192 384H320C331.9466666666667 384 342.1866666666666 379.7333333333334 350.5066666666667 371.4133333333334C358.8266666666667 362.6666666666667 362.6666666666667 353.0666666666667 362.6666666666667 341.3333333333334V320H376.9600000000001C395.7333333333334 320 408.7466666666667 311.2533333333334 416 293.9733333333334L465.92 178.9866666666667z" /></svg>