<?xml version="1.0" encoding="UTF-8"?><!DOCTYPE svg PUBLIC "-//W3C//DTD SVG 1.1//EN" "http://www.w3.org/Graphics/SVG/1.1/DTD/svg11.dtd"><svg xmlns="http://www.w3.org/2000/svg" xmlns:xlink="http://www.w3.org/1999/xlink" version="1.1" width="512" height="512" viewBox="0 0 512 512">    <path fill="#ffffff" transform="scale(1, -1) translate(0, -448)" glyph-name="ear-hearing-off" unicode="&#xFA44;" horiz-adv-x="512" d=" M21.3333333333333 356.9066666666667L48.64 384L426.6666666666667 5.9733333333334L399.5733333333333 -21.3333333333333L275.4133333333333 102.8266666666667C260.0533333333333 90.8800000000001 248.96 81.28 242.56 61.8666666666667C229.76 23.04 213.3333333333333 1.28 184.32 -13.8666666666667C173.44 -18.7733333333334 161.4933333333334 -21.3333333333334 149.3333333333334 -21.3333333333334C102.1866666666667 -21.3333333333334 64 16.8533333333332 64 63.9999999999999H106.6666666666667C106.6666666666667 40.5333333333332 125.8666666666667 21.3333333333333 149.3333333333334 21.3333333333333C155.52 21.3333333333333 161.28 22.6133333333332 165.5466666666667 24.5333333333332C180.6933333333333 31.9999999999999 191.36 43.3066666666666 202.0266666666667 75.3066666666666C211.4133333333333 104.1066666666666 228.0533333333334 119.6799999999999 245.3333333333333 133.1199999999999L107.52 270.7200000000001C106.6666666666667 265.8133333333334 106.6666666666667 260.9066666666667 106.6666666666667 256H64C64 273.7066666666667 66.9866666666667 290.3466666666667 72.32 305.92L21.3333333333333 356.9066666666667M302.5066666666667 193.28C313.8133333333334 213.3333333333334 320 236.1600000000001 320 256C320 315.7333333333334 273.0666666666667 362.6666666666667 213.3333333333333 362.6666666666667C187.9466666666667 362.6666666666667 165.12 354.3466666666667 146.9866666666667 340.0533333333334L116.48 370.56C142.2933333333333 392.32 176 405.3333333333333 213.3333333333333 405.3333333333333C297.1733333333333 405.3333333333333 362.6666666666667 339.8400000000001 362.6666666666667 256C362.6666666666667 229.12 354.56 199.4666666666667 339.84 172.8L330.0266666666667 156.8L299.3066666666666 187.7333333333334L302.5066666666667 193.28M349.0133333333333 391.68L379.3066666666667 421.9733333333333C421.76 379.52 448 320.8533333333334 448 256C448 195.6266666666667 425.1733333333333 140.5866666666667 387.84 98.9866666666667L357.76 129.28C387.2 162.9866666666667 405.3333333333333 207.36 405.3333333333333 256C405.3333333333333 309.3333333333334 384 357.12 349.0133333333333 391.68M266.6666666666667 256C266.6666666666667 245.3333333333334 263.68 236.1600000000001 258.7733333333333 228.0533333333334L185.3866666666667 301.44C193.4933333333334 306.3466666666667 202.6666666666667 309.3333333333334 213.3333333333333 309.3333333333334C242.7733333333333 309.3333333333334 266.6666666666667 285.44 266.6666666666667 256z" /></svg>