<?xml version="1.0" encoding="UTF-8"?><!DOCTYPE svg PUBLIC "-//W3C//DTD SVG 1.1//EN" "http://www.w3.org/Graphics/SVG/1.1/DTD/svg11.dtd"><svg xmlns="http://www.w3.org/2000/svg" xmlns:xlink="http://www.w3.org/1999/xlink" version="1.1" width="512" height="512" viewBox="0 0 512 512">    <path fill="#ffffff" transform="scale(1, -1) translate(0, -448)" glyph-name="router-wireless-settings" unicode="&#xFA68;" horiz-adv-x="512" d=" M430.9333333333333 343.4666666666667C405.3333333333333 366.9333333333334 373.3333333333333 379.7333333333334 341.3333333333333 379.7333333333334S277.3333333333333 366.9333333333334 251.7333333333334 343.4666666666667L234.6666666666667 360.5333333333333C264.5333333333333 390.4 302.9333333333333 405.3333333333333 341.3333333333333 405.3333333333333C379.7333333333334 405.3333333333333 418.1333333333334 390.4 448 360.5333333333334L430.9333333333333 343.4666666666667M411.7333333333334 326.4000000000001L394.6666666666667 309.3333333333334C379.7333333333334 324.2666666666667 360.5333333333333 330.6666666666667 341.3333333333333 330.6666666666667C322.1333333333334 330.6666666666667 302.9333333333333 324.2666666666667 288 309.3333333333334L270.9333333333333 326.4000000000001C290.1333333333334 345.6 315.7333333333333 356.2666666666667 341.3333333333333 356.2666666666667C366.9333333333333 356.2666666666667 392.5333333333333 345.6 411.7333333333334 326.4000000000001M405.3333333333333 192C428.8 192 448 172.8 448 149.3333333333334V64C448 40.5333333333333 428.8 21.3333333333334 405.3333333333333 21.3333333333334H106.6666666666667C83.2 21.3333333333334 64 40.5333333333333 64 64V149.3333333333334C64 172.8 83.2 192 106.6666666666667 192H320V277.3333333333334H362.6666666666667V192H405.3333333333333M170.6666666666667 85.3333333333334V128H128V85.3333333333334H170.6666666666667M245.3333333333333 85.3333333333334V128H202.6666666666667V85.3333333333334H245.3333333333333M320 85.3333333333334V128H277.3333333333333V85.3333333333334H320M149.3333333333333 -21.3333333333333H192V-64H149.3333333333333V-21.3333333333333M234.6666666666667 -21.3333333333333H277.3333333333333V-64H234.6666666666667V-21.3333333333333M320 -21.3333333333333H362.6666666666667V-64H320V-21.3333333333333z" /></svg>