<?xml version="1.0" encoding="UTF-8"?><!DOCTYPE svg PUBLIC "-//W3C//DTD SVG 1.1//EN" "http://www.w3.org/Graphics/SVG/1.1/DTD/svg11.dtd"><svg xmlns="http://www.w3.org/2000/svg" xmlns:xlink="http://www.w3.org/1999/xlink" version="1.1" width="512" height="512" viewBox="0 0 512 512">    <path fill="#ffffff" transform="scale(1, -1) translate(0, -448)" glyph-name="account-arrow-left" unicode="&#xFB2D;" horiz-adv-x="512" d=" M384 0L320 64L384 128V85.3333333333334H469.3333333333333V42.6666666666667H384V0M213.3333333333333 362.6666666666667C260.48 362.6666666666667 298.6666666666667 324.48 298.6666666666667 277.3333333333334S260.48 192 213.3333333333333 192S128 230.1866666666667 128 277.3333333333334S166.1866666666667 362.6666666666667 213.3333333333333 362.6666666666667M213.3333333333333 149.3333333333334C237.8666666666667 149.3333333333334 261.3333333333333 146.7733333333334 282.4533333333333 142.0800000000001C265.8133333333334 120.5333333333334 256 93.44 256 64C256 49.0666666666667 258.56 34.7733333333333 263.2533333333334 21.3333333333334H42.6666666666667V64C42.6666666666667 111.1466666666667 119.04 149.3333333333334 213.3333333333333 149.3333333333334z" /></svg>