<?xml version="1.0" encoding="UTF-8"?><!DOCTYPE svg PUBLIC "-//W3C//DTD SVG 1.1//EN" "http://www.w3.org/Graphics/SVG/1.1/DTD/svg11.dtd"><svg xmlns="http://www.w3.org/2000/svg" xmlns:xlink="http://www.w3.org/1999/xlink" version="1.1" width="512" height="512" viewBox="0 0 512 512">    <path fill="#ffffff" transform="scale(1, -1) translate(0, -448)" glyph-name="transition-masked" unicode="&#xF915;" horiz-adv-x="512" d=" M320 405.3333333333333C361.3866666666667 405.3333333333333 396.5866666666667 390.4 425.6 361.6C454.4 332.5866666666667 469.3333333333333 297.3866666666667 469.3333333333333 256C469.3333333333333 222.72 458.6666666666666 192.8533333333333 439.04 166.4C418.9866666666666 140.16 393.3866666666666 122.24 362.0266666666667 113.0666666666667L362.6666666666667 119.8933333333334V128C362.6666666666667 174.72 346.24 214.8266666666667 312.5333333333333 248.5333333333334S238.72 298.6666666666667 192 298.6666666666667H184.1066666666667L177.0666666666667 298.0266666666667C186.24 329.3866666666667 204.16 354.9866666666667 230.4 375.04C256.8533333333333 394.6666666666667 286.72 405.3333333333333 320 405.3333333333333M192 277.3333333333334C274.56 277.3333333333334 341.3333333333333 210.56 341.3333333333333 128S274.56 -21.3333333333333 192 -21.3333333333333S42.6666666666667 45.44 42.6666666666667 128S109.44 277.3333333333334 192 277.3333333333334M192 234.6666666666667C133.12 234.6666666666667 85.3333333333333 186.88 85.3333333333333 128S133.12 21.3333333333334 192 21.3333333333334S298.6666666666667 69.1200000000001 298.6666666666667 128S250.88 234.6666666666667 192 234.6666666666667z" /></svg>