<?xml version="1.0" encoding="UTF-8"?><!DOCTYPE svg PUBLIC "-//W3C//DTD SVG 1.1//EN" "http://www.w3.org/Graphics/SVG/1.1/DTD/svg11.dtd"><svg xmlns="http://www.w3.org/2000/svg" xmlns:xlink="http://www.w3.org/1999/xlink" version="1.1" width="512" height="512" viewBox="0 0 512 512">    <path fill="#ffffff" transform="scale(1, -1) translate(0, -448)" glyph-name="floppy" unicode="&#xF249;" horiz-adv-x="512" d=" M106.6666666666667 384C83.2 384 64 364.8 64 341.3333333333334V42.6666666666667C64 19.2 83.2 0 106.6666666666667 0H405.3333333333333C428.8 0 448 19.2 448 42.6666666666667V330.6666666666667L394.6666666666667 384H362.6666666666667V256C362.6666666666667 244.2666666666667 353.0666666666667 234.6666666666667 341.3333333333333 234.6666666666667H170.6666666666667C158.9333333333333 234.6666666666667 149.3333333333333 244.2666666666667 149.3333333333333 256V384H106.6666666666667M256 362.6666666666667V256H320V362.6666666666667H256M149.3333333333333 192H362.6666666666667C374.4 192 384 182.4 384 170.6666666666667V42.6666666666667H128V170.6666666666667C128 182.4 137.6 192 149.3333333333333 192z" /></svg>