<?xml version="1.0" encoding="UTF-8"?><!DOCTYPE svg PUBLIC "-//W3C//DTD SVG 1.1//EN" "http://www.w3.org/Graphics/SVG/1.1/DTD/svg11.dtd"><svg xmlns="http://www.w3.org/2000/svg" xmlns:xlink="http://www.w3.org/1999/xlink" version="1.1" width="512" height="512" viewBox="0 0 512 512">    <path fill="#ffffff" transform="scale(1, -1) translate(0, -448)" glyph-name="locker-multiple" unicode="&#xF7D7;" horiz-adv-x="512" d=" M64 405.3333333333333H448C471.4666666666667 405.3333333333333 490.6666666666666 386.1333333333334 490.6666666666666 362.6666666666667V21.3333333333334C490.6666666666666 -2.1333333333333 471.4666666666667 -21.3333333333333 448 -21.3333333333333H64C40.5333333333333 -21.3333333333333 21.3333333333333 -2.1333333333333 21.3333333333333 21.3333333333334V362.6666666666667C21.3333333333333 386.1333333333334 40.5333333333333 405.3333333333333 64 405.3333333333333M277.3333333333333 362.6666666666667V21.3333333333334H448V362.6666666666667H277.3333333333333M64 362.6666666666667V21.3333333333334H234.6666666666667V362.6666666666667H64M106.6666666666667 170.6666666666667H149.3333333333333V85.3333333333334H106.6666666666667V170.6666666666667M106.6666666666667 320H192V288H106.6666666666667V320M106.6666666666667 256H192V224H106.6666666666667V256M320 170.6666666666667H362.6666666666667V85.3333333333334H320V170.6666666666667M320 320H405.3333333333333V288H320V320M320 256H405.3333333333333V224H320V256z" /></svg>