<?xml version="1.0" encoding="UTF-8"?><!DOCTYPE svg PUBLIC "-//W3C//DTD SVG 1.1//EN" "http://www.w3.org/Graphics/SVG/1.1/DTD/svg11.dtd"><svg xmlns="http://www.w3.org/2000/svg" xmlns:xlink="http://www.w3.org/1999/xlink" version="1.1" width="512" height="512" viewBox="0 0 512 512">    <path fill="#ffffff" transform="scale(1, -1) translate(0, -448)" glyph-name="pinwheel-outline" unicode="&#xFAD5;" horiz-adv-x="512" d=" M256 -42.6666666666666H234.6666666666667V97.4933333333333C211.84 76.8000000000001 181.3333333333333 64 149.3333333333333 64C80 64 21.3333333333333 122.6666666666667 21.3333333333333 192V213.3333333333334H161.4933333333334C140.8 236.1600000000001 128 266.6666666666667 128 298.6666666666667C128 368 186.6666666666667 426.6666666666667 256 426.6666666666667H277.3333333333333V286.5066666666667C300.16 307.2000000000001 330.6666666666667 320 362.6666666666667 320C432 320 490.6666666666666 261.3333333333334 490.6666666666666 192V170.6666666666667H350.5066666666667C371.2 147.84 384 117.3333333333334 384 85.3333333333334C384 16 325.3333333333333 -42.6666666666666 256 -42.6666666666666M277.3333333333333 167.8933333333333V2.7733333333333C313.6 12.5866666666667 341.3333333333333 46.2933333333333 341.3333333333333 85.3333333333334S313.6 158.0800000000001 277.3333333333333 167.8933333333334M66.7733333333333 170.6666666666667C76.5866666666667 134.4 110.2933333333333 106.6666666666667 149.3333333333333 106.6666666666667S222.08 134.4 231.8933333333334 170.6666666666667H66.7733333333333M280.1066666666667 213.3333333333334H445.2266666666666C435.4133333333333 249.6 401.4933333333333 277.3333333333334 362.6666666666666 277.3333333333334C323.8399999999999 277.3333333333334 289.9199999999999 249.6 280.1066666666666 213.3333333333334M234.6666666666667 381.2266666666667C198.4 371.4133333333334 170.6666666666667 337.4933333333334 170.6666666666667 298.6666666666667C170.6666666666667 259.8400000000001 198.4 225.92 234.6666666666667 216.1066666666667V381.2266666666667z" /></svg>