<?xml version="1.0" encoding="UTF-8"?><!DOCTYPE svg PUBLIC "-//W3C//DTD SVG 1.1//EN" "http://www.w3.org/Graphics/SVG/1.1/DTD/svg11.dtd"><svg xmlns="http://www.w3.org/2000/svg" xmlns:xlink="http://www.w3.org/1999/xlink" version="1.1" width="512" height="512" viewBox="0 0 512 512">    <path fill="#ffffff" transform="scale(1, -1) translate(0, -448)" glyph-name="seed-outline" unicode="&#xFE46;" horiz-adv-x="512" d=" M366.9333333333333 341.3333333333334C379.7333333333334 341.3333333333334 392.5333333333333 341.3333333333334 403.2 339.2000000000001C407.4666666666666 290.1333333333334 407.4666666666666 192 349.8666666666666 123.7333333333334C307.2 70.4 234.6666666666667 42.6666666666667 136.5333333333333 42.6666666666667H108.8C104.5333333333333 140.8 123.7333333333333 217.6 168.5333333333333 266.6666666666667C221.8666666666667 328.5333333333334 307.2 341.3333333333334 366.9333333333333 341.3333333333334M366.9333333333333 384C249.6 384 34.1333333333333 339.2000000000001 68.2666666666667 4.2666666666667C91.7333333333333 2.1333333333333 115.2 0 136.5333333333333 0C518.4 0 441.6 377.6 441.6 377.6S411.7333333333334 384 366.9333333333333 384M362.6666666666667 298.6666666666667C149.3333333333333 298.6666666666667 149.3333333333333 85.3333333333334 149.3333333333333 85.3333333333334C234.6666666666667 256 362.6666666666667 298.6666666666667 362.6666666666667 298.6666666666667z" /></svg>