<?xml version="1.0" encoding="UTF-8"?><!DOCTYPE svg PUBLIC "-//W3C//DTD SVG 1.1//EN" "http://www.w3.org/Graphics/SVG/1.1/DTD/svg11.dtd"><svg xmlns="http://www.w3.org/2000/svg" xmlns:xlink="http://www.w3.org/1999/xlink" version="1.1" width="512" height="512" viewBox="0 0 512 512">    <path fill="#ffffff" transform="scale(1, -1) translate(0, -448)" glyph-name="at" unicode="&#xF065;" horiz-adv-x="512" d=" M256 128C273.28 128 288 134.4 301.0133333333333 146.9866666666667C313.6 160 320 174.72 320 192C320 209.28 313.6 224 301.0133333333333 237.0133333333333C288 249.6 273.28 256 256 256C238.72 256 224 249.6 210.9866666666667 237.0133333333333C198.4 224 192 209.28 192 192C192 174.72 198.4 160 210.9866666666667 146.9866666666667C224 134.4 238.7200000000001 128 256 128M256 405.3333333333333C314.6666666666667 405.3333333333333 364.8 384 406.4 342.4C448 300.8 469.3333333333333 250.6666666666667 469.3333333333333 192V161.0666666666667C469.3333333333333 139.7333333333334 461.8666666666666 121.6 448 106.6666666666667C433.0666666666667 92.3733333333333 416 85.3333333333334 394.6666666666667 85.3333333333334C369.0666666666667 85.3333333333334 347.9466666666666 96 331.9466666666667 117.3333333333334C310.6133333333334 96 285.44 85.3333333333334 256 85.3333333333334C226.7733333333333 85.3333333333334 201.6 96 180.48 116.48C160 137.6 149.3333333333333 162.56 149.3333333333333 192C149.3333333333333 221.2266666666667 160 246.4000000000001 180.48 267.52C201.6 288 226.7733333333334 298.6666666666667 256 298.6666666666667C285.44 298.6666666666667 310.4 288 331.52 267.52C352 246.4000000000001 362.6666666666667 221.2266666666667 362.6666666666667 192V161.0666666666667C362.6666666666667 152.3200000000001 366.08 144.6400000000001 372.48 138.0266666666667C378.88 131.4133333333334 386.3466666666667 128 394.6666666666667 128C403.6266666666667 128 411.0933333333333 131.4133333333334 417.4933333333334 138.0266666666667C423.8933333333333 144.6400000000001 426.6666666666667 152.3200000000001 426.6666666666667 161.0666666666667V192C426.6666666666667 238.72 410.24 278.8266666666667 376.5333333333333 312.5333333333334S302.72 362.6666666666667 256 362.6666666666667C209.28 362.6666666666667 169.1733333333333 346.24 135.4666666666667 312.5333333333334S85.3333333333333 238.72 85.3333333333333 192C85.3333333333333 145.28 101.76 105.1733333333334 135.4666666666667 71.4666666666667S209.28 21.3333333333334 256 21.3333333333334H362.6666666666667V-21.3333333333333H256C197.3333333333333 -21.3333333333333 147.2 0 105.6 41.6C64 83.2 42.6666666666667 133.3333333333334 42.6666666666667 192S64 300.8 105.6 342.4C147.2 384 197.3333333333333 405.3333333333333 256 405.3333333333333z" /></svg>