<?xml version="1.0" encoding="UTF-8"?><!DOCTYPE svg PUBLIC "-//W3C//DTD SVG 1.1//EN" "http://www.w3.org/Graphics/SVG/1.1/DTD/svg11.dtd"><svg xmlns="http://www.w3.org/2000/svg" xmlns:xlink="http://www.w3.org/1999/xlink" version="1.1" width="512" height="512" viewBox="0 0 512 512">    <path fill="#ffffff" transform="scale(1, -1) translate(0, -448)" glyph-name="desktop-tower-monitor" unicode="&#xFAAA;" horiz-adv-x="512" d=" M469.3333333333333 64H362.6666666666667C350.9333333333333 64 341.3333333333333 73.6 341.3333333333333 85.3333333333334V298.6666666666667C341.3333333333333 310.4 350.9333333333333 320 362.6666666666667 320H469.3333333333333C481.0666666666667 320 490.6666666666666 310.4 490.6666666666666 298.6666666666667V85.3333333333334C490.6666666666666 73.6 481.0666666666667 64 469.3333333333333 64M469.3333333333333 277.3333333333334H362.6666666666667V256H469.3333333333333V277.3333333333334M469.3333333333333 234.6666666666667H362.6666666666667V213.3333333333334H469.3333333333333V234.6666666666667M192 128V85.3333333333334H213.3333333333333V64H106.6666666666667V85.3333333333334H128V128H42.6666666666667C30.9333333333333 128 21.3333333333333 137.6 21.3333333333333 149.3333333333334V298.6666666666667C21.3333333333333 310.4 30.9333333333333 320 42.6666666666667 320H277.3333333333333C289.0666666666667 320 298.6666666666667 310.4 298.6666666666667 298.6666666666667V149.3333333333334C298.6666666666667 137.6 289.0666666666667 128 277.3333333333333 128H192M256 277.3333333333334H64V170.6666666666667H256V277.3333333333334z" /></svg>