<?xml version="1.0" encoding="UTF-8"?><!DOCTYPE svg PUBLIC "-//W3C//DTD SVG 1.1//EN" "http://www.w3.org/Graphics/SVG/1.1/DTD/svg11.dtd"><svg xmlns="http://www.w3.org/2000/svg" xmlns:xlink="http://www.w3.org/1999/xlink" version="1.1" width="512" height="512" viewBox="0 0 512 512">    <path fill="#ffffff" transform="scale(1, -1) translate(0, -448)" glyph-name="lock-clock" unicode="&#xF97E;" horiz-adv-x="512" d=" M181.3333333333333 405.3333333333333C128 405.3333333333333 85.3333333333333 362.6666666666667 85.3333333333333 309.3333333333334V298.6666666666667C61.6533333333333 298.6666666666667 42.6666666666667 279.68 42.6666666666667 256V64C42.6666666666667 40.3200000000001 61.6533333333333 21.3333333333334 85.3333333333333 21.3333333333334H186.0266666666667C217.1733333333333 -6.1866666666666 257.28 -21.3333333333333 298.6666666666667 -21.3333333333333C392.9600000000001 -21.3333333333333 469.3333333333333 55.04 469.3333333333333 149.3333333333334S392.9600000000001 320 298.6666666666667 320C291.4133333333333 320 284.16 319.36 277.3333333333333 318.2933333333334C272.2133333333333 367.5733333333333 230.8266666666667 405.3333333333333 181.3333333333333 405.3333333333333M181.3333333333333 362.6666666666667C210.7733333333334 362.6666666666667 234.6666666666667 338.7733333333333 234.6666666666667 309.3333333333334V298.6666666666667H128V309.3333333333334C128 338.7733333333333 151.8933333333333 362.6666666666667 181.3333333333333 362.6666666666667M298.6666666666667 277.3333333333334C369.28 277.3333333333334 426.6666666666667 219.9466666666667 426.6666666666667 149.3333333333334S369.28 21.3333333333334 298.6666666666667 21.3333333333334S170.6666666666667 78.72 170.6666666666667 149.3333333333334S228.0533333333333 277.3333333333334 298.6666666666667 277.3333333333334M277.3333333333333 234.6666666666667V128L354.9866666666667 81.28L371.6266666666667 108.8L309.3333333333334 146.1333333333333V234.6666666666667H277.3333333333333z" /></svg>