<?xml version="1.0" encoding="UTF-8"?><!DOCTYPE svg PUBLIC "-//W3C//DTD SVG 1.1//EN" "http://www.w3.org/Graphics/SVG/1.1/DTD/svg11.dtd"><svg xmlns="http://www.w3.org/2000/svg" xmlns:xlink="http://www.w3.org/1999/xlink" version="1.1" width="512" height="512" viewBox="0 0 512 512">    <path fill="#ffffff" transform="scale(1, -1) translate(0, -448)" glyph-name="disqus" unicode="&#xF1D2;" horiz-adv-x="512" d=" M257.7066666666667 -21.3333333333333C205.44 -21.3333333333333 157.6533333333333 -2.3466666666666 120.7466666666667 29.2266666666667L30.08 16.8533333333334L65.0666666666667 103.4666666666667C53.3333333333333 130.5600000000001 46.08 160.0000000000001 46.08 192.0000000000001C46.08 309.3333333333334 140.8 405.3333333333334 257.7066666666667 405.3333333333334C374.6133333333333 405.3333333333333 469.3333333333333 309.3333333333334 469.3333333333333 192S374.6133333333333 -21.3333333333333 257.7066666666667 -21.3333333333333M373.3333333333333 192.64V193.28C373.3333333333333 254.72 329.8133333333334 298.6666666666667 254.9333333333333 298.6666666666667H174.08V85.3333333333334H253.8666666666667C329.1733333333333 85.3333333333334 373.3333333333333 130.9866666666667 373.3333333333333 192.6400000000001M256 137.8133333333334H232.32V246.1866666666667H256C290.56 246.1866666666667 313.6 226.3466666666667 313.6 192C313.6 157.2266666666667 290.56 137.8133333333334 256 137.8133333333334z" /></svg>