<?xml version="1.0" encoding="UTF-8"?><!DOCTYPE svg PUBLIC "-//W3C//DTD SVG 1.1//EN" "http://www.w3.org/Graphics/SVG/1.1/DTD/svg11.dtd"><svg xmlns="http://www.w3.org/2000/svg" xmlns:xlink="http://www.w3.org/1999/xlink" version="1.1" width="512" height="512" viewBox="0 0 512 512">    <path fill="#ffffff" transform="scale(1, -1) translate(0, -448)" glyph-name="format-superscript" unicode="&#xF283;" horiz-adv-x="512" d=" M341.3333333333333 289.92L243.4133333333334 192L341.3333333333333 94.08L311.2533333333334 64L213.3333333333333 161.92L115.4133333333333 64L85.3333333333333 94.08L183.2533333333333 192L85.3333333333333 289.92L115.4133333333333 320L213.3333333333333 222.08L311.2533333333334 320L341.3333333333333 289.92M466.1333333333333 256H362.0266666666667V277.3333333333334L381.0133333333334 294.8266666666667C397.2266666666668 308.48 409.1733333333334 320 417.2800000000001 329.6C425.1733333333334 338.9866666666667 429.2266666666667 347.7333333333334 429.4400000000001 355.8400000000001C429.6533333333334 361.8133333333334 427.7333333333334 366.9333333333334 423.6800000000001 370.7733333333333C419.8400000000001 374.8266666666667 413.6533333333334 376.7466666666667 405.3333333333334 376.9600000000001C398.7200000000001 376.7466666666667 392.9600000000001 375.4666666666667 387.4133333333334 373.3333333333334L373.3333333333334 365.0133333333333L363.7333333333334 389.9733333333334C369.4933333333334 394.6666666666667 376.3200000000001 398.2933333333334 384.6400000000001 401.28S402.1333333333334 405.3333333333333 412.16 405.3333333333333C428.8 405.3333333333333 441.6 401.0666666666667 450.1333333333334 392.32C458.6666666666666 384 463.36 372.48 463.36 358.8266666666667C463.1466666666666 346.88 459.3066666666667 335.7866666666667 451.84 325.76C444.5866666666667 315.5200000000001 435.6266666666667 305.92 424.7466666666668 296.7466666666667L411.0933333333334 285.6533333333334V285.2266666666667H466.1333333333333V256z" /></svg>