<?xml version="1.0" encoding="UTF-8"?><!DOCTYPE svg PUBLIC "-//W3C//DTD SVG 1.1//EN" "http://www.w3.org/Graphics/SVG/1.1/DTD/svg11.dtd"><svg xmlns="http://www.w3.org/2000/svg" xmlns:xlink="http://www.w3.org/1999/xlink" version="1.1" width="512" height="512" viewBox="0 0 512 512">    <path fill="#ffffff" transform="scale(1, -1) translate(0, -448)" glyph-name="language-csharp" unicode="&#xF31B;" horiz-adv-x="512" d=" M245.3333333333333 107.3066666666667L254.08 55.2533333333333C248.5333333333334 52.2666666666667 239.5733333333333 49.4933333333333 227.6266666666667 46.9333333333333C215.4666666666667 44.16 201.1733333333333 42.6666666666667 184.7466666666667 42.6666666666667C137.6 43.52 102.1866666666667 57.6 78.5066666666667 84.48C54.6133333333333 111.5733333333334 42.6666666666667 145.92 42.6666666666667 187.52C43.7333333333333 236.8 58.0266666666667 274.56 85.3333333333333 301.0133333333333C113.4933333333334 327.68 148.48 341.3333333333334 190.72 341.3333333333334C206.72 341.3333333333334 220.5866666666667 339.8400000000001 232.1066666666667 337.28S252.16 331.9466666666667 257.7066666666666 328.7466666666667L245.3333333333333 275.6266666666667L222.72 282.88C214.1866666666666 285.0133333333333 204.3733333333333 286.08 193.0666666666666 286.08C168.3199999999999 286.2933333333333 147.8399999999999 278.4 131.8399999999999 262.6133333333334C115.6266666666666 247.04 107.3066666666666 223.1466666666667 106.6666666666666 191.36C106.6666666666666 162.3466666666667 114.56 139.7333333333334 129.7066666666666 123.0933333333334C144.8533333333333 106.6666666666667 166.1866666666666 98.1333333333334 193.4933333333333 97.92L221.8666666666666 100.48C231.0399999999999 102.1866666666667 238.72 104.5333333333334 245.3333333333333 107.3066666666667M296.32 42.6666666666667L309.3333333333333 128H277.3333333333333L284.5866666666667 170.6666666666667H316.5866666666667L323.4133333333333 213.3333333333334H291.4133333333333L298.6666666666667 256H330.6666666666667L343.68 341.3333333333334H386.3466666666667L373.3333333333333 256H394.6666666666667L407.68 341.3333333333334H450.3466666666667L437.3333333333333 256H469.3333333333333L462.08 213.3333333333334H430.08L423.2533333333334 170.6666666666667H455.2533333333333L448 128H416L402.9866666666667 42.6666666666667H360.32L373.3333333333333 128H352L338.9866666666667 42.6666666666667H296.32M359.2533333333334 170.6666666666667H380.5866666666667L387.4133333333333 213.3333333333334H366.08L359.2533333333334 170.6666666666667z" /></svg>