<?xml version="1.0" encoding="UTF-8"?><!DOCTYPE svg PUBLIC "-//W3C//DTD SVG 1.1//EN" "http://www.w3.org/Graphics/SVG/1.1/DTD/svg11.dtd"><svg xmlns="http://www.w3.org/2000/svg" xmlns:xlink="http://www.w3.org/1999/xlink" version="1.1" width="512" height="512" viewBox="0 0 512 512">    <path fill="#ffffff" transform="scale(1, -1) translate(0, -448)" glyph-name="desktop-classic" unicode="&#xF7BF;" horiz-adv-x="512" d=" M128 405.3333333333333C104.32 405.3333333333333 85.3333333333333 386.3466666666667 85.3333333333333 362.6666666666667V192C85.3333333333333 168.3200000000001 104.32 149.3333333333334 128 149.3333333333334H384C407.68 149.3333333333334 426.6666666666667 168.3200000000001 426.6666666666667 192V362.6666666666667C426.6666666666667 386.3466666666667 407.68 405.3333333333333 384 405.3333333333333H128M128 362.6666666666667H384V192H128V362.6666666666667M85.3333333333333 128C61.6533333333333 128 42.6666666666667 109.0133333333333 42.6666666666667 85.3333333333334V21.3333333333334C42.6666666666667 -2.3466666666666 61.6533333333333 -21.3333333333333 85.3333333333333 -21.3333333333333H426.6666666666667C450.3466666666667 -21.3333333333333 469.3333333333333 -2.3466666666666 469.3333333333333 21.3333333333334V85.3333333333334C469.3333333333333 109.0133333333333 450.3466666666667 128 426.6666666666667 128H85.3333333333333M170.6666666666667 85.3333333333334H426.6666666666667V21.3333333333334H170.6666666666667V85.3333333333334M192 69.3333333333334V37.3333333333334H277.3333333333333V69.3333333333334H192M320 69.3333333333334V37.3333333333334H405.3333333333333V69.3333333333334H320z" /></svg>