<?xml version="1.0" encoding="UTF-8"?><!DOCTYPE svg PUBLIC "-//W3C//DTD SVG 1.1//EN" "http://www.w3.org/Graphics/SVG/1.1/DTD/svg11.dtd"><svg xmlns="http://www.w3.org/2000/svg" xmlns:xlink="http://www.w3.org/1999/xlink" version="1.1" width="512" height="512" viewBox="0 0 512 512">    <path fill="#ffffff" transform="scale(1, -1) translate(0, -448)" glyph-name="radiator" unicode="&#xF438;" horiz-adv-x="512" d=" M169.6 384L139.3066666666667 337.28L169.6 290.1333333333334H169.3866666666667L126.9333333333333 224L90.0266666666667 243.2L120.32 290.3466666666667L90.0266666666667 337.2800000000001L132.6933333333333 403.4133333333334L169.6 384M297.6 386.3466666666667L267.3066666666666 339.2000000000001L297.6 292.2666666666667L297.3866666666667 292.0533333333334L254.9333333333333 226.1333333333334L218.0266666666667 245.3333333333334L248.32 292.2666666666667L218.0266666666667 339.2000000000001L260.6933333333333 405.3333333333334L297.6 386.3466666666667M426.6666666666667 386.3466666666667L395.9466666666666 339.2000000000001L426.6666666666667 292.2666666666667V292.0533333333334L384 226.1333333333334L346.6666666666667 245.3333333333334L376.9600000000001 292.2666666666667L346.6666666666667 339.2000000000001L389.3333333333333 405.3333333333334L426.6666666666667 386.3466666666667M42.6666666666667 -21.3333333333333V149.3333333333334C42.6666666666667 172.8 61.8666666666667 192 85.3333333333333 192H426.6666666666667C450.1333333333334 192 469.3333333333333 172.8 469.3333333333333 149.3333333333334V-21.3333333333333H426.6666666666667V21.3333333333334H85.3333333333333V-21.3333333333333H42.6666666666667M128 149.3333333333334C116.2666666666667 149.3333333333334 106.6666666666667 139.7333333333334 106.6666666666667 128V85.3333333333334C106.6666666666667 73.6 116.2666666666667 64 128 64S149.3333333333333 73.6 149.3333333333333 85.3333333333334V128C149.3333333333333 139.7333333333334 139.7333333333333 149.3333333333334 128 149.3333333333334M213.3333333333333 149.3333333333334C201.6 149.3333333333334 192 139.7333333333334 192 128V85.3333333333334C192 73.6 201.6 64 213.3333333333333 64S234.6666666666667 73.6 234.6666666666667 85.3333333333334V128C234.6666666666667 139.7333333333334 225.0666666666667 149.3333333333334 213.3333333333333 149.3333333333334M298.6666666666667 149.3333333333334C286.9333333333333 149.3333333333334 277.3333333333333 139.7333333333334 277.3333333333333 128V85.3333333333334C277.3333333333333 73.6 286.9333333333333 64 298.6666666666667 64S320 73.6 320 85.3333333333334V128C320 139.7333333333334 310.4 149.3333333333334 298.6666666666667 149.3333333333334M384 149.3333333333334C372.2666666666667 149.3333333333334 362.6666666666667 139.7333333333334 362.6666666666667 128V85.3333333333334C362.6666666666667 73.6 372.2666666666667 64 384 64S405.3333333333333 73.6 405.3333333333333 85.3333333333334V128C405.3333333333333 139.7333333333334 395.7333333333334 149.3333333333334 384 149.3333333333334z" /></svg>