<?xml version="1.0" encoding="UTF-8"?><!DOCTYPE svg PUBLIC "-//W3C//DTD SVG 1.1//EN" "http://www.w3.org/Graphics/SVG/1.1/DTD/svg11.dtd"><svg xmlns="http://www.w3.org/2000/svg" xmlns:xlink="http://www.w3.org/1999/xlink" version="1.1" width="512" height="512" viewBox="0 0 512 512">    <path fill="#ffffff" transform="scale(1, -1) translate(0, -448)" glyph-name="wifi-strength-1-alert" unicode="&#xF91F;" horiz-adv-x="512" d=" M256 384C166.1866666666667 384 78.9333333333333 353.92 8.1066666666667 298.6666666666667C94.08 190.72 168.32 98.7733333333333 256 -10.6666666666666C308.2666666666667 54.4 355.84 113.4933333333334 405.3333333333333 175.36V243.4133333333334L333.0133333333333 153.3866666666667C309.3333333333333 164.6933333333334 282.6666666666667 170.6666666666667 256 170.6666666666667S202.6666666666667 164.6933333333334 178.9866666666667 153.6L69.76 289.28C126.08 323.2000000000001 190.5066666666667 341.3333333333334 256 341.3333333333334C321.4933333333334 341.3333333333334 385.92 322.9866666666667 441.8133333333334 289.0666666666667L432.4266666666666 277.3333333333334H487.2533333333333C492.5866666666666 283.7333333333334 499.4133333333333 292.48 504.5333333333333 298.6666666666667C433.4933333333334 353.92 346.0266666666667 384 256 384M448 234.6666666666667V64H490.6666666666666V234.6666666666667M448 21.3333333333334V-21.3333333333333H490.6666666666666V21.3333333333334" /></svg>