<?xml version="1.0" encoding="UTF-8"?><!DOCTYPE svg PUBLIC "-//W3C//DTD SVG 1.1//EN" "http://www.w3.org/Graphics/SVG/1.1/DTD/svg11.dtd"><svg xmlns="http://www.w3.org/2000/svg" xmlns:xlink="http://www.w3.org/1999/xlink" version="1.1" width="512" height="512" viewBox="0 0 512 512">    <path fill="#ffffff" transform="scale(1, -1) translate(0, -448)" glyph-name="bike" unicode="&#xF0A3;" horiz-adv-x="512" d=" M106.6666666666667 10.6666666666667C65.4933333333333 10.6666666666667 32 44.16 32 85.3333333333334S65.4933333333333 160 106.6666666666667 160S181.3333333333333 126.5066666666667 181.3333333333333 85.3333333333334S147.84 10.6666666666667 106.6666666666667 10.6666666666667M106.6666666666667 192C47.7866666666667 192 0 144.2133333333334 0 85.3333333333334S47.7866666666667 -21.3333333333333 106.6666666666667 -21.3333333333333S213.3333333333333 26.4533333333334 213.3333333333333 85.3333333333334S165.5466666666667 192 106.6666666666667 192M315.7333333333334 234.6666666666667H405.3333333333333V273.0666666666667H337.0666666666667L295.68 342.8266666666667C289.4933333333334 353.4933333333334 277.3333333333334 360.5333333333334 264.5333333333334 360.5333333333334C254.5066666666667 360.5333333333334 245.3333333333334 356.48 238.9333333333334 349.8666666666667L160 271.1466666666667C153.3866666666667 264.5333333333334 149.3333333333333 256 149.3333333333333 245.3333333333334C149.3333333333333 231.8933333333333 156.3733333333333 220.5866666666667 167.4666666666667 213.9733333333333L238.9333333333333 170.6666666666667V64H277.3333333333333V202.6666666666667L229.3333333333333 237.8666666666667L278.8266666666667 288M405.3333333333333 10.6666666666667C364.16 10.6666666666667 330.6666666666667 44.16 330.6666666666667 85.3333333333334S364.16 160 405.3333333333333 160S480 126.5066666666667 480 85.3333333333334S446.5066666666667 10.6666666666667 405.3333333333333 10.6666666666667M405.3333333333333 192C346.4533333333334 192 298.6666666666667 144.2133333333334 298.6666666666667 85.3333333333334S346.4533333333334 -21.3333333333333 405.3333333333333 -21.3333333333333S512 26.4533333333334 512 85.3333333333334S464.2133333333333 192 405.3333333333333 192M341.3333333333333 345.6C362.6666666666667 345.6 379.7333333333334 362.6666666666667 379.7333333333334 384S362.6666666666667 422.4 341.3333333333333 422.4S302.9333333333333 405.3333333333333 302.9333333333333 384S320 345.6 341.3333333333333 345.6z" /></svg>