<?xml version="1.0" encoding="UTF-8"?><!DOCTYPE svg PUBLIC "-//W3C//DTD SVG 1.1//EN" "http://www.w3.org/Graphics/SVG/1.1/DTD/svg11.dtd"><svg xmlns="http://www.w3.org/2000/svg" xmlns:xlink="http://www.w3.org/1999/xlink" version="1.1" width="512" height="512" viewBox="0 0 512 512">    <path fill="#ffffff" transform="scale(1, -1) translate(0, -448)" glyph-name="pdf-box" unicode="&#xFE39;" horiz-adv-x="512" d=" M256 224H277.3333333333333V160H256V224M149.3333333333333 202.6666666666667H170.6666666666667V224H149.3333333333333V202.6666666666667M426.6666666666667 320V64C426.6666666666667 40.5333333333333 407.4666666666667 21.3333333333334 384 21.3333333333334H128C104.5333333333333 21.3333333333334 85.3333333333333 40.5333333333333 85.3333333333333 64V320C85.3333333333333 343.4666666666667 104.5333333333333 362.6666666666667 128 362.6666666666667H384C407.4666666666667 362.6666666666667 426.6666666666667 343.4666666666667 426.6666666666667 320M202.6666666666667 224C202.6666666666667 241.7066666666667 188.3733333333333 256 170.6666666666667 256H117.3333333333333V128H149.3333333333333V170.6666666666667H170.6666666666667C188.3733333333333 170.6666666666667 202.6666666666667 184.96 202.6666666666667 202.6666666666667V224M309.3333333333333 224C309.3333333333333 241.7066666666667 295.04 256 277.3333333333333 256H224V128H277.3333333333333C295.04 128 309.3333333333333 142.2933333333334 309.3333333333333 160V224M394.6666666666667 256H330.6666666666667V128H362.6666666666667V170.6666666666667H394.6666666666667V202.6666666666667H362.6666666666667V224H394.6666666666667V256z" /></svg>