<?xml version="1.0" encoding="UTF-8"?><!DOCTYPE svg PUBLIC "-//W3C//DTD SVG 1.1//EN" "http://www.w3.org/Graphics/SVG/1.1/DTD/svg11.dtd"><svg xmlns="http://www.w3.org/2000/svg" xmlns:xlink="http://www.w3.org/1999/xlink" version="1.1" width="512" height="512" viewBox="0 0 512 512">    <path fill="#ffffff" transform="scale(1, -1) translate(0, -448)" glyph-name="shield-lock-outline" unicode="&#xFCA8;" horiz-adv-x="512" d=" M448 213.3333333333334C448 94.9333333333333 366.08 -15.7866666666667 256 -42.6666666666666C145.92 -15.7866666666666 64 94.9333333333333 64 213.3333333333334V341.3333333333334L256 426.6666666666667L448 341.3333333333334V213.3333333333334M256 0C336 21.3333333333334 405.3333333333333 116.48 405.3333333333333 208.64V313.6L256 380.1600000000001L106.6666666666667 313.6V208.6400000000001C106.6666666666667 116.48 176 21.3333333333334 256 0M315.7333333333334 213.3333333333334V245.3333333333334C315.7333333333334 275.2000000000001 285.8666666666667 298.6666666666667 256 298.6666666666667S196.2666666666667 275.2000000000001 196.2666666666667 245.3333333333334V213.3333333333334C183.4666666666667 213.3333333333334 170.6666666666666 200.5333333333334 170.6666666666666 187.7333333333334V113.0666666666667C170.6666666666666 98.1333333333334 183.4666666666667 85.3333333333334 196.2666666666667 85.3333333333334H313.6C328.5333333333333 85.3333333333334 341.3333333333333 98.1333333333334 341.3333333333333 110.9333333333333V185.6C341.3333333333333 200.5333333333333 328.5333333333333 213.3333333333334 315.7333333333334 213.3333333333334M288 213.3333333333334H224V245.3333333333334C224 262.4000000000001 238.9333333333333 273.0666666666667 256 273.0666666666667S288 262.4000000000001 288 245.3333333333334V213.3333333333334z" /></svg>