<?xml version="1.0" encoding="UTF-8"?><!DOCTYPE svg PUBLIC "-//W3C//DTD SVG 1.1//EN" "http://www.w3.org/Graphics/SVG/1.1/DTD/svg11.dtd"><svg xmlns="http://www.w3.org/2000/svg" xmlns:xlink="http://www.w3.org/1999/xlink" version="1.1" width="512" height="512" viewBox="0 0 512 512">    <path fill="#ffffff" transform="scale(1, -1) translate(0, -448)" glyph-name="currency-ngn" unicode="&#xF1B0;" horiz-adv-x="512" d=" M85.3333333333333 256H128V384H170.6666666666667L243.6266666666667 256H341.3333333333333V384H384V256H426.6666666666667V213.3333333333334H384V170.6666666666667H426.6666666666667V128H384V0H341.3333333333333L268.16 128H170.6666666666667V0H128V128H85.3333333333333V170.6666666666667H128V213.3333333333334H85.3333333333333V256M170.6666666666667 256H194.7733333333333L170.6666666666667 298.0266666666667V256M170.6666666666667 213.3333333333334V170.6666666666667H243.6266666666667L219.3066666666667 213.3333333333334H170.6666666666667M341.3333333333333 85.3333333333334V128H316.8L341.3333333333333 85.3333333333334M267.9466666666667 213.3333333333334L292.48 170.6666666666667H341.3333333333333V213.3333333333334H267.9466666666667z" /></svg>