<?xml version="1.0" encoding="UTF-8"?><!DOCTYPE svg PUBLIC "-//W3C//DTD SVG 1.1//EN" "http://www.w3.org/Graphics/SVG/1.1/DTD/svg11.dtd"><svg xmlns="http://www.w3.org/2000/svg" xmlns:xlink="http://www.w3.org/1999/xlink" version="1.1" width="512" height="512" viewBox="0 0 512 512">    <path fill="#ffffff" transform="scale(1, -1) translate(0, -448)" glyph-name="google-play" unicode="&#xF2BC;" horiz-adv-x="512" d=" M64 10.6666666666667V373.3333333333334C64 385.92 71.2533333333333 397.0133333333333 81.92 402.1333333333334L292.0533333333333 192L81.92 -18.1333333333333C71.2533333333333 -12.8 64 -1.92 64 10.6666666666667M358.6133333333334 125.44L129.0666666666667 -7.2533333333333L310.1866666666666 173.8666666666667L358.6133333333333 125.4400000000001M430.08 217.3866666666667C437.3333333333333 211.6266666666667 442.6666666666667 202.6666666666667 442.6666666666667 192.0000000000001S437.9733333333334 172.8000000000001 430.5066666666667 166.8266666666667L381.6533333333333 138.6666666666668L328.32 192.0000000000001L381.6533333333333 245.3333333333334L430.08 217.3866666666667M129.0666666666667 391.2533333333334L358.6133333333333 258.5600000000001L310.1866666666666 210.1333333333334L129.0666666666666 391.2533333333334z" /></svg>