<?xml version="1.0" encoding="UTF-8"?><!DOCTYPE svg PUBLIC "-//W3C//DTD SVG 1.1//EN" "http://www.w3.org/Graphics/SVG/1.1/DTD/svg11.dtd"><svg xmlns="http://www.w3.org/2000/svg" xmlns:xlink="http://www.w3.org/1999/xlink" version="1.1" width="512" height="512" viewBox="0 0 512 512">    <path fill="#ffffff" transform="scale(1, -1) translate(0, -448)" glyph-name="chili-hot" unicode="&#xF7B1;" horiz-adv-x="512" d=" M378.6666666666667 256L404.2666666666667 272.2133333333334C417.7066666666666 264.9600000000001 426.6666666666667 250.88 426.6666666666667 234.6666666666667V-16S256 21.3333333333334 256 213.3333333333334V234.6666666666667C256 250.24 264.32 263.8933333333334 276.6933333333334 271.36L307.84 256L341.3333333333333 277.3333333333334L378.6666666666667 256M298.6666666666667 405.3333333333333C331.3066666666666 405.3333333333333 358.4 380.8 362.6666666666667 349.0133333333333C384 342.8266666666667 401.28 327.04 410.0266666666667 306.56L378.6666666666667 288L341.3333333333333 309.3333333333333L307.84 288L272.2133333333333 305.7066666666667C280.5333333333333 325.9733333333334 297.6 341.3333333333333 318.72 348.5866666666667C315.7333333333334 356.6933333333334 307.84 362.6666666666667 298.6666666666667 362.6666666666667V405.3333333333333M213.3333333333333 234.6666666666667C213.3333333333333 64 290.7733333333333 24.7466666666667 341.3333333333333 -16C341.3333333333333 -16 170.6666666666667 21.3333333333334 170.6666666666667 213.3333333333334V234.6666666666667C170.6666666666667 250.24 178.9866666666667 263.8933333333334 191.36 271.36L219.7333333333334 257.2800000000001C215.68 250.6666666666667 213.3333333333333 242.9866666666667 213.3333333333333 234.6666666666667M222.5066666666667 288L186.88 305.7066666666667C195.2 325.9733333333334 212.2666666666667 341.3333333333334 233.3866666666667 348.5866666666667C230.4 356.6933333333334 222.5066666666667 362.6666666666667 213.3333333333333 362.6666666666667V405.3333333333333C229.76 405.3333333333333 244.6933333333334 399.1466666666667 256 389.12V362.6666666666667C265.1733333333333 362.6666666666667 273.0666666666667 356.6933333333334 276.0533333333333 348.5866666666667C254.9333333333333 341.3333333333334 237.8666666666666 325.9733333333334 222.5066666666667 288M128 234.6666666666667C128 64 205.44 24.7466666666667 256 -16C256 -16 85.3333333333333 21.3333333333334 85.3333333333333 213.3333333333334V234.6666666666667C85.3333333333333 250.24 93.6533333333333 263.8933333333334 106.0266666666667 271.36L134.4 257.2800000000001C130.3466666666666 250.6666666666667 128 242.9866666666667 128 234.6666666666667M137.1733333333333 288L101.5466666666667 305.7066666666667C109.8666666666667 325.9733333333334 126.9333333333333 341.3333333333334 148.0533333333334 348.5866666666667C145.0666666666667 356.6933333333334 137.1733333333333 362.6666666666667 128 362.6666666666667V405.3333333333333C144.4266666666667 405.3333333333333 159.36 399.1466666666667 170.6666666666667 389.12V362.6666666666667C179.84 362.6666666666667 187.7333333333334 356.6933333333334 190.72 348.5866666666667C169.6 341.3333333333334 152.5333333333333 325.9733333333334 137.1733333333333 288z" /></svg>