<?xml version="1.0" encoding="UTF-8"?><!DOCTYPE svg PUBLIC "-//W3C//DTD SVG 1.1//EN" "http://www.w3.org/Graphics/SVG/1.1/DTD/svg11.dtd"><svg xmlns="http://www.w3.org/2000/svg" xmlns:xlink="http://www.w3.org/1999/xlink" version="1.1" width="512" height="512" viewBox="0 0 512 512">    <path fill="#ffffff" transform="scale(1, -1) translate(0, -448)" glyph-name="table-border" unicode="&#xFA17;" horiz-adv-x="512" d=" M448 42.6666666666667C448 30.9333333333333 438.4 21.3333333333334 426.6666666666667 21.3333333333334H405.3333333333333V64H448V42.6666666666667M320 21.3333333333334V64H362.6666666666667V21.3333333333334H320M234.6666666666667 21.3333333333334V64H277.3333333333333V21.3333333333334H234.6666666666667M149.3333333333333 21.3333333333334V64H192V21.3333333333334H149.3333333333333M85.3333333333333 21.3333333333334C73.6 21.3333333333334 64 30.9333333333333 64 42.6666666666667V64H106.6666666666667V21.3333333333334H85.3333333333333M405.3333333333333 362.6666666666667H106.6666666666667C83.2 362.6666666666667 64 343.4666666666667 64 320V277.3333333333334H448V320C448 343.68 429.0133333333333 362.6666666666667 405.3333333333333 362.6666666666667M106.6666666666667 149.3333333333334H64V106.6666666666667H106.6666666666667V149.3333333333334M106.6666666666667 234.6666666666667H64V192H106.6666666666667V234.6666666666667M448 234.6666666666667H405.3333333333333V192H448V234.6666666666667M448 149.3333333333334H405.3333333333333V106.6666666666667H448V149.3333333333334M234.6666666666667 106.6666666666667V149.3333333333334H277.3333333333333V106.6666666666667H234.6666666666667M234.6666666666667 192V234.6666666666667H277.3333333333333V192H234.6666666666667" /></svg>