<?xml version="1.0" encoding="UTF-8"?><!DOCTYPE svg PUBLIC "-//W3C//DTD SVG 1.1//EN" "http://www.w3.org/Graphics/SVG/1.1/DTD/svg11.dtd"><svg xmlns="http://www.w3.org/2000/svg" xmlns:xlink="http://www.w3.org/1999/xlink" version="1.1" width="512" height="512" viewBox="0 0 512 512">    <path fill="#ffffff" transform="scale(1, -1) translate(0, -448)" glyph-name="zodiac-scorpio" unicode="&#xFA85;" horiz-adv-x="512" d=" M377.8133333333334 121.8133333333334L347.52 91.52L375.2533333333334 64H341.3333333333333C317.8666666666667 64 298.6666666666667 83.2 298.6666666666667 106.6666666666667V320C298.6666666666667 355.4133333333334 270.08 384 234.6666666666667 384C218.6666666666667 384 203.7333333333334 377.8133333333334 192 367.36C167.68 389.12 130.9866666666667 389.12 106.6666666666667 367.36C94.9333333333333 378.0266666666667 79.7866666666667 384 64 384V341.3333333333334C75.7333333333333 341.3333333333334 85.3333333333333 331.7333333333334 85.3333333333333 320V106.6666666666667H128V320C128 331.7333333333334 137.6 341.3333333333334 149.3333333333333 341.3333333333334S170.6666666666667 331.7333333333334 170.6666666666667 320V106.6666666666667H213.3333333333333V320C213.3333333333333 331.7333333333334 222.9333333333333 341.3333333333334 234.6666666666667 341.3333333333334S256 331.7333333333334 256 320V106.6666666666667C256 59.52 294.1866666666666 21.3333333333334 341.3333333333333 21.3333333333334H375.2533333333334L347.52 -6.1866666666666L377.8133333333334 -36.48L456.7466666666667 42.6666666666667L377.8133333333334 121.8133333333334z" /></svg>