<?xml version="1.0" encoding="UTF-8"?><!DOCTYPE svg PUBLIC "-//W3C//DTD SVG 1.1//EN" "http://www.w3.org/Graphics/SVG/1.1/DTD/svg11.dtd"><svg xmlns="http://www.w3.org/2000/svg" xmlns:xlink="http://www.w3.org/1999/xlink" version="1.1" width="512" height="512" viewBox="0 0 512 512">    <path fill="#ffffff" transform="scale(1, -1) translate(0, -448)" glyph-name="microphone-variant" unicode="&#xF370;" horiz-adv-x="512" d=" M192 384C239.1466666666667 384 277.3333333333333 345.8133333333334 277.3333333333333 298.6666666666667H106.6666666666667C106.6666666666667 345.8133333333334 144.8533333333333 384 192 384M252.5866666666667 238.5066666666667L234.6666666666667 64H213.3333333333333V42.6666666666667C213.3333333333333 19.2 232.5333333333334 0 256 0S298.6666666666667 19.2 298.6666666666667 42.6666666666667V149.3333333333334C298.6666666666667 196.48 336.8533333333333 234.6666666666667 384 234.6666666666667H426.6666666666667L405.3333333333333 213.3333333333334L426.6666666666667 192H384C360.5333333333333 192 341.3333333333333 172.8 341.3333333333333 149.3333333333334V42.6666666666667C341.3333333333333 -4.48 303.1466666666667 -42.6666666666666 256 -42.6666666666666S170.6666666666667 -4.48 170.6666666666667 42.6666666666667V64H149.3333333333333L131.4133333333333 238.5066666666667C120.96 249.1733333333334 113.28 262.4000000000001 109.44 277.3333333333334H274.56C270.7200000000001 262.4000000000001 263.04 249.1733333333334 252.5866666666667 238.5066666666667M192 213.3333333333334C180.2666666666667 213.3333333333334 170.6666666666667 203.7333333333334 170.6666666666667 192S180.2666666666667 170.6666666666667 192 170.6666666666667S213.3333333333333 180.2666666666667 213.3333333333333 192S203.7333333333334 213.3333333333334 192 213.3333333333334z" /></svg>