<?xml version="1.0" encoding="UTF-8"?><!DOCTYPE svg PUBLIC "-//W3C//DTD SVG 1.1//EN" "http://www.w3.org/Graphics/SVG/1.1/DTD/svg11.dtd"><svg xmlns="http://www.w3.org/2000/svg" xmlns:xlink="http://www.w3.org/1999/xlink" version="1.1" width="512" height="512" viewBox="0 0 512 512">    <path fill="#ffffff" transform="scale(1, -1) translate(0, -448)" glyph-name="android-messages" unicode="&#xFD21;" horiz-adv-x="512" d=" M426.6666666666667 21.3333333333334H149.3333333333333C125.8666666666667 21.3333333333334 106.6666666666667 40.5333333333333 106.6666666666667 64V257.2800000000001L47.5733333333333 327.68C44.5866666666667 331.3066666666667 42.6666666666667 336.2133333333334 42.6666666666667 341.3333333333334C42.6666666666667 353.0666666666667 52.2666666666667 362.6666666666667 64 362.6666666666667H426.6666666666667C450.1333333333334 362.6666666666667 469.3333333333333 343.4666666666667 469.3333333333333 320V64C469.3333333333333 40.5333333333333 450.1333333333334 21.3333333333334 426.6666666666667 21.3333333333334M181.3333333333333 298.6666666666667C175.36 298.6666666666667 170.6666666666667 293.9733333333334 170.6666666666667 288V266.6666666666667C170.6666666666667 260.6933333333334 175.36 256 181.3333333333333 256H394.6666666666667C400.64 256 405.3333333333333 260.6933333333334 405.3333333333333 266.6666666666667V288C405.3333333333333 293.9733333333334 400.64 298.6666666666667 394.6666666666667 298.6666666666667H181.3333333333333M181.3333333333333 213.3333333333334C175.36 213.3333333333334 170.6666666666667 208.64 170.6666666666667 202.6666666666667V181.3333333333334C170.6666666666667 175.36 175.36 170.6666666666667 181.3333333333333 170.6666666666667H394.6666666666667C400.64 170.6666666666667 405.3333333333333 175.36 405.3333333333333 181.3333333333334V202.6666666666667C405.3333333333333 208.64 400.64 213.3333333333334 394.6666666666667 213.3333333333334H181.3333333333333M181.3333333333333 128C175.36 128 170.6666666666667 123.3066666666667 170.6666666666667 117.3333333333334V96C170.6666666666667 90.0266666666666 175.36 85.3333333333334 181.3333333333333 85.3333333333334H288C293.9733333333333 85.3333333333334 298.6666666666667 90.0266666666666 298.6666666666667 96V117.3333333333334C298.6666666666667 123.3066666666667 293.9733333333333 128 288 128H181.3333333333333z" /></svg>