<?xml version="1.0" encoding="UTF-8"?><!DOCTYPE svg PUBLIC "-//W3C//DTD SVG 1.1//EN" "http://www.w3.org/Graphics/SVG/1.1/DTD/svg11.dtd"><svg xmlns="http://www.w3.org/2000/svg" xmlns:xlink="http://www.w3.org/1999/xlink" version="1.1" width="512" height="512" viewBox="0 0 512 512">    <path fill="#ffffff" transform="scale(1, -1) translate(0, -448)" glyph-name="helicopter" unicode="&#xFAC1;" horiz-adv-x="512" d=" M64 384H362.6666666666667V341.3333333333334H64V384M490.6666666666666 320V224L314.6666666666667 187.7333333333334C318.08 179.2000000000001 320 169.8133333333334 320 160C320 130.1333333333333 302.5066666666667 104.5333333333333 277.3333333333333 92.5866666666667V42.6666666666667H341.3333333333333V0H85.3333333333333C49.92 0 21.3333333333333 28.5866666666667 21.3333333333333 64V85.3333333333334H64V64C64 52.2666666666667 73.6 42.6666666666667 85.3333333333333 42.6666666666667H106.6666666666667V90.88C69.3333333333333 103.8933333333333 42.6666666666667 139.52 42.6666666666667 181.3333333333333C42.6666666666667 234.6666666666667 85.3333333333333 277.3333333333334 138.6666666666667 277.3333333333334H192V320H234.6666666666667V277.3333333333334H448V320H490.6666666666666M234.6666666666667 42.6666666666667V85.3333333333334H149.3333333333333V42.6666666666667H234.6666666666667M160 234.6666666666667C130.56 234.6666666666667 106.6666666666667 215.4666666666667 106.6666666666667 192S130.56 149.3333333333334 160 149.3333333333334S213.3333333333333 168.5333333333334 213.3333333333333 192S189.44 234.6666666666667 160 234.6666666666667z" /></svg>