<?xml version="1.0" encoding="UTF-8"?><!DOCTYPE svg PUBLIC "-//W3C//DTD SVG 1.1//EN" "http://www.w3.org/Graphics/SVG/1.1/DTD/svg11.dtd"><svg xmlns="http://www.w3.org/2000/svg" xmlns:xlink="http://www.w3.org/1999/xlink" version="1.1" width="512" height="512" viewBox="0 0 512 512">    <path fill="#ffffff" transform="scale(1, -1) translate(0, -448)" glyph-name="power" unicode="&#xF425;" horiz-adv-x="512" d=" M353.28 331.9466666666667L322.3466666666667 301.0133333333333C359.2533333333334 278.6133333333334 384 238.2933333333334 384 192C384 121.3866666666667 326.6133333333334 64 256 64S128 121.3866666666667 128 192C128 238.2933333333334 152.7466666666667 278.6133333333334 189.44 301.2266666666667L158.72 331.9466666666667C114.3466666666667 301.2266666666667 85.3333333333333 250.0266666666667 85.3333333333333 192C85.3333333333333 97.7066666666667 161.7066666666667 21.3333333333334 256 21.3333333333334S426.6666666666667 97.7066666666667 426.6666666666667 192C426.6666666666667 250.0266666666667 397.6533333333333 301.2266666666667 353.28 331.9466666666667M277.3333333333333 384H234.6666666666667V170.6666666666667H277.3333333333333" /></svg>