<?xml version="1.0" encoding="UTF-8"?><!DOCTYPE svg PUBLIC "-//W3C//DTD SVG 1.1//EN" "http://www.w3.org/Graphics/SVG/1.1/DTD/svg11.dtd"><svg xmlns="http://www.w3.org/2000/svg" xmlns:xlink="http://www.w3.org/1999/xlink" version="1.1" width="512" height="512" viewBox="0 0 512 512">    <path fill="#ffffff" transform="scale(1, -1) translate(0, -448)" glyph-name="alarm-light" unicode="&#xF78E;" horiz-adv-x="512" d=" M128 300.8L82.56 346.0266666666667L112.64 376.1066666666667L157.8666666666667 330.6666666666667L128 300.8M277.3333333333333 426.6666666666667V362.6666666666667H234.6666666666667V426.6666666666667H277.3333333333333M429.44 346.0266666666667L384 300.8L354.1333333333334 330.6666666666667L399.36 376.1066666666667L429.4400000000001 346.0266666666667M96 224V181.3333333333334H32V224H96M416 224H480V181.3333333333334H416V224M128 21.3333333333334H384C407.4666666666667 21.3333333333334 426.6666666666667 2.1333333333334 426.6666666666667 -21.3333333333333H85.3333333333333C85.3333333333333 2.1333333333334 104.5333333333333 21.3333333333334 128 21.3333333333334M256 341.3333333333334C326.6133333333334 341.3333333333334 384 283.9466666666667 384 213.3333333333334V42.6666666666667H128V213.3333333333334C128 283.9466666666667 185.3866666666667 341.3333333333334 256 341.3333333333334z" /></svg>