<?xml version="1.0" encoding="UTF-8"?><!DOCTYPE svg PUBLIC "-//W3C//DTD SVG 1.1//EN" "http://www.w3.org/Graphics/SVG/1.1/DTD/svg11.dtd"><svg xmlns="http://www.w3.org/2000/svg" xmlns:xlink="http://www.w3.org/1999/xlink" version="1.1" width="512" height="512" viewBox="0 0 512 512">    <path fill="#ffffff" transform="scale(1, -1) translate(0, -448)" glyph-name="vector-bezier" unicode="&#xFAE7;" horiz-adv-x="512" d=" M160 362.6666666666667C142.2933333333333 362.6666666666667 128 348.3733333333334 128 330.6666666666667S142.2933333333333 298.6666666666667 160 298.6666666666667C173.44 298.6666666666667 185.6 307.2000000000001 190.08 320H277.3333333333333C291.6266666666667 334.2933333333334 305.7066666666667 341.3333333333334 320 341.3333333333334H190.08C185.6 354.1333333333334 173.44 362.6666666666667 160 362.6666666666667M405.3333333333333 341.3333333333334C170.6666666666667 341.3333333333334 298.6666666666667 85.3333333333334 106.6666666666667 85.3333333333334V42.6666666666667C341.3333333333333 42.6666666666667 213.3333333333333 298.6666666666667 405.3333333333333 298.6666666666667V341.3333333333334M352 85.3333333333334C338.56 85.3333333333334 326.4 76.8000000000001 321.92 64H234.6666666666667C220.3733333333333 49.7066666666667 206.2933333333333 42.6666666666667 192 42.6666666666667H321.92C326.4 29.8666666666667 338.56 21.3333333333334 352 21.3333333333334C369.7066666666666 21.3333333333334 384 35.6266666666667 384 53.3333333333334S369.7066666666666 85.3333333333334 352 85.3333333333334z" /></svg>