<?xml version="1.0" encoding="UTF-8"?><!DOCTYPE svg PUBLIC "-//W3C//DTD SVG 1.1//EN" "http://www.w3.org/Graphics/SVG/1.1/DTD/svg11.dtd"><svg xmlns="http://www.w3.org/2000/svg" xmlns:xlink="http://www.w3.org/1999/xlink" version="1.1" width="512" height="512" viewBox="0 0 512 512">    <path fill="#ffffff" transform="scale(1, -1) translate(0, -448)" glyph-name="language-r" unicode="&#xF7D3;" horiz-adv-x="512" d=" M256 356.48C138.6666666666667 356.48 42.6666666666667 292.48 42.6666666666667 213.3333333333334C42.6666666666667 143.36 118.6133333333334 85.3333333333334 218.4533333333333 72.96V27.5200000000001H291.2V72.7466666666668C309.3333333333333 74.6666666666667 326.1866666666667 78.0800000000001 342.1866666666666 82.9866666666668L371.6266666666666 27.5200000000001H453.9733333333332L404.4799999999999 110.9333333333334C444.3733333333333 136.96 469.3333333333333 173.4400000000001 469.3333333333333 213.3333333333334C469.3333333333333 292.48 373.3333333333333 356.48 256 356.48M288.64 300.5866666666667C378.24 300.5866666666667 444.3733333333333 270.7200000000001 444.3733333333333 202.6666666666667C444.3733333333333 166.1866666666667 424.7466666666666 140.5866666666667 392.7466666666666 124.8C390.8266666666666 125.8666666666667 389.1199999999999 126.9333333333333 388.0533333333333 128C380.3733333333333 131.4133333333334 367.5733333333333 135.2533333333333 367.5733333333333 135.2533333333333S431.1466666666666 139.9466666666667 431.1466666666666 203.3066666666667C431.1466666666666 266.6666666666667 364.5866666666666 267.7333333333334 364.5866666666666 267.7333333333334H218.4533333333333V114.9866666666667C164.0533333333333 130.7733333333333 126.5066666666666 164.2666666666667 126.5066666666666 202.6666666666667C126.5066666666666 256.8533333333334 199.0399999999999 300.5866666666667 288.64 300.5866666666667M291.8399999999999 215.68H336S356.2666666666667 216.7466666666667 356.2666666666667 195.6266666666667C356.2666666666667 174.9333333333333 336 174.9333333333333 336 174.9333333333333H291.84V215.68M291.2 121.6H310.8266666666667C314.6666666666667 121.6 316.5866666666667 120.5333333333333 320 117.3333333333334C322.7733333333333 115.2000000000001 325.76 111.1466666666667 328.32 107.52C316.5866666666667 106.0266666666666 304.2133333333334 105.3866666666667 291.2 105.3866666666667V121.6z" /></svg>