<?xml version="1.0" encoding="UTF-8"?><!DOCTYPE svg PUBLIC "-//W3C//DTD SVG 1.1//EN" "http://www.w3.org/Graphics/SVG/1.1/DTD/svg11.dtd"><svg xmlns="http://www.w3.org/2000/svg" xmlns:xlink="http://www.w3.org/1999/xlink" version="1.1" width="512" height="512" viewBox="0 0 512 512">    <path fill="#ffffff" transform="scale(1, -1) translate(0, -448)" glyph-name="image-size-select-small" unicode="&#xFC6B;" horiz-adv-x="512" d=" M490.6666666666666 128H448V85.3333333333334H490.6666666666666V128M490.6666666666666 213.3333333333334H448V170.6666666666667H490.6666666666666V213.3333333333334M490.6666666666666 42.6666666666667H448V0C469.3333333333333 0 490.6666666666666 21.3333333333334 490.6666666666666 42.6666666666667M320 384H277.3333333333333V341.3333333333334H320V384M490.6666666666666 298.6666666666667H448V256H490.6666666666666V298.6666666666667M448 384V341.3333333333334H490.6666666666666C490.6666666666666 362.6666666666667 469.3333333333333 384 448 384M64 0H234.6666666666667V128H21.3333333333333V42.6666666666667C21.3333333333333 19.2 40.5333333333333 0 64 0M64 298.6666666666667H21.3333333333333V256H64V298.6666666666667M320 42.6666666666667H277.3333333333333V0H320V42.6666666666667M405.3333333333333 384H362.6666666666667V341.3333333333334H405.3333333333333V384M405.3333333333333 42.6666666666667H362.6666666666667V0H405.3333333333333V42.6666666666667M64 384C42.6666666666667 384 21.3333333333333 362.6666666666667 21.3333333333333 341.3333333333334H64V384M64 213.3333333333334H21.3333333333333V170.6666666666667H64V213.3333333333334M234.6666666666667 384H192V341.3333333333334H234.6666666666667V384M149.3333333333333 384H106.6666666666667V341.3333333333334H149.3333333333333V384z" /></svg>