<?xml version="1.0" encoding="UTF-8"?><!DOCTYPE svg PUBLIC "-//W3C//DTD SVG 1.1//EN" "http://www.w3.org/Graphics/SVG/1.1/DTD/svg11.dtd"><svg xmlns="http://www.w3.org/2000/svg" xmlns:xlink="http://www.w3.org/1999/xlink" version="1.1" width="512" height="512" viewBox="0 0 512 512">    <path fill="#ffffff" transform="scale(1, -1) translate(0, -448)" glyph-name="remote" unicode="&#xF454;" horiz-adv-x="512" d=" M256 448C191.1466666666667 448 132.48 421.76 90.0266666666667 379.3066666666667L120.1066666666667 349.2266666666667C154.88 384 202.6666666666667 405.3333333333333 256 405.3333333333333S357.12 384 391.68 349.0133333333333L421.76 379.0933333333334C379.52 421.76 320.8533333333333 448 256 448M150.4 318.9333333333334L180.48 288.8533333333334C199.8933333333333 308.0533333333334 226.56 320 256 320S312.1066666666667 308.0533333333334 331.52 288.8533333333334L361.6 318.9333333333334C334.5066666666667 346.0266666666667 297.1733333333333 362.6666666666667 256 362.6666666666667C214.8266666666667 362.6666666666667 177.4933333333334 346.0266666666667 150.4 318.9333333333334M256 128C232.5333333333334 128 213.3333333333333 147.2000000000001 213.3333333333333 170.6666666666667S232.5333333333334 213.3333333333334 256 213.3333333333334S298.6666666666667 194.1333333333333 298.6666666666667 170.6666666666667S279.4666666666667 128 256 128M320 256H192C180.2666666666667 256 170.6666666666667 246.4000000000001 170.6666666666667 234.6666666666667V-21.3333333333333C170.6666666666667 -33.0666666666667 180.2666666666667 -42.6666666666666 192 -42.6666666666666H320C331.7333333333334 -42.6666666666666 341.3333333333333 -33.0666666666667 341.3333333333333 -21.3333333333333V234.6666666666667C341.3333333333333 246.4000000000001 331.7333333333334 256 320 256z" /></svg>