<?xml version="1.0" encoding="UTF-8"?><!DOCTYPE svg PUBLIC "-//W3C//DTD SVG 1.1//EN" "http://www.w3.org/Graphics/SVG/1.1/DTD/svg11.dtd"><svg xmlns="http://www.w3.org/2000/svg" xmlns:xlink="http://www.w3.org/1999/xlink" version="1.1" width="512" height="512" viewBox="0 0 512 512">    <path fill="#ffffff" transform="scale(1, -1) translate(0, -448)" glyph-name="food" unicode="&#xF25A;" horiz-adv-x="512" d=" M330.6666666666667 0L298.6666666666667 277.3333333333334H346.24L322.1333333333334 374.1866666666667L359.2533333333334 384L385.92 277.3333333333334H469.3333333333333L437.3333333333333 0H330.6666666666667M106.6666666666667 213.3333333333334H213.3333333333333C248.7466666666667 213.3333333333334 277.3333333333333 184.7466666666667 277.3333333333333 149.3333333333334H42.6666666666667C42.6666666666667 184.7466666666667 71.2533333333333 213.3333333333334 106.6666666666667 213.3333333333334M277.3333333333333 64C277.3333333333333 28.5866666666667 248.7466666666667 0 213.3333333333333 0H106.6666666666667C71.2533333333333 0 42.6666666666667 28.5866666666667 42.6666666666667 64H277.3333333333333M64 128H170.6666666666667L202.6666666666667 96L234.6666666666667 128H256C267.7333333333334 128 277.3333333333333 118.4 277.3333333333333 106.6666666666667S267.7333333333334 85.3333333333334 256 85.3333333333334H64C52.2666666666667 85.3333333333334 42.6666666666667 94.9333333333333 42.6666666666667 106.6666666666667S52.2666666666667 128 64 128z" /></svg>