<?xml version="1.0" encoding="UTF-8"?><!DOCTYPE svg PUBLIC "-//W3C//DTD SVG 1.1//EN" "http://www.w3.org/Graphics/SVG/1.1/DTD/svg11.dtd"><svg xmlns="http://www.w3.org/2000/svg" xmlns:xlink="http://www.w3.org/1999/xlink" version="1.1" width="512" height="512" viewBox="0 0 512 512">    <path fill="#ffffff" transform="scale(1, -1) translate(0, -448)" glyph-name="eye-circle" unicode="&#xFB70;" horiz-adv-x="512" d=" M256 245.3333333333334C226.56 245.3333333333334 202.6666666666667 221.44 202.6666666666667 192S226.56 138.6666666666667 256 138.6666666666667S309.3333333333333 162.5600000000001 309.3333333333333 192S285.44 245.3333333333334 256 245.3333333333334M256 170.6666666666667C244.2666666666667 170.6666666666667 234.6666666666667 180.2666666666667 234.6666666666667 192S244.2666666666667 213.3333333333334 256 213.3333333333334S277.3333333333333 203.7333333333334 277.3333333333333 192S267.7333333333334 170.6666666666667 256 170.6666666666667M256 245.3333333333334C226.56 245.3333333333334 202.6666666666667 221.44 202.6666666666667 192S226.56 138.6666666666667 256 138.6666666666667S309.3333333333333 162.5600000000001 309.3333333333333 192S285.44 245.3333333333334 256 245.3333333333334M256 170.6666666666667C244.2666666666667 170.6666666666667 234.6666666666667 180.2666666666667 234.6666666666667 192S244.2666666666667 213.3333333333334 256 213.3333333333334S277.3333333333333 203.7333333333334 277.3333333333333 192S267.7333333333334 170.6666666666667 256 170.6666666666667M256 405.3333333333333C138.24 405.3333333333333 42.6666666666667 309.76 42.6666666666667 192S138.24 -21.3333333333333 256 -21.3333333333333S469.3333333333333 74.24 469.3333333333333 192S373.76 405.3333333333333 256 405.3333333333333M256 106.6666666666667C199.8933333333334 106.6666666666667 149.3333333333333 140.16 128 192C157.44 262.6133333333334 238.7200000000001 296.1066666666667 309.3333333333333 266.6666666666667C343.04 252.5866666666667 369.92 225.7066666666667 384 192C362.6666666666667 140.16 312.1066666666667 106.6666666666667 256 106.6666666666667M256 245.3333333333334C226.56 245.3333333333334 202.6666666666667 221.44 202.6666666666667 192S226.56 138.6666666666667 256 138.6666666666667S309.3333333333333 162.5600000000001 309.3333333333333 192S285.44 245.3333333333334 256 245.3333333333334M256 170.6666666666667C244.2666666666667 170.6666666666667 234.6666666666667 180.2666666666667 234.6666666666667 192S244.2666666666667 213.3333333333334 256 213.3333333333334S277.3333333333333 203.7333333333334 277.3333333333333 192S267.7333333333334 170.6666666666667 256 170.6666666666667z" /></svg>