<?xml version="1.0" encoding="UTF-8"?><!DOCTYPE svg PUBLIC "-//W3C//DTD SVG 1.1//EN" "http://www.w3.org/Graphics/SVG/1.1/DTD/svg11.dtd"><svg xmlns="http://www.w3.org/2000/svg" xmlns:xlink="http://www.w3.org/1999/xlink" version="1.1" width="512" height="512" viewBox="0 0 512 512">    <path fill="#ffffff" transform="scale(1, -1) translate(0, -448)" glyph-name="gesture-spread" unicode="&#xFABD;" horiz-adv-x="512" d=" M85.3333333333333 426.6666666666667L149.3333333333333 362.6666666666667H106.6666666666667V298.6666666666667H64V362.6666666666667H21.3333333333333L85.3333333333333 426.6666666666667M85.3333333333333 128L21.3333333333333 192H64V256H106.6666666666667V192H149.3333333333333L85.3333333333333 128M277.3333333333333 256C277.3333333333333 267.7333333333334 286.9333333333333 277.3333333333334 298.6666666666667 277.3333333333334S320 267.7333333333334 320 256V160.6400000000001L345.8133333333334 157.8666666666667L451.2 110.9333333333333C462.2933333333334 105.8133333333334 469.3333333333334 94.72 469.3333333333334 82.3466666666667V-10.6666666666666C468.6933333333334 -28.16 454.8266666666667 -42.0266666666666 437.3333333333334 -42.6666666666666H298.6666666666667C290.56 -42.6666666666666 282.88 -39.4666666666667 277.3333333333333 -33.4933333333333L172.8 56.1066666666667L188.5866666666667 72.5333333333333C192.64 77.0133333333333 198.4 79.36 204.3733333333333 79.36H209.0666666666667L277.3333333333333 42.6666666666667V256M298.6666666666667 341.3333333333334C328.96 341.3333333333334 357.12 325.12 372.2666666666667 298.6666666666667C395.9466666666666 258.1333333333334 382.08 205.8666666666667 341.3333333333333 182.1866666666667V208.4266666666667C354.9866666666667 220.3733333333333 362.6666666666667 237.8666666666667 362.6666666666667 256C362.6666666666667 291.4133333333334 334.08 320 298.6666666666667 320S234.6666666666667 291.4133333333334 234.6666666666667 256C234.6666666666667 237.8666666666667 242.3466666666667 220.3733333333333 256 208.4266666666667V182.1866666666667C229.76 197.3333333333334 213.3333333333333 225.4933333333333 213.3333333333333 256C213.3333333333333 303.1466666666667 251.52 341.3333333333334 298.6666666666667 341.3333333333334M192 149.3333333333334C207.5733333333333 149.3333333333334 222.08 145.28 234.6666666666667 137.8133333333334V111.7866666666667C223.36 121.8133333333334 208.4266666666667 128 192 128C156.5866666666667 128 128 99.4133333333334 128 64C128 42.6666666666667 138.6666666666667 24.1066666666667 154.0266666666667 12.3733333333333L198.6133333333334 -21.3333333333333H192C144.8533333333333 -21.3333333333333 106.6666666666667 16.8533333333334 106.6666666666667 64S144.8533333333333 149.3333333333334 192 149.3333333333334z" /></svg>