<?xml version="1.0" encoding="UTF-8"?><!DOCTYPE svg PUBLIC "-//W3C//DTD SVG 1.1//EN" "http://www.w3.org/Graphics/SVG/1.1/DTD/svg11.dtd"><svg xmlns="http://www.w3.org/2000/svg" xmlns:xlink="http://www.w3.org/1999/xlink" version="1.1" width="512" height="512" viewBox="0 0 512 512">    <path fill="#ffffff" transform="scale(1, -1) translate(0, -448)" glyph-name="table-column-width" unicode="&#xF4EF;" horiz-adv-x="512" d=" M106.6666666666667 277.3333333333334H405.3333333333333C428.8 277.3333333333334 448 258.1333333333334 448 234.6666666666667V21.3333333333334C448 -2.1333333333333 428.8 -21.3333333333333 405.3333333333333 -21.3333333333333H106.6666666666667C83.2 -21.3333333333333 64 -2.1333333333333 64 21.3333333333334V234.6666666666667C64 258.1333333333334 83.2 277.3333333333334 106.6666666666667 277.3333333333334M106.6666666666667 192V128H234.6666666666667V192H106.6666666666667M277.3333333333333 192V128H405.3333333333333V192H277.3333333333333M106.6666666666667 85.3333333333334V21.3333333333334H234.6666666666667V85.3333333333334H106.6666666666667M277.3333333333333 85.3333333333334V21.3333333333334H405.3333333333333V85.3333333333334H277.3333333333333M234.6666666666667 405.3333333333333H448V320H405.3333333333333V362.6666666666667H277.3333333333333V320H234.6666666666667V405.3333333333333z" /></svg>