<?xml version="1.0" encoding="UTF-8"?><!DOCTYPE svg PUBLIC "-//W3C//DTD SVG 1.1//EN" "http://www.w3.org/Graphics/SVG/1.1/DTD/svg11.dtd"><svg xmlns="http://www.w3.org/2000/svg" xmlns:xlink="http://www.w3.org/1999/xlink" version="1.1" width="512" height="512" viewBox="0 0 512 512">    <path fill="#ffffff" transform="scale(1, -1) translate(0, -448)" glyph-name="kabaddi" unicode="&#xFD63;" horiz-adv-x="512" d=" M240 222.9333333333333C261.9733333333333 200.96 288 190.0800000000001 317.0133333333333 190.0800000000001L320 145.92C278.6133333333334 145.92 242.7733333333333 160.64 212.0533333333334 190.0800000000001L196.9066666666667 205.0133333333333L146.9866666666667 154.0266666666667L192 109.0133333333333V-18.9866666666667H149.3333333333333V91.0933333333334L122.0266666666667 116.0533333333334V68.9066666666667L30.9333333333333 -21.3333333333333L1.0666666666667 8.96L78.9333333333333 85.9733333333334L56.1066666666667 149.3333333333334L55.04 152.5333333333334L53.3333333333333 157.0133333333334V161.0666666666667C51.6266666666667 173.0133333333334 56.1066666666667 183.8933333333334 65.92 193.92L136.96 264.9600000000001C145.7066666666667 273.7066666666667 155.7333333333333 277.9733333333334 167.04 277.9733333333334C177.0666666666667 277.9733333333334 184.96 275.6266666666667 190.9333333333333 270.9333333333334L240 222.9333333333334M512 194.9866666666667H469.3333333333333V266.6666666666667L430.9333333333333 282.0266666666667L449.92 187.0933333333334L472.1066666666666 75.9466666666667L490.6666666666666 -18.9866666666667H446.08L407.04 151.8933333333333L362.6666666666667 109.0133333333333V-18.9866666666667H320V141.0133333333333L365.0133333333333 183.8933333333333L352 247.8933333333333C340.0533333333333 234.6666666666667 324.9066666666667 222.9333333333333 306.9866666666667 213.3333333333334C286.9333333333334 215.04 269.44 224 254.08 238.9333333333334C287.36 245.3333333333334 311.2533333333334 261.3333333333334 325.9733333333334 288L347.9466666666667 322.9866666666667C361.3866666666667 344.32 379.9466666666667 350.08 404.0533333333334 340.0533333333333L512 295.04V194.9866666666667M243.6266666666667 354.1333333333334C266.6666666666667 354.1333333333334 286.2933333333333 335.1466666666667 286.2933333333333 311.4666666666667C286.2933333333333 288 267.0933333333333 268.8 243.6266666666667 268.8C219.9466666666667 268.8 200.96 288 200.96 311.4666666666667C200.96 335.1466666666667 219.9466666666667 354.1333333333334 243.6266666666667 354.1333333333334M352 440.5333333333334C376.1066666666667 440.5333333333334 394.6666666666667 421.3333333333333 394.6666666666667 397.8666666666667C394.6666666666667 374.1866666666667 376.1066666666667 355.2000000000001 352 355.2000000000001C328.96 355.2000000000001 309.3333333333333 374.1866666666667 309.3333333333333 397.8666666666667C309.3333333333333 421.3333333333334 328.5333333333333 440.5333333333334 352 440.5333333333334z" /></svg>