<?xml version="1.0" encoding="UTF-8"?><!DOCTYPE svg PUBLIC "-//W3C//DTD SVG 1.1//EN" "http://www.w3.org/Graphics/SVG/1.1/DTD/svg11.dtd"><svg xmlns="http://www.w3.org/2000/svg" xmlns:xlink="http://www.w3.org/1999/xlink" version="1.1" width="512" height="512" viewBox="0 0 512 512">    <path fill="#ffffff" transform="scale(1, -1) translate(0, -448)" glyph-name="emoticon-happy-outline" unicode="&#xF1F5;" horiz-adv-x="512" d=" M426.6666666666667 192C426.6666666666667 286.2933333333334 350.2933333333334 362.6666666666667 256 362.6666666666667S85.3333333333333 286.2933333333334 85.3333333333333 192S161.7066666666667 21.3333333333334 256 21.3333333333334S426.6666666666667 97.7066666666667 426.6666666666667 192M469.3333333333333 192C469.3333333333333 74.24 373.76 -21.3333333333333 256 -21.3333333333333S42.6666666666667 74.24 42.6666666666667 192S138.24 405.3333333333333 256 405.3333333333333S469.3333333333333 309.76 469.3333333333333 192M213.3333333333333 245.3333333333334C213.3333333333333 228.2666666666667 198.4 213.3333333333334 181.3333333333333 213.3333333333334S149.3333333333333 228.2666666666667 149.3333333333333 245.3333333333334S164.2666666666667 277.3333333333334 181.3333333333333 277.3333333333334S213.3333333333333 262.4000000000001 213.3333333333333 245.3333333333334M362.6666666666667 245.3333333333334C362.6666666666667 228.2666666666667 347.7333333333334 213.3333333333334 330.6666666666667 213.3333333333334S298.6666666666667 228.2666666666667 298.6666666666667 245.3333333333334S313.6 277.3333333333334 330.6666666666667 277.3333333333334S362.6666666666667 262.4000000000001 362.6666666666667 245.3333333333334M256 80.4266666666667C218.6666666666667 80.4266666666667 185.8133333333333 96 166.6133333333333 119.04L196.9066666666667 149.3333333333334C206.5066666666667 133.9733333333334 229.3333333333333 123.0933333333334 256 123.0933333333334S305.4933333333334 133.9733333333334 315.0933333333333 149.3333333333334L345.3866666666666 119.04C326.1866666666666 96 293.3333333333333 80.4266666666667 255.9999999999999 80.4266666666667z" /></svg>