<?xml version="1.0" encoding="UTF-8"?><!DOCTYPE svg PUBLIC "-//W3C//DTD SVG 1.1//EN" "http://www.w3.org/Graphics/SVG/1.1/DTD/svg11.dtd"><svg xmlns="http://www.w3.org/2000/svg" xmlns:xlink="http://www.w3.org/1999/xlink" version="1.1" width="512" height="512" viewBox="0 0 512 512">    <path fill="#ffffff" transform="scale(1, -1) translate(0, -448)" glyph-name="mapbox" unicode="&#xFB86;" horiz-adv-x="512" d=" M256 405.3333333333333C373.76 405.3333333333333 469.3333333333333 309.76 469.3333333333333 192S373.76 -21.3333333333333 256 -21.3333333333333S42.6666666666667 74.24 42.6666666666667 192S138.24 405.3333333333333 256 405.3333333333333M357.3333333333333 139.7333333333334C397.8666666666666 180.2666666666667 396.3733333333333 247.68 353.92 289.92C311.4666666666667 332.1600000000001 244.2666666666667 333.8666666666667 203.7333333333334 293.3333333333334C130.56 220.16 154.0266666666667 90.0266666666668 154.0266666666667 90.0266666666668S284.3733333333334 66.7733333333334 357.3333333333333 139.7333333333334M280.5333333333333 280.3200000000001L301.44 237.4400000000001L344.32 216.5333333333334L301.44 195.6266666666667L280.5333333333333 152.7466666666667L259.6266666666667 195.6266666666667L216.7466666666667 216.5333333333334L259.6266666666667 237.4400000000001L280.5333333333333 280.3200000000001z" /></svg>