<?xml version="1.0" encoding="UTF-8"?><!DOCTYPE svg PUBLIC "-//W3C//DTD SVG 1.1//EN" "http://www.w3.org/Graphics/SVG/1.1/DTD/svg11.dtd"><svg xmlns="http://www.w3.org/2000/svg" xmlns:xlink="http://www.w3.org/1999/xlink" version="1.1" width="512" height="512" viewBox="0 0 512 512">    <path fill="#ffffff" transform="scale(1, -1) translate(0, -448)" glyph-name="yelp" unicode="&#xF5C2;" horiz-adv-x="512" d=" M225.92 405.3333333333333C239.5733333333333 405.3333333333333 245.3333333333333 399.5733333333333 247.04 384.64L251.52 317.0133333333333L256.64 228.48C257.0666666666667 221.0133333333334 256 213.3333333333334 253.0133333333334 206.5066666666667C248.32 196.9066666666667 237.6533333333334 194.3466666666667 228.9066666666667 200.96C224 205.0133333333334 219.9466666666667 210.3466666666667 216.5333333333333 216.1066666666668L136.96 350.9333333333334C129.28 363.9466666666667 131.6266666666667 372.48 144.4266666666667 380.5866666666667C160 390.8266666666667 207.5733333333333 405.3333333333333 225.92 405.3333333333333M316.3733333333334 131.2000000000001L321.92 129.92L404.2666666666667 100.0533333333334C418.3466666666667 94.9333333333334 422.1866666666666 87.0400000000001 416 73.1733333333334C406.6133333333333 49.0666666666667 391.2533333333334 28.5866666666667 371.6266666666667 11.7333333333333C361.8133333333334 3.2 352 4.6933333333334 345.8133333333334 15.3600000000001L297.3866666666667 99.8400000000001C289.0666666666667 114.9866666666668 299.3066666666667 132.2666666666668 316.3733333333334 131.2000000000001M96 149.3333333333334C96 165.12 96 180.2666666666667 101.3333333333333 194.7733333333333C106.0266666666667 209.0666666666667 113.7066666666667 213.3333333333333 128 207.5733333333333L205.44 174.72C215.2533333333333 170.6666666666666 220.8 163.84 220.3733333333333 152.7466666666667C219.7333333333333 141.6533333333333 212.6933333333333 136.96 203.3066666666666 133.76L124.8 107.9466666666667C109.8666666666666 103.04 102.1866666666666 107.52 98.9866666666666 122.6666666666666C97.0666666666666 131.6266666666667 95.36 140.8 96 149.3333333333333M255.36 0C254.9333333333333 -17.28 247.4666666666667 -23.8933333333333 230.6133333333333 -21.3333333333333C208.4266666666667 -17.0666666666667 187.9466666666666 -8.5333333333333 169.8133333333333 5.12C160.8533333333333 11.9466666666667 158.9333333333333 22.4 165.5466666666666 31.36L223.36 107.3066666666667C228.2666666666667 113.7066666666667 235.3066666666667 115.2 242.9866666666666 112.2133333333334C251.0933333333333 109.2266666666667 255.36 102.8266666666667 255.36 94.08V0M308.2666666666667 163.84C292.9066666666667 163.6266666666667 282.24 181.3333333333334 290.9866666666666 193.92C308.6933333333333 220.3733333333333 327.4666666666666 246.1866666666667 346.2399999999999 271.7866666666667C351.9999999999999 280.5333333333334 361.3866666666666 281.1733333333334 369.2799999999999 273.92C389.1199999999999 256 403.4133333333333 234.6666666666667 411.5199999999999 208.64C414.5066666666666 199.04 410.6666666666666 190.2933333333334 401.7066666666666 187.7333333333334L321.9199999999999 167.04L308.2666666666666 163.84z" /></svg>