<?xml version="1.0" encoding="UTF-8"?><!DOCTYPE svg PUBLIC "-//W3C//DTD SVG 1.1//EN" "http://www.w3.org/Graphics/SVG/1.1/DTD/svg11.dtd"><svg xmlns="http://www.w3.org/2000/svg" xmlns:xlink="http://www.w3.org/1999/xlink" version="1.1" width="512" height="512" viewBox="0 0 512 512">    <path fill="#ffffff" transform="scale(1, -1) translate(0, -448)" glyph-name="numeric-9-plus-box-outline" unicode="&#xF3C1;" horiz-adv-x="512" d=" M405.3333333333333 213.3333333333334H362.6666666666667V256H320V213.3333333333334H277.3333333333333V170.6666666666667H320V128H362.6666666666667V170.6666666666667H405.3333333333333V42.6666666666667H106.6666666666667V341.3333333333334H405.3333333333333M405.3333333333333 384H106.6666666666667C83.2 384 64 364.8 64 341.3333333333334V42.6666666666667C64 19.2 83.2 0 106.6666666666667 0H405.3333333333333C428.8 0 448 19.2 448 42.6666666666667V341.3333333333334C448 364.8 428.8 384 405.3333333333333 384M192 213.3333333333334V234.6666666666667H213.3333333333333V213.3333333333334M256 149.3333333333334V234.6666666666667C256 258.3466666666667 236.8 277.3333333333334 213.3333333333333 277.3333333333334H192C168.5333333333333 277.3333333333334 149.3333333333333 258.1333333333334 149.3333333333333 234.6666666666667V213.3333333333334C149.3333333333333 189.6533333333334 168.5333333333333 170.6666666666667 192 170.6666666666667H213.3333333333333V149.3333333333334H149.3333333333333V106.6666666666667H213.3333333333333C236.8 106.6666666666667 256 125.8666666666667 256 149.3333333333334z" /></svg>