<?xml version="1.0" encoding="UTF-8"?><!DOCTYPE svg PUBLIC "-//W3C//DTD SVG 1.1//EN" "http://www.w3.org/Graphics/SVG/1.1/DTD/svg11.dtd"><svg xmlns="http://www.w3.org/2000/svg" xmlns:xlink="http://www.w3.org/1999/xlink" version="1.1" width="512" height="512" viewBox="0 0 512 512">    <path fill="#ffffff" transform="scale(1, -1) translate(0, -448)" glyph-name="city-variant-outline" unicode="&#xFA36;" horiz-adv-x="512" d=" M320 -42.6666666666666H277.3333333333333V0H320V-42.6666666666666M405.3333333333333 0H362.6666666666667V-42.6666666666666H405.3333333333333V0M320 85.3333333333334H277.3333333333333V42.6666666666667H320V85.3333333333334M149.3333333333333 0H106.6666666666667V-42.6666666666666H149.3333333333333V0M149.3333333333333 85.3333333333334H106.6666666666667V42.6666666666667H149.3333333333333V85.3333333333334M405.3333333333333 85.3333333333334H362.6666666666667V42.6666666666667H405.3333333333333V85.3333333333334M320 170.6666666666667H277.3333333333333V128H320V170.6666666666667M405.3333333333333 170.6666666666667H362.6666666666667V128H405.3333333333333V170.6666666666667M448 256C471.4666666666667 256 490.6666666666666 236.8 490.6666666666666 213.3333333333334V-42.6666666666666H448V213.3333333333334H234.6666666666667V-42.6666666666666H192V128H64V-42.6666666666666H21.3333333333333V128C21.3333333333333 151.4666666666667 40.5333333333333 170.6666666666667 64 170.6666666666667H192V213.3333333333334C192 236.8 211.2 256 234.6666666666667 256V298.6666666666667C234.6666666666667 322.1333333333334 253.8666666666667 341.3333333333334 277.3333333333333 341.3333333333334H320V426.6666666666667H362.6666666666667V341.3333333333334H405.3333333333333C428.8 341.3333333333334 448 322.1333333333334 448 298.6666666666667V256M405.3333333333333 256V298.6666666666667H277.3333333333333V256H405.3333333333333z" /></svg>