<?xml version="1.0" encoding="UTF-8"?><!DOCTYPE svg PUBLIC "-//W3C//DTD SVG 1.1//EN" "http://www.w3.org/Graphics/SVG/1.1/DTD/svg11.dtd"><svg xmlns="http://www.w3.org/2000/svg" xmlns:xlink="http://www.w3.org/1999/xlink" version="1.1" width="512" height="512" viewBox="0 0 512 512">    <path fill="#ffffff" transform="scale(1, -1) translate(0, -448)" glyph-name="flip-to-front" unicode="&#xF248;" horiz-adv-x="512" d=" M149.3333333333333 0H192V42.6666666666667H149.3333333333333M234.6666666666667 0H277.3333333333333V42.6666666666667H234.6666666666667M405.3333333333333 128H192V341.3333333333334H405.3333333333333M405.3333333333333 384H192C168.32 384 149.3333333333333 365.0133333333333 149.3333333333333 341.3333333333334V128C149.3333333333333 104.5333333333333 168.5333333333333 85.3333333333334 192 85.3333333333334H405.3333333333333C428.8 85.3333333333334 448 104.5333333333333 448 128V341.3333333333334C448 365.0133333333333 428.8 384 405.3333333333333 384M320 0H362.6666666666667V42.6666666666667H320M64 256H106.6666666666667V298.6666666666667H64M106.6666666666667 0V42.6666666666667H64C64 19.2 83.2 0 106.6666666666667 0M64 85.3333333333334H106.6666666666667V128H64M64 170.6666666666667H106.6666666666667V213.3333333333334H64V170.6666666666667z" /></svg>