<?xml version="1.0" encoding="UTF-8"?><!DOCTYPE svg PUBLIC "-//W3C//DTD SVG 1.1//EN" "http://www.w3.org/Graphics/SVG/1.1/DTD/svg11.dtd"><svg xmlns="http://www.w3.org/2000/svg" xmlns:xlink="http://www.w3.org/1999/xlink" version="1.1" width="512" height="512" viewBox="0 0 512 512">    <path fill="#ffffff" transform="scale(1, -1) translate(0, -448)" glyph-name="blender" unicode="&#xFCC7;" horiz-adv-x="512" d=" M405.3333333333333 341.3333333333334H379.7333333333334L384 405.3333333333333H85.3333333333333L106.6666666666667 362.6666666666667H128L148.0533333333333 102.6133333333334L106.6666666666667 -21.3333333333333H405.3333333333333L363.9466666666666 103.04L366.9333333333333 149.3333333333333H405.3333333333333C433.0666666666667 149.3333333333333 448 171.3066666666666 448 192V298.6666666666667C448 326.4 426.0266666666667 341.3333333333334 405.3333333333333 341.3333333333334M256 21.3333333333334C238.2933333333333 21.3333333333334 224 35.6266666666667 224 53.3333333333334S238.2933333333333 85.3333333333334 256 85.3333333333334S288 71.04 288 53.3333333333334S273.7066666666667 21.3333333333334 256 21.3333333333334M322.7733333333333 128H188.8L185.6 170.6666666666667H277.3333333333333V192H183.8933333333333L180.6933333333333 234.6666666666667H277.3333333333333V256H178.9866666666667L175.7866666666667 298.6666666666667H277.3333333333333V320H174.08L170.6666666666667 362.6666666666667H338.3466666666667L322.7733333333333 128M405.3333333333333 192H369.7066666666666L376.9599999999999 298.6666666666667H405.3333333333333V192z" /></svg>