<?xml version="1.0" encoding="UTF-8"?><!DOCTYPE svg PUBLIC "-//W3C//DTD SVG 1.1//EN" "http://www.w3.org/Graphics/SVG/1.1/DTD/svg11.dtd"><svg xmlns="http://www.w3.org/2000/svg" xmlns:xlink="http://www.w3.org/1999/xlink" version="1.1" width="512" height="512" viewBox="0 0 512 512">    <path fill="#ffffff" transform="scale(1, -1) translate(0, -448)" glyph-name="numeric-3-box" unicode="&#xF3AA;" horiz-adv-x="512" d=" M320 224C320 206.2933333333334 305.7066666666667 192 288 192C305.92 192 320 177.7066666666667 320 160V128C320 104.3200000000001 301.0133333333333 85.3333333333334 277.3333333333333 85.3333333333334H192V128H277.3333333333333V170.6666666666667H234.6666666666667V213.3333333333334H277.3333333333333V256H192V298.6666666666667H277.3333333333333C301.0133333333333 298.6666666666667 320 279.68 320 256M405.3333333333333 384H106.6666666666667C83.4133333333333 384 64 364.8 64 341.3333333333334V42.6666666666667C64 19.2 83.2 0 106.6666666666667 0H405.3333333333333C429.0133333333333 0 448 19.2 448 42.6666666666667V341.3333333333334C448 364.8 428.8 384 405.3333333333333 384z" /></svg>