<?xml version="1.0" encoding="UTF-8"?><!DOCTYPE svg PUBLIC "-//W3C//DTD SVG 1.1//EN" "http://www.w3.org/Graphics/SVG/1.1/DTD/svg11.dtd"><svg xmlns="http://www.w3.org/2000/svg" xmlns:xlink="http://www.w3.org/1999/xlink" version="1.1" width="512" height="512" viewBox="0 0 512 512">    <path fill="#ffffff" transform="scale(1, -1) translate(0, -448)" glyph-name="progress-download" unicode="&#xF996;" horiz-adv-x="512" d=" M277.3333333333333 404.6933333333334C378.24 394.6666666666667 458.6666666666666 314.6666666666667 468.2666666666667 213.3333333333334C480 96 394.6666666666667 -8.1066666666667 277.3333333333333 -19.84V22.8266666666667C354.9866666666667 32 416 93.6533333333334 425.8133333333334 171.3066666666667C437.3333333333333 264.9600000000001 370.9866666666667 350.0800000000001 277.3333333333333 361.6V404.6933333333334M234.6666666666667 404.0533333333334V361.3866666666667C204.16 357.12 175.36 344.7466666666667 151.4666666666667 325.5466666666667L120.96 357.12C153.3866666666667 384 193.0666666666667 400 234.6666666666667 404.0533333333334M90.88 327.04L121.3866666666667 296.5333333333334C102.4 272.4266666666667 90.4533333333333 243.6266666666667 86.4 213.3333333333334H43.7333333333333C48 255.1466666666667 64 294.6133333333334 90.88 327.04M43.9466666666667 170.6666666666667H86.6133333333334C90.4533333333333 140.3733333333333 102.6133333333334 111.5733333333334 121.3866666666667 87.4666666666667L91.0933333333333 56.96C64.64 89.3866666666667 48.2133333333333 128.8533333333334 43.9466666666667 170.6666666666667M151.4666666666667 56.1066666666667C175.5733333333333 37.3333333333334 204.3733333333333 25.1733333333333 234.6666666666667 21.3333333333334V-21.3333333333333C192.8533333333333 -16.8533333333333 153.1733333333333 0 120.96 26.88L151.4666666666667 56.1066666666667M256 96L160 192H234.6666666666667V277.3333333333334H277.3333333333333V192H352L256 96z" /></svg>