<?xml version="1.0" encoding="UTF-8"?><!DOCTYPE svg PUBLIC "-//W3C//DTD SVG 1.1//EN" "http://www.w3.org/Graphics/SVG/1.1/DTD/svg11.dtd"><svg xmlns="http://www.w3.org/2000/svg" xmlns:xlink="http://www.w3.org/1999/xlink" version="1.1" width="512" height="512" viewBox="0 0 512 512">    <path fill="#ffffff" transform="scale(1, -1) translate(0, -448)" glyph-name="drag-vertical" unicode="&#xF1DD;" horiz-adv-x="512" d=" M192 384H234.6666666666667V341.3333333333334H192V384M277.3333333333333 384H320V341.3333333333334H277.3333333333333V384M192 298.6666666666667H234.6666666666667V256H192V298.6666666666667M277.3333333333333 298.6666666666667H320V256H277.3333333333333V298.6666666666667M192 213.3333333333334H234.6666666666667V170.6666666666667H192V213.3333333333334M277.3333333333333 213.3333333333334H320V170.6666666666667H277.3333333333333V213.3333333333334M192 128H234.6666666666667V85.3333333333334H192V128M277.3333333333333 128H320V85.3333333333334H277.3333333333333V128M192 42.6666666666667H234.6666666666667V0H192V42.6666666666667M277.3333333333333 42.6666666666667H320V0H277.3333333333333V42.6666666666667z" /></svg>