<?xml version="1.0" encoding="UTF-8"?><!DOCTYPE svg PUBLIC "-//W3C//DTD SVG 1.1//EN" "http://www.w3.org/Graphics/SVG/1.1/DTD/svg11.dtd"><svg xmlns="http://www.w3.org/2000/svg" xmlns:xlink="http://www.w3.org/1999/xlink" version="1.1" width="512" height="512" viewBox="0 0 512 512">    <path fill="#ffffff" transform="scale(1, -1) translate(0, -448)" glyph-name="ultra-high-definition" unicode="&#xF7F8;" horiz-adv-x="512" d=" M192 298.6666666666667H234.6666666666667V213.3333333333334H277.3333333333333V298.6666666666667H320V85.3333333333334H277.3333333333333V170.6666666666667H234.6666666666667V85.3333333333334H192V298.6666666666667M362.6666666666667 298.6666666666667H426.6666666666667C462.08 298.6666666666667 490.6666666666666 270.0800000000001 490.6666666666666 234.6666666666667V149.3333333333334C490.6666666666666 113.92 462.08 85.3333333333334 426.6666666666667 85.3333333333334H362.6666666666667V298.6666666666667M426.6666666666667 128C438.4 128 448 137.6 448 149.3333333333334V234.6666666666667C448 246.4000000000001 438.4 256 426.6666666666667 256H405.3333333333333V128H426.6666666666667M149.3333333333333 149.3333333333334C149.3333333333333 113.92 120.7466666666667 85.3333333333334 85.3333333333333 85.3333333333334S21.3333333333333 113.92 21.3333333333333 149.3333333333334V298.6666666666667H64V149.3333333333334C64 137.6 73.6 128 85.3333333333333 128S106.6666666666667 137.6 106.6666666666667 149.3333333333334V298.6666666666667H149.3333333333333V149.3333333333334z" /></svg>