<?xml version="1.0" encoding="UTF-8"?><!DOCTYPE svg PUBLIC "-//W3C//DTD SVG 1.1//EN" "http://www.w3.org/Graphics/SVG/1.1/DTD/svg11.dtd"><svg xmlns="http://www.w3.org/2000/svg" xmlns:xlink="http://www.w3.org/1999/xlink" version="1.1" width="512" height="512" viewBox="0 0 512 512">    <path fill="#ffffff" transform="scale(1, -1) translate(0, -448)" glyph-name="facebook-workplace" unicode="&#xFB16;" horiz-adv-x="512" d=" M420.0533333333334 104.1066666666667C414.2933333333334 97.4933333333333 404.2666666666667 87.04 388.0533333333334 87.04C365.4400000000001 87.04 357.9733333333334 103.4666666666666 351.1466666666667 120.7466666666667L317.0133333333333 204.5866666666667L282.88 120.7466666666667C277.3333333333334 106.6666666666667 270.9333333333334 87.04 245.9733333333334 87.04S214.8266666666667 106.6666666666667 208.8533333333334 120.7466666666667L151.68 261.9733333333334H199.8933333333334L245.9733333333334 145.7066666666667L280.32 230.4C285.6533333333333 243.84 292.0533333333334 264.1066666666667 317.0133333333333 264.1066666666667C341.3333333333333 264.1066666666667 348.16 243.84 353.7066666666667 230.4L391.04 138.6666666666667C410.0266666666667 167.68 418.1333333333334 202.6666666666667 413.4400000000001 237.0133333333333C408.7466666666668 271.36 391.8933333333333 302.9333333333334 365.6533333333333 325.76C339.6266666666667 348.5866666666667 305.92 361.3866666666667 271.36 361.3866666666667C235.3066666666667 361.6 200.32 350.2933333333334 170.6666666666667 329.3866666666667C142.08 308.2666666666667 120.32 278.6133333333334 109.2266666666667 244.48S98.1333333333333 173.44 109.2266666666667 139.3066666666667C120.32 105.1733333333334 142.08 75.52 171.3066666666667 54.6133333333333C200.5333333333334 33.4933333333333 235.52 22.4 271.36 22.6133333333333C286.9333333333334 22.6133333333333 302.2933333333334 24.7466666666667 317.2266666666667 29.0133333333333V-16C302.0800000000001 -19.4133333333333 286.7200000000001 -21.3333333333333 271.36 -21.3333333333333C226.3466666666667 -21.3333333333333 182.1866666666667 -7.2533333333333 145.4933333333334 19.2C108.8 45.6533333333333 81.4933333333334 82.9866666666667 67.6266666666667 125.8666666666667C53.3333333333334 168.7466666666667 53.3333333333334 215.04 67.4133333333334 258.1333333333334C81.4933333333334 301.0133333333333 108.8 338.3466666666667 145.4933333333334 364.8C181.9733333333333 391.2533333333334 226.1333333333334 405.3333333333333 271.36 405.3333333333333C374.6133333333334 405.3333333333333 458.6666666666666 321.2800000000001 458.6666666666666 217.8133333333334C458.6666666666666 176.8533333333334 445.0133333333333 136.7466666666667 420.0533333333334 104.1066666666667z" /></svg>