<?xml version="1.0" encoding="UTF-8"?><!DOCTYPE svg PUBLIC "-//W3C//DTD SVG 1.1//EN" "http://www.w3.org/Graphics/SVG/1.1/DTD/svg11.dtd"><svg xmlns="http://www.w3.org/2000/svg" xmlns:xlink="http://www.w3.org/1999/xlink" version="1.1" width="512" height="512" viewBox="0 0 512 512">    <path fill="#ffffff" transform="scale(1, -1) translate(0, -448)" glyph-name="power-settings" unicode="&#xF426;" horiz-adv-x="512" d=" M320 -64H362.6666666666667V-21.3333333333333H320M353.28 353.28L322.3466666666667 322.3466666666667C359.2533333333334 299.9466666666667 384 259.6266666666667 384 213.3333333333334C384 142.72 326.6133333333334 85.3333333333334 256 85.3333333333334S128 142.72 128 213.3333333333334C128 259.6266666666667 152.7466666666667 299.9466666666667 189.44 322.56L158.72 353.28C114.3466666666667 322.56 85.3333333333333 271.36 85.3333333333333 213.3333333333334C85.3333333333333 119.04 161.7066666666667 42.6666666666667 256 42.6666666666667S426.6666666666667 119.04 426.6666666666667 213.3333333333334C426.6666666666667 271.36 397.6533333333333 322.56 353.28 353.28M277.3333333333333 405.3333333333333H234.6666666666667V192H277.3333333333333M234.6666666666667 -64H277.3333333333333V-21.3333333333333H234.6666666666667M149.3333333333333 -64H192V-21.3333333333333H149.3333333333333V-64z" /></svg>