<?xml version="1.0" encoding="UTF-8"?><!DOCTYPE svg PUBLIC "-//W3C//DTD SVG 1.1//EN" "http://www.w3.org/Graphics/SVG/1.1/DTD/svg11.dtd"><svg xmlns="http://www.w3.org/2000/svg" xmlns:xlink="http://www.w3.org/1999/xlink" version="1.1" width="512" height="512" viewBox="0 0 512 512">    <path fill="#ffffff" transform="scale(1, -1) translate(0, -448)" glyph-name="battery-70-bluetooth" unicode="&#xF943;" horiz-adv-x="512" d=" M106.6666666666667 405.3333333333333V362.6666666666667H71.04C55.4666666666667 362.6666666666667 42.6666666666667 349.8666666666667 42.6666666666667 334.2933333333334V7.04C42.6666666666667 -8.5333333333333 55.4666666666667 -21.3333333333333 71.04 -21.3333333333333H270.2933333333333C285.8666666666667 -21.3333333333333 298.6666666666667 -8.5333333333333 298.6666666666667 7.04V334.2933333333334C298.6666666666667 349.8666666666667 285.8666666666667 362.6666666666667 270.2933333333333 362.6666666666667H234.6666666666667V405.3333333333333H106.6666666666667M85.3333333333333 320H256V234.6666666666667H85.3333333333333V320M405.3333333333333 277.3333333333334V196.48L356.48 245.3333333333334L341.3333333333333 230.1866666666667L400.8533333333333 170.6666666666667L341.3333333333333 111.1466666666667L356.48 96L405.3333333333333 144.8533333333334V64H416L476.8 125.0133333333333L431.1466666666667 170.6666666666667L476.8 216.5333333333334L416 277.3333333333334H405.3333333333333M426.6666666666667 236.5866666666667L446.7200000000001 216.5333333333334L426.6666666666667 196.48V236.5866666666667M426.6666666666667 144.8533333333334L446.7200000000001 125.0133333333333L426.6666666666667 104.96V144.8533333333334z" /></svg>