<?xml version="1.0" encoding="UTF-8"?><!DOCTYPE svg PUBLIC "-//W3C//DTD SVG 1.1//EN" "http://www.w3.org/Graphics/SVG/1.1/DTD/svg11.dtd"><svg xmlns="http://www.w3.org/2000/svg" xmlns:xlink="http://www.w3.org/1999/xlink" version="1.1" width="512" height="512" viewBox="0 0 512 512">    <path fill="#ffffff" transform="scale(1, -1) translate(0, -448)" glyph-name="battery-unknown" unicode="&#xF091;" horiz-adv-x="512" d=" M321.4933333333334 186.6666666666667L302.2933333333333 167.04C290.7733333333333 155.52 282.6666666666667 145.4933333333334 279.2533333333334 128H235.7333333333334C238.08 147.2000000000001 246.6133333333334 164.6933333333334 259.6266666666667 177.7066666666667L286.0800000000001 204.5866666666667C293.9733333333334 212.2666666666667 298.6666666666667 222.9333333333333 298.6666666666667 234.6666666666667C298.6666666666667 258.3466666666667 279.4666666666667 277.3333333333334 256 277.3333333333334S213.3333333333334 258.1333333333334 213.3333333333334 234.6666666666667H170.6666666666667C170.6666666666667 281.8133333333334 208.8533333333333 320 256 320S341.3333333333333 281.8133333333334 341.3333333333333 234.6666666666667C341.3333333333333 215.8933333333333 333.6533333333333 198.8266666666667 321.4933333333334 186.6666666666667M277.3333333333333 42.6666666666667H234.6666666666667V85.3333333333334H277.3333333333333M355.6266666666667 362.6666666666667H320V405.3333333333333H192V362.6666666666667H156.3733333333333C140.8 362.6666666666667 128 349.8666666666667 128 334.2933333333334V7.2533333333333C128 -8.5333333333333 140.8 -21.3333333333333 156.3733333333333 -21.3333333333333H355.6266666666667C371.2000000000001 -21.3333333333333 384 -8.5333333333333 384 7.2533333333333V334.2933333333334C384 350.0800000000001 371.2 362.6666666666667 355.6266666666667 362.6666666666667z" /></svg>