<?xml version="1.0" encoding="UTF-8"?><!DOCTYPE svg PUBLIC "-//W3C//DTD SVG 1.1//EN" "http://www.w3.org/Graphics/SVG/1.1/DTD/svg11.dtd"><svg xmlns="http://www.w3.org/2000/svg" xmlns:xlink="http://www.w3.org/1999/xlink" version="1.1" width="512" height="512" viewBox="0 0 512 512">    <path fill="#ffffff" transform="scale(1, -1) translate(0, -448)" glyph-name="elephant" unicode="&#xF7C5;" horiz-adv-x="512" d=" M416 117.3333333333334C416 111.36 411.3066666666667 106.6666666666667 405.3333333333333 106.6666666666667S394.6666666666667 111.36 394.6666666666667 117.3333333333334V266.6666666666667C394.6666666666667 307.8400000000001 350.5066666666667 341.3333333333334 309.3333333333333 341.3333333333334H128C80.8533333333333 341.3333333333334 42.6666666666667 303.1466666666667 42.6666666666667 256V42.6666666666667H128V128H234.6666666666667V42.6666666666667H320V138.6666666666667C320 144.64 324.6933333333334 149.3333333333334 330.6666666666667 149.3333333333334S341.3333333333333 144.64 341.3333333333333 138.6666666666667V106.6666666666667C341.3333333333333 71.2533333333333 369.92 42.6666666666667 405.3333333333333 42.6666666666667S469.3333333333333 71.2533333333333 469.3333333333333 106.6666666666667V149.3333333333334H416V117.3333333333334z" /></svg>