<?xml version="1.0" encoding="UTF-8"?><!DOCTYPE svg PUBLIC "-//W3C//DTD SVG 1.1//EN" "http://www.w3.org/Graphics/SVG/1.1/DTD/svg11.dtd"><svg xmlns="http://www.w3.org/2000/svg" xmlns:xlink="http://www.w3.org/1999/xlink" version="1.1" width="512" height="512" viewBox="0 0 512 512">    <path fill="#ffffff" transform="scale(1, -1) translate(0, -448)" glyph-name="video-account" unicode="&#xF918;" horiz-adv-x="512" d=" M362.6666666666667 224L448 309.3333333333334V74.6666666666667L362.6666666666667 160V85.3333333333334C362.6666666666667 73.6 353.0666666666667 64 341.3333333333333 64H85.3333333333333C73.6 64 64 73.6 64 85.3333333333334V298.6666666666667C64 310.4 73.6 320 85.3333333333333 320H341.3333333333333C353.0666666666667 320 362.6666666666667 310.4 362.6666666666667 298.6666666666667V224M298.6666666666667 106.6666666666667V128C298.6666666666667 156.3733333333333 241.7066666666667 170.6666666666667 213.3333333333333 170.6666666666667S128 156.3733333333333 128 128V106.6666666666667H298.6666666666667M213.3333333333333 277.3333333333334C189.8666666666667 277.3333333333334 170.6666666666667 258.1333333333334 170.6666666666667 234.6666666666667S189.8666666666667 192 213.3333333333333 192S256 211.2 256 234.6666666666667S236.8 277.3333333333334 213.3333333333333 277.3333333333334z" /></svg>