<?xml version="1.0" encoding="UTF-8"?><!DOCTYPE svg PUBLIC "-//W3C//DTD SVG 1.1//EN" "http://www.w3.org/Graphics/SVG/1.1/DTD/svg11.dtd"><svg xmlns="http://www.w3.org/2000/svg" xmlns:xlink="http://www.w3.org/1999/xlink" version="1.1" width="512" height="512" viewBox="0 0 512 512">    <path fill="#ffffff" transform="scale(1, -1) translate(0, -448)" glyph-name="skull-crossbones-outline" unicode="&#xFBA3;" horiz-adv-x="512" d=" M337.0666666666667 53.3333333333334L465.0666666666667 19.2L456.5333333333334 -21.3333333333333L256 32L55.4666666666667 -21.3333333333333L44.8 19.2L172.8 53.3333333333334L42.6666666666667 87.4666666666667L53.3333333333333 128.0000000000001L253.8666666666667 74.6666666666667L454.4 128L465.0666666666667 87.4666666666667L337.0666666666667 53.3333333333334M202.6666666666667 320C185.6 320 170.6666666666667 305.0666666666667 170.6666666666667 288S185.6 256 202.6666666666667 256S234.6666666666667 270.9333333333334 234.6666666666667 288S219.7333333333334 320 202.6666666666667 320M309.3333333333333 320C292.2666666666667 320 277.3333333333333 305.0666666666667 277.3333333333333 288S292.2666666666667 256 309.3333333333333 256S341.3333333333333 270.9333333333334 341.3333333333333 288S326.4 320 309.3333333333333 320M277.3333333333333 213.3333333333334L256 256L234.6666666666667 213.3333333333334H277.3333333333333M256 426.6666666666667C172.8 426.6666666666667 106.6666666666667 360.5333333333334 106.6666666666667 277.3333333333334C106.6666666666667 236.8 123.7333333333333 200.5333333333334 149.3333333333333 172.8V106.6666666666667H362.6666666666667V172.8C388.2666666666667 200.5333333333334 405.3333333333333 236.8 405.3333333333333 277.3333333333334C405.3333333333333 360.5333333333334 339.2 426.6666666666667 256 426.6666666666667M320 192V149.3333333333334H298.6666666666667V192H277.3333333333333V149.3333333333334H234.6666666666667V192H213.3333333333333V149.3333333333334H192V192C166.4 211.2 149.3333333333333 241.0666666666667 149.3333333333333 277.3333333333334C149.3333333333333 337.0666666666667 196.2666666666667 384 256 384S362.6666666666667 337.0666666666667 362.6666666666667 277.3333333333334C362.6666666666667 243.2 345.6 211.2 320 192z" /></svg>