<?xml version="1.0" encoding="UTF-8"?><!DOCTYPE svg PUBLIC "-//W3C//DTD SVG 1.1//EN" "http://www.w3.org/Graphics/SVG/1.1/DTD/svg11.dtd"><svg xmlns="http://www.w3.org/2000/svg" xmlns:xlink="http://www.w3.org/1999/xlink" version="1.1" width="512" height="512" viewBox="0 0 512 512">    <path fill="#ffffff" transform="scale(1, -1) translate(0, -448)" glyph-name="file-replace" unicode="&#xFB17;" horiz-adv-x="512" d=" M298.6666666666667 192H416L298.6666666666667 309.3333333333334V192M170.6666666666667 341.3333333333334H320L448 213.3333333333334V0C448 -23.4666666666667 428.8 -42.6666666666666 405.3333333333333 -42.6666666666666H170.6666666666667C146.9866666666667 -42.6666666666666 128 -23.4666666666667 128 0V64H234.6666666666667V21.3333333333334L320 85.3333333333334L234.6666666666667 149.3333333333334V106.6666666666667H128V298.6666666666667C128 322.1333333333334 147.2 341.3333333333334 170.6666666666667 341.3333333333334M288 384H85.3333333333333V106.6666666666667H128V64H85.3333333333333C61.8666666666667 64 42.6666666666667 83.2 42.6666666666667 106.6666666666667V384C42.6666666666667 407.4666666666667 61.8666666666667 426.6666666666667 85.3333333333333 426.6666666666667H245.3333333333333L288 384z" /></svg>