<?xml version="1.0" encoding="UTF-8"?><!DOCTYPE svg PUBLIC "-//W3C//DTD SVG 1.1//EN" "http://www.w3.org/Graphics/SVG/1.1/DTD/svg11.dtd"><svg xmlns="http://www.w3.org/2000/svg" xmlns:xlink="http://www.w3.org/1999/xlink" version="1.1" width="512" height="512" viewBox="0 0 512 512">    <path fill="#ffffff" transform="scale(1, -1) translate(0, -448)" glyph-name="math-compass" unicode="&#xF358;" horiz-adv-x="512" d=" M277.3333333333333 358.4V384C277.3333333333333 396.8 268.8 405.3333333333333 256 405.3333333333333V358.4C209.0666666666667 349.8666666666667 192 326.4 192 298.6666666666667C192 281.6 198.4 266.6666666666667 209.0666666666667 256L85.3333333333333 23.4666666666667V-21.3333333333333L132.2666666666667 21.3333333333334L247.4666666666667 234.6666666666667H256C292.2666666666667 234.6666666666667 320 262.4000000000001 320 298.6666666666667C320 326.4 302.9333333333334 349.8666666666667 277.3333333333334 358.4M275.2000000000001 288C270.9333333333334 281.6 264.5333333333334 277.3333333333334 256 277.3333333333334C243.2000000000001 277.3333333333334 234.6666666666667 285.8666666666667 234.6666666666667 298.6666666666667C234.6666666666667 302.9333333333334 236.8 305.0666666666667 236.8 309.3333333333334C241.0666666666667 315.7333333333334 247.4666666666667 320 256 320C268.8 320 277.3333333333334 311.4666666666667 277.3333333333334 298.6666666666667C277.3333333333334 294.4 275.2000000000001 292.2666666666667 275.2000000000001 288M426.6666666666667 23.4666666666667V-21.3333333333333L379.7333333333334 21.3333333333334L285.8666666666667 196.2666666666667C300.8 200.5333333333333 313.6 206.9333333333333 324.2666666666667 215.4666666666667L426.6666666666667 23.4666666666667z" /></svg>