<?xml version="1.0" encoding="UTF-8"?><!DOCTYPE svg PUBLIC "-//W3C//DTD SVG 1.1//EN" "http://www.w3.org/Graphics/SVG/1.1/DTD/svg11.dtd"><svg xmlns="http://www.w3.org/2000/svg" xmlns:xlink="http://www.w3.org/1999/xlink" version="1.1" width="512" height="512" viewBox="0 0 512 512">    <path fill="#ffffff" transform="scale(1, -1) translate(0, -448)" glyph-name="gate" unicode="&#xF299;" horiz-adv-x="512" d=" M192 341.3333333333334V234.6666666666667H149.3333333333333V320H106.6666666666667V234.6666666666667H64V277.3333333333334H21.3333333333333V21.3333333333334H64V64H106.6666666666667V21.3333333333334H149.3333333333333V64H192V21.3333333333334H234.6666666666667V64H277.3333333333333V21.3333333333334H320V64H362.6666666666667V21.3333333333334H405.3333333333333V64H448V21.3333333333334H490.6666666666666V277.3333333333334H448V234.6666666666667H405.3333333333333V320H362.6666666666667V234.6666666666667H320V341.3333333333334H277.3333333333333V234.6666666666667H234.6666666666667V341.3333333333334H192M64 192H106.6666666666667V106.6666666666667H64V192M149.3333333333333 192H192V106.6666666666667H149.3333333333333V192M234.6666666666667 192H277.3333333333333V106.6666666666667H234.6666666666667V192M320 192H362.6666666666667V106.6666666666667H320V192M405.3333333333333 192H448V106.6666666666667H405.3333333333333V192z" /></svg>