<?xml version="1.0" encoding="UTF-8"?><!DOCTYPE svg PUBLIC "-//W3C//DTD SVG 1.1//EN" "http://www.w3.org/Graphics/SVG/1.1/DTD/svg11.dtd"><svg xmlns="http://www.w3.org/2000/svg" xmlns:xlink="http://www.w3.org/1999/xlink" version="1.1" width="512" height="512" viewBox="0 0 512 512">    <path fill="#ffffff" transform="scale(1, -1) translate(0, -448)" glyph-name="vibrate-off" unicode="&#xFCB5;" horiz-adv-x="512" d=" M174.9333333333333 341.3333333333334L139.7333333333333 376.5333333333333C145.28 381.44 152.5333333333333 384 160 384H352C369.7066666666666 384 384 369.7066666666667 384 352V132.2666666666667L341.3333333333333 174.9333333333333V341.3333333333334H174.9333333333333M0 128H42.6666666666667V256H0V128M448 85.3333333333334V298.6666666666667H405.3333333333333V110.9333333333333L430.9333333333333 85.3333333333334H448M64 85.3333333333334H106.6666666666667V298.6666666666667H64V85.3333333333334M384 77.8666666666667L471.6799999999999 -9.8133333333333L444.5866666666667 -36.9066666666666L384 24.5333333333333C380.3733333333333 9.8133333333333 367.1466666666667 0 352 0H160C142.2933333333333 0 128 14.2933333333334 128 32V279.68L23.68 384L50.9866666666667 411.0933333333334L129.92 331.9466666666667L170.6666666666667 291.4133333333334L341.3333333333333 120.7466666666667L384 78.08V77.8666666666667M341.3333333333333 66.3466666666667L170.6666666666667 237.0133333333333V42.6666666666667H341.3333333333333V66.3466666666667M469.3333333333333 256V128H512V256H469.3333333333333z" /></svg>