<?xml version="1.0" encoding="UTF-8"?><!DOCTYPE svg PUBLIC "-//W3C//DTD SVG 1.1//EN" "http://www.w3.org/Graphics/SVG/1.1/DTD/svg11.dtd"><svg xmlns="http://www.w3.org/2000/svg" xmlns:xlink="http://www.w3.org/1999/xlink" version="1.1" width="512" height="512" viewBox="0 0 512 512">    <path fill="#ffffff" transform="scale(1, -1) translate(0, -448)" glyph-name="vector-polygon" unicode="&#xF560;" horiz-adv-x="512" d=" M42.6666666666667 405.3333333333333V277.3333333333334H91.3066666666666L118.8266666666667 106.6666666666667H85.3333333333333V-21.3333333333333H213.3333333333333V20.0533333333334L320 20.2666666666668V-21.3333333333333H448V106.6666666666667H408.9600000000001L426.6666666666667 256H469.3333333333333V384H341.3333333333333V308.6933333333334L315.7333333333334 277.3333333333334H204.5866666666667L170.6666666666667 323.8400000000001V405.3333333333333M85.3333333333333 362.6666666666667H128V320H85.3333333333333M384 341.3333333333334H426.6666666666667V298.6666666666667H384M134.6133333333333 277.3333333333334H151.68L192 222.08V149.3333333333334H320V215.2533333333333L353.4933333333334 256H384L366.08 106.6666666666667H320V62.72H213.3333333333333V106.6666666666667H162.1333333333333M234.6666666666667 234.6666666666667H277.3333333333333V192H234.6666666666667M128 64H170.6666666666667V21.3333333333334H128M362.6666666666667 64H405.3333333333333V21.3333333333334H362.6666666666667" /></svg>