<?xml version="1.0" encoding="UTF-8"?><!DOCTYPE svg PUBLIC "-//W3C//DTD SVG 1.1//EN" "http://www.w3.org/Graphics/SVG/1.1/DTD/svg11.dtd"><svg xmlns="http://www.w3.org/2000/svg" xmlns:xlink="http://www.w3.org/1999/xlink" version="1.1" width="512" height="512" viewBox="0 0 512 512">    <path fill="#ffffff" transform="scale(1, -1) translate(0, -448)" glyph-name="send-lock" unicode="&#xF7EC;" horiz-adv-x="512" d=" M490.6666666666666 64V74.6666666666667C490.6666666666666 104.1066666666667 466.7733333333333 128 437.3333333333333 128S384 104.1066666666667 384 74.6666666666667V64C372.2666666666667 64 362.6666666666667 54.4 362.6666666666667 42.6666666666667V-42.6666666666666C362.6666666666667 -54.4 372.2666666666667 -64 384 -64H490.6666666666666C502.4 -64 512 -54.4 512 -42.6666666666666V42.6666666666667C512 54.4 502.4 64 490.6666666666666 64M469.3333333333333 64H405.3333333333333V74.6666666666667C405.3333333333333 92.3733333333333 419.6266666666667 106.6666666666667 437.3333333333333 106.6666666666667S469.3333333333333 92.3733333333333 469.3333333333333 74.6666666666667V64M490.6666666666666 192L42.6666666666667 0V149.3333333333334L362.6666666666667 192L42.6666666666667 234.6666666666667V384L490.6666666666666 192z" /></svg>