<?xml version="1.0" encoding="UTF-8"?><!DOCTYPE svg PUBLIC "-//W3C//DTD SVG 1.1//EN" "http://www.w3.org/Graphics/SVG/1.1/DTD/svg11.dtd"><svg xmlns="http://www.w3.org/2000/svg" xmlns:xlink="http://www.w3.org/1999/xlink" version="1.1" width="512" height="512" viewBox="0 0 512 512">    <path fill="#ffffff" transform="scale(1, -1) translate(0, -448)" glyph-name="cellphone-sound" unicode="&#xF951;" horiz-adv-x="512" d=" M407.4666666666667 262.4000000000001C445.8666666666667 224 445.8666666666667 164.2666666666667 407.4666666666667 123.7333333333334L428.8 102.4C482.1333333333333 151.4666666666667 482.1333333333333 232.5333333333334 428.8 283.7333333333334L407.4666666666667 262.4000000000001M384 238.9333333333334L362.6666666666667 217.6C373.3333333333333 202.6666666666667 373.3333333333333 183.4666666666667 362.6666666666667 168.5333333333333L384 147.2C409.6 172.8 409.6 211.2 384 238.9333333333334M298.6666666666667 426.6666666666667H85.3333333333333C61.8666666666667 426.6666666666667 42.6666666666667 407.4666666666667 42.6666666666667 384V0C42.6666666666667 -23.4666666666667 61.8666666666667 -42.6666666666666 85.3333333333333 -42.6666666666666H298.6666666666667C322.1333333333334 -42.6666666666666 341.3333333333333 -23.4666666666667 341.3333333333333 0V384C341.3333333333333 407.4666666666667 322.1333333333334 426.6666666666667 298.6666666666667 426.6666666666667M298.6666666666667 21.3333333333334H85.3333333333333V362.6666666666667H298.6666666666667V21.3333333333334z" /></svg>