<?xml version="1.0" encoding="UTF-8"?><!DOCTYPE svg PUBLIC "-//W3C//DTD SVG 1.1//EN" "http://www.w3.org/Graphics/SVG/1.1/DTD/svg11.dtd"><svg xmlns="http://www.w3.org/2000/svg" xmlns:xlink="http://www.w3.org/1999/xlink" version="1.1" width="512" height="512" viewBox="0 0 512 512">    <path fill="#ffffff" transform="scale(1, -1) translate(0, -448)" glyph-name="ghost-off" unicode="&#xF9F4;" horiz-adv-x="512" d=" M42.6666666666667 378.24L69.9733333333333 405.3333333333333L469.3333333333333 5.9733333333334L442.24 -21.3333333333333L381.2266666666667 39.8933333333334L320 -21.3333333333333L256 42.6666666666667L192 -21.3333333333333L128 42.6666666666667L64 -21.3333333333333V213.3333333333334C64 254.08 76.5866666666667 291.6266666666667 98.1333333333333 322.7733333333333L42.6666666666667 378.24M256 405.3333333333333C362.0266666666667 405.3333333333333 448 319.36 448 213.3333333333334V81.4933333333333L334.9333333333333 194.56C351.1466666666667 200.7466666666667 362.6666666666667 216.32 362.6666666666667 234.6666666666667C362.6666666666667 258.1333333333334 343.4666666666667 277.3333333333334 320 277.3333333333334C301.6533333333333 277.3333333333334 286.08 265.8133333333334 280.1066666666667 249.6L153.6 375.8933333333333C183.2533333333333 394.6666666666667 218.4533333333333 405.3333333333333 256 405.3333333333333M149.3333333333333 234.6666666666667C149.3333333333333 211.2 168.5333333333333 192 192 192C202.6666666666667 192 211.84 195.6266666666667 219.0933333333333 201.8133333333334L159.1466666666667 261.76C152.96 254.5066666666667 149.3333333333333 245.3333333333334 149.3333333333333 234.6666666666667z" /></svg>