<?xml version="1.0" encoding="UTF-8"?><!DOCTYPE svg PUBLIC "-//W3C//DTD SVG 1.1//EN" "http://www.w3.org/Graphics/SVG/1.1/DTD/svg11.dtd"><svg xmlns="http://www.w3.org/2000/svg" xmlns:xlink="http://www.w3.org/1999/xlink" version="1.1" width="512" height="512" viewBox="0 0 512 512">    <path fill="#ffffff" transform="scale(1, -1) translate(0, -448)" glyph-name="curling" unicode="&#xF862;" horiz-adv-x="512" d=" M213.3333333333333 384V341.3333333333334C266.6666666666667 341.3333333333334 296.5333333333333 340.2666666666667 314.0266666666667 332.5866666666667C325.5466666666666 327.4666666666667 335.5733333333333 315.52 346.6666666666667 298.6666666666667H106.6666666666667V256H418.56L402.9866666666666 286.9333333333334C381.0133333333332 330.6666666666667 361.8133333333333 357.9733333333334 331.3066666666666 371.4133333333334C300.8 385.0666666666667 266.6666666666667 384 213.3333333333333 384M128 213.3333333333334C80.64 213.3333333333334 42.6666666666667 175.36 42.6666666666667 128V64C42.6666666666667 16.64 80.64 -21.3333333333333 128 -21.3333333333333H384C431.36 -21.3333333333333 469.3333333333333 16.64 469.3333333333333 64V128C469.3333333333333 175.36 431.36 213.3333333333334 384 213.3333333333334H128z" /></svg>