<?xml version="1.0" encoding="UTF-8"?><!DOCTYPE svg PUBLIC "-//W3C//DTD SVG 1.1//EN" "http://www.w3.org/Graphics/SVG/1.1/DTD/svg11.dtd"><svg xmlns="http://www.w3.org/2000/svg" xmlns:xlink="http://www.w3.org/1999/xlink" version="1.1" width="512" height="512" viewBox="0 0 512 512">    <path fill="#ffffff" transform="scale(1, -1) translate(0, -448)" glyph-name="email-box" unicode="&#xFCDF;" horiz-adv-x="512" d=" M106.6666666666667 384C83.2 384 64 364.8 64 341.3333333333334V42.6666666666667C64 19.2 83.2 0 106.6666666666667 0H405.3333333333333C428.8 0 448 19.2 448 42.6666666666667V341.3333333333334C448 364.8 428.8 384 405.3333333333333 384H106.6666666666667M136.5333333333333 309.3333333333334H375.4666666666667C391.8933333333333 309.3333333333334 405.3333333333333 296.1066666666667 405.3333333333333 279.4666666666667V104.5333333333333C405.3333333333333 88.1066666666667 391.8933333333333 74.6666666666667 375.4666666666667 74.6666666666667H136.5333333333333C120.1066666666667 74.6666666666667 106.6666666666667 88.1066666666667 106.6666666666667 104.5333333333333V279.4666666666667C106.6666666666667 296.1066666666667 119.8933333333333 309.3333333333334 136.5333333333333 309.3333333333334M128 277.3333333333334V234.6666666666667L256 149.3333333333334L384 234.6666666666667V277.3333333333334L256 192L128 277.3333333333334z" /></svg>