<?xml version="1.0" encoding="UTF-8"?><!DOCTYPE svg PUBLIC "-//W3C//DTD SVG 1.1//EN" "http://www.w3.org/Graphics/SVG/1.1/DTD/svg11.dtd"><svg xmlns="http://www.w3.org/2000/svg" xmlns:xlink="http://www.w3.org/1999/xlink" version="1.1" width="512" height="512" viewBox="0 0 512 512">    <path fill="#ffffff" transform="scale(1, -1) translate(0, -448)" glyph-name="orbit" unicode="&#xF018;" horiz-adv-x="512" d=" M173.0133333333333 410.6666666666667C198.4 421.3333333333333 226.56 426.6666666666667 256 426.6666666666667C385.7066666666666 426.6666666666667 490.6666666666666 321.7066666666667 490.6666666666666 192S385.7066666666666 -42.6666666666666 256 -42.6666666666666S21.3333333333333 62.2933333333334 21.3333333333333 192C21.3333333333333 221.44 26.6666666666667 249.6 36.6933333333333 275.6266666666667C47.7866666666667 264.3200000000001 60.3733333333333 256.8533333333334 73.6 252.1600000000001C67.4133333333333 233.1733333333334 64 213.3333333333334 64 192C64 85.9733333333334 149.9733333333333 0 256 0S448 85.9733333333334 448 192S362.0266666666667 384 256 384C234.6666666666667 384 214.8266666666667 380.5866666666667 195.84 374.4C191.1466666666667 387.6266666666667 183.68 400.2133333333333 173.0133333333333 410.6666666666667M105.1733333333333 385.4933333333334C128.64 385.4933333333334 147.84 366.5066666666667 147.84 342.8266666666667C147.84 319.36 128.64 300.1600000000001 105.1733333333333 300.1600000000001C81.4933333333333 300.1600000000001 62.5066666666667 319.36 62.5066666666667 342.8266666666667C62.5066666666667 366.5066666666667 81.4933333333333 385.4933333333334 105.1733333333333 385.4933333333334M256 298.6666666666667C314.88 298.6666666666667 362.6666666666667 250.88 362.6666666666667 192S314.88 85.3333333333334 256 85.3333333333334S149.3333333333333 133.12 149.3333333333333 192S197.12 298.6666666666667 256 298.6666666666667z" /></svg>