<?xml version="1.0" encoding="UTF-8"?><!DOCTYPE svg PUBLIC "-//W3C//DTD SVG 1.1//EN" "http://www.w3.org/Graphics/SVG/1.1/DTD/svg11.dtd"><svg xmlns="http://www.w3.org/2000/svg" xmlns:xlink="http://www.w3.org/1999/xlink" version="1.1" width="512" height="512" viewBox="0 0 512 512">    <path fill="#ffffff" transform="scale(1, -1) translate(0, -448)" glyph-name="passport" unicode="&#xF7E2;" horiz-adv-x="512" d=" M128 405.3333333333333C104.5333333333333 405.3333333333333 85.3333333333333 386.1333333333334 85.3333333333333 362.6666666666667V21.3333333333334C85.3333333333333 -2.1333333333333 104.5333333333333 -21.3333333333333 128 -21.3333333333333H384C407.4666666666667 -21.3333333333333 426.6666666666667 -2.1333333333333 426.6666666666667 21.3333333333334V362.6666666666667C426.6666666666667 386.1333333333334 407.4666666666667 405.3333333333333 384 405.3333333333333H128M256 341.3333333333334C314.88 341.3333333333334 362.6666666666667 293.5466666666667 362.6666666666667 234.6666666666667S314.88 128 256 128S149.3333333333333 175.7866666666667 149.3333333333333 234.6666666666667S197.12 341.3333333333334 256 341.3333333333334M256 320C247.2533333333334 306.7733333333333 240 292.48 235.52 277.3333333333334H276.48C272 292.48 264.9599999999999 306.7733333333333 256 320M228.2666666666667 315.3066666666667C208.64 308.6933333333334 192 295.04 182.1866666666667 277.3333333333334H213.3333333333333C217.1733333333333 290.56 221.8666666666667 303.36 228.2666666666667 315.3066666666667M283.52 315.3066666666667C289.92 303.36 294.8266666666666 290.56 298.6666666666667 277.3333333333334H329.8133333333334C320 295.04 303.1466666666667 308.48 283.52 315.3066666666667M173.44 256C171.7333333333334 249.1733333333334 170.6666666666667 242.1333333333334 170.6666666666667 234.6666666666667S171.7333333333334 220.16 173.44 213.3333333333334H209.4933333333334C208.64 220.3733333333333 208 227.4133333333334 208 234.6666666666667C208 241.92 208.64 248.96 209.4933333333334 256H173.44M231.04 256C229.9733333333334 249.1733333333334 229.3333333333334 241.92 229.3333333333334 234.6666666666667C229.3333333333334 227.4133333333334 229.9733333333334 220.3733333333333 231.04 213.3333333333334H280.9600000000001C281.8133333333334 220.3733333333333 282.6666666666667 227.4133333333334 282.6666666666667 234.6666666666667C282.6666666666667 241.92 281.8133333333334 249.1733333333334 280.9600000000001 256H231.04M302.5066666666667 256C303.36 248.96 304 241.92 304 234.6666666666667C304 227.4133333333334 303.36 220.3733333333333 302.5066666666667 213.3333333333334H338.56C340.2666666666667 220.16 341.3333333333333 227.2 341.3333333333333 234.6666666666667S340.2666666666667 249.1733333333334 338.56 256H302.5066666666667M182.1866666666667 192C192 174.2933333333334 208.64 160.8533333333334 228.2666666666667 154.0266666666667C221.8666666666666 165.9733333333334 217.1733333333333 178.5600000000001 213.3333333333333 192H182.1866666666667M235.52 192C240 176.64 247.2533333333334 162.5600000000001 256 149.3333333333334C264.96 162.56 272 176.64 276.48 192H235.52M298.6666666666667 192C294.8266666666667 178.56 289.92 165.9733333333334 283.52 154.0266666666667C303.1466666666667 160.8533333333334 320 174.2933333333334 329.8133333333333 192H298.6666666666667M149.3333333333333 85.3333333333334H362.6666666666667V42.6666666666667H149.3333333333333V85.3333333333334z" /></svg>