<?xml version="1.0" encoding="UTF-8"?><!DOCTYPE svg PUBLIC "-//W3C//DTD SVG 1.1//EN" "http://www.w3.org/Graphics/SVG/1.1/DTD/svg11.dtd"><svg xmlns="http://www.w3.org/2000/svg" xmlns:xlink="http://www.w3.org/1999/xlink" version="1.1" width="512" height="512" viewBox="0 0 512 512">    <path fill="#ffffff" transform="scale(1, -1) translate(0, -448)" glyph-name="shield-home-outline" unicode="&#xFCA7;" horiz-adv-x="512" d=" M448 213.3333333333334C448 94.9333333333333 366.08 -15.7866666666667 256 -42.6666666666666C145.92 -15.7866666666666 64 94.9333333333333 64 213.3333333333334V341.3333333333334L256 426.6666666666667L448 341.3333333333334V213.3333333333334M256 0C336 21.3333333333334 405.3333333333333 116.48 405.3333333333333 208.64V313.6L256 380.1600000000001L106.6666666666667 313.6V208.6400000000001C106.6666666666667 116.48 176 21.3333333333334 256 0M234.6666666666667 149.3333333333334H277.3333333333333V85.3333333333334H341.3333333333333V192H384L256 298.6666666666667L128 192H170.6666666666667V85.3333333333334H234.6666666666667V149.3333333333334" /></svg>