<?xml version="1.0" encoding="UTF-8"?><!DOCTYPE svg PUBLIC "-//W3C//DTD SVG 1.1//EN" "http://www.w3.org/Graphics/SVG/1.1/DTD/svg11.dtd"><svg xmlns="http://www.w3.org/2000/svg" xmlns:xlink="http://www.w3.org/1999/xlink" version="1.1" width="512" height="512" viewBox="0 0 512 512">    <path fill="#ffffff" transform="scale(1, -1) translate(0, -448)" glyph-name="rotate-right-variant" unicode="&#xF468;" horiz-adv-x="512" d=" M213.3333333333333 362.6666666666667V426.6666666666667L298.6666666666667 341.3333333333334L213.3333333333333 256V320C142.72 320 85.3333333333333 262.6133333333334 85.3333333333333 192L87.04 170.6666666666667H43.9466666666667L42.6666666666667 192C42.6666666666667 286.2933333333334 119.04 362.6666666666667 213.3333333333333 362.6666666666667M362.6666666666667 405.3333333333333H426.6666666666667C450.1333333333334 405.3333333333333 469.3333333333333 386.1333333333334 469.3333333333333 362.6666666666667V21.3333333333334C469.3333333333333 -2.1333333333333 450.1333333333334 -21.3333333333333 426.6666666666667 -21.3333333333333H362.6666666666667C339.2 -21.3333333333333 320 -2.1333333333333 320 21.3333333333334V362.6666666666667C320 386.1333333333334 339.2 405.3333333333333 362.6666666666667 405.3333333333333M85.3333333333333 128H277.3333333333333V-21.3333333333333H85.3333333333333C61.8666666666667 -21.3333333333333 42.6666666666667 -2.1333333333333 42.6666666666667 21.3333333333334V85.3333333333334C42.6666666666667 108.8 61.8666666666667 128 85.3333333333333 128z" /></svg>