<?xml version="1.0" encoding="UTF-8"?><!DOCTYPE svg PUBLIC "-//W3C//DTD SVG 1.1//EN" "http://www.w3.org/Graphics/SVG/1.1/DTD/svg11.dtd"><svg xmlns="http://www.w3.org/2000/svg" xmlns:xlink="http://www.w3.org/1999/xlink" version="1.1" width="512" height="512" viewBox="0 0 512 512">    <path fill="#ffffff" transform="scale(1, -1) translate(0, -448)" glyph-name="bus-alert" unicode="&#xFA98;" horiz-adv-x="512" d=" M341.3333333333333 426.6666666666667C423.8933333333333 426.6666666666667 490.6666666666666 359.8933333333333 490.6666666666666 277.3333333333334C490.6666666666666 202.0266666666667 434.9866666666667 139.7333333333334 362.6666666666667 129.4933333333334V64C362.6666666666667 46.08 355.2 30.2933333333334 340.48 17.0666666666667V-21.3333333333333C340.48 -27.0933333333333 338.56 -32 334.5066666666667 -36.48C330.6666666666667 -40.7466666666667 325.5466666666667 -42.6666666666666 320 -42.6666666666666H298.6666666666667C292.48 -42.6666666666666 287.36 -40.7466666666667 283.0933333333334 -36.48C278.6133333333334 -32 276.48 -27.0933333333333 276.48 -21.3333333333333V0H107.52V-21.3333333333333C107.52 -27.0933333333333 105.3866666666667 -32 100.9066666666667 -36.48C96.64 -40.7466666666667 91.52 -42.6666666666666 85.3333333333333 -42.6666666666666H64C58.4533333333333 -42.6666666666666 53.3333333333333 -40.7466666666667 49.4933333333333 -36.48C45.44 -32 43.52 -27.0933333333333 43.52 -21.3333333333333V17.0666666666667C28.8 30.2933333333334 21.3333333333333 46.08 21.3333333333333 64V277.3333333333334C21.3333333333333 311.04 36.2666666666667 333.8666666666667 65.4933333333333 345.6C94.72 357.12 136.96 362.6666666666667 192 362.6666666666667L218.24 362.0266666666667C245.3333333333333 401.0666666666667 290.3466666666667 426.6666666666667 341.3333333333333 426.6666666666667M341.3333333333333 384C282.4533333333333 384 234.6666666666667 336.2133333333334 234.6666666666667 277.3333333333334S282.4533333333333 170.6666666666667 341.3333333333333 170.6666666666667S448 218.4533333333334 448 277.3333333333334S400.2133333333333 384 341.3333333333333 384M320 234.6666666666667H362.6666666666667V192H320V234.6666666666667M320 362.6666666666667H362.6666666666667V256H320V362.6666666666667M64 170.6666666666667H236.5866666666667C209.0666666666667 197.9733333333333 192 235.52 192 277.3333333333334H64V170.6666666666667M96 106.6666666666667C78.72 106.6666666666667 64 92.3733333333333 64 74.6666666666667S78.2933333333333 42.6666666666667 96 42.6666666666667C114.1333333333333 42.6666666666667 128 56.96 128 74.6666666666667S113.7066666666667 106.6666666666667 96 106.6666666666667M288 106.6666666666667C269.8666666666667 106.6666666666667 256 92.3733333333333 256 74.6666666666667S270.2933333333333 42.6666666666667 288 42.6666666666667C305.28 42.6666666666667 320 56.96 320 74.6666666666667S305.7066666666667 106.6666666666667 288 106.6666666666667z" /></svg>