<?xml version="1.0" encoding="UTF-8"?><!DOCTYPE svg PUBLIC "-//W3C//DTD SVG 1.1//EN" "http://www.w3.org/Graphics/SVG/1.1/DTD/svg11.dtd"><svg xmlns="http://www.w3.org/2000/svg" xmlns:xlink="http://www.w3.org/1999/xlink" version="1.1" width="512" height="512" viewBox="0 0 512 512">    <path fill="#ffffff" transform="scale(1, -1) translate(0, -448)" glyph-name="swap-vertical-variant" unicode="&#xF8C1;" horiz-adv-x="512" d=" M384 362.6666666666667L298.6666666666667 277.3333333333334H362.6666666666667V106.6666666666667C362.6666666666667 83.2 343.4666666666667 64 320 64S277.3333333333333 83.2 277.3333333333333 106.6666666666667V277.3333333333334C277.3333333333333 324.48 239.1466666666667 362.6666666666667 192 362.6666666666667S106.6666666666667 324.48 106.6666666666667 277.3333333333334V106.6666666666667H42.6666666666667L128 21.3333333333334L213.3333333333333 106.6666666666667H149.3333333333333V277.3333333333334C149.3333333333333 300.8 168.5333333333333 320 192 320S234.6666666666667 300.8 234.6666666666667 277.3333333333334V106.6666666666667C234.6666666666667 59.52 272.8533333333333 21.3333333333334 320 21.3333333333334S405.3333333333333 59.52 405.3333333333333 106.6666666666667V277.3333333333334H469.3333333333333L384 362.6666666666667z" /></svg>