<?xml version="1.0" encoding="UTF-8"?><!DOCTYPE svg PUBLIC "-//W3C//DTD SVG 1.1//EN" "http://www.w3.org/Graphics/SVG/1.1/DTD/svg11.dtd"><svg xmlns="http://www.w3.org/2000/svg" xmlns:xlink="http://www.w3.org/1999/xlink" version="1.1" width="512" height="512" viewBox="0 0 512 512">    <path fill="#ffffff" transform="scale(1, -1) translate(0, -448)" glyph-name="account-group-outline" unicode="&#xFB34;" horiz-adv-x="512" d=" M256 341.3333333333334C214.8266666666667 341.3333333333334 181.3333333333333 307.8400000000001 181.3333333333333 266.6666666666667S214.8266666666667 192 256 192S330.6666666666667 225.4933333333334 330.6666666666667 266.6666666666667S297.1733333333333 341.3333333333334 256 341.3333333333334M256 298.6666666666667C273.7066666666667 298.6666666666667 288 284.3733333333334 288 266.6666666666667S273.7066666666667 234.6666666666667 256 234.6666666666667S224 248.96 224 266.6666666666667S238.2933333333333 298.6666666666667 256 298.6666666666667M117.3333333333333 277.3333333333334C87.8933333333333 277.3333333333334 64 253.4400000000001 64 224C64 203.9466666666667 75.3066666666667 186.6666666666667 91.52 177.4933333333334C99.2 173.2266666666667 107.9466666666667 170.6666666666667 117.3333333333333 170.6666666666667C126.72 170.6666666666667 135.4666666666667 173.2266666666667 143.1466666666667 177.4933333333334C151.04 181.9733333333334 157.6533333333333 188.3733333333333 162.56 196.0533333333334C146.9866666666667 216.32 138.6666666666667 241.0666666666667 138.6666666666667 266.6666666666667V272.64C132.2666666666667 275.6266666666667 125.0133333333333 277.3333333333334 117.3333333333333 277.3333333333334M394.6666666666667 277.3333333333334C386.9866666666667 277.3333333333334 379.7333333333334 275.6266666666667 373.3333333333333 272.64V266.6666666666667C373.3333333333333 241.0666666666667 365.0133333333333 216.32 349.44 196.0533333333334C352 192 354.7733333333333 188.8 357.9733333333333 185.6C361.3866666666666 182.4 364.8 179.6266666666667 368.8533333333333 177.4933333333334C376.5333333333333 173.2266666666667 385.28 170.6666666666666 394.6666666666667 170.6666666666666C404.0533333333334 170.6666666666666 412.8 173.2266666666666 420.48 177.4933333333334C436.6933333333334 186.6666666666666 448 203.9466666666667 448 224C448 253.4400000000001 424.1066666666667 277.3333333333334 394.6666666666667 277.3333333333334M256 149.3333333333334C206.08 149.3333333333334 106.6666666666667 124.3733333333333 106.6666666666667 74.6666666666667V42.6666666666667H405.3333333333333V74.6666666666667C405.3333333333333 124.3733333333333 305.92 149.3333333333334 256 149.3333333333334M100.48 137.6C59.3066666666667 132.6933333333334 0 111.7866666666667 0 74.6666666666667V42.6666666666667H64V83.84C64 105.3866666666667 78.72 123.3066666666667 100.48 137.6M411.52 137.6C433.28 123.3066666666667 448 105.3866666666667 448 83.84V42.6666666666667H512V74.6666666666667C512 111.7866666666667 452.6933333333333 132.6933333333334 411.52 137.6M256 106.6666666666667C288.64 106.6666666666667 325.12 96 346.24 85.3333333333334H165.76C186.88 96 223.36 106.6666666666667 256 106.6666666666667z" /></svg>