<?xml version="1.0" encoding="UTF-8"?><!DOCTYPE svg PUBLIC "-//W3C//DTD SVG 1.1//EN" "http://www.w3.org/Graphics/SVG/1.1/DTD/svg11.dtd"><svg xmlns="http://www.w3.org/2000/svg" xmlns:xlink="http://www.w3.org/1999/xlink" version="1.1" width="512" height="512" viewBox="0 0 512 512">    <path fill="#ffffff" transform="scale(1, -1) translate(0, -448)" glyph-name="cupcake" unicode="&#xF959;" horiz-adv-x="512" d=" M256 416C285.44 416 309.3333333333333 392.1066666666667 309.3333333333333 362.6666666666667S285.44 309.3333333333334 256 309.3333333333334S202.6666666666667 333.2266666666667 202.6666666666667 362.6666666666667S226.56 416 256 416M338.56 341.3333333333334C384 341.3333333333334 426.6666666666667 298.6666666666667 426.6666666666667 256C484.2666666666667 256 484.2666666666667 170.6666666666667 426.6666666666667 170.6666666666667H85.3333333333333C27.7333333333333 170.6666666666667 27.7333333333333 256 85.3333333333333 256C85.3333333333333 298.6666666666667 128 341.3333333333334 173.44 341.3333333333334C182.8266666666666 304.4266666666667 216.32 277.3333333333334 256 277.3333333333334C295.68 277.3333333333334 329.1733333333333 304.4266666666667 338.56 341.3333333333334M106.6666666666667 128H170.6666666666667L192 -21.3333333333333H149.3333333333333L106.6666666666667 128M213.3333333333333 128H298.6666666666667L277.3333333333333 -21.3333333333333H234.6666666666667L213.3333333333333 128M341.3333333333333 128H405.3333333333333L362.6666666666667 -21.3333333333333H320L341.3333333333333 128z" /></svg>