<?xml version="1.0" encoding="UTF-8"?><!DOCTYPE svg PUBLIC "-//W3C//DTD SVG 1.1//EN" "http://www.w3.org/Graphics/SVG/1.1/DTD/svg11.dtd"><svg xmlns="http://www.w3.org/2000/svg" xmlns:xlink="http://www.w3.org/1999/xlink" version="1.1" width="512" height="512" viewBox="0 0 512 512">    <path fill="#ffffff" transform="scale(1, -1) translate(0, -448)" glyph-name="email-plus" unicode="&#xF9EA;" horiz-adv-x="512" d=" M64 362.6666666666667C40.32 362.6666666666667 21.3333333333333 343.68 21.3333333333333 320V64C21.3333333333333 40.5333333333333 40.5333333333333 21.3333333333334 64 21.3333333333334H300.5866666666667C299.3066666666666 28.3733333333333 298.6666666666667 35.4133333333334 298.6666666666667 42.6666666666667C298.6666666666667 113.28 356.0533333333334 170.6666666666667 426.6666666666667 170.6666666666667C433.92 170.6666666666667 440.9600000000001 170.0266666666667 448 168.7466666666667V320C448 343.68 428.8 362.6666666666667 405.3333333333333 362.6666666666667H64M64 320L234.6666666666667 213.3333333333334L405.3333333333333 320V277.3333333333334L234.6666666666667 170.6666666666667L64 277.3333333333334V320M405.3333333333333 128V64H341.3333333333333V21.3333333333334H405.3333333333333V-42.6666666666666H448V21.3333333333334H512V64H448V128H405.3333333333333z" /></svg>