<?xml version="1.0" encoding="UTF-8"?><!DOCTYPE svg PUBLIC "-//W3C//DTD SVG 1.1//EN" "http://www.w3.org/Graphics/SVG/1.1/DTD/svg11.dtd"><svg xmlns="http://www.w3.org/2000/svg" xmlns:xlink="http://www.w3.org/1999/xlink" version="1.1" width="512" height="512" viewBox="0 0 512 512">    <path fill="#ffffff" transform="scale(1, -1) translate(0, -448)" glyph-name="reproduction" unicode="&#xF45C;" horiz-adv-x="512" d=" M271.36 167.4666666666667L290.56 186.4533333333334C290.1333333333334 213.3333333333334 305.28 246.6133333333334 333.2266666666667 274.3466666666667C374.8266666666667 316.16 429.0133333333333 329.6 453.9733333333334 304.64S465.4933333333333 225.4933333333334 423.68 183.8933333333333C395.9466666666666 155.9466666666667 362.6666666666667 140.8 335.7866666666667 141.2266666666667L316.8 122.0266666666667C309.3333333333333 114.9866666666667 298.6666666666667 113.92 290.1333333333333 119.2533333333333C272.2133333333333 112.8533333333333 256 104.96 246.6133333333333 89.6C235.3066666666667 70.8266666666667 235.3066666666667 40.5333333333333 223.36 22.4C211.4133333333333 4.0533333333334 187.52 -2.1333333333333 162.3466666666666 -2.1333333333333S106.6666666666667 0 84.2666666666667 32L137.1733333333333 23.04C149.3333333333333 21.3333333333334 181.3333333333333 34.3466666666667 193.0666666666667 52.48C205.0133333333334 70.8266666666666 205.0133333333334 100.9066666666666 216.32 119.8933333333333C226.3466666666667 136.5333333333333 245.3333333333333 144.4266666666666 265.1733333333333 151.2533333333333C264.96 157.0133333333333 266.6666666666667 162.9866666666667 271.36 167.4666666666667M149.3333333333333 405.3333333333333C208.2133333333333 405.3333333333333 256 357.5466666666667 256 298.6666666666667S208.2133333333333 192 149.3333333333333 192S42.6666666666667 239.7866666666667 42.6666666666667 298.6666666666667S90.4533333333333 405.3333333333333 149.3333333333333 405.3333333333333M149.3333333333333 362.6666666666667C113.92 362.6666666666667 85.3333333333333 334.0800000000001 85.3333333333333 298.6666666666667S113.92 234.6666666666667 149.3333333333333 234.6666666666667S213.3333333333333 263.2533333333334 213.3333333333333 298.6666666666667S184.7466666666667 362.6666666666667 149.3333333333333 362.6666666666667z" /></svg>