<?xml version="1.0" encoding="UTF-8"?><!DOCTYPE svg PUBLIC "-//W3C//DTD SVG 1.1//EN" "http://www.w3.org/Graphics/SVG/1.1/DTD/svg11.dtd"><svg xmlns="http://www.w3.org/2000/svg" xmlns:xlink="http://www.w3.org/1999/xlink" version="1.1" width="512" height="512" viewBox="0 0 512 512">    <path fill="#ffffff" transform="scale(1, -1) translate(0, -448)" glyph-name="reflect-horizontal" unicode="&#xFA0D;" horiz-adv-x="512" d=" M469.3333333333333 21.3333333333334H298.6666666666667C286.9333333333333 21.3333333333334 277.3333333333333 30.9333333333333 277.3333333333333 42.6666666666667V341.9733333333334C277.3333333333333 352 283.9466666666667 360.1066666666667 293.12 362.6666666666667C302.72 365.2266666666667 312.5333333333333 360.9600000000001 317.2266666666667 352.64L488.32 53.3333333333334C492.16 46.72 492.16 38.6133333333333 488.32 32C484.48 25.3866666666667 477.4399999999999 21.3333333333334 469.3333333333333 21.3333333333334M42.6666666666667 21.3333333333334C34.56 21.3333333333334 27.52 25.3866666666667 23.68 32C19.84 38.6133333333333 19.84 46.72 23.68 53.3333333333334L194.7733333333334 352.64C199.4666666666667 360.9600000000001 209.28 365.2266666666667 218.88 362.6666666666667C228.0533333333334 360.1066666666667 234.6666666666667 352 234.6666666666667 341.9733333333334V42.6666666666667C234.6666666666667 30.9333333333333 225.0666666666667 21.3333333333334 213.3333333333334 21.3333333333334H42.6666666666667M192 64V261.5466666666667L79.1466666666667 64H192z" /></svg>