<?xml version="1.0" encoding="UTF-8"?><!DOCTYPE svg PUBLIC "-//W3C//DTD SVG 1.1//EN" "http://www.w3.org/Graphics/SVG/1.1/DTD/svg11.dtd"><svg xmlns="http://www.w3.org/2000/svg" xmlns:xlink="http://www.w3.org/1999/xlink" version="1.1" width="512" height="512" viewBox="0 0 512 512">    <path fill="#ffffff" transform="scale(1, -1) translate(0, -448)" glyph-name="toilet" unicode="&#xF9AA;" horiz-adv-x="512" d=" M192 -21.3333333333333H362.6666666666667V32C414.08 66.7733333333333 448 125.44 448 192V362.6666666666667C448 386.1333333333334 428.8 405.3333333333333 405.3333333333333 405.3333333333333H320C296.32 405.3333333333333 277.3333333333333 386.1333333333334 277.3333333333333 362.6666666666667V192H64C64 126.0800000000001 106.6666666666667 64 192 32V-21.3333333333333M112.8533333333333 149.3333333333334H399.1466666666667C386.9866666666667 108.5866666666667 357.76 74.6666666666667 320 56.96V21.3333333333334H234.6666666666667V56.96C192 64 125.0133333333333 108.5866666666667 112.8533333333333 149.3333333333334M320 362.6666666666667H405.3333333333333V192H320V362.6666666666667M341.3333333333333 341.3333333333334V277.3333333333334H384V341.3333333333334H341.3333333333333z" /></svg>