<?xml version="1.0" encoding="UTF-8"?><!DOCTYPE svg PUBLIC "-//W3C//DTD SVG 1.1//EN" "http://www.w3.org/Graphics/SVG/1.1/DTD/svg11.dtd"><svg xmlns="http://www.w3.org/2000/svg" xmlns:xlink="http://www.w3.org/1999/xlink" version="1.1" width="512" height="512" viewBox="0 0 512 512">    <path fill="#ffffff" transform="scale(1, -1) translate(0, -448)" glyph-name="camera-outline" unicode="&#xFD39;" horiz-adv-x="512" d=" M426.6666666666667 362.6666666666667H359.04L320 405.3333333333333H192L152.96 362.6666666666667H85.3333333333333C61.8666666666667 362.6666666666667 42.6666666666667 343.4666666666667 42.6666666666667 320V64C42.6666666666667 40.5333333333333 61.8666666666667 21.3333333333334 85.3333333333333 21.3333333333334H426.6666666666667C450.1333333333334 21.3333333333334 469.3333333333333 40.5333333333333 469.3333333333333 64V320C469.3333333333333 343.4666666666667 450.1333333333334 362.6666666666667 426.6666666666667 362.6666666666667M426.6666666666667 64H85.3333333333333V320H171.7333333333334L210.7733333333334 362.6666666666667H301.2266666666667L340.2666666666667 320H426.6666666666667V64M256 298.6666666666667C197.12 298.6666666666667 149.3333333333333 250.88 149.3333333333333 192S197.12 85.3333333333334 256 85.3333333333334S362.6666666666667 133.12 362.6666666666667 192S314.88 298.6666666666667 256 298.6666666666667M256 128C220.5866666666667 128 192 156.5866666666667 192 192S220.5866666666667 256 256 256S320 227.4133333333334 320 192S291.4133333333333 128 256 128z" /></svg>