<?xml version="1.0" encoding="UTF-8"?><!DOCTYPE svg PUBLIC "-//W3C//DTD SVG 1.1//EN" "http://www.w3.org/Graphics/SVG/1.1/DTD/svg11.dtd"><svg xmlns="http://www.w3.org/2000/svg" xmlns:xlink="http://www.w3.org/1999/xlink" version="1.1" width="512" height="512" viewBox="0 0 512 512">    <path fill="#ffffff" transform="scale(1, -1) translate(0, -448)" glyph-name="volume-off" unicode="&#xF581;" horiz-adv-x="512" d=" M256 362.6666666666667L211.4133333333333 318.0800000000001L256 273.4933333333334M91.0933333333333 384L64 356.9066666666667L164.9066666666667 256H64V128H149.3333333333333L256 21.3333333333334V164.9066666666667L346.6666666666667 74.0266666666666C332.3733333333334 63.1466666666667 316.3733333333334 54.1866666666667 298.6666666666667 49.0666666666666V4.9066666666666C328.1066666666667 11.7333333333333 354.7733333333333 25.1733333333333 377.1733333333333 43.5199999999999L420.9066666666667 0L448 27.0933333333334L256 219.0933333333333M405.3333333333333 192C405.3333333333333 171.9466666666667 401.0666666666667 153.1733333333334 393.8133333333334 135.68L426.0266666666667 103.4666666666666C439.8933333333333 129.92 448 160 448 192C448 283.3066666666667 384 359.68 298.6666666666667 379.0933333333334V335.1466666666667C360.32 316.8 405.3333333333333 259.6266666666667 405.3333333333333 192M352 192C352 229.76 330.6666666666667 262.1866666666667 298.6666666666667 277.9733333333334V230.8266666666667L350.9333333333333 178.5600000000001C352 182.8266666666667 352 187.5200000000001 352 192.0000000000001z" /></svg>