<?xml version="1.0" encoding="UTF-8"?><!DOCTYPE svg PUBLIC "-//W3C//DTD SVG 1.1//EN" "http://www.w3.org/Graphics/SVG/1.1/DTD/svg11.dtd"><svg xmlns="http://www.w3.org/2000/svg" xmlns:xlink="http://www.w3.org/1999/xlink" version="1.1" width="512" height="512" viewBox="0 0 512 512">    <path fill="#ffffff" transform="scale(1, -1) translate(0, -448)" glyph-name="message-bulleted" unicode="&#xF6A1;" horiz-adv-x="512" d=" M426.6666666666667 405.3333333333333H85.3333333333333C61.8666666666667 405.3333333333333 42.6666666666667 386.1333333333334 42.6666666666667 362.6666666666667V-21.3333333333333L128 64H426.6666666666667C450.1333333333334 64 469.3333333333333 83.2 469.3333333333333 106.6666666666667V362.6666666666667C469.3333333333333 386.1333333333334 450.1333333333334 405.3333333333333 426.6666666666667 405.3333333333333M170.6666666666667 149.3333333333334H128V192H170.6666666666667V149.3333333333334M170.6666666666667 213.3333333333334H128V256H170.6666666666667V213.3333333333334M170.6666666666667 277.3333333333334H128V320H170.6666666666667V277.3333333333334M320 149.3333333333334H213.3333333333333V192H320V149.3333333333334M384 213.3333333333334H213.3333333333333V256H384V213.3333333333334M384 277.3333333333334H213.3333333333333V320H384V277.3333333333334z" /></svg>