<?xml version="1.0" encoding="UTF-8"?><!DOCTYPE svg PUBLIC "-//W3C//DTD SVG 1.1//EN" "http://www.w3.org/Graphics/SVG/1.1/DTD/svg11.dtd"><svg xmlns="http://www.w3.org/2000/svg" xmlns:xlink="http://www.w3.org/1999/xlink" version="1.1" width="512" height="512" viewBox="0 0 512 512">    <path fill="#ffffff" transform="scale(1, -1) translate(0, -448)" glyph-name="infinity" unicode="&#xF6E3;" horiz-adv-x="512" d=" M396.8 306.7733333333333C460.3733333333333 306.7733333333333 512 256 512 192C512 128.8533333333334 460.3733333333333 77.44 396.8 77.44C365.8666666666667 77.44 337.0666666666667 89.3866666666667 315.3066666666667 110.9333333333333L256 163.4133333333334L195.6266666666667 109.8666666666667C174.9333333333333 89.1733333333334 145.92 77.2266666666667 115.2 77.2266666666667C51.6266666666667 77.2266666666667 0 128.8533333333334 0 192S51.6266666666667 306.7733333333333 115.2 306.7733333333333C145.92 306.7733333333333 174.9333333333333 294.8266666666667 196.6933333333333 273.0666666666667L256 220.5866666666667L316.3733333333334 274.1333333333334C337.0666666666667 294.8266666666667 366.08 306.7733333333333 396.8 306.7733333333333M166.4 141.0133333333333L224 192L167.2533333333333 242.1333333333334C152.7466666666667 256.64 134.6133333333333 264.1066666666667 115.2 264.1066666666667C75.3066666666667 264.1066666666667 42.6666666666667 231.8933333333333 42.6666666666667 192C42.6666666666667 152.1066666666667 75.3066666666667 119.8933333333334 115.2 119.8933333333334C134.6133333333334 119.8933333333334 152.7466666666667 127.36 166.4 141.0133333333334M345.6 242.9866666666667L288 192L344.7466666666667 141.8666666666667C359.2533333333334 127.36 377.6 119.8933333333334 396.8 119.8933333333334C436.6933333333334 119.8933333333334 469.3333333333333 152.1066666666667 469.3333333333333 192C469.3333333333333 231.8933333333334 436.6933333333333 264.1066666666667 396.8 264.1066666666667C377.3866666666667 264.1066666666667 359.2533333333334 256.64 345.6 242.9866666666667z" /></svg>