<?xml version="1.0" encoding="UTF-8"?><!DOCTYPE svg PUBLIC "-//W3C//DTD SVG 1.1//EN" "http://www.w3.org/Graphics/SVG/1.1/DTD/svg11.dtd"><svg xmlns="http://www.w3.org/2000/svg" xmlns:xlink="http://www.w3.org/1999/xlink" version="1.1" width="512" height="512" viewBox="0 0 512 512">    <path fill="#ffffff" transform="scale(1, -1) translate(0, -448)" glyph-name="marker" unicode="&#xF652;" horiz-adv-x="512" d=" M394.6666666666667 423.4666666666667C383.36 423.4666666666667 372.48 419.4133333333334 364.16 411.0933333333334L240.2133333333334 286.9333333333334L360.7466666666668 166.4L484.9066666666668 290.3466666666667C501.3333333333334 306.9866666666667 501.3333333333334 333.8666666666667 484.9066666666668 350.72L424.3200000000001 411.0933333333333C416.0000000000001 419.4133333333333 405.3333333333334 423.4666666666667 394.6666666666668 423.4666666666667M219.7333333333334 266.6666666666667L92.5866666666667 139.52C75.9466666666667 122.88 75.9466666666667 96 93.0133333333333 78.72C66.9866666666667 52.48 40.5333333333333 26.24 14.2933333333333 0H135.04L153.3866666666667 18.3466666666667C170.0266666666667 2.1333333333333 196.6933333333333 2.3466666666667 213.3333333333333 18.7733333333333L340.2666666666667 145.92" /></svg>