<?xml version="1.0" encoding="UTF-8"?><!DOCTYPE svg PUBLIC "-//W3C//DTD SVG 1.1//EN" "http://www.w3.org/Graphics/SVG/1.1/DTD/svg11.dtd"><svg xmlns="http://www.w3.org/2000/svg" xmlns:xlink="http://www.w3.org/1999/xlink" version="1.1" width="512" height="512" viewBox="0 0 512 512">    <path fill="#ffffff" transform="scale(1, -1) translate(0, -448)" glyph-name="drone" unicode="&#xF1E2;" horiz-adv-x="512" d=" M469.3333333333333 213.3333333333334H448L426.6666666666667 256H293.3333333333333L341.3333333333333 181.3333333333334H298.6666666666667L229.3333333333333 256H85.3333333333333C73.6 256 42.6666666666667 265.6 42.6666666666667 277.3333333333334S74.6666666666667 330.6666666666667 117.3333333333333 330.6666666666667S163.6266666666667 309.3333333333334 192 298.6666666666667H448C459.7333333333333 298.6666666666667 469.3333333333333 289.0666666666667 469.3333333333333 277.3333333333334V213.3333333333334M229.3333333333333 309.3333333333334L298.6666666666667 384H341.3333333333333L293.3333333333333 309.3333333333334H229.3333333333333M384 213.3333333333334V245.3333333333334H421.3333333333333L405.3333333333333 213.3333333333334H384M64 42.6666666666667C52.2666666666667 42.6666666666667 42.6666666666667 52.2666666666667 42.6666666666667 64S52.2666666666667 85.3333333333334 64 85.3333333333334C111.1466666666667 85.3333333333334 149.3333333333333 47.1466666666667 149.3333333333333 0C149.3333333333333 -11.7333333333333 139.7333333333333 -21.3333333333333 128 -21.3333333333333S106.6666666666667 -11.7333333333333 106.6666666666667 0C106.6666666666667 23.4666666666667 87.4666666666667 42.6666666666667 64 42.6666666666667M234.6666666666667 0C234.6666666666667 -11.7333333333333 225.0666666666667 -21.3333333333333 213.3333333333333 -21.3333333333333S192 -11.7333333333333 192 0C192 70.6133333333334 134.6133333333334 128 64 128C52.2666666666667 128 42.6666666666667 137.6 42.6666666666667 149.3333333333334S52.2666666666667 170.6666666666667 64 170.6666666666667C158.2933333333333 170.6666666666667 234.6666666666667 94.2933333333334 234.6666666666667 0z" /></svg>