<?xml version="1.0" encoding="UTF-8"?><!DOCTYPE svg PUBLIC "-//W3C//DTD SVG 1.1//EN" "http://www.w3.org/Graphics/SVG/1.1/DTD/svg11.dtd"><svg xmlns="http://www.w3.org/2000/svg" xmlns:xlink="http://www.w3.org/1999/xlink" version="1.1" width="512" height="512" viewBox="0 0 512 512">    <path fill="#ffffff" transform="scale(1, -1) translate(0, -448)" glyph-name="food-variant" unicode="&#xF25C;" horiz-adv-x="512" d=" M469.3333333333333 64C469.3333333333333 16.8533333333334 431.1466666666667 -21.3333333333333 384 -21.3333333333333H320C272.8533333333333 -21.3333333333333 234.6666666666667 16.8533333333334 234.6666666666667 64V106.6666666666667H379.52L438.3999999999999 208.4266666666667L471.6799999999999 189.2266666666667L423.8933333333333 106.6666666666667H469.3333333333333V64M192 -21.3333333333333H42.6666666666667C42.6666666666667 42.6666666666667 42.6666666666667 106.6666666666667 49.7066666666667 174.2933333333334C55.4666666666667 228.2666666666667 65.7066666666667 284.5866666666667 76.8 341.3333333333334H64V384H170.6666666666667V341.3333333333334H157.8666666666667C168.96 284.5866666666667 179.2 228.2666666666667 184.96 174.2933333333334C192 106.6666666666667 192 42.6666666666667 192 -21.3333333333333z" /></svg>