<?xml version="1.0" encoding="UTF-8"?><!DOCTYPE svg PUBLIC "-//W3C//DTD SVG 1.1//EN" "http://www.w3.org/Graphics/SVG/1.1/DTD/svg11.dtd"><svg xmlns="http://www.w3.org/2000/svg" xmlns:xlink="http://www.w3.org/1999/xlink" version="1.1" width="512" height="512" viewBox="0 0 512 512">    <path fill="#ffffff" transform="scale(1, -1) translate(0, -448)" glyph-name="thumb-up" unicode="&#xF513;" horiz-adv-x="512" d=" M490.6666666666666 234.6666666666667C490.6666666666666 258.3466666666667 471.4666666666667 277.3333333333334 448 277.3333333333334H313.1733333333333L333.6533333333333 374.8266666666667C334.08 376.9600000000001 334.2933333333333 379.3066666666667 334.2933333333333 381.6533333333333C334.2933333333333 390.4 330.6666666666667 398.5066666666667 324.9066666666667 404.2666666666667L302.2933333333333 426.6666666666667L161.92 286.2933333333334C154.0266666666667 278.4 149.3333333333333 267.7333333333334 149.3333333333333 256V42.6666666666667C149.3333333333333 19.2 168.5333333333333 0 192 0H384C401.7066666666666 0 416.8533333333333 10.6666666666667 423.2533333333334 26.0266666666666L487.6799999999999 176.4266666666667C489.6 181.3333333333334 490.6666666666666 186.4533333333334 490.6666666666666 192V234.6666666666667M21.3333333333333 0H106.6666666666667V256H21.3333333333333V0z" /></svg>