<?xml version="1.0" encoding="UTF-8"?><!DOCTYPE svg PUBLIC "-//W3C//DTD SVG 1.1//EN" "http://www.w3.org/Graphics/SVG/1.1/DTD/svg11.dtd"><svg xmlns="http://www.w3.org/2000/svg" xmlns:xlink="http://www.w3.org/1999/xlink" version="1.1" width="512" height="512" viewBox="0 0 512 512">    <path fill="#ffffff" transform="scale(1, -1) translate(0, -448)" glyph-name="format-wrap-tight" unicode="&#xF28A;" horiz-adv-x="512" d=" M256 298.6666666666667L362.6666666666667 85.3333333333334H149.3333333333333L256 298.6666666666667M64 384H448V341.3333333333334H64V384M64 298.6666666666667H192V256H64V298.6666666666667M448 298.6666666666667V256H320V298.6666666666667H448M64 213.3333333333334H149.3333333333333V170.6666666666667H64V213.3333333333334M448 213.3333333333334V170.6666666666667H362.6666666666667V213.3333333333334H448M64 128H128V85.3333333333334H64V128M448 128V85.3333333333334H384V128H448M64 42.6666666666667H448V0H64V42.6666666666667z" /></svg>