<?xml version="1.0" encoding="UTF-8"?><!DOCTYPE svg PUBLIC "-//W3C//DTD SVG 1.1//EN" "http://www.w3.org/Graphics/SVG/1.1/DTD/svg11.dtd"><svg xmlns="http://www.w3.org/2000/svg" xmlns:xlink="http://www.w3.org/1999/xlink" version="1.1" width="512" height="512" viewBox="0 0 512 512">    <path fill="#ffffff" transform="scale(1, -1) translate(0, -448)" glyph-name="help" unicode="&#xF2D6;" horiz-adv-x="512" d=" M213.3333333333333 42.6666666666667H277.3333333333333V-21.3333333333333H213.3333333333333V42.6666666666667M256 405.3333333333333C370.1333333333334 400.64 419.84 285.44 352 199.04C334.2933333333333 177.7066666666667 305.7066666666667 163.6266666666667 291.6266666666667 145.7066666666667C277.3333333333333 128 277.3333333333333 106.6666666666667 277.3333333333333 85.3333333333334H213.3333333333333C213.3333333333333 120.96 213.3333333333333 151.04 227.6266666666667 172.3733333333333C241.7066666666667 193.7066666666667 270.2933333333333 206.2933333333334 288 220.3733333333333C339.6266666666667 268.1600000000001 326.8266666666667 335.7866666666667 256 341.3333333333334C220.5866666666667 341.3333333333334 192 312.7466666666667 192 277.3333333333334H128C128 347.9466666666667 185.3866666666667 405.3333333333333 256 405.3333333333333z" /></svg>