<?xml version="1.0" encoding="UTF-8"?><!DOCTYPE svg PUBLIC "-//W3C//DTD SVG 1.1//EN" "http://www.w3.org/Graphics/SVG/1.1/DTD/svg11.dtd"><svg xmlns="http://www.w3.org/2000/svg" xmlns:xlink="http://www.w3.org/1999/xlink" version="1.1" width="512" height="512" viewBox="0 0 512 512">    <path fill="#ffffff" transform="scale(1, -1) translate(0, -448)" glyph-name="car-tire-alert" unicode="&#xFC29;" horiz-adv-x="512" d=" M234.6666666666667 170.6666666666667H277.3333333333333V128H234.6666666666667V170.6666666666667M234.6666666666667 341.3333333333334H277.3333333333333V213.3333333333334H234.6666666666667V341.3333333333334M362.6666666666667 346.4533333333334C402.3466666666667 315.9466666666667 426.6666666666667 264.3200000000001 426.6666666666667 213.3333333333334C426.6666666666667 149.3333333333334 391.04 93.0133333333333 338.3466666666667 64H173.6533333333333C120.96 93.0133333333333 85.3333333333333 149.3333333333334 85.3333333333333 213.3333333333334C85.3333333333333 264.3200000000001 108.5866666666667 316.3733333333334 149.3333333333333 346.4533333333334V405.3333333333333H106.6666666666667V365.6533333333333C67.2 326.8266666666667 42.6666666666667 273.0666666666667 42.6666666666667 213.3333333333334S67.2 99.84 106.6666666666667 61.0133333333333V-21.3333333333333H149.3333333333333V21.3333333333334H192V-21.3333333333333H234.6666666666667V21.3333333333334H277.3333333333333V-21.3333333333333H320V21.3333333333334H362.6666666666667V-21.3333333333333H405.3333333333333V61.0133333333333C444.8 99.84 469.3333333333333 153.6 469.3333333333333 213.3333333333334S444.8 326.8266666666667 405.3333333333333 365.6533333333333V405.3333333333333H362.6666666666667V346.4533333333334z" /></svg>