<?xml version="1.0" encoding="UTF-8"?><!DOCTYPE svg PUBLIC "-//W3C//DTD SVG 1.1//EN" "http://www.w3.org/Graphics/SVG/1.1/DTD/svg11.dtd"><svg xmlns="http://www.w3.org/2000/svg" xmlns:xlink="http://www.w3.org/1999/xlink" version="1.1" width="512" height="512" viewBox="0 0 512 512">    <path fill="#ffffff" transform="scale(1, -1) translate(0, -448)" glyph-name="gesture-two-double-tap" unicode="&#xF741;" horiz-adv-x="512" d=" M405.3333333333333 125.0133333333333V-10.6666666666666C404.6933333333333 -28.16 390.8266666666667 -42.0266666666666 373.3333333333333 -42.6666666666666H234.6666666666667C226.56 -42.6666666666666 218.88 -39.4666666666667 213.3333333333333 -33.4933333333333L108.8 56.1066666666667L124.5866666666667 72.5333333333333C128.64 77.0133333333333 134.4 79.36 140.3733333333333 79.36H145.0666666666667L213.3333333333333 42.6666666666667V256C213.3333333333333 267.7333333333334 222.9333333333333 277.3333333333334 234.6666666666667 277.3333333333334S256 267.7333333333334 256 256V298.6666666666667C256 310.4 265.6 320 277.3333333333333 320S298.6666666666667 310.4 298.6666666666667 298.6666666666667V192L387.2 152.7466666666667C398.08 147.84 405.3333333333333 136.96 405.3333333333333 125.0133333333333M277.3333333333333 384C324.48 384 362.6666666666667 345.8133333333334 362.6666666666667 298.6666666666667C362.6666666666667 266.6666666666667 345.6 239.5733333333334 320 224.8533333333333V250.88C333.0133333333333 262.6133333333334 341.3333333333333 279.68 341.3333333333333 298.6666666666667C341.3333333333333 334.0800000000001 312.7466666666667 362.6666666666667 277.3333333333333 362.6666666666667C248.5333333333334 362.6666666666667 224 343.4666666666667 216.1066666666666 317.2266666666667C189.8666666666667 309.3333333333334 170.6666666666667 284.8 170.6666666666667 256C170.6666666666667 237.0133333333333 178.9866666666667 219.9466666666667 192 208.2133333333334V182.1866666666667C166.4 196.9066666666667 149.3333333333333 224 149.3333333333333 256C149.3333333333333 290.56 170.0266666666667 320 199.4666666666667 333.8666666666667C213.3333333333333 363.3066666666667 242.7733333333334 384 277.3333333333333 384M277.3333333333333 426.6666666666667C347.9466666666666 426.6666666666667 405.3333333333333 369.28 405.3333333333333 298.6666666666667C405.3333333333333 254.72 383.1466666666667 215.8933333333334 349.44 192.8533333333333L325.5466666666666 203.52C360.32 221.0133333333333 384 257.0666666666667 384 298.6666666666667C384 357.5466666666667 336.2133333333333 405.3333333333333 277.3333333333333 405.3333333333333C237.0133333333333 405.3333333333333 201.8133333333333 382.9333333333334 183.68 349.6533333333334C150.4 331.52 128 296.32 128 256C128 212.2666666666667 154.24 174.72 192 158.2933333333334V135.2533333333333C142.2933333333333 152.96 106.6666666666667 200.32 106.6666666666667 256C106.6666666666667 302.2933333333334 131.2 342.8266666666667 168.1066666666667 365.2266666666667C190.5066666666667 402.1333333333334 231.04 426.6666666666667 277.3333333333333 426.6666666666667z" /></svg>