<?xml version="1.0" encoding="UTF-8"?><!DOCTYPE svg PUBLIC "-//W3C//DTD SVG 1.1//EN" "http://www.w3.org/Graphics/SVG/1.1/DTD/svg11.dtd"><svg xmlns="http://www.w3.org/2000/svg" xmlns:xlink="http://www.w3.org/1999/xlink" version="1.1" width="512" height="512" viewBox="0 0 512 512">    <path fill="#ffffff" transform="scale(1, -1) translate(0, -448)" glyph-name="lock-reset" unicode="&#xF772;" horiz-adv-x="512" d=" M269.44 405.3333333333333C387.4133333333333 405.3333333333333 482.9866666666667 309.3333333333334 482.9866666666667 192S387.4133333333333 -21.3333333333333 269.44 -21.3333333333333C194.56 -21.3333333333333 129.0666666666667 17.4933333333333 90.88 76.16L124.5866666666667 102.8266666666667C154.6666666666667 53.9733333333334 208.2133333333333 21.3333333333334 269.6533333333333 21.3333333333334C363.9466666666667 21.3333333333334 440.32 97.7066666666667 440.32 192S363.9466666666667 362.6666666666667 269.6533333333333 362.6666666666667C182.6133333333334 362.6666666666667 110.9333333333333 297.3866666666667 100.48 213.3333333333334H159.36L79.5733333333333 133.76L0 213.3333333333334H57.3866666666667C68.0533333333333 321.0666666666667 158.9333333333333 405.3333333333333 269.44 405.3333333333333M332.5866666666667 229.5466666666667C343.2533333333334 229.3333333333334 352 220.8 352 209.92V111.5733333333334C352 100.9066666666667 343.2533333333334 91.9466666666667 332.3733333333334 91.9466666666667H214.4C203.52 91.9466666666667 194.7733333333334 100.9066666666667 194.7733333333334 111.5733333333333V209.92C194.7733333333334 220.8 203.52 229.3333333333334 214.1866666666667 229.5466666666667V251.0933333333334C214.1866666666667 283.7333333333334 240.8533333333334 310.1866666666667 273.28 310.1866666666667C305.92 310.1866666666667 332.5866666666667 283.7333333333334 332.5866666666667 251.0933333333334V229.5466666666667M273.28 280.32C257.28 280.32 244.0533333333334 267.3066666666667 244.0533333333334 251.0933333333334V229.5466666666667H302.7200000000001V251.0933333333334C302.7200000000001 267.3066666666667 289.4933333333334 280.32 273.2800000000001 280.32z" /></svg>