<?xml version="1.0" encoding="UTF-8"?><!DOCTYPE svg PUBLIC "-//W3C//DTD SVG 1.1//EN" "http://www.w3.org/Graphics/SVG/1.1/DTD/svg11.dtd"><svg xmlns="http://www.w3.org/2000/svg" xmlns:xlink="http://www.w3.org/1999/xlink" version="1.1" width="512" height="512" viewBox="0 0 512 512">    <path fill="#ffffff" transform="scale(1, -1) translate(0, -448)" glyph-name="amazon-drive" unicode="&#xF02E;" horiz-adv-x="512" d=" M105.3866666666667 210.7733333333334C111.5733333333333 210.7733333333334 117.3333333333333 209.9200000000001 122.88 208.4266666666667C123.0933333333333 254.0800000000001 160 291.2000000000001 205.8666666666667 291.2000000000001C240.4266666666667 291.2000000000001 270.2933333333333 269.8666666666668 282.4533333333333 239.5733333333334C295.04 256 314.4533333333333 266.0266666666667 336.2133333333333 266.0266666666667C373.3333333333333 266.0266666666667 404.0533333333334 235.7333333333334 404.0533333333334 198.1866666666667C404.0533333333334 193.0666666666667 403.4133333333333 187.7333333333334 402.3466666666667 182.8266666666667C407.4666666666667 184.7466666666667 413.2266666666668 185.8133333333334 419.2000000000001 185.8133333333334C446.9333333333334 185.8133333333334 469.3333333333334 163.2000000000001 469.3333333333334 135.4666666666667C469.3333333333334 107.7333333333334 446.9333333333334 85.3333333333334 419.2000000000001 85.3333333333334H105.3866666666667C70.8266666666667 85.3333333333334 42.6666666666667 113.4933333333334 42.6666666666667 148.0533333333334C42.6666666666667 182.8266666666667 70.8266666666667 210.7733333333333 105.3866666666667 210.7733333333333z" /></svg>