<?xml version="1.0" encoding="UTF-8"?><!DOCTYPE svg PUBLIC "-//W3C//DTD SVG 1.1//EN" "http://www.w3.org/Graphics/SVG/1.1/DTD/svg11.dtd"><svg xmlns="http://www.w3.org/2000/svg" xmlns:xlink="http://www.w3.org/1999/xlink" version="1.1" width="512" height="512" viewBox="0 0 512 512">    <path fill="#ffffff" transform="scale(1, -1) translate(0, -448)" glyph-name="server-security" unicode="&#xF492;" horiz-adv-x="512" d=" M64 426.6666666666667H405.3333333333333C417.0666666666667 426.6666666666667 426.6666666666667 417.0666666666667 426.6666666666667 405.3333333333333V320C426.6666666666667 308.2666666666667 417.0666666666667 298.6666666666667 405.3333333333333 298.6666666666667H64C52.2666666666667 298.6666666666667 42.6666666666667 308.2666666666667 42.6666666666667 320V405.3333333333333C42.6666666666667 417.0666666666667 52.2666666666667 426.6666666666667 64 426.6666666666667M64 256H405.3333333333333C417.0666666666667 256 426.6666666666667 246.4000000000001 426.6666666666667 234.6666666666667V220.3733333333333L373.3333333333333 244.0533333333334L234.6666666666667 182.6133333333334V128H64C52.2666666666667 128 42.6666666666667 137.6 42.6666666666667 149.3333333333334V234.6666666666667C42.6666666666667 246.4000000000001 52.2666666666667 256 64 256M64 85.3333333333334H234.6666666666667C235.9466666666667 37.3333333333334 256 -8.5333333333333 287.1466666666667 -42.6666666666666H64C52.2666666666667 -42.6666666666666 42.6666666666667 -33.0666666666667 42.6666666666667 -21.3333333333333V64C42.6666666666667 75.7333333333334 52.2666666666667 85.3333333333334 64 85.3333333333334M170.6666666666667 341.3333333333334H192V384H170.6666666666667V341.3333333333334M170.6666666666667 170.6666666666667H192V213.3333333333334H170.6666666666667V170.6666666666667M170.6666666666667 0H192V42.6666666666667H170.6666666666667V0M85.3333333333333 384V341.3333333333334H128V384H85.3333333333333M85.3333333333333 213.3333333333334V170.6666666666667H128V213.3333333333334H85.3333333333333M85.3333333333333 42.6666666666667V0H128V42.6666666666667H85.3333333333333M373.3333333333333 192L469.3333333333333 149.3333333333334V85.3333333333334C469.3333333333333 26.0266666666666 428.3733333333333 -29.2266666666667 373.3333333333333 -42.6666666666666C318.2933333333333 -29.2266666666667 277.3333333333333 26.0266666666666 277.3333333333333 85.3333333333334V149.3333333333334L373.3333333333333 192M373.3333333333333 150.6133333333334L320 126.72V69.9733333333334C320 37.1200000000001 342.8266666666667 6.4 373.3333333333333 -1.28V150.6133333333334z" /></svg>