<?xml version="1.0" encoding="UTF-8"?><!DOCTYPE svg PUBLIC "-//W3C//DTD SVG 1.1//EN" "http://www.w3.org/Graphics/SVG/1.1/DTD/svg11.dtd"><svg xmlns="http://www.w3.org/2000/svg" xmlns:xlink="http://www.w3.org/1999/xlink" version="1.1" width="512" height="512" viewBox="0 0 512 512">    <path fill="#ffffff" transform="scale(1, -1) translate(0, -448)" glyph-name="bank-transfer" unicode="&#xFA26;" horiz-adv-x="512" d=" M320 149.3333333333334V213.3333333333334H384V256L469.3333333333333 181.3333333333334L384 106.6666666666667V149.3333333333334H320M298.6666666666667 283.7333333333334V256H42.6666666666667V283.7333333333334L170.6666666666667 362.6666666666667L298.6666666666667 283.7333333333334M149.3333333333333 234.6666666666667H192V128H149.3333333333333V234.6666666666667M64 234.6666666666667H106.6666666666667V128H64V234.6666666666667M277.3333333333333 234.6666666666667V181.3333333333334L234.6666666666667 142.9333333333333V234.6666666666667H277.3333333333333M194.1333333333333 106.6666666666667L181.3333333333333 96L217.6 64H42.6666666666667V106.6666666666667H194.1333333333333M362.6666666666667 128V64H298.6666666666667V21.3333333333334L213.3333333333333 96L298.6666666666667 170.6666666666667V128H362.6666666666667z" /></svg>