<?xml version="1.0" encoding="UTF-8"?><!DOCTYPE svg PUBLIC "-//W3C//DTD SVG 1.1//EN" "http://www.w3.org/Graphics/SVG/1.1/DTD/svg11.dtd"><svg xmlns="http://www.w3.org/2000/svg" xmlns:xlink="http://www.w3.org/1999/xlink" version="1.1" width="512" height="512" viewBox="0 0 512 512">    <path fill="#ffffff" transform="scale(1, -1) translate(0, -448)" glyph-name="database-remove" unicode="&#xFCDC;" horiz-adv-x="512" d=" M329.8133333333334 109.2266666666667L360.1066666666667 139.52L405.3333333333333 94.08L450.56 139.3066666666667L480.64 109.2266666666667L435.4133333333333 64L480.8533333333333 18.7733333333333L450.5599999999999 -11.52L405.3333333333333 33.92L360.1066666666667 -11.3066666666667L330.0266666666667 18.7733333333333L375.2533333333334 64L329.8133333333334 109.2266666666667M256 384C350.2933333333334 384 426.6666666666667 345.8133333333334 426.6666666666667 298.6666666666667S350.2933333333334 213.3333333333334 256 213.3333333333334S85.3333333333333 251.52 85.3333333333333 298.6666666666667S161.7066666666667 384 256 384M85.3333333333333 256C85.3333333333333 208.8533333333333 161.7066666666667 170.6666666666667 256 170.6666666666667S426.6666666666667 208.8533333333333 426.6666666666667 256V190.2933333333334L405.3333333333333 192C350.08 192 302.9333333333333 157.0133333333333 285.0133333333333 107.9466666666667L256 106.6666666666667C161.7066666666667 106.6666666666667 85.3333333333333 144.8533333333334 85.3333333333333 192V256M85.3333333333333 149.3333333333334C85.3333333333333 102.1866666666667 161.7066666666667 64 256 64H277.3333333333333C277.3333333333333 41.6 283.0933333333333 20.48 293.3333333333333 2.1333333333334L256 0C161.7066666666667 0 85.3333333333333 38.1866666666667 85.3333333333333 85.3333333333334V149.3333333333334z" /></svg>