<?xml version="1.0" encoding="UTF-8"?><!DOCTYPE svg PUBLIC "-//W3C//DTD SVG 1.1//EN" "http://www.w3.org/Graphics/SVG/1.1/DTD/svg11.dtd"><svg xmlns="http://www.w3.org/2000/svg" xmlns:xlink="http://www.w3.org/1999/xlink" version="1.1" width="512" height="512" viewBox="0 0 512 512">    <path fill="#ffffff" transform="scale(1, -1) translate(0, -448)" glyph-name="filter" unicode="&#xF232;" horiz-adv-x="512" d=" M298.6666666666667 192V23.8933333333334C299.52 17.4933333333333 297.3866666666667 10.6666666666667 292.48 6.1866666666667C284.16 -2.1333333333333 270.7200000000001 -2.1333333333333 262.4 6.1866666666667L219.52 49.0666666666668C214.6133333333334 53.9733333333335 212.48 60.5866666666668 213.3333333333334 66.7733333333334V192H212.6933333333334L89.8133333333333 349.44C82.56 358.6133333333334 84.2666666666667 372.0533333333334 93.44 379.3066666666667C97.4933333333333 382.2933333333334 101.9733333333333 384 106.6666666666667 384H405.3333333333333C410.0266666666667 384 414.5066666666667 382.2933333333334 418.56 379.3066666666667C427.7333333333334 372.0533333333334 429.4400000000001 358.6133333333334 422.1866666666667 349.44L299.3066666666666 192H298.6666666666667z" /></svg>