<?xml version="1.0" encoding="UTF-8"?><!DOCTYPE svg PUBLIC "-//W3C//DTD SVG 1.1//EN" "http://www.w3.org/Graphics/SVG/1.1/DTD/svg11.dtd"><svg xmlns="http://www.w3.org/2000/svg" xmlns:xlink="http://www.w3.org/1999/xlink" version="1.1" width="512" height="512" viewBox="0 0 512 512">    <path fill="#ffffff" transform="scale(1, -1) translate(0, -448)" glyph-name="shower" unicode="&#xF99F;" horiz-adv-x="512" d=" M448 149.3333333333334V128C448 87.2533333333333 425.1733333333333 51.84 391.4666666666667 33.92L405.3333333333333 -21.3333333333333H362.6666666666667L352 21.3333333333334H160L149.3333333333333 -21.3333333333333H106.6666666666667L120.5333333333333 33.92C86.8266666666667 51.84 64 87.2533333333333 64 128V149.3333333333334H42.6666666666667V192H426.6666666666667V341.3333333333334C426.6666666666667 353.0666666666667 417.0666666666667 362.6666666666667 405.3333333333333 362.6666666666667C394.6666666666667 362.6666666666667 386.56 355.4133333333334 384 345.8133333333334C397.44 334.2933333333334 405.3333333333333 317.2266666666667 405.3333333333333 298.6666666666667H277.3333333333333C277.3333333333333 334.0800000000001 305.92 362.6666666666667 341.3333333333333 362.6666666666667H344.9600000000001C353.7066666666667 387.4133333333334 377.3866666666667 405.3333333333333 405.3333333333333 405.3333333333333C440.7466666666667 405.3333333333333 469.3333333333333 376.7466666666667 469.3333333333333 341.3333333333334V149.3333333333334H448M405.3333333333333 149.3333333333334H106.6666666666667V128C106.6666666666667 92.5866666666667 135.2533333333333 64 170.6666666666667 64H341.3333333333333C376.7466666666667 64 405.3333333333333 92.5866666666667 405.3333333333333 128V149.3333333333334z" /></svg>