<?xml version="1.0" encoding="UTF-8"?><!DOCTYPE svg PUBLIC "-//W3C//DTD SVG 1.1//EN" "http://www.w3.org/Graphics/SVG/1.1/DTD/svg11.dtd"><svg xmlns="http://www.w3.org/2000/svg" xmlns:xlink="http://www.w3.org/1999/xlink" version="1.1" width="512" height="512" viewBox="0 0 512 512">    <path fill="#ffffff" transform="scale(1, -1) translate(0, -448)" glyph-name="drawing-box" unicode="&#xF1DF;" horiz-adv-x="512" d=" M384 64H256V187.52C241.92 174.5066666666667 223.36 166.4 202.6666666666667 166.4C159.1466666666667 166.4 123.7333333333333 201.8133333333333 123.7333333333333 245.3333333333334S159.1466666666667 324.2666666666667 202.6666666666667 324.2666666666667S281.6 288.8533333333334 281.6 245.3333333333334C281.6 224.64 273.4933333333333 206.08 260.48 192H384M405.3333333333333 384H106.6666666666667C82.9866666666667 384 64 365.0133333333333 64 341.3333333333334V42.6666666666667C64 19.2 83.2 0 106.6666666666667 0H405.3333333333333C428.8 0 448 19.2 448 42.6666666666667V341.3333333333334C448 365.0133333333333 428.8 384 405.3333333333333 384z" /></svg>