<?xml version="1.0" encoding="UTF-8"?><!DOCTYPE svg PUBLIC "-//W3C//DTD SVG 1.1//EN" "http://www.w3.org/Graphics/SVG/1.1/DTD/svg11.dtd"><svg xmlns="http://www.w3.org/2000/svg" xmlns:xlink="http://www.w3.org/1999/xlink" version="1.1" width="512" height="512" viewBox="0 0 512 512">    <path fill="#ffffff" transform="scale(1, -1) translate(0, -448)" glyph-name="gas-station" unicode="&#xF298;" horiz-adv-x="512" d=" M384 234.6666666666667C372.2666666666667 234.6666666666667 362.6666666666667 244.2666666666667 362.6666666666667 256S372.2666666666667 277.3333333333334 384 277.3333333333334S405.3333333333333 267.7333333333334 405.3333333333333 256S395.7333333333334 234.6666666666667 384 234.6666666666667M256 234.6666666666667H128V341.3333333333334H256M421.76 293.76L421.9733333333334 293.9733333333334L342.6133333333334 373.3333333333333L320 350.7200000000001L365.0133333333333 305.7066666666667C344.9600000000001 298.6666666666667 330.6666666666667 278.8266666666667 330.6666666666667 256C330.6666666666667 226.5600000000001 354.56 202.6666666666667 384 202.6666666666667C391.68 202.6666666666667 398.7200000000001 204.3733333333333 405.3333333333333 207.1466666666667V53.3333333333334C405.3333333333333 41.6 395.7333333333334 32 384 32S362.6666666666667 41.6 362.6666666666667 53.3333333333334V149.3333333333334C362.6666666666667 173.0133333333333 343.4666666666667 192 320 192H298.6666666666667V341.3333333333334C298.6666666666667 365.0133333333333 279.4666666666667 384 256 384H128C104.32 384 85.3333333333333 365.0133333333333 85.3333333333333 341.3333333333334V0H298.6666666666667V160H330.6666666666667V53.3333333333334C330.6666666666667 23.8933333333334 354.56 0 384 0S437.3333333333333 23.8933333333334 437.3333333333333 53.3333333333334V256C437.3333333333333 270.7200000000001 431.36 284.1600000000001 421.76 293.76z" /></svg>