<?xml version="1.0" encoding="UTF-8"?><!DOCTYPE svg PUBLIC "-//W3C//DTD SVG 1.1//EN" "http://www.w3.org/Graphics/SVG/1.1/DTD/svg11.dtd"><svg xmlns="http://www.w3.org/2000/svg" xmlns:xlink="http://www.w3.org/1999/xlink" version="1.1" width="512" height="512" viewBox="0 0 512 512">    <path fill="#ffffff" transform="scale(1, -1) translate(0, -448)" glyph-name="apple" unicode="&#xF035;" horiz-adv-x="512" d=" M399.1466666666667 32C381.4400000000001 5.5466666666667 362.6666666666667 -20.2666666666666 334.08 -20.6933333333333C305.4933333333334 -21.3333333333333 296.32 -3.84 263.8933333333333 -3.84C231.2533333333334 -3.84 221.2266666666667 -20.2666666666666 194.1333333333334 -21.3333333333333C166.1866666666667 -22.4 145.0666666666667 6.8266666666667 127.1466666666667 32.64C90.6666666666667 85.3333333333334 62.72 182.4 100.2666666666667 247.68C118.8266666666667 280.1066666666667 152.1066666666667 300.5866666666667 188.16 301.2266666666667C215.4666666666667 301.6533333333333 241.4933333333334 282.6666666666667 258.3466666666667 282.6666666666667C274.9866666666666 282.6666666666667 306.56 305.4933333333334 339.6266666666667 302.08C353.4933333333334 301.44 392.32 296.5333333333333 417.28 259.8400000000001C415.36 258.56 370.9866666666667 232.5333333333334 371.4133333333333 178.56C372.0533333333334 114.1333333333333 427.9466666666666 92.5866666666667 428.5866666666667 92.3733333333333C427.9466666666666 90.88 419.6266666666666 61.6533333333333 399.1466666666667 32M277.3333333333333 373.3333333333334C292.9066666666667 391.04 318.72 404.48 340.0533333333333 405.3333333333333C342.8266666666667 380.3733333333334 332.8 355.2000000000001 317.8666666666666 337.2800000000001C303.1466666666667 319.1466666666667 278.8266666666666 305.0666666666667 254.9333333333333 306.9866666666667C251.7333333333333 331.5200000000001 263.68 357.12 277.3333333333333 373.3333333333334z" /></svg>