<?xml version="1.0" encoding="UTF-8"?><!DOCTYPE svg PUBLIC "-//W3C//DTD SVG 1.1//EN" "http://www.w3.org/Graphics/SVG/1.1/DTD/svg11.dtd"><svg xmlns="http://www.w3.org/2000/svg" xmlns:xlink="http://www.w3.org/1999/xlink" version="1.1" width="512" height="512" viewBox="0 0 512 512">    <path fill="#ffffff" transform="scale(1, -1) translate(0, -448)" glyph-name="hard-hat" unicode="&#xF96E;" horiz-adv-x="512" d=" M210.56 188.8L192 310.1866666666667C233.6 323.4133333333334 278.4 323.4133333333334 320 310.1866666666667L301.44 188.8C299.9466666666667 178.3466666666667 290.7733333333333 170.6666666666667 280.1066666666667 170.6666666666667H231.68C221.2266666666667 170.6666666666667 212.0533333333334 178.3466666666667 210.56 188.8M469.3333333333333 106.6666666666667C469.3333333333333 123.52 459.3066666666667 138.6666666666667 443.7333333333334 145.7066666666667C433.4933333333334 194.9866666666667 404.48 238.2933333333334 362.6666666666667 266.6666666666667L325.12 163.4133333333334C322.1333333333334 154.88 314.0266666666667 149.3333333333334 305.0666666666667 149.3333333333334H206.9333333333333C197.9733333333333 149.3333333333334 189.8666666666666 154.88 186.88 163.4133333333334L149.3333333333333 266.6666666666667C107.52 238.2933333333334 78.5066666666667 194.9866666666667 68.2666666666667 145.92C52.6933333333333 138.6666666666667 42.6666666666667 123.7333333333334 42.6666666666667 106.6666666666667L180.2666666666667 67.4133333333334C187.9466666666666 65.28 195.84 64 203.7333333333333 64H307.84C315.7333333333333 64 323.6266666666667 65.28 331.3066666666666 67.4133333333334L469.3333333333333 106.6666666666667z" /></svg>