<?xml version="1.0" encoding="UTF-8"?><!DOCTYPE svg PUBLIC "-//W3C//DTD SVG 1.1//EN" "http://www.w3.org/Graphics/SVG/1.1/DTD/svg11.dtd"><svg xmlns="http://www.w3.org/2000/svg" xmlns:xlink="http://www.w3.org/1999/xlink" version="1.1" width="512" height="512" viewBox="0 0 512 512">    <path fill="#ffffff" transform="scale(1, -1) translate(0, -448)" glyph-name="qrcode-edit" unicode="&#xF8B7;" horiz-adv-x="512" d=" M106.6666666666667 341.3333333333334H149.3333333333333V298.6666666666667H106.6666666666667V341.3333333333334M21.3333333333333 426.6666666666667H234.6666666666667V213.3333333333334H21.3333333333333V426.6666666666667M64 384V256H192V384H64M106.6666666666667 85.3333333333334H149.3333333333333V42.6666666666667H106.6666666666667V85.3333333333334M21.3333333333333 170.6666666666667H234.6666666666667V-42.6666666666666H21.3333333333333V170.6666666666667M64 128V0H192V128H64M277.3333333333333 170.6666666666667H362.6666666666667V128H405.3333333333333V170.6666666666667H490.6666666666666V128H405.3333333333333V85.3333333333334H490.6666666666666V-42.6666666666666H405.3333333333333V0H320V-42.6666666666666H277.3333333333333V0H320V42.6666666666667H277.3333333333333V170.6666666666667M448 0V42.6666666666667H405.3333333333333V0H448M405.3333333333333 85.3333333333334H362.6666666666667V128H320V42.6666666666667H405.3333333333333V85.3333333333334M484.2666666666667 376.5333333333334L462.9333333333333 355.2000000000001L419.2 397.8666666666667L440.5333333333333 419.2C444.8 423.68 452.0533333333333 423.8933333333333 456.9599999999999 419.2L484.2666666666667 392.9600000000001C488.7466666666667 388.6933333333334 488.9599999999999 381.44 484.2666666666667 376.5333333333334M277.3333333333333 257.2800000000001L406.8266666666667 386.56L450.56 342.8266666666667L321.28 213.3333333333334H277.3333333333333V257.2800000000001z" /></svg>