<?xml version="1.0" encoding="UTF-8"?><!DOCTYPE svg PUBLIC "-//W3C//DTD SVG 1.1//EN" "http://www.w3.org/Graphics/SVG/1.1/DTD/svg11.dtd"><svg xmlns="http://www.w3.org/2000/svg" xmlns:xlink="http://www.w3.org/1999/xlink" version="1.1" width="512" height="512" viewBox="0 0 512 512">    <path fill="#ffffff" transform="scale(1, -1) translate(0, -448)" glyph-name="thermostat" unicode="&#xF393;" horiz-adv-x="512" d=" M361.6 86.4L316.3733333333333 131.6266666666667C331.7333333333334 147.2000000000001 341.3333333333333 168.5333333333334 341.3333333333333 192C341.3333333333333 207.7866666666667 336.8533333333333 222.5066666666667 329.1733333333333 234.6666666666667L375.4666666666667 281.3866666666667C394.6666666666667 256 405.3333333333333 225.4933333333334 405.3333333333333 192C405.3333333333333 150.8266666666667 388.6933333333333 113.4933333333334 361.6 86.4M256 341.3333333333334C289.4933333333334 341.3333333333334 320 330.6666666666667 345.3866666666667 311.4666666666667L298.6666666666667 265.3866666666667C286.5066666666667 272.8533333333334 271.7866666666667 277.3333333333334 256 277.3333333333334C208.8533333333333 277.3333333333334 170.6666666666667 239.1466666666667 170.6666666666667 192C170.6666666666667 168.5333333333334 180.2666666666667 147.2000000000001 195.6266666666667 131.6266666666667L150.4 86.4C123.3066666666667 113.4933333333334 106.6666666666667 150.8266666666667 106.6666666666667 192C106.6666666666667 274.5600000000001 173.44 341.3333333333334 256 341.3333333333334M256 405.3333333333333C138.24 405.3333333333333 42.6666666666667 309.76 42.6666666666667 192S138.24 -21.3333333333333 256 -21.3333333333333S469.3333333333333 74.24 469.3333333333333 192C469.3333333333333 309.9733333333334 373.3333333333333 405.3333333333333 256 405.3333333333333z" /></svg>