<?xml version="1.0" encoding="UTF-8"?><!DOCTYPE svg PUBLIC "-//W3C//DTD SVG 1.1//EN" "http://www.w3.org/Graphics/SVG/1.1/DTD/svg11.dtd"><svg xmlns="http://www.w3.org/2000/svg" xmlns:xlink="http://www.w3.org/1999/xlink" version="1.1" width="512" height="512" viewBox="0 0 512 512">    <path fill="#ffffff" transform="scale(1, -1) translate(0, -448)" glyph-name="battlenet" unicode="&#xFB3C;" horiz-adv-x="512" d=" M424.9600000000001 218.4533333333334S480 186.88 480 151.68C480 117.3333333333334 416 105.3866666666667 345.1733333333333 108.8C345.1733333333333 108.8 315.0933333333333 66.7733333333333 286.2933333333333 49.0666666666667C317.44 -9.3866666666666 341.3333333333333 -32 340.6933333333333 -32C340.6933333333333 -32 324.9066666666667 -36.0533333333333 277.3333333333333 41.8133333333334C248.7466666666666 23.68 216.96 16.4266666666667 203.9466666666666 27.7333333333334C190.72 39.0400000000001 200.96 58.0266666666666 206.5066666666666 67.2000000000001C200.7466666666666 64.0000000000001 170.6666666666666 46.2933333333334 144 46.2933333333334C112.2133333333333 46.2933333333334 107.7333333333333 69.9733333333334 107.7333333333333 82.1333333333334C107.7333333333333 128 151.8933333333333 192 151.8933333333333 192S131.4133333333333 237.2266666666667 129.0666666666667 272.64C88.96 276.0533333333334 42.6666666666667 269.0133333333333 32.64 265.8133333333334C29.8666666666667 265.8133333333334 39.2533333333333 272.64 42.6666666666667 273.4933333333334C45.8666666666667 274.56 83.4133333333333 284.3733333333334 128 284.3733333333334C128 321.4933333333334 135.4666666666667 355.6266666666667 158.08 355.6266666666667C173.44 355.6266666666667 185.8133333333333 331.7333333333333 185.8133333333333 331.7333333333333S185.6 416 229.12 416C273.0666666666667 416 320 317.6533333333333 320 317.6533333333333S367.36 313.1733333333334 402.1333333333334 296.7466666666667C416 325.76 428.5866666666667 338.9866666666667 443.9466666666667 384C448.0000000000001 369.0666666666667 430.9333333333334 330.6666666666667 412.8 292.2666666666667C412.8 292.2666666666667 461.8666666666667 266.6666666666667 461.8666666666667 238.2933333333334C461.8666666666667 216.7466666666667 424.9600000000001 218.4533333333334 424.9600000000001 218.4533333333334M227.8400000000001 51.6266666666667C242.3466666666667 49.2800000000001 264.7466666666667 61.8666666666667 264.5333333333334 61.8666666666667L247.04 94.5066666666668L221.8666666666667 76.8000000000001C221.6533333333334 76.5866666666668 205.6533333333334 55.8933333333334 227.8400000000001 51.6266666666668M429.8666666666667 239.7866666666668C429.8666666666667 253.8666666666668 404.2666666666667 269.8666666666668 401.2800000000001 271.5733333333335L381.6533333333333 240.0000000000001L408.9600000000001 226.7733333333335C417.9200000000001 227.4133333333335 429.8666666666667 227.2000000000002 429.8666666666667 239.7866666666668M170.6666666666667 327.8933333333333C164.2666666666667 327.8933333333333 151.2533333333333 318.5066666666667 151.2533333333333 285.0133333333333L188.3733333333333 283.7333333333334L186.0266666666667 313.6C183.4666666666667 320 177.0666666666667 327.8933333333333 170.6666666666667 327.8933333333333M217.1733333333333 111.36C190.2933333333333 125.2266666666667 174.08 148.0533333333334 160.8533333333333 172.8C160.8533333333333 172.8 127.1466666666667 116.2666666666667 148.6933333333333 101.9733333333333C170.6666666666666 87.68 205.6533333333333 103.2533333333333 217.1733333333333 111.36M276.6933333333333 69.12C301.0133333333333 87.68 366.7199999999999 133.76 372.2666666666667 211.6266666666666C310.8266666666667 246.6133333333333 226.56 262.1866666666667 226.56 262.1866666666667S226.3466666666667 272.8533333333334 228.2666666666667 280.32C248.32 277.9733333333333 311.2533333333334 267.3066666666667 363.3066666666667 246.8266666666667C348.8 271.36 337.92 280.5333333333333 327.8933333333333 288C352.64 282.4533333333333 370.3466666666667 250.4533333333333 370.3466666666667 250.4533333333333L389.9733333333334 278.1866666666666S296.7466666666667 328.32 217.3866666666667 289.7066666666667C215.68 228.2666666666667 247.2533333333334 137.3866666666667 247.2533333333334 137.3866666666667L230.8266666666667 130.3466666666666C219.7333333333334 152.7466666666667 205.4400000000001 190.0799999999999 192 263.04C185.6 254.2933333333333 174.2933333333334 244.2666666666666 174.0800000000001 211.4133333333333C164.2666666666667 238.9333333333334 184.7466666666667 268.16 184.96 268.3733333333334L150.8266666666667 271.7866666666667C152.96 236.3733333333333 171.7333333333334 145.0666666666666 227.8400000000001 116.6933333333333C277.3333333333334 144.8533333333334 330.6666666666667 201.8133333333333 344.1066666666667 218.24L358.8266666666667 207.36L263.4666666666668 107.3066666666666C289.9200000000001 106.6666666666666 305.4933333333335 112.64 316.1600000000001 117.3333333333333C300.8000000000001 101.3333333333334 274.3466666666668 99.84 261.7600000000001 99.84C261.9733333333335 99.4133333333334 268.1600000000002 83.84 276.6933333333335 69.12M299.3066666666668 318.9333333333334C298.6666666666668 320.64 270.0800000000002 369.28 244.6933333333335 365.6533333333333C228.0533333333335 360.32 218.4533333333334 332.16 218.2400000000001 301.44C229.5466666666668 308.0533333333333 256.0000000000001 320 299.3066666666668 318.9333333333334M356.4800000000001 126.5066666666667S426.6666666666667 128 424.5333333333333 154.4533333333334C424.5333333333333 180.0533333333334 382.2933333333333 206.2933333333334 382.2933333333333 205.8666666666667C382.5066666666667 160.6400000000001 356.4799999999999 126.5066666666667 356.4799999999999 126.5066666666667z" /></svg>