<?xml version="1.0" encoding="UTF-8"?><!DOCTYPE svg PUBLIC "-//W3C//DTD SVG 1.1//EN" "http://www.w3.org/Graphics/SVG/1.1/DTD/svg11.dtd"><svg xmlns="http://www.w3.org/2000/svg" xmlns:xlink="http://www.w3.org/1999/xlink" version="1.1" width="512" height="512" viewBox="0 0 512 512">    <path fill="#ffffff" transform="scale(1, -1) translate(0, -448)" glyph-name="gesture" unicode="&#xF7CA;" horiz-adv-x="512" d=" M97.92 301.0133333333333C112.8533333333333 316.1600000000001 128 329.8133333333334 134.4 327.04C145.0666666666667 322.7733333333333 134.4 305.0666666666667 128 294.6133333333334C122.6666666666667 285.6533333333334 66.9866666666667 211.6266666666667 66.9866666666667 160C66.9866666666667 132.6933333333334 77.2266666666667 110.08 96 96C111.5733333333333 84.48 132.6933333333333 80.8533333333334 151.8933333333333 86.6133333333334C174.72 93.2266666666666 193.4933333333334 116.48 217.1733333333333 145.7066666666667C242.9866666666667 177.4933333333334 277.3333333333333 219.0933333333333 304.2133333333333 219.0933333333333C338.9866666666667 219.0933333333333 339.4133333333333 197.5466666666666 341.3333333333333 181.3333333333333C261.12 167.2533333333333 226.9866666666667 102.6133333333334 226.9866666666667 66.3466666666667C226.9866666666667 30.08 257.7066666666667 0 295.4666666666667 0C330.6666666666667 0 386.9866666666667 28.8000000000001 395.5200000000001 130.5600000000001H448V183.8933333333334H395.3066666666667C392.1066666666667 219.0933333333334 372.0533333333334 273.4933333333334 309.3333333333333 273.4933333333334C261.3333333333333 273.4933333333334 220.16 232.7466666666667 203.9466666666666 213.3333333333334C192 197.3333333333334 160 160 155.0933333333333 154.88C149.3333333333333 148.48 140.5866666666667 136.96 131.4133333333333 136.96C121.8133333333333 136.96 116.0533333333333 154.6666666666667 123.7333333333333 177.92C131.1999999999999 201.1733333333334 153.5999999999999 238.9333333333334 163.2 253.0133333333333C179.84 277.3333333333334 190.9333333333333 293.9733333333334 190.9333333333333 322.9866666666667C190.9333333333333 369.28 155.9466666666667 384 137.3866666666667 384C109.2266666666667 384 84.6933333333333 362.6666666666667 79.36 357.3333333333334C71.68 349.6533333333333 65.28 343.2533333333334 60.5866666666667 337.4933333333334L97.92 301.0133333333333M296.1066666666667 52.2666666666667C289.4933333333333 52.2666666666667 280.32 57.8133333333334 280.32 67.6266666666667C280.32 80.4266666666667 295.8933333333333 114.56 341.3333333333333 126.5066666666667C335.1466666666667 69.12 311.04 52.2666666666667 296.1066666666667 52.2666666666667z" /></svg>