<?xml version="1.0" encoding="UTF-8"?><!DOCTYPE svg PUBLIC "-//W3C//DTD SVG 1.1//EN" "http://www.w3.org/Graphics/SVG/1.1/DTD/svg11.dtd"><svg xmlns="http://www.w3.org/2000/svg" xmlns:xlink="http://www.w3.org/1999/xlink" version="1.1" width="512" height="512" viewBox="0 0 512 512">    <path fill="#ffffff" transform="scale(1, -1) translate(0, -448)" glyph-name="skull-crossbones" unicode="&#xFBA2;" horiz-adv-x="512" d=" M337.0666666666667 53.3333333333334L465.0666666666667 19.2L456.5333333333334 -21.3333333333333L256 32L55.4666666666667 -21.3333333333333L44.8 19.2L172.8 53.3333333333334L42.6666666666667 87.4666666666667L53.3333333333333 128.0000000000001L253.8666666666667 74.6666666666667L454.4 128L465.0666666666667 87.4666666666667L337.0666666666667 53.3333333333334M384 277.3333333333334C384 238.9333333333334 366.9333333333333 206.9333333333333 341.3333333333333 183.4666666666667V128H298.6666666666667V170.6666666666667H277.3333333333333V128H234.6666666666667V170.6666666666667H213.3333333333333V128H170.6666666666667V183.4666666666667C145.0666666666667 206.9333333333333 128 238.9333333333334 128 277.3333333333334C128 347.9466666666667 185.3866666666667 405.3333333333333 256 405.3333333333333S384 347.9466666666667 384 277.3333333333334M234.6666666666667 288C234.6666666666667 305.0666666666667 219.7333333333334 320 202.6666666666667 320S170.6666666666667 305.0666666666667 170.6666666666667 288S185.6 256 202.6666666666667 256S234.6666666666667 270.9333333333334 234.6666666666667 288M277.3333333333333 213.3333333333334L256 256L234.6666666666667 213.3333333333334H277.3333333333333M341.3333333333333 288C341.3333333333333 305.0666666666667 326.4 320 309.3333333333333 320S277.3333333333333 305.0666666666667 277.3333333333333 288S292.2666666666667 256 309.3333333333333 256S341.3333333333333 270.9333333333334 341.3333333333333 288z" /></svg>