<?xml version="1.0" encoding="UTF-8"?><!DOCTYPE svg PUBLIC "-//W3C//DTD SVG 1.1//EN" "http://www.w3.org/Graphics/SVG/1.1/DTD/svg11.dtd"><svg xmlns="http://www.w3.org/2000/svg" xmlns:xlink="http://www.w3.org/1999/xlink" version="1.1" width="512" height="512" viewBox="0 0 512 512">    <path fill="#ffffff" transform="scale(1, -1) translate(0, -448)" glyph-name="feature-search" unicode="&#xFA48;" horiz-adv-x="512" d=" M426.6666666666667 21.3333333333334C426.6666666666667 -2.1333333333333 407.4666666666667 -21.3333333333333 384 -21.3333333333333H85.3333333333333C61.8666666666667 -21.3333333333333 42.6666666666667 -2.1333333333333 42.6666666666667 21.3333333333334V320C42.6666666666667 343.4666666666667 61.8666666666667 362.6666666666667 85.3333333333333 362.6666666666667H202.6666666666667C196.2666666666667 345.6 192 328.5333333333334 192 309.3333333333334C192 232.5333333333334 253.8666666666667 170.6666666666667 330.6666666666667 170.6666666666667C347.7333333333334 170.6666666666667 362.6666666666667 172.8 375.4666666666667 179.2000000000001L426.6666666666667 128V21.3333333333334M411.7333333333334 258.1333333333334C420.2666666666667 273.0666666666667 426.6666666666667 290.1333333333334 426.6666666666667 309.3333333333334C426.6666666666667 362.6666666666667 384 405.3333333333333 330.6666666666667 405.3333333333333S234.6666666666667 362.6666666666667 234.6666666666667 309.3333333333334S277.3333333333333 213.3333333333334 330.6666666666667 213.3333333333334C349.8666666666666 213.3333333333334 366.9333333333333 219.7333333333334 381.8666666666666 228.2666666666667L448 162.1333333333333L477.8666666666666 192L411.7333333333333 258.1333333333334M330.6666666666666 256C300.8 256 277.3333333333333 279.4666666666667 277.3333333333333 309.3333333333334S300.8 362.6666666666667 330.6666666666667 362.6666666666667S384 339.2000000000001 384 309.3333333333334S360.5333333333333 256 330.6666666666667 256z" /></svg>