<?xml version="1.0" encoding="UTF-8"?><!DOCTYPE svg PUBLIC "-//W3C//DTD SVG 1.1//EN" "http://www.w3.org/Graphics/SVG/1.1/DTD/svg11.dtd"><svg xmlns="http://www.w3.org/2000/svg" xmlns:xlink="http://www.w3.org/1999/xlink" version="1.1" width="512" height="512" viewBox="0 0 512 512">    <path fill="#ffffff" transform="scale(1, -1) translate(0, -448)" glyph-name="currency-sign" unicode="&#xF7BD;" horiz-adv-x="512" d=" M469.3333333333333 192C469.3333333333333 237.6533333333334 454.1866666666666 282.0266666666667 426.6666666666667 318.5066666666667L469.3333333333333 361.1733333333334L425.3866666666667 406.6133333333334L382.7200000000001 363.9466666666667C307.2 418.9866666666667 204.5866666666667 418.56 129.4933333333334 362.6666666666667L86.8266666666667 405.3333333333333L41.3866666666667 361.3866666666667L84.0533333333333 318.7200000000001C29.0133333333333 243.2 29.44 140.5866666666667 85.3333333333333 65.4933333333333L42.6666666666667 22.8266666666667L87.8933333333333 -22.4L130.56 20.2666666666667C205.8666666666667 -35.2 308.2666666666667 -35.2 384 20.2666666666667L426.6666666666667 -22.4L471.4666666666667 22.8266666666667L428.8 65.4933333333333C455.4666666666667 102.1866666666667 469.3333333333333 146.5600000000001 469.3333333333333 192M256 42.6666666666667C173.44 42.6666666666667 106.6666666666667 109.44 106.6666666666667 192S173.44 341.3333333333334 256 341.3333333333334S405.3333333333333 274.5600000000001 405.3333333333333 192S338.56 42.6666666666667 256 42.6666666666667z" /></svg>