<?xml version="1.0" encoding="UTF-8"?><!DOCTYPE svg PUBLIC "-//W3C//DTD SVG 1.1//EN" "http://www.w3.org/Graphics/SVG/1.1/DTD/svg11.dtd"><svg xmlns="http://www.w3.org/2000/svg" xmlns:xlink="http://www.w3.org/1999/xlink" version="1.1" width="512" height="512" viewBox="0 0 512 512">    <path fill="#ffffff" transform="scale(1, -1) translate(0, -448)" glyph-name="zigbee" unicode="&#xFD1D;" horiz-adv-x="512" d=" M86.6133333333333 316.8C84.6933333333333 316.3733333333334 82.7733333333333 315.3066666666667 81.0666666666667 314.0266666666667C56.7466666666667 279.4666666666667 42.6666666666667 237.4400000000001 42.6666666666667 192C42.6666666666667 74.24 138.24 -21.3333333333333 256 -21.3333333333333C320 -21.3333333333333 377.1733333333333 6.8266666666667 416 51.2L362.6666666666667 45.8666666666667C304 39.4666666666666 244.2666666666667 38.6133333333333 184.7466666666667 43.52C169.6 43.9466666666667 154.4533333333333 47.7866666666666 140.5866666666667 54.4C122.24 62.72 109.8666666666667 80.4266666666667 108.16 100.48C107.9466666666667 103.8933333333334 109.2266666666667 106.6666666666667 111.5733333333333 109.4400000000001L158.2933333333333 157.8666666666667L320.64 326.4000000000001V328.5333333333334H231.2533333333334C182.8266666666667 327.68 134.6133333333333 323.8400000000001 86.6133333333333 316.8M430.2933333333334 74.6666666666667C432.2133333333334 75.3066666666667 434.1333333333334 75.9466666666667 435.8400000000001 77.0133333333333C456.96 110.2933333333334 469.3333333333333 149.3333333333334 469.3333333333333 192C469.3333333333333 309.76 373.76 405.3333333333333 256 405.3333333333333C196.6933333333333 405.3333333333333 142.9333333333333 381.2266666666667 104.32 341.9733333333334H110.2933333333333C176.64 350.5066666666667 243.84 352.64 310.6133333333334 348.8C330.6666666666667 349.0133333333333 350.9333333333333 345.1733333333334 369.7066666666667 337.7066666666667C389.3333333333334 330.0266666666667 402.9866666666667 311.8933333333333 405.3333333333333 290.7733333333333C405.3333333333333 287.36 403.84 283.7333333333334 401.4933333333334 281.1733333333334L207.1466666666667 81.2800000000001L192 65.0666666666667V62.72H280.32C330.6666666666667 64 380.5866666666667 68.0533333333334 430.2933333333334 74.6666666666667z" /></svg>