<?xml version="1.0" encoding="UTF-8"?><!DOCTYPE svg PUBLIC "-//W3C//DTD SVG 1.1//EN" "http://www.w3.org/Graphics/SVG/1.1/DTD/svg11.dtd"><svg xmlns="http://www.w3.org/2000/svg" xmlns:xlink="http://www.w3.org/1999/xlink" version="1.1" width="512" height="512" viewBox="0 0 512 512">    <path fill="#ffffff" transform="scale(1, -1) translate(0, -448)" glyph-name="email-alert" unicode="&#xF6CE;" horiz-adv-x="512" d=" M341.3333333333333 256V298.6666666666667L213.3333333333333 213.3333333333334L85.3333333333333 298.6666666666667V256L213.3333333333333 170.6666666666667L341.3333333333333 256M341.3333333333333 341.3333333333334C364.8 341.3333333333334 384 322.1333333333334 384 298.6666666666667V106.6666666666667C384 83.2 364.8 64 341.3333333333333 64H85.3333333333333C61.6533333333333 64 42.6666666666667 83.2 42.6666666666667 106.6666666666667V298.6666666666667C42.6666666666667 322.1333333333334 61.8666666666667 341.3333333333334 85.3333333333333 341.3333333333334H341.3333333333333M426.6666666666667 192V298.6666666666667H469.3333333333333V192H426.6666666666667M426.6666666666667 106.6666666666667V149.3333333333334H469.3333333333333V106.6666666666667H426.6666666666667z" /></svg>