<?xml version="1.0" encoding="UTF-8"?><!DOCTYPE svg PUBLIC "-//W3C//DTD SVG 1.1//EN" "http://www.w3.org/Graphics/SVG/1.1/DTD/svg11.dtd"><svg xmlns="http://www.w3.org/2000/svg" xmlns:xlink="http://www.w3.org/1999/xlink" version="1.1" width="512" height="512" viewBox="0 0 512 512">    <path fill="#ffffff" transform="scale(1, -1) translate(0, -448)" glyph-name="mixer" unicode="&#xF7DC;" horiz-adv-x="512" d=" M121.1733333333333 363.52L243.4133333333334 199.4666666666667C246.4 195.4133333333334 246.4 189.8666666666667 243.4133333333334 185.8133333333333L120.5333333333333 21.3333333333334L117.3333333333333 17.4933333333333C101.5466666666667 0 74.0266666666667 -1.4933333333333 56.32 14.72C39.4666666666667 30.08 38.1866666666667 56.1066666666667 51.84 74.6666666666667L139.9466666666667 192.6400000000001L52.48 309.9733333333334C39.04 328.1066666666667 40.1066666666667 354.3466666666667 56.96 369.7066666666667L60.16 372.48C79.5733333333334 386.7733333333334 106.6666666666667 382.9333333333334 121.1733333333334 363.5200000000001M390.8266666666667 363.5200000000001C405.3333333333333 382.9333333333334 432.4266666666666 386.7733333333334 451.84 372.48L455.04 369.7066666666667C471.8933333333333 354.3466666666667 472.9599999999999 328.3200000000001 459.52 309.9733333333334L372.0533333333333 192.6400000000001L460.1599999999999 74.6666666666667C473.8133333333333 56.3200000000001 472.5333333333332 30.08 455.6799999999999 14.72C437.9733333333333 -1.4933333333333 410.4533333333332 0 394.6666666666666 17.4933333333333L391.4666666666666 21.3333333333334L268.5866666666666 185.8133333333334C265.5999999999999 189.8666666666667 265.5999999999999 195.4133333333334 268.5866666666666 199.4666666666667L390.8266666666667 363.5200000000001z" /></svg>