<?xml version="1.0" encoding="UTF-8"?><!DOCTYPE svg PUBLIC "-//W3C//DTD SVG 1.1//EN" "http://www.w3.org/Graphics/SVG/1.1/DTD/svg11.dtd"><svg xmlns="http://www.w3.org/2000/svg" xmlns:xlink="http://www.w3.org/1999/xlink" version="1.1" width="512" height="512" viewBox="0 0 512 512">    <path fill="#ffffff" transform="scale(1, -1) translate(0, -448)" glyph-name="wordpress" unicode="&#xF5B4;" horiz-adv-x="512" d=" M72.96 192C72.96 218.4533333333334 78.72 243.6266666666667 88.7466666666667 266.6666666666667L176.2133333333333 27.3066666666667C114.9866666666667 56.96 72.96 119.4666666666667 72.96 192M379.52 201.1733333333334C379.52 185.6 373.3333333333333 167.4666666666667 365.6533333333333 142.0800000000001L347.3066666666667 81.0666666666667L281.1733333333334 277.3333333333334L302.0800000000001 279.4666666666667C312.1066666666667 280.7466666666667 310.8266666666667 295.2533333333334 301.0133333333333 294.6133333333334C301.0133333333333 294.6133333333334 271.36 292.2666666666667 252.16 292.2666666666667L203.9466666666667 294.6133333333334C194.1333333333333 295.2533333333334 193.0666666666667 280.1066666666667 202.6666666666667 279.4666666666667L222.08 277.3333333333334L250.6666666666667 199.68L210.56 79.5733333333334L143.7866666666667 277.3333333333334L164.9066666666667 279.4666666666667C174.72 280.7466666666667 173.44 295.2533333333334 163.6266666666667 294.6133333333334C163.6266666666667 294.6133333333334 133.9733333333334 292.2666666666667 114.7733333333334 292.2666666666667L103.04 292.48C135.8933333333333 342.1866666666667 192 375.04 256 375.04C303.5733333333333 375.04 347.0933333333333 356.6933333333334 379.52 327.04H377.1733333333333C359.2533333333334 327.04 346.4533333333333 311.4666666666667 346.4533333333333 294.6133333333334C346.4533333333333 279.4666666666667 355.2 266.6666666666667 364.3733333333333 251.7333333333334C371.4133333333333 239.5733333333334 379.52 224 379.52 201.1733333333334M259.2 176L315.52 21.9733333333334L316.8 19.4133333333334C297.8133333333333 12.5866666666667 277.3333333333333 8.96 256 8.96C238.08 8.96 220.8 11.5200000000001 204.3733333333333 16.4266666666667L259.2 176.0000000000001M416.64 279.8933333333335C430.9333333333334 253.6533333333334 439.04 224.0000000000001 439.04 192.0000000000001C439.04 124.5866666666668 402.3466666666667 65.4933333333335 347.9466666666667 33.9200000000001L403.8400000000001 195.4133333333334C414.2933333333334 221.4400000000001 417.9200000000001 242.3466666666668 417.9200000000001 260.9066666666668L416.6400000000001 279.8933333333335M256 405.3333333333333C373.76 405.3333333333333 469.3333333333333 309.76 469.3333333333333 192S373.76 -21.3333333333333 256 -21.3333333333333S42.6666666666667 74.24 42.6666666666667 192S138.24 405.3333333333333 256 405.3333333333333M256 -11.52C368.2133333333333 -11.52 459.52 79.7866666666668 459.52 192C459.52 304.2133333333334 368.2133333333333 395.52 256 395.52C143.7866666666667 395.52 52.48 304.2133333333333 52.48 192C52.48 79.7866666666668 143.7866666666667 -11.52 256 -11.52z" /></svg>