<?xml version="1.0" encoding="UTF-8"?><!DOCTYPE svg PUBLIC "-//W3C//DTD SVG 1.1//EN" "http://www.w3.org/Graphics/SVG/1.1/DTD/svg11.dtd"><svg xmlns="http://www.w3.org/2000/svg" xmlns:xlink="http://www.w3.org/1999/xlink" version="1.1" width="512" height="512" viewBox="0 0 512 512">    <path fill="#ffffff" transform="scale(1, -1) translate(0, -448)" glyph-name="alpha-r-box-outline" unicode="&#xFBFA;" horiz-adv-x="512" d=" M192 298.6666666666667H277.3333333333333C300.8 298.6666666666667 320 279.4666666666667 320 256V213.3333333333334C320 195.4133333333334 309.3333333333333 180.2666666666667 293.5466666666666 173.8666666666667L320 85.3333333333334H277.3333333333333L251.7333333333334 170.6666666666667H234.6666666666667V85.3333333333334H192V298.6666666666667M234.6666666666667 256V213.3333333333334H277.3333333333333V256H234.6666666666667M106.6666666666667 384H405.3333333333333C428.8 384 448 364.8 448 341.3333333333334V42.6666666666667C448 19.2 428.8 0 405.3333333333333 0H106.6666666666667C83.2 0 64 19.2 64 42.6666666666667V341.3333333333334C64 364.8 83.2 384 106.6666666666667 384M106.6666666666667 341.3333333333334V42.6666666666667H405.3333333333333V341.3333333333334H106.6666666666667z" /></svg>