<?xml version="1.0" encoding="UTF-8"?><!DOCTYPE svg PUBLIC "-//W3C//DTD SVG 1.1//EN" "http://www.w3.org/Graphics/SVG/1.1/DTD/svg11.dtd"><svg xmlns="http://www.w3.org/2000/svg" xmlns:xlink="http://www.w3.org/1999/xlink" version="1.1" width="512" height="512" viewBox="0 0 512 512">    <path fill="#ffffff" transform="scale(1, -1) translate(0, -448)" glyph-name="flower-outline" unicode="&#xF9EF;" horiz-adv-x="512" d=" M184.7466666666667 169.1733333333334C147.6266666666667 169.1733333333334 117.3333333333333 199.2533333333333 117.3333333333333 236.1600000000001C117.3333333333333 251.3066666666667 122.88 265.8133333333334 132.0533333333333 277.3333333333334C123.0933333333333 288.8533333333334 117.3333333333333 303.36 117.3333333333333 318.5066666666667C117.3333333333333 355.4133333333334 147.84 385.4933333333334 184.7466666666667 385.4933333333334L193.92 384.8533333333334C203.9466666666667 409.3866666666667 228.0533333333333 426.6666666666667 256 426.6666666666667S308.0533333333333 409.3866666666667 318.08 384.8533333333334L327.2533333333334 385.4933333333334C364.16 385.4933333333334 394.6666666666667 355.4133333333334 394.6666666666667 318.5066666666667C394.6666666666667 303.36 389.12 288.8533333333334 379.9466666666666 277.3333333333334C388.9066666666667 265.8133333333334 394.6666666666667 251.3066666666667 394.6666666666667 236.1600000000001C394.6666666666667 199.2533333333333 364.16 169.1733333333334 327.2533333333334 169.1733333333334L318.08 169.8133333333333C308.0533333333333 145.28 283.9466666666667 128 256 128S203.9466666666667 145.28 193.92 169.8133333333334L184.7466666666667 169.1733333333334M256 170.6666666666667C269.2266666666667 170.6666666666667 279.8933333333333 181.3333333333334 280.32 194.1333333333333L277.9733333333334 217.3866666666667C271.1466666666667 214.8266666666667 263.68 213.3333333333334 256 213.3333333333334S241.0666666666667 214.8266666666667 234.6666666666667 217.3866666666667L231.68 194.1333333333333C232.1066666666667 181.3333333333334 242.7733333333334 170.6666666666667 256 170.6666666666667M327.2533333333334 211.84C340.6933333333334 211.84 352 222.72 352 236.3733333333334C352 245.3333333333334 346.24 254.2933333333334 337.7066666666667 258.3466666666667L318.9333333333333 267.3066666666667C316.3733333333334 251.52 308.0533333333333 237.8666666666667 296.32 228.2666666666667L313.6 216.1066666666667C317.44 213.3333333333333 322.1333333333334 211.84 327.2533333333334 211.84M313.3866666666667 338.56L295.8933333333333 326.6133333333334C307.84 317.0133333333333 316.16 303.36 318.72 288L337.4933333333334 296.5333333333334C346.24 300.8 352 309.3333333333334 352 318.5066666666667C352 331.9466666666667 340.6933333333334 342.8266666666667 327.2533333333334 342.8266666666667C322.3466666666667 342.8266666666667 317.6533333333333 341.3333333333334 313.3866666666667 338.56M256 384C242.7733333333334 384 232.1066666666667 373.3333333333334 231.68 360.5333333333334L234.6666666666667 337.28C241.0666666666667 339.8400000000001 248.32 341.3333333333334 256 341.3333333333334S271.1466666666667 339.8400000000001 277.9733333333333 337.28L280.32 360.5333333333333C279.8933333333333 373.3333333333334 269.2266666666667 384 256 384M184.7466666666667 342.8266666666667C171.3066666666667 342.8266666666667 160 331.9466666666667 160 318.5066666666667C160 309.3333333333334 165.76 300.8 174.2933333333333 296.5333333333334L193.0666666666667 288C195.6266666666667 303.36 203.9466666666667 317.0133333333333 215.68 326.6133333333334L198.4 338.5600000000001C194.56 341.3333333333334 189.8666666666667 342.8266666666667 184.7466666666667 342.8266666666667M174.2933333333333 258.1333333333334C165.76 253.8666666666667 160 245.3333333333334 160 236.3733333333334C160 222.9333333333333 171.3066666666667 212.0533333333334 184.7466666666667 212.0533333333334C189.6533333333333 212.0533333333334 194.3466666666666 213.3333333333334 198.6133333333334 216.32L215.8933333333334 228.0533333333334C203.9466666666667 237.6533333333333 195.6266666666667 251.3066666666667 193.0666666666667 266.6666666666667L174.2933333333333 258.1333333333334M256 -21.3333333333333C149.9733333333333 -21.3333333333333 64 64.64 64 170.6666666666667C170.0266666666667 170.6666666666667 256 84.6933333333333 256 -21.3333333333333C256 84.6933333333333 341.9733333333334 170.6666666666667 448 170.6666666666667C448 64.64 362.0266666666667 -21.3333333333333 256 -21.3333333333333M308.0533333333333 30.72C348.5866666666667 45.8666666666667 380.8 78.08 395.9466666666666 118.6133333333334C355.4133333333333 103.6800000000001 323.2 71.2533333333335 308.0533333333333 30.72M116.0533333333333 118.6133333333334C131.1999999999999 78.0800000000001 163.4133333333333 45.8666666666667 203.9466666666666 30.72C189.0133333333333 71.2533333333333 156.5866666666666 103.4666666666667 116.0533333333333 118.6133333333334z" /></svg>