<?xml version="1.0" encoding="UTF-8"?><!DOCTYPE svg PUBLIC "-//W3C//DTD SVG 1.1//EN" "http://www.w3.org/Graphics/SVG/1.1/DTD/svg11.dtd"><svg xmlns="http://www.w3.org/2000/svg" xmlns:xlink="http://www.w3.org/1999/xlink" version="1.1" width="512" height="512" viewBox="0 0 512 512">    <path fill="#ffffff" transform="scale(1, -1) translate(0, -448)" glyph-name="nfc-tap" unicode="&#xF397;" horiz-adv-x="512" d=" M256 234.6666666666667C279.4666666666667 234.6666666666667 298.6666666666667 215.4666666666667 298.6666666666667 192S279.4666666666667 149.3333333333334 256 149.3333333333334S213.3333333333333 168.5333333333334 213.3333333333333 192S232.5333333333334 234.6666666666667 256 234.6666666666667M85.3333333333333 362.6666666666667H234.6666666666667C258.1333333333334 362.6666666666667 277.3333333333333 343.4666666666667 277.3333333333333 320V256H234.6666666666667V320H85.3333333333333V213.3333333333334H128V256L192 192L128 128V170.6666666666667H85.3333333333333C61.8666666666667 170.6666666666667 42.6666666666667 189.8666666666667 42.6666666666667 213.3333333333334V320C42.6666666666667 343.4666666666667 61.8666666666667 362.6666666666667 85.3333333333333 362.6666666666667M426.6666666666667 21.3333333333334H277.3333333333333C253.8666666666667 21.3333333333334 234.6666666666667 40.5333333333333 234.6666666666667 64V128H277.3333333333333V64H426.6666666666667V170.6666666666667H384V128L320 192L384 256V213.3333333333334H426.6666666666667C450.1333333333334 213.3333333333334 469.3333333333333 194.1333333333333 469.3333333333333 170.6666666666667V64C469.3333333333333 40.5333333333333 450.1333333333334 21.3333333333334 426.6666666666667 21.3333333333334z" /></svg>