<?xml version="1.0" encoding="UTF-8"?><!DOCTYPE svg PUBLIC "-//W3C//DTD SVG 1.1//EN" "http://www.w3.org/Graphics/SVG/1.1/DTD/svg11.dtd"><svg xmlns="http://www.w3.org/2000/svg" xmlns:xlink="http://www.w3.org/1999/xlink" version="1.1" width="512" height="512" viewBox="0 0 512 512">    <path fill="#ffffff" transform="scale(1, -1) translate(0, -448)" glyph-name="compass-off" unicode="&#xFB5C;" horiz-adv-x="512" d=" M21.3333333333333 373.3333333333334L48.64 400L464 -15.36L437.3333333333333 -42.6666666666666L377.6 16.64C343.04 -7.2533333333333 301.2266666666667 -21.3333333333333 256 -21.3333333333333C138.24 -21.3333333333333 42.6666666666667 74.24 42.6666666666667 192C42.6666666666667 237.2266666666667 56.7466666666667 279.04 80.64 313.6L21.3333333333333 373.3333333333334M128 64L266.0266666666667 128L192 202.0266666666667L128 64M384 320L246.6133333333333 256L135.04 367.7866666666667C169.3866666666667 391.4666666666667 211.2 405.3333333333333 256 405.3333333333333C373.76 405.3333333333333 469.3333333333333 309.76 469.3333333333333 192C469.3333333333333 147.2000000000001 455.4666666666667 105.3866666666667 431.7866666666667 71.04L320 182.6133333333334L384 320z" /></svg>