<?xml version="1.0" encoding="UTF-8"?><!DOCTYPE svg PUBLIC "-//W3C//DTD SVG 1.1//EN" "http://www.w3.org/Graphics/SVG/1.1/DTD/svg11.dtd"><svg xmlns="http://www.w3.org/2000/svg" xmlns:xlink="http://www.w3.org/1999/xlink" version="1.1" width="512" height="512" viewBox="0 0 512 512">    <path fill="#ffffff" transform="scale(1, -1) translate(0, -448)" glyph-name="battery-positive" unicode="&#xF090;" horiz-adv-x="512" d=" M248.96 362.6666666666667C264.5333333333333 362.6666666666667 277.3333333333333 349.8666666666667 277.3333333333333 334.2933333333334V7.04C277.3333333333333 -8.5333333333334 264.5333333333333 -21.3333333333333 248.96 -21.3333333333333H49.7066666666667C34.1333333333333 -21.3333333333333 21.3333333333333 -8.5333333333333 21.3333333333333 7.04V334.2933333333334C21.3333333333333 349.8666666666667 34.1333333333333 362.6666666666667 49.7066666666667 362.6666666666667H85.3333333333333V405.3333333333333H213.3333333333333V362.6666666666667H248.96M490.6666666666666 149.3333333333334H426.6666666666667V85.3333333333334H384V149.3333333333334H320V192H384V256H426.6666666666667V192H490.6666666666666V149.3333333333334M64 170.6666666666667H234.6666666666667V320H64V170.6666666666667z" /></svg>