<?xml version="1.0" encoding="UTF-8"?><!DOCTYPE svg PUBLIC "-//W3C//DTD SVG 1.1//EN" "http://www.w3.org/Graphics/SVG/1.1/DTD/svg11.dtd"><svg xmlns="http://www.w3.org/2000/svg" xmlns:xlink="http://www.w3.org/1999/xlink" version="1.1" width="512" height="512" viewBox="0 0 512 512">    <path fill="#ffffff" transform="scale(1, -1) translate(0, -448)" glyph-name="map-search-outline" unicode="&#xF984;" horiz-adv-x="512" d=" M330.6666666666667 192C384 192 426.6666666666667 149.3333333333334 426.6666666666667 96C426.6666666666667 77.2266666666667 421.3333333333333 59.7333333333334 411.9466666666666 44.8000000000001L477.6533333333333 -21.3333333333333L448 -50.9866666666667L381.44 14.5066666666667C366.7199999999999 5.3333333333334 349.2266666666666 0 330.6666666666667 0C277.3333333333333 0 234.6666666666667 42.6666666666667 234.6666666666667 96S277.3333333333333 192 330.6666666666667 192M330.6666666666667 149.3333333333334C301.2266666666667 149.3333333333334 277.3333333333333 125.44 277.3333333333333 96S301.2266666666667 42.6666666666667 330.6666666666667 42.6666666666667S384 66.5600000000001 384 96S360.1066666666667 149.3333333333334 330.6666666666667 149.3333333333334M416 405.3333333333333C421.9733333333334 405.3333333333333 426.6666666666667 400.64 426.6666666666667 394.6666666666667V196.0533333333334C414.2933333333334 207.7866666666667 400 217.3866666666667 384 224V347.7333333333334L320 322.9866666666667V234.6666666666667C305.0666666666667 233.1733333333334 290.56 229.5466666666667 277.3333333333333 224V322.7733333333333L192 352.64V96C192 82.3466666666667 193.92 69.12 197.5466666666667 56.7466666666667L170.6666666666667 66.1333333333334L56.7466666666667 21.9733333333334L53.3333333333333 21.3333333333334C47.36 21.3333333333334 42.6666666666667 26.0266666666666 42.6666666666667 32V354.56C42.6666666666667 359.4666666666667 45.8666666666667 363.3066666666667 50.3466666666667 364.8L170.6666666666667 405.3333333333333L298.6666666666667 360.5333333333334L412.5866666666667 404.6933333333334L416 405.3333333333334M85.3333333333333 331.52V78.72L149.3333333333333 103.4666666666667V353.0666666666667L85.3333333333333 331.52z" /></svg>