<?xml version="1.0" encoding="UTF-8"?><!DOCTYPE svg PUBLIC "-//W3C//DTD SVG 1.1//EN" "http://www.w3.org/Graphics/SVG/1.1/DTD/svg11.dtd"><svg xmlns="http://www.w3.org/2000/svg" xmlns:xlink="http://www.w3.org/1999/xlink" version="1.1" width="512" height="512" viewBox="0 0 512 512">    <path fill="#ffffff" transform="scale(1, -1) translate(0, -448)" glyph-name="waves" unicode="&#xF78C;" horiz-adv-x="512" d=" M42.6666666666667 64C90.0266666666667 85.3333333333334 137.3866666666667 106.6666666666667 184.96 106.6666666666667C232.32 106.6666666666667 279.68 64 327.04 64C374.6133333333333 64 421.9733333333334 106.6666666666667 469.3333333333333 106.6666666666667V42.6666666666667C421.9733333333334 42.6666666666667 374.6133333333333 0 327.04 0C279.68 0 232.32 42.6666666666667 184.96 42.6666666666667C137.3866666666667 42.6666666666667 90.0266666666667 21.3333333333334 42.6666666666667 0V64M42.6666666666667 192C90.0266666666667 213.3333333333334 137.3866666666667 234.6666666666667 184.96 234.6666666666667C232.32 234.6666666666667 279.68 192 327.04 192C374.6133333333333 192 421.9733333333334 234.6666666666667 469.3333333333333 234.6666666666667V170.6666666666667C421.9733333333334 170.6666666666667 374.6133333333333 128 327.04 128C279.68 128 232.32 170.6666666666667 184.96 170.6666666666667C137.3866666666667 170.6666666666667 90.0266666666667 149.3333333333334 42.6666666666667 128V192M42.6666666666667 320C90.0266666666667 341.3333333333334 137.3866666666667 362.6666666666667 184.96 362.6666666666667C232.32 362.6666666666667 279.68 320 327.04 320C374.6133333333333 320 421.9733333333334 362.6666666666667 469.3333333333333 362.6666666666667V298.6666666666667C421.9733333333334 298.6666666666667 374.6133333333333 256 327.04 256C279.68 256 232.32 298.6666666666667 184.96 298.6666666666667C137.3866666666667 298.6666666666667 90.0266666666667 277.3333333333334 42.6666666666667 256V320z" /></svg>