<?xml version="1.0" encoding="UTF-8"?><!DOCTYPE svg PUBLIC "-//W3C//DTD SVG 1.1//EN" "http://www.w3.org/Graphics/SVG/1.1/DTD/svg11.dtd"><svg xmlns="http://www.w3.org/2000/svg" xmlns:xlink="http://www.w3.org/1999/xlink" version="1.1" width="512" height="512" viewBox="0 0 512 512">    <path fill="#ffffff" transform="scale(1, -1) translate(0, -448)" glyph-name="rename-box" unicode="&#xF455;" horiz-adv-x="512" d=" M384 85.3333333333334H224L266.6666666666667 128H384M128 85.3333333333334V138.6666666666667L296.1066666666667 306.1333333333334C300.16 310.4 306.9866666666666 310.4 311.2533333333334 306.1333333333334L348.8 268.5866666666667C353.0666666666667 264.3200000000001 353.0666666666667 257.7066666666667 348.8 253.44L180.6933333333333 85.3333333333334M405.3333333333333 384H106.6666666666667C82.9866666666667 384 64 365.0133333333333 64 341.3333333333334V42.6666666666667C64 19.2 83.2 0 106.6666666666667 0H405.3333333333333C428.8 0 448 19.2 448 42.6666666666667V341.3333333333334C448 365.0133333333333 428.8 384 405.3333333333333 384z" /></svg>