<?xml version="1.0" encoding="UTF-8"?><!DOCTYPE svg PUBLIC "-//W3C//DTD SVG 1.1//EN" "http://www.w3.org/Graphics/SVG/1.1/DTD/svg11.dtd"><svg xmlns="http://www.w3.org/2000/svg" xmlns:xlink="http://www.w3.org/1999/xlink" version="1.1" width="512" height="512" viewBox="0 0 512 512">    <path fill="#ffffff" transform="scale(1, -1) translate(0, -448)" glyph-name="clock-alert-outline" unicode="&#xF5CE;" horiz-adv-x="512" d=" M256 405.3333333333333C138.0266666666667 405.3333333333333 42.6666666666667 309.3333333333334 42.6666666666667 192C42.6666666666667 74.24 138.24 -21.3333333333333 256 -21.3333333333333C304 -21.3333333333333 348.3733333333333 -5.1199999999999 384 21.3333333333334V79.36C352.64 43.9466666666667 306.9866666666667 21.3333333333334 256 21.3333333333334C161.7066666666667 21.3333333333334 85.3333333333333 97.7066666666667 85.3333333333333 192S161.7066666666667 362.6666666666667 256 362.6666666666667C327.68 362.6666666666667 388.9066666666667 318.5066666666667 414.08 256H459.52C432.4266666666666 342.6133333333334 352 405.3333333333333 256 405.3333333333333M234.6666666666667 298.6666666666667V170.6666666666667L346.6666666666667 103.4666666666667L362.6666666666667 129.7066666666667L266.6666666666667 186.6666666666668V298.6666666666667H234.6666666666667M426.6666666666667 213.3333333333334V64H469.3333333333333V213.3333333333334H426.6666666666667M426.6666666666667 21.3333333333334V-21.3333333333333H469.3333333333333V21.3333333333334H426.6666666666667z" /></svg>