<?xml version="1.0" encoding="UTF-8"?><!DOCTYPE svg PUBLIC "-//W3C//DTD SVG 1.1//EN" "http://www.w3.org/Graphics/SVG/1.1/DTD/svg11.dtd"><svg xmlns="http://www.w3.org/2000/svg" xmlns:xlink="http://www.w3.org/1999/xlink" version="1.1" width="512" height="512" viewBox="0 0 512 512">    <path fill="#ffffff" transform="scale(1, -1) translate(0, -448)" glyph-name="bitcoin" unicode="&#xF812;" horiz-adv-x="512" d=" M96 341.3333333333334H170.6666666666667V405.3333333333333H213.3333333333333V341.3333333333334H245.3333333333333V405.3333333333333H288V341.3333333333334C405.3333333333333 341.3333333333334 405.3333333333333 213.3333333333334 341.3333333333333 208C426.6666666666667 213.3333333333334 448 42.6666666666667 288 42.6666666666667V-21.3333333333333H245.3333333333333V42.6666666666667H213.3333333333333V-21.3333333333333H170.6666666666667V42.6666666666667H96L106.6666666666667 85.3333333333334H128C139.7333333333333 85.3333333333334 149.3333333333333 94.9333333333333 149.3333333333333 106.6666666666667V277.3333333333334C149.3333333333333 289.0666666666667 139.7333333333333 298.6666666666667 128 298.6666666666667H96V341.3333333333334M213.3333333333333 298.6666666666667V213.3333333333334S309.3333333333333 208 309.3333333333333 256S213.3333333333333 298.6666666666667 213.3333333333333 298.6666666666667M213.3333333333333 181.3333333333334V85.3333333333334S330.6666666666667 85.3333333333334 330.6666666666667 133.3333333333334S213.3333333333333 181.3333333333334 213.3333333333333 181.3333333333334z" /></svg>