<?xml version="1.0" encoding="UTF-8"?><!DOCTYPE svg PUBLIC "-//W3C//DTD SVG 1.1//EN" "http://www.w3.org/Graphics/SVG/1.1/DTD/svg11.dtd"><svg xmlns="http://www.w3.org/2000/svg" xmlns:xlink="http://www.w3.org/1999/xlink" version="1.1" width="512" height="512" viewBox="0 0 512 512">    <path fill="#ffffff" transform="scale(1, -1) translate(0, -448)" glyph-name="qrcode-scan" unicode="&#xF433;" horiz-adv-x="512" d=" M85.3333333333333 362.6666666666667H213.3333333333333V234.6666666666667H85.3333333333333V362.6666666666667M426.6666666666667 362.6666666666667V234.6666666666667H298.6666666666667V362.6666666666667H426.6666666666667M298.6666666666667 128H341.3333333333333V170.6666666666667H298.6666666666667V213.3333333333334H341.3333333333333V170.6666666666667H384V213.3333333333334H426.6666666666667V170.6666666666667H384V128H426.6666666666667V64H384V21.3333333333334H341.3333333333333V64H277.3333333333333V21.3333333333334H234.6666666666667V106.6666666666667H298.6666666666667V128M341.3333333333333 128V64H384V128H341.3333333333333M85.3333333333333 21.3333333333334V149.3333333333334H213.3333333333333V21.3333333333334H85.3333333333333M128 320V277.3333333333334H170.6666666666667V320H128M341.3333333333333 320V277.3333333333334H384V320H341.3333333333333M128 106.6666666666667V64H170.6666666666667V106.6666666666667H128M85.3333333333333 213.3333333333334H128V170.6666666666667H85.3333333333333V213.3333333333334M192 213.3333333333334H277.3333333333333V128H234.6666666666667V170.6666666666667H192V213.3333333333334M234.6666666666667 320H277.3333333333333V234.6666666666667H234.6666666666667V320M42.6666666666667 405.3333333333333V320H0V405.3333333333333C0 428.8 19.2 448 42.6666666666667 448H128V405.3333333333333H42.6666666666667M469.3333333333333 448C492.8 448 512 428.8 512 405.3333333333333V320H469.3333333333333V405.3333333333333H384V448H469.3333333333333M42.6666666666667 64V-21.3333333333333H128V-64H42.6666666666667C19.2 -64 0 -44.8 0 -21.3333333333333V64H42.6666666666667M469.3333333333333 -21.3333333333333V64H512V-21.3333333333333C512 -44.8 492.8 -64 469.3333333333333 -64H384V-21.3333333333333H469.3333333333333z" /></svg>