<?xml version="1.0" encoding="UTF-8"?><!DOCTYPE svg PUBLIC "-//W3C//DTD SVG 1.1//EN" "http://www.w3.org/Graphics/SVG/1.1/DTD/svg11.dtd"><svg xmlns="http://www.w3.org/2000/svg" xmlns:xlink="http://www.w3.org/1999/xlink" version="1.1" width="512" height="512" viewBox="0 0 512 512">    <path fill="#ffffff" transform="scale(1, -1) translate(0, -448)" glyph-name="donkey" unicode="&#xF7C1;" horiz-adv-x="512" d=" M455.2533333333333 227.2L453.76 228.6933333333334L451.84 230.6133333333334L384 298.6666666666667V320C384 325.9733333333334 379.3066666666667 330.6666666666667 373.3333333333333 330.6666666666667C370.3466666666667 330.6666666666667 367.36 329.3866666666667 365.44 327.2533333333334L287.1466666666667 256H149.3333333333333C134.8266666666667 256 121.3866666666667 248.5333333333334 113.4933333333334 236.3733333333334L55.8933333333333 179.4133333333334C48.8533333333333 169.8133333333334 50.9866666666667 156.5866666666667 60.5866666666667 149.3333333333334C67.84 144.2133333333334 77.8666666666667 144 85.3333333333333 149.3333333333334L106.6666666666667 169.1733333333334V42.6666666666667H170.6666666666667V128H277.3333333333333V42.6666666666667H341.3333333333333V152.96C341.3333333333333 164.2666666666667 345.8133333333334 175.1466666666667 353.92 183.04L384 213.3333333333334L426.6666666666667 192C429.8666666666666 190.2933333333334 433.4933333333334 189.2266666666667 437.3333333333333 189.2266666666667C450.1333333333334 189.6533333333333 460.5866666666666 200.32 460.3733333333333 213.3333333333334C460.1599999999999 218.4533333333334 458.6666666666666 223.36 455.2533333333333 227.2z" /></svg>