<?xml version="1.0" encoding="UTF-8"?><!DOCTYPE svg PUBLIC "-//W3C//DTD SVG 1.1//EN" "http://www.w3.org/Graphics/SVG/1.1/DTD/svg11.dtd"><svg xmlns="http://www.w3.org/2000/svg" xmlns:xlink="http://www.w3.org/1999/xlink" version="1.1" width="512" height="512" viewBox="0 0 512 512">    <path fill="#ffffff" transform="scale(1, -1) translate(0, -448)" glyph-name="wifi-strength-3-lock" unicode="&#xF926;" horiz-adv-x="512" d=" M256 384C166.1866666666667 384 78.9333333333333 353.7066666666667 8.1066666666667 298.6666666666667C94.2933333333333 190.72 168.32 98.7733333333333 256 -10.6666666666666C282.24 21.9733333333334 304.8533333333333 49.92 330.6666666666667 82.3466666666667V138.6666666666667C330.6666666666667 182.6133333333334 357.76 222.08 398.7200000000001 238.08C366.7200000000001 256.8533333333334 316.5866666666667 277.3333333333334 256 277.3333333333334C192 277.3333333333334 142.5066666666667 256 110.9333333333333 238.08L69.76 289.2800000000001C126.08 323.2000000000001 190.2933333333333 341.3333333333334 256 341.3333333333334C321.4933333333334 341.3333333333334 385.7066666666666 322.9866666666667 441.8133333333334 289.0666666666667L401.92 239.1466666666667C413.2266666666667 243.2 425.1733333333333 245.3333333333334 437.3333333333333 245.3333333333334C444.8 245.3333333333334 452.2666666666667 244.48 459.52 242.7733333333334C473.6 260.2666666666667 491.3066666666666 282.4533333333334 504.5333333333333 298.6666666666667C433.4933333333334 353.92 346.0266666666667 384 256 384M437.3333333333333 192C407.4666666666667 192 384 168.5333333333334 384 138.6666666666667V106.6666666666667C373.3333333333333 106.6666666666667 362.6666666666667 96 362.6666666666667 85.3333333333334V0C362.6666666666667 -10.6666666666666 373.3333333333333 -21.3333333333333 384 -21.3333333333333H490.6666666666666C501.3333333333333 -21.3333333333333 512 -10.6666666666666 512 0V85.3333333333334C512 96 501.3333333333333 106.6666666666667 490.6666666666666 106.6666666666667V138.6666666666667C490.6666666666666 168.5333333333334 467.1999999999999 192 437.3333333333333 192M437.3333333333333 170.6666666666667C454.4 170.6666666666667 469.3333333333333 155.7333333333334 469.3333333333333 138.6666666666667V106.6666666666667H405.3333333333333V138.6666666666667C405.3333333333333 155.7333333333334 420.2666666666667 170.6666666666667 437.3333333333333 170.6666666666667z" /></svg>