<?xml version="1.0" encoding="UTF-8"?><!DOCTYPE svg PUBLIC "-//W3C//DTD SVG 1.1//EN" "http://www.w3.org/Graphics/SVG/1.1/DTD/svg11.dtd"><svg xmlns="http://www.w3.org/2000/svg" xmlns:xlink="http://www.w3.org/1999/xlink" version="1.1" width="512" height="512" viewBox="0 0 512 512">    <path fill="#ffffff" transform="scale(1, -1) translate(0, -448)" glyph-name="anchor" unicode="&#xF031;" horiz-adv-x="512" d=" M256 405.3333333333333C220.5866666666667 405.3333333333333 192 376.7466666666667 192 341.3333333333334C192 314.24 209.0666666666667 290.1333333333334 234.6666666666667 280.9600000000001V234.6666666666667H170.6666666666667V192H234.6666666666667V44.3733333333333C195.4133333333333 50.5599999999999 160.64 73.1733333333334 139.3066666666667 106.6666666666667H170.6666666666667V149.3333333333334H64V42.6666666666667H106.6666666666667V78.9333333333333C140.3733333333333 29.6533333333334 196.2666666666667 0 256 0S371.6266666666667 29.6533333333334 405.3333333333333 78.72V42.6666666666667H448V149.3333333333334H341.3333333333333V106.6666666666667H372.48C351.1466666666667 73.3866666666667 316.3733333333334 50.5600000000001 277.3333333333333 44.3733333333333V192H341.3333333333333V234.6666666666667H277.3333333333333V281.1733333333334C302.9333333333333 290.1333333333334 320 314.24 320 341.3333333333334C320 376.7466666666667 291.4133333333333 405.3333333333333 256 405.3333333333333M256 362.6666666666667C267.7333333333334 362.6666666666667 277.3333333333333 353.0666666666667 277.3333333333333 341.3333333333334S267.7333333333334 320 256 320S234.6666666666667 329.6 234.6666666666667 341.3333333333334S244.2666666666667 362.6666666666667 256 362.6666666666667z" /></svg>