<?xml version="1.0" encoding="UTF-8"?><!DOCTYPE svg PUBLIC "-//W3C//DTD SVG 1.1//EN" "http://www.w3.org/Graphics/SVG/1.1/DTD/svg11.dtd"><svg xmlns="http://www.w3.org/2000/svg" xmlns:xlink="http://www.w3.org/1999/xlink" version="1.1" width="512" height="512" viewBox="0 0 512 512">    <path fill="#ffffff" transform="scale(1, -1) translate(0, -448)" glyph-name="tooltip-edit" unicode="&#xF524;" horiz-adv-x="512" d=" M85.3333333333333 405.3333333333333H426.6666666666667C450.1333333333334 405.3333333333333 469.3333333333333 386.1333333333334 469.3333333333333 362.6666666666667V106.6666666666667C469.3333333333333 83.2 450.1333333333334 64 426.6666666666667 64H341.3333333333333L256 -21.3333333333333L170.6666666666667 64H85.3333333333333C61.8666666666667 64 42.6666666666667 83.2 42.6666666666667 106.6666666666667V362.6666666666667C42.6666666666667 386.1333333333334 61.8666666666667 405.3333333333333 85.3333333333333 405.3333333333333M384 149.3333333333334V192H266.6666666666667L224 149.3333333333334H384M128 149.3333333333334H181.3333333333333L327.4666666666667 296.1066666666667C331.7333333333333 300.1600000000001 331.7333333333333 306.9866666666667 327.4666666666667 311.2533333333334L289.92 348.8C285.6533333333333 353.0666666666667 278.8266666666667 353.0666666666667 274.7733333333333 348.8L128 202.0266666666667V149.3333333333334z" /></svg>