<?xml version="1.0" encoding="UTF-8"?><!DOCTYPE svg PUBLIC "-//W3C//DTD SVG 1.1//EN" "http://www.w3.org/Graphics/SVG/1.1/DTD/svg11.dtd"><svg xmlns="http://www.w3.org/2000/svg" xmlns:xlink="http://www.w3.org/1999/xlink" version="1.1" width="512" height="512" viewBox="0 0 512 512">    <path fill="#ffffff" transform="scale(1, -1) translate(0, -448)" glyph-name="solar-panel-large" unicode="&#xFD78;" horiz-adv-x="512" d=" M64 320H128V384H64V320M170.6666666666667 384V320H234.6666666666667V384H170.6666666666667M277.3333333333333 384V320H341.3333333333333V384H277.3333333333333M384 384V320H448V384H384M448 277.3333333333334H384V213.3333333333334H448V277.3333333333334M448 170.6666666666667H384V106.6666666666667H448V170.6666666666667M341.3333333333333 106.6666666666667V170.6666666666667H277.3333333333333V106.6666666666667H341.3333333333333M234.6666666666667 106.6666666666667V170.6666666666667H170.6666666666667V106.6666666666667H234.6666666666667M128 106.6666666666667V170.6666666666667H64V106.6666666666667H128M64 213.3333333333334H128V277.3333333333334H64V213.3333333333334M277.3333333333333 277.3333333333334V213.3333333333334H341.3333333333333V277.3333333333334H277.3333333333333M170.6666666666667 277.3333333333334V213.3333333333334H234.6666666666667V277.3333333333334H170.6666666666667M64 426.6666666666667H448C471.4666666666667 426.6666666666667 490.6666666666666 407.4666666666667 490.6666666666666 384V106.6666666666667C490.6666666666666 83.2 471.4666666666667 64 448 64H320V0H384V-42.6666666666666H277.3333333333333V64H234.6666666666667V-42.6666666666666H128V0H192V64H64C40.5333333333333 64 21.3333333333333 83.2 21.3333333333333 106.6666666666667V384C21.3333333333333 407.4666666666667 40.5333333333333 426.6666666666667 64 426.6666666666667z" /></svg>