<?xml version="1.0" encoding="UTF-8"?><!DOCTYPE svg PUBLIC "-//W3C//DTD SVG 1.1//EN" "http://www.w3.org/Graphics/SVG/1.1/DTD/svg11.dtd"><svg xmlns="http://www.w3.org/2000/svg" xmlns:xlink="http://www.w3.org/1999/xlink" version="1.1" width="512" height="512" viewBox="0 0 512 512">    <path fill="#ffffff" transform="scale(1, -1) translate(0, -448)" glyph-name="rss" unicode="&#xF46B;" horiz-adv-x="512" d=" M131.84 114.3466666666667C157.44 114.3466666666667 178.3466666666666 93.44 178.3466666666666 67.84C178.3466666666666 42.6666666666667 157.44 21.3333333333334 131.84 21.3333333333334C106.6666666666667 21.3333333333334 85.3333333333333 42.6666666666667 85.3333333333333 67.84C85.3333333333333 93.44 106.24 114.3466666666667 131.84 114.3466666666667M85.3333333333333 353.28C268.5866666666667 353.28 417.2800000000001 204.5866666666667 417.2800000000001 21.3333333333334H356.9066666666668C356.9066666666668 171.3066666666667 235.3066666666668 292.9066666666667 85.3333333333334 292.9066666666667V353.28M85.3333333333334 232.5333333333333C202.0266666666667 232.5333333333333 296.5333333333334 138.0266666666667 296.5333333333334 21.3333333333334H236.1600000000001C236.1600000000001 104.5333333333333 168.5333333333334 172.16 85.3333333333334 172.16V232.5333333333334z" /></svg>