<?xml version="1.0" encoding="UTF-8"?><!DOCTYPE svg PUBLIC "-//W3C//DTD SVG 1.1//EN" "http://www.w3.org/Graphics/SVG/1.1/DTD/svg11.dtd"><svg xmlns="http://www.w3.org/2000/svg" xmlns:xlink="http://www.w3.org/1999/xlink" version="1.1" width="512" height="512" viewBox="0 0 512 512">    <path fill="#ffffff" transform="scale(1, -1) translate(0, -448)" glyph-name="hand-peace" unicode="&#xFA50;" horiz-adv-x="512" d=" M149.3333333333333 42.6666666666667H320V-21.3333333333333H149.3333333333333V42.6666666666667M344.5333333333333 192L276.6933333333333 227.4133333333334C273.4933333333333 227.4133333333334 270.72 226.1333333333334 268.8 224L262.4 217.3866666666667L274.9866666666666 165.76L254.08 160.64L228.6933333333333 266.6666666666667L197.3333333333333 252.1600000000001L219.52 160.6400000000001L198.8266666666666 155.7333333333334L177.4933333333333 243.4133333333334L167.4666666666667 238.9333333333334C156.8 234.6666666666667 149.3333333333333 223.36 149.3333333333333 210.3466666666667V117.3333333333334C149.3333333333333 100.2666666666667 164.9066666666667 85.3333333333334 181.3333333333333 85.3333333333334H320C328.32 85.3333333333334 335.7866666666667 88.7466666666667 341.3333333333333 94.5066666666667L352 103.2533333333333S362.6666666666667 111.36 362.6666666666667 120.3200000000001V155.7333333333334S362.6666666666667 180.0533333333334 344.5333333333333 192M361.3866666666666 426.6666666666667C349.8666666666666 428.5866666666667 338.56 421.3333333333333 336.2133333333333 409.6L313.3866666666666 277.9733333333334C308.6933333333333 278.6133333333334 306.7733333333333 280.3200000000001 300.3733333333333 280.9600000000001L291.2 279.8933333333333L264.7466666666666 409.6C262.4 421.12 251.3066666666666 428.5866666666667 239.7866666666667 426.6666666666667C228.0533333333333 423.8933333333333 220.5866666666666 412.5866666666667 222.9333333333333 401.0666666666667L248.5333333333333 274.9866666666667L256 241.7066666666667C261.9733333333333 245.9733333333334 269.0133333333333 248.7466666666667 276.6933333333333 248.7466666666667H283.9466666666666L347.9466666666666 214.4L378.0266666666667 401.0666666666667C380.3733333333333 412.5866666666667 373.3333333333333 423.8933333333334 361.3866666666666 426.6666666666667z" /></svg>