<?xml version="1.0" encoding="UTF-8"?><!DOCTYPE svg PUBLIC "-//W3C//DTD SVG 1.1//EN" "http://www.w3.org/Graphics/SVG/1.1/DTD/svg11.dtd"><svg xmlns="http://www.w3.org/2000/svg" xmlns:xlink="http://www.w3.org/1999/xlink" version="1.1" width="512" height="512" viewBox="0 0 512 512">    <path fill="#ffffff" transform="scale(1, -1) translate(0, -448)" glyph-name="font-awesome" unicode="&#xF03A;" horiz-adv-x="512" d=" M128 384C157.44 384 181.3333333333333 360.1066666666667 181.3333333333333 330.6666666666667C181.3333333333333 308.6933333333334 168.1066666666667 289.92 149.3333333333333 281.8133333333334V263.2533333333334C173.0133333333333 269.6533333333334 207.36 277.3333333333334 234.6666666666667 277.3333333333334C259.2 277.3333333333334 274.9866666666667 272.64 288.8533333333333 268.3733333333334C301.44 264.5333333333334 312.5333333333333 261.3333333333334 330.6666666666667 261.3333333333334C365.44 261.3333333333334 392.5333333333333 273.4933333333334 395.52 274.9866666666667C398.5066666666667 276.48 401.92 277.3333333333334 405.3333333333333 277.3333333333334C417.0666666666667 277.3333333333334 426.6666666666667 267.7333333333334 426.6666666666667 256V85.3333333333334C426.6666666666667 77.2266666666667 422.1866666666666 69.9733333333334 414.9333333333333 66.3466666666667C413.44 65.4933333333333 377.8133333333334 48 330.6666666666667 48C306.9866666666667 48 286.9333333333333 52.2666666666667 267.52 56.5333333333333C249.3866666666667 60.3733333333333 232.32 64 213.3333333333333 64C188.8 64 163.6266666666667 55.68 149.3333333333333 49.92V-21.3333333333333H106.6666666666667V281.8133333333334C87.8933333333333 289.92 74.6666666666667 308.6933333333334 74.6666666666667 330.6666666666667C74.6666666666667 360.1066666666667 98.56 384 128 384z" /></svg>