<?xml version="1.0" encoding="UTF-8"?><!DOCTYPE svg PUBLIC "-//W3C//DTD SVG 1.1//EN" "http://www.w3.org/Graphics/SVG/1.1/DTD/svg11.dtd"><svg xmlns="http://www.w3.org/2000/svg" xmlns:xlink="http://www.w3.org/1999/xlink" version="1.1" width="512" height="512" viewBox="0 0 512 512">    <path fill="#ffffff" transform="scale(1, -1) translate(0, -448)" glyph-name="cube-scan" unicode="&#xFB60;" horiz-adv-x="512" d=" M362.6666666666667 -21.3333333333333V21.3333333333334H426.6666666666667V85.3333333333334H469.3333333333333V10.6666666666667C469.3333333333333 2.3466666666667 465.92 -5.1199999999999 459.52 -11.52C453.1199999999999 -17.92 445.6533333333333 -21.3333333333333 437.3333333333333 -21.3333333333333H362.6666666666667M149.3333333333333 -21.3333333333333H74.6666666666667C66.3466666666667 -21.3333333333333 58.88 -17.92 52.48 -11.52C46.08 -5.1199999999999 42.6666666666667 2.3466666666667 42.6666666666667 10.6666666666667V85.3333333333334H85.3333333333333V21.3333333333334H149.3333333333333V-21.3333333333333M362.6666666666667 405.3333333333333H437.3333333333333C445.6533333333333 405.3333333333333 453.1199999999999 401.92 459.52 395.52C465.92 389.12 469.3333333333333 381.6533333333333 469.3333333333333 373.3333333333334V298.6666666666667H426.6666666666667V362.6666666666667H362.6666666666667V405.3333333333333M149.3333333333333 405.3333333333333V362.6666666666667H85.3333333333333V298.6666666666667H42.6666666666667V373.3333333333334C42.6666666666667 381.6533333333333 46.08 389.12 52.48 395.52C58.88 401.92 66.3466666666667 405.3333333333333 74.6666666666667 405.3333333333333H149.3333333333333M277.3333333333333 80L362.6666666666667 129.0666666666667V226.9866666666667L277.3333333333333 177.92V80M256 215.04L341.3333333333333 263.8933333333334L256 314.0266666666667L170.6666666666667 263.8933333333334L256 215.0400000000001M149.3333333333333 129.0666666666667L234.6666666666667 80V177.92L149.3333333333333 226.9866666666667V129.0666666666667M388.9066666666667 286.0800000000001C399.5733333333333 279.2533333333334 405.3333333333333 270.0800000000001 405.3333333333333 257.9200000000001V123.0933333333334C405.3333333333333 110.9333333333334 399.5733333333333 101.7600000000001 388.9066666666667 94.9333333333334L272 27.0933333333334C261.3333333333333 20.2666666666668 250.6666666666667 20.2666666666668 240 27.0933333333334L123.0933333333333 94.9333333333334C112.4266666666667 101.7600000000001 106.6666666666667 110.9333333333334 106.6666666666667 123.0933333333334V257.92C106.6666666666667 270.0800000000001 112.4266666666667 279.2533333333334 123.0933333333333 286.0800000000001L240 353.92C245.3333333333333 356.6933333333334 250.6666666666667 357.9733333333334 256 357.9733333333334S266.6666666666667 356.6933333333334 272 353.92L388.9066666666667 286.0800000000001z" /></svg>