<?xml version="1.0" encoding="UTF-8"?><!DOCTYPE svg PUBLIC "-//W3C//DTD SVG 1.1//EN" "http://www.w3.org/Graphics/SVG/1.1/DTD/svg11.dtd"><svg xmlns="http://www.w3.org/2000/svg" xmlns:xlink="http://www.w3.org/1999/xlink" version="1.1" width="512" height="512" viewBox="0 0 512 512">    <path fill="#ffffff" transform="scale(1, -1) translate(0, -448)" glyph-name="script" unicode="&#xFB9D;" horiz-adv-x="512" d=" M379.7333333333334 21.3333333333334C371.2000000000001 -4.2666666666667 347.7333333333334 -21.3333333333333 320 -21.3333333333333H106.6666666666667C70.4 -21.3333333333333 42.6666666666667 6.4 42.6666666666667 42.6666666666667V64H302.9333333333333C311.4666666666667 38.4 334.9333333333333 21.3333333333334 362.6666666666667 21.3333333333334H379.7333333333334M405.3333333333333 405.3333333333333H170.6666666666667C134.4 405.3333333333333 106.6666666666667 377.6 106.6666666666667 341.3333333333334V106.6666666666667H341.3333333333333V85.3333333333334C341.3333333333333 72.5333333333333 349.8666666666666 64 362.6666666666667 64H384V341.3333333333334C384 354.1333333333334 392.5333333333333 362.6666666666667 405.3333333333333 362.6666666666667S426.6666666666667 354.1333333333334 426.6666666666667 341.3333333333334V320H469.3333333333333V341.3333333333334C469.3333333333333 377.6 441.6 405.3333333333333 405.3333333333333 405.3333333333333z" /></svg>