<?xml version="1.0" encoding="UTF-8"?><!DOCTYPE svg PUBLIC "-//W3C//DTD SVG 1.1//EN" "http://www.w3.org/Graphics/SVG/1.1/DTD/svg11.dtd"><svg xmlns="http://www.w3.org/2000/svg" xmlns:xlink="http://www.w3.org/1999/xlink" version="1.1" width="512" height="512" viewBox="0 0 512 512">    <path fill="#ffffff" transform="scale(1, -1) translate(0, -448)" glyph-name="clock-outline" unicode="&#xF150;" horiz-adv-x="512" d=" M256 21.3333333333334C350.2933333333334 21.3333333333334 426.6666666666667 97.7066666666667 426.6666666666667 192S350.2933333333334 362.6666666666667 256 362.6666666666667S85.3333333333333 286.2933333333334 85.3333333333333 192S161.7066666666667 21.3333333333334 256 21.3333333333334M256 405.3333333333333C373.76 405.3333333333333 469.3333333333333 309.76 469.3333333333333 192S373.76 -21.3333333333333 256 -21.3333333333333C138.0266666666667 -21.3333333333333 42.6666666666667 74.6666666666667 42.6666666666667 192C42.6666666666667 309.76 138.24 405.3333333333333 256 405.3333333333333M266.6666666666667 298.6666666666667V186.6666666666667L362.6666666666667 129.7066666666667L346.6666666666667 103.4666666666667L234.6666666666667 170.6666666666667V298.6666666666667H266.6666666666667z" /></svg>