<?xml version="1.0" encoding="UTF-8"?><!DOCTYPE svg PUBLIC "-//W3C//DTD SVG 1.1//EN" "http://www.w3.org/Graphics/SVG/1.1/DTD/svg11.dtd"><svg xmlns="http://www.w3.org/2000/svg" xmlns:xlink="http://www.w3.org/1999/xlink" version="1.1" width="512" height="512" viewBox="0 0 512 512">    <path fill="#ffffff" transform="scale(1, -1) translate(0, -448)" glyph-name="delete-forever" unicode="&#xF5E8;" horiz-adv-x="512" d=" M128 42.6666666666667C128 19.2 147.2 0 170.6666666666667 0H341.3333333333333C364.8 0 384 19.2 384 42.6666666666667V298.6666666666667H128V42.6666666666667M180.48 194.56L210.56 224.6400000000001L256 179.4133333333334L301.2266666666667 224.6400000000001L331.3066666666667 194.56L286.08 149.3333333333334L331.3066666666667 104.1066666666667L301.2266666666667 74.0266666666666L256 119.2533333333333L210.7733333333333 74.0266666666666L180.6933333333333 104.1066666666667L225.92 149.3333333333334L180.48 194.56M330.6666666666667 362.6666666666667L309.3333333333333 384H202.6666666666667L181.3333333333333 362.6666666666667H106.6666666666667V320H405.3333333333333V362.6666666666667H330.6666666666667z" /></svg>