<?xml version="1.0" encoding="UTF-8"?><!DOCTYPE svg PUBLIC "-//W3C//DTD SVG 1.1//EN" "http://www.w3.org/Graphics/SVG/1.1/DTD/svg11.dtd"><svg xmlns="http://www.w3.org/2000/svg" xmlns:xlink="http://www.w3.org/1999/xlink" version="1.1" width="512" height="512" viewBox="0 0 512 512">    <path fill="#ffffff" transform="scale(1, -1) translate(0, -448)" glyph-name="cart-minus" unicode="&#xFD44;" horiz-adv-x="512" d=" M341.3333333333333 320V362.6666666666667H170.6666666666667V320M149.3333333333333 64C125.8666666666667 64 106.6666666666667 44.8000000000001 106.6666666666667 21.3333333333334S125.8666666666667 -21.3333333333333 149.3333333333333 -21.3333333333333S192 -2.1333333333333 192 21.3333333333334S172.8 64 149.3333333333333 64M362.6666666666667 64C339.2 64 320 44.8000000000001 320 21.3333333333334S339.2 -21.3333333333333 362.6666666666667 -21.3333333333333S405.3333333333333 -2.1333333333333 405.3333333333333 21.3333333333334S386.1333333333334 64 362.6666666666667 64M152.96 133.3333333333334L153.6 135.8933333333333L172.8 170.6666666666667H331.7333333333334C347.7333333333334 170.6666666666667 361.8133333333334 179.4133333333334 369.0666666666667 192.64L451.4133333333333 342.1866666666667L414.2933333333334 362.6666666666667H414.08L390.6133333333333 320L331.7333333333333 213.3333333333334H181.9733333333333L179.2 219.0933333333333L131.4133333333333 320L111.1466666666667 362.6666666666667L91.0933333333333 405.3333333333333H21.3333333333333V362.6666666666667H64L140.8 200.7466666666667L112 148.48C108.5866666666667 142.5066666666667 106.6666666666667 135.4666666666667 106.6666666666667 128C106.6666666666667 104.5333333333333 125.8666666666667 85.3333333333334 149.3333333333333 85.3333333333334H405.3333333333333V128H158.2933333333333C155.52 128 152.96 130.3466666666667 152.96 133.3333333333334z" /></svg>