<?xml version="1.0" encoding="UTF-8"?><!DOCTYPE svg PUBLIC "-//W3C//DTD SVG 1.1//EN" "http://www.w3.org/Graphics/SVG/1.1/DTD/svg11.dtd"><svg xmlns="http://www.w3.org/2000/svg" xmlns:xlink="http://www.w3.org/1999/xlink" version="1.1" width="512" height="512" viewBox="0 0 512 512">    <path fill="#ffffff" transform="scale(1, -1) translate(0, -448)" glyph-name="google-chrome" unicode="&#xF2AF;" horiz-adv-x="512" d=" M256 21.3333333333334L329.8133333333334 149.3333333333334H329.6C336.8533333333334 162.1333333333333 341.3333333333333 176.4266666666667 341.3333333333333 192C341.3333333333333 217.6 329.8133333333334 240.4266666666667 311.8933333333333 256H414.08C422.1866666666666 236.1600000000001 426.6666666666667 214.6133333333334 426.6666666666667 192C426.6666666666667 97.7066666666667 350.2933333333334 21.3333333333334 256 21.3333333333334M85.3333333333333 192C85.3333333333333 223.1466666666667 93.6533333333333 252.1600000000001 108.16 277.3333333333334L182.1866666666667 149.3333333333334H182.4C197.12 123.9466666666667 224 106.6666666666667 256 106.6666666666667C265.6 106.6666666666667 274.7733333333333 108.5866666666667 283.52 111.5733333333334L232.32 23.2533333333333C149.3333333333333 34.7733333333333 85.3333333333333 105.8133333333334 85.3333333333333 192M320 192C320 156.5866666666667 291.4133333333333 128 256 128S192 156.5866666666667 192 192S220.5866666666667 256 256 256S320 227.4133333333334 320 192M256 362.6666666666667C319.1466666666667 362.6666666666667 374.1866666666666 328.32 403.6266666666667 277.3333333333334H256C214.6133333333334 277.3333333333334 180.2666666666667 247.8933333333334 172.3733333333333 208.8533333333333L121.6 296.9600000000001C152.7466666666667 336.8533333333334 201.3866666666667 362.6666666666667 256 362.6666666666667M256 405.3333333333333C138.24 405.3333333333333 42.6666666666667 309.76 42.6666666666667 192S138.24 -21.3333333333333 256 -21.3333333333333S469.3333333333333 74.24 469.3333333333333 192S373.76 405.3333333333333 256 405.3333333333333z" /></svg>