<?xml version="1.0" encoding="UTF-8"?><!DOCTYPE svg PUBLIC "-//W3C//DTD SVG 1.1//EN" "http://www.w3.org/Graphics/SVG/1.1/DTD/svg11.dtd"><svg xmlns="http://www.w3.org/2000/svg" xmlns:xlink="http://www.w3.org/1999/xlink" version="1.1" width="512" height="512" viewBox="0 0 512 512">    <path fill="#ffffff" transform="scale(1, -1) translate(0, -448)" glyph-name="sina-weibo" unicode="&#xFADE;" horiz-adv-x="512" d=" M209.4933333333334 152.1066666666667C232.32 152.1066666666667 251.0933333333333 133.5466666666668 251.0933333333333 110.5066666666667S232.5333333333334 68.9066666666667 209.4933333333334 68.9066666666667S167.8933333333333 87.68 167.8933333333333 110.5066666666667C167.8933333333333 133.5466666666667 186.4533333333333 152.1066666666667 209.4933333333334 152.1066666666667M309.3333333333333 376.7466666666667L323.84 377.3866666666667C404.0533333333333 377.3866666666667 469.3333333333333 312.1066666666667 469.3333333333333 231.8933333333333L468.2666666666667 214.4L442.88 222.2933333333333L443.3066666666666 231.8933333333333C443.3066666666666 297.8133333333333 389.7599999999999 351.36 323.8399999999999 351.36L316.3733333333333 351.1466666666667L309.3333333333333 376.7466666666666M326.8266666666666 315.0933333333333C370.7733333333333 313.6 406.3999999999999 277.3333333333333 407.04 233.3866666666667L380.5866666666667 241.4933333333333C376.5333333333333 265.3866666666667 357.9733333333334 284.16 334.2933333333333 288L326.8266666666667 315.0933333333333M42.6666666666667 119.2533333333333C42.0266666666667 132.2666666666667 44.16 178.3466666666667 105.6 235.3066666666667C178.1333333333333 302.7200000000001 209.4933333333334 297.6 209.4933333333334 297.6S277.3333333333333 304 235.9466666666667 224.8533333333334H237.44C247.4666666666667 235.5200000000001 269.2266666666667 251.5200000000001 313.3866666666667 256C357.7600000000001 260.48 357.7600000000001 224 352 198.4C392.1066666666667 178.3466666666667 417.28 148.6933333333334 417.28 115.6266666666667C417.28 55.4666666666667 333.44 6.6133333333334 229.9733333333333 6.6133333333334H224C149.3333333333333 6.6133333333334 85.3333333333333 33.7066666666667 57.8133333333333 72.7466666666668C48 85.9733333333335 42.6666666666667 100.4800000000001 42.6666666666667 115.6266666666668V119.2533333333335M209.4933333333334 193.7066666666668C140.5866666666667 193.7066666666668 84.6933333333333 156.3733333333335 84.6933333333333 110.5066666666668S140.5866666666667 27.3066666666668 209.4933333333334 27.3066666666668C278.4 27.3066666666668 334.2933333333333 64.6400000000001 334.2933333333333 110.5066666666668S278.4 193.7066666666668 209.4933333333334 193.7066666666668z" /></svg>