<?xml version="1.0" encoding="UTF-8"?><!DOCTYPE svg PUBLIC "-//W3C//DTD SVG 1.1//EN" "http://www.w3.org/Graphics/SVG/1.1/DTD/svg11.dtd"><svg xmlns="http://www.w3.org/2000/svg" xmlns:xlink="http://www.w3.org/1999/xlink" version="1.1" width="512" height="512" viewBox="0 0 512 512">    <path fill="#ffffff" transform="scale(1, -1) translate(0, -448)" glyph-name="goodreads" unicode="&#xFD57;" horiz-adv-x="512" d=" M362.6666666666667 175.5733333333334C340.48 140.3733333333333 303.36 117.3333333333334 261.3333333333333 117.3333333333334C193.4933333333334 117.3333333333334 138.6666666666667 177.0666666666667 138.6666666666667 250.6666666666667S193.4933333333334 384 261.3333333333333 384C303.36 384 340.48 360.9600000000001 362.6666666666667 325.76V384H384V122.6666666666667C384 6.1866666666667 310.1866666666666 0 245.3333333333333 0C192 0 161.0666666666667 36.0533333333334 152.1066666666667 85.3333333333334H173.6533333333333C181.3333333333333 48 203.52 21.3333333333334 245.3333333333333 21.3333333333334C292.6933333333334 21.3333333333334 362.6666666666667 20.2666666666667 362.6666666666667 122.6666666666667V175.5733333333334M261.3333333333333 362.6666666666667C205.44 362.6666666666667 160 312.5333333333334 160 250.6666666666667S205.44 138.6666666666667 261.3333333333333 138.6666666666667S362.6666666666667 188.8 362.6666666666667 250.6666666666667S317.2266666666667 362.6666666666667 261.3333333333333 362.6666666666667z" /></svg>