<?xml version="1.0" encoding="UTF-8"?><!DOCTYPE svg PUBLIC "-//W3C//DTD SVG 1.1//EN" "http://www.w3.org/Graphics/SVG/1.1/DTD/svg11.dtd"><svg xmlns="http://www.w3.org/2000/svg" xmlns:xlink="http://www.w3.org/1999/xlink" version="1.1" width="512" height="512" viewBox="0 0 512 512">    <path fill="#ffffff" transform="scale(1, -1) translate(0, -448)" glyph-name="cancel" unicode="&#xF739;" horiz-adv-x="512" d=" M256 405.3333333333333C373.76 405.3333333333333 469.3333333333333 309.76 469.3333333333333 192S373.76 -21.3333333333333 256 -21.3333333333333S42.6666666666667 74.24 42.6666666666667 192S138.24 405.3333333333333 256 405.3333333333333M256 362.6666666666667C161.7066666666667 362.6666666666667 85.3333333333333 286.2933333333334 85.3333333333333 192C85.3333333333333 152.5333333333334 98.7733333333333 116.2666666666667 121.1733333333333 87.2533333333333L360.7466666666667 326.8266666666667C331.7333333333334 349.2266666666667 295.4666666666667 362.6666666666667 256 362.6666666666667M256 21.3333333333334C350.2933333333334 21.3333333333334 426.6666666666667 97.7066666666667 426.6666666666667 192C426.6666666666667 231.4666666666667 413.2266666666667 267.7333333333334 390.8266666666667 296.7466666666667L151.2533333333333 57.1733333333334C180.2666666666667 34.7733333333333 216.5333333333333 21.3333333333334 256 21.3333333333334z" /></svg>