<?xml version="1.0" encoding="UTF-8"?><!DOCTYPE svg PUBLIC "-//W3C//DTD SVG 1.1//EN" "http://www.w3.org/Graphics/SVG/1.1/DTD/svg11.dtd"><svg xmlns="http://www.w3.org/2000/svg" xmlns:xlink="http://www.w3.org/1999/xlink" version="1.1" width="512" height="512" viewBox="0 0 512 512">    <path fill="#ffffff" transform="scale(1, -1) translate(0, -448)" glyph-name="map-clock" unicode="&#xFCFA;" horiz-adv-x="512" d=" M320 192H352V101.3333333333334L413.0133333333333 65.28L397.0133333333333 39.2533333333333L320 85.3333333333334V192M490.6666666666666 106.6666666666667C490.6666666666666 24.1066666666667 423.8933333333333 -42.6666666666666 341.3333333333333 -42.6666666666666C277.3333333333333 -42.6666666666666 221.8666666666667 -1.7066666666666 200.96 55.4666666666667L170.6666666666667 66.1333333333334L56.7466666666667 21.9733333333334L53.3333333333333 21.3333333333334C47.36 21.3333333333334 42.6666666666667 26.0266666666666 42.6666666666667 32V354.56C42.6666666666667 359.4666666666667 45.8666666666667 363.3066666666667 50.3466666666667 364.8L170.6666666666667 405.3333333333333L298.6666666666667 360.5333333333334L412.5866666666667 405.3333333333333H416C421.9733333333334 405.3333333333333 426.6666666666667 400.64 426.6666666666667 394.6666666666667V229.3333333333334C465.28 202.6666666666667 490.6666666666666 157.44 490.6666666666666 106.6666666666667M192 106.6666666666667C192 174.2933333333334 237.0133333333333 231.4666666666667 298.6666666666667 249.8133333333334V317.6533333333333L170.6666666666667 362.6666666666667V109.0133333333333L192 101.5466666666666V106.6666666666667M341.3333333333333 213.3333333333334C282.4533333333333 213.3333333333334 234.6666666666667 165.5466666666667 234.6666666666667 106.6666666666667S282.4533333333333 0 341.3333333333333 0S448 47.7866666666668 448 106.6666666666667S400.2133333333333 213.3333333333334 341.3333333333333 213.3333333333334z" /></svg>