<?xml version="1.0" encoding="UTF-8"?><!DOCTYPE svg PUBLIC "-//W3C//DTD SVG 1.1//EN" "http://www.w3.org/Graphics/SVG/1.1/DTD/svg11.dtd"><svg xmlns="http://www.w3.org/2000/svg" xmlns:xlink="http://www.w3.org/1999/xlink" version="1.1" width="512" height="512" viewBox="0 0 512 512">    <path fill="#ffffff" transform="scale(1, -1) translate(0, -448)" glyph-name="keyboard-variant" unicode="&#xF313;" horiz-adv-x="512" d=" M128 106.6666666666667H384V64H128V106.6666666666667M128 170.6666666666667V128H42.6666666666667V170.6666666666667H128M149.3333333333333 128V170.6666666666667H213.3333333333333V128H149.3333333333333M234.6666666666667 128V170.6666666666667H277.3333333333333V128H234.6666666666667M298.6666666666667 128V170.6666666666667H362.6666666666667V128H298.6666666666667M384 128V170.6666666666667H469.3333333333333V128H384M42.6666666666667 234.6666666666667H106.6666666666667V192H42.6666666666667V234.6666666666667M405.3333333333333 192V234.6666666666667H469.3333333333333V192H405.3333333333333M384 192H341.3333333333333V234.6666666666667H384V192M170.6666666666667 192H128V234.6666666666667H170.6666666666667V192M256 192H192V234.6666666666667H256V192M320 192H277.3333333333333V234.6666666666667H320V192M42.6666666666667 256V298.6666666666667H85.3333333333333V256H42.6666666666667M106.6666666666667 256V298.6666666666667H149.3333333333333V256H106.6666666666667M170.6666666666667 256V298.6666666666667H213.3333333333333V256H170.6666666666667M234.6666666666667 256V298.6666666666667H277.3333333333333V256H234.6666666666667M298.6666666666667 256V298.6666666666667H341.3333333333333V256H298.6666666666667M362.6666666666667 256V298.6666666666667H469.3333333333333V256H362.6666666666667z" /></svg>