<?xml version="1.0" encoding="UTF-8"?><!DOCTYPE svg PUBLIC "-//W3C//DTD SVG 1.1//EN" "http://www.w3.org/Graphics/SVG/1.1/DTD/svg11.dtd"><svg xmlns="http://www.w3.org/2000/svg" xmlns:xlink="http://www.w3.org/1999/xlink" version="1.1" width="512" height="512" viewBox="0 0 512 512">    <path fill="#ffffff" transform="scale(1, -1) translate(0, -448)" glyph-name="pi-box" unicode="&#xF400;" horiz-adv-x="512" d=" M106.6666666666667 384C82.9866666666667 384 64 364.8 64 341.3333333333334V42.6666666666667C64 19.2 83.2 0 106.6666666666667 0H405.3333333333333C428.8 0 448 19.2 448 42.6666666666667V341.3333333333334C448 364.8 428.8 384 405.3333333333333 384M128 298.6666666666667H362.6666666666667V256H320V149.3333333333334C320 137.6 329.6 128 341.3333333333333 128S362.6666666666667 137.6 362.6666666666667 149.3333333333334H405.3333333333333C405.3333333333333 113.92 376.7466666666667 85.3333333333334 341.3333333333333 85.3333333333334S277.3333333333333 113.92 277.3333333333333 149.3333333333334V256H213.3333333333333V85.3333333333334H170.6666666666667V256H128" /></svg>