<?xml version="1.0" encoding="UTF-8"?><!DOCTYPE svg PUBLIC "-//W3C//DTD SVG 1.1//EN" "http://www.w3.org/Graphics/SVG/1.1/DTD/svg11.dtd"><svg xmlns="http://www.w3.org/2000/svg" xmlns:xlink="http://www.w3.org/1999/xlink" version="1.1" width="512" height="512" viewBox="0 0 512 512">    <path fill="#ffffff" transform="scale(1, -1) translate(0, -448)" glyph-name="gender-male" unicode="&#xF29D;" horiz-adv-x="512" d=" M192 256C219.52 256 245.3333333333333 247.2533333333334 266.0266666666667 232.32L375.04 341.3333333333334H277.3333333333333V384H448V213.3333333333334H405.3333333333333V311.2533333333334L296.32 202.6666666666667C311.2533333333334 181.3333333333334 320 155.7333333333334 320 128C320 57.3866666666667 262.6133333333334 0 192 0S64 57.3866666666667 64 128S121.3866666666667 256 192 256M192 213.3333333333334C144.8533333333333 213.3333333333334 106.6666666666667 175.1466666666667 106.6666666666667 128S144.8533333333333 42.6666666666667 192 42.6666666666667S277.3333333333333 80.8533333333334 277.3333333333333 128S239.1466666666667 213.3333333333334 192 213.3333333333334z" /></svg>