<?xml version="1.0" encoding="UTF-8"?><!DOCTYPE svg PUBLIC "-//W3C//DTD SVG 1.1//EN" "http://www.w3.org/Graphics/SVG/1.1/DTD/svg11.dtd"><svg xmlns="http://www.w3.org/2000/svg" xmlns:xlink="http://www.w3.org/1999/xlink" version="1.1" width="512" height="512" viewBox="0 0 512 512">    <path fill="#ffffff" transform="scale(1, -1) translate(0, -448)" glyph-name="blur-linear" unicode="&#xF0B6;" horiz-adv-x="512" d=" M277.3333333333333 85.3333333333334C289.0666666666667 85.3333333333334 298.6666666666667 94.9333333333333 298.6666666666667 106.6666666666667S289.0666666666667 128 277.3333333333333 128S256 118.4 256 106.6666666666667S265.6 85.3333333333334 277.3333333333333 85.3333333333334M277.3333333333333 170.6666666666667C289.0666666666667 170.6666666666667 298.6666666666667 180.2666666666667 298.6666666666667 192S289.0666666666667 213.3333333333334 277.3333333333333 213.3333333333334S256 203.7333333333334 256 192S265.6 170.6666666666667 277.3333333333333 170.6666666666667M277.3333333333333 256C289.0666666666667 256 298.6666666666667 265.6 298.6666666666667 277.3333333333334S289.0666666666667 298.6666666666667 277.3333333333333 298.6666666666667S256 289.0666666666667 256 277.3333333333334S265.6 256 277.3333333333333 256M362.6666666666667 181.3333333333334C368.64 181.3333333333334 373.3333333333333 186.0266666666667 373.3333333333333 192S368.64 202.6666666666667 362.6666666666667 202.6666666666667S352 197.9733333333333 352 192S356.6933333333333 181.3333333333334 362.6666666666667 181.3333333333334M362.6666666666667 266.6666666666667C368.64 266.6666666666667 373.3333333333333 271.36 373.3333333333333 277.3333333333334S368.64 288 362.6666666666667 288S352 283.3066666666667 352 277.3333333333334S356.6933333333333 266.6666666666667 362.6666666666667 266.6666666666667M64 384V341.3333333333334H448V384M362.6666666666667 96C368.64 96 373.3333333333333 100.6933333333333 373.3333333333333 106.6666666666667S368.64 117.3333333333334 362.6666666666667 117.3333333333334S352 112.64 352 106.6666666666667S356.6933333333333 96 362.6666666666667 96M192 85.3333333333334C203.7333333333334 85.3333333333334 213.3333333333333 94.9333333333333 213.3333333333333 106.6666666666667S203.7333333333334 128 192 128S170.6666666666667 118.4 170.6666666666667 106.6666666666667S180.2666666666667 85.3333333333334 192 85.3333333333334M106.6666666666667 160C124.3733333333333 160 138.6666666666667 174.2933333333334 138.6666666666667 192S124.3733333333333 224 106.6666666666667 224S74.6666666666667 209.7066666666667 74.6666666666667 192S88.96 160 106.6666666666667 160M106.6666666666667 245.3333333333334C124.3733333333333 245.3333333333334 138.6666666666667 259.6266666666667 138.6666666666667 277.3333333333334S124.3733333333333 309.3333333333334 106.6666666666667 309.3333333333334S74.6666666666667 295.04 74.6666666666667 277.3333333333334S88.96 245.3333333333334 106.6666666666667 245.3333333333334M64 0H448V42.6666666666667H64M192 256C203.7333333333334 256 213.3333333333333 265.6 213.3333333333333 277.3333333333334S203.7333333333334 298.6666666666667 192 298.6666666666667S170.6666666666667 289.0666666666667 170.6666666666667 277.3333333333334S180.2666666666667 256 192 256M192 170.6666666666667C203.7333333333334 170.6666666666667 213.3333333333333 180.2666666666667 213.3333333333333 192S203.7333333333334 213.3333333333334 192 213.3333333333334S170.6666666666667 203.7333333333334 170.6666666666667 192S180.2666666666667 170.6666666666667 192 170.6666666666667M106.6666666666667 74.6666666666667C124.3733333333333 74.6666666666667 138.6666666666667 88.96 138.6666666666667 106.6666666666667S124.3733333333333 138.6666666666667 106.6666666666667 138.6666666666667S74.6666666666667 124.3733333333333 74.6666666666667 106.6666666666667S88.96 74.6666666666667 106.6666666666667 74.6666666666667z" /></svg>