<?xml version="1.0" encoding="UTF-8"?><!DOCTYPE svg PUBLIC "-//W3C//DTD SVG 1.1//EN" "http://www.w3.org/Graphics/SVG/1.1/DTD/svg11.dtd"><svg xmlns="http://www.w3.org/2000/svg" xmlns:xlink="http://www.w3.org/1999/xlink" version="1.1" width="512" height="512" viewBox="0 0 512 512">    <path fill="#ffffff" transform="scale(1, -1) translate(0, -448)" glyph-name="car-esp" unicode="&#xFC25;" horiz-adv-x="512" d=" M113.28 320C148.2666666666667 359.2533333333334 199.2533333333333 384 256 384S363.7333333333334 359.2533333333334 398.7200000000001 320H332.3733333333334C309.9733333333334 333.44 283.9466666666667 341.3333333333334 256 341.3333333333334S202.0266666666667 333.44 179.6266666666667 320H113.28M307.2 243.2V277.3333333333334H238.9333333333333C220.16 277.3333333333334 204.8 261.9733333333334 204.8 243.2V209.0666666666667C204.8 190.2933333333334 220.16 174.9333333333334 238.9333333333333 174.9333333333334H273.0666666666666V140.8000000000001H204.8V106.6666666666667H273.0666666666667C291.8400000000001 106.6666666666667 307.2 122.0266666666667 307.2 140.8V174.9333333333333C307.2 193.7066666666667 291.84 209.0666666666667 273.0666666666667 209.0666666666667H238.9333333333334V243.2H307.2000000000001M392.5333333333334 277.3333333333334H324.2666666666667V106.6666666666667H358.4000000000001V174.9333333333333H392.5333333333334C411.3066666666668 174.9333333333333 426.6666666666668 190.2933333333334 426.6666666666668 209.0666666666667V243.2C426.6666666666668 261.9733333333334 411.3066666666669 277.3333333333334 392.5333333333334 277.3333333333334M392.5333333333334 209.0666666666667H358.4000000000001V243.2H392.5333333333334V209.0666666666667M187.7333333333334 243.2V277.3333333333334H85.3333333333333V106.6666666666667H187.7333333333334V140.8H119.4666666666667V174.9333333333333H187.7333333333334V209.0666666666667H119.4666666666667V243.2H187.7333333333334M332.3733333333334 64C309.9733333333334 50.5600000000001 283.9466666666667 42.6666666666667 256 42.6666666666667S202.0266666666667 50.5600000000001 179.6266666666667 64H113.28C148.2666666666667 24.7466666666667 199.2533333333333 0 256 0S363.7333333333334 24.7466666666667 398.7200000000001 64H332.3733333333334M437.3333333333333 373.3333333333334L414.2933333333334 350.2933333333334C454.8266666666667 309.3333333333334 480 253.6533333333334 480 192C480 130.1333333333333 454.8266666666667 74.6666666666667 414.2933333333334 33.7066666666667L437.3333333333333 10.6666666666667C483.4133333333333 57.3866666666667 512 121.3866666666667 512 192C512 262.6133333333334 483.4133333333333 326.6133333333334 437.3333333333333 373.3333333333334M97.7066666666667 350.2933333333334L74.6666666666667 373.3333333333334C28.5866666666667 326.6133333333334 0 262.6133333333334 0 192C0 121.3866666666667 28.5866666666667 57.3866666666667 74.6666666666667 10.6666666666667L97.7066666666667 33.7066666666667C57.1733333333333 74.6666666666667 32 130.1333333333333 32 192C32 253.6533333333334 57.1733333333333 309.3333333333334 97.7066666666667 350.2933333333334z" /></svg>