<?xml version="1.0" encoding="UTF-8"?><!DOCTYPE svg PUBLIC "-//W3C//DTD SVG 1.1//EN" "http://www.w3.org/Graphics/SVG/1.1/DTD/svg11.dtd"><svg xmlns="http://www.w3.org/2000/svg" xmlns:xlink="http://www.w3.org/1999/xlink" version="1.1" width="512" height="512" viewBox="0 0 512 512">    <path fill="#ffffff" transform="scale(1, -1) translate(0, -448)" glyph-name="weather-rainy" unicode="&#xF597;" horiz-adv-x="512" d=" M128 149.3333333333334C139.7333333333333 149.3333333333334 149.3333333333333 139.7333333333334 149.3333333333333 128S139.7333333333333 106.6666666666667 128 106.6666666666667C69.12 106.6666666666667 21.3333333333333 154.4533333333334 21.3333333333333 213.3333333333334S69.12 320 128 320C149.3333333333333 370.1333333333334 198.4 405.3333333333333 256 405.3333333333333C329.1733333333333 405.3333333333333 389.12 348.5866666666667 394.6666666666667 276.6933333333334L405.3333333333333 277.3333333333334C452.48 277.3333333333334 490.6666666666666 239.1466666666667 490.6666666666666 192S452.48 106.6666666666667 405.3333333333333 106.6666666666667H384C372.2666666666667 106.6666666666667 362.6666666666667 116.2666666666667 362.6666666666667 128S372.2666666666667 149.3333333333334 384 149.3333333333334H405.3333333333333C428.8 149.3333333333334 448 168.5333333333334 448 192S428.8 234.6666666666667 405.3333333333333 234.6666666666667H362.6666666666667V256C362.6666666666667 314.88 314.88 362.6666666666667 256 362.6666666666667C202.6666666666667 362.6666666666667 158.9333333333333 323.8400000000001 150.6133333333333 273.28C143.5733333333333 275.8400000000001 135.8933333333333 277.3333333333334 128 277.3333333333334C92.5866666666667 277.3333333333334 64 248.7466666666667 64 213.3333333333334S92.5866666666667 149.3333333333334 128 149.3333333333334M316.3733333333334 113.7066666666667C349.6533333333333 80.4266666666667 349.6533333333333 32 316.3733333333334 -1.7066666666666C299.7333333333334 -18.3466666666666 277.3333333333333 -21.3333333333333 256 -21.3333333333333S212.2666666666667 -18.3466666666666 195.6266666666667 -1.7066666666666C162.3466666666666 32 162.3466666666666 80.4266666666667 195.6266666666667 113.7066666666667L256 213.3333333333334L316.3733333333334 113.7066666666667M286.08 91.9466666666667L256 144L225.92 91.9466666666667C209.0666666666667 74.6666666666667 209.0666666666667 49.0666666666666 225.92 32C234.6666666666667 22.8266666666667 245.3333333333333 21.3333333333334 256 21.3333333333334C266.6666666666667 21.3333333333334 277.3333333333333 22.8266666666667 286.08 32C302.9333333333333 49.0666666666667 302.9333333333333 74.6666666666667 286.08 91.9466666666667z" /></svg>