<?xml version="1.0" encoding="UTF-8"?><!DOCTYPE svg PUBLIC "-//W3C//DTD SVG 1.1//EN" "http://www.w3.org/Graphics/SVG/1.1/DTD/svg11.dtd"><svg xmlns="http://www.w3.org/2000/svg" xmlns:xlink="http://www.w3.org/1999/xlink" version="1.1" width="512" height="512" viewBox="0 0 512 512">    <path fill="#ffffff" transform="scale(1, -1) translate(0, -448)" glyph-name="table-column-remove" unicode="&#xF4EE;" horiz-adv-x="512" d=" M85.3333333333333 405.3333333333333H234.6666666666667C258.1333333333334 405.3333333333333 277.3333333333333 386.1333333333334 277.3333333333333 362.6666666666667V21.3333333333334C277.3333333333333 -2.1333333333333 258.1333333333334 -21.3333333333333 234.6666666666667 -21.3333333333333H85.3333333333333C61.8666666666667 -21.3333333333333 42.6666666666667 -2.1333333333333 42.6666666666667 21.3333333333334V362.6666666666667C42.6666666666667 386.1333333333334 61.8666666666667 405.3333333333333 85.3333333333333 405.3333333333333M85.3333333333333 234.6666666666667V149.3333333333334H234.6666666666667V234.6666666666667H85.3333333333333M85.3333333333333 106.6666666666667V21.3333333333334H234.6666666666667V106.6666666666667H85.3333333333333M85.3333333333333 362.6666666666667V277.3333333333334H234.6666666666667V362.6666666666667H85.3333333333333M375.2533333333334 192L320 247.2533333333334L350.08 277.3333333333334L405.3333333333333 222.08L460.5866666666666 277.3333333333334L490.6666666666666 247.2533333333334L435.4133333333333 192L490.6666666666666 136.7466666666667L460.5866666666666 106.6666666666667L405.3333333333333 161.92L350.08 106.6666666666667L320 136.7466666666667L375.2533333333334 192z" /></svg>