<?xml version="1.0" encoding="UTF-8"?><!DOCTYPE svg PUBLIC "-//W3C//DTD SVG 1.1//EN" "http://www.w3.org/Graphics/SVG/1.1/DTD/svg11.dtd"><svg xmlns="http://www.w3.org/2000/svg" xmlns:xlink="http://www.w3.org/1999/xlink" version="1.1" width="512" height="512" viewBox="0 0 512 512">    <path fill="#ffffff" transform="scale(1, -1) translate(0, -448)" glyph-name="google-earth" unicode="&#xF2B7;" horiz-adv-x="512" d=" M256 189.0133333333333C236.5866666666667 218.24 216.32 239.36 194.9866666666667 251.9466666666667C173.6533333333333 264.7466666666667 155.0933333333333 269.2266666666667 138.6666666666667 265.6C123.0933333333333 261.76 109.6533333333333 253.0133333333333 98.9866666666667 238.9333333333334C89.6 226.3466666666667 85.3333333333333 212.0533333333334 85.3333333333333 196.0533333333334V192C85.3333333333333 175.36 87.68 158.2933333333334 93.0133333333333 141.0133333333333C94.9333333333333 135.68 96 135.68 97.0666666666667 141.0133333333333C99.6266666666667 154.24 105.8133333333333 164.0533333333334 115.4133333333333 170.0266666666667C125.2266666666667 176 138.0266666666667 175.7866666666666 154.0266666666667 169.6C170.0266666666667 163.2 185.6 149.3333333333334 200.96 129.0666666666667C228.2666666666667 92.3733333333333 260.2666666666667 69.9733333333333 296.9600000000001 62.08C344.32 55.2533333333333 379.9466666666667 70.4 404.0533333333334 106.6666666666667C410.6666666666667 119.68 416 130.9866666666667 418.9866666666667 141.0133333333333C420.9066666666667 147.6266666666667 420.0533333333334 148.2666666666667 416 142.9333333333333C405.9733333333334 129.7066666666667 392.5333333333333 120.96 375.4666666666667 117.3333333333334C358.4 113.0666666666667 338.9866666666667 117.3333333333334 317.0133333333333 128C295.04 140.16 274.7733333333333 160 256 189.0133333333333M362.0266666666667 273.92C328.7466666666667 324.0533333333334 292.6933333333334 352 254.0800000000001 359.04C223.3600000000001 363.7333333333334 190.0800000000001 353.0666666666667 154.0266666666667 327.04C149.3333333333334 323.6266666666667 147.2000000000001 321.92 147.4133333333334 321.4933333333334C147.8400000000001 321.0666666666667 150.6133333333334 322.3466666666667 155.9466666666668 324.9066666666667C209.2800000000001 350.9333333333334 260.6933333333334 323.6266666666667 309.9733333333334 242.9866666666667C320.6400000000001 225.0666666666667 331.7333333333334 210.9866666666667 343.4666666666668 200.96S366.0800000000001 184.96 376.5333333333334 183.04C386.7733333333335 181.3333333333334 396.1600000000002 181.3333333333334 404.4800000000001 183.8933333333333C412.8000000000001 186.6666666666667 420.2666666666667 190.9333333333333 426.6666666666668 196.9066666666667C426.6666666666668 209.7066666666667 424.7466666666668 224 420.0533333333334 238.9333333333334C409.3866666666668 236.3733333333334 399.7866666666668 237.2266666666667 391.4666666666668 241.4933333333333C383.1466666666668 245.3333333333333 373.3333333333334 256.64 362.0266666666668 273.92M256 405.3333333333333C314.6666666666667 405.3333333333333 364.8 384 406.4 342.4C448 300.8 469.3333333333333 250.6666666666667 469.3333333333333 192S448 83.2 406.4 41.6C364.8 0 314.6666666666667 -21.3333333333333 256 -21.3333333333333S147.2 0 105.6 41.6C64 83.2 42.6666666666667 133.3333333333334 42.6666666666667 192S64 300.8 105.6 342.4C147.2 384 197.3333333333333 405.3333333333333 256 405.3333333333333z" /></svg>