<?xml version="1.0" encoding="UTF-8"?><!DOCTYPE svg PUBLIC "-//W3C//DTD SVG 1.1//EN" "http://www.w3.org/Graphics/SVG/1.1/DTD/svg11.dtd"><svg xmlns="http://www.w3.org/2000/svg" xmlns:xlink="http://www.w3.org/1999/xlink" version="1.1" width="512" height="512" viewBox="0 0 512 512">    <path fill="#ffffff" transform="scale(1, -1) translate(0, -448)" glyph-name="google-plus-box" unicode="&#xF2BE;" horiz-adv-x="512" d=" M106.6666666666667 384H405.3333333333333C428.8 384 448 364.8 448 341.3333333333334V42.6666666666667C448 19.2 428.8 0 405.3333333333333 0H106.6666666666667C83.2 0 64 19.2 64 42.6666666666667V341.3333333333334C64 364.8 83.2 384 106.6666666666667 384M416 192H384V224H362.6666666666667V192H330.6666666666667V170.6666666666667H362.6666666666667V138.6666666666667H384V170.6666666666667H416V192M205.8666666666667 205.6533333333334V172.8000000000001H260.6933333333334C257.92 159.1466666666667 244.2666666666667 131.6266666666667 205.8666666666667 131.6266666666667C173.0133333333333 131.6266666666667 146.9866666666667 159.1466666666667 146.9866666666667 192.0000000000001S173.0133333333334 252.3733333333334 205.8666666666667 252.3733333333334C225.0666666666667 252.3733333333334 237.44 244.0533333333334 244.2666666666667 237.2266666666667L270.2933333333334 261.9733333333334C253.8666666666667 278.4000000000001 231.8933333333334 288 205.8666666666667 288C152.3200000000001 288 109.8666666666667 245.3333333333334 109.8666666666667 192S152.3200000000001 96 205.8666666666667 96C260.6933333333334 96 297.8133333333334 134.4 297.8133333333334 189.2266666666667C297.8133333333334 196.0533333333334 297.8133333333334 200.32 296.32 205.6533333333334H205.8666666666667z" /></svg>