<?xml version="1.0" encoding="UTF-8"?><!DOCTYPE svg PUBLIC "-//W3C//DTD SVG 1.1//EN" "http://www.w3.org/Graphics/SVG/1.1/DTD/svg11.dtd"><svg xmlns="http://www.w3.org/2000/svg" xmlns:xlink="http://www.w3.org/1999/xlink" version="1.1" width="512" height="512" viewBox="0 0 512 512">    <path fill="#ffffff" transform="scale(1, -1) translate(0, -448)" glyph-name="slackware" unicode="&#xF90A;" horiz-adv-x="512" d=" M159.36 81.28C157.2266666666667 65.0666666666666 151.04 59.52 132.0533333333333 59.52C112.4266666666667 59.52 103.8933333333333 68.48 102.6133333333333 88.1066666666667L98.3466666666667 156.8C98.3466666666667 172.5866666666667 103.8933333333333 180.2666666666667 125.0133333333333 180.2666666666667C153.8133333333333 180.2666666666667 150.1866666666667 159.1466666666667 162.9866666666667 138.6666666666667C177.7066666666667 114.7733333333333 213.3333333333333 99.2 262.6133333333333 99.2C323.6266666666666 99.2 362.6666666666667 125.0133333333333 362.6666666666667 158.5066666666667C362.6666666666667 187.0933333333333 338.9866666666667 205.0133333333333 295.4666666666667 209.92L245.3333333333333 215.68C153.8133333333333 225.7066666666667 108.8 251.9466666666666 108.8 306.7733333333333C108.8 361.1733333333334 171.9466666666667 405.3333333333333 260.48 405.3333333333333C288 405.3333333333333 315.9466666666667 399.1466666666667 347.52 389.12C347.52 399.7866666666667 353.7066666666666 403.2 369.0666666666667 403.2C393.8133333333334 403.2 395.7333333333334 397.0133333333333 397.2266666666667 382.2933333333334L402.1333333333334 322.5600000000001C402.1333333333334 309.3333333333334 392.32 302.2933333333334 376.1066666666667 302.2933333333334C348.8 302.2933333333334 353.0666666666667 322.5600000000001 338.3466666666667 339.8400000000001S294.1866666666667 368.4266666666667 257.7066666666667 368.4266666666667C201.3866666666667 368.4266666666667 164.2666666666667 343.68 164.2666666666667 309.3333333333334C164.2666666666667 281.6 190.2933333333333 265.3866666666667 242.7733333333334 259.8400000000001L297.6 254.2933333333334C377.6 245.3333333333334 418.3466666666667 215.04 418.3466666666667 163.6266666666667C418.3466666666667 103.04 356.48 62.2933333333334 260.48 62.2933333333334C225.28 62.2933333333334 193.7066666666666 68.9066666666667 159.36 81.2800000000001M21.3333333333333 106.6666666666667H42.6666666666667V0H490.6666666666666V-21.3333333333333H21.3333333333333V106.6666666666667z" /></svg>