<?xml version="1.0" encoding="UTF-8"?><!DOCTYPE svg PUBLIC "-//W3C//DTD SVG 1.1//EN" "http://www.w3.org/Graphics/SVG/1.1/DTD/svg11.dtd"><svg xmlns="http://www.w3.org/2000/svg" xmlns:xlink="http://www.w3.org/1999/xlink" version="1.1" width="512" height="512" viewBox="0 0 512 512">    <path fill="#ffffff" transform="scale(1, -1) translate(0, -448)" glyph-name="invert-colors-off" unicode="&#xFE2D;" horiz-adv-x="512" d=" M440.5333333333333 2.7733333333333L390.4 53.3333333333334L256 187.0933333333334L180.0533333333333 263.2533333333334L149.3333333333333 293.3333333333334L91.0933333333333 352L64 324.9066666666667L123.3066666666667 265.6C68.9066666666667 198.6133333333334 72.96 100.0533333333334 135.2533333333333 37.5466666666667C168.5333333333333 4.2666666666667 212.2666666666667 -12.3733333333333 256 -12.3733333333333C294.1866666666666 -12.3733333333333 332.16 0 363.3066666666667 25.6000000000001L420.9066666666667 -31.9999999999999L448 -4.9066666666666L440.5333333333333 2.7733333333333M256 30.08C221.8666666666667 30.08 189.6533333333333 43.3066666666667 165.5466666666667 67.6266666666667C141.2266666666667 91.9466666666667 128 123.9466666666667 128 158.0800000000001C128 186.24 137.1733333333333 213.3333333333334 153.8133333333333 234.6666666666667L256 132.9066666666667V30.08M256 339.2000000000001V241.4933333333334L410.6666666666667 86.6133333333334C439.8933333333333 149.3333333333334 428.5866666666667 226.7733333333334 376.5333333333333 278.8266666666667L256 399.5733333333333L177.0666666666667 320.64L207.1466666666667 290.56L256 339.2000000000001z" /></svg>