<?xml version="1.0" encoding="UTF-8"?><!DOCTYPE svg PUBLIC "-//W3C//DTD SVG 1.1//EN" "http://www.w3.org/Graphics/SVG/1.1/DTD/svg11.dtd"><svg xmlns="http://www.w3.org/2000/svg" xmlns:xlink="http://www.w3.org/1999/xlink" version="1.1" width="512" height="512" viewBox="0 0 512 512">    <path fill="#ffffff" transform="scale(1, -1) translate(0, -448)" glyph-name="account-star-outline" unicode="&#xFBC4;" horiz-adv-x="512" d=" M320 362.6666666666667C367.1466666666667 362.6666666666667 405.3333333333333 324.48 405.3333333333333 277.3333333333334S367.1466666666667 192 320 192S234.6666666666667 230.1866666666667 234.6666666666667 277.3333333333334S272.8533333333333 362.6666666666667 320 362.6666666666667M320 322.1333333333334C295.2533333333334 322.1333333333334 275.2 302.0800000000001 275.2 277.3333333333334C275.2 252.5866666666667 295.2533333333334 232.5333333333334 320 232.5333333333334C344.7466666666667 232.5333333333334 364.8 252.5866666666667 364.8 277.3333333333334C364.8 302.0800000000001 344.7466666666667 322.1333333333334 320 322.1333333333334M320 170.6666666666667C376.9600000000001 170.6666666666667 490.6666666666666 142.2933333333334 490.6666666666666 85.3333333333334V21.3333333333334H149.3333333333333V85.3333333333334C149.3333333333333 142.2933333333334 263.04 170.6666666666667 320 170.6666666666667M320 130.1333333333333C256 130.1333333333333 189.8666666666667 98.9866666666667 189.8666666666667 85.3333333333334V61.8666666666667H450.1333333333334V85.3333333333334C450.1333333333334 98.9866666666667 383.36 130.1333333333333 320 130.1333333333333M106.6666666666667 164.6933333333334L53.3333333333333 132.9066666666667L67.84 192.8533333333334L21.3333333333333 232.96L82.56 238.2933333333334L106.6666666666667 294.6133333333334L130.3466666666667 238.2933333333334L192 232.96L145.0666666666667 192.8533333333333L158.9333333333333 132.9066666666667L106.6666666666667 164.6933333333334z" /></svg>