<?xml version="1.0" encoding="UTF-8"?><!DOCTYPE svg PUBLIC "-//W3C//DTD SVG 1.1//EN" "http://www.w3.org/Graphics/SVG/1.1/DTD/svg11.dtd"><svg xmlns="http://www.w3.org/2000/svg" xmlns:xlink="http://www.w3.org/1999/xlink" version="1.1" width="512" height="512" viewBox="0 0 512 512">    <path fill="#ffffff" transform="scale(1, -1) translate(0, -448)" glyph-name="card-bulleted-settings" unicode="&#xFB50;" horiz-adv-x="512" d=" M192 -21.3333333333333V-64H149.3333333333333V-21.3333333333333H192M277.3333333333333 -21.3333333333333V-64H234.6666666666667V-21.3333333333333H277.3333333333333M362.6666666666667 -21.3333333333333V-64H320V-21.3333333333333H362.6666666666667M426.6666666666667 21.3333333333334H85.3333333333333C61.8666666666667 21.3333333333334 42.6666666666667 40.5333333333333 42.6666666666667 64V320C42.6666666666667 343.4666666666667 61.8666666666667 362.6666666666667 85.3333333333333 362.6666666666667H426.6666666666667C450.1333333333334 362.6666666666667 469.3333333333333 343.4666666666667 469.3333333333333 320V64C469.3333333333333 40.5333333333333 450.1333333333334 21.3333333333334 426.6666666666667 21.3333333333334M234.6666666666667 170.6666666666667H192V128H234.6666666666667V170.6666666666667M405.3333333333333 170.6666666666667H277.3333333333333V128H405.3333333333333V170.6666666666667M149.3333333333333 256H106.6666666666667V213.3333333333334H149.3333333333333V256M405.3333333333333 256H192V213.3333333333334H405.3333333333333V256z" /></svg>