<?xml version="1.0" encoding="UTF-8"?><!DOCTYPE svg PUBLIC "-//W3C//DTD SVG 1.1//EN" "http://www.w3.org/Graphics/SVG/1.1/DTD/svg11.dtd"><svg xmlns="http://www.w3.org/2000/svg" xmlns:xlink="http://www.w3.org/1999/xlink" version="1.1" width="512" height="512" viewBox="0 0 512 512">    <path fill="#ffffff" transform="scale(1, -1) translate(0, -448)" glyph-name="racing-helmet" unicode="&#xFD6F;" horiz-adv-x="512" d=" M46.9333333333333 209.0666666666667C42.6666666666667 157.8666666666667 57.6 115.2000000000001 89.6 76.8000000000001C121.6 38.4 164.2666666666667 21.3333333333334 215.4666666666667 21.3333333333334H428.8C439.4666666666667 21.3333333333334 450.1333333333334 25.6 458.6666666666666 34.1333333333334C467.1999999999999 42.6666666666667 471.4666666666667 53.3333333333334 471.4666666666667 64V81.0666666666667C471.4666666666667 93.8666666666667 469.3333333333333 108.8000000000001 467.2 128H292.2666666666667C270.9333333333334 128 253.8666666666667 136.5333333333334 238.9333333333334 151.4666666666667C224.0000000000001 166.4 215.4666666666667 185.6 215.4666666666667 204.8C215.4666666666667 238.9333333333334 230.4000000000001 262.4000000000001 262.4000000000001 275.2L364.8 320C328.5333333333334 345.6 285.8666666666667 360.5333333333334 236.8 362.6666666666667C189.8666666666667 366.9333333333334 147.2 352 108.8 322.1333333333334C70.4 292.2666666666667 51.2 256 46.9333333333333 209.0666666666667M258.1333333333334 204.8000000000001C258.1333333333334 196.2666666666667 262.4 187.7333333333334 268.8 181.3333333333334C275.2000000000001 174.9333333333334 283.7333333333334 170.6666666666668 292.2666666666667 170.6666666666668H458.6666666666666C445.8666666666666 217.6000000000001 426.6666666666667 256.0000000000001 398.9333333333333 285.8666666666668L279.4666666666667 236.8000000000001C264.5333333333333 232.5333333333334 258.1333333333334 221.8666666666667 258.1333333333334 204.8000000000001z" /></svg>