<?xml version="1.0" encoding="UTF-8"?><!DOCTYPE svg PUBLIC "-//W3C//DTD SVG 1.1//EN" "http://www.w3.org/Graphics/SVG/1.1/DTD/svg11.dtd"><svg xmlns="http://www.w3.org/2000/svg" xmlns:xlink="http://www.w3.org/1999/xlink" version="1.1" width="512" height="512" viewBox="0 0 512 512">    <path fill="#ffffff" transform="scale(1, -1) translate(0, -448)" glyph-name="watch-vibrate-off" unicode="&#xFCB6;" horiz-adv-x="512" d=" M0 256H42.6666666666667V128H0V256M256 288C308.6933333333334 288 351.36 244.6933333333334 351.1466666666667 192C350.9333333333333 183.8933333333333 349.8666666666667 175.7866666666667 347.7333333333334 167.8933333333334L373.3333333333333 142.72C379.9466666666666 158.2933333333334 384 174.9333333333334 384 192.0000000000001C384 231.0400000000001 366.08 267.9466666666667 335.36 292.0533333333334L320 384H192L183.2533333333333 333.0133333333333L231.68 284.5866666666667C239.5733333333333 286.9333333333334 247.68 288 256 288M448 85.3333333333334V298.6666666666667H405.3333333333333V110.9333333333333L430.9333333333333 85.3333333333334H448M352 109.6533333333334L471.6799999999999 -9.8133333333333L444.5866666666667 -36.9066666666666L331.7333333333334 75.9466666666667L320 0H192L176.4266666666667 91.3066666666667C124.8 131.84 112.4266666666667 204.8000000000001 147.4133333333333 260.2666666666667L23.68 384L50.9866666666667 411.0933333333334L172.5866666666667 289.2800000000001L195.6266666666667 266.6666666666667L329.3866666666667 132.48L352 109.6533333333334M299.7333333333334 107.9466666666667L171.7333333333334 235.9466666666667C164.2666666666667 222.5066666666667 160 207.36 160 192C160 139.3066666666667 203.3066666666667 96.64 256 96.8533333333334C271.36 96.8533333333334 286.2933333333333 100.6933333333333 299.7333333333334 107.9466666666667M469.3333333333333 256V128H512V256H469.3333333333333M64 85.3333333333334H106.6666666666667V298.6666666666667H64V85.3333333333334z" /></svg>