<?xml version="1.0" encoding="UTF-8"?><!DOCTYPE svg PUBLIC "-//W3C//DTD SVG 1.1//EN" "http://www.w3.org/Graphics/SVG/1.1/DTD/svg11.dtd"><svg xmlns="http://www.w3.org/2000/svg" xmlns:xlink="http://www.w3.org/1999/xlink" version="1.1" width="512" height="512" viewBox="0 0 512 512">    <path fill="#ffffff" transform="scale(1, -1) translate(0, -448)" glyph-name="bomb-off" unicode="&#xF6C4;" horiz-adv-x="512" d=" M309.3333333333333 389.3333333333333C270.9333333333333 389.3333333333333 240 358.4 240 320H213.3333333333333V292.48C198.6133333333334 288 184.96 281.3866666666667 172.3733333333333 273.0666666666667L379.52 65.92C396.3733333333333 90.4533333333333 405.3333333333333 119.68 405.3333333333333 149.3333333333334C405.3333333333333 216.96 360.32 274.1333333333334 298.6666666666667 292.48V320H272C272 340.6933333333334 288.64 357.3333333333334 309.3333333333333 357.3333333333334S346.6666666666667 340.6933333333334 346.6666666666667 320C346.6666666666667 293.5466666666667 368.2133333333334 272 394.6666666666667 272S442.4533333333333 293.5466666666667 442.4533333333333 320V336H410.6666666666667V320C410.6666666666667 311.04 403.4133333333333 304 394.6666666666667 304C385.7066666666666 304 378.6666666666667 311.04 378.6666666666667 320C378.6666666666667 358.4 347.52 389.3333333333333 309.3333333333333 389.3333333333333M72.7466666666667 312.32L42.6666666666667 282.24L118.4 206.5066666666667C110.9333333333333 189.0133333333333 106.6666666666667 169.8133333333334 106.6666666666667 149.3333333333334C106.6666666666667 66.9866666666667 173.44 0 256 0C275.6266666666667 0 295.04 4.0533333333334 313.1733333333333 11.7333333333333L388.9066666666667 -64L418.9866666666667 -33.92L72.7466666666667 312.32z" /></svg>