<?xml version="1.0" encoding="UTF-8"?><!DOCTYPE svg PUBLIC "-//W3C//DTD SVG 1.1//EN" "http://www.w3.org/Graphics/SVG/1.1/DTD/svg11.dtd"><svg xmlns="http://www.w3.org/2000/svg" xmlns:xlink="http://www.w3.org/1999/xlink" version="1.1" width="512" height="512" viewBox="0 0 512 512">    <path fill="#ffffff" transform="scale(1, -1) translate(0, -448)" glyph-name="sort-variant-lock" unicode="&#xFCA9;" horiz-adv-x="512" d=" M64 170.6666666666667V213.3333333333334H320V170.6666666666667H64M64 320H448V277.3333333333334H64V320M64 64V106.6666666666667H192V64H64M469.3333333333333 -21.3333333333333H298.6666666666667V64H320V85.3333333333334C320 120.7466666666667 348.5866666666667 149.3333333333334 384 149.3333333333334S448 120.7466666666667 448 85.3333333333334V64H469.3333333333333V-21.3333333333333M384 106.6666666666667C372.2666666666667 106.6666666666667 362.6666666666667 97.0666666666667 362.6666666666667 85.3333333333334V64H405.3333333333333V85.3333333333334C405.3333333333333 97.0666666666667 395.7333333333334 106.6666666666667 384 106.6666666666667z" /></svg>