<?xml version="1.0" encoding="UTF-8"?><!DOCTYPE svg PUBLIC "-//W3C//DTD SVG 1.1//EN" "http://www.w3.org/Graphics/SVG/1.1/DTD/svg11.dtd"><svg xmlns="http://www.w3.org/2000/svg" xmlns:xlink="http://www.w3.org/1999/xlink" version="1.1" width="512" height="512" viewBox="0 0 512 512">    <path fill="#ffffff" transform="scale(1, -1) translate(0, -448)" glyph-name="rabbit" unicode="&#xF906;" horiz-adv-x="512" d=" M385.0666666666667 0L326.8266666666667 101.1200000000001C326.8266666666667 138.0266666666668 304 161.7066666666667 276.2666666666667 161.7066666666667C257.0666666666666 161.7066666666667 240.4266666666667 151.0400000000001 231.8933333333333 135.2533333333334C238.9333333333333 139.3066666666667 247.2533333333334 141.4400000000001 256 141.4400000000001C283.7333333333334 141.4400000000001 306.3466666666667 118.8266666666667 306.3466666666667 91.0933333333334C306.3466666666667 63.1466666666667 283.9466666666666 40.3200000000001 256 40.3200000000001H326.4V0H144.8533333333333C139.7333333333333 0 134.4 1.92 130.56 5.9733333333334C122.6666666666667 13.8666666666667 122.6666666666667 26.6666666666667 130.56 34.5600000000001L141.2266666666667 45.2266666666667C133.9733333333333 48.4266666666667 128 53.3333333333334 122.0266666666667 58.4533333333334C117.3333333333333 47.7866666666668 106.6666666666667 40.3200000000001 94.2933333333333 40.3200000000001C77.6533333333333 40.3200000000001 64 53.9733333333334 64 70.8266666666667C64 87.4666666666667 77.6533333333333 101.1200000000001 94.2933333333333 101.1200000000001L104.32 99.4133333333334V141.4400000000001C104.32 197.3333333333334 149.3333333333333 242.5600000000001 205.44 242.5600000000001H205.8666666666666C251.0933333333333 242.3466666666668 286.2933333333333 224.6400000000001 286.2933333333333 252.5866666666668C286.2933333333333 272.4266666666668 290.56 280.3200000000001 297.8133333333333 291.4133333333335C282.2399999999999 298.6666666666668 264.5333333333333 303.1466666666668 245.9733333333333 303.1466666666668C234.6666666666667 303.1466666666668 225.7066666666666 312.1066666666668 225.7066666666666 323.4133333333335C225.7066666666666 332.5866666666668 231.68 340.2666666666668 240 342.8266666666668L225.7066666666666 343.6800000000001C214.6133333333333 343.6800000000001 205.44 352.6400000000001 205.44 363.7333333333335C205.44 375.0400000000002 214.6133333333333 384.0000000000001 225.7066666666666 384.0000000000001H245.9733333333333C290.7733333333333 384.0000000000001 330.0266666666666 359.4666666666668 351.1466666666666 323.2000000000002L357.12 323.4133333333335C372.2666666666667 323.4133333333335 386.3466666666667 318.5066666666668 397.8666666666666 310.4000000000001L407.4666666666666 302.2933333333335C453.7599999999999 260.6933333333335 447.9999999999999 232.5333333333335 447.9999999999999 232.3200000000002C447.9999999999999 205.0133333333335 425.3866666666666 182.6133333333335 397.8666666666666 182.6133333333335L387.4133333333333 183.6800000000002V181.9733333333335C387.4133333333333 158.2933333333335 377.1733333333333 137.1733333333335 361.1733333333333 122.2400000000002L431.7866666666667 0H385.0666666666666M387.4133333333333 282.88C376.1066666666666 282.88 367.1466666666666 273.92 367.1466666666666 262.8266666666667C367.1466666666666 251.5200000000001 376.1066666666667 242.5600000000001 387.4133333333333 242.5600000000001C398.5066666666666 242.5600000000001 407.6799999999999 251.5200000000001 407.6799999999999 262.8266666666667C407.6799999999999 273.92 398.5066666666666 282.88 387.4133333333333 282.88z" /></svg>