<?xml version="1.0" encoding="UTF-8"?><!DOCTYPE svg PUBLIC "-//W3C//DTD SVG 1.1//EN" "http://www.w3.org/Graphics/SVG/1.1/DTD/svg11.dtd"><svg xmlns="http://www.w3.org/2000/svg" xmlns:xlink="http://www.w3.org/1999/xlink" version="1.1" width="512" height="512" viewBox="0 0 512 512">    <path fill="#ffffff" transform="scale(1, -1) translate(0, -448)" glyph-name="tab-unselected" unicode="&#xF4EA;" horiz-adv-x="512" d=" M21.3333333333333 256H64V298.6666666666667H21.3333333333333V256M21.3333333333333 170.6666666666667H64V213.3333333333334H21.3333333333333V170.6666666666667M21.3333333333333 341.3333333333334H64V384C40.5333333333333 384 21.3333333333333 364.8 21.3333333333333 341.3333333333334M192 0H234.6666666666667V42.6666666666667H192V0M21.3333333333333 85.3333333333334H64V128H21.3333333333333V85.3333333333334M64 0V42.6666666666667H21.3333333333333C21.3333333333333 19.2 40.5333333333333 0 64 0M448 384H277.3333333333333V256H490.6666666666666V341.3333333333334C490.6666666666666 364.8 471.4666666666667 384 448 384M448 85.3333333333334H490.6666666666666V128H448V85.3333333333334M192 341.3333333333334H234.6666666666667V384H192V341.3333333333334M106.6666666666667 0H149.3333333333333V42.6666666666667H106.6666666666667V0M106.6666666666667 341.3333333333334H149.3333333333333V384H106.6666666666667V341.3333333333334M448 0C471.4666666666667 0 490.6666666666666 19.2 490.6666666666666 42.6666666666667H448V0M448 170.6666666666667H490.6666666666666V213.3333333333334H448V170.6666666666667M277.3333333333333 0H320V42.6666666666667H277.3333333333333V0M362.6666666666667 0H405.3333333333333V42.6666666666667H362.6666666666667V0z" /></svg>