<?xml version="1.0" encoding="UTF-8"?><!DOCTYPE svg PUBLIC "-//W3C//DTD SVG 1.1//EN" "http://www.w3.org/Graphics/SVG/1.1/DTD/svg11.dtd"><svg xmlns="http://www.w3.org/2000/svg" xmlns:xlink="http://www.w3.org/1999/xlink" version="1.1" width="512" height="512" viewBox="0 0 512 512">    <path fill="#ffffff" transform="scale(1, -1) translate(0, -448)" glyph-name="calendar-clock" unicode="&#xF0F0;" horiz-adv-x="512" d=" M320 170.6666666666667H352V110.5066666666667L404.0533333333334 80.4266666666667L388.0533333333334 52.6933333333333L320 91.9466666666667V170.6666666666667M405.3333333333333 277.3333333333334H106.6666666666667V42.6666666666667H206.2933333333333C197.12 62.08 192 83.84 192 106.6666666666667C192 189.2266666666667 258.7733333333333 256 341.3333333333333 256C364.16 256 385.92 250.88 405.3333333333333 241.7066666666667V277.3333333333334M106.6666666666667 0C82.9866666666667 0 64 19.2 64 42.6666666666667V341.3333333333334C64 365.0133333333333 82.9866666666667 384 106.6666666666667 384H128V426.6666666666667H170.6666666666667V384H341.3333333333333V426.6666666666667H384V384H405.3333333333333C428.8 384 448 364.8 448 341.3333333333334V211.2C474.4533333333333 184.3200000000001 490.6666666666666 147.4133333333334 490.6666666666666 106.6666666666667C490.6666666666666 24.1066666666667 423.8933333333333 -42.6666666666666 341.3333333333333 -42.6666666666666C300.5866666666667 -42.6666666666666 263.68 -26.4533333333333 236.8 0H106.6666666666667M341.3333333333333 210.1333333333333C284.16 210.1333333333333 237.8666666666667 163.84 237.8666666666667 106.6666666666667C237.8666666666667 49.4933333333333 284.16 3.2 341.3333333333333 3.2C398.5066666666667 3.2 444.8 49.4933333333333 444.8 106.6666666666667C444.8 163.84 398.5066666666667 210.1333333333333 341.3333333333333 210.1333333333333z" /></svg>