<?xml version="1.0" encoding="UTF-8"?><!DOCTYPE svg PUBLIC "-//W3C//DTD SVG 1.1//EN" "http://www.w3.org/Graphics/SVG/1.1/DTD/svg11.dtd"><svg xmlns="http://www.w3.org/2000/svg" xmlns:xlink="http://www.w3.org/1999/xlink" version="1.1" width="512" height="512" viewBox="0 0 512 512">    <path fill="#ffffff" transform="scale(1, -1) translate(0, -448)" glyph-name="taco" unicode="&#xF761;" horiz-adv-x="512" d=" M405.3333333333333 64H106.6666666666667C59.52 64 21.3333333333333 102.1866666666667 21.3333333333333 149.3333333333334C21.3333333333333 243.6266666666667 97.7066666666667 320 192 320C214.6133333333334 320 236.16 315.52 256 307.6266666666667C275.84 315.52 297.3866666666667 320 320 320C414.2933333333334 320 490.6666666666666 243.6266666666667 490.6666666666666 149.3333333333334C490.6666666666666 102.1866666666667 452.48 64 405.3333333333333 64M64 149.3333333333334C64 125.8666666666667 83.2 106.6666666666667 106.6666666666667 106.6666666666667S149.3333333333333 125.8666666666667 149.3333333333333 149.3333333333334C149.3333333333333 199.8933333333334 171.3066666666667 245.3333333333334 206.2933333333333 276.48L192 277.3333333333334C121.3866666666667 277.3333333333334 64 219.9466666666667 64 149.3333333333334M405.3333333333333 106.6666666666667C428.8 106.6666666666667 448 125.8666666666667 448 149.3333333333334C448 219.9466666666667 390.6133333333333 277.3333333333334 320 277.3333333333334S192 219.9466666666667 192 149.3333333333334C192 133.76 187.9466666666667 119.2533333333333 180.48 106.6666666666667H405.3333333333333z" /></svg>