<?xml version="1.0" encoding="UTF-8"?><!DOCTYPE svg PUBLIC "-//W3C//DTD SVG 1.1//EN" "http://www.w3.org/Graphics/SVG/1.1/DTD/svg11.dtd"><svg xmlns="http://www.w3.org/2000/svg" xmlns:xlink="http://www.w3.org/1999/xlink" version="1.1" width="512" height="512" viewBox="0 0 512 512">    <path fill="#ffffff" transform="scale(1, -1) translate(0, -448)" glyph-name="printer-wireless" unicode="&#xFA0A;" horiz-adv-x="512" d=" M105.1733333333333 364.3733333333334L135.2533333333333 334.2933333333334C201.8133333333333 401.0666666666667 309.9733333333333 401.0666666666667 376.7466666666667 334.2933333333334L406.8266666666667 364.3733333333334C323.6266666666667 448 188.5866666666667 448 105.1733333333333 364.3733333333334M165.5466666666667 304L195.6266666666667 273.92C228.9066666666667 307.2000000000001 282.88 307.2000000000001 316.3733333333334 273.92L346.4533333333333 304C296.5333333333333 353.92 215.4666666666666 353.92 165.5466666666666 304M405.3333333333333 149.3333333333334C393.6 149.3333333333334 384 158.9333333333333 384 170.6666666666667S393.6 192 405.3333333333333 192S426.6666666666667 182.4 426.6666666666667 170.6666666666667S417.0666666666667 149.3333333333334 405.3333333333333 149.3333333333334M341.3333333333333 21.3333333333334H170.6666666666667V128H341.3333333333333V21.3333333333334M405.3333333333333 234.6666666666667H106.6666666666667C71.2533333333333 234.6666666666667 42.6666666666667 206.08 42.6666666666667 170.6666666666667V64H128V-21.3333333333333H384V64H469.3333333333333V170.6666666666667C469.3333333333333 206.08 440.7466666666667 234.6666666666667 405.3333333333333 234.6666666666667z" /></svg>