<?xml version="1.0" encoding="UTF-8"?><!DOCTYPE svg PUBLIC "-//W3C//DTD SVG 1.1//EN" "http://www.w3.org/Graphics/SVG/1.1/DTD/svg11.dtd"><svg xmlns="http://www.w3.org/2000/svg" xmlns:xlink="http://www.w3.org/1999/xlink" version="1.1" width="512" height="512" viewBox="0 0 512 512">    <path fill="#ffffff" transform="scale(1, -1) translate(0, -448)" glyph-name="shield-airplane" unicode="&#xF6BA;" horiz-adv-x="512" d=" M256 426.6666666666667L64 341.3333333333334V213.3333333333334C64 94.9333333333333 145.92 -15.7866666666667 256 -42.6666666666666C366.08 -15.7866666666666 448 94.9333333333333 448 213.3333333333334V341.3333333333334L256 426.6666666666667M256 326.8266666666667C266.6666666666667 326.8266666666667 276.2666666666667 317.6533333333334 276.2666666666667 306.56V232.32L384 165.12V138.0266666666667L276.2666666666667 171.7333333333334V97.7066666666667L303.1466666666667 77.4400000000001V57.1733333333334L256 70.8266666666667L208.8533333333333 57.1733333333334V77.44L235.7333333333333 97.7066666666667V171.7333333333334L128 138.0266666666667V165.12L235.7333333333334 232.32V306.56C235.7333333333334 317.6533333333334 245.3333333333333 326.8266666666667 256 326.8266666666667z" /></svg>