<?xml version="1.0" encoding="UTF-8"?><!DOCTYPE svg PUBLIC "-//W3C//DTD SVG 1.1//EN" "http://www.w3.org/Graphics/SVG/1.1/DTD/svg11.dtd"><svg xmlns="http://www.w3.org/2000/svg" xmlns:xlink="http://www.w3.org/1999/xlink" version="1.1" width="512" height="512" viewBox="0 0 512 512">    <path fill="#ffffff" transform="scale(1, -1) translate(0, -448)" glyph-name="pen-lock" unicode="&#xFDBE;" horiz-adv-x="512" d=" M462.9333333333333 298.6666666666667C456.5333333333333 290.1333333333334 448 283.7333333333334 448 277.3333333333334C448 270.9333333333334 454.4 264.5333333333334 460.8 256C471.4666666666667 245.3333333333334 482.1333333333333 236.8 480 226.1333333333334C480 215.4666666666667 469.3333333333333 204.8 458.6666666666666 194.1333333333333L371.2 106.6666666666667L341.3333333333333 134.4L430.9333333333333 224L409.6 245.3333333333334L379.7333333333334 215.4666666666667L298.6666666666667 296.5333333333334L384 377.6C392.5333333333333 386.1333333333334 405.3333333333333 386.1333333333334 413.8666666666666 377.6L462.9333333333333 328.5333333333334C471.4666666666666 320 471.4666666666666 305.0666666666667 462.9333333333333 298.6666666666667M85.3333333333333 81.0666666666667L290.1333333333334 285.8666666666667L369.0666666666667 204.8000000000001L166.4 0H85.3333333333333V81.0666666666667M170.6666666666667 341.3333333333334V352C170.6666666666667 381.8666666666667 147.2 405.3333333333333 117.3333333333333 405.3333333333333S64 381.8666666666667 64 352V341.3333333333334C51.2 341.3333333333334 42.6666666666667 332.8 42.6666666666667 320V234.6666666666667C42.6666666666667 221.8666666666667 51.2 213.3333333333334 64 213.3333333333334H170.6666666666667C183.4666666666667 213.3333333333334 192 221.8666666666667 192 234.6666666666667V320C192 332.8 183.4666666666667 341.3333333333334 170.6666666666667 341.3333333333334M149.3333333333333 341.3333333333334H85.3333333333333V352C85.3333333333333 369.0666666666667 100.2666666666667 384 117.3333333333333 384S149.3333333333333 369.0666666666667 149.3333333333333 352V341.3333333333334z" /></svg>