<?xml version="1.0" encoding="UTF-8"?><!DOCTYPE svg PUBLIC "-//W3C//DTD SVG 1.1//EN" "http://www.w3.org/Graphics/SVG/1.1/DTD/svg11.dtd"><svg xmlns="http://www.w3.org/2000/svg" xmlns:xlink="http://www.w3.org/1999/xlink" version="1.1" width="512" height="512" viewBox="0 0 512 512">    <path fill="#ffffff" transform="scale(1, -1) translate(0, -448)" glyph-name="video-input-svideo" unicode="&#xF841;" horiz-adv-x="512" d=" M170.6666666666667 202.6666666666667C170.6666666666667 220.3733333333333 156.3733333333333 234.6666666666667 138.6666666666667 234.6666666666667S106.6666666666667 220.3733333333333 106.6666666666667 202.6666666666667S120.96 170.6666666666667 138.6666666666667 170.6666666666667S170.6666666666667 184.96 170.6666666666667 202.6666666666667M320 309.3333333333334C320 327.04 305.7066666666667 341.3333333333334 288 341.3333333333334H224C206.2933333333333 341.3333333333334 192 327.04 192 309.3333333333334S206.2933333333333 277.3333333333334 224 277.3333333333334H288C305.7066666666667 277.3333333333334 320 291.6266666666667 320 309.3333333333334M181.3333333333333 128C163.6266666666667 128 149.3333333333333 113.7066666666667 149.3333333333333 96S163.6266666666667 64 181.3333333333333 64S213.3333333333333 78.2933333333334 213.3333333333333 96S199.04 128 181.3333333333333 128M256 426.6666666666667C126.2933333333333 426.6666666666667 21.3333333333333 321.7066666666667 21.3333333333333 192S126.2933333333333 -42.6666666666666 256 -42.6666666666666S490.6666666666666 62.2933333333334 490.6666666666666 192S385.7066666666666 426.6666666666667 256 426.6666666666667M256 0C150.1866666666667 0 64 86.1866666666667 64 192S150.1866666666667 384 256 384S448 297.8133333333334 448 192S361.8133333333334 0 256 0M373.3333333333333 234.6666666666667C355.6266666666667 234.6666666666667 341.3333333333333 220.3733333333333 341.3333333333333 202.6666666666667S355.6266666666667 170.6666666666667 373.3333333333333 170.6666666666667S405.3333333333333 184.96 405.3333333333333 202.6666666666667S391.04 234.6666666666667 373.3333333333333 234.6666666666667M330.6666666666667 128C312.96 128 298.6666666666667 113.7066666666667 298.6666666666667 96S312.96 64 330.6666666666667 64S362.6666666666667 78.2933333333334 362.6666666666667 96S348.3733333333333 128 330.6666666666667 128z" /></svg>