<?xml version="1.0" encoding="UTF-8"?><!DOCTYPE svg PUBLIC "-//W3C//DTD SVG 1.1//EN" "http://www.w3.org/Graphics/SVG/1.1/DTD/svg11.dtd"><svg xmlns="http://www.w3.org/2000/svg" xmlns:xlink="http://www.w3.org/1999/xlink" version="1.1" width="512" height="512" viewBox="0 0 512 512">    <path fill="#ffffff" transform="scale(1, -1) translate(0, -448)" glyph-name="lifebuoy" unicode="&#xF87D;" horiz-adv-x="512" d=" M422.1866666666666 119.2533333333333C442.4533333333333 165.5466666666667 442.4533333333333 218.6666666666667 422.1866666666666 264.7466666666667L363.7333333333333 238.2933333333334C376.5333333333333 208.8533333333333 376.5333333333333 175.36 363.9466666666666 145.7066666666667L422.1866666666666 119.2533333333333M328.9599999999999 358.1866666666667C282.6666666666667 378.4533333333333 229.5466666666666 378.4533333333333 183.2533333333333 358.1866666666667L209.7066666666666 299.9466666666667C239.36 312.5333333333333 272.8533333333333 312.5333333333333 302.5066666666666 299.7333333333334L328.9599999999999 358.1866666666667M89.8133333333333 264.9600000000001C69.5466666666667 218.4533333333334 69.5466666666667 165.5466666666667 89.8133333333333 119.04L148.2666666666667 145.7066666666667C135.4666666666667 175.1466666666667 135.4666666666667 208.8533333333333 148.2666666666667 238.5066666666667L89.8133333333333 264.9600000000001M183.2533333333333 25.8133333333334C229.5466666666667 5.5466666666667 282.6666666666667 5.5466666666667 328.96 26.0266666666668L302.5066666666667 84.2666666666668C273.0666666666667 71.4666666666667 239.36 71.4666666666667 209.92 84.0533333333334L183.2533333333333 25.8133333333334M256 405.3333333333333C373.76 405.3333333333333 469.3333333333333 309.76 469.3333333333333 192S373.76 -21.3333333333333 256 -21.3333333333333S42.6666666666667 74.24 42.6666666666667 192S138.24 405.3333333333333 256 405.3333333333333M256 277.3333333333334C208.8533333333333 277.3333333333334 170.6666666666667 239.1466666666667 170.6666666666667 192S208.8533333333333 106.6666666666667 256 106.6666666666667S341.3333333333333 144.8533333333334 341.3333333333333 192S303.1466666666667 277.3333333333334 256 277.3333333333334z" /></svg>