<?xml version="1.0" encoding="UTF-8"?><!DOCTYPE svg PUBLIC "-//W3C//DTD SVG 1.1//EN" "http://www.w3.org/Graphics/SVG/1.1/DTD/svg11.dtd"><svg xmlns="http://www.w3.org/2000/svg" xmlns:xlink="http://www.w3.org/1999/xlink" version="1.1" width="512" height="512" viewBox="0 0 512 512">    <path fill="#ffffff" transform="scale(1, -1) translate(0, -448)" glyph-name="turtle" unicode="&#xFCB3;" horiz-adv-x="512" d=" M180.6933333333333 321.0666666666667C190.9333333333333 327.04 202.0266666666667 331.9466666666667 213.3333333333333 335.36V362.6666666666667C213.3333333333333 386.1333333333334 231.8933333333333 405.3333333333333 255.36 405.9733333333334C280.1066666666667 405.3333333333333 298.6666666666667 386.1333333333334 298.6666666666667 362.6666666666667V335.36C309.9733333333333 331.7333333333334 321.0666666666667 327.04 331.3066666666666 321.0666666666667L297.1733333333333 275.8400000000001H214.8266666666667L180.6933333333333 321.0666666666667M405.3333333333333 192C405.3333333333333 181.3333333333334 404.2666666666667 171.7333333333334 402.3466666666667 162.1333333333333L348.3733333333333 178.7733333333333L322.9866666666666 256.8533333333334L357.12 301.8666666666667C366.2933333333333 293.3333333333333 374.3999999999999 283.7333333333334 381.44 273.0666666666667C398.2933333333333 274.56 414.5066666666667 272 429.0133333333333 264.7466666666667C450.9866666666667 253.44 465.92 231.8933333333333 469.3333333333333 207.36L405.3333333333333 199.68V192M106.6666666666667 192V199.4666666666667L42.6666666666667 207.36C46.08 231.8933333333333 61.0133333333333 253.44 82.9866666666667 264.7466666666667C97.4933333333333 272 113.92 274.56 129.7066666666667 271.7866666666667C136.7466666666667 282.6666666666667 144.8533333333333 292.6933333333334 154.4533333333333 301.44L189.0133333333333 257.0666666666666L163.6266666666667 178.7733333333333L109.6533333333333 162.1333333333333C107.7333333333333 171.7333333333334 106.6666666666667 181.3333333333334 106.6666666666667 192M218.4533333333333 243.84H293.5466666666666L316.8 172.16L256 128L195.2 172.16L218.4533333333333 243.84M173.44 148.2666666666667L240 100.0533333333333V43.52C227.84 44.8 216.1066666666666 47.5733333333334 205.2266666666667 51.6266666666667L178.9866666666667 -7.2533333333334C156.3733333333333 2.7733333333333 140.16 23.4666666666666 135.8933333333334 47.7866666666666C132.9066666666667 63.9999999999999 135.4666666666667 80.2133333333333 142.72 94.7199999999999C133.12 105.8133333333332 125.2266666666667 118.1866666666666 119.2533333333334 131.8399999999999L173.4400000000001 148.2666666666666M338.5600000000001 148.2666666666666L392.7466666666668 131.8399999999999C386.7733333333334 118.1866666666666 378.8800000000001 105.8133333333332 369.2800000000001 94.7199999999999C376.5333333333334 80.2133333333333 379.0933333333334 63.9999999999999 376.32 47.7866666666666C371.84 23.4666666666666 355.6266666666667 2.7733333333333 333.0133333333333 -7.2533333333334L306.9866666666667 51.6266666666666C295.68 47.5733333333332 284.3733333333334 43.9466666666666 272 42.6666666666665V100.0533333333332L338.56 148.2666666666666z" /></svg>