<?xml version="1.0" encoding="UTF-8"?><!DOCTYPE svg PUBLIC "-//W3C//DTD SVG 1.1//EN" "http://www.w3.org/Graphics/SVG/1.1/DTD/svg11.dtd"><svg xmlns="http://www.w3.org/2000/svg" xmlns:xlink="http://www.w3.org/1999/xlink" version="1.1" width="512" height="512" viewBox="0 0 512 512">    <path fill="#ffffff" transform="scale(1, -1) translate(0, -448)" glyph-name="tram" unicode="&#xF52D;" horiz-adv-x="512" d=" M405.3333333333333 86.6133333333334V266.6666666666667C405.3333333333333 326.1866666666667 349.6533333333333 339.2000000000001 277.3333333333333 341.3333333333334L293.3333333333333 373.3333333333334H362.6666666666667V405.3333333333333H149.3333333333333V373.3333333333334H250.6666666666667L234.6666666666667 341.3333333333334C167.68 338.9866666666667 106.6666666666667 325.76 106.6666666666667 266.6666666666667V86.6133333333334C106.6666666666667 55.6800000000001 132.0533333333333 29.8666666666667 161.92 23.2533333333334L128 -10.6666666666666V-21.3333333333333H175.5733333333333L218.24 21.3333333333334H298.6666666666667L341.3333333333333 -21.3333333333333H384V-10.6666666666666L352 21.3333333333334H350.2933333333334C386.3466666666667 21.3333333333334 405.3333333333333 50.5600000000001 405.3333333333333 86.6133333333334M256 53.3333333333334C238.2933333333333 53.3333333333334 224 67.6266666666667 224 85.3333333333334S238.2933333333333 117.3333333333334 256 117.3333333333334S288 103.04 288 85.3333333333334S273.7066666666667 53.3333333333334 256 53.3333333333334M362.6666666666667 149.3333333333334H149.3333333333333V256H362.6666666666667V149.3333333333334z" /></svg>