<?xml version="1.0" encoding="UTF-8"?><!DOCTYPE svg PUBLIC "-//W3C//DTD SVG 1.1//EN" "http://www.w3.org/Graphics/SVG/1.1/DTD/svg11.dtd"><svg xmlns="http://www.w3.org/2000/svg" xmlns:xlink="http://www.w3.org/1999/xlink" version="1.1" width="512" height="512" viewBox="0 0 512 512">    <path fill="#ffffff" transform="scale(1, -1) translate(0, -448)" glyph-name="cash-usd" unicode="&#xF117;" horiz-adv-x="512" d=" M426.6666666666667 64H85.3333333333333V320H426.6666666666667M426.6666666666667 362.6666666666667H85.3333333333333C61.6533333333333 362.6666666666667 42.6666666666667 343.68 42.6666666666667 320V64C42.6666666666667 40.5333333333333 61.8666666666667 21.3333333333334 85.3333333333333 21.3333333333334H426.6666666666667C450.1333333333334 21.3333333333334 469.3333333333333 40.5333333333333 469.3333333333333 64V320C469.3333333333333 343.68 450.1333333333334 362.6666666666667 426.6666666666667 362.6666666666667M234.6666666666667 85.3333333333334H277.3333333333333V106.6666666666667H298.6666666666667C310.4 106.6666666666667 320 116.2666666666667 320 128V192C320 203.7333333333334 310.4 213.3333333333334 298.6666666666667 213.3333333333334H234.6666666666667V234.6666666666667H320V277.3333333333334H277.3333333333333V298.6666666666667H234.6666666666667V277.3333333333334H213.3333333333333C201.6 277.3333333333334 192 267.7333333333334 192 256V192C192 180.2666666666667 201.6 170.6666666666667 213.3333333333333 170.6666666666667H277.3333333333333V149.3333333333334H192V106.6666666666667H234.6666666666667V85.3333333333334z" /></svg>