<?xml version="1.0" encoding="UTF-8"?><!DOCTYPE svg PUBLIC "-//W3C//DTD SVG 1.1//EN" "http://www.w3.org/Graphics/SVG/1.1/DTD/svg11.dtd"><svg xmlns="http://www.w3.org/2000/svg" xmlns:xlink="http://www.w3.org/1999/xlink" version="1.1" width="512" height="512" viewBox="0 0 512 512">    <path fill="#ffffff" transform="scale(1, -1) translate(0, -448)" glyph-name="card-bulleted-off" unicode="&#xFB4D;" horiz-adv-x="512" d=" M71.4666666666667 371.6266666666667L440.5333333333334 2.7733333333334L410.2400000000001 -27.52L361.3866666666667 21.3333333333334H85.3333333333333C61.8666666666667 21.3333333333334 42.6666666666667 40.5333333333333 42.6666666666667 64V320C42.6666666666667 325.9733333333334 43.9466666666667 331.52 46.08 336.64L26.24 356.48L56.5333333333333 386.7733333333333L71.4666666666667 371.6266666666667M140.8 362.6666666666667H426.6666666666667C450.1333333333334 362.6666666666667 469.3333333333333 343.4666666666667 469.3333333333333 320V64C469.3333333333333 55.4666666666667 466.7733333333333 47.5733333333334 462.5066666666667 40.96L375.4666666666667 128H426.6666666666667V170.6666666666667H332.8L290.1333333333334 213.3333333333334H426.6666666666667V256H247.4666666666667L140.8 362.6666666666667M212.0533333333333 170.6666666666667H192V128H234.6666666666667V148.0533333333334L212.0533333333333 170.6666666666667M126.72 256H106.6666666666667V213.3333333333334H149.3333333333333V233.3866666666667L126.72 256z" /></svg>