<?xml version="1.0" encoding="UTF-8"?><!DOCTYPE svg PUBLIC "-//W3C//DTD SVG 1.1//EN" "http://www.w3.org/Graphics/SVG/1.1/DTD/svg11.dtd"><svg xmlns="http://www.w3.org/2000/svg" xmlns:xlink="http://www.w3.org/1999/xlink" version="1.1" width="512" height="512" viewBox="0 0 512 512">    <path fill="#ffffff" transform="scale(1, -1) translate(0, -448)" glyph-name="file-remove" unicode="&#xFB74;" horiz-adv-x="512" d=" M128 405.3333333333333H298.6666666666667L426.6666666666667 277.3333333333334V21.3333333333334C426.6666666666667 -2.1333333333333 407.4666666666667 -21.3333333333333 384 -21.3333333333333H128C104.32 -21.3333333333333 85.3333333333333 -2.1333333333333 85.3333333333333 21.3333333333334V362.6666666666667C85.3333333333333 386.3466666666667 104.32 405.3333333333333 128 405.3333333333333M277.3333333333333 256H394.6666666666667L277.3333333333333 373.3333333333334V256M213.3333333333333 136.7466666666667L168.1066666666667 182.1866666666667L137.8133333333333 151.8933333333333L183.2533333333333 106.6666666666667L137.8133333333333 61.44L168.1066666666667 31.1466666666667L213.3333333333333 76.5866666666667L258.56 31.1466666666667L288.8533333333334 61.4400000000001L243.4133333333334 106.6666666666667L288.8533333333333 151.8933333333334L258.56 182.1866666666667L213.3333333333333 136.7466666666667z" /></svg>