<?xml version="1.0" encoding="UTF-8"?><!DOCTYPE svg PUBLIC "-//W3C//DTD SVG 1.1//EN" "http://www.w3.org/Graphics/SVG/1.1/DTD/svg11.dtd"><svg xmlns="http://www.w3.org/2000/svg" xmlns:xlink="http://www.w3.org/1999/xlink" version="1.1" width="512" height="512" viewBox="0 0 512 512">    <path fill="#ffffff" transform="scale(1, -1) translate(0, -448)" glyph-name="qrcode" unicode="&#xF432;" horiz-adv-x="512" d=" M64 213.3333333333334H106.6666666666667V170.6666666666667H64V213.3333333333334M234.6666666666667 341.3333333333334H277.3333333333333V256H234.6666666666667V341.3333333333334M192 213.3333333333334H277.3333333333333V128H234.6666666666667V170.6666666666667H192V213.3333333333334M320 213.3333333333334H362.6666666666667V170.6666666666667H405.3333333333333V213.3333333333334H448V170.6666666666667H405.3333333333333V128H448V42.6666666666667H405.3333333333333V0H362.6666666666667V42.6666666666667H277.3333333333333V0H234.6666666666667V85.3333333333334H320V128H362.6666666666667V170.6666666666667H320V213.3333333333334M405.3333333333333 42.6666666666667V128H362.6666666666667V42.6666666666667H405.3333333333333M320 384H448V256H320V384M362.6666666666667 341.3333333333334V298.6666666666667H405.3333333333333V341.3333333333334H362.6666666666667M64 384H192V256H64V384M106.6666666666667 341.3333333333334V298.6666666666667H149.3333333333333V341.3333333333334H106.6666666666667M64 128H192V0H64V128M106.6666666666667 85.3333333333334V42.6666666666667H149.3333333333333V85.3333333333334H106.6666666666667z" /></svg>