<?xml version="1.0" encoding="UTF-8"?><!DOCTYPE svg PUBLIC "-//W3C//DTD SVG 1.1//EN" "http://www.w3.org/Graphics/SVG/1.1/DTD/svg11.dtd"><svg xmlns="http://www.w3.org/2000/svg" xmlns:xlink="http://www.w3.org/1999/xlink" version="1.1" width="512" height="512" viewBox="0 0 512 512">    <path fill="#ffffff" transform="scale(1, -1) translate(0, -448)" glyph-name="calendar-multiselect" unicode="&#xFA31;" horiz-adv-x="512" d=" M405.3333333333333 42.6666666666667V277.3333333333334H106.6666666666667V42.6666666666667H405.3333333333333M341.3333333333333 426.6666666666667H384V384H405.3333333333333C428.8 384 448 364.8 448 341.3333333333334V42.6666666666667C448 19.2 428.8 0 405.3333333333333 0H106.6666666666667C82.9866666666667 0 64 19.2 64 42.6666666666667V341.3333333333334C64 365.0133333333333 82.9866666666667 384 106.6666666666667 384H128V426.6666666666667H170.6666666666667V384H341.3333333333333V426.6666666666667M149.3333333333333 234.6666666666667H192V192H149.3333333333333V234.6666666666667M320 234.6666666666667H362.6666666666667V192H320V234.6666666666667M234.6666666666667 149.3333333333334H277.3333333333333V106.6666666666667H234.6666666666667V149.3333333333334M320 149.3333333333334H362.6666666666667V106.6666666666667H320V149.3333333333334z" /></svg>