<?xml version="1.0" encoding="UTF-8"?><!DOCTYPE svg PUBLIC "-//W3C//DTD SVG 1.1//EN" "http://www.w3.org/Graphics/SVG/1.1/DTD/svg11.dtd"><svg xmlns="http://www.w3.org/2000/svg" xmlns:xlink="http://www.w3.org/1999/xlink" version="1.1" width="512" height="512" viewBox="0 0 512 512">    <path fill="#ffffff" transform="scale(1, -1) translate(0, -448)" glyph-name="hand-left" unicode="&#xFE29;" horiz-adv-x="512" d=" M64 307.6266666666667V49.7066666666667C64 10.6666666666667 96 -21.3333333333333 135.04 -21.3333333333333H264.96C284.16 -21.3333333333333 302.2933333333333 -13.6533333333333 315.52 0L455.04 141.6533333333334S432.64 163.6266666666667 432 163.84C428.16 167.2533333333333 423.2533333333334 169.1733333333334 417.92 169.1733333333334C414.08 169.1733333333334 410.4533333333333 168.1066666666667 407.2533333333334 166.1866666666667C406.6133333333333 165.9733333333334 330.6666666666667 122.4533333333333 330.6666666666667 122.4533333333333V334.2933333333334C330.6666666666667 349.0133333333333 318.72 360.9600000000001 304 360.9600000000001S277.3333333333333 349.0133333333333 277.3333333333333 334.2933333333334V209.7066666666667H259.6266666666667V378.6666666666667C259.6266666666667 393.3866666666667 247.68 405.3333333333333 232.96 405.3333333333333S206.2933333333333 393.3866666666667 206.2933333333333 378.6666666666667V209.7066666666667H188.3733333333333V360.9600000000001C188.3733333333333 375.68 176.4266666666667 387.6266666666667 161.7066666666667 387.6266666666667S135.04 375.68 135.04 360.9600000000001V209.7066666666667H117.3333333333333V307.6266666666667C117.3333333333333 322.3466666666667 105.3866666666667 334.2933333333334 90.6666666666667 334.2933333333334S64 322.3466666666667 64 307.6266666666667z" /></svg>