<?xml version="1.0" encoding="UTF-8"?><!DOCTYPE svg PUBLIC "-//W3C//DTD SVG 1.1//EN" "http://www.w3.org/Graphics/SVG/1.1/DTD/svg11.dtd"><svg xmlns="http://www.w3.org/2000/svg" xmlns:xlink="http://www.w3.org/1999/xlink" version="1.1" width="512" height="512" viewBox="0 0 512 512">    <path fill="#ffffff" transform="scale(1, -1) translate(0, -448)" glyph-name="file-hidden" unicode="&#xF613;" horiz-adv-x="512" d=" M277.3333333333333 256H298.6666666666667V213.3333333333334H234.6666666666667V298.6666666666667H277.3333333333333V256M394.6666666666667 256L349.44 301.2266666666667L376.1066666666667 327.8933333333333L426.6666666666667 277.3333333333334V234.6666666666667H384V213.3333333333334H320V256H394.6666666666667M277.3333333333333 373.3333333333334V405.3333333333333H256V362.6666666666667H277.3333333333333V320H234.6666666666667V362.6666666666667H192V405.3333333333333H170.6666666666667V362.6666666666667H128V341.3333333333334H85.3333333333333V362.6666666666667C85.3333333333333 386.3466666666667 104.32 405.3333333333333 128 405.3333333333333H298.6666666666667L349.0133333333333 354.9866666666667L322.3466666666667 328.3200000000001L277.3333333333333 373.3333333333334M426.6666666666667 21.3333333333334C426.6666666666667 -2.1333333333333 407.4666666666667 -21.3333333333333 384 -21.3333333333333H341.3333333333333V21.3333333333334H384V42.6666666666667H426.6666666666667V21.3333333333334M384 128H426.6666666666667V64H384V128M256 -21.3333333333333V21.3333333333334H320V-21.3333333333333H256M170.6666666666667 -21.3333333333333V21.3333333333334H234.6666666666667V-21.3333333333333H170.6666666666667M128 -21.3333333333333C104.32 -21.3333333333333 85.3333333333333 -2.1333333333333 85.3333333333333 21.3333333333334V64H128V21.3333333333334H149.3333333333333V-21.3333333333333H128M85.3333333333333 149.3333333333334H128V85.3333333333334H85.3333333333333V149.3333333333334M85.3333333333333 234.6666666666667H128V170.6666666666667H85.3333333333333V234.6666666666667M384 213.3333333333334H426.6666666666667V149.3333333333334H384V213.3333333333334M85.3333333333333 320H128V256H85.3333333333333V320z" /></svg>