<?xml version="1.0" encoding="UTF-8"?><!DOCTYPE svg PUBLIC "-//W3C//DTD SVG 1.1//EN" "http://www.w3.org/Graphics/SVG/1.1/DTD/svg11.dtd"><svg xmlns="http://www.w3.org/2000/svg" xmlns:xlink="http://www.w3.org/1999/xlink" version="1.1" width="512" height="512" viewBox="0 0 512 512">    <path fill="#ffffff" transform="scale(1, -1) translate(0, -448)" glyph-name="comment-eye" unicode="&#xFA39;" horiz-adv-x="512" d=" M426.6666666666667 192V106.6666666666667C426.6666666666667 82.9866666666667 407.68 64 384 64H296.5333333333333L217.6 -15.1466666666666C213.3333333333333 -18.9866666666667 208.2133333333333 -21.3333333333333 202.6666666666667 -21.3333333333333H192C180.2666666666667 -21.3333333333333 170.6666666666667 -11.7333333333333 170.6666666666667 0V64H85.3333333333333C61.8666666666667 64 42.6666666666667 83.2 42.6666666666667 106.6666666666667V320C42.6666666666667 343.68 61.8666666666667 362.6666666666667 85.3333333333333 362.6666666666667H202.6666666666667C190.9333333333333 348.3733333333334 181.3333333333333 332.3733333333334 173.6533333333333 314.6666666666667L167.4666666666667 298.6666666666667L173.6533333333333 282.6666666666667C201.1733333333333 214.6133333333334 266.6666666666667 170.6666666666667 341.3333333333333 170.6666666666667C372.0533333333334 170.6666666666667 401.0666666666667 178.56 426.6666666666667 192M341.3333333333333 320C353.28 320 362.6666666666667 310.6133333333334 362.6666666666667 298.6666666666667S353.28 277.3333333333334 341.3333333333333 277.3333333333334S320 286.7200000000001 320 298.6666666666667S329.3866666666667 320 341.3333333333333 320M341.3333333333333 384C399.5733333333333 384 449.28 348.5866666666667 469.3333333333333 298.6666666666667C449.28 248.7466666666667 399.5733333333333 213.3333333333334 341.3333333333333 213.3333333333334S233.3866666666667 248.7466666666667 213.3333333333333 298.6666666666667C233.3866666666667 348.5866666666667 283.0933333333333 384 341.3333333333333 384M341.3333333333333 352C311.8933333333333 352 288 328.1066666666667 288 298.6666666666667S311.8933333333333 245.3333333333334 341.3333333333333 245.3333333333334S394.6666666666667 269.2266666666667 394.6666666666667 298.6666666666667S370.7733333333333 352 341.3333333333333 352" /></svg>