<?xml version="1.0" encoding="UTF-8"?><!DOCTYPE svg PUBLIC "-//W3C//DTD SVG 1.1//EN" "http://www.w3.org/Graphics/SVG/1.1/DTD/svg11.dtd"><svg xmlns="http://www.w3.org/2000/svg" xmlns:xlink="http://www.w3.org/1999/xlink" version="1.1" width="512" height="512" viewBox="0 0 512 512">    <path fill="#ffffff" transform="scale(1, -1) translate(0, -448)" glyph-name="circle-edit-outline" unicode="&#xF8D4;" horiz-adv-x="512" d=" M256 405.3333333333333C138.24 405.3333333333333 42.6666666666667 309.76 42.6666666666667 192S138.24 -21.3333333333333 256 -21.3333333333333S469.3333333333333 74.24 469.3333333333333 192H426.6666666666667C426.6666666666667 97.7066666666667 350.2933333333334 21.3333333333334 256 21.3333333333334S85.3333333333333 97.7066666666667 85.3333333333333 192S161.7066666666667 362.6666666666667 256 362.6666666666667V405.3333333333333M400.64 384C397.0133333333333 384 393.1733333333333 382.5066666666667 390.4 379.7333333333334L364.3733333333334 353.92L417.7066666666667 300.5866666666667L443.7333333333334 326.4C449.2800000000001 331.9466666666667 449.2800000000001 341.3333333333334 443.7333333333334 346.6666666666667L410.6666666666667 379.7333333333334C407.8933333333333 382.5066666666667 404.2666666666667 384 400.64 384M349.2266666666667 338.7733333333333L192 181.3333333333334V128H245.3333333333333L402.56 285.44L349.2266666666667 338.7733333333333z" /></svg>