<?xml version="1.0" encoding="UTF-8"?><!DOCTYPE svg PUBLIC "-//W3C//DTD SVG 1.1//EN" "http://www.w3.org/Graphics/SVG/1.1/DTD/svg11.dtd"><svg xmlns="http://www.w3.org/2000/svg" xmlns:xlink="http://www.w3.org/1999/xlink" version="1.1" width="512" height="512" viewBox="0 0 512 512">    <path fill="#ffffff" transform="scale(1, -1) translate(0, -448)" glyph-name="exit-run" unicode="&#xFA47;" horiz-adv-x="512" d=" M284.5866666666667 273.7066666666667C264.7466666666667 273.7066666666667 248.5333333333334 290.1333333333334 248.5333333333334 309.9733333333334C248.5333333333334 329.8133333333334 264.7466666666667 346.0266666666667 284.5866666666667 346.0266666666667C304.64 346.0266666666667 320.8533333333333 329.8133333333334 320.8533333333333 309.9733333333334C320.8533333333333 290.1333333333334 304.64 273.7066666666667 284.5866666666667 273.7066666666667M219.7333333333334 22.8266666666667L93.2266666666667 48L100.48 84.2666666666667L189.0133333333334 66.1333333333333L217.8133333333333 212.48L185.3866666666667 199.68V138.6666666666666H149.3333333333333V223.1466666666666L243.2 263.04L257.4933333333334 264.7466666666667C270.2933333333333 264.7466666666667 280.96 257.4933333333334 288 246.6133333333333L306.3466666666667 217.8133333333333C320.8533333333333 192 349.6533333333333 174.5066666666667 384 174.5066666666667V138.6666666666667C344.32 138.6666666666667 308.0533333333333 156.3733333333333 284.5866666666667 183.4666666666667L273.92 129.28L311.68 93.2266666666666V-42.6666666666666H275.6266666666667V66.1333333333334L237.6533333333334 102.1866666666667L219.7333333333334 22.8266666666668M448 -42.6666666666666H405.3333333333333V384H128V104.3200000000001L85.3333333333333 113.28V426.6666666666667H448V-42.6666666666666M128 -42.6666666666666H85.3333333333333V26.0266666666666L128 17.0666666666666V-42.6666666666666z" /></svg>