<?xml version="1.0" encoding="UTF-8"?><!DOCTYPE svg PUBLIC "-//W3C//DTD SVG 1.1//EN" "http://www.w3.org/Graphics/SVG/1.1/DTD/svg11.dtd"><svg xmlns="http://www.w3.org/2000/svg" xmlns:xlink="http://www.w3.org/1999/xlink" version="1.1" width="512" height="512" viewBox="0 0 512 512">    <path fill="#ffffff" transform="scale(1, -1) translate(0, -448)" glyph-name="filter-remove-outline" unicode="&#xF235;" horiz-adv-x="512" d=" M314.24 3.6266666666667L375.04 64L314.24 124.3733333333333L344.5333333333333 154.4533333333334L405.3333333333333 94.5066666666667L465.0666666666667 154.4533333333334L495.36 124.3733333333333L435.4133333333333 64L495.36 3.6266666666667L465.0666666666666 -26.4533333333333L405.3333333333333 34.1333333333334L344.5333333333333 -26.4533333333333L314.24 3.6266666666667M277.3333333333333 23.8933333333334C278.1866666666666 17.4933333333333 276.0533333333333 10.6666666666667 271.1466666666667 6.1866666666667C262.8266666666667 -2.1333333333333 249.3866666666667 -2.1333333333333 241.0666666666667 6.1866666666667L155.52 91.7333333333334C150.6133333333333 96.64 148.48 103.2533333333333 149.3333333333333 109.4400000000001V218.6666666666667L47.1466666666667 349.44C39.8933333333333 358.6133333333334 41.6 372.0533333333334 50.7733333333333 379.3066666666667C54.8266666666667 382.2933333333334 59.3066666666667 384 64 384H362.6666666666667C367.36 384 371.84 382.2933333333334 375.8933333333333 379.3066666666667C385.0666666666667 372.0533333333334 386.7733333333334 358.6133333333334 379.5200000000001 349.44L277.3333333333333 218.6666666666667V23.8933333333333M107.52 341.3333333333334L192 233.3866666666667V115.6266666666667L234.6666666666667 72.96V233.6000000000001L319.1466666666667 341.3333333333334H107.52z" /></svg>