<?xml version="1.0" encoding="UTF-8"?><!DOCTYPE svg PUBLIC "-//W3C//DTD SVG 1.1//EN" "http://www.w3.org/Graphics/SVG/1.1/DTD/svg11.dtd"><svg xmlns="http://www.w3.org/2000/svg" xmlns:xlink="http://www.w3.org/1999/xlink" version="1.1" width="512" height="512" viewBox="0 0 512 512">    <path fill="#ffffff" transform="scale(1, -1) translate(0, -448)" glyph-name="dumbbell" unicode="&#xF1E6;" horiz-adv-x="512" d=" M438.8266666666667 130.9866666666667L469.3333333333333 161.4933333333334L438.8266666666667 192L362.6666666666667 115.84L179.84 298.6666666666667L256 374.8266666666667L225.4933333333334 405.3333333333333L194.9866666666667 374.8266666666667L164.48 405.3333333333333L118.8266666666667 359.68L88.32 390.1866666666667L57.8133333333333 359.68L88.32 329.1733333333334L42.6666666666667 283.52L73.1733333333333 253.0133333333333L42.6666666666667 222.5066666666667L73.1733333333333 192L149.3333333333333 268.1600000000001L332.16 85.3333333333334L256 9.1733333333333L286.5066666666667 -21.3333333333333L317.0133333333333 9.1733333333333L347.52 -21.3333333333333L393.1733333333333 24.3200000000001L423.68 -6.1866666666666L454.1866666666666 24.3200000000001L423.68 54.8266666666667L469.3333333333333 100.48L438.8266666666667 130.9866666666667z" /></svg>