<?xml version="1.0" encoding="UTF-8"?><!DOCTYPE svg PUBLIC "-//W3C//DTD SVG 1.1//EN" "http://www.w3.org/Graphics/SVG/1.1/DTD/svg11.dtd"><svg xmlns="http://www.w3.org/2000/svg" xmlns:xlink="http://www.w3.org/1999/xlink" version="1.1" width="512" height="512" viewBox="0 0 512 512">    <path fill="#ffffff" transform="scale(1, -1) translate(0, -448)" glyph-name="transit-connection" unicode="&#xFD18;" horiz-adv-x="512" d=" M320 192C320 219.7333333333334 302.08 243.2 277.3333333333333 252.1600000000001V302.5066666666667C302.08 311.4666666666667 320 334.9333333333334 320 362.6666666666667C320 398.08 291.4133333333333 426.6666666666667 256 426.6666666666667S192 398.08 192 362.6666666666667C192 334.9333333333334 209.92 311.4666666666667 234.6666666666667 302.5066666666667V251.9466666666667C209.92 243.2 192 219.7333333333334 192 192S209.92 140.8 234.6666666666667 131.84V81.4933333333333C209.92 72.5333333333333 192 49.0666666666667 192 21.3333333333334C192 -14.08 220.5866666666667 -42.6666666666666 256 -42.6666666666666S320 -14.08 320 21.3333333333334C320 49.0666666666667 302.08 72.5333333333333 277.3333333333333 81.4933333333333V131.84C302.08 140.8 320 164.2666666666667 320 192M256 384C267.7333333333334 384 277.3333333333333 374.4 277.3333333333333 362.6666666666667S267.7333333333334 341.3333333333334 256 341.3333333333334S234.6666666666667 350.9333333333334 234.6666666666667 362.6666666666667S244.2666666666667 384 256 384M256 0C244.2666666666667 0 234.6666666666667 9.6 234.6666666666667 21.3333333333334S244.2666666666667 42.6666666666667 256 42.6666666666667S277.3333333333333 33.0666666666667 277.3333333333333 21.3333333333334S267.7333333333334 0 256 0z" /></svg>