<?xml version="1.0" encoding="UTF-8"?><!DOCTYPE svg PUBLIC "-//W3C//DTD SVG 1.1//EN" "http://www.w3.org/Graphics/SVG/1.1/DTD/svg11.dtd"><svg xmlns="http://www.w3.org/2000/svg" xmlns:xlink="http://www.w3.org/1999/xlink" version="1.1" width="512" height="512" viewBox="0 0 512 512">    <path fill="#ffffff" transform="scale(1, -1) translate(0, -448)" glyph-name="car-parking-lights" unicode="&#xFD3F;" horiz-adv-x="512" d=" M155.7333333333333 251.7333333333334C172.8 243.2 192 224 192 192C192 160 172.8 140.8 155.7333333333333 132.2666666666667C147.2 162.1333333333333 147.2 221.8666666666667 155.7333333333333 251.7333333333333M138.6666666666667 298.6666666666667C96 298.6666666666667 96 85.3333333333334 138.6666666666667 85.3333333333334S234.6666666666667 125.8666666666667 234.6666666666667 192S181.3333333333333 298.6666666666667 138.6666666666667 298.6666666666667M356.2666666666667 251.7333333333334C362.6666666666667 221.8666666666667 362.6666666666667 162.1333333333334 356.2666666666667 132.2666666666667C339.2 140.8000000000001 320 160.0000000000001 320 192C320 224 339.2 243.2 356.2666666666667 251.7333333333334M373.3333333333333 298.6666666666667C330.6666666666667 298.6666666666667 277.3333333333333 258.1333333333334 277.3333333333333 192S330.6666666666667 85.3333333333334 373.3333333333333 85.3333333333334S416 298.6666666666667 373.3333333333333 298.6666666666667M104.5333333333333 315.7333333333334L53.3333333333333 349.8666666666667L29.8666666666667 313.6L85.3333333333333 277.3333333333334C89.6 292.2666666666667 96 307.2000000000001 104.5333333333333 315.7333333333334M426.6666666666667 277.3333333333334L482.1333333333333 313.6L458.6666666666666 349.8666666666667L407.4666666666667 315.7333333333334C413.8666666666667 307.2000000000001 422.4 294.4000000000001 426.6666666666667 277.3333333333334M85.3333333333333 106.6666666666667L29.8666666666667 70.4L53.3333333333333 34.1333333333334L104.5333333333333 68.2666666666668C98.1333333333333 76.8000000000001 89.6 89.6000000000001 85.3333333333333 106.6666666666667M437.3333333333333 213.3333333333334V170.6666666666668H512V213.3333333333334H437.3333333333333M407.4666666666667 68.2666666666668L458.6666666666666 34.1333333333334L482.1333333333333 70.4L426.6666666666667 106.6666666666667C422.4 91.7333333333334 416 76.8000000000001 407.4666666666667 68.2666666666667M74.6666666666667 192V213.3333333333334H0V170.6666666666667H74.6666666666667V192z" /></svg>