<?xml version="1.0" encoding="UTF-8"?><!DOCTYPE svg PUBLIC "-//W3C//DTD SVG 1.1//EN" "http://www.w3.org/Graphics/SVG/1.1/DTD/svg11.dtd"><svg xmlns="http://www.w3.org/2000/svg" xmlns:xlink="http://www.w3.org/1999/xlink" version="1.1" width="512" height="512" viewBox="0 0 512 512">    <path fill="#ffffff" transform="scale(1, -1) translate(0, -448)" glyph-name="nfc" unicode="&#xF396;" horiz-adv-x="512" d=" M225.92 284.5866666666667S238.72 290.3466666666667 246.8266666666667 281.1733333333334C254.9333333333334 271.7866666666667 275.6266666666667 235.9466666666667 275.6266666666667 200.1066666666667C275.6266666666667 164.2666666666667 266.6666666666667 126.08 257.0666666666667 113.4933333333334C247.8933333333334 100.6933333333333 238.7200000000001 100.6933333333333 231.68 105.3866666666667C224.8533333333334 109.8666666666667 117.3333333333334 192 111.5733333333334 194.3466666666667C105.6 196.6933333333334 103.4666666666667 190.9333333333334 109.2266666666667 160.0000000000001C114.9866666666667 128.0000000000001 105.6 119.2533333333334 97.4933333333334 117.9733333333334C89.6 117.3333333333334 65.28 123.7333333333334 64 188.5866666666667C62.9333333333334 253.2266666666667 80.2133333333333 263.6800000000001 88.32 263.6800000000001C103.4666666666667 263.6800000000001 219.0933333333333 160 226.9866666666667 160.8533333333334C234.0266666666667 161.9200000000001 237.44 205.8666666666667 224 240.6400000000001C208.64 278.1866666666667 225.92 284.5866666666667 225.92 284.5866666666667M411.7333333333334 349.2266666666667C450.56 272.2133333333334 448 199.2533333333333 448 192C448 184.7466666666667 450.56 111.7866666666667 411.7333333333334 34.7733333333333C411.7333333333334 34.7733333333333 401.7066666666667 23.04 386.56 30.08C371.6266666666667 37.12 376.7466666666667 55.4666666666667 376.7466666666667 55.4666666666667S408.32 116.2666666666667 407.4666666666667 190.9333333333334V192C408.32 266.6666666666667 376.7466666666667 328.5333333333334 376.7466666666667 328.5333333333334S371.6266666666667 346.88 386.56 353.92C401.7066666666667 360.9600000000001 411.7333333333334 349.2266666666667 411.7333333333334 349.2266666666667M336.4266666666667 314.6666666666667C368.2133333333334 256.8533333333334 366.08 199.2533333333333 365.6533333333333 192C366.08 184.7466666666667 368.2133333333334 129.7066666666667 336.4266666666666 67.2C336.4266666666666 67.2 326.4 55.4666666666666 311.2533333333334 62.5066666666667C296.32 69.5466666666666 301.44 87.8933333333334 301.44 87.8933333333334S321.92 117.3333333333334 325.12 190.9333333333334V192C322.9866666666666 266.0266666666667 301.44 293.76 301.44 293.76S296.32 312.32 311.2533333333334 319.1466666666667C326.4 326.1866666666667 336.4266666666666 314.6666666666667 336.4266666666666 314.6666666666667z" /></svg>