<?xml version="1.0" encoding="UTF-8"?><!DOCTYPE svg PUBLIC "-//W3C//DTD SVG 1.1//EN" "http://www.w3.org/Graphics/SVG/1.1/DTD/svg11.dtd"><svg xmlns="http://www.w3.org/2000/svg" xmlns:xlink="http://www.w3.org/1999/xlink" version="1.1" width="512" height="512" viewBox="0 0 512 512">    <path fill="#ffffff" transform="scale(1, -1) translate(0, -448)" glyph-name="chili-medium" unicode="&#xF7B2;" horiz-adv-x="512" d=" M336 256L361.6 272.2133333333334C375.04 264.9600000000001 384 250.88 384 234.6666666666667V-16S213.3333333333333 21.3333333333334 213.3333333333333 213.3333333333334V234.6666666666667C213.3333333333333 250.24 221.6533333333333 263.8933333333334 234.0266666666667 271.36L265.1733333333333 256L298.6666666666667 277.3333333333334L336 256M256 405.3333333333333C288.64 405.3333333333333 315.7333333333334 380.8 320 349.0133333333333C341.3333333333333 342.8266666666667 358.6133333333333 327.04 367.36 306.56L336 288L298.6666666666667 309.3333333333333L265.1733333333333 288L229.5466666666666 305.7066666666667C237.8666666666666 325.9733333333334 254.9333333333333 341.3333333333333 276.0533333333333 348.5866666666667C273.0666666666667 356.6933333333334 265.1733333333333 362.6666666666667 256 362.6666666666667V405.3333333333333M170.6666666666667 234.6666666666667C170.6666666666667 64 248.1066666666667 24.7466666666667 298.6666666666667 -16C298.6666666666667 -16 128 21.3333333333334 128 213.3333333333334V234.6666666666667C128 250.24 136.32 263.8933333333334 148.6933333333333 271.36L177.0666666666667 257.2800000000001C173.0133333333334 250.6666666666667 170.6666666666667 242.9866666666667 170.6666666666667 234.6666666666667M179.84 288L144.2133333333333 305.7066666666667C152.5333333333333 325.9733333333334 169.6 341.3333333333334 190.72 348.5866666666667C187.7333333333334 356.6933333333334 179.84 362.6666666666667 170.6666666666667 362.6666666666667V405.3333333333333C187.0933333333333 405.3333333333333 202.0266666666667 399.1466666666667 213.3333333333333 389.12V362.6666666666667C222.5066666666667 362.6666666666667 230.4 356.6933333333334 233.3866666666667 348.5866666666667C212.2666666666667 341.3333333333334 195.2 325.9733333333334 179.84 288z" /></svg>