<?xml version="1.0" encoding="UTF-8"?><!DOCTYPE svg PUBLIC "-//W3C//DTD SVG 1.1//EN" "http://www.w3.org/Graphics/SVG/1.1/DTD/svg11.dtd"><svg xmlns="http://www.w3.org/2000/svg" xmlns:xlink="http://www.w3.org/1999/xlink" version="1.1" width="512" height="512" viewBox="0 0 512 512">    <path fill="#ffffff" transform="scale(1, -1) translate(0, -448)" glyph-name="baby-buggy" unicode="&#xF68E;" horiz-adv-x="512" d=" M277.3333333333333 405.3333333333333V234.6666666666667H448C448 328.9600000000001 371.6266666666667 405.3333333333333 277.3333333333333 405.3333333333333M412.16 109.0133333333333C434.56 137.8133333333334 448 174.0800000000001 448 213.3333333333334H137.3866666666667L117.3333333333333 256H42.6666666666667V213.3333333333334H90.0266666666667S130.3466666666667 126.5066666666667 135.2533333333333 119.04C111.7866666666667 106.6666666666667 96 81.7066666666667 96 53.3333333333334C96 12.16 129.4933333333334 -21.3333333333333 170.6666666666667 -21.3333333333333C208.2133333333333 -21.3333333333333 239.36 6.4 244.48 42.6666666666667H288.8533333333334C293.9733333333334 6.4 325.12 -21.3333333333333 362.6666666666667 -21.3333333333333C403.84 -21.3333333333333 437.3333333333333 12.16 437.3333333333333 53.3333333333334C437.3333333333333 75.52 427.52 95.36 412.16 109.0133333333333M170.6666666666667 21.3333333333334C152.96 21.3333333333334 138.6666666666667 35.6266666666667 138.6666666666667 53.3333333333334S152.96 85.3333333333334 170.6666666666667 85.3333333333334S202.6666666666667 71.04 202.6666666666667 53.3333333333334S188.3733333333333 21.3333333333334 170.6666666666667 21.3333333333334M362.6666666666667 21.3333333333334C344.9600000000001 21.3333333333334 330.6666666666667 35.6266666666667 330.6666666666667 53.3333333333334S344.9600000000001 85.3333333333334 362.6666666666667 85.3333333333334S394.6666666666667 71.04 394.6666666666667 53.3333333333334S380.3733333333333 21.3333333333334 362.6666666666667 21.3333333333334z" /></svg>