<?xml version="1.0" encoding="UTF-8"?><!DOCTYPE svg PUBLIC "-//W3C//DTD SVG 1.1//EN" "http://www.w3.org/Graphics/SVG/1.1/DTD/svg11.dtd"><svg xmlns="http://www.w3.org/2000/svg" xmlns:xlink="http://www.w3.org/1999/xlink" version="1.1" width="512" height="512" viewBox="0 0 512 512">    <path fill="#ffffff" transform="scale(1, -1) translate(0, -448)" glyph-name="flag-checkered" unicode="&#xF23C;" horiz-adv-x="512" d=" M307.2 320H426.6666666666667V106.6666666666667H277.3333333333333L268.8 149.3333333333334H149.3333333333333V0H106.6666666666667V362.6666666666667H298.6666666666667L307.2 320M298.6666666666667 149.3333333333334H341.3333333333333V192H384V234.6666666666667H341.3333333333333V277.3333333333334H298.6666666666667V234.6666666666667L277.3333333333333 277.3333333333334V320H234.6666666666667V277.3333333333334H192V320H149.3333333333333V277.3333333333334H192V234.6666666666667H149.3333333333333V192H192V234.6666666666667H234.6666666666667V192H277.3333333333333V234.6666666666667L298.6666666666667 192V149.3333333333334M234.6666666666667 234.6666666666667V277.3333333333334H277.3333333333333V234.6666666666667H234.6666666666667M298.6666666666667 234.6666666666667H341.3333333333333V192H298.6666666666667V234.6666666666667z" /></svg>