<?xml version="1.0" encoding="UTF-8"?><!DOCTYPE svg PUBLIC "-//W3C//DTD SVG 1.1//EN" "http://www.w3.org/Graphics/SVG/1.1/DTD/svg11.dtd"><svg xmlns="http://www.w3.org/2000/svg" xmlns:xlink="http://www.w3.org/1999/xlink" version="1.1" width="512" height="512" viewBox="0 0 512 512">    <path fill="#ffffff" transform="scale(1, -1) translate(0, -448)" glyph-name="projector" unicode="&#xF42E;" horiz-adv-x="512" d=" M341.3333333333333 320C317.2266666666667 320 293.76 312.5333333333334 273.92 298.6666666666667H85.3333333333333C61.6533333333333 298.6666666666667 42.6666666666667 279.68 42.6666666666667 256V128C42.6666666666667 104.3200000000001 61.6533333333333 85.3333333333334 85.3333333333333 85.3333333333334H106.6666666666667V64C106.6666666666667 52.2666666666667 116.2666666666667 42.6666666666667 128 42.6666666666667H170.6666666666667C182.4 42.6666666666667 192 52.2666666666667 192 64V85.3333333333334H320V64C320 52.2666666666667 329.6 42.6666666666667 341.3333333333333 42.6666666666667H384C395.7333333333334 42.6666666666667 405.3333333333333 52.2666666666667 405.3333333333333 64V85.3333333333334H426.6666666666667C450.3466666666667 85.3333333333334 469.3333333333333 104.3200000000001 469.3333333333333 128V256C469.3333333333333 279.68 450.3466666666667 298.6666666666667 426.6666666666667 298.6666666666667H408.5333333333333C388.9066666666666 312.5333333333334 365.44 320 341.3333333333333 320M341.3333333333333 288C382.5066666666667 288 416 254.5066666666667 416 213.3333333333334S382.5066666666667 138.6666666666667 341.3333333333333 138.6666666666667S266.6666666666667 172.16 266.6666666666667 213.3333333333334S300.16 288 341.3333333333333 288M85.3333333333333 256H170.6666666666667V234.6666666666667H85.3333333333333V256M341.3333333333333 256C317.8666666666667 256 298.6666666666667 236.8 298.6666666666667 213.3333333333334S317.8666666666667 170.6666666666667 341.3333333333333 170.6666666666667S384 189.8666666666667 384 213.3333333333334S364.8 256 341.3333333333333 256M85.3333333333333 213.3333333333334H170.6666666666667V192H85.3333333333333V213.3333333333334M85.3333333333333 170.6666666666667H170.6666666666667V149.3333333333334H85.3333333333333V170.6666666666667z" /></svg>