<?xml version="1.0" encoding="UTF-8"?><!DOCTYPE svg PUBLIC "-//W3C//DTD SVG 1.1//EN" "http://www.w3.org/Graphics/SVG/1.1/DTD/svg11.dtd"><svg xmlns="http://www.w3.org/2000/svg" xmlns:xlink="http://www.w3.org/1999/xlink" version="1.1" width="512" height="512" viewBox="0 0 512 512">    <path fill="#ffffff" transform="scale(1, -1) translate(0, -448)" glyph-name="zodiac-virgo" unicode="&#xFA87;" horiz-adv-x="512" d=" M394.6666666666667 39.8933333333334C426.6666666666667 68.9066666666667 426.6666666666667 124.16 426.6666666666667 149.3333333333334C426.6666666666667 196.48 388.48 234.6666666666667 341.3333333333333 234.6666666666667C326.4 234.6666666666667 311.4666666666667 230.4000000000001 298.6666666666667 222.72V320C298.6666666666667 355.4133333333334 270.08 384 234.6666666666667 384C218.6666666666667 384 203.7333333333334 377.8133333333334 192 367.36C167.68 389.12 130.9866666666667 389.12 106.6666666666667 367.36C94.9333333333333 378.0266666666667 79.7866666666667 384 64 384V341.3333333333334C75.7333333333333 341.3333333333334 85.3333333333333 331.7333333333334 85.3333333333333 320V106.6666666666667H128V320C128 331.7333333333334 137.6 341.3333333333334 149.3333333333333 341.3333333333334S170.6666666666667 331.7333333333334 170.6666666666667 320V106.6666666666667H213.3333333333333V320C213.3333333333333 331.7333333333334 222.9333333333333 341.3333333333334 234.6666666666667 341.3333333333334S256 331.7333333333334 256 320V149.3333333333334C256 124.16 256 68.9066666666667 288 39.8933333333334C271.36 31.1466666666667 253.44 24.7466666666667 234.6666666666667 21.3333333333334V-21.3333333333333C262.1866666666666 -21.3333333333333 316.5866666666667 5.5466666666667 341.3333333333333 18.5600000000001C366.08 5.5466666666667 420.48 -21.3333333333333 448 -21.3333333333333V21.3333333333334C429.2266666666667 24.7466666666667 411.3066666666667 31.1466666666667 394.6666666666667 39.8933333333334M341.3333333333333 192C364.8 192 384 172.8 384 149.3333333333334C384 87.04 372.48 64 341.3333333333333 64S298.6666666666667 87.04 298.6666666666667 149.3333333333334C298.6666666666667 172.8 317.8666666666667 192 341.3333333333333 192z" /></svg>