<?xml version="1.0" encoding="UTF-8"?><!DOCTYPE svg PUBLIC "-//W3C//DTD SVG 1.1//EN" "http://www.w3.org/Graphics/SVG/1.1/DTD/svg11.dtd"><svg xmlns="http://www.w3.org/2000/svg" xmlns:xlink="http://www.w3.org/1999/xlink" version="1.1" width="512" height="512" viewBox="0 0 512 512">    <path fill="#ffffff" transform="scale(1, -1) translate(0, -448)" glyph-name="xamarin-outline" unicode="&#xF845;" horiz-adv-x="512" d=" M256 192L256.64 194.1333333333333L311.04 296.5333333333333L314.6666666666667 298.6666666666667H348.5866666666667L352 296.5333333333333V292.2666666666667L298.6666666666667 192L352 91.7333333333334V87.4666666666667L348.5866666666667 85.3333333333334H314.6666666666667L311.04 87.4666666666667L256.64 189.8666666666667L256 192V189.8666666666667L200.96 87.4666666666667L197.3333333333333 85.3333333333334H163.4133333333333L160 87.4666666666667V91.7333333333334L213.3333333333333 192L160 292.2666666666667V296.5333333333334L163.4133333333333 298.6666666666667H197.3333333333333L200.96 296.5333333333334L256 194.1333333333333V192M485.3333333333333 211.84C488.7466666666667 205.8666666666667 490.6666666666666 199.04 490.6666666666666 192C490.6666666666666 184.96 488.7466666666667 178.1333333333333 485.3333333333333 172.16L385.7066666666666 0C378.0266666666667 -13.2266666666667 363.9466666666666 -21.3333333333333 348.8 -21.3333333333333H163.2C148.0533333333333 -21.3333333333333 133.9733333333333 -13.2266666666667 126.2933333333333 0L26.6666666666666 172.16C23.2533333333333 178.1333333333333 21.3333333333333 184.96 21.3333333333333 192C21.3333333333333 199.04 23.2533333333333 205.8666666666667 26.6666666666666 211.84L126.2933333333333 384C133.9733333333333 397.2266666666667 148.0533333333333 405.3333333333333 163.2 405.3333333333333H348.8C363.9466666666667 405.3333333333333 378.0266666666667 397.2266666666667 385.7066666666667 384L485.3333333333333 211.84M443.7333333333334 208L362.0266666666667 345.6C355.84 356.2666666666667 344.32 362.6666666666667 331.9466666666666 362.6666666666667H180.0533333333333C167.68 362.6666666666667 156.16 356.2666666666667 149.9733333333333 345.6L68.2666666666667 208C65.4933333333333 202.6666666666667 64 197.5466666666667 64 192S65.4933333333333 181.3333333333334 68.2666666666667 176L149.9733333333333 38.4C156.16 27.7333333333334 167.68 21.3333333333334 180.0533333333333 21.3333333333334H331.9466666666666C344.32 21.3333333333334 355.84 27.7333333333334 362.0266666666667 38.4L443.7333333333333 176C446.5066666666666 181.3333333333334 447.9999999999999 186.4533333333334 447.9999999999999 192S446.5066666666666 202.6666666666667 443.7333333333333 208z" /></svg>