<?xml version="1.0" encoding="UTF-8"?><!DOCTYPE svg PUBLIC "-//W3C//DTD SVG 1.1//EN" "http://www.w3.org/Graphics/SVG/1.1/DTD/svg11.dtd"><svg xmlns="http://www.w3.org/2000/svg" xmlns:xlink="http://www.w3.org/1999/xlink" version="1.1" width="512" height="512" viewBox="0 0 512 512">    <path fill="#ffffff" transform="scale(1, -1) translate(0, -448)" glyph-name="group" unicode="&#xF2C3;" horiz-adv-x="512" d=" M21.3333333333333 426.6666666666667V341.3333333333334H42.6666666666667V42.6666666666667H21.3333333333333V-42.6666666666666H106.6666666666667V-21.3333333333333H405.3333333333333V-42.6666666666666H490.6666666666666V42.6666666666667H469.3333333333333V341.3333333333334H490.6666666666666V426.6666666666667H405.3333333333333V405.3333333333333H106.6666666666667V426.6666666666667M106.6666666666667 362.6666666666667H405.3333333333333V341.3333333333334H426.6666666666667V42.6666666666667H405.3333333333333V21.3333333333334H106.6666666666667V42.6666666666667H85.3333333333333V341.3333333333334H106.6666666666667M128 320V149.3333333333334H192V64H384V256H298.6666666666667V320M170.6666666666667 277.3333333333334H256V192H170.6666666666667M298.6666666666667 213.3333333333334H341.3333333333333V106.6666666666667H234.6666666666667V149.3333333333334H298.6666666666667" /></svg>