<?xml version="1.0" encoding="UTF-8"?><!DOCTYPE svg PUBLIC "-//W3C//DTD SVG 1.1//EN" "http://www.w3.org/Graphics/SVG/1.1/DTD/svg11.dtd"><svg xmlns="http://www.w3.org/2000/svg" xmlns:xlink="http://www.w3.org/1999/xlink" version="1.1" width="512" height="512" viewBox="0 0 512 512">    <path fill="#ffffff" transform="scale(1, -1) translate(0, -448)" glyph-name="car-defrost-front" unicode="&#xFD3D;" horiz-adv-x="512" d=" M320 -42.6666666666666C313.6 -42.6666666666666 309.3333333333333 -40.5333333333333 305.0666666666667 -36.2666666666666C296.5333333333333 -27.7333333333333 298.6666666666667 -14.9333333333333 307.2 -6.4C317.8666666666667 2.1333333333333 343.4666666666667 32 343.4666666666667 55.4666666666666C343.4666666666667 68.2666666666667 334.9333333333334 81.0666666666666 326.4 95.9999999999999C315.7333333333334 113.0666666666666 300.8 134.4 300.8 160C300.8 209.0666666666666 328.5333333333334 228.2666666666666 332.8 230.4C343.4666666666667 236.8 356.2666666666667 232.5333333333333 362.6666666666667 224C369.0666666666667 213.3333333333333 364.8 200.5333333333333 356.2666666666667 194.1333333333333C356.2666666666667 194.1333333333333 345.6 185.5999999999999 345.6 160C345.6 147.1999999999999 354.1333333333333 134.4 362.6666666666667 119.4666666666666C373.3333333333333 102.4 388.2666666666667 81.0666666666666 388.2666666666667 55.4666666666666C388.2666666666667 8.5333333333332 343.4666666666666 -34.1333333333334 339.2 -38.4000000000001C330.6666666666667 -40.5333333333334 324.2666666666667 -42.6666666666667 320 -42.6666666666667M249.6 -36.2666666666667C253.8666666666666 -32.0000000000001 298.6666666666667 10.6666666666666 298.6666666666667 57.5999999999999C298.6666666666667 83.1999999999999 285.8666666666667 104.5333333333333 273.0666666666667 121.5999999999999C264.5333333333333 136.5333333333333 256 149.3333333333333 256 162.1333333333333C256 187.7333333333332 266.6666666666667 196.2666666666666 266.6666666666667 196.2666666666666C277.3333333333333 202.6666666666666 279.4666666666667 215.4666666666666 273.0666666666667 226.1333333333333C266.6666666666667 236.8 253.8666666666667 238.9333333333333 243.2 232.5333333333333C238.9333333333334 230.4 211.2 211.1999999999999 211.2 162.1333333333333C211.2 136.5333333333333 224 115.2 236.8 98.1333333333333C245.3333333333333 83.2 253.8666666666667 70.4 253.8666666666667 57.6C253.8666666666667 34.1333333333333 228.2666666666667 4.2666666666667 217.6 -4.2666666666667C209.0666666666667 -12.8 209.0666666666667 -25.6 215.4666666666667 -34.1333333333333C219.7333333333334 -38.3999999999999 226.1333333333334 -40.5333333333333 230.4 -40.5333333333333C238.9333333333334 -42.6666666666666 245.3333333333333 -40.5333333333333 249.6 -36.2666666666666M164.2666666666667 -36.2666666666666C168.5333333333334 -32 213.3333333333333 10.6666666666667 213.3333333333333 57.6000000000001C213.3333333333333 83.2000000000001 200.5333333333333 104.5333333333334 187.7333333333334 121.6000000000001C179.2 134.4000000000001 170.6666666666667 147.2000000000001 170.6666666666667 162.1333333333335C170.6666666666667 187.7333333333334 181.3333333333333 196.2666666666667 181.3333333333333 196.2666666666667C192 202.6666666666668 194.1333333333333 215.4666666666668 187.7333333333334 226.1333333333334C183.4666666666667 234.6666666666668 168.5333333333333 236.8000000000001 160 232.5333333333334C155.7333333333334 230.4000000000001 128 211.2000000000001 128 162.1333333333335C128 136.5333333333335 140.8 115.2000000000002 153.6 98.1333333333334C162.1333333333334 83.2000000000002 170.6666666666667 70.4000000000001 170.6666666666667 57.6000000000001C170.6666666666667 34.1333333333334 145.0666666666667 4.2666666666668 134.4 -4.2666666666665C125.8666666666667 -12.7999999999998 125.8666666666667 -25.5999999999998 132.2666666666667 -34.1333333333331C138.6666666666667 -40.5333333333331 142.9333333333334 -42.6666666666664 149.3333333333334 -42.6666666666664C153.6 -42.6666666666664 160 -40.5333333333331 164.2666666666667 -36.2666666666664M256 384C200.5333333333333 384 21.3333333333333 377.6 21.3333333333333 298.6666666666667C21.3333333333333 247.4666666666667 46.9333333333333 119.4666666666667 59.7333333333333 64H106.6666666666667V106.6666666666667H93.8666666666667C81.0666666666667 168.5333333333334 64 260.2666666666667 64 298.6666666666667C64 320 157.8666666666667 341.3333333333334 256 341.3333333333334S448 320 448 298.6666666666667C448 260.2666666666667 430.9333333333333 168.5333333333334 418.1333333333334 106.6666666666667H405.3333333333333V64H452.2666666666667C465.0666666666667 119.4666666666667 490.6666666666666 247.4666666666667 490.6666666666666 298.6666666666667C490.6666666666666 377.6 311.4666666666667 384 256 384z" /></svg>