<?xml version="1.0" encoding="UTF-8"?><!DOCTYPE svg PUBLIC "-//W3C//DTD SVG 1.1//EN" "http://www.w3.org/Graphics/SVG/1.1/DTD/svg11.dtd"><svg xmlns="http://www.w3.org/2000/svg" xmlns:xlink="http://www.w3.org/1999/xlink" version="1.1" width="512" height="512" viewBox="0 0 512 512">    <path fill="#ffffff" transform="scale(1, -1) translate(0, -448)" glyph-name="cast-off" unicode="&#xF789;" horiz-adv-x="512" d=" M34.1333333333333 420.9066666666667L5.3333333333333 389.3333333333333L30.08 366.9333333333334C24.7466666666667 359.8933333333333 21.3333333333333 350.9333333333334 21.3333333333333 341.3333333333334V277.3333333333334H64V336.4266666666667L388.2666666666667 42.6666666666667H298.6666666666667V0H435.4133333333333L475.9466666666666 -36.6933333333333L504.5333333333333 -5.1199999999999M138.6666666666667 384L185.6 341.3333333333334H448V103.68L490.6666666666666 65.0666666666667V341.3333333333334C490.6666666666666 365.0133333333333 471.4666666666667 384 448 384M21.3333333333333 234.6666666666667V192C127.36 192 213.3333333333333 106.0266666666666 213.3333333333333 0H256C256 129.7066666666667 151.04 234.6666666666667 21.3333333333333 234.6666666666667M21.3333333333333 149.3333333333334V106.6666666666667C80.2133333333333 106.6666666666667 128 58.88 128 0H170.6666666666667C170.6666666666667 82.5600000000001 103.8933333333333 149.3333333333334 21.3333333333333 149.3333333333334M21.3333333333333 64V0H85.3333333333333C85.3333333333333 35.4133333333334 56.7466666666667 64 21.3333333333333 64z" /></svg>