<?xml version="1.0" encoding="UTF-8"?><!DOCTYPE svg PUBLIC "-//W3C//DTD SVG 1.1//EN" "http://www.w3.org/Graphics/SVG/1.1/DTD/svg11.dtd"><svg xmlns="http://www.w3.org/2000/svg" xmlns:xlink="http://www.w3.org/1999/xlink" version="1.1" width="512" height="512" viewBox="0 0 512 512">    <path fill="#ffffff" transform="scale(1, -1) translate(0, -448)" glyph-name="paw" unicode="&#xF3E9;" horiz-adv-x="512" d=" M178.1333333333333 384C203.3066666666667 387.6266666666667 229.9733333333333 360.1066666666667 237.6533333333334 322.1333333333334C245.3333333333333 284.3733333333334 231.4666666666667 250.6666666666667 206.2933333333333 246.8266666666667C181.3333333333333 242.9866666666667 154.4533333333333 270.5066666666667 146.56 308.48C138.6666666666667 346.24 152.96 379.9466666666667 178.1333333333333 384M330.6666666666667 384C356.0533333333334 379.9466666666667 370.1333333333334 346.24 362.6666666666667 308.48C354.56 270.5066666666667 327.8933333333333 242.9866666666667 302.72 246.8266666666667C277.3333333333333 250.6666666666667 263.4666666666667 284.3733333333334 271.36 322.1333333333334C279.04 360.1066666666667 305.7066666666666 387.6266666666667 330.6666666666667 384M64 285.8666666666667C88.32 296.3200000000001 121.3866666666667 277.3333333333334 138.6666666666667 244.2666666666667C154.88 210.56 149.3333333333333 175.1466666666667 125.2266666666667 164.6933333333334C101.12 154.24 68.2666666666667 173.0133333333334 51.4133333333333 206.5066666666667C34.56 240 40.5333333333333 275.6266666666667 64 285.8666666666667M448 285.8666666666667C471.4666666666667 275.6266666666667 477.4399999999999 240 460.5866666666666 206.5066666666667C443.7333333333334 173.0133333333333 410.88 154.24 386.7733333333333 164.6933333333333C362.6666666666667 175.1466666666667 357.12 210.56 373.3333333333333 244.2666666666667C390.6133333333333 277.3333333333334 423.68 296.32 448 285.8666666666667M412.3733333333333 55.8933333333334C413.2266666666666 35.84 397.8666666666666 13.6533333333334 379.52 5.3333333333334C341.3333333333333 -12.16 296.1066666666667 24.1066666666667 253.6533333333333 24.1066666666667C211.2 24.1066666666667 165.5466666666666 -13.6533333333333 128 5.3333333333334C106.6666666666666 15.7866666666666 91.9466666666666 43.52 94.72 66.5600000000001C98.56 98.3466666666667 136.7466666666667 115.4133333333334 159.36 138.6666666666667C189.44 168.7466666666667 210.7733333333333 225.28 253.6533333333333 225.28C296.32 225.28 318.9333333333333 169.6 347.7333333333333 138.6666666666667C371.4133333333333 112.64 410.88 90.6666666666667 412.3733333333333 55.8933333333334z" /></svg>