<?xml version="1.0" encoding="UTF-8"?><!DOCTYPE svg PUBLIC "-//W3C//DTD SVG 1.1//EN" "http://www.w3.org/Graphics/SVG/1.1/DTD/svg11.dtd"><svg xmlns="http://www.w3.org/2000/svg" xmlns:xlink="http://www.w3.org/1999/xlink" version="1.1" width="512" height="512" viewBox="0 0 512 512">    <path fill="#ffffff" transform="scale(1, -1) translate(0, -448)" glyph-name="home-map-marker" unicode="&#xF5F8;" horiz-adv-x="512" d=" M256 384L42.6666666666667 192H106.6666666666667V21.3333333333334H405.3333333333333V192H469.3333333333333L256 384M256 283.7333333333334C300.8 283.7333333333334 337.0666666666667 247.4666666666667 337.0666666666667 202.6666666666667C337.0666666666667 138.6666666666667 256 64 256 64S174.9333333333333 138.6666666666667 174.9333333333333 202.6666666666667C174.9333333333333 247.4666666666667 211.2 283.7333333333334 256 283.7333333333334M256 234.6666666666667C238.2933333333333 234.6666666666667 224 220.3733333333333 224 202.6666666666667S238.2933333333333 170.6666666666667 256 170.6666666666667S288 184.96 288 202.6666666666667S273.7066666666667 234.6666666666667 256 234.6666666666667z" /></svg>