<?xml version="1.0" encoding="UTF-8"?><!DOCTYPE svg PUBLIC "-//W3C//DTD SVG 1.1//EN" "http://www.w3.org/Graphics/SVG/1.1/DTD/svg11.dtd"><svg xmlns="http://www.w3.org/2000/svg" xmlns:xlink="http://www.w3.org/1999/xlink" version="1.1" width="512" height="512" viewBox="0 0 512 512">    <path fill="#ffffff" transform="scale(1, -1) translate(0, -448)" glyph-name="firefox" unicode="&#xF239;" horiz-adv-x="512" d=" M448 198.4C448 206.9333333333334 445.8666666666666 219.7333333333334 443.7333333333334 228.2666666666667C437.3333333333333 264.5333333333334 418.1333333333334 296.5333333333334 394.6666666666667 322.1333333333334C390.4 328.5333333333334 381.8666666666666 334.9333333333334 373.3333333333333 341.3333333333334C349.8666666666666 360.5333333333334 322.1333333333334 373.3333333333334 290.1333333333334 379.7333333333334C226.1333333333334 390.4000000000001 162.1333333333333 369.0666666666667 119.4666666666667 324.2666666666667V326.4000000000001C117.3333333333333 330.6666666666667 117.3333333333333 330.6666666666667 115.2 330.6666666666667C113.0666666666667 334.9333333333334 113.0666666666667 337.0666666666667 110.9333333333333 339.2000000000001C110.9333333333333 343.4666666666667 108.8 347.7333333333334 108.8 352C102.4 349.8666666666667 102.4 343.4666666666667 100.2666666666667 339.2000000000001C96 334.9333333333334 91.7333333333333 328.5333333333334 91.7333333333333 322.1333333333334C89.6 317.8666666666667 85.3333333333333 298.6666666666668 89.6 296.5333333333334H91.7333333333333V290.1333333333334C87.4666666666666 285.8666666666667 85.3333333333333 283.7333333333334 85.3333333333333 281.6C78.9333333333333 268.8000000000001 72.5333333333333 258.1333333333334 70.4 245.3333333333334V238.9333333333334C66.1333333333333 234.6666666666667 66.1333333333333 228.2666666666667 64 224C66.1333333333333 224 66.1333333333333 226.1333333333334 68.2666666666667 226.1333333333334C57.6 170.6666666666667 72.5333333333333 113.0666666666667 106.6666666666666 70.4C157.8666666666666 8.5333333333334 245.3333333333333 -17.0666666666666 322.1333333333333 10.6666666666667C396.8 38.4 448 110.9333333333333 448 192V198.4M288 360.5333333333334C320 354.1333333333334 349.8666666666666 339.2000000000001 373.3333333333333 317.8666666666667C375.4666666666667 315.7333333333334 377.6 311.4666666666667 377.6 311.4666666666667C371.2 317.8666666666667 356.2666666666667 328.5333333333334 347.7333333333334 324.2666666666667C349.8666666666667 317.8666666666667 375.4666666666667 285.8666666666667 377.6 283.7333333333334C377.6 283.7333333333334 384 256 386.1333333333333 253.8666666666667C386.1333333333333 249.6 371.2 194.1333333333334 371.2 185.6C371.2 183.4666666666667 352 145.0666666666667 354.1333333333333 145.0666666666667C347.7333333333333 130.1333333333333 341.3333333333333 130.1333333333333 339.2 128C337.0666666666666 128 324.2666666666667 123.7333333333334 309.3333333333333 119.4666666666667C296.5333333333333 117.3333333333333 281.5999999999999 113.0666666666666 270.9333333333333 115.2C264.5333333333333 115.2 256 115.2 249.6 119.4666666666667C247.4666666666666 121.6 230.3999999999999 130.1333333333333 226.1333333333333 132.2666666666667C219.7333333333333 134.4 215.4666666666666 138.6666666666666 211.2 142.9333333333333H234.6666666666667C247.4666666666667 145.0666666666666 302.9333333333333 164.2666666666667 300.8 172.8C300.8 179.2 290.1333333333334 183.4666666666667 285.8666666666667 187.7333333333333C279.4666666666667 189.8666666666666 253.8666666666667 185.6 243.2 181.3333333333333C243.2 181.3333333333333 202.6666666666667 192 192 200.5333333333333C192 202.6666666666666 189.8666666666667 215.4666666666666 189.8666666666667 217.6C187.7333333333334 219.7333333333333 196.2666666666667 226.1333333333333 196.2666666666667 226.1333333333333S217.6 247.4666666666667 217.6 249.6C221.8666666666667 249.6 226.1333333333334 253.8666666666666 228.2666666666667 256C226.1333333333334 256 230.4 258.1333333333334 236.8 262.4C243.2000000000001 266.6666666666667 247.4666666666667 266.6666666666667 247.4666666666667 273.0666666666667C247.4666666666667 273.0666666666667 258.1333333333334 292.2666666666667 245.3333333333334 290.1333333333334C245.3333333333334 290.1333333333334 226.1333333333334 292.2666666666667 219.7333333333334 292.2666666666667C213.3333333333334 288 211.2000000000001 290.1333333333334 204.8000000000001 292.2666666666667C204.8000000000001 292.2666666666667 200.5333333333334 296.5333333333333 200.5333333333334 298.6666666666667C202.6666666666668 302.9333333333333 217.6000000000001 334.9333333333333 224.0000000000001 337.0666666666666C219.7333333333334 345.6 198.4000000000001 339.2 194.1333333333334 332.8C194.1333333333334 332.8 177.0666666666667 320 168.5333333333334 317.8666666666666C168.5333333333334 320 157.8666666666667 322.1333333333334 147.2000000000001 322.1333333333334C185.6000000000001 354.1333333333334 236.8000000000001 369.0666666666666 288.0000000000001 360.5333333333333z" /></svg>