<?xml version="1.0" encoding="UTF-8"?><!DOCTYPE svg PUBLIC "-//W3C//DTD SVG 1.1//EN" "http://www.w3.org/Graphics/SVG/1.1/DTD/svg11.dtd"><svg xmlns="http://www.w3.org/2000/svg" xmlns:xlink="http://www.w3.org/1999/xlink" version="1.1" width="512" height="512" viewBox="0 0 512 512">    <path fill="#ffffff" transform="scale(1, -1) translate(0, -448)" glyph-name="youtube" unicode="&#xF5C3;" horiz-adv-x="512" d=" M213.3333333333333 128L324.0533333333334 192L213.3333333333333 256V128M459.9466666666667 295.04C462.72 285.0133333333333 464.64 271.5733333333334 465.9200000000001 254.5066666666667C467.4133333333334 237.44 468.0533333333334 222.72 468.0533333333334 209.92L469.3333333333333 192C469.3333333333333 145.28 465.92 110.9333333333333 459.9466666666666 88.96C454.6133333333333 69.7600000000001 442.24 57.3866666666667 423.04 52.0533333333334C413.0133333333333 49.2800000000001 394.6666666666667 47.3600000000001 366.5066666666667 46.08C338.7733333333333 44.5866666666667 313.3866666666667 43.9466666666667 289.92 43.9466666666667L256 42.6666666666667C166.6133333333333 42.6666666666667 110.9333333333333 46.08 88.96 52.0533333333334C69.76 57.3866666666667 57.3866666666667 69.76 52.0533333333333 88.96C49.28 98.9866666666667 47.36 112.4266666666667 46.08 129.4933333333334C44.5866666666667 146.5600000000001 43.9466666666667 161.2800000000001 43.9466666666667 174.0800000000001L42.6666666666667 192C42.6666666666667 238.72 46.08 273.0666666666667 52.0533333333333 295.04C57.3866666666667 314.24 69.76 326.6133333333334 88.96 331.9466666666667C98.9866666666667 334.7200000000001 117.3333333333333 336.64 145.4933333333334 337.92C173.2266666666667 339.4133333333334 198.6133333333334 340.0533333333334 222.08 340.0533333333334L256 341.3333333333334C345.3866666666667 341.3333333333334 401.0666666666667 337.92 423.04 331.9466666666667C442.2399999999999 326.6133333333334 454.6133333333333 314.24 459.9466666666666 295.04z" /></svg>