<?xml version="1.0" encoding="UTF-8"?><!DOCTYPE svg PUBLIC "-//W3C//DTD SVG 1.1//EN" "http://www.w3.org/Graphics/SVG/1.1/DTD/svg11.dtd"><svg xmlns="http://www.w3.org/2000/svg" xmlns:xlink="http://www.w3.org/1999/xlink" version="1.1" width="512" height="512" viewBox="0 0 512 512">    <path fill="#ffffff" transform="scale(1, -1) translate(0, -448)" glyph-name="freebsd" unicode="&#xF8DF;" horiz-adv-x="512" d=" M57.3866666666667 405.3333333333333C75.52 406.4 129.7066666666667 380.5866666666667 130.7733333333333 379.9466666666667C103.2533333333333 362.6666666666667 79.7866666666667 339.4133333333334 62.08 311.8933333333333C44.5866666666667 345.3866666666667 28.5866666666667 385.92 42.6666666666667 400C46.2933333333333 403.6266666666667 51.2 405.3333333333333 57.3866666666667 405.3333333333333M444.5866666666667 402.56C453.3333333333333 403.6266666666667 460.3733333333333 402.3466666666667 464.64 398.08C487.4666666666667 375.04 424.1066666666667 274.1333333333334 413.4400000000001 263.2533333333334C402.56 252.5866666666667 374.8266666666667 262.4000000000001 352.0000000000001 285.2266666666667C329.1733333333334 308.2666666666667 319.3600000000001 335.7866666666667 330.0266666666668 346.6666666666667C338.7733333333335 355.4133333333334 407.2533333333334 398.9333333333334 444.5866666666667 402.56M256 393.3866666666667C283.52 393.3866666666667 309.9733333333333 387.84 334.08 378.0266666666667C323.6266666666667 371.2 315.9466666666667 365.8666666666667 313.3866666666667 363.3066666666667C292.2666666666667 342.1866666666667 301.6533333333333 302.2933333333334 335.36 268.5866666666667C356.2666666666667 247.8933333333333 380.5866666666667 235.3066666666667 400.64 235.3066666666667C415.1466666666666 235.3066666666667 424.9599999999999 241.4933333333333 430.08 246.6133333333333C433.7066666666666 250.24 439.4666666666666 258.56 446.08 268.5866666666667C456.9599999999999 243.4133333333333 462.7199999999999 215.8933333333333 462.7199999999999 186.6666666666666C462.7199999999999 72.3199999999999 370.3466666666667 -20.6933333333334 256 -20.6933333333334C141.6533333333333 -20.6933333333334 49.28 72.3199999999999 49.28 186.6666666666666S141.6533333333333 393.3866666666667 256 393.3866666666667z" /></svg>