<?xml version="1.0" encoding="UTF-8"?><!DOCTYPE svg PUBLIC "-//W3C//DTD SVG 1.1//EN" "http://www.w3.org/Graphics/SVG/1.1/DTD/svg11.dtd"><svg xmlns="http://www.w3.org/2000/svg" xmlns:xlink="http://www.w3.org/1999/xlink" version="1.1" width="512" height="512" viewBox="0 0 512 512">    <path fill="#ffffff" transform="scale(1, -1) translate(0, -448)" glyph-name="run-fast" unicode="&#xF46E;" horiz-adv-x="512" d=" M352 330.6666666666667C375.4666666666667 330.6666666666667 394.6666666666667 349.8666666666667 394.6666666666667 373.3333333333334S375.4666666666667 416 352 416S309.3333333333333 396.8 309.3333333333333 373.3333333333334S328.5333333333333 330.6666666666667 352 330.6666666666667M275.2 34.1333333333334L296.5333333333333 128.0000000000001L341.3333333333333 85.3333333333334V-42.6666666666666H384V117.3333333333334L339.2 160L352 224C381.6533333333333 190.0800000000001 424.32 170.6666666666667 469.3333333333333 170.6666666666667V213.3333333333334C431.7866666666667 212.6933333333334 396.8 232.32 377.6 264.5333333333334L356.2666666666667 298.6666666666667C348.5866666666667 311.4666666666667 334.9333333333333 320 320 320C313.6 320 309.3333333333333 317.8666666666667 302.9333333333333 317.8666666666667L192 270.9333333333334V170.6666666666667H234.6666666666667V243.2L273.0666666666667 258.1333333333334L238.9333333333334 85.3333333333334L134.4 106.6666666666667L125.8666666666667 64L275.2 34.1333333333334M85.3333333333333 256C73.6 256 64 265.6 64 277.3333333333334S73.6 298.6666666666667 85.3333333333333 298.6666666666667H149.3333333333333V256H85.3333333333333M106.6666666666667 341.3333333333334C94.9333333333333 341.3333333333334 85.3333333333333 350.9333333333334 85.3333333333333 362.6666666666667S94.9333333333333 384 106.6666666666667 384H213.3333333333333V341.3333333333334H106.6666666666667M64 170.6666666666667C52.2666666666667 170.6666666666667 42.6666666666667 180.2666666666667 42.6666666666667 192S52.2666666666667 213.3333333333334 64 213.3333333333334H149.3333333333333V170.6666666666667H64z" /></svg>