<?xml version="1.0" encoding="UTF-8"?><!DOCTYPE svg PUBLIC "-//W3C//DTD SVG 1.1//EN" "http://www.w3.org/Graphics/SVG/1.1/DTD/svg11.dtd"><svg xmlns="http://www.w3.org/2000/svg" xmlns:xlink="http://www.w3.org/1999/xlink" version="1.1" width="512" height="512" viewBox="0 0 512 512">    <path fill="#ffffff" transform="scale(1, -1) translate(0, -448)" glyph-name="tortoise" unicode="&#xFD17;" horiz-adv-x="512" d=" M411.9466666666666 328.5333333333334C385.92 329.3866666666667 360.1066666666667 309.3333333333334 352 277.3333333333334C341.3333333333333 234.6666666666667 341.3333333333333 234.6666666666667 320 213.3333333333334C277.3333333333333 170.6666666666667 213.3333333333333 149.3333333333334 85.3333333333333 128C64 124.5866666666667 53.3333333333333 117.3333333333334 42.6666666666667 106.6666666666667C85.3333333333333 106.6666666666667 128 106.6666666666667 96 74.6666666666667L64 42.6666666666667H128L170.6666666666667 85.3333333333334C213.3333333333333 64 241.7066666666667 64 284.3733333333334 85.3333333333334L298.6666666666667 42.6666666666667H362.6666666666667L341.3333333333333 106.6666666666667S362.6666666666667 192 384 213.3333333333334S405.3333333333333 213.3333333333334 426.6666666666667 213.3333333333334S469.3333333333333 234.6666666666667 469.3333333333333 266.6666666666667C469.3333333333333 277.3333333333334 469.3333333333333 298.6666666666667 437.3333333333333 320C429.8666666666666 325.12 421.12 328.1066666666667 411.9466666666666 328.5333333333334M192 320C121.3866666666667 320 64 262.6133333333334 64 192C64 179.2000000000001 66.7733333333333 168.96 68.9066666666667 157.8666666666667C195.2 178.7733333333334 262.1866666666667 200.7466666666667 297.1733333333333 235.9466666666667L307.84 246.6133333333334C286.72 291.4133333333334 241.4933333333334 320 192 320z" /></svg>