<?xml version="1.0" encoding="UTF-8"?><!DOCTYPE svg PUBLIC "-//W3C//DTD SVG 1.1//EN" "http://www.w3.org/Graphics/SVG/1.1/DTD/svg11.dtd"><svg xmlns="http://www.w3.org/2000/svg" xmlns:xlink="http://www.w3.org/1999/xlink" version="1.1" width="512" height="512" viewBox="0 0 512 512">    <path fill="#ffffff" transform="scale(1, -1) translate(0, -448)" glyph-name="phone-missed" unicode="&#xF3FA;" horiz-adv-x="512" d=" M505.8133333333333 92.3733333333333C440.7466666666667 154.24 352.8533333333333 192 256 192C159.1466666666667 192 71.2533333333333 154.24 6.1866666666667 92.3733333333333C2.3466666666667 88.5333333333333 0 83.2 0 77.2266666666666C0 71.4666666666666 2.3466666666667 66.1333333333333 6.1866666666667 62.2933333333333L59.0933333333333 9.3866666666667C62.9333333333333 5.5466666666666 68.2666666666667 2.9866666666666 74.6666666666667 2.9866666666666C80 2.9866666666666 85.3333333333333 5.3333333333333 89.1733333333333 9.1733333333333C106.0266666666667 24.9599999999999 125.0133333333333 38.1866666666666 145.92 48.64C152.96 52.0533333333333 157.8666666666667 59.3066666666666 157.8666666666667 67.8399999999999V133.9733333333333C188.8 144 221.6533333333333 149.3333333333333 256 149.3333333333333C290.1333333333334 149.3333333333333 323.2 144 354.1333333333334 133.9733333333333V67.8399999999999C354.1333333333334 59.3066666666666 359.04 52.0533333333333 366.08 48.64C386.9866666666667 38.1866666666667 405.9733333333334 24.96 422.8266666666667 9.1733333333333C426.6666666666667 5.3333333333333 432 2.9866666666666 437.3333333333333 2.9866666666666C443.7333333333334 2.9866666666666 449.0666666666667 5.5466666666666 452.9066666666666 9.3866666666667L505.8133333333333 62.2933333333333C509.6533333333333 66.1333333333333 512 71.4666666666666 512 77.2266666666666C512 83.2 509.6533333333333 88.5333333333333 505.8133333333333 92.3733333333333M138.6666666666667 330.6666666666667L256 213.3333333333334L405.3333333333333 362.6666666666667L384 384L256 256L160 352H234.6666666666667V384H106.6666666666667V256H138.6666666666667V330.6666666666667z" /></svg>