<?xml version="1.0" encoding="UTF-8"?><!DOCTYPE svg PUBLIC "-//W3C//DTD SVG 1.1//EN" "http://www.w3.org/Graphics/SVG/1.1/DTD/svg11.dtd"><svg xmlns="http://www.w3.org/2000/svg" xmlns:xlink="http://www.w3.org/1999/xlink" version="1.1" width="512" height="512" viewBox="0 0 512 512">    <path fill="#ffffff" transform="scale(1, -1) translate(0, -448)" glyph-name="map-marker-radius" unicode="&#xF352;" horiz-adv-x="512" d=" M256 405.3333333333333C326.6133333333334 405.3333333333333 384 348.5866666666667 384 278.4C384 183.2533333333333 256 42.6666666666667 256 42.6666666666667S128 183.2533333333333 128 278.4C128 348.5866666666667 185.3866666666667 405.3333333333333 256 405.3333333333333M256 320C232.5333333333334 320 213.3333333333333 300.8 213.3333333333333 277.3333333333334S232.5333333333334 234.6666666666667 256 234.6666666666667S298.6666666666667 253.8666666666667 298.6666666666667 277.3333333333334S279.4666666666667 320 256 320M426.6666666666667 42.6666666666667C426.6666666666667 -4.48 350.2933333333334 -42.6666666666666 256 -42.6666666666666S85.3333333333333 -4.48 85.3333333333333 42.6666666666667C85.3333333333333 70.1866666666667 111.36 94.72 151.68 110.2933333333334L165.3333333333333 90.8800000000001C142.2933333333333 81.28 128 68.0533333333334 128 53.3333333333334C128 23.8933333333334 185.3866666666667 0 256 0S384 23.8933333333334 384 53.3333333333334C384 68.0533333333334 369.7066666666666 81.28 346.6666666666667 90.8800000000001L360.32 110.2933333333334C400.64 94.72 426.6666666666667 70.1866666666667 426.6666666666667 42.6666666666667z" /></svg>