<?xml version="1.0" encoding="UTF-8"?><!DOCTYPE svg PUBLIC "-//W3C//DTD SVG 1.1//EN" "http://www.w3.org/Graphics/SVG/1.1/DTD/svg11.dtd"><svg xmlns="http://www.w3.org/2000/svg" xmlns:xlink="http://www.w3.org/1999/xlink" version="1.1" width="512" height="512" viewBox="0 0 512 512">    <path fill="#ffffff" transform="scale(1, -1) translate(0, -448)" glyph-name="bandage" unicode="&#xFD8B;" horiz-adv-x="512" d=" M378.24 192L463.1466666666666 276.48C471.4666666666667 284.8 471.4666666666667 298.6666666666667 463.1466666666666 306.5600000000001L370.56 399.1466666666667C362.6666666666667 407.4666666666667 348.8 407.4666666666667 340.48 399.1466666666667L256 314.24L170.6666666666667 399.1466666666667C166.4 403.2 161.0666666666667 405.3333333333333 155.52 405.3333333333333C150.1866666666667 405.3333333333333 144.64 403.2 140.5866666666667 399.1466666666667L48 306.56C39.68 298.6666666666667 39.68 284.8 48 276.48L132.9066666666667 192L48 106.6666666666667C39.68 98.3466666666667 39.68 85.3333333333334 48 76.5866666666667L140.5866666666667 -16C149.3333333333333 -24.32 162.3466666666666 -24.32 170.6666666666667 -16L256 68.9066666666667L340.48 -16C344.7466666666667 -20.2666666666666 350.08 -22.1866666666666 355.6266666666667 -22.1866666666666C361.1733333333334 -22.1866666666666 366.5066666666667 -20.0533333333333 370.7733333333334 -16L463.36 76.5866666666667C471.6800000000001 85.3333333333334 471.6800000000001 98.3466666666667 463.36 106.6666666666667L378.2400000000001 192M256 256C267.7333333333334 256 277.3333333333333 246.4000000000001 277.3333333333333 234.6666666666667S267.7333333333334 213.3333333333334 256 213.3333333333334S234.6666666666667 222.9333333333333 234.6666666666667 234.6666666666667S244.2666666666667 256 256 256M155.52 214.1866666666667L78.08 291.4133333333334L155.52 368.8533333333334L232.7466666666667 291.6266666666667L155.52 214.1866666666667M213.3333333333333 170.6666666666667C201.6 170.6666666666667 192 180.2666666666667 192 192S201.6 213.3333333333334 213.3333333333333 213.3333333333334S234.6666666666667 203.7333333333334 234.6666666666667 192S225.0666666666667 170.6666666666667 213.3333333333333 170.6666666666667M256 128C244.2666666666667 128 234.6666666666667 137.6 234.6666666666667 149.3333333333334S244.2666666666667 170.6666666666667 256 170.6666666666667S277.3333333333333 161.0666666666667 277.3333333333333 149.3333333333334S267.7333333333334 128 256 128M298.6666666666667 213.3333333333334C310.4 213.3333333333334 320 203.7333333333334 320 192S310.4 170.6666666666667 298.6666666666667 170.6666666666667S277.3333333333333 180.2666666666667 277.3333333333333 192S286.9333333333333 213.3333333333334 298.6666666666667 213.3333333333334M355.4133333333333 14.08L277.9733333333334 91.3066666666667L355.4133333333333 168.7466666666667L432.64 91.52L355.4133333333333 14.08z" /></svg>