<?xml version="1.0" encoding="UTF-8"?><!DOCTYPE svg PUBLIC "-//W3C//DTD SVG 1.1//EN" "http://www.w3.org/Graphics/SVG/1.1/DTD/svg11.dtd"><svg xmlns="http://www.w3.org/2000/svg" xmlns:xlink="http://www.w3.org/1999/xlink" version="1.1" width="512" height="512" viewBox="0 0 512 512">    <path fill="#ffffff" transform="scale(1, -1) translate(0, -448)" glyph-name="google-cardboard" unicode="&#xF2AE;" horiz-adv-x="512" d=" M442.4533333333333 320H68.2666666666667C54.4 320 42.6666666666667 307.8400000000001 42.6666666666667 292.9066666666667V69.76C42.6666666666667 54.8266666666667 54.4 42.6666666666667 68.9066666666667 42.6666666666667H170.6666666666667C182.1866666666667 42.6666666666667 192 49.4933333333333 195.4133333333333 59.52L225.0666666666667 133.5466666666667C230.1866666666667 145.92 242.1333333333334 154.6666666666667 256 154.6666666666667C269.8666666666667 154.6666666666667 281.8133333333334 145.92 286.9333333333333 133.5466666666667L316.5866666666667 59.52C320.64 49.4933333333333 329.8133333333333 42.6666666666667 340.2666666666667 42.6666666666667H442.4533333333333C457.6 42.6666666666667 469.3333333333333 54.8266666666667 469.3333333333333 69.76V292.9066666666667C469.3333333333333 307.8400000000001 457.6 320 442.4533333333333 320M154.0266666666667 136.96C128 136.96 106.6666666666667 158.9333333333333 106.6666666666667 185.8133333333334C106.6666666666667 213.3333333333334 128 234.6666666666667 154.0266666666667 234.6666666666667C180.0533333333333 234.6666666666667 201.1733333333333 213.3333333333334 201.1733333333333 185.8133333333334C201.1733333333333 158.9333333333334 180.0533333333333 136.96 154.0266666666667 136.96M357.9733333333334 136.96C331.9466666666667 136.96 310.8266666666667 158.9333333333334 310.8266666666667 185.8133333333334S331.9466666666667 234.6666666666667 357.9733333333334 234.6666666666667S405.3333333333333 212.6933333333334 405.3333333333333 185.8133333333334S384 136.96 357.9733333333334 136.96z" /></svg>