<?xml version="1.0" encoding="UTF-8"?><!DOCTYPE svg PUBLIC "-//W3C//DTD SVG 1.1//EN" "http://www.w3.org/Graphics/SVG/1.1/DTD/svg11.dtd"><svg xmlns="http://www.w3.org/2000/svg" xmlns:xlink="http://www.w3.org/1999/xlink" version="1.1" width="512" height="512" viewBox="0 0 512 512">    <path fill="#ffffff" transform="scale(1, -1) translate(0, -448)" glyph-name="et" unicode="&#xFAB2;" horiz-adv-x="512" d=" M490.6666666666666 260.6933333333334L463.1466666666666 293.9733333333334C457.6 289.7066666666667 437.9733333333334 277.3333333333334 421.76 277.3333333333334C410.88 277.3333333333334 390.4 282.6666666666667 372.2666666666667 287.36C349.6533333333333 293.12 328.32 298.6666666666667 311.4666666666667 298.6666666666667C298.6666666666667 298.6666666666667 286.5066666666667 295.4666666666667 275.84 291.2000000000001C269.2266666666667 331.7333333333334 234.6666666666667 362.6666666666667 192 362.6666666666667C97.7066666666667 362.6666666666667 42.6666666666667 286.2933333333334 42.6666666666667 192S119.04 42.6666666666667 213.3333333333333 42.6666666666667C257.28 42.6666666666667 297.1733333333333 54.8266666666667 327.2533333333334 77.0133333333333L320 -6.1866666666666L362.6666666666667 -10.0266666666666L384 240.2133333333334C398.08 237.0133333333334 411.0933333333333 234.6666666666667 421.76 234.6666666666667C456.1066666666666 234.6666666666667 487.2533333333333 257.9200000000001 490.6666666666666 260.6933333333334M192 320C215.4666666666667 320 234.6666666666667 300.8 234.6666666666667 277.3333333333334S215.4666666666667 234.6666666666667 192 234.6666666666667H90.24C102.4 284.3733333333334 136.32 320 192 320M213.3333333333333 85.3333333333334C142.72 85.3333333333334 85.3333333333333 121.3866666666667 85.3333333333333 192H192C226.1333333333334 192 252.3733333333334 209.7066666666667 266.6666666666667 236.5866666666667C272.2133333333333 240.8533333333333 295.4666666666667 256 311.4666666666667 256C318.72 256 330.6666666666667 253.6533333333334 342.4 250.6666666666667L333.8666666666667 151.68C316.16 107.7333333333334 268.8 85.3333333333334 213.3333333333333 85.3333333333334z" /></svg>