<?xml version="1.0" encoding="UTF-8"?><!DOCTYPE svg PUBLIC "-//W3C//DTD SVG 1.1//EN" "http://www.w3.org/Graphics/SVG/1.1/DTD/svg11.dtd"><svg xmlns="http://www.w3.org/2000/svg" xmlns:xlink="http://www.w3.org/1999/xlink" version="1.1" width="512" height="512" viewBox="0 0 512 512">    <path fill="#ffffff" transform="scale(1, -1) translate(0, -448)" glyph-name="account-search-outline" unicode="&#xF934;" horiz-adv-x="512" d=" M213.3333333333333 170.6666666666667C205.8666666666667 158.0800000000001 199.68 144.2133333333334 196.0533333333333 129.4933333333334C138.6666666666667 124.5866666666667 83.2 97.7066666666667 83.2 85.3333333333334V61.8666666666667H196.2666666666667C199.8933333333333 47.36 205.8666666666666 33.7066666666667 213.3333333333333 21.3333333333334H42.6666666666667V85.3333333333334C42.6666666666667 142.0800000000001 156.3733333333333 170.6666666666667 213.3333333333333 170.6666666666667M213.3333333333333 362.6666666666667C260.48 362.6666666666667 298.6666666666667 324.48 298.6666666666667 277.3333333333334C298.6666666666667 257.92 292.0533333333333 240 281.1733333333333 225.4933333333334C262.8266666666667 218.6666666666667 246.4 207.7866666666667 232.7466666666667 194.1333333333333L213.3333333333333 192C166.1866666666667 192 128 230.1866666666667 128 277.3333333333334S166.1866666666667 362.6666666666667 213.3333333333333 362.6666666666667M213.3333333333333 322.1333333333334C188.5866666666667 322.1333333333334 168.5333333333333 302.0800000000001 168.5333333333333 277.3333333333334C168.5333333333333 252.5866666666667 188.5866666666667 232.5333333333334 213.3333333333333 232.5333333333334C238.08 232.5333333333334 258.1333333333334 252.5866666666667 258.1333333333334 277.3333333333334C258.1333333333334 302.0800000000001 238.08 322.1333333333334 213.3333333333333 322.1333333333334M330.6666666666667 192C384 192 426.6666666666667 149.3333333333334 426.6666666666667 96C426.6666666666667 77.2266666666667 421.3333333333333 59.52 411.9466666666666 44.8000000000001L477.6533333333333 -21.3333333333333L448 -50.9866666666667L381.44 14.5066666666667C366.7199999999999 5.3333333333334 349.2266666666666 0 330.6666666666667 0C277.3333333333333 0 234.6666666666667 42.6666666666667 234.6666666666667 96S277.3333333333333 192 330.6666666666667 192M330.6666666666667 149.3333333333334C301.2266666666667 149.3333333333334 277.3333333333333 125.44 277.3333333333333 96S301.2266666666667 42.6666666666667 330.6666666666667 42.6666666666667S384 66.5600000000001 384 96S360.1066666666667 149.3333333333334 330.6666666666667 149.3333333333334z" /></svg>