<?xml version="1.0" encoding="UTF-8"?><!DOCTYPE svg PUBLIC "-//W3C//DTD SVG 1.1//EN" "http://www.w3.org/Graphics/SVG/1.1/DTD/svg11.dtd"><svg xmlns="http://www.w3.org/2000/svg" xmlns:xlink="http://www.w3.org/1999/xlink" version="1.1" width="512" height="512" viewBox="0 0 512 512">    <path fill="#ffffff" transform="scale(1, -1) translate(0, -448)" glyph-name="camera-metering-partial" unicode="&#xF7A3;" horiz-adv-x="512" d=" M85.3333333333333 362.6666666666667H426.6666666666667C450.1333333333334 362.6666666666667 469.3333333333333 343.4666666666667 469.3333333333333 320V64C469.3333333333333 40.5333333333333 450.1333333333334 21.3333333333334 426.6666666666667 21.3333333333334H85.3333333333333C61.8666666666667 21.3333333333334 42.6666666666667 40.5333333333333 42.6666666666667 64V320C42.6666666666667 343.4666666666667 61.8666666666667 362.6666666666667 85.3333333333333 362.6666666666667M85.3333333333333 320V64H426.6666666666667V320H85.3333333333333M256 288C301.6533333333333 288 339.84 256 349.6533333333333 213.3333333333334H316.3733333333334C307.6266666666667 238.2933333333334 283.9466666666667 256 256 256S204.3733333333333 238.2933333333334 195.6266666666667 213.3333333333334H162.3466666666667C172.16 256 210.3466666666666 288 256 288M256 96C210.3466666666666 96 172.16 128 162.3466666666667 170.6666666666667H195.6266666666667C204.3733333333333 145.7066666666667 228.0533333333333 128 256 128S307.6266666666667 145.7066666666667 316.3733333333334 170.6666666666667H349.6533333333333C339.84 128 301.6533333333333 96 256 96z" /></svg>