<?xml version="1.0" encoding="UTF-8"?><!DOCTYPE svg PUBLIC "-//W3C//DTD SVG 1.1//EN" "http://www.w3.org/Graphics/SVG/1.1/DTD/svg11.dtd"><svg xmlns="http://www.w3.org/2000/svg" xmlns:xlink="http://www.w3.org/1999/xlink" version="1.1" width="512" height="512" viewBox="0 0 512 512">    <path fill="#ffffff" transform="scale(1, -1) translate(0, -448)" glyph-name="periodic-table-co2" unicode="&#xF7E3;" horiz-adv-x="512" d=" M106.6666666666667 298.6666666666667C83.2 298.6666666666667 64 279.4666666666667 64 256V128C64 104.5333333333333 83.2 85.3333333333334 106.6666666666667 85.3333333333334H170.6666666666667V128H106.6666666666667V256H170.6666666666667V298.6666666666667H106.6666666666667M234.6666666666667 298.6666666666667C211.2 298.6666666666667 192 279.4666666666667 192 256V128C192 104.5333333333333 211.2 85.3333333333334 234.6666666666667 85.3333333333334H277.3333333333333C300.8 85.3333333333334 320 104.5333333333333 320 128V256C320 279.4666666666667 300.8 298.6666666666667 277.3333333333333 298.6666666666667H234.6666666666667M234.6666666666667 256H277.3333333333333V128H234.6666666666667V256M341.3333333333333 224V192H405.3333333333333V160H373.3333333333333C355.6266666666667 160 341.3333333333333 145.7066666666667 341.3333333333333 128V64H437.3333333333333V96H373.3333333333333V128H405.3333333333333C423.04 128 437.3333333333333 142.2933333333334 437.3333333333333 160V192C437.3333333333333 209.7066666666667 423.04 224 405.3333333333333 224H341.3333333333333z" /></svg>