<?xml version="1.0" encoding="UTF-8"?><!DOCTYPE svg PUBLIC "-//W3C//DTD SVG 1.1//EN" "http://www.w3.org/Graphics/SVG/1.1/DTD/svg11.dtd"><svg xmlns="http://www.w3.org/2000/svg" xmlns:xlink="http://www.w3.org/1999/xlink" version="1.1" width="512" height="512" viewBox="0 0 512 512">    <path fill="#ffffff" transform="scale(1, -1) translate(0, -448)" glyph-name="ticket-confirmation" unicode="&#xF518;" horiz-adv-x="512" d=" M277.3333333333333 266.6666666666667H234.6666666666667V309.3333333333334H277.3333333333333V266.6666666666667M277.3333333333333 170.6666666666667H234.6666666666667V213.3333333333334H277.3333333333333V170.6666666666667M277.3333333333333 74.6666666666667H234.6666666666667V117.3333333333334H277.3333333333333V74.6666666666667M469.3333333333333 234.6666666666667V320C469.3333333333333 343.68 450.1333333333334 362.6666666666667 426.6666666666667 362.6666666666667H85.3333333333333C61.8666666666667 362.6666666666667 42.6666666666667 343.4666666666667 42.6666666666667 320V234.6666666666667C66.3466666666667 234.6666666666667 85.3333333333333 215.4666666666667 85.3333333333333 192S66.1333333333333 149.3333333333334 42.6666666666667 149.3333333333334V64C42.6666666666667 40.5333333333333 61.8666666666667 21.3333333333334 85.3333333333333 21.3333333333334H426.6666666666667C450.1333333333334 21.3333333333334 469.3333333333333 40.5333333333333 469.3333333333333 64V149.3333333333334C445.8666666666666 149.3333333333334 426.6666666666667 168.5333333333334 426.6666666666667 192S445.8666666666666 234.6666666666667 469.3333333333333 234.6666666666667z" /></svg>