<?xml version="1.0" encoding="UTF-8"?><!DOCTYPE svg PUBLIC "-//W3C//DTD SVG 1.1//EN" "http://www.w3.org/Graphics/SVG/1.1/DTD/svg11.dtd"><svg xmlns="http://www.w3.org/2000/svg" xmlns:xlink="http://www.w3.org/1999/xlink" version="1.1" width="512" height="512" viewBox="0 0 512 512">    <path fill="#ffffff" transform="scale(1, -1) translate(0, -448)" glyph-name="cogs" unicode="&#xF8D5;" horiz-adv-x="512" d=" M339.2 54.4C368 54.4 391.4666666666667 77.8666666666667 391.4666666666667 106.6666666666667S368 158.9333333333333 339.2000000000001 158.9333333333333C310.1866666666667 158.9333333333333 286.9333333333334 135.4666666666667 286.9333333333334 106.6666666666667S310.1866666666667 54.4 339.2000000000001 54.4M450.1333333333334 92.16L481.7066666666667 67.4133333333334C484.48 65.0666666666667 485.3333333333334 61.2266666666667 483.4133333333333 57.8133333333334L453.5466666666667 6.1866666666667C451.6266666666667 2.9866666666667 448 1.7066666666666 444.3733333333334 2.9866666666667L407.2533333333334 17.92C399.5733333333334 11.9466666666667 391.04 7.04 382.0800000000001 3.2L376.3200000000001 -36.2666666666667C375.8933333333335 -39.8933333333334 372.6933333333334 -42.6666666666667 369.0666666666667 -42.6666666666667H309.3333333333334C305.4933333333334 -42.6666666666667 302.5066666666667 -39.8933333333334 301.8666666666668 -36.2666666666667L296.3200000000001 3.2C287.1466666666668 7.04 278.8266666666667 11.9466666666667 271.1466666666668 17.92L233.8133333333334 2.9866666666667C230.6133333333334 1.7066666666667 226.5600000000001 2.9866666666667 224.8533333333334 6.1866666666667L194.9866666666667 57.8133333333334C193.0666666666668 61.2266666666667 193.9200000000001 65.0666666666667 196.6933333333334 67.4133333333334L228.2666666666668 92.16L227.2000000000001 106.6666666666667L228.2666666666668 121.3866666666667L196.6933333333334 145.92C193.9200000000001 148.2666666666667 193.0666666666668 152.3200000000001 194.9866666666667 155.52L224.8533333333334 207.1466666666667C226.5600000000001 210.56 230.6133333333334 211.84 233.8133333333334 210.56L271.1466666666668 195.4133333333334C278.8266666666667 201.3866666666667 287.1466666666668 206.5066666666667 296.3200000000001 210.1333333333333L301.8666666666668 249.8133333333334C302.5066666666667 253.2266666666667 305.4933333333334 256 309.3333333333334 256H369.0666666666667C372.6933333333335 256 375.8933333333335 253.2266666666667 376.3200000000001 249.8133333333334L382.0800000000001 210.1333333333333C391.0400000000001 206.5066666666667 399.5733333333334 201.3866666666667 407.2533333333334 195.4133333333334L444.3733333333334 210.56C448.0000000000001 211.84 451.6266666666667 210.56 453.5466666666667 207.1466666666667L483.4133333333333 155.5200000000001C485.3333333333333 152.3200000000001 484.48 148.2666666666667 481.7066666666667 145.9200000000001L450.1333333333334 121.3866666666667L451.2 106.6666666666667L450.1333333333334 92.16M142.72 275.8400000000001C161.28 275.8400000000001 176.2133333333333 290.7733333333333 176.2133333333333 309.3333333333334C176.2133333333333 327.8933333333333 161.28 343.04 142.72 343.04C124.16 343.04 109.0133333333333 327.8933333333333 109.0133333333333 309.3333333333334C109.0133333333333 290.7733333333333 124.16 275.8400000000001 142.72 275.8400000000001M213.9733333333333 299.9466666666667L234.6666666666667 284.16C236.16 282.6666666666667 236.5866666666667 280.1066666666667 235.3066666666667 277.9733333333334L216.1066666666666 244.6933333333334C215.04 242.56 212.48 241.7066666666667 210.3466666666666 242.56L186.4533333333333 252.16L170.6666666666666 242.7733333333333L166.6133333333333 217.3866666666667C166.1866666666666 215.04 164.2666666666666 213.3333333333334 161.92 213.3333333333334H123.52C120.96 213.3333333333334 119.04 215.04 118.6133333333333 217.3866666666667L115.2 242.7733333333334L98.9866666666667 252.1600000000001L74.6666666666667 242.5600000000001C72.7466666666667 241.7066666666667 70.4 242.5600000000001 69.12 244.6933333333334L49.92 277.9733333333334C48.64 280.1066666666667 49.28 282.6666666666667 50.9866666666667 284.1600000000001L71.2533333333334 299.9466666666667L70.6133333333334 309.3333333333334L71.2533333333334 318.7200000000001L50.9866666666667 334.5066666666667C49.28 336.0000000000001 48.64 338.5600000000001 49.92 340.6933333333334L69.12 373.9733333333334C70.4 376.1066666666668 72.7466666666667 376.9600000000001 74.6666666666667 376.1066666666668L98.7733333333333 366.5066666666667L115.2 375.8933333333334L118.6133333333334 401.2800000000001C119.04 403.6266666666667 120.96 405.3333333333334 123.52 405.3333333333334H161.92C164.2666666666667 405.3333333333334 166.1866666666667 403.6266666666667 166.6133333333334 401.2800000000001L170.6666666666667 375.8933333333333L186.4533333333333 366.5066666666667L210.3466666666666 376.1066666666667C212.48 376.9600000000001 215.04 376.1066666666667 216.1066666666666 373.9733333333334L235.3066666666667 340.6933333333334C236.5866666666667 338.5600000000001 236.16 336 234.6666666666667 334.5066666666667L213.9733333333333 318.7200000000001L214.6133333333333 309.3333333333334L213.9733333333333 299.9466666666667z" /></svg>