<?xml version="1.0" encoding="UTF-8"?><!DOCTYPE svg PUBLIC "-//W3C//DTD SVG 1.1//EN" "http://www.w3.org/Graphics/SVG/1.1/DTD/svg11.dtd"><svg xmlns="http://www.w3.org/2000/svg" xmlns:xlink="http://www.w3.org/1999/xlink" version="1.1" width="512" height="512" viewBox="0 0 512 512">    <path fill="#ffffff" transform="scale(1, -1) translate(0, -448)" glyph-name="scale-balance" unicode="&#xF5D1;" horiz-adv-x="512" d=" M256 384C228.9066666666667 384 204.8 366.9333333333334 195.84 341.3333333333334H64V298.6666666666667H105.6L42.6666666666667 149.3333333333334C32.64 106.6666666666667 64 85.3333333333334 117.3333333333333 85.3333333333334S203.9466666666666 106.6666666666667 192 149.3333333333334L129.0666666666667 298.6666666666667H195.6266666666667C202.6666666666667 280.5333333333334 216.5333333333333 266.6666666666667 234.6666666666667 259.6266666666667V21.3333333333334H42.6666666666667V-21.3333333333333H469.3333333333333V21.3333333333334H277.3333333333333V259.8400000000001C295.4666666666667 266.6666666666667 309.3333333333333 280.5333333333333 316.16 298.6666666666667H382.9333333333333L320 149.3333333333334C309.9733333333333 106.6666666666667 341.3333333333333 85.3333333333334 394.6666666666667 85.3333333333334S481.28 106.6666666666667 469.3333333333333 149.3333333333334L406.4 298.6666666666667H448V341.3333333333334H316.3733333333334C307.2 366.9333333333334 283.0933333333333 384 256 384M256 341.3333333333334C267.7333333333334 341.3333333333334 277.3333333333333 331.7333333333334 277.3333333333333 320S267.7333333333334 298.6666666666667 256 298.6666666666667S234.6666666666667 308.2666666666667 234.6666666666667 320S244.2666666666667 341.3333333333334 256 341.3333333333334M117.3333333333333 229.3333333333334L149.3333333333333 149.3333333333334H85.3333333333333L117.3333333333333 229.3333333333334M394.6666666666667 229.3333333333334L426.6666666666667 149.3333333333334H362.6666666666667L394.6666666666667 229.3333333333334z" /></svg>