<?xml version="1.0" encoding="UTF-8"?><!DOCTYPE svg PUBLIC "-//W3C//DTD SVG 1.1//EN" "http://www.w3.org/Graphics/SVG/1.1/DTD/svg11.dtd"><svg xmlns="http://www.w3.org/2000/svg" xmlns:xlink="http://www.w3.org/1999/xlink" version="1.1" width="512" height="512" viewBox="0 0 512 512">    <path fill="#ffffff" transform="scale(1, -1) translate(0, -448)" glyph-name="content-paste" unicode="&#xF192;" horiz-adv-x="512" d=" M405.3333333333333 21.3333333333334H106.6666666666667V362.6666666666667H149.3333333333333V298.6666666666667H362.6666666666667V362.6666666666667H405.3333333333333M256 405.3333333333333C267.7333333333334 405.3333333333333 277.3333333333333 395.7333333333334 277.3333333333333 384S267.7333333333334 362.6666666666667 256 362.6666666666667S234.6666666666667 372.2666666666667 234.6666666666667 384S244.2666666666667 405.3333333333333 256 405.3333333333333M405.3333333333333 405.3333333333333H316.16C307.2 430.08 283.7333333333334 448 256 448C228.2666666666667 448 204.8 430.08 195.84 405.3333333333333H106.6666666666667C83.2 405.3333333333333 64 386.1333333333334 64 362.6666666666667V21.3333333333334C64 -2.1333333333333 83.2 -21.3333333333333 106.6666666666667 -21.3333333333333H405.3333333333333C428.8 -21.3333333333333 448 -2.1333333333333 448 21.3333333333334V362.6666666666667C448 386.1333333333334 428.8 405.3333333333333 405.3333333333333 405.3333333333333z" /></svg>