<?xml version="1.0" encoding="UTF-8"?><!DOCTYPE svg PUBLIC "-//W3C//DTD SVG 1.1//EN" "http://www.w3.org/Graphics/SVG/1.1/DTD/svg11.dtd"><svg xmlns="http://www.w3.org/2000/svg" xmlns:xlink="http://www.w3.org/1999/xlink" version="1.1" width="512" height="512" viewBox="0 0 512 512">    <path fill="#ffffff" transform="scale(1, -1) translate(0, -448)" glyph-name="dlna" unicode="&#xFA40;" horiz-adv-x="512" d=" M456.1066666666666 180.0533333333334H274.1333333333334C255.36 180.0533333333334 236.8 171.52 226.3466666666667 157.6533333333333V157.8666666666667C215.8933333333333 143.36 198.8266666666667 133.9733333333333 179.4133333333333 133.9733333333333C147.6266666666667 133.9733333333333 121.8133333333333 160 121.8133333333333 192C121.8133333333333 224 147.6266666666667 249.3866666666667 179.4133333333333 249.3866666666667C198.8266666666667 249.3866666666667 215.8933333333334 240 226.3466666666667 225.4933333333333V225.7066666666666C236.8 211.8399999999999 255.36 202.6666666666666 274.1333333333334 202.6666666666666H454.1866666666666C457.6 202.6666666666666 469.3333333333333 204.7999999999999 469.3333333333333 220.3733333333333C453.5466666666667 310.8266666666666 364.8 380.16 257.28 380.16C191.1466666666667 380.16 132.0533333333334 353.92 92.5866666666667 312.5333333333333C86.4 303.1466666666666 92.8 300.3733333333333 98.7733333333333 299.5199999999999H216.32C234.6666666666667 299.5199999999999 253.6533333333334 308.4799999999999 264.1066666666667 322.3466666666666V321.92C274.7733333333333 336.4266666666666 291.6266666666667 346.0266666666667 311.04 346.0266666666667C342.8266666666667 346.0266666666667 368.64 320 368.64 288C368.64 256 342.8266666666667 230.4 311.04 230.4C291.6266666666667 230.4 274.7733333333334 240 264.1066666666667 254.5066666666666V254.2933333333333C253.6533333333334 267.9466666666666 234.6666666666668 276.6933333333333 216.3200000000001 276.6933333333333H88.1066666666667H88.5333333333333S69.5466666666667 277.3333333333333 58.0266666666667 261.3333333333333C49.0666666666667 247.04 42.6666666666667 216.5333333333334 42.6666666666667 192C42.6666666666667 167.2533333333333 46.2933333333333 144.8533333333334 58.0266666666667 122.24C68.0533333333333 106.0266666666666 88.5333333333333 106.6666666666667 88.5333333333333 106.6666666666667H87.68H216.32C234.6666666666667 106.6666666666667 253.6533333333334 115.6266666666667 264.1066666666667 129.4933333333334V129.28C274.7733333333333 143.7866666666667 291.6266666666667 153.3866666666667 311.04 153.3866666666667C342.8266666666667 153.3866666666667 368.64 127.36 368.64 96C368.64 64 342.8266666666667 37.76 311.04 37.76C291.6266666666667 37.76 274.7733333333334 47.36 264.1066666666667 61.8666666666667V61.44C253.6533333333334 75.3066666666666 234.6666666666668 84.2666666666667 216.3200000000001 84.2666666666667H98.9866666666667C93.0133333333334 83.4133333333334 86.6133333333334 80.64 92.16 71.68C131.6266666666667 30.2933333333333 190.9333333333334 3.84 257.2800000000001 3.84C365.0133333333334 3.84 453.9733333333334 73.1733333333334 469.3333333333333 164.0533333333334C469.3333333333333 176.64 460.5866666666666 179.6266666666667 456.1066666666666 180.0533333333334" /></svg>