<?xml version="1.0" encoding="UTF-8"?><!DOCTYPE svg PUBLIC "-//W3C//DTD SVG 1.1//EN" "http://www.w3.org/Graphics/SVG/1.1/DTD/svg11.dtd"><svg xmlns="http://www.w3.org/2000/svg" xmlns:xlink="http://www.w3.org/1999/xlink" version="1.1" width="512" height="512" viewBox="0 0 512 512">    <path fill="#ffffff" transform="scale(1, -1) translate(0, -448)" glyph-name="quality-medium" unicode="&#xFA0C;" horiz-adv-x="512" d=" M448 320V64C448 40.5333333333333 428.8 21.3333333333334 405.3333333333333 21.3333333333334H106.6666666666667C83.2 21.3333333333334 64 40.5333333333333 64 64V320C64 343.4666666666667 83.2 362.6666666666667 106.6666666666667 362.6666666666667H405.3333333333333C428.8 362.6666666666667 448 343.4666666666667 448 320M256 234.6666666666667C256 245.3333333333334 245.3333333333333 256 234.6666666666667 256H138.6666666666667C128 256 117.3333333333333 245.3333333333334 117.3333333333333 234.6666666666667V128H149.3333333333333V224H170.6666666666667V149.3333333333334H202.6666666666667V224H224V128H256V234.6666666666667M309.3333333333333 256C297.6 256 288 246.4000000000001 288 234.6666666666667V149.3333333333334C288 137.6 297.6 128 309.3333333333333 128H330.6666666666667V96H357.3333333333333V128H373.3333333333333C385.0666666666667 128 394.6666666666667 137.6 394.6666666666667 149.3333333333334V234.6666666666667C394.6666666666667 246.4000000000001 385.0666666666667 256 373.3333333333333 256H309.3333333333333M320 224H362.6666666666667V160H320V224z" /></svg>