<?xml version="1.0" encoding="UTF-8"?><!DOCTYPE svg PUBLIC "-//W3C//DTD SVG 1.1//EN" "http://www.w3.org/Graphics/SVG/1.1/DTD/svg11.dtd"><svg xmlns="http://www.w3.org/2000/svg" xmlns:xlink="http://www.w3.org/1999/xlink" version="1.1" width="512" height="512" viewBox="0 0 512 512">    <path fill="#ffffff" transform="scale(1, -1) translate(0, -448)" glyph-name="car-brake-abs" unicode="&#xFC23;" horiz-adv-x="512" d=" M512 192C512 121.3866666666667 483.4133333333333 57.3866666666667 437.3333333333333 10.6666666666667L414.2933333333334 33.7066666666667C454.8266666666667 74.6666666666667 480 130.1333333333333 480 192C480 253.6533333333333 454.8266666666667 309.3333333333333 414.2933333333334 350.2933333333333L437.3333333333333 373.3333333333334C483.4133333333333 326.6133333333334 512 262.6133333333334 512 192M426.6666666666667 243.2V277.3333333333334H358.4C339.6266666666667 277.3333333333334 324.2666666666667 261.9733333333334 324.2666666666667 243.2V209.0666666666667C324.2666666666667 190.2933333333334 339.6266666666667 174.9333333333334 358.4 174.9333333333334H392.5333333333334V140.8000000000001H324.2666666666667V106.6666666666667H392.5333333333334C411.3066666666667 106.6666666666667 426.6666666666668 122.0266666666667 426.6666666666668 140.8V174.9333333333333C426.6666666666668 193.7066666666667 411.3066666666668 209.0666666666667 392.5333333333334 209.0666666666667H358.4V243.2H426.6666666666667M179.6266666666667 320C202.0266666666667 333.44 228.0533333333333 341.3333333333334 256 341.3333333333334S309.9733333333333 333.44 332.3733333333334 320H398.7200000000001C363.7333333333334 359.2533333333334 312.7466666666667 384 256 384S148.2666666666667 359.2533333333334 113.28 320H179.6266666666667M281.6 192C295.2533333333334 192 307.2 180.0533333333334 307.2 166.4V140.8000000000001C307.2 122.0266666666667 291.8399999999999 106.6666666666667 273.0666666666666 106.6666666666667H204.8V277.3333333333334H273.0666666666667C291.8400000000001 277.3333333333334 307.2 261.9733333333334 307.2 243.2V217.6C307.2 203.9466666666667 295.2533333333334 192.0000000000001 281.6 192.0000000000001M273.0666666666667 174.9333333333334H238.9333333333334V140.8000000000001H273.0666666666667V174.9333333333334M273.0666666666667 243.2000000000001H238.9333333333334V209.0666666666667H273.0666666666667V243.2M97.7066666666667 350.2933333333334L74.6666666666667 373.3333333333334C28.5866666666667 326.6133333333334 0 262.6133333333334 0 192C0 121.3866666666667 28.5866666666667 57.3866666666667 74.6666666666667 10.6666666666667L97.7066666666667 33.7066666666667C57.1733333333333 74.6666666666667 32 130.1333333333333 32 192C32 253.6533333333334 57.1733333333333 309.3333333333334 97.7066666666667 350.2933333333334M153.6 106.6666666666667V174.9333333333333H119.4666666666667V106.6666666666667H85.3333333333333V243.2C85.3333333333333 261.9733333333334 100.6933333333333 277.3333333333334 119.4666666666667 277.3333333333334H153.6C172.3733333333333 277.3333333333334 187.7333333333333 261.9733333333334 187.7333333333333 243.2V106.6666666666667H153.6M153.6 209.0666666666667V243.2H119.4666666666667V209.0666666666667H153.6M332.3733333333334 64C309.9733333333333 50.5600000000001 283.9466666666667 42.6666666666667 256 42.6666666666667S202.0266666666667 50.5600000000001 179.6266666666667 64H113.28C148.2666666666667 24.7466666666667 199.2533333333333 0 256 0S363.7333333333334 24.7466666666667 398.7200000000001 64H332.3733333333334z" /></svg>