<?xml version="1.0" encoding="UTF-8"?><!DOCTYPE svg PUBLIC "-//W3C//DTD SVG 1.1//EN" "http://www.w3.org/Graphics/SVG/1.1/DTD/svg11.dtd"><svg xmlns="http://www.w3.org/2000/svg" xmlns:xlink="http://www.w3.org/1999/xlink" version="1.1" width="512" height="512" viewBox="0 0 512 512">    <path fill="#ffffff" transform="scale(1, -1) translate(0, -448)" glyph-name="steering-off" unicode="&#xF90D;" horiz-adv-x="512" d=" M42.6666666666667 335.5733333333334L69.9733333333333 362.6666666666667L426.6666666666667 5.9733333333334L399.5733333333333 -21.3333333333333L368 10.6666666666667C334.9333333333333 -10.6666666666666 297.6 -21.3333333333333 256 -21.3333333333333C197.3333333333333 -21.3333333333333 147.2 0 105.6 41.6C64 83.2 42.6666666666667 133.3333333333334 42.6666666666667 192C42.6666666666667 233.6 53.3333333333333 270.9333333333334 74.6666666666667 304L42.6666666666667 335.5733333333334M277.3333333333333 23.04C298.6666666666667 25.6 318.5066666666667 32 336.64 41.6L288 90.0266666666666C284.5866666666667 88.7466666666667 280.7466666666667 87.8933333333333 277.3333333333333 87.04V23.04M87.04 213.3333333333334H149.3333333333333L157.2266666666667 221.2266666666667L105.8133333333333 272.4266666666667C96 254.2933333333334 89.8133333333333 234.6666666666667 87.04 213.3333333333334M424.9600000000001 170.6666666666667H360.9600000000001C358.4 159.1466666666667 354.1333333333334 148.2666666666667 348.3733333333334 138.6666666666667L211.4133333333333 275.4133333333334L213.3333333333333 277.3333333333334H298.6666666666667L362.6666666666667 213.3333333333334H424.9600000000001C419.6266666666667 254.9333333333334 400.8533333333334 290.56 368.4266666666668 320C336.2133333333333 348.5866666666667 298.6666666666667 362.6666666666667 256 362.6666666666667C218.88 362.6666666666667 185.8133333333333 352 156.5866666666667 330.6666666666667L126.08 360.7466666666667C163.4133333333333 390.1866666666667 206.72 405.3333333333333 256 405.3333333333333C314.6666666666667 405.3333333333333 364.8 384 406.4 342.4C448 300.8 469.3333333333333 250.6666666666667 469.3333333333333 192C469.3333333333333 142.72 454.1866666666666 99.4133333333334 424.7466666666667 62.08L394.6666666666667 92.3733333333333C411.3066666666667 115.4133333333333 421.5466666666667 141.6533333333333 424.9600000000001 170.6666666666666M234.6666666666667 23.04V87.04C213.3333333333333 91.7333333333333 195.4133333333333 101.5466666666666 180.48 116.48C165.5466666666667 131.4133333333333 155.7333333333334 149.3333333333333 151.04 170.6666666666666H87.04C91.7333333333334 132.9066666666667 107.7333333333334 100.2666666666666 135.4666666666667 72.5333333333333C163.2 44.8 196.2666666666667 28.3733333333333 234.6666666666667 23.04z" /></svg>