<?xml version="1.0" encoding="UTF-8"?><!DOCTYPE svg PUBLIC "-//W3C//DTD SVG 1.1//EN" "http://www.w3.org/Graphics/SVG/1.1/DTD/svg11.dtd"><svg xmlns="http://www.w3.org/2000/svg" xmlns:xlink="http://www.w3.org/1999/xlink" version="1.1" width="512" height="512" viewBox="0 0 512 512">    <path fill="#ffffff" transform="scale(1, -1) translate(0, -448)" glyph-name="cart-arrow-right" unicode="&#xFC2A;" horiz-adv-x="512" d=" M192 21.3333333333334C192 -2.1333333333333 172.8 -21.3333333333333 149.3333333333333 -21.3333333333333S106.6666666666667 -2.1333333333333 106.6666666666667 21.3333333333334S125.8666666666667 64 149.3333333333333 64S192 44.8000000000001 192 21.3333333333334M362.6666666666667 64C339.2 64 320 44.8000000000001 320 21.3333333333334S339.2 -21.3333333333333 362.6666666666667 -21.3333333333333S405.3333333333333 -2.1333333333333 405.3333333333333 21.3333333333334S386.1333333333334 64 362.6666666666667 64M153.6 135.8933333333334C153.3866666666667 135.0400000000001 153.3866666666667 134.1866666666667 153.6 133.3333333333334C153.6 130.3466666666667 155.9466666666667 128.0000000000001 158.9333333333333 128.0000000000001H405.3333333333333V85.3333333333334H149.3333333333333C125.8666666666667 85.3333333333334 106.6666666666667 104.5333333333333 106.6666666666667 128C106.6666666666667 135.4666666666667 108.16 142.72 111.7866666666667 149.3333333333334L140.8 200.7466666666667L64 362.6666666666667H21.3333333333333V405.3333333333333H91.0933333333333L111.1466666666667 362.6666666666667H426.6666666666667C438.4 362.6666666666667 448 353.0666666666667 448 341.3333333333334C448 337.7066666666667 446.9333333333333 334.0800000000001 445.44 330.6666666666667L369.0666666666667 192C361.3866666666667 178.7733333333334 347.0933333333333 170.6666666666667 331.7333333333334 170.6666666666667H172.8L153.6 135.8933333333334M192 245.3333333333334H277.3333333333333V202.6666666666667L341.3333333333333 266.6666666666667L277.3333333333333 330.6666666666667V288H192V245.3333333333334z" /></svg>