<?xml version="1.0" encoding="UTF-8"?><!DOCTYPE svg PUBLIC "-//W3C//DTD SVG 1.1//EN" "http://www.w3.org/Graphics/SVG/1.1/DTD/svg11.dtd"><svg xmlns="http://www.w3.org/2000/svg" xmlns:xlink="http://www.w3.org/1999/xlink" version="1.1" width="512" height="512" viewBox="0 0 512 512">    <path fill="#ffffff" transform="scale(1, -1) translate(0, -448)" glyph-name="eye-circle-outline" unicode="&#xFB71;" horiz-adv-x="512" d=" M256 -21.3333333333333C138.24 -21.3333333333333 42.6666666666667 74.24 42.6666666666667 192S138.24 405.3333333333333 256 405.3333333333333S469.3333333333333 309.76 469.3333333333333 192S373.76 -21.3333333333333 256 -21.3333333333333M256 21.3333333333334C350.2933333333334 21.3333333333334 426.6666666666667 97.7066666666667 426.6666666666667 192S350.2933333333334 362.6666666666667 256 362.6666666666667S85.3333333333333 286.2933333333334 85.3333333333333 192S161.7066666666667 21.3333333333334 256 21.3333333333334M256 213.3333333333334C267.7333333333334 213.3333333333334 277.3333333333333 203.7333333333334 277.3333333333333 192S267.7333333333334 170.6666666666667 256 170.6666666666667S234.6666666666667 180.2666666666667 234.6666666666667 192S244.2666666666667 213.3333333333334 256 213.3333333333334M256 277.3333333333334C312.1066666666667 277.3333333333334 362.6666666666667 243.84 384 192C354.56 121.3866666666667 273.28 87.8933333333334 202.6666666666667 117.3333333333334C168.96 131.4133333333334 142.08 158.2933333333334 128 192C149.3333333333333 243.84 199.8933333333334 277.3333333333334 256 277.3333333333334M256 245.3333333333334C226.56 245.3333333333334 202.6666666666667 221.44 202.6666666666667 192S226.56 138.6666666666667 256 138.6666666666667S309.3333333333333 162.5600000000001 309.3333333333333 192S285.44 245.3333333333334 256 245.3333333333334" /></svg>