<?xml version="1.0" encoding="UTF-8"?><!DOCTYPE svg PUBLIC "-//W3C//DTD SVG 1.1//EN" "http://www.w3.org/Graphics/SVG/1.1/DTD/svg11.dtd"><svg xmlns="http://www.w3.org/2000/svg" xmlns:xlink="http://www.w3.org/1999/xlink" version="1.1" width="512" height="512" viewBox="0 0 512 512">    <path fill="#ffffff" transform="scale(1, -1) translate(0, -448)" glyph-name="transit-connection-variant" unicode="&#xFD19;" horiz-adv-x="512" d=" M384 213.3333333333334H316.16C307.2 238.08 283.7333333333334 256 256 256C228.2666666666667 256 204.8 238.08 195.84 213.3333333333334H128C120.96 213.3333333333334 85.3333333333333 215.4666666666667 85.3333333333333 256V277.3333333333334C85.3333333333333 316.3733333333334 118.1866666666667 320 128 320H345.1733333333333C354.1333333333334 295.2533333333334 377.6 277.3333333333334 405.3333333333333 277.3333333333334C440.7466666666667 277.3333333333334 469.3333333333333 305.92 469.3333333333333 341.3333333333334S440.7466666666667 405.3333333333333 405.3333333333333 405.3333333333333C377.6 405.3333333333333 354.1333333333334 387.4133333333334 345.1733333333333 362.6666666666667H128C93.6533333333333 362.6666666666667 42.6666666666667 340.0533333333334 42.6666666666667 277.3333333333334V256C42.6666666666667 193.28 93.6533333333333 170.6666666666667 128 170.6666666666667H195.84C204.8 145.92 228.2666666666667 128 256 128C283.7333333333334 128 307.2 145.92 316.16 170.6666666666667H384C391.04 170.6666666666667 426.6666666666667 168.5333333333334 426.6666666666667 128V106.6666666666667C426.6666666666667 67.6266666666667 393.8133333333334 64 384 64H166.8266666666667C157.8666666666667 88.7466666666667 134.4 106.6666666666667 106.6666666666667 106.6666666666667C71.2533333333333 106.6666666666667 42.6666666666667 78.08 42.6666666666667 42.6666666666667S71.2533333333333 -21.3333333333333 106.6666666666667 -21.3333333333333C134.4 -21.3333333333333 157.8666666666667 -3.4133333333333 166.8266666666667 21.3333333333334H384C418.3466666666667 21.3333333333334 469.3333333333333 44.16 469.3333333333333 106.6666666666667V128C469.3333333333333 190.5066666666667 418.3466666666667 213.3333333333334 384 213.3333333333334M405.3333333333333 362.6666666666667C417.0666666666667 362.6666666666667 426.6666666666667 353.0666666666667 426.6666666666667 341.3333333333334S417.0666666666667 320 405.3333333333333 320S384 329.6 384 341.3333333333334S393.6 362.6666666666667 405.3333333333333 362.6666666666667M106.6666666666667 21.3333333333334C94.9333333333333 21.3333333333334 85.3333333333333 30.9333333333333 85.3333333333333 42.6666666666667S94.9333333333333 64 106.6666666666667 64S128 54.4 128 42.6666666666667S118.4 21.3333333333334 106.6666666666667 21.3333333333334z" /></svg>