<?xml version="1.0" encoding="UTF-8"?><!DOCTYPE svg PUBLIC "-//W3C//DTD SVG 1.1//EN" "http://www.w3.org/Graphics/SVG/1.1/DTD/svg11.dtd"><svg xmlns="http://www.w3.org/2000/svg" xmlns:xlink="http://www.w3.org/1999/xlink" version="1.1" width="512" height="512" viewBox="0 0 512 512">    <path fill="#ffffff" transform="scale(1, -1) translate(0, -448)" glyph-name="hot-tub" unicode="&#xF827;" horiz-adv-x="512" d=" M149.3333333333333 362.6666666666667C172.8 362.6666666666667 192 343.4666666666667 192 320S172.8 277.3333333333334 149.3333333333333 277.3333333333334S106.6666666666667 296.5333333333334 106.6666666666667 320S125.8666666666667 362.6666666666667 149.3333333333333 362.6666666666667M237.8666666666667 192H469.3333333333333V21.3333333333334C469.3333333333333 -2.1333333333333 450.1333333333334 -21.3333333333333 426.6666666666667 -21.3333333333333H85.3333333333333C61.8666666666667 -21.3333333333333 42.6666666666667 -2.1333333333333 42.6666666666667 21.3333333333334V192H106.6666666666667V208C106.6666666666667 234.6666666666667 128 256 154.6666666666667 256H155.3066666666667C162.56 256 169.6 254.08 175.7866666666667 251.0933333333334C181.3333333333333 248.5333333333334 186.4533333333333 245.3333333333334 190.5066666666667 240.4266666666667L220.3733333333333 207.36C225.28 201.8133333333333 231.2533333333334 196.6933333333333 237.8666666666667 192M149.3333333333333 21.3333333333334V149.3333333333334H106.6666666666667V21.3333333333334H149.3333333333333M234.6666666666667 21.3333333333334V149.3333333333334H192V21.3333333333334H234.6666666666667M320 21.3333333333334V149.3333333333334H277.3333333333333V21.3333333333334H320M405.3333333333333 21.3333333333334V149.3333333333334H362.6666666666667V21.3333333333334H405.3333333333333M397.8666666666666 322.9866666666667C419.84 301.6533333333334 430.08 272.8533333333334 425.6 243.84L424.32 234.6666666666667H384L385.92 247.2533333333334C389.12 264.1066666666667 384 280.9600000000001 371.6266666666666 294.1866666666667L370.1333333333333 295.4666666666667C348.1599999999999 317.0133333333333 338.1333333333333 345.8133333333334 342.3999999999999 374.8266666666667L343.6799999999999 384H384L382.08 371.4133333333334C378.88 354.56 384 337.7066666666667 396.3733333333334 324.48L397.8666666666667 322.9866666666667M312.5333333333334 322.9866666666667C334.5066666666667 301.6533333333333 344.7466666666668 272.8533333333334 340.2666666666667 243.84L338.9866666666667 234.6666666666667H298.6666666666667L300.5866666666667 247.2533333333334C303.7866666666667 264.1066666666667 298.6666666666667 280.9600000000001 286.2933333333333 294.1866666666667L284.8 295.4666666666667C262.8266666666667 317.0133333333333 252.8 345.8133333333334 257.0666666666666 374.8266666666667L258.3466666666667 384H298.6666666666667L296.7466666666667 371.4133333333334C293.5466666666666 354.56 298.6666666666667 337.7066666666667 311.04 324.48L312.5333333333333 322.9866666666667z" /></svg>