<?xml version="1.0" encoding="UTF-8"?><!DOCTYPE svg PUBLIC "-//W3C//DTD SVG 1.1//EN" "http://www.w3.org/Graphics/SVG/1.1/DTD/svg11.dtd"><svg xmlns="http://www.w3.org/2000/svg" xmlns:xlink="http://www.w3.org/1999/xlink" version="1.1" width="512" height="512" viewBox="0 0 512 512">    <path fill="#ffffff" transform="scale(1, -1) translate(0, -448)" glyph-name="box-shadow" unicode="&#xF637;" horiz-adv-x="512" d=" M64 384H384V64H64V384M405.3333333333333 42.6666666666667H448V0H405.3333333333333V42.6666666666667M405.3333333333333 106.6666666666667H448V64H405.3333333333333V106.6666666666667M405.3333333333333 170.6666666666667H448V128H405.3333333333333V170.6666666666667M405.3333333333333 234.6666666666667H448V192H405.3333333333333V234.6666666666667M405.3333333333333 298.6666666666667H448V256H405.3333333333333V298.6666666666667M341.3333333333333 42.6666666666667H384V0H341.3333333333333V42.6666666666667M277.3333333333333 42.6666666666667H320V0H277.3333333333333V42.6666666666667M213.3333333333333 42.6666666666667H256V0H213.3333333333333V42.6666666666667M149.3333333333333 42.6666666666667H192V0H149.3333333333333V42.6666666666667z" /></svg>