<?xml version="1.0" encoding="UTF-8"?><!DOCTYPE svg PUBLIC "-//W3C//DTD SVG 1.1//EN" "http://www.w3.org/Graphics/SVG/1.1/DTD/svg11.dtd"><svg xmlns="http://www.w3.org/2000/svg" xmlns:xlink="http://www.w3.org/1999/xlink" version="1.1" width="512" height="512" viewBox="0 0 512 512">    <path fill="#ffffff" transform="scale(1, -1) translate(0, -448)" glyph-name="cake" unicode="&#xF0E9;" horiz-adv-x="512" d=" M245.3333333333333 437.3333333333333C256 432 277.3333333333333 396.8 277.3333333333333 373.3333333333334S263.04 341.3333333333334 245.3333333333333 341.3333333333334S213.3333333333333 344.5333333333334 213.3333333333333 368S234.6666666666667 405.3333333333333 245.3333333333333 437.3333333333333M394.6666666666667 256C448 256 490.6666666666666 213.3333333333334 490.6666666666666 160C490.6666666666666 126.72 473.8133333333333 97.4933333333333 448 80.2133333333333V-42.6666666666666H64V80.2133333333333C38.1866666666667 97.4933333333333 21.3333333333333 126.72 21.3333333333333 160C21.3333333333333 213.3333333333334 64 256 117.3333333333333 256H213.3333333333333V320H277.3333333333333V256H394.6666666666667M256 106.6666666666667C285.44 106.6666666666667 309.3333333333333 130.5600000000001 309.3333333333333 160H341.3333333333333C341.3333333333333 130.5600000000001 365.2266666666667 106.6666666666667 394.6666666666667 106.6666666666667S448 130.5600000000001 448 160S424.1066666666667 213.3333333333334 394.6666666666667 213.3333333333334H117.3333333333333C87.8933333333333 213.3333333333334 64 189.4400000000001 64 160S87.8933333333333 106.6666666666667 117.3333333333333 106.6666666666667S170.6666666666667 130.56 170.6666666666667 160H202.6666666666667C202.6666666666667 130.5600000000001 226.56 106.6666666666667 256 106.6666666666667z" /></svg>