<?xml version="1.0" encoding="UTF-8"?><!DOCTYPE svg PUBLIC "-//W3C//DTD SVG 1.1//EN" "http://www.w3.org/Graphics/SVG/1.1/DTD/svg11.dtd"><svg xmlns="http://www.w3.org/2000/svg" xmlns:xlink="http://www.w3.org/1999/xlink" version="1.1" width="512" height="512" viewBox="0 0 512 512">    <path fill="#ffffff" transform="scale(1, -1) translate(0, -448)" glyph-name="account-multiple-check" unicode="&#xF8C4;" horiz-adv-x="512" d=" M481.92 279.04L506.6666666666666 248.96L405.3333333333333 147.6266666666667L346.6666666666667 211.6266666666667L371.4133333333333 236.3733333333334L405.3333333333333 202.6666666666667L481.92 279.04M128 341.3333333333334C163.4133333333333 341.3333333333334 192 312.7466666666667 192 277.3333333333334S163.4133333333333 213.3333333333334 128 213.3333333333334S64 241.92 64 277.3333333333334S92.5866666666667 341.3333333333334 128 341.3333333333334M234.6666666666667 341.3333333333334C270.08 341.3333333333334 298.6666666666667 312.7466666666667 298.6666666666667 277.3333333333334S270.08 213.3333333333334 234.6666666666667 213.3333333333334C227.84 213.3333333333334 221.2266666666666 214.4 215.04 216.5333333333334C227.2 233.8133333333334 234.6666666666667 254.7200000000001 234.6666666666667 277.3333333333334S227.2 321.0666666666667 215.04 338.3466666666667C221.2266666666666 340.2666666666667 227.84 341.3333333333333 234.6666666666667 341.3333333333333M128 170.6666666666667C170.6666666666667 170.6666666666667 256 149.3333333333334 256 106.6666666666667V64H0V106.6666666666667C0 149.3333333333334 85.3333333333333 170.6666666666667 128 170.6666666666667M269.2266666666667 167.2533333333333C312.1066666666667 160 362.6666666666667 139.52 362.6666666666667 106.6666666666667V64H298.6666666666667V106.6666666666667C298.6666666666667 131.84 286.9333333333333 151.8933333333334 269.2266666666667 167.2533333333333z" /></svg>