<?xml version="1.0" encoding="UTF-8"?><!DOCTYPE svg PUBLIC "-//W3C//DTD SVG 1.1//EN" "http://www.w3.org/Graphics/SVG/1.1/DTD/svg11.dtd"><svg xmlns="http://www.w3.org/2000/svg" xmlns:xlink="http://www.w3.org/1999/xlink" version="1.1" width="512" height="512" viewBox="0 0 512 512">    <path fill="#ffffff" transform="scale(1, -1) translate(0, -448)" glyph-name="play-speed" unicode="&#xF8FE;" horiz-adv-x="512" d=" M277.3333333333333 404.2666666666667V361.6C370.9866666666667 350.0800000000001 437.3333333333333 264.9600000000001 425.8133333333334 171.3066666666667C416 93.6533333333334 354.9866666666667 32 277.3333333333333 22.8266666666667V-19.84C394.6666666666667 -8.1066666666666 480 96 468.2666666666667 213.3333333333334C458.6666666666666 314.6666666666667 378.24 394.6666666666667 277.3333333333333 404.6933333333334V404.2666666666667M120.96 26.8800000000001C153.1733333333333 0 192.8533333333333 -16.8533333333333 234.6666666666667 -21.3333333333333V21.3333333333334C204.3733333333333 25.1733333333333 175.5733333333333 37.3333333333334 151.4666666666667 56.1066666666667L120.96 26.88M151.4666666666667 325.5466666666666C175.36 344.7466666666667 204.16 357.12 234.6666666666667 361.3866666666667V404.0533333333333C193.0666666666667 400 153.3866666666667 384 120.96 357.12L151.4666666666667 325.5466666666667M121.3866666666667 296.5333333333334L90.88 327.04C64 294.6133333333334 48 255.1466666666667 43.7333333333333 213.3333333333334H86.4C90.4533333333333 243.6266666666667 102.4 272.4266666666667 121.3866666666667 296.5333333333334M86.6133333333333 170.6666666666667H43.9466666666667C48.2133333333333 128.8533333333334 64.64 89.3866666666667 91.0933333333333 56.96L121.3866666666667 87.4666666666667C102.6133333333333 111.5733333333334 90.4533333333333 140.3733333333334 86.6133333333333 170.6666666666668M213.3333333333333 96L341.3333333333333 192L213.3333333333333 288V96z" /></svg>