<?xml version="1.0" encoding="UTF-8"?><!DOCTYPE svg PUBLIC "-//W3C//DTD SVG 1.1//EN" "http://www.w3.org/Graphics/SVG/1.1/DTD/svg11.dtd"><svg xmlns="http://www.w3.org/2000/svg" xmlns:xlink="http://www.w3.org/1999/xlink" version="1.1" width="512" height="512" viewBox="0 0 512 512">    <path fill="#ffffff" transform="scale(1, -1) translate(0, -448)" glyph-name="account-off" unicode="&#xF012;" horiz-adv-x="512" d=" M256 362.6666666666667C303.1466666666667 362.6666666666667 341.3333333333333 324.48 341.3333333333333 277.3333333333334C341.3333333333333 235.7333333333334 311.4666666666667 200.96 272 193.4933333333334L172.16 293.3333333333334C179.6266666666667 332.8 214.4 362.6666666666667 256 362.6666666666667M261.9733333333333 149.3333333333334L389.9733333333334 21.3333333333334L426.6666666666667 -15.36L399.5733333333333 -42.6666666666666L335.5733333333333 21.3333333333334H85.3333333333333V64C85.3333333333333 103.2533333333333 138.6666666666667 136.3200000000001 210.56 146.3466666666667L59.3066666666667 297.6L86.4 324.6933333333334L261.9733333333333 149.3333333333334M426.6666666666667 64V38.8266666666667L322.9866666666667 142.5066666666667C384 129.4933333333334 426.6666666666667 99.2 426.6666666666667 64z" /></svg>