<?xml version="1.0" encoding="UTF-8"?><!DOCTYPE svg PUBLIC "-//W3C//DTD SVG 1.1//EN" "http://www.w3.org/Graphics/SVG/1.1/DTD/svg11.dtd"><svg xmlns="http://www.w3.org/2000/svg" xmlns:xlink="http://www.w3.org/1999/xlink" version="1.1" width="512" height="512" viewBox="0 0 512 512">    <path fill="#ffffff" transform="scale(1, -1) translate(0, -448)" glyph-name="snapchat" unicode="&#xF4B6;" horiz-adv-x="512" d=" M256 11.7333333333333C230.6133333333334 11.7333333333333 215.4666666666667 22.6133333333334 202.0266666666667 32C192 38.8266666666667 183.04 45.44 172.3733333333333 47.1466666666667C147.84 48.4266666666667 140.5866666666667 47.1466666666667 127.36 44.8000000000001C125.0133333333333 44.8000000000001 122.24 45.4400000000001 121.1733333333334 49.2800000000001C117.3333333333334 65.2800000000001 116.2666666666667 69.7600000000001 113.4933333333334 70.1866666666667C85.3333333333333 74.6666666666667 68.0533333333333 81.0666666666668 64.64 88.96C64 93.8666666666667 65.4933333333333 96 67.84 96C90.6666666666667 100.0533333333334 110.9333333333333 112 128 132.0533333333334C141.44 147.4133333333334 147.84 162.3466666666667 148.48 163.84C151.8933333333333 170.6666666666667 152.5333333333333 176.64 150.6133333333333 181.3333333333334C146.9866666666667 190.0800000000001 134.6133333333333 193.92 121.1733333333333 198.4C113.92 201.1733333333334 102.1866666666667 207.1466666666667 103.68 215.4666666666667C104.96 221.44 112.8533333333333 225.7066666666667 123.9466666666667 224.8533333333334C131.4133333333333 221.44 137.8133333333333 219.7333333333334 143.5733333333333 219.7333333333334C150.6133333333333 219.7333333333334 153.8133333333333 222.2933333333334 154.6666666666667 223.1466666666667C152.32 260.6933333333334 150.4 293.3333333333334 158.72 311.8933333333334C183.68 367.7866666666667 236.3733333333334 372.2666666666667 256 372.2666666666667C275.6266666666667 372.2666666666667 328.32 367.7866666666667 353.28 311.8933333333333C361.6 293.3333333333334 359.68 260.6933333333334 357.3333333333333 223.1466666666667C358.1866666666666 222.2933333333334 361.3866666666667 219.7333333333334 368.4266666666666 219.7333333333334C374.1866666666666 219.7333333333334 380.5866666666667 221.44 388.0533333333334 224.8533333333334C399.1466666666667 225.7066666666667 407.04 221.44 408.32 215.4666666666667C409.8133333333334 207.1466666666667 398.08 201.1733333333334 390.8266666666667 198.4C377.3866666666667 193.92 365.0133333333333 190.0800000000001 361.3866666666667 181.3333333333334C359.4666666666667 176.64 360.1066666666667 170.6666666666667 363.5200000000001 163.84C364.1600000000001 162.3466666666667 370.56 147.4133333333334 384.0000000000001 132.0533333333334C401.0666666666667 112 421.3333333333334 100.0533333333333 444.1600000000001 96C446.5066666666667 96 448.0000000000001 93.8666666666667 447.36 88.96C443.9466666666667 81.0666666666667 426.6666666666668 74.6666666666667 398.5066666666667 70.1866666666667C395.7333333333334 69.7600000000001 394.6666666666668 65.2800000000001 390.8266666666667 49.2800000000001C389.7600000000001 45.4400000000001 386.9866666666668 44.8000000000001 384.6400000000001 44.8000000000001C371.4133333333334 47.1466666666667 364.1600000000001 48.4266666666667 339.6266666666668 47.1466666666667C328.9600000000001 45.4400000000001 320.0000000000001 38.8266666666667 309.9733333333334 32C296.5333333333334 22.6133333333333 281.3866666666668 11.7333333333333 256.0000000000001 11.7333333333333z" /></svg>