<?xml version="1.0" encoding="UTF-8"?><!DOCTYPE svg PUBLIC "-//W3C//DTD SVG 1.1//EN" "http://www.w3.org/Graphics/SVG/1.1/DTD/svg11.dtd"><svg xmlns="http://www.w3.org/2000/svg" xmlns:xlink="http://www.w3.org/1999/xlink" version="1.1" width="512" height="512" viewBox="0 0 512 512">    <path fill="#ffffff" transform="scale(1, -1) translate(0, -448)" glyph-name="shape-outline" unicode="&#xF831;" horiz-adv-x="512" d=" M234.6666666666667 160V-10.6666666666666H64V160H234.6666666666667M192 117.3333333333334H106.6666666666667V32H192V117.3333333333334M256 405.3333333333333L373.3333333333333 213.3333333333334H138.6666666666667L256 405.3333333333333M256 322.9866666666667L215.04 256H296.96L256 322.9866666666667M373.3333333333333 170.6666666666667C426.6666666666667 170.6666666666667 469.3333333333333 128 469.3333333333333 74.6666666666667S426.6666666666667 -21.3333333333333 373.3333333333333 -21.3333333333333S277.3333333333333 21.3333333333334 277.3333333333333 74.6666666666667S320 170.6666666666667 373.3333333333333 170.6666666666667M373.3333333333333 128C343.8933333333333 128 320 104.1066666666667 320 74.6666666666667S343.8933333333333 21.3333333333334 373.3333333333333 21.3333333333334S426.6666666666667 45.2266666666667 426.6666666666667 74.6666666666667S402.7733333333333 128 373.3333333333333 128z" /></svg>