<?xml version="1.0" encoding="UTF-8"?><!DOCTYPE svg PUBLIC "-//W3C//DTD SVG 1.1//EN" "http://www.w3.org/Graphics/SVG/1.1/DTD/svg11.dtd"><svg xmlns="http://www.w3.org/2000/svg" xmlns:xlink="http://www.w3.org/1999/xlink" version="1.1" width="512" height="512" viewBox="0 0 512 512">    <path fill="#ffffff" transform="scale(1, -1) translate(0, -448)" glyph-name="folder-account-outline" unicode="&#xFB78;" horiz-adv-x="512" d=" M405.3333333333333 85.3333333333334H234.6666666666667V106.6666666666667C234.6666666666667 135.04 291.6266666666667 149.3333333333334 320 149.3333333333334S405.3333333333333 135.04 405.3333333333333 106.6666666666667V85.3333333333334M320 256C343.4666666666667 256 362.6666666666667 236.8 362.6666666666667 213.3333333333334S343.4666666666667 170.6666666666667 320 170.6666666666667S277.3333333333333 189.8666666666667 277.3333333333333 213.3333333333334C277.3333333333333 237.0133333333333 296.5333333333333 256 320 256M426.6666666666667 320C450.1333333333334 320 469.3333333333333 300.8 469.3333333333333 277.3333333333334V64C469.3333333333333 40.5333333333333 450.1333333333334 21.3333333333334 426.6666666666667 21.3333333333334H85.3333333333333C61.8666666666667 21.3333333333334 42.6666666666667 40.5333333333333 42.6666666666667 64V320C42.6666666666667 343.4666666666667 61.8666666666667 362.6666666666667 85.3333333333333 362.6666666666667H213.3333333333333L256 320H426.6666666666667M426.6666666666667 64V277.3333333333334H238.2933333333333L195.6266666666667 320H85.3333333333333V64H426.6666666666667z" /></svg>