<?xml version="1.0" encoding="UTF-8"?><!DOCTYPE svg PUBLIC "-//W3C//DTD SVG 1.1//EN" "http://www.w3.org/Graphics/SVG/1.1/DTD/svg11.dtd"><svg xmlns="http://www.w3.org/2000/svg" xmlns:xlink="http://www.w3.org/1999/xlink" version="1.1" width="512" height="512" viewBox="0 0 512 512">    <path fill="#ffffff" transform="scale(1, -1) translate(0, -448)" glyph-name="point-of-sale" unicode="&#xFD6E;" horiz-adv-x="512" d=" M426.6666666666667 341.3333333333334C413.8666666666666 341.3333333333334 405.3333333333333 330.6666666666667 405.3333333333333 317.8666666666667V106.6666666666667C405.3333333333333 93.8666666666667 413.8666666666666 85.3333333333334 426.6666666666667 83.2C439.4666666666667 83.2 448 93.8666666666667 448 106.6666666666667V317.8666666666667C448 330.6666666666667 439.4666666666667 341.3333333333334 426.6666666666667 341.3333333333334M349.8666666666666 405.3333333333333H98.1333333333333C78.9333333333333 405.3333333333333 64 390.4 64 371.2V76.8C64 57.6 78.9333333333333 42.6666666666666 98.1333333333333 42.6666666666666H128V-1e-13C128 -12.8000000000001 136.5333333333333 -21.3333333333334 149.3333333333333 -21.3333333333334H277.3333333333333C290.1333333333334 -21.3333333333334 298.6666666666667 -12.8000000000001 298.6666666666667 -1e-13V42.6666666666666H349.8666666666666C369.0666666666666 42.6666666666666 384 57.5999999999999 384 76.8V371.2C384 390.4 369.0666666666667 405.3333333333333 349.8666666666666 405.3333333333333M106.6666666666667 277.3333333333334H170.6666666666667V234.6666666666667H106.6666666666667V277.3333333333334M256 213.3333333333334V170.6666666666667H192V213.3333333333334H256M192 234.6666666666667V277.3333333333334H256V234.6666666666667H192M256 149.3333333333334V106.6666666666667H192V149.3333333333334H256M106.6666666666667 213.3333333333334H170.6666666666667V170.6666666666667H106.6666666666667V213.3333333333334M106.6666666666667 106.6666666666667V149.3333333333334H170.6666666666667V106.6666666666667H106.6666666666667M170.6666666666667 0H149.3333333333333V42.6666666666667H170.6666666666667V0M277.3333333333333 0H213.3333333333333V42.6666666666667H277.3333333333333V0M341.3333333333333 106.6666666666667H277.3333333333333V149.3333333333334H341.3333333333333V106.6666666666667M341.3333333333333 170.6666666666667H277.3333333333333V213.3333333333334H341.3333333333333V170.6666666666667M341.3333333333333 234.6666666666667H277.3333333333333V277.3333333333334H341.3333333333333V234.6666666666667M341.3333333333333 320H106.6666666666667V362.6666666666667H341.3333333333333V320z" /></svg>