<?xml version="1.0" encoding="UTF-8"?><!DOCTYPE svg PUBLIC "-//W3C//DTD SVG 1.1//EN" "http://www.w3.org/Graphics/SVG/1.1/DTD/svg11.dtd"><svg xmlns="http://www.w3.org/2000/svg" xmlns:xlink="http://www.w3.org/1999/xlink" version="1.1" width="512" height="512" viewBox="0 0 512 512">    <path fill="#ffffff" transform="scale(1, -1) translate(0, -448)" glyph-name="bulletin-board" unicode="&#xF0E5;" horiz-adv-x="512" d=" M256.8533333333333 394.6666666666667L203.3066666666667 341.3333333333334H309.9733333333333L256.8533333333333 394.6666666666667M85.3333333333333 298.6666666666667V21.3333333333334H426.6666666666667V298.6666666666667H85.3333333333333M256 448L362.6666666666667 341.3333333333334H426.6666666666667C450.1333333333334 341.3333333333334 469.3333333333333 322.1333333333334 469.3333333333333 298.6666666666667V21.3333333333334C469.3333333333333 -2.1333333333333 450.1333333333334 -21.3333333333333 426.6666666666667 -21.3333333333333H85.3333333333333C61.8666666666667 -21.3333333333333 42.6666666666667 -2.1333333333333 42.6666666666667 21.3333333333334V298.6666666666667C42.6666666666667 322.1333333333334 61.8666666666667 341.3333333333334 85.3333333333333 341.3333333333334H149.3333333333333L256 448M149.3333333333333 64V149.3333333333334H256V64H149.3333333333333M298.6666666666667 85.3333333333334V234.6666666666667H384V85.3333333333334H298.6666666666667M128 192V256H234.6666666666667V192H128z" /></svg>