<?xml version="1.0" encoding="UTF-8"?><!DOCTYPE svg PUBLIC "-//W3C//DTD SVG 1.1//EN" "http://www.w3.org/Graphics/SVG/1.1/DTD/svg11.dtd"><svg xmlns="http://www.w3.org/2000/svg" xmlns:xlink="http://www.w3.org/1999/xlink" version="1.1" width="512" height="512" viewBox="0 0 512 512">    <path fill="#ffffff" transform="scale(1, -1) translate(0, -448)" glyph-name="notebook-multiple" unicode="&#xFE38;" horiz-adv-x="512" d=" M193.0666666666667 256H150.6133333333333V320H193.0666666666666V362.0266666666667H150.6133333333333V383.36C150.6133333333333 407.04 169.6 425.8133333333334 193.0666666666666 425.8133333333334H320.64V277.3333333333334L373.3333333333333 309.3333333333334L426.6666666666667 277.3333333333334V425.8133333333334H448C470.4 425.8133333333334 490.6666666666666 405.3333333333333 490.6666666666666 383.36V85.3333333333334C490.6666666666666 63.36 470.4 42.6666666666667 448 42.6666666666667H193.0666666666667C170.6666666666667 42.6666666666667 150.6133333333334 62.9333333333333 150.6133333333334 85.3333333333334V106.6666666666667H193.0666666666667V149.3333333333334H150.6133333333333V213.3333333333334H193.0666666666666V256M21.3333333333333 64H64V128H21.3333333333333V170.6666666666667H64V234.6666666666667H21.3333333333333V277.3333333333334H64V341.3333333333334H106.6666666666667V277.3333333333334H64V234.6666666666667H106.6666666666667V170.6666666666667H64V128H106.6666666666667V64H64V21.3333333333334H106.6666666666667V0H448V-42.6666666666666H106.6666666666667C83.2 -42.6666666666666 64 -23.4666666666667 64 0V21.3333333333334H21.3333333333333V64z" /></svg>