<?xml version="1.0" encoding="UTF-8"?><!DOCTYPE svg PUBLIC "-//W3C//DTD SVG 1.1//EN" "http://www.w3.org/Graphics/SVG/1.1/DTD/svg11.dtd"><svg xmlns="http://www.w3.org/2000/svg" xmlns:xlink="http://www.w3.org/1999/xlink" version="1.1" width="512" height="512" viewBox="0 0 512 512">    <path fill="#ffffff" transform="scale(1, -1) translate(0, -448)" glyph-name="fridge-top" unicode="&#xF291;" horiz-adv-x="512" d=" M170.6666666666667 277.3333333333334V320H213.3333333333333V277.3333333333334H170.6666666666667M149.3333333333333 405.3333333333333H362.6666666666667C386.1333333333334 405.3333333333333 405.3333333333333 386.1333333333334 405.3333333333333 362.6666666666667V42.6666666666667C405.3333333333333 19.2 386.1333333333334 0 362.6666666666667 0V-21.3333333333333H320V0H192V-21.3333333333333H149.3333333333333V0C125.8666666666667 0 106.6666666666667 19.2 106.6666666666667 42.6666666666667V362.6666666666667C106.6666666666667 386.1333333333334 125.8666666666667 405.3333333333333 149.3333333333333 405.3333333333333M149.3333333333333 362.6666666666667V256H362.6666666666667V362.6666666666667H149.3333333333333M170.6666666666667 192V128H213.3333333333333V192H170.6666666666667z" /></svg>