<?xml version="1.0" encoding="UTF-8"?><!DOCTYPE svg PUBLIC "-//W3C//DTD SVG 1.1//EN" "http://www.w3.org/Graphics/SVG/1.1/DTD/svg11.dtd"><svg xmlns="http://www.w3.org/2000/svg" xmlns:xlink="http://www.w3.org/1999/xlink" version="1.1" width="512" height="512" viewBox="0 0 512 512">    <path fill="#ffffff" transform="scale(1, -1) translate(0, -448)" glyph-name="dots-horizontal-circle" unicode="&#xF7C2;" horiz-adv-x="512" d=" M256 405.3333333333333C373.76 405.3333333333333 469.3333333333333 309.76 469.3333333333333 192S373.76 -21.3333333333333 256 -21.3333333333333S42.6666666666667 74.24 42.6666666666667 192S138.24 405.3333333333333 256 405.3333333333333M256 224C238.2933333333333 224 224 209.7066666666667 224 192S238.2933333333333 160 256 160S288 174.2933333333334 288 192S273.7066666666667 224 256 224M138.6666666666667 224C120.96 224 106.6666666666667 209.7066666666667 106.6666666666667 192S120.96 160 138.6666666666667 160S170.6666666666667 174.2933333333334 170.6666666666667 192S156.3733333333333 224 138.6666666666667 224M373.3333333333333 224C355.6266666666667 224 341.3333333333333 209.7066666666667 341.3333333333333 192S355.6266666666667 160 373.3333333333333 160S405.3333333333333 174.2933333333334 405.3333333333333 192S391.04 224 373.3333333333333 224z" /></svg>