<?xml version="1.0" encoding="UTF-8"?><!DOCTYPE svg PUBLIC "-//W3C//DTD SVG 1.1//EN" "http://www.w3.org/Graphics/SVG/1.1/DTD/svg11.dtd"><svg xmlns="http://www.w3.org/2000/svg" xmlns:xlink="http://www.w3.org/1999/xlink" version="1.1" width="512" height="512" viewBox="0 0 512 512">    <path fill="#ffffff" transform="scale(1, -1) translate(0, -448)" glyph-name="numeric" unicode="&#xF3A0;" horiz-adv-x="512" d=" M85.3333333333333 85.3333333333334V256H42.6666666666667V298.6666666666667H128V85.3333333333334H85.3333333333333M469.3333333333333 128C469.3333333333333 104.3200000000001 450.1333333333334 85.3333333333334 426.6666666666667 85.3333333333334H341.3333333333333V128H426.6666666666667V170.6666666666667H384V213.3333333333334H426.6666666666667V256H341.3333333333333V298.6666666666667H426.6666666666667C450.1333333333334 298.6666666666667 469.3333333333333 279.4666666666667 469.3333333333333 256V224C469.3333333333333 206.2933333333334 455.04 192 437.3333333333333 192C455.04 192 469.3333333333333 177.7066666666667 469.3333333333333 160V128M298.6666666666667 128V85.3333333333334H170.6666666666667V170.6666666666667C170.6666666666667 194.3466666666667 189.8666666666667 213.3333333333334 213.3333333333333 213.3333333333334H256V256H170.6666666666667V298.6666666666667H256C279.4666666666667 298.6666666666667 298.6666666666667 279.4666666666667 298.6666666666667 256V213.3333333333334C298.6666666666667 189.6533333333334 279.4666666666667 170.6666666666667 256 170.6666666666667H213.3333333333333V128H298.6666666666667z" /></svg>