<?xml version="1.0" encoding="UTF-8"?><!DOCTYPE svg PUBLIC "-//W3C//DTD SVG 1.1//EN" "http://www.w3.org/Graphics/SVG/1.1/DTD/svg11.dtd"><svg xmlns="http://www.w3.org/2000/svg" xmlns:xlink="http://www.w3.org/1999/xlink" version="1.1" width="512" height="512" viewBox="0 0 512 512">    <path fill="#ffffff" transform="scale(1, -1) translate(0, -448)" glyph-name="train-car" unicode="&#xFBB4;" horiz-adv-x="512" d=" M256 362.6666666666667H106.6666666666667C71.2533333333333 362.6666666666667 42.6666666666667 334.0800000000001 42.6666666666667 298.6666666666667V128C42.6666666666667 92.5866666666667 71.2533333333333 64 106.6666666666667 64L85.3333333333333 42.6666666666667V21.3333333333334H106.6666666666667L149.3333333333333 64.64L192 64V170.6666666666667H85.3333333333333V320H277.3333333333333V277.3333333333334H320V298.6666666666667C320 334.0800000000001 291.4133333333333 362.6666666666667 256 362.6666666666667M106.6666666666667 149.3333333333334C118.4 149.3333333333334 128 139.7333333333334 128 128S118.4 106.6666666666667 106.6666666666667 106.6666666666667S85.3333333333333 116.2666666666667 85.3333333333333 128S94.9333333333333 149.3333333333334 106.6666666666667 149.3333333333334M438.8266666666667 241.92C435.84 250.4533333333334 427.7333333333334 256 418.1333333333334 256H264.7466666666667C254.9333333333333 256 247.04 250.4533333333334 243.84 241.92L213.3333333333333 154.24V36.6933333333333C213.3333333333333 28.5866666666667 220.16 21.3333333333334 228.2666666666667 21.3333333333334H241.4933333333333C249.6 21.3333333333334 256 29.44 256 37.5466666666667V64H426.6666666666667V37.5466666666667C426.6666666666667 29.4400000000001 433.28 21.3333333333334 441.3866666666667 21.3333333333334H454.4C462.5066666666667 21.3333333333334 469.3333333333333 28.5866666666667 469.3333333333333 36.6933333333333V154.24L438.8266666666667 241.92M264.7466666666667 234.6666666666667H418.1333333333334L440.1066666666667 170.6666666666667H242.7733333333334L264.7466666666667 234.6666666666667M256 106.6666666666667C244.2666666666667 106.6666666666667 234.6666666666667 116.2666666666667 234.6666666666667 128S244.2666666666667 149.3333333333334 256 149.3333333333334S277.3333333333333 139.7333333333334 277.3333333333333 128S267.7333333333334 106.6666666666667 256 106.6666666666667M426.6666666666667 106.6666666666667C414.9333333333333 106.6666666666667 405.3333333333333 116.2666666666667 405.3333333333333 128S414.9333333333333 149.3333333333334 426.6666666666667 149.3333333333334S448 139.7333333333334 448 128S438.4 106.6666666666667 426.6666666666667 106.6666666666667z" /></svg>