<?xml version="1.0" encoding="UTF-8"?><!DOCTYPE svg PUBLIC "-//W3C//DTD SVG 1.1//EN" "http://www.w3.org/Graphics/SVG/1.1/DTD/svg11.dtd"><svg xmlns="http://www.w3.org/2000/svg" xmlns:xlink="http://www.w3.org/1999/xlink" version="1.1" width="512" height="512" viewBox="0 0 512 512">    <path fill="#ffffff" transform="scale(1, -1) translate(0, -448)" glyph-name="phone-incoming" unicode="&#xF3F7;" horiz-adv-x="512" d=" M85.3333333333333 384C73.6 384 64 374.4 64 362.6666666666667C64 162.3466666666667 226.3466666666667 0 426.6666666666667 0C438.4 0 448 9.6 448 21.3333333333334V96C448 107.7333333333334 438.4 117.3333333333334 426.6666666666667 117.3333333333334C400 117.3333333333334 374.4 121.6 350.5066666666667 129.4933333333334C343.04 131.84 334.72 130.1333333333333 328.7466666666667 124.3733333333333L281.8133333333334 77.44C221.44 108.16 171.9466666666667 157.44 141.2266666666667 218.0266666666667L188.16 265.1733333333334C194.1333333333333 270.7200000000001 195.84 279.04 193.4933333333334 286.5066666666667C185.6 310.4 181.3333333333333 336 181.3333333333333 362.6666666666667C181.3333333333333 374.4 171.7333333333334 384 160 384H85.3333333333333M405.3333333333333 213.3333333333334V245.3333333333334H330.6666666666667L448 362.6666666666667L426.6666666666667 384L309.3333333333333 266.6666666666667V341.3333333333334H277.3333333333333V213.3333333333334H405.3333333333333z" /></svg>