<?xml version="1.0" encoding="UTF-8"?><!DOCTYPE svg PUBLIC "-//W3C//DTD SVG 1.1//EN" "http://www.w3.org/Graphics/SVG/1.1/DTD/svg11.dtd"><svg xmlns="http://www.w3.org/2000/svg" xmlns:xlink="http://www.w3.org/1999/xlink" version="1.1" width="512" height="512" viewBox="0 0 512 512">    <path fill="#ffffff" transform="scale(1, -1) translate(0, -448)" glyph-name="timer-3" unicode="&#xF51D;" horiz-adv-x="512" d=" M445.2266666666667 141.4400000000001C442.24 147.4133333333334 437.3333333333333 152.7466666666667 431.7866666666667 157.2266666666667C425.8133333333334 161.7066666666667 418.7733333333334 165.5466666666668 410.24 168.5333333333334S392.1066666666667 174.2933333333334 381.44 176.6400000000001C373.9733333333333 178.1333333333334 367.7866666666667 179.84 362.6666666666667 181.3333333333334C357.9733333333334 183.2533333333334 354.1333333333334 184.96 351.1466666666667 186.8800000000001S346.24 190.9333333333334 345.1733333333333 193.2800000000001C344.1066666666667 195.6266666666667 343.4666666666667 198.4000000000001 343.4666666666667 201.6000000000001C343.4666666666667 204.8000000000001 344.1066666666667 207.5733333333334 345.3866666666667 210.3466666666668C346.6666666666667 213.3333333333334 348.5866666666667 215.6800000000001 351.1466666666667 217.6000000000001C353.7066666666667 219.7333333333334 356.9066666666667 221.4400000000001 360.7466666666667 222.7200000000001S369.28 224.6400000000001 374.4 224.6400000000001C379.7333333333334 224.6400000000001 384 224.0000000000001 388.48 222.2933333333334C392.5333333333334 220.8000000000001 395.9466666666667 218.6666666666668 398.7200000000001 216.1066666666668C401.4933333333334 213.3333333333334 403.4133333333333 210.5600000000001 405.3333333333333 207.1466666666668C406.1866666666666 203.7333333333334 407.04 200.3200000000001 407.04 196.6933333333335H448.64C448.64 205.0133333333334 446.9333333333333 212.6933333333335 443.52 219.9466666666668C440.1066666666667 227.2000000000001 435.2 233.3866666666668 428.8 238.7200000000001C422.3999999999999 244.0533333333335 414.7199999999999 248.1066666666668 405.3333333333333 251.3066666666668C396.3733333333332 254.5066666666668 385.9199999999999 256.0000000000001 374.3999999999999 256.0000000000001C363.5199999999999 256.0000000000001 353.4933333333333 254.5066666666668 344.7466666666666 251.5200000000001C335.9999999999999 248.5333333333334 328.32 244.4800000000001 322.1333333333332 239.3600000000001C315.9466666666666 234.6666666666668 311.2533333333332 228.2666666666668 307.8399999999999 221.4400000000001C304.4266666666666 214.6133333333334 302.9333333333332 207.5733333333334 302.9333333333332 199.8933333333334C302.9333333333332 192.0000000000001 304.6399999999999 185.3866666666668 307.8399999999999 179.4133333333334C311.0399999999999 173.4400000000001 315.7333333333333 168.3200000000001 321.4933333333333 163.8400000000001C327.2533333333332 159.3600000000001 334.2933333333333 155.7333333333334 342.3999999999999 152.5333333333334C350.5066666666666 149.3333333333334 359.6799999999999 146.9866666666668 369.4933333333333 144.8533333333335C377.8133333333333 143.1466666666668 384.64 141.2266666666668 389.7599999999999 139.3066666666668C394.6666666666666 137.3866666666668 398.9333333333332 135.2533333333335 401.9199999999999 133.1200000000001C404.6933333333332 130.9866666666668 406.6133333333333 128.0000000000001 407.6799999999999 125.8666666666668C408.7466666666666 123.3066666666669 409.1733333333333 120.5333333333335 409.1733333333333 117.3333333333335C409.1733333333333 110.7200000000001 406.3999999999999 105.3866666666668 400.64 101.1200000000001C394.6666666666666 96.8533333333335 386.56 94.9333333333335 375.68 94.9333333333335C370.9866666666667 94.9333333333335 366.5066666666667 95.3600000000001 362.0266666666667 96.6400000000001C357.5466666666666 97.7066666666668 353.4933333333334 99.4133333333334 350.08 101.7600000000001C346.4533333333333 104.1066666666667 343.68 107.3066666666667 341.3333333333333 111.1466666666668C338.9866666666667 114.9866666666667 337.7066666666667 119.8933333333334 337.4933333333334 125.4400000000001H297.1733333333333C297.1733333333333 117.3333333333334 298.6666666666667 110.2933333333334 302.2933333333333 103.0400000000001C305.7066666666667 96.0000000000001 310.6133333333334 89.1733333333334 317.2266666666667 83.2000000000001C323.84 77.4400000000001 331.9466666666666 72.7466666666668 341.3333333333333 69.1200000000001C352 65.4933333333333 362.6666666666667 64.0000000000001 375.4666666666667 64.0000000000001C386.7733333333334 64.0000000000001 397.0133333333334 65.0666666666668 406.1866666666667 67.8400000000001C415.36 70.6133333333334 423.2533333333334 74.6666666666667 429.8666666666667 79.3600000000001C436.48 84.2666666666668 441.3866666666667 90.2400000000001 445.0133333333334 97.0666666666667C448.6400000000001 103.8933333333334 450.3466666666667 111.36 450.3466666666667 119.6800000000001C449.9200000000001 128.0000000000001 448.0000000000001 135.4666666666667 445.2266666666668 141.4400000000001M247.6800000000001 171.3066666666667C244.2666666666668 176.4266666666667 240.0000000000001 181.3333333333334 234.6666666666668 185.1733333333334C229.1200000000001 189.2266666666667 222.5066666666668 192.6400000000001 214.6133333333335 195.4133333333334C221.0133333333335 198.4000000000001 226.7733333333335 201.8133333333334 231.6800000000001 206.0800000000001C236.5866666666668 210.3466666666667 240.6400000000002 214.8266666666667 243.8400000000002 219.7333333333334C247.0400000000002 224.6400000000001 249.6000000000002 229.5466666666668 251.0933333333335 234.6666666666667C252.8000000000002 240.0000000000001 253.4400000000001 245.3333333333334 253.4400000000001 250.4533333333334C253.4400000000001 262.1866666666667 251.5200000000001 272.6400000000001 247.4666666666668 281.6C243.6266666666668 290.5600000000001 238.0800000000002 298.0266666666668 230.8266666666668 304.2133333333334C224.0000000000002 310.1866666666667 215.2533333333335 314.8800000000001 205.2266666666668 317.8666666666667C195.6266666666668 320.6400000000001 184.5333333333335 322.1333333333334 172.5866666666669 322.1333333333334C160.8533333333335 322.1333333333334 149.9733333333335 320.0000000000001 140.1600000000002 317.0133333333334C130.1333333333335 313.3866666666667 121.6000000000002 308.48 114.5600000000002 302.2933333333334C107.5200000000002 296.1066666666667 101.7600000000002 288.8533333333334 97.9200000000002 280.3200000000001C93.6533333333335 272.0000000000001 91.7333333333335 262.6133333333334 91.7333333333335 252.8000000000001H133.9733333333335C133.9733333333335 258.3466666666667 135.0400000000002 263.2533333333334 136.9600000000002 267.5200000000001C138.6666666666668 271.7866666666667 141.6533333333335 275.6266666666667 145.0666666666668 278.6133333333334C148.6933333333335 281.6 152.7466666666669 283.9466666666667 157.4400000000002 285.6533333333334C162.1333333333335 287.36 167.2533333333335 288 173.0133333333335 288C186.0266666666668 288 195.6266666666668 284.8 202.0266666666668 278.1866666666667C208.4266666666669 271.5733333333334 211.4133333333335 262.1866666666667 211.4133333333335 250.0266666666667C211.4133333333335 244.2666666666667 210.5600000000002 238.9333333333334 208.8533333333335 234.6666666666667C207.1466666666668 229.5466666666667 204.3733333333335 225.4933333333334 200.7466666666668 222.08C197.1200000000002 218.6666666666667 192.6400000000001 216.1066666666667 187.3066666666668 214.1866666666667C181.9733333333335 212.2666666666667 175.5733333333334 211.4133333333334 168.3200000000001 211.4133333333334H143.36V177.92H168.5333333333333C175.7866666666667 177.92 182.1866666666667 177.0666666666667 187.9466666666667 175.5733333333334C193.7066666666667 173.8666666666667 198.6133333333334 171.5200000000001 202.6666666666667 168.1066666666667C206.72 164.6933333333334 209.92 160 212.0533333333333 155.0933333333334C214.1866666666667 149.9733333333334 215.4666666666667 143.5733333333334 215.4666666666667 136.5333333333334C215.4666666666667 123.3066666666667 211.6266666666667 113.2800000000001 204.16 106.6666666666667C196.6933333333333 99.2000000000001 186.24 96 173.2266666666667 96C167.04 96 161.28 96.64 156.16 98.5600000000001C151.04 100.2666666666667 146.7733333333334 102.8266666666667 143.1466666666667 106.6666666666667C139.52 109.6533333333334 136.7466666666667 113.4933333333334 134.8266666666667 118.1866666666667C132.9066666666667 122.8800000000001 131.84 128.0000000000001 131.84 133.5466666666668H89.3866666666667C89.3866666666667 121.8133333333334 91.7333333333334 111.5733333333334 96 102.6133333333334C100.6933333333333 93.6533333333334 106.6666666666667 86.1866666666667 114.56 80.2133333333334C122.24 74.6666666666667 130.9866666666667 69.7600000000001 141.0133333333333 66.7733333333334C151.04 64.0000000000001 161.4933333333334 62.2933333333334 172.5866666666667 62.2933333333334C184.7466666666667 62.2933333333334 195.84 64 206.2933333333333 67.2000000000001C216.7466666666667 70.4 225.7066666666667 75.3066666666667 233.1733333333333 81.7066666666667C240.8533333333333 88.1066666666667 246.8266666666667 96.0000000000001 251.0933333333333 105.1733333333334C255.36 114.3466666666668 257.4933333333334 125.0133333333334 257.4933333333334 136.7466666666668C257.4933333333334 142.9333333333334 256.64 149.3333333333334 255.1466666666667 155.0933333333334C253.44 160.0000000000001 251.0933333333334 165.9733333333334 247.68 171.3066666666667z" /></svg>