<?xml version="1.0" encoding="UTF-8"?><!DOCTYPE svg PUBLIC "-//W3C//DTD SVG 1.1//EN" "http://www.w3.org/Graphics/SVG/1.1/DTD/svg11.dtd"><svg xmlns="http://www.w3.org/2000/svg" xmlns:xlink="http://www.w3.org/1999/xlink" version="1.1" width="512" height="512" viewBox="0 0 512 512">    <path fill="#ffffff" transform="scale(1, -1) translate(0, -448)" glyph-name="mother-nurse" unicode="&#xFCFD;" horiz-adv-x="512" d=" M256 405.3333333333333C291.4133333333333 405.3333333333333 320 376.7466666666667 320 341.3333333333334S291.4133333333333 277.3333333333334 256 277.3333333333334S192 305.92 192 341.3333333333334S220.5866666666667 405.3333333333333 256 405.3333333333333M426.6666666666667 64L384 180.0533333333334C376.5333333333333 201.1733333333334 369.92 219.5200000000001 341.3333333333333 234.6666666666667C311.8933333333333 249.6 290.56 256.0000000000001 256 256.0000000000001C221.2266666666667 256.0000000000001 200.1066666666666 249.6 170.6666666666667 234.6666666666667C142.08 219.5200000000001 135.4666666666667 201.1733333333334 128 180.0533333333334L85.3333333333333 64C78.5066666666667 35.2 135.68 11.9466666666667 173.0133333333333 -4.0533333333333V42.6666666666667C173.0133333333333 62.9333333333333 191.36 77.2266666666667 228.0533333333333 85.9733333333334C231.4666666666667 86.8266666666667 234.6666666666667 87.2533333333333 237.2266666666667 87.68C225.7066666666666 105.1733333333334 221.0133333333333 120.7466666666667 220.5866666666667 122.0266666666667L258.3466666666667 134.8266666666667C258.56 134.4 269.44 100.9066666666666 295.2533333333334 84.0533333333333C299.7333333333334 82.56 304.2133333333333 80.8533333333334 308.48 78.9333333333333C324.9066666666667 71.68 334.72 62.2933333333333 337.92 50.9866666666667C309.3333333333333 39.68 282.0266666666667 33.92 256 33.92L234.6666666666667 36.0533333333334V-20.0533333333333L256 -21.3333333333333C285.2266666666667 -21.3333333333333 312.96 -15.3599999999999 338.9866666666667 -4.0533333333333C376.32 11.9466666666667 432 39.8933333333334 426.6666666666667 64.0000000000001M330.6666666666667 85.3333333333334C312.96 85.3333333333334 298.6666666666667 99.6266666666668 298.6666666666667 117.3333333333334S312.96 149.3333333333334 330.6666666666667 149.3333333333334S362.6666666666667 135.0400000000001 362.6666666666667 117.3333333333334S348.3733333333333 85.3333333333334 330.6666666666667 85.3333333333334z" /></svg>