<?xml version="1.0" encoding="UTF-8"?><!DOCTYPE svg PUBLIC "-//W3C//DTD SVG 1.1//EN" "http://www.w3.org/Graphics/SVG/1.1/DTD/svg11.dtd"><svg xmlns="http://www.w3.org/2000/svg" xmlns:xlink="http://www.w3.org/1999/xlink" version="1.1" width="512" height="512" viewBox="0 0 512 512">    <path fill="#ffffff" transform="scale(1, -1) translate(0, -448)" glyph-name="numeric-6-box" unicode="&#xF3B3;" horiz-adv-x="512" d=" M320 256H234.6666666666667V213.3333333333334H277.3333333333333C300.8 213.3333333333334 320 194.1333333333333 320 170.6666666666667V128C320 104.3200000000001 300.8 85.3333333333334 277.3333333333333 85.3333333333334H234.6666666666667C211.2 85.3333333333334 192 104.5333333333333 192 128V256C192 279.68 211.2 298.6666666666667 234.6666666666667 298.6666666666667H320M405.3333333333333 384H106.6666666666667C83.2 384 64 364.8 64 341.3333333333334V42.6666666666667C64 19.2 83.2 0 106.6666666666667 0H405.3333333333333C428.8 0 448 19.2 448 42.6666666666667V341.3333333333334C448 364.8 428.8 384 405.3333333333333 384M234.6666666666667 128H277.3333333333333V170.6666666666667H234.6666666666667V128z" /></svg>