<?xml version="1.0" encoding="UTF-8"?><!DOCTYPE svg PUBLIC "-//W3C//DTD SVG 1.1//EN" "http://www.w3.org/Graphics/SVG/1.1/DTD/svg11.dtd"><svg xmlns="http://www.w3.org/2000/svg" xmlns:xlink="http://www.w3.org/1999/xlink" version="1.1" width="512" height="512" viewBox="0 0 512 512">    <path fill="#ffffff" transform="scale(1, -1) translate(0, -448)" glyph-name="closed-caption-outline" unicode="&#xFD99;" horiz-adv-x="512" d=" M106.6666666666667 362.6666666666667C94.9333333333333 362.6666666666667 85.3333333333333 358.8266666666667 76.5866666666667 350.5066666666667C68.2666666666667 342.1866666666667 64 331.9466666666667 64 320V64C64 52.0533333333334 68.2666666666667 41.8133333333334 76.5866666666667 33.4933333333333C85.3333333333333 25.1733333333333 94.9333333333333 21.3333333333334 106.6666666666667 21.3333333333334H405.3333333333333C416 21.3333333333334 426.6666666666667 25.3866666666667 434.9866666666667 33.92C443.7333333333334 42.6666666666667 448 52.6933333333333 448 64V320C448 331.3066666666667 443.7333333333334 341.3333333333334 434.9866666666667 350.0800000000001C426.6666666666667 358.6133333333334 416 362.6666666666667 405.3333333333333 362.6666666666667H106.6666666666667M96 330.6666666666667H416V53.3333333333334H96V330.6666666666667M149.3333333333333 256C142.9333333333333 256 138.0266666666667 254.08 133.9733333333333 250.0266666666667C129.92 245.9733333333334 128 241.0666666666667 128 234.6666666666667V149.3333333333334C128 142.9333333333333 129.92 138.0266666666667 133.9733333333333 133.9733333333334C138.0266666666667 129.92 142.9333333333333 128 149.3333333333333 128H213.3333333333333C219.0933333333333 128 224 129.92 228.48 133.9733333333334C232.7466666666667 138.0266666666667 234.6666666666667 142.9333333333333 234.6666666666667 149.3333333333334V170.6666666666667H202.6666666666667V160H160V224H202.6666666666667V213.3333333333334H234.6666666666667V234.6666666666667C234.6666666666667 241.0666666666667 232.7466666666667 245.9733333333334 228.48 250.0266666666667C224 254.08 219.0933333333333 256 213.3333333333333 256H149.3333333333333M298.6666666666667 256C292.9066666666667 256 288 254.08 283.52 250.0266666666667C279.2533333333334 245.9733333333334 277.3333333333333 241.0666666666667 277.3333333333333 234.6666666666667V149.3333333333334C277.3333333333333 142.9333333333333 279.2533333333334 138.0266666666667 283.52 133.9733333333334C288 129.92 292.9066666666667 128 298.6666666666667 128H362.6666666666667C369.0666666666667 128 373.9733333333334 129.92 378.0266666666667 133.9733333333334C382.08 138.0266666666667 384 142.9333333333333 384 149.3333333333334V170.6666666666667H352V160H309.3333333333333V224H352V213.3333333333334H384V234.6666666666667C384 241.0666666666667 382.08 245.9733333333334 378.0266666666667 250.0266666666667C373.9733333333334 254.08 369.0666666666667 256 362.6666666666667 256H298.6666666666667z" /></svg>