<?xml version="1.0" encoding="UTF-8"?><!DOCTYPE svg PUBLIC "-//W3C//DTD SVG 1.1//EN" "http://www.w3.org/Graphics/SVG/1.1/DTD/svg11.dtd"><svg xmlns="http://www.w3.org/2000/svg" xmlns:xlink="http://www.w3.org/1999/xlink" version="1.1" width="512" height="512" viewBox="0 0 512 512">    <path fill="#ffffff" transform="scale(1, -1) translate(0, -448)" glyph-name="gender-transgender" unicode="&#xF29F;" horiz-adv-x="512" d=" M417.7066666666666 384H320V426.6666666666667H490.6666666666666V256H448V353.92L344.9600000000001 250.88C356.0533333333334 234.0266666666667 362.6666666666667 213.3333333333334 362.6666666666667 192C362.6666666666667 140.3733333333333 325.9733333333333 97.28 277.3333333333333 87.4666666666667V42.6666666666667H320V0H277.3333333333333V-42.6666666666666H234.6666666666667V0H192V42.6666666666667H234.6666666666667V87.4666666666667C186.0266666666667 97.2800000000001 149.3333333333333 140.3733333333334 149.3333333333333 192.0000000000001C149.3333333333333 213.3333333333334 155.7333333333333 233.8133333333334 166.8266666666667 250.4533333333334L141.6533333333333 275.8400000000001L111.7866666666667 246.1866666666667L81.7066666666667 276.48L111.5733333333333 306.1333333333334L64 353.7066666666667V277.3333333333334H21.3333333333333V426.6666666666667H170.6666666666667V384H94.08L141.6533333333333 336.2133333333334L172.3733333333333 366.7200000000001L202.6666666666667 336.4266666666667L171.9466666666667 305.92L196.9066666666667 280.7466666666667C213.3333333333333 292.0533333333334 234.6666666666667 298.6666666666667 256 298.6666666666667S297.8133333333334 292.2666666666667 314.6666666666667 280.9600000000001L417.7066666666666 384M256 256C220.5866666666667 256 192 227.4133333333334 192 192S220.5866666666667 128 256 128S320 156.5866666666667 320 192S291.4133333333333 256 256 256z" /></svg>