<?xml version="1.0" encoding="UTF-8"?><!DOCTYPE svg PUBLIC "-//W3C//DTD SVG 1.1//EN" "http://www.w3.org/Graphics/SVG/1.1/DTD/svg11.dtd"><svg xmlns="http://www.w3.org/2000/svg" xmlns:xlink="http://www.w3.org/1999/xlink" version="1.1" width="512" height="512" viewBox="0 0 512 512">    <path fill="#ffffff" transform="scale(1, -1) translate(0, -448)" glyph-name="zodiac-leo" unicode="&#xFA81;" horiz-adv-x="512" d=" M426.6666666666667 85.3333333333334C426.6666666666667 49.92 398.08 21.3333333333334 362.6666666666667 21.3333333333334C328.1066666666667 23.04 300.3733333333334 50.7733333333333 298.6666666666667 85.3333333333334C302.08 119.68 309.3333333333333 153.6 320 186.4533333333334C331.52 222.9333333333333 338.56 260.48 341.3333333333333 298.6666666666667C339.84 356.9066666666667 292.9066666666667 403.84 234.6666666666667 405.3333333333333C176.4266666666667 403.8400000000001 129.4933333333334 356.9066666666667 128 298.6666666666667C131.2 266.0266666666667 138.6666666666667 234.0266666666667 149.3333333333333 202.6666666666667L153.8133333333333 187.7333333333334C108.8 202.0266666666667 61.0133333333333 177.0666666666667 46.72 132.2666666666667C32 87.2533333333333 57.1733333333334 39.2533333333333 102.1866666666667 24.96C147.2 10.6666666666667 194.9866666666667 35.6266666666667 209.28 80.64C212.0533333333334 88.96 213.3333333333333 97.92 213.3333333333333 106.6666666666667C209.92 143.5733333333334 202.6666666666667 180.0533333333334 190.08 215.0400000000001C180.6933333333333 242.1333333333334 174.08 270.0800000000001 170.6666666666667 298.6666666666667C172.3733333333333 333.2266666666667 200.1066666666666 360.9600000000001 234.6666666666667 362.6666666666667C269.2266666666667 360.9600000000001 296.96 333.2266666666667 298.6666666666667 298.6666666666667C295.2533333333334 264.3200000000001 288 230.4000000000001 277.3333333333333 197.5466666666667C265.8133333333334 161.0666666666667 258.7733333333333 123.52 256 85.3333333333334C257.4933333333334 27.0933333333334 304.4266666666666 -19.84 362.6666666666667 -21.3333333333333C421.5466666666666 -21.3333333333333 469.3333333333333 26.4533333333334 469.3333333333333 85.3333333333334H426.6666666666667M128 64C104.5333333333333 64 85.3333333333333 83.2 85.3333333333333 106.6666666666667S104.5333333333333 149.3333333333334 128 149.3333333333334S170.6666666666667 130.1333333333333 170.6666666666667 106.6666666666667S151.4666666666667 64 128 64z" /></svg>