<?xml version="1.0" encoding="UTF-8"?><!DOCTYPE svg PUBLIC "-//W3C//DTD SVG 1.1//EN" "http://www.w3.org/Graphics/SVG/1.1/DTD/svg11.dtd"><svg xmlns="http://www.w3.org/2000/svg" xmlns:xlink="http://www.w3.org/1999/xlink" version="1.1" width="512" height="512" viewBox="0 0 512 512">    <path fill="#ffffff" transform="scale(1, -1) translate(0, -448)" glyph-name="image-filter-center-focus" unicode="&#xF2F1;" horiz-adv-x="512" d=" M256 256C220.5866666666667 256 192 227.4133333333334 192 192S220.5866666666667 128 256 128S320 156.5866666666667 320 192S291.4133333333333 256 256 256M405.3333333333333 42.6666666666667H320V0H405.3333333333333C428.8 0 448 19.2 448 42.6666666666667V128H405.3333333333333M405.3333333333333 384H320V341.3333333333334H405.3333333333333V256H448V341.3333333333334C448 364.8 428.8 384 405.3333333333333 384M106.6666666666667 341.3333333333334H192V384H106.6666666666667C83.2 384 64 364.8 64 341.3333333333334V256H106.6666666666667M106.6666666666667 128H64V42.6666666666667C64 19.2 83.2 0 106.6666666666667 0H192V42.6666666666667H106.6666666666667V128z" /></svg>