<?xml version="1.0" encoding="UTF-8"?><!DOCTYPE svg PUBLIC "-//W3C//DTD SVG 1.1//EN" "http://www.w3.org/Graphics/SVG/1.1/DTD/svg11.dtd"><svg xmlns="http://www.w3.org/2000/svg" xmlns:xlink="http://www.w3.org/1999/xlink" version="1.1" width="512" height="512" viewBox="0 0 512 512">    <path fill="#ffffff" transform="scale(1, -1) translate(0, -448)" glyph-name="square-edit-outline" unicode="&#xF90B;" horiz-adv-x="512" d=" M106.6666666666667 384C82.9866666666667 384 64 365.0133333333333 64 341.3333333333334V42.6666666666667C64 19.2 83.2 0 106.6666666666667 0H405.3333333333333C428.8 0 448 19.2 448 42.6666666666667V192H405.3333333333333V42.6666666666667H106.6666666666667V341.3333333333334H256V384H106.6666666666667M379.3066666666667 362.6666666666667C375.68 362.6666666666667 371.84 361.1733333333334 369.0666666666667 358.4L343.04 332.5866666666667L396.3733333333334 279.2533333333334L422.4 305.0666666666667C427.9466666666667 310.6133333333334 427.9466666666667 320 422.4 325.3333333333334L389.3333333333333 358.4C386.56 361.1733333333334 382.9333333333333 362.6666666666667 379.3066666666667 362.6666666666667M327.8933333333333 317.44L170.6666666666667 160V106.6666666666667H224L381.2266666666667 264.1066666666667L327.8933333333333 317.44z" /></svg>