<?xml version="1.0" encoding="UTF-8"?><!DOCTYPE svg PUBLIC "-//W3C//DTD SVG 1.1//EN" "http://www.w3.org/Graphics/SVG/1.1/DTD/svg11.dtd"><svg xmlns="http://www.w3.org/2000/svg" xmlns:xlink="http://www.w3.org/1999/xlink" version="1.1" width="512" height="512" viewBox="0 0 512 512">    <path fill="#ffffff" transform="scale(1, -1) translate(0, -448)" glyph-name="playlist-edit" unicode="&#xF8FF;" horiz-adv-x="512" d=" M42.6666666666667 320V277.3333333333334H298.6666666666667V320H42.6666666666667M42.6666666666667 234.6666666666667V192H298.6666666666667V234.6666666666667H42.6666666666667M427.52 231.8933333333333C424.5333333333333 231.8933333333333 421.5466666666666 230.6133333333333 419.2 228.2666666666667L397.8666666666666 206.9333333333333L441.6 163.2L462.9333333333333 184.5333333333333C467.6266666666666 189.0133333333333 467.6266666666666 196.48 462.9333333333333 200.96L435.6266666666666 228.2666666666666C433.28 230.6133333333333 430.5066666666667 231.8933333333333 427.52 231.8933333333333M385.4933333333334 194.56L256 65.28V21.3333333333334H299.9466666666667L429.2266666666667 150.8266666666667L385.4933333333334 194.56M42.6666666666667 149.3333333333334V106.6666666666667H213.3333333333333V149.3333333333334H42.6666666666667z" /></svg>