<?xml version="1.0" encoding="UTF-8"?><!DOCTYPE svg PUBLIC "-//W3C//DTD SVG 1.1//EN" "http://www.w3.org/Graphics/SVG/1.1/DTD/svg11.dtd"><svg xmlns="http://www.w3.org/2000/svg" xmlns:xlink="http://www.w3.org/1999/xlink" version="1.1" width="512" height="512" viewBox="0 0 512 512">    <path fill="#ffffff" transform="scale(1, -1) translate(0, -448)" glyph-name="chart-bell-curve" unicode="&#xFC2C;" horiz-adv-x="512" d=" M212.48 206.72C230.8266666666667 275.2000000000001 245.3333333333333 320 277.3333333333333 320S323.84 275.2000000000001 342.1866666666666 206.72C362.6666666666667 129.7066666666667 386.1333333333334 42.6666666666667 469.3333333333333 42.6666666666667V85.3333333333334C422.4 85.3333333333334 405.3333333333333 137.8133333333334 383.36 217.6C364.3733333333333 288.8533333333334 344.5333333333333 362.6666666666667 277.3333333333333 362.6666666666667C210.1333333333333 362.6666666666667 190.2933333333333 288.8533333333334 171.3066666666667 217.6C149.9733333333333 137.8133333333334 132.2666666666667 85.3333333333334 85.3333333333333 85.3333333333334V405.3333333333333H42.6666666666667V-21.3333333333333H469.3333333333333V21.3333333333334H85.3333333333333V42.6666666666667C168.5333333333333 42.6666666666667 192 129.7066666666667 212.48 206.72z" /></svg>