<?xml version="1.0" encoding="UTF-8"?><!DOCTYPE svg PUBLIC "-//W3C//DTD SVG 1.1//EN" "http://www.w3.org/Graphics/SVG/1.1/DTD/svg11.dtd"><svg xmlns="http://www.w3.org/2000/svg" xmlns:xlink="http://www.w3.org/1999/xlink" version="1.1" width="512" height="512" viewBox="0 0 512 512">    <path fill="#ffffff" transform="scale(1, -1) translate(0, -448)" glyph-name="beaker" unicode="&#xFCC6;" horiz-adv-x="512" d=" M64 384V341.3333333333334C87.4666666666667 341.3333333333334 106.6666666666667 322.1333333333334 106.6666666666667 298.6666666666667V42.6666666666667C106.6666666666667 19.2 125.8666666666667 0 149.3333333333333 0H362.6666666666667C386.1333333333334 0 405.3333333333333 19.2 405.3333333333333 42.6666666666667V298.6666666666667C405.3333333333333 322.1333333333334 424.5333333333333 341.3333333333334 448 341.3333333333334V384H64M149.3333333333333 256H213.3333333333333V234.6666666666667H149.3333333333333V256M149.3333333333333 213.3333333333334H213.3333333333333V192H149.3333333333333V213.3333333333334M213.3333333333333 106.6666666666667H149.3333333333333V128H213.3333333333333V106.6666666666667M256 149.3333333333334H149.3333333333333V170.6666666666667H256V149.3333333333334M256 277.3333333333334H149.3333333333333V298.6666666666667H256V277.3333333333334z" /></svg>