<?xml version="1.0" encoding="UTF-8"?><!DOCTYPE svg PUBLIC "-//W3C//DTD SVG 1.1//EN" "http://www.w3.org/Graphics/SVG/1.1/DTD/svg11.dtd"><svg xmlns="http://www.w3.org/2000/svg" xmlns:xlink="http://www.w3.org/1999/xlink" version="1.1" width="512" height="512" viewBox="0 0 512 512">    <path fill="#ffffff" transform="scale(1, -1) translate(0, -448)" glyph-name="autorenew" unicode="&#xF06A;" horiz-adv-x="512" d=" M256 320V256L341.3333333333333 341.3333333333334L256 426.6666666666667V362.6666666666667C161.7066666666667 362.6666666666667 85.3333333333333 286.2933333333334 85.3333333333333 192C85.3333333333333 158.5066666666667 95.1466666666667 127.36 111.7866666666667 101.1200000000001L142.9333333333333 132.2666666666667C133.3333333333333 149.9733333333334 128 170.6666666666667 128 192C128 262.6133333333334 185.3866666666667 320 256 320M400.2133333333333 282.88L369.0666666666667 251.7333333333334C378.4533333333334 233.8133333333334 384 213.3333333333334 384 192C384 121.3866666666667 326.6133333333334 64 256 64V128L170.6666666666667 42.6666666666667L256 -42.6666666666666V21.3333333333334C350.2933333333334 21.3333333333334 426.6666666666667 97.7066666666667 426.6666666666667 192C426.6666666666667 225.4933333333334 416.8533333333333 256.64 400.2133333333334 282.88z" /></svg>