<?xml version="1.0" encoding="UTF-8"?><!DOCTYPE svg PUBLIC "-//W3C//DTD SVG 1.1//EN" "http://www.w3.org/Graphics/SVG/1.1/DTD/svg11.dtd"><svg xmlns="http://www.w3.org/2000/svg" xmlns:xlink="http://www.w3.org/1999/xlink" version="1.1" width="512" height="512" viewBox="0 0 512 512">    <path fill="#ffffff" transform="scale(1, -1) translate(0, -448)" glyph-name="lightbulb-off-outline" unicode="&#xFE33;" horiz-adv-x="512" d=" M256 405.3333333333333C208.2133333333333 405.3333333333333 165.9733333333333 382.9333333333334 138.6666666666667 348.1600000000001L169.1733333333333 317.6533333333334C188.5866666666667 344.7466666666667 220.16 362.6666666666667 256 362.6666666666667C314.88 362.6666666666667 362.6666666666667 314.88 362.6666666666667 256C362.6666666666667 220.16 344.7466666666667 188.5866666666667 317.6533333333333 169.3866666666667L347.9466666666667 138.6666666666668C382.7200000000001 166.1866666666667 405.3333333333333 208.2133333333334 405.3333333333333 256C405.3333333333333 338.56 338.56 405.3333333333333 256 405.3333333333333M69.9733333333333 362.6666666666667L42.6666666666667 335.5733333333334L107.52 270.9333333333334C106.6666666666667 266.0266666666667 106.6666666666667 261.12 106.6666666666667 256C106.6666666666667 205.2266666666667 132.0533333333333 160.6400000000001 170.6666666666667 133.5466666666667V85.3333333333334C170.6666666666667 73.6 180.2666666666667 64 192 64H314.24L399.5733333333333 -21.3333333333333L426.6666666666667 5.9733333333334L69.9733333333333 362.6666666666667M154.24 224L271.5733333333333 106.6666666666667H213.3333333333333V158.2933333333334C185.1733333333333 170.6666666666667 163.4133333333333 194.56 154.24 224M192 21.3333333333334V0C192 -11.7333333333333 201.6 -21.3333333333333 213.3333333333333 -21.3333333333333H298.6666666666667C310.4 -21.3333333333333 320 -11.7333333333333 320 0V21.3333333333334H192z" /></svg>