<?xml version="1.0" encoding="UTF-8"?><!DOCTYPE svg PUBLIC "-//W3C//DTD SVG 1.1//EN" "http://www.w3.org/Graphics/SVG/1.1/DTD/svg11.dtd"><svg xmlns="http://www.w3.org/2000/svg" xmlns:xlink="http://www.w3.org/1999/xlink" version="1.1" width="512" height="512" viewBox="0 0 512 512">    <path fill="#ffffff" transform="scale(1, -1) translate(0, -448)" glyph-name="pokemon-go" unicode="&#xFA08;" horiz-adv-x="512" d=" M256 405.3333333333333C338.56 405.3333333333333 405.3333333333333 338.56 405.3333333333333 256C405.3333333333333 226.1333333333334 396.5866666666667 198.1866666666667 381.44 174.9333333333333L256 -25.8133333333333L130.56 174.9333333333333C115.4133333333333 198.1866666666667 106.6666666666667 226.1333333333334 106.6666666666667 256C106.6666666666667 338.56 173.44 405.3333333333333 256 405.3333333333333M256 373.3333333333334C198.4 373.3333333333334 150.6133333333333 331.9466666666667 140.5866666666667 277.3333333333334H195.6266666666667C204.3733333333333 302.2933333333334 228.0533333333333 320 256 320S307.6266666666667 302.2933333333334 316.3733333333334 277.3333333333334H371.4133333333333C361.3866666666667 331.9466666666667 313.6 373.3333333333334 256 373.3333333333334M256 192C228.0533333333333 192 204.3733333333333 209.7066666666667 195.6266666666667 234.6666666666667H140.5866666666667C143.36 219.9466666666667 148.6933333333333 206.08 156.5866666666667 193.92L157.44 192C178.3466666666666 160 214.6133333333334 138.6666666666667 256 138.6666666666667S333.6533333333333 160 354.56 192L355.4133333333333 193.92C363.3066666666667 206.08 368.64 219.9466666666667 371.4133333333333 234.6666666666667H316.3733333333334C307.6266666666667 209.7066666666667 283.9466666666667 192 256 192M256 288C238.2933333333333 288 224 273.7066666666667 224 256S238.2933333333333 224 256 224S288 238.2933333333334 288 256S273.7066666666667 288 256 288z" /></svg>