<?xml version="1.0" encoding="UTF-8"?><!DOCTYPE svg PUBLIC "-//W3C//DTD SVG 1.1//EN" "http://www.w3.org/Graphics/SVG/1.1/DTD/svg11.dtd"><svg xmlns="http://www.w3.org/2000/svg" xmlns:xlink="http://www.w3.org/1999/xlink" version="1.1" width="512" height="512" viewBox="0 0 512 512">    <path fill="#ffffff" transform="scale(1, -1) translate(0, -448)" glyph-name="silo" unicode="&#xFB24;" horiz-adv-x="512" d=" M181.3333333333333 405.3333333333333C252.8 405.3333333333333 311.4666666666667 351.36 319.1466666666667 282.0266666666667L469.3333333333333 192V149.3333333333334L426.6666666666667 174.9333333333333V-21.3333333333333H384V200.5333333333334L320 238.9333333333334V-21.3333333333333H277.3333333333333V256H85.3333333333333V-21.3333333333333H42.6666666666667V266.6666666666667C42.6666666666667 343.2533333333334 104.7466666666667 405.3333333333333 181.3333333333333 405.3333333333333M181.3333333333333 362.6666666666667C139.52 362.6666666666667 103.8933333333333 336 90.88 298.6666666666667H271.7866666666667C258.7733333333333 336 223.1466666666667 362.6666666666667 181.3333333333333 362.6666666666667M128 213.3333333333334H234.6666666666667V170.6666666666667H128V213.3333333333334M128 128H234.6666666666667V85.3333333333334H128V128M128 42.6666666666667H234.6666666666667V0H128V42.6666666666667z" /></svg>