<?xml version="1.0" encoding="UTF-8"?><!DOCTYPE svg PUBLIC "-//W3C//DTD SVG 1.1//EN" "http://www.w3.org/Graphics/SVG/1.1/DTD/svg11.dtd"><svg xmlns="http://www.w3.org/2000/svg" xmlns:xlink="http://www.w3.org/1999/xlink" version="1.1" width="512" height="512" viewBox="0 0 512 512">    <path fill="#ffffff" transform="scale(1, -1) translate(0, -448)" glyph-name="rotate-3d" unicode="&#xF464;" horiz-adv-x="512" d=" M256 341.3333333333334C362.0266666666667 341.3333333333334 448 283.9466666666667 448 213.3333333333334C448 177.4933333333334 425.8133333333334 145.0666666666667 390.1866666666666 121.8133333333334C413.0133333333333 140.3733333333333 426.6666666666667 163.84 426.6666666666667 189.2266666666667C426.6666666666667 249.8133333333334 350.2933333333334 298.6666666666667 256 298.6666666666667V234.6666666666667L170.6666666666667 320L256 405.3333333333333V341.3333333333334M256 42.6666666666667C149.9733333333333 42.6666666666667 64 100.0533333333334 64 170.6666666666667C64 206.5066666666667 86.1866666666667 238.9333333333334 121.8133333333333 262.1866666666667C98.9866666666667 243.6266666666667 85.3333333333333 220.16 85.3333333333333 194.56C85.3333333333333 134.1866666666667 161.7066666666667 85.3333333333334 256 85.3333333333334V149.3333333333334L341.3333333333333 64L256 -21.3333333333333V42.6666666666667z" /></svg>