<?xml version="1.0" encoding="UTF-8"?><!DOCTYPE svg PUBLIC "-//W3C//DTD SVG 1.1//EN" "http://www.w3.org/Graphics/SVG/1.1/DTD/svg11.dtd"><svg xmlns="http://www.w3.org/2000/svg" xmlns:xlink="http://www.w3.org/1999/xlink" version="1.1" width="512" height="512" viewBox="0 0 512 512">    <path fill="#ffffff" transform="scale(1, -1) translate(0, -448)" glyph-name="numeric-9-plus-box" unicode="&#xF3BF;" horiz-adv-x="512" d=" M448 341.3333333333334V42.6666666666667C448 19.2 428.8 0 405.3333333333333 0H106.6666666666667C83.2 0 64 19.2 64 42.6666666666667V341.3333333333334C64 364.8 83.2 384 106.6666666666667 384H405.3333333333333C428.8 384 448 364.8 448 341.3333333333334M405.3333333333333 213.3333333333334H362.6666666666667V256H320V213.3333333333334H277.3333333333333V170.6666666666667H320V128H362.6666666666667V170.6666666666667H405.3333333333333V213.3333333333334M213.3333333333333 298.6666666666667H170.6666666666667C147.2 298.6666666666667 128 279.4666666666667 128 256V213.3333333333334C128 189.6533333333334 147.2 170.6666666666667 170.6666666666667 170.6666666666667H213.3333333333333V128H128V85.3333333333334H213.3333333333333C236.8 85.3333333333334 256 104.5333333333333 256 128V256C256 279.68 236.8 298.6666666666667 213.3333333333333 298.6666666666667M170.6666666666667 256H213.3333333333333V213.3333333333334H170.6666666666667V256z" /></svg>