<?xml version="1.0" encoding="UTF-8"?><!DOCTYPE svg PUBLIC "-//W3C//DTD SVG 1.1//EN" "http://www.w3.org/Graphics/SVG/1.1/DTD/svg11.dtd"><svg xmlns="http://www.w3.org/2000/svg" xmlns:xlink="http://www.w3.org/1999/xlink" version="1.1" width="512" height="512" viewBox="0 0 512 512">    <path fill="#ffffff" transform="scale(1, -1) translate(0, -448)" glyph-name="content-save-edit" unicode="&#xFCD7;" horiz-adv-x="512" d=" M213.3333333333333 42.6666666666667L216.32 45.6533333333334C189.8666666666667 53.3333333333334 170.6666666666667 77.6533333333334 170.6666666666667 106.6666666666667C170.6666666666667 142.0800000000001 199.2533333333333 170.6666666666667 234.6666666666667 170.6666666666667C263.68 170.6666666666667 288 151.4666666666667 295.68 125.0133333333333L426.6666666666667 256V298.6666666666667L341.3333333333333 384H85.3333333333333C61.6533333333333 384 42.6666666666667 364.8 42.6666666666667 341.3333333333334V42.6666666666667C42.6666666666667 19.2 61.8666666666667 0 85.3333333333333 0H213.3333333333333V42.6666666666667M85.3333333333333 341.3333333333334H298.6666666666667V256H85.3333333333333V341.3333333333334M427.52 189.2266666666667C424.5333333333333 189.2266666666667 421.5466666666666 187.9466666666667 419.2 185.6L397.8666666666666 164.2666666666667L441.6 120.5333333333334L462.9333333333333 141.8666666666667C467.6266666666666 146.3466666666668 467.6266666666666 153.8133333333334 462.9333333333333 158.2933333333334L435.6266666666666 185.6C433.28 187.9466666666667 430.5066666666667 189.2266666666667 427.52 189.2266666666667M385.4933333333334 151.8933333333334L256 22.6133333333333V-21.3333333333333H299.9466666666667L429.2266666666667 108.16L385.4933333333334 151.8933333333334z" /></svg>