<?xml version="1.0" encoding="UTF-8"?><!DOCTYPE svg PUBLIC "-//W3C//DTD SVG 1.1//EN" "http://www.w3.org/Graphics/SVG/1.1/DTD/svg11.dtd"><svg xmlns="http://www.w3.org/2000/svg" xmlns:xlink="http://www.w3.org/1999/xlink" version="1.1" width="512" height="512" viewBox="0 0 512 512">    <path fill="#ffffff" transform="scale(1, -1) translate(0, -448)" glyph-name="wunderlist" unicode="&#xF5B8;" horiz-adv-x="512" d=" M362.6666666666667 74.6666666666667L256 128L149.3333333333333 74.6666666666667V341.3333333333334H106.6666666666667V42.6666666666667H405.3333333333333V341.3333333333334H362.6666666666667V74.6666666666667M256 183.04L304 154.24L291.2 208.6400000000001L333.6533333333333 245.3333333333334L277.3333333333333 250.24L256 301.6533333333334L234.6666666666667 250.24L178.3466666666666 245.3333333333334L220.8 208.64L208 154.24L256 183.04M106.6666666666667 384H405.3333333333333C428.8 384 448 364.8 448 341.3333333333334V42.6666666666667C448 19.2 428.8 0 405.3333333333333 0H106.6666666666667C83.2 0 64 19.2 64 42.6666666666667V341.3333333333334C64 364.8 83.2 384 106.6666666666667 384z" /></svg>