<?xml version="1.0" encoding="UTF-8"?><!DOCTYPE svg PUBLIC "-//W3C//DTD SVG 1.1//EN" "http://www.w3.org/Graphics/SVG/1.1/DTD/svg11.dtd"><svg xmlns="http://www.w3.org/2000/svg" xmlns:xlink="http://www.w3.org/1999/xlink" version="1.1" width="512" height="512" viewBox="0 0 512 512">    <path fill="#ffffff" transform="scale(1, -1) translate(0, -448)" glyph-name="linux-mint" unicode="&#xF8EC;" horiz-adv-x="512" d=" M42.6666666666667 379.0933333333334V302.9333333333334H74.6666666666667C97.92 302.9333333333334 101.9733333333333 287.36 101.9733333333333 265.6V130.9866666666667C101.9733333333333 61.4400000000001 163.2 4.9066666666667 238.5066666666667 4.9066666666667H424.5333333333333C448 4.9066666666667 469.3333333333333 19.84 469.3333333333333 42.6666666666667V251.7333333333334C469.3333333333333 321.4933333333334 408.1066666666667 378.0266666666667 332.8 378.0266666666667H254.5066666666667V378.24L42.6666666666667 379.0933333333334M141.2266666666667 331.52H178.56V139.7333333333334C178.56 114.1333333333334 196.0533333333334 94.08 216.7466666666667 94.08L344.1066666666667 93.6533333333334C370.7733333333333 93.6533333333334 391.4666666666666 112 391.4666666666666 133.76L391.2533333333332 235.52C391.2533333333332 242.1333333333334 389.1199999999999 247.2533333333334 383.9999999999999 251.9466666666667C379.5199999999999 256.8533333333334 374.6133333333333 258.9866666666667 367.9999999999999 258.9866666666667S356.4799999999999 256.8533333333334 351.9999999999999 251.9466666666667C347.0933333333333 247.2533333333333 344.7466666666666 242.1333333333333 344.7466666666666 235.52V148.2666666666667H305.2799999999999V235.52C305.2799999999999 242.1333333333334 303.1466666666666 247.2533333333334 298.6666666666666 251.9466666666667C293.7599999999999 256.8533333333334 288.8533333333333 258.9866666666667 282.0266666666666 258.9866666666667C275.6266666666666 258.9866666666667 270.5066666666666 256.8533333333334 265.8133333333333 251.9466666666667C261.1199999999999 247.2533333333333 258.9866666666666 242.1333333333333 258.9866666666666 235.52V148.2666666666667H219.5199999999999V235.52C219.5199999999999 252.8 225.7066666666666 267.9466666666667 237.8666666666666 280.32C250.0266666666666 292.48 265.1733333333333 298.6666666666667 282.0266666666666 298.6666666666667C298.6666666666666 298.6666666666667 313.1733333333333 292.6933333333334 325.1199999999999 281.1733333333333C336.8533333333333 292.6933333333334 351.3599999999999 298.6666666666667 367.9999999999999 298.6666666666667C385.0666666666666 298.6666666666667 400.2133333333333 292.48 412.1599999999999 280.32C424.32 267.9466666666667 430.7199999999999 252.8 430.7199999999999 235.52L430.9333333333333 126.72C429.0133333333333 108.5866666666667 421.3333333333333 92.3733333333333 408.1066666666667 78.72C392.5333333333333 63.1466666666667 373.3333333333333 55.04 352 55.04H209.7066666666667C192 56.7466666666666 176.8533333333333 65.0666666666666 164.0533333333333 77.6533333333333C149.3333333333333 92.8 141.2266666666666 111.1466666666667 141.2266666666666 132.48V331.52z" /></svg>