<?xml version="1.0" encoding="UTF-8"?><!DOCTYPE svg PUBLIC "-//W3C//DTD SVG 1.1//EN" "http://www.w3.org/Graphics/SVG/1.1/DTD/svg11.dtd"><svg xmlns="http://www.w3.org/2000/svg" xmlns:xlink="http://www.w3.org/1999/xlink" version="1.1" width="512" height="512" viewBox="0 0 512 512">    <path fill="#ffffff" transform="scale(1, -1) translate(0, -448)" glyph-name="account-outline" unicode="&#xF013;" horiz-adv-x="512" d=" M256 362.6666666666667C303.1466666666667 362.6666666666667 341.3333333333333 324.48 341.3333333333333 277.3333333333334S303.1466666666667 192 256 192S170.6666666666667 230.1866666666667 170.6666666666667 277.3333333333334S208.8533333333333 362.6666666666667 256 362.6666666666667M256 320C232.5333333333334 320 213.3333333333333 300.8 213.3333333333333 277.3333333333334S232.5333333333334 234.6666666666667 256 234.6666666666667S298.6666666666667 253.8666666666667 298.6666666666667 277.3333333333334S279.4666666666667 320 256 320M256 170.6666666666667C312.96 170.6666666666667 426.6666666666667 142.2933333333334 426.6666666666667 85.3333333333334V21.3333333333334H85.3333333333333V85.3333333333334C85.3333333333333 142.2933333333334 199.04 170.6666666666667 256 170.6666666666667M256 130.1333333333333C192.64 130.1333333333333 125.8666666666667 98.9866666666667 125.8666666666667 85.3333333333334V61.8666666666667H386.1333333333334V85.3333333333334C386.1333333333334 98.9866666666667 319.36 130.1333333333333 256 130.1333333333333z" /></svg>