<?xml version="1.0" encoding="UTF-8"?><!DOCTYPE svg PUBLIC "-//W3C//DTD SVG 1.1//EN" "http://www.w3.org/Graphics/SVG/1.1/DTD/svg11.dtd"><svg xmlns="http://www.w3.org/2000/svg" xmlns:xlink="http://www.w3.org/1999/xlink" version="1.1" width="512" height="512" viewBox="0 0 512 512">    <path fill="#ffffff" transform="scale(1, -1) translate(0, -448)" glyph-name="star-circle-outline" unicode="&#xF9A3;" horiz-adv-x="512" d=" M183.04 80L202.6666666666667 162.9866666666667L138.6666666666667 218.0266666666667L222.9333333333333 225.92L256 302.9333333333334L289.0666666666667 225.0666666666667L373.3333333333333 218.0266666666667L309.3333333333333 162.9866666666667L328.96 80L256 123.9466666666667L183.04 80M256 405.3333333333333C373.76 405.3333333333333 469.3333333333333 309.76 469.3333333333333 192S373.76 -21.3333333333333 256 -21.3333333333333S42.6666666666667 74.24 42.6666666666667 192S138.24 405.3333333333333 256 405.3333333333333M256 362.6666666666667C161.7066666666667 362.6666666666667 85.3333333333333 286.2933333333334 85.3333333333333 192S161.7066666666667 21.3333333333334 256 21.3333333333334S426.6666666666667 97.7066666666667 426.6666666666667 192S350.2933333333334 362.6666666666667 256 362.6666666666667z" /></svg>