<?xml version="1.0" encoding="UTF-8"?><!DOCTYPE svg PUBLIC "-//W3C//DTD SVG 1.1//EN" "http://www.w3.org/Graphics/SVG/1.1/DTD/svg11.dtd"><svg xmlns="http://www.w3.org/2000/svg" xmlns:xlink="http://www.w3.org/1999/xlink" version="1.1" width="512" height="512" viewBox="0 0 512 512">    <path fill="#ffffff" transform="scale(1, -1) translate(0, -448)" glyph-name="decagram-outline" unicode="&#xF76C;" horiz-adv-x="512" d=" M490.6666666666666 192L438.6133333333333 132.6933333333334L445.8666666666666 54.1866666666667L368.8533333333333 36.6933333333333L328.5333333333333 -31.1466666666666L256 0L183.4666666666667 -31.36L143.1466666666667 36.48L66.1333333333333 53.9733333333334L73.3866666666667 132.6933333333334L21.3333333333333 192L73.3866666666667 251.52L66.1333333333333 330.0266666666667L143.1466666666667 347.3066666666667L183.4666666666667 415.1466666666667L256 384L328.5333333333333 415.1466666666667L368.8533333333333 347.3066666666667L445.8666666666666 329.8133333333334L438.6133333333333 251.3066666666667L490.6666666666666 192M433.7066666666666 192L394.6666666666667 237.0133333333333L399.7866666666667 296.5333333333333L341.3333333333333 309.3333333333334L311.04 361.1733333333334L256 337.4933333333334L200.96 361.1733333333334L170.6666666666667 309.3333333333334L112.2133333333333 296.7466666666667L117.3333333333333 237.2266666666667L78.2933333333333 192L117.3333333333333 147.2000000000001L112.2133333333333 87.4666666666667L170.6666666666667 74.6666666666667L200.96 22.8266666666667L256 46.72L311.04 23.0400000000001L341.3333333333333 74.6666666666667L399.7866666666667 87.68L394.6666666666668 147.2L433.7066666666668 192z" /></svg>