<?xml version="1.0" encoding="UTF-8"?><!DOCTYPE svg PUBLIC "-//W3C//DTD SVG 1.1//EN" "http://www.w3.org/Graphics/SVG/1.1/DTD/svg11.dtd"><svg xmlns="http://www.w3.org/2000/svg" xmlns:xlink="http://www.w3.org/1999/xlink" version="1.1" width="512" height="512" viewBox="0 0 512 512">    <path fill="#ffffff" transform="scale(1, -1) translate(0, -448)" glyph-name="camera-party-mode" unicode="&#xF105;" horiz-adv-x="512" d=" M256 85.3333333333334C221.2266666666667 85.3333333333334 190.72 102.1866666666667 170.6666666666667 128H256C291.4133333333333 128 320 156.5866666666667 320 192C320 199.4666666666667 318.5066666666667 206.72 316.16 213.3333333333334H360.5333333333333C361.8133333333333 206.5066666666667 362.6666666666667 199.2533333333333 362.6666666666667 192C362.6666666666667 133.12 314.88 85.3333333333334 256 85.3333333333334M256 298.6666666666667C290.7733333333333 298.6666666666667 321.28 281.8133333333334 341.3333333333333 256H256C220.5866666666667 256 192 227.4133333333334 192 192C192 184.5333333333334 193.4933333333334 177.4933333333334 195.84 170.6666666666667H151.4666666666667C149.9733333333333 177.4933333333334 149.3333333333333 184.7466666666667 149.3333333333333 192C149.3333333333333 250.88 197.12 298.6666666666667 256 298.6666666666667M426.6666666666667 362.6666666666667H359.04L320 405.3333333333333H192L152.96 362.6666666666667H85.3333333333333C61.8666666666667 362.6666666666667 42.6666666666667 343.4666666666667 42.6666666666667 320V64C42.6666666666667 40.5333333333333 61.8666666666667 21.3333333333334 85.3333333333333 21.3333333333334H426.6666666666667C450.1333333333334 21.3333333333334 469.3333333333333 40.5333333333333 469.3333333333333 64V320C469.3333333333333 343.68 450.1333333333334 362.6666666666667 426.6666666666667 362.6666666666667z" /></svg>