<?xml version="1.0" encoding="UTF-8"?><!DOCTYPE svg PUBLIC "-//W3C//DTD SVG 1.1//EN" "http://www.w3.org/Graphics/SVG/1.1/DTD/svg11.dtd"><svg xmlns="http://www.w3.org/2000/svg" xmlns:xlink="http://www.w3.org/1999/xlink" version="1.1" width="512" height="512" viewBox="0 0 512 512">    <path fill="#ffffff" transform="scale(1, -1) translate(0, -448)" glyph-name="yahoo" unicode="&#xFB2A;" horiz-adv-x="512" d=" M256.64 376.32C181.3333333333333 376.32 109.8666666666667 386.1333333333334 42.6666666666667 405.3333333333333V-21.3333333333333C109.8666666666667 -2.1333333333333 181.3333333333333 7.68 256.64 7.68C330.6666666666667 7.68 402.1333333333334 -1.92 469.3333333333333 -21.3333333333333V405.3333333333333C402.1333333333334 385.92 330.6666666666667 376.32 256.64 376.32M273.92 169.8133333333334L276.6933333333334 44.3733333333334L256 47.1466666666667C254.08 47.1466666666667 238.72 45.0133333333333 234.6666666666667 44.16L238.08 169.8133333333334C232.1066666666667 180.48 142.2933333333333 331.9466666666667 137.3866666666667 339.8400000000001L160 336C167.04 336 173.2266666666666 336.8533333333334 181.3333333333333 337.7066666666667C192.64 316.8000000000001 253.44 216.96 256 212.6933333333334C256 212.6933333333334 319.36 316.8 333.0133333333333 338.5600000000001C338.7733333333333 336.8533333333334 344.9599999999999 336 352 336C357.9733333333334 336 364.16 336.8533333333334 374.8266666666667 339.8400000000001L273.92 169.8133333333334z" /></svg>