<?xml version="1.0" encoding="UTF-8"?><!DOCTYPE svg PUBLIC "-//W3C//DTD SVG 1.1//EN" "http://www.w3.org/Graphics/SVG/1.1/DTD/svg11.dtd"><svg xmlns="http://www.w3.org/2000/svg" xmlns:xlink="http://www.w3.org/1999/xlink" version="1.1" width="512" height="512" viewBox="0 0 512 512">    <path fill="#ffffff" transform="scale(1, -1) translate(0, -448)" glyph-name="bell-ring" unicode="&#xF09E;" horiz-adv-x="512" d=" M448 42.6666666666667V21.3333333333334H64V42.6666666666667L106.6666666666667 85.3333333333334V213.3333333333334C106.6666666666667 279.4666666666667 149.9733333333333 337.7066666666667 213.3333333333333 356.48V362.6666666666667C213.3333333333333 386.1333333333334 232.5333333333334 405.3333333333333 256 405.3333333333333S298.6666666666667 386.1333333333334 298.6666666666667 362.6666666666667V356.48C362.0266666666667 337.7066666666667 405.3333333333333 279.4666666666667 405.3333333333333 213.3333333333334V85.3333333333334L448 42.6666666666667M298.6666666666667 0C298.6666666666667 -23.4666666666667 279.4666666666667 -42.6666666666666 256 -42.6666666666666S213.3333333333333 -23.4666666666667 213.3333333333333 0M421.3333333333333 379.9466666666667L391.04 349.6533333333333C427.52 313.6 448 264.5333333333334 448 213.3333333333334H490.6666666666666C490.6666666666666 275.8400000000001 465.92 336 421.3333333333333 379.9466666666667M21.3333333333333 213.3333333333334H64C64 264.5333333333334 84.48 313.6 120.96 349.6533333333333L90.6666666666667 379.9466666666667C46.08 336 21.3333333333333 275.8400000000001 21.3333333333333 213.3333333333334z" /></svg>