<?xml version="1.0" encoding="UTF-8"?><!DOCTYPE svg PUBLIC "-//W3C//DTD SVG 1.1//EN" "http://www.w3.org/Graphics/SVG/1.1/DTD/svg11.dtd"><svg xmlns="http://www.w3.org/2000/svg" xmlns:xlink="http://www.w3.org/1999/xlink" version="1.1" width="512" height="512" viewBox="0 0 512 512">    <path fill="#ffffff" transform="scale(1, -1) translate(0, -448)" glyph-name="barley" unicode="&#xF073;" horiz-adv-x="512" d=" M156.3733333333333 56.96C138.6666666666667 81.7066666666667 138.6666666666667 110.2933333333334 138.6666666666667 138.6666666666668C174.2933333333333 117.3333333333334 209.7066666666667 96 227.6266666666667 71.0400000000001L234.6666666666667 59.0933333333334V107.7333333333334C202.6666666666667 126.9333333333334 172.3733333333333 146.5600000000001 156.3733333333333 168.96C138.6666666666667 193.7066666666667 138.6666666666667 222.2933333333334 138.6666666666667 250.6666666666667C174.2933333333333 229.3333333333334 209.7066666666667 208.0000000000001 227.6266666666667 183.0400000000001L234.6666666666667 170.6666666666667V219.7333333333334C202.6666666666667 238.9333333333334 172.3733333333333 258.5600000000001 156.3733333333333 280.9600000000001C138.6666666666667 305.7066666666667 138.6666666666667 334.2933333333334 138.6666666666667 362.6666666666667C174.2933333333333 341.3333333333334 209.7066666666667 320 227.6266666666667 295.04C229.76 292.0533333333334 231.68 288.8533333333334 233.3866666666667 285.44C229.76 298.6666666666667 227.4133333333334 311.04 227.2 323.8400000000001C226.9866666666667 356.0533333333334 241.0666666666667 389.12 255.1466666666667 422.1866666666667C269.8666666666667 390.6133333333334 284.5866666666667 358.8266666666667 284.8 326.6133333333334C285.0133333333333 313.1733333333334 282.6666666666667 299.52 278.8266666666667 286.0800000000001C280.5333333333334 289.0666666666667 282.24 292.0533333333334 284.3733333333334 295.04C302.2933333333333 320 337.7066666666667 341.3333333333334 373.3333333333333 362.6666666666667C373.3333333333333 334.2933333333334 373.3333333333333 305.7066666666667 355.6266666666667 280.9600000000001C339.6266666666667 258.56 309.3333333333333 238.9333333333334 277.3333333333333 219.7333333333334V170.6666666666667L284.3733333333334 183.04C302.2933333333333 208 337.7066666666667 229.3333333333334 373.3333333333333 250.6666666666667C373.3333333333333 222.2933333333334 373.3333333333333 193.7066666666667 355.6266666666667 168.96C339.6266666666667 146.56 309.3333333333334 126.9333333333333 277.3333333333334 107.7333333333334V59.0933333333334L284.3733333333334 71.04C302.2933333333334 96 337.7066666666667 117.3333333333333 373.3333333333333 138.6666666666666C373.3333333333333 110.2933333333333 373.3333333333333 81.7066666666667 355.6266666666667 56.96C339.6266666666667 34.5599999999999 309.3333333333334 14.9333333333333 277.3333333333334 -4.2666666666667V-42.6666666666666H234.6666666666667V-4.2666666666667C202.6666666666667 14.9333333333333 172.3733333333334 34.5600000000001 156.3733333333334 56.96z" /></svg>