<?xml version="1.0" encoding="UTF-8"?><!DOCTYPE svg PUBLIC "-//W3C//DTD SVG 1.1//EN" "http://www.w3.org/Graphics/SVG/1.1/DTD/svg11.dtd"><svg xmlns="http://www.w3.org/2000/svg" xmlns:xlink="http://www.w3.org/1999/xlink" version="1.1" width="512" height="512" viewBox="0 0 512 512">    <path fill="#ffffff" transform="scale(1, -1) translate(0, -448)" glyph-name="tank" unicode="&#xFD16;" horiz-adv-x="512" d=" M426.6666666666667 192H85.3333333333333V213.3333333333334H128L149.3333333333333 320H256L277.3333333333333 213.3333333333334H426.6666666666667V192M282.0266666666667 298.6666666666667L290.56 256H469.3333333333333V298.6666666666667H282.0266666666667M469.3333333333333 106.6666666666667C469.3333333333333 71.2533333333333 440.7466666666667 42.6666666666667 405.3333333333333 42.6666666666667H106.6666666666667C71.2533333333333 42.6666666666667 42.6666666666667 71.2533333333333 42.6666666666667 106.6666666666667S71.2533333333333 170.6666666666667 106.6666666666667 170.6666666666667H405.3333333333333C440.7466666666667 170.6666666666667 469.3333333333333 142.0800000000001 469.3333333333333 106.6666666666667M128 106.6666666666667C128 118.4 118.4 128 106.6666666666667 128S85.3333333333333 118.4 85.3333333333333 106.6666666666667S94.9333333333333 85.3333333333334 106.6666666666667 85.3333333333334S128 94.9333333333333 128 106.6666666666667M277.3333333333333 106.6666666666667C277.3333333333333 118.4 267.7333333333334 128 256 128S234.6666666666667 118.4 234.6666666666667 106.6666666666667S244.2666666666667 85.3333333333334 256 85.3333333333334S277.3333333333333 94.9333333333333 277.3333333333333 106.6666666666667M426.6666666666667 106.6666666666667C426.6666666666667 118.4 417.0666666666667 128 405.3333333333333 128S384 118.4 384 106.6666666666667S393.6 85.3333333333334 405.3333333333333 85.3333333333334S426.6666666666667 94.9333333333333 426.6666666666667 106.6666666666667z" /></svg>