<?xml version="1.0" encoding="UTF-8"?><!DOCTYPE svg PUBLIC "-//W3C//DTD SVG 1.1//EN" "http://www.w3.org/Graphics/SVG/1.1/DTD/svg11.dtd"><svg xmlns="http://www.w3.org/2000/svg" xmlns:xlink="http://www.w3.org/1999/xlink" version="1.1" width="512" height="512" viewBox="0 0 512 512">    <path fill="#ffffff" transform="scale(1, -1) translate(0, -448)" glyph-name="chili-mild" unicode="&#xF7B3;" horiz-adv-x="512" d=" M293.3333333333333 256L318.9333333333333 272.2133333333334C332.3733333333334 264.9600000000001 341.3333333333333 250.88 341.3333333333333 234.6666666666667V-16S170.6666666666667 21.3333333333334 170.6666666666667 213.3333333333334V234.6666666666667C170.6666666666667 250.24 178.9866666666667 263.8933333333334 191.36 271.36L222.5066666666667 256L256 277.3333333333334L293.3333333333333 256M213.3333333333333 405.3333333333333C245.9733333333333 405.3333333333333 273.0666666666667 380.8 277.3333333333333 349.0133333333333C298.6666666666667 342.8266666666667 315.9466666666667 327.04 324.6933333333334 306.56L293.3333333333333 288L256 309.3333333333333L222.5066666666667 288L186.88 305.7066666666667C195.2 325.9733333333334 212.2666666666667 341.3333333333333 233.3866666666667 348.5866666666667C230.4 356.6933333333334 222.5066666666667 362.6666666666667 213.3333333333333 362.6666666666667V405.3333333333333z" /></svg>