<?xml version="1.0" encoding="UTF-8"?><!DOCTYPE svg PUBLIC "-//W3C//DTD SVG 1.1//EN" "http://www.w3.org/Graphics/SVG/1.1/DTD/svg11.dtd"><svg xmlns="http://www.w3.org/2000/svg" xmlns:xlink="http://www.w3.org/1999/xlink" version="1.1" width="512" height="512" viewBox="0 0 512 512">    <path fill="#ffffff" transform="scale(1, -1) translate(0, -448)" glyph-name="shopping" unicode="&#xF49A;" horiz-adv-x="512" d=" M256 170.6666666666667C197.12 170.6666666666667 149.3333333333333 218.4533333333334 149.3333333333333 277.3333333333334H192C192 241.92 220.5866666666667 213.3333333333334 256 213.3333333333334S320 241.92 320 277.3333333333334H362.6666666666667C362.6666666666667 218.4533333333334 314.88 170.6666666666667 256 170.6666666666667M256 384C291.4133333333333 384 320 355.4133333333334 320 320H192C192 355.4133333333334 220.5866666666667 384 256 384M405.3333333333333 320H362.6666666666667C362.6666666666667 378.88 314.88 426.6666666666667 256 426.6666666666667S149.3333333333333 378.88 149.3333333333333 320H106.6666666666667C82.9866666666667 320 64 301.0133333333333 64 277.3333333333334V21.3333333333334C64 -2.1333333333333 83.2 -21.3333333333333 106.6666666666667 -21.3333333333333H405.3333333333333C428.8 -21.3333333333333 448 -2.1333333333333 448 21.3333333333334V277.3333333333334C448 301.0133333333333 428.8 320 405.3333333333333 320z" /></svg>