<?xml version="1.0" encoding="UTF-8"?><!DOCTYPE svg PUBLIC "-//W3C//DTD SVG 1.1//EN" "http://www.w3.org/Graphics/SVG/1.1/DTD/svg11.dtd"><svg xmlns="http://www.w3.org/2000/svg" xmlns:xlink="http://www.w3.org/1999/xlink" version="1.1" width="512" height="512" viewBox="0 0 512 512">    <path fill="#ffffff" transform="scale(1, -1) translate(0, -448)" glyph-name="ribbon" unicode="&#xF460;" horiz-adv-x="512" d=" M286.08 36.0533333333334L353.92 -32L384 -1.4933333333333L316.3733333333334 66.1333333333334M331.52 202.0266666666667H331.3066666666666L256 126.5066666666667L180.6933333333333 202.0266666666667H180.48C161.28 221.2266666666667 149.3333333333333 247.8933333333333 149.3333333333333 277.3333333333334C149.3333333333333 336.2133333333334 197.12 384 256 384S362.6666666666667 336.2133333333334 362.6666666666667 277.3333333333334C362.6666666666667 247.8933333333334 350.7200000000001 221.2266666666667 331.52 202.0266666666667M360.5333333333333 170.6666666666667C388.2666666666667 197.76 405.3333333333333 235.52 405.3333333333333 277.3333333333334C405.3333333333333 359.8933333333333 338.56 426.6666666666667 256 426.6666666666667S106.6666666666667 359.8933333333333 106.6666666666667 277.3333333333334C106.6666666666667 235.52 123.9466666666667 197.76 151.4666666666667 170.6666666666667L225.92 96L128 -1.4933333333333L158.08 -32L360.5333333333333 170.6666666666667z" /></svg>