<?xml version="1.0" encoding="UTF-8"?><!DOCTYPE svg PUBLIC "-//W3C//DTD SVG 1.1//EN" "http://www.w3.org/Graphics/SVG/1.1/DTD/svg11.dtd"><svg xmlns="http://www.w3.org/2000/svg" xmlns:xlink="http://www.w3.org/1999/xlink" version="1.1" width="512" height="512" viewBox="0 0 512 512">    <path fill="#ffffff" transform="scale(1, -1) translate(0, -448)" glyph-name="hiking" unicode="&#xFD5B;" horiz-adv-x="512" d=" M209.0666666666667 258.1333333333334L149.3333333333333 -42.6666666666666H194.1333333333333L232.5333333333334 128L277.3333333333333 85.3333333333334V-42.6666666666666H320V117.3333333333334L275.2 160L288 224C312.1066666666667 196.0533333333334 347.52 176.4266666666667 387.2 171.7333333333334L341.3333333333333 -42.6666666666666H362.6666666666667L426.6666666666667 256L406.1866666666666 260.2666666666667L396.3733333333333 213.3333333333334C359.68 216.5333333333334 329.3866666666666 237.0133333333333 313.6 264.5333333333334L292.2666666666667 298.6666666666667C288 306.1333333333334 281.6 312.1066666666667 273.92 315.7333333333334C266.6666666666667 320 257.7066666666667 320.8533333333334 249.1733333333333 320C240.64 318.0800000000001 232.96 314.24 226.7733333333333 308.2666666666667C220.5866666666667 302.2933333333334 216.32 294.6133333333334 214.6133333333333 286.2933333333334L209.0666666666667 258.1333333333334M151.04 300.3733333333334L200.5333333333333 290.56L179.2 182.1866666666667L129.7066666666667 192L151.04 300.3733333333334M288 330.6666666666667C311.4666666666667 330.6666666666667 330.6666666666667 349.8666666666667 330.6666666666667 373.3333333333334S311.4666666666667 416 288 416S245.3333333333333 396.8 245.3333333333333 373.3333333333334S264.5333333333333 330.6666666666667 288 330.6666666666667z" /></svg>