<?xml version="1.0" encoding="UTF-8"?><!DOCTYPE svg PUBLIC "-//W3C//DTD SVG 1.1//EN" "http://www.w3.org/Graphics/SVG/1.1/DTD/svg11.dtd"><svg xmlns="http://www.w3.org/2000/svg" xmlns:xlink="http://www.w3.org/1999/xlink" version="1.1" width="512" height="512" viewBox="0 0 512 512">    <path fill="#ffffff" transform="scale(1, -1) translate(0, -448)" glyph-name="google-classroom" unicode="&#xF2C0;" horiz-adv-x="512" d=" M490.6666666666666 405.3333333333333H21.3333333333333C9.6 405.3333333333333 0 395.7333333333334 0 384V0C0 -11.7333333333333 9.6 -21.3333333333333 21.3333333333333 -21.3333333333333H490.6666666666666C502.4 -21.3333333333333 512 -11.7333333333333 512 0V384C512 395.7333333333334 502.4 405.3333333333333 490.6666666666666 405.3333333333333M469.3333333333333 21.3333333333334H426.6666666666667V42.6666666666667H320V21.3333333333334H42.6666666666667V362.6666666666667H469.3333333333333V21.3333333333334M219.52 240.8533333333333C219.52 260.9066666666667 235.9466666666667 277.3333333333334 256 277.3333333333334C276.2666666666667 277.3333333333334 292.48 260.9066666666667 292.48 240.8533333333333C292.48 220.5866666666667 276.2666666666667 204.16 256 204.16S219.52 220.5866666666667 219.52 240.8533333333333M121.8133333333333 207.1466666666667C121.8133333333333 222.2933333333333 134.1866666666667 234.6666666666667 149.3333333333333 234.6666666666667C164.48 234.6666666666667 176.8533333333333 222.2933333333334 176.8533333333333 207.1466666666667C176.8533333333333 192 164.48 179.84 149.3333333333333 179.84C134.1866666666667 179.84 121.8133333333333 192.0000000000001 121.8133333333333 207.1466666666667M335.1466666666667 207.1466666666667C335.1466666666667 222.2933333333334 347.52 234.6666666666667 362.6666666666667 234.6666666666667C377.8133333333334 234.6666666666667 390.1866666666666 222.2933333333334 390.1866666666666 207.1466666666667C390.1866666666666 192 377.8133333333334 179.84 362.6666666666667 179.84C347.52 179.84 335.1466666666667 192.0000000000001 335.1466666666667 207.1466666666667M426.6666666666667 125.0133333333333V106.6666666666667H85.3333333333333V125.0133333333333C85.3333333333333 145.0666666666667 118.4 161.4933333333334 149.3333333333333 161.4933333333334C161.0666666666667 161.4933333333334 173.0133333333333 159.1466666666667 183.4666666666667 155.0933333333334C199.4666666666667 169.8133333333333 228.2666666666667 179.84 256 179.84C283.7333333333334 179.84 312.5333333333333 169.8133333333333 328.5333333333333 155.0933333333334C338.9866666666667 159.1466666666667 350.9333333333333 161.4933333333334 362.6666666666667 161.4933333333334C393.6 161.4933333333334 426.6666666666667 145.0666666666667 426.6666666666667 125.0133333333333z" /></svg>