<?xml version="1.0" encoding="UTF-8"?><!DOCTYPE svg PUBLIC "-//W3C//DTD SVG 1.1//EN" "http://www.w3.org/Graphics/SVG/1.1/DTD/svg11.dtd"><svg xmlns="http://www.w3.org/2000/svg" xmlns:xlink="http://www.w3.org/1999/xlink" version="1.1" width="512" height="512" viewBox="0 0 512 512">    <path fill="#ffffff" transform="scale(1, -1) translate(0, -448)" glyph-name="basketball-hoop-outline" unicode="&#xFC18;" horiz-adv-x="512" d=" M448 405.3333333333333H64C40.5333333333333 405.3333333333333 21.3333333333333 386.1333333333334 21.3333333333333 362.6666666666667V106.6666666666667C21.3333333333333 83.2 40.5333333333333 64 64 64H140.16L170.6666666666667 -42.6666666666666L213.3333333333333 0L256 -42.6666666666666L298.6666666666667 0L341.3333333333333 -42.6666666666666L371.84 64H448C471.4666666666667 64 490.6666666666666 83.2 490.6666666666666 106.6666666666667V362.6666666666667C490.6666666666666 386.1333333333334 471.4666666666667 405.3333333333333 448 405.3333333333333M448 106.6666666666667H384V149.3333333333334H362.6666666666667V256C362.6666666666667 279.4666666666667 343.4666666666667 298.6666666666667 320 298.6666666666667H192C168.5333333333333 298.6666666666667 149.3333333333333 279.4666666666667 149.3333333333333 256V149.3333333333334H128V106.6666666666667H64V362.6666666666667H448V106.6666666666667M192 149.3333333333334V256H320V149.3333333333334H192z" /></svg>