<?xml version="1.0" encoding="UTF-8"?><!DOCTYPE svg PUBLIC "-//W3C//DTD SVG 1.1//EN" "http://www.w3.org/Graphics/SVG/1.1/DTD/svg11.dtd"><svg xmlns="http://www.w3.org/2000/svg" xmlns:xlink="http://www.w3.org/1999/xlink" version="1.1" width="512" height="512" viewBox="0 0 512 512">    <path fill="#ffffff" transform="scale(1, -1) translate(0, -448)" glyph-name="vimeo" unicode="&#xF577;" horiz-adv-x="512" d=" M469.3333333333333 289.7066666666667C467.4133333333333 248.1066666666667 438.4 191.1466666666667 382.2933333333334 118.6133333333334C324.2666666666667 42.6666666666667 275.2 5.3333333333334 234.6666666666667 5.3333333333334C210.1333333333333 5.3333333333334 189.0133333333333 28.3733333333333 171.7333333333334 74.6666666666667C160 116.48 149.3333333333334 158.72 137.3866666666667 200.96C124.5866666666667 247.04 110.9333333333333 270.0800000000001 96 270.0800000000001C93.0133333333333 270.0800000000001 81.92 263.2533333333334 62.72 249.8133333333334L42.6666666666667 275.8400000000001C64 294.4 84.48 312.9600000000001 104.96 331.52C133.12 355.84 154.24 368.64 168.1066666666667 369.92C201.3866666666667 373.3333333333333 221.8666666666667 350.2933333333333 229.5466666666667 301.6533333333333C237.8666666666667 248.96 243.6266666666667 216.32 246.8266666666667 203.52C256 160 266.6666666666667 138.6666666666667 278.4 138.6666666666667C287.36 138.6666666666667 300.8 152.3200000000001 318.7200000000001 180.6933333333334C336.64 208.8533333333334 346.24 230.4000000000001 347.5200000000001 245.3333333333334C350.0800000000001 269.6533333333334 340.48 281.8133333333334 318.7200000000001 281.8133333333334C308.48 281.8133333333334 298.0266666666667 279.4666666666667 287.1466666666667 274.7733333333334C308.0533333333334 343.6800000000001 348.1600000000001 377.1733333333334 407.2533333333334 375.2533333333334C451.2 373.9733333333334 471.8933333333334 345.3866666666667 469.3333333333334 289.7066666666667z" /></svg>