<?xml version="1.0" encoding="UTF-8"?><!DOCTYPE svg PUBLIC "-//W3C//DTD SVG 1.1//EN" "http://www.w3.org/Graphics/SVG/1.1/DTD/svg11.dtd"><svg xmlns="http://www.w3.org/2000/svg" xmlns:xlink="http://www.w3.org/1999/xlink" version="1.1" width="512" height="512" viewBox="0 0 512 512">    <path fill="#ffffff" transform="scale(1, -1) translate(0, -448)" glyph-name="book-lock" unicode="&#xF799;" horiz-adv-x="512" d=" M384 405.3333333333333H256V256L202.6666666666667 288L149.3333333333333 256V405.3333333333333H128C104.5333333333333 405.3333333333333 85.3333333333333 386.1333333333334 85.3333333333333 362.6666666666667V21.3333333333334C85.3333333333333 -2.1333333333333 104.5333333333333 -21.3333333333333 128 -21.3333333333333H384C407.4666666666667 -21.3333333333333 426.6666666666667 -2.1333333333333 426.6666666666667 21.3333333333334V362.6666666666667C426.6666666666667 386.1333333333334 407.4666666666667 405.3333333333333 384 405.3333333333333M384 21.3333333333334H213.3333333333333V106.6666666666667H234.6666666666667V128C234.6666666666667 163.4133333333334 263.2533333333334 192 298.6666666666667 192S362.6666666666667 163.4133333333334 362.6666666666667 128V106.6666666666667H384V21.3333333333334M320 128V106.6666666666667H277.3333333333333V128C277.3333333333333 139.7333333333334 286.9333333333333 149.3333333333334 298.6666666666667 149.3333333333334S320 139.7333333333334 320 128z" /></svg>