<?xml version="1.0" encoding="UTF-8"?><!DOCTYPE svg PUBLIC "-//W3C//DTD SVG 1.1//EN" "http://www.w3.org/Graphics/SVG/1.1/DTD/svg11.dtd"><svg xmlns="http://www.w3.org/2000/svg" xmlns:xlink="http://www.w3.org/1999/xlink" version="1.1" width="512" height="512" viewBox="0 0 512 512">    <path fill="#ffffff" transform="scale(1, -1) translate(0, -448)" glyph-name="ubuntu" unicode="&#xF548;" horiz-adv-x="512" d=" M469.3333333333333 192C469.3333333333333 74.24 373.76 -21.3333333333333 256 -21.3333333333333S42.6666666666667 74.24 42.6666666666667 192S138.24 405.3333333333333 256 405.3333333333333S469.3333333333333 309.76 469.3333333333333 192M305.92 282.88C318.2933333333333 275.8400000000001 333.8666666666667 280.1066666666667 341.3333333333333 292.2666666666667C347.9466666666666 304.4266666666667 343.8933333333333 320 331.52 327.2533333333334C319.36 334.2933333333334 303.5733333333333 330.6666666666667 296.5333333333333 317.8666666666667C289.4933333333333 305.7066666666667 293.76 289.92 305.92 282.88M253.44 117.3333333333334C242.1333333333334 117.3333333333334 231.4666666666667 119.68 222.08 124.16L204.16 92.16C219.0933333333333 85.3333333333334 235.7333333333333 80.64 253.44 80.64C263.8933333333333 80.64 273.7066666666666 82.1333333333334 283.3066666666666 84.6933333333334C285.0133333333333 95.1466666666667 290.9866666666666 104.5333333333334 300.8 110.08C310.6133333333334 115.84 321.7066666666667 116.2666666666667 331.52 112.6400000000001C350.5066666666667 131.2000000000001 362.6666666666667 156.5866666666667 364.5866666666667 184.96L328.1066666666667 185.3866666666667C324.6933333333333 147.2000000000001 292.6933333333333 117.3333333333334 253.44 117.3333333333334M253.44 266.6666666666668C292.6933333333333 266.6666666666668 324.6933333333333 237.0133333333334 328.1066666666667 198.6133333333334L364.5866666666667 199.2533333333334C362.6666666666667 227.4133333333334 350.5066666666667 252.8000000000001 331.52 271.3600000000001C321.7066666666666 267.7333333333334 310.4 268.3733333333334 300.8 273.9200000000001C290.9866666666666 279.4666666666667 285.0133333333333 289.0666666666667 283.3066666666666 299.3066666666668C273.7066666666667 301.8666666666667 263.8933333333333 303.36 253.44 303.36C235.7333333333333 303.36 219.0933333333333 299.3066666666668 204.16 291.8400000000001L222.08 259.8400000000001C231.4666666666666 264.3200000000001 242.1333333333333 266.6666666666668 253.44 266.6666666666668M178.56 192C178.56 217.3866666666667 191.1466666666667 239.7866666666667 210.3466666666666 253.2266666666667L192 284.8C169.3866666666667 269.6533333333334 152.5333333333333 246.8266666666667 145.7066666666667 219.9466666666667C153.8133333333333 213.3333333333333 158.9333333333333 203.3066666666667 158.9333333333333 192S153.8133333333333 170.6666666666666 145.7066666666667 164.0533333333333C152.5333333333333 137.3866666666667 169.3866666666667 114.3466666666666 192 99.4133333333333L210.3466666666666 130.7733333333333C191.1466666666667 144.2133333333333 178.56 166.6133333333333 178.56 192M305.92 101.1199999999999C293.76 94.0799999999999 289.4933333333334 78.5066666666666 296.5333333333333 66.1333333333332C303.5733333333333 53.9733333333332 319.36 49.7066666666666 331.52 56.7466666666666C343.8933333333333 63.9999999999999 347.9466666666667 79.5733333333332 341.3333333333333 91.7333333333332C333.8666666666667 104.1066666666665 318.2933333333333 108.1599999999999 305.92 101.1199999999999M122.88 217.6C108.8 217.6 97.28 206.08 97.28 192C97.28 177.92 108.8 166.4 122.88 166.4C137.1733333333333 166.4 148.48 177.92 148.48 192C148.48 206.08 137.1733333333333 217.6 122.88 217.6z" /></svg>