<?xml version="1.0" encoding="UTF-8"?><!DOCTYPE svg PUBLIC "-//W3C//DTD SVG 1.1//EN" "http://www.w3.org/Graphics/SVG/1.1/DTD/svg11.dtd"><svg xmlns="http://www.w3.org/2000/svg" xmlns:xlink="http://www.w3.org/1999/xlink" version="1.1" width="512" height="512" viewBox="0 0 512 512">    <path fill="#ffffff" transform="scale(1, -1) translate(0, -448)" glyph-name="sticker" unicode="&#xF5D0;" horiz-adv-x="512" d=" M258.56 54.1866666666667L390.3999999999999 186.0266666666667C361.3866666666666 179.4133333333333 326.6133333333333 166.4 300.1599999999999 139.52C278.1866666666666 117.3333333333334 264.32 88.96 258.56 54.1866666666667M442.6666666666667 234.6666666666667H449.0666666666667C457.3866666666667 234.6666666666667 464.8533333333333 228.9066666666667 467.84 221.0133333333333C470.8266666666667 213.3333333333334 469.3333333333333 204.16 462.9333333333333 198.1866666666667L249.6 -15.1466666666666C245.3333333333333 -19.2 240.2133333333333 -21.3333333333333 234.6666666666667 -21.3333333333333L226.9866666666667 -19.84C219.0933333333334 -16.8533333333333 213.3333333333333 -9.3866666666667 213.3333333333333 -1.0666666666667C209.92 71.2533333333333 228.9066666666667 128.8533333333334 270.08 170.0266666666667C330.6666666666667 230.4000000000001 418.56 234.6666666666667 442.6666666666667 234.6666666666667M256 405.3333333333333C352 405.3333333333333 433.92 341.3333333333334 460.3733333333333 253.6533333333334L426.6666666666667 256H414.2933333333334C389.12 318.5066666666667 327.68 362.6666666666667 256 362.6666666666667C161.7066666666667 362.6666666666667 85.3333333333333 286.2933333333334 85.3333333333333 192C85.3333333333333 120.3200000000001 129.4933333333334 58.88 192 33.7066666666667C191.36 18.5599999999999 192 3.2 194.3466666666666 -12.16C106.6666666666667 14.2933333333334 42.6666666666667 96 42.6666666666667 192C42.6666666666667 309.9733333333334 138.6666666666667 405.3333333333333 256 405.3333333333333z" /></svg>