<?xml version="1.0" encoding="UTF-8"?><!DOCTYPE svg PUBLIC "-//W3C//DTD SVG 1.1//EN" "http://www.w3.org/Graphics/SVG/1.1/DTD/svg11.dtd"><svg xmlns="http://www.w3.org/2000/svg" xmlns:xlink="http://www.w3.org/1999/xlink" version="1.1" width="512" height="512" viewBox="0 0 512 512">    <path fill="#ffffff" transform="scale(1, -1) translate(0, -448)" glyph-name="lightbulb" unicode="&#xF335;" horiz-adv-x="512" d=" M256 405.3333333333333C173.44 405.3333333333333 106.6666666666667 338.56 106.6666666666667 256C106.6666666666667 205.2266666666667 132.0533333333333 160.6400000000001 170.6666666666667 133.5466666666667V85.3333333333334C170.6666666666667 73.6 180.2666666666667 64 192 64H320C331.7333333333334 64 341.3333333333333 73.6 341.3333333333333 85.3333333333334V133.5466666666667C379.9466666666666 160.64 405.3333333333333 205.2266666666667 405.3333333333333 256C405.3333333333333 338.56 338.56 405.3333333333333 256 405.3333333333333M192 0C192 -11.7333333333333 201.6 -21.3333333333333 213.3333333333333 -21.3333333333333H298.6666666666667C310.4 -21.3333333333333 320 -11.7333333333333 320 0V21.3333333333334H192V0z" /></svg>