<?xml version="1.0" encoding="UTF-8"?><!DOCTYPE svg PUBLIC "-//W3C//DTD SVG 1.1//EN" "http://www.w3.org/Graphics/SVG/1.1/DTD/svg11.dtd"><svg xmlns="http://www.w3.org/2000/svg" xmlns:xlink="http://www.w3.org/1999/xlink" version="1.1" width="512" height="512" viewBox="0 0 512 512">    <path fill="#ffffff" transform="scale(1, -1) translate(0, -448)" glyph-name="alarm-multiple" unicode="&#xF022;" horiz-adv-x="512" d=" M198.1866666666667 378.6666666666667L110.08 304.64L85.3333333333333 334.0800000000001L173.6533333333333 408.1066666666667L198.1866666666667 378.6666666666667M469.3333333333333 333.8666666666667L444.5866666666667 304.4266666666667L356.2666666666667 378.6666666666667L381.0133333333333 408.1066666666667L469.3333333333333 333.8666666666667M277.3333333333333 362.6666666666667C371.6266666666667 362.6666666666667 448 286.2933333333334 448 192S371.6266666666667 21.3333333333334 277.3333333333333 21.3333333333334S106.6666666666667 97.7066666666667 106.6666666666667 192S183.04 362.6666666666667 277.3333333333333 362.6666666666667M277.3333333333333 320C206.72 320 149.3333333333333 262.6133333333334 149.3333333333333 192S206.72 64 277.3333333333333 64S405.3333333333333 121.3866666666667 405.3333333333333 192S347.9466666666666 320 277.3333333333333 320M256 288H288V191.36L356.6933333333333 160L343.4666666666666 130.9866666666667L256 170.6666666666667V288M21.3333333333333 149.3333333333334C21.3333333333333 202.6666666666667 45.44 249.6 83.4133333333333 280.9600000000001C71.04 253.8666666666667 64 224 64 192L65.28 167.8933333333334L64 149.3333333333334C64 100.6933333333333 91.0933333333333 58.4533333333334 130.9866666666667 36.6933333333333C158.72 10.6666666666667 193.4933333333334 -8.32 232.32 -16.64C219.3066666666667 -19.6266666666667 205.8666666666667 -21.3333333333333 192 -21.3333333333333C97.7066666666667 -21.3333333333333 21.3333333333333 55.04 21.3333333333333 149.3333333333334z" /></svg>