<?xml version="1.0" encoding="UTF-8"?><!DOCTYPE svg PUBLIC "-//W3C//DTD SVG 1.1//EN" "http://www.w3.org/Graphics/SVG/1.1/DTD/svg11.dtd"><svg xmlns="http://www.w3.org/2000/svg" xmlns:xlink="http://www.w3.org/1999/xlink" version="1.1" width="512" height="512" viewBox="0 0 512 512">    <path fill="#ffffff" transform="scale(1, -1) translate(0, -448)" glyph-name="monitor-lock" unicode="&#xFDB7;" horiz-adv-x="512" d=" M437.3333333333333 170.6666666666667C466.7733333333333 170.6666666666667 490.6666666666666 146.7733333333333 490.6666666666666 117.3333333333334V106.6666666666667C502.4 106.6666666666667 512 97.0666666666667 512 85.3333333333334V0C512 -11.7333333333333 502.4 -21.3333333333333 490.6666666666666 -21.3333333333333H384C372.2666666666667 -21.3333333333333 362.6666666666667 -11.7333333333333 362.6666666666667 0V85.3333333333334C362.6666666666667 97.0666666666667 372.2666666666667 106.6666666666667 384 106.6666666666667V117.3333333333334C384 146.7733333333333 407.8933333333333 170.6666666666667 437.3333333333333 170.6666666666667M437.3333333333333 149.3333333333334C419.6266666666667 149.3333333333334 405.3333333333333 135.04 405.3333333333333 117.3333333333334V106.6666666666667H469.3333333333333V117.3333333333334C469.3333333333333 135.04 455.04 149.3333333333334 437.3333333333333 149.3333333333334M426.6666666666667 362.6666666666667H42.6666666666667V106.6666666666667H320V64H277.3333333333333V21.3333333333334H320V-21.3333333333333H149.3333333333333V21.3333333333334H192V64H42.6666666666667C18.9866666666667 64 0 83.2 0 106.6666666666667V362.6666666666667C0 386.3466666666667 18.9866666666667 405.3333333333333 42.6666666666667 405.3333333333333H426.6666666666667C450.1333333333334 405.3333333333333 469.3333333333333 386.1333333333334 469.3333333333333 362.6666666666667V202.0266666666667C456.7466666666667 209.28 442.24 213.3333333333333 426.6666666666667 213.3333333333333V362.6666666666667z" /></svg>