<?xml version="1.0" encoding="UTF-8"?><!DOCTYPE svg PUBLIC "-//W3C//DTD SVG 1.1//EN" "http://www.w3.org/Graphics/SVG/1.1/DTD/svg11.dtd"><svg xmlns="http://www.w3.org/2000/svg" xmlns:xlink="http://www.w3.org/1999/xlink" version="1.1" width="512" height="512" viewBox="0 0 512 512">    <path fill="#ffffff" transform="scale(1, -1) translate(0, -448)" glyph-name="account-clock" unicode="&#xFB32;" horiz-adv-x="512" d=" M226.7733333333334 147.2000000000001C260.9066666666667 222.2933333333334 349.4400000000001 255.36 424.5333333333333 221.2266666666667C499.6266666666666 187.0933333333334 532.6933333333333 98.5600000000001 498.5599999999999 23.4666666666667C474.4533333333333 -29.8666666666666 421.3333333333333 -64 362.6666666666667 -64C305.0666666666667 -64 252.3733333333334 -30.72 227.6266666666667 21.3333333333334H21.3333333333333V64C22.6133333333333 88.3200000000001 39.2533333333333 108.16 71.2533333333333 124.16S143.36 148.48 192 149.3333333333334C204.16 149.3333333333334 215.68 148.2666666666667 226.7733333333333 147.2000000000001M192 362.6666666666667C215.8933333333334 362.0266666666667 235.9466666666667 353.7066666666667 251.9466666666667 337.7066666666667S275.84 301.6533333333333 275.84 277.3333333333334C275.84 253.0133333333333 267.9466666666667 232.96 251.9466666666667 216.96C235.9466666666667 200.96 215.8933333333333 193.0666666666667 192 193.0666666666667S148.0533333333333 200.96 132.0533333333333 216.96C116.0533333333334 232.96 108.16 253.0133333333333 108.16 277.3333333333334C108.16 301.6533333333333 116.0533333333334 321.7066666666667 132.0533333333334 337.7066666666667C148.0533333333334 353.7066666666667 168.1066666666667 362.0266666666667 192 362.6666666666667M362.6666666666667 -21.3333333333333C421.5466666666666 -21.3333333333333 469.3333333333333 26.4533333333334 469.3333333333333 85.3333333333334S421.5466666666666 192 362.6666666666667 192S256 144.2133333333334 256 85.3333333333334S303.7866666666667 -21.3333333333333 362.6666666666667 -21.3333333333333M341.3333333333333 149.3333333333334H373.3333333333333V89.1733333333334L425.3866666666667 59.0933333333334L409.3866666666667 31.36L341.3333333333333 70.6133333333334V149.3333333333334z" /></svg>