<?xml version="1.0" encoding="UTF-8"?><!DOCTYPE svg PUBLIC "-//W3C//DTD SVG 1.1//EN" "http://www.w3.org/Graphics/SVG/1.1/DTD/svg11.dtd"><svg xmlns="http://www.w3.org/2000/svg" xmlns:xlink="http://www.w3.org/1999/xlink" version="1.1" width="512" height="512" viewBox="0 0 512 512">    <path fill="#ffffff" transform="scale(1, -1) translate(0, -448)" glyph-name="file-search-outline" unicode="&#xFC59;" horiz-adv-x="512" d=" M298.6666666666667 405.3333333333333H128C104.5333333333333 405.3333333333333 85.3333333333333 386.1333333333334 85.3333333333333 362.6666666666667V21.3333333333334C85.3333333333333 -2.1333333333333 104.5333333333333 -21.3333333333333 128 -21.3333333333333H277.3333333333333C268.5866666666667 -16 260.2666666666667 -9.3866666666667 253.0133333333333 -2.1333333333333C245.9733333333333 4.9066666666666 240 12.8 234.6666666666667 21.3333333333334H128V362.6666666666667H277.3333333333333V256H384V230.8266666666667C399.1466666666667 227.4133333333334 413.6533333333333 221.6533333333334 426.6666666666667 213.3333333333334V277.3333333333334L298.6666666666667 405.3333333333333M433.28 44.8000000000001C461.6533333333333 89.8133333333334 448 149.3333333333334 403.4133333333333 177.4933333333334C358.4 205.8666666666667 298.6666666666667 192 270.7200000000001 147.6266666666667C242.1333333333334 102.6133333333334 256 43.3066666666667 300.5866666666667 14.9333333333333C331.7333333333334 -4.9066666666666 371.4133333333333 -4.9066666666666 402.7733333333334 14.5066666666667L469.3333333333333 -50.9866666666667L498.9866666666667 -21.3333333333333L433.2800000000001 44.8000000000001M352.0000000000001 42.6666666666667C322.5600000000001 42.6666666666667 298.6666666666668 66.5600000000001 298.6666666666668 96S322.5600000000001 149.3333333333334 352.0000000000001 149.3333333333334S405.3333333333334 125.44 405.3333333333334 96S381.4400000000001 42.6666666666667 352.0000000000001 42.6666666666667z" /></svg>