<?xml version="1.0" encoding="UTF-8"?><!DOCTYPE svg PUBLIC "-//W3C//DTD SVG 1.1//EN" "http://www.w3.org/Graphics/SVG/1.1/DTD/svg11.dtd"><svg xmlns="http://www.w3.org/2000/svg" xmlns:xlink="http://www.w3.org/1999/xlink" version="1.1" width="512" height="512" viewBox="0 0 512 512">    <path fill="#ffffff" transform="scale(1, -1) translate(0, -448)" glyph-name="map-marker-path" unicode="&#xFCFC;" horiz-adv-x="512" d=" M384 128C419.4133333333333 128 448 99.4133333333334 448 64S419.4133333333333 0 384 0C356.0533333333334 0 332.3733333333334 17.7066666666667 323.6266666666667 42.6666666666667H298.6666666666667V85.3333333333334H323.6266666666667C332.3733333333334 110.2933333333334 356.0533333333334 128 384 128M384 85.3333333333334C372.2666666666667 85.3333333333334 362.6666666666667 75.7333333333334 362.6666666666667 64S372.2666666666667 42.6666666666667 384 42.6666666666667S405.3333333333333 52.2666666666667 405.3333333333333 64S395.7333333333334 85.3333333333334 384 85.3333333333334M384 277.3333333333334C400.8533333333333 277.3333333333334 414.5066666666667 290.9866666666667 414.5066666666667 307.8400000000001C414.5066666666667 324.6933333333334 400.8533333333333 338.3466666666667 384 338.3466666666667C367.1466666666667 338.3466666666667 353.4933333333334 324.6933333333334 353.4933333333334 307.8400000000001C353.4933333333334 290.9866666666667 367.1466666666667 277.3333333333334 384 277.3333333333334M384 393.1733333333334C431.1466666666667 393.1733333333334 469.3333333333333 354.9866666666667 469.3333333333333 307.8400000000001C469.3333333333333 244.0533333333334 384 149.3333333333334 384 149.3333333333334S298.6666666666667 244.0533333333334 298.6666666666667 307.8400000000001C298.6666666666667 354.9866666666667 336.8533333333333 393.1733333333334 384 393.1733333333334M188.3733333333333 85.3333333333334H213.3333333333333V42.6666666666667H188.3733333333333C179.6266666666667 17.7066666666667 155.9466666666667 0 128 0C92.5866666666667 0 64 28.5866666666667 64 64C64 91.9466666666667 81.7066666666667 115.6266666666667 106.6666666666667 124.3733333333333V149.3333333333334H149.3333333333333V124.3733333333333C167.4666666666667 117.9733333333334 181.9733333333333 103.4666666666667 188.3733333333333 85.3333333333334M128 85.3333333333334C116.2666666666667 85.3333333333334 106.6666666666667 75.7333333333334 106.6666666666667 64S116.2666666666667 42.6666666666667 128 42.6666666666667S149.3333333333333 52.2666666666667 149.3333333333333 64S139.7333333333333 85.3333333333334 128 85.3333333333334M128 384C163.4133333333333 384 192 355.4133333333334 192 320C192 292.0533333333334 174.2933333333333 268.3733333333334 149.3333333333333 259.6266666666667V234.6666666666667H106.6666666666667V259.6266666666667C81.7066666666667 268.3733333333334 64 292.0533333333334 64 320C64 355.4133333333334 92.5866666666667 384 128 384M128 341.3333333333334C116.2666666666667 341.3333333333334 106.6666666666667 331.7333333333334 106.6666666666667 320S116.2666666666667 298.6666666666667 128 298.6666666666667S149.3333333333333 308.2666666666667 149.3333333333333 320S139.7333333333333 341.3333333333334 128 341.3333333333334M234.6666666666667 42.6666666666667V85.3333333333334H277.3333333333333V42.6666666666667H234.6666666666667M149.3333333333333 170.6666666666667H106.6666666666667V213.3333333333334H149.3333333333333V170.6666666666667z" /></svg>