<?xml version="1.0" encoding="UTF-8"?><!DOCTYPE svg PUBLIC "-//W3C//DTD SVG 1.1//EN" "http://www.w3.org/Graphics/SVG/1.1/DTD/svg11.dtd"><svg xmlns="http://www.w3.org/2000/svg" xmlns:xlink="http://www.w3.org/1999/xlink" version="1.1" width="512" height="512" viewBox="0 0 512 512">    <path fill="#ffffff" transform="scale(1, -1) translate(0, -448)" glyph-name="console" unicode="&#xF18D;" horiz-adv-x="512" d=" M426.6666666666667 42.6666666666667V298.6666666666667H85.3333333333333V42.6666666666667H426.6666666666667M426.6666666666667 384C450.1333333333334 384 469.3333333333333 364.8 469.3333333333333 341.3333333333334V42.6666666666667C469.3333333333333 19.2 450.1333333333334 0 426.6666666666667 0H85.3333333333333C61.8666666666667 0 42.6666666666667 19.2 42.6666666666667 42.6666666666667V341.3333333333334C42.6666666666667 365.0133333333333 61.8666666666667 384 85.3333333333333 384H426.6666666666667M277.3333333333333 85.3333333333334V128H384V85.3333333333334H277.3333333333333M204.3733333333333 170.6666666666667L118.8266666666667 256H179.2L249.6 185.6C257.92 177.28 257.92 163.6266666666667 249.6 155.3066666666667L179.6266666666667 85.3333333333334H119.2533333333333L204.3733333333333 170.6666666666667z" /></svg>