<?xml version="1.0" encoding="UTF-8"?><!DOCTYPE svg PUBLIC "-//W3C//DTD SVG 1.1//EN" "http://www.w3.org/Graphics/SVG/1.1/DTD/svg11.dtd"><svg xmlns="http://www.w3.org/2000/svg" xmlns:xlink="http://www.w3.org/1999/xlink" version="1.1" width="512" height="512" viewBox="0 0 512 512">    <path fill="#ffffff" transform="scale(1, -1) translate(0, -448)" glyph-name="cart" unicode="&#xF110;" horiz-adv-x="512" d=" M362.6666666666667 64C338.9866666666667 64 320 45.0133333333333 320 21.3333333333334C320 -2.1333333333333 339.2 -21.3333333333333 362.6666666666667 -21.3333333333333S405.3333333333333 -2.1333333333333 405.3333333333333 21.3333333333334C405.3333333333333 45.0133333333333 386.1333333333334 64 362.6666666666667 64M21.3333333333333 405.3333333333333V362.6666666666667H64L140.8 200.7466666666667L111.7866666666667 148.48C108.5866666666667 142.5066666666667 106.6666666666666 135.4666666666667 106.6666666666666 128C106.6666666666666 104.5333333333333 125.8666666666667 85.3333333333334 149.3333333333333 85.3333333333334H405.3333333333333V128H158.2933333333333C155.3066666666667 128 152.96 130.3466666666667 152.96 133.3333333333334C152.96 134.4 153.1733333333333 135.2533333333333 153.6 135.8933333333333L172.8 170.6666666666667H331.7333333333334C347.7333333333334 170.6666666666667 361.8133333333334 179.6266666666667 369.0666666666667 192.64L445.4400000000001 330.6666666666667C446.9333333333334 334.08 448.0000000000001 337.7066666666667 448.0000000000001 341.3333333333333C448.0000000000001 353.0666666666667 438.4000000000001 362.6666666666667 426.6666666666668 362.6666666666667H111.1466666666667L91.0933333333333 405.3333333333333M149.3333333333333 64C125.6533333333333 64 106.6666666666667 45.0133333333333 106.6666666666667 21.3333333333334C106.6666666666667 -2.1333333333333 125.8666666666667 -21.3333333333333 149.3333333333333 -21.3333333333333S192 -2.1333333333333 192 21.3333333333334C192 45.0133333333333 172.8 64 149.3333333333333 64z" /></svg>