<?xml version="1.0" encoding="UTF-8"?><!DOCTYPE svg PUBLIC "-//W3C//DTD SVG 1.1//EN" "http://www.w3.org/Graphics/SVG/1.1/DTD/svg11.dtd"><svg xmlns="http://www.w3.org/2000/svg" xmlns:xlink="http://www.w3.org/1999/xlink" version="1.1" width="512" height="512" viewBox="0 0 512 512">    <path fill="#ffffff" transform="scale(1, -1) translate(0, -448)" glyph-name="piston" unicode="&#xF889;" horiz-adv-x="512" d=" M277.3333333333333 102.8266666666667C288 99.2 296.5333333333333 93.2266666666667 303.5733333333333 85.3333333333334H320V0H303.1466666666667C296.32 -7.4666666666667 288 -13.4399999999999 277.3333333333333 -17.0666666666667C252.8 -26.0266666666667 225.7066666666667 -18.56 208.64 0H192V85.3333333333334H208.4266666666667C215.4666666666667 93.2266666666667 224 99.2 234.6666666666667 102.8266666666667V192H277.3333333333333V102.8266666666667M256 21.3333333333334C267.7333333333334 21.3333333333334 277.3333333333333 30.9333333333333 277.3333333333333 42.6666666666667S267.7333333333334 64 256 64S234.6666666666667 54.4 234.6666666666667 42.6666666666667S244.2666666666667 21.3333333333334 256 21.3333333333334M362.6666666666667 362.6666666666667H320V341.3333333333334H362.6666666666667V213.3333333333334H149.3333333333333V341.3333333333334H192V362.6666666666667H149.3333333333333V405.3333333333333H362.6666666666667V362.6666666666667M256 256C267.7333333333334 256 277.3333333333333 265.6 277.3333333333333 277.3333333333334S267.7333333333334 298.6666666666667 256 298.6666666666667S234.6666666666667 289.0666666666667 234.6666666666667 277.3333333333334S244.2666666666667 256 256 256z" /></svg>