<?xml version="1.0" encoding="UTF-8"?><!DOCTYPE svg PUBLIC "-//W3C//DTD SVG 1.1//EN" "http://www.w3.org/Graphics/SVG/1.1/DTD/svg11.dtd"><svg xmlns="http://www.w3.org/2000/svg" xmlns:xlink="http://www.w3.org/1999/xlink" version="1.1" width="512" height="512" viewBox="0 0 512 512">    <path fill="#ffffff" transform="scale(1, -1) translate(0, -448)" glyph-name="square-root-box" unicode="&#xF9A2;" horiz-adv-x="512" d=" M106.6666666666667 384C82.9866666666667 384 64 365.0133333333333 64 341.3333333333334V42.6666666666667C64 19.2 83.2 0 106.6666666666667 0H405.3333333333333C428.8 0 448 19.2 448 42.6666666666667V341.3333333333334C448 364.8 428.8 384 405.3333333333333 384H106.6666666666667M239.7866666666667 320H405.3333333333333V277.3333333333334H272.2133333333333L213.3333333333333 64H170.6666666666667L133.3333333333333 192H106.6666666666667V234.6666666666667H165.3333333333333L192 143.36L239.7866666666667 320M298.6666666666667 222.08L336.8533333333333 183.8933333333334L375.2533333333334 222.08L405.3333333333333 192L367.1466666666667 153.8133333333334L405.3333333333333 115.4133333333334L375.2533333333334 85.3333333333334L336.8533333333333 123.52L298.6666666666667 85.3333333333334L268.5866666666667 115.4133333333334L306.7733333333333 153.8133333333334L268.5866666666667 192L298.6666666666667 222.08z" /></svg>