<?xml version="1.0" encoding="UTF-8"?><!DOCTYPE svg PUBLIC "-//W3C//DTD SVG 1.1//EN" "http://www.w3.org/Graphics/SVG/1.1/DTD/svg11.dtd"><svg xmlns="http://www.w3.org/2000/svg" xmlns:xlink="http://www.w3.org/1999/xlink" version="1.1" width="512" height="512" viewBox="0 0 512 512">    <path fill="#ffffff" transform="scale(1, -1) translate(0, -448)" glyph-name="smoking" unicode="&#xF4B4;" horiz-adv-x="512" d=" M42.6666666666667 106.6666666666667H362.6666666666667V42.6666666666667H42.6666666666667V106.6666666666667M437.3333333333333 106.6666666666667H469.3333333333333V42.6666666666667H437.3333333333333V106.6666666666667M384 106.6666666666667H416V42.6666666666667H384V106.6666666666667M402.1333333333334 283.0933333333334C415.36 296.1066666666667 423.4666666666667 314.0266666666667 423.4666666666667 333.8666666666667C423.4666666666667 373.3333333333334 391.4666666666667 405.3333333333333 352 405.3333333333333V373.3333333333334C373.3333333333333 373.3333333333334 391.4666666666667 355.6266666666667 391.4666666666667 333.8666666666667S373.3333333333333 294.4 352 294.4V262.4000000000001C399.7866666666667 262.4000000000001 437.3333333333333 223.36 437.3333333333333 175.5733333333334V128H469.3333333333333V175.7866666666667C469.3333333333333 223.1466666666667 442.0266666666667 264.1066666666667 402.1333333333334 283.0933333333334M341.9733333333334 230.4000000000001H309.3333333333333C288 230.4000000000001 269.8666666666667 251.3066666666667 269.8666666666667 273.0666666666667S288 310.4000000000001 309.3333333333333 310.4000000000001V342.4000000000001C269.8666666666667 342.4000000000001 237.8666666666667 310.4000000000001 237.8666666666667 270.9333333333334S269.8666666666667 199.4666666666667 309.3333333333333 199.4666666666667H341.9733333333334C364.3733333333334 199.4666666666667 384 183.6800000000001 384 155.7333333333334V128H416V162.9866666666667C416 201.6 381.8666666666666 230.4000000000001 341.9733333333334 230.4000000000001z" /></svg>