<?xml version="1.0" encoding="UTF-8"?><!DOCTYPE svg PUBLIC "-//W3C//DTD SVG 1.1//EN" "http://www.w3.org/Graphics/SVG/1.1/DTD/svg11.dtd"><svg xmlns="http://www.w3.org/2000/svg" xmlns:xlink="http://www.w3.org/1999/xlink" version="1.1" width="512" height="512" viewBox="0 0 512 512">    <path fill="#ffffff" transform="scale(1, -1) translate(0, -448)" glyph-name="eye-settings-outline" unicode="&#xF86D;" horiz-adv-x="512" d=" M256 256C291.4133333333333 256 320 227.4133333333334 320 192S291.4133333333333 128 256 128S192 156.5866666666667 192 192S220.5866666666667 256 256 256M256 352C359.68 352 452.6933333333333 288 490.6666666666666 192C439.68 62.2933333333334 293.3333333333333 -1.28 163.6266666666667 49.7066666666667C98.56 75.3066666666667 46.9333333333333 126.72 21.3333333333333 192C59.3066666666667 288 152.32 352 256 352M67.84 192C118.6133333333334 88.1066666666667 244.2666666666667 45.0133333333333 348.16 96C389.9733333333334 116.48 423.68 150.1866666666667 444.16 192C393.3866666666667 295.8933333333333 267.7333333333334 338.9866666666667 163.84 288C122.0266666666667 267.52 88.32 233.8133333333334 67.84 192M192 -21.3333333333333H149.3333333333333V-64H192V-21.3333333333333M277.3333333333333 -21.3333333333333H234.6666666666667V-64H277.3333333333333V-21.3333333333333M362.6666666666667 -21.3333333333333H320V-64H362.6666666666667V-21.3333333333333z" /></svg>