<?xml version="1.0" encoding="UTF-8"?><!DOCTYPE svg PUBLIC "-//W3C//DTD SVG 1.1//EN" "http://www.w3.org/Graphics/SVG/1.1/DTD/svg11.dtd"><svg xmlns="http://www.w3.org/2000/svg" xmlns:xlink="http://www.w3.org/1999/xlink" version="1.1" width="512" height="512" viewBox="0 0 512 512">    <path fill="#ffffff" transform="scale(1, -1) translate(0, -448)" glyph-name="file-image" unicode="&#xF21F;" horiz-adv-x="512" d=" M277.3333333333333 256H394.6666666666667L277.3333333333333 373.3333333333334V256M128 405.3333333333333H298.6666666666667L426.6666666666667 277.3333333333334V21.3333333333334C426.6666666666667 -2.1333333333333 407.4666666666667 -21.3333333333333 384 -21.3333333333333H128C104.32 -21.3333333333333 85.3333333333333 -2.1333333333333 85.3333333333333 21.3333333333334V362.6666666666667C85.3333333333333 386.3466666666667 104.32 405.3333333333333 128 405.3333333333333M128 21.3333333333334H384V192L298.6666666666667 106.6666666666667L256 149.3333333333334L128 21.3333333333334M170.6666666666667 256C147.2 256 128 236.8 128 213.3333333333334S147.2 170.6666666666667 170.6666666666667 170.6666666666667S213.3333333333333 189.8666666666667 213.3333333333333 213.3333333333334S194.1333333333333 256 170.6666666666667 256z" /></svg>