<?xml version="1.0" encoding="UTF-8"?><!DOCTYPE svg PUBLIC "-//W3C//DTD SVG 1.1//EN" "http://www.w3.org/Graphics/SVG/1.1/DTD/svg11.dtd"><svg xmlns="http://www.w3.org/2000/svg" xmlns:xlink="http://www.w3.org/1999/xlink" version="1.1" width="512" height="512" viewBox="0 0 512 512">    <path fill="#ffffff" transform="scale(1, -1) translate(0, -448)" glyph-name="glass-flute" unicode="&#xF2A5;" horiz-adv-x="512" d=" M170.6666666666667 405.3333333333333H341.3333333333333C334.2933333333333 341.3333333333334 327.04 277.3333333333334 314.6666666666667 238.2933333333334C302.2933333333333 199.04 284.3733333333334 184.96 275.6266666666667 147.6266666666667C266.6666666666667 110.2933333333334 266.6666666666667 49.7066666666667 279.04 21.3333333333334C291.6266666666667 -7.04 316.3733333333334 -3.6266666666667 328.96 -5.3333333333333C341.3333333333333 -7.04 341.3333333333333 -14.2933333333333 341.3333333333333 -21.3333333333333H170.6666666666667C170.6666666666667 -14.2933333333333 170.6666666666667 -7.04 183.04 -5.3333333333333C195.6266666666667 -3.6266666666667 220.3733333333333 -7.04 232.96 21.3333333333334C245.3333333333333 49.7066666666667 245.3333333333333 110.2933333333334 236.3733333333334 147.6266666666667C227.6266666666667 184.96 209.7066666666667 199.04 197.3333333333333 238.2933333333334C184.96 277.3333333333334 177.7066666666667 341.3333333333334 170.6666666666667 405.3333333333333M213.3333333333333 362.6666666666667C214.8266666666667 340.6933333333334 216.5333333333333 318.5066666666667 218.4533333333333 298.6666666666667H293.5466666666666C295.4666666666667 318.5066666666667 297.1733333333333 340.6933333333334 298.6666666666667 362.6666666666667H213.3333333333333z" /></svg>