<?xml version="1.0" encoding="UTF-8"?><!DOCTYPE svg PUBLIC "-//W3C//DTD SVG 1.1//EN" "http://www.w3.org/Graphics/SVG/1.1/DTD/svg11.dtd"><svg xmlns="http://www.w3.org/2000/svg" xmlns:xlink="http://www.w3.org/1999/xlink" version="1.1" width="512" height="512" viewBox="0 0 512 512">    <path fill="#ffffff" transform="scale(1, -1) translate(0, -448)" glyph-name="debug-step-over" unicode="&#xF1BD;" horiz-adv-x="512" d=" M256 149.3333333333334C279.4666666666667 149.3333333333334 298.6666666666667 130.1333333333333 298.6666666666667 106.6666666666667S279.4666666666667 64 256 64S213.3333333333333 83.2 213.3333333333333 106.6666666666667S232.5333333333334 149.3333333333334 256 149.3333333333334M500.48 258.9866666666667L466.56 112L320 145.92L401.0666666666667 196.6933333333333C370.9866666666667 245.3333333333334 317.2266666666667 277.3333333333334 256 277.3333333333334C171.7333333333334 277.3333333333334 101.76 216.32 87.8933333333333 135.8933333333334L45.8666666666667 143.36C63.1466666666667 243.6266666666667 150.6133333333333 320 256 320C332.3733333333334 320 399.5733333333333 279.68 437.3333333333333 219.3066666666667L500.48 258.9866666666667z" /></svg>