<?xml version="1.0" encoding="UTF-8"?><!DOCTYPE svg PUBLIC "-//W3C//DTD SVG 1.1//EN" "http://www.w3.org/Graphics/SVG/1.1/DTD/svg11.dtd"><svg xmlns="http://www.w3.org/2000/svg" xmlns:xlink="http://www.w3.org/1999/xlink" version="1.1" width="512" height="512" viewBox="0 0 512 512">    <path fill="#ffffff" transform="scale(1, -1) translate(0, -448)" glyph-name="folder-network" unicode="&#xF86F;" horiz-adv-x="512" d=" M64 128V341.3333333333334C64 364.8 83.2 384 106.6666666666667 384H234.6666666666667L277.3333333333333 341.3333333333334H405.3333333333333C428.8 341.3333333333334 448 322.1333333333334 448 298.6666666666667V128C448 104.5333333333333 428.8 85.3333333333334 405.3333333333333 85.3333333333334H277.3333333333333V42.6666666666667H298.6666666666667C310.4 42.6666666666667 320 33.0666666666667 320 21.3333333333334H469.3333333333333V-21.3333333333333H320C320 -33.0666666666667 310.4 -42.6666666666666 298.6666666666667 -42.6666666666666H213.3333333333333C201.6 -42.6666666666666 192 -33.0666666666667 192 -21.3333333333333H42.6666666666667V21.3333333333334H192C192 33.0666666666667 201.6 42.6666666666667 213.3333333333333 42.6666666666667H234.6666666666667V85.3333333333334H106.6666666666667C83.2 85.3333333333334 64 104.5333333333333 64 128z" /></svg>