<?xml version="1.0" encoding="UTF-8"?><!DOCTYPE svg PUBLIC "-//W3C//DTD SVG 1.1//EN" "http://www.w3.org/Graphics/SVG/1.1/DTD/svg11.dtd"><svg xmlns="http://www.w3.org/2000/svg" xmlns:xlink="http://www.w3.org/1999/xlink" version="1.1" width="512" height="512" viewBox="0 0 512 512">    <path fill="#ffffff" transform="scale(1, -1) translate(0, -448)" glyph-name="cookie" unicode="&#xF198;" horiz-adv-x="512" d=" M256 384C149.9733333333333 384 64 298.0266666666667 64 192S149.9733333333333 0 256 0S448 85.9733333333334 448 192C448 202.6666666666667 447.1466666666667 213.3333333333334 445.2266666666667 224C439.4666666666667 234.6666666666667 426.6666666666667 234.6666666666667 426.6666666666667 234.6666666666667H384V256C384 277.3333333333334 362.6666666666667 277.3333333333334 362.6666666666667 277.3333333333334H320V298.6666666666667C320 320 298.6666666666667 320 298.6666666666667 320H277.3333333333333V362.6666666666667C277.3333333333333 384 256 384 256 384M202.6666666666667 320C220.3733333333333 320 234.6666666666667 305.7066666666667 234.6666666666667 288S220.3733333333333 256 202.6666666666667 256S170.6666666666667 270.2933333333334 170.6666666666667 288S184.96 320 202.6666666666667 320M138.6666666666667 234.6666666666667C156.3733333333333 234.6666666666667 170.6666666666667 220.3733333333333 170.6666666666667 202.6666666666667S156.3733333333333 170.6666666666667 138.6666666666667 170.6666666666667S106.6666666666667 184.96 106.6666666666667 202.6666666666667S120.96 234.6666666666667 138.6666666666667 234.6666666666667M245.3333333333333 213.3333333333334C263.04 213.3333333333334 277.3333333333333 199.04 277.3333333333333 181.3333333333334S263.04 149.3333333333334 245.3333333333333 149.3333333333334S213.3333333333333 163.6266666666667 213.3333333333333 181.3333333333334S227.6266666666667 213.3333333333334 245.3333333333333 213.3333333333334M352 170.6666666666667C369.7066666666666 170.6666666666667 384 156.3733333333333 384 138.6666666666667S369.7066666666666 106.6666666666667 352 106.6666666666667S320 120.96 320 138.6666666666667S334.2933333333333 170.6666666666667 352 170.6666666666667M234.6666666666667 106.6666666666667C252.3733333333334 106.6666666666667 266.6666666666667 92.3733333333333 266.6666666666667 74.6666666666667S252.3733333333334 42.6666666666667 234.6666666666667 42.6666666666667S202.6666666666667 56.96 202.6666666666667 74.6666666666667S216.96 106.6666666666667 234.6666666666667 106.6666666666667z" /></svg>