<?xml version="1.0" encoding="UTF-8"?><!DOCTYPE svg PUBLIC "-//W3C//DTD SVG 1.1//EN" "http://www.w3.org/Graphics/SVG/1.1/DTD/svg11.dtd"><svg xmlns="http://www.w3.org/2000/svg" xmlns:xlink="http://www.w3.org/1999/xlink" version="1.1" width="512" height="512" viewBox="0 0 512 512">    <path fill="#ffffff" transform="scale(1, -1) translate(0, -448)" glyph-name="braille" unicode="&#xF9CF;" horiz-adv-x="512" d=" M149.3333333333333 277.3333333333334C149.3333333333333 289.0666666666667 158.9333333333333 298.6666666666667 170.6666666666667 298.6666666666667S192 289.0666666666667 192 277.3333333333334V181.9733333333334L217.8133333333333 179.2000000000001L323.2000000000001 132.48C334.2933333333334 127.36 341.3333333333334 116.0533333333334 341.3333333333334 103.68V10.6666666666667C340.6933333333334 -6.8266666666667 326.8266666666667 -20.6933333333333 309.3333333333334 -21.3333333333333H170.6666666666667C162.56 -21.3333333333333 154.88 -18.1333333333333 149.3333333333333 -12.16L44.8 77.44L60.5866666666667 93.8666666666667C64.64 98.3466666666667 70.4 100.6933333333333 76.3733333333333 100.6933333333333H81.0666666666667L149.3333333333333 64V277.3333333333334M416 405.3333333333333C398.2933333333334 405.3333333333333 384 391.04 384 373.3333333333334S398.2933333333334 341.3333333333334 416 341.3333333333334S448 355.6266666666667 448 373.3333333333334S433.7066666666666 405.3333333333333 416 405.3333333333333M416 298.6666666666667C398.2933333333334 298.6666666666667 384 284.3733333333334 384 266.6666666666667S398.2933333333334 234.6666666666667 416 234.6666666666667S448 248.96 448 266.6666666666667S433.7066666666666 298.6666666666667 416 298.6666666666667M309.3333333333333 298.6666666666667C291.6266666666667 298.6666666666667 277.3333333333333 284.3733333333334 277.3333333333333 266.6666666666667S291.6266666666667 234.6666666666667 309.3333333333333 234.6666666666667S341.3333333333333 248.96 341.3333333333333 266.6666666666667S327.04 298.6666666666667 309.3333333333333 298.6666666666667M416 192C398.2933333333334 192 384 177.7066666666667 384 160S398.2933333333334 128 416 128S448 142.2933333333334 448 160S433.7066666666666 192 416 192z" /></svg>