<?xml version="1.0" encoding="UTF-8"?><!DOCTYPE svg PUBLIC "-//W3C//DTD SVG 1.1//EN" "http://www.w3.org/Graphics/SVG/1.1/DTD/svg11.dtd"><svg xmlns="http://www.w3.org/2000/svg" xmlns:xlink="http://www.w3.org/1999/xlink" version="1.1" width="512" height="512" viewBox="0 0 512 512">    <path fill="#ffffff" transform="scale(1, -1) translate(0, -448)" glyph-name="medical-bag" unicode="&#xF6EE;" horiz-adv-x="512" d=" M213.3333333333333 384L170.6666666666667 341.3333333333334V298.6666666666667H106.6666666666667C82.1333333333333 298.6666666666667 66.56 277.3333333333334 64 256L42.6666666666667 42.6666666666667C40.1066666666667 21.3333333333334 54.1866666666667 0 85.3333333333333 0H426.6666666666667C457.8133333333333 0 471.8933333333333 21.3333333333334 469.3333333333333 42.6666666666667L448 256C445.44 277.3333333333334 427.9466666666666 298.6666666666667 405.3333333333333 298.6666666666667H341.3333333333333V341.3333333333334L298.6666666666667 384H213.3333333333333M213.3333333333333 341.3333333333334H298.6666666666667V298.6666666666667H213.3333333333333V341.3333333333334M234.6666666666667 234.6666666666667H277.3333333333333V170.6666666666667H341.3333333333333V128H277.3333333333333V64H234.6666666666667V128H170.6666666666667V170.6666666666667H234.6666666666667V234.6666666666667z" /></svg>