<?xml version="1.0" encoding="UTF-8"?><!DOCTYPE svg PUBLIC "-//W3C//DTD SVG 1.1//EN" "http://www.w3.org/Graphics/SVG/1.1/DTD/svg11.dtd"><svg xmlns="http://www.w3.org/2000/svg" xmlns:xlink="http://www.w3.org/1999/xlink" version="1.1" width="512" height="512" viewBox="0 0 512 512">    <path fill="#ffffff" transform="scale(1, -1) translate(0, -448)" glyph-name="tea-outline" unicode="&#xFD7B;" horiz-adv-x="512" d=" M85.3333333333333 42.6666666666667H426.6666666666667V0H85.3333333333333V42.6666666666667M456.5333333333333 371.2C448 379.7333333333334 439.4666666666667 384 426.6666666666667 384H85.3333333333333V170.6666666666667C85.3333333333333 147.2000000000001 93.8666666666667 128 110.9333333333333 110.9333333333333C128 93.8666666666667 147.2 85.3333333333334 170.6666666666667 85.3333333333334H298.6666666666667C322.1333333333334 85.3333333333334 341.3333333333333 93.8666666666667 358.4 110.9333333333333C375.4666666666667 128 384 147.2 384 170.6666666666667V234.6666666666667H426.6666666666667C439.4666666666667 234.6666666666667 448 238.9333333333334 456.5333333333333 247.4666666666667C465.0666666666666 256 469.3333333333333 264.5333333333334 469.3333333333333 277.3333333333334V341.3333333333334C469.3333333333333 352 465.0666666666667 362.6666666666667 456.5333333333333 371.2M341.3333333333333 341.3333333333334V170.6666666666667C341.3333333333333 157.8666666666667 337.0666666666667 149.3333333333334 328.5333333333333 140.8C320 132.2666666666667 311.4666666666667 128 298.6666666666667 128H170.6666666666667C157.8666666666667 128 149.3333333333333 132.2666666666667 140.8 140.8C132.2666666666667 149.3333333333334 128 160 128 170.6666666666667V341.3333333333334H213.3333333333333V311.4666666666667L174.9333333333333 281.6C170.6666666666666 279.4666666666667 170.6666666666666 275.2000000000001 170.6666666666666 273.0666666666667V181.3333333333334C170.6666666666666 174.9333333333333 174.9333333333333 170.6666666666667 181.3333333333333 170.6666666666667H266.6666666666667C273.0666666666667 170.6666666666667 277.3333333333333 174.9333333333333 277.3333333333333 181.3333333333334V273.0666666666667C277.3333333333333 277.3333333333334 275.2 279.4666666666667 273.0666666666667 281.6L234.6666666666667 311.4666666666667V341.3333333333334H341.3333333333333M426.6666666666667 277.3333333333334H384V341.3333333333334H426.6666666666667V277.3333333333334z" /></svg>