<?xml version="1.0" encoding="UTF-8"?><!DOCTYPE svg PUBLIC "-//W3C//DTD SVG 1.1//EN" "http://www.w3.org/Graphics/SVG/1.1/DTD/svg11.dtd"><svg xmlns="http://www.w3.org/2000/svg" xmlns:xlink="http://www.w3.org/1999/xlink" version="1.1" width="512" height="512" viewBox="0 0 512 512">    <path fill="#ffffff" transform="scale(1, -1) translate(0, -448)" glyph-name="nfc-search-variant" unicode="&#xFE36;" horiz-adv-x="512" d=" M352 192C405.3333333333333 192 448 149.3333333333334 448 96C448 77.2266666666667 442.88 59.52 433.4933333333334 44.8000000000001L499.1999999999999 -21.3333333333333L469.3333333333333 -50.9866666666667L402.9866666666667 14.5066666666667C388.2666666666667 5.3333333333334 370.7733333333333 0 352 0C298.6666666666667 0 256 42.6666666666667 256 96S298.6666666666667 192 352 192M352 149.3333333333334C322.56 149.3333333333334 298.6666666666667 125.44 298.6666666666667 96S322.56 42.6666666666667 352 42.6666666666667C381.6533333333333 42.6666666666667 405.3333333333333 66.5600000000001 405.3333333333333 96S381.44 149.3333333333334 352 149.3333333333334M384 320V230.8266666666667C369.7066666666666 234.6666666666667 355.4133333333333 235.3066666666667 341.3333333333333 234.6666666666667V277.3333333333334H277.3333333333333V228.6933333333334L288.64 219.3066666666667C263.2533333333334 206.2933333333334 242.1333333333334 185.6 228.6933333333333 159.36C219.3066666666667 167.04 213.3333333333333 178.7733333333334 213.3333333333333 192C213.3333333333333 207.7866666666667 222.08 221.44 234.6666666666667 228.6933333333334V277.3333333333334C234.6666666666667 300.8 253.8666666666666 320 277.3333333333333 320H384M128 64V320H213.3333333333333V277.3333333333334H170.6666666666667V106.6666666666667H213.3333333333333C212.48 92.16 213.3333333333333 77.8666666666667 216.96 64H128M426.6666666666667 362.6666666666667H85.3333333333333V21.3333333333334H234.6666666666667C245.9733333333333 4.2666666666667 260.48 -10.6666666666666 277.9733333333333 -21.3333333333333H85.3333333333333C61.6533333333333 -21.3333333333333 42.6666666666667 -2.1333333333333 42.6666666666667 21.3333333333334V362.6666666666667C42.6666666666667 386.1333333333334 61.8666666666667 405.3333333333333 85.3333333333333 405.3333333333333H426.6666666666667C450.1333333333334 405.3333333333333 469.3333333333333 386.1333333333334 469.3333333333333 362.6666666666667V169.8133333333334C458.6666666666666 186.8800000000001 444.16 201.8133333333334 426.6666666666667 213.3333333333334V362.6666666666667z" /></svg>