<?xml version="1.0" encoding="UTF-8"?><!DOCTYPE svg PUBLIC "-//W3C//DTD SVG 1.1//EN" "http://www.w3.org/Graphics/SVG/1.1/DTD/svg11.dtd"><svg xmlns="http://www.w3.org/2000/svg" xmlns:xlink="http://www.w3.org/1999/xlink" version="1.1" width="512" height="512" viewBox="0 0 512 512">    <path fill="#ffffff" transform="scale(1, -1) translate(0, -448)" glyph-name="format-letter-case-upper" unicode="&#xFB1B;" horiz-adv-x="512" d=" M427.9466666666666 64C426.6666666666667 67.6266666666667 424.7466666666667 73.8133333333334 423.68 82.9866666666667C409.3866666666666 68.0533333333334 392.1066666666667 60.5866666666667 372.2666666666667 60.5866666666667C354.56 60.5866666666667 339.84 65.7066666666667 328.5333333333333 75.7333333333334C317.2266666666667 85.3333333333334 311.4666666666666 98.3466666666667 311.4666666666666 113.92C311.4666666666666 132.6933333333334 318.5066666666666 147.2000000000001 332.8 157.6533333333334C347.0933333333333 168.1066666666667 367.1466666666666 173.2266666666667 393.1733333333333 173.2266666666667H423.04V186.8800000000001C423.04 197.3333333333334 419.84 205.6533333333334 413.44 211.84C407.04 218.0266666666667 397.44 221.0133333333334 385.0666666666666 221.0133333333334C373.9733333333333 221.0133333333334 364.8 218.4533333333334 357.3333333333333 213.3333333333334C349.8666666666666 208.0000000000001 346.2399999999999 201.8133333333334 346.2399999999999 194.3466666666667H315.0933333333333C315.0933333333333 203.5200000000001 318.2933333333333 212.2666666666667 324.6933333333332 220.8000000000001C330.6666666666665 229.3333333333334 339.8399999999999 235.9466666666667 350.7199999999999 240.8533333333334C361.5999999999999 245.3333333333334 373.3333333333332 248.32 386.7733333333332 248.32C407.6799999999999 248.32 423.8933333333332 243.2 435.6266666666666 232.7466666666667S453.5466666666665 208 453.9733333333332 189.6533333333334V106.6666666666667C453.9733333333332 89.6 456.1066666666666 76.3733333333333 460.3733333333332 66.5600000000001V64H427.9466666666666M376.7466666666666 87.8933333333334C386.3466666666666 87.8933333333334 395.5199999999999 90.24 404.2666666666666 94.72C412.7999999999999 99.2000000000001 419.1999999999999 105.1733333333334 423.0399999999999 112.4266666666667V145.9200000000001H398.9333333333333C361.1733333333333 145.9200000000001 342.1866666666666 135.8933333333334 342.1866666666666 115.84C342.1866666666666 106.6666666666667 345.3866666666666 100.2666666666668 352 95.3600000000001C358.4 90.4533333333334 366.5066666666667 87.8933333333334 376.7466666666667 87.8933333333334M116.48 155.5200000000001H203.3066666666667L160 271.1466666666667L116.48 155.5200000000001M141.6533333333333 320H178.3466666666666L278.8266666666667 64H237.6533333333334L216.96 118.8266666666667H102.8266666666667L82.3466666666667 64H41.1733333333333L141.6533333333333 320M42.6666666666667 21.3333333333334H277.3333333333333V-21.3333333333333H42.6666666666667V21.3333333333334z" /></svg>