<?xml version="1.0" encoding="UTF-8"?><!DOCTYPE svg PUBLIC "-//W3C//DTD SVG 1.1//EN" "http://www.w3.org/Graphics/SVG/1.1/DTD/svg11.dtd"><svg xmlns="http://www.w3.org/2000/svg" xmlns:xlink="http://www.w3.org/1999/xlink" version="1.1" width="512" height="512" viewBox="0 0 512 512">    <path fill="#ffffff" transform="scale(1, -1) translate(0, -448)" glyph-name="scissors-cutting" unicode="&#xFA6A;" horiz-adv-x="512" d=" M234.6666666666667 0H149.3333333333333V42.6666666666667H234.6666666666667V0M330.6666666666667 42.6666666666667H362.6666666666667V0H277.3333333333333V42.6666666666667H281.6L251.7333333333333 172.8L198.4 160C196.2666666666667 149.3333333333334 192 140.8 187.7333333333333 132.2666666666667C168.5333333333333 100.2666666666667 128 91.7333333333334 96 110.9333333333333C64 130.1333333333333 55.4666666666667 170.6666666666667 74.6666666666666 202.6666666666667C93.8666666666667 234.6666666666667 134.4 243.2 166.4 224C174.9333333333333 219.7333333333334 181.3333333333333 211.2 185.6 204.8L238.9333333333333 217.6L226.1333333333334 270.9333333333334C217.6 273.0666666666667 209.0666666666666 277.3333333333334 200.5333333333333 281.6C170.6666666666667 300.8 160 341.3333333333334 179.2 373.3333333333334C198.4 405.3333333333333 238.9333333333333 413.8666666666667 270.9333333333333 394.6666666666667C302.9333333333333 375.4666666666667 311.4666666666667 334.9333333333334 292.2666666666667 302.9333333333334C288 294.4 279.4666666666667 288 273.0666666666666 283.7333333333334L330.6666666666667 42.6666666666667M149.3333333333333 196.2666666666667C134.4 206.9333333333333 113.0666666666667 200.5333333333333 102.4 185.6C91.7333333333333 170.6666666666667 98.1333333333333 149.3333333333334 113.0666666666667 140.8C128 130.1333333333333 149.3333333333333 134.4 160 151.4666666666667C168.5333333333333 166.4 164.2666666666667 187.7333333333334 149.3333333333333 196.2666666666667M264.5333333333333 320C275.2 334.9333333333334 268.8 356.2666666666667 253.8666666666667 366.9333333333334C238.9333333333334 377.6 217.6 371.2000000000001 206.9333333333333 356.2666666666667C198.4 341.3333333333334 202.6666666666667 320 219.7333333333333 309.3333333333334C234.6666666666667 300.8 256 305.0666666666667 264.5333333333333 320M273.0666666666666 206.9333333333333C268.8 209.0666666666667 264.5333333333333 209.0666666666667 262.4 204.8C260.2666666666667 200.5333333333334 260.2666666666667 196.2666666666667 264.5333333333333 194.1333333333333C268.8 192 273.0666666666666 192 275.2 196.2666666666667C279.4666666666666 200.5333333333333 277.3333333333333 204.8 273.0666666666666 206.9333333333333M448 266.6666666666667L309.3333333333333 234.6666666666667L320 187.7333333333334L480 226.1333333333334L490.6666666666666 241.0666666666667L448 266.6666666666667M490.6666666666666 42.6666666666667H405.3333333333333V0H490.6666666666666V42.6666666666667M106.6666666666667 42.6666666666667H21.3333333333333V0H106.6666666666667V42.6666666666667z" /></svg>