<?xml version="1.0" encoding="UTF-8"?><!DOCTYPE svg PUBLIC "-//W3C//DTD SVG 1.1//EN" "http://www.w3.org/Graphics/SVG/1.1/DTD/svg11.dtd"><svg xmlns="http://www.w3.org/2000/svg" xmlns:xlink="http://www.w3.org/1999/xlink" version="1.1" width="512" height="512" viewBox="0 0 512 512">    <path fill="#ffffff" transform="scale(1, -1) translate(0, -448)" glyph-name="target-account" unicode="&#xFBAC;" horiz-adv-x="512" d=" M446.9333333333333 213.3333333333334H480V170.6666666666667H446.9333333333333C437.3333333333333 81.7066666666667 366.2933333333333 10.6666666666667 277.3333333333333 1.0666666666667V-32H234.6666666666667V1.0666666666667C145.7066666666667 10.6666666666667 74.6666666666667 81.7066666666667 65.0666666666667 170.6666666666667H32V213.3333333333334H65.0666666666667C74.6666666666667 302.2933333333334 145.7066666666667 373.3333333333334 234.6666666666667 382.9333333333334V416H277.3333333333333V382.9333333333334C366.2933333333334 373.3333333333334 437.3333333333333 302.2933333333334 446.9333333333333 213.3333333333334M108.16 213.3333333333334H138.6666666666667V170.6666666666667H108.16C117.3333333333333 105.1733333333334 169.1733333333333 53.3333333333334 234.6666666666667 44.16V74.6666666666667H277.3333333333333V44.16C342.8266666666667 53.3333333333334 394.6666666666667 105.1733333333334 403.84 170.6666666666667H373.3333333333333V213.3333333333334H403.84C394.6666666666667 278.8266666666667 342.8266666666667 330.6666666666667 277.3333333333333 339.8400000000001V309.3333333333334H234.6666666666667V339.8400000000001C169.1733333333333 330.6666666666667 117.3333333333333 278.8266666666667 108.16 213.3333333333334M341.3333333333333 106.6666666666667H170.6666666666667V128C170.6666666666667 156.3733333333333 227.6266666666667 170.6666666666667 256 170.6666666666667S341.3333333333333 156.3733333333333 341.3333333333333 128V106.6666666666667M256 277.3333333333334C279.4666666666667 277.3333333333334 298.6666666666667 258.1333333333334 298.6666666666667 234.6666666666667S279.4666666666667 192 256 192S213.3333333333333 211.2 213.3333333333333 234.6666666666667S232.5333333333334 277.3333333333334 256 277.3333333333334z" /></svg>