<?xml version="1.0" encoding="UTF-8"?><!DOCTYPE svg PUBLIC "-//W3C//DTD SVG 1.1//EN" "http://www.w3.org/Graphics/SVG/1.1/DTD/svg11.dtd"><svg xmlns="http://www.w3.org/2000/svg" xmlns:xlink="http://www.w3.org/1999/xlink" version="1.1" width="512" height="512" viewBox="0 0 512 512">    <path fill="#ffffff" transform="scale(1, -1) translate(0, -448)" glyph-name="gradient" unicode="&#xF69F;" horiz-adv-x="512" d=" M234.6666666666667 256H277.3333333333333V213.3333333333334H234.6666666666667V256M192 213.3333333333334H234.6666666666667V170.6666666666667H192V213.3333333333334M277.3333333333333 213.3333333333334H320V170.6666666666667H277.3333333333333V213.3333333333334M320 256H362.6666666666667V213.3333333333334H320V256M149.3333333333333 256H192V213.3333333333334H149.3333333333333V256M405.3333333333333 384H106.6666666666667C83.2 384 64 364.8 64 341.3333333333334V42.6666666666667C64 19.2 83.2 0 106.6666666666667 0H405.3333333333333C428.8 0 448 19.2 448 42.6666666666667V341.3333333333334C448 364.8 428.8 384 405.3333333333333 384M192 64H149.3333333333333V106.6666666666667H192V64M277.3333333333333 64H234.6666666666667V106.6666666666667H277.3333333333333V64M362.6666666666667 64H320V106.6666666666667H362.6666666666667V64M405.3333333333333 213.3333333333334H362.6666666666667V170.6666666666667H405.3333333333333V128H362.6666666666667V170.6666666666667H320V128H277.3333333333333V170.6666666666667H234.6666666666667V128H192V170.6666666666667H149.3333333333333V128H106.6666666666667V170.6666666666667H149.3333333333333V213.3333333333334H106.6666666666667V341.3333333333334H405.3333333333333V213.3333333333334z" /></svg>