<?xml version="1.0" encoding="UTF-8"?><!DOCTYPE svg PUBLIC "-//W3C//DTD SVG 1.1//EN" "http://www.w3.org/Graphics/SVG/1.1/DTD/svg11.dtd"><svg xmlns="http://www.w3.org/2000/svg" xmlns:xlink="http://www.w3.org/1999/xlink" version="1.1" width="512" height="512" viewBox="0 0 512 512">    <path fill="#ffffff" transform="scale(1, -1) translate(0, -448)" glyph-name="folder-key" unicode="&#xF8AB;" horiz-adv-x="512" d=" M85.3333333333333 362.6666666666667C61.8666666666667 362.6666666666667 42.6666666666667 343.4666666666667 42.6666666666667 320V64C42.6666666666667 40.5333333333333 61.8666666666667 21.3333333333334 85.3333333333333 21.3333333333334H426.6666666666667C450.1333333333334 21.3333333333334 469.3333333333333 40.5333333333333 469.3333333333333 64V277.3333333333334C469.3333333333333 300.8 450.1333333333334 320 426.6666666666667 320H256L213.3333333333333 362.6666666666667M234.6666666666667 234.6666666666667C262.6133333333334 234.6666666666667 286.2933333333333 216.7466666666667 295.04 192H405.3333333333333V149.3333333333334H384V106.6666666666667H341.3333333333333V149.3333333333334H295.04C286.2933333333333 124.3733333333333 262.6133333333334 106.6666666666667 234.6666666666667 106.6666666666667C199.2533333333333 106.6666666666667 170.6666666666667 135.2533333333333 170.6666666666667 170.6666666666667S199.2533333333333 234.6666666666667 234.6666666666667 234.6666666666667M234.6666666666667 192C222.9333333333333 192 213.3333333333333 182.4 213.3333333333333 170.6666666666667C213.3333333333333 158.72 222.9333333333333 149.3333333333334 234.6666666666667 149.3333333333334S256 158.9333333333333 256 170.6666666666667S246.4 192 234.6666666666667 192z" /></svg>