<?xml version="1.0" encoding="UTF-8"?><!DOCTYPE svg PUBLIC "-//W3C//DTD SVG 1.1//EN" "http://www.w3.org/Graphics/SVG/1.1/DTD/svg11.dtd"><svg xmlns="http://www.w3.org/2000/svg" xmlns:xlink="http://www.w3.org/1999/xlink" version="1.1" width="512" height="512" viewBox="0 0 512 512">    <path fill="#ffffff" transform="scale(1, -1) translate(0, -448)" glyph-name="content-save-all" unicode="&#xF194;" horiz-adv-x="512" d=" M362.6666666666667 298.6666666666667V384H149.3333333333333V298.6666666666667H362.6666666666667M298.6666666666667 85.3333333333334C334.08 85.3333333333334 362.6666666666667 113.92 362.6666666666667 149.3333333333334S334.08 213.3333333333334 298.6666666666667 213.3333333333334S234.6666666666667 184.7466666666667 234.6666666666667 149.3333333333334S263.2533333333334 85.3333333333334 298.6666666666667 85.3333333333334M405.3333333333333 426.6666666666667L490.6666666666666 341.3333333333334V85.3333333333334C490.6666666666666 61.8666666666667 471.4666666666667 42.6666666666667 448 42.6666666666667H149.3333333333333C125.6533333333333 42.6666666666667 106.6666666666667 61.8666666666667 106.6666666666667 85.3333333333334V384C106.6666666666667 407.4666666666667 125.8666666666667 426.6666666666667 149.3333333333333 426.6666666666667H405.3333333333333M21.3333333333333 298.6666666666667H64V0H362.6666666666667V-42.6666666666666H64C40.5333333333333 -42.6666666666666 21.3333333333333 -23.4666666666667 21.3333333333333 0V298.6666666666667z" /></svg>