<?xml version="1.0" encoding="UTF-8"?><!DOCTYPE svg PUBLIC "-//W3C//DTD SVG 1.1//EN" "http://www.w3.org/Graphics/SVG/1.1/DTD/svg11.dtd"><svg xmlns="http://www.w3.org/2000/svg" xmlns:xlink="http://www.w3.org/1999/xlink" version="1.1" width="512" height="512" viewBox="0 0 512 512">    <path fill="#ffffff" transform="scale(1, -1) translate(0, -448)" glyph-name="currency-brl" unicode="&#xFB61;" horiz-adv-x="512" d=" M256 128H298.6666666666667C298.6666666666667 104.96 327.8933333333333 85.3333333333334 362.6666666666667 85.3333333333334S426.6666666666667 104.96 426.6666666666667 128C426.6666666666667 151.4666666666667 404.48 160 357.5466666666666 171.3066666666667C312.32 182.6133333333334 256 196.6933333333334 256 256C256 294.1866666666667 287.36 326.6133333333334 330.6666666666667 337.4933333333334V384H394.6666666666667V337.4933333333334C437.9733333333334 326.6133333333334 469.3333333333333 294.1866666666667 469.3333333333333 256H426.6666666666667C426.6666666666667 279.04 397.44 298.6666666666667 362.6666666666667 298.6666666666667S298.6666666666667 279.04 298.6666666666667 256C298.6666666666667 232.5333333333334 320.8533333333333 224 367.7866666666667 212.6933333333334C413.0133333333333 201.3866666666667 469.3333333333333 187.3066666666667 469.3333333333333 128C469.3333333333333 89.8133333333334 437.9733333333334 57.3866666666667 394.6666666666667 46.5066666666667V0H330.6666666666667V46.5066666666667C287.36 57.3866666666667 256 89.8133333333334 256 128M42.6666666666667 384H117.3333333333333C182.1866666666667 384 234.6666666666667 331.52 234.6666666666667 266.6666666666667C234.6666666666667 219.9466666666667 207.1466666666667 179.4133333333334 167.68 160.6400000000001L248.32 0H200.5333333333333L125.44 149.3333333333334H85.3333333333333V0H42.6666666666667V384M117.3333333333333 192C158.5066666666667 192 192 225.4933333333334 192 266.6666666666667S158.5066666666667 341.3333333333334 117.3333333333333 341.3333333333334H85.3333333333333V192H117.3333333333333z" /></svg>