<?xml version="1.0" encoding="UTF-8"?><!DOCTYPE svg PUBLIC "-//W3C//DTD SVG 1.1//EN" "http://www.w3.org/Graphics/SVG/1.1/DTD/svg11.dtd"><svg xmlns="http://www.w3.org/2000/svg" xmlns:xlink="http://www.w3.org/1999/xlink" version="1.1" width="512" height="512" viewBox="0 0 512 512">    <path fill="#ffffff" transform="scale(1, -1) translate(0, -448)" glyph-name="target" unicode="&#xF4FE;" horiz-adv-x="512" d=" M234.6666666666667 405.3333333333333V361.1733333333334C157.44 351.36 96.64 290.56 86.8266666666667 213.3333333333334H42.6666666666667V170.6666666666667H86.8266666666667C96.64 93.44 157.44 32.64 234.6666666666667 22.8266666666667V-21.3333333333333H277.3333333333333V22.8266666666667C354.56 32.64 415.36 93.44 425.1733333333333 170.6666666666667H469.3333333333333V213.3333333333334H425.1733333333333C415.36 290.56 354.56 351.36 277.3333333333333 361.1733333333334V405.3333333333333M234.6666666666667 318.2933333333334V277.3333333333334H277.3333333333333V318.0800000000001C330.6666666666667 309.3333333333334 373.3333333333333 266.6666666666667 382.2933333333334 213.3333333333334H341.3333333333333V170.6666666666667H382.08C373.3333333333333 117.3333333333334 330.6666666666667 74.6666666666667 277.3333333333333 65.7066666666667V106.6666666666667H234.6666666666667V65.92C181.3333333333333 74.6666666666667 138.6666666666667 117.3333333333334 129.7066666666667 170.6666666666667H170.6666666666667V213.3333333333334H129.92C138.6666666666667 266.6666666666667 181.3333333333333 309.3333333333334 234.6666666666667 318.2933333333334M256 213.3333333333334C244.2666666666667 213.3333333333334 234.6666666666667 203.7333333333334 234.6666666666667 192S244.2666666666667 170.6666666666667 256 170.6666666666667S277.3333333333333 180.2666666666667 277.3333333333333 192S267.7333333333334 213.3333333333334 256 213.3333333333334z" /></svg>