<?xml version="1.0" encoding="UTF-8"?><!DOCTYPE svg PUBLIC "-//W3C//DTD SVG 1.1//EN" "http://www.w3.org/Graphics/SVG/1.1/DTD/svg11.dtd"><svg xmlns="http://www.w3.org/2000/svg" xmlns:xlink="http://www.w3.org/1999/xlink" version="1.1" width="512" height="512" viewBox="0 0 512 512">    <path fill="#ffffff" transform="scale(1, -1) translate(0, -448)" glyph-name="emoticon" unicode="&#xFC44;" horiz-adv-x="512" d=" M256 405.3333333333333C138.0266666666667 405.3333333333333 42.6666666666667 309.3333333333334 42.6666666666667 192C42.6666666666667 74.24 138.24 -21.3333333333333 256 -21.3333333333333S469.3333333333333 74.24 469.3333333333333 192S373.76 405.3333333333333 256 405.3333333333333M330.6666666666667 277.3333333333334C348.3733333333333 277.3333333333334 362.6666666666667 263.04 362.6666666666667 245.3333333333334S348.3733333333333 213.3333333333334 330.6666666666667 213.3333333333334S298.6666666666667 227.6266666666667 298.6666666666667 245.3333333333334S312.96 277.3333333333334 330.6666666666667 277.3333333333334M181.3333333333333 277.3333333333334C199.04 277.3333333333334 213.3333333333333 263.04 213.3333333333333 245.3333333333334S199.04 213.3333333333334 181.3333333333333 213.3333333333334S149.3333333333333 227.6266666666667 149.3333333333333 245.3333333333334S163.6266666666667 277.3333333333334 181.3333333333333 277.3333333333334M256 74.6666666666667C206.2933333333333 74.6666666666667 164.0533333333334 105.8133333333334 146.9866666666667 149.3333333333334H365.0133333333333C347.7333333333334 105.8133333333334 305.7066666666667 74.6666666666667 256 74.6666666666667z" /></svg>