<?xml version="1.0" encoding="UTF-8"?><!DOCTYPE svg PUBLIC "-//W3C//DTD SVG 1.1//EN" "http://www.w3.org/Graphics/SVG/1.1/DTD/svg11.dtd"><svg xmlns="http://www.w3.org/2000/svg" xmlns:xlink="http://www.w3.org/1999/xlink" version="1.1" width="512" height="512" viewBox="0 0 512 512">    <path fill="#ffffff" transform="scale(1, -1) translate(0, -448)" glyph-name="xbox" unicode="&#xF5B9;" horiz-adv-x="512" d=" M137.1733333333333 368.64C138.6666666666667 369.92 140.16 371.2 141.2266666666667 372.0533333333334C174.5066666666667 393.6 213.3333333333333 405.3333333333333 256 405.3333333333333C296.1066666666667 405.3333333333333 333.6533333333333 394.6666666666667 365.6533333333333 375.04C368 373.3333333333334 374.1866666666666 369.28 377.6 365.2266666666667C346.6666666666667 399.36 256 326.4 256 326.4C224 350.5066666666667 195.6266666666667 366.9333333333334 174.08 373.3333333333334C155.9466666666667 377.8133333333334 143.5733333333333 373.3333333333334 137.8133333333333 369.0666666666667M412.5866666666667 336.8533333333334C411.52 337.92 410.4533333333333 338.9866666666667 409.6 340.0533333333334C401.92 348.5866666666667 392.1066666666667 350.7200000000001 384 350.0800000000001C375.68 347.52 339.2 334.5066666666667 294.4 292.0533333333334C294.4 292.0533333333334 344.9600000000001 242.9866666666667 375.8933333333333 192.8533333333333C406.8266666666667 142.72 425.1733333333333 103.2533333333333 413.8666666666667 48.4266666666667C448 86.4 469.3333333333333 136.7466666666667 469.3333333333333 192C469.3333333333333 247.8933333333334 448 298.6666666666667 412.5866666666667 336.8533333333334M335.5733333333333 171.52C321.7066666666667 186.88 301.44 208.8533333333333 274.3466666666667 235.7333333333333C268.5866666666667 241.4933333333333 262.4 247.4666666666667 256 253.8666666666667C256 253.8666666666667 245.9733333333333 244.0533333333333 233.1733333333333 231.04C216.7466666666667 214.6133333333333 195.6266666666667 193.0666666666667 183.68 180.48C162.7733333333333 158.0799999999999 102.6133333333333 87.68 99.2 48.2133333333333C99.2 48.2133333333333 85.3333333333333 79.36 115.2 151.68C134.4 198.8266666666666 192 269.6533333333333 216.5333333333333 292.6933333333333C216.5333333333333 292.6933333333333 194.56 317.0133333333333 166.8266666666666 333.8666666666666L165.76 334.5066666666667C152.32 342.4 137.8133333333333 348.5866666666667 123.7333333333333 349.44C109.44 348.3733333333334 100.48 337.92 100.48 337.92C64.64 299.7333333333334 42.6666666666667 248.5333333333334 42.6666666666667 192C42.6666666666667 74.24 138.24 -21.3333333333333 256 -21.3333333333333C318.5066666666667 -21.3333333333333 374.8266666666667 5.5466666666667 413.8666666666666 48.4266666666667C413.8666666666666 48.4266666666667 409.3866666666666 76.8000000000001 380.5866666666667 117.3333333333334C373.9733333333334 126.5066666666667 349.2266666666667 155.9466666666667 335.5733333333333 171.52z" /></svg>