<?xml version="1.0" encoding="UTF-8"?><!DOCTYPE svg PUBLIC "-//W3C//DTD SVG 1.1//EN" "http://www.w3.org/Graphics/SVG/1.1/DTD/svg11.dtd"><svg xmlns="http://www.w3.org/2000/svg" xmlns:xlink="http://www.w3.org/1999/xlink" version="1.1" width="512" height="512" viewBox="0 0 512 512">    <path fill="#ffffff" transform="scale(1, -1) translate(0, -448)" glyph-name="eye-outline" unicode="&#xF6CF;" horiz-adv-x="512" d=" M256 256C291.4133333333333 256 320 227.4133333333334 320 192S291.4133333333333 128 256 128S192 156.5866666666667 192 192S220.5866666666667 256 256 256M256 352C362.6666666666667 352 453.76 285.6533333333334 490.6666666666666 192C453.76 98.3466666666667 362.6666666666667 32 256 32S58.24 98.3466666666667 21.3333333333333 192C58.24 285.6533333333333 149.3333333333333 352 256 352M67.84 192C103.04 120.3200000000001 175.7866666666667 74.6666666666667 256 74.6666666666667C336.2133333333333 74.6666666666667 408.9600000000001 120.3200000000001 444.16 192C408.9600000000001 263.68 336.2133333333334 309.3333333333334 256 309.3333333333334C175.7866666666667 309.3333333333334 103.04 263.68 67.84 192z" /></svg>