<?xml version="1.0" encoding="UTF-8"?><!DOCTYPE svg PUBLIC "-//W3C//DTD SVG 1.1//EN" "http://www.w3.org/Graphics/SVG/1.1/DTD/svg11.dtd"><svg xmlns="http://www.w3.org/2000/svg" xmlns:xlink="http://www.w3.org/1999/xlink" version="1.1" width="512" height="512" viewBox="0 0 512 512">    <path fill="#ffffff" transform="scale(1, -1) translate(0, -448)" glyph-name="file-document-edit" unicode="&#xFDA4;" horiz-adv-x="512" d=" M128 405.3333333333333C104.32 405.3333333333333 85.3333333333333 386.3466666666667 85.3333333333333 362.6666666666667V21.3333333333334C85.3333333333333 -2.1333333333333 104.5333333333333 -21.3333333333333 128 -21.3333333333333H213.3333333333333V19.4133333333334L257.92 64H128V106.6666666666667H300.5866666666667L343.2533333333334 149.3333333333334H128V192H385.92L426.6666666666667 232.7466666666667V277.3333333333334L298.6666666666667 405.3333333333333H128M277.3333333333333 373.3333333333334L394.6666666666667 256H277.3333333333333V373.3333333333334M429.8666666666666 170.6666666666667C426.6666666666667 170.6666666666667 423.68 169.6 421.3333333333333 167.2533333333333L399.5733333333333 145.4933333333334L444.16 101.1200000000001L465.92 122.6666666666668C470.4 127.3600000000001 470.4 135.0400000000001 465.92 139.5200000000001L438.1866666666666 167.2533333333335C435.84 169.6000000000001 432.8533333333333 170.6666666666668 429.8666666666666 170.6666666666668M386.9866666666667 132.9066666666668L256 1.7066666666666V-42.6666666666666H300.3733333333334L431.5733333333333 88.5333333333333L386.9866666666667 132.9066666666667z" /></svg>