<?xml version="1.0" encoding="UTF-8"?><!DOCTYPE svg PUBLIC "-//W3C//DTD SVG 1.1//EN" "http://www.w3.org/Graphics/SVG/1.1/DTD/svg11.dtd"><svg xmlns="http://www.w3.org/2000/svg" xmlns:xlink="http://www.w3.org/1999/xlink" version="1.1" width="512" height="512" viewBox="0 0 512 512">    <path fill="#ffffff" transform="scale(1, -1) translate(0, -448)" glyph-name="reload" unicode="&#xF453;" horiz-adv-x="512" d=" M405.3333333333333 192H476.16L370.56 86.4L264.96 192H362.0266666666667C362.6666666666667 224.8533333333333 350.2933333333333 257.4933333333334 325.12 282.6666666666667C275.2 332.5866666666667 194.1333333333333 332.5866666666667 144.2133333333333 282.6666666666667C94.2933333333333 232.7466666666667 94.2933333333333 151.4666666666667 144.2133333333333 101.5466666666666C183.4666666666666 62.2933333333333 242.3466666666666 53.9733333333333 289.7066666666666 76.5866666666666L321.0666666666666 45.2266666666666C256 6.6133333333333 170.6666666666667 15.1466666666667 113.92 71.4666666666667C47.36 138.0266666666668 47.5733333333333 245.9733333333334 114.1333333333333 312.5333333333334C181.3333333333333 379.3066666666668 288.64 379.5200000000001 355.4133333333333 312.7466666666668C388.6933333333333 279.4666666666667 405.3333333333333 235.7333333333334 405.3333333333333 192z" /></svg>