<?xml version="1.0" encoding="UTF-8"?><!DOCTYPE svg PUBLIC "-//W3C//DTD SVG 1.1//EN" "http://www.w3.org/Graphics/SVG/1.1/DTD/svg11.dtd"><svg xmlns="http://www.w3.org/2000/svg" xmlns:xlink="http://www.w3.org/1999/xlink" version="1.1" width="512" height="512" viewBox="0 0 512 512">    <path fill="#ffffff" transform="scale(1, -1) translate(0, -448)" glyph-name="bus" unicode="&#xF0E7;" horiz-adv-x="512" d=" M384 213.3333333333334H128V320H384M352 85.3333333333334C334.2933333333333 85.3333333333334 320 99.6266666666667 320 117.3333333333334S334.2933333333333 149.3333333333334 352 149.3333333333334S384 135.04 384 117.3333333333334S369.7066666666666 85.3333333333334 352 85.3333333333334M160 85.3333333333334C142.2933333333333 85.3333333333334 128 99.6266666666667 128 117.3333333333334S142.2933333333333 149.3333333333334 160 149.3333333333334S192 135.04 192 117.3333333333334S177.7066666666667 85.3333333333334 160 85.3333333333334M85.3333333333333 106.6666666666667C85.3333333333333 87.8933333333334 93.6533333333333 71.04 106.6666666666667 59.3066666666667V21.3333333333334C106.6666666666667 9.6 116.2666666666667 0 128 0H149.3333333333333C161.0666666666667 0 170.6666666666667 9.6 170.6666666666667 21.3333333333334V42.6666666666667H341.3333333333333V21.3333333333334C341.3333333333333 9.6 350.9333333333333 0 362.6666666666667 0H384C395.7333333333334 0 405.3333333333333 9.6 405.3333333333333 21.3333333333334V59.3066666666667C418.3466666666667 71.0400000000001 426.6666666666667 87.8933333333334 426.6666666666667 106.6666666666667V320C426.6666666666667 394.6666666666667 350.2933333333334 405.3333333333333 256 405.3333333333333S85.3333333333333 394.6666666666667 85.3333333333333 320V106.6666666666667z" /></svg>