<?xml version="1.0" encoding="UTF-8"?><!DOCTYPE svg PUBLIC "-//W3C//DTD SVG 1.1//EN" "http://www.w3.org/Graphics/SVG/1.1/DTD/svg11.dtd"><svg xmlns="http://www.w3.org/2000/svg" xmlns:xlink="http://www.w3.org/1999/xlink" version="1.1" width="512" height="512" viewBox="0 0 512 512">    <path fill="#ffffff" transform="scale(1, -1) translate(0, -448)" glyph-name="sword-cross" unicode="&#xF786;" horiz-adv-x="512" d=" M132.2666666666667 395.9466666666667L386.1333333333334 142.0800000000001L431.36 187.3066666666667L461.4400000000001 157.2266666666667L408.7466666666668 104.5333333333334L476.5866666666667 36.6933333333334C484.9066666666668 28.3733333333334 484.9066666666668 14.9333333333334 476.5866666666667 6.6133333333334L461.4400000000001 -8.5333333333333C453.12 -16.8533333333333 439.6800000000001 -16.8533333333333 431.36 -8.5333333333333L362.6666666666667 59.0933333333334L310.6133333333334 6.4L280.5333333333333 36.48L325.76 81.7066666666667L71.8933333333333 335.5733333333334V395.9466666666667H132.2666666666667M338.9866666666667 234.6666666666667L440.1066666666667 335.7866666666667V395.9466666666667H379.7333333333334L278.6133333333334 294.8266666666667L338.9866666666667 234.6666666666667M233.3866666666667 128L173.0133333333334 189.2266666666667L125.8666666666667 142.0800000000001L80.64 187.3066666666667L50.56 157.2266666666667L103.2533333333334 104.5333333333334L35.4133333333334 36.48C27.0933333333334 28.16 27.0933333333334 14.72 35.4133333333334 6.4L50.56 -8.7466666666667C58.88 -17.0666666666667 72.32 -17.0666666666667 80.64 -8.7466666666667L149.3333333333333 59.0933333333334L201.3866666666667 6.4L231.4666666666667 36.48L186.24 81.7066666666667L233.3866666666667 128z" /></svg>