<?xml version="1.0" encoding="UTF-8"?><!DOCTYPE svg PUBLIC "-//W3C//DTD SVG 1.1//EN" "http://www.w3.org/Graphics/SVG/1.1/DTD/svg11.dtd"><svg xmlns="http://www.w3.org/2000/svg" xmlns:xlink="http://www.w3.org/1999/xlink" version="1.1" width="512" height="512" viewBox="0 0 512 512">    <path fill="#ffffff" transform="scale(1, -1) translate(0, -448)" glyph-name="cart-outline" unicode="&#xF111;" horiz-adv-x="512" d=" M362.6666666666667 64C386.1333333333334 64 405.3333333333333 44.8000000000001 405.3333333333333 21.3333333333334S386.1333333333334 -21.3333333333333 362.6666666666667 -21.3333333333333C338.9866666666667 -21.3333333333333 320 -2.1333333333333 320 21.3333333333334C320 45.0133333333333 338.9866666666667 64 362.6666666666667 64M21.3333333333333 405.3333333333333H91.0933333333333L111.1466666666667 362.6666666666667H426.6666666666667C438.4 362.6666666666667 448 353.0666666666667 448 341.3333333333334C448 337.7066666666667 446.9333333333333 334.0800000000001 445.44 330.6666666666667L369.0666666666666 192.6400000000001C361.8133333333333 179.6266666666667 347.7333333333333 170.6666666666668 331.7333333333333 170.6666666666668H172.8L153.6 135.8933333333334L152.96 133.3333333333334C152.96 130.3466666666667 155.3066666666667 128.0000000000001 158.2933333333333 128.0000000000001H405.3333333333333V85.3333333333334H149.3333333333333C125.6533333333333 85.3333333333334 106.6666666666667 104.5333333333333 106.6666666666667 128C106.6666666666667 135.4666666666667 108.5866666666667 142.5066666666667 111.7866666666667 148.48L140.8 200.7466666666667L64 362.6666666666667H21.3333333333333V405.3333333333333M149.3333333333333 64C172.8 64 192 44.8000000000001 192 21.3333333333334S172.8 -21.3333333333333 149.3333333333333 -21.3333333333333C125.6533333333333 -21.3333333333333 106.6666666666667 -2.1333333333333 106.6666666666667 21.3333333333334C106.6666666666667 45.0133333333333 125.6533333333333 64 149.3333333333333 64M341.3333333333333 213.3333333333334L400.64 320H130.9866666666667L181.3333333333333 213.3333333333334H341.3333333333333z" /></svg>