<?xml version="1.0" encoding="UTF-8"?><!DOCTYPE svg PUBLIC "-//W3C//DTD SVG 1.1//EN" "http://www.w3.org/Graphics/SVG/1.1/DTD/svg11.dtd"><svg xmlns="http://www.w3.org/2000/svg" xmlns:xlink="http://www.w3.org/1999/xlink" version="1.1" width="512" height="512" viewBox="0 0 512 512">    <path fill="#ffffff" transform="scale(1, -1) translate(0, -448)" glyph-name="earth-box" unicode="&#xF6CC;" horiz-adv-x="512" d=" M106.6666666666667 384C82.9866666666667 384 64 365.0133333333333 64 341.3333333333334V42.6666666666667C64 19.2 83.2 0 106.6666666666667 0H405.3333333333333C428.8 0 448 19.2 448 42.6666666666667V341.3333333333334C448 365.0133333333333 428.8 384 405.3333333333333 384H106.6666666666667M336.64 341.3333333333334H405.3333333333333V81.4933333333333C399.7866666666667 98.5600000000001 377.3866666666667 111.1466666666667 358.4 111.1466666666667H337.0666666666667V175.1466666666667C337.0666666666667 186.8800000000001 327.4666666666667 196.48 315.7333333333334 196.48H187.7333333333334V239.1466666666667H230.4C242.1333333333334 239.1466666666667 251.7333333333334 248.7466666666667 251.7333333333334 260.48V303.1466666666667H294.4C316.3733333333334 303.1466666666667 334.2933333333334 320 336.64 341.3333333333334M106.6666666666667 228.48L209.0666666666667 132.48V111.1466666666667C209.0666666666667 87.4666666666667 228.2666666666667 68.48 251.7333333333334 68.48V42.6666666666667H106.6666666666667V228.48z" /></svg>