<?xml version="1.0" encoding="UTF-8"?><!DOCTYPE svg PUBLIC "-//W3C//DTD SVG 1.1//EN" "http://www.w3.org/Graphics/SVG/1.1/DTD/svg11.dtd"><svg xmlns="http://www.w3.org/2000/svg" xmlns:xlink="http://www.w3.org/1999/xlink" version="1.1" width="512" height="512" viewBox="0 0 512 512">    <path fill="#ffffff" transform="scale(1, -1) translate(0, -448)" glyph-name="home-city-outline" unicode="&#xFCF2;" horiz-adv-x="512" d=" M213.3333333333333 405.3333333333333V357.12L256 328.7466666666667V362.6666666666667H469.3333333333333V42.6666666666667H362.6666666666667V0H512V405.3333333333333H213.3333333333333M160 341.3333333333334L0 234.6666666666667V0H320V234.6666666666667L160 341.3333333333334M298.6666666666667 320V300.1600000000001L333.0133333333333 277.3333333333334H341.3333333333333V320H298.6666666666667M384 320V277.3333333333334H426.6666666666667V320H384M160 288L277.3333333333333 213.3333333333334V42.6666666666667H213.3333333333333V170.6666666666667H106.6666666666667V42.6666666666667H42.6666666666667V213.3333333333334L160 288M384 234.6666666666667V192H426.6666666666667V234.6666666666667H384M384 149.3333333333334V106.6666666666667H426.6666666666667V149.3333333333334H384z" /></svg>