<?xml version="1.0" encoding="UTF-8"?><!DOCTYPE svg PUBLIC "-//W3C//DTD SVG 1.1//EN" "http://www.w3.org/Graphics/SVG/1.1/DTD/svg11.dtd"><svg xmlns="http://www.w3.org/2000/svg" xmlns:xlink="http://www.w3.org/1999/xlink" version="1.1" width="512" height="512" viewBox="0 0 512 512">    <path fill="#ffffff" transform="scale(1, -1) translate(0, -448)" glyph-name="currency-php" unicode="&#xF9E5;" horiz-adv-x="512" d=" M106.6666666666667 405.3333333333333V320H64V277.3333333333334H106.6666666666667V234.6666666666667H64V192H106.6666666666667V-21.3333333333333H149.3333333333333V106.6666666666667H277.3333333333333C334.9333333333333 106.6666666666667 387.4133333333333 139.9466666666667 412.16 192H469.3333333333333V234.6666666666667H424.9600000000001C427.3066666666667 248.7466666666667 427.3066666666667 263.2533333333334 424.9600000000001 277.3333333333334H469.3333333333333V320H412.16C387.4133333333333 372.0533333333334 334.9333333333333 405.3333333333333 277.3333333333333 405.3333333333333M149.3333333333333 362.6666666666667H277.3333333333333C310.8266666666667 362.6666666666667 342.6133333333333 346.88 362.6666666666667 320H149.3333333333333V362.6666666666667M277.3333333333333 149.3333333333334H149.3333333333333V192H362.6666666666667C342.6133333333333 165.12 310.8266666666667 149.3333333333334 277.3333333333333 149.3333333333334M384 256C384 248.7466666666667 383.1466666666667 241.7066666666667 381.8666666666666 234.6666666666667H149.3333333333333V277.3333333333334H381.8666666666666C383.1466666666666 270.2933333333334 384 263.2533333333334 384 256z" /></svg>