<?xml version="1.0" encoding="UTF-8"?><!DOCTYPE svg PUBLIC "-//W3C//DTD SVG 1.1//EN" "http://www.w3.org/Graphics/SVG/1.1/DTD/svg11.dtd"><svg xmlns="http://www.w3.org/2000/svg" xmlns:xlink="http://www.w3.org/1999/xlink" version="1.1" width="512" height="512" viewBox="0 0 512 512">    <path fill="#ffffff" transform="scale(1, -1) translate(0, -448)" glyph-name="biohazard" unicode="&#xF0A7;" horiz-adv-x="512" d=" M490.6666666666666 105.3866666666667C490.6666666666666 100.48 490.6666666666666 96 489.8133333333333 91.7333333333334C485.9733333333334 146.3466666666667 440.32 189.6533333333334 384 189.6533333333334C376.1066666666667 189.6533333333334 368.4266666666666 188.5866666666667 360.9600000000001 187.0933333333334C361.8133333333334 181.3333333333334 362.6666666666667 176.4266666666667 362.6666666666667 170.6666666666668C362.6666666666667 120.5333333333334 326.6133333333334 78.5066666666667 278.8266666666667 68.0533333333334C286.2933333333333 20.2666666666668 326.6133333333334 -16.8533333333333 376.5333333333333 -20.48C371.84 -21.3333333333333 367.36 -21.3333333333333 362.6666666666667 -21.3333333333333C318.2933333333333 -21.3333333333333 278.8266666666667 1.28 256 35.4133333333334C233.1733333333333 1.28 193.92 -21.3333333333333 149.3333333333333 -21.3333333333333C144.64 -21.3333333333333 140.16 -21.3333333333333 135.4666666666667 -20.48C185.3866666666667 -16.8533333333333 225.4933333333334 20.0533333333333 233.1733333333333 68.0533333333333C185.1733333333333 78.5066666666667 149.3333333333333 120.5333333333334 149.3333333333333 170.6666666666667C149.3333333333333 176.4266666666667 150.1866666666667 181.3333333333334 150.8266666666667 187.0933333333334C143.5733333333333 188.5866666666667 135.8933333333333 189.6533333333333 128 189.6533333333333C71.68 189.6533333333333 26.0266666666667 146.3466666666667 21.9733333333333 91.7333333333333C21.3333333333333 95.9999999999999 21.3333333333333 100.48 21.3333333333333 105.3866666666667C21.3333333333333 173.8666666666667 76.5866666666667 229.5466666666666 145.28 231.68C134.4 250.24 128 272 128 295.04C128 342.6133333333334 154.24 384 193.28 405.3333333333333C166.6133333333333 386.1333333333334 149.3333333333333 355.4133333333334 149.3333333333333 320C149.3333333333333 291.2000000000001 161.28 264.7466666666667 180.6933333333333 245.3333333333334C200.1066666666667 264.7466666666667 226.56 276.48 256 276.48C285.2266666666667 276.48 311.8933333333333 264.7466666666667 330.6666666666667 245.3333333333334C350.5066666666667 264.7466666666667 362.6666666666667 291.2000000000001 362.6666666666667 320C362.6666666666667 355.4133333333334 345.1733333333333 386.1333333333334 318.72 405.3333333333333C357.76 384 384 342.6133333333334 384 295.04C384 272 377.6 250.24 366.7200000000001 231.68C435.6266666666667 229.5466666666667 490.6666666666666 173.8666666666667 490.6666666666666 105.3866666666667M197.76 232.32C214.4 221.44 234.6666666666667 215.04 256 215.04S297.6 221.44 314.24 232.32C298.6666666666667 246.4000000000001 278.6133333333334 255.36 256 255.36S213.3333333333333 246.4000000000001 197.76 232.32M256 139.3066666666667C273.4933333333334 139.3066666666667 288 153.6 288 170.6666666666667C288 188.3733333333333 273.7066666666667 202.6666666666667 256 202.6666666666667S224 188.3733333333333 224 170.6666666666667C224 153.6 238.2933333333333 139.3066666666667 256 139.3066666666667M234.0266666666667 89.8133333333334C231.8933333333334 130.1333333333334 207.1466666666667 164.48 171.7333333333334 180.2666666666667C171.3066666666667 177.0666666666667 170.6666666666667 174.0800000000001 170.6666666666667 170.6666666666668C170.6666666666667 131.84 197.76 99.4133333333334 234.0266666666667 89.8133333333334M340.48 180.2666666666667C304.8533333333334 164.48 279.8933333333333 130.1333333333334 277.3333333333333 89.8133333333334C314.24 99.4133333333334 341.3333333333333 131.84 341.3333333333333 170.6666666666667C341.3333333333333 174.0800000000001 340.6933333333334 177.0666666666667 340.48 180.2666666666667z" /></svg>