<?xml version="1.0" encoding="UTF-8"?><!DOCTYPE svg PUBLIC "-//W3C//DTD SVG 1.1//EN" "http://www.w3.org/Graphics/SVG/1.1/DTD/svg11.dtd"><svg xmlns="http://www.w3.org/2000/svg" xmlns:xlink="http://www.w3.org/1999/xlink" version="1.1" width="512" height="512" viewBox="0 0 512 512">    <path fill="#ffffff" transform="scale(1, -1) translate(0, -448)" glyph-name="cards-variant" unicode="&#xF6C6;" horiz-adv-x="512" d=" M106.6666666666667 405.3333333333333H405.3333333333333C417.0666666666667 405.3333333333333 426.6666666666667 395.7333333333334 426.6666666666667 384V170.6666666666667C426.6666666666667 158.9333333333333 417.0666666666667 149.3333333333334 405.3333333333333 149.3333333333334H106.6666666666667C94.9333333333333 149.3333333333334 85.3333333333333 158.9333333333333 85.3333333333333 170.6666666666667V384C85.3333333333333 395.7333333333334 94.9333333333333 405.3333333333333 106.6666666666667 405.3333333333333M128 362.6666666666667V192H384V362.6666666666667H128M426.6666666666667 85.3333333333334C426.6666666666667 73.6 417.0666666666667 64 405.3333333333333 64H106.6666666666667C94.9333333333333 64 85.3333333333333 73.6 85.3333333333333 85.3333333333334V106.6666666666667H426.6666666666667V85.3333333333334M426.6666666666667 0C426.6666666666667 -11.7333333333333 417.0666666666667 -21.3333333333333 405.3333333333333 -21.3333333333333H106.6666666666667C94.9333333333333 -21.3333333333333 85.3333333333333 -11.7333333333333 85.3333333333333 0V21.3333333333334H426.6666666666667V0z" /></svg>