<?xml version="1.0" encoding="UTF-8"?><!DOCTYPE svg PUBLIC "-//W3C//DTD SVG 1.1//EN" "http://www.w3.org/Graphics/SVG/1.1/DTD/svg11.dtd"><svg xmlns="http://www.w3.org/2000/svg" xmlns:xlink="http://www.w3.org/1999/xlink" version="1.1" width="512" height="512" viewBox="0 0 512 512">    <path fill="#ffffff" transform="scale(1, -1) translate(0, -448)" glyph-name="grease-pencil" unicode="&#xF648;" horiz-adv-x="512" d=" M397.2266666666667 416C386.3466666666667 416 375.4666666666667 411.9466666666667 367.1466666666667 403.4133333333334L229.3333333333333 265.6L318.9333333333333 176.2133333333333L456.7466666666667 313.8133333333333C473.6 330.6666666666667 473.6 357.5466666666666 456.7466666666667 374.1866666666666L427.52 403.4133333333333C419.2 411.9466666666666 408.32 416 397.2266666666666 416M209.0666666666666 245.3333333333333L68.9066666666666 105.1733333333334L83.8399999999999 90.24C72.5333333333333 80.2133333333334 61.6533333333333 68.6933333333333 50.7733333333333 57.8133333333334C34.1333333333333 40.96 34.1333333333333 14.08 50.7733333333333 -2.5599999999999C67.4133333333333 -19.1999999999999 94.2933333333333 -19.1999999999999 111.1466666666666 -2.5599999999999C122.0266666666666 7.8933333333334 133.3333333333333 19.6266666666667 143.5733333333333 30.2933333333334L158.5066666666666 15.5733333333334L298.6666666666667 155.7333333333334" /></svg>