<?xml version="1.0" encoding="UTF-8"?><!DOCTYPE svg PUBLIC "-//W3C//DTD SVG 1.1//EN" "http://www.w3.org/Graphics/SVG/1.1/DTD/svg11.dtd"><svg xmlns="http://www.w3.org/2000/svg" xmlns:xlink="http://www.w3.org/1999/xlink" version="1.1" width="512" height="512" viewBox="0 0 512 512">    <path fill="#ffffff" transform="scale(1, -1) translate(0, -448)" glyph-name="vhs" unicode="&#xFA1A;" horiz-adv-x="512" d=" M85.3333333333333 320C61.8666666666667 320 42.6666666666667 300.8 42.6666666666667 277.3333333333334V106.6666666666667C42.6666666666667 83.2 61.8666666666667 64 85.3333333333333 64H426.6666666666667C450.1333333333334 64 469.3333333333333 83.2 469.3333333333333 106.6666666666667V277.3333333333334C469.3333333333333 300.8 450.1333333333334 320 426.6666666666667 320H85.3333333333333M96.8533333333333 234.6666666666667H149.3333333333333V149.3333333333334H96.8533333333333C89.3866666666667 162.3466666666667 85.3333333333333 177.0666666666667 85.3333333333333 192S89.3866666666667 221.6533333333334 96.8533333333333 234.6666666666667M192 234.6666666666667H320V149.3333333333334H192V234.6666666666667M362.6666666666667 234.6666666666667H415.1466666666667C422.6133333333334 221.6533333333334 426.6666666666667 206.9333333333333 426.6666666666667 192S422.6133333333333 162.3466666666667 415.1466666666667 149.3333333333334H362.6666666666667V234.6666666666667z" /></svg>