<?xml version="1.0" encoding="UTF-8"?><!DOCTYPE svg PUBLIC "-//W3C//DTD SVG 1.1//EN" "http://www.w3.org/Graphics/SVG/1.1/DTD/svg11.dtd"><svg xmlns="http://www.w3.org/2000/svg" xmlns:xlink="http://www.w3.org/1999/xlink" version="1.1" width="512" height="512" viewBox="0 0 512 512">    <path fill="#ffffff" transform="scale(1, -1) translate(0, -448)" glyph-name="phone-outline" unicode="&#xFDCC;" horiz-adv-x="512" d=" M426.6666666666667 117.3333333333334C401.0666666666667 117.3333333333334 373.3333333333333 121.6 349.8666666666666 130.1333333333333H343.4666666666666C337.0666666666666 130.1333333333333 332.8 128 328.5333333333333 123.7333333333334L281.6 76.8C221.8666666666666 108.8 170.6666666666666 157.8666666666667 140.8 217.6L187.7333333333334 264.5333333333333C194.1333333333334 270.9333333333334 196.2666666666667 279.4666666666667 192 285.8666666666667C185.6 309.3333333333333 181.3333333333333 337.0666666666667 181.3333333333333 362.6666666666667C181.3333333333333 373.3333333333333 170.6666666666667 384 160 384H85.3333333333333C74.6666666666667 384 64 373.3333333333333 64 362.6666666666667C64 162.1333333333333 226.1333333333334 0 426.6666666666667 0C437.3333333333333 0 448 10.6666666666667 448 21.3333333333334V96C448 106.6666666666667 437.3333333333333 117.3333333333334 426.6666666666667 117.3333333333334M106.6666666666667 341.3333333333334H138.6666666666667C140.8 322.1333333333334 145.0666666666667 302.9333333333334 149.3333333333333 285.8666666666667L123.7333333333333 260.2666666666667C115.2 285.8666666666667 108.8 313.6 106.6666666666667 341.3333333333334M405.3333333333333 42.6666666666667C377.6 44.8000000000001 349.8666666666666 51.2 324.2666666666667 59.7333333333334L349.8666666666666 85.3333333333334C366.9333333333333 81.0666666666667 386.1333333333333 76.8000000000001 405.3333333333333 76.8000000000001V42.6666666666667z" /></svg>