<?xml version="1.0" encoding="UTF-8"?><!DOCTYPE svg PUBLIC "-//W3C//DTD SVG 1.1//EN" "http://www.w3.org/Graphics/SVG/1.1/DTD/svg11.dtd"><svg xmlns="http://www.w3.org/2000/svg" xmlns:xlink="http://www.w3.org/1999/xlink" version="1.1" width="512" height="512" viewBox="0 0 512 512">    <path fill="#ffffff" transform="scale(1, -1) translate(0, -448)" glyph-name="counter" unicode="&#xF199;" horiz-adv-x="512" d=" M85.3333333333333 362.6666666666667H426.6666666666667C450.1333333333334 362.6666666666667 469.3333333333333 343.4666666666667 469.3333333333333 320V64C469.3333333333333 40.5333333333333 450.1333333333334 21.3333333333334 426.6666666666667 21.3333333333334H85.3333333333333C61.8666666666667 21.3333333333334 42.6666666666667 40.5333333333333 42.6666666666667 64V320C42.6666666666667 343.4666666666667 61.8666666666667 362.6666666666667 85.3333333333333 362.6666666666667M85.3333333333333 320V64H234.6666666666667V320H85.3333333333333M426.6666666666667 64V320H400.2133333333334C405.3333333333333 308.48 404.2666666666667 297.1733333333334 404.2666666666667 295.8933333333333C402.7733333333334 281.6 392.7466666666668 266.6666666666667 389.12 261.3333333333334L339.4133333333334 206.9333333333333L410.24 207.36L410.4533333333334 181.3333333333333L299.5200000000001 181.9733333333333L298.6666666666668 203.3066666666666S363.7333333333334 272.2133333333333 366.9333333333334 278.4C369.9200000000001 284.3733333333333 382.0800000000001 320 352.0000000000001 320C325.7600000000001 318.9333333333333 328.7466666666668 292.2666666666667 328.7466666666668 292.2666666666667L295.8933333333335 292.0533333333333S296.1066666666668 306.1333333333334 304.0000000000001 320H277.3333333333333V64H332.3733333333334L332.16 82.3466666666667L352.8533333333333 82.5600000000001S372.2666666666667 85.9733333333334 372.48 104.96C373.3333333333333 126.2933333333334 355.2000000000001 126.2933333333334 352 126.2933333333334C349.2266666666667 126.2933333333334 329.1733333333333 125.2266666666667 329.1733333333333 107.7333333333334H296.7466666666667S297.6 151.6800000000001 352 151.6800000000001C407.4666666666667 151.6800000000001 404.48 108.5866666666668 404.48 108.5866666666668S405.3333333333333 81.9200000000001 380.8 71.8933333333334L391.8933333333333 64.0000000000001H426.6666666666667M190.2933333333333 106.6666666666667H158.2933333333333V230.4000000000001L119.8933333333333 218.4533333333334V244.6933333333334L186.88 268.5866666666667H190.2933333333333V106.6666666666667z" /></svg>