<?xml version="1.0" encoding="UTF-8"?><!DOCTYPE svg PUBLIC "-//W3C//DTD SVG 1.1//EN" "http://www.w3.org/Graphics/SVG/1.1/DTD/svg11.dtd"><svg xmlns="http://www.w3.org/2000/svg" xmlns:xlink="http://www.w3.org/1999/xlink" version="1.1" width="512" height="512" viewBox="0 0 512 512">    <path fill="#ffffff" transform="scale(1, -1) translate(0, -448)" glyph-name="emoticon-dead" unicode="&#xFC4A;" horiz-adv-x="512" d=" M256 405.3333333333333C138.0266666666667 405.3333333333333 42.6666666666667 309.9733333333334 42.6666666666667 192S138.0266666666667 -21.3333333333333 256 -21.3333333333333C373.76 -21.3333333333333 469.3333333333333 74.24 469.3333333333333 192C469.3333333333333 309.9733333333334 373.3333333333333 405.3333333333333 256 405.3333333333333M144.2133333333333 259.8400000000001L166.8266666666667 282.4533333333334L189.44 259.8400000000001L212.0533333333334 282.4533333333334L234.6666666666667 259.8400000000001L212.0533333333333 237.2266666666667L234.6666666666667 214.6133333333334L212.0533333333333 192L189.44 214.6133333333334L166.8266666666667 192L144.2133333333333 214.6133333333334L166.8266666666667 237.2266666666667L144.2133333333333 259.8400000000001M146.9866666666667 74.6666666666667C164.0533333333334 118.1866666666667 206.2933333333333 149.3333333333334 256 149.3333333333334C305.7066666666667 149.3333333333334 347.9466666666666 118.1866666666667 365.0133333333333 74.6666666666667H146.9866666666667M367.7866666666667 214.6133333333333L345.1733333333333 192L322.56 214.6133333333334L299.9466666666667 192L277.3333333333333 214.6133333333334L299.9466666666667 237.2266666666667L277.3333333333333 259.8400000000001L299.9466666666667 282.4533333333334L322.56 259.8400000000001L345.1733333333333 282.4533333333334L367.7866666666667 259.8400000000001L345.1733333333333 237.2266666666667L367.7866666666667 214.6133333333333z" /></svg>