<?xml version="1.0" encoding="UTF-8"?><!DOCTYPE svg PUBLIC "-//W3C//DTD SVG 1.1//EN" "http://www.w3.org/Graphics/SVG/1.1/DTD/svg11.dtd"><svg xmlns="http://www.w3.org/2000/svg" xmlns:xlink="http://www.w3.org/1999/xlink" version="1.1" width="512" height="512" viewBox="0 0 512 512">    <path fill="#ffffff" transform="scale(1, -1) translate(0, -448)" glyph-name="new-box" unicode="&#xF394;" horiz-adv-x="512" d=" M426.6666666666667 362.6666666666667C450.3466666666667 362.6666666666667 469.3333333333333 343.68 469.3333333333333 320V64C469.3333333333333 40.3200000000001 450.3466666666667 21.3333333333334 426.6666666666667 21.3333333333334H85.3333333333333C61.6533333333333 21.3333333333334 42.6666666666667 40.3200000000001 42.6666666666667 64V320C42.6666666666667 343.68 61.6533333333333 362.6666666666667 85.3333333333333 362.6666666666667H426.6666666666667M181.3333333333333 128V256H154.6666666666667V181.3333333333334L101.3333333333333 256H74.6666666666667V128H101.3333333333333V202.6666666666667L155.7333333333333 128H181.3333333333333M288 229.12V256H202.6666666666667V128H288V154.6666666666667H234.6666666666667V178.3466666666667H288V205.2266666666667H234.6666666666667V229.12H288M437.3333333333333 149.3333333333333V256H410.6666666666667V160H386.7733333333333V234.6666666666667H360.1066666666667V160H336V256H309.3333333333333V149.3333333333334C309.3333333333333 137.6 318.9333333333333 128 330.6666666666667 128H416C427.7333333333334 128 437.3333333333333 137.6 437.3333333333333 149.3333333333334z" /></svg>