<?xml version="1.0" encoding="UTF-8"?><!DOCTYPE svg PUBLIC "-//W3C//DTD SVG 1.1//EN" "http://www.w3.org/Graphics/SVG/1.1/DTD/svg11.dtd"><svg xmlns="http://www.w3.org/2000/svg" xmlns:xlink="http://www.w3.org/1999/xlink" version="1.1" width="512" height="512" viewBox="0 0 512 512">    <path fill="#ffffff" transform="scale(1, -1) translate(0, -448)" glyph-name="xbox-controller-battery-empty" unicode="&#xF74B;" horiz-adv-x="512" d=" M448 42.6666666666667V298.6666666666667H320V42.6666666666667H448M462.2933333333334 341.3333333333334C477.8666666666666 341.3333333333334 490.6666666666666 328.5333333333334 490.6666666666666 312.9600000000001V28.3733333333333C490.6666666666666 12.8 477.8666666666666 0 462.2933333333334 0H305.7066666666667C290.1333333333334 0 277.3333333333334 12.8000000000001 277.3333333333334 28.3733333333333V90.6666666666667H165.3333333333333C122.6666666666667 90.6666666666667 106.6666666666667 42.6666666666667 64 21.3333333333334C21.3333333333333 21.3333333333334 -10.6666666666667 85.3333333333334 74.6666666666667 266.6666666666667H80L89.3866666666667 284.3733333333334S149.3333333333333 320 177.7066666666667 293.76H277.3333333333333V312.9600000000001C277.3333333333333 328.5333333333334 290.1333333333334 341.3333333333334 305.7066666666667 341.3333333333334H341.3333333333333V384H426.6666666666667V341.3333333333334H462.2933333333334M234.6666666666667 277.3333333333334C222.9333333333333 277.3333333333334 213.3333333333333 267.7333333333334 213.3333333333333 256S222.9333333333333 234.6666666666667 234.6666666666667 234.6666666666667S256 244.2666666666667 256 256S246.4 277.3333333333334 234.6666666666667 277.3333333333334z" /></svg>