<?xml version="1.0" encoding="UTF-8"?><!DOCTYPE svg PUBLIC "-//W3C//DTD SVG 1.1//EN" "http://www.w3.org/Graphics/SVG/1.1/DTD/svg11.dtd"><svg xmlns="http://www.w3.org/2000/svg" xmlns:xlink="http://www.w3.org/1999/xlink" version="1.1" width="512" height="512" viewBox="0 0 512 512">    <path fill="#ffffff" transform="scale(1, -1) translate(0, -448)" glyph-name="help-circle-outline" unicode="&#xF625;" horiz-adv-x="512" d=" M234.6666666666667 64H277.3333333333333V106.6666666666667H234.6666666666667V64M256 405.3333333333333C138.24 405.3333333333333 42.6666666666667 309.76 42.6666666666667 192S138.24 -21.3333333333333 256 -21.3333333333333S469.3333333333333 74.24 469.3333333333333 192S373.76 405.3333333333333 256 405.3333333333333M256 21.3333333333334C161.92 21.3333333333334 85.3333333333333 97.92 85.3333333333333 192S161.92 362.6666666666667 256 362.6666666666667S426.6666666666667 286.0800000000001 426.6666666666667 192S350.08 21.3333333333334 256 21.3333333333334M256 320C208.8533333333333 320 170.6666666666667 281.8133333333334 170.6666666666667 234.6666666666667H213.3333333333333C213.3333333333333 258.1333333333334 232.5333333333334 277.3333333333334 256 277.3333333333334S298.6666666666667 258.1333333333334 298.6666666666667 234.6666666666667C298.6666666666667 192 234.6666666666667 197.3333333333334 234.6666666666667 128H277.3333333333333C277.3333333333333 176 341.3333333333333 181.3333333333334 341.3333333333333 234.6666666666667C341.3333333333333 281.8133333333334 303.1466666666667 320 256 320z" /></svg>