<?xml version="1.0" encoding="UTF-8"?><!DOCTYPE svg PUBLIC "-//W3C//DTD SVG 1.1//EN" "http://www.w3.org/Graphics/SVG/1.1/DTD/svg11.dtd"><svg xmlns="http://www.w3.org/2000/svg" xmlns:xlink="http://www.w3.org/1999/xlink" version="1.1" width="512" height="512" viewBox="0 0 512 512">    <path fill="#ffffff" transform="scale(1, -1) translate(0, -448)" glyph-name="heart-circle-outline" unicode="&#xF971;" horiz-adv-x="512" d=" M256 405.3333333333333C138.24 405.3333333333333 42.6666666666667 309.76 42.6666666666667 192S138.24 -21.3333333333333 256 -21.3333333333333S469.3333333333333 74.24 469.3333333333333 192S373.76 405.3333333333333 256 405.3333333333333M256 362.6666666666667C350.2933333333334 362.6666666666667 426.6666666666667 286.2933333333334 426.6666666666667 192S350.2933333333334 21.3333333333334 256 21.3333333333334S85.3333333333333 97.7066666666667 85.3333333333333 192S161.7066666666667 362.6666666666667 256 362.6666666666667M208 281.1733333333334C175.1466666666667 281.1733333333334 149.3333333333333 255.36 149.3333333333333 222.5066666666667C149.3333333333333 182.1866666666667 185.6 149.3333333333334 240.64 99.4133333333334L256 85.3333333333334L271.36 99.4133333333334C326.4 149.3333333333334 362.6666666666667 182.1866666666667 362.6666666666667 222.5066666666667C362.6666666666667 255.36 336.8533333333333 281.1733333333334 304 281.1733333333334C285.44 281.1733333333334 267.7333333333334 272.4266666666667 256 258.7733333333333C244.2666666666667 272.4266666666667 226.56 281.1733333333333 208 281.1733333333333z" /></svg>