<?xml version="1.0" encoding="UTF-8"?><!DOCTYPE svg PUBLIC "-//W3C//DTD SVG 1.1//EN" "http://www.w3.org/Graphics/SVG/1.1/DTD/svg11.dtd"><svg xmlns="http://www.w3.org/2000/svg" xmlns:xlink="http://www.w3.org/1999/xlink" version="1.1" width="512" height="512" viewBox="0 0 512 512">    <path fill="#ffffff" transform="scale(1, -1) translate(0, -448)" glyph-name="dice-d12" unicode="&#xF866;" horiz-adv-x="512" d=" M256 405.3333333333333L32 242.3466666666667L117.3333333333333 -21.3333333333333H394.6666666666667L480 242.3466666666667L256 405.3333333333333M362.6666666666667 21.3333333333334H149.3333333333333L82.1333333333333 226.1333333333334L256 352.64L429.8666666666666 226.1333333333334L362.6666666666667 21.3333333333334M362.6666666666667 112V85.3333333333334H248.7466666666667V108.5866666666667S324.9066666666667 182.4 324.9066666666667 204.8C324.9066666666667 232.1066666666667 302.5066666666667 229.3333333333334 302.5066666666667 229.3333333333334C288 228.2666666666667 277.3333333333333 216.1066666666667 277.3333333333333 201.6H244.0533333333333C245.3333333333333 232.7466666666667 271.36 257.28 304.4266666666666 256C357.12 256 357.76 216.5333333333334 357.76 206.9333333333333C357.76 169.1733333333334 289.7066666666667 111.5733333333334 289.7066666666667 111.5733333333334L362.6666666666667 112M224 85.3333333333334H189.6533333333333V215.68L149.3333333333333 203.3066666666667V230.6133333333333L219.9466666666667 256H224V85.3333333333334z" /></svg>