<?xml version="1.0" encoding="UTF-8"?><!DOCTYPE svg PUBLIC "-//W3C//DTD SVG 1.1//EN" "http://www.w3.org/Graphics/SVG/1.1/DTD/svg11.dtd"><svg xmlns="http://www.w3.org/2000/svg" xmlns:xlink="http://www.w3.org/1999/xlink" version="1.1" width="512" height="512" viewBox="0 0 512 512">    <path fill="#ffffff" transform="scale(1, -1) translate(0, -448)" glyph-name="zip-disk" unicode="&#xFA22;" horiz-adv-x="512" d=" M149.3333333333333 384L64 341.3333333333334V42.6666666666667C64 19.2 83.2 0 106.6666666666667 0H405.3333333333333C428.8 0 448 19.2 448 42.6666666666667V341.3333333333334L362.6666666666667 384V341.3333333333334C362.6666666666667 329.6 353.0666666666667 320 341.3333333333333 320H213.3333333333333C201.6 320 192 329.6 192 341.3333333333334V384H149.3333333333333M170.6666666666667 234.6666666666667H341.3333333333333C353.0666666666667 234.6666666666667 362.6666666666667 225.0666666666667 362.6666666666667 213.3333333333334V42.6666666666667H149.3333333333333V213.3333333333334C149.3333333333333 225.0666666666667 158.9333333333333 234.6666666666667 170.6666666666667 234.6666666666667z" /></svg>