<?xml version="1.0" encoding="UTF-8"?><!DOCTYPE svg PUBLIC "-//W3C//DTD SVG 1.1//EN" "http://www.w3.org/Graphics/SVG/1.1/DTD/svg11.dtd"><svg xmlns="http://www.w3.org/2000/svg" xmlns:xlink="http://www.w3.org/1999/xlink" version="1.1" width="512" height="512" viewBox="0 0 512 512">    <path fill="#ffffff" transform="scale(1, -1) translate(0, -448)" glyph-name="glass-wine" unicode="&#xF875;" horiz-adv-x="512" d=" M330.6666666666667 -5.76L312.7466666666667 -3.84C296.5333333333333 -2.3466666666666 282.6666666666667 8.5333333333333 277.3333333333333 24.1066666666667C266.0266666666667 65.92 266.0266666666667 110.2933333333333 277.3333333333333 152.1066666666667C326.8266666666667 162.1333333333333 362.6666666666667 205.44 362.6666666666667 256C362.6666666666667 298.6666666666667 320 405.3333333333333 320 405.3333333333333H192S149.3333333333333 298.6666666666667 149.3333333333333 256C149.3333333333333 205.2266666666667 184.96 161.7066666666667 234.6666666666667 151.4666666666667C245.9733333333333 109.6533333333334 245.9733333333333 65.28 234.6666666666667 23.4666666666667C229.5466666666667 8.1066666666667 215.8933333333333 -2.7733333333333 199.8933333333334 -4.4799999999999L181.3333333333334 -6.3999999999999S170.6666666666667 -5.9733333333332 170.6666666666667 -21.3333333333333H341.3333333333333C341.3333333333333 -5.9733333333332 330.6666666666667 -5.7599999999999 330.6666666666667 -5.7599999999999M201.3866666666667 298.6666666666667L222.72 362.6666666666667H289.28L310.6133333333333 298.6666666666667H201.3866666666667z" /></svg>