<?xml version="1.0" encoding="UTF-8"?><!DOCTYPE svg PUBLIC "-//W3C//DTD SVG 1.1//EN" "http://www.w3.org/Graphics/SVG/1.1/DTD/svg11.dtd"><svg xmlns="http://www.w3.org/2000/svg" xmlns:xlink="http://www.w3.org/1999/xlink" version="1.1" width="512" height="512" viewBox="0 0 512 512">    <path fill="#ffffff" transform="scale(1, -1) translate(0, -448)" glyph-name="wii" unicode="&#xF5AB;" horiz-adv-x="512" d=" M380.5866666666667 86.6133333333334H340.6933333333333V217.8133333333333H380.5866666666667V86.6133333333334M384 264.9600000000001C384 251.9466666666667 373.3333333333333 241.2800000000001 360.5333333333333 241.2800000000001C347.52 241.2800000000001 336.8533333333333 251.9466666666667 336.8533333333333 264.9600000000001C336.8533333333333 278.1866666666667 347.52 288.8533333333334 360.5333333333333 288.8533333333334C373.3333333333333 288.8533333333334 384 278.1866666666667 384 264.9600000000001M465.4933333333333 86.6133333333334H425.3866666666667V217.8133333333334H465.4933333333333V86.6133333333334M469.3333333333333 264.9600000000001C469.3333333333333 251.9466666666667 458.6666666666666 241.2800000000001 445.44 241.2800000000001C432.4266666666666 241.2800000000001 421.76 251.9466666666667 421.76 264.9600000000001C421.76 278.1866666666667 432.4266666666666 288.8533333333334 445.44 288.8533333333334C458.6666666666666 288.8533333333334 469.3333333333333 278.1866666666667 469.3333333333333 264.9600000000001M275.2 276.2666666666667H317.8666666666667L272.64 117.3333333333334S266.6666666666667 84.48 240.64 84.48C214.8266666666667 84.48 208.8533333333334 117.3333333333334 208.8533333333334 117.3333333333334L180.2666666666667 221.0133333333333L151.68 117.3333333333334S145.4933333333334 84.48 119.68 84.48S87.8933333333334 117.3333333333334 87.8933333333334 117.3333333333334L42.6666666666667 276.2666666666667H85.3333333333333L122.0266666666667 135.04L151.68 249.6C158.5066666666667 278.4 180.2666666666667 277.9733333333334 180.2666666666667 277.9733333333334S202.0266666666667 278.4 208.8533333333334 249.6L238.2933333333334 135.04L275.2000000000001 276.2666666666667z" /></svg>