<?xml version="1.0" encoding="UTF-8"?><!DOCTYPE svg PUBLIC "-//W3C//DTD SVG 1.1//EN" "http://www.w3.org/Graphics/SVG/1.1/DTD/svg11.dtd"><svg xmlns="http://www.w3.org/2000/svg" xmlns:xlink="http://www.w3.org/1999/xlink" version="1.1" width="512" height="512" viewBox="0 0 512 512">    <path fill="#ffffff" transform="scale(1, -1) translate(0, -448)" glyph-name="city" unicode="&#xF146;" horiz-adv-x="512" d=" M405.3333333333333 128H362.6666666666667V170.6666666666667H405.3333333333333M405.3333333333333 42.6666666666667H362.6666666666667V85.3333333333334H405.3333333333333M277.3333333333333 298.6666666666667H234.6666666666667V341.3333333333334H277.3333333333333M277.3333333333333 213.3333333333334H234.6666666666667V256H277.3333333333333M277.3333333333333 128H234.6666666666667V170.6666666666667H277.3333333333333M277.3333333333333 42.6666666666667H234.6666666666667V85.3333333333334H277.3333333333333M149.3333333333333 213.3333333333334H106.6666666666667V256H149.3333333333333M149.3333333333333 128H106.6666666666667V170.6666666666667H149.3333333333333M149.3333333333333 42.6666666666667H106.6666666666667V85.3333333333334H149.3333333333333M320 213.3333333333334V341.3333333333334L256 405.3333333333333L192 341.3333333333334V298.6666666666667H64V0H448V213.3333333333334H320z" /></svg>