<?xml version="1.0" encoding="UTF-8"?><!DOCTYPE svg PUBLIC "-//W3C//DTD SVG 1.1//EN" "http://www.w3.org/Graphics/SVG/1.1/DTD/svg11.dtd"><svg xmlns="http://www.w3.org/2000/svg" xmlns:xlink="http://www.w3.org/1999/xlink" version="1.1" width="512" height="512" viewBox="0 0 512 512">    <path fill="#ffffff" transform="scale(1, -1) translate(0, -448)" glyph-name="bank-plus" unicode="&#xFD8D;" horiz-adv-x="512" d=" M362.6666666666667 149.3333333333334H405.3333333333333V85.3333333333334H469.3333333333333V42.6666666666667H405.3333333333333V-21.3333333333333H362.6666666666667V42.6666666666667H298.6666666666667V85.3333333333334H362.6666666666667V149.3333333333334M245.3333333333333 426.6666666666667L448 320V277.3333333333334H42.6666666666667V320L245.3333333333333 426.6666666666667M341.3333333333333 234.6666666666667H405.3333333333333V190.2933333333334L384 192C369.0666666666667 192 354.7733333333333 189.4400000000001 341.3333333333333 184.7466666666667V234.6666666666667M42.6666666666667 -21.3333333333333V42.6666666666667H257.7066666666667C261.76 18.3466666666667 272.8533333333333 -3.6266666666667 288.64 -21.3333333333333H42.6666666666667M213.3333333333333 234.6666666666667H277.3333333333333V134.8266666666667C267.52 120.1066666666667 260.6933333333334 103.4666666666667 257.7066666666667 85.3333333333334H213.3333333333333V234.6666666666667M85.3333333333333 234.6666666666667H149.3333333333333V85.3333333333334H85.3333333333333V234.6666666666667z" /></svg>