<?xml version="1.0" encoding="UTF-8"?><!DOCTYPE svg PUBLIC "-//W3C//DTD SVG 1.1//EN" "http://www.w3.org/Graphics/SVG/1.1/DTD/svg11.dtd"><svg xmlns="http://www.w3.org/2000/svg" xmlns:xlink="http://www.w3.org/1999/xlink" version="1.1" width="512" height="512" viewBox="0 0 512 512">    <path fill="#ffffff" transform="scale(1, -1) translate(0, -448)" glyph-name="remote-desktop" unicode="&#xF8B8;" horiz-adv-x="512" d=" M64 405.3333333333333C40.5333333333333 405.3333333333333 21.3333333333333 386.1333333333334 21.3333333333333 362.6666666666667V106.6666666666667C21.3333333333333 82.9866666666667 40.5333333333333 64 64 64H213.3333333333333V21.3333333333334H170.6666666666667V-21.3333333333333H341.3333333333333V21.3333333333334H298.6666666666667V64H448C471.4666666666667 64 490.6666666666666 83.2 490.6666666666666 106.6666666666667V362.6666666666667C490.6666666666666 386.1333333333334 471.4666666666667 405.3333333333333 448 405.3333333333333M64 362.6666666666667H448V106.6666666666667H64M320 341.3333333333334L245.3333333333333 266.6666666666667L320 192L349.8666666666666 221.8666666666667L305.0666666666666 266.6666666666667L349.8666666666666 311.4666666666667M192 277.3333333333334L162.1333333333333 247.4666666666667L206.9333333333333 202.6666666666667L162.1333333333333 157.8666666666667L192 128L266.6666666666667 202.6666666666667" /></svg>