<?xml version="1.0" encoding="UTF-8"?><!DOCTYPE svg PUBLIC "-//W3C//DTD SVG 1.1//EN" "http://www.w3.org/Graphics/SVG/1.1/DTD/svg11.dtd"><svg xmlns="http://www.w3.org/2000/svg" xmlns:xlink="http://www.w3.org/1999/xlink" version="1.1" width="512" height="512" viewBox="0 0 512 512">    <path fill="#ffffff" transform="scale(1, -1) translate(0, -448)" glyph-name="file-music-outline" unicode="&#xFE7C;" horiz-adv-x="512" d=" M298.6666666666667 405.3333333333333L426.6666666666667 277.3333333333334V21.3333333333334C426.6666666666667 -2.1333333333333 407.4666666666667 -21.3333333333333 384 -21.3333333333333H128C104.5333333333333 -21.3333333333333 85.3333333333333 -2.1333333333333 85.3333333333333 21.3333333333334V362.6666666666667C85.3333333333333 386.1333333333334 104.5333333333333 405.3333333333333 128 405.3333333333333H298.6666666666667M384 21.3333333333334V256H277.3333333333333V362.6666666666667H128V21.3333333333334H384M277.3333333333333 234.6666666666667V192H234.6666666666667V85.3333333333334C234.6666666666667 61.8666666666667 215.4666666666667 42.6666666666667 192 42.6666666666667S149.3333333333333 61.8666666666667 149.3333333333333 85.3333333333334S168.5333333333333 128 192 128C200.5333333333333 128 206.9333333333333 125.8666666666667 213.3333333333333 121.6V234.6666666666667H277.3333333333333z" /></svg>