<?xml version="1.0" encoding="UTF-8"?><!DOCTYPE svg PUBLIC "-//W3C//DTD SVG 1.1//EN" "http://www.w3.org/Graphics/SVG/1.1/DTD/svg11.dtd"><svg xmlns="http://www.w3.org/2000/svg" xmlns:xlink="http://www.w3.org/1999/xlink" version="1.1" width="512" height="512" viewBox="0 0 512 512">    <path fill="#ffffff" transform="scale(1, -1) translate(0, -448)" glyph-name="image-search" unicode="&#xF976;" horiz-adv-x="512" d=" M330.6666666666667 405.3333333333333C384 405.3333333333333 426.6666666666667 362.6666666666667 426.6666666666667 309.3333333333334C426.6666666666667 290.56 421.3333333333333 272.8533333333334 411.9466666666666 258.1333333333334L477.6533333333333 192L448 162.3466666666667L381.44 227.84C366.7199999999999 218.6666666666667 349.2266666666666 213.3333333333334 330.6666666666667 213.3333333333334C277.3333333333333 213.3333333333334 234.6666666666667 256 234.6666666666667 309.3333333333334S277.3333333333333 405.3333333333333 330.6666666666667 405.3333333333333M330.6666666666667 362.6666666666667C301.2266666666667 362.6666666666667 277.3333333333333 338.7733333333333 277.3333333333333 309.3333333333334S301.2266666666667 256 330.6666666666667 256S384 279.8933333333333 384 309.3333333333334S360.1066666666667 362.6666666666667 330.6666666666667 362.6666666666667M160 138.6666666666667L85.3333333333333 42.6666666666667H384L288 170.6666666666667L213.3333333333333 74.6666666666667L160 138.6666666666667M426.6666666666667 21.3333333333334C426.6666666666667 -2.1333333333333 407.4666666666667 -21.3333333333333 384 -21.3333333333333H85.3333333333333C61.8666666666667 -21.3333333333333 42.6666666666667 -2.1333333333333 42.6666666666667 21.3333333333334V320C42.6666666666667 343.4666666666667 61.8666666666667 362.6666666666667 85.3333333333333 362.6666666666667H202.6666666666667C195.84 346.24 192 328.32 192 309.3333333333334C192 232.7466666666667 254.08 170.6666666666667 330.6666666666667 170.6666666666667C345.1733333333333 170.6666666666667 359.2533333333334 173.0133333333333 372.48 177.0666666666667L426.6666666666667 122.88V21.3333333333334z" /></svg>