<?xml version="1.0" encoding="UTF-8"?><!DOCTYPE svg PUBLIC "-//W3C//DTD SVG 1.1//EN" "http://www.w3.org/Graphics/SVG/1.1/DTD/svg11.dtd"><svg xmlns="http://www.w3.org/2000/svg" xmlns:xlink="http://www.w3.org/1999/xlink" version="1.1" width="512" height="512" viewBox="0 0 512 512">    <path fill="#ffffff" transform="scale(1, -1) translate(0, -448)" glyph-name="folder-star-outline" unicode="&#xFB7B;" horiz-adv-x="512" d=" M426.6666666666667 320H256L213.3333333333333 362.6666666666667H85.3333333333333C61.8666666666667 362.6666666666667 42.6666666666667 343.4666666666667 42.6666666666667 320V64C42.6666666666667 40.5333333333333 61.8666666666667 21.3333333333334 85.3333333333333 21.3333333333334H426.6666666666667C450.1333333333334 21.3333333333334 469.3333333333333 40.5333333333333 469.3333333333333 64V277.3333333333334C469.3333333333333 300.8 450.1333333333334 320 426.6666666666667 320M426.6666666666667 64H85.3333333333333V320H195.6266666666667L238.2933333333333 277.3333333333334H426.6666666666667V64M279.04 148.48L264.32 85.3333333333334L320 117.9733333333334L375.68 85.3333333333334L360.9599999999999 148.48L410.0266666666667 190.9333333333334L345.3866666666666 196.48L320 256L294.6133333333334 196.48L229.9733333333334 190.9333333333334L279.04 148.48z" /></svg>