<?xml version="1.0" encoding="UTF-8"?><!DOCTYPE svg PUBLIC "-//W3C//DTD SVG 1.1//EN" "http://www.w3.org/Graphics/SVG/1.1/DTD/svg11.dtd"><svg xmlns="http://www.w3.org/2000/svg" xmlns:xlink="http://www.w3.org/1999/xlink" version="1.1" width="512" height="512" viewBox="0 0 512 512">    <path fill="#ffffff" transform="scale(1, -1) translate(0, -448)" glyph-name="keyboard-off" unicode="&#xF310;" horiz-adv-x="512" d=" M21.3333333333333 356.9066666666667L48.64 384L426.6666666666667 5.9733333333334L399.5733333333333 -21.3333333333333L335.5733333333333 42.6666666666667H85.3333333333333C61.6533333333333 42.6666666666667 42.6666666666667 61.8666666666667 42.6666666666667 85.3333333333334V298.6666666666667C42.6666666666667 309.3333333333334 46.5066666666667 318.5066666666667 52.48 325.76L21.3333333333333 356.9066666666667M405.3333333333333 234.6666666666667V277.3333333333334H362.6666666666667V234.6666666666667H405.3333333333333M405.3333333333333 170.6666666666667V213.3333333333334H362.6666666666667V170.6666666666667H405.3333333333333M341.3333333333333 234.6666666666667V277.3333333333334H298.6666666666667V234.6666666666667H341.3333333333333M341.3333333333333 170.6666666666667V213.3333333333334H298.6666666666667V188.16L252.16 234.6666666666667H277.3333333333333V277.3333333333334H234.6666666666667V252.1600000000001L209.4933333333334 277.3333333333334L145.4933333333334 341.3333333333334H426.6666666666667C450.1333333333334 341.3333333333334 469.3333333333333 322.1333333333334 469.3333333333333 298.6666666666667V85.3333333333334C469.3333333333333 66.9866666666667 457.8133333333333 51.4133333333334 441.6 45.44L316.16 170.6666666666667H341.3333333333333M170.6666666666667 128V85.3333333333334H292.9066666666667L250.24 128H170.6666666666667M106.6666666666667 234.6666666666667H143.5733333333333L106.6666666666667 271.5733333333334V234.6666666666667M149.3333333333333 170.6666666666667V213.3333333333334H106.6666666666667V170.6666666666667H149.3333333333333M170.6666666666667 170.6666666666667H207.5733333333333L170.6666666666667 207.5733333333334V170.6666666666667z" /></svg>