<?xml version="1.0" encoding="UTF-8"?><!DOCTYPE svg PUBLIC "-//W3C//DTD SVG 1.1//EN" "http://www.w3.org/Graphics/SVG/1.1/DTD/svg11.dtd"><svg xmlns="http://www.w3.org/2000/svg" xmlns:xlink="http://www.w3.org/1999/xlink" version="1.1" width="512" height="512" viewBox="0 0 512 512">    <path fill="#ffffff" transform="scale(1, -1) translate(0, -448)" glyph-name="kickstarter" unicode="&#xF744;" horiz-adv-x="512" d=" M217.8133333333333 253.2266666666667L288 355.2C301.44 374.4 318.72 384 339.84 384C356.9066666666667 384 371.84 377.8133333333334 384 365.6533333333333C397.0133333333333 353.4933333333334 403.2 338.9866666666667 403.2 321.92C403.2 309.3333333333334 400 298.6666666666667 393.1733333333333 288.64L329.8133333333333 196.2666666666667L407.4666666666666 97.92C415.1466666666666 88.1066666666667 418.9866666666666 76.5866666666667 418.9866666666666 64C418.9866666666666 46.08 413.0133333333332 31.1466666666667 400.64 18.7733333333333C388.4799999999999 6.1866666666667 373.3333333333333 0 356.2666666666666 0C337.2799999999999 0 322.7733333333332 6.1866666666667 312.7466666666666 18.5600000000001L217.8133333333333 137.1733333333334V71.8933333333334C217.8133333333333 53.3333333333334 214.3999999999999 38.6133333333334 207.9999999999999 28.3733333333334C196.2666666666667 9.3866666666667 178.9866666666667 0 156.3733333333333 0C135.8933333333333 0 120.1066666666667 6.8266666666667 108.8 20.6933333333333C98.1333333333333 33.4933333333333 93.0133333333333 50.5599999999999 93.0133333333333 71.4666666666666V314.24C93.0133333333333 334.0800000000001 98.3466666666667 350.5066666666667 109.0133333333333 363.52C120.32 377.1733333333334 135.8933333333333 384 155.7333333333333 384C174.5066666666667 384 190.2933333333333 377.1733333333334 202.6666666666667 363.52C209.7066666666667 355.8400000000001 214.1866666666667 348.1600000000001 216.1066666666667 340.48C217.1733333333334 335.5733333333333 217.8133333333333 326.6133333333334 217.8133333333333 313.6V253.2266666666667z" /></svg>