<?xml version="1.0" encoding="UTF-8"?><!DOCTYPE svg PUBLIC "-//W3C//DTD SVG 1.1//EN" "http://www.w3.org/Graphics/SVG/1.1/DTD/svg11.dtd"><svg xmlns="http://www.w3.org/2000/svg" xmlns:xlink="http://www.w3.org/1999/xlink" version="1.1" width="512" height="512" viewBox="0 0 512 512">    <path fill="#ffffff" transform="scale(1, -1) translate(0, -448)" glyph-name="ninja" unicode="&#xF773;" horiz-adv-x="512" d=" M165.3333333333333 170.6666666666667C165.12 178.1333333333333 168.5333333333333 185.3866666666667 174.2933333333333 190.2933333333334C190.2933333333333 186.88 205.2266666666666 180.2666666666667 218.6666666666667 170.6666666666667C218.6666666666667 156.16 206.72 144.2133333333334 192 144.2133333333334S165.5466666666667 155.9466666666667 165.3333333333333 170.6666666666667M293.3333333333333 170.6666666666667C306.7733333333333 180.0533333333334 321.7066666666667 186.6666666666667 337.7066666666667 190.0800000000001C343.4666666666667 185.1733333333334 346.88 177.92 346.6666666666667 170.6666666666667C346.6666666666667 155.7333333333334 334.72 143.7866666666667 320 143.7866666666667S293.3333333333333 155.7333333333334 293.3333333333333 170.6666666666667M256 256C196.9066666666667 256.8533333333334 138.6666666666667 242.1333333333334 86.8266666666667 213.3333333333334L85.3333333333333 192C85.3333333333333 165.76 91.52 139.9466666666667 103.2533333333333 116.48C153.8133333333333 124.16 204.8 128 256 128C307.2 128 358.1866666666666 124.16 408.7466666666667 116.48C420.48 139.9466666666667 426.6666666666667 165.7600000000001 426.6666666666667 192L425.1733333333333 213.3333333333334C373.3333333333333 242.1333333333334 315.0933333333333 256.8533333333334 256 256M256 405.3333333333333C373.76 405.3333333333333 469.3333333333333 309.76 469.3333333333333 192S373.76 -21.3333333333333 256 -21.3333333333333S42.6666666666667 74.24 42.6666666666667 192S138.24 405.3333333333333 256 405.3333333333333z" /></svg>