<?xml version="1.0" encoding="UTF-8"?><!DOCTYPE svg PUBLIC "-//W3C//DTD SVG 1.1//EN" "http://www.w3.org/Graphics/SVG/1.1/DTD/svg11.dtd"><svg xmlns="http://www.w3.org/2000/svg" xmlns:xlink="http://www.w3.org/1999/xlink" version="1.1" width="512" height="512" viewBox="0 0 512 512">    <path fill="#ffffff" transform="scale(1, -1) translate(0, -448)" glyph-name="aws" unicode="&#xFDF2;" horiz-adv-x="512" d=" M162.9866666666667 226.56C162.9866666666667 221.2266666666667 163.4133333333333 216.96 164.48 213.3333333333334C165.5466666666667 210.7733333333334 167.04 207.36 168.96 203.52C169.8133333333333 202.6666666666667 170.0266666666667 201.3866666666667 170.0266666666667 200.32C170.0266666666667 198.8266666666667 169.1733333333333 197.5466666666666 167.2533333333333 196.0533333333334L158.2933333333333 190.0800000000001C157.0133333333333 189.2266666666667 155.7333333333333 188.8 154.6666666666667 188.8C153.1733333333333 188.8 151.8933333333333 189.6533333333333 150.4 190.9333333333333C148.48 193.0666666666667 146.7733333333333 195.2 145.28 197.5466666666667C144 199.8933333333333 142.5066666666667 202.6666666666667 141.0133333333333 205.8666666666667C129.92 192.8533333333334 116.0533333333333 186.24 99.2 186.24C87.2533333333333 186.24 77.8666666666667 189.6533333333334 70.8266666666667 196.48C64 203.3066666666667 60.3733333333333 212.48 60.3733333333333 224C60.3733333333333 235.7333333333334 64.64 245.3333333333334 73.1733333333333 253.0133333333333C81.92 260.2666666666667 93.44 264.1066666666667 107.9466666666666 264.1066666666667C112.8533333333333 264.1066666666667 117.3333333333333 263.68 123.0933333333333 262.8266666666667C128 262.1866666666667 133.76 261.12 139.3066666666666 259.84V270.08C139.3066666666666 280.96 137.1733333333333 288 132.6933333333333 292.9066666666667C128 297.3866666666667 120.5333333333333 299.3066666666666 109.6533333333333 299.3066666666666C104.5333333333333 299.3066666666666 99.4133333333333 298.6666666666667 94.2933333333333 297.6C88.96 296.32 83.84 294.8266666666667 78.9333333333333 292.6933333333333C76.5866666666667 291.84 74.6666666666666 291.2 74.0266666666666 290.9866666666666C72.96 290.56 72.32 290.56 71.68 290.56C69.76 290.56 68.6933333333333 291.84 68.6933333333333 294.8266666666667V301.8666666666667C68.6933333333333 304 68.9066666666666 305.7066666666667 69.76 306.7733333333333C70.4 307.84 71.68 308.6933333333334 73.6 309.3333333333333C78.72 312.32 84.48 314.4533333333333 91.52 316.16C98.56 318.08 105.8133333333333 318.9333333333334 113.7066666666667 318.9333333333334C130.56 318.9333333333334 142.9333333333333 315.0933333333334 150.8266666666667 307.4133333333333C158.72 299.7333333333334 162.56 288 162.56 272.4266666666667V226.56H162.9866666666666M105.3866666666666 204.8C110.08 204.8 114.7733333333333 205.6533333333333 119.8933333333333 207.36C125.0133333333333 209.0666666666667 129.4933333333333 212.2666666666667 133.3333333333333 216.5333333333333C135.68 219.3066666666667 137.3866666666666 222.2933333333333 138.6666666666666 225.7066666666667C138.6666666666666 229.12 139.7333333333333 233.1733333333333 139.7333333333333 238.08V243.84C135.4666666666666 245.3333333333333 131.1999999999999 245.3333333333333 126.5066666666666 246.4C122.0266666666666 246.8266666666666 117.3333333333333 247.2533333333333 113.28 247.2533333333333C103.68 247.2533333333333 96.8533333333333 245.3333333333333 92.1599999999999 241.4933333333333C87.4666666666666 237.6533333333333 85.3333333333333 232.32 85.3333333333333 225.28C85.3333333333333 218.4533333333333 86.8266666666666 213.3333333333333 90.4533333333333 210.1333333333333C93.8666666666666 206.5066666666666 98.7733333333333 204.8 105.3866666666666 204.8M219.3066666666666 189.6533333333333C216.7466666666666 189.6533333333333 215.04 190.0799999999999 213.3333333333333 190.9333333333333C212.6933333333333 192 211.6266666666666 193.92 210.7733333333333 196.48L177.4933333333334 306.1333333333334C176.64 309.3333333333334 176.2133333333333 310.8266666666667 176.2133333333333 311.8933333333333C176.2133333333333 314.24 177.28 315.52 179.6266666666667 315.52H193.4933333333334C196.2666666666667 315.52 198.1866666666667 315.0933333333334 199.04 314.0266666666667C200.32 313.1733333333333 201.1733333333333 311.2533333333334 202.0266666666667 308.48L225.7066666666667 214.6133333333333L247.8933333333334 308.48C248.5333333333334 311.2533333333334 249.3866666666667 313.1733333333333 250.6666666666667 314.0266666666667C251.7333333333334 314.88 253.6533333333334 315.52 256 315.52H267.7333333333334C270.2933333333334 315.52 272.2133333333334 315.0933333333334 273.2800000000001 314.0266666666667C274.3466666666667 313.1733333333333 275.4133333333334 311.2533333333334 276.0533333333334 308.48L298.6666666666667 213.3333333333334L322.9866666666667 308.48C323.84 311.2533333333334 324.9066666666667 313.1733333333334 325.76 314.0266666666667C327.04 314.88 328.7466666666667 315.52 331.3066666666667 315.52H344.5333333333334C346.88 315.52 348.1600000000001 314.24 348.1600000000001 311.8933333333333C348.1600000000001 311.2533333333334 347.9466666666667 310.4 347.7333333333334 309.3333333333334C347.7333333333334 309.3333333333334 347.3066666666668 307.6266666666667 346.8800000000001 306.1333333333334L312.5333333333334 196.48C311.6800000000001 193.4933333333334 310.8266666666668 192 309.3333333333335 190.9333333333334C308.4800000000002 190.0800000000001 306.5600000000001 189.4400000000001 304.2133333333334 189.4400000000001H292.0533333333334C289.2800000000001 189.4400000000001 288.0000000000001 189.8666666666667 286.2933333333334 190.9333333333334C285.2266666666668 192.0000000000001 284.1600000000001 193.7066666666667 283.7333333333335 196.48L261.76 288L239.7866666666667 196.6933333333333C239.1466666666667 193.92 238.2933333333333 192 237.2266666666667 190.9333333333333C235.9466666666667 190.0800000000001 234.0266666666667 189.6533333333333 231.4666666666667 189.6533333333333H219.3066666666667M401.7066666666667 185.8133333333333C394.6666666666668 185.8133333333333 386.7733333333334 186.6666666666666 379.7333333333334 188.3733333333333C372.6933333333334 190.08 367.1466666666667 192 363.52 193.92C361.1733333333333 195.2 359.68 196.6933333333333 359.04 197.9733333333333S358.1866666666666 200.5333333333333 358.1866666666666 201.8133333333333V209.0666666666666C358.1866666666666 212.0533333333333 359.2533333333334 213.3333333333333 361.3866666666666 213.3333333333333H363.9466666666666C364.8 213.3333333333333 366.08 212.2666666666666 367.5733333333333 211.6266666666666C372.2666666666667 209.4933333333333 377.6 207.7866666666666 383.1466666666667 206.7199999999999C388.9066666666667 205.6533333333333 394.6666666666667 205.0133333333333 400 205.0133333333333C408.9600000000001 205.0133333333333 416 206.5066666666666 420.6933333333333 209.7066666666666C425.6 213.3333333333333 428.16 217.3866666666666 428.16 223.1466666666666C428.16 227.2 426.6666666666667 230.4 424.32 233.1733333333333C421.76 235.7333333333333 416.8533333333333 238.2933333333333 410.0266666666667 240.4266666666666L389.3333333333333 246.8266666666667C379.0933333333333 250.24 371.4133333333333 254.9333333333334 366.7200000000001 261.3333333333333C362.0266666666667 267.52 359.6800000000001 274.56 359.6800000000001 282.0266666666667C359.6800000000001 288 360.9600000000001 293.12 363.5200000000001 297.6C366.0800000000001 302.2933333333333 369.4933333333334 306.1333333333334 373.3333333333334 309.3333333333333C378.0266666666667 312.5333333333333 382.7200000000001 314.88 388.4800000000001 316.5866666666666C394.0266666666668 318.2933333333333 400.0000000000001 319.1466666666667 406.4000000000001 319.1466666666667C409.3866666666668 319.1466666666667 412.5866666666667 318.9333333333333 416.0000000000001 318.5066666666666C418.9866666666668 318.08 421.9733333333334 317.44 424.9600000000001 317.0133333333333C427.9466666666668 316.16 430.5066666666668 315.5199999999999 433.0666666666667 314.6666666666667C435.6266666666668 313.8133333333333 437.3333333333334 312.9599999999999 439.0400000000001 312.1066666666666C440.9600000000001 311.04 442.4533333333335 309.9733333333333 443.3066666666668 308.6933333333333C444.1600000000001 307.4133333333333 444.5866666666667 305.92 444.5866666666667 304V297.1733333333333C444.5866666666667 294.1866666666666 443.5200000000001 292.6933333333333 441.3866666666668 292.6933333333333C440.3200000000001 292.6933333333333 438.4000000000001 293.3333333333333 435.8400000000001 294.3999999999999C427.9466666666667 298.0266666666666 418.7733333333334 299.9466666666666 408.7466666666668 299.9466666666666C400.6400000000001 299.9466666666666 394.6666666666668 298.6666666666667 389.7600000000001 295.8933333333333C385.4933333333334 293.3333333333333 383.1466666666668 289.0666666666666 383.1466666666668 283.3066666666666C383.1466666666668 279.2533333333332 384.6400000000001 275.8399999999999 387.4133333333334 273.2799999999999C390.1866666666667 270.5066666666666 395.5200000000001 267.9466666666666 402.9866666666668 265.3866666666666L423.2533333333334 258.9866666666666C433.4933333333334 255.9999999999999 440.7466666666668 251.3066666666666 445.2266666666668 245.3333333333333C449.4933333333334 239.5733333333333 451.6266666666668 232.9599999999999 451.6266666666668 225.4933333333333C451.6266666666668 219.5199999999999 450.3466666666668 213.9733333333332 448.0000000000001 209.0666666666666C445.4400000000001 204.3733333333332 442.0266666666667 200.1066666666666 437.3333333333334 196.6933333333333C433.2800000000001 193.0666666666666 427.9466666666667 190.5066666666666 421.9733333333334 188.5866666666666C416.0000000000001 186.6666666666666 408.7466666666668 185.8133333333332 401.7066666666668 185.8133333333332M428.3733333333335 116.6933333333332C381.6533333333333 82.3466666666667 313.8133333333334 64 256 64C173.8666666666667 64 100.2666666666667 94.2933333333334 44.5866666666667 144.4266666666667C40.1066666666667 148.48 44.16 153.8133333333333 49.4933333333333 150.6133333333334C109.6533333333333 115.84 183.68 94.72 260.48 94.72C312.32 94.72 369.2800000000001 105.3866666666667 421.5466666666667 128C429.4400000000001 131.2 436.0533333333334 122.4533333333333 428.3733333333334 116.6933333333333M448 138.6666666666667C441.8133333333334 146.56 408.32 142.5066666666667 393.1733333333333 140.8C388.6933333333333 140.16 388.0533333333334 144.2133333333334 392.1066666666667 147.2000000000001C418.7733333333333 165.76 462.7199999999999 160 467.6266666666666 154.24C472.7466666666666 147.84 466.3466666666666 103.8933333333334 441.3866666666666 82.9866666666667C437.3333333333333 79.7866666666668 433.7066666666666 81.4933333333333 435.4133333333333 85.3333333333334C441.1733333333333 99.84 453.7599999999999 131.4133333333334 447.9999999999999 138.6666666666667z" /></svg>