<?xml version="1.0" encoding="UTF-8"?><!DOCTYPE svg PUBLIC "-//W3C//DTD SVG 1.1//EN" "http://www.w3.org/Graphics/SVG/1.1/DTD/svg11.dtd"><svg xmlns="http://www.w3.org/2000/svg" xmlns:xlink="http://www.w3.org/1999/xlink" version="1.1" width="512" height="512" viewBox="0 0 512 512">    <path fill="#ffffff" transform="scale(1, -1) translate(0, -448)" glyph-name="content-save-outline" unicode="&#xF817;" horiz-adv-x="512" d=" M320 341.3333333333334V256H106.6666666666667V42.6666666666667H199.4666666666667C181.3333333333333 58.24 170.6666666666667 81.28 170.6666666666667 106.6666666666667C170.6666666666667 153.8133333333334 208.8533333333333 192 256 192S341.3333333333333 153.8133333333334 341.3333333333333 106.6666666666667C341.3333333333333 81.28 330.6666666666667 58.24 312.5333333333333 42.6666666666667H405.3333333333333V280.9600000000001L344.9600000000001 341.3333333333334H320M106.6666666666667 298.6666666666667H277.3333333333333V341.3333333333334H106.6666666666667V298.6666666666667M362.6666666666667 384L448 298.6666666666667V42.6666666666667C448 19.2 428.8 0 405.3333333333333 0H106.6666666666667C82.9866666666667 0 64 19.2 64 42.6666666666667V341.3333333333334C64 364.8 83.2 384 106.6666666666667 384H362.6666666666667M256 149.3333333333334C232.5333333333334 149.3333333333334 213.3333333333333 130.1333333333333 213.3333333333333 106.6666666666667S232.5333333333334 64 256 64S298.6666666666667 83.2 298.6666666666667 106.6666666666667S279.4666666666667 149.3333333333334 256 149.3333333333334z" /></svg>