<?xml version="1.0" encoding="UTF-8"?><!DOCTYPE svg PUBLIC "-//W3C//DTD SVG 1.1//EN" "http://www.w3.org/Graphics/SVG/1.1/DTD/svg11.dtd"><svg xmlns="http://www.w3.org/2000/svg" xmlns:xlink="http://www.w3.org/1999/xlink" version="1.1" width="512" height="512" viewBox="0 0 512 512">    <path fill="#ffffff" transform="scale(1, -1) translate(0, -448)" glyph-name="kettle" unicode="&#xF5FA;" horiz-adv-x="512" d=" M266.6666666666667 384C166.6133333333333 384 85.3333333333333 326.6133333333334 85.3333333333333 256C85.3333333333333 230.6133333333334 96 206.08 116.0533333333333 184.96C96.64 160 85.3333333333333 128.8533333333334 85.3333333333333 96V21.3333333333334C85.3333333333333 -2.3466666666666 104.32 -21.3333333333333 128 -21.3333333333333H405.3333333333333C429.0133333333333 -21.3333333333333 448 -2.3466666666666 448 21.3333333333334V96C448 122.0266666666667 440.7466666666667 147.84 426.6666666666667 170.6666666666667L469.3333333333333 213.3333333333334L405.3333333333333 277.3333333333334L360.5333333333333 232.5333333333334C332.3733333333334 247.8933333333333 299.7333333333334 256 266.6666666666667 256C227.2 256 190.9333333333333 244.6933333333334 161.0666666666667 225.92C153.3866666666667 235.3066666666667 149.3333333333333 245.3333333333334 149.3333333333333 256C149.3333333333333 294.1866666666667 201.8133333333333 325.3333333333334 266.6666666666667 325.3333333333334C297.1733333333333 325.3333333333334 326.4 318.2933333333334 348.3733333333333 305.7066666666667L391.4666666666666 348.8C357.76 371.4133333333334 313.1733333333333 384 266.6666666666667 384M266.6666666666667 213.3333333333334C273.92 213.3333333333334 280.96 212.48 288 211.4133333333334C221.6533333333333 201.1733333333334 170.6666666666667 144 170.6666666666667 74.6666666666667V21.3333333333334H128V74.6666666666667C128 151.2533333333333 190.08 213.3333333333334 266.6666666666667 213.3333333333334z" /></svg>