<?xml version="1.0" encoding="UTF-8"?><!DOCTYPE svg PUBLIC "-//W3C//DTD SVG 1.1//EN" "http://www.w3.org/Graphics/SVG/1.1/DTD/svg11.dtd"><svg xmlns="http://www.w3.org/2000/svg" xmlns:xlink="http://www.w3.org/1999/xlink" version="1.1" width="512" height="512" viewBox="0 0 512 512">    <path fill="#ffffff" transform="scale(1, -1) translate(0, -448)" glyph-name="heart-off" unicode="&#xF758;" horiz-adv-x="512" d=" M21.3333333333333 356.9066666666667L48.64 384L426.6666666666667 5.9733333333334L399.5733333333333 -21.3333333333333L323.84 54.6133333333333L286.9333333333333 20.6933333333333L256 -7.4666666666667L225.0666666666667 20.6933333333333C115.2 120.3200000000001 42.6666666666667 186.24 42.6666666666667 266.6666666666667C42.6666666666667 286.9333333333334 47.5733333333333 305.7066666666667 56.1066666666667 322.1333333333334L21.3333333333333 356.9066666666667M160 384C197.12 384 232.7466666666667 366.7200000000001 256 339.6266666666667C279.2533333333334 366.7200000000001 314.88 384 352 384C417.7066666666666 384 469.3333333333333 332.5866666666667 469.3333333333333 266.6666666666667C469.3333333333333 211.84 435.6266666666667 163.84 379.52 107.3066666666667L112.4266666666667 374.4C126.9333333333333 380.5866666666667 142.9333333333333 384 160 384z" /></svg>