<?xml version="1.0" encoding="UTF-8"?><!DOCTYPE svg PUBLIC "-//W3C//DTD SVG 1.1//EN" "http://www.w3.org/Graphics/SVG/1.1/DTD/svg11.dtd"><svg xmlns="http://www.w3.org/2000/svg" xmlns:xlink="http://www.w3.org/1999/xlink" version="1.1" width="512" height="512" viewBox="0 0 512 512">    <path fill="#ffffff" transform="scale(1, -1) translate(0, -448)" glyph-name="dns-outline" unicode="&#xFB68;" horiz-adv-x="512" d=" M405.3333333333333 128V42.6666666666667H106.6666666666667V128H405.3333333333333M426.6666666666667 170.6666666666667H85.3333333333333C73.6 170.6666666666667 64 161.0666666666667 64 149.3333333333334V21.3333333333334C64 9.6 73.6 0 85.3333333333333 0H426.6666666666667C438.4 0 448 9.6 448 21.3333333333334V149.3333333333334C448 161.0666666666667 438.4 170.6666666666667 426.6666666666667 170.6666666666667M149.3333333333333 53.3333333333334C131.6266666666667 53.3333333333334 117.3333333333333 67.6266666666667 117.3333333333333 85.3333333333334S131.6266666666667 117.3333333333334 149.3333333333333 117.3333333333334S181.3333333333333 103.04 181.3333333333333 85.3333333333334S167.04 53.3333333333334 149.3333333333333 53.3333333333334M405.3333333333333 341.3333333333334V256H106.6666666666667V341.3333333333334H405.3333333333333M426.6666666666667 384H85.3333333333333C73.6 384 64 374.4 64 362.6666666666667V234.6666666666667C64 222.9333333333333 73.6 213.3333333333334 85.3333333333333 213.3333333333334H426.6666666666667C438.4 213.3333333333334 448 222.9333333333333 448 234.6666666666667V362.6666666666667C448 374.4 438.4 384 426.6666666666667 384M149.3333333333333 266.6666666666667C131.6266666666667 266.6666666666667 117.3333333333333 280.9600000000001 117.3333333333333 298.6666666666667S131.6266666666667 330.6666666666667 149.3333333333333 330.6666666666667S181.3333333333333 316.3733333333334 181.3333333333333 298.6666666666667S167.04 266.6666666666667 149.3333333333333 266.6666666666667z" /></svg>