<?xml version="1.0" encoding="UTF-8"?><!DOCTYPE svg PUBLIC "-//W3C//DTD SVG 1.1//EN" "http://www.w3.org/Graphics/SVG/1.1/DTD/svg11.dtd"><svg xmlns="http://www.w3.org/2000/svg" xmlns:xlink="http://www.w3.org/1999/xlink" version="1.1" width="512" height="512" viewBox="0 0 512 512">    <path fill="#ffffff" transform="scale(1, -1) translate(0, -448)" glyph-name="pistol" unicode="&#xF702;" horiz-adv-x="512" d=" M149.3333333333333 341.3333333333334H490.6666666666666V256H469.3333333333333V234.6666666666667H341.3333333333333C329.6 234.6666666666667 320 225.0666666666667 320 213.3333333333334V192C320 168.5333333333334 300.8 149.3333333333334 277.3333333333333 149.3333333333334H205.2266666666666C197.12 149.3333333333334 189.6533333333333 144.64 186.0266666666667 137.3866666666667L133.76 33.0666666666667C130.1333333333333 25.8133333333334 122.88 21.3333333333334 114.7733333333333 21.3333333333334H42.6666666666667S-21.3333333333333 21.3333333333334 64 149.3333333333334C64 149.3333333333334 128 234.6666666666667 42.6666666666667 234.6666666666667V341.3333333333334H64L74.6666666666667 362.6666666666667H138.6666666666667L149.3333333333333 341.3333333333334M298.6666666666667 192V213.3333333333334C298.6666666666667 225.0666666666667 289.0666666666667 234.6666666666667 277.3333333333333 234.6666666666667H256S234.6666666666667 213.3333333333334 256 192C232.5333333333334 192 213.3333333333333 211.2 213.3333333333333 234.6666666666667C201.6 234.6666666666667 192 225.0666666666667 192 213.3333333333334V192C192 180.2666666666667 201.6 170.6666666666667 213.3333333333333 170.6666666666667H277.3333333333333C289.0666666666667 170.6666666666667 298.6666666666667 180.2666666666667 298.6666666666667 192z" /></svg>