<?xml version="1.0" encoding="UTF-8"?><!DOCTYPE svg PUBLIC "-//W3C//DTD SVG 1.1//EN" "http://www.w3.org/Graphics/SVG/1.1/DTD/svg11.dtd"><svg xmlns="http://www.w3.org/2000/svg" xmlns:xlink="http://www.w3.org/1999/xlink" version="1.1" width="512" height="512" viewBox="0 0 512 512">    <path fill="#ffffff" transform="scale(1, -1) translate(0, -448)" glyph-name="account-group" unicode="&#xF848;" horiz-adv-x="512" d=" M256 320C220.5866666666667 320 192 291.4133333333334 192 256S220.5866666666667 192 256 192S320 220.5866666666667 320 256S291.4133333333333 320 256 320M128 273.7066666666667C98.56 273.7066666666667 74.6666666666667 249.8133333333334 74.6666666666667 220.3733333333333S98.56 167.04 128 167.04C146.7733333333333 167.04 163.2 176.8533333333334 172.5866666666667 191.36C158.2933333333333 209.4933333333334 149.3333333333333 231.4666666666667 149.3333333333333 256C149.3333333333333 260.2666666666667 149.3333333333333 264.5333333333334 150.1866666666667 268.8C143.36 272 135.8933333333333 273.7066666666667 128 273.7066666666667M384 273.7066666666667C376.1066666666667 273.7066666666667 368.64 272 361.8133333333334 268.8C362.6666666666667 264.5333333333334 362.6666666666667 260.2666666666667 362.6666666666667 256C362.6666666666667 231.4666666666667 353.7066666666666 209.4933333333334 339.4133333333333 191.36C348.8 176.8533333333334 365.2266666666667 167.04 384 167.04C413.44 167.04 437.3333333333333 190.9333333333333 437.3333333333333 220.3733333333333S413.44 273.7066666666667 384 273.7066666666667M256 149.3333333333334C213.3333333333333 149.3333333333334 128 128 128 85.3333333333334V42.6666666666667H384V85.3333333333334C384 128 298.6666666666667 149.3333333333334 256 149.3333333333334M99.6266666666667 128.64C64 122.4533333333334 21.3333333333333 105.8133333333334 21.3333333333333 78.2933333333334V42.6666666666667H85.3333333333333V85.3333333333334C85.3333333333333 101.9733333333334 91.52 116.6933333333334 99.6266666666667 128.64M412.3733333333333 128.64C420.4799999999999 116.6933333333333 426.6666666666667 101.9733333333334 426.6666666666667 85.3333333333334V42.6666666666667H490.6666666666666V78.2933333333334C490.6666666666666 105.8133333333334 448 122.4533333333334 412.3733333333333 128.6400000000001z" /></svg>