<?xml version="1.0" encoding="UTF-8"?><!DOCTYPE svg PUBLIC "-//W3C//DTD SVG 1.1//EN" "http://www.w3.org/Graphics/SVG/1.1/DTD/svg11.dtd"><svg xmlns="http://www.w3.org/2000/svg" xmlns:xlink="http://www.w3.org/1999/xlink" version="1.1" width="512" height="512" viewBox="0 0 512 512">    <path fill="#ffffff" transform="scale(1, -1) translate(0, -448)" glyph-name="fan" unicode="&#xF210;" horiz-adv-x="512" d=" M256 213.3333333333334C244.2666666666667 213.3333333333334 234.6666666666667 203.7333333333334 234.6666666666667 192S244.2666666666667 170.6666666666667 256 170.6666666666667S277.3333333333333 180.2666666666667 277.3333333333333 192S267.7333333333334 213.3333333333334 256 213.3333333333334M266.6666666666667 405.3333333333333C362.6666666666667 405.3333333333333 365.0133333333333 329.1733333333334 314.6666666666667 304C293.5466666666666 293.5466666666667 284.16 271.1466666666667 280.1066666666667 251.3066666666667C290.3466666666667 247.04 299.3066666666666 240.4266666666667 306.1333333333334 231.8933333333333C385.0666666666667 274.56 469.9733333333334 257.7066666666667 469.9733333333334 181.3333333333334C469.9733333333334 85.3333333333334 393.8133333333334 83.2 368.64 133.76C357.9733333333334 154.88 335.36 164.2666666666667 315.52 168.3200000000001C311.2533333333334 158.0800000000001 304.64 149.3333333333334 296.1066666666667 142.0800000000001C338.56 63.36 321.7066666666667 -21.3333333333333 245.3333333333333 -21.3333333333333C149.3333333333333 -21.3333333333333 147.4133333333333 55.04 197.76 80.2133333333333C218.6666666666667 90.6666666666666 228.0533333333333 112.8533333333333 232.32 132.48C221.8666666666667 136.7466666666666 212.6933333333333 143.5733333333333 205.8666666666667 152.1066666666666C127.1466666666667 109.8666666666667 42.6666666666667 126.5066666666667 42.6666666666667 202.6666666666667C42.6666666666667 298.6666666666667 118.6133333333333 301.0133333333333 143.7866666666667 250.4533333333334C154.4533333333333 229.3333333333334 176.8533333333334 220.16 196.6933333333333 216.1066666666667C200.7466666666667 226.3466666666667 207.5733333333333 235.3066666666667 216.32 242.1333333333334C173.8666666666667 320.8533333333334 190.72 405.3333333333333 266.6666666666667 405.3333333333333z" /></svg>