<?xml version="1.0" encoding="UTF-8"?><!DOCTYPE svg PUBLIC "-//W3C//DTD SVG 1.1//EN" "http://www.w3.org/Graphics/SVG/1.1/DTD/svg11.dtd"><svg xmlns="http://www.w3.org/2000/svg" xmlns:xlink="http://www.w3.org/1999/xlink" version="1.1" width="512" height="512" viewBox="0 0 512 512">    <path fill="#ffffff" transform="scale(1, -1) translate(0, -448)" glyph-name="phone-classic" unicode="&#xF602;" horiz-adv-x="512" d=" M256 384C159.1466666666667 384 71.2533333333333 346.0266666666667 6.1866666666667 284.3733333333334C2.3466666666667 280.5333333333334 0 275.2000000000001 0 269.2266666666667C0 263.2533333333334 2.3466666666667 257.9200000000001 6.1866666666667 254.08L59.0933333333333 201.1733333333334C62.9333333333333 197.3333333333334 68.2666666666667 194.9866666666667 74.6666666666667 194.9866666666667C80 194.9866666666667 85.3333333333333 197.3333333333334 89.1733333333333 200.96C106.0266666666667 216.7466666666667 125.2266666666667 229.9733333333334 145.92 240.4266666666667C152.96 243.84 157.8666666666667 251.0933333333334 157.8666666666667 259.6266666666667V325.76C188.8 336 221.6533333333333 341.3333333333334 256 341.3333333333334C289.92 341.3333333333334 322.9866666666667 336 353.92 325.9733333333334V259.8400000000001C353.92 251.52 358.8266666666667 244.0533333333334 365.8666666666666 240.64C386.7733333333333 230.1866666666667 405.3333333333333 216.7466666666667 422.8266666666667 201.1733333333334C426.6666666666667 197.3333333333334 432 195.2 437.3333333333333 195.2C443.7333333333334 195.2 449.0666666666667 197.5466666666667 452.9066666666666 201.3866666666667L505.8133333333333 254.2933333333334C509.6533333333333 258.1333333333334 512 263.4666666666667 512 269.44C512 275.4133333333333 509.4399999999999 280.5333333333333 505.6 284.3733333333334C440.5333333333333 346.0266666666667 352.64 384 256 384M192 298.6666666666667V234.6666666666667S64 128 64 64V-21.3333333333333H448V64C448 128 320 234.6666666666667 320 234.6666666666667V298.6666666666667H277.3333333333333V256H234.6666666666667V298.6666666666667H192M256 192C303.1466666666667 192 341.3333333333333 153.8133333333334 341.3333333333333 106.6666666666667S303.1466666666667 21.3333333333334 256 21.3333333333334S170.6666666666667 59.52 170.6666666666667 106.6666666666667S208.8533333333333 192 256 192M256 160C226.56 160 202.6666666666667 136.1066666666667 202.6666666666667 106.6666666666667S226.56 53.3333333333334 256 53.3333333333334S309.3333333333333 77.2266666666667 309.3333333333333 106.6666666666667S285.44 160 256 160z" /></svg>