<?xml version="1.0" encoding="UTF-8"?><!DOCTYPE svg PUBLIC "-//W3C//DTD SVG 1.1//EN" "http://www.w3.org/Graphics/SVG/1.1/DTD/svg11.dtd"><svg xmlns="http://www.w3.org/2000/svg" xmlns:xlink="http://www.w3.org/1999/xlink" version="1.1" width="512" height="512" viewBox="0 0 512 512">    <path fill="#ffffff" transform="scale(1, -1) translate(0, -448)" glyph-name="av-timer" unicode="&#xF06B;" horiz-adv-x="512" d=" M234.6666666666667 85.3333333333334C234.6666666666667 73.6 244.2666666666667 64 256 64S277.3333333333333 73.6 277.3333333333333 85.3333333333334S267.7333333333334 106.6666666666667 256 106.6666666666667S234.6666666666667 97.0666666666667 234.6666666666667 85.3333333333334M234.6666666666667 384V298.6666666666667H277.3333333333333V339.6266666666667C349.6533333333333 329.1733333333334 405.3333333333333 267.3066666666667 405.3333333333333 192C405.3333333333333 109.44 338.56 42.6666666666667 256 42.6666666666667S106.6666666666667 109.44 106.6666666666667 192C106.6666666666667 227.84 119.2533333333333 260.6933333333334 140.3733333333333 286.2933333333334L256 170.6666666666667L286.08 200.7466666666667L141.0133333333333 345.8133333333334V345.3866666666667C94.2933333333333 310.4 64 254.9333333333334 64 192C64 85.9733333333334 149.9733333333333 0 256 0S448 85.9733333333334 448 192S362.0266666666667 384 256 384M384 192C384 203.7333333333334 374.4 213.3333333333334 362.6666666666667 213.3333333333334S341.3333333333333 203.7333333333334 341.3333333333333 192S350.9333333333333 170.6666666666667 362.6666666666667 170.6666666666667S384 180.2666666666667 384 192M128 192C128 180.2666666666667 137.6 170.6666666666667 149.3333333333333 170.6666666666667S170.6666666666667 180.2666666666667 170.6666666666667 192S161.0666666666667 213.3333333333334 149.3333333333333 213.3333333333334S128 203.7333333333334 128 192z" /></svg>