<?xml version="1.0" encoding="UTF-8"?><!DOCTYPE svg PUBLIC "-//W3C//DTD SVG 1.1//EN" "http://www.w3.org/Graphics/SVG/1.1/DTD/svg11.dtd"><svg xmlns="http://www.w3.org/2000/svg" xmlns:xlink="http://www.w3.org/1999/xlink" version="1.1" width="512" height="512" viewBox="0 0 512 512">    <path fill="#ffffff" transform="scale(1, -1) translate(0, -448)" glyph-name="alarm-bell" unicode="&#xF78D;" horiz-adv-x="512" d=" M320 49.92V-21.3333333333333H106.6666666666667V49.92C172.5866666666667 11.7333333333333 254.08 11.7333333333333 320 49.92M469.3333333333333 362.6666666666667C469.3333333333333 386.1333333333334 450.1333333333334 405.3333333333333 426.6666666666667 405.3333333333333C420.0533333333334 405.3333333333333 413.6533333333333 403.8400000000001 407.8933333333333 400.8533333333334C401.4933333333334 397.6533333333333 395.9466666666667 392.96 391.68 387.2C378.0266666666667 368 382.7199999999999 341.3333333333334 402.1333333333333 327.68C409.1733333333333 322.7733333333333 417.9199999999999 320 426.6666666666666 320H431.7866666666665C468.6933333333332 225.4933333333334 440.7466666666666 118.1866666666667 362.6666666666665 53.3333333333334C355.8399999999998 48 348.7999999999999 42.6666666666667 341.3333333333332 37.9733333333334V0H362.6666666666665V26.8800000000001C429.6533333333332 74.6666666666667 469.3333333333331 152.3200000000001 469.3333333333331 234.6666666666667C469.3333333333331 266.6666666666668 463.3599999999998 298.6666666666668 451.6266666666666 328.1066666666667C462.7199999999999 336.2133333333334 469.3333333333331 349.0133333333334 469.3333333333331 362.6666666666668M383.9999999999999 234.6666666666667C383.9999999999999 140.3733333333334 307.6266666666665 64 213.3333333333332 64S42.6666666666665 140.3733333333333 42.6666666666665 234.6666666666667S119.0399999999999 405.3333333333333 213.3333333333332 405.3333333333333S383.9999999999999 328.9600000000001 383.9999999999999 234.6666666666667z" /></svg>