<?xml version="1.0" encoding="UTF-8"?><!DOCTYPE svg PUBLIC "-//W3C//DTD SVG 1.1//EN" "http://www.w3.org/Graphics/SVG/1.1/DTD/svg11.dtd"><svg xmlns="http://www.w3.org/2000/svg" xmlns:xlink="http://www.w3.org/1999/xlink" version="1.1" width="512" height="512" viewBox="0 0 512 512">    <path fill="#ffffff" transform="scale(1, -1) translate(0, -448)" glyph-name="react" unicode="&#xF707;" horiz-adv-x="512" d=" M256 232.32C277.9733333333333 232.32 295.8933333333333 214.4 295.8933333333333 192C295.8933333333333 170.6666666666667 277.9733333333334 152.5333333333334 256 152.5333333333334C234.0266666666667 152.5333333333334 216.1066666666666 170.6666666666667 216.1066666666666 192C216.1066666666666 214.4 234.0266666666667 232.32 256 232.32M157.2266666666667 21.3333333333334C170.6666666666667 13.2266666666667 200.1066666666666 25.6 234.0266666666667 57.6C222.9333333333333 70.1866666666667 212.0533333333334 83.84 201.8133333333333 98.1333333333333C184.32 99.8399999999999 167.04 102.4 150.6133333333334 105.8133333333333C139.7333333333334 60.16 143.7866666666667 28.8 157.2266666666667 21.3333333333333M172.3733333333333 143.7866666666666L166.1866666666667 154.6666666666666C163.84 148.48 161.4933333333334 142.2933333333333 160 136.3199999999999C165.76 135.04 172.16 133.9733333333333 178.7733333333334 132.9066666666667L172.3733333333333 143.7866666666666M311.8933333333333 160L329.1733333333334 192L311.8933333333333 224C305.4933333333334 235.3066666666666 298.6666666666667 245.3333333333333 292.48 255.36C280.96 256 268.8 256 256 256C243.2 256 231.04 256 219.52 255.36C213.3333333333333 245.3333333333334 206.5066666666667 235.3066666666667 200.1066666666666 224L182.8266666666667 192L200.1066666666667 160C206.5066666666667 148.6933333333334 213.3333333333333 138.6666666666667 219.52 128.64C231.04 128 243.2 128 256 128C268.8 128 280.96 128 292.48 128.64C298.6666666666667 138.6666666666667 305.4933333333334 148.6933333333333 311.8933333333333 160M256 303.36C251.9466666666667 298.6666666666667 247.68 293.76 243.4133333333334 288H268.5866666666667C264.32 293.76 260.0533333333333 298.6666666666667 256 303.36M256 80.64C260.0533333333333 85.3333333333334 264.32 90.24 268.5866666666667 96H243.4133333333334C247.68 90.24 251.9466666666667 85.3333333333334 256 80.64M354.56 362.6666666666667C341.3333333333333 370.7733333333333 311.8933333333333 358.4 277.9733333333334 326.4C289.0666666666667 313.8133333333334 299.9466666666667 300.1600000000001 310.1866666666667 285.8666666666667C327.68 284.1600000000001 344.9600000000001 281.6 361.3866666666667 278.1866666666667C372.2666666666667 323.8400000000001 368.2133333333334 355.2000000000001 354.56 362.6666666666667M339.6266666666667 240.2133333333334L345.8133333333334 229.3333333333334C348.16 235.52 350.5066666666667 241.7066666666667 352 247.68C346.24 248.96 339.84 250.0266666666667 333.2266666666667 251.0933333333334L339.6266666666667 240.2133333333334M370.56 390.6133333333334C401.92 372.6933333333334 405.3333333333333 325.5466666666667 392.1066666666667 270.5066666666667C446.2933333333334 254.5066666666667 485.3333333333334 228.0533333333334 485.3333333333334 192C485.3333333333334 155.9466666666667 446.2933333333334 129.4933333333334 392.1066666666667 113.4933333333334C405.3333333333334 58.4533333333334 401.9200000000001 11.3066666666667 370.56 -6.6133333333333C339.4133333333333 -24.5333333333333 296.9600000000001 -4.0533333333333 256 34.9866666666667C215.04 -4.0533333333333 172.5866666666667 -24.5333333333333 141.2266666666667 -6.6133333333333C110.08 11.3066666666667 106.6666666666667 58.4533333333334 119.8933333333333 113.4933333333334C65.7066666666667 129.4933333333334 26.6666666666667 155.9466666666667 26.6666666666667 192C26.6666666666667 228.0533333333334 65.7066666666667 254.5066666666667 119.8933333333333 270.5066666666667C106.6666666666667 325.5466666666667 110.08 372.6933333333334 141.2266666666667 390.6133333333334C172.5866666666667 408.5333333333333 215.04 388.0533333333334 256 349.0133333333333C296.96 388.0533333333334 339.4133333333333 408.5333333333333 370.56 390.6133333333334M364.3733333333333 192C371.6266666666666 176 378.0266666666667 160 383.36 143.7866666666667C428.16 157.2266666666667 453.3333333333333 176.4266666666667 453.3333333333333 192C453.3333333333333 207.5733333333334 428.16 226.7733333333333 383.36 240.2133333333334C378.0266666666667 224 371.6266666666666 208 364.3733333333333 192M147.6266666666667 192C140.3733333333333 208 133.9733333333333 224 128.64 240.2133333333334C83.84 226.7733333333333 58.6666666666667 207.5733333333334 58.6666666666667 192C58.6666666666667 176.4266666666667 83.84 157.2266666666667 128.64 143.7866666666667C133.9733333333333 160 140.3733333333333 176 147.6266666666667 192M339.6266666666667 143.7866666666667L333.2266666666667 132.9066666666667C339.84 133.9733333333334 346.24 135.04 352 136.3200000000001C350.5066666666667 142.2933333333334 348.16 148.48 345.8133333333334 154.6666666666667L339.6266666666667 143.7866666666667M277.9733333333334 57.6C311.8933333333333 25.6 341.3333333333333 13.2266666666666 354.56 21.3333333333334C368.2133333333334 28.8000000000001 372.2666666666667 60.16 361.3866666666667 105.8133333333334C344.9600000000001 102.4 327.68 99.84 310.1866666666667 98.1333333333334C299.9466666666667 83.84 289.0666666666667 70.1866666666667 277.9733333333334 57.6000000000001M172.3733333333333 240.2133333333334L178.7733333333334 251.0933333333334C172.16 250.0266666666667 165.76 248.96 160 247.68C161.4933333333334 241.7066666666667 163.84 235.52 166.1866666666667 229.3333333333334L172.3733333333333 240.2133333333334M234.0266666666667 326.4C200.1066666666667 358.4 170.6666666666667 370.7733333333333 157.2266666666667 362.6666666666667C143.7866666666667 355.2000000000001 139.7333333333333 323.8400000000001 150.6133333333334 278.1866666666667C167.04 281.6 184.32 284.1600000000001 201.8133333333333 285.8666666666667C212.0533333333334 300.1600000000001 222.9333333333333 313.8133333333334 234.0266666666667 326.4000000000001z" /></svg>