<?xml version="1.0" encoding="UTF-8"?><!DOCTYPE svg PUBLIC "-//W3C//DTD SVG 1.1//EN" "http://www.w3.org/Graphics/SVG/1.1/DTD/svg11.dtd"><svg xmlns="http://www.w3.org/2000/svg" xmlns:xlink="http://www.w3.org/1999/xlink" version="1.1" width="512" height="512" viewBox="0 0 512 512">    <path fill="#ffffff" transform="scale(1, -1) translate(0, -448)" glyph-name="uber" unicode="&#xF748;" horiz-adv-x="512" d=" M136.1066666666667 165.5466666666667V255.1466666666667H157.8666666666667V110.08H136.32V123.5200000000001C126.5066666666667 113.4933333333334 112.8533333333333 107.52 97.7066666666667 107.52C66.56 107.52 42.6666666666667 130.1333333333333 42.6666666666667 164.2666666666667V255.1466666666667H64V165.5466666666668C64 142.2933333333334 79.7866666666667 127.1466666666667 100.2666666666667 127.1466666666667C120.32 127.1466666666667 136.1066666666667 142.72 136.1066666666667 165.5466666666668M194.9866666666667 255.1466666666667V202.6666666666667C199.8933333333334 207.1466666666667 205.8666666666667 211.2 212.2666666666667 213.9733333333333C218.6666666666667 216.5333333333333 225.7066666666667 218.0266666666667 232.7466666666667 218.0266666666667C263.8933333333333 218.0266666666667 288 193.28 288 162.7733333333333S263.8933333333333 107.52 232.7466666666667 107.52C225.7066666666667 107.52 218.6666666666667 109.0133333333333 212.2666666666667 111.5733333333333C205.6533333333333 114.3466666666667 199.8933333333333 118.4 194.7733333333333 123.3066666666667V110.08H174.08V255.1466666666667H194.9866666666666M267.7333333333333 162.7733333333334C267.7333333333333 183.2533333333333 251.0933333333333 199.4666666666667 231.2533333333334 199.4666666666667C210.9866666666667 199.4666666666667 194.7733333333333 183.2533333333334 194.7733333333333 162.7733333333334C194.7733333333333 142.5066666666667 210.7733333333333 126.0800000000001 231.2533333333334 126.0800000000001C251.0933333333333 126.0800000000001 267.7333333333334 142.5066666666667 267.7333333333334 162.7733333333334M351.1466666666667 217.8133333333334C381.8666666666667 217.8133333333334 404.2666666666667 194.3466666666667 404.2666666666667 162.9866666666667V155.9466666666667H318.0800000000001C320.8533333333334 138.6666666666667 335.1466666666668 126.0800000000001 353.0666666666667 126.0800000000001C365.4400000000001 126.0800000000001 375.6800000000001 130.9866666666667 384.0000000000001 141.6533333333334L398.9333333333334 130.3466666666667C388.2666666666667 116.2666666666667 372.4800000000001 107.7333333333334 353.0666666666667 107.7333333333334C321.2800000000001 107.7333333333334 296.7466666666668 131.4133333333334 296.7466666666668 162.9866666666667C296.7466666666668 192.6400000000001 320.0000000000001 217.8133333333334 351.1466666666668 217.8133333333334M318.2933333333334 172.5866666666667H382.9333333333335C379.5200000000001 188.8 366.5066666666668 199.4666666666667 350.7200000000001 199.4666666666667C335.1466666666668 199.4666666666667 322.1333333333335 188.8 318.2933333333334 172.5866666666667M437.3333333333335 170.6666666666667V110.08H416.0000000000001V215.68H436.6933333333335V202.6666666666667C441.8133333333334 211.2 450.3466666666668 216.5333333333334 462.0800000000002 216.5333333333334H469.3333333333333V197.12H460.5866666666666C446.9333333333333 197.12 437.3333333333333 186.4533333333334 437.3333333333333 170.6666666666667" /></svg>