<?xml version="1.0" encoding="UTF-8"?><!DOCTYPE svg PUBLIC "-//W3C//DTD SVG 1.1//EN" "http://www.w3.org/Graphics/SVG/1.1/DTD/svg11.dtd"><svg xmlns="http://www.w3.org/2000/svg" xmlns:xlink="http://www.w3.org/1999/xlink" version="1.1" width="512" height="512" viewBox="0 0 512 512">    <path fill="#ffffff" transform="scale(1, -1) translate(0, -448)" glyph-name="ampersand" unicode="&#xFA8C;" horiz-adv-x="512" d=" M93.8666666666667 96C93.8666666666667 115.2000000000001 100.2666666666667 134.4 110.9333333333333 151.4666666666667S142.9333333333333 187.7333333333334 174.9333333333333 209.0666666666667C155.7333333333333 232.5333333333334 145.0666666666666 249.6 138.6666666666666 262.4000000000001C130.1333333333333 277.3333333333334 128 290.1333333333334 128 305.0666666666667C128 337.0666666666667 136.5333333333333 360.5333333333334 155.7333333333333 379.7333333333334C174.9333333333333 398.9333333333334 200.5333333333333 405.3333333333334 232.5333333333333 405.3333333333334C260.2666666666667 405.3333333333334 283.7333333333333 396.8 302.9333333333333 379.7333333333334C322.1333333333334 362.6666666666667 330.6666666666667 341.3333333333334 330.6666666666667 317.8666666666667C330.6666666666667 300.8 326.4 285.8666666666667 317.8666666666667 270.9333333333334C309.3333333333333 256 294.4 241.0666666666667 273.0666666666667 226.1333333333334L243.2 202.6666666666667L334.9333333333333 91.7333333333334C347.7333333333334 117.3333333333334 354.1333333333333 142.9333333333334 354.1333333333333 174.9333333333334H401.0666666666666C401.0666666666666 125.8666666666667 390.3999999999999 85.3333333333334 366.9333333333332 53.3333333333334L426.6666666666666 -17.0666666666667H362.6666666666666L334.9333333333332 14.9333333333333C319.9999999999999 2.1333333333333 305.0666666666666 -6.4 285.8666666666666 -12.8C266.6666666666665 -19.2 247.4666666666666 -23.4666666666667 228.2666666666666 -23.4666666666667C187.7333333333332 -23.4666666666667 155.7333333333332 -12.8 130.1333333333333 8.5333333333333C106.6666666666666 32 93.8666666666666 59.7333333333333 93.8666666666666 96M228.2666666666666 21.3333333333334C255.9999999999999 21.3333333333334 281.5999999999999 32 305.0666666666666 53.3333333333334L204.7999999999999 174.9333333333333L196.2666666666666 168.5333333333333C164.2666666666667 145.0666666666667 149.3333333333333 121.6 149.3333333333333 96C149.3333333333333 72.5333333333333 155.7333333333333 55.4666666666667 170.6666666666667 42.6666666666667C185.6 29.8666666666667 202.6666666666667 21.3333333333334 228.2666666666667 21.3333333333334M181.3333333333333 305.0666666666667C181.3333333333333 285.8666666666667 192 264.5333333333334 215.4666666666667 236.8L249.6 260.2666666666667C262.4 268.8 270.9333333333333 277.3333333333334 275.2 285.8666666666667C279.4666666666666 294.4 281.6 305.0666666666667 281.6 315.7333333333334C281.6 328.5333333333333 277.3333333333333 339.2 266.6666666666667 347.7333333333334C258.1333333333334 356.2666666666667 245.3333333333333 360.5333333333333 230.4 360.5333333333333S202.6666666666667 356.2666666666667 194.1333333333334 345.6C185.6 334.9333333333333 181.3333333333334 322.1333333333334 181.3333333333334 305.0666666666667z" /></svg>