<?xml version="1.0" encoding="UTF-8"?><!DOCTYPE svg PUBLIC "-//W3C//DTD SVG 1.1//EN" "http://www.w3.org/Graphics/SVG/1.1/DTD/svg11.dtd"><svg xmlns="http://www.w3.org/2000/svg" xmlns:xlink="http://www.w3.org/1999/xlink" version="1.1" width="512" height="512" viewBox="0 0 512 512">    <path fill="#ffffff" transform="scale(1, -1) translate(0, -448)" glyph-name="ember" unicode="&#xFB15;" horiz-adv-x="512" d=" M469.3333333333333 144.64S375.68 77.8666666666667 314.0266666666667 77.0133333333333C252.5866666666667 75.9466666666667 258.7733333333333 116.0533333333334 258.7733333333333 116.0533333333334S484.48 193.28 423.04 345.8133333333334C395.3066666666666 385.0666666666667 362.6666666666667 397.44 317.6533333333333 396.3733333333334C272.2133333333333 395.52 216.96 367.7866666666667 180.4799999999999 285.8666666666667C162.9866666666666 246.6133333333333 158.0799999999999 209.4933333333334 154.4533333333333 181.3333333333334C154.4533333333333 181.3333333333334 113.4933333333333 173.2266666666667 92.1599999999999 191.1466666666667C70.8266666666666 209.0666666666667 59.0933333333333 191.1466666666667 59.0933333333333 191.1466666666667S21.9733333333333 145.0666666666667 58.6666666666666 130.7733333333334C95.1466666666666 116.48 151.8933333333333 110.5066666666667 151.8933333333333 110.5066666666667C157.0133333333333 85.3333333333334 172.3733333333333 42.6666666666667 216.96 8.5333333333334C283.7333333333333 -42.6666666666666 412.16 12.8000000000001 412.16 12.8000000000001M248.1066666666667 184.96C250.88 290.9866666666667 320 337.4933333333334 344.5333333333333 314.24C368.4266666666666 290.9866666666667 359.68 241.0666666666667 314.0266666666667 209.9200000000001C268.5866666666667 178.5600000000001 248.1066666666667 184.96 248.1066666666667 184.96z" /></svg>