<?xml version="1.0" encoding="UTF-8"?><!DOCTYPE svg PUBLIC "-//W3C//DTD SVG 1.1//EN" "http://www.w3.org/Graphics/SVG/1.1/DTD/svg11.dtd"><svg xmlns="http://www.w3.org/2000/svg" xmlns:xlink="http://www.w3.org/1999/xlink" version="1.1" width="512" height="512" viewBox="0 0 512 512">    <path fill="#ffffff" transform="scale(1, -1) translate(0, -448)" glyph-name="pen" unicode="&#xF3EA;" horiz-adv-x="512" d=" M441.8133333333334 297.8133333333334C434.56 290.56 427.52 283.52 427.3066666666667 276.48C426.6666666666667 269.6533333333334 433.92 262.6133333333334 440.7466666666667 256C450.9866666666667 245.3333333333334 461.0133333333333 235.7333333333334 460.5866666666666 225.2800000000001C460.16 214.8266666666667 449.28 203.9466666666667 438.4 193.28L350.2933333333334 104.96L320 135.2533333333333L410.6666666666667 225.7066666666667L390.1866666666666 246.1866666666667L359.8933333333333 216.1066666666667L279.8933333333333 296.1066666666667L361.8133333333333 377.8133333333334C370.1333333333333 386.1333333333334 383.9999999999999 386.1333333333334 391.8933333333333 377.8133333333334L441.8133333333333 327.8933333333333C450.1333333333333 320 450.1333333333333 306.1333333333334 441.8133333333333 297.8133333333334M64 80L267.9466666666667 284.1600000000001L347.9466666666667 204.16L144 0H64V80z" /></svg>