<?xml version="1.0" encoding="UTF-8"?><!DOCTYPE svg PUBLIC "-//W3C//DTD SVG 1.1//EN" "http://www.w3.org/Graphics/SVG/1.1/DTD/svg11.dtd"><svg xmlns="http://www.w3.org/2000/svg" xmlns:xlink="http://www.w3.org/1999/xlink" version="1.1" width="512" height="512" viewBox="0 0 512 512">    <path fill="#ffffff" transform="scale(1, -1) translate(0, -448)" glyph-name="bolt" unicode="&#xFD8F;" horiz-adv-x="512" d=" M298.6666666666667 70.4V0H213.3333333333333V14.9333333333333L298.6666666666667 70.4M362.6666666666667 384H149.3333333333333V320H362.6666666666667V384M320 298.6666666666667L298.6666666666667 283.7333333333334V298.6666666666667H213.3333333333333V228.2666666666667L192 213.3333333333334V192L320 275.2000000000001V298.6666666666667M320 213.3333333333334L298.6666666666667 198.4V241.0666666666667L213.3333333333333 183.4666666666667V140.8000000000001L192 128V106.6666666666667L320 189.8666666666667V213.3333333333334M320 128L298.6666666666667 113.0666666666667V155.7333333333334L213.3333333333333 98.1333333333334V55.4666666666667L192 42.6666666666667V21.3333333333334L320 104.5333333333333V128z" /></svg>