<?xml version="1.0" encoding="UTF-8"?><!DOCTYPE svg PUBLIC "-//W3C//DTD SVG 1.1//EN" "http://www.w3.org/Graphics/SVG/1.1/DTD/svg11.dtd"><svg xmlns="http://www.w3.org/2000/svg" xmlns:xlink="http://www.w3.org/1999/xlink" version="1.1" width="512" height="512" viewBox="0 0 512 512">    <path fill="#ffffff" transform="scale(1, -1) translate(0, -448)" glyph-name="folder-network-outline" unicode="&#xFC5D;" horiz-adv-x="512" d=" M320 21.3333333333334C320 33.0666666666667 310.4 42.6666666666667 298.6666666666667 42.6666666666667H277.3333333333333V85.3333333333334H405.3333333333333C428.8 85.3333333333334 448 104.5333333333333 448 128V298.6666666666667C448 322.1333333333334 428.8 341.3333333333334 405.3333333333333 341.3333333333334H277.3333333333333L234.6666666666667 384H106.6666666666667C83.2 384 64 364.8 64 341.3333333333334V128C64 104.5333333333333 83.2 85.3333333333334 106.6666666666667 85.3333333333334H234.6666666666667V42.6666666666667H213.3333333333333C201.6 42.6666666666667 192 33.0666666666667 192 21.3333333333334H42.6666666666667V-21.3333333333333H192C192 -33.0666666666667 201.6 -42.6666666666666 213.3333333333333 -42.6666666666666H298.6666666666667C310.4 -42.6666666666666 320 -33.0666666666667 320 -21.3333333333333H469.3333333333333V21.3333333333334H320M106.6666666666667 128V341.3333333333334H216.96L247.2533333333334 311.2533333333334L259.6266666666667 298.6666666666667H405.3333333333333V128H106.6666666666667z" /></svg>