<?xml version="1.0" encoding="UTF-8"?><!DOCTYPE svg PUBLIC "-//W3C//DTD SVG 1.1//EN" "http://www.w3.org/Graphics/SVG/1.1/DTD/svg11.dtd"><svg xmlns="http://www.w3.org/2000/svg" xmlns:xlink="http://www.w3.org/1999/xlink" version="1.1" width="512" height="512" viewBox="0 0 512 512">    <path fill="#ffffff" transform="scale(1, -1) translate(0, -448)" glyph-name="onedrive" unicode="&#xF3CA;" horiz-adv-x="512" d=" M428.3733333333333 157.0133333333333C451.6266666666666 153.3866666666667 469.3333333333333 133.3333333333334 469.3333333333333 109.0133333333333C469.3333333333333 90.0266666666666 458.6666666666666 73.6 442.6666666666667 65.7066666666667L439.04 64H195.4133333333333C164.48 64 139.52 89.3866666666667 139.52 120.3200000000001C139.52 151.4666666666667 164.6933333333333 176.6400000000001 195.84 176.6400000000001L200.5333333333333 176.4266666666667L200.32 180.6933333333334C200.32 219.5200000000001 231.8933333333334 251.0933333333334 270.7200000000001 251.0933333333334C298.0266666666667 251.0933333333334 321.7066666666667 235.52 333.44 213.3333333333334C343.04 219.0933333333333 354.56 222.9333333333333 367.1466666666667 222.9333333333333C401.0666666666667 222.9333333333333 428.5866666666667 195.4133333333334 428.5866666666667 161.4933333333334L428.3733333333333 157.0133333333333M188.16 188.5866666666667C153.8133333333333 184.7466666666667 127.1466666666667 155.7333333333334 127.1466666666667 120.3200000000001C127.1466666666667 105.8133333333334 131.6266666666667 92.5866666666667 138.6666666666667 81.4933333333333H100.9066666666667C68.6933333333333 81.4933333333333 42.6666666666667 107.52 42.6666666666667 139.7333333333334C42.6666666666667 170.6666666666667 66.56 195.6266666666667 96.64 197.7600000000001L95.1466666666667 212.0533333333334C95.1466666666667 248.32 124.5866666666667 277.3333333333334 160.8533333333333 277.3333333333334C174.2933333333333 277.3333333333334 187.0933333333333 273.4933333333334 197.5466666666667 266.6666666666667C212.2666666666667 296.32 243.2 316.8 278.8266666666667 316.8C325.76 316.8 364.3733333333333 280.9600000000001 369.0666666666667 235.3066666666667H367.1466666666667C356.9066666666667 235.3066666666667 347.0933333333333 233.1733333333334 337.92 229.3333333333334C322.56 250.6666666666667 297.8133333333334 263.68 270.72 263.68C227.6266666666667 263.68 192 230.6133333333333 188.16 188.5866666666667z" /></svg>