<?xml version="1.0" encoding="UTF-8"?><!DOCTYPE svg PUBLIC "-//W3C//DTD SVG 1.1//EN" "http://www.w3.org/Graphics/SVG/1.1/DTD/svg11.dtd"><svg xmlns="http://www.w3.org/2000/svg" xmlns:xlink="http://www.w3.org/1999/xlink" version="1.1" width="512" height="512" viewBox="0 0 512 512">    <path fill="#ffffff" transform="scale(1, -1) translate(0, -448)" glyph-name="spotify" unicode="&#xF4C7;" horiz-adv-x="512" d=" M381.8666666666666 215.4666666666667C313.6 256 199.4666666666667 260.2666666666667 134.4 240C123.7333333333333 236.8 113.0666666666667 243.2 109.8666666666667 252.8C106.6666666666667 263.4666666666667 113.0666666666667 274.1333333333334 122.6666666666667 277.3333333333334C198.4 299.7333333333334 323.2 295.4666666666667 402.1333333333334 248.5333333333334C411.7333333333334 243.2 414.9333333333334 230.4000000000001 409.6 220.8C404.2666666666667 213.3333333333334 391.4666666666667 210.1333333333333 381.8666666666667 215.4666666666667M379.7333333333334 155.7333333333334C374.4 148.2666666666667 364.8 145.0666666666667 357.3333333333333 150.4C299.7333333333334 185.6 212.2666666666667 196.2666666666667 145.0666666666667 174.9333333333334C136.5333333333333 172.8000000000001 126.9333333333334 177.0666666666667 124.8 185.6C122.6666666666667 194.1333333333334 126.9333333333333 203.7333333333334 135.4666666666667 205.8666666666667C213.3333333333333 229.3333333333334 309.3333333333333 217.6 375.4666666666667 177.0666666666667C381.8666666666667 173.8666666666667 385.0666666666667 163.2000000000001 379.7333333333334 155.7333333333334M354.1333333333334 97.0666666666667C349.8666666666667 90.6666666666667 342.4 88.5333333333334 336 92.8000000000001C285.8666666666667 123.7333333333334 222.9333333333334 130.1333333333334 148.2666666666667 113.0666666666667C140.8 110.9333333333334 134.4 116.2666666666667 132.2666666666667 122.6666666666667C130.1333333333334 130.1333333333333 135.4666666666667 136.5333333333334 141.8666666666667 138.6666666666667C222.9333333333333 156.8 293.3333333333333 149.3333333333334 348.8 115.2000000000001C356.2666666666667 112 357.3333333333333 103.4666666666667 354.1333333333334 97.0666666666667M256 405.3333333333333C138.24 405.3333333333333 42.6666666666667 309.76 42.6666666666667 192S138.24 -21.3333333333333 256 -21.3333333333333S469.3333333333333 74.24 469.3333333333333 192S373.76 405.3333333333333 256 405.3333333333333z" /></svg>