<?xml version="1.0" encoding="UTF-8"?><!DOCTYPE svg PUBLIC "-//W3C//DTD SVG 1.1//EN" "http://www.w3.org/Graphics/SVG/1.1/DTD/svg11.dtd"><svg xmlns="http://www.w3.org/2000/svg" xmlns:xlink="http://www.w3.org/1999/xlink" version="1.1" width="512" height="512" viewBox="0 0 512 512">    <path fill="#ffffff" transform="scale(1, -1) translate(0, -448)" glyph-name="apple-safari" unicode="&#xF039;" horiz-adv-x="512" d=" M256 405.3333333333333C373.76 405.3333333333333 469.3333333333333 309.76 469.3333333333333 192S373.76 -21.3333333333333 256 -21.3333333333333S42.6666666666667 74.24 42.6666666666667 192S138.24 405.3333333333333 256 405.3333333333333M256 362.6666666666667C161.7066666666667 362.6666666666667 85.3333333333333 286.2933333333334 85.3333333333333 192C85.3333333333333 147.4133333333334 102.4 106.6666666666667 130.3466666666666 76.5866666666667L210.7733333333333 237.2266666666667L371.4133333333333 317.6533333333334C341.3333333333333 345.6 300.5866666666667 362.6666666666667 256 362.6666666666667M256 21.3333333333334C350.2933333333334 21.3333333333334 426.6666666666667 97.7066666666667 426.6666666666667 192C426.6666666666667 236.5866666666667 409.6 277.3333333333334 381.6533333333333 307.4133333333334L301.2266666666667 146.7733333333333L140.5866666666667 66.3466666666667C170.6666666666667 38.4 211.4133333333333 21.3333333333334 256 21.3333333333334M256 192L239.5733333333333 208.4266666666667L206.9333333333333 142.9333333333333L272.4266666666666 175.5733333333333L256 192M256 74.6666666666667H277.3333333333333V42.6666666666667H256V74.6666666666667M338.7733333333333 109.0133333333333L353.92 124.16L376.5333333333333 101.5466666666667L361.3866666666666 86.4L338.7733333333333 109.0133333333334M373.3333333333333 192V213.3333333333334H405.3333333333333V192H373.3333333333333M256 309.3333333333334H234.6666666666667V341.3333333333334H256V309.3333333333334M173.2266666666666 274.9866666666667L158.08 259.8400000000001L135.4666666666667 282.4533333333334L150.6133333333333 297.6L173.2266666666666 274.9866666666667M138.6666666666667 192V170.6666666666667H106.6666666666667V192H138.6666666666667z" /></svg>