<?xml version="1.0" encoding="UTF-8"?><!DOCTYPE svg PUBLIC "-//W3C//DTD SVG 1.1//EN" "http://www.w3.org/Graphics/SVG/1.1/DTD/svg11.dtd"><svg xmlns="http://www.w3.org/2000/svg" xmlns:xlink="http://www.w3.org/1999/xlink" version="1.1" width="512" height="512" viewBox="0 0 512 512">    <path fill="#ffffff" transform="scale(1, -1) translate(0, -448)" glyph-name="account-clock-outline" unicode="&#xFB33;" horiz-adv-x="512" d=" M341.3333333333333 149.3333333333334H373.3333333333333V89.1733333333334L425.3866666666667 59.0933333333334L409.3866666666667 31.36L341.3333333333333 70.6133333333334V149.3333333333334M362.6666666666667 192C303.7866666666667 192 256 144.2133333333334 256 85.3333333333334S303.7866666666667 -21.3333333333333 362.6666666666667 -21.3333333333333S469.3333333333333 26.4533333333334 469.3333333333333 85.3333333333334S421.5466666666666 192 362.6666666666667 192M362.6666666666667 234.6666666666667C445.2266666666667 234.6666666666667 512 167.8933333333334 512 85.3333333333334S445.2266666666667 -64 362.6666666666667 -64C303.1466666666667 -64 251.7333333333334 -29.0133333333333 227.6266666666667 21.3333333333334H21.3333333333333V85.3333333333334C21.3333333333333 142.0800000000001 135.04 170.6666666666667 192 170.6666666666667C204.8 170.6666666666667 220.5866666666667 169.1733333333334 237.2266666666667 166.4C263.68 207.36 309.9733333333333 234.6666666666667 362.6666666666667 234.6666666666667M213.3333333333333 85.3333333333334C213.3333333333333 100.2666666666667 215.4666666666667 114.7733333333333 219.52 128C210.56 129.4933333333334 201.1733333333333 130.1333333333333 192 130.1333333333333C128.64 130.1333333333333 61.8666666666667 98.9866666666667 61.8666666666667 85.3333333333334V61.8666666666667H215.2533333333333C213.9733333333333 69.5466666666666 213.3333333333333 77.44 213.3333333333333 85.3333333333334M192 362.6666666666667C239.1466666666667 362.6666666666667 277.3333333333333 324.48 277.3333333333333 277.3333333333334S239.1466666666667 192 192 192S106.6666666666667 230.1866666666667 106.6666666666667 277.3333333333334S144.8533333333333 362.6666666666667 192 362.6666666666667M192 322.1333333333334C167.2533333333333 322.1333333333334 147.2 302.0800000000001 147.2 277.3333333333334C147.2 252.5866666666667 167.2533333333333 232.5333333333334 192 232.5333333333334C216.7466666666667 232.5333333333334 236.8 252.5866666666667 236.8 277.3333333333334C236.8 302.0800000000001 216.7466666666667 322.1333333333334 192 322.1333333333334z" /></svg>