<?xml version="1.0" encoding="UTF-8"?><!DOCTYPE svg PUBLIC "-//W3C//DTD SVG 1.1//EN" "http://www.w3.org/Graphics/SVG/1.1/DTD/svg11.dtd"><svg xmlns="http://www.w3.org/2000/svg" xmlns:xlink="http://www.w3.org/1999/xlink" version="1.1" width="512" height="512" viewBox="0 0 512 512">    <path fill="#ffffff" transform="scale(1, -1) translate(0, -448)" glyph-name="sim" unicode="&#xF4A7;" horiz-adv-x="512" d=" M426.6666666666667 362.6666666666667C426.6666666666667 386.1333333333334 407.4666666666667 405.3333333333333 384 405.3333333333333H213.3333333333333L85.3333333333333 277.3333333333334V21.3333333333334C85.3333333333333 -2.1333333333333 104.5333333333333 -21.3333333333333 128 -21.3333333333333H384C407.68 -21.3333333333333 426.6666666666667 -2.1333333333333 426.6666666666667 21.3333333333334V362.6666666666667M192 42.6666666666667H149.3333333333333V85.3333333333334H192V42.6666666666667M362.6666666666667 42.6666666666667H320V85.3333333333334H362.6666666666667V42.6666666666667M192 128H149.3333333333333V213.3333333333334H192V128M277.3333333333333 42.6666666666667H234.6666666666667V128H277.3333333333333V42.6666666666667M277.3333333333333 170.6666666666667H234.6666666666667V213.3333333333334H277.3333333333333V170.6666666666667M362.6666666666667 128H320V213.3333333333334H362.6666666666667V128z" /></svg>