<?xml version="1.0" encoding="UTF-8"?><!DOCTYPE svg PUBLIC "-//W3C//DTD SVG 1.1//EN" "http://www.w3.org/Graphics/SVG/1.1/DTD/svg11.dtd"><svg xmlns="http://www.w3.org/2000/svg" xmlns:xlink="http://www.w3.org/1999/xlink" version="1.1" width="512" height="512" viewBox="0 0 512 512">    <path fill="#ffffff" transform="scale(1, -1) translate(0, -448)" glyph-name="google-circles" unicode="&#xF2B0;" horiz-adv-x="512" d=" M355.4133333333333 128H362.6666666666667C384 128 405.3333333333333 132.2666666666667 423.8933333333333 139.52C408.9600000000001 48.4266666666667 330.0266666666667 -21.3333333333333 234.6666666666667 -21.3333333333333C128 -21.3333333333333 42.6666666666667 64.64 42.6666666666667 170.6666666666667C42.6666666666667 266.0266666666667 112.4266666666667 344.9600000000001 203.5200000000001 359.8933333333333C196.2666666666667 341.3333333333334 192 320 192 298.6666666666667V291.4133333333334C142.5066666666667 273.92 106.6666666666667 226.5600000000001 106.6666666666667 170.6666666666667C106.6666666666667 100.0533333333334 164.0533333333333 42.6666666666667 234.6666666666667 42.6666666666667C290.56 42.6666666666667 337.92 78.5066666666667 355.4133333333333 128M362.6666666666667 234.6666666666667C398.08 234.6666666666667 426.6666666666667 263.2533333333334 426.6666666666667 298.6666666666667S398.08 362.6666666666667 362.6666666666667 362.6666666666667S298.6666666666667 334.0800000000001 298.6666666666667 298.6666666666667S327.2533333333334 234.6666666666667 362.6666666666667 234.6666666666667M362.6666666666667 426.6666666666667C433.28 426.6666666666667 490.6666666666666 369.28 490.6666666666666 298.6666666666667S433.28 170.6666666666667 362.6666666666667 170.6666666666667S234.6666666666667 228.0533333333334 234.6666666666667 298.6666666666667C234.6666666666667 369.4933333333334 292.0533333333333 426.6666666666667 362.6666666666667 426.6666666666667z" /></svg>