<?xml version="1.0" encoding="UTF-8"?><!DOCTYPE svg PUBLIC "-//W3C//DTD SVG 1.1//EN" "http://www.w3.org/Graphics/SVG/1.1/DTD/svg11.dtd"><svg xmlns="http://www.w3.org/2000/svg" xmlns:xlink="http://www.w3.org/1999/xlink" version="1.1" width="512" height="512" viewBox="0 0 512 512">    <path fill="#ffffff" transform="scale(1, -1) translate(0, -448)" glyph-name="podium" unicode="&#xFD01;" horiz-adv-x="512" d=" M256 296.7466666666667L308.2666666666667 264.9600000000001L294.4 324.9066666666667L341.3333333333333 365.0133333333333L279.68 370.3466666666667L256 426.6666666666667L231.8933333333334 370.3466666666667L170.6666666666667 365.0133333333333L217.1733333333333 324.9066666666667L202.6666666666667 264.9600000000001L256 296.7466666666667M85.3333333333333 168.7466666666667L137.6 136.96L123.7333333333333 196.9066666666667L170.6666666666667 237.0133333333333L109.0133333333333 242.3466666666667L85.3333333333333 298.6666666666667L61.2266666666667 242.3466666666667L0 237.0133333333333L46.5066666666667 196.9066666666667L32 136.96L85.3333333333333 168.7466666666667M426.6666666666667 232.7466666666667L478.9333333333333 200.96L465.0666666666667 260.9066666666667L512 301.0133333333333L450.3466666666667 306.3466666666667L426.6666666666667 362.6666666666667L402.56 306.3466666666667L341.3333333333333 301.0133333333333L387.84 260.9066666666667L373.3333333333333 200.96L426.6666666666667 232.7466666666667M320 -42.6666666666666H192V234.6666666666667H320V-42.6666666666666M149.3333333333333 -42.6666666666666H21.3333333333333V85.3333333333334H149.3333333333333V-42.6666666666666M490.6666666666666 -42.6666666666666H362.6666666666667V170.6666666666667H490.6666666666666V-42.6666666666666z" /></svg>