<?xml version="1.0" encoding="UTF-8"?><!DOCTYPE svg PUBLIC "-//W3C//DTD SVG 1.1//EN" "http://www.w3.org/Graphics/SVG/1.1/DTD/svg11.dtd"><svg xmlns="http://www.w3.org/2000/svg" xmlns:xlink="http://www.w3.org/1999/xlink" version="1.1" width="512" height="512" viewBox="0 0 512 512">    <path fill="#ffffff" transform="scale(1, -1) translate(0, -448)" glyph-name="video-vintage" unicode="&#xFA1B;" horiz-adv-x="512" d=" M384 138.6666666666667V213.3333333333334C384 225.0666666666667 374.4 234.6666666666667 362.6666666666667 234.6666666666667H341.3333333333333C389.12 269.0133333333333 400.2133333333333 335.5733333333334 365.8666666666666 384C331.52 431.36 264.96 442.4533333333333 216.96 408.1066666666667C202.6666666666667 397.8666666666667 191.1466666666667 384 183.4666666666667 368.4266666666667C133.3333333333333 399.36 67.6266666666667 384 36.6933333333333 333.44C5.9733333333333 283.3066666666667 21.3333333333333 217.6 71.68 186.6666666666667C76.16 184.1066666666667 80.64 181.3333333333334 85.3333333333333 179.6266666666667V0C85.3333333333333 -11.7333333333333 94.9333333333333 -21.3333333333333 106.6666666666667 -21.3333333333333H362.6666666666667C374.4 -21.3333333333333 384 -11.7333333333333 384 0V74.6666666666667L469.3333333333333 -10.6666666666666V224L384 138.6666666666667M277.3333333333333 362.6666666666667C300.8 362.6666666666667 320 343.4666666666667 320 320S300.8 277.3333333333334 277.3333333333333 277.3333333333334S234.6666666666667 296.5333333333334 234.6666666666667 320S253.8666666666667 362.6666666666667 277.3333333333333 362.6666666666667M128 320C151.4666666666667 320 170.6666666666667 300.8 170.6666666666667 277.3333333333334S151.4666666666667 234.6666666666667 128 234.6666666666667S85.3333333333333 253.8666666666667 85.3333333333333 277.3333333333334S104.5333333333333 320 128 320z" /></svg>