<?xml version="1.0" encoding="UTF-8"?><!DOCTYPE svg PUBLIC "-//W3C//DTD SVG 1.1//EN" "http://www.w3.org/Graphics/SVG/1.1/DTD/svg11.dtd"><svg xmlns="http://www.w3.org/2000/svg" xmlns:xlink="http://www.w3.org/1999/xlink" version="1.1" width="512" height="512" viewBox="0 0 512 512">    <path fill="#ffffff" transform="scale(1, -1) translate(0, -448)" glyph-name="soccer-field" unicode="&#xF833;" horiz-adv-x="512" d=" M85.3333333333333 362.6666666666667C61.6533333333333 362.6666666666667 42.6666666666667 343.68 42.6666666666667 320V64C42.6666666666667 40.5333333333333 61.8666666666667 21.3333333333334 85.3333333333333 21.3333333333334H426.6666666666667C450.1333333333334 21.3333333333334 469.3333333333333 40.5333333333333 469.3333333333333 64V320C469.3333333333333 343.68 450.1333333333334 362.6666666666667 426.6666666666667 362.6666666666667H85.3333333333333M85.3333333333333 320H234.6666666666667V274.5600000000001C197.12 264.7466666666667 170.6666666666667 230.8266666666667 170.6666666666667 192C170.6666666666667 153.1733333333334 197.12 119.2533333333333 234.6666666666667 109.44V64H85.3333333333333V106.6666666666667H149.3333333333333V277.3333333333334H85.3333333333333V320M277.3333333333333 320H426.6666666666667V277.3333333333334H362.6666666666667V106.6666666666667H426.6666666666667V64H277.3333333333333V109.44C314.88 119.2533333333333 341.3333333333333 153.1733333333334 341.3333333333333 192C341.3333333333333 230.8266666666667 314.88 264.7466666666667 277.3333333333333 274.5600000000001V320M85.3333333333333 234.6666666666667H106.6666666666667V149.3333333333334H85.3333333333333V234.6666666666667M405.3333333333333 234.6666666666667H426.6666666666667V149.3333333333334H405.3333333333333V234.6666666666667M277.3333333333333 228.9066666666667C290.56 221.2266666666667 298.6666666666667 207.1466666666667 298.6666666666667 192S290.56 162.7733333333333 277.3333333333333 155.0933333333334V228.9066666666667M234.6666666666667 228.9066666666667V155.0933333333334C221.44 162.7733333333333 213.3333333333333 176.8533333333334 213.3333333333333 192S221.44 221.2266666666667 234.6666666666667 228.9066666666667z" /></svg>