<?xml version="1.0" encoding="UTF-8"?><!DOCTYPE svg PUBLIC "-//W3C//DTD SVG 1.1//EN" "http://www.w3.org/Graphics/SVG/1.1/DTD/svg11.dtd"><svg xmlns="http://www.w3.org/2000/svg" xmlns:xlink="http://www.w3.org/1999/xlink" version="1.1" width="512" height="512" viewBox="0 0 512 512">    <path fill="#ffffff" transform="scale(1, -1) translate(0, -448)" glyph-name="email-plus-outline" unicode="&#xF9EB;" horiz-adv-x="512" d=" M64 362.6666666666667C40.32 362.6666666666667 21.3333333333333 343.68 21.3333333333333 320V64C21.3333333333333 40.5333333333333 40.5333333333333 21.3333333333334 64 21.3333333333334H298.6666666666667V64H64V269.4400000000001L234.6666666666667 162.9866666666667L405.3333333333333 269.4400000000001V170.6666666666667H448V320C448 343.4666666666667 428.8 362.6666666666667 405.3333333333333 362.6666666666667H64M64 320H405.3333333333333L234.6666666666667 213.3333333333334L64 320M405.3333333333333 128V64H341.3333333333333V21.3333333333334H405.3333333333333V-42.6666666666666H448V21.3333333333334H512V64H448V128H405.3333333333333z" /></svg>