<?xml version="1.0" encoding="UTF-8"?><!DOCTYPE svg PUBLIC "-//W3C//DTD SVG 1.1//EN" "http://www.w3.org/Graphics/SVG/1.1/DTD/svg11.dtd"><svg xmlns="http://www.w3.org/2000/svg" xmlns:xlink="http://www.w3.org/1999/xlink" version="1.1" width="512" height="512" viewBox="0 0 512 512">    <path fill="#ffffff" transform="scale(1, -1) translate(0, -448)" glyph-name="registered-trademark" unicode="&#xFA66;" horiz-adv-x="512" d=" M256 405.3333333333333C138.24 405.3333333333333 42.6666666666667 309.76 42.6666666666667 192S138.24 -21.3333333333333 256 -21.3333333333333S469.3333333333333 74.24 469.3333333333333 192S373.76 405.3333333333333 256 405.3333333333333M256 21.3333333333334C161.92 21.3333333333334 85.3333333333333 97.92 85.3333333333333 192S161.92 362.6666666666667 256 362.6666666666667S426.6666666666667 286.0800000000001 426.6666666666667 192S350.08 21.3333333333334 256 21.3333333333334M261.3333333333333 164.9066666666667H230.6133333333334V96H192V283.52H261.5466666666666C283.52 283.52 300.5866666666667 278.6133333333334 312.7466666666667 268.8C324.6933333333334 258.7733333333333 330.6666666666667 245.3333333333334 330.6666666666667 226.9866666666667C330.6666666666667 214.1866666666667 327.8933333333333 203.5200000000001 322.3466666666667 194.9866666666667C316.8 186.4533333333334 308.48 179.6266666666667 297.1733333333333 174.72L337.7066666666667 98.1333333333334V96H296.32L261.3333333333333 164.9066666666667M230.6133333333334 196.0533333333334H261.76C271.36 196.0533333333334 278.8266666666667 198.6133333333334 284.16 203.5200000000001C289.4933333333334 208.4266666666667 292.0533333333333 215.2533333333334 292.0533333333333 224C292.0533333333333 232.7466666666667 289.7066666666667 239.5733333333334 284.5866666666667 244.6933333333334C279.68 249.8133333333334 272 252.1600000000001 261.5466666666666 252.1600000000001H230.6133333333334V196.0533333333334z" /></svg>