<?xml version="1.0" encoding="UTF-8"?><!DOCTYPE svg PUBLIC "-//W3C//DTD SVG 1.1//EN" "http://www.w3.org/Graphics/SVG/1.1/DTD/svg11.dtd"><svg xmlns="http://www.w3.org/2000/svg" xmlns:xlink="http://www.w3.org/1999/xlink" version="1.1" width="512" height="512" viewBox="0 0 512 512">    <path fill="#ffffff" transform="scale(1, -1) translate(0, -448)" glyph-name="air-purifier" unicode="&#xFD20;" horiz-adv-x="512" d=" M234.6666666666667 256C281.8133333333334 256 320 217.8133333333334 320 170.6666666666667S281.8133333333334 85.3333333333334 234.6666666666667 85.3333333333334S149.3333333333333 123.52 149.3333333333333 170.6666666666667S187.52 256 234.6666666666667 256M234.6666666666667 213.3333333333334C211.2 213.3333333333334 192 194.1333333333333 192 170.6666666666667S211.2 128 234.6666666666667 128S277.3333333333333 147.2000000000001 277.3333333333333 170.6666666666667S258.1333333333334 213.3333333333334 234.6666666666667 213.3333333333334M149.3333333333333 362.6666666666667H298.6666666666667C345.8133333333334 362.6666666666667 384 324.48 384 277.3333333333334V256H341.3333333333333V277.3333333333334C341.3333333333333 300.8 322.1333333333334 320 298.6666666666667 320H149.3333333333333C125.8666666666667 320 106.6666666666667 300.8 106.6666666666667 277.3333333333334V21.3333333333334H341.3333333333333V64H384V-21.3333333333333H64V277.3333333333334C64 324.48 102.1866666666667 362.6666666666667 149.3333333333333 362.6666666666667M341.3333333333333 213.3333333333334C394.6666666666667 213.3333333333334 394.6666666666667 256 448 256V213.3333333333334C394.6666666666667 213.3333333333334 394.6666666666667 170.6666666666667 341.3333333333333 170.6666666666667V213.3333333333334M341.3333333333333 128C394.6666666666667 128 394.6666666666667 170.6666666666667 448 170.6666666666667V128C394.6666666666667 128 394.6666666666667 85.3333333333334 341.3333333333333 85.3333333333334V128z" /></svg>