<?xml version="1.0" encoding="UTF-8"?><!DOCTYPE svg PUBLIC "-//W3C//DTD SVG 1.1//EN" "http://www.w3.org/Graphics/SVG/1.1/DTD/svg11.dtd"><svg xmlns="http://www.w3.org/2000/svg" xmlns:xlink="http://www.w3.org/1999/xlink" version="1.1" width="512" height="512" viewBox="0 0 512 512">    <path fill="#ffffff" transform="scale(1, -1) translate(0, -448)" glyph-name="map-marker-multiple" unicode="&#xF350;" horiz-adv-x="512" d=" M298.6666666666667 202.6666666666667C328.1066666666667 202.6666666666667 352 226.5600000000001 352 256S328.1066666666667 309.3333333333334 298.6666666666667 309.3333333333334S245.3333333333333 285.44 245.3333333333333 256S269.2266666666667 202.6666666666667 298.6666666666667 202.6666666666667M298.6666666666667 405.3333333333333C381.0133333333333 405.3333333333333 448 338.56 448 256C448 144 298.6666666666667 -21.3333333333333 298.6666666666667 -21.3333333333333S149.3333333333333 144 149.3333333333333 256C149.3333333333333 338.56 216.1066666666666 405.3333333333333 298.6666666666667 405.3333333333333M106.6666666666667 256C106.6666666666667 160 215.04 28.5866666666667 234.6666666666667 4.0533333333333L213.3333333333333 -21.3333333333333S64 144 64 256C64 323.6266666666667 109.0133333333333 380.8 170.6666666666667 399.1466666666667C131.4133333333333 363.9466666666667 106.6666666666667 312.9600000000001 106.6666666666667 256z" /></svg>