<?xml version="1.0" encoding="UTF-8"?><!DOCTYPE svg PUBLIC "-//W3C//DTD SVG 1.1//EN" "http://www.w3.org/Graphics/SVG/1.1/DTD/svg11.dtd"><svg xmlns="http://www.w3.org/2000/svg" xmlns:xlink="http://www.w3.org/1999/xlink" version="1.1" width="512" height="512" viewBox="0 0 512 512">    <path fill="#ffffff" transform="scale(1, -1) translate(0, -448)" glyph-name="image-filter-tilt-shift" unicode="&#xF2F7;" horiz-adv-x="512" d=" M121.1733333333333 26.8800000000001C152.7466666666667 1.0666666666667 192 -16 234.6666666666667 -20.2666666666666V22.8266666666667C203.52 26.6666666666667 175.1466666666667 39.0400000000001 151.4666666666667 57.3866666666667M277.3333333333333 22.8266666666667V-20.2666666666666C320 -16 359.2533333333334 1.0666666666667 390.8266666666667 26.8800000000001L360.32 57.3866666666667C336.8533333333334 39.0400000000001 308.48 26.6666666666667 277.3333333333333 22.8266666666667M390.6133333333333 87.4666666666667L421.12 56.96C446.9333333333333 88.5333333333334 464 128.0000000000001 468.2666666666667 170.6666666666668H425.1733333333333C421.3333333333333 139.5200000000001 408.9599999999999 111.1466666666667 390.6133333333333 87.4666666666667M320 192C320 227.4133333333334 291.4133333333333 256 256 256S192 227.4133333333334 192 192S220.5866666666667 128 256 128S320 156.5866666666667 320 192M86.8266666666667 170.6666666666667H43.7333333333333C48 128 65.0666666666667 88.7466666666667 90.88 57.1733333333334L121.3866666666667 87.68C103.04 111.1466666666667 90.6666666666667 139.52 86.8266666666667 170.6666666666667M121.3866666666667 296.5333333333334L90.88 326.8266666666667C65.0666666666667 295.2533333333334 48 256 43.7333333333333 213.3333333333334H86.8266666666667C90.6666666666667 244.48 103.04 272.8533333333334 121.3866666666667 296.5333333333334M425.1733333333333 213.3333333333334H468.2666666666667C464 256 446.9333333333333 295.2533333333334 421.12 326.8266666666667L390.6133333333333 296.5333333333334C408.9599999999999 272.8533333333334 421.3333333333333 244.48 425.1733333333333 213.3333333333334M390.8266666666667 357.12C359.2533333333334 382.9333333333334 320 400 277.3333333333333 404.2666666666667V361.1733333333334C308.48 357.3333333333334 336.8533333333333 344.9600000000001 360.5333333333333 326.6133333333334M234.6666666666667 361.1733333333334V404.2666666666667C192 400 152.7466666666667 382.9333333333334 121.1733333333333 357.12L151.4666666666667 326.6133333333334C175.1466666666667 344.9600000000001 203.52 357.3333333333334 234.6666666666667 361.1733333333334z" /></svg>