<?xml version="1.0" encoding="UTF-8"?><!DOCTYPE svg PUBLIC "-//W3C//DTD SVG 1.1//EN" "http://www.w3.org/Graphics/SVG/1.1/DTD/svg11.dtd"><svg xmlns="http://www.w3.org/2000/svg" xmlns:xlink="http://www.w3.org/1999/xlink" version="1.1" width="512" height="512" viewBox="0 0 512 512">    <path fill="#ffffff" transform="scale(1, -1) translate(0, -448)" glyph-name="speaker-bluetooth" unicode="&#xF9A1;" horiz-adv-x="512" d=" M85.3333333333333 384C61.8666666666667 384 42.6666666666667 364.8 42.6666666666667 341.3333333333334V42.6666666666667C42.6666666666667 19.2 61.8666666666667 0 85.3333333333333 0H256C279.4666666666667 0 298.6666666666667 19.2 298.6666666666667 42.6666666666667V341.3333333333334C298.6666666666667 364.8 279.4666666666667 384 256 384H85.3333333333333M170.6666666666667 341.3333333333334C194.1333333333333 341.3333333333334 213.3333333333333 322.1333333333334 213.3333333333333 298.6666666666667S194.1333333333333 256 170.6666666666667 256S128 275.2000000000001 128 298.6666666666667S147.2 341.3333333333334 170.6666666666667 341.3333333333334M405.3333333333333 298.6666666666667V217.8133333333334L356.48 266.6666666666667L341.3333333333333 251.52L400.8533333333333 192L341.3333333333333 132.48L356.48 117.3333333333334L405.3333333333333 166.1866666666667V85.3333333333334H416L476.8 146.3466666666667L431.1466666666667 192L476.8 237.8666666666667L416 298.6666666666667H405.3333333333333M426.6666666666667 257.92L446.7200000000001 237.8666666666667L426.6666666666667 217.8133333333334V257.92M170.6666666666667 213.3333333333334C217.8133333333333 213.3333333333334 256 175.1466666666667 256 128S217.8133333333333 42.6666666666667 170.6666666666667 42.6666666666667S85.3333333333333 80.8533333333334 85.3333333333333 128S123.52 213.3333333333334 170.6666666666667 213.3333333333334M170.6666666666667 170.6666666666667C147.2 170.6666666666667 128 151.4666666666667 128 128S147.2 85.3333333333334 170.6666666666667 85.3333333333334S213.3333333333333 104.5333333333333 213.3333333333333 128S194.1333333333333 170.6666666666667 170.6666666666667 170.6666666666667M426.6666666666667 166.1866666666667L446.7200000000001 146.3466666666667L426.6666666666667 126.2933333333334V166.1866666666667z" /></svg>