<?xml version="1.0" encoding="UTF-8"?><!DOCTYPE svg PUBLIC "-//W3C//DTD SVG 1.1//EN" "http://www.w3.org/Graphics/SVG/1.1/DTD/svg11.dtd"><svg xmlns="http://www.w3.org/2000/svg" xmlns:xlink="http://www.w3.org/1999/xlink" version="1.1" width="512" height="512" viewBox="0 0 512 512">    <path fill="#ffffff" transform="scale(1, -1) translate(0, -448)" glyph-name="database-refresh" unicode="&#xFCDB;" horiz-adv-x="512" d=" M405.3333333333333 192V160C452.48 160 490.6666666666666 121.8133333333334 490.6666666666666 74.6666666666667C490.6666666666666 57.1733333333334 485.3333333333333 40.96 476.3733333333333 27.52L453.1199999999999 50.7733333333333C456.7466666666667 58.0266666666666 458.6666666666666 66.1333333333333 458.6666666666666 74.6666666666667C458.6666666666666 104.1066666666667 434.7733333333333 128 405.3333333333333 128V96L357.3333333333333 144L405.3333333333333 192M405.3333333333333 -42.6666666666666V-10.6666666666666C358.1866666666666 -10.6666666666666 320 27.52 320 74.6666666666667C320 92.16 325.3333333333333 108.3733333333333 334.2933333333333 121.8133333333334L357.5466666666667 98.5600000000001C353.92 91.3066666666667 352 83.2000000000001 352 74.6666666666667C352 45.2266666666667 375.8933333333333 21.3333333333334 405.3333333333333 21.3333333333334V53.3333333333334L453.3333333333333 5.3333333333334L405.3333333333333 -42.6666666666666M256 384C350.2933333333334 384 426.6666666666667 345.8133333333334 426.6666666666667 298.6666666666667S350.2933333333334 213.3333333333334 256 213.3333333333334S85.3333333333333 251.52 85.3333333333333 298.6666666666667S161.7066666666667 384 256 384M85.3333333333333 256C85.3333333333333 208.8533333333333 161.7066666666667 170.6666666666667 256 170.6666666666667C279.68 170.6666666666667 302.2933333333333 173.0133333333333 322.9866666666667 177.4933333333334C302.7200000000001 159.1466666666667 288 135.04 281.1733333333333 107.52L256 106.6666666666667C161.7066666666667 106.6666666666667 85.3333333333333 144.8533333333334 85.3333333333333 192V256M426.6666666666667 256V213.3333333333334H416L403.2 212.6933333333334C418.1333333333333 225.4933333333334 426.6666666666667 240.2133333333334 426.6666666666667 256M85.3333333333333 149.3333333333334C85.3333333333333 102.1866666666667 161.7066666666667 64 256 64L277.3333333333333 64.64C279.2533333333334 42.0266666666668 286.2933333333333 21.3333333333334 297.6 2.5600000000001L256 0C161.7066666666667 0 85.3333333333333 38.1866666666667 85.3333333333333 85.3333333333334V149.3333333333334z" /></svg>