<?xml version="1.0" encoding="UTF-8"?><!DOCTYPE svg PUBLIC "-//W3C//DTD SVG 1.1//EN" "http://www.w3.org/Graphics/SVG/1.1/DTD/svg11.dtd"><svg xmlns="http://www.w3.org/2000/svg" xmlns:xlink="http://www.w3.org/1999/xlink" version="1.1" width="512" height="512" viewBox="0 0 512 512">    <path fill="#ffffff" transform="scale(1, -1) translate(0, -448)" glyph-name="decimal-increase" unicode="&#xF1BF;" horiz-adv-x="512" d=" M469.3333333333333 85.3333333333334L405.3333333333333 21.3333333333334V64H277.3333333333333V106.6666666666667H405.3333333333333V149.3333333333334L469.3333333333333 85.3333333333334M192 341.3333333333334C227.4133333333334 341.3333333333334 256 312.7466666666667 256 277.3333333333334V213.3333333333334C256 177.92 227.4133333333334 149.3333333333334 192 149.3333333333334S128 177.92 128 213.3333333333334V277.3333333333334C128 312.7466666666667 156.5866666666667 341.3333333333334 192 341.3333333333334M192 298.6666666666667C180.2666666666667 298.6666666666667 170.6666666666667 289.0666666666667 170.6666666666667 277.3333333333334V213.3333333333334C170.6666666666667 201.6 180.2666666666667 192 192 192S213.3333333333333 201.6 213.3333333333333 213.3333333333334V277.3333333333334C213.3333333333333 289.0666666666667 203.7333333333334 298.6666666666667 192 298.6666666666667M341.3333333333333 341.3333333333334C376.7466666666667 341.3333333333334 405.3333333333333 312.7466666666667 405.3333333333333 277.3333333333334V213.3333333333334C405.3333333333333 177.92 376.7466666666667 149.3333333333334 341.3333333333333 149.3333333333334S277.3333333333333 177.92 277.3333333333333 213.3333333333334V277.3333333333334C277.3333333333333 312.7466666666667 305.92 341.3333333333334 341.3333333333333 341.3333333333334M341.3333333333333 298.6666666666667C329.6 298.6666666666667 320 289.0666666666667 320 277.3333333333334V213.3333333333334C320 201.6 329.6 192 341.3333333333333 192S362.6666666666667 201.6 362.6666666666667 213.3333333333334V277.3333333333334C362.6666666666667 289.0666666666667 353.0666666666667 298.6666666666667 341.3333333333333 298.6666666666667M85.3333333333333 192C97.0666666666667 192 106.6666666666667 182.4 106.6666666666667 170.6666666666667S97.0666666666667 149.3333333333334 85.3333333333333 149.3333333333334S64 158.9333333333333 64 170.6666666666667S73.6 192 85.3333333333333 192z" /></svg>