<?xml version="1.0" encoding="UTF-8"?><!DOCTYPE svg PUBLIC "-//W3C//DTD SVG 1.1//EN" "http://www.w3.org/Graphics/SVG/1.1/DTD/svg11.dtd"><svg xmlns="http://www.w3.org/2000/svg" xmlns:xlink="http://www.w3.org/1999/xlink" version="1.1" width="512" height="512" viewBox="0 0 512 512">    <path fill="#ffffff" transform="scale(1, -1) translate(0, -448)" glyph-name="battery-charging-wireless-60" unicode="&#xF80C;" horiz-adv-x="512" d=" M428.16 342.8266666666667L398.08 312.7466666666667C464.8533333333333 246.1866666666667 464.8533333333333 138.0266666666667 398.08 71.2533333333333L428.16 41.1733333333333C511.36 124.3733333333333 511.36 259.4133333333334 428.16 342.8266666666667M367.7866666666667 282.4533333333334L337.7066666666667 252.3733333333334C370.9866666666667 219.0933333333333 370.9866666666667 165.12 337.7066666666667 131.6266666666667L367.7866666666667 101.5466666666667C417.7066666666667 151.4666666666667 417.7066666666667 232.5333333333334 367.7866666666667 282.4533333333334M277.3333333333333 362.6666666666667H234.6666666666667V405.3333333333333H106.6666666666667V362.6666666666667H64C52.2666666666667 362.6666666666667 42.6666666666667 353.0666666666667 42.6666666666667 341.3333333333334V0C42.6666666666667 -11.7333333333333 52.2666666666667 -21.3333333333333 64 -21.3333333333333H277.3333333333333C289.0666666666667 -21.3333333333333 298.6666666666667 -11.7333333333333 298.6666666666667 0V341.3333333333334C298.6666666666667 353.0666666666667 289.0666666666667 362.6666666666667 277.3333333333333 362.6666666666667M256 200.5333333333334H85.3333333333333V320H256V200.5333333333334z" /></svg>