<?xml version="1.0" encoding="UTF-8"?><!DOCTYPE svg PUBLIC "-//W3C//DTD SVG 1.1//EN" "http://www.w3.org/Graphics/SVG/1.1/DTD/svg11.dtd"><svg xmlns="http://www.w3.org/2000/svg" xmlns:xlink="http://www.w3.org/1999/xlink" version="1.1" width="512" height="512" viewBox="0 0 512 512">    <path fill="#ffffff" transform="scale(1, -1) translate(0, -448)" glyph-name="cloud-print-outline" unicode="&#xF166;" horiz-adv-x="512" d=" M405.3333333333333 106.6666666666667C440.7466666666667 106.6666666666667 469.3333333333333 135.2533333333333 469.3333333333333 170.6666666666667S440.7466666666667 234.6666666666667 405.3333333333333 234.6666666666667H373.3333333333333V245.3333333333334C373.3333333333333 310.1866666666667 320.8533333333333 362.6666666666667 256 362.6666666666667C202.6666666666667 362.6666666666667 157.2266666666667 326.6133333333334 143.1466666666667 277.3333333333334H128C80.8533333333333 277.3333333333334 42.6666666666667 239.1466666666667 42.6666666666667 192S80.8533333333333 106.6666666666667 128 106.6666666666667V213.3333333333334H384V106.6666666666667H405.3333333333333M413.0133333333333 276.48C468.2666666666667 272.64 512 226.9866666666667 512 170.6666666666667C512 111.7866666666667 464.2133333333333 64 405.3333333333333 64H384V-21.3333333333333H128V64C57.3866666666667 64 0 121.3866666666667 0 192C0 257.92 49.92 312.32 114.1333333333333 319.1466666666667C140.8 370.3466666666667 194.3466666666666 405.3333333333333 256 405.3333333333333C333.6533333333333 405.3333333333333 398.2933333333334 349.8666666666667 413.0133333333333 276.48M170.6666666666667 170.6666666666667V21.3333333333334H341.3333333333333V170.6666666666667H170.6666666666667M192 64H320V42.6666666666667H192V64M320 85.3333333333334H192V106.6666666666667H320V85.3333333333334M192 149.3333333333334H320V128H192V149.3333333333334z" /></svg>