<?xml version="1.0" encoding="UTF-8"?><!DOCTYPE svg PUBLIC "-//W3C//DTD SVG 1.1//EN" "http://www.w3.org/Graphics/SVG/1.1/DTD/svg11.dtd"><svg xmlns="http://www.w3.org/2000/svg" xmlns:xlink="http://www.w3.org/1999/xlink" version="1.1" width="512" height="512" viewBox="0 0 512 512">    <path fill="#ffffff" transform="scale(1, -1) translate(0, -448)" glyph-name="book-open-page-variant" unicode="&#xF5DA;" horiz-adv-x="512" d=" M405.3333333333333 405.3333333333333L298.6666666666667 309.3333333333334V74.6666666666667L405.3333333333333 170.6666666666667V405.3333333333333M138.6666666666667 341.3333333333334C97.0666666666667 341.3333333333334 52.2666666666667 332.8 21.3333333333333 309.3333333333334V-3.4133333333333C21.3333333333333 -8.7466666666667 26.6666666666667 -14.08 32 -14.08C34.1333333333333 -14.08 35.2 -12.5866666666666 37.3333333333333 -12.5866666666666C66.1333333333333 1.28 107.7333333333333 10.6666666666667 138.6666666666667 10.6666666666667C180.2666666666667 10.6666666666667 225.0666666666667 2.1333333333334 256 -21.3333333333333C284.8 -3.1999999999999 337.0666666666667 10.6666666666667 373.3333333333333 10.6666666666667C408.5333333333333 10.6666666666667 444.8 4.0533333333334 474.6666666666666 -11.9466666666666C476.8 -13.0133333333333 477.8666666666666 -12.5866666666666 480 -12.5866666666666C485.3333333333333 -12.5866666666666 490.6666666666666 -7.2533333333333 490.6666666666666 -1.92V309.3333333333334C477.8666666666666 318.9333333333334 464 325.3333333333334 448 330.6666666666667V42.6666666666667C424.5333333333333 50.1333333333334 398.9333333333333 53.3333333333334 373.3333333333333 53.3333333333334C337.0666666666667 53.3333333333334 284.8 39.4666666666667 256 21.3333333333334V309.3333333333334C225.0666666666667 332.8 180.2666666666667 341.3333333333334 138.6666666666667 341.3333333333334z" /></svg>