<?xml version="1.0" encoding="UTF-8"?><!DOCTYPE svg PUBLIC "-//W3C//DTD SVG 1.1//EN" "http://www.w3.org/Graphics/SVG/1.1/DTD/svg11.dtd"><svg xmlns="http://www.w3.org/2000/svg" xmlns:xlink="http://www.w3.org/1999/xlink" version="1.1" width="512" height="512" viewBox="0 0 512 512">    <path fill="#ffffff" transform="scale(1, -1) translate(0, -448)" glyph-name="subway" unicode="&#xF6AB;" horiz-adv-x="512" d=" M181.3333333333333 128C193.0666666666667 128 202.6666666666667 118.4 202.6666666666667 106.6666666666667S193.0666666666667 85.3333333333334 181.3333333333333 85.3333333333334S160 94.9333333333333 160 106.6666666666667S169.6 128 181.3333333333333 128M149.3333333333333 256H362.6666666666667V149.3333333333334H149.3333333333333V256M330.6666666666667 128C342.4 128 352 118.4 352 106.6666666666667S342.4 85.3333333333334 330.6666666666667 85.3333333333334S309.3333333333333 94.9333333333333 309.3333333333333 106.6666666666667S318.9333333333333 128 330.6666666666667 128M384 109.2266666666667V256C384 311.8933333333333 326.8266666666667 320 256 320C192 320 128 312.1066666666667 128 256V109.2266666666667C128 78.2933333333334 152.96 53.3333333333334 183.8933333333334 53.3333333333334L160 29.44V21.3333333333334H195.6266666666667L227.6266666666667 53.3333333333334H288L320 21.3333333333334H352V29.44L327.8933333333333 53.3333333333334C358.8266666666667 53.3333333333334 384 78.2933333333334 384 109.2266666666667M379.7333333333334 388.2666666666667C436.6933333333333 366.0800000000001 469.3333333333333 318.9333333333334 469.3333333333333 258.9866666666667V-21.3333333333333H42.6666666666667V258.9866666666667C42.6666666666667 318.9333333333334 75.3066666666667 366.0800000000001 132.2666666666667 388.2666666666667C170.6666666666667 403.4133333333334 216.32 405.3333333333333 256 405.3333333333333C295.68 405.3333333333333 341.3333333333333 403.4133333333334 379.7333333333334 388.2666666666667z" /></svg>