<?xml version="1.0" encoding="UTF-8"?><!DOCTYPE svg PUBLIC "-//W3C//DTD SVG 1.1//EN" "http://www.w3.org/Graphics/SVG/1.1/DTD/svg11.dtd"><svg xmlns="http://www.w3.org/2000/svg" xmlns:xlink="http://www.w3.org/1999/xlink" version="1.1" width="512" height="512" viewBox="0 0 512 512">    <path fill="#ffffff" transform="scale(1, -1) translate(0, -448)" glyph-name="security-network" unicode="&#xF484;" horiz-adv-x="512" d=" M277.3333333333333 42.6666666666667H298.6666666666667C310.4 42.6666666666667 320 33.0666666666667 320 21.3333333333334H469.3333333333333V-21.3333333333333H320C320 -33.0666666666667 310.4 -42.6666666666666 298.6666666666667 -42.6666666666666H213.3333333333333C201.6 -42.6666666666666 192 -33.0666666666667 192 -21.3333333333333H42.6666666666667V21.3333333333334H192C192 33.0666666666667 201.6 42.6666666666667 213.3333333333333 42.6666666666667H234.6666666666667V78.08C172.16 103.8933333333334 128 170.6666666666667 128 241.7066666666667V327.04L256 384L384 327.04V241.7066666666667C384 170.6666666666667 339.84 103.8933333333334 277.3333333333333 78.08V42.6666666666667M256 341.3333333333334L170.6666666666667 305.28V234.6666666666667H256V341.3333333333334M256 234.6666666666667V106.6666666666667C296.7466666666667 116.6933333333334 341.3333333333333 169.3866666666667 341.3333333333333 213.3333333333334V234.6666666666667H256z" /></svg>