<?xml version="1.0" encoding="UTF-8"?><!DOCTYPE svg PUBLIC "-//W3C//DTD SVG 1.1//EN" "http://www.w3.org/Graphics/SVG/1.1/DTD/svg11.dtd"><svg xmlns="http://www.w3.org/2000/svg" xmlns:xlink="http://www.w3.org/1999/xlink" version="1.1" width="512" height="512" viewBox="0 0 512 512">    <path fill="#ffffff" transform="scale(1, -1) translate(0, -448)" glyph-name="arrow-decision-auto" unicode="&#xF9BB;" horiz-adv-x="512" d=" M256 341.3333333333334H192L277.3333333333333 426.6666666666667L362.6666666666667 341.3333333333334H298.6666666666667V246.8266666666667C282.6666666666667 237.0133333333333 268.3733333333334 224.8533333333334 256 210.7733333333334V341.3333333333334M221.8666666666667 128H181.3333333333333L166.4 170.6666666666667H98.1333333333333L83.2 128H42.6666666666667L110.9333333333333 320H153.6L221.8666666666667 128M156.8 199.4666666666667L132.2666666666667 277.3333333333334L107.7333333333334 199.4666666666667H156.8M490.6666666666666 213.3333333333334L405.3333333333333 298.6666666666667V234.6666666666667C328.32 237.8666666666667 262.6133333333333 179.84 256 103.04C222.72 91.3066666666666 205.2266666666667 54.6133333333333 216.96 21.3333333333334C228.6933333333334 -11.9466666666666 265.3866666666667 -29.4399999999999 298.6666666666667 -17.7066666666666C331.9466666666667 -5.76 349.44 30.72 337.7066666666667 64C331.3066666666666 82.3466666666667 316.8 96.64 298.6666666666667 103.04C308.6933333333334 188.3733333333333 394.0266666666667 192.64 404.2666666666667 192.64V128.64L490.6666666666666 213.3333333333334z" /></svg>