<?xml version="1.0" encoding="UTF-8"?><!DOCTYPE svg PUBLIC "-//W3C//DTD SVG 1.1//EN" "http://www.w3.org/Graphics/SVG/1.1/DTD/svg11.dtd"><svg xmlns="http://www.w3.org/2000/svg" xmlns:xlink="http://www.w3.org/1999/xlink" version="1.1" width="512" height="512" viewBox="0 0 512 512">    <path fill="#ffffff" transform="scale(1, -1) translate(0, -448)" glyph-name="google-assistant" unicode="&#xF7CC;" horiz-adv-x="512" d=" M149.3333333333333 405.3333333333333C78.72 405.3333333333333 21.3333333333333 347.9466666666667 21.3333333333333 277.3333333333334S78.72 149.3333333333334 149.3333333333333 149.3333333333334S277.3333333333333 206.72 277.3333333333333 277.3333333333334S219.9466666666667 405.3333333333333 149.3333333333333 405.3333333333333M458.6666666666666 320C440.9600000000001 320 426.6666666666667 305.7066666666667 426.6666666666667 288S440.9600000000001 256 458.6666666666666 256S490.6666666666666 270.2933333333334 490.6666666666666 288S476.3733333333333 320 458.6666666666666 320M362.6666666666667 277.3333333333334C327.2533333333334 277.3333333333334 298.6666666666667 248.7466666666667 298.6666666666667 213.3333333333334S327.2533333333334 149.3333333333334 362.6666666666667 149.3333333333334S426.6666666666667 177.92 426.6666666666667 213.3333333333334S398.08 277.3333333333334 362.6666666666667 277.3333333333334M362.6666666666667 128C321.4933333333334 128 288 94.5066666666667 288 53.3333333333334S321.4933333333334 -21.3333333333333 362.6666666666667 -21.3333333333333S437.3333333333333 12.16 437.3333333333333 53.3333333333334S403.84 128 362.6666666666667 128z" /></svg>