<?xml version="1.0" encoding="UTF-8"?><!DOCTYPE svg PUBLIC "-//W3C//DTD SVG 1.1//EN" "http://www.w3.org/Graphics/SVG/1.1/DTD/svg11.dtd"><svg xmlns="http://www.w3.org/2000/svg" xmlns:xlink="http://www.w3.org/1999/xlink" version="1.1" width="512" height="512" viewBox="0 0 512 512">    <path fill="#ffffff" transform="scale(1, -1) translate(0, -448)" glyph-name="tablet-cellphone" unicode="&#xF9A6;" horiz-adv-x="512" d=" M64 362.6666666666667H426.6666666666667C450.1333333333334 362.6666666666667 469.3333333333333 343.4666666666667 469.3333333333333 320V277.3333333333334H384V320H106.6666666666667V64H298.6666666666667V21.3333333333334H64C40.5333333333333 21.3333333333334 21.3333333333333 40.5333333333333 21.3333333333333 64V320C21.3333333333333 343.4666666666667 40.5333333333333 362.6666666666667 64 362.6666666666667M362.6666666666667 234.6666666666667H490.6666666666666C502.4 234.6666666666667 512 225.0666666666667 512 213.3333333333334V0C512 -11.7333333333333 502.4 -21.3333333333333 490.6666666666666 -21.3333333333333H362.6666666666667C350.9333333333333 -21.3333333333333 341.3333333333333 -11.7333333333333 341.3333333333333 0V213.3333333333334C341.3333333333333 225.0666666666667 350.9333333333333 234.6666666666667 362.6666666666667 234.6666666666667M384 192V42.6666666666667H469.3333333333333V192H384z" /></svg>