<?xml version="1.0" encoding="UTF-8"?><!DOCTYPE svg PUBLIC "-//W3C//DTD SVG 1.1//EN" "http://www.w3.org/Graphics/SVG/1.1/DTD/svg11.dtd"><svg xmlns="http://www.w3.org/2000/svg" xmlns:xlink="http://www.w3.org/1999/xlink" version="1.1" width="512" height="512" viewBox="0 0 512 512">    <path fill="#ffffff" transform="scale(1, -1) translate(0, -448)" glyph-name="gate-nand" unicode="&#xF8E1;" horiz-adv-x="512" d=" M42.6666666666667 362.6666666666667V21.3333333333334H213.3333333333333C286.5066666666667 21.3333333333334 352 67.4133333333334 375.4666666666667 136.5333333333334C384 132.2666666666667 394.6666666666667 128 405.3333333333333 128C440.7466666666667 128 469.3333333333333 156.5866666666667 469.3333333333333 192S440.7466666666667 256 405.3333333333333 256C394.6666666666667 256 384.64 252.8 375.4666666666667 247.4666666666667C352 316.5866666666667 286.5066666666667 362.6666666666667 213.3333333333333 362.6666666666667H42.6666666666667M85.3333333333333 320H213.3333333333333C283.9466666666667 320 341.3333333333333 262.6133333333334 341.3333333333333 192S283.9466666666667 64 213.3333333333333 64H85.3333333333333V320M405.3333333333333 213.3333333333334C416 213.3333333333334 426.6666666666667 202.6666666666667 426.6666666666667 192S416 170.6666666666667 405.3333333333333 170.6666666666667C393.6 170.6666666666667 384 180.2666666666667 384 192C384 202.6666666666667 394.6666666666667 213.3333333333334 405.3333333333333 213.3333333333334z" /></svg>