<?xml version="1.0" encoding="UTF-8"?><!DOCTYPE svg PUBLIC "-//W3C//DTD SVG 1.1//EN" "http://www.w3.org/Graphics/SVG/1.1/DTD/svg11.dtd"><svg xmlns="http://www.w3.org/2000/svg" xmlns:xlink="http://www.w3.org/1999/xlink" version="1.1" width="512" height="512" viewBox="0 0 512 512">    <path fill="#ffffff" transform="scale(1, -1) translate(0, -448)" glyph-name="gift-outline" unicode="&#xF2A1;" horiz-adv-x="512" d=" M469.3333333333333 192V21.3333333333334C469.3333333333333 -2.1333333333333 450.1333333333334 -21.3333333333333 426.6666666666667 -21.3333333333333H85.3333333333333C61.8666666666667 -21.3333333333333 42.6666666666667 -2.1333333333333 42.6666666666667 21.3333333333334V192C30.9333333333333 192 21.3333333333333 201.6 21.3333333333333 213.3333333333334V277.3333333333334C21.3333333333333 300.8 40.5333333333333 320 64 320H131.6266666666667C129.28 326.6133333333334 128 333.8666666666667 128 341.3333333333334C128 376.7466666666667 156.5866666666667 405.3333333333333 192 405.3333333333333C213.3333333333333 405.3333333333333 232.1066666666667 394.6666666666667 243.84 378.88V379.0933333333334L256 362.6666666666667L268.16 379.0933333333334V378.88C279.8933333333333 394.6666666666667 298.6666666666667 405.3333333333333 320 405.3333333333333C355.4133333333333 405.3333333333333 384 376.7466666666667 384 341.3333333333334C384 333.8666666666667 382.7200000000001 326.6133333333334 380.3733333333333 320H448C471.4666666666667 320 490.6666666666666 300.8 490.6666666666666 277.3333333333334V213.3333333333334C490.6666666666666 201.6 481.0666666666667 192 469.3333333333333 192M85.3333333333333 21.3333333333334H234.6666666666667V192H85.3333333333333V21.3333333333334M426.6666666666667 21.3333333333334V192H277.3333333333333V21.3333333333334H426.6666666666667M192 362.6666666666667C180.2666666666667 362.6666666666667 170.6666666666667 353.0666666666667 170.6666666666667 341.3333333333334S180.2666666666667 320 192 320S213.3333333333333 329.6 213.3333333333333 341.3333333333334S203.7333333333334 362.6666666666667 192 362.6666666666667M320 362.6666666666667C308.2666666666667 362.6666666666667 298.6666666666667 353.0666666666667 298.6666666666667 341.3333333333334S308.2666666666667 320 320 320S341.3333333333333 329.6 341.3333333333333 341.3333333333334S331.7333333333334 362.6666666666667 320 362.6666666666667M64 277.3333333333334V234.6666666666667H234.6666666666667V277.3333333333334H64M277.3333333333333 277.3333333333334V234.6666666666667H448V277.3333333333334H277.3333333333333z" /></svg>