<?xml version="1.0" encoding="UTF-8"?><!DOCTYPE svg PUBLIC "-//W3C//DTD SVG 1.1//EN" "http://www.w3.org/Graphics/SVG/1.1/DTD/svg11.dtd"><svg xmlns="http://www.w3.org/2000/svg" xmlns:xlink="http://www.w3.org/1999/xlink" version="1.1" width="512" height="512" viewBox="0 0 512 512">    <path fill="#ffffff" transform="scale(1, -1) translate(0, -448)" glyph-name="basket" unicode="&#xF076;" horiz-adv-x="512" d=" M117.3333333333333 0C100.6933333333333 0 86.1866666666667 9.6 79.1466666666667 23.4666666666667L23.4666666666667 225.2800000000001L21.3333333333333 234.6666666666667C21.3333333333333 246.4000000000001 30.9333333333333 256 42.6666666666667 256H140.3733333333333L238.5066666666667 396.1600000000001C242.3466666666667 401.7066666666667 248.7466666666667 405.3333333333334 256 405.3333333333334C263.2533333333334 405.3333333333334 269.8666666666667 401.7066666666667 273.7066666666667 395.9466666666667L371.6266666666667 256H469.3333333333333C481.0666666666667 256 490.6666666666666 246.4000000000001 490.6666666666666 234.6666666666667L489.8133333333333 228.48L432.8533333333333 23.4666666666667C425.8133333333334 9.6000000000001 411.3066666666666 0 394.6666666666667 0H117.3333333333333M256 346.88L192 256H320L256 346.88M256 170.6666666666667C232.5333333333334 170.6666666666667 213.3333333333333 151.4666666666667 213.3333333333333 128S232.5333333333334 85.3333333333334 256 85.3333333333334S298.6666666666667 104.5333333333333 298.6666666666667 128S279.4666666666667 170.6666666666667 256 170.6666666666667z" /></svg>