<?xml version="1.0" encoding="UTF-8"?><!DOCTYPE svg PUBLIC "-//W3C//DTD SVG 1.1//EN" "http://www.w3.org/Graphics/SVG/1.1/DTD/svg11.dtd"><svg xmlns="http://www.w3.org/2000/svg" xmlns:xlink="http://www.w3.org/1999/xlink" version="1.1" width="512" height="512" viewBox="0 0 512 512">    <path fill="#ffffff" transform="scale(1, -1) translate(0, -448)" glyph-name="midi" unicode="&#xF8F0;" horiz-adv-x="512" d=" M213.3333333333333 298.6666666666667H256V128H213.3333333333333V298.6666666666667M277.3333333333333 298.6666666666667H405.3333333333333C417.0666666666667 298.6666666666667 426.6666666666667 289.0666666666667 426.6666666666667 277.3333333333334V149.3333333333334C426.6666666666667 137.6 417.0666666666667 128 405.3333333333333 128H277.3333333333333V234.6666666666667H320V170.6666666666667H384V256H277.3333333333333V298.6666666666667M448 298.6666666666667H490.6666666666666V128H448V298.6666666666667M21.3333333333333 298.6666666666667H170.6666666666667C182.4 298.6666666666667 192 289.0666666666667 192 277.3333333333334V128H149.3333333333333V256H128V128H85.3333333333333V256H64V128H21.3333333333333V298.6666666666667M21.3333333333333 106.6666666666667H490.6666666666666V42.6666666666667H21.3333333333333V106.6666666666667z" /></svg>