<?xml version="1.0" encoding="UTF-8"?><!DOCTYPE svg PUBLIC "-//W3C//DTD SVG 1.1//EN" "http://www.w3.org/Graphics/SVG/1.1/DTD/svg11.dtd"><svg xmlns="http://www.w3.org/2000/svg" xmlns:xlink="http://www.w3.org/1999/xlink" version="1.1" width="512" height="512" viewBox="0 0 512 512">    <path fill="#ffffff" transform="scale(1, -1) translate(0, -448)" glyph-name="lan" unicode="&#xF317;" horiz-adv-x="512" d=" M213.3333333333333 405.3333333333333C189.6533333333333 405.3333333333333 170.6666666666667 386.3466666666667 170.6666666666667 362.6666666666667V298.6666666666667C170.6666666666667 274.9866666666667 189.6533333333333 256 213.3333333333333 256H234.6666666666667V213.3333333333334H42.6666666666667V170.6666666666667H128V128H106.6666666666667C82.9866666666667 128 64 109.0133333333333 64 85.3333333333334V21.3333333333334C64 -2.3466666666666 82.9866666666667 -21.3333333333333 106.6666666666667 -21.3333333333333H192C215.68 -21.3333333333333 234.6666666666667 -2.3466666666666 234.6666666666667 21.3333333333334V85.3333333333334C234.6666666666667 109.0133333333333 215.68 128 192 128H170.6666666666667V170.6666666666667H341.3333333333333V128H320C296.32 128 277.3333333333333 109.0133333333333 277.3333333333333 85.3333333333334V21.3333333333334C277.3333333333333 -2.3466666666666 296.32 -21.3333333333333 320 -21.3333333333333H405.3333333333333C429.0133333333333 -21.3333333333333 448 -2.3466666666666 448 21.3333333333334V85.3333333333334C448 109.0133333333333 429.0133333333333 128 405.3333333333333 128H384V170.6666666666667H469.3333333333333V213.3333333333334H277.3333333333333V256H298.6666666666667C322.3466666666667 256 341.3333333333333 274.9866666666667 341.3333333333333 298.6666666666667V362.6666666666667C341.3333333333333 386.3466666666667 322.3466666666667 405.3333333333333 298.6666666666667 405.3333333333333H213.3333333333333M213.3333333333333 362.6666666666667H298.6666666666667V298.6666666666667H213.3333333333333V362.6666666666667M106.6666666666667 85.3333333333334H192V21.3333333333334H106.6666666666667V85.3333333333334M320 85.3333333333334H405.3333333333333V21.3333333333334H320V85.3333333333334z" /></svg>