<?xml version="1.0" encoding="UTF-8"?><!DOCTYPE svg PUBLIC "-//W3C//DTD SVG 1.1//EN" "http://www.w3.org/Graphics/SVG/1.1/DTD/svg11.dtd"><svg xmlns="http://www.w3.org/2000/svg" xmlns:xlink="http://www.w3.org/1999/xlink" version="1.1" width="512" height="512" viewBox="0 0 512 512">    <path fill="#ffffff" transform="scale(1, -1) translate(0, -448)" glyph-name="briefcase-plus-outline" unicode="&#xFC1C;" horiz-adv-x="512" d=" M213.3333333333333 405.3333333333333H298.6666666666667C322.1333333333334 405.3333333333333 341.3333333333333 386.1333333333334 341.3333333333333 362.6666666666667V320H426.6666666666667C450.1333333333334 320 469.3333333333333 300.8 469.3333333333333 277.3333333333334V159.36C456.96 170.6666666666666 442.6666666666667 179.2 426.6666666666667 184.7466666666667V277.3333333333334H85.3333333333333V42.6666666666667H257.7066666666667C260.2666666666667 27.3066666666667 265.6 13.0133333333333 273.0666666666667 0H85.3333333333333C61.8666666666667 0 42.6666666666667 19.2 42.6666666666667 42.6666666666667V277.3333333333334C42.6666666666667 300.8 61.8666666666667 320 85.3333333333333 320H170.6666666666667V362.6666666666667C170.6666666666667 386.1333333333334 189.8666666666667 405.3333333333333 213.3333333333333 405.3333333333333M298.6666666666667 320V362.6666666666667H213.3333333333333V320H298.6666666666667M298.6666666666667 85.3333333333334H362.6666666666667V149.3333333333334H405.3333333333333V85.3333333333334H469.3333333333333V42.6666666666667H405.3333333333333V-21.3333333333333H362.6666666666667V42.6666666666667H298.6666666666667V85.3333333333334z" /></svg>