<?xml version="1.0" encoding="UTF-8"?><!DOCTYPE svg PUBLIC "-//W3C//DTD SVG 1.1//EN" "http://www.w3.org/Graphics/SVG/1.1/DTD/svg11.dtd"><svg xmlns="http://www.w3.org/2000/svg" xmlns:xlink="http://www.w3.org/1999/xlink" version="1.1" width="512" height="512" viewBox="0 0 512 512">    <path fill="#ffffff" transform="scale(1, -1) translate(0, -448)" glyph-name="zodiac-libra" unicode="&#xFA82;" horiz-adv-x="512" d=" M426.6666666666667 106.6666666666667V64H277.3333333333333V108.5866666666667C341.3333333333333 120.3200000000001 383.1466666666667 181.3333333333334 371.4133333333333 245.3333333333334C359.68 309.3333333333334 298.6666666666667 351.1466666666667 234.6666666666667 339.4133333333334C170.6666666666667 327.4666666666667 128.8533333333333 266.6666666666667 140.5866666666667 202.6666666666667C149.3333333333333 154.88 186.88 117.3333333333334 234.6666666666667 108.5866666666667V64H85.3333333333333V106.6666666666667H147.6266666666667C114.56 136.7466666666667 96 179.4133333333334 96 224C96 312.32 167.68 384 256 384C344.32 384 416 312.3200000000001 416 224C416 179.4133333333334 397.44 136.7466666666667 364.3733333333333 106.6666666666667H426.6666666666667M426.6666666666667 42.6666666666667H85.3333333333333V0H426.6666666666667V42.6666666666667z" /></svg>