<?xml version="1.0" encoding="UTF-8"?><!DOCTYPE svg PUBLIC "-//W3C//DTD SVG 1.1//EN" "http://www.w3.org/Graphics/SVG/1.1/DTD/svg11.dtd"><svg xmlns="http://www.w3.org/2000/svg" xmlns:xlink="http://www.w3.org/1999/xlink" version="1.1" width="512" height="512" viewBox="0 0 512 512">    <path fill="#ffffff" transform="scale(1, -1) translate(0, -448)" glyph-name="account-switch" unicode="&#xF019;" horiz-adv-x="512" d=" M341.3333333333333 256C391.04 256 490.6666666666666 231.04 490.6666666666666 181.3333333333334V128H362.6666666666667V181.3333333333334C362.6666666666667 213.3333333333334 345.3866666666667 237.0133333333333 320.8533333333333 254.9333333333334L341.3333333333333 256M170.6666666666667 256C220.3733333333333 256 320 231.04 320 181.3333333333334V128H21.3333333333333V181.3333333333334C21.3333333333333 231.04 120.96 256 170.6666666666667 256M170.6666666666667 298.6666666666667C135.2533333333333 298.6666666666667 106.6666666666667 327.2533333333334 106.6666666666667 362.6666666666667S135.2533333333333 426.6666666666667 170.6666666666667 426.6666666666667S234.6666666666667 398.08 234.6666666666667 362.6666666666667S206.08 298.6666666666667 170.6666666666667 298.6666666666667M341.3333333333333 298.6666666666667C305.92 298.6666666666667 277.3333333333333 327.2533333333334 277.3333333333333 362.6666666666667S305.92 426.6666666666667 341.3333333333333 426.6666666666667S405.3333333333333 398.08 405.3333333333333 362.6666666666667S376.7466666666667 298.6666666666667 341.3333333333333 298.6666666666667M192 90.6666666666667V42.6666666666667H320V90.6666666666667L389.3333333333333 21.3333333333334L320 -48V0H192V-48L122.6666666666667 21.3333333333334L192 90.6666666666667z" /></svg>